<svg xmlns="http://www.w3.org/2000/svg" viewBox="0 0 56.13739 55.05919">
  <title>Recurso 3</title>
  <g id="Capa_2" data-name="Capa 2">
    <g id="Editar">
      <g>
        <path d="M43.32609,26.84352A85.08544,85.08544,0,0,0,47.47622,14.1184c.96478-4.14914-4.03557-7.26728-7.18509-4.18256A43.67758,43.67758,0,0,1,31.948,16.121c-.48165-.67626-.94888-1.36255-1.42156-2.0316C29.71767,12.94282,27.4576,10.5,27.3037,9.16708a5.65527,5.65527,0,0,0-.83017-2.41185,2.94751,2.94751,0,0,0-2.4953-1.76866,4.44444,4.44444,0,0,0-.95921-.10388c-2.13166,0-4.5532,1.95946-4.28474,4.28439A12.80929,12.80929,0,0,0,19.748,12.85725c-.1132,2.16445-.05455,4.35724-.06762,6.40708-.00835,1.23458.01448,2.46153.05794,3.68508-4.67326,2.28246-9.51279,3.88379-13.71337,7.308-3.19778,2.60674-.26082,7.023,3.03016,7.3142a110.95528,110.95528,0,0,0,12.09783.14974c.38237,2.455.82465,4.89818,1.28913,7.34628.21115,1.11586.05929,2.0492.64587,3.10019-.79081-1.41569-.26224-.66043-.1773.24323a7.31881,7.31881,0,0,0,1.759,4.33958c2.78722,3.42179,7.31215.23807,8.52942-2.79415,1.45541-3.62636,2.8169-7.13782,4.51037-10.67727.16218-.33813.323-.67668.48518-1.01517,1.33874.09215,2.75478.57938,4.11423.74431,2.79344.33848,6.31776-.273,7.18722-3.43564C50.53678,31.79074,46.63574,28.86855,43.32609,26.84352Z" fill="#ffc531"/>
        <path d="M53.01688,32.93763A35.27323,35.27323,0,0,0,49,29.87573a24.15842,24.15842,0,0,1-2.9101-2.25278,1.71761,1.71761,0,0,0,.08415-.18041c1.27945-3.59569,2.955-6.99882,4.47179-10.49863,1.07516-2.48082,3.2717-6.61406.11525-8.45727-2.16622-1.26391-5.14876.15214-7.2535.87914a38.04879,38.04879,0,0,0-9.47208,4.42035c-2.03712-2.49813-3.9818-5.06968-6.06994-7.52676a23.22211,23.22211,0,0,0-2.25865-2.04192,11.91126,11.91126,0,0,1-1.20836-1.31528,5.33619,5.33619,0,0,1-.363-.51211,1.33287,1.33287,0,0,1-.1414-.26047c.795-1.02548-.54517-2.761-1.679-1.895a2.42521,2.42521,0,0,0-1.02619,2.39673c-.964.756-1.05926,1.75453-1.45053,2.98148-.28916.90846-.677,1.789-1.01856,2.6796-.36576.95538-.4237,1.94532-.72184,2.91a53.62448,53.62448,0,0,0-1.59412,5.98924c-.23595,1.26355-.68933,3.01222-.28011,4.32474a9.86206,9.86206,0,0,1-1.46714.0942,5.76033,5.76033,0,0,0-2.27865.67011c-1.82046.95715-3.52637,2.10234-5.29638,3.14577C4.73317,26.86938-.72022,29.34512.07928,32.9984c.64969,2.96593,3.68989,3.783,6.23141,4.51037,1.78321.51034,3.46559,1.29457,5.27708,1.74937,1.79559.45133,3.49875.22153,5.27984.54793a5.072,5.072,0,0,0,.55415,2.54435A47.28427,47.28427,0,0,1,19.786,47.20408c1.04132,2.69338,1.70245,7.11337,5.0576,7.7714,2.49121.48787,5.39022-1.23564,6.896-3.12266,2.02058-2.53325,4.331-5.13971,4.51731-8.47176,1.73071.89157,4.12532.74558,5.96916.68834,1.71213-.05243,3.40073-.30506,5.11491-.35643,2.59607-.07766,5.97822-.315,7.84143-2.38083C57.55976,38.69608,54.98708,34.91616,53.01688,32.93763Zm-.74042,5.85674c-1.08618,1.2273-4.06045,1.09791-5.54554,1.1442-1.51335.04727-2.99215.28845-4.50486.38639-2.02814.13115-4.35576-.45579-6.28384.24259a1.30947,1.30947,0,0,0-.93857,1.30977.83074.83074,0,0,0-.44441.28223c-1.6686,2.0085-2.96529,4.25542-4.56973,6.3184-.97439,1.25253-2.69818,3.37593-4.57524,3.08366-.86536-.13561-1.46155-2.70857-1.768-3.45182q-.853-2.06248-1.70591-4.126A20.57884,20.57884,0,0,0,20.34769,41.189a4.101,4.101,0,0,1-.53069-2.41941,1.38059,1.38059,0,0,0-1.11862-1.37329,3.43145,3.43145,0,0,0-3.37655-1.71142,14.55462,14.55462,0,0,1-4.63115-.73145c-1.423-.44928-2.77655-1.07622-4.21436-1.47851-.62729-.1756-2.24346-.46964-2.52364-1.18349-.03519-.08939,2.368-1.87049,2.68857-2.13993a25.32273,25.32273,0,0,1,2.44358-1.471c.80324-.52475,1.58239-1.08788,2.36288-1.6462a20.19544,20.19544,0,0,1,4.06384-2.73408,5.34772,5.34772,0,0,0,2.04892-1.318,1.19989,1.19989,0,0,0,.86811-.12387c1.51957-.85674,1.1842-2.64511,1.39259-4.16122a45.6761,45.6761,0,0,1,1.24073-5.48441c.40716-1.53031.60177-3.06712,1.03374-4.58973.263-.92578.53825-1.84152.74876-2.78213.01314-.05759.02-.11073.02827-.16422a14.90549,14.90549,0,0,0,1.109,1.19522A12.90286,12.90286,0,0,1,25.40183,8.2372c.75774.9816,1.48162,1.99055,2.22834,2.97943,1.58924,2.10545,3.17643,4.21259,4.84157,6.258a1.80341,1.80341,0,0,0,2.51955,0,26.44441,26.44441,0,0,1,8.92895-4.50416c1.42022-.43685,3.32208-1.52543,4.88023-1.36255-.0559.26909-.1214.5362-.20076.79978-.17391.6287-.49133,1.18349-.706,1.79318A41.61948,41.61948,0,0,1,45.789,18.85172c-.5962,1.19727-.98959,2.48117-1.56508,3.69568a15.10838,15.10838,0,0,0-1.39534,3.93248,1.38629,1.38629,0,0,0-.1325.85433c.46441,2.72652,3.44214,4.1767,5.23977,5.94472,1.051,1.034,2.34352,1.612,3.28484,2.84036C51.5843,36.59445,52.76984,38.23577,52.27646,38.79437Z" fill="#463131"/>
      </g>
    </g>
  </g>
</svg>
