<svg xmlns="http://www.w3.org/2000/svg" viewBox="0 0 211.3016 146.34147">
  <title>Recurso 1</title>
  <g id="Capa_2" data-name="Capa 2">
    <g id="Editar">
      <g>
        <g>
          <path d="M118.12887,96.577c-2.9893-4.167-7.7964-4.8584-12.5762-4.7578a27.70579,27.70579,0,0,0-6.626.8173c-.8496.2295-1.7402.5752-2.6475.8995a23.36146,23.36146,0,0,0-1.7451-10.2071c-1.5996-4.1338-4.0571-10.0342-9.0117-10.8525-5.0513-.835-10.939,2.1816-14.8999,5.0156a60.75551,60.75551,0,0,0-6.6235,5.4121,13.49112,13.49112,0,0,0-1.7842,2.0039,9.11272,9.11272,0,0,0-1.3096-2.1162c-1.8017-2.1416-4.4131-5.3808-7.0654-6.5088-5.5205-2.3457-12.0054-1.3867-17.083,1.6377a15.80823,15.80823,0,0,0-8.0303,14.416c.0151.3301.0352.6709.061,1.0176a8.7031,8.7031,0,0,0-8.6567-.4648c-3.0679,1.4541-5.5146,4.1279-8.4663,5.8535-3.042,1.7773-6.5195,4.1015-6.6118,7.9961-.168,7.0879,6.0434,10.8642,12.061,12.6152a21.82354,21.82354,0,0,0,6.1831.8115,12.85508,12.85508,0,0,0-.8188,4.958c.1421,3.8887,2.873,7.293,5.4248,9.9483,1.7329,1.8037,2.3984,4.6094,4.4682,6.4941,4.6792,4.2657,12.3228-.1972,16.8238-2.6816a22.73833,22.73833,0,0,0,4.7641-3.4649,18.894,18.894,0,0,0,3.585,3.8848c4.4521,3.6416,10.1758,2.1768,15.0474.4443,4.4951-1.5986,9.0971-3.2685,12.1533-7.1416a13.66374,13.66374,0,0,0,1.893-3.3623,29.66338,29.66338,0,0,0,4.646,3.5996c5.2935,3.2041,12.0498,2.8916,17.3858.0411,5.4795-2.9287,7.9516-8.1114,5.8139-14.1211a9.96474,9.96474,0,0,0-4.5083-5.0596,15.83748,15.83748,0,0,0,5.3838-4.1846C118.15567,106.10239,121.17477,100.826,118.12887,96.577Z" fill="#fff"/>
          <path d="M117.07167,112.36509c7.8028-2.6895,11.6309-13.7266,7.5967-20.7217-2.2051-3.8233-7.0474-6.2725-11.1875-7.1846-4.0605-.8936-8.3335-.0869-12.4668.0869a1.97083,1.97083,0,0,0,.041-.2412c.0611-.8301.544-1.7109.395-2.5449a17.04427,17.04427,0,0,0-.9477-3.3985,16.34839,16.34839,0,0,0-2.9805-4.7334c-2.6465-2.9687-5.8677-3.6679-9.5166-4.6933-3.8594-1.085-7.9321-1.1299-11.4853.918a25.152,25.152,0,0,0-6.9258,6.3086c-4.0415-3.2081-8.9912-4.9502-14-6.4874a31.23378,31.23378,0,0,0-9.9082-1.2177c-2.8941.0605-6.7861.5312-9.252,2.1894a27.99447,27.99447,0,0,0-7.2383,7.2451c-1.8374,2.6202-2.832,5.6065-4.4375,8.3106a7.69345,7.69345,0,0,0-1.0107,4.582c-9.1943-.7715-18.3291,4.7764-22.4824,13.1045-2.5254,5.0635-1.2153,11.7569,3.4424,15.0723,2.8217,2.0088,6.1884,2.0429,9.5166,2.0703a34.27355,34.27355,0,0,0,5.7207-.458c-.3955.9765-.7837,1.956-1.1138,2.9541a25.44334,25.44334,0,0,0-1.1787,8.501,15.01112,15.01112,0,0,0,7.9844,12.6464c8.0141,4.2627,17.521-.3857,24.1518-5.6337,3.0039,6.4853,12.2666,7.6015,19.0742,6.7216,6.959-.8984,15.6421-5.7099,19.2676-12.4755,5.9683,6.3388,15.1558,8.6738,23.5386,4.5878,4.9477-2.4101,8.9893-6.3115,8.9702-12.1806a15.1076,15.1076,0,0,0-2.1875-7.6582,14.0278,14.0278,0,0,0-2.0347-2.3731c-.9331-.9853-2.0869-1.417-3.017-2.2998-.9659-.917-2.4444.3047-2.0147,1.4531a18.708,18.708,0,0,0,1.6899,3.9903,10.67062,10.67062,0,0,1,1.8462,5.3662c.2447,4.3105-3.4106,6.9346-6.8549,8.5225-7.5035,3.4628-14.9341-.8291-18.7344-7.4551-1.2031-2.0977-4.9175-1.1787-5.1157,1.1855-.544,6.5049-8.92,12.0772-14.8614,13.1856-4.7583.8886-14.3091,1.4101-14.6279-5.3438-.1548-3.2549-4.4282-3.3086-5.6108-.917-5.9844,2.0557-12.335,7.3809-18.9288,5.9815-4.018-.8535-5.9335-5.1221-6.0502-8.7686-.1446-4.5224,2.2216-8.7851,3.5961-12.9756.918-2.7959-1.208-4.9463-4.0092-4.2763-4.1817,1.0009-10.2061,2.2187-14.4009.7802-3.7378-1.2812-3.3648-6.1005-2.0381-8.9687,2.8843-6.2354,11.1382-13.2861,18.2788-10.6748a3.88644,3.88644,0,0,0,1.6563.7383,1.49364,1.49364,0,0,0,.5185.0654,5.835,5.835,0,0,0,1.7422-.1445,2.69453,2.69453,0,0,0-.1016-5.3545,7.08151,7.08151,0,0,1,.5347-1.1797c.9297-1.7598,1.7725-3.6133,2.7783-5.3584,2.2891-3.9688,5.6201-7.5527,10.2564-8.3438a24.93423,24.93423,0,0,1,13.0703,1.6328c4.0806,1.5254,8.3823,2.836,11.3252,6.2432a3.25949,3.25949,0,0,0,5.084.1533c1.7431-2.1767,3.2353-4.5673,5.4604-6.2929,2.6333-2.042,4.9761-2.2735,8.1372-1.5684,2.4693.5508,5.0445.957,6.8106,2.9385a12.28991,12.28991,0,0,1,2.0107,3.4941c.4702,1.1084,1.2617,2.2344,1.6431,3.2822a2.15354,2.15354,0,0,0,1.0386,1.168,2.86017,2.86017,0,0,0,2.5888,3.7715c3.0401.0732,6.0655-.248,9.1045-.2471a14.24785,14.24785,0,0,1,9.834,4.1416c5.439,4.9453-2.48,11.8164-4.3389,16.2666A1.87584,1.87584,0,0,0,117.07167,112.36509Z" fill="#463131"/>
        </g>
        <g>
          <g>
            <path d="M173.92343,86.63564a20.96341,20.96341,0,0,0-5.36719-7.3442c-2.35941-2.8975-4.76661-5.7574-7.32331-8.4576-3.92569-7.4946-11.8613-13.4218-18.1894-18.1274-8.1094-6.0298-22.877-8.6167-28.4756,2.2988a16.11479,16.11479,0,0,0-1.209,7.979c-.1016.2866-.208.5708-.2959.8614a15.91208,15.91208,0,0,0-1.2822,6.3598,7.574,7.574,0,0,0,1.7383,4.648,16.746,16.746,0,0,0,.9326,1.9306c2.14651,3.7637,6.9316,6.1827,10.8213,7.9556,9.8271,7.7183,23.8135,11.1875,35.5566,15.1553,4.6787,1.5801,10.8047,1.8237,13.7197-2.9785C176.49273,93.71524,175.62553,89.891,173.92343,86.63564Z" fill="#a5bfce"/>
            <path d="M191.46733,60.95444c-1.7578-.3486-3.3955-.9506-5.043-1.416a47.00974,47.00974,0,0,0,7.9102-5.728c4.0889-3.8647,11.1006-11.8774,6.2353-17.6357-5.455-6.4541-15.1289-.251-20.5878,3.0844-4.0401,2.4673-6.7071,7.0708-10.5205,9.7364a49.00334,49.00334,0,0,0,4.5693-11.5254,5.03863,5.03863,0,0,0-3.7578-6.2266c.0371-.1382.0703-.2729.1074-.4126,1.1074-4.1977,2.8721-10.6509-1.19919-13.8623a5.40424,5.40424,0,0,0-7.41121.3833c0-.0864.004-.1714.0049-.2578-.0351-4.6489-1.7236-8.2876-3.0693-12.5679a2.0672,2.0672,0,0,0-3.9512.2715c-1.5088,8.9214-3.082,17.9053-4.40719,26.9023-1.24511,8.4585-1.25781,16.877-1.33691,25.3897-.0752,3.6152,2.7246,5.168,5.5146,4.8979a5.11144,5.11144,0,0,0,2.3985,1.3038,25.27562,25.27562,0,0,0,6.2597,4.8447c2.1524,1.2505,4.4453,2.7539,6.74811,3.895,1.02829,1.1304,2.18849,2.186,3.06539,3.1934,2.1494,2.4731,4.5078,4.6401,7.89361,5.0288,3.09469.355,6.72359-1.854,6.20019-5.4346a10.56565,10.56565,0,0,0-2.627-5.3735c-.5537-.7188-1.3496-1.0371-1.7197-1.7915l-.003-.0049c3.68951,1.9804,6.9903,4.1992,11.5557,4.3242,2.919.0801,5.2217-3.0273,5.0049-5.7441-.0254-.3213-.0498-.6421-.0762-.9634C198.87753,60.89544,194.523,59.58244,191.46733,60.95444Z" fill="#8897c4"/>
            <path d="M201.23,94.54774a54.87522,54.87522,0,0,0-14.0947.0991,5.63086,5.63086,0,0,0-3.0674,1.2989,7.83237,7.83237,0,0,0-2.4668.457,6.71472,6.71472,0,0,0-4.4551,5.3276,4.85647,4.85647,0,0,0-3.9433,7.5489c2.2509,3.6469,2.4384,8.0336,5.0234,11.645,2.7334,3.8222,9.4414,2.9521,10.2354-2.0591a23.81375,23.81375,0,0,0-.3907-8.354,5.63364,5.63364,0,0,0,8.7051-1.5884,6.11844,6.11844,0,0,0,.8281-3.4746q.6885.0696,1.376.1728C206.187,106.70694,208.42633,95.52284,201.23,94.54774Z" fill="#8897c4"/>
            <path d="M113.48883,52.36314a44.16875,44.16875,0,0,0-5.5088-1.5205,9.45452,9.45452,0,0,0-3.0117-.5024,20.15867,20.15867,0,0,0-2.0615.2895,3.78537,3.78537,0,0,0-3.1455,5.1802c-.0616-.0405-.12409-.0815-.1866-.1221a2.807,2.807,0,0,0,1.3067,1.7828l.0097.0195c.4834,1.0127,1.03911,1.9868,1.6026,2.9551a10.92054,10.92054,0,0,0,5.1601,4.6362c1.7657.6533,4.1758.3437,4.9737-1.6768a22.006,22.006,0,0,0,.9853-3.2602c-.0342.1479.293-1.1641.2188-.9566.3935-1.0918.2002-.3359.1074-.2714C116.13143,57.40564,116.22613,53.43544,113.48883,52.36314Z" fill="#8897c4"/>
            <path d="M136.50733,70.28554a6.44247,6.44247,0,0,0-2.0976-4.0503,6.28154,6.28154,0,0,0-8.8633.6094,6.39921,6.39921,0,0,0-1.5224,4.1889,6.53983,6.53983,0,0,0-.044,1.293,6.449,6.449,0,0,0,3.5303,5.2808l.0156.0078a6.35553,6.35553,0,0,0,6.3965-.4395l.0137-.0097a6.46582,6.46582,0,0,0,2.664-4.0059A6.53646,6.53646,0,0,0,136.50733,70.28554Z" fill="#ff7d7d"/>
          </g>
          <g>
            <path d="M96.83063,59.73524a136.49043,136.49043,0,0,0,8.6621,11.4541,1.5874,1.5874,0,0,0,1.2041.5825,19.612,19.612,0,0,0,6.457,12.9097c8.2471,7.7891,19.3311,12.5742,30.2461,15.1958a132.12954,132.12954,0,0,0,17.0137,2.7095c2.6875.2861,5.3828.5034,8.0771.6943-.288,4.3965,1.753,9.1157,3.43951,12.9648,1.62789,3.7193,4.85449,11.5459,10.25389,9.1709a5.83433,5.83433,0,0,1,2.9072-.8872,15.56391,15.56391,0,0,0,3.1602.251,3.92189,3.92189,0,0,0,3.6592-4.4936c-.14849-1.4097-1.1133-2.7979-1.4463-4.1914a6.55706,6.55706,0,0,1,1.1347.3994,9.1741,9.1741,0,0,0,3.04011.7158c2.63479.2353,5.43849-.8218,5.41009-3.9453a9.3126,9.3126,0,0,0-.706-3.3301c-.1787-.4487-.8086-1.8369-.6777-2.0498.6718-1.1099,2.8632-1.7197,3.9238-2.48a13.6502,13.6502,0,0,0,2.0713-1.9184c1.1963-1.3287,2.7373-3.5635,1.89551-5.4688-1.00881-2.2886-2.68851-3.0371-5.13381-3.0527-2.5156-.0181-5.0225.0918-7.542.039a71.19461,71.19461,0,0,0-9.916.0508,24.62012,24.62012,0,0,0-4.6055.8633c.15331-4.481-1.4892-8.6602-3.7842-12.623-.959-1.6602-1.9853-3.2784-3.0556-4.8633a71.30055,71.30055,0,0,0,6.49611,4.248c2.48429,1.4072,6.92669,3.7632,9.73529,1.916,2.2881-1.5058,1.7149-4.5654.9629-6.7505a14.37807,14.37807,0,0,1-.9404-2.956c.0449-.0044.0908-.0073.1465-.0137a7.70473,7.70473,0,0,1,.9638-.0732c.7412-.0039,1.4815.0268,2.2227.0464,3.2724.0849,7.5127-.5645,8.458-4.3526.8144-3.2578-1.3565-6.271-3.67479-8.3408a11.49864,11.49864,0,0,0-2.916-1.8384c5.79389-2.9043,10.48429-7.6196,14.248-13.1948,2.14059-3.1699,4.47759-7.9585,2.044-11.6094-2.33111-3.5005-6.45511-4.5967-10.43661-4.9057-8.4218-.6534-16.4121,2.5195-23.1406,7.372a7.5913,7.5913,0,0,0,.6006-3.7094,9.55064,9.55064,0,0,0-4.98139-7.2007,7.76636,7.76636,0,0,0,.05169-8.6172,7.39631,7.39631,0,0,0-5.76369-3.5435c.333-5.56-.26561-11.5874-5.77051-14.31-6.4609-3.1953-9.3613,7.2314-9.872,11.4795-.9883,8.1821-.5928,16.4467-.8682,24.6626-.1377,4.125.4434,8.3173.55571,12.4516.06049,2.1446.33589,4.3008.542,6.4527a52.79357,52.79357,0,0,0-9.65341-5.8692c-4.5254-2.0874-9.9511-3.8159-15.0019-3.0547a21.98989,21.98989,0,0,0-13.4278,7.4312c-2.58589-2.1587-6.3378-2.1729-9.5214-2.6299-2.3653-.3394-5.6807-.9199-7.81349.519C92.39113,54.31774,95.17043,57.37,96.83063,59.73524Zm72.4512-38.373a3.96909,3.96909,0,0,1-1.3653,4.7231,2.07544,2.07544,0,0,0,.6885,3.71c2.834,1.0151,5.4834,3.6464,3.90721,6.7758-1.29981,2.5801-3.584,4.502-4.21091,7.3965a1.60151,1.60151,0,0,0,.3164,1.4009c-4.1768,4.7866-7.6641,10.1821-12.0693,14.7534q-1.51035-1.37685-3.085-2.6699a70.885,70.885,0,0,0,.7607-16.1792c-.333-6.6846-.0898-13.5762.2374-20.272a68.94548,68.94548,0,0,1,.7978-10.2441c.377-1.8775.8594-5.3887,2.6611-6.5117,2.4141-1.502,4.3067,3.5132,4.4932,5.1855a36.61613,36.61613,0,0,1-.2861,8.4087c-.23729,1.9839,2.1425,3.5757,3.6386,1.8574C167.16073,18.09364,168.80724,19.75284,169.28183,21.36224Zm.247,48.4638c-2.8593-2.105-5.5713-4.5449-8.8388-5.9902a1.65911,1.65911,0,0,0-.4121-.1167c-.3262-.334-.6602-.6646-.9952-.9946a47.589,47.589,0,0,0,6.5381-6.3604c2.60941-3.1167,5.1192-6.3447,7.9287-9.2876,5.1543-5.396,12.3604-10.2475,19.88971-11.3105,3.39259-.479,7.834-.7964,10.93059,1.0249,3.251,1.9126.9356,5.7011-.7529,7.9966-4.5644,6.2163-10.1728,11.7939-18.0888,13.1655-2.7374.4741-3.3204,4.1592-.4278,4.9624,2.958.8188,6.7481,1.3413,8.9365,3.6811.5801.6221,1.56741,1.6353,1.4903,2.5684-.0586.7187-2.2696.6572-2.6748.6533-2.5752-.0215-6.0782-.6025-8.07909,1.4644-1.73341,1.7934-1.32421,4.2495-.625,6.414.22749.7017.49609,1.399.708,2.1079a23.81388,23.81388,0,0,1-7.00391-3.9296C175.24073,73.82214,172.33943,71.891,169.52883,69.826Zm3.5137,34.793c-.1172-.3633-.2051-.7124-.2832-1.0576a27.75313,27.75313,0,0,0,5.92091-.1841,2.5,2.5,0,0,0,2.11129-3.3062c1.375-.1445,2.7569-.3808,4.126-.4062,2.55371-.0444,5.09671.1167,7.6455.2812,2.6416.1695,5.28221.0635,7.90821.1661.07329.0034.14939.0014.22459.0014-2.7031,2.7398-7.55659,3.5821-7.14259,8.3599a11.66225,11.66225,0,0,0,.90139,3.0459c.0557.1494.126.3154.1953.4853-.2431-.041-.4883-.0742-.7334-.104a2.7808,2.7808,0,0,0-.4121-.166,10.68145,10.68145,0,0,0-2.6914-.8193c-4.2832-.4077-6.543,2.7524-5.1201,6.7842.2275.643.4668,1.2807.7051,1.9189a8.56936,8.56936,0,0,0-4.4131.4175c-.4492.1938-.8906.4341-1.3486.6074-.6973.2617-.2315.3501-.5186-.0317a27.25091,27.25091,0,0,1-1.8486-2.6675,40.26415,40.26415,0,0,1-2.9776-6.5498C174.48393,109.15374,173.76913,106.88664,173.04253,104.619Zm-45.085-54.1421c10.13871-.2334,19.2998,6.3838,26.5215,13.1509a2.05522,2.05522,0,0,0,1.0879,1.0342c.2979.289.5957.5771.8887.8637a99.66862,99.66862,0,0,1,12.59961,14.814c3.38669,4.9741,7.68459,11.1919,6.417,17.52a1.94286,1.94286,0,0,0-.03521.5015q-1.85295-.0747-3.7119-.169a1.30939,1.30939,0,0,0-.5937-.0278c-10.0899-.5166-20.2705-1.4897-29.9639-4.2231a69.00449,69.00449,0,0,1-15.9316-6.5796c-4.7578-2.7569-10.13769-5.9976-12.7823-11.0274C107.04153,66.03654,116.44,50.743,127.95753,50.47694Zm-29.77929,3.7285c4.51469-.5283,9.29009.7022,13.72859,1.4571a27.38607,27.38607,0,0,0-4.84959,10.958c-1.89261-2.3848-3.93661-4.6509-5.81251-7.0415a28.64,28.64,0,0,0-3.2227-3.8531C97.16753,54.97794,96.69093,54.37884,98.17824,54.20544Z" fill="#463131"/>
            <path d="M122.75443,60.75084a13.42568,13.42568,0,0,1,.5196-2.2729,17.18717,17.18717,0,0,1,1.5488-2.2534,6.23065,6.23065,0,0,1,5.69141-2.4522c4.81049.481,5.07229,7.0137,3.72559,10.3286-.625,1.5371-1.80759,4.3711-3.84959,4.2188-2.02741-.1524-1.85361-2.5747-1.209-3.9527.791-1.687,2.36029-4.4223.72649-6.0981-.6933-.7119-2.1162.2822-2.7226.6885a6.28228,6.28228,0,0,0-2.0928,2.6299C124.43313,62.79334,122.32863,62.15714,122.75443,60.75084Z" fill="#463131"/>
          </g>
        </g>
      </g>
    </g>
  </g>
</svg>
