<svg xmlns="http://www.w3.org/2000/svg" viewBox="0 0 70.04285 76.82158">
  <title>Recurso 5</title>
  <g id="Capa_2" data-name="Capa 2">
    <g id="Editar">
      <g>
        <path d="M47.488,32.25945a1.61118,1.61118,0,0,1-.8554-1.4597,131.85243,131.85243,0,0,0-3.102-23.5906L27.8968,27.30655a1.91726,1.91726,0,0,1-1.4985.7859,1.58807,1.58807,0,0,1-1.7001.0237q-7.8852-4.1598-16.1133-7.5193a77.08551,77.08551,0,0,0,10.0542,17.2265,2.09408,2.09408,0,0,1-.3295,2.8611,63.63778,63.63778,0,0,0-9.15709,11.5811c-1.29031,2.113-3.86331,5.4807-4.10631,8.0486l-.71269,1.781a2.47889,2.47889,0,0,0,3.14749-.3028c3.7668-1.0124,7.9206-3.8044,11.28251-5.7368A135.29532,135.29532,0,0,0,30.445,48.45625a2.05461,2.05461,0,0,1,2.9877.6362,1.7626,1.7626,0,0,1,2.238,1.1369q3.6579,9.80025,7.3156,19.6009a38.84454,38.84454,0,0,0,1.2367-8.013q.5832-5.7981,1.16651-11.5964a1.88493,1.88493,0,0,1,.645-1.2874,2.81936,2.81936,0,0,1,.46769-1.8022c.86831-1.1228,2.2929-1.3247,3.5786-1.6038a101.40657,101.40657,0,0,0,12.8975-3.6347,126.32154,126.32154,0,0,1-14.807-8.8267A1.9384,1.9384,0,0,1,47.488,32.25945Z" fill="#ffab00"/>
        <path d="M68.7619,40.19325a120.47372,120.47372,0,0,1-18.1243-10.3721,131.88556,131.88556,0,0,0-3.9165-26.7338c1.4188-2.0442-1.77459-4.3274-3.3558-2.295L25.3758,23.91815a184.25466,184.25466,0,0,0-19.6764-8.8543,2.06247,2.06247,0,0,0-2.5883,2.718A80.68587,80.68587,0,0,0,14.3937,38.935,66.70043,66.70043,0,0,0,3.7002,53.673c-1.5561,2.9588-6.256,10.0069-1.8866,12.7259,3.9115,2.4338,10.5204-2.3133,13.8104-4.0152a137.78416,137.78416,0,0,0,16.4653-10.1189q4.35931,11.6796,8.7185,23.3592a2.05385,2.05385,0,0,0,3.5108.3877c4.61291-5.9126,4.4367-15.0852,4.911-22.6651.5588-.9546.269-1.5952.6955-2.6718.5048-1.2735.6207-1.0762,2.2335-1.4134q1.8117-.3786,3.6054-.8342A91.58171,91.58171,0,0,0,68.8538,43.965,2.0607,2.0607,0,0,0,68.7619,40.19325Zm-18.6811,5.3342c-1.2857.2791-2.71029.481-3.5786,1.6038a2.81936,2.81936,0,0,0-.46769,1.8022,1.88493,1.88493,0,0,0-.645,1.2874Q44.8063,56.0191,44.223,61.81725a38.84454,38.84454,0,0,1-1.2367,8.013q-3.65775-9.80055-7.3156-19.6009a1.7626,1.7626,0,0,0-2.238-1.1369,2.05461,2.05461,0,0,0-2.9877-.6362,135.29532,135.29532,0,0,1-11.68149,7.5993C15.4016,57.988,11.2478,60.78,7.481,61.79235a2.47889,2.47889,0,0,1-3.14749.3028l.71269-1.781c.243-2.5679,2.816-5.9356,4.10631-8.0486a63.63778,63.63778,0,0,1,9.15709-11.5811,2.09408,2.09408,0,0,0,.3295-2.8611A77.08551,77.08551,0,0,1,8.5849,20.59685q8.2317,3.37425,16.1133,7.5193a1.58807,1.58807,0,0,0,1.7001-.0237,1.91726,1.91726,0,0,0,1.4985-.7859L43.5306,7.20915a131.85243,131.85243,0,0,1,3.102,23.5906,1.61118,1.61118,0,0,0,.8554,1.4597,1.9384,1.9384,0,0,0,.6833.8066,126.32154,126.32154,0,0,0,14.807,8.8267A101.40657,101.40657,0,0,1,50.0808,45.52745Z" fill="#231f20"/>
      </g>
    </g>
  </g>
</svg>
