<svg xmlns="http://www.w3.org/2000/svg" viewBox="0 0 78.7941 47.77759">
  <title>Recurso 4</title>
  <g id="Capa_2" data-name="Capa 2">
    <g id="Editar">
      <g>
        <g>
          <path d="M73.56811,9.60681c-1.513-1.92758-4.68487-1.90919-6.86364-1.81862-2.69056.112-5.41621-.13709-7.385,2.04063a2.82377,2.82377,0,0,0,2.72691,4.6844,26.87868,26.87868,0,0,1,4.65805-.49058c.69928-.02713,1.39017-.0384,2.08819-.00875a6.05061,6.05061,0,0,1-2.53429,2.94818q-2.60591,1.6237-5.22433,3.24483a31.057,31.057,0,0,1-5.06246,2.37368c-2.04958.774-3.91268,1.99353-5.91648,2.87751-3.90424,1.723-7.60545,3.87512-11.48486,5.6533A54.45322,54.45322,0,0,1,26.792,34.92052c-3.70167.7602-7.18465,2.07541-10.991,2.2565a10.809,10.809,0,0,1-4.78257-.68141c-1.24926-.54427-2.01789-.61436-1.40018-1.85388a13.8257,13.8257,0,0,1,2.555-3.272,33.86959,33.86959,0,0,1,3.69864-3.94159,1.90154,1.90154,0,0,0,0-3.23462c-3.83876-2.42382-8.7897,3.79785-10.80245,6.53472a8.17108,8.17108,0,0,0-1.67126,5.94335c.35936,2.51737,2.44194,3.99686,4.54066,5.0931,4.51939,2.36038,10.03429,1.59761,14.80361.56889a99.63881,99.63881,0,0,0,16.78441-4.93867c5.33664-2.18536,10.63671-4.87314,15.75978-7.51639,1.17278-.60467,2.53582-1.12851,3.6505-1.81349,1.26335-.77607,2.64917-1.06764,3.93751-1.75005,2.41821-1.28,4.74862-2.85913,7.06909-4.30635C74.02213,19.46567,76.83138,13.76276,73.56811,9.60681Z" fill="#4674ab"/>
          <g>
            <path d="M60.45725,17.06082a15.14392,15.14392,0,0,0-2.355-6.39354C55.75776,6.77173,51.001,4.706,46.775,3.64246a37.85621,37.85621,0,0,0-7.22435-.65276,24.75,24.75,0,0,0-7.552.61389,19.8382,19.8382,0,0,0-11.80179,7.55987A23.058,23.058,0,0,0,16.244,26.37588c.37093,3.14153,1.33134,7.88628,4.8348,8.56664a3.07812,3.07812,0,0,0,3.30036.12991c2.04319-1.21343,4.60357-1.62469,6.82456-2.48259,2.757-1.06507,5.57629-1.93167,8.32568-3.031,2.73252-1.09221,5.508-2.01967,8.27534-3.01827a64.86682,64.86682,0,0,0,7.91593-3.79424C57.68125,21.72165,60.68747,19.66976,60.45725,17.06082Z" fill="#66c7ab"/>
            <path d="M56.39622,29.97367c-2.26394-.52075-4.06826.74129-5.90322,1.88311-1.017.6328-1.857,1.47791-2.88982,2.10506a40.2195,40.2195,0,0,1-3.87664,1.98436A63.44782,63.44782,0,0,1,37.442,38.59867a4.31272,4.31272,0,0,0-2.58238.74176c-2.40742.48649-5.185.01179-7.36322.9602l.0407.05217a1.927,1.927,0,0,0-.74616,2.63817c1.129,2.3905,4.79514,2.15571,7.02838,2.06514a17.60583,17.60583,0,0,0,3.37124-.486A21.01229,21.01229,0,0,0,40.98,44.44176a25.34321,25.34321,0,0,0,7.38365-2.07337,39.48813,39.48813,0,0,0,6.58893-2.94918A9.8626,9.8626,0,0,0,58.45114,33.593,2.98734,2.98734,0,0,0,56.39622,29.97367Z" fill="#66c7ab"/>
          </g>
          <path d="M24.39939,26.25822a3.62784,3.62784,0,0,0-5.57939.56784,3.53906,3.53906,0,0,0-.34223,4.38765,3.41349,3.41349,0,0,0,.89373,1.24821,3.88048,3.88048,0,0,0,2.54372,1.016,3.779,3.779,0,0,0,2.51816-1.03543,4.15441,4.15441,0,0,0,1.0986-1.82831A4.32648,4.32648,0,0,0,24.39939,26.25822Z" fill="#f29089"/>
          <path d="M55.51731,19.63807a4.00578,4.00578,0,0,0-.48267-1.85649,3.26027,3.26027,0,0,0-1.94675-1.52852,3.47935,3.47935,0,0,0-2.84582.43636,4.85674,4.85674,0,0,0-1.59017,1.62113,3.15294,3.15294,0,0,0-.41053,1.00216,4.81026,4.81026,0,0,0-.109.9075,3.337,3.337,0,0,0,.43405,1.59662,3.08467,3.08467,0,0,0,1.24386,1.22055,4.15164,4.15164,0,0,0,.86712.34175,3.80814,3.80814,0,0,0,1.77231-.01331A4.053,4.053,0,0,0,54.31258,22.288a3.22818,3.22818,0,0,0,.67167-.9239A2.82657,2.82657,0,0,0,55.51731,19.63807Z" fill="#f29089"/>
        </g>
        <g>
          <path d="M78.32721,11.36247a10.35055,10.35055,0,0,0-2.26907-3.24279,11.27679,11.27679,0,0,0-3.95055-2.06263,17.19925,17.19925,0,0,0-8.29268-.22766c-1.615.28392-3.11,1.02107-4.75963,1.152a1.30375,1.30375,0,0,0-1.072.65229,13.457,13.457,0,0,0-.9492-1.16026,16.636,16.636,0,0,0-1.58122-1.42113A19.304,19.304,0,0,0,53.479,3.38258C48.59558.35876,42.76455-.17944,37.16038.04513A28.23588,28.23588,0,0,0,28.91831,1.386a18.82281,18.82281,0,0,0-7.06956,4.87728,37.25031,37.25031,0,0,0-5.2249,7.27035,15.05978,15.05978,0,0,0-1.68714,3.85411c-.13044.48083-.265.96534-.397,1.45183a1.17481,1.17481,0,0,0-.11839.22714,9.0755,9.0755,0,0,0-.46685,2.15058c-.02425.11666-.04908.2328-.07187.34888a5.24347,5.24347,0,0,0-.6241.27114c-.53406.29262-1.02285.65533-1.55691.94847-.55124.30231-1.0216.86659-1.556,1.22265-.51179.34065-1.03742.65988-1.54722,1.00415-1.65644,1.11934-3.672,2.46216-4.58183,4.33657A22.34472,22.34472,0,0,0,2.298,31.44394,11.15193,11.15193,0,0,0,.03515,36.7207,6.504,6.504,0,0,0,2.02459,41.9883c1.77975,1.87541,4.65087,2.55682,7.11791,2.84326a39.5562,39.5562,0,0,0,8.09372.04505,45.45867,45.45867,0,0,0,7.12508-1.2953,1.02822,1.02822,0,0,0,.48188.7075c-.5328-.33866.309.34327.3714.3801q.521.20948.07852.04861a1.99891,1.99891,0,0,0,.32.3054,9.71452,9.71452,0,0,0,2.279,1.1602,15.5145,15.5145,0,0,0,5.638,1.57409c2.02858.0834,4.0912-.11614,6.125-.11561a19.41292,19.41292,0,0,0,6.05791-1.49583c.84433-.28083,1.58074-.74894,2.44121-1.01086a13.37933,13.37933,0,0,0,2.68364-1.02364,32.58415,32.58415,0,0,0,5.12359-3.55589,14.01279,14.01279,0,0,0,3.308-3.94207c.54946-.98582,1.75058-2.11176,2.04576-3.30471.14526-.05579.29005-.112.43536-.16732a8.56715,8.56715,0,0,0,1.04664-3.17783,71.02738,71.02738,0,0,0,6.74368-4.82814A38.21378,38.21378,0,0,0,76.85443,18.418C78.45791,16.40088,79.4199,13.83333,78.32721,11.36247ZM16.43459,22.92586c.06244-.5448.08774-1.11468.11153-1.68148.12253-.464.25474-.92746.37858-1.39709a16.804,16.804,0,0,1,1.59656-4.50022c.72-1.215,1.47535-2.409,2.199-3.62189A20.89,20.89,0,0,1,23.72337,8.067a15.85144,15.85144,0,0,1,7.186-4.54218,32.79859,32.79859,0,0,1,8.26329-.85889,27.93643,27.93643,0,0,1,8.37864,1.09268,19.1093,19.1093,0,0,1,3.77559,1.55874A17.98714,17.98714,0,0,1,54.8469,8.22811a6.433,6.433,0,0,1,.72311.84A31.29147,31.29147,0,0,1,58.31583,12.425a8.34587,8.34587,0,0,0,.3855,1.76236c.287.8548.34757,1.72548.6305,2.57672a14.04,14.04,0,0,1,.87806,3.89047,12.57787,12.57787,0,0,1-3.177,1.60783c-1.39017.50289-2.63712,1.37357-3.98329,1.98746-3.02183,1.37865-6.02984,2.81664-9.0337,4.24647-1.43753.684-2.82922,1.436-4.315,2.01249-1.52066.58985-3.07888,1.07534-4.645,1.52548-3.02849.87021-6.11858,1.48865-9.15853,2.31177a45.86532,45.86532,0,0,1-5.684,1.16382.545.545,0,0,0-.04578-.04552c-.01226-.01021-.02174-.01687-.03174-.02457-.01556-.02965-.03452-.064-.06134-.11a1.99876,1.99876,0,0,0-.51824-.45941,6.71181,6.71181,0,0,1-.98068-1.0789c-.08491-.11153-.27544-.37345-.47879-.6855a5.897,5.897,0,0,0-.53971-1.85335.81628.81628,0,0,0-.38544-1.06408A18.15534,18.15534,0,0,1,16.43459,22.92586Zm-2.079,7.38753q.14921.51719.3274,1.02568a10.22067,10.22067,0,0,0,.752,1.728,12.34458,12.34458,0,0,0,1.584,2.74917c-1.77127.07978-4.85423-.01943-5.39981-1.91019-.26753-.92647.44459-1.77053,1.11164-2.46729.25962-.18874.51389-.36318.73485-.52437C13.75121,30.70679,14.052,30.5093,14.35562,30.31339Zm44.15462,2.25545A25.36843,25.36843,0,0,0,56.785,35.161a11.84934,11.84934,0,0,1-3.10848,3.57071,29.13347,29.13347,0,0,1-4.28848,2.899,10.97135,10.97135,0,0,1-2.32376.83537c-.86046.263-1.6204.74789-2.46546,1.02977A16.08528,16.08528,0,0,1,39.655,44.7743c-1.9171.00047-3.81577.1033-5.72978.156a12.26935,12.26935,0,0,1-4.99237-1.24721c-.3504-.14987-.69341-.30435-1.03359-.47675a1.2075,1.2075,0,0,0-.34175-.10388c-.11409-.10178-.22766-.20356-.33966-.30744,2.60077-.76067,5.17854-1.613,7.76171-2.37976,2.98317-.88451,5.85891-2.06263,8.78634-3.1057,1.48687-.53,3.077-.8349,4.58131-1.33265,1.55775-.51515,3.08962-1.1106,4.5931-1.76645,1.90453-.83024,3.85411-1.55921,5.77708-2.34754C58.64811,32.09874,58.57775,32.33306,58.51023,32.56884Zm17.53617-18.6726a7.17839,7.17839,0,0,1-1.93832,3.53494,42.62424,42.62424,0,0,1-7.58879,6.54954c-1.30348.95255-2.61208,1.89793-3.89251,2.88165A18.94907,18.94907,0,0,1,58.279,29.13113c-2.82309,1.16382-5.64308,2.38034-8.48812,3.48428-2.964,1.15051-6.06305,1.84728-9.03219,2.9717-2.99161,1.13312-6.02135,2.08615-9.05471,3.095-1.20882.40158-2.41428.81028-3.63337,1.17864-1.369.41383-2.77882.65375-4.14594,1.05842a37.18739,37.18739,0,0,1-7.08239,1.38635,41.6811,41.6811,0,0,1-6.80916.03321,10.6095,10.6095,0,0,1-6.03392-1.98431c-2.64629-2.23251-1.18734-5.549.5461-7.851A22.14645,22.14645,0,0,1,6.31329,30.43a16.811,16.811,0,0,1,3.117-3.56967c.318-.18518.63846-.36527.95512-.552,1.02668-.60671,1.92166-1.38582,2.93456-1.99767.16244-.09822.28418-.176.39236-.24348a26.181,26.181,0,0,0,.07648,3.26118c.013.16119.03.3218.04914.48241a15.64569,15.64569,0,0,0-2.32816,2.04063,5.21187,5.21187,0,0,0-1.76922,3.1661c-.14222.15909-.28188.31923-.41614.48392a4.17885,4.17885,0,0,0,2.291,3.70529c2.06828,1.17912,5.04863,1.1689,7.33991.88906.33714-.04091.6735-.08591,1.00881-.13143a3.15961,3.15961,0,0,0,.48523.06957.82247.82247,0,0,0,.67167-.2384c2.20584-.34123,4.38052-.78168,6.56593-1.2953,3.06117-.71923,6.13775-1.38017,9.15544-2.27133a61.4754,61.4754,0,0,0,8.87823-3.6439c3.00182-1.41956,6.00521-2.84069,9.02757-4.21064,1.2776-.57911,2.43707-1.33622,3.75642-1.82171a13.25023,13.25023,0,0,0,3.22026-1.6237.96192.96192,0,0,0,.3824-.29618c.18623-.15039.36857-.30744.5438-.4768,1.272-1.23029,3.06631-1.71527,4.15417-3.17883a5.4145,5.4145,0,0,0,.73128-5.02972,3.99394,3.99394,0,0,0-4.04165-2.5926c-.78623-.00817-1.53674.25218-2.31276.30079a3.17976,3.17976,0,0,0-.47345.07109A9.89237,9.89237,0,0,0,59.551,9.80477c-.04631-.05883-.09026-.1197-.13557-.179a14.51724,14.51724,0,0,0,3.57789-.73767,17.24724,17.24724,0,0,1,4.19456-.58115,10.60064,10.60064,0,0,1,3.949.331,6.74542,6.74542,0,0,1,3.58685,2.11784C75.34786,11.66279,76.19858,12.74216,76.04641,13.89624ZM62.646,18.21385c-.36371-1.27838-.64559-2.6069-1.01133-3.90016.908-.088,2.51816-.754,3.17191.15144a2.6256,2.6256,0,0,1-.30587,3.10774,7.31543,7.31543,0,0,1-1.8204,1.36125A1.445,1.445,0,0,0,62.646,18.21385Z" fill="#463131"/>
          <path d="M26.59654,22.45215a1.23677,1.23677,0,0,0-.36014-.87015,1.20556,1.20556,0,0,0-.63-.33149,1.40036,1.40036,0,0,0-.91877-.07161,1.36641,1.36641,0,0,0-.60671.354q-.10741.13884-.21509.27826a1.36837,1.36837,0,0,0-.18774.6942c-.00974.086-.02.17292-.03.25988a1.34192,1.34192,0,0,0,.41158.99294c.09487.07318.18979.14683.28413.22a1.405,1.405,0,0,0,.70954.19183.0561.0561,0,0,0,.01331.00052,1.39317,1.39317,0,0,0,.70928-.19183,1.30766,1.30766,0,0,0,.28827-.22866,1.22013,1.22013,0,0,0,.51284-.98477c0-.024-.003-.047-.00482-.07109A1.1969,1.1969,0,0,0,26.59654,22.45215Z" fill="#463131"/>
          <path d="M47.35047,16.5134a1.444,1.444,0,0,0-.3967-.95763,1.35427,1.35427,0,0,0-1.91585,0,1.445,1.445,0,0,0-.39644.95763l-.04243.43227a2.22018,2.22018,0,0,0,.12431.78372,1.32023,1.32023,0,0,0,2.54524,0,4.66046,4.66046,0,0,0,.131-.71106A2.60145,2.60145,0,0,0,47.35047,16.5134Z" fill="#463131"/>
          <path d="M41.04823,22.45576c-1.05816-.3054-1.83166,1.30651-2.29254,1.99a2.83848,2.83848,0,0,1-2.12863,1.43543c-.76429.08188-1.95749.0077-2.21737-.86863A.95158.95158,0,0,0,32.576,25.518c.45375,1.87488,2.51486,2.59773,4.26721,2.42942,2.23193-.2154,3.44719-1.82784,4.51662-3.63059C41.72582,23.69988,41.93352,22.711,41.04823,22.45576Z" fill="#463131"/>
        </g>
      </g>
    </g>
  </g>
</svg>
