<svg xmlns="http://www.w3.org/2000/svg" xmlns:xlink="http://www.w3.org/1999/xlink" viewBox="0 0 246.38536 221.57459">
  <defs>
    <clipPath id="clip-path" transform="translate(-18.16307 -55.47186)">
      <rect width="283.1819" height="182.1744" fill="none"/>
    </clipPath>
  </defs>
  <title>Recurso 6</title>
  <g id="Capa_2" data-name="Capa 2">
    <g id="Editar">
      <g clip-path="url(#clip-path)">
        <g>
          <g>
            <path d="M45.3658,75.2905l.0008.0007a7.82422,7.82422,0,0,1,1.9125-2.0717.808.808,0,0,1-.4179-.1758c-3.7443-3.005-7.9688-4.2526-12.3383-1.2988a12.83847,12.83847,0,0,0-4.6527,6.1325,45.869,45.869,0,0,1-1.3714,7.5177C33.3772,80.1508,38.1236,73.2319,45.3658,75.2905Z" transform="translate(-18.16307 -55.47186)" fill="#fff"/>
            <path d="M137.4782,70.9225c-2.7826-1.0347-5.0302-.3596-7.4557.7645a8.67625,8.67625,0,0,1,.7623,2.4259c5.6818,2.9988,11.2969,5.0106,17.6027,5.2548a27.54162,27.54162,0,0,1-5.521-4.5107A16.32679,16.32679,0,0,0,137.4782,70.9225Z" transform="translate(-18.16307 -55.47186)" fill="#fff"/>
            <path d="M46.0367,84.3382a7.78124,7.78124,0,0,1-1.6462-3.5262c-3.0229,4.4189-7.9636,7.8602-12.6946,9.9884a28.00369,28.00369,0,0,1-4.3257,1.5281,18.3104,18.3104,0,0,0,8.3394-.6584C40.0769,90.2513,42.8648,87.3488,46.0367,84.3382Z" transform="translate(-18.16307 -55.47186)" fill="#fff"/>
            <path d="M120.036,125.2892c8.2031-9.4465,9.6555-22.0107,5.6641-33.5972-.0249-.0718-.0325-.1373-.0501-.2065-16.7995-1.1317-34.5458-4.351-46.5045-16.9407-5.9961,11.0057-15.9723,20.2038-28.2519,23.369.3265,4.1972-.277,8.4289.848,12.6649a31.93979,31.93979,0,0,0,7.7559,13.9002c7.8437,8.175,19.2766,12.0509,30.412,12.4848C101.2721,137.4064,112.4157,134.0645,120.036,125.2892Z" transform="translate(-18.16307 -55.47186)" fill="#ffc6a5"/>
            <path d="M77.4282,71.0107c.0154-.0313.0409-.055.0589-.0844a8.84349,8.84349,0,0,1-.9401-1.664c-2.7376,4.7496-6.8319,9.1087-10.5138,12.8312A70.027,70.027,0,0,1,50.0397,94.5993c-.0072.0448-.0162.0891-.0232.1339a.83242.83242,0,0,1,.3607.2279C61.8872,90.0908,71.7502,82.4044,77.4282,71.0107Z" transform="translate(-18.16307 -55.47186)" fill="#fff"/>
            <path d="M150.1353,81.0647c-6.7392.3705-13.7227-1.1446-19.2672-5.0767a6.64051,6.64051,0,0,1-.6081,2.5212c5.961,5.9232,13.2892,5.8471,20.4489,3.057C150.5051,81.4083,150.3213,81.2358,150.1353,81.0647Z" transform="translate(-18.16307 -55.47186)" fill="#fff"/>
            <path d="M42.4022,170.4161c-2.6086-1.8313-6.7596-1.1366-7.3075,2.6455-.3858,2.6639,2.7989,3.0848,4.7869,2.6013,2.2732-.5525,2.9421-2.4674,2.4576-4.5421A1.07427,1.07427,0,0,1,42.4022,170.4161Z" transform="translate(-18.16307 -55.47186)" fill="#fff"/>
            <path d="M149.1494,153.6252c-1.8534.0621-2.2187,1.8346-3.7167,2.3492-.0201.0069-.0436.0027-.0643.0076a3.21638,3.21638,0,0,0,2.0445,4.3052,3.86282,3.86282,0,0,0,4.676-2.3767C152.7295,155.9796,151.288,153.5536,149.1494,153.6252Z" transform="translate(-18.16307 -55.47186)" fill="#fff"/>
            <path d="M136.5712,62.9498a15.75612,15.75612,0,0,1,8.9656,7.227,43.29851,43.29851,0,0,0-1.188-4.533c-1.6226-4.772-6.6888-7.8751-11.6639-6.093-3.3948,1.2161-4.578,3.7863-5.6179,6.6034C128.9397,63.2171,133.1628,62.0358,136.5712,62.9498Z" transform="translate(-18.16307 -55.47186)" fill="#fff"/>
            <path d="M135.2436,99.3112a1.87664,1.87664,0,0,0-.3618-.0584l-.0031-.0001c-.8172-.0508-1.4645.418-2.3519-.0305-.0068-.0034-.0119-.0101-.0185-.0137-.175.0007-.3499.0149-.5248.0221a37.17148,37.17148,0,0,1,.311,4.6645c1.9135.3857,4.0254-.1414,4.385-2.407A1.87066,1.87066,0,0,0,135.2436,99.3112Z" transform="translate(-18.16307 -55.47186)" fill="#fff"/>
            <path d="M72.4992,267.0765c-1.8765-.4384-6.493-.133-5.3008,2.7772.7454,1.8194,3.4815,1.4339,5.1843,1.333a29.93933,29.93933,0,0,0,5.3565-.5597A9.43343,9.43343,0,0,0,72.4992,267.0765Z" transform="translate(-18.16307 -55.47186)" fill="#fff"/>
            <path d="M121.7388,268.286a4.6241,4.6241,0,0,0-2.9949.9113c-.5811.5627-.7197,1.276-1.3505,1.813a1.68124,1.68124,0,0,1-.2283.1575c.0177.2648.0394.5295.0557.7944a1.53138,1.53138,0,0,1-.01.2397,17.063,17.063,0,0,0,5.4371.8672c1.6681-.1446,4.4427-1.2149,3.8881-3.4181C126.0815,267.8461,123.1617,268.1906,121.7388,268.286Z" transform="translate(-18.16307 -55.47186)" fill="#fff"/>
            <path d="M128.1051,69.3148c-.0056.0112-.0158.0169-.022.0277a6.851,6.851,0,0,1,.709.6011c2.9452-2.3294,7.3639-2.3356,10.6145-.5334,2.7754,1.5388,4.6438,4.0998,6.7929,6.332C143.416,68.6343,133.1628,59.3753,128.1051,69.3148Z" transform="translate(-18.16307 -55.47186)" fill="#fff"/>
            <path d="M43.5725,106.8313a2.71475,2.71475,0,0,0,2.1101,1.5079,2.82741,2.82741,0,0,0,1.0817-.0914,25.52439,25.52439,0,0,1-.4614-4.6229C44.7453,103.8335,42.9941,105.2584,43.5725,106.8313Z" transform="translate(-18.16307 -55.47186)" fill="#fff"/>
            <path d="M44.2617,78.7825a7.66755,7.66755,0,0,1,.5185-2.3342c-8.9248.273-11.7661,9.8213-18.6565,13.7011a8.99056,8.99056,0,0,1-.7398.8108c3.0513.1454,8.5825-3.5805,10.3812-4.7383C39.0261,84.1234,41.5148,81.424,44.2617,78.7825Z" transform="translate(-18.16307 -55.47186)" fill="#fff"/>
            <path d="M34.8723,69.5524c3.8713-2.032,11.0742-2.0972,13.1111,2.6255a.81487.81487,0,0,1,.0502.5348,8.54984,8.54984,0,0,1,1.5607-.7423c-1.0469-5.2273-5.553-9.4412-11.2185-7.6102-4.087,1.3208-6.4133,4.848-7.5872,8.73A12.06739,12.06739,0,0,1,34.8723,69.5524Z" transform="translate(-18.16307 -55.47186)" fill="#fff"/>
            <path d="M51.2116,91.4663a.69467.69467,0,0,1-.0383.062A117.7284,117.7284,0,0,0,64.3527,80.4129a125.07234,125.07234,0,0,0,9.0318-11.0303C64.9226,75.3799,54.9555,81.5548,51.2116,91.4663Z" transform="translate(-18.16307 -55.47186)" fill="#fff"/>
            <path d="M107.142,70.5437a54.87124,54.87124,0,0,1,12.6596,6.0893,32.68728,32.68728,0,0,0-7.4826-7.124c-7.6087-5.2454-17.2633-6.9666-26.3524-6.0661a55.44274,55.44274,0,0,0-7.6426,1.2995c.0905.1288.1957.2434.2902.3685C88.259,66.4925,97.8679,67.2557,107.142,70.5437Z" transform="translate(-18.16307 -55.47186)" fill="#fff"/>
            <path d="M104.0549,72.514c-7.8765-2.6342-16.1975-4.1074-24.2841-6.0535,5.1314,5.3194,14.0265,6.913,20.6967,9.1058,6.5797,2.1629,13.385,4.0635,19.9829,6.3589a39.65584,39.65584,0,0,0-5.5925-4.4733A53.13411,53.13411,0,0,0,104.0549,72.514Z" transform="translate(-18.16307 -55.47186)" fill="#fff"/>
            <path d="M59.6216,77.3636c4.5804-4.2857,9.792-8.8008,15.4152-11.6848a37.0402,37.0402,0,0,0-15.6795,9.2791,33.52786,33.52786,0,0,0-6.5159,9.9473A46.316,46.316,0,0,1,59.6216,77.3636Z" transform="translate(-18.16307 -55.47186)" fill="#fff"/>
            <path d="M78.5489,68.2316a12.343,12.343,0,0,0,.7694,2.0747,1.27649,1.27649,0,0,1,.5902.3847c11.201,13.1856,28.7926,15.0627,44.9981,16.5119-.0178-.061-.0342-.1231-.0515-.1843-9.8622-2.8905-19.5417-7.0642-29.1842-10.5568C89.7855,74.3302,83.2651,72.4543,78.5489,68.2316Z" transform="translate(-18.16307 -55.47186)" fill="#fff"/>
            <path d="M128.9399,208.7888q-.70065-2.6889-1.4015-5.3779a2.481,2.481,0,0,0,.8079-2.5873,274.526,274.526,0,0,0-15.1659-43.4496,2.09515,2.09515,0,0,0-2.7526-1.1979q-2.963-7.29345-5.2285-14.8282a2.58255,2.58255,0,0,0-3.0878-1.7533,100.68421,100.68421,0,0,1-13.6686,1.3956c-1.6068-.5414-3.1952-1.1436-4.7573-1.8232a2.49216,2.49216,0,0,0-3.3771,3.3773c.7618,1.692-1.4498,4.6517-1.8727,6.2985a6.43938,6.43938,0,0,0,.3197,4.5554c-.0715.3561-.1406.7125-.2135,1.0685a3.13563,3.13563,0,0,0-.9972.8719,5.98871,5.98871,0,0,0-.5683,6.3039c-.0867.3789-.1718.758-.2595,1.1367l-6.6086,18.6666a2.27369,2.27369,0,0,0,1.5263,2.8441c-.0562.2535-.1147.5073-.1704.7608-.2057.9371-.4034,1.8757-.6075,2.8132a2.04973,2.04973,0,0,0-.4929.6961c-.0789.1784-.1424.3546-.216.5324l-.0074-.0032-.0081.0414a20.688,20.688,0,0,0-1.6348,8.2787q-.504,2.55315-1.008,5.1058a2.2407,2.2407,0,0,0,.0328,1.0319c-.1763.8493-.3563,1.6979-.5312,2.5475a2.10493,2.10493,0,0,0-2.3411,2.9618q.462.9171.957,1.8117a1.71354,1.71354,0,0,0-.7745,2.4693c.1657.3036.3415.6001.5111.9011-.2172,1.0853-.4383,2.1698-.6531,3.2556a2.35364,2.35364,0,0,0-.7049,2.9613l.0906.1566c-.1526.7801-.299,1.5615-.4501,2.3419a2.211,2.211,0,0,0-1.4996,2.9426,1.99339,1.99339,0,0,0-1.3388,2.4023,5.93166,5.93166,0,0,0,2.1013,3.3587,2.00493,2.00493,0,0,0,2.6081-.0108c.0315.0309.0626.0585.0942.0902a2.022,2.022,0,0,0,3.3204-.7468c.1042.0002.2082-.0023.3123-.0025.6402.4194,1.2786.8414,1.9235,1.2534a2.20907,2.20907,0,0,0,3.2683-1.3899c3.0727-.1519,6.1367-.4214,9.195-.7734,1.2546.8035,2.5434,1.5619,3.8704,2.2647a2.06543,2.06543,0,0,0,2.8037-2.8037l-.1833-.3145q.7581-.1107,1.5159-.2252a2.52952,2.52952,0,0,0,2.3708-.3668q.77745-.123,1.555-.2479a2.627,2.627,0,0,0,1.7117.2896q7.95045-1.25175,15.7566-3.1409c4.4125-.657,8.8352-1.2121,13.2775-1.5488.8103.2275,1.6194.4786,2.4252.7808a2.6689,2.6689,0,0,0,2.9283-1.0696c.2816-.0089.5627-.0218.8445-.0286a2.60034,2.60034,0,0,1,.3004.0222c-.2724-.7857-.5305-1.5776-.7799-2.3731A48.48757,48.48757,0,0,0,128.9399,208.7888Z" transform="translate(-18.16307 -55.47186)" fill="#fff"/>
            <path d="M51.1171,80.159c.0004-.0914.0093-.1814.0116-.2725.2732-.5111.5636-1.0144.865-1.5125.0639.0224.1217.0521.1868.0731a1.54828,1.54828,0,0,0,1.7391-.7077c.4956-1.0404,1.1326-2.0632.7464-3.1625.0598-.0735.1159-.1492.1763-.2223-.0899.005-.1782.0033-.267.004-.0195-.041-.0283-.0811-.0508-.1223a1.03462,1.03462,0,0,0-1.1357-.4622,1.87331,1.87331,0,0,0-.9422.4684,4.75534,4.75534,0,0,0-1.1407.1188c-.0383-.0429-.0782-.0789-.116-.1248a1.62133,1.62133,0,0,0-2.6869.7095,10.21109,10.21109,0,0,0-.3226,1.4164,4.46665,4.46665,0,0,0-.2947.4595c-.0099.0179-.0169.0361-.0266.0541a1.4076,1.4076,0,0,0-1.4378,1.7577A7.71973,7.71973,0,0,0,47.95,81.7612a9.261,9.261,0,0,0,1.4091,2.0316c.2954-.7911.6257-1.57.9842-2.3378A1.41988,1.41988,0,0,0,51.1171,80.159Z" transform="translate(-18.16307 -55.47186)" fill="#fff"/>
            <path d="M121.2488,73.1715a.44824.44824,0,0,0,.1163.0323c.0737.09.2429.2109.4309.4041.3554.3654.7276.7129,1.0966,1.0644q.74325.70815,1.4866,1.4162c.2138.32.4309.6378.6337.9655.1846.298.3754.6148.5681.9418.6864-.4185,1.5255-.4767,2.087-1.2735a2.99267,2.99267,0,0,0,.2547-.4413,1.78671,1.78671,0,0,0,1.9486-1.6981c.15-1.3835-.9145-3.0928-2.4784-2.7482-.8874-.6874-1.7695-1.382-2.6539-2.0718a1.85822,1.85822,0,0,0-3.0092,1.0818,5.93173,5.93173,0,0,0-1.0469.6099c.0661.0697.1276.1436.1931.2138A1.07591,1.07591,0,0,0,121.2488,73.1715Z" transform="translate(-18.16307 -55.47186)" fill="#fff"/>
          </g>
          <g>
            <path d="M132.1031,223.0313a48.61042,48.61042,0,0,0-3.1632-13.3947q-.70065-2.6889-1.4015-5.378a2.4809,2.4809,0,0,0,.8079-2.5872,274.51355,274.51355,0,0,0-15.1659-43.4497,2.09512,2.09512,0,0,0-2.7526-1.1979q-2.963-7.29345-5.2285-14.8282a2.58264,2.58264,0,0,0-3.0878-1.7533,100.68439,100.68439,0,0,1-13.6685,1.3956c-1.6069-.5414-3.1952-1.1436-4.7573-1.8232a2.49219,2.49219,0,0,0-3.3772,3.3773c.7618,1.692-1.4498,4.6517-1.8727,6.2986a6.09646,6.09646,0,0,0,.7495,5.2609c.0148.0198.0324.0343.0474.0538-.0328.0189-.0681.0342-.1.0545a3.031,3.031,0,0,0-1.5879,1.1265,5.99477,5.99477,0,0,0-.4881,6.481l-6.9482,19.6262c-.5926,1.6739,1.0583,3.1134,2.5814,3.0094q-.54855,1.4949-1.0627,3.002a1.7767,1.7767,0,0,0-1.2633,1.1028c-.0788.1784-.1424.3546-.216.5324l-.0073-.0031-.0082.0413a20.68433,20.68433,0,0,0-1.6347,8.2787q-.50415,2.55315-1.0082,5.1058a2.162,2.162,0,0,0,.329,1.689,1.54085,1.54085,0,0,0-.136,2.0791c.4253.5544.8396,1.1157,1.2555,1.6762-.3886-.437-.7826-.8683-1.1639-1.3136-1.5387-1.7963-4.0908.4912-3.124,2.4105q.462.9171.957,1.8118a1.71334,1.71334,0,0,0-.7745,2.4692q1.2075,2.21235,2.5508,4.3304c-.1188-.0846-.2366-.1703-.3554-.2546-1.8828-1.3371-4.0935,1.2265-3.0423,3.0422l1.822,3.1474q-.32865-.20355-.6575-.4072a2.14945,2.14945,0,0,0-3.0237,2.7009,1.99346,1.99346,0,0,0-1.3387,2.4023,5.93166,5.93166,0,0,0,2.1013,3.3587,2.00493,2.00493,0,0,0,2.6081-.0108c.0315.0309.0626.0585.0943.0902a2.03529,2.03529,0,0,0,3.3838-.9114c.7236.4726,1.4439.9502,2.1723,1.4155,1.9275,1.2309,4.1771-1.1821,3.0733-3.0733q-.6612-1.133-1.3225-2.2658,2.2248,1.5333,4.4554,3.0589c1.5182,1.0328,3.2309-.5566,3.1-2.0611a54.09948,54.09948,0,0,0,7.0275,4.4427,2.06537,2.06537,0,0,0,2.8036-2.8037q-.7779-1.33575-1.5558-2.6718,1.13175.89655,2.2631,1.7933c1.2408.982,3.436.4097,3.6163-1.1225a2.63662,2.63662,0,0,0,2.6466,1.1362,198.16168,198.16168,0,0,0,20.7887-4.4256,2.412,2.412,0,0,0,.33-.1261q.48435-.10455.9686-.2088a2.08794,2.08794,0,0,0,1.3534-.9787,31.41773,31.41773,0,0,1,8.0187,1.8303A2.68891,2.68891,0,0,0,132.1031,223.0313Zm-9.5302-14.5304c.2187.9325.4661,1.8513.7356,2.7598-.2989-.2884-.6031-.5715-.9007-.8609q-.1989-.3525-.4061-.6991A2.77725,2.77725,0,0,0,122.5729,208.5009Zm-41.8004-26.8c.0151.4184.0335.8363.053,1.254q-.29085.799-.5816,1.5978Q80.5004,183.12545,80.7725,181.7009Zm24.9399,18.2949a2.585,2.585,0,0,0,.0506.3707c-.5092-.8237-1.0216-1.6453-1.5188-2.4761C104.7357,198.5909,105.2274,199.2909,105.7124,199.9958Zm-9.2825-21.0253c.0133-.2603.0323-.52.0427-.7802a2.30087,2.30087,0,0,0-2.1238-2.3623c.1126-.6193.2179-1.2397.3339-1.8585a2.26826,2.26826,0,0,0,.0237-.6005c.2669.1956.5291.3963.798.5898a2.23734,2.23734,0,0,0,.9649.407q1.08615,3.85215,2.3983,7.629C98.0654,180.9789,97.2458,179.976,96.4299,178.9705Zm-2.871,32.3656a2.569,2.569,0,0,1,.8843-.3771q1.2588,1.185,2.5175,2.3699-2.1162-.861-4.2328-1.7214A1.24579,1.24579,0,0,1,93.5589,211.3361Zm14.2878-8.1913c.6847,1.0248,1.358,2.0571,2.0295,3.0908-.1545-.0616-.3103-.1202-.4651-.181q-1.3353-2.0079-2.625-4.0432C107.1368,202.3921,107.4942,202.7661,107.8467,203.1448Zm3.9141-4.3795q-2.3127-4.4151-4.2894-8.9822,2.5155,4.749,5.031,9.498C112.2598,199.1044,112.0088,198.9366,111.7608,198.7653ZM86.1935,170.044a2.32856,2.32856,0,0,0-.6749.5124q.0918-2.01885.2226-4.0282Q85.92825,168.28815,86.1935,170.044Zm-7.1299,36.4838q-.84465-.70875-1.6891-1.4174l.1178-.3205Q78.2888,205.65045,79.0636,206.5278Zm22.6647-38.6692a2.34805,2.34805,0,0,0,.7264-1.6784c.0711.0279.1399.0597.2111.0873a2.358,2.358,0,0,0,.3491.0961q.9636,3.91335,2.0489,7.7907Zm-.3962,52.607q-1.4766.3537-2.9414.7362-.832-1.213-1.6979-2.3989C98.2271,219.3919,99.7753,219.9414,101.3321,220.4656Zm10.8416-1.9336q-1.8966-.45195-3.773-.9694-.91635-.8754-1.8326-1.7509-.11835-.2091-.2369-.4178,3.0669,1.4517,6.0279,3.1209C112.2973,218.5208,112.2355,218.5258,112.1737,218.532ZM73.7506,198.5451a1.85641,1.85641,0,0,0-.253,1.9388c-.0518.4156-.099.8321-.149,1.2483l-.1307-.1097a16.3032,16.3032,0,0,1-.3498-2.2302q.7173-2.9112,1.5674-5.7795Q74.07235,196.0758,73.7506,198.5451Zm33.9055-37.3974a2.77163,2.77163,0,0,0,.9672.0544q.70455,3.4482,1.4672,6.8821Q108.83815,164.6294,107.6561,161.1477ZM86.0789,146.1644q-.2001,1.4616-.3525,2.9222c-.5576-.1753-1.1176-.3451-1.6846-.4984a28.37112,28.37112,0,0,0,.9383-2.8197C85.3462,145.9017,85.7117,146.0377,86.0789,146.1644Zm39.455,72.7323a2.77082,2.77082,0,0,0,.5539-.2551c.0423.2084.0915.415.1306.624-.2451-.0582-.4903-.1155-.7359-.1683C125.5032,219.0311,125.5184,218.9641,125.5339,218.8967Z" transform="translate(-18.16307 -55.47186)" fill="#c97784"/>
            <path d="M54.5245,75.084a1.03448,1.03448,0,0,0-1.1357-.4622,2.16642,2.16642,0,0,0-1.4876,1.1408,3.99085,3.99085,0,0,1-.7113-.6784,1.6213,1.6213,0,0,0-2.6869.7095,10.62,10.62,0,0,0-.4084,1.9507,1.41573,1.41573,0,0,0-1.6733,1.737c.4052,1.4261,1.0281,3.0402,2.3741,3.8148a.74684.74684,0,0,0,1.1149-.6398c-.0047-.065-.0216-.1279-.0287-.1923a1.45673,1.45673,0,0,0,1.2354-1.4574,17.21084,17.21084,0,0,1,.1514-2.0691,8.13078,8.13078,0,0,0,.9121.3573,1.54847,1.54847,0,0,0,1.7391-.7078C54.4661,77.4399,55.1986,76.3149,54.5245,75.084Z" transform="translate(-18.16307 -55.47186)" fill="#c97784"/>
            <path d="M127.3929,72.6824c-.8874-.6873-1.7695-1.382-2.6539-2.0718-1.2799-.998-3.2473-.0463-2.9966,1.4449-.0181.0013-.0363-.0022-.0542,0a1.04276,1.04276,0,0,0-.4395,1.9638.45855.45855,0,0,0,.1163.0323c.0738.0899.2431.2108.4309.404.3555.3654.7277.7129,1.0967,1.0645l2.2134,2.1087a1.49524,1.49524,0,0,0,2.5169-.5496,1.78126,1.78126,0,0,0,2.2484-1.6486C130.0213,74.0472,128.9568,72.3378,127.3929,72.6824Z" transform="translate(-18.16307 -55.47186)" fill="#c97784"/>
            <path d="M78.1007,120.3639c-1.8652-2.5884-5.7368-3.4931-8.0672-.92a5.56636,5.56636,0,0,0-1.3035,4.5316,4.28037,4.28037,0,0,0,2.1749,3.0864,4.74616,4.74616,0,0,0,4.3493.9701A5.02653,5.02653,0,0,0,78.1007,120.3639Z" transform="translate(-18.16307 -55.47186)" fill="#d3a3b7"/>
            <path d="M117.5248,117.4907c-.9929-3.6548-5.7067-4.1866-8.0364-1.6764a3.68179,3.68179,0,0,0-1.8353,3.8347,5.16532,5.16532,0,0,0,3.6493,4.1044A5.07144,5.07144,0,0,0,117.5248,117.4907Z" transform="translate(-18.16307 -55.47186)" fill="#d3a3b7"/>
            <path d="M155.0176,80.9072c-6.5065-2.0371-5.5193-11.3109-7.6108-16.4363a12.599,12.599,0,0,0-8.7913-7.6183,11.88092,11.88092,0,0,0-10.9372,2.8331c-2.2239,2.129-4.2494,5.9162-3.4789,9.0975a5.36509,5.36509,0,0,0-4.8401,2.192,37.79932,37.79932,0,0,0-4.1298-3.4023c-8.7822-6.2537-20.0038-8.0215-30.5445-6.8057-10.3622,1.1952-21.1128,5.0382-28.3932,12.7862-.1082.1152-.2113.2338-.3177.3502a1.15241,1.15241,0,0,0-.1725-.3028,4.60209,4.60209,0,0,0-3.9715-1.2428c.2401-8.1347-9.0152-12.9846-16.2427-9.5016a15.91772,15.91772,0,0,0-8.0728,10.2181c-1.5349,5.3821.2995,17.0803-7.6594,17.7332-1.5361.1258-2.4561,2.3127-.8503,3.1397,9.1299,4.7026,24.0972,3.1282,28.8479-7.2256a6.65209,6.65209,0,0,0,.7103.3563,31.17114,31.17114,0,0,0-.7214,3.1424,1.3209,1.3209,0,0,0-.5563.6559,15.94228,15.94228,0,0,0-.668,10.231c-.0738.3745-.1407.752-.1871,1.1376-3.3327-.6438-6.9054,2.4016-5.8361,6.0849a5.49691,5.49691,0,0,0,3.9988,3.6086,6.24289,6.24289,0,0,0,2.8241-.0441,41.15426,41.15426,0,0,0,3.4512,8.5555c4.7061,8.5922,12.663,14.711,21.7252,18.1761a53.31757,53.31757,0,0,0,6.353,1.9728c-.4072,1.02-.7965,2.0486-1.1763,3.0817a.901.901,0,0,0-.2456.2338,84.782,84.782,0,0,1-15.1329,16.5192,62.583,62.583,0,0,1-9.3797,6.2185c-2.7047,1.4662-5.9909,2.3869-8.6483,3.9853a6.49961,6.49961,0,0,0-6.849-3.0012,7.201,7.201,0,0,0-5.2455,8.3619c.9371,3.7343,6.1908,4.2681,9.2201,3.085a6.21913,6.21913,0,0,0,3.8732-5.6011c3.0513-.5204,6.215-2.3216,8.8029-3.7001a63.33763,63.33763,0,0,0,9.5768-6.3553A54.24152,54.24152,0,0,0,75.307,151.0104c-3.4673,11.2755-5.763,23.0501-8.2862,34.4241-3.5,15.7767-6.6692,31.6289-9.603,47.5203a2.23824,2.23824,0,0,0,2.1143,2.7757,112.40675,112.40675,0,0,0,23.1577-.1851,167.72478,167.72478,0,0,0-2.7488,16.884c-.6378,4.7932-1.5344,9.8004-1.8385,14.7082a11.8487,11.8487,0,0,0-8.6647-2.701c-3.6497.3969-7.2511,3.6797-6.088,7.6331,1.2384,4.2094,6.6078,4.077,10.066,3.5791,1.2419-.1788,7.7457-1.7227,7.9107-4.0859a1.82189,1.82189,0,0,0,.0948-.2859c1.363-5.9326,1.6032-12.2893,2.2963-18.3364.6721-5.864,1.5227-11.778,1.7087-17.689,8.6274-.985,17.2266-2.5279,25.8436-3.822a171.61993,171.61993,0,0,0,2.7022,41.8199,1.53962,1.53962,0,0,0,1.9941,1.119c3.0572,2.0688,6.9599,3.6487,10.5661,1.9755a5.97805,5.97805,0,0,0,3.208-7.7664c-1.7583-3.8793-9.2687-3.9868-12.9911-1.7261-.472-5.1051-1.0746-10.2035-1.4565-15.3141-.5096-6.8207-.8906-13.6561-1.6932-20.4493a183.00925,183.00925,0,0,1,18.8877-1.8899,2.22175,2.22175,0,0,0,2.0473-1.3969,1.14458,1.14458,0,0,0,1.6277-1.1207c-.3117-7.5052-2.4659-15.053-4.444-22.2599q-3.138-11.43315-7.0917-22.6262-3.67635-10.46415-8.0324-20.6698c-1.3326-3.117-2.672-6.2965-4.0824-9.4476.8922.6602,1.8027,1.2621,2.702,1.8153a37.006,37.006,0,0,0,26.7782,7.1837c.0758.004.1517.0094.2274.0132a1.70183,1.70183,0,0,0,.8112-.1475c.0409-.0065.0821-.0093.123-.0159a5.19515,5.19515,0,0,0,1.7425,2.1573,6.41785,6.41785,0,0,0,9.1567-2.0081,6.02633,6.02633,0,0,0-3.167-8.6174c-2.0219-.6419-6.8816.6772-6.7953,3.2845a4.37725,4.37725,0,0,0-1.163,1.9335,1.85008,1.85008,0,0,0-.7081-.1667c-7.2732-.2791-14.6062-1.3774-21.2949-4.3794a33.71227,33.71227,0,0,1-8.4522-5.2107c-2.5575-2.2386-4.0451-4.9116-5.7723-7.7195a37.07519,37.07519,0,0,0,19.8169-15.0267,36.69157,36.69157,0,0,0,5.7058-17.6542,5.5436,5.5436,0,0,0,7.3629-3.3079c1.1843-3.5065-1.7785-7.2698-5.3188-6.7791a10.25758,10.25758,0,0,0-2.859-.2132,33.95824,33.95824,0,0,0-1.6458-5.3087,2.28281,2.28281,0,0,0-.8321-2.8664,15.74394,15.74394,0,0,0-1.7828-6.861,4.50586,4.50586,0,0,0,1.3396-.5068c5.6657,9.3737,18.8028,6.4398,26.9282,2.6708C156.7881,83.309,156.2745,81.3006,155.0176,80.9072ZM45.6826,109.1868a2.71458,2.71458,0,0,1-2.1101-1.5078c-.5785-1.5728,1.1727-2.9978,2.7304-3.2064a25.54208,25.54208,0,0,0,.4613,4.6229A2.82474,2.82474,0,0,1,45.6826,109.1868Zm-5.801,67.3239c-1.9881.4833-5.1728.0625-4.7869-2.6014.5479-3.7821,4.6989-4.4768,7.3076-2.6454a1.07224,1.07224,0,0,0-.063.7047C42.8237,174.0432,42.1547,175.9581,39.8816,176.5107Zm32.5011,95.5237c-1.7029.1009-4.4388.4864-5.1843-1.333-1.1923-2.9102,3.4243-3.2156,5.3008-2.7771a9.43334,9.43334,0,0,1,5.2401,3.5504A29.94027,29.94027,0,0,1,72.3827,272.0344Zm45.0107-.1764c.6308-.5369.7694-1.2503,1.3505-1.813a4.62427,4.62427,0,0,1,2.9949-.9113c1.4228-.0954,4.3427-.4399,4.7972,1.365.5546,2.2032-2.2201,3.2735-3.8881,3.4181a17.06068,17.06068,0,0,1-5.4371-.8672,1.53086,1.53086,0,0,0,.01-.2397c-.0164-.2649-.038-.5295-.0557-.7944A1.68124,1.68124,0,0,0,117.3934,271.858Zm27.9749-115.0282c.0209-.005.0444-.0008.0644-.0077,1.498-.5146,1.8632-2.2871,3.7166-2.3492,2.1387-.0716,3.5802,2.3544,2.9396,4.2853a3.86288,3.86288,0,0,1-4.6761,2.3767A3.21645,3.21645,0,0,1,145.3683,156.8298Zm-12.86-56.7736c.0066.0036.0117.0103.0185.0137.8874.4485,1.5347-.0203,2.3519.0305l.0031.0001a1.94764,1.94764,0,0,1,1.7977,2.2353c-.3596,2.2656-2.4715,2.7927-4.3849,2.407a37.19046,37.19046,0,0,0-.3111-4.6645C132.1584,100.0712,132.3334,100.057,132.5083,100.0562Zm.1766-39.6577c4.9751-1.7821,10.0413,1.321,11.6638,6.0931a43.198,43.198,0,0,1,1.188,4.5329,15.7556,15.7556,0,0,0-8.9655-7.227c-3.4084-.914-7.6315.2673-9.5043,3.2044C128.1069,64.1849,129.29,61.6146,132.6849,60.3985ZM120.4505,82.773c-6.598-2.2954-13.4032-4.1961-19.983-6.359-6.6702-2.1927-15.5653-3.7864-20.6968-9.1058,8.0866,1.9461,16.4077,3.4193,24.2842,6.0535a53.13658,53.13658,0,0,1,10.803,4.9379A39.66168,39.66168,0,0,1,120.4505,82.773Zm4.4046,5.0933c.0174.0612.0337.1233.0514.1843-16.2054-1.4492-33.797-3.3263-44.998-16.5119a1.27727,1.27727,0,0,0-.5902-.3847,12.34946,12.34946,0,0,1-.7694-2.0748c4.7162,4.2228,11.2367,6.0987,17.1219,8.2304C105.3133,80.8021,114.9929,84.9758,124.8551,87.8663ZM85.9666,64.2906c9.0892-.9005,18.7437.8207,26.3523,6.0661a32.69032,32.69032,0,0,1,7.4828,7.124,54.86989,54.86989,0,0,0-12.6597-6.0893c-9.2741-3.288-18.883-4.0512-28.5278-5.4328-.0945-.1251-.1997-.2397-.2902-.3684A55.44311,55.44311,0,0,1,85.9666,64.2906ZM59.3573,75.8056a37.04055,37.04055,0,0,1,15.6796-9.2791c-5.6232,2.884-10.8349,7.3991-15.4152,11.6849a46.30728,46.30728,0,0,0-6.7803,7.5415A33.52786,33.52786,0,0,1,59.3573,75.8056Zm14.0272-5.5753a125.07349,125.07349,0,0,1-9.0319,11.0303A117.7184,117.7184,0,0,1,51.1733,92.376a.69467.69467,0,0,0,.0383-.062C54.9555,82.4025,64.9225,76.2276,73.3845,70.2303ZM38.3758,65.2079c5.6654-1.831,10.1716,2.383,11.2186,7.6102a8.55374,8.55374,0,0,0-1.5608.7422.81468.81468,0,0,0-.0502-.5347c-2.0369-4.7227-9.2397-4.6576-13.1111-2.6255a12.06739,12.06739,0,0,0-4.0837,3.5378C31.9624,70.0559,34.2888,66.5287,38.3758,65.2079ZM26.1237,90.9971c6.8904-3.8798,9.7318-13.4281,18.6565-13.7011a7.67065,7.67065,0,0,0-.5186,2.3342c-2.7468,2.6415-5.2354,5.3409-8.4964,7.4394-1.7988,1.1578-7.3299,4.8837-10.3813,4.7383A8.99056,8.99056,0,0,0,26.1237,90.9971Zm9.586,1.5207a18.31094,18.31094,0,0,1-8.3395.6584,27.9996,27.9996,0,0,0,4.3257-1.5281c4.731-2.1282,9.6716-5.5695,12.6946-9.9884a7.78228,7.78228,0,0,0,1.6462,3.5262C42.8647,88.1965,40.0769,91.0989,35.7097,92.5178Zm9.6576-16.3787-.0016-.0009c-7.2421-2.0586-11.9885,4.8604-16.8669,10.1046a45.87988,45.87988,0,0,0,1.3715-7.5177,12.83766,12.83766,0,0,1,4.6526-6.1325c4.3695-2.9538,8.594-1.7062,12.3383,1.2988a.80838.80838,0,0,0,.4179.1758A7.80931,7.80931,0,0,0,45.3673,76.1391Zm2.5184,1.5305a5.2741,5.2741,0,0,1,3.2988-2.4358c1.3005-.3468,2.4205.0368,3.6578-.0314a32.87033,32.87033,0,0,0-5.4832,9.4381C47.6518,82.7489,46.515,80.1352,47.8857,77.6696Zm2.4916,18.1392a.83425.83425,0,0,0-.3608-.2279c.007-.0447.016-.0891.0233-.1339A70.02858,70.02858,0,0,0,66.0332,82.9412c3.6819-3.7225,7.7762-8.0816,10.5138-12.8312a8.8293,8.8293,0,0,0,.9401,1.664c-.018.0294-.0435.0531-.0589.0843C71.7502,83.2521,61.8872,90.9385,50.3773,95.8088Zm61.4343,64.9046q4.68975,10.96695,8.6659,22.2251,3.706,10.52745,6.7312,21.2784c1.8895,6.7107,3.2867,13.7091,5.5789,20.3197a2.60034,2.60034,0,0,0-.3004-.0222c-23.652.564-46.6213,8.8795-70.3566,7.0668q4.306-22.91565,9.3338-45.6828c3.2554-14.8245,7.6279-29.7466,9.4632-44.8532a51.45164,51.45164,0,0,0,21.8578-.1455C105.5113,147.6132,108.9602,154.0454,111.8116,160.7134Zm8.2244-34.5765c-7.6204,8.7753-18.7638,12.1172-30.1266,11.6745-11.1353-.4339-22.5683-4.3098-30.412-12.4848a31.94124,31.94124,0,0,1-7.7559-13.9002c-1.1249-4.236-.5214-8.4676-.8479-12.6649,12.2796-3.1652,22.2559-12.3633,28.2518-23.3689C91.1042,87.9822,108.8505,91.2015,125.65,92.3332c.0175.0692.0252.1347.05.2065C129.6915,104.1262,128.239,116.6904,120.036,126.1369ZM127.6679,77.57c-.5614.7968-1.4005.855-2.0869,1.2735-.1927-.3269-.3835-.6438-.5681-.9418a34.64535,34.64535,0,0,0-4.33-5.5994c2.2616-1.6567,5.337-1.5578,6.9107,1.2644A3.73276,3.73276,0,0,1,127.6679,77.57Zm.4152-7.3798c.0061-.0108.0164-.0165.0221-.0277,5.0576-9.9395,15.3107-.6805,18.0943,6.4274-2.1491-2.2322-4.0175-4.7931-6.7929-6.332-3.2506-1.8022-7.6693-1.7959-10.6145.5334A6.851,6.851,0,0,0,128.0831,70.1902Zm9.3951,1.58a16.32781,16.32781,0,0,1,5.3883,3.9345,27.54226,27.54226,0,0,0,5.521,4.5107c-6.3059-.2441-11.9209-2.256-17.6027-5.2548a8.673,8.673,0,0,0-.7623-2.4259C132.448,71.4106,134.6956,70.7355,137.4782,71.7702Zm-7.2181,7.5867a6.64422,6.64422,0,0,0,.6081-2.5212c5.5444,3.9321,12.5279,5.4472,19.2671,5.0767.1859.1711.3698.3437.5735.5015C143.5492,85.204,136.221,85.2801,130.2601,79.3569Z" transform="translate(-18.16307 -55.47186)" fill="#3c3c3b"/>
            <path d="M71.4127,100.6749a5.98055,5.98055,0,0,0-5.0858,7.3125.95729.95729,0,0,0,1.8712-.2533c.125-1.9082,1.5546-4.0367,3.6046-4.1593,2.2366-.1338,3.3108,1.6835,3.8157,3.5519a1.449,1.449,0,0,0,2.8329-.3834C78.5814,103.1894,74.8017,100.2687,71.4127,100.6749Z" transform="translate(-18.16307 -55.47186)" fill="#3c3c3b"/>
            <path d="M108.5898,98.7288c-3.425-.1009-6.2779,3.4459-5.0463,6.7286.3442.9174,1.8631.8694,1.8192-.2462-.0683-1.7392,1.2519-3.9904,3.2466-3.7533,2.2071.2624,2.2221,2.405,2.6362,4.0473a1.15324,1.15324,0,0,0,2.0797.2718C115.5034,102.843,111.5146,98.815,108.5898,98.7288Z" transform="translate(-18.16307 -55.47186)" fill="#3c3c3b"/>
            <path d="M110.2722,120.3221c-2.4015,1.3243-4.2752,3.4136-6.6653,4.7996a25.764,25.764,0,0,1-7.939,2.993c-6.5653,1.2911-13.2195-.3522-19.0846-3.3316-.6304-.3202-1.4103.5305-.8017,1.039a24.39327,24.39327,0,0,0,18.9162,5.4409c5.81-.7444,14.2828-3.8873,16.8598-9.6555A.9478.9478,0,0,0,110.2722,120.3221Z" transform="translate(-18.16307 -55.47186)" fill="#3c3c3b"/>
          </g>
          <g>
            <path d="M260.2507,183.3537a4.4847,4.4847,0,0,0-3.4623-1.4238,1.12073,1.12073,0,0,1-.1542.0747c-1.9142.7021-3.3082,3.1644-2.3586,5.1229a3.6139,3.6139,0,0,0,4.9924,1.5344A3.662,3.662,0,0,0,260.2507,183.3537Z" transform="translate(-18.16307 -55.47186)" fill="#fff"/>
            <path d="M245.3689,76.986q.18675.0213.3733.0422A46.65614,46.65614,0,0,0,213.8036,64.089a1.30259,1.30259,0,0,1-1.1163-1.9451,22.64758,22.64758,0,0,1,2.1346-2.6921,58.9303,58.9303,0,0,0-37.7847,11.9938,1.3007,1.3007,0,0,1-1.5569-.2009,47.14475,47.14475,0,0,1-5.1063-5.6052c-.1239.3696-.2363.7415-.3299,1.1153a16.03965,16.03965,0,0,0,.4927,5.5706,1.74673,1.74673,0,0,1,.1338.4662c.0411.1408.0762.28.1211.4219a1.37519,1.37519,0,0,1-.6141,1.5092,19.6956,19.6956,0,0,0-8.048,11.7719,33.86184,33.86184,0,0,1,5.3379-2.069,1.20278,1.20278,0,0,1,1.4678,1.4678,57.261,57.261,0,0,0-2.447,12.7169c-.2244,3.0086-.0294,6.0322-.0834,9.0389a5.32194,5.32194,0,0,1,1.2714.463,4.2866,4.2866,0,0,1,.4227-2.3065,3,3,0,0,1,1.1414-1.2026,5.23675,5.23675,0,0,1,1.6615-.3458,1.75432,1.75432,0,0,1,.9505.0569c.3642-2.7714.7838-5.5362,1.1831-8.3024.1857-1.2871,1.8669-1.3945,2.6621-.7028a31.04751,31.04751,0,0,0,7.4534,4.8098c-.0517-1.7129-.1197-3.4248-.2237-5.1375a1.70975,1.70975,0,0,1,2.89-1.197c3.1938,3.4081,7.4427,4.8921,11.8875,5.5358.2263.0096.4485.0349.6764.0372a10.712,10.712,0,0,1-1.4245-5.9857,1.24193,1.24193,0,0,1,2.0903-.8659,51.2557,51.2557,0,0,0,14.1601,8.1543,22.54879,22.54879,0,0,1-1.3322-8.6735,1.33265,1.33265,0,0,1,2.2476-.9312,73.42886,73.42886,0,0,0,15.3848,11.1756c.0006-.0325.002-.0671.0015-.0964a27.00064,27.00064,0,0,1,.2061-3.8037c.1314-1.0852.1395-2.846.9581-3.7037a2.23158,2.23158,0,0,1,3.7383,1.1887,1.70376,1.70376,0,0,1,.0479.4015,44.09942,44.09942,0,0,1,4.9243,5.0369q.1215-1.37355.2418-2.7473a1.51061,1.51061,0,0,1,2.5441-1.0538q3.596,3.2325,7.1917,6.4651c.0142.0129.0227.0268.0362.0398a1.9998,1.9998,0,0,1,1.118,1.2577c.106.3186.1931.6411.2851.9624a36.62455,36.62455,0,0,0-6.6954-26.9895A1.47051,1.47051,0,0,1,245.3689,76.986Z" transform="translate(-18.16307 -55.47186)" fill="#575756"/>
            <path d="M164.1846,112.6946a2.91008,2.91008,0,0,0-1.3706,2.8368,2.65018,2.65018,0,0,0,2.2073,2.4461,3.6629,3.6629,0,0,0,2.6165-.8079,21.48726,21.48726,0,0,1-.1146-5.13A5.47047,5.47047,0,0,0,164.1846,112.6946Z" transform="translate(-18.16307 -55.47186)" fill="#fff"/>
            <path d="M256.7369,114.3939a3.26828,3.26828,0,0,0-4.9261-3.1014,30.00091,30.00091,0,0,1,.0039,6.0845C254.0218,117.8892,256.4645,117.0492,256.7369,114.3939Z" transform="translate(-18.16307 -55.47186)" fill="#fff"/>
            <path d="M166.1547,189.1981a4.86818,4.86818,0,0,0-4.0369,2.0372,3.91879,3.91879,0,0,0,.8237,5.0597,3.61368,3.61368,0,0,0,5.2364-.9614c1.3308-1.9826.2045-4.1583-.9717-5.9498A1.35255,1.35255,0,0,1,166.1547,189.1981Z" transform="translate(-18.16307 -55.47186)" fill="#fff"/>
            <path d="M180.4364,264.8643c-1.9444.8456-3.2516,2.7762-.701,4.1591,1.606.8707,4.6302.4265,6.392.256.3733-.0364,4.3563-.9521,5.9364-1.4819-2.118-.9874-4.0554-2.3586-6.3428-2.9711A8.12584,8.12584,0,0,0,180.4364,264.8643Z" transform="translate(-18.16307 -55.47186)" fill="#fff"/>
            <path d="M232.6955,272.0224a9.50269,9.50269,0,0,0,5.0689,1.6873c1.931.1798,5.837-.3006,4.6306-2.9794C240.9368,267.4928,235.6215,270.529,232.6955,272.0224Z" transform="translate(-18.16307 -55.47186)" fill="#fff"/>
            <path d="M238.8545,242.1928q-1.53435-17.5365-2.9483-35.083c-15.0619-.3096-30.1195-.7963-45.1798-1.1621.3889,12.1808-.7499,24.591-1.2883,36.7646a75.46945,75.46945,0,0,0,8.1667.9545c.9248.0576,2.9276-.2493,3.9006.0802l-.0642-1.149c-.3395-6.0703-.7166-12.1398-.9897-18.2135a2.33128,2.33128,0,0,1,2.309-2.309q6.8091.0699,13.6174.0764c2.3424.0041,6.166-.7731,7.9922,1.1686,2.0262,2.1545,1.4665,7.0785,1.5479,9.7854a85.93312,85.93312,0,0,1-.3171,9.9426A60.26333,60.26333,0,0,1,238.8545,242.1928Z" transform="translate(-18.16307 -55.47186)" fill="#fff"/>
            <path d="M244.2927,105.3328q-.4155,1.04115-.8313,2.0823a1.69185,1.69185,0,0,1-3.0182.4315,1.38725,1.38725,0,0,1-1.3223-.6655,80.66585,80.66585,0,0,0-5.5409-7.4539,22.64147,22.64147,0,0,0,.3736,5.2928,1.30235,1.30235,0,0,1-1.7318,1.5221,2.44168,2.44168,0,0,1-1.778.2882c-2.8417-.4365-6.1819-2.7098-8.6466-4.097q-2.08965-1.1763-4.084-2.5177c.0842.336.1684.6717.2563,1.005.387,1.4656.8447,2.5828.0959,3.9431a1.71843,1.71843,0,0,1-1.4958.858c-2.5651-.0821-5.3204-1.5456-7.6607-2.5325a39.57089,39.57089,0,0,1-4.685-2.3796,1.7865,1.7865,0,0,1-1.7258,2.2096c-5.7146-.2286-11.3806-1.2709-15.99-4.4799q.0753,1.93005.107,3.8633a1.70868,1.70868,0,0,1-2.1494,1.6373,36.8936,36.8936,0,0,1-7.6-4.1086c-.1323-.0558-.2615-.1177-.3941-.1729.0515,2.3226.0334,4.6448-.1101,6.966a1.36493,1.36493,0,0,1-1.3446,1.3447,11.79009,11.79009,0,0,1-3.2047-.4408c-.6938,9.9726,2.2184,19.0122,9.9679,25.7117a35.2751,35.2751,0,0,0,14.6141,7.2872,1.72325,1.72325,0,0,1,.8696.2119,56.63009,56.63009,0,0,0,14.2512,1.3248c10.2955-.2868,21.9945-2.3537,29.2014-10.3786a27.68258,27.68258,0,0,0,5.8991-25.5508A21.56357,21.56357,0,0,1,244.2927,105.3328Z" transform="translate(-18.16307 -55.47186)" fill="#ffc6a5"/>
            <path d="M188.016,193.1684a8.39958,8.39958,0,0,0,.301,6.3724c-.092.5757-.1911,1.1503-.2812,1.7263.4722.008.9444.0131,1.4167.0208a8.79641,8.79641,0,0,0,1.1873,1.1663,1.64863,1.64863,0,0,0,2.5892-.7653,2.12664,2.12664,0,0,0,1.2391-.3276q1.0677.01545,2.1353.0313a1.84476,1.84476,0,0,0,2.9767.0436q3.4197.045,6.8394.0867a39.78815,39.78815,0,0,0,11.8569,1.0988,2.01169,2.01169,0,0,0,1.6438-.9253q5.14575.06855,10.2913.1568a33.31982,33.31982,0,0,0,5.9204.7938,4.52739,4.52739,0,0,0,2.1924-5.2254c-.071-.1189-.1554-.249-.2462-.3837a21.75663,21.75663,0,0,1-2.5617-5.2057,2.39619,2.39619,0,0,0-.8367-1.1829q-2.12145-7.6467-4.3162-15.2728c-1.3712-4.7414-2.9188-9.4729-4.4151-14.2182a2.21115,2.21115,0,0,0,.6803-2.0101,41.82,41.82,0,0,0-3.8984-11.9458,1.92162,1.92162,0,0,0-1.0358-.9921c-.03-.1267-.0649-.2528-.0944-.3796-1.6259.2532-3.2579.4426-4.8808.5813a3.16922,3.16922,0,0,0-.8695-.0032c-.0282.0038-.0508.0126-.0783.0171q-5.1786-.77265-10.357-1.5453c-2.6503-.3954-5.001-.9395-7.4706.3402a1.92543,1.92543,0,0,0-1.113,1.8831,2.26005,2.26005,0,0,0-.3628,3.7522,22.92346,22.92346,0,0,0-1.099,9.0563c-.0137.0778-.0281.1555-.0419.2333a113.35734,113.35734,0,0,0-4.1042,14.2026c-.6212,2.8787-2.5848,8.2629-1.2138,11.3956-.1815,1.6293-.3436,3.2619-.4679,4.901a1.98034,1.98034,0,0,0,.1153.8548q-.03255.189-.0656.378A2.04245,2.04245,0,0,0,188.016,193.1684Z" transform="translate(-18.16307 -55.47186)" fill="#fff"/>
          </g>
          <g>
            <path d="M238.3243,197.2085c-.0709-.119-.1554-.2491-.2461-.3838a21.75289,21.75289,0,0,1-2.5617-5.2057,2.34219,2.34219,0,0,0-1.8004-1.6264l-.0986-.349a2.42732,2.42732,0,0,0,.0525-1.4054,273.61454,273.61454,0,0,0-7.9834-27.0761,2.23335,2.23335,0,0,0,.9421-2.2271,41.814,41.814,0,0,0-3.8985-11.9458c-.886-1.8056-3.1515-1.211-3.887.2435a1.77987,1.77987,0,0,0-1.0348-.6955,3.22169,3.22169,0,0,0-1.9586-.3417c-.0282.0039-.0508.0127-.0783.0172q-5.1786-.77265-10.357-1.5452c-2.6503-.3955-5.0009-.9396-7.4706.3401a1.92583,1.92583,0,0,0-1.1131,1.8831,2.26009,2.26009,0,0,0-.3627,3.7522,22.90168,22.90168,0,0,0-1.0931,9.1499,113.54662,113.54662,0,0,0-4.1521,14.3424c-.6211,2.8787-2.5847,8.2628-1.2138,11.3956-.1814,1.6292-.3435,3.2618-.4679,4.9008a1.87592,1.87592,0,0,0,.2897,1.2099,2.02989,2.02989,0,0,0-1.8149,1.3137,8.22855,8.22855,0,0,0,2.6237,9.2858,1.6486,1.6486,0,0,0,2.5892-.7653,1.90266,1.90266,0,0,0,2.0911-1.8028l-.0558-1.2463c.3984.8349.7906,1.6727,1.1914,2.5064,1.0425,2.1686,4.1079.5651,3.6857-1.5538-.014-.07-.0235-.1398-.0371-.2096a39.53047,39.53047,0,0,0,18.1722,3.2389,1.99775,1.99775,0,0,0,1.9269-1.6174q3.4716.11805,6.9731-.0774a28.82758,28.82758,0,0,0,8.9555,1.7201,4.527,4.527,0,0,0,2.1924-5.2253Zm-38.4655-36.2118c-.425,1.1186-.8372,2.2419-1.2563,3.3625.4863-1.6697.9932-3.3349,1.5454-4.9898a1.9514,1.9514,0,0,0-1.8007-2.6365c.143-.7551.3232-1.5025.5337-2.2431a51.04326,51.04326,0,0,0,3.26,5.0649A2.32662,2.32662,0,0,0,199.8588,160.9967Zm3.7368,4.8074c.1631-1.4078.2924-2.824.3792-4.2504.0015-.0251-.0028-.0461-.002-.0708a2.20639,2.20639,0,0,0,2.0208-.1498c.0471.0623.0964.1228.1432.1854a2.18616,2.18616,0,0,0-1.5844,1.5381Q204.0817,164.4318,203.5956,165.8041Zm2.4615,23.7035c-.3258-1.5537-.6442-3.334-1.0764-5.0826.404.3072.816.6029,1.2236.905a20.96775,20.96775,0,0,0,.2918,4.2543Zm1.5116-12.4087c-.1502-.0762-.3002-.1527-.4513-.2259q.45225-.715.8949-1.4357Q207.7852,176.2698,207.5687,177.0989Zm2.9321-26.9991q.4704.0741.9407.1482-.45255.48885-.8456,1.0099A2.66861,2.66861,0,0,0,210.5008,150.0998Zm.3837,40.2509c.2064-.4327.408-.867.6086-1.3017q1.4955.9879,3.0212,1.931Q212.6993,190.6665,210.8845,190.3507Zm5.6037-36.7569c-.0053.0571-.0124.1138-.0178.1709a2.587,2.587,0,0,0-.5915-.1621q.1968-.4815.3936-.9634a3.54564,3.54564,0,0,0,.4013-.5104q.0831.175.165.3614A2.65058,2.65058,0,0,0,216.4882,153.5938Zm.507,20.9429c.0473-.1575.0918-.3157.1384-.4733.1263.4426.2436.8877.3733,1.3293Q217.251,174.96475,216.9952,174.5367Zm11.3277,16.1382q-.62055-.5817-1.2262-1.1758-.7377-2.09835-1.4547-4.2023Q226.9827,187.98585,228.3229,190.6749Z" transform="translate(-18.16307 -55.47186)" fill="#5698c5"/>
            <path d="M263.7972,182.2706a7.93736,7.93736,0,0,0-6.4896-3.7652c-.879-7.2363-6.4665-14.6641-11.4374-19.6942-4.5733-4.6274-11.8368-10.8622-18.8221-10.3102-.4469-1.228-.9039-2.4507-1.3899-3.6571,7.2391-1.6651,14.0561-4.8321,18.9255-10.5823a31.37094,31.37094,0,0,0,6.6887-13.7266c7.9071,2.0642,13.6281-8.2094,6.5052-13.1627-.5557-.3865-1.6088-.6062-2.1013-1.0381q-1.4523.1914-.7051-.7218.12735-.89445.1937-1.7959a39.91294,39.91294,0,0,0-.2536-8.6925c-.5422-3.946-1.6404-11.1871-5.4362-13.6543q.776.09885,1.5519.1976a1.79126,1.79126,0,0,0,1.5391-2.6822A43.5654,43.5654,0,0,0,235.597,64.6928a53.51752,53.51752,0,0,0-10.0794-3.641,24.43372,24.43372,0,0,0-5.4605-1.0829c.4632-.5711.9003-1.1679,1.3198-1.7996a1.80626,1.80626,0,0,0-1.5475-2.6967c-8.4494-.0191-16.994.32-25.2218,2.4118-5.7578,1.4637-13.4387,3.8731-17.3568,8.7689a14.377,14.377,0,0,1-5.651-5.8765,1.62946,1.62946,0,0,0-2.7967,0c-1.6638,3.7072-3.0331,7.4668-1.7653,11.2795-6.6782,3.9504-8.8156,13.4819-9.5356,20.6301-.1491,1.4806,1.7936,1.9677,2.7275,1.1297q1.60215-1.43745,3.2422-2.8289a57.26119,57.26119,0,0,0-1.211,7.5624c-.2541,2.8711-.6198,6.1886.1052,9.0771a5.6723,5.6723,0,0,0-1.8196.8907c-1.9913,1.5437-2.4006,4.4086-2.0035,6.755a8.30066,8.30066,0,0,0,4.5361,6.3643,4.83334,4.83334,0,0,0,5.4035-.854,34.314,34.314,0,0,0,9.4584,14.9128,39.2865,39.2865,0,0,0,16.3462,8.7818c-.4389,1.5991-.856,3.206-1.2638,4.8158A63.48247,63.48247,0,0,0,176.6281,165.12c-4.4617,6.0271-9.7613,14.3671-10.803,22.0668a6.34478,6.34478,0,0,0-6.0668,2.0147c-2.3744,2.731-1.5286,7.0216,1.0461,9.312a6.83791,6.83791,0,0,0,9.4721-.7185c3.1987-3.4313,1.6179-8.1883-1.2657-11.2434-.017-.0181-.0362-.0296-.0537-.0464,1.2643-2.8533,2.174-5.9033,3.553-8.7075a77.93532,77.93532,0,0,1,6.3885-10.6668,86.15855,86.15855,0,0,1,13.2738-14.3878c-3.9391,16.4346-6.4583,33.3303-9.0141,49.9546a2.335,2.335,0,0,0,2.2122,2.9041c.5745.0125,1.1489.0298,1.7234.0427-1.4685,12.7089-1.2894,25.8051-1.8492,38.5587a2.07248,2.07248,0,0,0,1.5125,1.9865c2.0382.4099,4.0815.7855,6.1337,1.1013a103.31183,103.31183,0,0,0-.6258,10.4394,54.21752,54.21752,0,0,0-.0505,6.4283c-3.8352-2.2679-9.0502-3.6336-13.0454-2.0668-3.5336,1.3854-5.8512,5.7177-2.5903,8.7025,3.036,2.7789,8.8467,2.3564,12.5028,1.4143,1.179-.3036,5.859-2.7413,5.9985-4.71.0105-.0199.0267-.0333.036-.0542,1.3128-2.9646.5824-6.5183.5883-9.7141.0064-3.3481.0622-6.6958.0729-10.0436.838.1003,1.6769.1938,2.5193.2647,2.2091.1862,5.8057,1.0136,7.2943-1.2385,1.4389-2.1768.3047-6.2697.1856-8.6994-.1884-3.8457-.3704-7.6921-.5831-11.5365,2.5336-.0094,5.0671-.0207,7.6009-.0106l4.3002.0171q1.4334.00585,2.8668.0114,1.98255-.62745,1.2329.3863c.3145.606.0524,3.7025.0942,4.6018q.09825,2.113.1055,4.2306a95.78926,95.78926,0,0,1-.5077,9.854c-.1552,1.5549,1.5386,2.3863,2.8171,2.146a56.75182,56.75182,0,0,1,7.2158-.8637c-.6084,3.8058-1.0734,7.622-1.3086,11.4772-.2308,3.7794-.7714,8.0593-.1965,11.8967a2.016,2.016,0,0,0,.2856,1.4662c.0081.0338.0117.0694.02.103a1.43064,1.43064,0,0,0,1.2725,1.073c2.7746,5.2823,13.8868,6.0221,15.5812-.475.8966-3.4379-1.8778-6.3337-5.1086-6.8738a14.28119,14.28119,0,0,0-8.2503,1.6219c.0849-2.7069-.1226-5.4853-.1048-8.0864.028-4.1003-.0516-8.1935-.1898-12.2892a71.52827,71.52827,0,0,1,8.6119.31,2.45661,2.45661,0,0,0,2.451-2.4508c-1.1429-12.5486-2.3654-25.0889-3.5848-37.6303.2667.0048.5333.0125.8001.0172a2.61172,2.61172,0,0,0,2.4948-3.275q-4.25-14.9538-8.7805-29.8254c-2.27-7.4396-4.3138-15.1203-6.8553-22.5435,6.1637,1.8308,11.8485,6.2827,16.121,10.8624a44.65389,44.65389,0,0,1,6.2071,8.4617,29.86222,29.86222,0,0,1,1.4546,3.0202c.7838,2.1476,1.3116,4.3606,2.0896,6.4967a6.41959,6.41959,0,0,0-3.2641,7.3974,7.19209,7.19209,0,0,0,9.5417,4.5166C263.8058,190.546,265.6981,185.8095,263.7972,182.2706Zm-7.0603-68.0899c-.2724,2.6553-2.715,3.4954-4.9222,2.9831a29.9927,29.9927,0,0,0-.004-6.0844A3.26826,3.26826,0,0,1,256.7369,114.1807Zm-88.559,80.9397a3.6136,3.6136,0,0,1-5.2363.9614,3.91868,3.91868,0,0,1-.8238-5.0597,4.86783,4.86783,0,0,1,4.0369-2.0371,1.353,1.353,0,0,0,1.0515.1856C168.3824,190.9621,169.5088,193.1378,168.1779,195.1204Zm17.9495,73.9458c-1.7618.1705-4.7859.6147-6.392-.256-2.5506-1.3829-1.2434-3.3135.701-4.1591a8.12649,8.12649,0,0,1,5.2846-.0379c2.2873.6125,4.2248,1.9837,6.3429,2.9712C190.4837,268.1142,186.5008,269.0298,186.1274,269.0662Zm-21.106-151.3019a2.65018,2.65018,0,0,1-2.2074-2.4461,2.91025,2.91025,0,0,1,1.3706-2.8368,5.47118,5.47118,0,0,1,3.3386-.655,21.48821,21.48821,0,0,0,.1146,5.1301A3.66333,3.66333,0,0,1,165.0214,117.7643Zm5.8805-13.7202a5.23713,5.23713,0,0,0-1.6615.3459,2.99978,2.99978,0,0,0-1.1414,1.2025,4.2866,4.2866,0,0,0-.4227,2.3065,5.32113,5.32113,0,0,0-1.2715-.463c.0541-3.0067-.141-6.0303.0834-9.0389a57.26688,57.26688,0,0,1,2.4471-12.7169,1.20275,1.20275,0,0,0-1.4678-1.4678,33.85245,33.85245,0,0,0-5.3379,2.0691,19.69609,19.69609,0,0,1,8.0479-11.772,1.37525,1.37525,0,0,0,.6142-1.5092c-.0449-.1419-.08-.2811-.1211-.4219a1.75043,1.75043,0,0,0-.1338-.4662,16.03965,16.03965,0,0,1-.4927-5.5706c.0936-.3738.206-.7457.3299-1.1153a47.15329,47.15329,0,0,0,5.1063,5.6052,1.30058,1.30058,0,0,0,1.5569.2009A58.92973,58.92973,0,0,1,214.822,59.2387a22.61878,22.61878,0,0,0-2.1347,2.692,1.30254,1.30254,0,0,0,1.1163,1.9451A46.6566,46.6566,0,0,1,245.7422,76.815q-.18675-.02115-.3733-.0422a1.47067,1.47067,0,0,0-1.264,2.2026,36.6241,36.6241,0,0,1,6.6954,26.9895c-.092-.3214-.179-.6438-.285-.9624a2.00007,2.00007,0,0,0-1.118-1.2577c-.0135-.013-.022-.0269-.0362-.0398q-3.5958-3.2325-7.1916-6.4651a1.51067,1.51067,0,0,0-2.5442,1.0539q-.1191,1.37385-.2418,2.7472a44.0987,44.0987,0,0,0-4.9243-5.0368,1.704,1.704,0,0,0-.0479-.4016,2.23157,2.23157,0,0,0-3.7383-1.1887c-.8187.8577-.8267,2.6185-.9582,3.7037a27.01638,27.01638,0,0,0-.206,3.8037c.0006.0293-.0008.064-.0014.0964a73.42643,73.42643,0,0,1-15.3849-11.1755,1.3326,1.3326,0,0,0-2.2476.9311,22.55063,22.55063,0,0,0,1.3321,8.6735,51.25318,51.25318,0,0,1-14.1599-8.1543,1.242,1.242,0,0,0-2.0904.8659,10.71205,10.71205,0,0,0,1.4246,5.9857c-.228-.0022-.4502-.0276-.6764-.0372-4.4449-.6437-8.6937-2.1277-11.8876-5.5358a1.70977,1.70977,0,0,0-2.89,1.197c.1039,1.7127.172,3.4246.2237,5.1376a31.046,31.046,0,0,1-7.4534-4.8099c-.7952-.6916-2.4764-.5843-2.6622.7028-.3992,2.7662-.8188,5.531-1.183,8.3024A1.7542,1.7542,0,0,0,170.9019,104.0441Zm10.8782,29.3827c-7.7494-6.6995-10.6617-15.7391-9.9679-25.7117a11.79131,11.79131,0,0,0,3.2047.4408,1.36482,1.36482,0,0,0,1.3445-1.3446c.1436-2.3213.1617-4.6435.1102-6.9661.1326.0552.2618.1171.3941.1729a36.8936,36.8936,0,0,0,7.6,4.1086,1.7086,1.7086,0,0,0,2.1494-1.6373q-.0315-1.93395-.107-3.8633c4.6094,3.209,10.2754,4.2513,15.9901,4.48a1.78662,1.78662,0,0,0,1.7257-2.2097,39.57089,39.57089,0,0,0,4.685,2.3796c2.3403.9869,5.0955,2.4504,7.6607,2.5325a1.71834,1.71834,0,0,0,1.4958-.858c.7488-1.3603.2912-2.4775-.0959-3.9431-.088-.3333-.1722-.669-.2564-1.005q1.99425,1.3362,4.0841,2.5177c2.4647,1.3872,5.8049,3.6605,8.6466,4.097a2.44177,2.44177,0,0,0,1.778-.2882,1.30245,1.30245,0,0,0,1.7319-1.522,22.62652,22.62652,0,0,1-.3736-5.2929,80.71922,80.71922,0,0,1,5.5408,7.4539,1.38734,1.38734,0,0,0,1.3223.6655,1.69183,1.69183,0,0,0,3.0182-.4316q.41565-1.041.8314-2.0822a21.55423,21.55423,0,0,0,2.3228,1.2017,27.6829,27.6829,0,0,1-5.8992,25.5508c-7.2069,8.0249-18.9059,10.0918-29.2013,10.3786a56.63659,56.63659,0,0,1-14.2514-1.3247,1.72249,1.72249,0,0,0-.8695-.212A35.2751,35.2751,0,0,1,181.7801,133.4268ZM242.395,270.5171c1.2065,2.6788-2.6997,3.1593-4.6306,2.9794a9.50269,9.50269,0,0,1-5.0689-1.6873C235.6215,270.3158,240.9368,267.2796,242.395,270.5171Zm-16.7941-27.6818a85.95545,85.95545,0,0,0,.3171-9.9426c-.0814-2.7068.4783-7.6309-1.5479-9.7854-1.8262-1.9417-5.6499-1.1645-7.9922-1.1686q-6.8094-.01125-13.6174-.0764a2.33135,2.33135,0,0,0-2.309,2.309c.2731,6.0737.6502,12.1432.9896,18.2136l.0643,1.1489c-.973-.3295-2.9758-.0226-3.9006-.0802a75.47238,75.47238,0,0,1-8.1667-.9545c.5385-12.1736,1.6771-24.5838,1.2883-36.7646,15.0604.3658,30.1179.8525,45.1798,1.1621q1.44195,17.54475,2.9483,35.0831A60.26288,60.26288,0,0,0,225.6009,242.8353Zm12.1901-41.0634c-16.5836-.3401-33.1709-.4386-49.7552-.718,2.9157-18.6396,6.8627-37.1094,9.7355-55.746a63.05239,63.05239,0,0,0,14.3784,1.1536,76.60821,76.60821,0,0,0,9.4503-.844c2.3233,9.9496,5.9235,19.7256,8.7635,29.5458Q234.2011,188.4329,237.791,201.7719Zm21.477-13.3232a3.6139,3.6139,0,0,1-4.9924-1.5344c-.9497-1.9585.4443-4.4208,2.3587-5.1229a1.13637,1.13637,0,0,0,.1541-.0746,4.4844,4.4844,0,0,1,3.4623,1.4237A3.662,3.662,0,0,1,259.268,188.4487Z" transform="translate(-18.16307 -55.47186)" fill="#3c3c3b"/>
            <path d="M228.3077,126.0454c-3.0995,1.5324-5.6725,3.7477-8.9615,5.005a29.55255,29.55255,0,0,1-9.4688,1.9359c-7.2582.2572-13.9591-2.3561-20.0891-6.0366a.58478.58478,0,0,0-.7055.9145c5.4817,5.81,13.4668,8.5727,21.3908,8.2728,6.6468-.2514,15.4411-2.7692,19.6082-8.3175C230.9319,126.6876,229.3434,125.5334,228.3077,126.0454Z" transform="translate(-18.16307 -55.47186)" fill="#3c3c3b"/>
            <path d="M197.7098,109.6788a4.56465,4.56465,0,0,0-3.9754,5.3677c.1395.9468,1.5291.6384,1.5855-.2145.1396-2.1149,2.7676-3.7599,4.4447-2.0532.7762.7899.6693,3.1642,2.2588,2.7527a1.16492,1.16492,0,0,0,.8355-1.0975A4.849,4.849,0,0,0,197.7098,109.6788Z" transform="translate(-18.16307 -55.47186)" fill="#3c3c3b"/>
            <path d="M222.7309,109.1431a4.98336,4.98336,0,0,0-5.6171,5.178c.0946,1.0134,1.5852,1.36,1.8713.2532.3965-1.5338,1.8075-3.1895,3.5653-2.8059,2.0026.4371,1.7483,2.2099,2.5282,3.6007a1.12443,1.12443,0,0,0,1.9194,0C228.7319,112.806,225.1193,109.4498,222.7309,109.1431Z" transform="translate(-18.16307 -55.47186)" fill="#3c3c3b"/>
            <path d="M185.819,122.1646a4.28719,4.28719,0,0,0-5.2823-3.1984,5.03462,5.03462,0,0,0-3.0177,2.2031c-.929,1.4889-.8537,3.8586.8939,4.7385.0633.032.1286.0542.1929.0813a3.96928,3.96928,0,0,0,4.1448,1.5018A4.64625,4.64625,0,0,0,185.819,122.1646Z" transform="translate(-18.16307 -55.47186)" fill="#d39880"/>
            <path d="M242.2499,124.0293a4.33987,4.33987,0,0,0-3.0076-3.2617,4.86367,4.86367,0,0,0-4.3772,1.0488,4.09946,4.09946,0,0,0-1.4336,2.7368,3.699,3.699,0,0,0-.0823,2.6814c1.1291,3.145,5.5901,3.5991,7.6832,1.2137A5.1015,5.1015,0,0,0,242.2499,124.0293Z" transform="translate(-18.16307 -55.47186)" fill="#d39880"/>
          </g>
        </g>
      </g>
    </g>
  </g>
</svg>
