<svg xmlns="http://www.w3.org/2000/svg" viewBox="0 0 254.9057 180.7504">
  <title>Recurso 2</title>
  <g id="Capa_2" data-name="Capa 2">
    <g id="Editar">
      <g>
        <g>
          <g>
            <path d="M110.88507,15.902a51.73809,51.73809,0,0,0-6.716-2.78565l-.007-.00428a3.14755,3.14755,0,0,0-2.22828-.353,8.36583,8.36583,0,0,0-2.16231.17649,1.99157,1.99157,0,0,0-1.20428.398,2.10645,2.10645,0,0,0-1.94775.99241c-2.3817,4.29671,2.997,8.75387,6.58354,11.39362-.21082.20917-.42164.41944-.633.62114-.5321.50744-1.04173.97308-1.53951,1.5154a1.0842,1.0842,0,0,1-.18292.18506q-.26877.11511-.52892.24674c-2.39191.79714-5.35136,1.66777-6.69939,4.00064-1.95417,3.38109.06866,6.70746,3.91478,6.77558a6.54012,6.54012,0,0,0,1.14473-.089,16.66157,16.66157,0,0,0-.93177,5.15718c-.07723,3.30973,3.49265,4.30423,5.99508,3.06244a13.92191,13.92191,0,0,0,4.87018-4.54032,2.36617,2.36617,0,0,0,.36748-.84482c.9371-1.26547,1.80345-2.60114,2.60218-3.903,1.7761-2.89293,3.33655-5.84968,3.31561-9.38045a3.03888,3.03888,0,0,0-.56-1.75945,3.66025,3.66025,0,0,0-.24894-2.14407,4.135,4.135,0,0,0,2.13819-2.62954C117.16069,18.60022,113.31561,16.93519,110.88507,15.902Z" fill="#c06140"/>
            <path d="M203.12509,38.13673c-.52085-1.84525-1.24609-3.61492-1.86784-5.427-.66031-1.92358-.78209-4.14115-1.709-5.95267a68.05315,68.05315,0,0,0-5.76652-9.45285c-2.38065-3.22278-5.02629-5.17487-8.28241-7.4321-3.2904-2.2809-7.34789-2.99218-10.68871-5.05419a3.01439,3.01439,0,0,0-1.41081-.47042c-.022-.00967-.0429-.01879-.06493-.0279a18.37182,18.37182,0,0,0-2.44448-.77566c-.12013-.03115-2.99323-.45224-1.26541-.21725-1.02779-.14-2.05179-.302-3.08551-.39753a5.67114,5.67114,0,0,0-4.3718,1.19675,2.986,2.986,0,0,0-3.14236-2.32539,5.39508,5.39508,0,0,0-1.92847-.568c-2.79532-.28756-5.965.62114-8.58436,1.55292-1.82548.649-3.68419,1.23268-5.49511,1.99444-2.49919,1.05086-4.713,2.6-7.16234,3.69594-4.52362,2.02394-8.38908,5.19739-12.10546,8.41594-3.17027,2.74539-6.90109,6.2477-6.2209,10.72573.34282,2.25673,3.28935,2.28573,4.48452.7934a3.05942,3.05942,0,0,0,3.24376,2.12743c2.8452-.324,5.04985-1.84207,7.21166-3.49908,1.3555-.77995,2.71375-1.55511,4.10577-2.27013a109.33044,109.33044,0,0,1,11.10607-4.72269c3.12951-1.18763,6.546-1.63125,9.308-3.62245.41681-.30041.82559-.61955,1.22092-.95374a43.08784,43.08784,0,0,0,2.6124,4.11863A67.37021,67.37021,0,0,0,176.59739,34.863a42.53283,42.53283,0,0,0,9.64488,4.79987c3.27057,1.24509,5.98755,3.89874,9.82621,2.89617a7.48212,7.48212,0,0,0,1.532-.58632C199.965,43.5718,204.12178,41.66585,203.12509,38.13673Z" fill="#c06140"/>
            <path d="M232.08867,41.6691c-4.56279-1.37379-9.485-.40555-14.08-1.62378a8.39063,8.39063,0,0,0-5.7853.0735c-2.36077.96078-3.90566,2.95033-3.2459,5.55844a3.077,3.077,0,0,0,3.10056,2.15209,9.20573,9.20573,0,0,1,.78154,6.3368,7.72653,7.72653,0,0,1-5.02947,5.60612c-2.04272.68019-4.20932-.10728-6.21288,1.09914-2.41334,1.45371-2.22773,4.24793-1.18923,6.47407.21346,5.60189,2.42411,13.65892,8.15788,15.6448,3.23305,1.12057,6.84748-.80087,6.87912-4.49253.007-.74512-.02465-1.43174-.05581-2.13929a6.80184,6.80184,0,0,0,5.04129-.57341c4.30911-2.621,4.28012-6.88769,3.07589-11.05833.1861.05845.37226.11689.5654.17863a7.44639,7.44639,0,0,0,6.98847-1.09486c3.92555-3.04959-2.179-9.99358-4.3289-12.14193-.27306-.27251-.54556-.5343-.8229-.79121,1.02242-.22746,2.05717-.39483,3.12467-.54715,2.5394-.36265,4.97207-.96237,5.97574-3.59943C235.88387,44.48314,234.19847,42.30419,232.08867,41.6691Z" fill="#c06140"/>
          </g>
          <path d="M203.32194,47.338a3.61251,3.61251,0,0,0-.53639.06707,3.49638,3.49638,0,0,0-3.49962-.96665c-.09552.02845-.18347.06762-.2763.10085a11.15176,11.15176,0,0,0-7.49647-8.32525c-2.541-.91733-5.44309-.979-8.10965-1.22092a24.8027,24.8027,0,0,1-9.11866-2.459c-8.55809-4.338-13.734-15.53856-24.21893-15.44947-4.66419.03911-9.14491,2.76417-13.30759,4.57833-3.837,1.67255-7.25187,3.12951-11.34155,3.13539a4.458,4.458,0,0,0-.76122-.06811c-.27624,0-.55144,0-.82768.00055a3.61832,3.61832,0,0,0-3.58921,2.26958c-2.151,1.57066-3.5227,3.917-4.85035,6.32762-1.81147,3.28935-4.01992,6.45424-4.29457,10.32777a3.11335,3.11335,0,0,0,.987,2.50243c-1.25257,5.84-1.39528,11.93485.65173,17.61342,2.3951,6.64737,7.76469,11.82757,13.75494,15.32934,6.38074,3.73192,13.933,5.02041,21.16512,5.935,1.04169.13249,2.08936.236,3.14126.31755a2.58769,2.58769,0,0,0-1.9059,2.165,6.488,6.488,0,0,0,.97736,4.89973,14.49241,14.49241,0,0,0,1.42581,1.74764c.22637.24674.45114.493.67212.744-.493-.56056.058.16364.12821.302,1.33089,2.63009,4.96619,2.17522,6.406,0a13.41548,13.41548,0,0,0,2.158-8.815,4.84489,4.84489,0,0,0-.24246-1.06377,50.16505,50.16505,0,0,0,10.008-1.8603,37.56336,37.56336,0,0,0,18.42506-11.97994,51.20482,51.20482,0,0,0,9.139-15.99393c.16149.15875.32507.3159.4935.45542a11.48144,11.48144,0,0,0,1.1088.82554c-1.039-.66036.3744.28.68931.50206a6.20031,6.20031,0,0,0,3.05865.91568c3.844.184,8.01364-3.31665,7.88439-7.26956C211.08345,48.76222,206.89133,47.19211,203.32194,47.338Z" fill="#ffeccb"/>
          <path d="M181.54859,113.66186a73.131,73.131,0,0,1-3.8537-9.59341c-1.08354-3.84453-2.23953-7.6338-3.50177-11.42362-.95479-2.86667-2.76576-5.44688-6.17744-4.68781a11.12367,11.12367,0,0,0-6.86726,4.29188,7.65648,7.65648,0,0,0-1.68167,3.903c-.21137,1.44086.00374,3.18636-.63729,4.52472-.06224.13035.01934.16737.118.169-.10464.02686-.24679.066-.45009.12606a8.55359,8.55359,0,0,1-1.46926.29184c-1.62856.18292-2.26475-.19044-3.68358-.96825-.11695-.0708-.23389-.14111-.35139-.21192a17.02379,17.02379,0,0,0-.21241-1.79433,6.09175,6.09175,0,0,0-2.70144-3.933,2.83346,2.83346,0,0,0-2.099-.50266c-.02466-.64531-.06-1.29063-.11046-1.937a2.77316,2.77316,0,0,0-5.5429,0c-.28267,2.79691-.75743,5.5407-1.0975,8.30647a18.67253,18.67253,0,0,0-1.10019,5.10247v.19148c-.02307.21675-.05312.43241-.06493.65125-.16523,3.08765-.85185,6.09428-.88135,9.19748-.02895,2.99273.01934,5.40124,3.01954,6.85923.31914.15507.648.2897.98111.41252.04075.02038.07459.04724.11639.06762a4.19033,4.19033,0,0,0,1.86942.41087c.56594.0708.45976.07723-.34166.01609a10.71073,10.71073,0,0,1,2.8709,3.01685c1.75088,2.25777,3.66112,4.33642,6.78794,3.69221,2.59411-.53375,4.30154-2.68375,6.83616-3.19119a45.32316,45.32316,0,0,1,8.977-1.06212,34.52549,34.52549,0,0,1,4.676.00857,21.54715,21.54715,0,0,1,4.00816,1.44839c2.38334.85558,4.322-1.31908,4.53763-3.45672A19.7795,19.7795,0,0,0,181.54859,113.66186Z" fill="#e54654"/>
          <path d="M115.55894,155.18468c-.52568-2.41548-2.00626-5.77937-5.0381-5.48813-4.28331.41148-4.63574,4.4727-3.95663,7.88488.66678,3.35159,1.532,7.59683,6.02347,7.89828a2.40756,2.40756,0,0,0,1.55781-.412,3.17087,3.17087,0,0,0,2.2202-2.98625A25.61766,25.61766,0,0,0,115.55894,155.18468Z" fill="#ed7a89"/>
          <path d="M151.54913,160.56823c-1.77665-1.54759-4.01782-1.07283-5.9854-.15128-2.24383,1.05141-3.14775,2.65157-3.98614,4.91258-.76012,2.04805-1.6731,4.86748-.90387,6.97244a3.16112,3.16112,0,0,0,2.19664,3.99471c4.48182,1.10557,7.91114-2.27766,9.57408-6.10664C153.6653,167.37869,154.14759,162.83249,151.54913,160.56823Z" fill="#ed7a89"/>
          <g>
            <g>
              <path d="M112.48364,145.6133c-5.53053-1.5706-12.19345-2.54423-18.02758-1.64679a2.472,2.472,0,0,0-3.25822,1.62054c-.04455.16309-.08959.32722-.13414.4908a2.72028,2.72028,0,0,0,.42,2.231c-.29184,1.50035-.62439,2.99482-.891,4.50165a3.15642,3.15642,0,0,0,2.99109,3.92659c2.57378.07778,4.98448.35029,7.42946-.6925a4.40046,4.40046,0,0,0,2.38494-2.1366c.18242-.40176.33474-.89689.52678-1.29546a13.86739,13.86739,0,0,0,.7349-1.22784,3.79378,3.79378,0,0,0,.26877-.899c1.326.22043,2.64453.4908,3.96362.78478a78.71461,78.71461,0,0,1,7.60271,2.25887c1.16726.38676,2.835,1.07981,3.38806,2.232,1.76747,3.68474,7.21754.46833,5.46935-3.19707C123.25711,148.16989,116.65808,146.79879,112.48364,145.6133Z" fill="#d3dad8"/>
              <path d="M192.06405,143.08785a1.97671,1.97671,0,0,0-3.38108-.736,2.41429,2.41429,0,0,0-.53535.40181,2.6277,2.6277,0,0,0-.68876,1.119c.14914-.5187-.09063.06114-.1432.15611-.096.1727-.18456.35133-.27624.52678-.081.15446-.30739.664-.34331.75528-.03274.06756-.066.13732-.09766.20544-2.07112.97143-3.64228,3.44651-4.97641,5.09654-2.44822,3.02811-4.55526,6.30241-7.092,9.264-2.283,2.66607-4.79294,5.06869-7.27708,7.53888-.50585.50321-1.02245,1.02779-1.5004,1.57873a3.38053,3.38053,0,0,0-.81642-.73974,3.26023,3.26023,0,0,0,1.92682-3.8526,17.64132,17.64132,0,0,0-4.51665-6.642c-2.3088-2.11776-5.73762-2.92242-8.719-3.52533a46.42726,46.42726,0,0,0-11.14792-.49085,51.1695,51.1695,0,0,0-5.24035.49349c-1.30832.19044-1.9338,1.07552-2.73038,1.78686a1.72493,1.72493,0,0,0-.266.3009c-.014.00643-.02845.01126-.04241.01769a3.79155,3.79155,0,0,0-2.60806-.7939,2.84347,2.84347,0,0,0-1.72034,5.04079c.02148.09333.04241.18665.06493.28a4.05244,4.05244,0,0,0,1.105,1.94078c1.42526,1.40647,3.6069,1.08893,5.13735.06169q.47064-.3613.9382-.72743c.5321-.41516.51332-.11689.08207.02043-.0279.00912,1.142.09706,1.52611.13892a4.433,4.433,0,0,0,4.62233-2.44344c1.99928.03916,3.99959.03274,6.001.12716a19.31524,19.31524,0,0,1,3.43206.49991,2.79893,2.79893,0,0,0-.05954,1.06591c.23439,1.85975.97841,2.75291,1.92309,4.28441a3.06745,3.06745,0,0,0,.4892.58039,3.545,3.545,0,0,0,1.42954,5.774c1.98208.58313,3.79894,1.62433,5.82018,2.05986a3.81809,3.81809,0,0,0,1.42746.04938c.02038.111.03752.221.06652.33419a1.5703,1.5703,0,0,0,2.28409.92963c2.15747-1.23378,3.82684-3.21322,5.789-4.75647a51.16141,51.16141,0,0,0,7.41821-7.4745c2.24118-2.68963,4.19321-5.60887,6.22731-8.45351,1.1989-1.67525,3.3768-3.77268,4.27854-5.94515a4.024,4.024,0,0,0,1.78735-2.64245c.09926-.48761.25641-.97467.30629-1.47085a3.21584,3.21584,0,0,0,.12282-.35671A2.69706,2.69706,0,0,0,192.06405,143.08785Z" fill="#d3dad8"/>
            </g>
            <path d="M133.92231,141.43567c1.83344-1.55781,3.40789-3.23305,5.70055-4.07738,2.1945-.80785,4.05051-2.40372,4.05051-4.94043,0-2.71215-2.28733-4.63579-4.17333-6.23a30.65332,30.65332,0,0,0-15.61207-6.92092,52.54125,52.54125,0,0,0-16.84853.85773,2.96461,2.96461,0,0,0-2.20306,2.89293c.01609.17594.03164.35243.04773.52782.00588.06652.02411.12288.03274.18671a34.05979,34.05979,0,0,0-6.40761,5.52087c-2.23635,2.58928-8.82791,6.94613-4.404,10.68393,2.51045,2.121,5.5251,1.01647,8.45291.84751a31.59423,31.59423,0,0,1,9.68942.66569c2.46162.58791,5.81535.45811,7.68422,2.3238a6.77428,6.77428,0,0,1,1.834,2.32808,4.69042,4.69042,0,0,0,3.08655,2.46859,3.58343,3.58343,0,0,0,3.96153-1.61142A25.49361,25.49361,0,0,1,133.92231,141.43567Z" fill="#fff"/>
            <path d="M188.51939,135.28448c-4.83315-4.51665-11.14094-6.05407-17.60271-6.55454a65.39721,65.39721,0,0,0-10.9543.3621,30.44661,30.44661,0,0,0-5.12927.68069,30.32709,30.32709,0,0,1-4.765,1.24559,3.138,3.138,0,0,0-2.7143,1.96549,15.03138,15.03138,0,0,0-1.99493,1.02026,14.43693,14.43693,0,0,0-3.61119,3.00663,50.31443,50.31443,0,0,1-5.71027,5.15339c-1.73528,1.50579-2.92561,3.50341-4.63843,5.05847-1.7895,1.62647-2.6274,3.33819-2.14945,5.76547a3.51759,3.51759,0,0,0,4.33483,2.46167c4.934-1.84317,10.2618-.49887,15.42755-.42647,4.32621.06114,10.34864,1.20746,12.83767,5.11588.92957,1.46014,3.1906,2.4085,4.75268,1.24608a10.0794,10.0794,0,0,0,2.73253-3.11286,14.32821,14.32821,0,0,1,2.6124-2.66546,14.22194,14.22194,0,0,0,2.887-3.27645c.80571-1.22735,2.629-2.23152,3.7657-3.16494,2.71321-2.22723,5.05792-4.92005,8.04044-6.82062,1.31047-.83521,2.52116-1.08085,3.05865-2.79367A4.16608,4.16608,0,0,0,188.51939,135.28448Z" fill="#fff"/>
            <path d="M106.25038,156.96078c-2.70358-1.53737-6.61677-.56215-9.595-.39319-.62867.03647-5.97091.79873-5.92532-.29289.06333-1.52128-2.47238-1.9043-2.68963-.36424-.41461,2.94066,1.85552,3.86331,4.40942,4.10259a39.75011,39.75011,0,0,0,6.22145-.01022c2.42356-.1577,5.449.03384,7.57909-1.24718A1.05,1.05,0,0,0,106.25038,156.96078Z" fill="#e54654"/>
            <path d="M116.517,157.84861a1.11237,1.11237,0,0,0,0,2.13116,104.62862,104.62862,0,0,0,11.208,2.34363,2.03158,2.03158,0,0,0,2.23531-.9092C132.67458,156.2479,118.47493,157.49134,116.517,157.84861Z" fill="#e54654"/>
            <path d="M138.19326,163.45528a3.64591,3.64591,0,0,0-2.57643-1.11524,3.09962,3.09962,0,0,1-1.87854-.54122,2.16162,2.16162,0,0,0-2.18163,3.73242,12.5205,12.5205,0,0,0,5.545.55842A1.55977,1.55977,0,0,0,138.19326,163.45528Z" fill="#e54654"/>
            <path d="M166.41772,176.3487a.71508.71508,0,0,0-.87975-.1137c-.03164.02307-.05685.04076-.0842.06064a9.07484,9.07484,0,0,1-.84543-.84866,13.479,13.479,0,0,0-3.12731-2.05662c-2.60812-1.47464-5.19475-3.2899-8.24593-3.572-2.26261-.20978-2.25508,3.33868,0,3.53017,2.32166.19687,4.42069,2.07651,6.4961,3.03563a46.33294,46.33294,0,0,1,4.117,2.33935C165.627,179.7711,167.87836,178.17259,166.41772,176.3487Z" fill="#e54654"/>
          </g>
          <path d="M139.60566,92.74348c-.15341-1.94237-.29607-3.84881-1.91985-5.17915a11.035,11.035,0,0,0-5.90922-2.35544,5.31751,5.31751,0,0,0-.71238-.05471,3.89377,3.89377,0,0,0-1.17423.162,2.64941,2.64941,0,0,0-2.72714.54391,5.70567,5.70567,0,0,0-1.58083,3.196,9.00782,9.00782,0,0,1-1.27887,2.60812,3.58357,3.58357,0,0,0,3.06569,5.34224,13.40469,13.40469,0,0,1,3.82788.79445,6.556,6.556,0,0,0,5.57613.71343C139.33749,97.60673,139.79451,95.14347,139.60566,92.74348Z" fill="#ed7a89"/>
          <path d="M188.15191,91.75057a5.153,5.153,0,0,0-4.28061-1.68491c-.70969.0011-1.42048.1588-2.13017.18885a22.96992,22.96992,0,0,1-3.08013-.55842l-.02142-.00428-.066-.00807a2.84335,2.84335,0,0,0-1.68057.27679,2.13164,2.13164,0,0,0-1.70211.64048c-.06487.05954-.12925.11859-.19362.17814a2.26666,2.26666,0,0,0-.59006,2.23042,73.91723,73.91723,0,0,0,2.41817,7.364c.60082,1.377,2.40532,2.05124,3.77642,2.13281,1.27135.07564,3.093-.51178,4.23991.10728a3.305,3.305,0,0,0,4.9195-2.82322C189.80359,97.01932,189.94844,94.05559,188.15191,91.75057Z" fill="#ed7a89"/>
          <g>
            <path d="M118.72277,23.98536a1.66144,1.66144,0,0,0-1.7756-2.54638,4.504,4.504,0,0,0-3.24481,3.34247,9.24729,9.24729,0,0,0-.42966,2.54583,2.92018,2.92018,0,0,0,.4039,1.65382l-.04933-.07459a1.902,1.902,0,0,1,.12283.23175,2.148,2.148,0,0,0,4.10417,0c.04021-.10244.081-.20439.12233-.30684.19791-.49135-.20868.52249.0574-.00483a5.58262,5.58262,0,0,0,.42109-2.415c.00428-.2446.02252-.4892.0418-.73276.01609-.16254.03274-.32557.04938-.48761q-.06443.34845.0123-.08152c.05954-.346.1159-.69145.15183-1.04174q-.05232.34927.00159-.02356C118.7163,24.02184,118.71843,24.00684,118.72277,23.98536Z" fill="#e54654"/>
            <path d="M113.62727,28.90651c-.09173-.15073-.16039-.24032,0,0Z" fill="#e54654"/>
          </g>
          <path d="M209.08956,36.54839a2.756,2.756,0,0,0-1.32869-.3878c-.0145-.04186-.02362-.08421-.04026-.12606a1.73616,1.73616,0,0,0-3.13588-.40983,13.10112,13.10112,0,0,0-1.878,3.63695,15.97889,15.97889,0,0,0-.38517,2.60488l-.02252.0123c-.0574-.001-.12925-.00319-.23438-.00747-3.06244-.12447-3.82684,4.92758-.73221,5.4114a6.4959,6.4959,0,0,0,5.22365-1.414,2.54183,2.54183,0,0,0,1.74232-1.83992,15.59263,15.59263,0,0,0,2.14087-4.16477A2.93726,2.93726,0,0,0,209.08956,36.54839Z" fill="#e54654"/>
          <path d="M161.77923,59.22352c-2.74863-.90656-5.52889-.02466-8.33168-.01181a78.25887,78.25887,0,0,1-11.75572-.80192c-2.51045-.368-5.24194-.96023-7.688-.16309-2.78081-1.02191-5.8014,2.74753-3.38,5.45649,1.83668,2.05448,2.61883,4.46034,5.04452,6.0471a4.8351,4.8351,0,0,0,1.33836.61582c.35886.29821.72634.58626,1.10826.85663,2.93423,2.07277,6.29868,2.4118,9.70657,3.17993a40.39228,40.39228,0,0,0,5.09171,1.10985c1.79164.16951,4.86216.442,6.43386-.67481,2.86557-2.03679,5.2387-4.46414,6.33032-7.87631A6.20482,6.20482,0,0,0,161.77923,59.22352Z" fill="#f28e7e"/>
          <path d="M129.34018,37.5397a1.57753,1.57753,0,0,0-1.55083-1.55132,1.555,1.555,0,0,0-1.52721,1.421l-.00747.01505c.015-.10568.00857-.09766-.01774.02735l-.00428.01555c-.03323.05685-.06811.111-.10244.16572a3.02735,3.02735,0,0,0-.44037,1.1115,1.75729,1.75729,0,0,0,1.19994,2.113,1.73384,1.73384,0,0,0,2.17412-1.657c-.00049-.0306.00165-.06333.00165-.09552.03054-.11425.07882-.22527.12068-.33738A2.93558,2.93558,0,0,0,129.34018,37.5397Z" fill="#463131"/>
          <path d="M170.914,41.55215a1.66817,1.66817,0,0,0-.48761-1.17582,1.62445,1.62445,0,0,0-.94034-.45487,2.76611,2.76611,0,0,0-.68019-.13573,1.70681,1.70681,0,0,0-1.24987.51711,1.87873,1.87873,0,0,0-.51711,1.24932,4.09725,4.09725,0,0,0-.04933.82449c.02252.16144.04346.32183.06438.48333a1.81658,1.81658,0,0,0,3.03613.80033l.28377-.36693a1.79729,1.79729,0,0,0,.23976-.7928A1.66839,1.66839,0,0,0,170.914,41.55215Z" fill="#463131"/>
          <path d="M169.87867,53.97516c-.98648-1.21071-2.96158-1.27453-4.32516-1.32655a131.13876,131.13876,0,0,0-13.387.24405c-7.754.48761-15.68072.87975-23.3907-.36907a.99323.99323,0,0,0-1.00527,1.35072c-1.79916,2.58021-1.00362,6.7981-.03647,9.57249a21.82234,21.82234,0,0,0,6.49449,9.34607,20.13789,20.13789,0,0,0,11.01812,4.35845,34.89875,34.89875,0,0,0,11.92145-.257,15.3726,15.3726,0,0,0,8.93947-6.5524c2.52336-3.57416,3.62625-7.37524,4.79937-11.59961A5.01419,5.01419,0,0,0,169.87867,53.97516Zm-1.64306,5.48544a25.71576,25.71576,0,0,1-.83734,3.04585,24.44069,24.44069,0,0,1-3.12413,6.08621,13.10016,13.10016,0,0,1-10.19308,5.96827,48.99539,48.99539,0,0,1-5.76278-.13787,27.678,27.678,0,0,1-6.65918-.99236,17.03746,17.03746,0,0,1-9.3777-7.40589,17.6894,17.6894,0,0,1-2.28573-5.17053,12.0125,12.0125,0,0,1-.36314-2.69018c-.03378-1.045.272-2.00625.316-3.026.00753-.192.00534-.38088.00214-.56968,8.85313,1.38774,17.83067.90387,26.73747.52035,2.23525-.09657,4.47215-.11645,6.70685-.007,1.51968.074,4.56444-.41576,5.2854,1.45586C169.02039,57.42062,168.40782,58.60128,168.23561,59.4606Z" fill="#463131"/>
          <path d="M254.79061,67.508a1.33372,1.33372,0,0,0-2.20575-.58308c-1.46927,1.42691-1.48695,4.175-2.8157,5.38569.03866-.53963.0569-1.04658.088-1.45a14.5199,14.5199,0,0,0-1.22092-6.37536.9485.9485,0,0,0-1.82757.50425,15.76434,15.76434,0,0,1,.464,5.31917,21.11066,21.11066,0,0,1-.4903,2.41334c-2.91006-.74935-4.139-3.17669-4.8342-6.00793a.95373.95373,0,0,0-1.82707,0c-.89156,4.3016,1.52666,7.65692,5.38943,9.02533-.61581,1.61142-1.05888,3.32742-1.82224,4.84765A19.8041,19.8041,0,0,1,238.91577,86.47a44.781,44.781,0,0,1-13.63964,7.916c-5.24243,2.076-10.87706,2.67782-16.46654,2.88754-5.64155.21241-11.65.57237-17.17843-.8207.01291-.07135.02148-.14271.03647-.213.15985-.75479.67861-2.06041.4758-2.81031-.45542-1.694-1.966-2.18219-3.50391-2.65909a18.89256,18.89256,0,0,0-3.13269-.57451,30.94856,30.94856,0,0,0-3.8676-.457,24.90745,24.90745,0,0,1-5.98541-.77995,42.94267,42.94267,0,0,0,9.86109-4.68567c6.32818-4.10094,10.5337-10.1164,13.22657-17.08132.06811-.17913.13408-.36045.1995-.54067q.09418.42.21247.83142l-.00379.01181a9.11157,9.11157,0,0,0,.06866,4.79668,18.17381,18.17381,0,0,0,1.46228,4.50918c1.53743,2.724,2.91814,5.60832,5.383,7.63654,2.67139,2.19933,5.96663,1.88337,8.85955.25317a6.11446,6.11446,0,0,0,2.94769-4.948,8.87139,8.87139,0,0,0,4.97635-1.26272,7.185,7.185,0,0,0,2.99592-2.8425c.91678-1.68173.61263-3.65573.28433-5.44633-.1046-.56858-.33689-1.13238-.44472-1.70474.21247.02148.42488.04883.63515.088a5.9045,5.9045,0,0,0,1.252.07613,11.74409,11.74409,0,0,0,5.03056-1.72617,8.03857,8.03857,0,0,0,3.12467-3.99531,4.99443,4.99443,0,0,0-1.22146-5.05468,35.84971,35.84971,0,0,0-3.51837-3.12522,7.84248,7.84248,0,0,1-1.51326-1.635.98891.98891,0,0,1-.1003-.19423,4.0282,4.0282,0,0,1,.773-.32024c3.04635-1.13507,6.65111-1.967,7.5625-5.58789.93282-3.7094-2.915-5.99453-5.611-7.41177-3.36977-1.77071-7.40529-2.03465-11.13342-1.7884-3.32423.21939-6.708.15287-9.69586,1.42685-.037-.23224-.07937-.46295-.12606-.68821a5.872,5.872,0,0,0-2.8731-3.53181c-1.26-.71238-2.5673-1.7171-4.03387-1.84745a21.97869,21.97869,0,0,0-.60994-3.06348c-.37869-1.42048-.56105-2.87848-.93012-4.30533a30.92653,30.92653,0,0,0-9.04571-14.69852,52.4824,52.4824,0,0,0-7.17892-5.273c-2.666-1.71924-5.49083-2.40213-8.47333-3.35263a55.0165,55.0165,0,0,0-8.88961-2.304A21.00216,21.00216,0,0,0,164.9935.04163,9.52024,9.52024,0,0,0,163.256.15912c-.46614.1153-.89635.35188-1.369.42587-1.11787.17385-.62922,1.834.464,1.68442a12.88229,12.88229,0,0,1,2.64245-.34924,26.43628,26.43628,0,0,1,4.01135.52837A62.62911,62.62911,0,0,1,177.28562,5.055c1.34483.47745,2.70248.9087,4.079,1.2842a14.53892,14.53892,0,0,1,3.65409,1.97351A46.5501,46.5501,0,0,1,191.88224,13.53a27.93915,27.93915,0,0,1,7.8623,13.58164c.31327,1.27722.43345,2.58345.75528,3.85634a18.00767,18.00767,0,0,1,.55468,3.95131c.03971,1.33732.4061,2.6258.39483,3.97224a20.646,20.646,0,0,0,.07992,2.21q-.91647-.18992-1.83943-.3315a26.17745,26.17745,0,0,0-1.061-3.586c-.49832-1.33413-2.70787-1.24668-2.62795.35561.04669.94358.13359,1.88282.24032,2.82053a74.1122,74.1122,0,0,1-8.47224-1.04762,45.91763,45.91763,0,0,1-13.645-5.68984,50.27023,50.27023,0,0,1-10.22906-8.292,45.68349,45.68349,0,0,1-4.34663-5.15773c-.46026-.62867-.88888-1.24613-1.30568-1.86245-.17326-.30739-.33739-.6201-.48921-.94034a15.02012,15.02012,0,0,0-1.01115-2.48579.9194.9194,0,0,0-1.56527,0c-1.009,1.61515.02466,3.85255.84272,5.33845a10.507,10.507,0,0,0,2.85481,3.6804c.6212.83521,1.26921,1.65272,1.981,2.44179a55.21282,55.21282,0,0,0,10.87223,9.46307,49.22732,49.22732,0,0,0,14.17065,6.43331,37.90884,37.90884,0,0,0,10.78319,1.44295c.31113,2.15.63455,4.29786.77616,6.46984a41.36019,41.36019,0,0,1-.99664,12.67887,30.99165,30.99165,0,0,1-12.38439,18.16058C171.974,89.23,155.28907,89.45847,141.45256,86.52258A49.38461,49.38461,0,0,1,122.70462,78.523a31.05944,31.05944,0,0,1-11.01225-15.79014,37.40491,37.40491,0,0,1-.78319-19.79078A36.75369,36.75369,0,0,1,114.61,32.71138a23.61641,23.61641,0,0,1,2.56247-3.63426,4.99849,4.99849,0,0,0,1.99224.58626,17.48474,17.48474,0,0,0,4.76455.213,65.39973,65.39973,0,0,0,10.79066-2.47447c3.33066-1.11205,6.61892-2.40158,9.92112-3.59619a54.50685,54.50685,0,0,0,5.00162-2.18807,16.12705,16.12705,0,0,0,4.904-3.263c.45009-.49783.18989-1.51864-.59807-1.44514a15.0226,15.0226,0,0,0-4.462,1.3995c-1.57978.684-3.1874,1.33946-4.79668,1.95154-3.14505,1.1973-6.32444,2.33072-9.485,3.49a74.89932,74.89932,0,0,1-9.31338,2.45146,20.29388,20.29388,0,0,1-4.73175.71557c-.68179-.00483-1.30727-.20329-1.995-.16572a4.19477,4.19477,0,0,1-1.60658-.23389,1.02125,1.02125,0,0,0-.25586-.12551,2.08562,2.08562,0,0,1,.07619-.19956.64863.64863,0,0,0-.10354-.02576.24641.24641,0,0,0,.12661-.01824c.03274-.06542.06383-.1309.10459-.19632.251-.404.52035-.795.79555-1.18176a19.04581,19.04581,0,0,1,3.62618-4.92972,2.12886,2.12886,0,0,1,.37446-.30415,12.586,12.586,0,0,1,1.39252-1.69722,59.60652,59.60652,0,0,1,10.26444-8.08768c3.41-2.15429,7.26208-4.29083,11.26058-5.04611a65.8424,65.8424,0,0,1,6.69565-.87009,32.29043,32.29043,0,0,0,6.406-.73809.81393.81393,0,0,0,0-1.5583c-2.39565-.68772-5.06649-.37929-7.51525-.16688a71.47815,71.47815,0,0,0-7.31038,1.03317A26.725,26.725,0,0,0,137.055,5.03891a58.07845,58.07845,0,0,0-6.5095,3.91374c-3.90621,2.64832-7.80814,5.80145-10.35188,9.83159-.16254.2591-.62065.8797-1.17478,1.67629a3.00323,3.00323,0,0,0-2.99109-.465,8.73808,8.73808,0,0,0-2.2369-2.83717c-1.76319-1.35984-3.79624-2.1355-5.63562-3.34137-3.03937-1.99175-6.42848-3.74961-9.919-1.834-3.66645,2.01268-3.4208,5.965-.87706,8.77161a22.2006,22.2006,0,0,0,2.99,2.38384,3.70971,3.70971,0,0,1,1.22735,1.2719c.15611.39319-.97253.90705-1.215,1.04279-2.31518,1.3003-4.41531,2.16016-6.29011,4.12456-1.63235,1.70958-3.31188,4.51989-1.66448,6.76591a5.10034,5.10034,0,0,0,3.99152,1.9483,20.70429,20.70429,0,0,0,2.55659-.2307c.081-.00159.163-.00214.2446-.00428-.12447.15023-.26125.2886-.36638.40555-1.87107,2.07651-3.762,6.74981-.31436,8.29257,1.92792.86256,4.45288.45756,6.5079.38835a10.06027,10.06027,0,0,0,2.14352-.28322,39.623,39.623,0,0,0,1.50145,17.165,34.28773,34.28773,0,0,0,12.67783,17.72718c.92314.66943,1.878,1.29381,2.8543,1.88282a29.90622,29.90622,0,0,1-1.33089,2.87041,1.82745,1.82745,0,0,0-.85883-.70645A34.05736,34.05736,0,0,1,116.12,82.96775c-2.231-1.47036-4.3016-3.12737-6.59749-4.51939a40.01144,40.01144,0,0,1-6.41562-5.24622c-2.0502-1.93484-4.34071-3.62459-6.42952-5.523-3.8553-3.505-6.29439-7.864-9.06769-12.19021-1.46393-2.28409-3.02811-4.49951-4.3016-6.90054A27.63358,27.63358,0,0,1,81.45,44.77658a5.22185,5.22185,0,0,0,1.37967-1.68112,11.18909,11.18909,0,0,0,1.36307-3.20619c.95-1.79867.6206-4.39223.36583-6.36091a.90183.90183,0,0,0-1.80241,0c-.14534,1.12595-.21186,2.24761-.29343,3.38a2.969,2.969,0,0,1-.0869.51172.80953.80953,0,0,0-.15391.08261c-.97253.66141-.93342,1.55187-1.35072,2.55445a9.88156,9.88156,0,0,0-.32507-.96072,20.52326,20.52326,0,0,1-1.58835-6.01332,1.09683,1.09683,0,0,0-2.19235,0,14.87454,14.87454,0,0,0,.99021,6.3652,4.27683,4.27683,0,0,1,.41357,2.47667l-.00159.01824A5.871,5.871,0,0,1,76.58407,40.519a8.04587,8.04587,0,0,1-1.862-3.86919c-.11744-1.68277-2.72446-1.708-2.63756,0,.17753,3.512,3.32687,8.25231,7.05715,8.71685a3.56284,3.56284,0,0,0,.45279.02631c.90705,3.76944,3.167,7.31466,5.044,10.56375,2.78564,4.82458,5.12175,9.85785,9.206,13.78664,2.16286,2.08129,4.63205,3.8542,6.7541,5.96712a37.34058,37.34058,0,0,0,6.68115,5.54394c2.45574,1.472,4.71676,3.12792,7.04753,4.78058a29.32791,29.32791,0,0,0,6.73048,3.1016,12.16655,12.16655,0,0,0-1.57654,2.07063c-1.355,2.44338.81268,4.35307,2.798,5.41464a31.11676,31.11676,0,0,0,6.71384,2.42624c2.592.68766,5.0204,2.50721,7.7481,2.49326-.44147,2.41339-.78374,4.83639-1.12111,7.30125-.45707,3.34571-1.21768,6.781-1.42262,10.177a29.11511,29.11511,0,0,0-3.94109-1.34589,31.656,31.656,0,0,0-14.85244-.16149c-2.35654.508-4.7881.633-7.11405,1.25794-1.51057.40714-3.60745.86685-4.82513,1.88766a.9725.9725,0,0,0-.25482.964,2.25241,2.25241,0,0,0,.26075.56484,22.37188,22.37188,0,0,1-2.35868,2.63327,43.57069,43.57069,0,0,0-4.76718,5.21568c-1.41828,1.78626-2.857,3.55164-4.29462,5.32829-1.436,1.775-2.50776,3.786-4.33269,5.21349a1.8129,1.8129,0,0,0,0,2.57911,4.42726,4.42726,0,0,0,.90228.5627c-1.07015.79121-2.01159,1.43921-1.26114,3.06348a4.51853,4.51853,0,0,0,1.82279,1.55995c.09657.0574.18879.12068.27893.18665a1.22209,1.22209,0,0,0-.0842.11695,8.087,8.087,0,0,0-.81.65872,2.40843,2.40843,0,0,0-.368,2.28359c.22691.65817,1.70529,1.39093,1.568,2.05338a2.98224,2.98224,0,0,1-.25426.67646c-1.26861.69629-2.62521.5638-3.48458,1.93918-.74243,1.18654-.12606,3.129.79659,4.0242.99077.95913,2.60542.94413,3.88369.93232,2.47667-.02307,4.93779-.155,7.40963-.31436q2.97955-.19148,5.96712-.31755c.71507,2.79477,2.32007,7.62418,5.51928,7.31575a1.53235,1.53235,0,0,0,.35781.10189,7.096,7.096,0,0,0,5.07451-.9382,1.13415,1.13415,0,0,0,.38033-.12925,5.89986,5.89986,0,0,0,1.77555-.9672,5.84,5.84,0,0,0,1.4446-1.5717,3.49731,3.49731,0,0,0,1.06805-.57022,19.24387,19.24387,0,0,0,2.53028-2.548c.00967-.01126.01609-.022.02466-.03164a5.24168,5.24168,0,0,1,3.47227,1.40972,1.02533,1.02533,0,0,0,1.44888,0c.0451-.045.09014-.09118.13518-.13732a.94692.94692,0,0,0,.27306.15666,6.63331,6.63331,0,0,0,2.26475.36473,81.53218,81.53218,0,0,0,8.14289,3.81344,16.34175,16.34175,0,0,0,.18995,3.69759c.07724.51815.13892,1.09217.229,1.66986a1.71853,1.71853,0,0,0-.08954.82609,3.23946,3.23946,0,0,0,1.01488,1.94347c.04938.06976.1003.14.15556.20544a.37412.37412,0,0,0,.26932.13947,7.492,7.492,0,0,0,4.07732,1.18121,9.13075,9.13075,0,0,0,4.10522-.65548,11.28869,11.28869,0,0,0,3.45245-2.70573,10.645,10.645,0,0,0,1.14687-1.45426,13.49258,13.49258,0,0,1-.74347,1.55083q.55031.27437,1.09909.5493c1.83944.921,3.62679,1.94665,5.40607,2.97768.81917.47311,1.635.95105,2.4547,1.42312a13.23273,13.23273,0,0,1,2.46645,1.44674,2.69424,2.69424,0,0,0,2.886.96984,5.20477,5.20477,0,0,0,2.44288-2.70677.88454.88454,0,0,0,.05845-.567c.4624-.54551.85454-1.0959,1.12062-1.42312a22.13906,22.13906,0,0,1,3.21531-3.12467,5.66342,5.66342,0,0,0,2.2369-3.0018,1.0715,1.0715,0,0,0,.01928-.47421c1.33946-1.38719,2.70518-2.74006,4.1696-4.03283a35.45506,35.45506,0,0,0,5.28649-6.70472c.38083-.55094.84965-1.031,1.23592-1.57818a12.06325,12.06325,0,0,1,1.09-1.81845c.10409-.09552.2055-.191.3031-.28646a.9356.9356,0,0,0,.30953-.11052c1.43169-.84647,2.05607-2.63168,2.94923-3.9679.52249-.78214,1.16995-1.45267,1.70958-2.21707a15.16955,15.16955,0,0,0,1.33677-2.5823,2.89856,2.89856,0,0,0-.81642-3.84936c.5321.39319.228.20917.35512-.40664.08261-.40335.17753-.80461.26553-1.20691a3.84189,3.84189,0,0,0,.06542-1.65058,1.70321,1.70321,0,0,0,.19258-2.40427,30.6956,30.6956,0,0,0-9.73447-7.901.91289.91289,0,0,0,.52678-.45756c1.36467-2.85645.15825-6.739-.43559-9.6969a53.88242,53.88242,0,0,0-2.94819-10.3905c-.509-1.20642-1.00038-2.41872-1.49178-3.63157a14.022,14.022,0,0,0,2.35276.928c1.50468.48816,2.96213,1.11364,4.49307,1.51864,1.45856.38676,3.25826.60505,4.26886-.76012a3.88355,3.88355,0,0,0,.7-2.54857,32.96483,32.96483,0,0,1,.1137-3.51572c.01291-.18237.01879-.36528.02258-.54765,5.60722,1.42312,11.53413,1.33781,17.27978,1.24449a50.87455,50.87455,0,0,0,18.39123-3.31726,49.09093,49.09093,0,0,0,14.64167-8.69757,22.19364,22.19364,0,0,0,5.15769-6.76536,18.87655,18.87655,0,0,0,1.97405-5.84161,7.42424,7.42424,0,0,0,3.41-1.61252,6.67948,6.67948,0,0,0,1.57331-2.91918C254.48757,70.2851,255.18331,68.92795,254.79061,67.508ZM210.8678,43.84a6.49666,6.49666,0,0,0,.53106-2.28458c2.79641-1.27563,6.04226-.8953,9.11168-1.04388,3.74851-.18242,7.63869.0858,10.928,2.0475,1.27771.76171,3.13911,1.53149,3.29143,3.25717.1588,1.805-2.62843,2.72556-3.93626,3.07694-2.41064.64746-5.34488,1.87475-4.61695,4.87177.75473,3.10589,4.57461,4.32626,6.18816,6.80722.91189,1.40329-.87437,3.25068-2.12852,3.74044-.76869.29986-1.53149.61851-2.33023.84169a7.28892,7.28892,0,0,1-2.474-.08047,3.05426,3.05426,0,0,0-3.16917,3.03184c-.13145,1.487.7794,3.13489.8808,4.63953.10783,1.60071-1.01977,2.37044-2.26854,3.041-.82395.44312-2.53676,1.25311-3.25986.33419-.8497-1.07926-2.7127-.16951-2.6542,1.09969a6.26886,6.26886,0,0,1-.17166,3.01844,3.10525,3.10525,0,0,1-1.951,1.78895c-2.43535.979-4.12456.16688-5.75954-1.701a19.04109,19.04109,0,0,1-3.3918-5.85452c-.40824-1.1984-.706-2.41927-1.00368-3.63909a14.01509,14.01509,0,0,0-.43076-2.19988,12.68994,12.68994,0,0,1-.90332-3.15258c-.00159-.612.014-1.22356.04345-1.83564a11.27829,11.27829,0,0,1,.11266-1.21658c.03-.16364.06811-.32452.111-.48547,3.03723,1.7895,6.72405.52568,9.51563-1.69458,3.12253-2.48414,4.20069-6.95415,3.285-10.7086a7.38356,7.38356,0,0,0-4.04782-4.85139A4.41955,4.41955,0,0,0,210.8678,43.84Zm.34117,7.04649a7.38048,7.38048,0,0,1-2.3801,6.46764c-2.107,2.03948-5.19415,1.98043-7.92239,2.03086l-.01292.0011a1.39755,1.39755,0,0,0-.22312.01824,50.65124,50.65124,0,0,0,.09872-10.96127c1.13561-1.63767,3.9373-1.68008,5.7681-1.745C209.09764,46.60738,210.73262,48.56909,211.209,50.88646ZM201.842,42.846c.03323.12337.06438.24674.10244.37171a1.24452,1.24452,0,0,0,2.38225,0c.7644-2.50776.36369-4.831.12717-7.28889.48332.29717.89743.74347,1.40218,1.04548.88942.53216,1.83674.942,2.2503,1.99065a5.00808,5.00808,0,0,1-1.06157,4.93137c-.169-.00269-.33743-.00538-.5075.00374a14.761,14.761,0,0,0-4.73335,1.15171,6.35805,6.35805,0,0,0-1.31749.77193Q200.32716,44.55,200.134,43.288A17.47437,17.47437,0,0,0,201.842,42.846Zm-86.68-16.7541c.39643-.85987.626-1.76588,1.08574-2.599.23763-.4307.79659-1.11414,1.318-.95962.02631.008.051.01609.07674.02521-.9554,1.5733-1.75737,3.23893-1.54117,4.19536a1.10925,1.10925,0,0,0-.07564,1.18923c.05416.09173.11266.17649.1722.2591-.21675.19632-.43186.39478-.64317.59813-.132-.17863-.2886-.35726-.45487-.58632C114.544,27.45121,114.78058,26.92229,115.162,26.09192ZM108.29684,41.704c-.1577.52084-.29931,1.04493-.43131,1.57225a10.70788,10.70788,0,0,1-2.83871.66459,36.71525,36.71525,0,0,1-4.72324.04614c-1.48211-.1148.2162-2.29375.61153-3.12253.37176-.7794,1.701-1.99763,1.61949-3.48941-.24251-4.389-6.44946-.44147-7.91658-2.93528-.42213-.71667.79659-2.18757,1.18769-2.66821a10.2549,10.2549,0,0,1,2.64778-2.34791c1.84207-1.09376,5.99019-2.08667,5.88885-4.875-.09981-2.79208-3.29473-4.02316-5.02469-5.75257a3.81343,3.81343,0,0,1-1.18011-2.40158c-.06707-1.09431,1.10876-1.74978,1.92573-2.19235,1.82706-.99022,4.07144.52623,5.61584,1.43652,1.6157.9527,3.28556,1.80186,4.89484,2.768a9.80275,9.80275,0,0,1,2.43426,1.937,11.35689,11.35689,0,0,0,1.11793,1.1388,9.29987,9.29987,0,0,0-1.47948,2.77115c-.54336,1.48052-1.4848,2.89672-.82285,4.52154a3.559,3.559,0,0,0,1.84476,2.05607c-.09173.11266-.18456.22373-.2752.338A31.54961,31.54961,0,0,0,108.29684,41.704Zm50.5208,50.0037c-.31755,2.2213-.43394,4.57031-2.12473,6.24929-1.1399,1.13188-2.62849.081-3.652-.63455-1.8335-1.28365-3.5656-3.51413-3.43629-5.83628a.80035.80035,0,0,0-.00862-.162A74.9576,74.9576,0,0,0,158.81765,91.70767Zm-28.82682,4.42871a33.08477,33.08477,0,0,1-5.60079-1.9059,7.09409,7.09409,0,0,1-2.17461-1.40488c-.02307-.02417-.03647-.04186-.05207-.06009.21939-.79071,1.14473-1.53419,1.65327-2.13929a12.5952,12.5952,0,0,0,2.51853-5.78849,55.69011,55.69011,0,0,0,13.4937,4.88248,10.13485,10.13485,0,0,0-.633,1.8748c-.44306,1.71122-.97357,3.39932-1.41234,5.11533-.14969.58632-.287,1.17209-.419,1.75731C134.655,98.54438,132.53083,96.79619,129.99082,96.13638ZM92.26693,159.07969c-1.20911.037-2.86881.32293-3.97652-.26394-.66031-.35084-.63834-1.63235-.19686-2.11084a4.42077,4.42077,0,0,1,.97846-.73221,1.33869,1.33869,0,0,0,.155.36907,3.2,3.2,0,0,0,2.20257,1.59746.83817.83817,0,0,0,.96984-.3165,6.06022,6.06022,0,0,0,2.45788.22422c2.85535-.111,5.70807-.33738,8.56343-.5053.05581.37978.11964.75155.18726,1.11255C99.82993,158.70524,96.04549,158.96379,92.26693,159.07969Zm-.13035-6.69137a22.66424,22.66424,0,0,0,5.05847.3326c1.89084.01126,3.748.33309,5.63188.36742a.51525.51525,0,0,0,.47042-.32722,13.12065,13.12065,0,0,0-.10349,1.82224c-1.57494.125-3.14934.28217-4.72807.48492-1.0948.14111-2.19021.28217-3.26628.53106-.42.09657-.84323.17759-1.26811.24839a1.03047,1.03047,0,0,0-1.58241-.38407,1.888,1.888,0,0,0-.32507.35561c-.09014-.11749-.18187-.23389-.27146-.354.15452-.38357.37286-.75473.51821-1.13292A2.61027,2.61027,0,0,0,92.13659,152.38832Zm11.20587.07135a.4238.4238,0,0,0-.25268-.34117,12.173,12.173,0,0,0-5.331-.82823,23.41012,23.41012,0,0,0-5.70055.58094.23027.23027,0,0,0-.12337.08047c-.007-.014-.01291-.02845-.01988-.04186a14.34918,14.34918,0,0,0-1.10772-1.12809,4.19122,4.19122,0,0,0,.73974-.6936,2.49442,2.49442,0,0,0,.52623-1.12111c2.09419.35029,4.19591.55517,6.288.93122a13.63374,13.63374,0,0,0,6.208-.57341A7.11142,7.11142,0,0,0,103.34246,152.45968Zm10.87273,10.36424a2.87435,2.87435,0,0,1-2.8854,1.88068c-.766-.13677-1.642-.12447-2.22185-.24142-.12019-.02356-.23982-.05361-.35781-.08421a34.34506,34.34506,0,0,1-1.57978-4.838c-.62921-2.43267-1.25789-5.8304.03274-8.14772,2.0073-3.60262,5.89313,3.74368,6.45259,5.18185A9.71439,9.71439,0,0,1,114.21519,162.82392Zm2.0341-8.68147c-1.96972-4.21091-5.90011-8.90893-10.28805-6.11845q-.1858.11988-.35775.25a.53871.53871,0,0,0-.38358-.31008c-2.41713-.54979-4.83584.0719-7.29373-.29019a33.91967,33.91967,0,0,0-3.3918-.1727c-.92369-.0451-1.82064-.11859-2.7261-.089a2.4995,2.4995,0,0,0-.62169-.71777c-.55842-.44306-1.2-.76012-1.78038-1.17044-.47366-.33474.61367-1.00582.9661-1.303a20.43313,20.43313,0,0,0,5.56212-.30145,56.19867,56.19867,0,0,1,12.62636-.47207,23.04815,23.04815,0,0,1,10.49184,3.74741c3.28935,2.16665,5.12769,5.7006,7.87741,8.40682a1.84774,1.84774,0,0,0,.27514.33419,8.11277,8.11277,0,0,0-.2156,1.0541,12.85672,12.85672,0,0,0-4.219-1.99713A26.11,26.11,0,0,0,116.24929,154.14245Zm2.66173,6.70686a8.46652,8.46652,0,0,1-1.05564.96825,11.19768,11.19768,0,0,0,.01928-1.34265c.41521.04076.83147.09547,1.24987.16841C119.05372,160.70984,118.98292,160.77691,118.911,160.84931Zm8.67774.33688a.96029.96029,0,0,0-.26662.16633,5.9205,5.9205,0,0,0-2.79153-1.76753c-1.61944-.46564-3.26788-.648-4.89325-1.10183a9.873,9.873,0,0,0-2.055-.3181c-.06811-.34331-.14644-.68234-.23065-1.01439.85179.06548,1.69722.15237,2.52924.27685a11.84933,11.84933,0,0,1,5.69143,2.27013,12.276,12.276,0,0,0,2.0207,1.48695Zm.80412-9.40726c-2.02394-2.41229-3.83222-4.99838-6.36734-6.9279a26.0658,26.0658,0,0,0-10.29827-4.59229,41.467,41.467,0,0,0-12.25777-.31326c-1.99285.16144-4.00817.4892-6.00525.53694-.19528.00428-.47849.0295-.7961.06009.54183-.74347,1.04767-1.5154,1.5739-2.27766,1.2842-1.85975,2.83228-3.51891,4.08271-5.40821a66.907,66.907,0,0,1,4.278-5.81694c1.4-1.6903,2.50507-3.63536,3.98075-5.25051.0735-.01291.147-.02472.2162-.04081.88239-.1995,1.759-.38028,2.65744-.51387,2.08238-.30739,4.16048-.30629,6.24556-.65982a33.6662,33.6662,0,0,1,6.40008-.71985,33.02387,33.02387,0,0,1,6.71708.8942c4.234.972,7.95514,3.204,11.72941,5.26177a20.25035,20.25035,0,0,1,4.971,3.17137,24.85982,24.85982,0,0,1,1.90161,2.49007,1.00446,1.00446,0,0,0-.87811.41032,33.58569,33.58569,0,0,1-6.06962,5.47473c-1.95528,1.4591-3.30331,3.74906-4.97158,5.50961a58.12613,58.12613,0,0,0-5.05523,5.54229c-.62763.85828-1.16407,1.79329-1.73,2.69342C128.61544,151.46517,128.505,151.62233,128.39287,151.77893Zm9.91843,13.06085c-1.61142-.62548-3.23035-1.23053-4.84606-1.84586a21.25629,21.25629,0,0,1,3.11446.33688c.66838.12337,1.34.28108,2.01268.46026Q138.43228,164.31089,138.3113,164.83978Zm11.36034,5.31862a7.50939,7.50939,0,0,1-4.11324,3.078c-1.46338.37121-3.62783-.02736-4.37993-1.39466a1.79232,1.79232,0,0,0-.31217-.41895c-.08316-.95166-.23334-1.89145-.25592-2.66338a10.80652,10.80652,0,0,1,1.69617-6.41721,5.25443,5.25443,0,0,1,5.29236-2.35006c1.53951.2875,2.87793.64476,3.631,2.11029C152.47393,164.52168,151.02664,168.10925,149.67163,170.1584Zm12.5255,6.48588c-3.17779-1.72139-6.21447-3.64442-9.4679-5.22151a12.87329,12.87329,0,0,0,.64531-1.16995c.56863.32238,1.13617.64746,1.69672.98379,2.61669,1.56956,4.95977,4.62667,8.09247,5.14268a1.37539,1.37539,0,0,0,.464-.001,1.97756,1.97756,0,0,0,.65657.85179,2.31544,2.31544,0,0,0,.818.38627.7203.7203,0,0,0,.09442.85558c.02681.0295.05471.05361.081.08047A25.04463,25.04463,0,0,1,162.19714,176.64428Zm2.87255-8.64066a2.12727,2.12727,0,0,0-.45438,3.1729c-.09761.0306-.19632.06119-.29129.096a3.16373,3.16373,0,0,0-1.59422,1.11634,2.49282,2.49282,0,0,0-.15288.26284c-.31112-.17918-.64158-.346-.98115-.51766-1.62427-.81593-2.9004-2.42839-4.4598-3.39449-.8819-.54661-1.78093-1.06212-2.68908-1.56528a12.29689,12.29689,0,0,0,.29558-3.019c.07563.03647.15017.07509.22476.11266,2.86607,1.399,5.01931,3.74263,7.69548,5.3964a.7009.7009,0,0,0,.95325-.9527c-1.80828-2.86876-5.044-5.01717-8.10158-6.3625q-.55608-.243-1.10936-.4769c-.04345-.15336-.08311-.30788-.13518-.45806a6.28626,6.28626,0,0,0-4.34126-3.98833,12.01652,12.01652,0,0,0-3.97971-.51656,7.47692,7.47692,0,0,0-3.88314,1.77928,8.37707,8.37707,0,0,0-2.13017,2.22136,21.47884,21.47884,0,0,0-9.46411-.58308,1.27216,1.27216,0,0,0-.65174-1.35929c-.07833-.037-.14858-.0735-.22263-.11107a11.138,11.138,0,0,1-.35616-2.86826,4.74873,4.74873,0,0,0,.70969-.53265,23.75964,23.75964,0,0,0,4.27314-.32722c2.18269-.36045,4.38147-.34435,6.57173-.56429,4.22645-.42378,8.53393.6764,12.46107,2.14781a35.71177,35.71177,0,0,1,4.54939,2.24761c.84487.45971,1.75572.74029,2.607,1.1694a13.41681,13.41681,0,0,1,2.42355,1.79164c1.48,1.22949,2.76044,2.64887,4.29517,3.8258.45.3449.88509.78852,1.33891,1.16781a7.71175,7.71175,0,0,1-1.996.65278A4.65082,4.65082,0,0,0,165.06969,168.00362Zm25.66886-23.37516c-.10618.27679-.19473.56968-.32293.82395-.96555,1.91018-3.27914,3.92017-4.12132,6.15168a1.19345,1.19345,0,0,0-.28859.331c-.47312.80895-1.274,1.22894-1.708,2.061a28.66567,28.66567,0,0,1-2.172,3.1,41.26814,41.26814,0,0,1-4.80311,6.133c-.98808.96127-2.03141,1.78467-2.96966,2.80872-.973,1.06207-1.85651,2.21433-2.74429,3.34725-.81433,1.04064-1.52507,2.16071-2.37747,3.17131-.01071.01236-.02252.02736-.03268.04026-.2468.25048-.4914.50585-.73117.77028a17.56088,17.56088,0,0,0-1.43119,1.84855c-.04773.0429-.09387.08954-.1432.13035a.74307.74307,0,0,0-.096.01714.68017.68017,0,0,1-.14858.03164l-.02417.00379h-.07184c-.12986-.00967-.1325-.00538-.00594.01285a2.51,2.51,0,0,0-.523-.04345c-.074.00324-.14913.00324-.22318,0-.00912-.00055-.04449-.00483-.08421-.00967.00428-.118.01505-.23653.02736-.354.00538-.01719.04724-.31486.05526-.37012a4.71,4.71,0,0,0,.07564-.66624,1.02284,1.02284,0,0,0-.03433-.26179,2.656,2.656,0,0,0,1.11952-.54875c1.01274-.92156.69788-2.3522.008-3.36873a2.23383,2.23383,0,0,1,.47152-.095,6.34582,6.34582,0,0,0,2.36137-1.0374.95124.95124,0,0,0,.52673-.94627,2.13089,2.13089,0,0,0,.88084-.27141,1.207,1.207,0,0,0,.60236-1.05086,2.1523,2.1523,0,0,0-.18182-.75957,5.16586,5.16586,0,0,0,.95056-1.045,43.6045,43.6045,0,0,1,3.29468-3.55164q3.57254-3.917,7.018-7.94228a53.19335,53.19335,0,0,0,5.15982-7.45357,19.91837,19.91837,0,0,1,1.82866-2.5684,1.90166,1.90166,0,0,0,.53644,1.26866c.0735.06328.14749.12821.22049.192C190.67472,144.56623,190.70745,144.59842,190.73854,144.62846Zm-3.1606-9.46839a21.971,21.971,0,0,1,2.2224,2.05772c.26394.28322.5.56643.744.83356a1.46626,1.46626,0,0,0-.457.73815c.05312-.18775-.59275.442-.73062.55627a10.19374,10.19374,0,0,0-1.01652.94518,23.32913,23.32913,0,0,0-2.62312,3.41756c-1.47459,2.34846-2.64618,4.89484-4.56438,6.93377-2.12155,2.25514-4.006,4.83315-5.9452,7.245-.93446,1.16132-1.90429,2.29425-2.78081,3.50067-.39588.54342-.79231,1.08195-1.21125,1.60818a11.40084,11.40084,0,0,0-.59489,1.29925,15.76892,15.76892,0,0,0-1.82487-1.39417c-1.59319-1.09755-2.938-2.57214-4.48507-3.74318a23.76425,23.76425,0,0,0-5.081-2.63542,52.10358,52.10358,0,0,0-5.3084-2.2224,31.70593,31.70593,0,0,0-12.15752-1.61087,55.19494,55.19494,0,0,0-5.855.81c-1.82383.347-3.58707,1.03152-5.41035,1.38774a32.031,32.031,0,0,0,2.342-3.68419,41.26856,41.26856,0,0,1,4.88841-5.91082c1.72891-1.85119,2.89029-4.26617,4.81816-5.91944a46.19992,46.19992,0,0,0,5.73059-5.5552,1.25186,1.25186,0,0,0,.29722-.79231,1.19957,1.19957,0,0,0,.619.22318,3.99293,3.99293,0,0,0,1.96115-.30629,4.40572,4.40572,0,0,0,.98758-.57665c.04718-.036,1.04658-.09552,1.20049-.12661,1.89359-.38138,3.78823-.78478,5.66627-1.23378a66.87213,66.87213,0,0,1,12.21966-1.67415,22.70858,22.70858,0,0,1,11.22362,2.21A29.35976,29.35976,0,0,1,187.57795,135.16007Zm-6.65111-16.93861a52.40048,52.40048,0,0,1,.96934,5.34867c.1566,1.53254.00319,2.94764.604,4.36268a23.53576,23.53576,0,0,0-9.76825-1.99653,65.38031,65.38031,0,0,0-12.66015,1.55885c-1.91342.413-3.81876.91513-5.70593,1.43493-.92584.25531-1.85223.509-2.7824.751a4.03111,4.03111,0,0,0-.90228.376,26.41249,26.41249,0,0,0-1.78252-2.23525,15.21176,15.21176,0,0,0-5.17915-3.97757c-2.09848-1.07393-4.15032-2.23794-6.24611-3.30007.015-.36105.037-.72309.0708-1.08948.3326-3.5935.87761-7.16662,1.2842-10.7521.40873-3.59883.76814-7.16283,1.43976-10.72788a38.45958,38.45958,0,0,0,.93282-4.93186,25.78918,25.78918,0,0,1,.28806-2.96054c.449.09283.898.18237,1.348.265,1.67958.31381,3.39021.5783,5.118.79016a.72353.72353,0,0,0-.0295.12068c-.58951,4.34988,4.05051,11.20055,9.01511,9.61379,1.90914-.60939,2.99916-2.48524,3.68523-4.23557a15.01651,15.01651,0,0,0,1.05142-5.04936,59.37808,59.37808,0,0,0,8.77534-1.21235c3.44707,5.49621,5.37388,11.988,7.69927,17.98249A61.733,61.733,0,0,1,180.92684,118.22146ZM189.604,94.43a10.0496,10.0496,0,0,0-.67212,2.40746c-.03219.8931-.07459,1.78412-.15128,2.674-.08745,1.00637-.494,1.98373-.48546,2.9879.00373.35616-.11965,1.466.30573,1.43334a4.72152,4.72152,0,0,1-1.63015-.33474c-1.17159-.34974-2.297-.83416-3.45085-1.23537a38.40722,38.40722,0,0,0-4.60519-1.69617,1.23442,1.23442,0,0,0-.81911.11744c-.40016-.96391-.8073-1.92518-1.23108-2.87952a57.81572,57.81572,0,0,0-4.38311-8.00875c.19687-.05152.39483-.10514.59115-.15825a.81144.81144,0,0,0,.42433.30843c3.61706,1.18659,7.29477,1.28206,11.03312,1.7611a19.93922,19.93922,0,0,1,5.13731,1.23378C190.34322,93.3164,189.78425,93.87536,189.604,94.43Z" fill="#463131"/>
          <path d="M127.52223,134.5437c-.99241-.30574-1.36143-1.26058-2.26426-1.76484a4.86293,4.86293,0,0,0-3.02113-.57506c-.60719.16633-1.142.57132-1.75088.75743-.73007.22263-1.04279-1.22087-1.34962-1.60977-.65284-.82878-2.217-.479-3.18153-.49618a3.04765,3.04765,0,0,0-1.48211.08849c-.54611.32024-1.66079,1.5438-2.05184.26125-.19742-.64427-.02681-.71453-.5504-1.17533-.39906-.35133-.63668-.8207-1.05674-1.15435-2.091-1.66563-4.44211.74935-6.016,1.849-.53859.37654-.01555,1.26915.51546.88349,1.3577-.98758,2.37049-2.33665,4.20075-2.208,2.00515.14161,1.05625,2.32006,2.01587,3.2486a2.28057,2.28057,0,0,0,3.24645.08635c.7644-.58791,2.13924-.45971,3.24211-.41357.38627.71985.46883,1.41345,1.22092,1.98422.84323.64048,2.15429.05416,2.95566-.32777a2.33,2.33,0,0,1,3.196.99027,1.89838,1.89838,0,0,0,2.13122.847C128.21044,135.71684,128.09031,134.718,127.52223,134.5437Z" fill="#463131"/>
          <path d="M133.69589,131.05375c-.368-.62763-1.15434-.508-1.62856-.95325a9.82025,9.82025,0,0,1-.9237-1.45421,4.51834,4.51834,0,0,0-1.3845-1.23,6.44043,6.44043,0,0,0-3.30386-.61043c-.52139-.00159-1.24234-.68019-1.68546-.9232a6.31368,6.31368,0,0,1-1.466-1.28524c-1.57923-1.58192-3.77751-.22208-5.552.09547-1.7611.31486-3.55274-.65927-4.79937,1.04872-.1003.13623.12282.30574.23334.17967,1.53309-1.74226,2.52545.13732,3.93039.48657a4.252,4.252,0,0,0,2.46375-.2178,6.60982,6.60982,0,0,1,1.56956-.34655c.7655-.05092,1.01169.54128,1.34534,1.06536a6.07559,6.07559,0,0,0,2.86771,2.14407c1.14957.41307,2.56038-.04773,3.5517.80142.862.7376,1.00631,1.92792,2.04377,2.57587C131.96005,133.05511,134.66737,132.7129,133.69589,131.05375Z" fill="#463131"/>
          <path d="M167.19069,153.738a19.49507,19.49507,0,0,1-2.30825-1.7037,6.49144,6.49144,0,0,0-2.31463-1.70688c-1.31-.50964-2.62421.97143-3.55812-.51766A4.69676,4.69676,0,0,0,155.819,148.017c-1.34852-.17056-2.9873.60994-4.14328-.1443-1.01066-.66031-1.65114-1.44778-2.87794-1.75143-2.25992-.55732-4.72263.9672-6.28687,2.43805-.58521.54985.30415,1.43976.88025.87975a8.59664,8.59664,0,0,1,3.28293-2.04591c1.77236-.5917,2.48205.43988,3.35747,1.76319a3.069,3.069,0,0,0,2.28139,1.40812c1.53792-.10728,2.89243-.89848,4.36114-.06971a4.93622,4.93622,0,0,1,1.17154,1.2407,3.58761,3.58761,0,0,0,1.45586.85668c1.127.44526,2.38494-.73166,3.27112.03488,1.26113,1.09052,2.36884,3.66969,4.44315,2.4681A.86786.86786,0,0,0,167.19069,153.738Z" fill="#463131"/>
          <path d="M168.1675,142.50741c-.693-.83092-1.8029-.74616-2.81943-.89794a2.68767,2.68767,0,0,0-2.0207-1.642,14.77813,14.77813,0,0,0-4.38685-.20005,3.667,3.667,0,0,0-2.24975-.97632,15.35269,15.35269,0,0,0-4.62881.82449.94812.94812,0,0,0,.50371,1.82707c.81-.228,1.60818-.49244,2.4241-.70112,1.34693-.34441,1.9472.12068,2.72446,1.07338.50266.61527,1.77665.36907,2.44662.36155a9.41569,9.41569,0,0,1,2.67194.12282,2.49958,2.49958,0,0,0,1.819,2.07706c1.13132.34869,2.68424.51282,3.51571-.4769A1.01351,1.01351,0,0,0,168.1675,142.50741Z" fill="#463131"/>
          <path d="M175.01278,136.7098a20.3925,20.3925,0,0,0-2.96159-1.89573,7.132,7.132,0,0,0-4.62019-.39643,8.53157,8.53157,0,0,1-3.28127-.12551c-.90657-.1454-1.68223.59813-2.65855.29129-1.73105-.54611-3.36389-.1599-5.16575-.11052a.26036.26036,0,0,0,0,.52035,27.44162,27.44162,0,0,1,3.42828.24246c.63245.09706,1.01438,1.112,1.6731,1.29381a3.91885,3.91885,0,0,0,1.95742-.11046,11.4848,11.4848,0,0,1,3.52-.59275c1.51166.04021,3.80163-.09338,4.79724,1.23372a2.5572,2.5572,0,0,0,3.31132,1.045A.8142.8142,0,0,0,175.01278,136.7098Z" fill="#463131"/>
          <path d="M124.16477,47.52092c-2.30447-3.26683-6.0782-3.733-9.51295-1.99279a7.59659,7.59659,0,0,0-1.46761.97951,4.252,4.252,0,0,0-1.355,1.47838,7.38466,7.38466,0,0,0-1.20324,5.95482,5.7892,5.7892,0,0,0,1.38774,2.64294,5.48273,5.48273,0,0,0,1.09,1.25256,6.6952,6.6952,0,0,0,4.93615,1.50842,5.22821,5.22821,0,0,0,1.59422-.12233,5.42535,5.42535,0,0,0,2.39032-1.26591,8.77823,8.77823,0,0,0,1.24289-.97522A7.488,7.488,0,0,0,124.16477,47.52092Z" fill="#f9bea0"/>
          <path d="M187.18047,50.1108c-5.48226-1.30084-10.97627,2.39455-12.44393,7.67565a8.19873,8.19873,0,0,0,.07295,4.59767,8.78794,8.78794,0,0,0,8.14074,7.22237,8.556,8.556,0,0,0,7.72449-2.74912,8.71342,8.71342,0,0,0,.94247-1.34589,12.25867,12.25867,0,0,0,.98813-1.30837C195.95582,59.07867,193.212,51.54249,187.18047,50.1108Z" fill="#f9bea0"/>
        </g>
        <g>
          <g>
            <path d="M77.34951,82.34575a47.74617,47.74617,0,0,0-12.3712-6.24263c1.64262-1.58313,3.17125-3.28928,4.59925-4.971,2.50473-2.94931,5.61348-6.7547,6.75977-10.51361.964-3.16126-2.40848-7.15321-5.787-5.787-2.95465,1.19476-5.79,2.45229-9.01839,2.55525-3.38485.108-6.36462-1.99731-9.247-3.4785-4.46227-2.29312-11.76348-4.04439-13.5676-9.49172a4.94054,4.94054,0,0,0-5.925-3.18837,1.27072,1.27072,0,0,1,.23235-.78318c2.32523-2.621-.77818-7.35708-3.94081-5.10743-3.05255,2.17181-3.63356,5.33807-3.62418,8.92316.01239,4.75411-.56424,9.49644-.44492,14.25822.19422,7.74347,2.835,15.47858,9.27278,20.12938,3.40094,2.45695,7.86019,2.87777,11.85878,3.48952,2.11259.32286,4.03535.99547,6.20915.88511a10.47412,10.47412,0,0,0,2.42285-.42753c1.14588.471,2.34522.85109,3.438,1.2027C60.98273,84.688,64.19143,86.01,66.5624,87.038A36.46988,36.46988,0,0,1,70.54264,88.973a12.26385,12.26385,0,0,0-1.24651-.0916,89.79731,89.79731,0,0,1-9.924-1.04962c-7.84212-.86711-15.30811-3.069-22.96909-4.85029-6.92414-1.61024-14.77563-2.7872-20.694-6.99541-.79858-.56828-1.58614-1.16025-2.40841-1.69444a9.58284,9.58284,0,0,1,8.3164-.73135c3.53662,1.40192,6.02267-4.54182,2.588-6.139-5.82139-2.7073-17.97667-3.06863-20.574,4.753-1.26089,3.79807.9494,7.01615,3.95649,9.11136a58.15738,58.15738,0,0,0,11.474,6.43246,90.89536,90.89536,0,0,0,13.63975,3.87625c5.25517,1.25521,10.45583,2.80089,15.72736,3.95587,4.73165,1.03689,9.65383,1.085,14.35879,2.14833a31.89523,31.89523,0,0,0,6.50866.61141c2.1651.03409,4.5946.4265,6.71123-.18621,3.72051-1.07735,6.49065-3.64862,6.62134-7.65686C82.741,87.02291,79.86629,84.2327,77.34951,82.34575Z" fill="#c0e0d6"/>
            <path d="M64.10346,85.52433c-.37536-.00733-.75039-.02738-1.12014-.04477a36.65081,36.65081,0,0,1-4.259-.53686,77.95053,77.95053,0,0,1-9.2671-2.10657c-5.35245-1.54835-10.539-3.22212-15.76139-5.15254A37.40018,37.40018,0,0,1,26.55769,74.618c-.19853-.12336-.63311-.38543-1.03525-.67056a2.82452,2.82452,0,0,0-.22866-4.67654c-1.3859-.80625-2.02-1.36413-3.73119-1.39322a6.08024,6.08024,0,0,0-4.88144,2.97573c-2.02237,3.45269-.1795,7.55862,2.63843,9.88146a35.57693,35.57693,0,0,0,10.83421,5.7031c4.07485,1.48386,8.026,3.09075,12.2,4.30748,1.89435.5522,3.79574,1.0794,5.6894,1.63461,1.11213.32594,2.21522.68021,3.31666,1.04059-.42185-.138,2.80794.351.92023.09393,2.233.30389,4.44056.79194,6.67248,1.11213,5.12981.73642,13.09995,1.34516,13.51146-5.82105C72.72349,84.28487,66.67241,82.74521,64.10346,85.52433Z" fill="#a8c5bf"/>
            <path d="M87.54657,51.54824c-3.74153.20059-11.37073,1.95356-9.77521,7.25816a3.04118,3.04118,0,0,0,5.562.61408c.15075-.04183.35168-.0916.61573-.14609a15.04831,15.04831,0,0,1,1.70047-.24871,22.57558,22.57558,0,0,1,3.65129.05846c3.77431.26309,5.90129,2.21029,2.81862,5.28125-2.43155,2.42285-6.89176,3.91438-10.19137,4.32418-3.57647.44389-7.45738-2.42285-10.37293.70164a3.30954,3.30954,0,0,0-.50845,3.94081c3.48117,6.14131,13.959,4.15064,19.08079,1.78C96.07458,72.35893,101.657,68.96867,102.132,61.735,102.65847,53.709,93.745,51.21532,87.54657,51.54824Z" fill="#c0e0d6"/>
            <path d="M70.25449,40.75318a92.51855,92.51855,0,0,0-23.94149-8.371c-4.10525-.80858-7.26178-2.726-11.63375-2.00593a5.4571,5.4571,0,0,0-4.16344,7.93632c1.77967,3.46009,5.21806,5.73021,8.43511,7.72882A95.147,95.147,0,0,0,49.92418,52.165q1.4968.6759,3.03557,1.21413c1.46243.62339,2.85237,1.14684,4.0207,1.5784,5.01241,1.85224,13.737,3.92205,18.87281,1.061C84.0337,51.46136,75.18071,43.23553,70.25449,40.75318Z" fill="#a8c5bf"/>
          </g>
          <path d="M86.26329,95.09833c.52447-3.94081-1.94213-7.58806-4.73337-10.08341A30.21007,30.21007,0,0,0,70.788,78.5945a34.04067,34.04067,0,0,0,2.114-2.69765c1.26287,1.02327,3.4544,1.44511,4.80422,1.8048a17.73121,17.73121,0,0,0,10.12654-.3577,26.91273,26.91273,0,0,0,7.94268-4.53476c2.29278-1.8111,4.78649-4.365,5.64189-7.23508a12.54189,12.54189,0,0,0-.71664-8.46414,9.54421,9.54421,0,0,0-7.42828-5.79435,20.45675,20.45675,0,0,0-7.80939.58567,10.03607,10.03607,0,0,0-3.61118,1.54767,7.61638,7.61638,0,0,0-.38406-7.37645c-1.88565-3.38519-5.14919-5.86151-8.36693-7.88826A74.56311,74.56311,0,0,0,61.454,32.151a50.23163,50.23163,0,0,0-10.62089-3.02557.54.54,0,0,0-.35969-.2203,25.0666,25.0666,0,0,0-3.86893-.26473,25.5575,25.5575,0,0,0-2.79082.02444c-.68733.009-1.37193.013-2.05112-.003a28.61982,28.61982,0,0,0-4.015.05949c-.10495.012-.2099.022-.31485.03272a.99829.99829,0,0,0-.35736-.10125,12.5683,12.5683,0,0,0-5.2642.64681.63171.63171,0,0,0-.41514.14575l-.03046.02506a7.16585,7.16585,0,0,0-3.97216,3.50588,8.48757,8.48757,0,0,0-.53118,1.54835c-3.45742,5.45507-4.51635,12.3291-5.20834,18.7719A50.37581,50.37581,0,0,0,21.83,66.30286c.0445.28746.093.579.14342.87245a3.67888,3.67888,0,0,0-2.847-.87313c-2.34159.15308-4.71694-.19456-7.07592-.07551-3.50219.17615-7.25781.88546-10.1082,3.06959-2.74071,2.10061-2.23692,5.87589-.60368,8.47427,1.78269,2.83929,4.64909,4.79347,7.323,6.7152,7.7983,5.60753,17.38333,8.10788,26.50667,10.62767,9.1742,2.53513,18.4945,4.767,27.84115,6.54576a52.84551,52.84551,0,0,0,13.7471,1.27492,14.26168,14.26168,0,0,0,6.26227-2.54348A7.36766,7.36766,0,0,0,86.26329,95.09833ZM81.2565,57.20321c1.78138-3.49185,7.97349-3.661,11.33526-3.33843,5.23881.50345,7.98985,7.58738,5.47143,11.91628-2.34591,4.03165-7.06359,6.72725-11.33328,8.23918a14.10451,14.10451,0,0,1-7.86149.31053,30.86815,30.86815,0,0,1-3.195-.95967c-.34928-.124-.64749-.27007-.93694-.40282.18751-.3349.36434-.67056.53919-1.00615,2.79555,1.9485,8.12992.26877,10.90739-.68562,3.18967-1.09611,6.70021-3.47782,7.80734-6.8105,1.50221-4.5221-3.326-7.50653-7.17922-7.72546-1.33208-.07688-4.90315.38242-6.67146,1.67172.08386-.26877.16608-.53782.25268-.80495A.75685.75685,0,0,0,81.2565,57.20321ZM26.62786,78.12446a1.36624,1.36624,0,0,0,1.72388.07394,28.54981,28.54981,0,0,0,8.88236,5.803,51.7946,51.7946,0,0,0,12.46882,2.90255,17.76536,17.76536,0,0,0,7.66693-.46936,1.22913,1.22913,0,0,0,1.15423.49373,9.16549,9.16549,0,0,1,1.91173.03745,3.49764,3.49764,0,0,0,2.20255-.8758,23.68415,23.68415,0,0,0,2.131-1.641,16.47569,16.47569,0,0,0,1.533,1.28026c.73368.5713,2.00395,1.39966,2.06077,2.45.04211.78119-1.67206,1.56909-2.21925,1.91a10.13513,10.13513,0,0,1-4.28571,1.187c-6.56521.75011-12.94989-2.1397-19.12022-3.91069A80.81279,80.81279,0,0,1,22.9485,79.13732a30.10338,30.10338,0,0,1-3.92972-2.8306,12.22555,12.22555,0,0,1-1.74189-1.889,1.97352,1.97352,0,0,1-.12268-.20059,9.92191,9.92191,0,0,1,3.19768-.65619,18.24732,18.24732,0,0,1,3.315-.124A14.078,14.078,0,0,0,26.62786,78.12446ZM81.09034,60.70074l.0358-.07086c.12-.21065.5372-.37242.73642-.48a4.68152,4.68152,0,0,1,1.305-.42021,10.64891,10.64891,0,0,1,5.35313.04778c2.75906.82234,3.48281,3.416,1.5945,5.44069a12.61652,12.61652,0,0,1-5.90033,3.3257,26.438,26.438,0,0,1-4.39942.86848,12.99976,12.99976,0,0,1-3.21473-.23838,57.35426,57.35426,0,0,0,2.359-6.751q.20055-.69747.40117-1.39425a3.61435,3.61435,0,0,0,.28849.4927C80.20119,62.30625,81.34611,61.519,81.09034,60.70074ZM30.71072,33.56958a8.31362,8.31362,0,0,1,3.12278-1.74421,41.54244,41.54244,0,0,1,13.05983-1.27561,46.60386,46.60386,0,0,1,13.32655,3.49685,70.56734,70.56734,0,0,1,11.15946,5.89526c3.11176,1.94952,6.21647,4.30214,8.00087,7.58608,2.11794,3.899-.96336,6.88307-4.46261,8.24322a22.873,22.873,0,0,1-10.89233.99177,47.03092,47.03092,0,0,1-10.8008-2.844c-3.69107-1.36748-7.38042-2.84737-10.9395-4.52874a38.85584,38.85584,0,0,1-6.66071-3.99825c-1.872-1.401-4.1036-3.34644-5.066-5.53126C29.80788,38.15651,29.17942,35.07186,30.71072,33.56958Zm-5.97016,20.8849a77.93553,77.93553,0,0,1,1.65166-12.10913c.20421-.86951.43657-1.76064.70164-2.65548a12.32645,12.32645,0,0,0,1.764,3.50821c4.93053,6.84028,13.40911,9.78185,20.90955,12.75224,6.74539,2.6702,14.08837,4.69523,21.3913,3.68675a16.89772,16.89772,0,0,0,8.22583-3.25854c-.602,1.28766-1.23946,2.5582-1.76728,3.88193a69.04141,69.04141,0,0,1-4.8353,10.5447,36.32557,36.32557,0,0,1-7.54459,8.89544,52.94578,52.94578,0,0,1-4.13968,3.428,4.6718,4.6718,0,0,1-.86375.463c-.019-.01068-.03546-.02376-.05614-.03341a6.2212,6.2212,0,0,0-4.19986-.3106,20.68011,20.68011,0,0,1-5.02446.3564,72.87042,72.87042,0,0,1-10.72591-2.05584c-3.59249-.80426-6.515-2.79151-9.6235-4.64341-.46231-.27541-1.59244-.82562-2.52773-1.47448a60.7042,60.7042,0,0,1-2.89885-9.27751A47.64175,47.64175,0,0,1,24.74056,54.45448ZM77.159,99.65014c-2.01908.62743-4.65614.20291-6.731.00267A89.81,89.81,0,0,1,57.43338,97.446c-9.53423-2.392-19.09318-4.57755-28.56655-7.21-8.37555-2.32756-17.17172-5.68338-23.53566-11.84173a8.33733,8.33733,0,0,1-2.67787-4.46261c-.42383-2.476,2.19153-3.61083,4.07081-4.34657a26.27177,26.27177,0,0,1,6.99972-1.37289,31.18453,31.18453,0,0,1,4.05575-.10529c1.43806.04347,2.84737-.45094,4.11764.49907a.43611.43611,0,0,0,.36236.07325c.17211.82528.376,1.66035.6184,2.486-.8795-.04279-1.76263-.03505-2.66116-.01369a12.45092,12.45092,0,0,0-4.29207.57431c-3.45276,1.35646-.948,4.744.76209,6.39235a39.068,39.068,0,0,0,10.79711,6.852,108.121,108.121,0,0,0,13.68021,5.13077C48.773,92.41143,56.687,95.812,64.767,93.95944c2.68156-.61436,6.3078-2.54882,6.71493-5.55529.3219-2.38274-2.15675-4.65149-4.36163-6.06579q.65988-.60669,1.28759-1.22077a60.54411,60.54411,0,0,1,5.94777,2.612A32.59244,32.59244,0,0,1,79.3792,87.433c2.43552,2.08124,5.09641,6.08852,2.99175,9.23869C81.28155,98.302,78.93633,99.09863,77.159,99.65014Z" fill="#463131"/>
        </g>
      </g>
    </g>
  </g>
</svg>
