<svg xmlns="http://www.w3.org/2000/svg" viewBox="0 0 210.23098 246.42327">
  <title>Recurso 2</title>
  <g id="Capa_2" data-name="Capa 2">
    <g id="Editar">
      <g>
        <g>
          <g>
            <path d="M149.38235,105.959a105.84484,105.84484,0,0,0,.46536-11.62452,24.53105,24.53105,0,0,0-.68818-5.09466,14.41736,14.41736,0,0,0-3.64231-6.79056c-.405-.405-.76668-.85215-1.164-1.26563a9.71091,9.71091,0,0,0-3.27261-2.41766,31.45254,31.45254,0,0,0-4.05544-1.57814c-1.06657-.2747-2.11426-.62654-3.18119-.89492s-2.14052-.52141-3.22567-.69657a33.45835,33.45835,0,0,0-3.416-.37839c-2.50908-.14366-5.02032-.28173-7.53163-.32378-1.67135-.02806-3.34587.14574-5.02.17308a36.09372,36.09372,0,0,0-5.39211.53188,27.644,27.644,0,0,0-3.09328.698c-1.73444.50031-3.46148,1.03083-5.16857,1.616-1.33115.45833-2.6465.9755-3.93208,1.54872a6.09052,6.09052,0,0,0-2.916,2.62792c.09917.15486.20007.29508.28209.445.28489.51717.21549.87253-.31079,1.04138a10.269,10.269,0,0,0-1.84308.99653c-1.69447.94185-3.37142,1.91312-5.06029,2.86408a29.15729,29.15729,0,0,0-5.57294,4.00147,55.22925,55.22925,0,0,0-4.76393,4.7632,23.21563,23.21563,0,0,0-4.48743,8.46328,43.16844,43.16844,0,0,0-1.65909,15.30924,19.72449,19.72449,0,0,0,5.12652,12.32741,3.09035,3.09035,0,0,0,.94637.68186,3.22693,3.22693,0,0,0,.90683.15766c.2775.03925.52557.3189.8609.12967-.05009-.94048-.07779-1.85987-.1545-2.7751-.07815-.94745.09142-1.90544-.06135-2.862-.94709.03854-1.8199.07571-2.69307.10721a.69321.69321,0,0,1-.67835-.31811.61773.61773,0,0,1,.29465-.88717,15.96966,15.96966,0,0,1,2.80983-1.11357,4.0746,4.0746,0,0,0,.80794-.30275,12.29578,12.29578,0,0,1,1.11816-3.76388,15.43667,15.43667,0,0,1,1.8-3.0729.93425.93425,0,0,1,1.2032-.17172.95942.95942,0,0,1,.3273,1.1661,3.27566,3.27566,0,0,1-.2663.45625A14.27073,14.27073,0,0,0,81.3076,123.838a2.82035,2.82035,0,0,0-.04.637,4.77138,4.77138,0,0,0,1.71061-.39949,85.62447,85.62447,0,0,0,7.8915-3.38757,42.68081,42.68081,0,0,0,7.18086-4.183q.47674-.3353.95376-.672a3.80029,3.80029,0,0,1,.11532-2.37425c.01012-.035.14891-.03294.27714-.056.06028.24592.12092.494.1987.81361a1.51653,1.51653,0,0,0,1.99442-.15837c.4485-.41908.96983-.7618,1.41762-1.17944a60.58066,60.58066,0,0,1,4.99872-4.52561,12.79955,12.79955,0,0,0,2.8381-3.11567c.32415-.473.59532-.97974.918-1.45271a5.241,5.241,0,0,0,.829-1.93142,10.75824,10.75824,0,0,1,.34337-1.26979.81193.81193,0,0,1,.85358-.49335.798.798,0,0,1,.72076.66363,1.45225,1.45225,0,0,1,.062.52212,8.1717,8.1717,0,0,1-.72527,2.66085,23.88352,23.88352,0,0,1-4.16129,5.609c-1.53437,1.45687-3.05187,2.93347-4.56837,4.41072a3.47744,3.47744,0,0,0-.37631.65517,26.62144,26.62144,0,0,0,2.6549-.42747,37.90154,37.90154,0,0,0,5.5428-1.7358c2.8277-1.246,5.65073-2.49968,7.875-4.74849.30907-.31323.67662-.57042.98361-.88509a19.74218,19.74218,0,0,0,1.70358-1.84093,8.31012,8.31012,0,0,0,1.80167-4.4654c.02418-.351.05469-.70425.11281-1.05257a.5738.5738,0,0,1,.64791-.51646.52555.52555,0,0,1,.479.54308c.01787.747.00732,1.49619.00172,2.24393a8.21105,8.21105,0,0,1-2.41558,5.69874c-.69449.73862-1.45063,1.417-2.17734,2.12337-.1174.11352-.30871.2053-.0953.44922a9.14064,9.14064,0,0,0,3.61605-1.445c1.15139-.73654,2.26732-1.53193,3.44289-2.22922a12.77087,12.77087,0,0,0,4.50881-5.07715,4.05846,4.05846,0,0,0,.42711-3.06379c-.23229-.93761-.405-1.89209-.61068-2.83746a.99662.99662,0,0,0-.12092-.22985c-.27714-.19339-.55183-.38614-.79015-.55291.03854-.45833.32658-.49127.58549-.48007a1.63771,1.63771,0,0,1,1.4489.99237,15.77538,15.77538,0,0,1,1.31112,3.45272,4.842,4.842,0,0,1-.03222,2.48146,8.27184,8.27184,0,0,1-1.06657,2.4079c-.53468.801-1.05681,1.60965-1.57642,2.40367a1.02841,1.02841,0,0,0,.14539.25159c.99128.87382,1.96011,1.77505,2.98958,2.60409,1.6433,1.323,3.23407,2.75615,5.42684,3.14157a1.17492,1.17492,0,0,1,.37071.13807,3.85331,3.85331,0,0,0,1.66992.33842,1.86139,1.86139,0,0,0,1.84588-.85351,12.007,12.007,0,0,1-.68538-1.40994,7.28793,7.28793,0,0,0-2.36657-3.27691c-.72248-.59424-1.33143-1.27819-1.98315-1.932a5.05232,5.05232,0,0,1-1.11078-2.48641.71558.71558,0,0,1,.7814-.836,1.51049,1.51049,0,0,1,1.14363.56762c.93625,1.05681,1.97131,2.03575,2.81363,3.16052a13.97856,13.97856,0,0,1,2.67069,4.22357,2.71315,2.71315,0,0,0,.41313.6721c.39381.57738.7961,1.15139,1.24036,1.79464.24248-.164.51861-.351.76389-.51782a7.97661,7.97661,0,0,1-.11073-1.23133C149.11892,108.76419,149.29129,107.36336,149.38235,105.959Z" fill="#ae7c2e" fill-rule="evenodd"/>
            <path d="M80.80054,127.105c1.78948-.59984,3.42653-1.117,5.039-1.70078,1.075-.38894,2.12969-.843,3.16719-1.32519,1.75754-.81569,3.50253-1.66368,5.238-2.52774a20.36488,20.36488,0,0,0,2.17561-1.24037c1.5785-1.04906,3.136-2.12825,4.68434-3.22144a1.79905,1.79905,0,0,1,1.11321-.30979c1.10159.00215,2.20288-.0056,3.30311-.04621a8.369,8.369,0,0,0,1.70638-.192,35.60327,35.60327,0,0,0,8.47871-2.89422,3.92117,3.92117,0,0,1,2.13428-.5382,7.92588,7.92588,0,0,0,1.83217-.192c.64821-.12192,1.275-.3644,1.92331-.47232,2.87563-.47792,5.22146-2.04975,7.57153-3.61885.6952-.46457,1.38338-.939,2.14647-1.4583a11.72544,11.72544,0,0,1,1.07991.7232c.60931.50806,1.20643,1.0337,1.77125,1.59149a26.49912,26.49912,0,0,0,3.61914,2.876,7.85738,7.85738,0,0,0,3.8228,1.3399c1.0098.09322,2.0196.17172,3.02948.26142a4.60638,4.60638,0,0,1,.47161.09946c.26422.75054.58161,1.52425.80658,2.32308a40.86349,40.86349,0,0,1,1.3122,6.3323,14.60835,14.60835,0,0,1-.04621,3.02173,2.1455,2.1455,0,0,0-.056.6538c.47232,1.8809.11912,3.7562,0,5.635a28.96109,28.96109,0,0,1-1.42156,7.37705,22.61049,22.61049,0,0,1-14.09271,14.93365,29.5184,29.5184,0,0,1-8.984,2.02033,39.09442,39.09442,0,0,1-6.47518-.02942c-1.53372-.15206-3.06945-.29436-4.60626-.40853a47.001,47.001,0,0,1-10.81686-2.35674,36.41643,36.41643,0,0,1-6.78044-2.92716,25.46252,25.46252,0,0,1-8.68086-7.99448,28.89573,28.89573,0,0,1-4.26569-9.47108A18.46434,18.46434,0,0,1,80.80054,127.105ZM120.97,149.5664a6.4082,6.4082,0,0,0,3.35428-.53188c1.39178-.65732,2.745-1.40226,4.08873-2.1528a9.18477,9.18477,0,0,0,1.37068-1.03018,28.37493,28.37493,0,0,0,4.60942-5.431,4.49032,4.49032,0,0,0,.88437-2.32452,21.61186,21.61186,0,0,1,.61383-2.96992c.0442-.21578.12615-.42532.15278-.64261a.74139.74139,0,0,0-.5494-.79675.68559.68559,0,0,0-.75821.40085,8.77091,8.77091,0,0,0-.302,1.00772,8.92649,8.92649,0,0,1-1.02106,2.7085,49.29973,49.29973,0,0,1-3.48394,4.64968,12.636,12.636,0,0,1-4.33674,3.39668,13.89829,13.89829,0,0,0-1.29648.6594,6.93554,6.93554,0,0,1-5.63458.37982,12.94527,12.94527,0,0,1-1.98531-.7176,16.95976,16.95976,0,0,1-3.64511-1.84652,6.7114,6.7114,0,0,0-1.49124-.84375,2.43627,2.43627,0,0,0-1.02315-.16189.90467.90467,0,0,0-.86478.69377.83723.83723,0,0,0,.41556.89908c.72951.49407,1.45486.99653,2.19241,1.47868a10.374,10.374,0,0,0,1.5757.94673c1.09391.459,2.17591.94673,3.28452,1.37707A14.483,14.483,0,0,0,120.97,149.5664Zm-18.08886-11.90977a6.47274,6.47274,0,0,0-.08553-1.192,11.41506,11.41506,0,0,0-.56411-1.61043,3.11661,3.11661,0,0,0-.40788-.67555,1.18314,1.18314,0,0,0-1.62192-.40013,1.35363,1.35363,0,0,0-.79854.83256,3.19653,3.19653,0,0,0,.377,3.12406,2.79732,2.79732,0,0,1,.4152.66923,2.345,2.345,0,0,0,1.02071.9895,1.08789,1.08789,0,0,0,1.5536-.70081C102.8138,138.38823,102.83591,138.08131,102.88112,137.65664Zm23.65829-6.69806a3.07079,3.07079,0,0,0-.69937-2.36441,1.64878,1.64878,0,0,0-1.90644-.43939,1.93605,1.93605,0,0,0-1.0116,2.46186,6.02678,6.02678,0,0,0,.624,1.44919,1.93433,1.93433,0,0,0,2.149.60479c.68358-.19978.81986-.72607.82553-1.3399C126.52154,131.2431,126.52957,131.15548,126.5394,130.95857Z" fill="#fff" fill-rule="evenodd"/>
            <path d="M139.67482,75.653c-.43659-.1212-.81218-.22777-1.1892-.32866-2.08412-.562-4.157-1.17033-6.25588-1.66433a34.6846,34.6846,0,0,0-3.65874-.54731c-1.00421-.12479-2.01337-.232-3.02526-.28381-1.31852-.06659-2.6399-.06379-3.9605-.10448a87.65355,87.65355,0,0,0-9.24044.3476,32.51508,32.51508,0,0,0-8.64448,1.79679c-1.698.60967-3.443,1.09326-5.14339,1.69662a22.08947,22.08947,0,0,0-2.65317,1.18289,8.28255,8.28255,0,0,0-3.383,3.26213,14.993,14.993,0,0,0-.68681,1.55432c-.97758.53052-2.0585,1.11637-3.12615,1.69518-.26982-.185-.18428-.40429-.10936-.60056a.53475.53475,0,0,0-.09594-.61383,1.556,1.556,0,0,1-.42647-1.19416c-.17832-2.77158-.33-5.54668-.5809-8.31058-.29544-3.2467-.69593-6.48429-1.02459-9.72891-.22217-2.192-.40085-4.389-.59-6.5859-.03437-.39382-.021-.79115-.02878-1.157.08338-.09393.13175-.19971.20043-.21657a12.91883,12.91883,0,0,1,3.753-.63278q1.5216.0704,3.041.15558a1.83855,1.83855,0,0,1,.65137.07427,5.743,5.743,0,0,0,2.8462.19483,4.6948,4.6948,0,0,1,.65345-.04973c1.03018.08267,1.2835.01471,1.52426,1.21654a11.00168,11.00168,0,0,0,.5326,1.76522c.82165,2.13672,1.679,4.26009,2.5,6.39746.33045.86334.60342,1.74915.89,2.62928a8.9781,8.9781,0,0,0,2.53822,3.49341,1.09017,1.09017,0,0,0,.57745.2775,5.00019,5.00019,0,0,0,2.35322-.13807c1.49791-.50806,3.00279-.9923,4.50566-1.48356.16677-.05533.34445-.08618.506-.15558a18.46444,18.46444,0,0,1,6.18433-1.22,3.229,3.229,0,0,0,2.90233-1.74915c.70353-1.36932,1.46813-2.70858,2.2092-4.059a8.311,8.311,0,0,1,1.781-2.44364,6.07988,6.07988,0,0,0,.96567-1.08408,11.81494,11.81494,0,0,1,3.02561-2.73728,5.89729,5.89729,0,0,0,.95692-.70353,2.60309,2.60309,0,0,1,1.7246-.87038,1.70282,1.70282,0,0,0,.73446-.27125,10.26517,10.26517,0,0,1,1.71865-.658c1.513-.623,3.05187-.29924,4.57189-.18787a3.82478,3.82478,0,0,1,1.50387.75549c.71057.438,1.39171.925,2.08828,1.3854,1.02667.67978,2.066,1.3399,3.08065,2.03719a1.52829,1.52829,0,0,1,.66084,1.35038,5.1733,5.1733,0,0,1-1.3455,3.75828,9.505,9.505,0,0,0-1.82973,3.19209c-1.02315,2.67908-2.28526,5.24672-3.54386,7.81931C140.06728,74.414,139.9229,74.96839,139.67482,75.653Z" fill="#2c6a7e" fill-rule="evenodd"/>
            <path d="M164.35662,133.27118a6.34651,6.34651,0,0,1-.28309.80306,40.28156,40.28156,0,0,0-2.21307,4.49274q-1.22569,3.27333-2.44572,6.54665c-.09249.24736-.17517.49895-.24944.752a.78268.78268,0,0,1-.8942.60192c-1.18712-.06867-2.377-.09953-3.55721-.22561a12.91912,12.91912,0,0,1-3.59215-1.27331,10.28422,10.28422,0,0,1-1.18576-.57681,5.74545,5.74545,0,0,1-.95584-.68186c-.51861-.46809-1.00492-.97263-1.53473-1.49124a34.63992,34.63992,0,0,0,2.09115-9.10309c.29429-.04205.53956-.0953.78628-.11144a19.05679,19.05679,0,0,0,2.10514-.131,16.84077,16.84077,0,0,1,4.07991-.07076c2.15143.13455,4.30423.23544,6.457.35457C163.398,133.18212,163.82825,133.22841,164.35662,133.27118Z" fill="#43ccbd" fill-rule="evenodd"/>
            <path d="M103.92458,157.25956a2.676,2.676,0,0,0-.63845,1.74635c-.0371.79259-.12508,1.58374-.123,2.37353a13.05192,13.05192,0,0,1-.95024,4.36092,5.75084,5.75084,0,0,1-.32092.63421,8.83547,8.83547,0,0,1-5.225-.92434c-1.1605-.71193-2.36025-1.36229-3.52878-2.06374a3.24912,3.24912,0,0,1-1.48285-1.56767,43.093,43.093,0,0,1,5.27478-6.79193c1.15246.31395,2.28878.76525,3.45308,1.13524C101.50476,156.51742,102.63269,156.85942,103.92458,157.25956Z" fill="#43ccbd" fill-rule="evenodd"/>
            <path d="M149.91079,125.0188a40.65787,40.65787,0,0,0-1.9678-10.06669c.48632-.54243.92082-1.03155,1.3623-1.513a2.21643,2.21643,0,0,1,.46952-.4485,7.934,7.934,0,0,1,5.58945-1.00356,4.07437,4.07437,0,0,1,.50174.15909,1.19723,1.19723,0,0,1,.87877,1.04626,13.24423,13.24423,0,0,1-.2719,5.63006,7.18881,7.18881,0,0,1-.9755,1.85779,10.98605,10.98605,0,0,1-3.30906,3.17731c-.40788.2607-.79467.55786-1.218.78627A7.52386,7.52386,0,0,1,149.91079,125.0188Z" fill="#fff" fill-rule="evenodd"/>
            <path d="M85.2099,146.66723a3.54993,3.54993,0,0,1-1.89776-.38119c-2.01609-.98254-4.03577-1.95868-6.02632-2.99375a11.10155,11.10155,0,0,1-2.86056-2.7085c-.08834-.09673-.14582-.22353-.23724-.31675-1.23441-1.27123-1.08479-2.71482-.46393-4.17248a1.87317,1.87317,0,0,1,2.56068-.90539c.87841.40085,1.7523.81225,2.64614,1.17593a1.46623,1.46623,0,0,1,.87454.89492c.48359,1.17866,1.02208,2.33779,1.58589,3.48143a27.39358,27.39358,0,0,0,3.3115,5.22785C84.86122,146.16341,84.99928,146.375,85.2099,146.66723Z" fill="#fff" fill-rule="evenodd"/>
            <path d="M161.16948,15.51213c.03086-.61391.05468-1.08623.0813-1.6174.8858-.26558,1.759-.54308,2.64055-.78771a5.46758,5.46758,0,0,1,2.74847-.00624,16.90029,16.90029,0,0,1,5.18436,1.82973,9.53649,9.53649,0,0,1,3.04,3.21161c.01823.03086-.0028.08626-.007.1794a4.30183,4.30183,0,0,1-2.71058.66507c-1.43663-.13311-2.88439-.15981-4.32662-.2404a6.75928,6.75928,0,0,1-4.49762-1.88226c-.19059-.18363-.40365-.34617-.576-.54308A1.69887,1.69887,0,0,0,161.16948,15.51213Z" fill="#43ccbd" fill-rule="evenodd"/>
            <path d="M98.16133,8.32567a1.58192,1.58192,0,0,1-1.6517,1.02875c-1.13883-.03789-2.27687-.16684-3.40687-.31395a21.17664,21.17664,0,0,1-2.19169-.44642A4.50453,4.50453,0,0,1,90.0638,8.25a7.87918,7.87918,0,0,0-1.06025-.51581A3.3278,3.3278,0,0,1,87.26245,6.421a1.5605,1.5605,0,0,1-.2887-1.58381c.16677-.49895.35736-.99158.541-1.48421.33111-.88652.761-1.22917,1.671-1.14651a9.53572,9.53572,0,0,1,3.44081.81993c1.06032.52837,2.06841,1.15978,3.10024,1.74355a2.44136,2.44136,0,0,1,.98849,1.02172C97.1648,6.6424,97.66763,7.46577,98.16133,8.32567Z" fill="#43ccbd" fill-rule="evenodd"/>
            <path d="M101.82294,143.43524a6.24122,6.24122,0,0,0-.16577-.91171c-.66191-2.44572-2.79892-3.65451-5.19068-3.79681a8.76714,8.76714,0,0,0-4.7993,1.25443,7.25274,7.25274,0,0,0-2.08864,2.22707c-.15558.23616-.74006,1.05953.07076.05884a5.01,5.01,0,0,0-1.15,2.20116c-1.00356,4.50881,2.45584,7.991,6.72713,8.457,3.93208.42963,6.903-2.77014,7.25449-6.43736A5.18349,5.18349,0,0,0,101.82294,143.43524Z" fill="#ff9595" fill-rule="evenodd"/>
            <path d="M147.00251,130.50448a6.87586,6.87586,0,0,0-.39174-1.37284,4.86161,4.86161,0,0,0-3.71694-4.06448,7.9779,7.9779,0,0,0-1.00141-.43242,5.7458,5.7458,0,0,0-3.822.08267,9.6773,9.6773,0,0,0-5.06072,2.06661,7.88089,7.88089,0,0,0-.92046,10.33162c2.83817,3.82767,8.12522,4.22917,12.08845,1.95517C147.0775,137.40648,147.47978,133.43235,147.00251,130.50448Z" fill="#ff9595" fill-rule="evenodd"/>
          </g>
          <g>
            <path d="M105.53107,157.68143c-.08655,1.90752-.1314,3.71271-.26315,5.51022a11.86588,11.86588,0,0,1-1.0792,3.80449,2.62069,2.62069,0,0,1-2.71166,1.72468c-.924-.061-1.84552-.1367-2.76979-.20114-.16648-.01191-.33569.00136-.57989.00352-.041.42676-.09989.81146-.11108,1.19832a12.53381,12.53381,0,0,1-.48459,3.25653,8.96013,8.96013,0,0,0-.26278,2.08692c-.08934,1.848-.115,3.70008-.21133,5.548a30.47469,30.47469,0,0,0,.07219,4.35884,15.94891,15.94891,0,0,1,.03925,2.115,29.32983,29.32983,0,0,0,.28733,5.66788,29.61107,29.61107,0,0,1,.39525,4.86553,3.11184,3.11184,0,0,0,.22633,1.41769,1.66589,1.66589,0,0,1,.14158.76876,3.37989,3.37989,0,0,0,.22777,1.40857,3.09559,3.09559,0,0,1,.07428,1.17873c-.05749,1.41065-.13212,2.82131-.21062,4.23132a5.49649,5.49649,0,0,1-.12192.918,1.02848,1.02848,0,0,1-.9201.81856,1.01427,1.01427,0,0,1-1.07991-.78771,4.0788,4.0788,0,0,1-.07183-1.04834c.03782-1.05817.10333-2.11634.15206-3.17387.00984-.2109-.00947-.42252-.013-.60336-.30583-.17237-.46952.01679-.64641.12687a15.97466,15.97466,0,0,0-2.92192,2.26209c-.5298.52837-1.11393,1.00492-1.69346,1.47868a2.597,2.597,0,0,1-1.57606.61175,1.142,1.142,0,0,1-1.20427-.82553,1.00079,1.00079,0,0,1,.57078-1.21375,8.58956,8.58956,0,0,0,2.71905-2.04279c.35564-.32794.75506-.60967,1.12369-.92362.15766-.13311.39733-.22217.35076-.5669a2.34789,2.34789,0,0,0-1.50495.13735,41.716,41.716,0,0,0-4.63985,2.239c-.29572.18851-.55887.42819-.85531.61455a1.07509,1.07509,0,0,1-1.437-.18571,1.17673,1.17673,0,0,1-.06057-1.46462,3.645,3.645,0,0,1,.7796-.70848,13.68194,13.68194,0,0,1,1.70565-1.0098c1.31679-.61807,2.65389-1.19416,3.99379-1.759a3.67345,3.67345,0,0,1,1.01784-.21442c1.09326-.11424,2.18961-.206,3.31474-.30907a8.10118,8.10118,0,0,0,.15413-2.7954c-.14122-1.53466-.28381-3.07146-.51365-4.59428a29.541,29.541,0,0,1-.13735-3.95734c-.01191-.79187.06939-1.59142-.00524-2.37633a39.02186,39.02186,0,0,1,.01328-6.07856c.10829-1.80519.19239-3.61253.30484-5.41844a4.66915,4.66915,0,0,1,.19763-1.29993,18.65517,18.65517,0,0,0,.72219-4.76249c-.841-.49263-1.67983-.96711-2.50219-1.47022a26.30827,26.30827,0,0,1-2.439-1.57606,5.904,5.904,0,0,1-1.30553-1.46813,2.4136,2.4136,0,0,1-.02067-2.63918,14.02509,14.02509,0,0,1,1.09527-1.65033,36.13848,36.13848,0,0,1,3.41879-4.03226,8.88063,8.88063,0,0,0,.63528-.76525c-1.0845-.62654-2.12337-1.17593-3.108-1.80942a34.96672,34.96672,0,0,1-2.90856-2.06733c-.92542-.73927-1.77577-1.57319-2.68332-2.38752a3.34186,3.34186,0,0,1-3.72039.43451,39.80673,39.80673,0,0,1-4.53967-2.14024,3.82254,3.82254,0,0,0-.33993-.20322c-2.32624-.89485-3.89-2.69164-5.36376-4.57605a4.91944,4.91944,0,0,1-.99545-4.70572,11.32556,11.32556,0,0,1,.38966-1.26139,3.68875,3.68875,0,0,1,1.55331-1.911,7.50289,7.50289,0,0,0,.673-.47936,6.77778,6.77778,0,0,1-.65345-.53676,18.10357,18.10357,0,0,1-3.663-6.81439,24.749,24.749,0,0,1-1.1412-6.74851,49.20006,49.20006,0,0,1,.563-9.2286,32.02389,32.02389,0,0,1,2.99267-9.95876,23.68656,23.68656,0,0,1,4.7096-6.50747c1.86655-1.80871,3.82839-3.52492,5.80946-5.20819a21.07187,21.07187,0,0,1,2.5568-1.6377c.40645-.25439.81957-.49615,1.19236-.72111-.44075-3.424-.6289-6.766-.80937-10.10945-.09954-1.84724-.31532-3.68889-.48352-5.532-.2081-2.28311-.431-4.56342-.62862-6.84661-.17064-1.97756-.29364-3.96007-.487-5.93418a11.0091,11.0091,0,0,0-.45094-1.70853,8.5837,8.5837,0,0,0,.55083-.98742,1.25386,1.25386,0,0,1,1.43864-.83952,7.74357,7.74357,0,0,0,2.20432-.351,8.30821,8.30821,0,0,1,2.493-.225c1.18468.06588,2.37044.12192,3.58771.18356a2.40617,2.40617,0,0,0,.166-1.71406,20.73256,20.73256,0,0,1-.26278-4.21173,17.60106,17.60106,0,0,0-.23824-3.1598A25.97742,25.97742,0,0,1,92.99,38.408c.18571-3.614.3588-7.22995.56375-10.84248.05081-.87669.19519-1.74915.32206-2.61952.1794-1.21934.37595-2.43661.57918-3.65179a19.68872,19.68872,0,0,1,.40156-2.07149c.6678-2.37425,1.37492-4.73658,2.05814-7.10659a1.26925,1.26925,0,0,0-.02138-.396,3.28511,3.28511,0,0,0-1.56551-.192,28.411,28.411,0,0,1-5.21378-.813,3.08172,3.08172,0,0,1-.733-.28661c-.642-.28941-1.27015-.60759-1.92051-.87382A3.2985,3.2985,0,0,1,86.089,8.552c-.35708-.44778-.71408-.89492-1.06592-1.34621a2.31285,2.31285,0,0,1-.47232-1.74211A11.21136,11.21136,0,0,1,85.767,1.70956,3.03988,3.03988,0,0,1,88.44009.0095,10.68392,10.68392,0,0,1,93.8172,1.13074c1.05645.5438,2.05082,1.20887,3.08553,1.79751a3.7485,3.7485,0,0,1,1.16258,1.05817,9.50978,9.50978,0,0,1,1.368,2.698,2.06288,2.06288,0,0,1,.11281.90539,3.88284,3.88284,0,0,0,.03854,1.43025,2.17165,2.17165,0,0,1-.14187.8914c-.11108.471-.286.93065-.356,1.40649a44.00072,44.00072,0,0,1-1.191,4.87113c-.3875,1.44711-.81641,2.88231-1.21654,4.32518a4.04143,4.04143,0,0,0-.12436.78068,25.02312,25.02312,0,0,1-.54595,3.92856,8.1092,8.1092,0,0,0-.18428,1.44008c-.178,3.5712-.32062,7.14376-.52033,10.71288a31.95694,31.95694,0,0,0,.26415,6.98883,23.62249,23.62249,0,0,1,.24564,3.68681,17.7202,17.7202,0,0,0,.16928,2.89845c.13068.77293.14115,1.56695.20459,2.36441a4.2643,4.2643,0,0,0,1.601.16045,2.72481,2.72481,0,0,1,2.78385,2.33715,25.33051,25.33051,0,0,0,1.32131,3.87108c.8416,2.12689,1.63663,4.27409,2.42046,6.424a7.48446,7.48446,0,0,0,1.50144,2.61392,1.20041,1.20041,0,0,0,1.19135.3672,1.58433,1.58433,0,0,0,.255-.06724c1.83748-.60759,3.677-1.21095,5.51166-1.82693a11.29421,11.29421,0,0,1,2.8094-.69449c1.14091-.0813,2.27127-.28733,3.40759-.41972a1.22776,1.22776,0,0,0,.98842-.56906c.29852-.48983.61182-.96991.8858-1.47165.63386-1.15978,1.23793-2.33571,1.87459-3.49341a7.72308,7.72308,0,0,1,1.36687-1.77433c.5641-.55571,1.05078-1.1892,1.59493-1.76594a18.25791,18.25791,0,0,1,1.59816-1.5747c.91415-.75613,1.87035-1.4639,2.83042-2.16263a3.44443,3.44443,0,0,1,1.15562-.62366c1.33215-.30692,2.54905-.951,3.88092-1.26a6.3545,6.3545,0,0,1,1.82765-.20107c1.36021.07635,2.72106.13871,4.16193.21162.08618-.12336.21234-.29716.3321-.47512.90195-1.35884,1.7912-2.726,2.71137-4.07151a6.228,6.228,0,0,1,.95656-1.09326c1.83254-1.65665,3.64576-3.33992,5.53792-4.92717,1.95934-1.64265,3.98741-3.20537,6.01548-4.7632.69514-.534,1.48285-.94816,2.22707-1.42049q.33422-.2113.65732-.43867a2.12173,2.12173,0,0,0,.98247-1.88929,24.03261,24.03261,0,0,0-.21579-3.15284c-.23408-1.66361-.663-3.27124-1.00076-4.90543a25.23183,25.23183,0,0,1-.64749-7.74784c.0953-.9201.11489-1.84932.14574-2.7751A2.12408,2.12408,0,0,1,160.53039,11.62a32.45516,32.45516,0,0,1,3.19274-.84583,9.89965,9.89965,0,0,1,4.1935.23336c.25648.06092.49895.19827.75542.23473a14.02541,14.02541,0,0,1,4.40089,1.74986,5.44274,5.44274,0,0,1,1.64826,1.30976c.94184,1.10438,1.90328,2.192,2.84513,3.29643a1.46122,1.46122,0,0,1-.17517,2.02671,4.35086,4.35086,0,0,1-1.09039.71616,11.1721,11.1721,0,0,0-1.22638.47936,3.84543,3.84543,0,0,1-2.4107.50526c-1.85284-.08059-3.70431-.16892-5.55435-.28316a7.902,7.902,0,0,1-2.29438-.56267,9.3266,9.3266,0,0,1-3.29787-2.136,1.91656,1.91656,0,0,0-.40925-.21722,4.259,4.259,0,0,0-.03925,1.83461,37.57736,37.57736,0,0,0,1.20815,6.21663,10.18447,10.18447,0,0,1,.24807,1.555,9.59144,9.59144,0,0,0,.178,1.30833,13.38506,13.38506,0,0,1,.13039,4.59995,1.8624,1.8624,0,0,1-.61807,1.2845,14.02464,14.02464,0,0,1-2.16263,1.7246,28.15371,28.15371,0,0,0-3.68193,2.56836c-.92219.75333-1.815,1.54592-2.77366,2.24881-1.99865,1.46677-3.73941,3.22919-5.62446,4.82492a23.19592,23.19592,0,0,0-4.92682,6.56c.32515.22913.60128.43027.88509.62015.76525.51646,1.5277,1.0365,2.30342,1.53609.48215.30979.98289.58872,1.48041.87461a3.33023,3.33023,0,0,1,.85918.78979,3.91253,3.91253,0,0,1,.77644,2.84305,7.12328,7.12328,0,0,1-1.77713,4.71907,9.40514,9.40514,0,0,0-1.51967,2.61529c-.84024,1.98882-1.72044,3.96078-2.59993,5.93282-.3062.68323-.69586,1.33079-.9783,2.02176-.22913.56267-.35528,1.1661-.548,1.822.23688.14646.44218.29644.66851.41068a12.74668,12.74668,0,0,1,3.40859,2.69379c.48775.50949.94328,1.04977,1.42852,1.56271a16.46548,16.46548,0,0,1,3.9244,7.539,28.349,28.349,0,0,1,.75966,8.13678c-.12336,2.82131-.321,5.63918-.47233,8.459a10.792,10.792,0,0,1-.57185,3.11007,6.17088,6.17088,0,0,0-.24384,1.15914,4.5175,4.5175,0,0,0-.00144.66148,1.94076,1.94076,0,0,0,.44147-.03638,9.78714,9.78714,0,0,1,4.44581-.29013,4.50816,4.50816,0,0,1,1.51923.42044,3.04557,3.04557,0,0,1,1.5516,1.89073,16.31392,16.31392,0,0,1-.19907,7.44925,12.02381,12.02381,0,0,1-2.698,4.04072,16.3629,16.3629,0,0,1-3.56273,2.7225,24.23776,24.23776,0,0,1-2.36162,1.04138,14.61759,14.61759,0,0,0-.08691,3.2236,12.28445,12.28445,0,0,0,2.95026-.11281,14.90037,14.90037,0,0,1,1.84164-.11919c3.17458.12127,6.34766.27333,9.52081.41979a2.54169,2.54169,0,0,1,.65172.10585c1.75338.57394,2.24953,1.54312,1.67624,3.096a26.07776,26.07776,0,0,1-1.28658,2.60338c-.115.22848-.22985.457-.37143.73934a3.22664,3.22664,0,0,0,1.679.44434c.92506.02591,1.85291.02662,2.7779.068,2.15839.096,4.31966.18923,6.47661.32722a14.112,14.112,0,0,1,2.21732.35744q5.66787,1.29609,11.32456,2.63072a11.24533,11.24533,0,0,1,2.97272,1.08759,21.154,21.154,0,0,0,3.82767,1.4212,1.19352,1.19352,0,0,0,1.11005-.25927,14.9856,14.9856,0,0,1,3.18434-1.59917,17.64053,17.64053,0,0,1,8.32385-.92714,1.85371,1.85371,0,0,1,.26208.04205c.52836.13455,1.02731.32091,1.17872.92427a1.47878,1.47878,0,0,1-.5438,1.41281,2.05853,2.05853,0,0,1-1.97763.16046,1.55655,1.55655,0,0,0-.81993-.35457,14.44762,14.44762,0,0,0-8.6518,2.38336c.31531.19339.51294.32306.719.43939,1.38475.77788,2.7583,1.57183,4.157,2.32236a3.82509,3.82509,0,0,1,1.78983,2.04135,1.09759,1.09759,0,0,1-.51437,1.46254,1.06994,1.06994,0,0,1-1.39882-.37559,3.78086,3.78086,0,0,0-1.86123-1.6062q-2.10651-1.109-4.22013-2.20116a2.43656,2.43656,0,0,0-.50878-.131,1.99882,1.99882,0,0,0,.30555,1.4324,26.74746,26.74746,0,0,0,2.09819,3.51508,8.37138,8.37138,0,0,1,.56339.89284,2.71455,2.71455,0,0,1,.25087.87669c.056.59209-.16253,1.01748-.50734,1.11422a1.28234,1.28234,0,0,1-1.40578-.466c-.77644-1.17665-1.60756-2.32308-2.30134-3.54738a9.35556,9.35556,0,0,1-1.39874-3.815c-.05468-.63278.1878-1.20255.17653-1.7912-1.15347-.52421-2.24946-1.096-3.39875-1.5249a34.42823,34.42823,0,0,0-3.66371-1.11422c-2.691-.67555-5.39318-1.31256-8.09817-1.93486a26.72719,26.72719,0,0,0-4.96435-.70992c-2.6882-.10721-5.37359-.30692-8.05612-.50383a18.70606,18.70606,0,0,1-2.00985-.36863,1.41029,1.41029,0,0,0-.22425.34409q-1.1836,3.36374-2.34482,6.73732a3.00078,3.00078,0,0,1-2.90542,2.075c-1.32311-.01751-2.64894-.09042-3.96365-.23544a15.46,15.46,0,0,1-4.59988-1.59989c-.23968-.10936-.46112-.26845-.70777-.35672a4.89393,4.89393,0,0,1-2.20855-1.62235,6.32951,6.32951,0,0,0-.50454-.49823,3.23643,3.23643,0,0,0-.81218,1.20183,26.63476,26.63476,0,0,1-3.59925,4.88728,23.7477,23.7477,0,0,1-7.72962,5.45411,33.92406,33.92406,0,0,1-12.37821,3.01829,48.54777,48.54777,0,0,1-5.684-.10513c-2.1111-.12752-4.219-.34617-6.32-.59424C108.48943,158.21124,107.01922,157.92176,105.53107,157.68143Zm-5.93555-43.46515a1.51653,1.51653,0,0,0,1.99442-.15837c.4485-.41908.96983-.7618,1.41762-1.17944a60.58066,60.58066,0,0,1,4.99872-4.52561,12.79955,12.79955,0,0,0,2.8381-3.11567c.32415-.473.59532-.97974.918-1.45271a5.241,5.241,0,0,0,.829-1.93142,10.75824,10.75824,0,0,1,.34337-1.26979.81193.81193,0,0,1,.85358-.49335.798.798,0,0,1,.72076.66363,1.45225,1.45225,0,0,1,.062.52212,8.1717,8.1717,0,0,1-.72527,2.66085,23.88352,23.88352,0,0,1-4.16129,5.609c-1.53437,1.45687-3.05187,2.93347-4.56837,4.41072a3.47744,3.47744,0,0,0-.37631.65517,26.62144,26.62144,0,0,0,2.6549-.42747,37.90154,37.90154,0,0,0,5.5428-1.7358c2.8277-1.246,5.65073-2.49968,7.875-4.74849.30907-.31323.67662-.57042.98361-.88509a19.74218,19.74218,0,0,0,1.70358-1.84093,8.31012,8.31012,0,0,0,1.80167-4.4654c.02418-.351.05469-.70425.11281-1.05257a.5738.5738,0,0,1,.64791-.51646.52555.52555,0,0,1,.479.54308c.01787.747.00732,1.49619.00172,2.24393a8.21105,8.21105,0,0,1-2.41558,5.69874c-.69449.73862-1.45063,1.417-2.17734,2.12337-.1174.11352-.30871.2053-.0953.44922a9.14064,9.14064,0,0,0,3.61605-1.445c1.15139-.73654,2.26732-1.53193,3.44289-2.22922a12.77087,12.77087,0,0,0,4.50881-5.07715,4.05846,4.05846,0,0,0,.42711-3.06379c-.23229-.93761-.405-1.89209-.61068-2.83746a.99662.99662,0,0,0-.12092-.22985c-.27714-.19339-.55183-.38614-.79015-.55291.03854-.45833.32658-.49127.58549-.48007a1.63771,1.63771,0,0,1,1.4489.99237,15.77538,15.77538,0,0,1,1.31112,3.45272,4.842,4.842,0,0,1-.03222,2.48146,8.27184,8.27184,0,0,1-1.06657,2.4079c-.53468.801-1.05681,1.60965-1.57642,2.40367a1.02841,1.02841,0,0,0,.14539.25159c.99128.87382,1.96011,1.77505,2.98958,2.60409,1.6433,1.323,3.23407,2.75615,5.42684,3.14157a1.17492,1.17492,0,0,1,.37071.13807,3.85331,3.85331,0,0,0,1.66992.33842,1.86139,1.86139,0,0,0,1.84588-.85351,12.007,12.007,0,0,1-.68538-1.40994,7.28793,7.28793,0,0,0-2.36657-3.27691c-.72248-.59424-1.33143-1.27819-1.98315-1.932a5.05232,5.05232,0,0,1-1.11078-2.48641.71558.71558,0,0,1,.7814-.836,1.51049,1.51049,0,0,1,1.14363.56762c.93625,1.05681,1.97131,2.03575,2.81363,3.16052a13.97856,13.97856,0,0,1,2.67069,4.22357,2.71315,2.71315,0,0,0,.41313.6721c.39381.57738.7961,1.15139,1.24036,1.79464.24248-.164.51861-.351.76389-.51782a7.97661,7.97661,0,0,1-.11073-1.23133c.10233-1.40434.2747-2.80516.36576-4.20958a105.84484,105.84484,0,0,0,.46536-11.62452,24.53105,24.53105,0,0,0-.68818-5.09466,14.41736,14.41736,0,0,0-3.64231-6.79056c-.405-.405-.76668-.85215-1.164-1.26563a9.71091,9.71091,0,0,0-3.27261-2.41766,31.45254,31.45254,0,0,0-4.05544-1.57814c-1.06657-.2747-2.11426-.62654-3.18119-.89492s-2.14052-.52141-3.22567-.69657a33.45835,33.45835,0,0,0-3.416-.37839c-2.50908-.14366-5.02032-.28173-7.53163-.32378-1.67135-.02806-3.34587.14574-5.02.17308a36.09372,36.09372,0,0,0-5.39211.53188,27.644,27.644,0,0,0-3.09328.698c-1.73444.50031-3.46148,1.03083-5.16857,1.616-1.33115.45833-2.6465.9755-3.93208,1.54872a6.09052,6.09052,0,0,0-2.916,2.62792c.09917.15486.20007.29508.28209.445.28489.51717.21549.87253-.31079,1.04138a10.269,10.269,0,0,0-1.84308.99653c-1.69447.94185-3.37142,1.91312-5.06029,2.86408a29.15729,29.15729,0,0,0-5.57294,4.00147,55.22925,55.22925,0,0,0-4.76393,4.7632,23.21563,23.21563,0,0,0-4.48743,8.46328,43.16844,43.16844,0,0,0-1.65909,15.30924,19.72449,19.72449,0,0,0,5.12652,12.32741,3.09035,3.09035,0,0,0,.94637.68186,3.22693,3.22693,0,0,0,.90683.15766c.2775.03925.52557.3189.8609.12967-.05009-.94048-.07779-1.85987-.1545-2.7751-.07815-.94745.09142-1.90544-.06135-2.862-.94709.03854-1.8199.07571-2.69307.10721a.69321.69321,0,0,1-.67835-.31811.61773.61773,0,0,1,.29465-.88717,15.96966,15.96966,0,0,1,2.80983-1.11357,4.0746,4.0746,0,0,0,.80794-.30275,12.29578,12.29578,0,0,1,1.11816-3.76388,15.43667,15.43667,0,0,1,1.8-3.0729.93425.93425,0,0,1,1.2032-.17172.95942.95942,0,0,1,.3273,1.1661,3.27566,3.27566,0,0,1-.2663.45625A14.27073,14.27073,0,0,0,81.3076,123.838a2.82035,2.82035,0,0,0-.04.637,4.77138,4.77138,0,0,0,1.71061-.39949,85.62447,85.62447,0,0,0,7.8915-3.38757,42.68081,42.68081,0,0,0,7.18086-4.183q.47674-.3353.95376-.672a3.80029,3.80029,0,0,1,.11532-2.37425c.01012-.035.14891-.03294.27714-.056C99.45709,113.64859,99.51773,113.89667,99.59552,114.21628ZM80.80054,127.105a18.46434,18.46434,0,0,0,.20043,6.26356,28.89573,28.89573,0,0,0,4.26569,9.47108,25.46252,25.46252,0,0,0,8.68086,7.99448,36.41643,36.41643,0,0,0,6.78044,2.92716,47.001,47.001,0,0,0,10.81686,2.35674c1.53682.11417,3.07254.25647,4.60626.40853a39.09442,39.09442,0,0,0,6.47518.02942,29.5184,29.5184,0,0,0,8.984-2.02033A22.61049,22.61049,0,0,0,145.70294,139.602a28.96109,28.96109,0,0,0,1.42156-7.37705c.11912-1.87882.47232-3.75412,0-5.635a2.1455,2.1455,0,0,1,.056-.6538,14.60835,14.60835,0,0,0,.04621-3.02173,40.86349,40.86349,0,0,0-1.3122-6.3323c-.225-.79883-.54236-1.57255-.80658-2.32308a4.60638,4.60638,0,0,0-.47161-.09946c-1.00988-.0897-2.01968-.16821-3.02948-.26142a7.85738,7.85738,0,0,1-3.8228-1.3399,26.49912,26.49912,0,0,1-3.61914-2.876c-.56482-.55779-1.16194-1.08343-1.77125-1.59149a11.72544,11.72544,0,0,0-1.07991-.7232c-.76309.51925-1.45127.99373-2.14647,1.4583-2.35007,1.5691-4.6959,3.14093-7.57153,3.61885-.64828.10793-1.2751.3504-1.92331.47232a7.92588,7.92588,0,0,1-1.83217.192,3.92117,3.92117,0,0,0-2.13428.5382,35.60327,35.60327,0,0,1-8.47871,2.89422,8.369,8.369,0,0,1-1.70638.192c-1.10022.04062-2.20151.04837-3.30311.04621a1.79905,1.79905,0,0,0-1.11321.30979c-1.54836,1.09319-3.10584,2.17239-4.68434,3.22144a20.36488,20.36488,0,0,1-2.17561,1.24037c-1.73545.86406-3.48043,1.712-5.238,2.52774-1.0375.48215-2.09216.93625-3.16719,1.32519C84.22707,125.988,82.59,126.50516,80.80054,127.105ZM139.67482,75.653c.24807-.68466.39245-1.239.63909-1.74211,1.2586-2.57259,2.52071-5.14023,3.54386-7.81931a9.505,9.505,0,0,1,1.82973-3.19209,5.1733,5.1733,0,0,0,1.3455-3.75828,1.52829,1.52829,0,0,0-.66084-1.35038c-1.01468-.69729-2.054-1.35741-3.08065-2.03719-.69657-.46041-1.37772-.94745-2.08828-1.3854a3.82478,3.82478,0,0,0-1.50387-.75549c-1.52-.11137-3.05891-.43515-4.57189.18787a10.26517,10.26517,0,0,0-1.71865.658,1.70282,1.70282,0,0,1-.73446.27125,2.60309,2.60309,0,0,0-1.7246.87038,5.89729,5.89729,0,0,1-.95692.70353,11.81494,11.81494,0,0,0-3.02561,2.73728,6.07988,6.07988,0,0,1-.96567,1.08408,8.311,8.311,0,0,0-1.781,2.44364c-.74106,1.35038-1.50566,2.68963-2.2092,4.059a3.229,3.229,0,0,1-2.90233,1.74915,18.46444,18.46444,0,0,0-6.18433,1.22c-.16153.06939-.33921.10025-.506.15558-1.50287.49127-3.00774.9755-4.50566,1.48356a5.00019,5.00019,0,0,1-2.35322.13807,1.09017,1.09017,0,0,1-.57745-.2775,8.9781,8.9781,0,0,1-2.53822-3.49341c-.28661-.88013-.55958-1.76594-.89-2.62928-.82093-2.13737-1.67833-4.26074-2.5-6.39746a11.00168,11.00168,0,0,1-.5326-1.76522c-.24076-1.20183-.49407-1.13388-1.52426-1.21654a4.6948,4.6948,0,0,0-.65345.04973,5.743,5.743,0,0,1-2.8462-.19483,1.83855,1.83855,0,0,0-.65137-.07427q-1.52-.0831-3.041-.15558a12.91883,12.91883,0,0,0-3.753.63278c-.06867.01686-.117.12264-.20043.21657.00776.36583-.0056.76317.02878,1.157.18916,2.19693.36784,4.39385.59,6.5859.32866,3.24462.72915,6.48221,1.02459,9.72891.25087,2.7639.40257,5.539.5809,8.31058a1.556,1.556,0,0,0,.42647,1.19416.53475.53475,0,0,1,.09594.61383c-.07492.19626-.16045.41556.10936.60056,1.06765-.57881,2.14856-1.16466,3.12615-1.69518a14.993,14.993,0,0,1,.68681-1.55432,8.28255,8.28255,0,0,1,3.383-3.26213,22.08947,22.08947,0,0,1,2.65317-1.18289c1.70042-.60336,3.44541-1.08695,5.14339-1.69662a32.51508,32.51508,0,0,1,8.64448-1.79679,87.65355,87.65355,0,0,1,9.24044-.3476c1.3206.04069,2.642.03789,3.9605.10448,1.01189.05181,2.021.159,3.02526.28381a34.6846,34.6846,0,0,1,3.65874.54731c2.09883.494,4.17176,1.1023,6.25588,1.66433C138.86265,75.42528,139.23824,75.53185,139.67482,75.653Zm24.6818,57.61813c-.52837-.04277-.95864-.08905-1.39171-.11424-2.1528-.11912-4.30559-.22-6.457-.35457a16.84077,16.84077,0,0,0-4.07991.07076,19.05679,19.05679,0,0,1-2.10514.131c-.24672.01615-.492.06939-.78628.11144a34.63992,34.63992,0,0,1-2.09115,9.10309c.5298.51861,1.01612,1.02315,1.53473,1.49124a5.74545,5.74545,0,0,0,.95584.68186,10.28422,10.28422,0,0,0,1.18576.57681,12.91912,12.91912,0,0,0,3.59215,1.27331c1.18016.12608,2.37008.15694,3.55721.22561a.78268.78268,0,0,0,.8942-.60192c.07427-.253.15695-.50462.24944-.752q1.2215-3.2744,2.44572-6.54665a40.28156,40.28156,0,0,1,2.21307-4.49274A6.34651,6.34651,0,0,0,164.35662,133.27118Zm-60.432,23.98838c-1.29189-.40013-2.41981-.74214-3.54142-1.09742-1.1643-.37-2.30062-.82129-3.45308-1.13524a43.093,43.093,0,0,0-5.27478,6.79193,3.24912,3.24912,0,0,0,1.48285,1.56767c1.16853.70145,2.36828,1.35181,3.52878,2.06374a8.83547,8.83547,0,0,0,5.225.92434,5.75084,5.75084,0,0,0,.32092-.63421,13.05192,13.05192,0,0,0,.95024-4.36092c-.00208-.78979.0859-1.58094.123-2.37353A2.676,2.676,0,0,1,103.92458,157.25956Zm45.98622-32.24076a7.52386,7.52386,0,0,0,1.05953-.37495c.42331-.22841.8101-.52557,1.218-.78627a10.98605,10.98605,0,0,0,3.30906-3.17731,7.18881,7.18881,0,0,0,.9755-1.85779,13.24423,13.24423,0,0,0,.2719-5.63006,1.19723,1.19723,0,0,0-.87877-1.04626,4.07437,4.07437,0,0,0-.50174-.15909,7.934,7.934,0,0,0-5.58945,1.00356,2.21643,2.21643,0,0,0-.46952.4485c-.44147.48144-.876.97055-1.3623,1.513A40.65787,40.65787,0,0,1,149.91079,125.0188ZM85.2099,146.66723c-.21062-.29221-.34868-.50383-.50706-.69794a27.39358,27.39358,0,0,1-3.3115-5.22785c-.56382-1.14364-1.1023-2.30277-1.58589-3.48143a1.46623,1.46623,0,0,0-.87454-.89492c-.89384-.36368-1.76773-.77508-2.64614-1.17593a1.87317,1.87317,0,0,0-2.56068.90539c-.62087,1.45766-.77049,2.90125.46393,4.17248.09142.09322.1489.22.23724.31675a11.10155,11.10155,0,0,0,2.86056,2.7085c1.99055,1.03506,4.01023,2.01121,6.02632,2.99375A3.54993,3.54993,0,0,0,85.2099,146.66723Zm75.95958-131.1551a1.69887,1.69887,0,0,1,1.57678.80873c.17237.19691.38542.35945.576.54308a6.75928,6.75928,0,0,0,4.49762,1.88226c1.44223.08059,2.89.10728,4.32662.2404a4.30183,4.30183,0,0,0,2.71058-.66507c.00423-.09314.02526-.14854.007-.1794a9.53649,9.53649,0,0,0-3.04-3.21161,16.90029,16.90029,0,0,0-5.18436-1.82973,5.46758,5.46758,0,0,0-2.74847.00624c-.88157.24463-1.75474.52212-2.64055.78771C161.22416,14.4259,161.20033,14.89823,161.16948,15.51213ZM98.16133,8.32567c-.49371-.8599-.99653-1.68327-1.446-2.53406A2.44136,2.44136,0,0,0,95.7268,4.7699c-1.03183-.58377-2.03992-1.21518-3.10024-1.74355a9.53572,9.53572,0,0,0-3.44081-.81993c-.91-.08267-1.33989.26-1.671,1.14651-.18363.49263-.37423.98526-.541,1.48421a1.5605,1.5605,0,0,0,.2887,1.58381,3.3278,3.3278,0,0,0,1.7411,1.31321A7.87918,7.87918,0,0,1,90.0638,8.25a4.50453,4.50453,0,0,0,.84727.34409,21.17664,21.17664,0,0,0,2.19169.44642c1.13.14711,2.268.27606,3.40687.31395A1.58192,1.58192,0,0,0,98.16133,8.32567Z" fill="#132420" fill-rule="evenodd"/>
            <path d="M120.97,149.5664a14.483,14.483,0,0,1-3.84977-.85143c-1.10861-.43034-2.19061-.918-3.28452-1.37707a10.374,10.374,0,0,1-1.5757-.94673c-.73755-.48215-1.4629-.98462-2.19241-1.47868a.83723.83723,0,0,1-.41556-.89908.90467.90467,0,0,1,.86478-.69377,2.43627,2.43627,0,0,1,1.02315.16189,6.7114,6.7114,0,0,1,1.49124.84375,16.95976,16.95976,0,0,0,3.64511,1.84652,12.94527,12.94527,0,0,0,1.98531.7176,6.93554,6.93554,0,0,0,5.63458-.37982,13.89829,13.89829,0,0,1,1.29648-.6594,12.636,12.636,0,0,0,4.33674-3.39668,49.29973,49.29973,0,0,0,3.48394-4.64968,8.92649,8.92649,0,0,0,1.02106-2.7085,8.77091,8.77091,0,0,1,.302-1.00772.68559.68559,0,0,1,.75821-.40085.74139.74139,0,0,1,.5494.79675c-.02663.21729-.10858.42683-.15278.64261a21.61186,21.61186,0,0,0-.61383,2.96992,4.49032,4.49032,0,0,1-.88437,2.32452,28.37493,28.37493,0,0,1-4.60942,5.431,9.18477,9.18477,0,0,1-1.37068,1.03018c-1.34377.75054-2.69695,1.49547-4.08873,2.1528A6.4082,6.4082,0,0,1,120.97,149.5664Z" fill="#132420" fill-rule="evenodd"/>
            <path d="M102.88112,137.65664c-.04521.42467-.06731.73159-.11144,1.03643a1.08789,1.08789,0,0,1-1.5536.70081,2.345,2.345,0,0,1-1.02071-.9895,2.79732,2.79732,0,0,0-.4152-.66923,3.19653,3.19653,0,0,1-.377-3.12406,1.35363,1.35363,0,0,1,.79854-.83256,1.18314,1.18314,0,0,1,1.62192.40013,3.11661,3.11661,0,0,1,.40788.67555,11.41506,11.41506,0,0,1,.56411,1.61043A6.47274,6.47274,0,0,1,102.88112,137.65664Z" fill="#132420" fill-rule="evenodd"/>
            <path d="M126.5394,130.95857c-.00983.19691-.01786.28453-.01887.37215-.00567.61383-.14194,1.14012-.82553,1.3399a1.93433,1.93433,0,0,1-2.149-.60479,6.02678,6.02678,0,0,1-.624-1.44919,1.93605,1.93605,0,0,1,1.0116-2.46186,1.64878,1.64878,0,0,1,1.90644.43939A3.07079,3.07079,0,0,1,126.5394,130.95857Z" fill="#132420" fill-rule="evenodd"/>
          </g>
        </g>
        <g>
          <g>
            <path d="M54.25243,211.136c1.07759.1235-1.77291-1.0093-1.88571-1.0645-.2837-.1377-.5704-.2636-.8545-.3984a17.96894,17.96894,0,0,0,4.5664-3.957c3.06781-3.8345,5.1557-10.607.9111-14.5381-4.834-4.4756-9.645-3.0449-14.7954-.1611-2.1304,1.1928-4.4126,1.7407-6.1821,3.5053-.1397.1392-.295.2959-.4571.4595a15.83719,15.83719,0,0,0-3.9629-4.8848c-3.9765-3.601-8.6669-5.5625-13.9902-4.1924-3.5229.9068-4.8852,4.3467-4.335,7.6358.9883,5.9082,5.1548,9.5102,9.4966,12.9975-.2163.4229-.3808.7452-.3779.7349q-.09675.72285-.19429,1.4453l-.00441-.0005c.0395-.3838.0166-.3842-.0684-.0068a9,9,0,0,0-4.9507.9019c-3.8462,2.0146-6.6084,6.2255-8.6211,9.9423a6.735,6.735,0,0,0,1.0332,8.0074c3.3496,3.5092,8.0332,3.4399,12.4283,2.3427a32.45893,32.45893,0,0,0,4.8447-1.7426c.0718.4072.147.8134.2187,1.2163a17.704,17.704,0,0,0,3.334,8.0537c4.5908,6.0493,12.4878,5.4302,15.3506-1.8628,1.4263-3.6333,1.6016-8.2666,1.4082-12.5049a24.37476,24.37476,0,0,0,7.08791,1.5791C63.06882,225.25462,62.70852,212.10672,54.25243,211.136Z" fill="#ed5472"/>
            <path d="M42.81593,211.03442c-.0313-.0341-.0581-.0713-.0889-.1054a27.85548,27.85548,0,0,0-2.8369-3.6768,6.55158,6.55158,0,0,0-9.6118,8.8916c.0205.0396.0478.0737.0679.1148l.0083.0131c.017.0772.0366.1524.0522.23a5.515,5.515,0,0,0,2.7456,3.5669,6.1046,6.1046,0,0,0,5.10011,2.3213,6.68113,6.68113,0,0,0,4.59619-1.9038,6.86722,6.86722,0,0,0,1.90381-4.5962A6.57429,6.57429,0,0,0,42.81593,211.03442Z" fill="#ffb33b"/>
          </g>
          <path d="M39.56293,206.00952c-1.9228-.7485-7.5473-1.9858-7.4111,1.6299a.54225.54225,0,0,0,1.0025.2725c1.0844-1.5733,5.0532.9311,6.0288,1.5683,1.6977,1.1094,4.3554,3.2578,3.729,5.5703-1.0274,3.7964-5.6802,2.4649-7.9204,1.0269-1.691-1.0869-2.0938-2.7632-1.9156-4.6367.1304-1.375-.0044-3.2715-1.6674-3.6445a2.38641,2.38641,0,0,0-2.584,1.0512c-4.1465,5.5772,1.6709,12.0991,6.9155,13.856,5.3696,1.7988,11.5195-2.2818,11.7773-7.8965C47.71923,210.42852,43.09623,207.38312,39.56293,206.00952Z" fill="#463131"/>
          <path d="M68.56,213.81672c-.5605-.6895-.8301-1.7344-1.3779-2.483a12.69255,12.69255,0,0,0-2.6592-2.5371,19.42974,19.42974,0,0,0-3.001-1.7968c5.0176-4.7774,6.2256-14.3506.9834-19.1202-3.75089-3.4116-9.2431-3.8769-14.041-3.1938a19.74238,19.74238,0,0,0-7.2544,2.8242,22.287,22.287,0,0,0-3.8496,2.9956,7.045,7.045,0,0,0-.5058.5386c-3.7388-6.9712-12.3375-13.0586-19.9039-10.7559-5.7089,1.7364-7.1845,7.42-6.4394,12.7193.7793,5.541,4.0371,10.0483,8.09521,13.644-.05321.0078-.11131.0093-.16211.0196-1.10689.2153-2.2344.3637-3.31889.6665a25.50066,25.50066,0,0,0-8.23341,4.2504c-4.7324,3.543-7.70059,9.2085-6.6972,15.2081.43361,2.5927,2.5742,4.6762,4.7114,5.9682,2.5039,1.5142,5.52,1.3794,8.3101.9492a11.75353,11.75353,0,0,0,3.4653-1.0263c1.19781-.5923,2.5557-.7364,3.8623-1.274a11.81724,11.81724,0,0,0,2.1016-1.1386,5.73187,5.73187,0,0,0,.10891.8134,39.28729,39.28729,0,0,0,1.87149,5.1006c1.3067,3.6241,3.2427,7.5869,6.9156,9.2803,8.4785,3.9111,16.9477-4.9204,14.726-13.4214-.414-1.5825-2.8027-2.4521-3.937-1.039-1.7959,2.2368-1.1548,4.8774-2.417,7.2832a4.6396,4.6396,0,0,1-6.9624,1.186c-2.0156-1.8691-2.5283-4.8999-3.7021-7.2647-1.5288-3.083.0566-6.0932-1.0205-9.1962a2.94553,2.94553,0,0,0-4.8653-1.2842c-1.2597,1.2602-2.6435,3.185-4.2553,3.9834a16.62841,16.62841,0,0,1-3.3428.9209c-.9458.2597-1.7266.9121-2.6812,1.1992-3.8349,1.1499-8.12249-.3652-7.2299-4.9512.894-4.5962,4.039-7.5259,7.9272-9.8262a29.47642,29.47642,0,0,1,5.7573-2.4169c1.7583-.5899,3.1231-.5899,4.48391-1.9791a1.36061,1.36061,0,0,0,.30279-1.5156,1.71421,1.71421,0,0,0-.6114-1.8374c-3.8188-2.9946-6.7749-6.4038-8.1743-11.1235-1.166-3.9302-.8022-8.4253,3.8042-9.436,3.0161-.6622,6.47071,1.6572,8.627,3.4687a16.0635,16.0635,0,0,1,5.5014,7.9829,2.559,2.559,0,0,0,3.729,1.5161,16.41815,16.41815,0,0,0,3.7398-3.6318,17.01791,17.01791,0,0,1,5.6113-3.7066,13.89606,13.89606,0,0,1,11.3516.3326c6.0351,2.957,1.7929,9.5942-1.1978,13.935a2.24533,2.24533,0,0,0-1.6733,2.8653,1.94507,1.94507,0,0,0,2.1406,1.9795c2.3389,1.354,5.0342,2.3706,6.6084,4.5981a5.35589,5.35589,0,0,1,1.1406,4.6211,9.62063,9.62063,0,0,1-2.7832,4.0708,15.12084,15.12084,0,0,1-8.05469,3.6406c-3.28561.439-5.72461-.8472-8.5-2.3535a1.56469,1.56469,0,0,0-2.27391,1.749c.8325,4.6416,6.023,6.0401,10.1675,5.7573a20.61644,20.61644,0,0,0,12.1308-5.3242C68.644,223.52272,71.53172,217.47782,68.56,213.81672Z" fill="#463131"/>
        </g>
      </g>
    </g>
  </g>
</svg>
