<svg xmlns="http://www.w3.org/2000/svg" viewBox="0 0 122.80689 68.63037">
  <title>Recurso 4</title>
  <g id="Capa_2" data-name="Capa 2">
    <g id="Editar">
      <g>
        <g>
          <g>
            <path d="M107.25243,33.34313c1.07759.1235-1.77291-1.0093-1.88571-1.0645-.2837-.1377-.5704-.2636-.8545-.3984a17.96894,17.96894,0,0,0,4.5664-3.957c3.06781-3.8345,5.1557-10.607.9111-14.5381-4.834-4.4756-9.645-3.0449-14.7954-.1611-2.1304,1.1928-4.4126,1.7407-6.1821,3.5053-.1397.1392-.295.2959-.4571.4595a15.83719,15.83719,0,0,0-3.9629-4.8848c-3.9765-3.601-8.6669-5.5625-13.9902-4.1924-3.5229.9068-4.8852,4.3467-4.335,7.6358.9883,5.9082,5.1548,9.5102,9.4966,12.9975-.2163.4229-.3808.7452-.3779.7349q-.09675.72285-.19429,1.4453l-.00441-.0005c.0395-.3838.0166-.3842-.0684-.0068a9,9,0,0,0-4.9507.9019c-3.8462,2.0146-6.6084,6.2255-8.6211,9.9423a6.735,6.735,0,0,0,1.0332,8.0074c3.3496,3.5092,8.0332,3.4399,12.4283,2.3427a32.45893,32.45893,0,0,0,4.8447-1.7426c.0718.4072.147.8134.2187,1.2163a17.704,17.704,0,0,0,3.334,8.0537c4.5908,6.0493,12.4878,5.4302,15.3506-1.8628,1.4263-3.6333,1.6016-8.2666,1.4082-12.5049a24.37476,24.37476,0,0,0,7.08791,1.5791C116.06882,47.46173,115.70852,34.31383,107.25243,33.34313Z" fill="#ed5472"/>
            <path d="M95.81592,33.24153c-.0313-.0341-.0581-.0713-.0889-.1054a27.85548,27.85548,0,0,0-2.8369-3.6768,6.55158,6.55158,0,0,0-9.6118,8.8916c.0205.0396.0478.0737.0679.1148l.0083.0131c.017.0772.0366.1524.0522.23a5.515,5.515,0,0,0,2.7456,3.5669,6.1046,6.1046,0,0,0,5.10011,2.3213,6.68113,6.68113,0,0,0,4.59619-1.9038,6.86722,6.86722,0,0,0,1.90381-4.5962A6.57429,6.57429,0,0,0,95.81592,33.24153Z" fill="#ffb33b"/>
          </g>
          <path d="M92.56292,28.21663c-1.9228-.7485-7.5473-1.9858-7.4111,1.6299a.54225.54225,0,0,0,1.0025.2725c1.0844-1.5733,5.0532.9311,6.0288,1.5683,1.6977,1.1094,4.3554,3.2578,3.729,5.5703-1.0274,3.7964-5.6802,2.4649-7.9204,1.0269-1.691-1.0869-2.0938-2.7632-1.9156-4.6367.1304-1.375-.0044-3.2715-1.6674-3.6445a2.38641,2.38641,0,0,0-2.584,1.0512c-4.1465,5.5772,1.6709,12.0991,6.9155,13.856,5.3696,1.7988,11.5195-2.2818,11.7773-7.8965C100.71922,32.63563,96.09622,29.59023,92.56292,28.21663Z" fill="#463131"/>
          <path d="M121.56,36.02383c-.5605-.6895-.8301-1.7344-1.3779-2.483a12.69255,12.69255,0,0,0-2.6592-2.5371,19.42974,19.42974,0,0,0-3.001-1.7968c5.0176-4.7774,6.2256-14.3506.9834-19.1202-3.75089-3.4116-9.2431-3.8769-14.041-3.1938a19.74238,19.74238,0,0,0-7.2544,2.8242,22.287,22.287,0,0,0-3.8496,2.9956,7.045,7.045,0,0,0-.5058.5386C86.11572,6.28013,77.517.19273,69.95062,2.49543c-5.7089,1.7364-7.1845,7.42-6.4394,12.7193.7793,5.541,4.0371,10.0483,8.09521,13.644-.05321.0078-.11131.0093-.16211.0196-1.10689.2153-2.2344.3637-3.31889.6665a25.50066,25.50066,0,0,0-8.23341,4.2504c-4.7324,3.543-7.70059,9.2085-6.6972,15.2081.43361,2.5927,2.5742,4.6762,4.7114,5.9682,2.5039,1.5142,5.52,1.3794,8.3101.9492a11.75353,11.75353,0,0,0,3.4653-1.0263c1.19781-.5923,2.5557-.7364,3.8623-1.274a11.81724,11.81724,0,0,0,2.1016-1.1386,5.73187,5.73187,0,0,0,.10891.8134,39.28729,39.28729,0,0,0,1.87149,5.1006c1.3067,3.6241,3.2427,7.5869,6.9156,9.2803,8.4785,3.9111,16.9477-4.9204,14.726-13.4214-.414-1.5825-2.8027-2.4521-3.937-1.039-1.7959,2.2368-1.1548,4.8774-2.417,7.2832a4.6396,4.6396,0,0,1-6.9624,1.186c-2.0156-1.8691-2.5283-4.8999-3.7021-7.2647-1.5288-3.083.0566-6.0932-1.0205-9.1962a2.94553,2.94553,0,0,0-4.8653-1.2842c-1.2597,1.2602-2.6435,3.185-4.2553,3.9834a16.62841,16.62841,0,0,1-3.3428.9209c-.9458.2597-1.7266.9121-2.6812,1.1992-3.8349,1.1499-8.12249-.3652-7.2299-4.9512.894-4.5962,4.039-7.5259,7.9272-9.8262a29.47642,29.47642,0,0,1,5.7573-2.4169c1.7583-.5899,3.1231-.5899,4.48391-1.9791a1.36061,1.36061,0,0,0,.30279-1.5156,1.71421,1.71421,0,0,0-.6114-1.8374c-3.8188-2.9946-6.7749-6.4038-8.1743-11.1235-1.166-3.9302-.8022-8.4253,3.8042-9.436,3.0161-.6622,6.47071,1.6572,8.627,3.4687a16.0635,16.0635,0,0,1,5.5014,7.9829,2.559,2.559,0,0,0,3.729,1.5161,16.41815,16.41815,0,0,0,3.7398-3.6318,17.01791,17.01791,0,0,1,5.6113-3.7066,13.89606,13.89606,0,0,1,11.3516.3326c6.0351,2.957,1.7929,9.5942-1.1978,13.935a2.24533,2.24533,0,0,0-1.6733,2.8653,1.94507,1.94507,0,0,0,2.1406,1.9795c2.3389,1.354,5.0342,2.3706,6.6084,4.5981a5.35589,5.35589,0,0,1,1.1406,4.6211,9.62063,9.62063,0,0,1-2.7832,4.0708,15.12084,15.12084,0,0,1-8.05469,3.6406c-3.28561.439-5.72461-.8472-8.5-2.3535a1.56469,1.56469,0,0,0-2.27391,1.749c.8325,4.6416,6.023,6.0401,10.1675,5.7573a20.61644,20.61644,0,0,0,12.1308-5.3242C121.644,45.72983,124.53172,39.68493,121.56,36.02383Z" fill="#463131"/>
        </g>
        <g>
          <g>
            <path d="M42.039,24.28708c.835.0957-1.37379-.78208-1.46119-.82486-.21983-.1067-.442-.20426-.66213-.30871a13.92373,13.92373,0,0,0,3.5384-3.06619c2.37718-2.97127,3.995-8.21912.706-11.26525-3.74576-3.468-7.47369-2.35942-11.46462-.12483-1.6508.92427-3.41922,1.34883-4.79037,2.71618-.10825.10786-.22859.22929-.3542.35606A12.27188,12.27188,0,0,0,24.4801,7.98436C21.3988,5.194,17.76432,3.6741,13.63941,4.73576c-2.72982.70266-3.78543,3.36816-3.35909,5.91681.76581,4.57813,3.99434,7.36924,7.3587,10.07147-.16761.3277-.29507.57744-.29283.56946q-.075.56012-.15055,1.11993l-.00342-.00039c.03061-.2974.01286-.29771-.053-.00527a6.9739,6.9739,0,0,0-3.83619.69886c-2.98033,1.56107-5.1207,4.824-6.6803,7.70406a5.21881,5.21881,0,0,0,.8006,6.20475c2.59553,2.7192,6.22475,2.6655,9.63041,1.81531a25.15169,25.15169,0,0,0,3.754-1.3503c.05564.31553.11391.63029.16947.94248a13.71845,13.71845,0,0,0,2.58344,6.24063c3.55731,4.68747,9.67651,4.20774,11.89483-1.44344,1.10521-2.81536,1.241-6.4056,1.09118-9.68976A18.88745,18.88745,0,0,0,42.039,34.754C48.87061,35.22727,48.59142,25.03926,42.039,24.28708Z" fill="#ed5472"/>
            <path d="M33.17709,24.20836c-.02425-.02642-.045-.05525-.06889-.08167A21.58459,21.58459,0,0,0,30.91,21.27762a5.07667,5.07667,0,0,0-7.448,6.8899c.01588.03069.037.05711.05261.089l.00643.01015c.01317.05982.02836.11809.04045.17822a4.27347,4.27347,0,0,0,2.1275,2.76391,4.73031,4.73031,0,0,0,3.952,1.79872,5.17705,5.17705,0,0,0,3.56148-1.47521,5.32125,5.32125,0,0,0,1.47522-3.56149A5.09427,5.09427,0,0,0,33.17709,24.20836Z" fill="#ffb33b"/>
          </g>
          <path d="M30.65642,20.31467c-1.48993-.58-5.84823-1.53875-5.74269,1.263a.42017.42017,0,0,0,.77681.21115c.84028-1.21911,3.91561.72149,4.67158,1.21524,1.31551.85965,3.3749,2.5244,2.88952,4.3163-.79611,2.94174-4.40146,1.91-6.13734.79572a3.50029,3.50029,0,0,1-1.48436-3.59287c.101-1.06546-.00341-2.535-1.292-2.824a1.84918,1.84918,0,0,0-2.00228.81455c-3.213,4.32165,1.29474,9.37532,5.35866,10.7367a7.07559,7.07559,0,0,0,9.126-6.11882C36.97655,23.73886,33.39429,21.379,30.65642,20.31467Z" fill="#463131"/>
          <path d="M53.12562,26.3643c-.43432-.53428-.64323-1.34395-1.0677-1.924a9.83517,9.83517,0,0,0-2.06055-1.96594A15.05567,15.05567,0,0,0,47.672,21.082c3.888-3.7019,4.82408-11.12.762-14.81581C45.52749,3.62265,41.2717,3.2621,37.55391,3.79142a15.29793,15.29793,0,0,0-5.62127,2.18841,17.26968,17.26968,0,0,0-2.983,2.32122,5.459,5.459,0,0,0-.39193.41735C25.66063,3.31658,18.99769-1.40041,13.13466.3839,8.711,1.72939,7.56755,6.13349,8.14491,10.2398c.60386,4.2936,3.12826,7.7862,6.27279,10.57243-.04123.006-.08625.00721-.12561.01519-.8577.16683-1.73139.28182-2.57173.51646a19.75989,19.75989,0,0,0-6.37988,3.29354C1.67345,27.3828-.62654,31.77287.151,36.42182a7.27955,7.27955,0,0,0,3.65076,4.62462C5.74194,42.21976,8.079,42.11531,10.241,41.782a9.10754,9.10754,0,0,0,2.68518-.79526c.92816-.459,1.98035-.57062,2.99281-.98719a9.15692,9.15692,0,0,0,1.62848-.88228,4.4415,4.4415,0,0,0,.08439.63029,30.44284,30.44284,0,0,0,1.45018,3.95234c1.01253,2.80823,2.51269,5.87892,5.35874,7.1911,6.5698,3.03062,13.13239-3.81271,11.41084-10.39994-.3208-1.22624-2.17175-1.90008-3.05069-.8051-1.3916,1.73325-.89483,3.77939-1.87288,5.64359a3.59512,3.59512,0,0,1-5.395.919c-1.56184-1.44832-1.95912-3.79682-2.86867-5.62925-1.18463-2.38895.04386-4.72148-.79076-7.12593a2.28242,2.28242,0,0,0-3.77-.9951c-.97611.9765-2.04839,2.468-3.29734,3.08665a12.885,12.885,0,0,1-2.59026.71358c-.73288.20124-1.3379.70677-2.0776.92923-2.97158.891-6.29394-.283-5.60229-3.83657.69274-3.56149,3.12973-5.83165,6.14261-7.6141a22.84062,22.84062,0,0,1,4.4612-1.8728c1.36247-.4571,2.42-.4571,3.47448-1.53356a1.05431,1.05431,0,0,0,.23463-1.1744,1.3283,1.3283,0,0,0-.47376-1.42376,16.997,16.997,0,0,1-6.33408-8.61935c-.90351-3.04542-.62161-6.52857,2.94779-7.31174,2.33711-.51312,5.014,1.28413,6.68487,2.68782A12.44725,12.44725,0,0,1,25.93679,12.715a1.98292,1.98292,0,0,0,2.88952,1.17479,12.72205,12.72205,0,0,0,2.89789-2.8142,13.1868,13.1868,0,0,1,4.34807-2.87216,10.76774,10.76774,0,0,1,8.7961.25772c4.67646,2.29131,1.38928,7.43433-.92815,10.79792a1.73985,1.73985,0,0,0-1.2966,2.22026,1.50719,1.50719,0,0,0,1.6587,1.53387c1.81236,1.04918,3.90089,1.83692,5.1207,3.563a4.15016,4.15016,0,0,1,.88383,3.58079,7.45481,7.45481,0,0,1-2.15664,3.15437,11.7168,11.7168,0,0,1-6.2414,2.821c-2.54594.34017-4.43587-.65648-6.58646-1.82367a1.21244,1.21244,0,0,0-1.762,1.35526c.64509,3.59667,4.66709,4.68034,7.87857,4.4612a15.97521,15.97521,0,0,0,9.39988-4.1256C53.19071,33.88526,55.42832,29.2012,53.12562,26.3643Z" fill="#463131"/>
        </g>
      </g>
    </g>
  </g>
</svg>
