<?xml version="1.0" encoding="utf-8"?>
<!-- Generator: Adobe Illustrator 21.1.0, SVG Export Plug-In . SVG Version: 6.00 Build 0)  -->
<svg version="1.1" id="Capa_1" xmlns="http://www.w3.org/2000/svg" xmlns:xlink="http://www.w3.org/1999/xlink" x="0px" y="0px"
	 viewBox="0 0 174.7 160.7" style="enable-background:new 0 0 174.7 160.7;" xml:space="preserve">
<style type="text/css">
	.st0{fill:#FFA147;}
	.st1{fill:#FFC531;}
	.st2{stroke:#000000;stroke-miterlimit:10;}
</style>
<title>Recurso 7</title>
<g>
	<g>
		<g>
			<path class="st0" d="M55.7,50.5c0.3,0.8,0.6,1.6,0.8,2.5c0.3,1,1.3,1.6,1.4,2.6c0.2,1.8,0.3,3.1,1.4,4.6c1.3,1.8,3,2.6,5.3,2.1
				c3.2-0.6,7.2-0.8,10-2.6c0.3-0.2,0.6-0.4,0.8-0.6c3.1,2.5,8.7,1.4,8.2-3.6c0-0.1,0-0.1,0-0.2c0.6,0,1.1,0,1.6,0.1
				c3.4,0.2,6.6,0.3,9.9-0.3c4.1-0.7,4.5-6,2.3-8.6c-4-4.7-7.3-9.8-10.3-15.1c-1.3-2.3-2.2-4.7-3.4-7c-1.3-2.6-3.1-5.3-3.9-8
				c-0.4-1.2-1.1-2-2.1-2.4c-0.4-2-1-4-2.2-5.6c-1.2-1.6-3.7-1.9-4.8,0c-1.8,3.2-1.1,7.3-1.2,10.8c-0.1,4.2,0.5,8.5,1,12.7
				c0.5,4.1,0.4,8.2,1.1,12.3c0.3,1.7,0.5,3.3,0.8,5c-2.4-1.4-5.2-2.5-7.2-4.4c-1.3-1.2-2.6-2.5-3.8-3.9c-0.9-1.6-1.9-3.1-3.3-4.3
				c-0.7-0.6-1.4-0.9-2.1-1c-0.8-0.9-1.4-1.8-1.7-2.9c-0.8-3-5.1-2.3-5.3,0.7c-0.1,2.8,0.8,5.3,2.3,7.5
				C52.2,44.2,54.4,47.4,55.7,50.5z"/>
			<path class="st0" d="M67.2,107.9c0.6-3.7-0.6-6.2-3.7-8.2c-1.9-1.3-3.5-3.1-5.4-4.5c0.3-0.5,0.7-1,0.9-1.6c0.5-0.8,0.5-2,0-2.9
				c0.2-0.2,0.5-0.5,0.6-0.8c2-3.1,1.1-6.9,0-10.3c-1.3-4.1-1.1-6.9,1.4-10.4c1.3-1.9,0.5-5.1-1.6-6.1c-2.7-1.3-5.3-0.7-8,0
				c-2.1,0.5-7.7-0.7-10.9-1.3c-2.8-0.5-5.6-1.1-8.4-2c-5.3-2.7-11-4.8-15.2-9.2c-2.7-2.8-6.4-1.1-7.6,1.6c-1.6-0.3-2.8,1.5-1.6,3
				c3.3,4,6.8,7.2,10.8,10.6c4.1,3.4,7.3,8,11.7,11c4.6,3.2,9.5,5.9,14.1,9.1c2,1.4,4.4,3.5,6.8,4.8c-2.5,2.4-5.4,4.3-8.5,5.8
				c-6.8,3.3-13.3,9-18.6,14.3c-2.4,2.4-1.5,7.2,2.1,7.9c5.6,1.2,11.7-1.7,17.2-3c3.4-0.8,6.8-1.6,10.2-2.5c3-0.8,5.8-2,9-2
				C64.5,111.4,66.9,110,67.2,107.9z"/>
			<path class="st0" d="M87.8,114.1c-1.9-0.9-3.9-1.6-5.8-2.3c-0.2-0.1-0.5-0.2-0.9-0.3c-2-1.5-4.5-2.5-6.8-2.6
				c-1.5-1.9-4.7-2.8-5.7,0.7c-1.5,5.4-1,11.1-2.5,16.5c-0.8,2.9-1.2,5.8-1.2,8.8c0,1.7-0.2,3.3-0.4,4.9c-1.6,3.5-3,7.1-2.8,11.2
				c0.1,4.3,6,4.1,6.5,0c0.2-1.4,0.6-2.7,1.1-4.1c1.4-0.2,2.7-0.8,3.4-2c3.2-4.9,5.8-10.1,9.2-14.8c1.6-2.2,2.7-3.4,4.4-4.7
				c2-1.5,3.5-3.4,3.8-5.9C90.3,117.4,89.9,115,87.8,114.1z"/>
			<path class="st0" d="M146,100.5c-3.7-1.9-7.1-4-10.6-6.2c-1.5-1-3.1-2.2-4.6-3.3c0-0.1,0-0.2-0.1-0.3c-0.4-1.6-1.9-2.1-3.2-1.8
				c-0.3-0.2-0.7-0.3-1-0.5c-5.1-2.2-9,4.2-4.4,7.5c0.4,0.3,0.9,0.6,1.3,1c-0.6,1.5-1.3,3-2.1,4.2c-2.1,3.4-5.8,5.1-7.5,8.8
				c-0.3,0.6-0.4,1.2-0.5,1.8c-2.6-0.7-5.8,0.6-5.7,4.1c0,0.3,0,0.6,0,0.9c-1.8-0.8-3.6-1-5.6-0.8c-0.9,0.1-1.9,0.1-2.8,0.2
				c-0.3,0-0.6,0-0.8,0c-0.1,0-0.2,0-0.3,0c0,0,0,0,0-0.1c-2.3-4.3-8.1-1.5-7.8,2.6c-0.4,1.2-0.2,2.7,1.2,3.6c1,0.6,1.5,2.3,2.1,3.2
				c0.7,1.1,1.4,2.1,2.3,3.1c1.8,2,2.8,4.7,4.9,6.4c4.8,3.9,9.4,9.6,11.9,15.3c1.9,4.3,8.5,2,8.5-2.3c-0.2-10.8-4.4-21-4.7-31.8
				c2.1,0.6,4.3,0.4,6.4,0c3.1-0.5,6.1-0.5,9.3-0.4c6.5,0.1,13,0.2,19.5,0.2c3.2,0,4.9-2.9,4.4-5.8
				C155.5,105.3,149.9,102.5,146,100.5z"/>
			<path class="st0" d="M156.7,59.4c-0.4,0.1-0.8,0.2-1.1,0.3c-3.6,1.1-7.1,2.8-10.7,3.9c-2.3,0.7-4.7,1.4-6.9,2.4
				c-1.8,0.3-3.5,0.8-5.2,1.3c-1.3-2-5.1-2.1-6.3,0.9c-1.6,4.2-1.5,8.7-1.7,13.1c-0.2,3.1,3.8,5.5,6.4,3.7c1.9-1.3,3.5-2.9,5.2-4.5
				c2.2-2.1,4.8-3.4,7.5-4.7c2.8-1.4,5.4-3.1,8.2-4.5c1.2-0.6,2.5-0.6,3.7-1.3c0.9-0.5,1.6-1.1,2.5-1.4c0.3-0.1,0.7-0.2,1-0.3
				C165.1,66.8,162.6,58.3,156.7,59.4z"/>
			<path class="st0" d="M106.6,54.3c1.4,1.3,2.8,2.6,4.3,3.8c2.9,2.3,6.3,5.8,10.1,6.5c3,0.5,5.8-1.2,5.9-4.5
				c0-3.7,0.3-7.7,0.9-11.4c0.6-3.4,1.8-7.2,1.9-10.7c0-7.8,2.7-15.2,2.9-22.9c0.1-3.6-4.7-5.6-7.2-3c-2.4,2.6-4.8,5.6-6.8,8.5
				c-2,3-5.2,5.6-6.6,8.9c-2.4,5.6-6.9,9.8-9.9,15c0,0-0.1,0-0.1,0c-1.7,0.9-2.1,2.6-1.8,4.1c-0.1,0.4-0.3,0.8-0.4,1.2
				C98.6,54.2,103.8,56.5,106.6,54.3z"/>
		</g>
		<path class="st1" d="M118.3,60.2c-13.1-11.8-35.5-11.4-47.9,1.3c-0.4,0-0.8,0.1-1.2,0.2c-2.4,1-4.5,1.9-6.4,3.5
			c-2.2,1.9-3,5.4-4,8c-2.8,7.2-3.1,14.6,0.7,21.4c3.4,6.2,8.8,13.2,15.7,15.8c2.6,1,5.2,1.5,7.8,1.6c1.9,1,3.8,1.8,5.7,2.5
			c8.8,2.8,20.3,0.8,27.4-5.1C130.7,97.4,132.7,73.2,118.3,60.2z"/>
	</g>
	<g>
		<path class="st2" d="M168.4,58.3c-3.1-4.6-21.8,1.2-24.4,1.8c-5.3,1.2-10.6,4.1-16.1,3.9c0,0,0,0,0,0c0.1-0.2,0.1-0.4,0.2-0.7
			c0.6-4.5,0.5-9.1,1-13.6c0.5-4.8,1.1-9.6,1.5-14.3c0.4-4.8,0.3-9.4,0-14.2c-0.2-3.6-0.2-7.4-1.3-10.9c0.8-0.8,1.1-2.1,0.3-3.6
			c-0.5-1.1-1.9-0.8-2.5,0c0.2,0.1,0.1,0.2-0.4,0.3c0.4-0.4,0-0.2-0.6-0.1c-0.9,0.3-1.6,1.2-2.1,2c-1.2,1.7-2.6,3.6-3.7,5.4
			c-2.6,4.4-5.7,8.5-8.7,12.6c-2.9,3.9-5,8.2-7.5,12.3c-1.3,2.1-2.6,4.1-3.7,6.3c-0.3,0.6-0.7,1.3-1.2,1.9c-0.7-1.2-1-2.5-1.7-3.8
			c-1.2-2.4-2.5-4.9-3.9-7.2c-1.4-2.3-3.1-4.3-4.4-6.7c-1.3-2.3-3.1-4.2-4.7-6.3c-1.9-2.3-3.1-5.1-4.4-7.8c-1.2-2.3-2.4-4.6-3.9-6.7
			c-1.5-2.2-3.4-4.3-4.4-6.8c-0.3-0.8-1.5-0.9-1.7,0c-0.1,0.3-0.1,0.7-0.1,1c-0.1,0.1-0.2,0.3-0.3,0.5c-1.9,8-1.1,16.9-0.2,24.9
			c0.5,4.1,0.9,8.2,1.3,12.3c0.1,1.3,0.3,2.6,0.5,3.9c-0.2-0.2-0.4-0.3-0.6-0.5c-2.6-2.3-5.6-3.9-8.5-5.8c-3.1-2.1-6.2-4.1-9-6.5
			c-1.3-1.1-2.8-2-4-3.3c-0.9-1-1.7-2-2.6-2.8c0.3-0.7,0-1.6-1-1.6c-0.2,0-0.3,0-0.5,0c-0.8-0.1-1.5,0.3-1.5,1.2c0,0.1,0,0.2,0,0.4
			c-0.1,0.3-0.1,0.7,0,1c0.1,1.3,0.4,2.5,0.9,3.7c0.8,1.9,1.4,3.9,2.1,5.9c1.3,3.7,3.3,7.1,4.8,10.7c1.6,3.8,3.5,7.5,4.8,11.4
			c0.2,0.8,0.5,1.6,0.7,2.4c-0.9-0.4-1.8-0.8-2.7-1.1c-2.7-0.9-5.7-1.2-8.5-1.6c-2.6-0.3-5.1-1-7.7-1.7c-1.4-0.3-2.8-0.7-4.1-1
			c-1.8-0.4-3.4-1.1-5-1.8c-2.6-1.2-5.3-2.3-8-3.4c-2.2-0.9-4.8-1.4-7.1-2.1C9.7,47.2,1.7,45.9,2.7,52c0.3,1.9,2.1,3.4,3.5,4.5
			c2,1.6,4,3.2,6,5c2.2,2,4.2,4,6.5,5.9c2.6,2,5.3,4,8,5.9c5.2,3.6,10.1,7.5,15.7,10.5c2.1,1.2,4.5,2.3,6.1,4.1
			c0.5,0.6,1.1,1.2,1.6,1.8c-1.3,1.1-2.7,2.3-4,3.5c-3.7,3.2-7.4,6.4-11.1,9.6c-3.5,2.9-7.6,5.4-10.9,8.6c-1.6,1.6-3.1,3.1-5,4.4
			c-0.8,0.6-1.6,0.8-2.4,1.5c-0.7,0.7-0.9,1.8-1,2.7c-0.1,1,0.8,2.2,1.8,2.4c4.4,0.9,9-0.5,13.3-1.4c2.5-0.5,5.2-0.4,7.8-0.7
			c2.9-0.4,5.8-0.9,8.8-1.2c4.7-0.5,9.2-3,13.9-3.1c1.3,0,2.8-0.2,4.1-0.6c-1.1,5.9-1.5,12-2.9,17.8c-0.9,4-1.3,7.9-1.6,12
			c-0.3,3.8-1.3,7,0.4,10.7c0.5,1.2,2.2,1.5,3.2,0.9c3.2-1.9,4.6-5.4,6.8-8.3c2.6-3.4,5.3-6.7,8.1-9.9c2.7-3.1,5.2-6.2,7.3-9.6
			c1-1.6,2.8-3.6,3.6-5.7c0.4,0.4,0.7,0.9,1,1.3c1.5,1.9,2.9,3.8,4.4,5.7c2.9,3.8,5.4,8,8.4,11.8c3,3.7,6.3,7.2,9.4,10.9
			c1.2,1.5,1.5,4.9,3.6,6c0.7,0.4,1.5,0.4,2.2,0c0,0,0.1,0,0.1-0.1c0.3-0.2,0.6-0.5,0.8-0.9c0.2,0.3,0.3,0.6,0.5,0.8
			c0.4,0.5,1.5,0.5,1.9,0c1.4-1.9,1-4.1,0.9-6.4c-0.2-2.8-0.7-5.5-1.2-8.3c-0.9-4.8-2.2-9.6-2.9-14.5c-0.3-2.4-0.9-4.8-1.3-7.2
			c-0.3-1.4-0.5-2.8-0.6-4.3c0-0.5,0-1,0-1.5c0-0.2,0-0.3,0-0.4c0.2-0.1,0.4-0.3,0.5-0.5c2.5,0.5,5.1,0.4,7.6,0.4
			c4.7-0.1,9.4,0.3,14.1,0.3c4.5,0.1,9.1-0.1,13.6-0.1c4,0,7.6,1.6,11.6,1.8c0.5,0.2,1.1,0.5,1.7,0.7c1.1,0.4,2.3-1.1,1.6-2.1
			c-0.1-0.1-0.2-0.3-0.3-0.4c0.2-1.3-0.5-2.9-2.3-2.9c-0.1,0-0.2,0-0.3,0c-2.3-2.2-5-4.1-7.6-5.8c-3.9-2.6-7.5-5.5-11.1-8.4
			c-3.2-2.6-6.5-5-9.4-8c-1.2-1.3-2.5-2.6-3.8-3.7c-0.1-0.1-0.2-0.2-0.4-0.3c0.9-0.4,1.7-1,2.5-1.5c2-1.6,4.1-3.1,6.2-4.5
			c2.3-1.6,4.6-3.3,6.6-5.1c2.3-2,5.4-3.4,8-5c2.4-1.5,4.9-3,7-4.9c1.6-1.5,5.3-2.5,5.9-4.7c0-0.2,0.1-0.4,0.1-0.6c0,0,0,0,0,0
			c0-0.1,0.1-0.2,0.1-0.3C169.5,59.6,169.2,58.7,168.4,58.3z M101.9,49.3c0.6-0.5,1-1.3,1.4-1.9c1.2-1.9,2.5-3.6,3.8-5.4
			c2.3-3.3,3.9-7,6.3-10.2c2.6-3.6,5.3-7,7.8-10.6c1.3-1.8,2.3-3.9,3.7-5.6c0.5-0.6,0.9-1.3,1.3-2c0.2,2.3,0,4.6,0,6.9
			c0.1,5,0.3,10-0.2,15c-0.5,4.5-1,9.1-1.6,13.6c-0.5,4.5-1.4,9.5-0.9,14c-0.2-0.2-0.3-0.4-0.5-0.6c-5.4-6.2-14-9.9-21.9-11.9
			c0-0.1-0.1-0.1-0.1-0.2c0-0.1-0.1-0.2-0.2-0.3C101.2,49.8,101.6,49.5,101.9,49.3z M71.5,8C71.5,8,71.6,8,71.5,8
			c1.5,2.5,2.9,5,4.1,7.6c1.3,2.9,2.7,5.7,4.1,8.5c0.6,1.2,1.9,2.4,2.7,3.5c1,1.2,1.9,2.4,2.7,3.7c3.1,4.7,6,9.5,8.6,14.5
			c0.5,1,1,2.3,1.6,3.6c-3.8-0.5-7.6-0.5-11.5-0.2c-2.5,0.2-4.7,0.9-6.8,1.8c0.1-0.8-0.3-1.5-1.1-1.9c-0.8-2.9-1.5-5.7-1.8-8.8
			c-0.5-3.9-1-7.7-1.5-11.6c-0.5-4.1-1-8.2-1.1-12.3C71.4,13.6,71.3,10.8,71.5,8z M54.5,45.8c-1.7-3.5-3.6-6.8-5.1-10.3
			c-0.2-0.5-0.4-0.9-0.5-1.4c3.3,3.1,7.2,5.7,10.9,8.2c1.5,1.1,3.2,2,4.8,3.1c1.5,1,2.8,2.5,4.3,3.4c1.6,0.9,2.8,3.2,4.6,4
			c0,0,0,0.1,0.1,0.1c-0.4,0.2-0.8,0.5-1.2,0.7c-0.3,0-0.5,0-0.8,0.1c-3.9,2-7.2,5.3-10,8.8c-0.9-2-1.5-4.1-2.2-6.2
			C58.1,52.7,56.2,49.3,54.5,45.8z M44.7,79.6c-5.1-2.8-9.6-6.3-14.4-9.6c-4.8-3.4-9.5-6.8-13.7-10.9c-1.9-1.9-4-3.5-6.1-5.3
			c-0.4-0.3-1.5-1.1-2.3-1.8c3.2,0,6.7,1.7,9.6,2.5c4.9,1.4,9.4,4.5,14.5,5.6c4.8,1,9.5,2.3,14.5,2.7c2.5,0.2,4.9,0.6,7.3,1.3
			c1.7,0.5,3.1,1.4,4.7,2c-2.2,3.3-4,6.8-4.9,10.7c-0.8,3.3-0.8,6.5-0.3,9.7c-0.8-0.8-1.7-2-2.2-2.5C49.6,82.1,46.9,80.8,44.7,79.6z
			 M64.4,110.4c-0.1,0-0.2,0.1-0.4,0.2c-0.6,0.2-1.2,0.3-1.8,0.3c-1.6,0.1-3.2,0.2-4.8,0.6c-2.1,0.5-4.2,1.2-6.3,1.8
			c-2.4,0.7-4.7,0.8-7.1,1.2c-2.2,0.4-4.4,0.8-6.6,1.1c-2.4,0.3-4.8,0.1-7.1,0.6c-1.5,0.3-3.2,0.8-4.8,1.1c1-0.9,2-1.9,2.9-2.9
			c2.9-2.9,6.5-5.2,9.6-7.8c3.3-2.8,6.5-5.7,9.6-8.7c1.6-1.5,3-3.1,4.4-4.7c0.4-0.5,0.7-1,1.1-1.5c0.2,0.1,0.3,0.1,0.5,0.2
			c0.3,0,0.7,0.1,1,0.1c0.2,0,0.4,0,0.6,0c1.7,4.5,4.4,8.7,7.7,12.2c1.4,1.5,3,2.9,4.6,4.2c0,0.1-0.1,0.1-0.1,0.2
			C66,108.5,64.8,109.2,64.4,110.4z M87.2,119.8c0.5-0.7-0.5,0.4-0.7,0.6c-0.4,0.5-0.7,1.2-1,1.7c-0.9,1.4-1.8,2.8-2.6,4.2
			c-2.1,3.4-4.5,6.3-7.1,9.3c-2.5,2.8-4.8,5.8-7.2,8.8c-1.1,1.4-2.2,2.9-3.2,4.4c-0.1,0.2-0.2,0.4-0.3,0.6c0.2-1.9,0.7-3.8,0.7-5.5
			c0.1-4,0.8-7.8,1.6-11.6c0.7-3.6,1.1-7.3,1.5-11c0.4-3.6,0.9-7.2,0.9-10.8c5.3,3.7,11.5,6.3,17.8,7.7c-0.1,0.3-0.1,0.7,0.1,1.1
			c0,0.1,0.1,0.2,0.1,0.2C87.5,119.5,87.4,119.6,87.2,119.8z M83.2,111.9c-11-3.8-21.3-12.2-24.7-23.7c-1.9-6.3-0.2-12.9,3.1-18.3
			c0.3-0.5,0.6-1,0.9-1.4c0.8-0.3,1.4-1,1.4-1.8c3.1-3.8,6.8-7,9.6-11c0.2-0.2,0.2-0.5,0.2-0.7c7.3-3.8,16.3-3.6,24.5-1.6
			c0.6,0.7,1.3,0.8,2,0.5c2.6,0.7,5.2,1.7,7.6,2.7c4.7,2,9.1,5,12.5,8.8c0.4,0.5,0.9,1.1,1.2,1.6c0.1,0.2,0.2,0.3,0.3,0.4
			c2.5,3.9,3.7,8.7,3.8,13.2c0.1,5.4-1.2,11.1-3.1,16.1c-1.9,5.1-5.4,9.5-9.7,12.8C104.4,116,92.5,115.1,83.2,111.9z M117.5,140.5
			c0.6,3.2,1.2,6.3,1.6,9.5c0.2,1.4,0.1,3,0.3,4.5c-0.2-0.3-0.4-0.7-0.6-1.1c-0.6-1.2-1.1-2.6-2-3.7c-3-3.5-6.1-6.9-9-10.4
			c-3.1-3.7-5.7-8-8.7-11.8c-2.3-2.9-4.7-6.2-7.5-8.8c3.9,0.5,7.9,0.3,11.8-0.3c3.9-0.6,7.3-2.1,10.5-4.2c0.1,0.1,0.3,0.3,0.5,0.4
			c0.2,0.1,0.3,0.2,0.5,0.2c-0.6,1.1-0.7,2.8-0.6,4c0.1,3.2,0.6,6.4,1.1,9.6C116,132.4,116.7,136.5,117.5,140.5z M136.8,97.4
			c1.6,1.6,3.5,2.8,5.3,4.2c3.7,3.1,7.5,6.1,11.4,8.9c0.6,0.4,1.1,0.8,1.7,1.2c-0.4,0-0.8,0-1.2-0.1c-4.3-0.2-8.6,0.2-12.9,0.3
			c-4.6,0.1-9.1,0.2-13.7,0.3c-3.5,0.1-7.6,1.2-11,0.1c0.3-0.3,0.7-0.5,1-0.8c6.8-5.5,9.9-13.7,11.6-22c1,1.1,2.3,2,3.1,2.9
			C133.7,94.2,135.2,95.8,136.8,97.4z M157.1,65.1c-3.4,2.3-7,4.3-10.3,6.5c-1.5,1-2.8,2.4-4.2,3.6c-1.5,1.3-3.2,2.4-4.8,3.7
			c-1.3,1-2.7,2-3.8,3.3c-0.9,1-2.1,2.4-3.5,2.9c-0.1,0-0.2,0.1-0.3,0.2c-0.1-0.1-0.2-0.1,0,0c0,0,0,0,0,0c-0.1,0-0.1-0.1-0.2-0.1
			c0,0,0,0,0,0c0.6-6.2-0.4-12.4-3.4-17.8c0.1,0,0.3,0,0.4,0.1c1.5,0.2,3,0.2,4.6,0.2c4.8-0.3,9.2-2.3,13.8-3.2
			c4.4-0.8,9-2.7,13.5-2.8c1.1,0,2.2-0.1,3.3-0.1C160.4,62.6,158.8,63.9,157.1,65.1z"/>
		<path class="st2" d="M82.2,76.5c0-0.7-0.3-1.3-0.8-1.8c-0.5-0.5-1-0.6-1.6-0.7c-0.3-0.1-0.7-0.1-1.1-0.1c-0.2,0-0.3,0-0.5,0.1
			c0,0,0,0,0,0c-0.5,0.1-0.9,0.4-1.2,0.7c-0.1,0.1-0.1,0.2-0.2,0.2c0,0,0,0,0,0c-0.2,0.3-0.4,0.6-0.4,0.9c-0.1,0.2-0.1,0.4-0.1,0.6
			c0,0,0,0.1,0,0.1c0,0.5,0.2,1.1,0.5,1.5c0.3,0.4,0.7,0.8,1.2,1c0.3,0.1,0.6,0.2,0.9,0.2c0.3,0,0.6,0,0.9-0.1
			c0.6-0.1,1.1-0.3,1.6-0.7C81.9,77.8,82.2,77.2,82.2,76.5z"/>
		<path class="st2" d="M107.9,74.6c0-0.2-0.1-0.4-0.1-0.6c-0.1-0.4-0.3-0.8-0.6-1.1c-0.4-0.4-1.1-0.7-1.7-0.7
			c-0.6,0-1.1,0.2-1.5,0.6c-0.1,0.1-0.3,0.1-0.4,0.2c-0.8,0.5-1.3,1.3-1.3,2.3c0,0.9,0.5,1.8,1.3,2.3c0.8,0.5,1.8,0.5,2.7,0
			c0,0,0,0,0,0c0.2-0.1,0.3-0.2,0.4-0.2c0.4-0.2,0.7-0.6,1-1C107.9,75.9,108,75.2,107.9,74.6z"/>
		<path class="st2" d="M106.8,88.9c-0.4-0.4-1-0.4-1.5,0c-1.7,1.6-1.7,4.5-3,6.5c-1.5,2.2-4,3.7-6.5,4.4c-2.5,0.7-5.1-0.7-7-2.3
			c-0.7-0.6-1.1-1.6-1.7-2.3c-0.6-0.7-1.7-1.6-2.1-2.5c-0.5-1.3-2.3-1.1-2.5,0.3c-0.1,1.3,0.5,2.5,1.1,3.6c0.6,1.2,1.2,2.2,2,3.3
			c2.2,2.8,6,4.6,9.5,4.3c3.8-0.3,7.3-2.5,9.8-5.3C107.2,96.5,109.7,91.6,106.8,88.9z"/>
	</g>
</g>
</svg>
