<svg xmlns="http://www.w3.org/2000/svg" viewBox="0 0 396.873 241.435"><title>planeta</title><g id="Capa_2" data-name="Capa 2"><g id="Objects"><path d="M369.683,49.144c-7.582-9.66-23.478-9.568-34.4-9.114-13.484.562-27.143-.687-37.009,10.227-9.629,10.655-.206,26.4,13.666,23.476a134.7,134.7,0,0,1,23.344-2.459c3.5-.136,6.967-.192,10.465-.044-1.67,5.884-7.815,11.726-12.7,14.775q-13.059,8.137-26.181,16.261c-7.345,4.571-17.32,8.855-25.37,11.9-10.271,3.879-19.608,9.99-29.65,14.421-19.566,8.635-38.114,19.42-57.556,28.331A272.89,272.89,0,0,1,135.267,176c-18.551,3.81-36.006,10.4-55.081,11.308-7.973.38-16.555-.185-23.968-3.415-6.261-2.728-10.113-3.079-7.017-9.291,3.111-6.24,8.023-11.421,12.8-16.4,5.922-6.163,11.71-14.736,18.536-19.753,5.663-4.164,6.383-12.18,0-16.21C61.3,110.1,36.492,141.278,26.405,154.993c-6.315,8.586-9.894,19.166-8.375,29.785,1.8,12.616,12.238,20.03,22.755,25.524,22.649,11.829,50.286,8.006,74.188,2.851,28.571-6.166,57.014-13.657,84.114-24.75,26.744-10.952,53.305-24.422,78.979-37.668,5.877-3.03,12.708-5.655,18.294-9.088,6.331-3.889,13.276-5.35,19.733-8.77,12.119-6.414,23.8-14.328,35.426-21.581C371.959,98.551,386.037,69.971,369.683,49.144Z" fill="#4674ab"/><path d="M303.979,86.5c-1.019-11.534-5.873-22.186-11.8-32.041-11.749-19.522-35.588-29.875-56.766-35.2-11.866-2.989-24.1-2.6-36.2-3.271-13.075-.728-25.1-.079-37.846,3.076C137.7,24.92,116.416,36.846,102.216,56.945c-14.9,21.091-22.822,50.717-19.81,76.236,1.859,15.744,6.672,39.522,24.229,42.931a15.426,15.426,0,0,0,16.54.651c10.239-6.081,23.071-8.142,34.2-12.441,13.817-5.338,27.945-9.68,41.724-15.19,13.694-5.474,27.6-10.121,41.471-15.126,13.846-5,26.639-12.206,39.67-19.015C290.067,109.857,305.133,99.574,303.979,86.5Z" fill="#66c7ab"/><path d="M283.627,151.212c-11.346-2.61-20.388,3.715-29.584,9.437-5.1,3.171-9.306,7.407-14.482,10.549a201.558,201.558,0,0,1-19.428,9.945c-10.275,4.8-20.721,9.614-31.495,13.293-4.7.141-9.163.856-12.941,3.717-12.065,2.438-25.984.059-36.9,4.812l.2.261c-4.139,2.259-6.493,7.386-3.739,13.221,5.658,11.98,24.031,10.8,35.222,10.349a88.231,88.231,0,0,0,16.895-2.435c6.4.659,13.321-.182,18.99-.643,12.752-1.046,25.246-5.574,37-10.391,10.716-4.392,23.359-8.44,33.02-14.78,8.682-5.694,15.682-19.2,17.533-29.2C295.339,161.728,291.941,153.122,283.627,151.212Z" fill="#66c7ab"/><path d="M123.276,132.592c-3.59-3.284-8.467-5.6-13.444-5.271-5.618.369-11.431,3.228-14.517,8.117-6.042,5.43-5.88,15.566-1.715,21.988a17.107,17.107,0,0,0,4.479,6.255c3.781,3.117,7.723,5.071,12.748,5.092a18.938,18.938,0,0,0,12.62-5.189c2.765-2.435,4.33-5.76,5.506-9.163C131.479,147.118,128.909,137.747,123.276,132.592Z" fill="#f29089"/><path d="M279.222,99.415a20.075,20.075,0,0,0-2.419-9.3c-1.859-3.889-5.859-6.317-9.756-7.66-4.54-1.569-10.307-.369-14.262,2.187a24.339,24.339,0,0,0-7.969,8.124,15.8,15.8,0,0,0-2.057,5.022,24.106,24.106,0,0,0-.546,4.548c.336,4.076.5,4.3,2.175,8a15.459,15.459,0,0,0,6.234,6.117,20.806,20.806,0,0,0,4.346,1.713,19.084,19.084,0,0,0,8.882-.067c3.535-.726,6.758-2.984,9.336-5.4a16.178,16.178,0,0,0,3.366-4.63A14.165,14.165,0,0,0,279.222,99.415Z" fill="#f29089"/><path d="M393.533,57.942a51.871,51.871,0,0,0-11.371-16.251c-5.54-5.061-12.836-7.886-19.8-10.337-12.7-4.471-28.45-3.446-41.558-1.141-8.094,1.423-15.586,5.117-23.853,5.773a6.534,6.534,0,0,0-5.372,3.269,67.439,67.439,0,0,0-4.757-5.815,83.371,83.371,0,0,0-7.924-7.122c-3.225-2.682-6.34-6.168-9.892-8.368C244.535,2.8,215.313.1,187.228,1.226c-13.952.556-28.066,2.077-41.3,6.719-13.846,4.858-25.272,14.07-35.429,24.442C99.775,43.327,92.11,55.763,84.31,68.823a75.471,75.471,0,0,0-8.455,19.315c-.654,2.41-1.328,4.838-1.989,7.276a5.887,5.887,0,0,0-.593,1.138,45.481,45.481,0,0,0-2.34,10.778c-.122.585-.246,1.167-.36,1.748a26.277,26.277,0,0,0-3.128,1.359c-2.676,1.466-5.126,3.284-7.8,4.753-2.763,1.515-5.12,4.343-7.8,6.127-2.565,1.707-5.2,3.307-7.754,5.032-8.3,5.61-18.4,12.339-22.962,21.733a111.98,111.98,0,0,0-8.613,10.5c-5.694,7.85-10.293,16.687-11.34,26.444-1.1,10.255,3.017,19.071,9.97,26.4,8.919,9.4,23.308,12.813,35.671,14.249a198.234,198.234,0,0,0,40.561.226,227.814,227.814,0,0,0,35.707-6.491,5.153,5.153,0,0,0,2.415,3.546c-2.67-1.7,1.548,1.72,1.861,1.9q2.611,1.05.394.244a10.017,10.017,0,0,0,1.6,1.53c3.034,2.592,7.8,4.189,11.421,5.814,8.956,4.022,18.42,7.486,28.254,7.888,10.166.418,20.5-.582,30.695-.579,10.6,0,20.445-4.194,30.359-7.5,4.231-1.407,7.922-3.753,12.234-5.066,4.812-1.466,8.994-2.694,13.449-5.13a163.294,163.294,0,0,0,25.677-17.82,70.224,70.224,0,0,0,16.578-19.755c2.754-4.94,8.773-10.583,10.252-16.561.728-.28,1.454-.562,2.182-.838,2.546-5.025,4.967-10.744,5.245-15.926,11.943-6.855,22.844-16.059,33.8-24.2,13.361-9.924,26.252-20.581,36.652-33.664C394.188,83.192,399.009,70.325,393.533,57.942ZM83.361,115.892c.313-2.73.44-5.586.559-8.427.614-2.325,1.277-4.648,1.9-7,2.1-7.945,3.771-15.413,8-22.553,3.608-6.089,7.394-12.073,11.02-18.151,4.033-6.758,9.6-12.685,15.05-18.333C130.132,30.8,141.6,22.679,155.9,18.664c13.408-3.761,27.581-4.048,41.411-4.3A140,140,0,0,1,239.3,19.836a95.765,95.765,0,0,1,18.921,7.812c6.407,3.469,12.387,9.547,17.641,14.587a32.239,32.239,0,0,1,3.624,4.21,156.816,156.816,0,0,1,13.761,16.823,41.825,41.825,0,0,0,1.932,8.832c1.438,4.284,1.742,8.647,3.16,12.913,1.862,5.612,4.276,12.949,4.4,19.5a63.033,63.033,0,0,1-15.922,8.058c-6.967,2.52-13.216,6.884-19.962,9.96-15.144,6.909-30.218,14.115-45.272,21.281-7.2,3.428-14.178,7.2-21.625,10.086-7.621,2.956-15.43,5.389-23.278,7.645-15.177,4.361-30.663,7.46-45.9,11.585a229.852,229.852,0,0,1-28.485,5.832,2.731,2.731,0,0,0-.229-.228c-.061-.051-.109-.085-.159-.123-.078-.149-.173-.321-.307-.551-.613-1.044-1.7-1.549-2.6-2.3a33.636,33.636,0,0,1-4.915-5.407c-.426-.559-1.38-1.872-2.4-3.435-.163-3.138-1.46-6.235-2.7-9.288a4.091,4.091,0,0,0-1.932-5.333A90.985,90.985,0,0,1,83.361,115.892ZM72.943,152.914q.748,2.592,1.641,5.14a51.22,51.22,0,0,0,3.768,8.66,61.864,61.864,0,0,0,7.938,13.777c-8.877.4-24.327-.1-27.061-9.573-1.341-4.643,2.228-8.873,5.571-12.365,1.3-.946,2.575-1.82,3.683-2.628C69.914,154.886,71.421,153.9,72.943,152.914Zm221.279,11.3c-2.939,4.284-6.237,8.35-8.646,12.99-3.724,7.181-9.421,12.78-15.578,17.894a146,146,0,0,1-21.492,14.528c-3.724,2.107-7.586,2.948-11.645,4.186-4.312,1.318-8.121,3.748-12.356,5.161-8.023,2.677-16.218,6.407-24.775,6.407-9.607,0-19.123.518-28.715.782-8.554.236-17.181-2.907-25.019-6.25-1.756-.751-3.475-1.525-5.18-2.389a6.051,6.051,0,0,0-1.713-.521c-.572-.51-1.141-1.02-1.7-1.541,13.034-3.812,25.952-8.083,38.9-11.926,14.95-4.433,29.362-10.337,44.032-15.564,7.451-2.656,15.42-4.184,22.959-6.679,7.807-2.582,15.483-5.566,23.018-8.852,9.544-4.161,19.315-7.814,28.952-11.765C294.912,161.861,294.56,163.036,294.221,164.217ZM382.1,70.64c-.9,6.879-5.38,12.611-9.714,17.715-10.883,12.821-24.531,22.963-38.031,32.823-6.532,4.774-13.09,9.511-19.507,14.441-6.441,4.945-14.322,8.291-21.789,11.37-14.148,5.832-28.28,11.929-42.538,17.461-14.854,5.766-30.385,9.258-45.264,14.893-14.992,5.679-30.176,10.455-45.377,15.51-6.058,2.012-12.1,4.061-18.208,5.907-6.86,2.074-13.926,3.276-20.777,5.3A186.363,186.363,0,0,1,85.4,213.012a208.883,208.883,0,0,1-34.124.166c-10.334-.731-22.123-3.1-30.239-9.944-13.262-11.188-5.95-27.808,2.737-39.345a110.986,110.986,0,0,1,8.86-10.391,84.248,84.248,0,0,1,15.621-17.889c1.594-.928,3.2-1.831,4.787-2.766,5.145-3.041,9.63-6.945,14.706-10.011.814-.492,1.424-.882,1.966-1.22a131.2,131.2,0,0,0,.383,16.343c.065.808.15,1.613.246,2.418A78.408,78.408,0,0,0,58.681,150.6c-4.408,4.779-8.492,9.388-8.866,15.867-.713.8-1.413,1.6-2.085,2.425-.351,7.617,4.447,14.562,11.481,18.569,10.365,5.909,25.3,5.858,36.784,4.456,1.69-.205,3.375-.431,5.056-.659a15.834,15.834,0,0,0,2.432.349,4.122,4.122,0,0,0,3.366-1.195c11.054-1.71,21.953-3.917,32.9-6.491,15.341-3.6,30.759-6.917,45.882-11.383,15.618-4.617,29.83-11.326,44.493-18.261,15.043-7.114,30.095-14.236,45.241-21.1,6.4-2.9,12.213-6.7,18.825-9.129a66.4,66.4,0,0,0,16.138-8.137,4.821,4.821,0,0,0,1.916-1.484c.933-.754,1.847-1.541,2.725-2.389,6.375-6.166,15.367-8.6,20.818-15.931A27.135,27.135,0,0,0,339.456,70.9c-3.223-9.027-11.11-12.9-20.255-12.993-3.94-.041-7.7,1.264-11.59,1.507a15.935,15.935,0,0,0-2.373.356,49.575,49.575,0,0,0-5.8-9.632c-.232-.295-.452-.6-.679-.9,6.189-.285,11.99-1.889,17.93-3.7,7.036-2.146,13.734-2.492,21.021-2.912,6.805-.39,13.239-.436,19.79,1.659,6.351,2.028,14.042,4.9,17.975,10.613C378.6,59.448,382.866,64.857,382.1,70.64ZM314.947,92.278c-1.823-6.407-3.235-13.064-5.068-19.545,4.551-.441,12.62-3.779,15.9.759,3.323,4.612,2,11.56-1.533,15.574-2.46,2.794-5.764,4.838-9.123,6.822A7.241,7.241,0,0,0,314.947,92.278Z" stroke="#000" stroke-miterlimit="10" stroke-width="2"/><path d="M134.287,113.518a6.2,6.2,0,0,0-1.8-4.361,6.042,6.042,0,0,0-3.157-1.661,7.018,7.018,0,0,0-4.6-.359,6.848,6.848,0,0,0-3.041,1.774q-.538.7-1.078,1.395a6.858,6.858,0,0,0-.941,3.479c-.049.431-.1.867-.15,1.3a6.725,6.725,0,0,0,2.063,4.976c.475.367.951.736,1.424,1.1a7.041,7.041,0,0,0,3.556.961.281.281,0,0,0,.067,0,6.982,6.982,0,0,0,3.555-.961,6.553,6.553,0,0,0,1.445-1.146,6.115,6.115,0,0,0,2.57-4.935c0-.12-.015-.236-.024-.356A6,6,0,0,0,134.287,113.518Z"/><path d="M238.295,83.756a7.236,7.236,0,0,0-1.988-4.8,6.787,6.787,0,0,0-9.6,0,7.241,7.241,0,0,0-1.987,4.8l-.213,2.166a11.126,11.126,0,0,0,.623,3.928,6.616,6.616,0,0,0,12.755,0,23.356,23.356,0,0,0,.656-3.563A13.037,13.037,0,0,0,238.295,83.756Z"/><path d="M206.711,113.536c-5.3-1.53-9.179,6.548-11.489,9.973-2.674,3.971-5.772,6.671-10.668,7.194-3.83.41-9.81.039-11.112-4.353-1.75-5.891-10.637-3.443-9.19,2.533,2.274,9.4,12.6,13.018,21.385,12.175,11.185-1.079,17.275-9.16,22.635-18.195C210.107,119.771,211.148,114.815,206.711,113.536Z"/></g></g></svg>