<svg xmlns="http://www.w3.org/2000/svg" viewBox="0 0 278.351 299.302"><title>manzana</title><g id="Capa_2" data-name="Capa 2"><g id="Objects"><path d="M227.818,69.376c-12.019-7.1-25.292-5.687-38.292-2.725-24.263,5.531-48.775,22.088-63.181,43.374-.423-.151-.858-.3-1.31-.418-29.3-7.8-57.068,13.632-74.031,35.917-8.486,11.157-14.214,25.117-11.484,39.182,2.742,14.111,8.418,26.852,16.069,38.947,8.81,13.925,22.425,23.921,34.186,35.084,12.034,11.416,25.011,20.1,41.447,23.18,17.629,3.311,28.681-4.4,38.5-18.137,8.377-11.729,14.636-20.955,28.8-25.143,24.519-7.245,49.363-14.384,58.775-41.093,9.71-27.555,4.269-63.945-5.425-90.73C246.856,92.963,241.122,77.231,227.818,69.376Z" fill="#e54654"/><path d="M83.657,80.667c-.575-.354-1.16-.691-1.737-1.037a11.79,11.79,0,0,0-2.36-6.9c-6.919-9.048-20.4-13.472-30.927-16.813-9.8-3.105-22.9-8.578-33.114-3.913-.555.256-1.072.537-1.582.837C7.453,52.714.7,57.13,2.215,64.621,5.573,81.152,22.321,95.545,34.7,106.046c15.055,12.775,34.472,19.093,53.9,14.814,10.245-2.26,14.769-13.289,12.672-22.555C99.155,88.972,91.055,85.21,83.657,80.667Z" fill="#45bd31"/><path d="M243.207,147.552c.043,0,.087.006.128.006-.388-.334-.821-.567-1.23-.86-.235-.168-.462-.337-.7-.494a17.041,17.041,0,0,0-2.042-1.124c-.109-.047-.219-.1-.331-.145a18.279,18.279,0,0,0-8.338-1.554c-4.908.25-8.912,2.971-12.092,6.472-5.152,5.661-4.626,14.1-.513,19.921a17,17,0,1,0,25.123-22.221Z" fill="#f9907c"/><path d="M95.085,220.156a17.076,17.076,0,0,0-11.127,15.407,15.668,15.668,0,0,0,4.247,11.7,16.9,16.9,0,1,0,6.88-27.107Z" fill="#f9907c"/><path d="M237.318,68.371c-22.066-19.16-52.942-14.826-77.005-2.147-14.165,7.468-29.682,17.664-37.229,31.729-1.734-4.714-3.549-9.391-5.288-14.1-3.91-26.143-7.523-52.271-6.982-78.684.051-2.475-2.245-4.482-4.478-4.967C99.7-1.224,97.084,5.172,96.612,10.54c-.308,3.515-1.629,6.864-1.892,10.445a95.665,95.665,0,0,0,.533,15.421c.95,10.829,1.571,21.533,3.432,32.266A120.44,120.44,0,0,0,102.845,85.2,90.454,90.454,0,0,0,79.3,60.188c-9.5-6.907-22-10.161-33.53-11.172-6.579-.578-12.936.3-19.474.816-4.178.331-8.353.706-12.53,1.057a8.758,8.758,0,0,0-3.535,1.284,3.8,3.8,0,0,0-4.093-.16C-2.973,56.685-.095,67.047,3.064,74.872,7.464,85.765,14.932,96.5,22.6,105.253,33,117.1,48.378,122.739,63.58,125.229c-13.986,10.7-24.925,24.888-30.244,43.025-5.929,20.208,1.693,41.863,11.119,59.692a222.527,222.527,0,0,0,27.591,40.707c10.086,11.773,22.191,22.465,37.033,27.621,18.437,6.414,36.943,2.153,53.01-8.252,9.51-6.161,16.833-14.056,25.328-21.411,9.4-8.13,19.953-13.623,31.322-18.465,9.516-4.043,19.385-7.178,28.907-11.195,6.122-2.585,11.253-6.123,13.071-11.436.11-.082.221-.137.33-.227,22.6-18.326,18.813-56.709,12.261-81.754C266.3,116.721,259.11,87.293,237.318,68.371ZM39.191,100.03C31,94.781,24.39,86.8,18.092,79.546,16.711,77.957,6.018,62.765,9.456,61.179a4.933,4.933,0,0,0,2.015-1.667A30.572,30.572,0,0,1,20.631,58c5.734.192,11.362,0,17.084-.055,11.743-.1,25.044,3.764,34.622,10.6,9.718,6.934,15.941,17.919,20.571,28.644,1.31,3.035,2.411,6.771,3.651,10.553q-5.233,1.852-10.28,4.119c-3.676-.413-7.334-1.084-10.947-1.676C63,108.137,50.046,106.984,39.191,100.03Zm216.866,47.222c2.215,11.625,3.518,23.436,2.661,35.267-.79,10.878-4.51,21.03-6.392,31.639a19.239,19.239,0,0,0-6.576,3.619c-3.053,2.6-7.9,3.5-11.6,4.787-8.248,2.867-16.4,6.048-24.445,9.452-17.822,7.547-32.408,18.015-46.04,31.688-11.807,11.837-28.578,19.7-45.259,16.017C106.465,277.089,96.4,267.9,88.216,259.359,79.542,250.3,72.492,239.545,65.7,229.065c-9.355-14.428-18.454-32.864-17.1-50.54,1.258-16.5,11.134-31.133,22.409-42.537q4.211-4.257,8.684-8.075c10.277,1.673,21.764,2.693,29.559-2.234a5.608,5.608,0,0,0,6.068-3.248,43.683,43.683,0,0,0,6.379,12.929,6.219,6.219,0,0,0,11.191-4.046c-.3-8.5-3.734-16.606-6.665-24.6,3.477-5.516,8.963-10.056,14.14-13.818A160.378,160.378,0,0,1,168.29,76.269c22.316-10.085,48.35-12.534,65.18,8.188C247.294,101.48,252.055,126.24,256.057,147.253Z"/><path d="M113.014,180.4a10.028,10.028,0,0,0-7.651-.354A10.362,10.362,0,0,0,99.056,187c-.07.131-.148.25-.212.389a9.88,9.88,0,0,0-.344,7.535c1.75,4.839,7.676,8.032,12.624,5.92a12.437,12.437,0,0,0,5.025-3.433c1.417-1.362,1.936-3.4,2.47-5.182.578-1.926.08-4.325-.444-6.184A9.731,9.731,0,0,0,113.014,180.4Z"/><path d="M197.78,137.847c-3.047-1.432-7.432-1.374-10.113.895a13.1,13.1,0,0,0-3.828,4.378,12.182,12.182,0,0,0-.855,2.881,10.047,10.047,0,0,0,3.766,9.5,8.693,8.693,0,0,0,8.322,1.49,10.113,10.113,0,0,0,2.709-19.14Z"/><path d="M185.8,180.863c-2.022,1.633-4.311,3.32-4.919,6a50.7,50.7,0,0,1-4.53,12.255c-2.167,4.473-4.831,11.6-9.7,13.925-4.728,2.257-12.6,1.333-15.158-3.756-1.087-2.164-4.668-.956-3.606,1.3,4.122,8.79,17.283,16.023,26.484,9.867,6.72-4.494,10.5-11.195,14.808-17.827,4.33-6.672,2.643-11.906,2.254-19.125C191.3,180.887,187.929,179.147,185.8,180.863Z"/></g></g></svg>