<svg xmlns="http://www.w3.org/2000/svg" viewBox="0 0 409.601 404.957"><title>art15</title><g id="Capa_2" data-name="Capa 2"><g id="Objects"><path d="M86.934,35.627c-4.917-2.089-9.872-4.872-15.047-6.241a.114.114,0,0,1-.016-.01,7.052,7.052,0,0,0-4.992-.791,18.743,18.743,0,0,0-4.844.4,4.462,4.462,0,0,0-2.7.892A4.719,4.719,0,0,0,54.973,32.1c-5.336,9.626,6.715,19.612,14.75,25.527-.472.469-.945.94-1.418,1.392-1.192,1.137-2.334,2.18-3.449,3.4a2.429,2.429,0,0,1-.41.415q-.6.258-1.185.553C57.9,65.163,51.272,67.114,48.252,72.34c-4.378,7.575.154,15.028,8.771,15.18a14.653,14.653,0,0,0,2.565-.2A37.329,37.329,0,0,0,57.5,98.875c-.173,7.415,7.825,9.643,13.432,6.861,4.483-2.226,8.058-6.167,10.911-10.172a5.3,5.3,0,0,0,.823-1.893c2.1-2.835,4.04-5.828,5.83-8.744,3.979-6.481,7.475-13.106,7.428-21.016a6.808,6.808,0,0,0-1.255-3.942,8.2,8.2,0,0,0-.558-4.8,9.264,9.264,0,0,0,4.79-5.891C100.994,41.672,92.38,37.942,86.934,35.627Z" fill="#c06140"/><path d="M293.591,85.442c-1.167-4.134-2.792-8.1-4.185-12.159-1.479-4.31-1.752-9.278-3.829-13.336a152.468,152.468,0,0,0-12.919-21.178c-5.334-7.22-11.261-11.594-18.556-16.651-7.372-5.11-16.462-6.7-23.947-11.324a6.754,6.754,0,0,0-3.161-1.054l-.145-.063a41.161,41.161,0,0,0-5.477-1.738c-.269-.07-6.706-1.013-2.835-.487-2.3-.314-4.6-.677-6.913-.891-3.851-.353-7.273.477-9.795,2.681-.935-3.242-3.982-5.8-7.04-5.21a12.087,12.087,0,0,0-4.321-1.273c-6.263-.644-13.364,1.392-19.233,3.479-4.09,1.454-8.254,2.762-12.311,4.468-5.6,2.354-10.559,5.825-16.047,8.28-10.135,4.534-18.8,11.644-27.121,18.855-7.1,6.151-15.461,14-13.937,24.03.768,5.056,7.37,5.121,10.047,1.778,1.124,2.925,3.678,5.176,7.267,4.766,6.374-.726,11.314-4.127,16.157-7.839,3.037-1.747,6.08-3.484,9.2-5.086a244.946,244.946,0,0,1,24.882-10.581c7.011-2.661,14.666-3.655,20.854-8.116.934-.673,1.85-1.388,2.735-2.137a96.535,96.535,0,0,0,5.853,9.227c9.357,13.218,22.207,24.833,35.344,34.22,6.509,4.652,14.163,7.921,21.609,10.754,7.327,2.79,13.415,8.735,22.015,6.489a16.763,16.763,0,0,0,3.432-1.314C286.511,97.619,295.824,93.349,293.591,85.442Z" fill="#c06140"/><path d="M358.481,93.356c-10.223-3.078-21.25-.909-31.545-3.638-4.568-1.211-8.381-1.7-12.962.165-5.289,2.153-8.75,6.61-7.272,12.453.779,3.085,3.952,4.9,6.947,4.822,2.333,4.325,2.691,8.581,1.751,14.2-.947,5.656-5.939,10.786-11.268,12.56-4.577,1.524-9.431-.24-13.919,2.463-5.407,3.257-4.991,9.517-2.664,14.5.478,12.551,5.431,30.6,18.277,35.051,7.243,2.511,15.341-1.794,15.412-10.065.016-1.669-.055-3.208-.125-4.793,3.811.889,8,.717,11.295-1.285,9.654-5.872,9.589-15.431,6.891-24.775.417.131.834.262,1.267.4a16.683,16.683,0,0,0,15.657-2.453c8.795-6.832-4.882-22.39-9.7-27.2-.612-.611-1.222-1.2-1.844-1.773,2.291-.51,4.609-.885,7-1.226,5.689-.812,11.14-2.156,13.388-8.064C366.984,99.661,363.208,94.779,358.481,93.356Z" fill="#c06140"/><path d="M294.032,106.057a8.094,8.094,0,0,0-1.2.15,7.833,7.833,0,0,0-7.841-2.166c-.214.064-.411.151-.619.226-1.894-8.351-7.194-15.187-16.8-18.652-5.693-2.055-12.195-2.193-18.169-2.735a55.568,55.568,0,0,1-20.43-5.509c-19.174-9.719-30.77-34.813-54.261-34.613-10.45.088-20.488,6.193-29.815,10.257-8.6,3.747-16.247,7.011-25.41,7.025a9.988,9.988,0,0,0-1.705-.153h-1.854c-4.247,0-6.9,2.214-8.041,5.085C103.071,68.492,100,73.749,97.023,79.15c-4.058,7.37-9.006,14.46-9.622,23.139a6.975,6.975,0,0,0,2.211,5.607c-2.806,13.084-3.126,26.739,1.46,39.461,5.366,14.893,17.4,26.5,30.817,34.344,14.3,8.361,31.216,11.248,47.419,13.3,2.334.3,4.681.529,7.038.711a5.8,5.8,0,0,0-4.27,4.851,14.536,14.536,0,0,0,2.19,10.977,32.469,32.469,0,0,0,3.194,3.915c.507.553,1.011,1.1,1.506,1.667-1.1-1.256.13.367.287.677,2.982,5.893,11.126,4.873,14.352,0a30.056,30.056,0,0,0,4.835-19.749,10.855,10.855,0,0,0-.543-2.383A112.391,112.391,0,0,0,220.32,191.5c16.025-4.763,30.657-13.88,41.28-26.84,8.474-10.34,16.217-22.814,20.475-35.833.362.356.728.708,1.106,1.02a25.723,25.723,0,0,0,2.484,1.85c-2.328-1.479.839.627,1.544,1.125a13.891,13.891,0,0,0,6.853,2.052c8.612.412,17.954-7.431,17.664-16.287C311.421,109.248,302.029,105.73,294.032,106.057Z" fill="#ffeccb"/><path d="M245.25,254.65c-3.189-7.3-6.466-13.8-8.634-21.493-2.428-8.613-5.017-17.1-7.845-25.594-2.139-6.423-6.2-12.2-13.84-10.5-6.907,1.536-10.83,4.173-15.386,9.616a17.154,17.154,0,0,0-3.768,8.744c-.474,3.228.008,7.139-1.428,10.137-.139.292.043.375.264.379-.234.06-.553.148-1.008.282a19.164,19.164,0,0,1-3.292.654c-3.649.41-5.074-.427-8.253-2.169l-.787-.475a38.14,38.14,0,0,0-.476-4.02c-.8-3.929-2.841-6.508-6.052-8.812a6.348,6.348,0,0,0-4.7-1.126c-.055-1.446-.135-2.892-.247-4.34-.629-8.058-11.618-7.927-12.418,0-.633,6.266-1.7,12.414-2.459,18.61-1.055,3.732-2.455,7.354-2.465,11.432v.429c-.052.486-.119.969-.145,1.459-.37,6.918-1.909,13.654-1.975,20.606-.065,6.7.043,12.1,6.765,15.368.715.347,1.452.649,2.2.924.091.046.167.106.261.151a9.388,9.388,0,0,0,4.188.921c1.268.159,1.03.173-.765.036,2.681,1.484,4.6,4.391,6.432,6.759,3.923,5.058,8.2,9.715,15.208,8.272,5.812-1.2,9.637-6.013,15.316-7.15a101.543,101.543,0,0,1,20.112-2.38c3.383,0,7.127-.454,10.476.019,3.077.435,6.084,2.2,8.98,3.245,5.34,1.917,9.683-2.955,10.166-7.745C250.458,269.125,248.332,261.706,245.25,254.65Z" fill="#e54654"/><path d="M97.406,347.679c-1.178-5.412-4.495-12.948-11.287-12.3-9.6.922-10.386,10.021-8.865,17.665,1.494,7.509,3.432,17.02,13.5,17.7a5.394,5.394,0,0,0,3.49-.923,7.1,7.1,0,0,0,4.974-6.69C99.552,358.092,98.472,352.574,97.406,347.679Z" fill="#ed7a89"/><path d="M178.039,359.74c-3.98-3.467-9-2.4-13.41-.339-5.027,2.356-7.052,5.941-8.931,11.006-1.7,4.589-3.748,10.905-2.025,15.621-.864,3.765.657,7.9,4.921,8.95,10.041,2.477,17.724-5.1,21.45-13.681C182.78,375,183.86,364.813,178.039,359.74Z" fill="#ed7a89"/><path d="M90.516,326.235c-12.391-3.519-27.318-5.7-40.389-3.69a5.538,5.538,0,0,0-7.3,3.631c-.1.365-.2.733-.3,1.1a6.1,6.1,0,0,0,.941,5c-.654,3.361-1.4,6.71-2,10.086-.8,4.5,1.883,8.652,6.7,8.8,5.766.174,11.167.785,16.645-1.551a9.859,9.859,0,0,0,5.343-4.787c.409-.9.75-2.009,1.18-2.9a31.069,31.069,0,0,0,1.646-2.751,8.5,8.5,0,0,0,.6-2.014c2.971.494,5.925,1.1,8.88,1.758A176.354,176.354,0,0,1,99.5,343.97c2.615.867,6.352,2.419,7.591,5,3.96,8.255,16.17,1.049,12.254-7.163C114.653,331.963,99.868,328.891,90.516,326.235Z" fill="#d3dad8"/><path d="M268.809,320.577c-.768-3.381-5.539-4.233-7.575-1.649a5.409,5.409,0,0,0-1.2.9,5.887,5.887,0,0,0-1.543,2.507c.334-1.162-.2.137-.321.35-.215.387-.414.787-.619,1.18-.182.346-.689,1.488-.769,1.692-.073.151-.148.308-.219.46-4.64,2.176-8.16,7.722-11.149,11.418-5.485,6.784-10.206,14.12-15.889,20.755-5.115,5.973-10.738,11.356-16.3,16.89-1.133,1.127-2.291,2.3-3.362,3.537a7.574,7.574,0,0,0-1.829-1.657c3.378-.969,5.274-5.475,4.317-8.631-1.53-5.042-6.272-11.354-10.119-14.881-5.173-4.745-12.855-6.547-19.534-7.9-8.142-1.648-16.718-1.459-24.976-1.1a114.641,114.641,0,0,0-11.741,1.106c-2.931.427-4.333,2.41-6.117,4a3.865,3.865,0,0,0-.6.674c-.031.014-.064.025-.1.04a8.495,8.495,0,0,0-5.843-1.779,6.371,6.371,0,0,0-3.854,11.293c.048.209.1.418.145.627a9.079,9.079,0,0,0,2.476,4.348c3.193,3.151,8.081,2.44,11.51.138q1.054-.809,2.1-1.63c1.192-.93,1.15-.262.184.046-.063.02,2.559.217,3.419.311a9.932,9.932,0,0,0,10.356-5.474c4.479.088,8.961.073,13.445.285a43.274,43.274,0,0,1,7.689,1.12,6.271,6.271,0,0,0-.133,2.388c.525,4.167,2.192,6.168,4.309,9.6a6.872,6.872,0,0,0,1.1,1.3c-3.549,3.595-2.731,11.19,3.2,12.936,4.441,1.306,8.511,3.639,13.04,4.615a8.554,8.554,0,0,0,3.2.111c.046.249.084.5.149.749a3.518,3.518,0,0,0,5.117,2.083c4.834-2.764,8.574-7.2,12.97-10.656a114.623,114.623,0,0,0,16.62-16.746c5.021-6.026,9.395-12.566,13.952-18.939,2.686-3.753,7.565-8.452,9.586-13.32a9.015,9.015,0,0,0,4-5.92c.222-1.092.574-2.184.686-3.3a7.2,7.2,0,0,0,.275-.8A6.043,6.043,0,0,0,268.809,320.577Z" fill="#d3dad8"/><path d="M138.547,316.875c4.108-3.49,7.635-7.243,12.772-9.135,4.917-1.81,9.075-5.385,9.075-11.069,0-6.076-5.125-10.386-9.35-13.958a68.676,68.676,0,0,0-34.978-15.506c-12.485-1.678-25.555-.463-37.748,1.922a6.642,6.642,0,0,0-4.936,6.481c.036.394.071.79.107,1.183.013.149.054.275.073.418-5.349,3.845-9.923,7.236-14.356,12.369-5.01,5.8-19.778,15.562-9.867,23.937,5.624,4.752,12.379,2.277,18.938,1.9,7.7-.445,14.2-.3,21.708,1.491,5.515,1.317,13.029,1.026,17.216,5.206,2.412,2.407,2.586,2.354,4.109,5.216a10.509,10.509,0,0,0,6.915,5.531,8.028,8.028,0,0,0,8.875-3.61A57.116,57.116,0,0,1,138.547,316.875Z" fill="#fff"/><path d="M260.868,303.094c-10.828-10.119-24.96-13.564-39.437-14.685-8.222-.637-16.36.075-24.542.811a68.213,68.213,0,0,0-11.492,1.525c-3.53.917-7.02,2.459-10.676,2.791a7.03,7.03,0,0,0-6.081,4.4,33.677,33.677,0,0,0-4.469,2.286,32.345,32.345,0,0,0-8.091,6.736c-3.7,4.37-8.491,7.813-12.793,11.546-3.888,3.374-6.555,7.849-10.392,11.333-4.009,3.644-5.886,7.479-4.816,12.917.779,3.959,5.89,6.943,9.712,5.515,11.054-4.129,22.991-1.118,34.564-.955,9.693.137,23.185,2.705,28.762,11.462,2.083,3.271,7.148,5.4,10.648,2.792a22.582,22.582,0,0,0,6.122-6.974c1.05-1.746,3.885-4.329,5.853-5.972a31.863,31.863,0,0,0,6.468-7.341c1.805-2.75,5.89-5,8.437-7.091,6.079-4.99,11.332-11.023,18.014-15.281,2.936-1.871,5.648-2.422,6.853-6.259A9.334,9.334,0,0,0,260.868,303.094Z" fill="#fff"/><path d="M76.551,351.658c-6.057-3.444-14.824-1.259-21.5-.881-1.408.082-13.377,1.789-13.275-.656.142-3.408-5.539-4.266-6.026-.816-.929,6.588,4.157,8.655,9.879,9.192a89.057,89.057,0,0,0,13.939-.023c5.43-.353,12.208.076,16.98-2.794A2.352,2.352,0,0,0,76.551,351.658Z" fill="#e54654"/><path d="M99.552,353.647c-2.464.448-2.274,4.2,0,4.775a234.412,234.412,0,0,0,25.111,5.251c1.932.27,4-.124,5.008-2.037C135.752,350.061,103.939,352.847,99.552,353.647Z" fill="#e54654"/><path d="M148.116,366.209c-1.509-1.781-3.554-2.24-5.772-2.5-1.735-.2-2.767-.112-4.209-1.213-2.1-1.606-5.413-.329-6.624,1.737s-.685,5.574,1.737,6.626c3.907,1.694,8.23,1.413,12.423,1.251A3.5,3.5,0,0,0,148.116,366.209Z" fill="#e54654"/><path d="M211.351,395.1a1.6,1.6,0,0,0-1.971-.255l-.189.136a20.331,20.331,0,0,1-1.894-1.9c-1.881-1.955-4.662-3.281-7.006-4.608-5.843-3.3-11.638-7.371-18.474-8-5.069-.47-5.052,7.48,0,7.909,5.2.441,9.9,4.652,14.554,6.8a103.805,103.805,0,0,1,9.224,5.241C209.579,402.763,214.623,399.182,211.351,395.1Z" fill="#e54654"/><path d="M151.28,207.784c-.344-4.352-.663-8.623-4.3-11.6A24.723,24.723,0,0,0,133.74,190.9a11.913,11.913,0,0,0-1.6-.123,8.724,8.724,0,0,0-2.631.363,5.936,5.936,0,0,0-6.11,1.219c-2.162,1.832-2.876,4.5-3.542,7.16A20.181,20.181,0,0,1,117,205.366c-3.31,5.281,1.043,11.79,6.868,11.969a30.032,30.032,0,0,1,8.576,1.78,14.688,14.688,0,0,0,12.493,1.6C150.68,218.68,151.7,213.161,151.28,207.784Z" fill="#ed7a89"/><path d="M260.044,205.56c-2.315-2.972-6-3.78-9.59-3.775-1.59,0-3.182.356-4.772.423-2.108.089-4.711-1-6.9-1.251-.017,0-.03-.007-.048-.01l-.148-.018a6.37,6.37,0,0,0-3.765.62,4.776,4.776,0,0,0-3.813,1.435l-.434.4a5.078,5.078,0,0,0-1.322,5c1.692,5.4,3.164,11.332,5.418,16.5,1.346,3.085,5.389,4.6,8.461,4.778,2.848.169,6.93-1.147,9.5.24a7.4,7.4,0,0,0,11.022-6.325C263.745,217.364,264.069,210.724,260.044,205.56Z" fill="#ed7a89"/><path d="M104.494,53.737a3.722,3.722,0,0,0-3.978-5.7c-4.012,1.032-5.968,3.681-7.27,7.489a20.718,20.718,0,0,0-.963,5.7,6.542,6.542,0,0,0,.9,3.705l-.111-.167a4.261,4.261,0,0,1,.275.519c1.775,4.525,7.418,4.516,9.2,0,.09-.23.182-.458.274-.687.443-1.1-.468,1.171.129-.011a12.507,12.507,0,0,0,.943-5.411c.01-.548.05-1.1.094-1.642.036-.364.073-.729.111-1.092q-.144.781.028-.183c.133-.775.26-1.549.34-2.334q-.117.783,0-.053C104.479,53.819,104.484,53.785,104.494,53.737Z" fill="#e54654"/><path d="M93.078,64.763c-.206-.338-.359-.538,0,0Z" fill="#e54654"/><path d="M306.954,81.884a6.175,6.175,0,0,0-2.977-.869c-.032-.094-.053-.189-.09-.282-1.225-3.009-5.121-3.961-7.026-.918-1.656,2.645-3.39,5.033-4.208,8.148a35.8,35.8,0,0,0-.863,5.836l-.05.028c-.129,0-.29-.007-.525-.017-6.861-.279-8.574,11.04-1.64,12.124a14.554,14.554,0,0,0,11.7-3.168,5.7,5.7,0,0,0,3.9-4.122,34.934,34.934,0,0,0,4.8-9.331A6.581,6.581,0,0,0,306.954,81.884Z" fill="#e54654"/><path d="M200.959,132.686c-6.158-2.031-12.387-.055-18.666-.026a175.333,175.333,0,0,1-26.338-1.8c-5.624-.825-11.744-2.151-17.224-.365-6.23-2.29-13,6.156-7.573,12.225,4.115,4.6,5.867,9.993,11.3,13.548a10.833,10.833,0,0,0,3,1.38c.8.668,1.627,1.313,2.483,1.919,6.574,4.644,14.112,5.4,21.747,7.124,3.837.863,7.449,2.112,11.408,2.487,4.014.38,10.893.99,14.415-1.512,6.42-4.563,11.737-10,14.183-17.646A13.9,13.9,0,0,0,200.959,132.686Z" fill="#f28e7e"/><path d="M128.281,84.1a3.534,3.534,0,0,0-3.475-3.476,3.484,3.484,0,0,0-3.422,3.184.305.305,0,0,1-.017.034c.034-.237.019-.219-.04.061a.294.294,0,0,1-.01.035c-.074.127-.153.249-.23.371a6.783,6.783,0,0,0-.987,2.49c-.331,2.071.5,4.132,2.688,4.734a3.885,3.885,0,0,0,4.871-3.712c0-.069,0-.142,0-.214.068-.256.177-.5.27-.756A6.577,6.577,0,0,0,128.281,84.1Z"/><path d="M221.424,93.094a3.737,3.737,0,0,0-1.092-2.634,3.639,3.639,0,0,0-2.107-1.019,6.2,6.2,0,0,0-1.524-.3,3.824,3.824,0,0,0-2.8,1.159,4.209,4.209,0,0,0-1.159,2.8,9.18,9.18,0,0,0-.111,1.847c.05.362.1.721.144,1.083a4.07,4.07,0,0,0,6.8,1.793l.636-.822a4.027,4.027,0,0,0,.537-1.776A3.738,3.738,0,0,0,221.424,93.094Z"/><path d="M219.1,120.927c-2.21-2.712-6.635-2.855-9.69-2.972a293.806,293.806,0,0,0-29.992.547c-17.372,1.092-35.131,1.971-52.405-.827a2.225,2.225,0,0,0-2.252,3.026c-4.031,5.781-2.249,15.231-.082,21.446a48.891,48.891,0,0,0,14.55,20.939c7.183,6.085,15.724,8.7,24.685,9.765,8.665,1.028,18.158,1.46,26.709-.576,8.393-2,14.907-7.425,20.028-14.68,5.653-8.008,8.124-16.524,10.753-25.988A11.234,11.234,0,0,0,219.1,120.927Zm-3.681,12.29a57.614,57.614,0,0,1-1.876,6.824,54.757,54.757,0,0,1-7,13.636,29.35,29.35,0,0,1-22.837,13.371c-4.276.352-8.631-.154-12.911-.309a62.01,62.01,0,0,1-14.919-2.223c-8.753-2.5-15.867-8.706-21.01-16.592a39.632,39.632,0,0,1-5.121-11.584,26.913,26.913,0,0,1-.814-6.027c-.076-2.341.609-4.495.708-6.779.017-.43.012-.853,0-1.276,19.835,3.109,39.948,2.025,59.9,1.166,5.008-.216,10.019-.261,15.026-.016,3.4.166,10.226-.931,11.842,3.262C217.182,128.646,215.809,131.292,215.424,133.217Z"/><path d="M409.343,151.246a2.988,2.988,0,0,0-4.942-1.306c-3.292,3.2-3.331,9.354-6.308,12.066.087-1.209.127-2.345.2-3.249.386-5.1-.961-9.571-2.735-14.283-.949-2.515-4.818-1.562-4.095,1.13a35.319,35.319,0,0,1,1.04,11.917,47.3,47.3,0,0,1-1.1,5.407c-6.52-1.679-9.273-7.117-10.831-13.46-.488-1.985-3.663-2.076-4.093,0-2,9.637,3.42,17.155,12.075,20.221-1.38,3.61-2.372,7.455-4.083,10.861-2.627,5.233-6.362,9.315-10.692,13.18-8.922,7.974-19.51,13.361-30.559,17.735-11.745,4.651-24.369,6-36.892,6.469-12.639.476-26.1,1.282-38.487-1.839.029-.16.048-.32.082-.477.358-1.691,1.52-4.616,1.066-6.3-1.02-3.8-4.4-4.889-7.85-5.957a42.327,42.327,0,0,0-7.019-1.287,69.338,69.338,0,0,0-8.665-1.024,55.8,55.8,0,0,1-13.41-1.747,96.21,96.21,0,0,0,22.093-10.5c14.178-9.188,23.6-22.665,29.633-38.269.153-.4.3-.808.447-1.211q.211.941.476,1.863l-.008.026c-1.055,3.676-.711,7.056.154,10.747.75,3.2,1.657,7.231,3.276,10.1,3.444,6.1,6.538,12.565,12.06,17.109,5.985,4.927,13.368,4.22,19.849.567,4.462-2.514,5.984-6.611,6.6-11.086,3.67.477,7.868-1.066,11.149-2.829a16.1,16.1,0,0,0,6.712-6.368c2.054-3.768,1.373-8.19.637-12.2-.234-1.274-.755-2.537-1-3.819.476.048.952.109,1.423.2a13.229,13.229,0,0,0,2.805.171,26.312,26.312,0,0,0,11.271-3.867c3.378-2.049,5.545-5.379,7-8.951,1.6-3.924-.066-8.3-2.737-11.325-2.323-2.627-5.237-4.706-7.883-7a17.57,17.57,0,0,1-3.39-3.663,2.216,2.216,0,0,1-.225-.435,9.025,9.025,0,0,1,1.732-.717c6.825-2.543,14.9-4.407,16.943-12.519,2.09-8.311-6.531-13.43-12.571-16.605-7.55-3.967-16.591-4.558-24.944-4.007-7.448.492-15.029.342-21.723,3.2-.083-.52-.178-1.037-.282-1.542-.685-3.305-3.6-6.3-6.437-7.913-2.823-1.6-5.752-3.847-9.038-4.139a49.242,49.242,0,0,0-1.367-6.863c-.848-3.182-1.257-6.449-2.084-9.646-3.259-12.618-10.745-24.141-20.266-32.931a117.583,117.583,0,0,0-16.084-11.814c-5.973-3.852-12.3-5.382-18.984-7.511-6.64-2.116-13-4.157-19.916-5.162a47.054,47.054,0,0,0-9.214-.3,21.329,21.329,0,0,0-3.893.263c-1.044.258-2.008.788-3.067.954-2.5.39-1.41,4.109,1.04,3.774,2.094-.29,3.712-.894,5.92-.782a59.228,59.228,0,0,1,8.987,1.184c6.4,1.318,12.409,3.66,18.552,5.84,3.013,1.07,6.055,2.036,9.139,2.877,2.858.78,5.721,2.841,8.187,4.422A104.292,104.292,0,0,1,268.4,30.313a62.6,62.6,0,0,1,17.615,30.429c.7,2.862.971,5.788,1.692,8.64a40.345,40.345,0,0,1,1.243,8.853c.089,3,.91,5.883.885,8.9a46.256,46.256,0,0,0,.179,4.951q-2.053-.425-4.121-.743a58.648,58.648,0,0,0-2.377-8.034c-1.116-2.989-6.067-2.793-5.888.8.1,2.114.3,4.218.538,6.319-6.337-.606-12.706-1.008-18.981-2.347-10.965-2.338-20.956-7.1-30.571-12.748-8.535-5.014-16-11.545-22.917-18.578A102.35,102.35,0,0,1,195.96,45.2c-1.031-1.408-1.991-2.792-2.925-4.173-.388-.689-.756-1.389-1.1-2.107-.859-1.817-1.089-3.924-2.265-5.569a2.06,2.06,0,0,0-3.507,0c-2.261,3.619.055,8.631,1.888,11.96,1.353,2.461,3.61,6.484,6.4,8.246,1.392,1.871,2.844,3.7,4.438,5.471a123.7,123.7,0,0,0,24.358,21.2A110.29,110.29,0,0,0,255,94.639c7.635,2,16.025,3.526,24.159,3.233.7,4.817,1.422,9.629,1.739,14.5a92.664,92.664,0,0,1-2.233,28.406c-4.061,16.347-13.8,31.2-27.746,40.687-27.115,18.453-64.5,18.965-95.5,12.387-15.035-3.192-29.5-8.9-42-17.923-11.933-8.606-20.2-21.5-24.672-35.377a83.8,83.8,0,0,1-1.755-44.34c1.868-8.166,4.155-15.591,8.291-22.921a52.911,52.911,0,0,1,5.741-8.142,11.2,11.2,0,0,0,4.463,1.313c3.733.388,6.864,1.062,10.675.477a146.523,146.523,0,0,0,24.176-5.544c7.462-2.491,14.829-5.381,22.227-8.057a122.118,122.118,0,0,0,11.206-4.9c3.775-1.813,8.156-4.179,10.987-7.311,1.008-1.115.425-3.4-1.34-3.238-3.483.325-6.808,1.757-10,3.135-3.539,1.532-7.141,3-10.747,4.372-7.046,2.682-14.169,5.222-21.25,7.819-6.87,2.519-13.77,3.871-20.866,5.492a45.467,45.467,0,0,1-10.6,1.6c-1.527-.011-2.929-.455-4.47-.371a9.4,9.4,0,0,1-3.6-.524,2.288,2.288,0,0,0-.573-.281,4.673,4.673,0,0,1,.171-.447,1.453,1.453,0,0,0-.232-.058.552.552,0,0,0,.284-.041c.073-.147.143-.293.234-.44.562-.905,1.166-1.781,1.782-2.648a42.671,42.671,0,0,1,8.124-11.045,4.77,4.77,0,0,1,.839-.681,28.2,28.2,0,0,1,3.12-3.8,133.544,133.544,0,0,1,23-18.12c7.64-4.827,16.27-9.613,25.228-11.305a147.515,147.515,0,0,1,15-1.949c4.746-.4,9.758-.3,14.352-1.654a1.824,1.824,0,0,0,0-3.491c-5.367-1.541-11.351-.85-16.837-.374A160.141,160.141,0,0,0,160,5.39c-4.913.948-9.992,3.678-14.43,5.9a130.12,130.12,0,0,0-14.584,8.768c-8.752,5.933-17.494,13-23.193,22.027-.364.581-1.391,1.971-2.632,3.756-2.066-1.269-4.188-2.178-6.7-1.042a19.577,19.577,0,0,0-5.012-6.356c-3.95-3.047-8.505-4.784-12.626-7.486-6.809-4.462-14.4-8.4-22.223-4.109-8.214,4.509-7.664,13.364-1.965,19.652,1.916,2.115,4.466,3.6,6.7,5.341.935.728,2.3,1.7,2.75,2.85.35.881-2.179,2.032-2.722,2.336-5.187,2.913-9.892,4.84-14.093,9.241-3.657,3.83-7.42,10.126-3.729,15.158a11.427,11.427,0,0,0,8.943,4.365,46.386,46.386,0,0,0,5.728-.517c.181,0,.365,0,.548-.01-.279.337-.585.647-.821.909-4.192,4.652-8.428,15.122-.7,18.579,4.319,1.932,9.976,1.025,14.58.87a22.539,22.539,0,0,0,4.8-.635,88.772,88.772,0,0,0,3.364,38.457,76.819,76.819,0,0,0,28.4,39.716c2.068,1.5,4.207,2.9,6.395,4.218a67,67,0,0,1-2.982,6.431,4.094,4.094,0,0,0-1.924-1.583c-4.54-1.876-9.082-3.625-13.205-6.343-5-3.294-9.637-7.007-14.781-10.125C78.666,172.6,73.937,168.181,69.508,164c-4.593-4.335-9.725-8.121-14.4-12.374-8.637-7.853-14.1-17.619-20.315-27.311-3.28-5.117-6.784-10.081-9.637-15.46a61.911,61.911,0,0,1-4.163-8.54,11.7,11.7,0,0,0,3.091-3.766,25.068,25.068,0,0,0,3.054-7.183c2.128-4.03,1.39-9.84.82-14.251a2.02,2.02,0,0,0-4.038,0c-.326,2.523-.475,5.036-.657,7.573a6.652,6.652,0,0,1-.195,1.146,1.814,1.814,0,0,0-.345.185C20.538,85.5,20.625,87.5,19.69,89.745a22.139,22.139,0,0,0-.728-2.152A45.981,45.981,0,0,1,15.4,74.12c-.231-3.129-4.83-3.2-4.912,0-.114,4.565.26,10.086,2.218,14.261a9.582,9.582,0,0,1,.927,5.549l0,.041a13.153,13.153,0,0,1-3.548-3.191c-1.834-2.561-3.946-5.43-4.172-8.669-.263-3.77-6.1-3.827-5.909,0C.4,89.979,7.458,100.6,15.816,101.64a7.982,7.982,0,0,0,1.014.059c2.032,8.445,7.1,16.388,11.3,23.667,6.241,10.809,11.475,22.086,20.625,30.888,4.846,4.663,10.378,8.635,15.132,13.369,4.425,4.4,9.607,9.2,14.969,12.421,5.5,3.3,10.568,7.008,15.789,10.711,4.521,3.208,9.939,5,15.079,6.949a27.258,27.258,0,0,0-3.532,4.639c-3.036,5.474,1.821,9.753,6.269,12.131a69.715,69.715,0,0,0,15.042,5.436c5.807,1.541,11.248,5.617,17.359,5.586-.989,5.407-1.756,10.836-2.512,16.358-1.024,7.5-2.728,15.192-3.187,22.8a65.23,65.23,0,0,0-8.83-3.015,70.923,70.923,0,0,0-33.276-.362c-5.28,1.138-10.727,1.418-15.938,2.818-3.384.912-8.082,1.942-10.81,4.229a2.179,2.179,0,0,0-.571,2.16,5.046,5.046,0,0,0,.584,1.265,50.122,50.122,0,0,1-5.284,5.9,97.617,97.617,0,0,0-10.68,11.685c-3.178,4-6.4,7.957-9.622,11.938s-5.618,8.482-9.707,11.68a4.062,4.062,0,0,0,0,5.778,9.919,9.919,0,0,0,2.021,1.261c-2.4,1.773-4.507,3.224-2.825,6.863.733,1.582,2.682,2.616,4.084,3.495.216.129.423.27.625.418a2.738,2.738,0,0,0-.189.262,18.118,18.118,0,0,0-1.815,1.476,5.4,5.4,0,0,0-.825,5.116c.508,1.475,3.821,3.116,3.513,4.6a6.681,6.681,0,0,1-.57,1.516c-2.842,1.56-5.882,1.263-7.807,4.345-1.663,2.658-.282,7.01,1.785,9.016,2.22,2.149,5.837,2.115,8.7,2.089,5.549-.052,11.063-.347,16.6-.7q6.675-.429,13.369-.711c1.6,6.261,5.2,17.081,12.366,16.39a3.433,3.433,0,0,0,.8.228,15.9,15.9,0,0,0,11.369-2.1,2.541,2.541,0,0,0,.852-.29,13.218,13.218,0,0,0,3.978-2.167,13.084,13.084,0,0,0,3.237-3.521,7.835,7.835,0,0,0,2.393-1.278,43.114,43.114,0,0,0,5.669-5.709c.022-.025.036-.049.055-.071,2.919.407,5.865.927,7.779,3.158a2.3,2.3,0,0,0,3.246,0c.1-.1.2-.2.3-.308a2.121,2.121,0,0,0,.612.351,14.861,14.861,0,0,0,5.074.817,182.666,182.666,0,0,0,18.243,8.544,36.612,36.612,0,0,0,.426,8.284c.173,1.161.311,2.447.513,3.741a3.85,3.85,0,0,0-.2,1.851,7.258,7.258,0,0,0,2.274,4.354c.111.156.225.314.349.46a.838.838,0,0,0,.6.312,16.785,16.785,0,0,0,9.135,2.646,20.457,20.457,0,0,0,9.2-1.469c2.949-1.257,5.555-3.775,7.735-6.062a23.849,23.849,0,0,0,2.569-3.258,30.229,30.229,0,0,1-1.666,3.475l2.462,1.231c4.121,2.063,8.126,4.361,12.112,6.671,1.835,1.06,3.663,2.131,5.5,3.188,1.651.951,4.17,1.928,5.526,3.241,1.853,1.8,3.854,3.084,6.466,2.173,2.4-.839,4.477-3.843,5.473-6.064a1.982,1.982,0,0,0,.131-1.27c1.036-1.222,1.915-2.455,2.511-3.188a49.6,49.6,0,0,1,7.2-7c2.353-1.917,4.211-3.71,5.012-6.725a2.4,2.4,0,0,0,.043-1.062c3-3.108,6.061-6.139,9.342-9.035,4.783-4.221,8.248-9.818,11.844-15.021.853-1.234,1.9-2.31,2.769-3.536.812-1.15,1.437-3.145,2.442-4.074.233-.214.46-.428.679-.642a2.1,2.1,0,0,0,.693-.248c3.208-1.9,4.606-5.9,6.608-8.89,1.171-1.752,2.621-3.255,3.83-4.967a33.986,33.986,0,0,0,2.995-5.785c1.488-3.261,1.163-6.412-1.829-8.624,1.192.881.511.469.8-.911.185-.9.4-1.8.595-2.7a8.607,8.607,0,0,0,.147-3.7,3.816,3.816,0,0,0,.431-5.387,68.771,68.771,0,0,0-21.809-17.7,2.045,2.045,0,0,0,1.18-1.025c3.057-6.4.355-15.1-.976-21.725-1.586-7.916-3.464-15.819-6.605-23.279-1.14-2.7-2.241-5.419-3.342-8.136a31.415,31.415,0,0,0,5.271,2.079c3.371,1.094,6.636,2.5,10.066,3.4,3.268.867,7.3,1.356,9.564-1.7a8.7,8.7,0,0,0,1.568-5.71,73.855,73.855,0,0,1,.255-7.877c.029-.409.042-.818.051-1.227,12.563,3.188,25.841,3,38.714,2.788,13.979-.225,28.2-2.128,41.2-7.432,12.006-4.9,23.087-10.779,32.8-19.486a49.723,49.723,0,0,0,11.555-15.157c1.952-3.954,3.863-8.522,4.423-13.088a16.633,16.633,0,0,0,7.64-3.613c2.007-1.656,2.585-4.232,3.525-6.54C408.664,157.468,410.223,154.428,409.343,151.246ZM310.938,98.22a14.555,14.555,0,0,0,1.19-5.118c6.265-2.858,13.537-2.006,20.414-2.339,8.4-.409,17.114.192,24.483,4.587,2.863,1.707,7.033,3.431,7.374,7.3.356,4.044-5.889,6.106-8.819,6.894-5.4,1.451-11.975,4.2-10.344,10.915,1.691,6.958,10.249,9.693,13.864,15.251,2.043,3.144-1.959,7.283-4.769,8.38-1.722.672-3.431,1.386-5.221,1.886-1.836.513-3.687-.06-5.543-.18-4.145-.269-6.769,3.035-7.1,6.793-.294,3.332,1.746,7.023,1.973,10.394.242,3.586-2.285,5.311-5.082,6.813-1.846.993-5.683,2.807-7.3.749-1.9-2.418-6.078-.38-5.947,2.464.1,2.11.612,4.82-.385,6.763a6.957,6.957,0,0,1-4.371,4.008c-5.456,2.193-9.241.374-12.9-3.811a42.66,42.66,0,0,1-7.6-13.117c-.915-2.685-1.582-5.42-2.249-8.153a31.4,31.4,0,0,0-.965-4.929c-.637-2.136-2.018-4.822-2.024-7.063,0-1.371.031-2.741.1-4.113a25.268,25.268,0,0,1,.252-2.726c.067-.367.153-.727.249-1.088,6.8,4.009,15.065,1.178,21.319-3.8,7-5.566,9.411-15.58,7.36-23.992a16.542,16.542,0,0,0-9.069-10.869A9.9,9.9,0,0,0,310.938,98.22Zm.764,15.787c1.089,5.306-1.614,10.891-5.332,14.49-4.721,4.569-11.637,4.437-17.749,4.55l-.029,0a3.131,3.131,0,0,0-.5.041,113.48,113.48,0,0,0,.221-24.558c2.544-3.669,8.821-3.764,12.923-3.909C306.972,104.42,310.635,108.815,311.7,114.007ZM290.716,95.993c.074.276.144.553.23.833a2.788,2.788,0,0,0,5.337,0C298,91.207,297.1,86,296.568,80.5c1.083.666,2.011,1.666,3.141,2.342,1.993,1.192,4.115,2.11,5.042,4.46,1.572,3.985.024,7.948-2.378,11.048-.379-.006-.756-.012-1.137.008a33.071,33.071,0,0,0-10.6,2.58,14.245,14.245,0,0,0-2.952,1.729q-.357-2.854-.79-5.681A39.15,39.15,0,0,0,290.716,95.993ZM96.516,58.457c.888-1.926,1.4-3.956,2.433-5.823.532-.965,1.785-2.5,2.953-2.15.059.018.114.036.172.056-2.14,3.525-3.937,7.257-3.453,9.4a2.485,2.485,0,0,0-.169,2.664c.121.206.252.4.386.581-.486.44-.968.884-1.441,1.34-.3-.4-.647-.8-1.019-1.314C95.132,61.5,95.662,60.317,96.516,58.457ZM81.136,93.434c-.353,1.167-.671,2.341-.966,3.523a23.99,23.99,0,0,1-6.36,1.489,82.258,82.258,0,0,1-10.582.1c-3.321-.257.484-5.139,1.37-7,.833-1.746,3.811-4.476,3.628-7.818-.543-9.833-14.45-.989-17.736-6.576-.946-1.606,1.785-4.9,2.661-5.978a22.975,22.975,0,0,1,5.932-5.26C63.209,63.471,72.5,61.246,72.276,55s-7.382-9.014-11.257-12.888a8.544,8.544,0,0,1-2.644-5.381c-.15-2.452,2.484-3.92,4.314-4.912C66.782,29.6,71.811,33,75.271,35.037c3.62,2.134,7.361,4.037,10.966,6.2a21.962,21.962,0,0,1,5.454,4.34,25.444,25.444,0,0,0,2.5,2.551,20.836,20.836,0,0,0-3.315,6.209c-1.217,3.317-3.327,6.49-1.844,10.13a7.974,7.974,0,0,0,4.133,4.606c-.206.252-.414.5-.617.757C87.07,76.8,83.693,85.007,81.136,93.434ZM194.323,205.464c-.711,4.977-.972,10.239-4.76,14-2.554,2.536-5.889.182-8.182-1.422-4.108-2.876-7.988-7.873-7.7-13.076a1.793,1.793,0,0,0-.019-.363A167.937,167.937,0,0,0,194.323,205.464Zm-64.584,9.922a74.124,74.124,0,0,1-12.548-4.27,15.894,15.894,0,0,1-4.872-3.148c-.052-.054-.082-.094-.117-.135.492-1.772,2.565-3.437,3.7-4.793a28.219,28.219,0,0,0,5.643-12.969,124.769,124.769,0,0,0,30.232,10.939,22.706,22.706,0,0,0-1.418,4.2c-.993,3.834-2.181,7.616-3.164,11.46-.335,1.314-.643,2.626-.939,3.937C140.189,220.781,135.43,216.864,129.739,215.386ZM45.222,356.405c-2.709.083-6.427.724-8.909-.591-1.479-.786-1.43-3.657-.441-4.729a9.9,9.9,0,0,1,2.192-1.64,3,3,0,0,0,.347.827c1.335,2.247,2.577,2.83,4.935,3.579a1.878,1.878,0,0,0,2.173-.709,13.577,13.577,0,0,0,5.507.5c6.4-.249,12.788-.756,19.186-1.132.125.851.268,1.684.42,2.493C62.166,355.567,53.687,356.146,45.222,356.405Zm-.292-14.991c3.659.867,7.594.725,11.333.745,4.236.025,8.4.746,12.618.823a1.154,1.154,0,0,0,1.054-.733,29.4,29.4,0,0,0-.232,4.083c-3.529.28-7.056.632-10.593,1.086-2.453.316-4.907.632-7.318,1.19-.941.216-1.889.4-2.841.557a2.309,2.309,0,0,0-3.545-.86,4.23,4.23,0,0,0-.728.8c-.2-.263-.407-.524-.608-.793.346-.859.835-1.691,1.161-2.538A5.848,5.848,0,0,0,44.93,341.414Zm25.106.16a.949.949,0,0,0-.566-.764c-3.794-1.764-7.806-1.868-11.944-1.856a52.449,52.449,0,0,0-12.772,1.3.516.516,0,0,0-.276.18c-.016-.031-.029-.064-.045-.094a32.148,32.148,0,0,0-2.482-2.527,9.39,9.39,0,0,0,1.657-1.554,5.589,5.589,0,0,0,1.179-2.512c4.692.785,9.4,1.244,14.088,2.086,4.933.883,9.273-.029,13.909-1.285A15.933,15.933,0,0,0,70.036,341.574ZM94.4,364.794c-.957,3.069-3.658,4.025-6.465,4.214-1.716-.306-3.679-.279-4.978-.541-.269-.053-.537-.12-.8-.189a76.947,76.947,0,0,1-3.539-10.839c-1.41-5.45-2.818-13.063.073-18.254,4.5-8.071,13.2,8.387,14.457,11.61C94.83,355.138,95.811,360.258,94.4,364.794Zm4.557-19.45c-4.413-9.434-13.219-19.96-23.05-13.708q-.416.269-.8.56a1.207,1.207,0,0,0-.859-.695c-5.415-1.232-10.834.161-16.341-.65a75.994,75.994,0,0,0-7.6-.387c-2.069-.1-4.079-.266-6.108-.2a5.6,5.6,0,0,0-1.393-1.608c-1.251-.993-2.688-1.7-3.989-2.622-1.061-.75,1.375-2.253,2.164-2.919,4.121.6,8.785-.156,12.462-.675a125.909,125.909,0,0,1,28.288-1.058,51.638,51.638,0,0,1,23.506,8.4c7.37,4.854,11.488,12.772,17.649,18.835a4.14,4.14,0,0,0,.616.749,18.176,18.176,0,0,0-.483,2.362,28.8,28.8,0,0,0-9.452-4.474A58.5,58.5,0,0,0,98.952,345.344Zm5.963,15.026a18.969,18.969,0,0,1-2.365,2.169,25.087,25.087,0,0,0,.043-3.008c.93.091,1.863.214,2.8.377C105.235,360.058,105.077,360.208,104.916,360.37Zm19.442.755a2.151,2.151,0,0,0-.6.373,13.264,13.264,0,0,0-6.254-3.96c-3.628-1.043-7.321-1.452-10.963-2.469a22.12,22.12,0,0,0-4.6-.713c-.153-.769-.328-1.529-.517-2.273,1.908.147,3.8.341,5.667.62a26.547,26.547,0,0,1,12.751,5.086,27.5,27.5,0,0,0,4.527,3.331Zm1.8-21.076c-4.534-5.4-8.586-11.2-14.266-15.521a58.4,58.4,0,0,0-23.072-10.289c-9.033-1.977-18.326-1.446-27.463-.7-4.465.362-8.98,1.1-13.454,1.2-.437.01-1.072.066-1.784.135,1.214-1.666,2.347-3.4,3.526-5.1,2.877-4.167,6.346-7.884,9.147-12.117a149.9,149.9,0,0,1,9.584-13.032c3.137-3.787,5.612-8.145,8.919-11.763.165-.029.329-.055.484-.091,1.977-.447,3.941-.852,5.954-1.151,4.665-.689,9.321-.686,13.993-1.478,4.813-.818,9.427-1.711,14.339-1.613a73.987,73.987,0,0,1,15.049,2c9.486,2.178,17.823,7.178,26.279,11.789,3.961,2.157,7.905,3.884,11.137,7.105a55.7,55.7,0,0,1,4.26,5.579,2.25,2.25,0,0,0-1.967.919c-3.952,4.8-8.64,8.561-13.6,12.266-4.381,3.269-7.4,8.4-11.138,12.344-3.9,4.107-7.963,7.82-11.326,12.417-1.406,1.923-2.608,4.018-3.876,6.034C126.658,339.346,126.41,339.7,126.159,340.049Zm22.221,29.262c-3.61-1.4-7.237-2.757-10.857-4.135a47.623,47.623,0,0,1,6.978.755c1.5.276,3,.63,4.509,1.031Q148.652,368.126,148.381,369.311Zm25.452,11.916a16.824,16.824,0,0,1-9.215,6.9c-3.279.832-8.128-.061-9.813-3.125a4.016,4.016,0,0,0-.7-.939c-.186-2.132-.523-4.238-.573-5.967a24.211,24.211,0,0,1,3.8-14.377,11.772,11.772,0,0,1,11.857-5.265c3.449.644,6.448,1.445,8.135,4.728C180.111,368.6,176.868,376.636,173.832,381.226Zm28.062,14.531c-7.12-3.857-13.923-8.165-21.212-11.7a28.842,28.842,0,0,0,1.446-2.621c1.274.722,2.545,1.451,3.8,2.2,5.862,3.516,11.112,10.366,18.131,11.522a3.081,3.081,0,0,0,1.04,0,4.431,4.431,0,0,0,1.471,1.908,5.188,5.188,0,0,0,1.833.865,1.614,1.614,0,0,0,.212,1.917c.06.066.123.12.182.18C206.987,399.43,202.7,396.2,201.895,395.758Zm6.436-19.359c-2.764,1.618-2.548,4.781-1.018,7.109-.219.069-.44.137-.653.215a7.088,7.088,0,0,0-3.572,2.5,5.585,5.585,0,0,0-.343.589c-.7-.4-1.437-.775-2.2-1.16-3.639-1.828-6.5-5.441-9.992-7.605-1.976-1.225-3.99-2.38-6.025-3.507a27.55,27.55,0,0,0,.662-6.764c.169.082.336.168.5.252,6.421,3.134,11.245,8.385,17.241,12.09a1.57,1.57,0,0,0,2.136-2.134c-4.051-6.427-11.3-11.241-18.151-14.255q-1.246-.544-2.485-1.068c-.1-.344-.186-.69-.3-1.026a14.084,14.084,0,0,0-9.726-8.936,26.922,26.922,0,0,0-8.916-1.157c-3.419.191-6,2.079-8.7,3.986a18.768,18.768,0,0,0-4.772,4.977c-7.013-1.841-14.262-2.64-21.2-1.306a2.85,2.85,0,0,0-1.46-3.045c-.175-.083-.333-.165-.5-.249-.281-1.915-1.068-4.389-.8-6.426a10.639,10.639,0,0,0,1.59-1.193,53.232,53.232,0,0,0,9.574-.733c4.89-.808,9.816-.771,14.723-1.264,9.469-.949,19.12,1.515,27.918,4.812a80.009,80.009,0,0,1,10.193,5.036c1.893,1.03,3.934,1.659,5.841,2.62a30.059,30.059,0,0,1,5.43,4.014c3.316,2.755,6.185,5.935,9.623,8.571,1.008.773,1.983,1.767,3,2.616a17.278,17.278,0,0,1-4.472,1.463A10.42,10.42,0,0,0,208.331,376.4Zm57.509-52.37c-.238.62-.436,1.276-.724,1.846-2.163,4.28-7.347,8.783-9.233,13.782a2.674,2.674,0,0,0-.647.741c-1.06,1.812-2.854,2.753-3.827,4.617-1.332,2.551-3.226,4.6-4.866,6.945-3.357,4.792-6.549,9.641-10.761,13.74-2.214,2.154-4.551,4-6.653,6.293-2.18,2.379-4.159,4.961-6.148,7.5-1.824,2.331-3.417,4.841-5.327,7.105-.024.028-.05.061-.073.09-.553.561-1.1,1.133-1.638,1.726a39.344,39.344,0,0,0-3.206,4.142c-.107.1-.21.2-.321.292a1.665,1.665,0,0,0-.215.038,1.524,1.524,0,0,1-.333.071l-.054.008h-.161c-.291-.022-.3-.012-.013.029a5.623,5.623,0,0,0-1.172-.1c-.166.007-.334.007-.5,0-.02,0-.1-.011-.189-.022.01-.264.034-.53.061-.793.012-.039.106-.705.124-.829a10.552,10.552,0,0,0,.169-1.493,2.292,2.292,0,0,0-.077-.587,5.951,5.951,0,0,0,2.508-1.229c2.269-2.065,1.564-5.27.018-7.547a5,5,0,0,1,1.056-.213c1.97-.2,3.608-1.387,5.29-2.324a2.131,2.131,0,0,0,1.18-2.12,4.774,4.774,0,0,0,1.973-.608,2.7,2.7,0,0,0,1.35-2.354,4.822,4.822,0,0,0-.407-1.7,11.574,11.574,0,0,0,2.13-2.341c2.082-2.879,4.989-5.334,7.381-7.957q8-8.776,15.723-17.794a119.175,119.175,0,0,0,11.56-16.7,44.626,44.626,0,0,1,4.1-5.754,4.261,4.261,0,0,0,1.2,2.842c.165.142.33.287.494.43C265.7,323.889,265.77,323.961,265.84,324.029Zm-7.081-21.213a49.224,49.224,0,0,1,4.979,4.61c.591.635,1.12,1.269,1.667,1.868a3.285,3.285,0,0,0-1.024,1.654c.119-.421-1.328.99-1.637,1.246a22.838,22.838,0,0,0-2.277,2.118,52.267,52.267,0,0,0-5.877,7.657c-3.3,5.262-5.929,10.966-10.226,15.535-4.753,5.052-8.975,10.828-13.32,16.232-2.094,2.6-4.266,5.14-6.23,7.843-.887,1.217-1.775,2.424-2.714,3.6a25.543,25.543,0,0,0-1.333,2.911,35.329,35.329,0,0,0-4.088-3.124c-3.569-2.459-6.582-5.763-10.048-8.386-3.659-2.769-7.271-4.064-11.384-5.9a116.734,116.734,0,0,0-11.893-4.979,71.035,71.035,0,0,0-27.238-3.609A123.66,123.66,0,0,0,143,343.9c-4.086.778-8.037,2.311-12.121,3.109,2.095-2.455,3.589-5.656,5.247-8.254,3.145-4.926,6.979-8.99,10.952-13.243,3.873-4.147,6.475-9.558,10.795-13.262a103.507,103.507,0,0,0,12.839-12.446,2.8,2.8,0,0,0,.666-1.775,2.688,2.688,0,0,0,1.387.5,8.946,8.946,0,0,0,4.394-.686,9.871,9.871,0,0,0,2.213-1.292c.106-.081,2.345-.214,2.69-.284,4.242-.854,8.487-1.758,12.695-2.764a149.822,149.822,0,0,1,27.377-3.751,50.877,50.877,0,0,1,25.146,4.951C251.448,296.808,255.151,299.884,258.759,302.815Zm-14.9-37.95a117.4,117.4,0,0,1,2.172,11.983c.351,3.434.007,6.6,1.353,9.774A52.73,52.73,0,0,0,225.5,282.15a146.479,146.479,0,0,0-28.364,3.492c-4.287.925-8.556,2.05-12.784,3.215-2.074.572-4.15,1.14-6.234,1.683a9.031,9.031,0,0,0-2.021.842,59.175,59.175,0,0,0-3.994-5.008,34.081,34.081,0,0,0-11.6-8.911c-4.7-2.406-9.3-5.014-13.994-7.394.034-.809.083-1.62.159-2.441.745-8.051,1.966-16.056,2.877-24.089.916-8.063,1.721-16.048,3.226-24.035.677-3.589,1.9-7.406,2.09-11.049a57.779,57.779,0,0,1,.645-6.633c1.006.208,2.012.409,3.02.594,3.763.7,7.6,1.3,11.467,1.77a1.621,1.621,0,0,0-.066.27C168.6,214.2,179,229.551,190.118,226c4.277-1.365,6.719-5.568,8.256-9.489a33.643,33.643,0,0,0,2.356-11.313,133.032,133.032,0,0,0,19.66-2.716c7.723,12.314,12.04,26.858,17.25,40.288A138.308,138.308,0,0,1,243.857,264.866Zm19.441-53.3c-.526,1.619-1.445,3.707-1.506,5.394-.072,2-.167,4-.339,5.991-.2,2.255-1.107,4.444-1.088,6.694.008.8-.268,3.284.685,3.211a10.578,10.578,0,0,1-3.652-.75c-2.625-.784-5.146-1.869-7.731-2.768-3.446-1.2-6.785-3.071-10.318-3.8a2.766,2.766,0,0,0-1.835.263c-.9-2.16-1.809-4.313-2.758-6.451a129.532,129.532,0,0,0-9.82-17.943c.441-.115.885-.236,1.324-.355a1.818,1.818,0,0,0,.951.691c8.1,2.658,16.343,2.872,24.719,3.946a44.672,44.672,0,0,1,11.51,2.764C264.954,209.068,263.7,210.32,263.3,211.563Z"/><path d="M124.208,301.435c-2.223-.685-3.05-2.824-5.073-3.954-1.687-.939-4.837-1.821-6.769-1.288-1.36.373-2.559,1.28-3.923,1.7-1.636.5-2.336-2.735-3.024-3.607-1.463-1.857-4.967-1.073-7.128-1.112-.977-.021-2.424-.326-3.321.2-1.224.717-3.721,3.459-4.6.585-.442-1.443-.06-1.6-1.233-2.633-.894-.787-1.426-1.839-2.368-2.586C82.09,285,76.822,290.414,73.3,292.878c-1.207.844-.035,2.843,1.155,1.979,3.042-2.213,5.311-5.235,9.411-4.947,4.492.317,2.366,5.2,4.516,7.278,2.258,2.19,4.852,2.059,7.273.193,1.713-1.317,4.793-1.03,7.264-.927.865,1.613,1.05,3.167,2.735,4.445,1.889,1.435,4.827.121,6.622-.734a5.22,5.22,0,0,1,7.16,2.219c1,1.857,2.882,2.164,4.775,1.9C125.75,304.063,125.481,301.825,124.208,301.435Z" fill="#463131"/><path d="M138.04,293.616c-.824-1.406-2.586-1.138-3.649-2.136-.868-.812-1.369-2.287-2.069-3.258a10.123,10.123,0,0,0-3.1-2.756c-2.155-1.309-4.967-1.362-7.4-1.368-1.168,0-2.783-1.524-3.776-2.068a14.145,14.145,0,0,1-3.284-2.879c-3.538-3.544-8.463-.5-12.439.214-3.946.705-7.96-1.477-10.753,2.35-.225.305.275.685.523.4,3.435-3.9,5.658.308,8.806,1.09a9.526,9.526,0,0,0,5.52-.488,14.809,14.809,0,0,1,3.516-.776c1.715-.114,2.267,1.213,3.014,2.387a13.612,13.612,0,0,0,6.425,4.8c2.576.925,5.736-.107,7.957,1.8,1.931,1.653,2.255,4.319,4.579,5.771C134.151,298.1,140.217,297.333,138.04,293.616Z" fill="#463131"/><path d="M213.083,344.438c-1.763-1.365-3.575-2.183-5.171-3.817a14.544,14.544,0,0,0-5.186-3.824c-2.935-1.142-5.879,2.176-7.972-1.16-1.406-2.239-4.629-3.7-7.148-4.016-3.021-.382-6.693,1.367-9.283-.323-2.264-1.479-3.7-3.244-6.448-3.924-5.063-1.249-10.581,2.167-14.085,5.462-1.311,1.232.681,3.226,1.972,1.971a19.26,19.26,0,0,1,7.355-4.584c3.971-1.326,5.561.986,7.522,3.95.972,1.469,3.227,3.287,5.111,3.155,3.446-.24,6.48-2.013,9.771-.156a11.059,11.059,0,0,1,2.625,2.78,8.038,8.038,0,0,0,3.262,1.919c2.525,1,5.343-1.639,7.329.078,2.825,2.443,5.307,8.222,9.955,5.53A1.944,1.944,0,0,0,213.083,344.438Z" fill="#463131"/><path d="M215.271,319.277c-1.553-1.862-4.039-1.672-6.317-2.012a6.022,6.022,0,0,0-4.527-3.679c-3.015-.81-6.652-.612-9.828-.448a8.216,8.216,0,0,0-5.04-2.187c-3.614-.178-6.92.955-10.37,1.847-2.649.681-1.514,4.834,1.129,4.093,1.815-.511,3.6-1.1,5.431-1.571,3.018-.772,4.363.27,6.1,2.4,1.126,1.378,3.98.827,5.481.81,1.925-.02,4.089-.274,5.986.275a5.6,5.6,0,0,0,4.075,4.653c2.535.781,6.014,1.149,7.877-1.068A2.271,2.271,0,0,0,215.271,319.277Z" fill="#463131"/><path d="M230.607,306.288c-2.216-1.367-4.2-3.279-6.635-4.247a15.979,15.979,0,0,0-10.351-.888c-2.446.562-4.917.109-7.351-.281-2.031-.326-3.769,1.34-5.956.653-3.878-1.224-7.537-.358-11.573-.248a.583.583,0,0,0,0,1.166,61.481,61.481,0,0,1,7.681.543c1.417.217,2.273,2.491,3.748,2.9a8.78,8.78,0,0,0,4.385-.247,25.731,25.731,0,0,1,7.886-1.328c3.387.09,8.517-.209,10.748,2.764,1.922,2.566,4.406,3.688,7.419,2.341C231.91,308.833,231.66,306.938,230.607,306.288Z" fill="#463131"/><path d="M116.686,106.467C111.523,99.148,103.069,98.1,95.373,102a17.02,17.02,0,0,0-3.288,2.195,9.526,9.526,0,0,0-3.036,3.312,16.545,16.545,0,0,0-2.7,13.341,12.97,12.97,0,0,0,3.109,5.921,12.284,12.284,0,0,0,2.442,2.806,15,15,0,0,0,11.059,3.38,11.713,11.713,0,0,0,3.572-.274,12.155,12.155,0,0,0,5.355-2.836,19.667,19.667,0,0,0,2.785-2.185A16.776,16.776,0,0,0,116.686,106.467Z" fill="#f9bea0"/><path d="M257.868,112.269c-12.283-2.914-24.591,5.365-27.88,17.2a18.369,18.369,0,0,0,.163,10.3,19.689,19.689,0,0,0,18.239,16.181,19.169,19.169,0,0,0,17.306-6.159,19.522,19.522,0,0,0,2.112-3.015,27.465,27.465,0,0,0,2.214-2.931C277.529,132.361,271.381,115.477,257.868,112.269Z" fill="#f9bea0"/></g></g></svg>