<svg xmlns="http://www.w3.org/2000/svg" viewBox="0 0 90.41463 101.60294">
  <title>Recurso 15</title>
  <g id="Capa_2" data-name="Capa 2">
    <g id="Editar">
      <g>
        <path d="M76.55476,46.178c-.6462-5.713-2.6244-11.1424-4.8437-16.4106-1.8885-4.4826-3.7341-9.1489-6.396-13.2413-2.6065-4.0072-10.9786-12.031-14.4559-4.3894-.0722.1584-.1341.3213-.19548.4846a409.85725,409.85725,0,0,1-29.97652,29.3489c-5.38248,4.7448-11.5463,8.9641-16.5137,14.139-2.8333,2.9513-5.1239,6.7993-3.777,10.9889,2.545,7.9166,10.6466,7.8819,17.6778,6.0482a2.6082,2.6082,0,0,0,.6975.0606.54865.54865,0,0,0,.5137-.3908l.0013-.0055a50.039,50.039,0,0,0,5.8002-2.1185q.60075-.26205,1.201-.5312c1.8872,8.1771-.745,16.9268,3.3394,24.7803,2.4594,4.7288,8.3447,8.6027,13.5722,5.6105,4.9735-2.8467,5.6315-9.4563,3.7385-14.335-2.8242-7.2769-9.6492-13.3756-15.3403-18.5232,12.1732-5.8057,24.376-12.1804,38.3052-10.3418a.42316.42316,0,0,0,.3813-.1178,4.67513,4.67513,0,0,0,3.8993-.8616C77.23876,54.12637,76.92668,49.467,76.55476,46.178Zm-75.326,18.4151c-.0804-4.8981,4.0087-8.4538,7.8391-11.4767a20.48647,20.48647,0,0,0,1.9724,12.2964c.8741,1.7265,3.2002,5.572,5.6269,7.1234C10.08826,73.85007,1.36446,72.84647,1.22876,64.59307Zm41.665,16.6682c3.7651,5.1472,6.8141,14.2931-.3167,18.2436-8.5153,4.7176-13.3197-6.6026-14.2309-13.098-.776-5.5317.2258-11.2666-1.0647-16.6952q1.63965-.74625,3.2759-1.5235A89.66865,89.66865,0,0,1,42.89376,81.26127Zm-5.4577-17.585c-5.8829,2.7865-11.685,5.982-17.8606,8.088-.1255.0427-.2562.0833-.3854.1244a.388.388,0,0,0-.0546-.044c-.0914-.0468-.1833-.0935-.275-.1403a.52785.52785,0,0,0-.691.183,2.21089,2.21089,0,0,0-1.68778-1.1687,18.62784,18.62784,0,0,1-1.66142-1.6288,19.40878,19.40878,0,0,1-4.5499-16.8294.55226.55226,0,0,0-.00068-.0881c.60428-.4734,1.19018-.9355,1.73718-1.3886q7.3266-6.06885,14.3621-12.4776c8.2609-7.5241,16.1682-15.419,23.7825-23.5926a25.39333,25.39333,0,0,0,.7897,8.3197,67.77288,67.77288,0,0,0,5.051,13.8469.48056.48056,0,0,0,.0258.4587c.2709.4702.5581.9297.8332,1.3973.10452.2242.2087.4493.313.6732a.44648.44648,0,0,0,.22152.2231A189.47643,189.47643,0,0,0,67.97806,55.562a.46018.46018,0,0,0,.1392.4677c.0333.0318.071.0539.1053.0847C57.36006,55.18037,47.15568,59.07217,37.43606,63.67627Zm24.2617-19.479c-1.2606-1.9778-2.6167-3.9704-3.8072-5.995-1.2981-2.7884-2.5953-5.6068-3.6903-8.4914a.33567.33567,0,0,0,.1557-.067c3.9322-2.1765,9.0646.5591,10.869,4.2646,1.8532,3.8055-.38828,8.1015-2.38828,10.6935v-.0187C62.83668,44.07,61.99426,43.94037,61.69776,44.19727Zm7.6458,11.5011a.49439.49439,0,0,0-.0765-.1637c-2.3612-3.1633-4.60238-6.4036-6.75338-9.7032,3.80038-2.8684,5.60308-8.0037,3.368-12.4605-2.12712-4.242-7.70342-7.0909-12.11962-4.6465-.01038.0059-.0143.0145-.0243.0207a44.869,44.869,0,0,1-2.0729-7.5317c-.3975-2.2811-.7836-5.9761.2607-8.4022.43812-.4759.8874-.9412,1.3235-1.4191a.51061.51061,0,0,0,.13962-.4107c1.01478-.6587,2.46888-.8227,4.53408-.175,3.1558.9899,5.5877,4.7363,7.196,7.4277a99.25025,99.25025,0,0,1,7.3843,16.3613,55.95492,55.95492,0,0,1,2.3428,7.7505,34.08774,34.08774,0,0,1,.8471,6.2487C75.73306,50.48237,74.81776,60.32287,69.34356,55.69837Z"/>
        <path d="M63.64056,27.02137a5.57942,5.57942,0,0,0-6.3264-2.1988c-.6498.2098-.372,1.2383.283,1.0268a4.4935,4.4935,0,0,1,5.12352,1.7093C63.10556,28.12077,64.02916,27.58887,63.64056,27.02137Z"/>
        <path d="M67.13106,27.14887a8.79019,8.79019,0,0,0-5.49238-5.7586c-.64632-.2324-.92472.7961-.28332,1.0268a7.66688,7.66688,0,0,1,4.74832,5.0148C66.302,28.08587,67.33068,27.80717,67.13106,27.14887Z"/>
        <path d="M75.69686.17847q-4.33227,5.19105-8.6649,10.3817c-.43628.5227.3134,1.28.7532.7529q4.3326-5.1906,8.6651-10.3815C76.88656.40877,76.13686-.34843,75.69686.17847Z"/>
        <path d="M82.11476,13.50037l-8.9534,6.1008c-.5631.3837-.0308,1.3068.5377.9193l8.9532-6.1006C83.21556,14.03617,82.68326,13.11307,82.11476,13.50037Z"/>
        <path d="M86.64906,26.69267l-9.7289,2.3691c-.6658.1622-.3839,1.1892.2833,1.0269q4.8645-1.18485,9.7289-2.3693C87.59816,27.55727,87.31616,26.53027,86.64906,26.69267Z"/>
        <path d="M89.90246,38.649q-3.9915.2718-7.9833.5435c-.6803.0464-.68548,1.1116,0,1.0649q3.99195-.2718,7.9833-.5437C90.58276,39.66747,90.588,38.60227,89.90246,38.649Z"/>
        <path d="M8.62236,65.61027a9.2154,9.2154,0,0,1-1.6113-6.7279c.1004-.6704-.9259-.9596-1.0273-.2831a10.29081,10.29081,0,0,0,1.7188,7.5484C8.09076,66.70677,9.01476,66.17507,8.62236,65.61027Z"/>
        <path d="M8.174,68.986a7.86374,7.86374,0,0,1-2.9926-6.7063c.039-.6846-1.0265-.6824-1.0656,0a8.85321,8.85321,0,0,0,3.305,7.4592C7.95006,70.16457,8.70846,69.41577,8.174,68.986Z"/>
        <path d="M34.05546,36.18827A17.43841,17.43841,0,0,1,27.648,40.121c-.6437.2236-.3669,1.2526.2831,1.0266a18.7119,18.7119,0,0,0,6.87762-4.2065C35.30416,36.46557,34.55026,35.71317,34.05546,36.18827Z"/>
        <path d="M35.93706,32.55977q-2.64885,1.7964-5.2973,3.5928c-.5642.3825-.0317,1.3056.5377.9193q2.64855-1.79625,5.2973-3.5928C37.03876,33.09657,36.50646,32.17357,35.93706,32.55977Z"/>
        <path d="M59.56656,52.83627q-3.11925.6036-6.2386,1.2073c-.6724.1301-.3878,1.1566.2833,1.0267q3.11913-.6036,6.23842-1.2074C60.52216,53.73277,60.23736,52.70627,59.56656,52.83627Z"/>
        <path d="M61.49556,50.66157q-2.6595.2628-5.3187.5257c-.676.0669-.683,1.1324,0,1.0648q2.65923-.263,5.3187-.5258C62.17146,51.65947,62.17836,50.594,61.49556,50.66157Z"/>
        <path d="M37.69056,96.63147a10.19441,10.19441,0,0,1-5.1712-6.5982.53318.53318,0,0,0-1.0274.2831,11.24327,11.24327,0,0,0,5.6608,7.2345C37.75776,97.87267,38.29656,96.95387,37.69056,96.63147Z"/>
        <path d="M42.50356,96.52957a11.15756,11.15756,0,0,1-7.0401-6.4722c-.2536-.6273-1.2845-.3532-1.0274.283a12.29461,12.29461,0,0,0,7.7845,7.2159C42.876,97.76247,43.15646,96.73487,42.50356,96.52957Z"/>
      </g>
    </g>
  </g>
</svg>
