<svg xmlns="http://www.w3.org/2000/svg" viewBox="0 0 208.73237 160.74313">
  <title>Recurso 7</title>
  <g id="Capa_2" data-name="Capa 2">
    <g id="Editar">
      <g>
        <path d="M104.055,45.70935c1.5564-1.1119,2.8429-2.7605,4.9635-2.7922,1.0785-.0161,1.2087-.6496,1.4166-1.4415,1.7032-6.4865,5.9368-9.2261,12.4591-8.022a1.44712,1.44712,0,0,0,1.8115-.8616c5.1191-8.3272,14.6655-8.6206,20.4178-.5586a8.0288,8.0288,0,0,1,.981,5.051c-.0406.8036-.4292,1.7523,1.1298,2.0129,5.77.9644,8.3036,4.1541,8.1785,9.9336-.0067.31.009.6204.0142.9306-1.8863,5.1061-5.5265,7.111-10.9637,7.0004-11.0056-.224-22.0215-.201-33.0277.0071-3.7713.0713-6.4792-1.0462-8.2922-4.3179l.02.0413a6.41177,6.41177,0,0,1-.0246-5.1078l.0256-.0226C104.18217,47.29135,103.32687,46.11965,104.055,45.70935Z" fill="#b3dfe7"/>
        <path d="M2.574,45.96385c2.7837-1.9887,5.0847-4.9374,8.8774-4.994,1.9291-.0288,2.1618-1.1619,2.5337-2.5781,3.0463-11.6016,10.6183-16.5015,22.2838-14.3479,1.6557.3057,2.3366-.0715,3.24-1.541,9.1558-14.8938,26.23-15.4184,36.5183-.9992,1.7498,2.4524,1.9161,5.841,1.7546,9.0341-.0727,1.4373-.7677,3.1341,2.0207,3.6002,10.32,1.7248,14.8515,7.4297,14.6278,17.7667-.012.5544.0159,1.1097.0253,1.6645-3.3737,9.1325-9.8845,12.7184-19.6092,12.5205-19.6841-.4005-39.3866-.3595-59.0718.0127-6.7452.1275-11.5884-1.8711-14.831-7.7228l.0356.074c-1.0709-3.0403-1.5035-6.0834-.0439-9.1357l.0457-.0404C2.80147,48.79325,1.27177,46.69775,2.574,45.96385Z" fill="#d2ecf1"/>
        <path d="M7.70527,95.93925c2.0277-1.4486,3.7038-3.5964,6.4664-3.6377,1.4051-.0209,1.5746-.8463,1.8455-1.8779,2.219-8.4505,7.7344-12.0197,16.2316-10.451a1.88512,1.88512,0,0,0,2.36-1.1225c6.6691-10.8486,19.106-11.2307,26.6-.7278,1.2745,1.7863,1.3957,4.2546,1.2781,6.5805-.053,1.0469-.5592,2.2829,1.4719,2.6223,7.517,1.2564,10.8178,5.4119,10.6548,12.9413-.0087.4039.0117.8084.0185,1.2125-2.4574,6.6521-7.1999,9.2641-14.2834,9.12-14.3379-.2918-28.6892-.2619-43.028.0092-4.9132.0929-8.441-1.3629-10.8029-5.6253l.0259.0539a8.3537,8.3537,0,0,1-.032-6.6544l.0333-.0295C7.87107,98.00015,6.75677,96.47375,7.70527,95.93925Z" fill="#d2ecf1"/>
        <path d="M65.30077,19.54675c1.5564-1.1119,2.8429-2.7606,4.9634-2.7922,1.0786-.0161,1.2087-.6496,1.4167-1.4415,1.7032-6.4865,5.9368-9.2261,12.4591-8.022a1.44712,1.44712,0,0,0,1.8115-.8616c5.1191-8.3273,14.6655-8.6206,20.4178-.5587a8.02924,8.02924,0,0,1,.981,5.0511c-.0406.8036-.4292,1.7523,1.1298,2.0129,5.77.9643,8.3036,4.154,8.1785,9.9335-.0067.31.0089.6205.0142.9307-1.8863,5.1061-5.5265,7.111-10.9637,7.0003-11.0056-.2239-22.0215-.2009-33.0277.0071-3.7713.0713-6.4792-1.0461-8.2922-4.3179l.0199.0414a6.41242,6.41242,0,0,1-.0245-5.1079l.0255-.0226C65.428,21.12865,64.57267,19.95705,65.30077,19.54675Z" fill="#d2ecf1"/>
        <polygon points="89.547 127.567 85.152 135.735 80.063 143.839 74.673 146.107 73.616 141.419 76.071 132.683 73.631 133.506 66.332 144.992 58.957 156.822 55.777 155.021 56.615 148.659 59.867 136.781 58.126 136.851 46.949 138.638 53.971 130.512 61.531 123.287 70.259 117.671 69.063 117.035 61.888 111.752 77.019 111.951 78.222 114.251 78.443 114.769 70.882 112.845 71.037 114.38 78.582 114.371 80.198 113.57 80.467 118.876 87.777 128.896 89.547 127.567" fill="#fbcd43"/>
        <polygon points="153.05 91.281 145.87 105.322 130.79 109.999 132.754 112.342 131.169 113.086 118.901 114.118 111.269 125.292 100.762 130.267 97.667 128.264 95.77 116.428 85.058 112.187 78.886 102.694 82.851 89.484 92.388 80.723 98.798 69.58 109.71 62.879 120.838 57.224 130.069 51.6 140.144 47.616 151.199 47.726 159.885 43.793 162.824 55.838 173.707 56.842 173.731 58.546 176.261 61.753 168.283 71.782 159.94 81.108 153.05 91.281" fill="#0d77b6"/>
        <path d="M142.29029,66.86071a8.42671,8.42671,0,0,0-6.637-3.13522,9.74243,9.74243,0,0,0-6.85685,2.78539.64776.64776,0,0,0-.07667.11328,9.8473,9.8473,0,0,0-3.61666,5.36088,7.86848,7.86848,0,0,0,1.1145,6.30377,8.59082,8.59082,0,0,0,6.69361,3.715,11.7822,11.7822,0,0,0,7.53322-1.96743,9.00068,9.00068,0,0,0,3.77157-6.18383,9.17266,9.17266,0,0,0-1.92574-6.99181" fill="#fbcd43"/>
        <path d="M121.25175,80.06833a8.26232,8.26232,0,0,0-6.44871-1.59426,9.77641,9.77641,0,0,0-5.88567,3.19853.47286.47286,0,0,0,.07829.71967,8.01355,8.01355,0,0,0,.59477,9.80884,8.27442,8.27442,0,0,0,6.18715,2.40223,8.73919,8.73919,0,0,0,6.14719-2.5555,8.25663,8.25663,0,0,0,2.19067-6.13885,7.94527,7.94527,0,0,0-2.86368-5.84066" fill="#fbcd43"/>
        <path d="M103.93618,94.32779c-2.73709-1.30107-9.09083-.713-9.87218,2.87036a.444.444,0,0,0,.23656.52475c-1.97241,3.2735-1.73916,7.51656,1.33108,10.03373a8.85283,8.85283,0,0,0,6.11551,1.83583,6.86707,6.86707,0,0,0,5.48251-3.08192c1.06615-1.69922,1.16112-4.2997.53473-6.69526-.6297-2.41057-1.99072-4.61289-3.8282-5.4875" fill="#fbcd43"/>
        <polygon points="174.756 59.254 163.319 56.16 158.437 44.634 171.286 42.508 183.135 40.904 178.481 49.446 174.756 59.254" fill="#f19d2e"/>
        <polygon points="66.409 98.98 64.813 97.869 68.097 95.512 71.352 89.007 82.807 79.16 90.498 75.131 98.01 75.919 97.222 75.658 90.492 83.742 83.648 91.935 80.051 101.746 66.409 98.98" fill="#f19d2e"/>
        <polygon points="130.431 120.056 125.668 130.729 115.565 139.302 99.832 143.632 99.409 135.292 100.163 127.92 110.334 123.041 120.411 118.08 130.211 112.837 130.714 114.015 130.431 120.056" fill="#f19d2e"/>
        <path d="M184.5817,38.58517c-12.76082,3.97651-26.19634,4.418-39.10709,7.69481a95.87184,95.87184,0,0,0-26.47453,11.23318A98.65712,98.65712,0,0,0,98.20628,74.582c-1.02619-1.1628-3.07359-.60472-4.46959-.58639-3.7733.05-7.85142-.56808-10.945,1.94744-3.3951,2.76206-6.1722,6.657-9.09749,9.90379q-5.70242,6.3221-11.40143,12.6442a.61638.61638,0,0,0,.39314.97623q7.94634,2.099,16.02268,3.54337c-3.08529,1.43767-3.02865,4.63621-1.88751,7.963a49.64637,49.64637,0,0,0-16.27916,3.62667.613.613,0,0,0,.13661,1.1678,30.91692,30.91692,0,0,1,7.1717,1.6659c-10.78506,4.2164-17.84516,13.63875-22.84786,23.83408-.24825.50476.31815.95956.78964.80463q5.44749-1.80168,10.895-3.6a35.08531,35.08531,0,0,0-2.56047,21.72171.61733.61733,0,0,0,.97622.41648A69.532,69.532,0,0,0,73.53594,136.8518a28.4657,28.4657,0,0,1,.86625,10.59681c-.04.40814.39985.90125.83127.65637a30.741,30.741,0,0,0,14.7916-18.57982.64884.64884,0,0,0,.02166-.23656c2.71207,1.61093,5.62405,1.63425,8.63435-1.18112.01164-.01166-.11159-.34651-.09827-.34984l.07829-.03165a121.761,121.761,0,0,1,.61638,12.2094c.065,1.60427-.35816,4.17642,1.21775,5.26759,2.71375,1.88247,11.33148-3.3418,13.59881-4.66953a72.25122,72.25122,0,0,0,14.82485-11.91787c1.38771-1.411,3.35514-2.927,4.00151-4.90775.90123-2.76373-.26991-7.41327-.73132-10.49019A99.97046,99.97046,0,0,0,153.93575,94.223c13.862-16.02433,23.34766-35.37046,31.38393-54.81488a.601.601,0,0,0-.738-.823M66.35092,99.16241q-2.209.33985-1.75253-1.41269,1.34185-1.48431,2.68376-2.97363,2.34641-2.60381,4.6945-5.20761c3.34513-3.7083,6.577-7.57487,10.06039-11.15655,2.66378-2.73875,4.84443-3.08193,8.46277-3.15856,1.77755-.04,5.28261.5814,6.84689-.39482a.51608.51608,0,0,0-.11663.8063,98.5476,98.5476,0,0,0-17.04383,26.38291c-4.23639-.69968-10.04707-.96123-13.83531-2.88535m22.553,29.8863a29.47658,29.47658,0,0,1-9.89379,15.13306c-.59477.47479-2.37394,2.15235-3.22357,1.66091-.10158-.05664.035-2.49885.02-2.847a29.52892,29.52892,0,0,0-1.57429-8.048.61556.61556,0,0,0-1.12614-.01166,67.00431,67.00431,0,0,1-15.60122,21.97826c-1.80083,1.66424-1.93906,2.50719-2.69708.075-.62136-1.99742-.28155-4.84445-.10661-6.83354a34.285,34.285,0,0,1,3.67833-12.45763c.25318-.50477-.32319-.95956-.78964-.80463q-5.40753,1.78668-10.81673,3.57336c5.05933-9.87881,12.15279-18.823,23.03942-22.4647a.61563.61563,0,0,0,.01169-1.12615,31.36935,31.36935,0,0,0-6.62533-1.97409,48.894,48.894,0,0,1,14.07355-2.73542,33.18625,33.18625,0,0,0,1.6476,3.37845.94542.94542,0,0,0-.08993-.06,18.33436,18.33436,0,0,0-7.968-1.3244c-.78465.045-.643,1.25443.13828,1.21444a16.88985,16.88985,0,0,1,7.34994,1.23111.6125.6125,0,0,0,.83631-.59473c.86961,1.5293,1.7442,2.88035,2.36057,3.82658,1.75919,2.6971,4.463,6.6253,7.62819,8.87927a.488.488,0,0,0-.27153.33151m9.47732-1.20944s-.1816-.45146-.16325-.40648c-6.74358,5.55912-11.04164-1.80417-14.01025-6.0539-1.78421-2.55883-11.37149-15.76111-3.66165-17.45866A104.68389,104.68389,0,0,0,98.55947,127.766Zm33.24811-7.73812c-.19329,5.22094-2.77542,7.07676-6.23885,10.3336a69.67435,69.67435,0,0,1-10.27859,8.15626c-2.36891,1.506-12.22772,7.65483-14.37675,4.4363-.88959-1.33106-.25155-6.12719-.31983-7.77811q-.15244-3.6883-.30321-7.37329c10.72176-4.263,21.22695-7.96135,30.83085-13.84532.03833-.02166.075-.04831.11327-.07163a36.08647,36.08647,0,0,1,.57311,6.14219m22.508-27.90388a100.80387,100.80387,0,0,1-22.27647,19.81592.61771.61771,0,0,0-.99121.53809c.00336.025.00666.055.01169.08163-9.73222,6.06555-20.79379,9.9621-31.38561,14.17183a.60184.60184,0,0,0-.1666-.28487,93.327,93.327,0,0,1-18.10505-23.80909,97.866,97.866,0,0,1,39.87507-45.046,95.21178,95.21178,0,0,1,29.81635-11.36312c2.21563-.44146,4.438-.823,6.66524-1.18946a15.90249,15.90249,0,0,0,16.06767,15.73613.56285.56285,0,0,0,.35816.08l.27819-.03331a161.10479,161.10479,0,0,1-20.14742,31.30231m20.80549-32.62338c-8.92927.698-15.91607-5.75735-16.1543-14.66161,8.38117-1.34105,16.79065-2.4189,24.96521-4.81279-2.73038,6.557-5.63239,13.08733-8.81091,19.4744"/>
        <path d="M144.16387,66.653c-3.38676-4.23639-9.8005-4.00816-13.49378-.3515a.71431.71431,0,0,0-.075.11495c-3.55,2.72875-5.22095,7.49656-2.50384,11.663,3.02026,4.6362,10.01372,4.68451,14.22683,1.74754a9.12627,9.12627,0,0,0,1.84577-13.174M142.548,78.04442c-2.95865,2.70709-8.12962,3.595-11.59472,1.2561-5.27092-3.56-2.80872-10.73009,2.17567-13.02237a.5752.5752,0,0,0,.3482-.51809A7.67316,7.67316,0,0,1,142.548,78.04442"/>
        <path d="M122.27276,81.00557c-4.0915-3.37845-10.33528-2.274-13.6071,1.63592a.55.55,0,0,0,.09827.81962,9.358,9.358,0,0,0,.80631,11.16155A9.64641,9.64641,0,0,0,123.199,94.636a9.7495,9.7495,0,0,0-.92624-13.63042m.47479,12.2777A8.41778,8.41778,0,0,1,111.491,94.71262c-4.19308-3.13855-3.72327-9.59226.13162-12.75415a.58716.58716,0,0,0,.22486-.44313,8.11849,8.11849,0,0,1,10.90005,11.76793"/>
        <path d="M103.04553,93.43921c-2.96693-1.49765-9.79384-.9579-10.56848,3.01861a.51244.51244,0,0,0,.26325.58806,8.83248,8.83248,0,0,0,1.61257,11.19654c3.50507,2.9903,9.87046,3.15522,12.45594-1.17946,2.239-3.75494.21327-11.61634-3.76328-13.62375m1.2778,14.37673c-3.00867,2.41057-7.64654,1.541-10.05541-1.371a7.859,7.859,0,0,1,.32151-9.95711.59384.59384,0,0,0-.41815-.95622c1.9658-2.7604,8.69439-1.391,10.17869.63638,2.264,3.09524,3.15021,9.10248-.02664,11.648"/>
        <path d="M99.55754,89.849a7.92433,7.92433,0,0,0-7.59321,1.45767c-.59975.50311.13493,1.47766.73966.97122a6.65489,6.65489,0,0,1,6.37373-1.30606c.74469.23323,1.22945-.88459.47982-1.12282"/>
        <path d="M102.154,87.01664a6.02647,6.02647,0,0,0-7.15508-.57473c-.66971.40814.07331,1.37437.73966.97122a4.79558,4.79558,0,0,1,5.66742.56973c.58806.5181,1.33438-.44646.748-.96623"/>
        <path d="M123.67165,97.01372a6.532,6.532,0,0,1-6.79859,3.10525.61008.61008,0,0,0-.17992,1.20611,7.79387,7.79387,0,0,0,8.1013-3.83324c.3965-.67635-.72965-1.14613-1.12279-.47812"/>
        <path d="M127.96732,98.04675a9.21965,9.21965,0,0,1-6.21551,5.4675c-.75466.2099-.29487,1.33939.45649,1.13115a10.39369,10.39369,0,0,0,6.88182-6.12053.61053.61053,0,0,0-1.12279-.47812"/>
        <path d="M146.82755,63.66551a11.68382,11.68382,0,0,0-7.5166-2.78372c-.783-.01-.638,1.19945.13828,1.21112a10.39754,10.39754,0,0,1,6.63031,2.53716c.598.5081,1.346-.45478.748-.96456"/>
        <path d="M144.18141,59.03547c-.763-.19657-.933,1.01287-.17992,1.20446a6.76562,6.76562,0,0,1,4.64783,4.11311.61.61,0,0,0,1.13118-.45478,8.04385,8.04385,0,0,0-5.59909-4.86278"/>
        <path d="M157.86578,81.10136a16.748,16.748,0,0,1-4.48632,6.2738c-.58638.51143.14662,1.48765.73966.96956a18.064,18.064,0,0,0,4.86944-6.76524.61055.61055,0,0,0-1.12279-.47812"/>
        <path d="M157.34605,77.36939a16.44693,16.44693,0,0,1-3.5767,5.73737c-.54144.56808.42644,1.31274.96452.748a17.31526,17.31526,0,0,0,3.735-6.00725c.26991-.73467-.85125-1.21777-1.12279-.47812"/>
        <path d="M75.35228,88.71986a21.35931,21.35931,0,0,1-5.86569,6.43539c-.63468.46146.105,1.43268.74134.96956a22.15127,22.15127,0,0,0,6.08887-6.65862c.39482-.66636-.563-1.42269-.96452-.74633"/>
        <path d="M79.54637,86.618l-4.63289,6.22215c-.46813.62972.49309,1.37937.9629.74966q2.31888-3.11608,4.63284-6.22548c.46645-.62971-.49309-1.37937-.96285-.74633"/>
        <path d="M115.31031,123.298a35.93819,35.93819,0,0,1-7.78645,3.4251c-.7513.23156-.29156,1.361.45481,1.13114a37.2635,37.2635,0,0,0,8.07125-3.58669c.67306-.39981-.07-1.366-.73961-.96956"/>
        <path d="M119.66465,124.65889a15.50563,15.50563,0,0,1-8.48112,3.87656.60982.60982,0,0,0,.13823,1.21111,16.69873,16.69873,0,0,0,9.0825-4.11811c.58308-.51809-.15155-1.49431-.73961-.96956"/>
        <path d="M57.98475,143.62637a14.6645,14.6645,0,0,0-1.2478,10.0504c.17494.75632,1.38939.62638,1.21277-.13994a13.663,13.663,0,0,1,1.15614-9.43234c.35816-.70135-.76462-1.17446-1.12111-.47812"/>
        <path d="M62.52134,138.34729a17.51567,17.51567,0,0,0-2.82875,10.292c.02832.78464,1.24114.6397,1.21282-.13827a16.09145,16.09145,0,0,1,2.58045-9.40735c.42146-.653-.53808-1.40936-.96452-.74633"/>
        <path d="M85.19477,130.01044A15.59575,15.59575,0,0,1,81.783,136.8723c-.50814.59639.45476,1.34438.96452.74466a16.85392,16.85392,0,0,0,3.655-7.4266c.16492-.76964-1.04282-.9429-1.20774-.17992"/>
        <path d="M141.80557,98.27145c2.0277-1.4486,3.7038-3.5965,6.4663-3.6377,1.4052-.0209,1.5747-.8463,1.8456-1.8779,2.219-8.4506,7.7344-12.0197,16.2315-10.451a1.88532,1.88532,0,0,0,2.3601-1.1225c6.6691-10.8486,19.1059-11.2307,26.6-.7278,1.2745,1.7863,1.3956,4.2546,1.278,6.5804-.0529,1.047-.5591,2.283,1.4719,2.6224,7.5171,1.2564,10.8179,5.4119,10.6549,12.9413-.0087.4039.0116.8084.0185,1.2124-2.4575,6.6522-7.1999,9.2642-14.2834,9.12-14.338-.2917-28.6893-.2618-43.028.0093-4.9132.0929-8.441-1.3629-10.803-5.6253l.026.0538a8.35328,8.35328,0,0,1-.032-6.6544l.0333-.0294C141.97137,100.33235,140.85707,98.806,141.80557,98.27145Z" fill="#d2ecf1"/>
      </g>
    </g>
  </g>
</svg>
