<svg xmlns="http://www.w3.org/2000/svg" viewBox="0 0 91.63152 98.45887">
  <title>Recurso 9</title>
  <g id="Capa_2" data-name="Capa 2">
    <g id="Editar">
      <g>
        <g>
          <path d="M62.39043,67.77543a16.39971,16.39971,0,0,0-4.1988-5.7454c-1.8458-2.2667-3.7289-4.504-5.7291-6.6164-3.071-5.863-9.2791-10.4999-14.2296-14.1811-6.344-4.7172-17.8968-6.7409-22.2766,1.7983a12.607,12.607,0,0,0-.9458,6.242c-.0795.2243-.1627.4466-.2315.6739a12.44938,12.44938,0,0,0-1.0031,4.9753,5.92619,5.92619,0,0,0,1.3599,3.6362,13.113,13.113,0,0,0,.7296,1.5103c1.6792,2.9444,5.4226,4.8367,8.4656,6.2237,7.6877,6.0381,18.6294,8.752,27.816,11.8561,3.6602,1.2361,8.4526,1.4266,10.733-2.3301C64.40043,73.31383,63.72193,70.32223,62.39043,67.77543Z" fill="#a0bac9"/>
          <path d="M76.11513,47.68493c-1.3752-.2727-2.6564-.7436-3.9452-1.1077a36.775,36.775,0,0,0,6.1882-4.4811c3.1987-3.0233,8.684-9.2917,4.8779-13.7964-4.2675-5.0491-11.8354-.1964-16.1059,2.4129-3.1606,1.9302-5.247,5.5315-8.2303,7.6168a38.33626,38.33626,0,0,0,3.5746-9.0163,3.94174,3.94174,0,0,0-2.9397-4.8711c.029-.1082.055-.2135.084-.3228.8663-3.2839,2.2468-8.3323-.9382-10.8446a4.22777,4.22777,0,0,0-5.7978.2999c0-.0676.0032-.1341.0039-.2017-.0275-3.6368-1.3484-6.4834-2.4012-9.8319a1.61714,1.61714,0,0,0-3.091.2124c-1.1804,6.9792-2.4111,14.0074-3.4478,21.0458a144.58075,144.58075,0,0,0-1.0458,19.8625c-.0589,2.8281,2.1314,4.0429,4.314,3.8316a3.99942,3.99942,0,0,0,1.8764,1.02,19.77307,19.77307,0,0,0,4.897,3.79c1.6838.9783,3.4776,2.1544,5.2791,3.0471.8044.8843,1.712,1.7101,2.398,2.4982,1.6815,1.9347,3.5265,3.63,6.1753,3.934,2.4209.2778,5.2598-1.4504,4.8504-4.2515a8.26583,8.26583,0,0,0-2.0551-4.2037c-.4332-.5623-1.0558-.8113-1.3454-1.4015l-.0023-.0038c2.8863,1.5493,5.4685,3.285,9.0401,3.3828,2.2835.0627,4.0849-2.3682,3.9153-4.4936-.0198-.2514-.0389-.5023-.0596-.7537C81.91213,47.63883,78.50553,46.61163,76.11513,47.68493Z" fill="#8392bf"/>
          <path d="M83.75253,73.96513a42.93387,42.93387,0,0,0-11.0264.0775,4.40533,4.40533,0,0,0-2.3996,1.0162,6.12753,6.12753,0,0,0-1.9298.3575,5.25309,5.25309,0,0,0-3.4853,4.1678,3.7992,3.7992,0,0,0-3.0848,5.9055c1.7609,2.853,1.9075,6.2848,3.9298,9.11,2.1384,2.9901,7.3861,2.3094,8.0072-1.6109a18.62962,18.62962,0,0,0-.3056-6.5353,4.40721,4.40721,0,0,0,6.81-1.2427,4.78567,4.78567,0,0,0,.6478-2.7182q.53865.05445,1.0765.1352C87.63033,83.47733,89.38223,74.72793,83.75253,73.96513Z" fill="#8392bf"/>
          <path d="M15.11213,40.96393a34.55892,34.55892,0,0,0-4.3095-1.1895,7.39736,7.39736,0,0,0-2.3561-.393,15.76309,15.76309,0,0,0-1.6127.2265,2.96137,2.96137,0,0,0-2.4608,4.0525c-.0482-.0317-.097-.0638-.1459-.0956a2.19579,2.19579,0,0,0,1.0222,1.3947l.0076.0153c.3781.7922.8129,1.5543,1.2537,2.3118a8.54362,8.54362,0,0,0,4.0368,3.6269c1.3813.5111,3.2667.2689,3.8909-1.3118a17.20439,17.20439,0,0,0,.7708-2.5504c-.0267.1157.2292-.9107.1712-.7484.3078-.8541.1566-.2628.084-.2123C17.17943,44.90873,17.25353,41.80283,15.11213,40.96393Z" fill="#8392bf"/>
          <path d="M33.11963,54.98473a5.0396,5.0396,0,0,0-1.641-3.1686,4.91416,4.91416,0,0,0-6.9338.4768,5.00607,5.00607,0,0,0-1.1909,3.277,5.1141,5.1141,0,0,0-.0345,1.0115,5.04511,5.04511,0,0,0,2.7618,4.1312l.0122.0061a4.97177,4.97177,0,0,0,5.004-.3439l.0107-.0075a5.05793,5.05793,0,0,0,2.0841-3.1339A5.1144,5.1144,0,0,0,33.11963,54.98473Z" fill="#ff7d7d"/>
        </g>
        <g>
          <path d="M2.08033,46.73113a106.80026,106.80026,0,0,0,6.7764,8.9606,1.24171,1.24171,0,0,0,.942.4557A15.34244,15.34244,0,0,0,14.85,66.24673c6.4518,6.0935,15.1229,9.8369,23.6617,11.8878a103.36048,103.36048,0,0,0,13.3099,2.1196c2.1024.2239,4.211.3939,6.3188.5432-.2253,3.4394,1.3713,7.1312,2.6907,10.1424,1.2735,2.9096,3.7977,9.0324,8.0217,7.1745a4.56265,4.56265,0,0,1,2.2743-.6941,12.18273,12.18273,0,0,0,2.4722.1964,3.06816,3.06816,0,0,0,2.8626-3.5154c-.1161-1.1028-.8709-2.1888-1.1314-3.279a5.13887,5.13887,0,0,1,.8877.3125,7.17948,7.17948,0,0,0,2.3783.56c2.0612.184,4.2545-.6429,4.2323-3.0865a7.285,7.285,0,0,0-.5523-2.6051c-.1398-.351-.6326-1.437-.5302-1.6036.5256-.8683,2.2399-1.3453,3.0696-1.9401a10.67258,10.67258,0,0,0,1.6204-1.5008c.9359-1.0394,2.1414-2.7877,1.4829-4.2782-.7892-1.7904-2.1033-2.376-4.0162-2.3882-1.968-.0141-3.9292.0718-5.9002.0305a55.69,55.69,0,0,0-7.7573.0398,19.265,19.265,0,0,0-3.6029.6753,18.52111,18.52111,0,0,0-2.9604-9.875c-.7502-1.2988-1.5531-2.5647-2.3904-3.8046a55.78928,55.78928,0,0,0,5.0819,3.3233c1.9435,1.1008,5.4188,2.9439,7.616,1.4988,1.79-1.1779,1.3416-3.5715.7533-5.2809a11.248,11.248,0,0,1-.7357-2.3125c.0351-.0034.071-.0057.1146-.0107a6.04332,6.04332,0,0,1,.754-.0573c.5798-.003,1.159.021,1.7388.0363,2.56.0664,5.8772-.4416,6.6167-3.405.6372-2.5486-1.0612-4.9059-2.8748-6.5251a8.99474,8.99474,0,0,0-2.2812-1.4382,29.93545,29.93545,0,0,0,11.1463-10.3223c1.6746-2.4798,3.5029-6.226,1.599-9.0821-1.8236-2.7385-5.0498-3.596-8.1646-3.8378-6.5884-.5111-12.8392,1.9711-18.103,5.7672a5.93787,5.93787,0,0,0,.4699-2.9019,7.47134,7.47134,0,0,0-3.897-5.6331,6.0758,6.0758,0,0,0,.0405-6.7413,5.78611,5.78611,0,0,0-4.509-2.7721c.2605-4.3496-.2078-9.0649-4.5143-11.1948-5.0544-2.4997-7.3234,5.6572-7.7229,8.9805-.7732,6.4009-.4638,12.8663-.6792,19.2937-.1077,3.227.3469,6.5066.4347,9.7409.0474,1.6777.2628,3.3645.424,5.048a41.29916,41.29916,0,0,0-7.5519-4.5915c-3.5402-1.633-7.7848-2.9852-11.736-2.3897a17.20222,17.20222,0,0,0-10.5046,5.8134c-2.023-1.6887-4.9581-1.6998-7.4487-2.0574-1.8504-.2655-4.444-.7196-6.1125.4061C-1.39267,42.493.78163,44.88083,2.08033,46.73113Zm56.6789-30.0193a3.105,3.105,0,0,1-1.068,3.6949,1.62356,1.62356,0,0,0,.5386,2.9023c2.217.7941,4.2897,2.8526,3.0566,5.3008-1.0168,2.0184-2.8038,3.5219-3.2942,5.7863a1.25284,1.25284,0,0,0,.2475,1.0959c-3.2675,3.7446-5.9957,7.9655-9.4419,11.5417q-1.18155-1.07715-2.4134-2.0887a55.4522,55.4522,0,0,0,.5951-12.6571c-.2605-5.2294-.0702-10.6207.1857-15.8589a53.93912,53.93912,0,0,1,.6242-8.014c.2949-1.4687.6723-4.2156,2.0818-5.0941,1.8885-1.175,3.3691,2.7484,3.515,4.0566a28.64425,28.64425,0,0,1-.2238,6.5782c-.1856,1.552,1.6761,2.7973,2.8465,1.4531C57.09993,14.15473,58.388,15.45273,58.75923,16.71183Zm.1933,37.9134c-2.2369-1.6467-4.3585-3.5555-6.9147-4.6861a1.29435,1.29435,0,0,0-.3224-.0913c-.2551-.2613-.5164-.52-.7785-.7781a37.23213,37.23213,0,0,0,5.1148-4.9758c2.0413-2.4382,4.0048-4.9635,6.2026-7.2657,4.0323-4.2213,9.6696-8.0167,15.5599-8.8483,2.654-.3747,6.1285-.623,8.551.8018,2.5433,1.4962.7319,4.46-.589,6.2558-3.5707,4.863-7.9582,9.2264-14.1509,10.2994-2.1415.3709-2.5976,3.2538-.3347,3.8821,2.314.6406,5.2791,1.0493,6.991,2.8798.4539.4866,1.2262,1.2793,1.1659,2.0092-.0458.5623-1.7755.5142-2.0925.5111-2.0146-.0168-4.755-.4713-6.3203,1.1456-1.3561,1.403-1.0359,3.3244-.4889,5.0177.1779.549.3881,1.0945.5538,1.649a18.6286,18.6286,0,0,1-5.4792-3.0741C63.42093,57.75143,61.15123,56.24073,58.95253,54.62523Zm2.7487,27.2187c-.0916-.2842-.1604-.5573-.2215-.8273a21.71516,21.71516,0,0,0,4.632-.144,1.95575,1.95575,0,0,0,1.6516-2.5865c1.0757-.113,2.1568-.2979,3.2278-.3178,1.9978-.0347,3.9872.0913,5.9811.22,2.0666.1326,4.1323.0497,6.1867.1299.0573.0027.1168.0011.1757.0011-2.1147,2.1434-5.9116,2.8023-5.5877,6.54a9.12433,9.12433,0,0,0,.7051,2.3829c.0436.1168.0986.2467.1528.3796-.1902-.0321-.382-.058-.5737-.0814a2.18637,2.18637,0,0,0-.3224-.1298,8.35724,8.35724,0,0,0-2.1055-.641c-3.3508-.3189-5.1186,2.1533-4.0055,5.3074.178.503.3652,1.0018.5516,1.5011a6.70391,6.70391,0,0,0-3.4524.3266c-.3514.1516-.6967.3396-1.055.4752-.5455.2047-.1811.2739-.4057-.0248a21.32072,21.32072,0,0,1-1.4462-2.0868,31.50008,31.50008,0,0,1-2.3293-5.1239C62.82893,85.39153,62.26973,83.61793,61.70123,81.84393ZM26.431,39.48833c7.9316-.1826,15.0984,4.9941,20.7479,10.288a1.608,1.608,0,0,0,.8511.8091c.2331.2261.466.4515.6952.6757a77.97372,77.97372,0,0,1,9.8568,11.589c2.6494,3.8913,6.0117,8.7555,5.02,13.706a1.52133,1.52133,0,0,0-.0275.3923q-1.4496-.05835-2.9039-.1322a1.02444,1.02444,0,0,0-.4644-.0217c-7.8934-.4042-15.8577-1.1654-23.4409-3.3038a53.9861,53.9861,0,0,1-12.4634-5.1472c-3.722-2.1568-7.9307-4.692-9.9996-8.6268C10.06843,51.66073,17.42093,39.69653,26.431,39.48833Zm-23.2964,2.9169c3.5318-.4133,7.2677.5493,10.7399,1.1398a21.42484,21.42484,0,0,0-3.7938,8.5725c-1.4806-1.8656-3.0797-3.6384-4.5472-5.5086a22.41924,22.41924,0,0,0-2.5211-3.0143C2.34393,43.00953,1.971,42.54083,3.13463,42.40523Z" fill="#463131"/>
          <path d="M22.36063,47.52563a10.507,10.507,0,0,1,.4065-1.7781,13.45063,13.45063,0,0,1,1.2117-1.7628,4.87419,4.87419,0,0,1,4.4524-1.9184c3.7632.3763,3.9681,5.4869,2.9145,8.0801-.4889,1.2025-1.4141,3.4196-3.0115,3.3004-1.5861-.1192-1.4501-2.0142-.9458-3.0922.6188-1.3197,1.8464-3.4596.5683-4.7706-.5424-.5569-1.6555.2208-2.1299.5387a4.91409,4.91409,0,0,0-1.6372,2.0573C23.67393,49.12353,22.02753,48.62583,22.36063,47.52563Z" fill="#463131"/>
        </g>
      </g>
    </g>
  </g>
</svg>
