<?xml version="1.0" encoding="utf-8"?>
<!-- Generator: Adobe Illustrator 21.1.0, SVG Export Plug-In . SVG Version: 6.00 Build 0)  -->
<svg version="1.1" id="Capa_1" xmlns="http://www.w3.org/2000/svg" xmlns:xlink="http://www.w3.org/1999/xlink" x="0px" y="0px"
	 viewBox="0 0 155.5 185.1" style="enable-background:new 0 0 155.5 185.1;" xml:space="preserve">
<style type="text/css">
	.st0{fill:#FFFFFF;stroke:#000000;stroke-miterlimit:10;}
	.st1{fill:#FFFFFF;}
</style>
<path class="st0" d="M7.3,43l6.8,3.5l4.9,9.4v65.8c0,0,1.5,39.6-5.8,47.9s-9.8,7-9.8,7l1.5-17.9l-0.3-30.3l-1.3-23.3V70.8
	C3.3,70.8-2,28.2,7.3,43z"/>
<g id="Capa_2">
	<g id="Editar">
		<path d="M148.5,183.9c-17.3-0.4-34.6-0.8-52-1.1c-14.3-0.2-28.7-0.3-43-0.2c-13,0.1-26,0.8-39.1,0.9c-3.5,0-7-0.8-10.4-1.5
			c-2.4-0.5-3-2.1-2.7-4.6c1.6-9.9,2-20,1.3-30c-0.3-3.3,0.3-6.7,0.1-10.1c-0.6-15-1.3-30.1-1.8-45.1c-0.3-9.8-0.3-19.6-0.4-29.4
			C0.4,55.7,0.2,48.4,0,41.1C-0.1,37.9,0.9,36,4.7,36c9.2,0,18.5-0.4,27.7-0.6c2.5-0.1,4.8-0.6,4.9-3.5C37.8,21.2,44.5,15,52.4,9.3
			C59.3,4.4,67.1,2,75,0.5c6.6-1.2,13.3,0,20.2,1.8c11.9,3.1,16.8,11.8,21.2,21.4c1.1,2.3,1.2,5.1,1.5,7.7c0.2,2.1,1,3.2,3.2,3.2
			c8.9,0,17.8,0.3,26.7-0.1c4.9-0.2,7.6,1.7,7.5,6.7c-0.4,14.7-1,29.4-1.3,44.1c-0.2,11.6,0.2,23.2,0.1,34.7
			c-0.2,11.2-0.9,22.3-1.2,33.5c-0.3,8.3-0.2,16.6-0.5,24.9c-0.2,1.9-0.8,3.8-1.7,5.6c-0.2,0.6-1.5,0.7-2.3,1
			C148.5,184.7,148.5,184.3,148.5,183.9z M27.1,122.7l0.1,0c0,10.4,0.1,20.9,0,31.3c0,3.2,1.1,4.7,4.4,4.6c4.9-0.1,9.8-0.1,14.7-0.1
			c5.1,0.1,10.2,0.4,15.4,0.4c13.9-0.1,27.9-0.2,41.8-0.4c6.6-0.1,13.3-0.5,19.9-0.3c2.3,0.1,3.4-0.6,3.6-2.6c0.4-4.3,0.8-8.7,1-13
			c0.3-8.8,0.7-17.5,0.7-26.3c0-10.9-0.5-21.9-0.7-32.8c-0.1-6.8-0.1-13.5-0.1-20.3c0-2.4-0.3-4.4-3.4-4.3
			c-8.4,0.2-16.9,0.7-25.3,0.7c-9.8-0.1-19.6-0.7-29.3-0.8c-13-0.2-26.1-0.2-39.1-0.3c-3.3,0-4.2,1.7-4.1,4.8
			c0.3,9.9,0.5,19.8,0.6,29.7C27.2,102.8,27.1,112.8,27.1,122.7z M4.6,43.5c-0.3,1.2-0.5,2.4-0.6,3.6c0,11.1,0,22.2,0.3,33.4
			c0.3,10.1,1.2,20.1,1.4,30.2c0.3,19.2,0.3,38.5,0.5,57.7c0.1,1.7,0.3,3.3,0.6,5c3.2-2.9,6.9-5.9,7.4-9.3c1.5-9.4,2-19,2.4-28.5
			c0.5-10.3,0.4-20.6,0.6-30.9c0.1-7.7,0.6-15.3,0.4-23c-0.1-8.4-0.8-16.8-1-25.1C16.4,50.8,10.5,44.1,4.6,43.5z M131.7,53.5
			c0.3,1.9,0.5,3.9,0.6,5.9c-0.2,8.3-0.9,16.6-0.9,24.8c0.1,10.8,0.8,21.6,0.9,32.4c0.1,14.1-0.1,28.2-0.1,42.3
			c0,3.4-1.2,4.3-4.7,4.1c-9.8-0.6-19.7-1.2-29.6-1.3c-12.5-0.1-25.1,0.3-37.6,0.6c-10.3,0.3-20.6,0.8-30.9,1.4
			c-7.3,0.5-7.9,0-6.6-7.2c0.1-0.4,0.1-0.7,0.1-1.1c0.2-7,0.5-13.9,0.6-20.9c0.1-9.1,0-18.1-0.1-27.2c-0.2-13.6-0.4-27.3-0.6-40.9
			c0-2.8-0.5-5.5-0.4-8.2c0.1-3.2,1.6-4.6,5.3-4c3,0.5,6.1-0.2,9.2-0.4c-3.4-1.4-6.9-2.3-10.4-2.9c-4.8-0.8-5.7-0.1-5.7,4.7
			c0,10.1,0.2,20.1,0.2,30.2c0.1,17.3,0.1,34.7,0.1,52c0,2.5-0.3,5-0.5,7.5c-0.5,7-1.1,13.9-1.6,21c4.8,0.4,9,1,13.2,1.1
			c4.3,0.1,8.5-0.3,12.8-0.3c11.7-0.1,23.4,0,35-0.2c13.8-0.2,27.6-0.5,41.5-0.8c3.3-0.1,6.6,0.1,9.8-0.2c1.1-0.4,2-1.4,2.3-2.6
			c0.8-7.8,0.6-15.8,2.1-23.5c2.3-11.8,0.5-23.5,0.4-35.2c-0.1-6.3,0.5-12.5,0.4-18.8c-0.1-9.9-0.3-19.8-0.6-29.6
			C135.7,53.9,134.2,52.5,131.7,53.5z M145.2,39.7c-1.8-0.6-3.5-1.5-5.3-1.6c-4.3-0.2-8.5-0.1-12.8,0.1c-3.3,0.1-6.8-1-9.7,1.7
			c-0.3,0.3-1.3-0.2-2-0.3c-2-0.3-4.1-1.1-6.1-1c-11.5,0.3-23.1,1.1-34.6,1.3c-7.4,0.1-14.8-0.8-22.2-0.9
			c-5.4-0.1-10.8,0.6-16.1,0.5c-6.7,0-13.5-0.5-20.2-0.6c-2.1,0.1-4.1,0.4-6.1,0.9c-0.2,0.4-0.3,0.8-0.5,1.2c2.2,1.5,4.1,4,6.5,4.4
			c9.9,1.7,19.8,3.2,29.8,4c6.5,0.5,13-0.1,19.6-0.2c10.3-0.2,20.6-0.6,30.9-0.5c11.2,0.1,22.3,0.2,33.5,1
			C136.8,50.2,142.8,47,145.2,39.7z M147.5,176.7c0.3-1.2,0.6-2.3,0.8-3.5c0.3-4.2,0.4-8.5,0.6-12.7c0.3-6.5,0.7-12.9,0.9-19.4
			c0.1-4.6,0-9.2,0-13.8c0.1-6.1,0.4-12.2,0.5-18.4c0.1-7,0-14,0.1-21c0.2-12.4,0.7-24.9,0.8-37.3c0-2.4-0.8-4.8-1.2-7.2
			c-0.4-0.1-0.8-0.3-1.2-0.4c-1.8,2.3-3.7,4.5-4.8,6c1.4,1.6,2.6,3.3,3.7,5.1c0.2,0.4-1.3,2.2-1.5,2.1c-1.6-0.9-3.2-1.9-4.7-2.9
			c-0.3,2.9-0.9,6-1,9.2c-0.2,10-0.3,20.1-0.4,30.2c-0.1,5.9-0.9,11.9-0.3,17.7c1.8,16.4-0.3,32.6-1.7,48.9
			c-0.2,3.6,0.5,7.2,2.1,10.4C141.7,172.3,144.7,174.1,147.5,176.7L147.5,176.7z M9.6,177.8c0.1,0.5,0.2,0.9,0.2,1.4
			c5.2,0.4,10.4,1.1,15.7,1.2c6.4,0.1,12.8-0.2,19.2-0.2c17-0.2,33.9-0.5,50.9-0.5c12.9,0,25.9,0.5,38.8,0.7c2.9,0,5.8-0.4,8.7-0.6
			c0.2-0.5,0.4-0.9,0.5-1.4c-2.8-2.2-5.3-4.9-8.3-6.4c-7.3-3.5-15.3-1.9-23-2c-10.6-0.2-21.1,0.6-31.7,0.7
			c-19.9,0.3-39.7,0.5-59.6,0.5C15.6,171.2,12.5,174.2,9.6,177.8z M81.6,3.6C71.7,5.7,62,8.1,53.3,13.7
			c-6.8,4.4-10.7,10.1-11.8,17.8c-0.3,1.7-0.8,3.7,2,3.8c7.6,0.2,15.1,0.7,22.7,0.7c11.8,0.1,23.5,0,35.3-0.1c3.3,0,6.5-0.3,9.8-0.9
			c1.2-0.4,2.1-1.4,2.4-2.6c0.5-8.7-8.5-23.1-16.5-25.7C92.2,5.2,86.9,4.6,81.6,3.6z M46.2,53.5c26.7,0.2,53.4,5.3,80,0.2
			C99.6,50.2,72.9,54.1,46.2,53.5z"/>
		<path class="st1" d="M131.7,53.5c2.5-1,4,0.3,4.1,3c0.3,9.9,0.6,19.8,0.6,29.6c0,6.3-0.5,12.5-0.4,18.8
			c0.1,11.7,1.9,23.4-0.4,35.2c-1.5,7.7-1.3,15.7-2.1,23.5c-0.3,1.2-1.1,2.2-2.3,2.6c-3.2,0.3-6.5,0.1-9.8,0.2
			c-13.8,0.2-27.6,0.6-41.5,0.8c-11.7,0.1-23.4,0.1-35,0.2c-4.3,0-8.5,0.5-12.8,0.3c-4.2-0.1-8.5-0.7-13.2-1.1
			c0.6-7.1,1.1-14.1,1.6-21c0.2-2.5,0.5-5,0.5-7.5c0-17.3,0-34.7-0.1-52c0-10.1-0.2-20.1-0.2-30.2c0-4.8,1-5.5,5.7-4.7
			c3.6,0.5,7.1,1.5,10.4,2.9c-3.1,0.2-6.3,0.9-9.2,0.4c-3.6-0.6-5.1,0.8-5.3,4c-0.1,2.7,0.4,5.5,0.4,8.2c0.2,13.6,0.4,27.3,0.6,40.9
			c0.1,9.1,0.2,18.1,0.1,27.2c-0.1,7-0.4,13.9-0.6,20.9c0,0.4-0.1,0.8-0.1,1.1c-1.3,7.1-0.7,7.6,6.6,7.2c10.3-0.7,20.6-1.1,30.9-1.4
			c12.5-0.4,25.1-0.7,37.6-0.6c9.9,0.1,19.7,0.7,29.6,1.3c3.5,0.2,4.7-0.7,4.7-4.1c0-14.1,0.2-28.2,0.1-42.3
			c-0.1-10.8-0.9-21.6-0.9-32.4c0-8.3,0.6-16.5,0.9-24.8C132.2,57.4,132,55.5,131.7,53.5z"/>
		<path class="st1" d="M145.2,39.7c-2.4,7.3-8.4,10.4-15.4,9.9c-11.1-0.8-22.3-0.9-33.5-1c-10.3-0.1-20.6,0.3-30.9,0.5
			C59,49.3,52.4,50,45.9,49.4c-10-0.8-19.9-2.3-29.8-4c-2.4-0.4-4.3-2.9-6.5-4.4c0.2-0.4,0.3-0.8,0.5-1.2c2-0.5,4.1-0.8,6.1-0.9
			c6.7,0.1,13.5,0.6,20.2,0.6c5.4,0,10.8-0.6,16.1-0.5c7.4,0.1,14.8,1,22.2,0.9c11.5-0.2,23.1-0.9,34.6-1.3c2-0.1,4,0.6,6.1,1
			c0.7,0.1,1.7,0.6,2,0.3c2.9-2.7,6.4-1.5,9.7-1.7c4.3-0.1,8.5-0.3,12.8-0.1C141.7,38.2,143.5,39.2,145.2,39.7z"/>
		<path class="st1" d="M147.5,176.7c-2.7-2.6-5.8-4.4-7.2-7.1c-1.6-3.2-2.3-6.8-2.1-10.4c1.4-16.3,3.5-32.5,1.7-48.9
			c-0.6-5.8,0.2-11.8,0.3-17.7c0.2-10.1,0.2-20.1,0.4-30.2c0.1-3.2,0.6-6.3,1-9.2c1.5,1.1,3.1,2,4.7,2.9c0.1,0.1,1.7-1.7,1.5-2.1
			c-1.1-1.8-2.4-3.5-3.7-5.1c1.2-1.5,3-3.7,4.8-6c0.4,0.1,0.8,0.3,1.2,0.4c0.4,2.4,1.3,4.8,1.2,7.2c-0.2,12.4-0.6,24.9-0.8,37.3
			c-0.1,7,0,14-0.1,21c-0.1,6.1-0.4,12.2-0.5,18.4c-0.1,4.6,0.1,9.2,0,13.8c-0.2,6.5-0.6,12.9-0.9,19.4c-0.2,4.2-0.4,8.5-0.6,12.7
			C148.1,174.4,147.8,175.5,147.5,176.7z M146,163.9c-1.2-1.1-2.4-2.4-2.6-2.2c-1.3,0.7-2.4,1.8-3.2,3.1c-0.2,0.4,1.4,1.8,2.2,2.7
			C143.5,166.4,144.6,165.4,146,163.9z"/>
		<path class="st1" d="M9.6,177.8c2.9-3.6,6-6.6,11.4-6.6c19.9-0.1,39.7-0.3,59.6-0.5c10.6-0.1,21.1-0.9,31.7-0.7
			c7.7,0.1,15.7-1.4,23,2c3.1,1.5,5.6,4.2,8.3,6.4c-0.2,0.5-0.4,0.9-0.5,1.4c-2.9,0.2-5.8,0.7-8.7,0.6c-12.9-0.2-25.9-0.7-38.8-0.7
			c-17,0-33.9,0.3-50.9,0.5c-6.4,0.1-12.8,0.4-19.2,0.2c-5.2-0.1-10.4-0.8-15.7-1.2C9.8,178.7,9.7,178.3,9.6,177.8z"/>
		<path class="st1" d="M81.6,3.6c5.3,1.1,10.6,1.6,15.5,3.2c7.9,2.6,16.9,17,16.5,25.7c-0.3,1.2-1.2,2.2-2.4,2.6
			c-3.2,0.5-6.5,0.8-9.8,0.9c-11.8,0.1-23.5,0.2-35.3,0.1c-7.6-0.1-15.1-0.5-22.7-0.7c-2.9-0.1-2.3-2.1-2-3.8
			c1.2-7.8,5.1-13.5,11.8-17.8C62,8.1,71.7,5.7,81.6,3.6z M104.4,32.2c4.3,0.1,5.2-0.8,4.6-5.1c-1.1-8.1-7.3-14.5-15.3-16
			c-2.1-0.4-4.4-1.2-6.4-0.7c-2.2,0.6-4.2,2.2-6.1,3.6c-3.4,2.5-6.4,2.2-9-1.2c-2-2.5-4-3.3-6.7-1.2c-0.9,0.5-1.8,0.9-2.8,1.2
			C56.5,15.2,52,19.6,48,24.7c-1.1,1.7-1.6,3.7-1.6,5.7c-0.1,2.8,1.6,3.6,4.3,2.6c1-0.5,2.1-0.8,3.2-0.9c14,0,28.1,0.1,42.1,0.2
			C98.8,32.2,101.6,32.2,104.4,32.2z M77.2,14.5c1.4-2,2.7-3,2.7-3.9c0-1.1-1.2-2.1-1.8-3.2c-1,0.9-2.4,1.7-2.8,2.9
			C75,11,76.1,12.3,77.2,14.5z"/>
		<path class="st1" d="M46.2,53.5c26.7,0.6,53.3-3.3,80,0.2C99.6,58.8,72.9,53.7,46.2,53.5z"/>
		<path d="M146,163.9c-1.4,1.4-2.5,2.5-3.5,3.5c-0.8-0.9-2.4-2.3-2.2-2.7c0.8-1.3,1.9-2.3,3.2-3.1
			C143.6,161.6,144.8,162.9,146,163.9z"/>
		<path d="M104.4,32.2c-2.8,0-5.6,0-8.4,0C82,32.1,67.9,32,53.9,32c-1.1,0.1-2.2,0.4-3.2,0.9c-2.7,1.1-4.4,0.2-4.3-2.6
			c0-2,0.5-4,1.6-5.7c4-5,8.5-9.5,14.7-11.8c1-0.3,1.9-0.7,2.8-1.2c2.7-2.1,4.7-1.4,6.7,1.2c2.7,3.4,5.6,3.6,9,1.2
			c1.9-1.4,3.9-3.1,6.1-3.6c1.9-0.5,4.3,0.3,6.4,0.7c8,1.5,14.2,8,15.3,16C109.6,31.4,108.8,32.2,104.4,32.2z M71.9,23.8
			c0.3-0.2,0.6-0.4,0.8-0.5c-1.2-2.1-2.4-4.2-3.8-6.2c-0.6-0.6-1.5-0.8-2.3-0.5c-0.6,0.5-1,1.3-0.9,2.2c0.6,3.1,1.3,6.1,2.2,9.1
			c0.5,0.7,1.2,1.1,2.1,1.1c0.8-0.3,1.4-0.9,1.6-1.7C71.8,26,71.9,24.9,71.9,23.8z M92.9,29.3c5.6-2.6,3.3-7.2,4-10.4
			c0.2-1-2-2.6-3.1-3.9c-0.5,0.2-1,0.5-1.6,0.7C92.5,20,92.7,24.2,92.9,29.3z M63.2,24.1c-0.2-1.1-0.2-2.4-0.5-3.6
			c-0.6-2.6-2.2-3-4.1-1.4c-0.7,0.9-1,2.1-0.7,3.2c0.7,2.1,1.5,4.1,2.4,6.1c0.8-0.4,1.9-0.6,2.4-1.2C63.1,26.4,63,25.2,63.2,24.1z
			 M80.5,28.2c0.4-2.6,0.9-5.2,1.4-8c-1.4,0-2.4-0.1-3.4,0c-1,0.1-1.9,0.3-2.8,0.4C75.8,25.9,77.3,28.1,80.5,28.2z M87.3,28.2
			c2.3-3.9,2.4-7.7,0.9-11.8C83.9,19.7,83.5,24.3,87.3,28.2z M101.9,20.5c-0.5,0.1-1,0.2-1.6,0.3c0.1,1.8,0.1,3.6,0.4,5.4
			c0.1,0.5,0.9,0.9,1.4,1.3c0.4-0.5,1.3-1.1,1.2-1.6C103,24.1,102.4,22.3,101.9,20.5z"/>
		<path d="M77.2,14.5c-1.1-2.2-2.2-3.5-2-4.3c0.4-1.1,1.8-1.9,2.8-2.9c0.7,1.1,1.8,2.1,1.8,3.2C79.9,11.6,78.6,12.5,77.2,14.5z"/>
		<path class="st1" d="M71.9,23.8c0,1.1-0.1,2.2-0.3,3.3c-0.3,0.8-0.8,1.4-1.6,1.7c-0.8,0-1.6-0.4-2.1-1.1c-0.9-3-1.6-6-2.2-9.1
			c-0.1-0.8,0.3-1.6,0.9-2.2c0.8-0.2,1.7,0,2.3,0.5c1.4,2,2.5,4.1,3.8,6.2C72.4,23.4,72.1,23.6,71.9,23.8z"/>
		<path class="st1" d="M92.9,29.3c-0.2-5.1-0.4-9.3-0.6-13.6c0.5-0.2,1-0.5,1.6-0.7c1.1,1.3,3.3,2.9,3.1,3.9
			C96.2,22.1,98.6,26.7,92.9,29.3z"/>
		<path class="st1" d="M63.2,24.1c-0.2,1.1,0,2.3-0.5,3.1c-0.4,0.7-1.5,0.9-2.4,1.2c-0.9-2-1.7-4-2.4-6.1c-0.3-1.1,0-2.3,0.7-3.2
			c1.8-1.7,3.5-1.3,4.1,1.4C62.9,21.7,63,22.9,63.2,24.1z"/>
		<path class="st1" d="M80.5,28.2c-3.2,0-4.7-2.2-4.8-7.6c0.9-0.1,1.9-0.3,2.8-0.4c1-0.1,2,0,3.4,0C81.4,23,80.9,25.5,80.5,28.2z"/>
		<path class="st1" d="M87.3,28.2c-3.8-3.9-3.4-8.6,0.9-11.8C89.7,20.5,89.6,24.3,87.3,28.2z"/>
		<path class="st1" d="M101.9,20.5c0.5,1.8,1.1,3.6,1.5,5.5c0.1,0.4-0.8,1.1-1.2,1.6c-0.5-0.4-1.3-0.8-1.4-1.3
			c-0.3-1.8-0.3-3.6-0.4-5.4C100.9,20.7,101.4,20.6,101.9,20.5z"/>
	</g>
</g>
</svg>
