<svg xmlns="http://www.w3.org/2000/svg" viewBox="0 0 202.62259 74.81385">
  <title>Recurso 1</title>
  <g id="Capa_2" data-name="Capa 2">
    <g id="Editar">
      <g>
        <polygon points="200.501 6.444 202.623 0 190.109 2.762 177.455 2.287 165.105 7.925 152.599 10.069 139.904 8.765 127.44 11.484 114.542 7.143 102.144 13.707 100.788 11.375 101.674 10.785 101.212 7.62 102.97 10.238 106.073 21.744 116.047 25.91 127.013 31.79 117.441 42.05 115.548 53.199 119.704 54.576 131.508 49.569 130.251 56.037 133.288 65.006 138.744 67.348 145.712 58.168 151.23 47.482 159.938 39.626 168.217 31.201 176.086 22.788 187.988 20.714 195.939 13.768 201.306 4.955 200.501 6.444" fill="silver"/>
        <path d="M199.1249,5.3154a.5368.5368,0,0,0-.5004-.7754Q148.2386,6.6094,97.9153,9.9392l-.2617-.245a.55287.55287,0,0,0-.871.6344.52687.52687,0,0,0,.5063.7534l.21891-.0129q11.05184,10.40175,22.102,20.8036a84.06465,84.06465,0,0,0-5.22511,21.125.557.557,0,0,0,.8302.591q6.1821-3.9594,12.43891-7.7976,1.45064,9.22425,2.89939,18.4385c.06161.4047.6347.7872.9522.3555a165.21075,165.21075,0,0,1,32.6982-33.6788A169.57235,169.57235,0,0,1,182.8327,18.522c6.0263-3.479,12.0228-6.8565,16.4468-12.3618a.57082.57082,0,0,0-.1546-.8448M114.645,25.6895q-2.9436-2.76825-5.8823-5.5386-4.87575-4.58925-9.74989-9.1768,48.37889-3.18675,96.82179-5.2092a220.04346,220.04346,0,0,1-53.292,18.7136c-4.0469.8689-8.1099,1.7065-12.0647,2.9454-2.5112.7862-8.1686,4.3724-10.6043,3.1869-1.8441-.8973-3.7254-3.5043-5.2286-4.9213m5.8295,6.9855a.56314.56314,0,0,0,.6257.0342c11.6663-6.7615,26.0795-7.6946,38.8527-11.4593A213.61716,213.61716,0,0,0,190.0933,9.7611,820.80288,820.80288,0,0,0,115.6122,52.039a82.98717,82.98717,0,0,1,4.8623-19.364m59.1552-13.5609a162.95613,162.95613,0,0,0-18.4543,12.7747,166.1398,166.1398,0,0,0-29.7331,30.964q-1.391-8.827-2.77549-17.6561c-.00191-.0083-.00541-.0132-.00741-.0198q32.8434-20.16615,67.4752-37.1927c-4.7549,4.6918-10.74779,7.7076-16.5049,11.1299"/>
        <path d="M109.02681,38.9383c-1.10091,10.603-7.32231,19.4869-15.82511,25.6713-8.4441,6.1436-21.0071,11.4963-31.5065,8.1347a16.22145,16.22145,0,0,1-5.6793-3.3662c.6761-.3309,1.34491-.6767,2.0012-1.0455,9.2043-5.1736,17.2956-20.5513,6.3703-28.5787-4.2197-3.0995-9.7887-1.9609-13.301,1.6828-4.2914,4.454-4.572,11.6501-3.102,17.3092a22.95759,22.95759,0,0,0,5.9009,10.4687c-17.6549,7.917-41.2934,2.7248-52.8416-12.757q-.5271.35055-1.0437.716C11.7626,72.8452,36.396,78.1385,54.712,69.9865A18.295,18.295,0,0,0,60.0925,73.33c7.4682,2.9713,16.1007,1.0416,23.2451-1.9391,13.479-5.6254,25.198-17.1505,26.76-32.197.0717-.6973-.99579-.9565-1.07079-.2556M53.7007,40.6752C61.17,35.7189,68.2373,43.0897,68.343,50.6853c.0953,6.7621-4.20219,12.5205-9.7193,16.0062a37.02148,37.02148,0,0,1-3.4311,1.9163c-7.5307-7.4058-11.0195-21.6121-1.4919-27.9326"/>
        <path d="M116.304,23.9035q-3.3954-3.24405-6.7925-6.49c-.5118-.4903-1.261.3154-.7493.8041q3.39795,3.24675,6.79261,6.4917c.51339.4904,1.261-.3137.74919-.8058"/>
        <path d="M121.0665,24.9728l-6.586-6.243c-.5133-.4869-1.2642.3189-.7491.8075q3.293,3.11985,6.5859,6.2413c.515.4886,1.2643-.3172.7492-.8058"/>
        <path d="M145.0822,30.6978a19.77545,19.77545,0,0,0-7.1872,3.3674c-.5658.419.019,1.3521.5879.9279a19.00733,19.00733,0,0,1,6.9305-3.2458c.6871-.1656.3559-1.2167-.3312-1.0495"/>
        <path d="M147.2799,27.5098a26.16954,26.16954,0,0,0-7.8239,3.0808c-.6079.3636-.02,1.2898.5913.9294a25.11367,25.11367,0,0,1,7.5637-2.9607c.691-.1507.3583-1.1984-.3311-1.0495"/>
        <path d="M180.6284,6.9755q-4.57.43515-9.1399.8717c-.7024.0674-.6674,1.1678.04,1.0985q4.5699-.4374,9.1398-.8716c.7008-.0657.6658-1.1645-.0399-1.0986"/>
        <path d="M182.5134,8.3186a24.34811,24.34811,0,0,0-7.9015,1.2235.55077.55077,0,0,0,.3328,1.0494,23.38345,23.38345,0,0,1,7.6086-1.1743c.7102.0076.66851-1.0925-.0399-1.0986"/>
      </g>
    </g>
  </g>
</svg>
