<svg xmlns="http://www.w3.org/2000/svg" viewBox="0 0 91.6061 66.82301">
  <title>Recurso 11</title>
  <g id="Capa_2" data-name="Capa 2">
    <g id="Editar">
      <g>
        <path d="M61.59355,22.98308l19.3094,5.0233c-.0636-.1107-.13609-.2337-.2328-.3885-.7394-1.1808-.6114-1.3775-2.1359-2.0773A81.73826,81.73826,0,0,0,70.028,22.761q-5.84715-1.92435-11.6817-3.8881a6.73079,6.73079,0,0,1,3.2364,3.9554A.3291.3291,0,0,1,61.59355,22.98308Z" fill="#fff"/>
        <path d="M46.77625,30.53648c-.2589-.011-.5176-.0198-.7743-.0104-4.3445.1559-9.05009,4.8358-3.6449,8.0795a9.37466,9.37466,0,0,0,1.3813.6604Q45.19245,34.87968,46.77625,30.53648Z" fill="#fff"/>
        <path d="M57.47435,19.19718a.37632.37632,0,0,1-.077-.6435q-2.1729-.7308-4.3454-1.4615-2.9853-1.011-5.9655-2.0355a.28727.28727,0,0,1-.31959.2741,8.993,8.993,0,0,0-6.50391,2.1034l20.5832,5.3546A6.02137,6.02137,0,0,0,57.47435,19.19718Z" fill="#fff"/>
        <path d="M46.82465,40.96888c-.872-.3165-1.7822-.5473-2.6486-.8507q-1.233,3.7464-2.3733,7.5237a14.36741,14.36741,0,0,0,2.7704.9059q.95535-3.2676,1.9316-6.5293C46.60975,41.66808,46.71895,41.319,46.82465,40.96888Z" fill="#fff"/>
        <path d="M61.56625,39.571a20.53947,20.53947,0,0,0-2.7612-9.9225c-2.1751-3.5567-5.3628-5.0339-9.5028-4.9987-4.0549.0346-8.4312.1969-11.83439,2.6494a13.64577,13.64577,0,0,0-5.43871,9.7277c-.6435,6.3537,2.7771,14.493,9.3438,16.1784.2593.0551.519.1093.7784.1646a10.12421,10.12421,0,0,0,1.225.1395.3208.3208,0,0,1,.2784.1782c1.24.2658,2.4786.5376,3.7174.8075a.3536.3536,0,0,1,.4134-.2789C56.47815,55.86288,61.82145,47.24348,61.56625,39.571Zm-6.8747-6.7959q-.08475.12045-.1695.2409a.34531.34531,0,0,1-.3836.1561l-.2262-.0834c-.4073-.1506-.2301-.8067.1808-.655-1.12819-.4166-2.33-.8589-3.5561-1.2161q-1.3899,4.4319-2.742,8.8754c-.0526.1738-.1035.3478-.156.5216a5.68542,5.68542,0,0,1,3.67891,3.3907,3.99544,3.99544,0,0,1-2.73261,5.0043,7.38961,7.38961,0,0,1-3.7157.2639c-.4255,1.2657-.7336,2.5582-.3791,3.2355.2025.3871-.384.7301-.5868.3426-.5964-1.1394.0736-2.272.4171-3.4507.0212-.073.0434-.1459.0647-.2191a14.88139,14.88139,0,0,1-2.7794-.8919c-.2137.7108-.4375,1.4182-.6465,2.1305a.34.34,0,0,1-.6551-.1807c.2185-.745.45241-1.4851.6762-2.2284-.7152-.3327-1.3937-.6949-2.0094-1.0559a.3399.3399,0,0,1,.3433-.5863c.558.3272,1.1896.6692,1.86431.9892q1.1385-3.755,2.36209-7.4822c-2.332-.948-4.8185-2.7246-4.295-5.5617.5574-3.0204,4.0486-4.379,6.756-4.4676.3412-.0112.6811-.0041,1.01991.0176.342-.9368.67519-1.8767,1.02589-2.8105.1523-.4061.80911-.2291.6554.1805-.3376.8986-.6577,1.8028-.9872,2.7043a15.81019,15.81019,0,0,1,2.3617.4815c.3257-1.0372.6466-2.0758.9756-3.1119.1319-.4159.7878-.2371.6554.1806-.3304,1.0406-.6546,2.0835-.9819,3.1253q.36916.116.7343.2414c1.0041.3461,2.6071.618,3.2305,1.5767A.33156.33156,0,0,1,54.69155,32.77508Z" fill="#fff"/>
        <path d="M45.90465,46.41528c-.151.5114-.4889,1.332-.8131,2.2224a6.08754,6.08754,0,0,0,3.81-.4939c3.1652-1.6748,1.6172-5.2762-.79269-6.6074-.21131-.1168-.43-.219-.65131-.3152Q46.67515,43.81648,45.90465,46.41528Z" fill="#fff"/>
        <path d="M89.48686,31.32a1.15285,1.15285,0,0,1,.14849-.3399q-1.0623-.27645-2.1248-.5527l-.0006.0009a.36.36,0,0,1-.6457-.169l-4.6817-1.218a.30554.30554,0,0,1-.526.1028c-.0954-.1164-.1692-.212-.2353-.3009Q58.1336,22.78528,34.84645,16.727q-6.83789-1.7787-13.6751-3.5573a19.225,19.225,0,0,0-3.282-.8538c-1.8832-.125-1.9722.0108-2.45049,1.9011q-.89056,3.51855-1.8116,7.0292-3.519,13.4115-7.4844,26.7,37.39754,9.00645,74.79489,18.013,2.5266-8.5581,5.0525-17.1167l2.53761-8.5969q.63419-2.149,1.26869-4.2985.3174-1.0746.63431-2.1493a1.705,1.705,0,0,0-.28861-2.2971C90.03855,31.92588,89.38315,31.74458,89.48686,31.32Zm-3.074,7.3552q-2.73166,9.44325-5.46311,18.8864a.35348.35348,0,0,1-.316.5969,5.35769,5.35769,0,0,0-5.969,3.292c-.1492.3853-.7454.2398-.6641-.1279q-15.97635-3.8856-32.0587-7.3042c-.186-.0346-.3705-.0726-.5524-.1167q-13.7415-2.9184-27.5522-5.5036a.28418.28418,0,0,1-.2339-.3617.32571.32571,0,0,1-.0954-.3095,5.5526,5.5526,0,0,0-3.306-6.2214.36258.36258,0,0,1-.0158-.6634.33839.33839,0,0,1,.0229-.2053c2.9696-6.4864,5.8536-13.0582,6.0974-20.2953a.02831.02831,0,0,1,.0049-.0152c-.1112-.0547-.2237-.0954-.3346-.1514-.391-.1972-.0464-.7828.343-.5865a3.58315,3.58315,0,0,0,5.24749-3.4541c-.0204-.3699.4593-.4214.6231-.1668a.32916.32916,0,0,1,.4073-.2445q29.5644,7.46115,59.129,14.9221a.33986.33986,0,0,1-.18089.6548Q51.98145,23.839,22.41715,16.378a.30623.30623,0,0,1-.1709-.1127,4.235,4.235,0,0,1-5.2711,4.2709c-.2926,7.2779-3.1878,13.9096-6.1789,20.4436a.32047.32047,0,0,1-.0335.0455,6.23435,6.23435,0,0,1,3.4222,6.7496q12.02775,2.2479,24.0024,4.757c-3.9737-2.5222-6.3648-7.5086-6.823-12.1913-.6221-6.3582,2.5682-13.0314,8.8338-15.2472a26.25686,26.25686,0,0,1,12.1031-.9625,9.91585,9.91585,0,0,1,6.1977,3.8763c6.5337,8.462,4.204,27.087-8.2296,27.1208q12.03076,2.653,24.00451,5.5617a6.0442,6.0442,0,0,1,6.00779-3.2649q2.73585-9.4587,5.4721-18.9172a6.052,6.052,0,0,1-3.7173-7.4877c.1366-.4141.7925-.2356.65541.1805a5.36432,5.36432,0,0,0,3.78059,6.8151A.33844.33844,0,0,1,86.41286,38.67518Zm-6.86321-4.9889c.0341-.4336.7137-.4357.6797,0a5.25142,5.25142,0,0,0,1.6108,4.2821c.31471.305-.1662.7846-.4806.4803A5.92142,5.92142,0,0,1,79.54965,33.68628Zm1.2834,6.8403a5.36586,5.36586,0,0,1-2.44219-4.2921c-.02031-.4376.65939-.4352.67929,0a4.64817,4.64817,0,0,0,2.1058,3.7056C81.54015,40.17988,81.19925,40.768,80.833,40.52658Zm-15.3134,3.066a9.42039,9.42039,0,0,1-.8334,3.3178c-.1803.3979-.7661.0522-.5868-.3429a8.46785,8.46785,0,0,0,.7405-2.9749C64.86815,43.15788,65.54775,43.15618,65.51965,43.59258Zm-2.72379.2898c-.04791-.4345.63219-.4298.67939,0a6.1152,6.1152,0,0,1-1.6281,4.8755c-.2979.3218-.7771-.1598-.4806-.4803A5.44982,5.44982,0,0,0,62.79586,43.88238ZM31.72445,27.99268c-.3011.3185-.7809-.1626-.4807-.4803a11.1614,11.1614,0,0,1,3.7387-2.6129c.3979-.1706.7439.4149.3429.5865A10.69351,10.69351,0,0,0,31.72445,27.99268Zm3.3078.0224a5.94643,5.94643,0,0,0-2.6555,2.9352c-.1657.3987-.8227.2227-.6553-.1805a6.67767,6.67767,0,0,1,2.9679-3.3412C35.07315,27.21728,35.41555,27.80408,35.03225,28.01508Zm-13.0907,20.037c.4302.0777.2469.7321-.1809.6549a32.93023,32.93023,0,0,1-5.114-1.3548c-.4104-.1448-.2326-.8008.1806-.655A32.92283,32.92283,0,0,0,21.94155,48.05208Zm-2.8562-27.0337a2.783,2.783,0,0,0,2.7943-1.3467.34.34,0,0,1,.5867.3429,3.48679,3.48679,0,0,1-3.5619,1.6586C18.47286,21.60828,18.65725,20.954,19.08535,21.01838Zm.4277,25.6445a.33984.33984,0,0,1,.1807-.6548q1.83195.4587,3.6638.9177a.33991.33991,0,0,1-.1805.655Q21.345,47.12178,19.51305,46.66288Zm1.9972-23.8724c-.39439.1839-.739-.4018-.343-.5864a5.47973,5.47973,0,0,0,2.859-3.0557c.1524-.4063.8088-.2291.6554.1807A6.15142,6.15142,0,0,1,21.51025,22.79048Z" fill="#fff"/>
        <path d="M7.14275,42.09018c.2192-.7558.4306-1.5138.6479-2.27a.34013.34013,0,0,1-.0586-.1204,6.44843,6.44843,0,0,0-2.8352-3.902.32025.32025,0,0,1-.1482-.2075.28834.28834,0,0,1-.1497-.3667q4.0845-12.27105,8.1691-24.5418a.35261.35261,0,0,1,.5614-.1516.29586.29586,0,0,1,.3246-.3046,4.88465,4.88465,0,0,0,5.1082-4.8314.30685.30685,0,0,1,.2724-.3172c-.0589-.2332.109-.5182.396-.4155q30.54375,10.9278,61.4129,20.9132a.35114.35114,0,0,1,.2494.3276q.4512,1.19415.9032,2.3883l5.2506,1.366c.6565-.8731,1.6705-2.2985,1.3984-3.0721-.4096-1.166-2.8786-1.4961-3.8827-1.8417l-7.4612-2.5686q-7.46159-2.56845-14.9227-5.137Q47.4558,11.9,32.53325,6.76278L17.61086,1.626l-2.132-.734a4.00188,4.00188,0,0,0-2.4868,2.9536c-.433,1.0003-.7328,2.1283-1.0873,3.1589q-1.26884,3.68535-2.5373,7.3704-2.6277,7.6338-5.2554,15.2674-1.2684,3.68535-2.5371,7.3705l-.5437,1.5794a1.48611,1.48611,0,0,0,1.3517,1.5876c1.2361.9675,3.2591,1.3792,4.7512,1.9052Z" fill="#fff"/>
        <path d="M44.37515,39.50388c.8583.3013,1.7612.5633,2.6303.8716q1.4145-4.67715,2.8786-9.3387a16.2306,16.2306,0,0,0-2.4066-.4456Q45.86615,35.02713,44.37515,39.50388Z" fill="#fff"/>
        <path d="M13.65405,10.905a.32824.32824,0,0,1-.2237-.1031.31507.31507,0,0,1-.0071.0604q-4.05959,12.1968-8.1194,24.3931a7.14361,7.14361,0,0,1,2.8097,3.4326q3.8943-13.6197,7.3503-27.3591a.34509.34509,0,0,1,.4182-.2371l23.6008,6.1395a.33146.33146,0,0,1,.06639-.0891,9.698,9.698,0,0,1,6.2995-2.5077q-13.23465-4.5384-26.40889-9.2506l.00219.0066A5.57,5.57,0,0,1,13.65405,10.905Z" fill="#fff"/>
        <path d="M90.39555,30.504a.33406.33406,0,0,0-.12169-.0598l-2.34881-.6111a9.93652,9.93652,0,0,0,1.5189-3.8598.35019.35019,0,0,0-.2372-.4177q-30.6444-10.54935-61.2893-21.0988-3.9972-1.37595-7.9942-2.752c-1.4958-.5149-4.1346-2.1538-5.71939-1.5873-.6991.25-.8279.8433-1.1424,1.4418-1.1551,2.1997-1.7307,5.028-2.5371,7.3704L.01375,39.46448a.3411.3411,0,0,0,.1558.3837,57.419,57.419,0,0,0,6.7838,2.8917c-.4897,1.6826-.9723,3.3674-1.4722,5.047l-.0321-.0077c-.425-.1024-.6064.5523-.1809.6549q38.15595,9.18915,76.3112,18.3781c.425.1024.6064-.5524.1808-.6551-.0536-.0127-.107-.0258-.1605-.0386q3.871-13.11465,7.742-26.2297c.6333-2.1451,1.3326-4.2851,1.9031-6.4476.1795-.6794.6734-1.8681.0716-2.5515A1.07075,1.07075,0,0,0,90.39555,30.504ZM2.383,40.17978a1.48611,1.48611,0,0,1-1.3517-1.5876l.5437-1.5794q1.26855-3.68535,2.5371-7.3705,2.62771-7.6335,5.2554-15.2674,1.26885-3.68505,2.5373-7.3704c.3545-1.0306.6543-2.1586,1.0873-3.1589A4.00188,4.00188,0,0,1,15.47886.892l2.132.734,14.92239,5.1368q14.92275,5.1375,29.8453,10.2744,7.46115,2.5683,14.9227,5.137l7.4612,2.5686c1.0041.3456,3.4731.6757,3.8827,1.8417.2721.7736-.7419,2.199-1.3984,3.0721l-5.2506-1.366q-.4518-1.19415-.9032-2.3883a.35114.35114,0,0,0-.2494-.3276Q49.9779,15.59023,19.43065,4.66148c-.287-.1027-.4549.1823-.396.4155a.30685.30685,0,0,0-.2724.3172,4.88465,4.88465,0,0,1-5.1082,4.8314.29586.29586,0,0,0-.3246.3046.35261.35261,0,0,0-.5614.1516Q8.68326,22.95253,4.599,35.22358a.28834.28834,0,0,0,.1497.3667.32025.32025,0,0,0,.1482.2075,6.44843,6.44843,0,0,1,2.8352,3.902.34013.34013,0,0,0,.0586.1204c-.2173.7562-.4287,1.5142-.6479,2.27l-.0086-.0052C5.64205,41.559,3.61905,41.14728,2.383,40.17978Zm17.0569-34.7959q13.17389,4.7118,26.40889,9.2506a9.698,9.698,0,0,0-6.2995,2.5077.33146.33146,0,0,0-.06639.0891l-23.6008-6.1395a.34509.34509,0,0,0-.4182.2371q-3.43891,13.743-7.3503,27.3591a7.14361,7.14361,0,0,0-2.8097-3.4326q4.05944-12.19665,8.1194-24.3931a.31507.31507,0,0,0,.0071-.0604.32824.32824,0,0,0,.2237.1031,5.56933,5.56933,0,0,0,5.788-5.5108Zm27.327,9.9469a.28727.28727,0,0,0,.31959-.2741q2.98155,1.02075,5.9655,2.0355,2.17095.73545,4.3454,1.4615a.37632.37632,0,0,0,.077.6435,6.02137,6.02137,0,0,1,3.3718,3.5916l-20.5832-5.3546A8.993,8.993,0,0,1,46.76686,15.33078Zm11.57949,3.5421q5.8359,1.9593,11.6817,3.8881a81.73826,81.73826,0,0,1,8.5062,2.7796c1.5245.6998,1.3965.8965,2.1359,2.0773.09671.1548.1692.2778.2328.3885l-19.3094-5.0233a.3291.3291,0,0,0-.0108-.1548A6.73079,6.73079,0,0,0,58.34635,18.87288Zm32.08451,14.9249q-.31726,1.0749-.63431,2.1493-.6342,2.1495-1.26869,4.2985l-2.53761,8.5969q-2.52615,8.55825-5.0525,17.1167-37.3974-9.00645-74.79489-18.013,3.95594-13.2894,7.4844-26.7.9213-3.5106,1.8116-7.0292c.4783-1.8903.5673-2.0261,2.4505-1.9011a19.225,19.225,0,0,1,3.282.8538q6.83745,1.7787,13.6751,3.5573,23.28735,6.058,46.5748,12.1162c.0661.0889.1399.1845.2353.3009a.30554.30554,0,0,0,.526-.1028l4.6817,1.218a.35993.35993,0,0,0,.6454.1693l.0009-.0012q1.0626.276,2.1248.5527a1.15285,1.15285,0,0,0-.14849.3399c-.10371.4246.55169.6059.65539.1807A1.705,1.705,0,0,1,90.43086,33.79778Z"/>
        <path d="M86.47245,38.01548a5.36432,5.36432,0,0,1-3.78059-6.8151c.13709-.4161-.51881-.5946-.65541-.1805a6.052,6.052,0,0,0,3.7173,7.4877q-2.73584,9.4584-5.4721,18.9172a6.0442,6.0442,0,0,0-6.00779,3.2649q-11.972-2.91285-24.00451-5.5617c12.4336-.0338,14.7633-18.6588,8.2296-27.1208a9.91585,9.91585,0,0,0-6.1977-3.8763,26.25686,26.25686,0,0,0-12.1031.9625c-6.2656,2.2158-9.4559,8.889-8.8338,15.2472.4582,4.6827,2.8493,9.6691,6.823,12.1913q-11.97495-2.505-24.0024-4.757a6.23435,6.23435,0,0,0-3.4222-6.7496.32047.32047,0,0,0,.0335-.0455c2.9911-6.534,5.8863-13.1657,6.1789-20.4436a4.235,4.235,0,0,0,5.2711-4.2709.30623.30623,0,0,0,.1709.1127q29.5644,7.46085,59.12871,14.9219a.33986.33986,0,0,0,.18089-.6548Q52.162,23.18393,22.59775,15.723a.32916.32916,0,0,0-.4073.2445c-.1638-.2546-.6435-.2031-.6231.1668a3.58315,3.58315,0,0,1-5.24749,3.4541c-.3894-.1963-.734.3893-.343.5865.1109.056.2234.0967.3355.1426a.09871.09871,0,0,0-.0058.024c-.2438,7.2371-3.1278,13.8089-6.0974,20.2953a.33839.33839,0,0,0-.0229.2053.36258.36258,0,0,0,.0158.6634,5.5526,5.5526,0,0,1,3.306,6.2214.32571.32571,0,0,0,.0954.3095.28418.28418,0,0,0,.2339.3617q13.81126,2.5791,27.5522,5.5036c.1819.0441.3664.0821.5524.1167q16.07986,3.4233,32.0587,7.3042c-.0813.3677.5149.5132.6641.1279a5.35769,5.35769,0,0,1,5.969-3.292.35348.35348,0,0,0,.316-.5969q2.7312-9.4434,5.46311-18.8864A.33844.33844,0,0,0,86.47245,38.01548Zm-38.6869,16.2007a.3536.3536,0,0,0-.4134.2789c-1.2388-.2699-2.4774-.5417-3.7174-.8075a.3208.3208,0,0,0-.2784-.1782,10.12421,10.12421,0,0,1-1.225-.1395c-.2594-.0553-.5191-.1095-.7784-.1646-6.5667-1.6854-9.9873-9.8247-9.3438-16.1784a13.64577,13.64577,0,0,1,5.43871-9.7277c3.40319-2.4525,7.77949-2.6148,11.83439-2.6494,4.14-.0352,7.3277,1.442,9.5028,4.9987a20.53947,20.53947,0,0,1,2.7612,9.9225C61.82145,47.24348,56.47815,55.86288,47.78555,54.21618Z"/>
        <path d="M51.461,30.85558q-.3645-.12585-.7343-.2414c.3273-1.0418.6515-2.0847.9819-3.1253.1324-.4177-.5235-.5965-.6554-.1806-.329,1.0361-.6499,2.0747-.9756,3.1119a15.81019,15.81019,0,0,0-2.3617-.4815c.3295-.9015.6496-1.8057.9872-2.7043.15371-.4096-.5031-.5866-.6554-.1805-.3507.9338-.68389,1.8737-1.02589,2.8105-.33881-.0217-.67871-.0288-1.01991-.0176-2.7074.0886-6.1986,1.4472-6.756,4.4676-.5235,2.8371,1.963,4.6137,4.295,5.5617q-1.22745,3.7257-2.36209,7.4822c-.67471-.32-1.30631-.662-1.86431-.9892a.3399.3399,0,0,0-.3433.5863c.6157.361,1.2942.7232,2.0094,1.0559-.22379.7433-.4577,1.4834-.6762,2.2284a.34.34,0,0,0,.6551.1807c.209-.7123.4328-1.4197.6465-2.1305a14.88139,14.88139,0,0,0,2.7794.8919c-.0213.0732-.0435.1461-.0647.2191-.3435,1.1787-1.0135,2.3113-.4171,3.4507.2028.3875.7893.0445.5868-.3426-.3545-.6773-.0464-1.9698.3791-3.2355a7.38961,7.38961,0,0,0,3.7157-.2639,3.99544,3.99544,0,0,0,2.73261-5.0043,5.68542,5.68542,0,0,0-3.67891-3.3907c.0525-.1738.1034-.3478.156-.5216q1.34595-4.44555,2.742-8.8754c1.2261.3572,2.42791.7995,3.5561,1.2161-.4109-.1517-.5881.5044-.1808.655l.2262.0834a.34531.34531,0,0,0,.3836-.1561q.0849-.12045.1695-.2409a.33156.33156,0,0,0,0-.3428C54.06815,31.47358,52.46515,31.20168,51.461,30.85558Zm-9.104,7.75c-5.40519-3.2437-.6996-7.9236,3.6449-8.0795.2567-.0094.5154-.0006.7743.0104q-1.57665,4.34535-3.0379,8.7295A9.37466,9.37466,0,0,1,42.357,38.60558Zm2.2161,9.9422a14.36741,14.36741,0,0,1-2.7704-.9059q1.1439-3.7758,2.3733-7.5237c.8664.3034,1.7766.5342,2.6486.8507-.1057.3501-.2149.6992-.3199,1.0496Q45.52541,45.27918,44.57315,48.54778Zm3.53571-7.0114c2.40989,1.3312,3.95789,4.9326.79269,6.6074a6.08754,6.08754,0,0,1-3.81.4939c.3242-.8904.6621-1.711.8131-2.2224q.7674-2.5995,1.5529-5.1941C47.67886,41.31738,47.89755,41.41958,48.10886,41.53638Zm-1.10341-1.1609c-.8691-.3083-1.772-.5703-2.6303-.8716q1.48365-4.47915,3.1023-8.9127a16.2306,16.2306,0,0,1,2.4066.4456Q48.42245,35.69923,47.00545,40.37548Z"/>
        <path d="M16.64665,47.35218a32.93023,32.93023,0,0,0,5.114,1.3548c.4278.0772.6111-.5772.1809-.6549a32.92283,32.92283,0,0,1-5.1143-1.3549C16.41405,46.55138,16.23625,47.20738,16.64665,47.35218Z"/>
        <path d="M23.35755,46.92578q-1.83195-.459-3.6638-.9177a.33984.33984,0,0,0-.1807.6548q1.83225.45885,3.664.9179A.33991.33991,0,0,0,23.35755,46.92578Z"/>
        <path d="M34.68935,27.42858a6.67767,6.67767,0,0,0-2.9679,3.3412c-.1674.4032.4896.5792.6553.1805a5.94643,5.94643,0,0,1,2.6555-2.9352C35.41555,27.80408,35.07315,27.21728,34.68935,27.42858Z"/>
        <path d="M34.98245,24.89948a11.1614,11.1614,0,0,0-3.7387,2.6129c-.3002.3177.1796.7988.4807.4803a10.69351,10.69351,0,0,1,3.6009-2.5067C35.72635,25.31438,35.38035,24.72888,34.98245,24.89948Z"/>
        <path d="M61.84715,48.75788a6.1152,6.1152,0,0,0,1.6281-4.8755c-.0472-.4298-.7273-.4345-.67939,0a5.44982,5.44982,0,0,1-1.42931,4.3952C61.07,48.59808,61.54925,49.07968,61.84715,48.75788Z"/>
        <path d="M64.83995,43.59258a8.46785,8.46785,0,0,1-.7405,2.9749c-.1793.3951.4065.7408.5868.3429a9.42039,9.42039,0,0,0,.8334-3.3178C65.54775,43.15618,64.86815,43.15788,64.83995,43.59258Z"/>
        <path d="M81.84015,37.96838a5.25142,5.25142,0,0,1-1.6108-4.2821c.034-.4357-.6456-.4336-.6797,0a5.92142,5.92142,0,0,0,1.8099,4.7624C81.67395,38.753,82.15486,38.27338,81.84015,37.96838Z"/>
        <path d="M79.07015,36.23448c-.0199-.4352-.6996-.4376-.67929,0a5.36586,5.36586,0,0,0,2.44219,4.2921c.3662.2414.7071-.3467.3429-.5865A4.64817,4.64817,0,0,1,79.07015,36.23448Z"/>
        <path d="M22.46635,20.01458a.34.34,0,0,0-.5867-.3429,2.783,2.783,0,0,1-2.7943,1.3467c-.4281-.0644-.61249.5899-.1809.6548A3.48679,3.48679,0,0,0,22.46635,20.01458Z"/>
        <path d="M24.02625,19.14838a5.47973,5.47973,0,0,1-2.859,3.0557c-.396.1846-.05139.7703.343.5864a6.15142,6.15142,0,0,0,3.1714-3.4614C24.83505,18.91928,24.17865,18.74208,24.02625,19.14838Z"/>
      </g>
    </g>
  </g>
</svg>
