<svg xmlns="http://www.w3.org/2000/svg" viewBox="0 0 191.93287 110.24334">
  <title>Recurso 16</title>
  <g id="Capa_2" data-name="Capa 2">
    <g id="Editar">
      <g>
        <path d="M95.57834,53.33585c5.3458,5.5505,18.9325,1.7727,26.1991,1.1388q11.8194-1.03185,23.6384-2.0641c1.602-.0109,3.1731-1.6959-1.539-4.1217q-1.9653-1.14-3.9413-2.2597-7.24185-4.11855-14.5918-8.0407c-17.8028-9.499-37.2664-17.5967-56.0196-25.2781,4.1354,6.6272,7.7299,13.1816,12.1191,19.7647C85.86194,39.10185,90.04024,47.58525,95.57834,53.33585Zm-6.4494-24.2536q2.6655,5.092,5.332,10.1835c.5491,1.0486-1.1759,1.6924-1.7194.6548q-2.66535-5.0919-5.3322-10.1835C86.86024,28.68835,88.58554,28.04465,89.12894,29.08225Zm-7.2322-5.032q3.43875,6.24435,6.8777,12.4888c.5652,1.0255-.9252,2.1067-1.4965,1.0694q-3.43905-6.2445-6.8779-12.4889C79.83544,24.09445,81.32614,23.01285,81.89674,24.05025Z" fill="#fff"/>
        <path d="M85.43224,41.67355q-9.63315-14.2824-19.0041-28.7404l-6.4289,13.758a.92893.92893,0,0,1-.3182.6809q-3.4479,7.37985-6.8972,14.7601c-.2147.4592-.467.947-.716,1.4331a.99666.99666,0,0,1-.6771,1.4174c-.0173.004-.0352.0035-.0524.007A31.43469,31.43469,0,0,0,48.99,50.25a19.29949,19.29949,0,0,0-.7049,5.7031Q66.77864,48.603,85.43224,41.67355Z" fill="#fff"/>
        <path d="M146.08344,54.19825q-24.31455,2.1234-48.629,4.2467a.93111.93111,0,0,1-.8472-.3797q-5.1087-7.3932-10.1313-14.8431a.76978.76978,0,0,1-.0973.0601q-19.038,7.0572-37.8996,14.5706a6.59672,6.59672,0,0,0,.9846,2.6072c2.5312,3.5808,10.7522,6.4105,14.5546,8.5244q13.7019,7.61745,27.6766,14.7309,7.3194,3.7233,14.7079,7.3068c2.2391,1.0858,4.4774,2.1735,6.7307,3.2293,4.3329,2.0306,3.9923,2.4115,8.8334.8547a.87926.87926,0,0,1-.5292-.93,172.38,172.38,0,0,0,.1639-36.9071.92061.92061,0,0,1,1.8295-.1972,174.61466,174.61466,0,0,1-.1742,37.384.85958.85958,0,0,1-.075.2312c3.749-1.3457,4.5392-2.5802,6.8278-5.9604.7846-1.1594,1.5463-2.3339,2.3103-3.5074a2.53064,2.53064,0,0,1,.2268-1.2767.94976.94976,0,0,1,.9471-.5317q1.42215-2.23125,2.795-4.4936,3.84075-6.36255,7.2549-12.9753c.8915-1.7295,3.7965-6.0587,3.9354-8.0051C147.77124,56.70065,149.67534,53.88225,146.08344,54.19825Zm-34.7907,34.8252a56.33317,56.33317,0,0,1-12.3423-5.0138c-1.0298-.5707-.2833-2.2512.7523-1.6785a54.31048,54.31048,0,0,0,11.8684,4.8736C112.70244,87.51815,112.43014,89.33785,111.29274,89.02345Zm3.962-4.3863c1.1537.2538.8763,2.0723-.2793,1.8187a32.04529,32.04529,0,0,1-9.5574-3.747c-1.0089-.5977-.2651-2.2811.7521-1.6781A30.50463,30.50463,0,0,0,115.25474,84.63715Z" fill="#fff"/>
        <path d="M191.66874,105.00185c.0075-.055.0231-.1009.0293-.157a.86559.86559,0,0,0-.2338-.7249c-2.3189-10.3822-4.5889-25.7143-13.5142-31.9994-9.1951-6.4757-25.8266-1.3046-35.8732.434.5949-1.0715,1.1871-2.1454,1.7636-3.2269,3.733-6.9985,10.5933-15.3333,2.7393-21.5098-4.4372-3.4894-10.1863-5.9171-15.1519-8.6304q-10.63275-5.8101-21.4933-11.1904C96.36074,21.268,81.212,15.58625,67.191,9.84955a.86316.86316,0,0,0-.7558.0273c-.7781.1671-1.4994.7593-1.1156,1.3541l.0118.0175a.87229.87229,0,0,0-.3169.3631c-1.8262,3.9079-3.8341,7.8451-5.8664,11.8067-1.9384-6.8465-4.5475-14.831-9.4528-19.6817C45.00292-.90415,38.40722-.56075,32.46922,1.225c-8.2924,2.4927-16.4595,7.5457-23.3233,12.7136-2.631,1.98-8.2131,5.2507-8.6181,9.124a2.455,2.455,0,0,0-.40738,2.3515c.54668,2.0632,2.85608,3.4203,4.78648,3.8803a12.39826,12.39826,0,0,0,7.2982-.8681c5.16,10.513,17.7109,4.6492,24.7058-.2287a.92064.92064,0,0,0-1.0703-1.4969c-5.8479,4.0779-17.3436,10.4563-21.9495,1.0066,4.0234-1.9018,7.9062-4.8554,10.8556-6.7296,1.0021-.636-.0739-2.1289-1.0705-1.4964-3.0099,1.9124-6.059,3.7693-9.1921,5.475a24.68361,24.68361,0,0,1-5.01768,2.3203A7.58613,7.58613,0,0,1,4.496,27.26a3.29793,3.29793,0,0,1-2.0679-1.4602.73979.73979,0,0,0,.2497-.9952,2.63862,2.63862,0,0,1-.2326-.7805.99039.99039,0,0,0,.0913-1.3391c1.9902-7.1759,25.8397-18.1437,29.4441-19.3482,9.7475-3.2575,16.50942-.2373,20.89622,8.9174a86.56858,86.56858,0,0,1,5.0271,13.5905c-2.9653,5.7817-5.9122,11.6235-8.3994,17.5301a11.49435,11.49435,0,0,1-9.838-4.318.94827.94827,0,0,0-.2842-.237,28.58186,28.58186,0,0,0,7.91373-6.4449c.8087-.8671-.615-2.0333-1.41953-1.1717-4.4863,4.8073-14.21707,11.6508-19.0688,3.297-.5954-1.0256-2.0868.0536-1.4966,1.0693a9.86455,9.86455,0,0,0,10.1098,4.5115,12.54627,12.54627,0,0,0,2.5823-.6796.78015.78015,0,0,0,.1659.7244,13.4557,13.4557,0,0,0,10.56553,5.0956c-.8477,2.1055-1.632,4.2197-2.32733,6.3426a11.36567,11.36567,0,0,0-.5976,5.5848.98516.98516,0,0,0,.3612,1.2829c1.43473,3.8272,5.84373,5.8855,10.58563,8.5762q19.478,11.0526,39.5181,21.0757c6.1946,3.0982,12.4076,6.4754,18.8072,9.1213,2.9906,1.2359,6.0433,2.6099,9.2284,1.1838,3.7405-1.6749,6.548-6.8172,8.8387-10.8412a14.51712,14.51712,0,0,0,3.1075,3.4976,12.52,12.52,0,0,0,9.5454,2.6533.92042.92042,0,0,0-.1976-1.8291,10.47529,10.47529,0,0,1-6.972-1.4235c-.9795-.5921-3.9211-2.8965-4.4405-4.6927.1716-.2859.3412-.5614.5078-.8217q3.44475-5.38515,6.584-10.9586a.774.774,0,0,0,.8791.4314c9.8191-1.6833,27.2241-6.7051,35.363.2015,7.8288,6.6429,9.996,20.4227,12.2702,30.4027-1.2788,8.0732-9.3986,1.7669-11.3633-.1125a30.8066,30.8066,0,0,1-4.7356-5.9925,35.19674,35.19674,0,0,1-4.8476-13.4823c-.1814-1.1659-2.0121-.9771-1.8292.1969a38.67239,38.67239,0,0,0,6.604,16.6312c-7.8851-2.7054-16.7233-6.8616-16.9106-16.4141-.0237-1.183-1.8528-.9813-1.83.1965a14.47063,14.47063,0,0,0,3.5781,9.3867,13.00254,13.00254,0,0,1-13.0612-11.0677c-.1704-1.1684-2.0005-.9789-1.8294.1973a14.89729,14.89729,0,0,0,15.3914,12.7006.75837.75837,0,0,0,.7276-.5252c3.7897,3.6347,9.2492,5.9086,14.278,7.5764a.9433.9433,0,0,0,1.0428-.2984,26.65491,26.65491,0,0,0,4.1807,3.9978c3.7048,2.815,9.6951,3.4176,11.8032-.7465a1.022,1.022,0,0,0,.9085-1.2377C191.82414,105.68955,191.74634,105.33945,191.66874,105.00185Zm-66.325-67.0134q7.35015,3.9216,14.5918,8.0407,1.97655,1.1202,3.9413,2.2597c4.7121,2.4258,3.141,4.1108,1.539,4.1217q-11.8194,1.0317-23.6384,2.0641c-7.2666.6339-20.8533,4.4117-26.1991-1.1388-5.5381-5.7506-9.7164-14.234-14.1351-20.8608-4.3892-6.5831-7.9837-13.1375-12.1191-19.7647C88.07734,20.39175,107.54094,28.48945,125.34374,37.98845ZM48.99,50.25a31.43469,31.43469,0,0,1,2.3483-5.2604c.0172-.0035.0351-.003.0524-.007a.99666.99666,0,0,0,.6771-1.4174c.249-.4861.5013-.9739.716-1.4331Q56.23309,34.7514,59.681,27.372a.92893.92893,0,0,0,.3182-.6809l6.4289-13.758q9.36135,14.4639,19.0041,28.7404-18.65775,6.9201-37.1471,14.2796A19.29949,19.29949,0,0,1,48.99,50.25Zm94.5537,15.6919q-3.4083,6.6054-7.2549,12.9753-1.36725,2.26545-2.795,4.4936a.94976.94976,0,0,0-.9471.5317,2.53064,2.53064,0,0,0-.2268,1.2767c-.764,1.1735-1.5257,2.348-2.3103,3.5074-2.2886,3.3802-3.0788,4.6147-6.8278,5.9604a.85958.85958,0,0,0,.075-.2312,174.61466,174.61466,0,0,0,.1742-37.384.92061.92061,0,0,0-1.8295.1972,172.38,172.38,0,0,1-.1639,36.9071.87926.87926,0,0,0,.5292.93c-4.8411,1.5568-4.5005,1.1759-8.8334-.8547-2.2533-1.0558-4.4916-2.1435-6.7307-3.2293q-7.38825-3.5832-14.7079-7.3068-13.9731-7.1088-27.6766-14.7309c-3.8024-2.1139-12.0234-4.9436-14.5546-8.5244a6.59672,6.59672,0,0,1-.9846-2.6072q18.8655-7.5045,37.8996-14.5706a.76978.76978,0,0,0,.0973-.0601q5.03235,7.44315,10.1313,14.8431a.93111.93111,0,0,0,.8472.3797q24.31485-2.124,48.629-4.2467c3.5919-.316,1.6878,2.5024,1.3957,3.7386C147.34024,59.88325,144.43524,64.21245,143.54374,65.94195Z"/>
        <path d="M47.79764,16.17355a.92068.92068,0,0,0,1.8296-.1977A12.9217,12.9217,0,0,0,44.58244,7.24c-.94283-.7136-2.11683.7031-1.17123,1.418A11.072,11.072,0,0,1,47.79764,16.17355Z"/>
        <path d="M45.62532,23.06565c.4974,1.0688,2.22.4213,1.71933-.6545q-2.0688-4.44645-4.13813-8.8933c-.4974-1.0689-2.2194-.4211-1.7192.6544Q43.557,18.6193,45.62532,23.06565Z"/>
        <path d="M88.77444,36.539q-3.43875-6.24435-6.8777-12.4888c-.5706-1.0374-2.0613.0442-1.4967,1.0693q3.4389,6.2445,6.8779,12.4889C87.84924,38.64575,89.33964,37.56455,88.77444,36.539Z"/>
        <path d="M92.74154,39.92055c.5435,1.0376,2.2685.3938,1.7194-.6548q-2.66685-5.0919-5.332-10.1835c-.5434-1.0376-2.2687-.3939-1.7196.6548Q90.07529,34.8285,92.74154,39.92055Z"/>
        <path d="M111.57114,87.20475a54.31048,54.31048,0,0,1-11.8684-4.8736c-1.0356-.5727-1.7821,1.1078-.7523,1.6785a56.33317,56.33317,0,0,0,12.3423,5.0138C112.43014,89.33785,112.70244,87.51815,111.57114,87.20475Z"/>
        <path d="M106.17014,81.03075c-1.0172-.603-1.761,1.0804-.7521,1.6781a32.04529,32.04529,0,0,0,9.5574,3.747c1.1556.2536,1.433-1.5649.2793-1.8187A30.50463,30.50463,0,0,1,106.17014,81.03075Z"/>
        <path d="M176.979,91.57025a.92059.92059,0,0,0-1.8295.1973,20.00036,20.00036,0,0,0,6.0891,12.3649c.8533.8239,2.0186-.601,1.1712-1.4179A18.02621,18.02621,0,0,1,176.979,91.57025Z"/>
        <path d="M186.30854,105.76725c.8189.8545,1.9821-.5729,1.1721-1.418a16.46,16.46,0,0,1-4.4282-9.2658.92074.92074,0,0,0-1.8297.1977A18.53771,18.53771,0,0,0,186.30854,105.76725Z"/>
      </g>
    </g>
  </g>
</svg>
