<svg xmlns="http://www.w3.org/2000/svg" viewBox="0 0 77.51148 80.23443">
  <title>Recurso 12</title>
  <g id="Capa_2" data-name="Capa 2">
    <g id="Editar">
      <g>
        <path d="M25.523,31.36452c-.3574-.3036-.6882-.586-1.0206-.8666-.9557-.807-1.9314-1.5917-2.8624-2.4262a5.3461,5.3461,0,0,1-1.6435-2.5921,8.83328,8.83328,0,0,1-.17739-2.5166,7.91147,7.91147,0,0,1,1.31469-3.6631,47.36668,47.36668,0,0,1,2.9341-4.3378,28.74607,28.74607,0,0,1,2.4348-2.7917,3.58313,3.58313,0,0,1,4.1722-1.0147,27.80743,27.80743,0,0,1,2.5851,1.1216c.8316.4353,1.6036.9843,2.4913,1.5395.0644-.2009.21181-.4199.1851-.6149-.2715-1.9792,1.0845-2.9146,2.4125-3.9168,1.535-1.1584,3.2081-.885,4.828-.451a46.09522,46.09522,0,0,1,4.7018,1.6791,11.03146,11.03146,0,0,1,3.8008,2.4952,3.21211,3.21211,0,0,1,.9187,3.1095,8.76583,8.76583,0,0,1-1.0753,2.9421,1.14176,1.14176,0,0,0-.0992.2779c1.5005-.141,2.9982-.2438,4.4811-.4523.3046-.0428.6476-.4312.8111-.7447a3.83628,3.83628,0,0,0,.5496-3.24,15.95349,15.95349,0,0,0-1.4277-2.5611,14.83985,14.83985,0,0,1-2.10069-3.8293,4.454,4.454,0,0,1,.24539-3.0872,12.424,12.424,0,0,1,4.3099-4.939c.3791-.2755.9084-.788,1.502-.2448a12.19893,12.19893,0,0,0,.0624,6.0593c1.4085-1.988,2.6757-4.0036,5.2504-4.5144-.3267.8689-.6767,1.6332-.902,2.4326a7.424,7.424,0,0,0,.4336,5.6304,22.08644,22.08644,0,0,1,2.2255,5.2146,5.72054,5.72054,0,0,1-.1283,3.4225,10.4621,10.4621,0,0,1-1.0427,2.0472,9.86769,9.86769,0,0,1-1.3715,1.3447c.7465.7363,1.489,1.4587,2.2202,2.1922a7.76179,7.76179,0,0,1,2.2333,3.8037,4.31144,4.31144,0,0,1-.4648,3.1467c-.5925.9953-1.2266,1.9658-1.85939,2.9744,2.00089.434,4.04039.8306,6.05389,1.3312,1.1229.2792,2.2029.7309,3.3016,1.1068.0704.0241.133.0706.203.0964,1.4652.5401,1.4684.5398,1.4744,2.0886.0047,1.2497.0676,2.5039-.0142,3.7482-.1343,2.0415-.365,4.0765-.5551,6.1143-.0405.4342-.08959.8678-.1203,1.3028-.1179,1.6696-.236,3.3393-.3419,5.0098-.0543.8566-.0766,1.7153-.1243,2.5724-.1113,1.9972-.2036,3.9959-.3529,5.9903-.1104,1.4735-.2913,2.942-.46319,4.4101a.59553.59553,0,0,1-.29641.4006c-2.0179.9057-4.0382,1.8066-6.07059,2.6793-1.30631.5609-2.62251,1.1027-3.95361,1.6014-1.6288.6103-3.2898,1.1354-4.9149,1.7548-1.67349.6378-3.3151,1.359-4.981,2.0176-1.613.6377-3.22,1.2995-4.8644,1.8466-2.0578.6846-4.1562,1.2462-6.22709,1.893a8.58185,8.58185,0,0,1-3.94191.0942,51.889,51.889,0,0,1-5.3605-1.0447c-1.8911-.5019-3.7387-1.1773-5.586-1.8315-1.475-.5224-2.9209-1.127-4.3802-1.694-1.2205-.4743-2.4575-.9105-3.6576-1.4317-.99179-.4307-1.941-.9601-2.9081-1.4475-1.2302-.62-2.4534-1.2544-3.6913-1.8585a2.18382,2.18382,0,0,1-1.1032-2.1254c-.1041-1.9433-.1774-3.8886-.2366-5.8338-.0571-1.8766-.0489-3.7555-.1267-5.631-.1194-2.8772-.28789-5.7524-.4382-8.6794-2.0389-.0307-4.17269.6825-6.3984-.3566a15.22622,15.22622,0,0,1,1.6469-1.7188c.9956-.7606,2.0811-1.4032,3.1244-2.1021a6.34455,6.34455,0,0,0,.511-.439c-2.1254-.4038-4.1437-.7931-6.1645-1.1695a9.71057,9.71057,0,0,1-5.2867-2.6985.59978.59978,0,0,1,.1147-.9873,9.18479,9.18479,0,0,1,3.5464-1.3029c1.5192-.1132,3.02251-.4265,4.537-.6197.7353-.0938,1.4794-.13,2.2208-.1609,1.2611-.0525,2.5308-.0119,3.7814-.1502a4.71655,4.71655,0,0,0,1.5707-.7203c1.2194-.666,2.4028-1.4015,3.6435-2.0238,1.1832-.5936,2.4226-1.0747,3.6332-1.6144C23.98277,32.08542,24.70347,31.743,25.523,31.36452Zm5.1102,45.0681c3.3152.8474,6.7121,1.7297,10.1184,2.5746a13.83157,13.83157,0,0,0,2.09251.2779c.40249.0362.61129-.1442.61069-.6136-.00169-1.2843.0405-2.5691.0854-3.853.11291-3.2344.2204-6.4692.3628-9.7025.08411-1.9091.2369-3.8151.3473-5.7232.1249-2.1583.2314-4.3177.3579-6.4759.0413-.7045.1522-1.4058.17391-2.1103.03059-.9916.00779-1.9849.00779-2.9831q-6.12585-1.706-12.3714-3.4454c-.0516.4963-.1155,1.0167-.1582,1.5389-.1247,1.5225-.23419,3.0462-.3623,4.5684-.1423,1.6915-.3072,3.3811-.4457,5.0728-.1044,1.276-.1774,2.5545-.2741,3.8311-.1429,1.8855-.3005,3.7699-.4404,5.6556-.113,1.5233-.2735,3.0469-.2976,4.5722C30.40527,71.829,30.04777,74.053,30.63317,76.43262Zm13.7172,2.4114c.5245-.1623.9885-.273,1.42771-.4467q5.736-2.2683,11.46569-4.5524a.59278.59278,0,0,0,.434-.6375c.0032-1.1494.0496-2.2986.0834-3.4478.06491-2.2024.1234-4.4051.2018-6.6071.0724-2.0286.1697-4.0563.2519-6.0846.0908-2.2382.1711-4.4769.2673-6.7149.051-1.1843.1396-2.367.1851-3.5514.0275-.7189.005-1.4397.005-2.2831q-6.86835,1.64745-13.3934,3.2126c-.1384,4.3478-.2629,8.5639-.4114,12.779-.0592,1.6815-.1803,3.3607-.2569,5.0416-.0959,2.1041-.2089,4.2082-.252,6.3135-.043,2.0949-.0087,4.1913-.0082,6.2871Zm-14.9357-3.1222a1.60411,1.60411,0,0,0,.0539-.2359c.0876-3.3933.1636-6.7869.2649-10.1797.0348-1.1651.115-2.3297.2058-3.4921.1307-1.6728.2927-3.3432.4366-5.0151.1277-1.484.2419-2.9692.3746-4.4528.1937-2.1665.4439-4.3291.5811-6.499a2.61712,2.61712,0,0,1,1.6386-2.5224c1.8877-.8448,3.7175-1.8178,5.5925-2.6924,1.4546-.6785,2.9347-1.3037,4.4153-1.9245.7776-.3261,1.5805-.5918,2.2602-.8435a23.26026,23.26026,0,0,1-2.4358-1.7448,1.59606,1.59606,0,0,0-1.9545-.3545,1.10663,1.10663,0,0,1-.1627.0558,4.99144,4.99144,0,0,1-3.19609.2273.59479.59479,0,0,0-.45651.1415c-.3303.2602-.6409.547-.9454.838a46.25943,46.25943,0,0,1-5.7353,4.558,41.87493,41.87493,0,0,1-6.9689,3.8788.56222.56222,0,0,0-.41189.581c-.081,4.6407-.20471,9.2807-.26391,13.9217-.0289,2.2634.0406,4.5286.0907,6.7924.0445,2.0113.13821,4.0216.1745,6.033a.58521.58521,0,0,0,.4535.6079c1.27721.5151,2.5491,1.044,3.8309,1.5473C27.96317,75.22522,28.68557,75.46182,29.41467,75.72182Zm29.4399-2.6016a2.161,2.161,0,0,0,.2976-.0652c2.19891-.7788,4.38991-1.5807,6.5991-2.3288.621-.2103.8989-.409.8841-1.1876-.0836-4.3907.0058-8.78.3223-13.1647.142-1.9679.12241-3.9474.1793-5.9216.0255-.8811.0477-1.7625.0908-2.6429q.1698-3.46875.3624-6.9364a.62485.62485,0,0,0-.43-.7007c-1.9782-.8714-3.9432-1.7731-5.928-2.6292a1.48339,1.48339,0,0,0-.919-.0178c-1.727.4894-3.4336,1.0528-5.1676,1.5143-.9749.2595-1.9892.3711-3.1206.5734.3369.1589.5452.251.748.3538,2.1138,1.0722,4.2315,2.1368,6.3367,3.2258a.91412.91412,0,0,1,.4302,1.3091,2.05008,2.05008,0,0,0-.14979.7146c-.03851,3.1872-.04041,6.3751-.101,9.5618-.05641,2.9688-.16951,5.9365-.26221,8.9045-.0527,1.6854-.13379,3.3701-.1664,5.0558C58.83227,70.19292,58.85457,71.64852,58.85457,73.12022ZM22.25308,19.461a18.92475,18.92475,0,0,1,2.31689.7123c2.6243,1.1948,4.4768,3.3295,6.2617,5.4719,1.4637,1.7568,2.6951,3.7063,4.0451,5.559.4569.6271.9615,1.2194,1.4264,1.8051.6715-.7609,1.2494-1.5299,1.9422-2.1756a6.24555,6.24555,0,0,1,4.3581-2.112c.4774.0065.7048-.2321.6458-.7222-.032-.2656-.0499-.5328-.0726-.7995a16.27217,16.27217,0,0,0-1.4018-5.5818,14.86682,14.86682,0,0,0-3.3931-4.3047,25.61376,25.61376,0,0,0-7.0009-4.8145,5.99577,5.99577,0,0,0-2.9202-.4386.72188.72188,0,0,0-.438.2203c-1.176,1.2532-2.4045,2.4653-3.4869,3.7958C23.67687,17.13242,23.00077,18.33692,22.25308,19.461ZM67.63337,70.139c.7833-.3156,1.4142-.5836,2.055-.8253,1.5554-.5865,3.1184-1.153,4.6689-1.7521a.62973.62973,0,0,0,.344-.4382c.08581-1.4902.1251-2.9831.2019-4.474.0777-1.5073.1642-3.0147.28091-4.5194.12689-1.636.298-3.2685.44079-4.9033.13121-1.5023.2486-3.0058.3755-4.5084.143-1.6933.2928-3.3861.4341-5.0796.0858-1.0288.1679-2.058.2391-3.088.0533-.7701.0867-1.5416.1254-2.2494-2.8775.905-5.7078,1.7951-8.5942,2.7028.0359.6659.1138,1.429.111,2.1919-.0072,1.9581-.04169,3.9163-.0808,5.8741-.05889,2.9509-.1318,5.9016-.1972,8.8524-.031,1.3998-.0543,2.7999-.08869,4.1996q-.03467,1.4094-.09121,2.8182C67.78887,66.63972,67.71157,68.33892,67.63337,70.139ZM7.87267,47.87872a1.902,1.902,0,0,0,.33441.0422c1.21609-.1057,2.44809-.1271,3.64359-.3465a43.643,43.643,0,0,0,5.2387-1.2199,62.77236,62.77236,0,0,0,6.8914-2.5174A52.63006,52.63006,0,0,0,36.20408,36.086c.22049-.1847.32949-.3462.14779-.6254-.0901-.1384-.073-.3507-.1707-.4792a.9094.9094,0,0,0-.4655-.3675c-1.1789-.2083-2.3682-.3584-3.5457-.5734a2.13581,2.13581,0,0,0-1.36889.1798c-1.35031.6272-2.70231,1.2678-4.10221,1.7667a25.48308,25.48308,0,0,1-6.7943,1.5231c-1.5386.1071-3.0646.3956-4.6032.4999-2.1371.1449-4.2856.1329-6.4204.3006-1.99289.1565-3.977.4399-5.9591.7108a2.18276,2.18276,0,0,0-1.7152.9815,30.69516,30.69516,0,0,0,3.0412,1.2549c1.9175.5687,3.8536,1.1053,5.8151,1.4837a9.79585,9.79585,0,0,0,3.7354.4304A42.61191,42.61191,0,0,1,7.87267,47.87872Zm5.9136.6966a7.20431,7.20431,0,0,0-.0918,1.1494c.0959,1.5054.2812,3.0064.3394,4.5127.105,2.7171.1061,5.4383.2196,8.1549.0972,2.3281.284,4.6527.45661,6.9769a.70436.70436,0,0,0,.36159.4732c1.0371.4878,2.0903.9415,3.1387,1.4053,1.2373.5474,2.4752,1.0937,3.7758,1.6683,0-.2468-.0019-.4327.0002-.6184.0599-5.2732.111-10.5465.1845-15.8194.0341-2.453.1113-4.9053.1718-7.3578.0033-.1326.0476-.2644.0483-.3967.0046-.8485.0023-1.6971.0023-2.4539C19.54508,47.03282,16.71257,47.79152,13.78627,48.57532Zm36.4282-27.1995a4.881,4.881,0,0,1,3.7158,2.7316,9.8212,9.8212,0,0,1,.959,6.7735,9.98746,9.98746,0,0,1-4.1434,6.8149c-.3394.2423-.7055.447-1.0592.6691l.0385.1617a33.10824,33.10824,0,0,0,3.7038-.2739,31.8486,31.8486,0,0,0,7.7362-2.2512,12.28242,12.28242,0,0,0,5.2712-4.3761,5.00969,5.00969,0,0,0,1.0751-2.4344,5.31035,5.31035,0,0,0-1.7238-4.0658,17.04056,17.04056,0,0,0-8.4722-4.9941c-1.45439-.3339-2.9446-.8163-4.4099.0211a.27828.27828,0,0,1-.1691.0204C51.67247,20.00282,51.09137,20.81642,50.21447,21.37582Zm-8.9895-2.3256.1782-.0832c.2844-2.0257.5966-4.0408-.6032-5.9495a7.76906,7.76906,0,0,1-.5827-1.6537,6.69692,6.69692,0,0,1,2.1496,3.8972,7.4816,7.4816,0,0,1-.30379,3.7923,1.40425,1.40425,0,0,0,.12209,1.4583,13.22487,13.22487,0,0,1,2.0727,5.715c.0535.6938.0954,1.3884.1541,2.2509.2505-.6797.4336-1.2126.6419-1.7355a12.43136,12.43136,0,0,1,4.60821-6.2692,1.63837,1.63837,0,0,0,.55159-.63,16.30971,16.30971,0,0,0,1.5669-4.7662.97144.97144,0,0,0-.1866-.6613,6.86345,6.86345,0,0,0-.75289-.705,9.55789,9.55789,0,0,0-2.69771-1.5676c-2.0226-.9482-3.9726-2.1059-6.2611-2.2883a6.80826,6.80826,0,0,0-2.3734.1645,3.85231,3.85231,0,0,0-2.4244,2.5608,2.2125,2.2125,0,0,0,.5685,2.8916C38.93457,16.55692,40.04208,17.848,41.225,19.05022Zm16.5603.0282c.1955.0697.4981.1761.7996.2852a13.69844,13.69844,0,0,1,4.0315,1.7474.81.81,0,0,0,1.2582-.0851c.4277-.4857.7792-1.0378,1.1757-1.5518a5.25045,5.25045,0,0,0,.6661-5.0338,36.173,36.173,0,0,0-2.1641-4.863,6.63658,6.63658,0,0,1-.4679-4.949c.0715-.2488.1504-.4955.2258-.7432l-.1188-.0767a18.55442,18.55442,0,0,0-1.2764,1.5169c-.5917.8675-1.1041,1.7887-1.6731,2.6724a.611.611,0,0,1-.448.2548.56454.56454,0,0,1-.3971-.301,9.86761,9.86761,0,0,1-.9128-4.2823c.0263-.7458.0927-1.4901.146-2.3128-.6406.5828-1.2407,1.1097-1.81889,1.6596a7.09949,7.09949,0,0,0-1.85691,2.5121,5.47277,5.47277,0,0,0,.656,5.0329c.59591.9794,1.2611,1.919,1.8162,2.9202a5.87114,5.87114,0,0,1,.9573,3.3124A13.49229,13.49229,0,0,1,57.78527,19.07842Zm-24.1939,24.8693c.9565.27,1.9211.5747,2.902.8125,2.4375.5911,4.8884,1.1276,7.3212,1.737a4.9303,4.9303,0,0,0,2.6417-.0002c1.3933-.3978,2.8072-.7233,4.214-1.0729,2.4921-.6192,4.9854-1.2334,7.5513-1.8678-.1864-.1092-.31-.192-.4422-.2577-3.3718-1.6736-6.6578-3.5393-10.2977-4.6131a1.42128,1.42128,0,0,0-.7198-.1085,30.34924,30.34924,0,0,0-3.3212,1.0749C40.15337,41.04362,36.89417,42.50132,33.59137,43.94772Zm9.01171-9.5123a6.47748,6.47748,0,0,0,1.26469.0654,9.59735,9.59735,0,0,0,5.5261-3.032c1.23921-1.3053,2.451-2.639,3.73821-3.8953a1.23362,1.23362,0,0,0,.39919-1.5347,7.01345,7.01345,0,0,0-2.2268-3.4652,1.96526,1.96526,0,0,0-3.03439.5587,25.185,25.185,0,0,0-2.13111,4.3633,23.8603,23.8603,0,0,1-2.9427,6.0687C43.02767,33.78882,42.87917,34.02852,42.60308,34.43542Zm-6.965-.7691c-.30911-.3816-.57011-.7077-.83541-1.0303a14.86237,14.86237,0,0,0-3.0341-3.319c-1.68549-1.1183-3.35249-2.2735-4.9494-3.5134a5.777,5.777,0,0,1-2.3214-3.4356,1.8433,1.8433,0,0,0-1.5755-1.606c-.311-.0936-.6433-.1291-.9404-.2525-.327-.1358-.481-.0602-.6136.2599-.21219.5122-.5024.9932-.70019,1.5102a3.00418,3.00418,0,0,0,.27889,2.8925,11.32362,11.32362,0,0,0,1.0996,1.3189,21.84507,21.84507,0,0,0,8.576,5.8689A17.76455,17.76455,0,0,0,35.63808,33.66632ZM75.833,37.42282c-.21789-.0767-.3774-.1409-.5416-.1892q-4.56043-1.34385-9.12429-2.6757a.70613.70613,0,0,0-.528.0615c-1.14611.7819-2.27651,1.5871-3.42081,2.392.1907.0644.3897.1308.5881.1989a11.932,11.932,0,0,1,4.2978,1.9784,2.62475,2.62475,0,0,0,2.9867.5575A30.078,30.078,0,0,0,75.833,37.42282ZM17.22467,36.232a17.052,17.052,0,0,0,6.5835-.5528c2.0617-.5416,4.07-1.2865,6.1017-1.9423l-.0245-.1805c-1.0742-.4974-2.1581-.9754-3.2169-1.5035a.896.896,0,0,0-.904.0036c-1.4569.7287-2.9238,1.4376-4.3878,2.1522C20.04067,34.86092,18.70377,35.51132,17.22467,36.232Zm26.2209-5.8796a1.7004,1.7004,0,0,0-1.8946-.3569,9.58464,9.58464,0,0,0-4.2408,3.7185,8.27373,8.27373,0,0,0-.5213,1.2726,15.45983,15.45983,0,0,0,4.6683-.3198.5156.5156,0,0,0,.31191-.2827C42.32608,33.07092,42.86708,31.75082,43.44557,30.35242Zm8.9077,3.5785a9.04556,9.04556,0,0,1-1.4626.3916c-.8083.0744-1.6257.0438-2.4384.0785a4.76674,4.76674,0,0,0-1.4427.1455,7.17446,7.17446,0,0,1-3.1298.5976c-.3139-.025-.6315-.0038-1.0402-.0038a3.02645,3.02645,0,0,0,.2033.2731,6.58514,6.58514,0,0,0,3.2237,1.7537,5.63522,5.63522,0,0,0,2.5497.1363A5.37032,5.37032,0,0,0,52.35327,33.93092Zm1.51-5.5766c-1.6881,1.7537-3.3378,3.4676-5.0369,5.2328a4.89579,4.89579,0,0,1,.6469.0039,5.99136,5.99136,0,0,0,3.327-.8623,1.05026,1.05026,0,0,0,.3997-.4512A6.42165,6.42165,0,0,0,53.86327,28.35432Zm-28.7055-6.4939a13.4182,13.4182,0,0,0,5.6358,5.6446C29.48347,25.05072,27.29727,23.47642,25.15777,21.86042Z"/>
        <path d="M30.63317,76.43262c-.5854-2.3796-.2279-4.6036-.193-6.8155.0241-1.5253.1846-3.0489.2976-4.5722.1399-1.8857.2975-3.7701.4404-5.6556.0967-1.2766.1697-2.5551.2741-3.8311.1385-1.6917.3034-3.3813.4457-5.0728.12811-1.5222.2376-3.0459.3623-4.5684.0427-.5222.1066-1.0426.1582-1.5389q6.25845,1.743,12.3714,3.4454c0,.9982.0228,1.9915-.00779,2.9831-.02171.7045-.13261,1.4058-.17391,2.1103-.1265,2.1582-.233,4.3176-.3579,6.4759-.1104,1.9081-.26319,3.8141-.3473,5.7232-.1424,3.2333-.24989,6.4681-.3628,9.7025-.0449,1.2839-.08709,2.5687-.0854,3.853.0006.4694-.2082.6498-.61069.6136a13.83157,13.83157,0,0,1-2.09251-.2779C37.34527,78.16232,33.94837,77.28,30.63317,76.43262Z" fill="#fff"/>
        <path d="M44.35037,78.844v-.6917c-.0005-2.0958-.0348-4.1922.0082-6.2871.0431-2.1053.1561-4.2094.252-6.3135.0766-1.6809.1977-3.3601.2569-5.0416.1485-4.2151.273-8.4312.4114-12.779q6.522-1.5645,13.3934-3.2126c0,.8434.0225,1.5642-.005,2.2831-.0455,1.1844-.1341,2.3671-.1851,3.5514-.0962,2.238-.1765,4.4767-.2673,6.7149-.0822,2.0283-.1795,4.056-.2519,6.0846-.0784,2.202-.13689,4.4047-.2018,6.6071-.0338,1.1492-.0802,2.2984-.0834,3.4478a.59278.59278,0,0,1-.434.6375q-5.7342,2.27265-11.46569,4.5524C45.33887,78.571,44.87487,78.68172,44.35037,78.844Z" fill="#fff"/>
        <path d="M29.41467,75.72182c-.7291-.26-1.4515-.4966-2.1579-.774-1.2818-.5033-2.55369-1.0322-3.8309-1.5473a.58521.58521,0,0,1-.4535-.6079c-.03629-2.0114-.13-4.0217-.1745-6.033-.0501-2.2638-.1196-4.529-.0907-6.7924.0592-4.641.18291-9.281.26391-13.9217a.56222.56222,0,0,1,.41189-.581,41.87493,41.87493,0,0,0,6.9689-3.8788,46.25943,46.25943,0,0,0,5.7353-4.558c.3045-.291.6151-.5778.9454-.838a.59479.59479,0,0,1,.45651-.1415,4.99144,4.99144,0,0,0,3.19609-.2273,1.10663,1.10663,0,0,0,.1627-.0558,1.59606,1.59606,0,0,1,1.9545.3545,23.26026,23.26026,0,0,0,2.4358,1.7448c-.6797.2517-1.4826.5174-2.2602.8435-1.4806.6208-2.9607,1.246-4.4153,1.9245-1.875.8746-3.7048,1.8476-5.5925,2.6924a2.61712,2.61712,0,0,0-1.6386,2.5224c-.1372,2.1699-.3874,4.3325-.5811,6.499-.1327,1.4836-.2469,2.9688-.3746,4.4528-.1439,1.6719-.3059,3.3423-.4366,5.0151-.0908,1.1624-.171,2.327-.2058,3.4921-.1013,3.3928-.1773,6.7864-.2649,10.1797A1.60411,1.60411,0,0,1,29.41467,75.72182Z" fill="#fff"/>
        <path d="M58.85457,73.12022c0-1.4717-.0223-2.9273.0059-4.3818.03261-1.6857.1137-3.3704.1664-5.0558.0927-2.968.2058-5.9357.26221-8.9045.06059-3.1867.06249-6.3746.101-9.5618a2.05008,2.05008,0,0,1,.14979-.7146.91412.91412,0,0,0-.4302-1.3091c-2.1052-1.089-4.2229-2.1536-6.3367-3.2258-.2028-.1028-.4111-.1949-.748-.3538,1.1314-.2023,2.1457-.3139,3.1206-.5734,1.734-.4615,3.4406-1.0249,5.1676-1.5143a1.48339,1.48339,0,0,1,.919.0178c1.9848.8561,3.9498,1.7578,5.928,2.6292a.62485.62485,0,0,1,.43.7007q-.19635,3.4674-.3624,6.9364c-.0431.8804-.0653,1.7618-.0908,2.6429-.05689,1.9742-.0373,3.9537-.1793,5.9216-.3165,4.3847-.4059,8.774-.3223,13.1647.0148.7786-.2631.9773-.8841,1.1876-2.20919.7481-4.40019,1.55-6.5991,2.3288A2.161,2.161,0,0,1,58.85457,73.12022Z" fill="#fff"/>
        <path d="M22.25308,19.461c.74769-1.1241,1.42379-2.3286,2.28269-3.3845,1.0824-1.3305,2.3109-2.5426,3.4869-3.7958a.72188.72188,0,0,1,.438-.2203,5.99577,5.99577,0,0,1,2.9202.4386,25.61376,25.61376,0,0,1,7.0009,4.8145,14.86682,14.86682,0,0,1,3.3931,4.3047A16.27217,16.27217,0,0,1,43.17667,27.2c.0227.2667.0406.5339.0726.7995.059.4901-.1684.7287-.6458.7222a6.24555,6.24555,0,0,0-4.3581,2.112c-.6928.6457-1.2707,1.4147-1.9422,2.1756-.4649-.5857-.9695-1.178-1.4264-1.8051-1.35-1.8527-2.5814-3.8022-4.0451-5.559-1.7849-2.1424-3.6374-4.2771-6.2617-5.4719A18.92475,18.92475,0,0,0,22.25308,19.461Z" fill="#fff"/>
        <path d="M67.63337,70.139c.0782-1.8001.1555-3.4993.2245-5.1987q.05715-1.40865.09121-2.8182c.03439-1.3997.05769-2.7998.08869-4.1996.0654-2.9508.13831-5.9015.1972-8.8524.03911-1.9578.0736-3.916.0808-5.8741.0028-.7629-.0751-1.526-.111-2.1919,2.8864-.9077,5.7167-1.7978,8.5942-2.7028-.0387.7078-.0721,1.4793-.1254,2.2494-.0712,1.03-.1533,2.0592-.2391,3.088-.1413,1.6935-.2911,3.3863-.4341,5.0796-.1269,1.5026-.24429,3.0061-.3755,4.5084-.14279,1.6348-.3139,3.2673-.44079,4.9033-.11671,1.5047-.20321,3.0121-.28091,4.5194-.0768,1.4909-.11609,2.9838-.2019,4.474a.62973.62973,0,0,1-.344.4382c-1.5505.5991-3.1135,1.1656-4.6689,1.7521C69.04757,69.55542,68.41667,69.82342,67.63337,70.139Z" fill="#fff"/>
        <path d="M7.87267,47.87872a42.61191,42.61191,0,0,0,5.9257-4.7068,9.79585,9.79585,0,0,1-3.7354-.4304c-1.9615-.3784-3.8976-.915-5.8151-1.4837a30.69516,30.69516,0,0,1-3.0412-1.2549,2.18276,2.18276,0,0,1,1.7152-.9815c1.9821-.2709,3.96621-.5543,5.9591-.7108,2.1348-.1677,4.2833-.1557,6.4204-.3006,1.5386-.1043,3.0646-.3928,4.6032-.4999a25.48308,25.48308,0,0,0,6.7943-1.5231c1.3999-.4989,2.7519-1.1395,4.10221-1.7667a2.13581,2.13581,0,0,1,1.36889-.1798c1.1775.215,2.3668.3651,3.5457.5734a.9094.9094,0,0,1,.4655.3675c.0977.1285.0806.3408.1707.4792.1817.2792.0727.4407-.14779.6254a52.63006,52.63006,0,0,1-12.22331,7.7511,62.77236,62.77236,0,0,1-6.8914,2.5174,43.643,43.643,0,0,1-5.2387,1.2199c-1.1955.2194-2.4275.2408-3.64359.3465A1.902,1.902,0,0,1,7.87267,47.87872Z" fill="#fff"/>
        <path d="M13.78627,48.57532c2.9263-.7838,5.75881-1.5425,8.607-2.3055,0,.7568.0023,1.6054-.0023,2.4539-.0007.1323-.045.2641-.0483.3967-.0605,2.4525-.1377,4.9048-.1718,7.3578-.0735,5.2729-.1246,10.5462-.1845,15.8194-.0021.1857-.0002.3716-.0002.6184-1.3006-.5746-2.5385-1.1209-3.7758-1.6683-1.0484-.4638-2.1016-.9175-3.1387-1.4053a.70436.70436,0,0,1-.36159-.4732c-.17261-2.3242-.35941-4.6488-.45661-6.9769-.1135-2.7166-.1146-5.4378-.2196-8.1549-.0582-1.5063-.2435-3.0073-.3394-4.5127A7.20431,7.20431,0,0,1,13.78627,48.57532Z" fill="#fff"/>
        <path d="M50.21447,21.37582c.8769-.5594,1.458-1.373,2.522-1.2032a.27828.27828,0,0,0,.1691-.0204c1.4653-.8374,2.95551-.355,4.4099-.0211a17.04056,17.04056,0,0,1,8.4722,4.9941,5.31035,5.31035,0,0,1,1.7238,4.0658,5.00969,5.00969,0,0,1-1.0751,2.4344,12.28242,12.28242,0,0,1-5.2712,4.3761,31.8486,31.8486,0,0,1-7.7362,2.2512,33.10824,33.10824,0,0,1-3.7038.2739l-.0385-.1617c.3537-.2221.7198-.4268,1.0592-.6691a9.98746,9.98746,0,0,0,4.1434-6.8149,9.8212,9.8212,0,0,0-.959-6.7735A4.881,4.881,0,0,0,50.21447,21.37582Z" fill="#fff"/>
        <path d="M41.225,19.05022c-1.18289-1.2022-2.2904-2.4933-3.572-3.5789a2.2125,2.2125,0,0,1-.5685-2.8916,3.85231,3.85231,0,0,1,2.4244-2.5608,6.80826,6.80826,0,0,1,2.3734-.1645c2.2885.1824,4.2385,1.3401,6.2611,2.2883a9.55789,9.55789,0,0,1,2.69771,1.5676,6.86345,6.86345,0,0,1,.75289.705.97144.97144,0,0,1,.1866.6613,16.30971,16.30971,0,0,1-1.5669,4.7662,1.63837,1.63837,0,0,1-.55159.63,12.43136,12.43136,0,0,0-4.60821,6.2692c-.2083.5229-.3914,1.0558-.6419,1.7355-.0587-.8625-.1006-1.5571-.1541-2.2509a13.22487,13.22487,0,0,0-2.0727-5.715,1.40425,1.40425,0,0,1-.12209-1.4583,7.4816,7.4816,0,0,0,.30379-3.7923,6.69692,6.69692,0,0,0-2.1496-3.8972,7.76906,7.76906,0,0,0,.5827,1.6537c1.1998,1.9087.8876,3.9238.6032,5.9495Z" fill="#fff"/>
        <path d="M57.78527,19.07842a13.49229,13.49229,0,0,0,.5984-2.2848,5.87114,5.87114,0,0,0-.9573-3.3124c-.5551-1.0012-1.22029-1.9408-1.8162-2.9202a5.47277,5.47277,0,0,1-.656-5.0329A7.09949,7.09949,0,0,1,56.81108,3.016c.57819-.5499,1.17829-1.0768,1.81889-1.6596-.0533.8227-.1197,1.567-.146,2.3128a9.86761,9.86761,0,0,0,.9128,4.2823.56454.56454,0,0,0,.3971.301.611.611,0,0,0,.448-.2548c.569-.8837,1.0814-1.8049,1.6731-2.6724a18.55442,18.55442,0,0,1,1.2764-1.5169l.1188.0767c-.0754.2477-.1543.4944-.2258.7432a6.63658,6.63658,0,0,0,.4679,4.949,36.173,36.173,0,0,1,2.1641,4.863,5.25045,5.25045,0,0,1-.6661,5.0338c-.3965.514-.748,1.0661-1.1757,1.5518a.81.81,0,0,1-1.2582.0851,13.69844,13.69844,0,0,0-4.0315-1.7474C58.28337,19.25452,57.98077,19.14812,57.78527,19.07842Z" fill="#fff"/>
        <path d="M33.59137,43.94772c3.3028-1.4464,6.562-2.9041,9.8493-4.2958a30.34924,30.34924,0,0,1,3.3212-1.0749,1.42128,1.42128,0,0,1,.7198.1085c3.6399,1.0738,6.9259,2.9395,10.2977,4.6131.1322.0657.2558.1485.4422.2577-2.5659.6344-5.0592,1.2486-7.5513,1.8678-1.4068.3496-2.8207.6751-4.214,1.0729a4.9303,4.9303,0,0,1-2.6417.0002c-2.4328-.6094-4.8837-1.1459-7.3212-1.737C35.51247,44.52242,34.54787,44.21772,33.59137,43.94772Z" fill="#fff"/>
        <path d="M42.60308,34.43542c.27609-.4069.42459-.6466.59319-.8711a23.8603,23.8603,0,0,0,2.9427-6.0687,25.185,25.185,0,0,1,2.13111-4.3633,1.96526,1.96526,0,0,1,3.03439-.5587,7.01345,7.01345,0,0,1,2.2268,3.4652,1.23362,1.23362,0,0,1-.39919,1.5347c-1.28721,1.2563-2.499,2.59-3.73821,3.8953a9.59735,9.59735,0,0,1-5.5261,3.032A6.47748,6.47748,0,0,1,42.60308,34.43542Z" fill="#fff"/>
        <path d="M35.63808,33.66632a17.76455,17.76455,0,0,1-5.01551-1.3064,21.84507,21.84507,0,0,1-8.576-5.8689,11.32362,11.32362,0,0,1-1.0996-1.3189,3.00418,3.00418,0,0,1-.27889-2.8925c.19779-.517.488-.998.70019-1.5102.1326-.3201.2866-.3957.6136-.2599.2971.1234.6294.1589.9404.2525a1.8433,1.8433,0,0,1,1.5755,1.606,5.777,5.777,0,0,0,2.3214,3.4356c1.59691,1.2399,3.26391,2.3951,4.9494,3.5134a14.86237,14.86237,0,0,1,3.0341,3.319C35.068,32.95862,35.329,33.28472,35.63808,33.66632Z" fill="#fff"/>
        <path d="M75.833,37.42282a30.078,30.078,0,0,1-5.7421,2.3234,2.62475,2.62475,0,0,1-2.9867-.5575,11.932,11.932,0,0,0-4.2978-1.9784c-.1984-.0681-.3974-.1345-.5881-.1989,1.1443-.8049,2.2747-1.6101,3.42081-2.392a.70613.70613,0,0,1,.528-.0615q4.56613,1.3242,9.12429,2.6757C75.45557,37.28192,75.61508,37.34612,75.833,37.42282Z" fill="#fff"/>
        <path d="M17.22467,36.232c1.4791-.7207,2.816-1.3711,4.152-2.0233,1.464-.7146,2.9309-1.4235,4.3878-2.1522a.896.896,0,0,1,.904-.0036c1.0588.5281,2.1427,1.0061,3.2169,1.5035l.0245.1805c-2.0317.6558-4.04,1.4007-6.1017,1.9423A17.052,17.052,0,0,1,17.22467,36.232Z" fill="#fff"/>
        <path d="M43.44557,30.35242c-.57849,1.3984-1.11949,2.7185-1.67649,4.0317a.5156.5156,0,0,1-.31191.2827,15.45983,15.45983,0,0,1-4.6683.3198,8.27373,8.27373,0,0,1,.5213-1.2726,9.58464,9.58464,0,0,1,4.2408-3.7185A1.7004,1.7004,0,0,1,43.44557,30.35242Z" fill="#fff"/>
        <path d="M52.35327,33.93092a5.37032,5.37032,0,0,1-3.537,3.3725,5.63522,5.63522,0,0,1-2.5497-.1363,6.58514,6.58514,0,0,1-3.2237-1.7537,3.02645,3.02645,0,0,1-.2033-.2731c.4087,0,.7263-.0212,1.0402.0038a7.17446,7.17446,0,0,0,3.1298-.5976,4.76674,4.76674,0,0,1,1.4427-.1455c.8127-.0347,1.6301-.0041,2.4384-.0785A9.04556,9.04556,0,0,0,52.35327,33.93092Z" fill="#fff"/>
        <path d="M53.86327,28.35432a6.42165,6.42165,0,0,1-.6633,3.9232,1.05026,1.05026,0,0,1-.3997.4512,5.99136,5.99136,0,0,1-3.327.8623,4.89579,4.89579,0,0,0-.6469-.0039C50.52547,31.82192,52.17517,30.108,53.86327,28.35432Z" fill="#fff"/>
        <path d="M25.15777,21.86042c2.1395,1.616,4.3257,3.1903,5.6358,5.6446A13.4182,13.4182,0,0,1,25.15777,21.86042Z" fill="#fff"/>
      </g>
    </g>
  </g>
</svg>
