<svg xmlns="http://www.w3.org/2000/svg" viewBox="0 0 657.27731 441.65351">
  <title>Recurso 14</title>
  <g id="Capa_2" data-name="Capa 2">
    <g id="Editar">
      <g>
        <path d="M644.04217,70.07263c-2.394-1.01538-4.095-3.61816-2.36572-6.42187,18.928-30.71838-28.70923-50.24023-52.43213-51.24561-8.98682-.38232-18.07471.0166-27.06567.06287q-38.31848.20013-76.63086.51135-73.19641.49036-146.39429.97876l-150.68408,1.0061q-39.65588.264-79.30664.53064c-13.21777.08728-26.43652.109-39.6543.26428-13.70288.16064-76.2749-.978-49.948,35.87476,2.37769,3.33032-.64526,6.45337-3.93359,6.67871C13.6911,163.04187,7.55413,268.61316,9.94427,373.31348c.59473,26.10486-.42212,27.76257,25.70142,43.24744,25.23535,14.9635,27.90649,13.8667,54.7146,13.98987q39.20947.17926,78.41089.35608,78.4054.35669,156.81226.71411,82.32385.3739,164.65381.7489c26.13159.11975,52.27026.33777,78.406.3562,39.4436.03064,72.08594-14.41492,75.571-57.61108C652.30926,274.75537,644.5346,170.86548,644.04217,70.07263ZM601.97845,390.9375c-.17114,1.851.02026,14.14124-5.20166,14.15137q-270.345.53119-540.67432-2a4.495,4.495,0,0,1-4.55933-5.16834,4.19959,4.19959,0,0,1-3.59033-4.29956Q49.75348,219.40491,58.01141,45.35742a4.49894,4.49894,0,0,1,3.605-4.25549,4.77782,4.77782,0,0,1,2.5188-.8988,5164.5915,5164.5915,0,0,1,532.52759-1.49695c5.80029.283,6.08154,8.42578.958,9.149C621.66473,161.391,612.55682,276.4148,601.97845,390.9375Z" fill="#fff"/>
        <path d="M627.14959,430.50315a49.38059,49.38059,0,0,0,11.65373-9.8506c28.8735-33.7301,15.2987-101.629,15.2052-140.8792q-.2586-108.2214-.5163-216.4422a4.31937,4.31937,0,0,0-.6811-2.3027c14.8222-32.4837-20.0771-55.5452-51.89832-59.0308-40.0698-4.3874-82.8178-.2192-123.1336.0486L339.04571,2.974c-89.87592.6007-179.77261.7547-269.64491,1.8004-25.7095.3008-81.8667,10.6968-60.6592,46.1693a4.265,4.265,0,0,0-2.7961,4.0326q-1.843,101.7801-3.6762,203.5568c-.5904,32.6683-1.3377,65.3394-1.7715,98.0096-.2383,17.9108-2.718,40.6116,6.1365,57.3896a40.733,40.733,0,0,0,13.7305,15.0128l8.4584,4.5772c27.1248,11.5123,67.6199,4.6544,92.7936,4.7689q101.9292.4629,203.859.9273,101.92995.46455,203.85459.9276c26.1392.1196,62.6572,5.679,89.3132-5.3394ZM9.8365,371.62025c-2.3899-104.7002,3.747-210.2716,5.6827-315.0008,3.2884-.2254,6.3113-3.3484,3.9336-6.6787-26.3267-36.8526,36.2452-35.714,49.948-35.8748,13.21791-.1553,26.4365-.1768,39.6543-.2643q39.65595-.2658,79.30661-.5304l150.684-1.0061q73.19667-.4893,146.39428-.9791,38.3178-.25515,76.6308-.5112c8.9911-.0463,18.07892-.4451,27.06592-.0628,23.72288,1.0053,71.36,20.5271,52.4322,51.2456-1.7296,2.8038-.0285,5.4065,2.3654,6.4219.4924,100.7927,8.267,204.6829.172,305.0423-3.4848,43.1961-36.12722,57.6416-75.57092,57.6111-26.1356-.0185-52.2744-.2365-78.406-.3561q-82.33065-.37455-164.6536-.7492-78.4062-.3576-156.8124-.714-39.2094-.177-78.4108-.356c-26.8081-.1231-29.4793.9735-54.7148-13.9899C9.4144,399.38285,10.4313,397.72505,9.8365,371.62025Z"/>
        <path d="M51.4354,396.22735a4.495,4.495,0,0,0,4.5594,5.1684q270.32729,2.53245,540.67409,2c6.1833-.0121,6.195-9.3025,0-9.2904q-269.635.53055-539.25879-1.991c.0049-.0698.0435-.116.0435-.1866q1.77767-172.225,9.89-344.2854a5165.06393,5165.06393,0,0,1,520.74169-1.6985,4.715,4.715,0,0,0,.0081,1.9059c24.0852,112.9947,14.6921,227.4656,4.1642,341.3946-.5514,5.9534,9.0658,5.9177,9.61312,0,10.57828-114.5226,19.68637-229.5464-4.35732-343.0821,5.12332-.7234,4.8419-8.8662-.9583-9.1493A5164.628,5164.628,0,0,0,64.0275,38.51a4.779,4.779,0,0,0-2.5187.8987,4.4991,4.4991,0,0,0-3.60509,4.2556Q49.64365,217.7055,47.8449,391.92775A4.19986,4.19986,0,0,0,51.4354,396.22735Z"/>
        <path d="M32.284,206.95886a51.94375,51.94375,0,0,0-9.72572,9.57456,19.2101,19.2101,0,0,0-3.77869,7.89827,11.08717,11.08717,0,0,0,.90879,7.09869,11.79674,11.79674,0,0,0,4.492,4.61541A18.68908,18.68908,0,0,0,37.255,238.18661c4.39229-.88147,8.44494-3.70758,9.73565-8.15556,1.82811-6.3-1.85971-13.015-5.42792-17.95026q-1.10454-1.52771-2.29166-2.99384a1.99931,1.99931,0,0,0-2.80608-.0375,2.0281,2.0281,0,0,0-.0375,2.80608q.52548.65,1.03562,1.3121c-.01513-.01972.34283.4511.17337.22625-.16755-.22231.17764.2397.1651.2227q.25676.348.5079.7c.59493.83439,1.16524,1.6866,1.70248,2.55933a32.69453,32.69453,0,0,1,2.34183,4.53152c-.23447-.56119.00225.01611.05136.14644q.09385.24907.18187.50028.18716.53546.34469,1.08072a16.76854,16.76854,0,0,1,.43053,1.88764c.024.14525.0395.29267.06582.43745.04166.22915-.04525-.5445-.00357-.00539.02253.29135.04625.58157.05388.87387a14.47125,14.47125,0,0,1-.07534,1.63554c-.04088.47185.09989-.48083.01271-.08084-.02564.11764-.04244.23756-.06707.35555q-.07622.36514-.18151.72336-.09726.32991-.21974.65159c-.02375.06225-.13647.24489-.1266.31359-.04083-.2841.22266-.45479.02064-.06592a9.88358,9.88358,0,0,1-.7083,1.18888,2.17435,2.17435,0,0,0-.19308.26054c.04193-.08508.32481-.37659.06738-.08974-.16.1783-.31591.35868-.48486.52889q-.22776.22945-.47124.44257-.10831.09495-.21947.18658c-.04634.03823-.09436.07465-.14023.11341-.18318.15483-.16266.0078.00268.00219.1127-.00382.22721-.156.02813-.02335-.04021.02679-.0783.05694-.11833.084-.09042.06114-.17983.12357-.27119.18335q-.29093.19035-.59369.36171c-.41136.23328-.84164.41415-1.26566.62024-.26088.1268.53033-.19459.12818-.05315-.1187.04175-.23555.08909-.3542.13115q-.34072.12077-.68751.22338-.68381.20295-1.38512.339-.34443.06734-.69163.1193a1.32615,1.32615,0,0,1-.38818.05348c-.02106-.01084.5829-.05772.29436-.03611-.07835.00587-.15654.01757-.23484.02445a18.44891,18.44891,0,0,1-2.96909.03239q-.35661-.02617-.712-.06664c-.11828-.01348-.23616-.03048-.35442-.044-.45906-.05228.51337.09168.0562.00824-.49178-.08975-.981-.18038-1.466-.30319q-.69809-.17677-1.37883-.41454-.32668-.11455-.648-.24373c-.064-.02577-.24582-.141-.31748-.13207.28826-.03594.44819.2105.0554.01962a16.61591,16.61591,0,0,1-2.40009-1.46009c.00682-.00943.47.39713.11675.08826-.08117-.071-.16413-.13977-.24461-.21159q-.253-.22575-.49059-.468-.22291-.22782-.43041-.47009c-.07633-.0893-.14729-.18339-.2239-.27231-.27661-.321.2845.42488.05118.06849A11.28594,11.28594,0,0,1,23.11,229.5103c-.042-.08429-.08047-.17021-.12155-.2549-.02569-.053-.04487-.10948-.07156-.16187-.13583-.2666.17527.11057.09905.24689a3.04159,3.04159,0,0,0-.2221-.64282c-.04115-.13754-.22549-1.31367-.2802-1.33076.10587.03307.04849.59252.03474.265-.00267-.06352-.01314-.12681-.0161-.19038-.00479-.10289-.01319-.2056-.01715-.30857q-.01522-.396.00387-.79231c.01153-.24733.04368-.49194.06245-.73845.0346-.4545-.081.40718-.01829.106.0325-.15616.05464-.31473.0868-.47112a12.86221,12.86221,0,0,1,.46-1.649c.09877-.28276.2098-.56016.32167-.83789.19946-.49516-.18993.3898.0451-.10012.07744-.16143.15275-.32375.23269-.484a21.04983,21.04983,0,0,1,1.08261-1.90325c.42666-.6703.88653-1.31919,1.37016-1.9495.0695-.09058.14024-.18019.20993-.27061-.03337.0433-.27971.34155-.05554.07041.13612-.16464.26969-.3313.40681-.49515q.4522-.54034.92477-1.06317a51.421,51.421,0,0,1,4.57359-4.43123q1.38514-1.197,2.83077-2.321a1.99706,1.99706,0,0,0,.0375-2.80608,2.03152,2.03152,0,0,0-2.80608-.0375Z" fill="#1d1d1b"/>
        <path d="M625.45542,192.15846c.38666,2.507-2.46122,4.57114-2.87049,6.95338-.63,3.66733,4.43121,5.52317,7.38337,4.91768a10.87037,10.87037,0,0,0,5.336-3.62839,3.32506,3.32506,0,0,0,.31649-3.67189c-1.11432-1.96581-4.62876-2.42691-5.27934-4.5293-.75188-2.42974-4.59882-1.44595-3.84074,1.00382.66911,2.16227,2.40225,3.35791,4.23486,4.50631a6.28873,6.28873,0,0,0,1.16494.753c.07813.02308.484.41451.22614.11968-.41038-.46914.19576-.56278-.74344.1395a6.63207,6.63207,0,0,1-2.39374,1.30918c-.80346.11529-1.553-.38813-2.32219-.46245-.1062-.01026-.39421-.26975-.45853-.24314.09065-.0375.43038.54182.24182.62482.09584-.04219.87047-1.742,1.03552-2.01646,1.29172-2.14776,2.20347-4.22883,1.81007-6.77959-.38845-2.51864-4.22752-1.504-3.84074,1.00382Z" fill="#1d1d1b"/>
      </g>
    </g>
  </g>
</svg>
