<svg xmlns="http://www.w3.org/2000/svg" viewBox="0 0 156.85989 148.12439">
  <title>Recurso 5</title>
  <g id="Capa_2" data-name="Capa 2">
    <g id="Editar">
      <g>
        <g>
          <g>
            <path d="M49.92837,45.98027a17.60875,17.60875,0,0,1,.7418,2.3058c.2548.8962,1.1969,1.5367,1.3099,2.4035a8.329,8.329,0,0,0,1.3489,4.3689,4.60739,4.60739,0,0,0,4.9575,2.0171c3.0422-.5587,6.7638-.7513,9.4421-2.4321a5.26913,5.26913,0,0,0,.7754-.6027c2.8901,2.3451,8.1415,1.3037,7.7308-3.3512-.0038-.0502-.0085-.1074-.0133-.1597.519.0117,1.0326.0223,1.5297.0519a41.82774,41.82774,0,0,0,9.3556-.2657c3.8994-.6247,4.2157-5.6063,2.1274-8.0591a87.14841,87.14841,0,0,1-9.6611-14.2449c-1.1829-2.1269-2.0657-4.4245-3.1637-6.6002-1.2203-2.4176-2.9308-4.9598-3.6944-7.5395a3.3565,3.3565,0,0,0-1.945-2.2482,12.53212,12.53212,0,0,0-2.0752-5.3054c-1.1119-1.5176-3.4426-1.8309-4.4923,0-1.7011,2.9681-1.0153,6.8546-1.0901,10.187a84.87342,84.87342,0,0,0,.9631,11.9372c.459,3.8429.4185,7.722.9982,11.5855.2354,1.5705.5057,3.1465.7675,4.7237-2.2917-1.343-4.8562-2.335-6.8043-4.181-1.2312-1.1666-2.4063-2.3942-3.5783-3.6235a14.42875,14.42875,0,0,0-3.0935-4.003,4.238,4.238,0,0,0-1.9404-.9733,6.90635,6.90635,0,0,1-1.6255-2.7667c-.7808-2.8411-4.8266-2.1312-4.9785.6737a11.44432,11.44432,0,0,0,2.1522,7.0405C46.64067,40.01357,48.70807,43.062,49.92837,45.98027Z" fill="#ff8f47"/>
            <path d="M60.70527,99.95767c.5291-3.5011-.5704-5.7913-3.5089-7.7449-1.8165-1.2082-3.3002-2.8758-5.055-4.2325a16.60935,16.60935,0,0,0,.8883-1.4595,2.98526,2.98526,0,0,0,.0406-2.7487,4.99741,4.99741,0,0,0,.6101-.7574c1.9154-2.9627,1.0504-6.5017.0117-9.6444-1.2624-3.8206-1.0075-6.4973,1.2943-9.8072a4.16831,4.16831,0,0,0-1.4993-5.7164c-2.5021-1.1872-4.952-.6165-7.5453-.0161-1.9872.4606-7.2283-.6323-10.2136-1.1848a75.39724,75.39724,0,0,1-7.8665-1.8378c-5.009-2.5205-10.3686-4.5014-14.2524-8.6894-2.5637-2.6144-5.9838-1.0403-7.1207,1.525a1.67431,1.67431,0,0,0-1.5102,2.8002,73.918,73.918,0,0,0,10.1427,9.9509c3.8401,3.2355,6.8636,7.5034,10.9749,10.3687,4.3185,3.0091,8.9581,5.5085,13.2728,8.5335a72.06685,72.06685,0,0,0,6.4015,4.5523,29.75725,29.75725,0,0,1-8.0356,5.482c-6.4108,3.1208-12.4718,8.4664-17.4995,13.4606-2.2784,2.263-1.3644,6.7487,1.9692,7.459,5.2903,1.1275,11.0123-1.6388,16.1397-2.7808,3.2175-.7165,6.4101-1.5456,9.6073-2.3451,2.8513-.713,5.4968-1.8909,8.4509-1.8909C58.20707,103.234,60.41377,101.88867,60.70527,99.95767Z" fill="#ff8f47"/>
            <path d="M80.138,105.76067a56.21,56.21,0,0,0-5.4936-2.1857c-.2019-.0693-.4956-.1516-.8331-.2416a11.50469,11.50469,0,0,0-6.3742-2.4071c-1.3745-1.8023-4.4518-2.6619-5.365.6222-1.4011,5.0433-.9749,10.4155-2.3097,15.5055a36.34367,36.34367,0,0,0-1.1681,8.2696,45.21529,45.21529,0,0,1-.4192,4.5743c-1.4814,3.3374-2.7765,6.6905-2.6705,10.496.113,4.027,5.6511,3.8147,6.0999,0a15.47037,15.47037,0,0,1,1.0193-3.8285,4.4222,4.4222,0,0,0,3.2174-1.9037c2.9745-4.6146,5.4221-9.4604,8.6131-13.9399a18.64218,18.64218,0,0,1,4.0972-4.4455,8.65068,8.65068,0,0,0,3.5954-5.5783C82.41657,108.87457,82.041,106.64827,80.138,105.76067Z" fill="#ff8f47"/>
            <path d="M134.87827,93.02087c-3.4442-1.756-6.71079-3.763-9.9649-5.8311-1.4525-.9234-2.8926-2.0759-4.3654-3.1477-.0194-.0927-.0296-.187-.0513-.2794a2.30219,2.30219,0,0,0-2.9729-1.6672c-.3124-.1656-.62729-.3253-.9452-.464-4.7713-2.0798-8.4213,3.9387-4.0973,7.0093q.63465.4506,1.2639.907a26.29891,26.29891,0,0,1-1.96669,3.9815c-1.96141,3.1552-5.49681,4.8368-7.046,8.3138a5.03056,5.03056,0,0,0-.43331,1.719c-2.4086-.7021-5.43669.5654-5.4001,3.8206.0039.2783.0187.5556.0265.8331a11.02661,11.02661,0,0,0-5.2389-.7859c-.8875.0533-1.7704.1301-2.6587.1601a2.8314,2.8314,0,0,0-.7996.0156c-.0896-.0125-.1667-.0226-.2353-.0311a.04269.04269,0,0,0,.0157-.0648c-2.1515-4.0696-7.6639-1.385-7.3702,2.4738a2.7349,2.7349,0,0,0,1.0879,3.35c.907.5591,1.3816,2.1319,1.9481,2.9915a27.13254,27.13254,0,0,0,2.1788,2.9513c1.6745,1.9263,2.6003,4.3767,4.6434,6.0489a41.09783,41.09783,0,0,1,11.1705,14.3533c1.7494,4.0181,8.027,1.8417,7.956-2.155-.1792-10.1333-4.1557-19.7974-4.4183-29.9569a12.9,12.9,0,0,0,6.061-.0175,43.75084,43.75084,0,0,1,8.7322-.3713c6.1218.1395,12.2435.1668,18.3668.2108,3.0367.0218,4.5921-2.7523,4.1572-5.4579C143.80927,97.48637,138.47527,94.85487,134.87827,93.02087Z" fill="#ff8f47"/>
            <path d="M144.94386,54.36917a7.84966,7.84966,0,0,0-1.06139.2996c-3.42321,1.0166-6.67181,2.6682-10.11071,3.6824a44.50108,44.50108,0,0,0-6.5051,2.2952,29.4759,29.4759,0,0,0-4.9178,1.262,3.39732,3.39732,0,0,0-5.909.8404c-1.5226,3.9668-1.3715,8.1661-1.6115,12.3405-.1683,2.9148,3.5783,5.161,6.0298,3.461a38.13328,38.13328,0,0,0,4.89531-4.253,26.07712,26.07712,0,0,1,7.01309-4.4297c2.64091-1.3107,5.07991-2.9517,7.7551-4.227,1.10881-.5294,2.3611-.6047,3.4403-1.2055a26.08467,26.08467,0,0,1,2.35951-1.3543c.31409-.0974.62739-.1971.94679-.2825C152.76356,61.33057,150.418,53.28187,144.94386,54.36917Z" fill="#ff8f47"/>
            <path d="M97.73807,49.529c1.3348,1.2117,2.5933,2.4904,4.0216,3.6149,2.7094,2.1304,5.95581,5.489,9.4546,6.0695,2.792.4637,5.4975-1.1552,5.5373-4.2176a75.78979,75.78979,0,0,1,.8213-10.7166c.5174-3.2421,1.7362-6.8168,1.7548-10.095.0414-7.3297,2.5365-14.254,2.7562-21.529a3.99436,3.99436,0,0,0-6.7693-2.8042,68.16071,68.16071,0,0,0-6.4038,7.9546c-1.9021,2.7955-4.9232,5.2763-6.2448,8.3468-2.2567,5.2409-6.5246,9.2637-9.2964,14.1507-.0234.0129-.0483.0219-.0717.0347a3.31922,3.31922,0,0,0-1.6707,3.8377c-.12469.3753-.2431.7524-.3436,1.1417C90.23077,49.40347,95.172,51.57177,97.73807,49.529Z" fill="#ff8f47"/>
          </g>
          <path d="M108.74557,55.10677c-12.3276-11.0824-33.4046-10.7107-45.027,1.1981a3.00641,3.00641,0,0,0-1.1003.2326,20.87677,20.87677,0,0,0-6.0671,3.3359c-2.0425,1.7596-2.8023,5.1181-3.7513,7.5197-2.6643,6.742-2.8833,13.712.6117,20.1532,3.1839,5.8677,8.2732,12.457,14.737,14.8571a23.88269,23.88269,0,0,0,7.3506,1.4887,31.26345,31.26345,0,0,0,5.3932,2.3183c8.2584,2.6229,19.0782.748,25.7688-4.7791C120.42647,90.05857,122.30987,67.3,108.74557,55.10677Z" fill="#ffb331"/>
        </g>
        <g>
          <path d="M155.93036,53.25567c-2.8856-4.3474-20.5448,1.1662-22.9254,1.6883-5.0073,1.0979-9.92749,3.8311-15.17649,3.7075h-.01331a2.7595,2.7595,0,0,0,.159-.6401c.5369-4.2047.4917-8.5432.9227-12.7764.4581-4.5009,1.0293-8.9898,1.4291-13.497a90.80622,90.80622,0,0,0,.0124-13.353c-.1964-3.421-.155-6.9992-1.24289-10.2689a2.678,2.678,0,0,0,.27279-3.3398,1.38062,1.38062,0,0,0-2.3556,0c.19.0549.0739.1593-.3515.3132.3685-.369-.0296-.2049-.5619-.0588a4.24629,4.24629,0,0,0-2.0096,1.8499c-1.1697,1.6431-2.4718,3.371-3.4817,5.0998a134.50523,134.50523,0,0,1-8.1937,11.8125c-2.7172,3.6823-4.7246,7.7028-7.0974,11.6025-1.2101,1.9876-2.4912,3.8405-3.4988,5.9371a14.70757,14.70757,0,0,1-1.1042,1.7961c-.6351-1.1708-.9772-2.3841-1.5858-3.6071-1.1446-2.2999-2.3533-4.569-3.6624-6.7805-1.2787-2.1608-2.8917-4.0915-4.1471-6.2577a46.58511,46.58511,0,0,0-4.462-5.8904c-1.7689-2.1671-2.8847-4.8243-4.165-7.3003a59.9566,59.9566,0,0,0-3.6477-6.3099c-1.4314-2.1017-3.1628-4.0003-4.1307-6.3793a.8528.8528,0,0,0-1.6302,0,3.97768,3.97768,0,0,0-.1122.9261,1.20633,1.20633,0,0,0-.2603.5171c-1.8008,7.4853-1.0754,15.8724-.2259,23.4376.4316,3.8488.8688,7.6881,1.253,11.5422.1208,1.2067.2556,2.4355.4387,3.6589-.1831-.1531-.3686-.3054-.547-.466-2.4033-2.1522-5.3075-3.6818-7.9795-5.4594-2.9159-1.9406-5.7906-3.8521-8.5093-6.0769a35.67491,35.67491,0,0,1-3.7747-3.1033,34.69818,34.69818,0,0,0-2.4827-2.6661,1.06676,1.06676,0,0,0-.9397-1.5231q-.2349-.0111-.4683-.0296a1.17513,1.17513,0,0,0-1.4502,1.1045c-.0093.1103-.0125.2194-.0179.3297a1.29213,1.29213,0,0,0-.0047.9394,10.0705,10.0705,0,0,0,.8198,3.4411c.7652,1.8,1.3044,3.6784,1.959,5.5221,1.2429,3.4984,3.1185,6.67,4.5562,10.0714,1.5141,3.5829,3.3219,7.0151,4.5001,10.7367.2322.7369.4528,1.4904.685,2.2443a18.11205,18.11205,0,0,0-2.5364-1.029,42.65514,42.65514,0,0,0-8.0239-1.5153,67.26909,67.26909,0,0,1-7.2556-1.5736q-1.93906-.4764-3.8923-.8946a24.30173,24.30173,0,0,1-4.7487-1.7026c-2.4881-1.0926-4.9622-2.2088-7.4815-3.2289a67.40135,67.40135,0,0,0-6.675-1.9551c-3.5175-1.0024-10.9616-2.2602-10.0288,3.5448.2812,1.7486,1.9979,3.2303,3.2868,4.2737,1.8943,1.5321,3.8097,3.0181,5.6051,4.6705,2.0291,1.8659,3.9204,3.7933,6.0882,5.5076,2.4297,1.9224,4.9513,3.7252,7.48,5.5144,4.8507,3.4329,9.506,7.0568,14.7253,9.9147,1.991,1.0898,4.2579,2.1713,5.7711,3.8985.4941.5642.9974,1.1299,1.5335,1.6516-1.2677,1.0555-2.4974,2.1644-3.7294,3.2576q-5.15355,4.57845-10.4528,8.9968c-3.3204,2.7636-7.1713,5.0729-10.2322,8.1244a38.79254,38.79254,0,0,1-4.6576,4.1506,14.43623,14.43623,0,0,0-2.2325,1.398,3.95533,3.95533,0,0,0-.9413,2.5766,2.29257,2.29257,0,0,0,1.7027,2.2349c4.1416.8594,8.4657-.4641,12.5006-1.3395,2.3423-.5081,4.9286-.334,7.3241-.6589,2.7686-.3741,5.5022-.8521,8.2778-1.1467,4.4519-.4722,8.6317-2.8442,13.0898-2.9626a13.731,13.731,0,0,0,3.8518-.5853c-1.0263,5.5397-1.4354,11.2515-2.6954,16.7164a74.29747,74.29747,0,0,0-1.4931,11.2717c-.2734,3.562-1.1891,6.6174.3367,10.0507a2.23222,2.23222,0,0,0,3.0492.7999c3.0078-1.7782,4.3489-5.1267,6.3649-7.8135,2.4203-3.2256,4.9801-6.2994,7.6599-9.3116a67.09006,67.09006,0,0,0,6.9018-9.0648c.9304-1.4845,2.591-3.3882,3.3406-5.3172.3304.4083.6607.8139.9771,1.2183q2.0958,2.67555,4.1387,5.3958c2.7249,3.6181,5.0728,7.5661,7.9093,11.0887,2.8263,3.5089,5.9682,6.7486,8.7952,10.2584,1.1362,1.4115,1.3887,4.5885,3.40141,5.6663a2.06425,2.06425,0,0,0,2.06349,0c.0257-.0165.0522-.0324.0779-.0488a2.07472,2.07472,0,0,0,.72861-.8108,4.56348,4.56348,0,0,0,.50179.7847,1.23592,1.23592,0,0,0,1.7588,0c1.35041-1.7412.9787-3.8915.8089-5.9803-.212-2.6167-.65149-5.2151-1.1237-7.7963-.8315-4.5469-2.0845-9.0474-2.7437-13.6197-.3242-2.2593-.8307-4.5106-1.2546-6.7548a36.98748,36.98748,0,0,1-.5696-3.9999,12.09576,12.09576,0,0,1-.02189-1.435c.00779-.1776.01949-.2875.02569-.3526a.99275.99275,0,0,0,.4761-.4729,35.97423,35.97423,0,0,0,7.1364.3467c4.416-.067,8.853.2497,13.2721.3101,4.2616.0581,8.5179-.1032,12.7772-.0615,3.784.0362,7.17451,1.5234,10.9039,1.7346.5167.2334,1.0419.4461,1.5788.63a1.34907,1.34907,0,0,0,1.5126-1.9695c-.0952-.1341-.1957-.2657-.2946-.3979a2.18982,2.18982,0,0,0-2.1203-2.7055c-.106,0-.2074-.0058-.311-.0089a53.36355,53.36355,0,0,0-7.1581-5.4699c-3.6219-2.4324-7.0264-5.1478-10.41379-7.8899a92.838,92.838,0,0,1-8.84211-7.5107,41.04078,41.04078,0,0,0-3.611-3.5155c-.1107-.0904-.2275-.1726-.3421-.2603a10.11582,10.11582,0,0,0,2.3315-1.4572c1.9022-1.497,3.8549-2.8805,5.8342-4.2773a65.08194,65.08194,0,0,0,6.2387-4.8437c2.1179-1.9193,5.10081-3.2141,7.5399-4.6912a37.98729,37.98729,0,0,0,6.5581-4.6006c1.47981-1.4026,5.0012-2.3724,5.5661-4.4257.0265-.196.0538-.392.0795-.5883.0008-.0137.0008-.021.0024-.0339a2.06159,2.06159,0,0,0,.09581-.3152A1.97409,1.97409,0,0,0,155.93036,53.25567Zm-62.6106-8.4594a9.06565,9.06565,0,0,0,1.34571-1.7997c1.15409-1.7455,2.37749-3.389,3.59309-5.0959,2.1835-3.0675,3.7115-6.5733,5.9121-9.6166,2.425-3.3531,4.9895-6.601,7.3592-9.9938,1.2102-1.7338,2.2068-3.6387,3.505-5.304a18.60661,18.60661,0,0,0,1.218-1.8358c.2065,2.1398-.0102,4.3423.0343,6.493a100.93564,100.93564,0,0,1-.233,14.0945c-.5089,4.2552-.9741,8.5188-1.4643,12.7766-.4869,4.2285-1.288,8.8958-.85239,13.1657q-.21976-.26715-.44571-.5299c-5.11729-5.8708-13.1272-9.2824-20.643-11.1725-.0382-.0565-.0779-.1125-.1208-.1682-.0459-.0577-.1138-.1481-.1901-.2517C92.67057,45.295,93.02747,45.05377,93.31977,44.79627ZM64.79317,5.97317l.0413.0701c1.3597,2.3116,2.7071,4.598,3.8331,7.033,1.2444,2.69,2.58,5.341,3.8697,8.0099a19.663,19.663,0,0,0,2.5637,3.2845c.9032,1.1233,1.7728,2.2591,2.563,3.4657a141.85052,141.85052,0,0,1,8.0488,13.682c.4706.9292.8961,2.2021,1.5086,3.3905a51.72008,51.72008,0,0,0-10.8486-.1621,19.18016,19.18016,0,0,0-6.4132,1.6952,1.806,1.806,0,0,0-1.0497-1.8305,50.48524,50.48524,0,0,1-1.7338-8.2447c-.427-3.6355-.8961-7.2552-1.3831-10.8826-.5151-3.8455-.9126-7.704-1.066-11.5814A60.25344,60.25344,0,0,1,64.79317,5.97317Zm-16.0104,35.6013c-1.567-3.2549-3.3967-6.3594-4.7837-9.7086-.1761-.424-.3359-.8642-.4917-1.3087a87.61637,87.61637,0,0,0,10.2813,7.7289c1.458,1.0071,2.9868,1.9102,4.4721,2.875,1.4143.9183,2.5996,2.3451,4.0271,3.1711,1.5187.8798,2.6643,3.0055,4.3069,3.7906.021.0304.0398.0635.0608.0935q-.54825.3402-1.0894.701a1.25681,1.25681,0,0,0-.7333.1204c-3.7146,1.8959-6.7731,5.0113-9.4366,8.2385a57.95424,57.95424,0,0,1-2.0665-5.833A96.869,96.869,0,0,0,48.78277,41.57447Zm-9.2395,31.8056a146.42683,146.42683,0,0,1-13.533-9.0295,102.49626,102.49626,0,0,1-12.9152-10.2299c-1.8196-1.7712-3.7825-3.3379-5.7337-4.9568-.3927-.3257-1.4416-1.0297-2.1718-1.7143,3.0336-.0047,6.308,1.5632,9.0353,2.3428,4.6561,1.3313,8.8569,4.2718,13.6025,5.2544a125.97627,125.97627,0,0,0,13.6072,2.5684,33.46384,33.46384,0,0,1,6.8698,1.2421c1.6044.5011,2.9541,1.3263,4.4604,1.8656a30.11376,30.11376,0,0,0-4.6007,10.0486,23.34969,23.34969,0,0,0-.3226,9.0814c-.7106-.7309-1.6255-1.9108-2.0587-2.3943C44.19387,75.68977,41.59667,74.50687,39.54327,73.38007Zm18.5009,28.9376a2.593,2.593,0,0,1-.3749.1539,7.30826,7.30826,0,0,1-1.7159.2968,29.72407,29.72407,0,0,0-4.5048.556c-2.0104.4731-3.9734,1.1475-5.9604,1.7093a61.00107,61.00107,0,0,1-6.6851,1.1011c-2.0743.351-4.1472.7297-6.2355.9958-2.2139.281-4.5313.1025-6.7069.551-1.4323.2949-2.9768.734-4.5431,1.08.9445-.8676,1.8414-1.7887,2.7445-2.6942,2.6963-2.7005,6.0961-4.8527,9.0198-7.3101,3.099-2.6034,6.1264-5.3912,9.0376-8.2023,1.4642-1.414,2.8201-2.919,4.1737-4.4382a9.9234,9.9234,0,0,0,.9881-1.4065c.1457.0611.2875.1262.4395.1776q.46156.06435.9226.1212a2.44756,2.44756,0,0,0,.5579.0066,34.81023,34.81023,0,0,0,7.2251,11.4728,39.57883,39.57883,0,0,0,4.3202,3.9773,1.26382,1.26382,0,0,0-.1068.1605A2.55574,2.55574,0,0,0,58.04417,102.31767Zm21.4899,8.8713c.4933-.6839-.5127.3362-.6701.5337-.4045.5089-.6218,1.0984-.9772,1.6435-.8462,1.301-1.6605,2.6229-2.4819,3.9398a64.44064,64.44064,0,0,1-6.6734,8.703c-2.3728,2.6732-4.557,5.4376-6.76,8.244a47.14979,47.14979,0,0,0-2.9735,4.139c-.1099.1753-.2183.3506-.3281.5267.1714-1.7591.6358-3.5674.6748-5.1784a62.03174,62.03174,0,0,1,1.5226-10.9531,101.916,101.916,0,0,0,1.377-10.369c.3335-3.3741.8361-6.7985.8634-10.1999a48.81138,48.81138,0,0,0,16.7077,7.2606,1.37454,1.37454,0,0,0,.0951,1.001c.0406.0775.0873.1531.1294.2298A1.97591,1.97591,0,0,0,79.53407,111.189Zm-3.8151-7.4874c-10.3538-3.595-20.0757-11.4888-23.2643-22.2723-1.7471-5.9067-.1972-12.09,2.8933-17.2295.2782-.4645.5774-.9121.8829-1.3527a1.774,1.774,0,0,0,1.3068-1.7389c2.8761-3.5678,6.4061-6.5597,9.0135-10.3527a1.11732,1.11732,0,0,0,.2119-.637c6.9119-3.6079,15.3145-3.38,23.05-1.4833a1.52394,1.52394,0,0,0,1.8359.4855,60.23464,60.23464,0,0,1,7.127,2.5115,31.91508,31.91508,0,0,1,11.7144,8.318,17.45959,17.45959,0,0,1,1.1728,1.5316,1.33817,1.33817,0,0,0,.2547.3939,24.35285,24.35285,0,0,1,3.5838,12.4286,41.88677,41.88677,0,0,1-2.8895,15.148,27.52865,27.52865,0,0,1-9.1124,12.0725C95.69947,107.54007,84.50717,106.75187,75.719,103.70157Zm32.3401,26.9213c.58141,2.9748,1.1252,5.9589,1.4993,8.9683.159,1.2721.1348,2.7858.2766,4.2422a9.07622,9.07622,0,0,1-.5704-.9993,15.43868,15.43868,0,0,0-1.8382-3.4571c-2.7858-3.3115-5.7072-6.5052-8.4883-9.8197-2.9409-3.5043-5.3853-7.4979-8.2164-11.1081a68.16972,68.16972,0,0,0-7.0209-8.2904,40.10144,40.10144,0,0,0,11.0878-.3124,25.57724,25.57724,0,0,0,9.9011-3.9061,1.29951,1.29951,0,0,0,.46681.355c.15729.0748.31709.1426.47759.21a7.88229,7.88229,0,0,0-.5984,3.7661,65.764,65.764,0,0,0,1.034,9.0279C106.64007,122.95827,107.32267,126.858,108.05907,130.62287Zm18.1151-40.5542c1.5359,1.5044,3.3211,2.6023,4.9474,3.9773,3.4668,2.9319,7.0265,5.7555,10.7325,8.3811.5331.378,1.0645.7703,1.5959,1.1701-.3662-.0218-.73249-.041-1.0948-.0557-4.017-.1641-8.0776.2264-12.097.2813-4.28269.0584-8.5631.1788-12.845.3-3.2549.0919-7.1114,1.1525-10.3094.1067.3272-.2524.6529-.5088.9763-.7733,6.3665-5.2191,9.3175-12.8755,10.8853-20.6979.9452,1.0169,2.1538,1.9262,2.8957,2.7417C123.27307,87.05027,124.67567,88.60027,126.17417,90.06867Zm19.08131-30.3885c-3.15431,2.1796-6.53781,4.0065-9.72881,6.1315a50.80857,50.80857,0,0,0-3.9843,3.4095c-1.4548,1.2051-3.0001,2.2992-4.5017,3.4463a26.85405,26.85405,0,0,0-3.611,3.0846,9.27262,9.27262,0,0,1-3.2549,2.6856,1.502,1.502,0,0,0-.325.1555c-.1098-.0713-.14329-.0829-.0257.0206l-.0039.0031c-.05769-.0447-.1153-.0899-.1761-.1335a.2038.2038,0,0,0-.01859-.0098,29.274,29.274,0,0,0-3.15211-16.7066c.1207.0195.2416.0397.3624.0569a20.64777,20.64777,0,0,0,4.2834.1434c4.5157-.2813,8.6122-2.1948,13.0032-2.9698,4.17911-.7367,8.4393-2.5208,12.6893-2.6567,1.0473-.0335,2.0884-.1037,3.1326-.1275C148.39036,57.37637,146.86466,58.56817,145.25547,59.68017Z" fill="#463131"/>
          <path d="M74.83527,70.40487a2.38127,2.38127,0,0,0-2.192-2.3875,2.64018,2.64018,0,0,0-.9951-.0714,2.45923,2.45923,0,0,0-.4613.0745l-.0024.0011a2.19766,2.19766,0,0,0-1.1174.6647,2.86374,2.86374,0,0,0-.1901.2182l-.0016.0035a2.46551,2.46551,0,0,0-.4176.84,2.34516,2.34516,0,0,0-.0803.5552c-.0016.0339-.0086.0682-.0086.1017a2.47846,2.47846,0,0,0,.4442,1.4089,2.27329,2.27329,0,0,0,1.1649.9164,1.87179,1.87179,0,0,0,.8486.1473,2.53065,2.53065,0,0,0,.8167-.0842,2.38147,2.38147,0,0,0,2.192-2.3884Z" fill="#463131"/>
          <path d="M99.01987,68.66717c-.0273-.2003-.0538-.4002-.0818-.6008a2.25916,2.25916,0,0,0-2.1765-1.6575,2.27236,2.27236,0,0,0-1.4439.5229,2.45393,2.45393,0,0,0-.3849.1777,2.475,2.475,0,0,0,2.4974,4.2737l.0031-.0012c.1583-.0673.3071-.1421.3359-.155a2.44561,2.44561,0,0,0,.9258-.902A2.48974,2.48974,0,0,0,99.01987,68.66717Z" fill="#463131"/>
          <path d="M98.00917,82.05617a.98117.98117,0,0,0-1.366,0c-1.592,1.4864-1.5881,4.2367-2.7975,6.0703a10.76937,10.76937,0,0,1-6.1381,4.1284c-2.3564.6288-4.8149-.6526-6.5378-2.2056-.6616-.5958-1.0169-1.4904-1.6239-2.1609a10.072,10.072,0,0,1-1.9427-2.3731,1.1895,1.1895,0,0,0-2.3245.3151,6.59034,6.59034,0,0,0,.9935,3.4155,16.47954,16.47954,0,0,0,1.9061,3.0655,10.947,10.947,0,0,0,8.962,4.0598,14.38816,14.38816,0,0,0,9.2045-4.9559C98.32327,89.20377,100.682,84.58447,98.00917,82.05617Z" fill="#463131"/>
        </g>
      </g>
    </g>
  </g>
</svg>
