<svg xmlns="http://www.w3.org/2000/svg" viewBox="0 0 68.00155 82.06105">
  <title>Recurso 13</title>
  <g id="Capa_2" data-name="Capa 2">
    <g id="Editar">
      <g>
        <path d="M33.2256,23.2486v4.5247c0,.8542-.85419.8542-.85419,0V23.3155a26.14,26.14,0,0,0-5.214,1.0883C20.5297,26.4368,13.9132,29.9771,10.0762,35.94A27.36623,27.36623,0,0,0,6.3346,46.567h5.5346c.85421,0,.85421,1.7085,0,1.7085H6.3065c-.02609,0-.0448-.5994-.0685-.603a20.2723,20.2723,0,0,0,.345,6.2041C8.9199,65.7596,20.6029,73.55,32.3643,72.6386c-.4253-.2005-.1853-.9394.3452-.8334.0283.0056.0556.0083.0838.0137l.42111-3.9457c.06169-.5771.97209-.5815.90989,0q-.21795,2.046-.4367,4.0925c14.9436,2.2567,24.8907-13.1296,23.68481-26.7041C56.1915,31.9651,46.0395,22.581,33.2256,23.2486ZM12.2077,56.864q-1.147.74355-2.2941,1.4868c-.4936.3197-.9493-.4682-.4595-.7855q1.147-.74325,2.2941-1.4866C12.2416,55.759,12.6975,56.5467,12.2077,56.864ZM28.8096,44.7043c.4826-.3351.937.4536.4595.7857a2.99976,2.99976,0,0,0-1.2733,2.6687c.0315.586-.8787.5825-.9099,0A3.92544,3.92544,0,0,1,28.8096,44.7043ZM14.0039,37.2008a2.32711,2.32711,0,0,1-2.458-.9016c-.3516-.4693.439-.9223.7858-.4593a1.38055,1.38055,0,0,0,1.4303.4839A.45514.45514,0,0,1,14.0039,37.2008Zm5.912-6.3605a4.32887,4.32887,0,0,0-1.4227-2.0612c-.4543-.3706.1933-1.0102.6434-.6434a5.17447,5.17447,0,0,1,1.65681,2.4629C20.9719,31.1586,20.0931,31.3959,19.9159,30.8403ZM22.634,66.5837q-.5673,1.327-1.1345,2.6543c-.2297.5372-1.0133.0732-.7859-.459q.5673-1.3275,1.1343-2.6544C22.0775,65.5872,22.8613,66.0512,22.634,66.5837Zm1.53-20.2024c-.0947.5771-.9715.3306-.8775-.2419a5.864,5.864,0,0,1,2.854-4.1201.45523.45523,0,0,1,.4593.7855A4.99974,4.99974,0,0,0,24.164,46.3813ZM53.0615,60.1596q-1.3668-1.08735-2.7336-2.1748c-.4582-.3646.19-1.0041.6436-.6432q1.3668,1.08735,2.7335,2.1748C54.1631,59.8812,53.515,60.5206,53.0615,60.1596Zm3.6682-11.6378-6.0716.7233c-.5812.0692-.5744-.8411,0-.9096q3.03585-.36165,6.0716-.7232C57.3108,47.543,57.3039,48.4534,56.7297,48.5218Zm-6.5511-10.638a1.94115,1.94115,0,0,0,1.2781-1.857.45533.45533,0,0,1,.9101,0,2.87239,2.87239,0,0,1-1.9463,2.734C49.866,38.9556,49.6297,38.0765,50.1786,37.8838Zm-5.9635-7.1561q.8424-1.07085,1.6849-2.1417c.3619-.4601,1.0016.1879.6436.6432q-.8427,1.07085-1.6849,2.1417C44.4966,31.831,43.857,31.1828,44.2151,30.7277ZM43.0022,64.1702q1.1439.93975,2.2878,1.8795c.453.3721-.19459,1.0122-.64359.6432q-1.14377-.93975-2.28771-1.8795C41.9057,64.4411,42.5533,63.8011,43.0022,64.1702ZM38.5297,52.2235a8.13511,8.13511,0,0,0,.302-3.5607c-.0807-.5734.7963-.819.8776-.2417a9.19269,9.19269,0,0,1-.302,4.0439C39.2355,53.024,38.35742,52.7841,38.5297,52.2235Zm-1.7521-3.3376c-.0667-.5816.8441-.575.91,0a3.9668,3.9668,0,0,1-1.94419,3.8498.45523.45523,0,0,1-.45951-.7854A3.08549,3.08549,0,0,0,36.7776,48.8859ZM34.93442,34.3904a9.02569,9.02569,0,0,0-1.47021-.6588q.13095,5.7687.2614,11.5373.10635,1.0887.2383,2.1769a2.22681,2.22681,0,0,1,.1406,3.6628,2.07661,2.07661,0,0,1-1.9659.0317,42.22657,42.22657,0,0,0-3.8977,5.4613,1.16536,1.16536,0,0,1,.5636.7458c.4504-.3181,1.06291.2978.6157.6576q-1.32975,1.0692-2.6595,2.1386a.46111.46111,0,0,1-.777-.3219,17.554,17.554,0,0,1,.588-3.8658.45236.45236,0,0,1,.8806.1912A43.40953,43.40953,0,0,1,31.4669,50.53c-.0228-.0359-.0519-.0659-.0723-.1039a1.6167,1.6167,0,0,1-.1839-.8286,2.16371,2.16371,0,0,1,1.6496-2.3479q-.0228-1.01235-.0458-2.0249a94.77811,94.77811,0,0,1-.3924-11.7786c-.1345-.0294-.2672-.0624-.4042-.0864a.50876.50876,0,0,1-.0296.3784.58563.58563,0,0,1-1.1152-.3121,3.64879,3.64879,0,0,1,.7055-1.4396q.48435-.8466.9681-1.6929a.46067.46067,0,0,1,.8318.1086,7.03874,7.03874,0,0,0,2.1073,3.274C35.8835,34.0296,35.3713,34.6353,34.93442,34.3904Z" fill="#fff"/>
        <path d="M17.7536,21.267a31.33937,31.33937,0,0,1,5.5546-2.3752.41492.41492,0,0,1-.00079-.0447c.51519-2.9221-6.42891-6.0459-8.54871-6.5988A11.35449,11.35449,0,0,0,4.3968,14.4234c-5.8349,5.2231-3.7173,13.6998.60161,19.0218A34.9536,34.9536,0,0,1,17.7536,21.267Zm-13.7593.2449c.09011-.5775.96711-.3308.8777.2419a6.81885,6.81885,0,0,0,.6796,4.1989c.2656.5212-.52.9809-.7858.4591A7.87318,7.87318,0,0,1,3.9943,21.5119Zm.353,8.5274a7.81715,7.81715,0,0,1-1.74589-4.8288c-.00061-.8543.90939-.8543.91029,0a5.94211,5.94211,0,0,0,1.4792,4.0489C5.3492,29.7149,4.7093,30.4989,4.3473,30.0393Z" fill="#fff"/>
        <path d="M46.4339,21.4401c-10.7583-5.4767-23.60649-3.6577-32.9436,3.7756C3.0039,33.5639-1.3308,46.9413,4.5582,59.3043,7.153,64.7521,11.0173,70.7365,16.4296,73.698c5.09481,2.7876,11.13781,3.049,16.83181,3.215a.5066.5066,0,0,1,.54629-.6324C49.0965,78.3427,60.7878,65.28,61.977,50.872,62.9677,38.869,57.3478,26.9962,46.4339,21.4401Zm-8.937,54.1717H31.5171v-.8543h5.9798C38.3512,74.7575,38.3512,75.6118,37.4969,75.6118ZM56.6896,57.2045c-3.362,9.8347-12.4391,17.1223-22.9831,15.6822a.49365.49365,0,0,1-.422.5765C21.59942,74.823,9.6183,67.6579,6.2132,56.1924a25.46932,25.46932,0,0,1,8.8805-27.1109,33.60375,33.60375,0,0,1,17.366-6.7531c.0053,0,.0103-.0015.0158-.0013a23.03814,23.03814,0,0,1,16.0292,4.5852C57.5643,33.8891,60.3035,46.6329,56.6896,57.2045Zm.5464-22.0689c.1709.5623-.7078.8005-.87759.2417a12.03465,12.03465,0,0,0-3.40511-5.4092c-.4315-.3979.2137-1.0394.6436-.6432A12.9528,12.9528,0,0,1,57.236,35.1356Z" fill="#fff"/>
        <path d="M17.9148,12.4796c.0061-.0083.007-.0173.01361-.0255C25.3123,3.5176,42.5207.4858,48.5371,12.3878a17.27873,17.27873,0,0,1,2.4344-.9694A18.45624,18.45624,0,0,0,34.5675.9098C27.5591.9267,18.9328,5.1012,15.3259,11.2055a.41684.41684,0,0,1-.26349.2006,14.77431,14.77431,0,0,1,2.21089.7744C17.4681,12.2671,17.6869,12.3697,17.9148,12.4796ZM40.1663,2.6485A18.92621,18.92621,0,0,1,45.67,5.7878c.4539.3706-.1937,1.0104-.64359.6432a17.58061,17.58061,0,0,0-5.102-2.9055C39.3779,3.3253,39.6155,2.4466,40.1663,2.6485Z" fill="#fff"/>
        <path d="M63.283,14.6453c-4.4417-3.8867-10.0419-3.7981-14.6972-1.3753a.51529.51529,0,0,1-.2281.1237,17.59171,17.59171,0,0,0-5.91829,5.2436.46356.46356,0,0,1-.17581.147,29.98371,29.98371,0,0,1,9.5534,5.0113,28.2018,28.2018,0,0,1,7.9642,10.0071c2.4363,2.0969,6.8694-7.4143,7.1464-8.8506A10.81073,10.81073,0,0,0,63.283,14.6453Zm1.131,9.2586c-.036.5825-.9463.5845-.91,0a8.51466,8.51466,0,0,0-1.49258-5.4393c-.33032-.4857.45868-.9406.78608-.459A9.3368,9.3368,0,0,1,64.414,23.9039Zm.5592-2.9055a9.46417,9.46417,0,0,0-2.4641-5.1343c-.3993-.428.2431-1.072.6436-.6432a10.28615,10.28615,0,0,1,2.6982,5.5356C65.93742,21.33,65.0605,21.5753,64.9732,20.9984Z" fill="#fff"/>
        <path d="M11.7686,71.3876C9.9877,73.1839,7.4965,76.24,7.5138,78.8691q-.54058,1.80375,2.3757,1.7047a11.9142,11.9142,0,0,0,.7776-1.0957c.3865-.5688.752-1.1523,1.1276-1.7282q1.353-2.07375,2.7062-4.1474c.0064-.01.0159-.014.0228-.0233a18.35266,18.35266,0,0,1-1.6105-1.179C12.52542,72.0788,12.1447,71.7384,11.7686,71.3876Zm.451,3.6857a5.33741,5.33741,0,0,0-2.4133,2.778c-.2052.5435-1.0845.3066-.8776-.2417a6.31,6.31,0,0,1,2.8318-3.3218A.45517.45517,0,0,1,12.2196,75.0733Z" fill="#fff"/>
        <path d="M55.5303,68.7064a.42089.42089,0,0,1,.0647.0826,14.55813,14.55813,0,0,0,2.6849,3.8462c.9767.9867,4.3841,4.099,5.2174.7955.4548-1.8028-1.7604-3.6062-2.85788-4.7888q-1.38107-1.48785-2.76161-2.9755A28.20465,28.20465,0,0,1,55.5303,68.7064Z" fill="#fff"/>
        <path d="M51.8579,11.1736c-.0052-.0131-.00349-.0257-.0098-.039A19.38644,19.38644,0,0,0,34.5675,0C27.2519-.0048,18.3116,4.3633,14.5401,10.7465a.41292.41292,0,0,0,.11.5589,12.43164,12.43164,0,0,0-8.9432,1.0712C-2.6262,17.0958-.7333,27.8577,4.39,34.1331a.43326.43326,0,0,0,.1381.1122A25.96613,25.96613,0,0,0,1.29242,52.8728a38.41943,38.41943,0,0,0,9.823,17.8808C9.01442,72.8993,4.5668,78.5458,7.243,81.3622a2.154,2.154,0,0,0,3.2899-.1452c1.9118-1.9533,3.2629-4.869,4.7502-7.1498,5.5316,3.2915,12.34431,3.5943,18.6854,3.7757a.43358.43358,0,0,0,.4142-.5943,24.75143,24.75143,0,0,0,20.5059-7.8458c1.2131,2.3273,5.7539,8.7776,8.7091,5.8767a3.43762,3.43762,0,0,0,.3118-4.1301c-1.2743-2.3475-3.70608-4.3332-5.521-6.2718a28.94235,28.94235,0,0,0,2.7181-5.6258,33.662,33.662,0,0,0-.8298-24.3696c2.2589.0542,5.0384-3.9803,5.8762-5.4175a12.11,12.11,0,0,0-.3443-13.3925A12.79809,12.79809,0,0,0,51.8579,11.1736Zm-36.532.0319C18.9328,5.1012,27.5591.9267,34.5675.9098a18.45624,18.45624,0,0,1,16.404,10.5086,17.27873,17.27873,0,0,0-2.4344.9694c-6.0164-11.902-23.2248-8.8702-30.60869.0663-.00661.0082-.00751.0172-.01361.0255-.2279-.1099-.4467-.2125-.6415-.2991a14.77431,14.77431,0,0,0-2.21089-.7744A.41684.41684,0,0,0,15.3259,11.2055Zm26.3048,7.3936a31.42939,31.42939,0,0,0-17.4141.0019c-.0285-2.331-3.1174-4.4563-5.4701-5.7024,7.09491-8.3251,23.2328-11.364,28.9854-.0886a18.24173,18.24173,0,0,0-6.0784,5.3683A.36151.36151,0,0,0,41.6307,18.5991ZM4.3968,14.4234a11.35449,11.35449,0,0,1,10.3619-2.1751c2.1198.5529,9.0639,3.6767,8.54871,6.5988a.41492.41492,0,0,0,.00079.0447,31.33937,31.33937,0,0,0-5.5546,2.3752A34.9536,34.9536,0,0,0,4.99842,33.4452C.6795,28.1232-1.4381,19.6465,4.3968,14.4234ZM14.5009,73.6025q-1.3533,2.0739-2.7062,4.1474c-.3756.5759-.7411,1.1594-1.1276,1.7282a11.9142,11.9142,0,0,1-.7776,1.0957q-2.9163.09915-2.3757-1.7047c-.0173-2.6291,2.4739-5.6852,4.2548-7.4815.3761.3508.75681.6912,1.1446,1.0126a18.35266,18.35266,0,0,0,1.6105,1.179C14.5168,73.5885,14.5073,73.5925,14.5009,73.6025Zm46.13851-4.9606c1.09748,1.1826,3.31268,2.986,2.85788,4.7888-.8333,3.3035-4.2407.1912-5.2174-.7955A14.55813,14.55813,0,0,1,55.595,68.789a.42089.42089,0,0,0-.0647-.0826,28.20465,28.20465,0,0,0,2.3475-3.04Q59.2584,67.15425,60.63942,68.6419ZM61.977,50.872C60.7878,65.28,49.0965,78.3427,33.8077,76.2806a.5066.5066,0,0,0-.54629.6324c-5.694-.166-11.737-.4274-16.83181-3.215C11.0173,70.7365,7.153,64.7521,4.5582,59.3043c-5.889-12.363-1.5543-25.7404,8.9321-34.0886,9.33711-7.4333,22.1853-9.2523,32.9436-3.7756C57.3478,26.9962,62.9677,38.869,61.977,50.872Zm4.9506-25.9199c-.277,1.4363-4.7101,10.9475-7.1464,8.8506A28.2018,28.2018,0,0,0,51.817,23.7956a29.98371,29.98371,0,0,0-9.5534-5.0113.46356.46356,0,0,0,.17581-.147,17.59171,17.59171,0,0,1,5.91829-5.2436.51529.51529,0,0,0,.2281-.1237c4.6553-2.4228,10.2555-2.5114,14.6972,1.3753A10.81073,10.81073,0,0,1,66.9276,24.9521Z"/>
        <path d="M48.5047,26.9123a23.03814,23.03814,0,0,0-16.0292-4.5852c-.0055-.0002-.0105.0013-.0158.0013a33.60375,33.60375,0,0,0-17.366,6.7531A25.46932,25.46932,0,0,0,6.2132,56.1924C9.6183,67.6579,21.59942,74.823,33.2845,73.4632a.49365.49365,0,0,0,.422-.5765c10.544,1.4401,19.6211-5.8475,22.9831-15.6822C60.3035,46.6329,57.5643,33.8891,48.5047,26.9123Zm8.86771,18.3493C58.5783,58.8361,48.6312,74.2224,33.6876,71.9657q.21872-2.04615.4367-4.0925c.0622-.5815-.8482-.5771-.90989,0l-.42111,3.9457c-.0282-.0054-.0555-.0081-.0838-.0137-.5305-.106-.7705.6329-.3452.8334C20.6029,73.55,8.9199,65.7596,6.583,53.8766a20.2723,20.2723,0,0,1-.345-6.2041c.0237.0036.04241.603.0685.603h5.5627c.85421,0,.85421-1.7085,0-1.7085H6.3346A27.36623,27.36623,0,0,1,10.0762,35.94c3.837-5.9629,10.4535-9.5032,17.08121-11.5362a26.14,26.14,0,0,1,5.214-1.0883v4.4578c0,.8542.85419.8542.85419,0V23.2486C46.0395,22.581,56.1915,31.9651,57.37242,45.2616Z"/>
        <path d="M50.6581,49.2451l6.0716-.7233c.5742-.0684.5811-.9788,0-.9095q-3.03585.36165-6.0716.7232C50.0837,48.404,50.0769,49.3143,50.6581,49.2451Z"/>
        <path d="M50.4205,38.7608a2.87239,2.87239,0,0,0,1.9463-2.734.45533.45533,0,0,0-.9101,0,1.94115,1.94115,0,0,1-1.2781,1.857C49.6297,38.0765,49.866,38.9556,50.4205,38.7608Z"/>
        <path d="M44.8587,31.3709q.84225-1.07085,1.6849-2.1417c.358-.4553-.2817-1.1033-.6436-.6432q-.84238,1.07085-1.6849,2.1417C43.857,31.1828,44.4966,31.831,44.8587,31.3709Z"/>
        <path d="M13.762,36.3238a1.38055,1.38055,0,0,1-1.4303-.4839c-.3468-.463-1.1374-.01-.7858.4593a2.32711,2.32711,0,0,0,2.458.9016A.45514.45514,0,0,0,13.762,36.3238Z"/>
        <path d="M20.79342,30.5986a5.17447,5.17447,0,0,0-1.65681-2.4629c-.4501-.3668-1.0977.2728-.6434.6434a4.32887,4.32887,0,0,1,1.4227,2.0612C20.0931,31.3959,20.9719,31.1586,20.79342,30.5986Z"/>
        <path d="M11.7482,56.0787q-1.147.7434-2.2941,1.4866c-.4898.3173-.0341,1.1052.4595.7855q1.147-.7434,2.2941-1.4868C12.6975,56.5467,12.2416,55.759,11.7482,56.0787Z"/>
        <path d="M21.8479,66.1246q-.56715,1.32705-1.1343,2.6544c-.2274.5322.5562.9962.7859.459q.567-1.32705,1.1345-2.6543C22.8613,66.0512,22.0775,65.5872,21.8479,66.1246Z"/>
        <path d="M44.64642,66.6929c.449.369,1.09659-.2711.64359-.6432q-1.144-.93975-2.2878-1.8795c-.4489-.3691-1.0965.2709-.6435.6432Q43.5026,65.75315,44.64642,66.6929Z"/>
        <path d="M50.9715,57.3416c-.4536-.3609-1.1018.2786-.6436.6432q1.3668,1.08735,2.7336,2.1748c.4535.361,1.1016-.2784.6435-.6432Q52.33835,58.42905,50.9715,57.3416Z"/>
        <path d="M32.5467,30.2935q-.4839.84615-.9681,1.6929a3.64879,3.64879,0,0,0-.7055,1.4396.58563.58563,0,0,0,1.1152.3121.50876.50876,0,0,0,.0296-.3784c.137.024.2697.057.4042.0864a94.77811,94.77811,0,0,0,.3924,11.7786q.02295,1.01235.0458,2.0249a2.16371,2.16371,0,0,0-1.6496,2.3479,1.6167,1.6167,0,0,0,.1839.8286c.0204.038.0495.068.0723.1039a43.40953,43.40953,0,0,0-4.0146,5.6171.45236.45236,0,0,0-.8806-.1912,17.554,17.554,0,0,0-.588,3.8658.46111.46111,0,0,0,.777.3219q1.3296-1.06935,2.6595-2.1386c.44721-.3598-.1653-.9757-.6157-.6576a1.16536,1.16536,0,0,0-.5636-.7458,42.22657,42.22657,0,0,1,3.8977-5.4613,2.07661,2.07661,0,0,0,1.9659-.0317,2.22681,2.22681,0,0,0-.1406-3.6628q-.1323-1.0887-.2383-2.1769-.13078-5.7687-.2614-11.5373a9.02569,9.02569,0,0,1,1.47021.6588c.43689.2449.94909-.3608.55139-.7143a7.03874,7.03874,0,0,1-2.1073-3.274A.46067.46067,0,0,0,32.5467,30.2935Z"/>
        <path d="M4.9909,29.2594a5.94211,5.94211,0,0,1-1.4792-4.0489c-.0009-.8543-.9109-.8543-.91029,0A7.81715,7.81715,0,0,0,4.3473,30.0393C4.7093,30.4989,5.3492,29.7149,4.9909,29.2594Z"/>
        <path d="M5.5516,25.9527a6.81885,6.81885,0,0,1-.6796-4.1989c.08941-.5727-.78759-.8194-.8777-.2419a7.87318,7.87318,0,0,0,.7715,4.8999C5.0316,26.9336,5.8172,26.4739,5.5516,25.9527Z"/>
        <path d="M39.92442,3.5255a17.58061,17.58061,0,0,1,5.102,2.9055c.44989.3672,1.09749-.2726.64359-.6432a18.92621,18.92621,0,0,0-5.5037-3.1393C39.6155,2.4466,39.3779,3.3253,39.92442,3.5255Z"/>
        <path d="M62.5091,15.8641a9.46417,9.46417,0,0,1,2.4641,5.1343c.0873.5769.96422.3316.8777-.2419a10.28615,10.28615,0,0,0-2.6982-5.5356C62.7522,14.7921,62.1098,15.4361,62.5091,15.8641Z"/>
        <path d="M62.01142,18.4646A8.51466,8.51466,0,0,1,63.504,23.9039c-.0363.5845.874.5825.91,0a9.3368,9.3368,0,0,0-1.6165-5.8983C62.4701,17.524,61.6811,17.9789,62.01142,18.4646Z"/>
        <path d="M37.4969,74.7575H31.5171v.8543h5.9798C38.3512,75.6118,38.3512,74.7575,37.4969,74.7575Z"/>
        <path d="M52.9533,29.9681a12.03465,12.03465,0,0,1,3.40511,5.4092c.16979.5588,1.04849.3206.87759-.2417a12.9528,12.9528,0,0,0-3.6391-5.8107C53.167,28.9287,52.5218,29.5702,52.9533,29.9681Z"/>
        <path d="M11.7605,74.2878a6.31,6.31,0,0,0-2.8318,3.3218c-.2069.5483.6724.7852.8776.2417a5.33741,5.33741,0,0,1,2.4133-2.778A.45517.45517,0,0,0,11.7605,74.2878Z"/>
        <path d="M35.2839,51.9503a.45523.45523,0,0,0,.45951.7854,3.9668,3.9668,0,0,0,1.94419-3.8498c-.0659-.575-.9767-.5816-.91,0A3.08549,3.08549,0,0,1,35.2839,51.9503Z"/>
        <path d="M39.4073,52.465a9.19269,9.19269,0,0,0,.302-4.0439c-.0813-.5773-.9583-.3317-.8776.2417a8.13511,8.13511,0,0,1-.302,3.5607C38.35742,52.7841,39.2355,53.024,39.4073,52.465Z"/>
        <path d="M27.9958,48.1587A2.99976,2.99976,0,0,1,29.2691,45.49c.4775-.3321.0231-1.1208-.4595-.7857a3.92544,3.92544,0,0,0-1.7237,3.4544C27.1171,48.7412,28.0273,48.7447,27.9958,48.1587Z"/>
        <path d="M26.1405,42.0193a5.864,5.864,0,0,0-2.854,4.1201c-.094.5725.7828.819.8775.2419a4.99974,4.99974,0,0,1,2.4358-3.5765A.45523.45523,0,0,0,26.1405,42.0193Z"/>
      </g>
    </g>
  </g>
</svg>
