<svg xmlns="http://www.w3.org/2000/svg" viewBox="0 0 177.7303 174.24721">
  <title>Recurso 19</title>
  <g id="Capa_2" data-name="Capa 2">
    <g id="Editar">
      <path d="M18.3926,153.85551a13.49086,13.49086,0,0,0,.6171-3.1098c-.8439-15.8473-1.8157-31.6894-2.6057-47.5388-.3448-6.9199-.3473-13.8534-.5005-20.7808-.4261-19.262-.78659-38.5256-1.37659-57.7837-.056-1.8249-1.31711-3.7371-2.42761-5.3896A35.08758,35.08758,0,0,0,7.28891,13.579c-1.23991-1.1907-2.98811-1.9495-4.44811-2.9709C1.8396,9.90761.9432,9.08761,0,8.32091c.8407-.8093,1.5277-1.8903,2.5622-2.3569,1.2019-.5421,2.7636-.4046,4.0704-.8138,2.2954-.7186,4.8661-1.2373,6.6922-2.5422,3.4944-2.497,7.8104-3.562,11-1.5677,8.5128,5.323,18.0729,4.2034,27.3364,4.6264,14.5074.6625,29.0475.7362,43.5701,1.1592,12.093.3521,24.1975.6369,36.2614,1.3988,3.99922.2526,6.3815-1.2902,8.6546-3.5311,3.919-3.8636,8.4565-4.7458,13.51662-2.3194,3.82778,1.8355,7.36558,4.065,12.22548,3.2117,1.9579-.3436,2.8988,1.1138,1.8126,3.0618-2.6964,4.8358-5.2912,9.5656-11.3293,12.0817-1.6184.6744-3.1655,3.3864-3.0947,5.1089,1.1372,27.6658,2.5558,55.3222,3.8785,82.982.4857,10.1576.8513,20.3198,1.3503,30.4769.1619,3.2953.42112,6.5625,4.6845,8.1435a6.11971,6.11971,0,0,1,2.6534,2.7374c1.6384,2.8118,3.4085,4.9691,7.6188,4.883,1.396-.0285,2.8431,1.9376,4.2668,2.9919a23.33921,23.33921,0,0,1-3.4683,2.8534c-3.1628,1.7507-6.6815,3.0355-9.6682,4.9833-5.4431,3.5496-14.7094,3.576-19.5665-.4992-2.4753-2.077-5.0303-2.5031-8.4193-2.3653-9.00508.366-18.0402.1445-27.0633.1567-9.9953.0136-19.994.178-29.9849-.0007-10.4335-.1868-20.8748-.5081-31.2827-1.155-5.6335-.3501-9.5666.9471-12.7525,5.4143-4.9838,6.9882-14.2395,8.6035-22.8055,4.8089-1.8003-.7976-4.0073-.8311-5.9051-1.4944a30.337,30.337,0,0,1-4.2623-2.2474c.8778-.9508,1.8191-1.8613,2.6168-2.8629.9073-1.1393,2.2421-2.2941,2.42941-3.5561C8.672,154.85221,10.0335,153.65771,18.3926,153.85551Zm150.3019,5.3842c-2.88858-3.2066-5.1031-5.8008-7.4969-8.2556a9.27574,9.27574,0,0,0-3.5293-2.4329c-3.0101-.9763-4.0098-2.4665-2.79838-5.1999a6.65151,6.65151,0,0,0,.31818-2.985c-.64-12.0587-1.3574-24.1142-1.9847-36.1735-1.4064-27.0393-2.6902-54.084-4.2619-81.1155-.196-3.3696,1.2026-4.7165,4.3515-5.7986a20.18584,20.18584,0,0,0,6.8108-3.5051c2.881-2.5804,2.0365-4.472-1.8166-5.5895a25.40773,25.40773,0,0,1-4.2544-1.6329c-6.62-3.3068-9.3568-2.4839-13.154,3.5638a5.48606,5.48606,0,0,1-4.0856,2.0283c-13.6031-.851-27.1694-2.2671-40.7824-2.8751-16.4857-.7363-33.005-.9307-49.5132-1.1708-4.6183-.0672-9.2483.7173-13.8738.7256a8.24917,8.24917,0,0,1-4.973-1.795c-3.7633-3.3276-7.9375-4.0082-12.11289-1.471C13.7065,6.67,11.9147,7.835,10.0974,8.98111c1.4898,5.072,2.6072,6.0707,7.4431,7.5998a3.35972,3.35972,0,0,1,1.60341,2.5687c.08739.8917-1.02791,1.8543-1.01381,2.7784.1107,7.2921.3851,14.5821.57081,21.8735q.33553,13.1712.60669,26.3438c.3585,18.2539.5614,36.5113,1.0899,54.7612.2223,7.6762,1.0998,15.3377,1.69641,23.0049.18269,2.3475.51059,4.6889.60279,7.0383a39.74184,39.74184,0,0,1-.3065,4.5022c-1.7651-.3393-3.5391-.646-5.2916-1.0307-.9691-.2127-2.1183-1.0163-2.8126-.7566-2.3593.8828-3.4769,8.7265-1.3797,9.8917,8.8685,4.9279,17.8284,3.3137,22.1298-5.8164,1.2399-2.6318,2.9749-3.6474,5.6049-3.555,7.5341.2649,15.0544,1.085,22.585,1.1384q38.68215.2739,77.3674.1027c2.9126-.0085,5.2351.1873,6.843,2.627,2.2403,3.3996,6.0042,4.0322,9.6009,2.802C161.1286,163.45561,164.8307,161.14851,168.6945,159.23971Z"/>
      <path d="M168.6945,159.23971c-3.8638,1.9088-7.5659,4.2159-11.6572,5.6153-3.5967,1.2302-7.3606.5976-9.6009-2.802-1.6079-2.4397-3.9304-2.6355-6.843-2.627q-38.68335.1119-77.3674-.1027c-7.5306-.0534-15.0509-.8735-22.585-1.1384-2.63-.0924-4.365.9232-5.6049,3.555-4.3014,9.1301-13.2613,10.7443-22.1298,5.8164-2.0972-1.1652-.9796-9.0089,1.3797-9.8917.6943-.2597,1.8435.5439,2.8126.7566,1.7525.3847,3.5265.6914,5.2916,1.0307a39.74184,39.74184,0,0,0,.3065-4.5022c-.0922-2.3494-.4201-4.6908-.60279-7.0383-.59661-7.6672-1.47411-15.3287-1.69641-23.0049-.5285-18.2499-.7314-36.5073-1.0899-54.7612q-.25875-13.1727-.60669-26.3438c-.18571-7.2914-.46011-14.5814-.57081-21.8735-.0141-.9241,1.1012-1.8867,1.01381-2.7784a3.35972,3.35972,0,0,0-1.60341-2.5687c-4.8359-1.5291-5.9533-2.5278-7.4431-7.5998C11.9147,7.835,13.7065,6.67,15.53791,5.557c4.17539-2.5372,8.34959-1.8566,12.11289,1.471a8.24917,8.24917,0,0,0,4.973,1.795c4.6255-.0083,9.2555-.7928,13.8738-.7256,16.5082.2401,33.0275.4345,49.5132,1.1708,13.613.608,27.1793,2.0241,40.7824,2.8751a5.48606,5.48606,0,0,0,4.0856-2.0283c3.7972-6.0477,6.534-6.8706,13.154-3.5638a25.40773,25.40773,0,0,0,4.2544,1.6329c3.8531,1.1175,4.6976,3.0091,1.8166,5.5895a20.18584,20.18584,0,0,1-6.8108,3.5051c-3.1489,1.0821-4.5475,2.429-4.3515,5.7986,1.5717,27.0315,2.8555,54.0762,4.2619,81.1155.6273,12.0593,1.3447,24.1148,1.9847,36.1735a6.65151,6.65151,0,0,1-.31818,2.985c-1.21142,2.7334-.21172,4.2236,2.79838,5.1999a9.27574,9.27574,0,0,1,3.5293,2.4329C163.5914,153.43891,165.80591,156.03311,168.6945,159.23971ZM29.1682,125.20691l-.2612.0099c0,8.4355-.1585,16.8744.0614,25.3053.1252,4.8013,2.7498,6.1362,7.8638,4.6197a16.31777,16.31777,0,0,1,4.8401-1.0293c10.6732.274,21.3387.9399,32.01161,1.0334,17.45878.1531,34.92158.0114,52.382-.0985,6.86928-.0433,13.75968-.7055,20.59548-.3648,3.6569.1822,4.9797-.4761,4.8551-3.6553-.3788-9.6683-.59758-19.3424-1.0629-29.0071-.3445-7.1558-.9163-14.3045-1.4993-21.4491-.501-6.1394-1.5619-12.2629-1.6709-18.4034-.2591-14.5922.1247-29.1946-.2156-43.7842-.1486-6.3743-1.3023-12.7445-2.3323-19.0734a4.40754,4.40754,0,0,0-3.1405-2.7318c-7.4269-.4747-14.8837-.8219-22.32808-.7857-19.74692.0961-39.49212.4403-59.23881.6199-8.8519.0805-17.7078-.0867-26.5566.0806a8.63025,8.63025,0,0,0-4.7092,1.8075c-3.606,2.8151-2.4253,6.7649-2.3388,10.306.40241,16.4765,1.0118,32.9489,1.4893,49.4241C28.3684,93.75521,28.7526,109.48141,29.1682,125.20691Zm125.567-113.5116c-1.7962-1.2158-2.8075-2.4291-3.8104-2.4236-.9203.005-1.8315,1.3244-2.7467,2.0648.8467.745,1.6221,1.9911,2.55982,2.0976C151.7244,13.54611,152.8662,12.56831,154.7352,11.69531Zm6.9829,145.8317c-1.4934-.8968-2.5955-2.0279-3.264-1.8511-1.0296.2721-2.4309,1.4401-2.4324,2.23a3.232,3.232,0,0,0,2.3665,2.2054C159.35291,160.06681,160.2441,158.74981,161.7181,157.527ZM19.4207,12.98561c1.2389-1.5687,2.39021-2.4234,2.49821-3.3729.07339-.6449-1.31611-1.4226-2.05141-2.1409-.9057.7843-2.2125,1.4487-2.5682,2.3976C17.0822,10.44841,18.3286,11.46511,19.4207,12.98561Zm2.3428,147.2048q-1.01055.532-2.0211,1.064c-.5013.7363-1.6092,1.739-1.3804,2.1544a4.58127,4.58127,0,0,0,2.633,2.1528c.5635.1278,2.1952-1.2391,2.2055-1.9446C23.2171,162.48061,22.2912,161.33321,21.7635,160.19041Z" fill="#fff"/>
      <path d="M29.1682,125.20691c-.4156-15.7255-.7998-31.4517-1.2554-47.1762-.4775-16.4752-1.08689-32.9476-1.4893-49.4241-.0865-3.5411-1.2672-7.4909,2.3388-10.306a8.63025,8.63025,0,0,1,4.7092-1.8075c8.8488-.1673,17.7047-.0001,26.5566-.0806,19.7467-.1796,39.4919-.5238,59.23881-.6199,7.44438-.0362,14.90118.311,22.32808.7857a4.40754,4.40754,0,0,1,3.1405,2.7318c1.03,6.3289,2.1837,12.6991,2.3323,19.0734.3403,14.5896-.0435,29.192.2156,43.7842.109,6.1405,1.1699,12.264,1.6709,18.4034.583,7.1446,1.1548,14.2933,1.4993,21.4491.46532,9.6647.6841,19.3388,1.0629,29.0071.1246,3.1792-1.1982,3.8375-4.8551,3.6553-6.8358-.3407-13.7262.3215-20.59548.3648-17.46042.1099-34.92322.2516-52.382.0985-10.67291-.0935-21.33841-.7594-32.01161-1.0334a16.31777,16.31777,0,0,0-4.8401,1.0293c-5.114,1.5165-7.7386.1816-7.8638-4.6197-.2199-8.4309-.0614-16.8698-.0614-25.3053Zm110.9083,16.9845c0-5.6241.3503-12.0197-.06958-18.3747-1.02012-15.4402-2.538-30.8541-3.57982-46.2934-.6274-9.2986-.6834-18.627-1.1017-27.9381-.254-5.6545-.5033-11.3201-1.13-16.9474-.6738-6.0499-1.0301-6.3036-7.78548-6.1952-9.92382.1591-19.841.6505-29.76482.812-17.918.2916-35.83918.4222-53.7567.7321a2.98092,2.98092,0,0,0-2.0477,1.8114,13.43381,13.43381,0,0,0-.2252,4.1289c.4985,13.3068.9683,26.6149,1.5699,39.9181.4372,9.6701,1.074,19.3328,1.5846,29.0005.066,1.2497-.1233,2.5086-.1392,3.7637-.1418,11.1747-.3336,22.3499-.2843,33.524.004.8833,1.66441,2.474,2.6287,2.5206,4.9115.2375,9.8526.1966,14.7734.0255,8.8564-.3078,17.7016-.9261,26.5596-1.1199,4.7774-.1046,9.5701.5641,14.3585.6002C114.156,142.25381,126.6468,142.19141,140.0765,142.19141Zm-107.70358,8.1633q1.0485.2133,2.097.4265c1.166-1.6029,2.79149-3.0801,3.39369-4.8371a28.70219,28.70219,0,0,0,1.8072-8.8795c.1159-14.0511.1723-28.109-.19189-42.1553-.372-14.3479-1.23861-28.686-1.92731-43.0269-.3609-7.5146-.8571-15.0242-1.1873-22.5398-.1546-3.5193-2.4373-5.2949-6.3047-6.7267C30.8358,65.478,31.6043,107.91631,32.37291,150.35471ZM141.6011,20.28561c-4.5373,3.1785-4.1555,6.8462-3.9229,10.4484.3474,5.3808.8294,10.7556,1.10472,16.139.25988,5.0814.24778,10.1737.50138,15.2554.2438,4.8847.8684,9.7586.97462,14.6433.13088,6.0212-.48922,12.0687-.10182,18.0697,1.04482,16.1832,2.5006,32.345,3.6615,48.5229.1664,2.3183.9231,3.7142,3.9241,4.1862,0-7.9978.3985-15.7371-.0947-23.4307-.7148-11.1532-2.6388-22.2577-3.0328-33.4115-.6752-19.1151-.4508-38.2542-.876-57.3785C143.6466,29.16291,142.4094,25.01631,141.6011,20.28561ZM78.3476,144.11371c-.8053,7.2534,1.4851,9.4525,8.56232,8.0815-.16392-2.41.64578-5.6552-.80982-7.2225C84.8856,143.665,81.0165,144.32381,78.3476,144.11371Zm35.4991,8.2973c5.4911.5103,7.7793-1.291,8.071-5.4526.2297-3.276-2.6435-2.9705-4.6172-2.8953C108.3368,144.40491,116.339,149.76521,113.8467,152.411Zm-21.0606.683c1.7115-.3774,4.62-.3082,5.187-1.3033.9526-1.6717,1.3409-5.1934.3131-5.8397-2.1309-1.3402-5.3467-1.3042-9.2018-2.0417C90.5858,147.63461,91.5503,150.02771,92.7861,153.094Zm14.9201.404,1.3939-1.168v-7.4239q-3.07215.03465-6.144.0692c.0869,2.0012-.3521,4.1938.4432,5.9372C103.94091,152.09961,106.2097,152.65831,107.7062,153.498Zm-31.7572-5.5494c-1.8348-1.6016-2.7803-3.1324-3.9687-3.3014-1.8607-.2648-4.5936-.5133-4.62,2.4047-.0228,2.5226.6873,5.2349,3.8779,5.3572C72.53391,152.45881,73.9533,149.93171,75.949,147.94861Zm49.163-2.7388c.76792,2.7964-1.6882,6.3713,3.1065,6.9187a3.82182,3.82182,0,0,0,4.2549-4.4976C131.91791,144.18041,128.4358,145.18461,125.112,145.20981ZM100.8576,19.07791c-2.9442-.69-5.7718-2.2888-7.3363.4981-.5742,1.0229,1.0287,4.3371,2.1803,4.5831C100.1461,25.10851,99.0057,21.09651,100.8576,19.07791ZM46.9883,145.61871q-.45208.6456-.9042,1.2911c1.1606,1.4506,2.0669,3.2094,3.5947,4.2149.70811.4659,3.24611-.1717,3.8315-.9677.6575-.8941.4489-3.4974-.0833-3.6741A31.32721,31.32721,0,0,0,46.9883,145.61871ZM64.8224,19.02261c1.59751,2.2455-.0741,6.0277,4.2928,5.8006,1.077-.056,3.118-3.1887,2.7291-4.3969C70.824,17.25651,67.7393,18.91571,64.8224,19.02261Zm11.875,6.339c1.6424-.6858,3.6099-.9492,4.1173-1.8608.63222-1.136.6761-3.3414-.1549-4.1043-.9371-.8604-3.1295-.6302-5.1193-.9253C75.9614,20.978,76.2627,22.77251,76.6974,25.36161ZM57.3555,146.30021a29.06591,29.06591,0,0,0,2.6017,4.5458,4.452,4.452,0,0,0,2.5801.6007,18.70368,18.70368,0,0,0,1.4421-4.7604,11.35965,11.35965,0,0,0-3.4147-.8307A15.1349,15.1349,0,0,0,57.3555,146.30021ZM52.117,25.47181q.66737-.4767,1.33491-.9533c-.33731-1.598-.25771-3.448-1.19421-4.6838-.444-.5858-2.8991-.2004-4.2907.1844-.4014.1109-.7628,2.1639-.2924,2.6076A26.29525,26.29525,0,0,0,52.117,25.47181Zm-7.8697-.3766c-.4365-2.5042-.4251-4.8862-.9419-4.9814a39.773,39.773,0,0,0-7.0906-.1816q-.19933.8259-.3985,1.6517C38.224,22.58661,40.6316,23.58941,44.2473,25.09521Zm64.5628-.4725c.2372-2.3791.4029-4.0396.6485-6.5033-2.2613.4863-4.31868.4033-5.117,1.2582-.701.7506-.4625,2.8214.24232,3.8061C105.1655,23.99631,107.0362,24.07291,108.8101,24.62271Zm-45.51418-3.2129c-1.60871-1.0778-2.61481-2.1494-3.84321-2.4218-.7074-.1568-2.61479,1.3681-2.5529,1.475a50.34415,50.34415,0,0,0,3.1445,4.4939C60.9118,24.01061,61.7793,23.06431,63.29591,21.40981ZM119.5943,19.542q-.3465-.50355-.6932-1.0073a19.4448,19.4448,0,0,0-4.752.6047c-.4691.1745-.6156,2.1529-.13818,2.9268a4.82739,4.82739,0,0,0,2.81668,1.4113A27.41163,27.41163,0,0,0,119.5943,19.542Zm-33.0535,5.1888,1.5958.1764q.6894-2.86665,1.3787-5.7333c-1.5805-.2266-3.1611-.4532-5.598-.8025C85.0623,21.14681,85.8015,22.93881,86.5408,24.73081Zm48.9567,121.0989c.51942,2.4006.5315,4.9553,1.2011,5.1011,2.3576.5133,4.941.1995,7.8599.1995C141.5591,149.37571,139.2145,148.00411,135.4975,145.82971Z"/>
      <path d="M154.7352,11.69531c-1.869.873-3.0108,1.8508-3.99728,1.7388-.93772-.1065-1.71312-1.3526-2.55982-2.0976.9152-.7404,1.8264-2.0598,2.7467-2.0648C151.9277,9.26621,152.939,10.47951,154.7352,11.69531Z"/>
      <path d="M19.4207,12.98561c-1.0921-1.5205-2.3385-2.5372-2.1214-3.1162.3557-.9489,1.6625-1.6133,2.5682-2.3976.7353.7183,2.1248,1.496,2.05141,2.1409C21.81091,10.56221,20.6596,11.41691,19.4207,12.98561Z"/>
      <path d="M21.7635,160.19041c.5277,1.1428,1.4536,2.2902,1.437,3.4266-.0103.7055-1.642,2.0724-2.2055,1.9446a4.58127,4.58127,0,0,1-2.633-2.1528c-.2288-.4154.8791-1.4181,1.3804-2.1544Q20.75295,160.72251,21.7635,160.19041Z"/>
      <path d="M32.37291,150.35471c-.76861-42.4384-1.53711-84.8767-2.31331-127.7388,3.8674,1.4318,6.1501,3.2074,6.3047,6.7267.3302,7.5156.8264,15.0252,1.1873,22.5398.6887,14.3409,1.55531,28.679,1.92731,43.0269.36419,14.0463.30779,28.1042.19189,42.1553a28.70219,28.70219,0,0,1-1.8072,8.8795c-.6022,1.757-2.22769,3.2342-3.39369,4.8371Q33.42141,150.56791,32.37291,150.35471Z" fill="#fff"/>
      <path d="M141.6011,20.28561c.8083,4.7307,2.0455,8.8773,2.1381,13.0442.4252,19.1243.2008,38.2634.876,57.3785.394,11.1538,2.318,22.2583,3.0328,33.4115.4932,7.6936.0947,15.4329.0947,23.4307-3.001-.472-3.7577-1.8679-3.9241-4.1862-1.1609-16.1779-2.61668-32.3397-3.6615-48.5229-.3874-6.001.2327-12.0485.10182-18.0697-.10622-4.8847-.73082-9.7586-.97462-14.6433-.2536-5.0817-.2415-10.174-.50138-15.2554-.27532-5.3834-.75732-10.7582-1.10472-16.139C137.4456,27.13181,137.0638,23.46411,141.6011,20.28561Z" fill="#fff"/>
      <path d="M78.3476,144.11371c2.6689.2101,6.538-.4487,7.7525.859,1.4556,1.5673.6459,4.8125.80982,7.2225C79.8327,153.56621,77.5423,151.36711,78.3476,144.11371Z" fill="#fff"/>
      <path d="M113.8467,152.411c2.4923-2.6458-5.5099-8.0061,3.4538-8.3479,1.9737-.0752,4.8469-.3807,4.6172,2.8953C121.626,151.12,119.3378,152.92131,113.8467,152.411Z" fill="#fff"/>
      <path d="M92.7861,153.094c-1.2358-3.0663-2.2003-5.4594-3.7017-9.1847,3.8551.7375,7.0709.7015,9.2018,2.0417,1.0278.6463.6395,4.168-.3131,5.8397C97.4061,152.78581,94.4976,152.71661,92.7861,153.094Z" fill="#fff"/>
      <path d="M107.7062,153.498c-1.4965-.8397-3.76528-1.3984-4.3069-2.5855-.7953-1.7434-.3563-3.936-.4432-5.9372q3.072-.03465,6.144-.0692V152.33Z" fill="#fff"/>
      <path d="M75.949,147.94861c-1.9957,1.9831-3.41508,4.5102-4.7108,4.4605-3.1906-.1223-3.9007-2.8346-3.8779-5.3572.0264-2.918,2.7593-2.6695,4.62-2.4047C73.1687,144.81621,74.1142,146.347,75.949,147.94861Z" fill="#fff"/>
      <path d="M125.112,145.20981c3.3238-.0252,6.80592-1.0294,7.3614,2.4211a3.82182,3.82182,0,0,1-4.2549,4.4976C123.4238,151.58111,125.87991,148.00621,125.112,145.20981Z" fill="#fff"/>
      <path d="M100.8576,19.07791c-1.8519,2.0186-.7115,6.0306-5.156,5.0812-1.1516-.246-2.7545-3.5602-2.1803-4.5831C95.0858,16.78911,97.9134,18.38791,100.8576,19.07791Z" fill="#fff"/>
      <path d="M46.9883,145.61871a31.32721,31.32721,0,0,1,6.4387.8642c.5322.1767.7408,2.78.0833,3.6741-.58539.796-3.12339,1.4336-3.8315.9677-1.5278-1.0055-2.4341-2.7643-3.5947-4.2149Q46.5362,146.26436,46.9883,145.61871Z" fill="#fff"/>
      <path d="M64.8224,19.02261c2.9169-.1069,6.0016-1.7661,7.0219,1.4037.3889,1.2082-1.6521,4.3409-2.7291,4.3969C64.7483,25.05031,66.41991,21.26811,64.8224,19.02261Z" fill="#fff"/>
      <path d="M76.6974,25.36161c-.4347-2.5891-.736-4.3836-1.1569-6.8904,1.9898.2951,4.1822.0649,5.1193.9253.831.7629.78712,2.9683.1549,4.1043C80.3073,24.41241,78.3398,24.67581,76.6974,25.36161Z" fill="#fff"/>
      <path d="M57.3555,146.30021a15.1349,15.1349,0,0,1,3.2092-.4446,11.35965,11.35965,0,0,1,3.4147.8307,18.70368,18.70368,0,0,1-1.4421,4.7604,4.452,4.452,0,0,1-2.5801-.6007A29.06591,29.06591,0,0,1,57.3555,146.30021Z" fill="#fff"/>
      <path d="M52.117,25.47181a26.29525,26.29525,0,0,1-4.4424-2.8451c-.4704-.4437-.109-2.4967.2924-2.6076,1.3916-.3848,3.8467-.7702,4.2907-.1844.9365,1.2358.8569,3.0858,1.19421,4.6838Q52.78441,24.99521,52.117,25.47181Z" fill="#fff"/>
      <path d="M44.2473,25.09521c-3.6157-1.5058-6.0233-2.5086-8.431-3.5113q.1992-.8259.3985-1.6517a39.773,39.773,0,0,1,7.0906.1816C43.8222,20.209,43.8108,22.591,44.2473,25.09521Z" fill="#fff"/>
      <path d="M108.8101,24.62271c-1.7739-.5498-3.6446-.6264-4.22618-1.439-.70482-.9847-.94332-3.0555-.24232-3.8061.79832-.8549,2.8557-.7719,5.117-1.2582C109.213,20.58311,109.0473,22.24361,108.8101,24.62271Z" fill="#fff"/>
      <path d="M63.29591,21.40981c-1.51661,1.6545-2.38411,2.6008-3.25161,3.5471a50.34415,50.34415,0,0,1-3.1445-4.4939c-.06189-.1069,1.8455-1.6318,2.5529-1.475C60.6811,19.26041,61.6872,20.332,63.29591,21.40981Z" fill="#fff"/>
      <path d="M119.5943,19.542a27.41163,27.41163,0,0,1-2.7667,3.9355,4.82739,4.82739,0,0,1-2.81668-1.4113c-.47742-.7739-.33092-2.7523.13818-2.9268a19.4448,19.4448,0,0,1,4.752-.6047Q119.24775,19.03841,119.5943,19.542Z" fill="#fff"/>
      <path d="M86.5408,24.73081c-.7393-1.792-1.4785-3.584-2.6235-6.3594,2.4369.3493,4.0175.5759,5.598.8025q-.6894,2.86665-1.3787,5.7333Z" fill="#fff"/>
      <path d="M135.4975,145.82971c3.717,2.1744,6.0616,3.546,9.061,5.3006-2.9189,0-5.5023.3138-7.8599-.1995C136.029,150.785,136.01691,148.23031,135.4975,145.82971Z" fill="#fff"/>
    </g>
  </g>
</svg>
