<svg xmlns="http://www.w3.org/2000/svg" viewBox="0 0 289 175.627"><title>Recurso8_2</title><g id="Objects"><path d="M252.963,160.125a7.944,7.944,0,0,0-2.671-5.263l-.532-.447a10.345,10.345,0,0,0-13.306-.13c-.282.041-.567.064-.849.1-8.244-2.788-18.019-2.135-26.646-2a8.958,8.958,0,0,0-11.708-2.46,13.286,13.286,0,0,0-2.063,1.657c-3.462.651-6.369,3.34-6.345,8.126.017,3.333-.374,6.641-.357,9.974.042,8.3,8.955,9.814,13.59,5.754a9.244,9.244,0,0,0,4.892.094,25.555,25.555,0,0,1,7.99-.472c1.051.066,2.1.113,3.149.13a9.649,9.649,0,0,0,2.74-.332,32.375,32.375,0,0,0,14.952-1.371c.126,0,.253-.013.379-.018a8.352,8.352,0,0,0,3.068,2.482c6.367,8.34,19.377,3.537,17.164-7.348A23.239,23.239,0,0,0,252.963,160.125Z" fill="#4a9200"/><path d="M262.352,126.973l-.406-.383a8.331,8.331,0,0,0-4.468-2.175,28.925,28.925,0,0,0-1.992-4.567,6.908,6.908,0,0,0-6.178-3.272c-.2-.316-.408-.632-.611-.957a3.714,3.714,0,0,0-5.293-1.436,9.059,9.059,0,0,0-3.849.256,7.293,7.293,0,0,0-1.962.875c-3.927-2.643-9.92-2.18-11.667,2.836-.187.035-.372.081-.558.115a11.1,11.1,0,0,1-2.049.182c-1.594-.117-3.192-.3-4.793-.509l-.64-.106c-4.019-.669-8.857-2.262-12.969-2.357a4.56,4.56,0,0,0-4.585,1.885c-1.493-3.2-5.785-5.312-8.906-2.967a29.3,29.3,0,0,0-5.969,6.31,9.552,9.552,0,0,0-2.349,3.536l-.006.014c-1.817,2.971-3.408,6.081-4.891,8.915a7.311,7.311,0,0,0-.791,4.418c-.011.062-.032.119-.044.181-1.408,7.493,6.713,12.365,12.556,7.31,3.106-2.687,4.569-6.647,5.673-10.495.14-.487.249-.985.35-1.485a6.325,6.325,0,0,0,2.236.75c9.384,1.327,19.249,2.344,28.73,1.823a72.127,72.127,0,0,0,11.853-1.516,12.371,12.371,0,0,0,4.776-2.443,19.993,19.993,0,0,0,2.86,7.224,7.828,7.828,0,0,0,6,3.21,7.283,7.283,0,0,0,9.676-4.622C264.932,134.912,265.275,129.726,262.352,126.973Z" fill="#4a9200"/><path d="M280.045,64.637c-3.244-1.682-6.386-.9-8.895.112a32.9,32.9,0,0,0-8.264,5.024,28.931,28.931,0,0,0-10.3-13.248,23.914,23.914,0,0,0-6.807-5.471A31.246,31.246,0,0,0,226.253,48.3a24.928,24.928,0,0,0-6.582-6.426c-9.982-6.737-22.3-4.5-32.093,1.368a16.3,16.3,0,0,0,.646-3.224,3.587,3.587,0,0,0-2.648-3.478c-8.81-2.235-13.729,8.866-15.437,15.637a11.911,11.911,0,0,0-5.832-1.165v.14c-3.056-.129-6.083,1.376-6.575,4.866-.452,3.206-1.354,6.229.565,9.247.477.75.963,1.512,1.465,2.268-.324,8.66,2.459,17.692,6.643,25.026a29.083,29.083,0,0,0,19.444,14.2,26.558,26.558,0,0,0,15.284,5.3,20.118,20.118,0,0,0,8.1-1.566,4.746,4.746,0,0,0-.028,1.357,8.856,8.856,0,0,0-.237,1.475c-.005.067-.009.114-.014.163-.064.38-.135.759-.209,1.136-.29,1.473-.557,2.9-.748,4.4-.11.867-.567,4.43-.065.714-.413,3.059-.173,5.79,2.143,8.1,2.537,2.538,6.993,3.353,10.1,1.3,4.708-3.112,7.634-10.206,2.662-14.639-.122-.377-.247-.754-.389-1.134a30.754,30.754,0,0,0,6.773-.586,48.6,48.6,0,0,0,22.675-9.977c.14-.113.273-.234.412-.35,5.95-3.707,10.733-9.245,12.772-15.234a9.1,9.1,0,0,0,7.805-2.449c2.442-2.38,3.693-4.505,5.882-6.95a13.071,13.071,0,0,0,3.8-8.8A5.032,5.032,0,0,0,280.045,64.637Z" fill="#ffedc9"/><path d="M185.821,78.85a11.326,11.326,0,0,0-7.014-5.71,15.7,15.7,0,0,0-1.57-.749c-2.974-1.2-6.168-.085-8.91,1.085-3.942,1.683-6.013,5.926-6.189,10.005-.155,3.629,1.794,7.121,4.174,9.7a12.915,12.915,0,0,0,11.663,3.873,12.25,12.25,0,0,0,8.236-6.531A13.065,13.065,0,0,0,185.821,78.85Z" fill="#f7bfa7"/><path d="M271.4,84.074c-1.475-8.938-11.95-12.829-19.229-8.218a12.993,12.993,0,0,0-4.684,5.224,12.676,12.676,0,0,0-3.062,8c-.26,4.782,2.881,9.887,6.972,12.155,5.471,3.033,11.831,1.1,16.1-3.035C271.349,94.472,272.231,89.136,271.4,84.074Z" fill="#f7bfa7"/><path d="M278.6,48.212a16.485,16.485,0,0,0-9-11.777c-1.493-7.058-5.769-13.3-12.963-14.61a19.281,19.281,0,0,0-12.629,2.446c-.234-.24-.466-.481-.711-.709a17.644,17.644,0,0,0-5.1-6.148,23.351,23.351,0,0,0-17.849-4.23,5,5,0,0,0-3.919,2.413,10.281,10.281,0,0,0-7.918-.9,21.115,21.115,0,0,0-7.105-.021c-9.121,1.4-15.723,7.673-19.15,15.927-4.394,10.59,8.689,17.218,17.66,17.708a13.369,13.369,0,0,0,10.322,4.261,13.417,13.417,0,0,0,8.992,6.946,16.828,16.828,0,0,0,6.529.373,17.623,17.623,0,0,0,9.954-1.56,15.063,15.063,0,0,0,2.781,1.983c4.852,2.646,9.082,2.686,12.527,1.089a13.486,13.486,0,0,0,5.325,1.441,17.252,17.252,0,0,0,12.939,1.837C276.659,62.757,279.958,55.261,278.6,48.212Z" fill="#ecc547"/><path d="M248.961,143.321c0-4.658-4.345-10.162-9.485-9.485a111.771,111.771,0,0,1-16.661,1.117c-.255-.025-.509-.046-.762-.081-7.328-1.035-14.365-3.6-21.762-4.555-9.126-1.179-13.227,14.012-4.766,17.6.754.319,1.513.617,2.275.907l-.019.045c.073.009.146.025.219.035,1.224.462,2.461.878,3.7,1.267A29.871,29.871,0,0,0,214.5,154.9c4.9.725,9.849.713,14.756,1.336,4.431.564,8.909.444,12.824-1.952a9.247,9.247,0,0,0,3.506-3.876A8.654,8.654,0,0,0,248.961,143.321Z" fill="#45b4b7"/><path d="M257.806,187.347c-.4-1.561-.577-3.165-1.107-4.7a8.272,8.272,0,0,0-4.274-4.762,16.728,16.728,0,0,0-2.1-2.544c-5.4-5.381-15.656-4.613-22.531-3.57a123.371,123.371,0,0,1-19.292,1.269,11.534,11.534,0,0,0-1.624.119,6.266,6.266,0,0,0-9.972,1.135,12.287,12.287,0,0,0-.626,1.194c-1.447-1.055-4-.808-4.3,1.313l-.1.686a2.929,2.929,0,0,0,.755,2.624c-.1.669-.3,1.722-.515,2.687-.173.614-.325,1.239-.459,1.877a4.8,4.8,0,0,0,1.383,4.95,7.018,7.018,0,0,0,5,3.517c3.21,2.92,9.857,1.812,11.667-3.122.346-.943.657-1.892.957-2.849.111.008.222,0,.333.015a62.442,62.442,0,0,0,10.3-.134c1.178-.115,8.5-.843,13.679-1.013a35.245,35.245,0,0,0,3.7,12.377c1.588,3.395,7.23,5.034,10.288,2.7a14.27,14.27,0,0,0,3.761-3.9C256.88,196.069,260.234,191.892,257.806,187.347Z" fill="#00588f"/><path d="M270.48,233.33c-.031-4-3.77-5.89-7.014-7.153a39.122,39.122,0,0,0-6.72-1.811,23.4,23.4,0,0,0-6.152-.128c-.967.056-1.868-.028-2.828.1a.68.68,0,0,0,.016-.266c-.061-.6-.063-1.212-.087-1.812-.108-2.656-.094-5.316-.072-7.974.035-4.4,1.031-8.917.275-13.289a21.7,21.7,0,0,1,2.568-.183c3.772-.005,6.663-1.6,7.416-5.462.85-4.358-1.2-8.641-.791-12.94.161-1.719.26-3.443.286-5.168A1.1,1.1,0,0,0,258,175.77c-.066-.186-.123-.372-.183-.556a1.169,1.169,0,0,0,.369-1.341l-.609-1.593a1.112,1.112,0,0,0-.586-.643c-.163-1.027-.285-2.059-.4-3.094a73.6,73.6,0,0,0-1.378-8.331c-1.14-5.057-2.544-10.06-3.841-15.083,3.054-2.815,6.9-4.53,10.489-6.59a1.29,1.29,0,0,0,.448,1.8c1.139.651,1.432,2.167,1.814,3.31a42.131,42.131,0,0,0,2.231,4.709,62.154,62.154,0,0,1,3.924,9.25c1.461,4.981,2.988,10.353,2.978,15.629a1.114,1.114,0,0,0-.835.66c-1.4,2.982-3.424,5.6-5.005,8.479a1.237,1.237,0,0,0-.271.39l-.491,1.1a1.207,1.207,0,0,0,2.2.984,50.794,50.794,0,0,1,3.269-5.595,11.6,11.6,0,0,1,.044,3.069c-.037.609-.094,1.246-.187,1.879a.93.93,0,0,0-.531,1.15,1.351,1.351,0,0,1,.116.707c-.063.194-.129.384-.2.568-.59,1.436,1.6,2.418,2.2.983.077-.183.142-.36.2-.535a18.467,18.467,0,0,0,.836-5.224,13.055,13.055,0,0,0-.138-2.826,24.5,24.5,0,0,1,2.082,5.73,1.19,1.19,0,0,0-.314,2.018c.318.257.485.745.856,1.042a1.215,1.215,0,0,0,1.958-.749c.225-3.547-1.481-6.592-2.745-9.779,2.554,1.826,6.912,5.388,5.873,6.237-1.2.981.2,2.944,1.4,1.961,4.367-3.562-5.158-10.153-7.909-11.458l-.02-.005c.139-5.845-1.508-11.72-3.116-17.272a69.2,69.2,0,0,0-4.6-10.652,49.818,49.818,0,0,1-2.088-4.864,5.527,5.527,0,0,0-2.548-3.093,1.18,1.18,0,0,0-.485-.158,22.415,22.415,0,0,0,6.014-4.944,1.222,1.222,0,0,0,.049-1.469c-2.739-3.916-6.605-6.666-10.47-9.375a30.561,30.561,0,0,1-5.739-5.211,29.384,29.384,0,0,0-5.01-4.89q1.794-.834,3.534-1.776c9.224-4.991,17.1-12.441,20.9-22.375,6.739-.526,11.917-7.76,12.654-14.25.495-4.365-1.132-9.018-5.2-11.1-3.555-1.822-7.266.128-9.674,2.939-.253-.525-.512-1.045-.782-1.554a12.358,12.358,0,0,0,3.118-5.01c1.372-4.107-.008-8.217-4.2-9.818-1.446-.552-2.437,1.647-.983,2.2,3.146,1.2,3.866,3.97,2.85,7.007a9.437,9.437,0,0,1-2.013,3.446c-.094-.154-.188-.3-.283-.457l-.359-.941a1.207,1.207,0,0,0-2.253.864c.138.356.273.714.412,1.071l-.008.008c.009.015.018.029.028.044.135.352.269.7.4,1.055a10.608,10.608,0,0,1-3.176,1.224,11.123,11.123,0,0,1-10.889-3.5,17.3,17.3,0,0,1-1.69-2.366c.1-.2.191-.409.278-.616,1.039-2.469,2.134-6.679-.149-8.82a4.787,4.787,0,0,0-1.08-.739,1.21,1.21,0,0,0-1.423.334c-2.5,2.806-1.888,6.545-.34,9.759-.22.394-.427.729-.595.978-2.965,4.384-9.941,2.629-12.8-.917a7.723,7.723,0,0,1-1.537-3.251c2.3-2.067,4.7-4.694,5.389-7.762.5-2.217-1.62-5.045-4-4.275s-3.212,4.745-3.683,6.8a12.787,12.787,0,0,0-.264,4.251c-.663.53-1.333,1.037-1.987,1.521a24.137,24.137,0,0,1-15.056,4.853c-4.048-.174-8.348-1.061-10.419-4.926a10.453,10.453,0,0,1-1.112-3.575l1.27-.017a31.129,31.129,0,0,0,13.113-2.729c3.5-1.692,6.976-5.008,6.584-9.185-.352-3.762-4.383-7.284-7.884-8.136-3.981-.972-7.384,1.291-10.121,3.957a20.177,20.177,0,0,0-5.5,13.814c-1.675-.023-3.341-.093-4.972-.193-5.145-.316-10.689-1.786-13.632-6.372a7.946,7.946,0,0,1-1.07-2.651c.276-.242.558-.474.841-.709,0-.233.01-.469.029-.7a1.3,1.3,0,0,0,2.18-.949,1.857,1.857,0,0,0-1.483-1.99,2.407,2.407,0,0,0-1.654.433,16.635,16.635,0,0,1,.7-2.986c2.148-6.472,7.354-12.441,13.04-16.1,7.67-4.929,21.377-4.229,25.227,5.221a1.207,1.207,0,0,0,2.252-.864c-3.465-8.5-13.354-10.851-21.646-9.182-6.925,1.393-12.391,6.254-16.552,11.742C179,28.789,176.3,33.965,176.47,39.078a12.062,12.062,0,0,0-2.4,3.136,1.217,1.217,0,0,0-.122.446,55.827,55.827,0,0,0-5.53,7.813,12.163,12.163,0,0,0-1.109-3.018c-2.6-4.519-7.885-1.42-10.58,1.2-3.382,3.287-7.032,8.763-6.259,13.718.4,2.535,3.272,4.257,5.529,4.865a13.916,13.916,0,0,0,5.41.365,41.812,41.812,0,0,0-.575,12.047,37.809,37.809,0,0,0,10.979,22.7c5.574,5.648,13.017,9.654,20.571,12.287-.646.686-1.55,1.214-2.192,1.856a37.011,37.011,0,0,0-3.275,3.871c-1.971,2.583-3.974,5.17-5.806,7.853-1.671,2.447-3.044,5.122-4.907,7.424a19.377,19.377,0,0,0-4.025,7.081,1.2,1.2,0,0,0,.7,1.282c2.437,1.087,4.862,2.138,7.234,3.307a1.193,1.193,0,0,0-.32.436c-2.14,4.791-4.259,9.59-6.049,14.524-1.489,4.107-2.448,8.474-4.074,12.525-2.016,2.167-4.149,4.222-6.221,6.335a6.458,6.458,0,0,0-2.317,2.519c-.685,1.254,1.152,2.207,2.031,1.259.591-.639,1.192-1.264,1.8-1.886l.031-.017a1.2,1.2,0,0,0,.619-.647c1.137-1.152,2.287-2.29,3.424-3.441.208,1.285-.638,3.62-.856,4.5a47.006,47.006,0,0,0-1.27,5.144,1.211,1.211,0,0,0,2.293.674l.492-1.1a1.091,1.091,0,0,0-.051-1.055c.369-1.543.884-3.07,1.232-4.6a23.1,23.1,0,0,0,.477-2.4,46.282,46.282,0,0,1,2.285,8.5,1.212,1.212,0,0,0,2.391.05,4.663,4.663,0,0,0-.431-2.756,1.3,1.3,0,0,0-.139-.266,31.144,31.144,0,0,0-1.994-6.7,14.528,14.528,0,0,1,3.339,3.64c.856,1.306,2.81-.112,1.96-1.407a16.055,16.055,0,0,0-5.219-5.073,1.24,1.24,0,0,0-.342-.228l-.551-.246a1.168,1.168,0,0,0-.66-.1c0-.007,0-.014,0-.022,1.556-3.963,2.533-8.2,3.953-12.213,1.751-4.945,3.91-9.736,6.046-14.525a1.192,1.192,0,0,0,.1-.4c.841.45,1.672.917,2.494,1.417a17.1,17.1,0,0,0,4.525,2.019c-.432,2.4-.815,4.8-1.044,7.222-.234,2.473-.078,4.941-.153,7.418-.083,2.762-.312,6.752,2.479,8.189.315,3.086-.463,6.209-.2,9.317.338,3.992,1.513,7.979.514,11.966a1.189,1.189,0,0,0,.7,1.282c2.186.79,4.321.368,6.528-.151a15.525,15.525,0,0,1,2.52-.344,1.208,1.208,0,0,0,.05.209c1.213,3.555.1,7.617-.086,11.263a114.866,114.866,0,0,0,.536,13.222c-4.621-1.434-9.5-.715-14.139.832-2.606.867-7.38,3.217-5.495,6.719,2.122,3.939,7.754,4.405,11.639,3.87,4.227-.583,9.175-2.749,10.769-7.015a1.239,1.239,0,0,0-.827-1.626,1.3,1.3,0,0,0,.559-1.138c-.249-5.141-.958-10.243-.6-15.4.248-3.64,1.083-7.485.056-11.07a17.826,17.826,0,0,0,2.37-.276c1.589-.319,3.184-.783,3.969-2.345.9-1.8.793-3.851.861-5.81.063-1.789.216-3.327,2.016-4.051a14.672,14.672,0,0,1,5.823-.557c3.454.126,6.865.62,10.328.64a17.1,17.1,0,0,1,6.454.794c2.043.843,1.806,3.126,1.882,4.952.14,3.343.116,7.587,2.424,10.278,1.126,1.312,2.511,1.481,4.148,1.394.784-.041,1.552-.13,2.314-.234.56,3.438-.2,6.748-.25,10.193-.062,4.192-.13,8.4.113,12.583a1.094,1.094,0,0,0-.934.688c-1.655,3.734-1.8,6.942,1,10.188,2.634,3.055,7.092,4.909,10.829,6.174,3.035,1.026,6.545,1.565,9.57.25C268.93,240.053,270.5,236.526,270.48,233.33ZM152.806,61.711c-.544-3.48,2.281-7.457,4.344-9.976,1.495-1.823,5.213-5.707,7.649-3.6a5.31,5.31,0,0,1,1.343,3.19,6.432,6.432,0,0,1,.023,1.7c-.055.479-.313.614-.071.541a1.1,1.1,0,0,0-.46,1.845,46.521,46.521,0,0,0-3.65,9.644C158.792,65.7,153.361,65.272,152.806,61.711Zm18.219,115.321a1.1,1.1,0,0,0,.351.561,1.391,1.391,0,0,0-.182.091,2.586,2.586,0,0,0-.306-.6A1.026,1.026,0,0,0,171.024,177.032ZM201.9,224.275a1.107,1.107,0,0,0-.364.506c-2.288,6.12-12.882,7.557-17.531,3.677-2.47-2.062,3.194-3.874,4.512-4.285,4.383-1.367,9.021-1.824,13.266.058A.934.934,0,0,0,201.9,224.275Zm54.44-100.6c3.6,2.544,7.3,5.016,10.016,8.528-4.26,4.654-10.7,6.467-15.621,10.351-.877-3.533-1.68-7.086-2.458-10.645a1.019,1.019,0,0,0-.223-1.017q-.562-2.585-1.115-5.173a45.935,45.935,0,0,1-.93-6.357,11.721,11.721,0,0,0-.939-4.129,1.114,1.114,0,0,0-.648-1.363l-.445-.2c.535-.212,1.067-.434,1.6-.659a1.007,1.007,0,0,0,.471.872C249.959,116.643,252.405,120.9,256.336,123.678Zm23.752-57.836c2.6,2.23,2.621,6.471,1.929,9.508-1.021,4.479-4.6,8.982-9.092,9.962,1.385-5.7.294-11.778-1.946-17.3C273.054,64.909,276.8,63.015,280.089,65.842ZM248.862,51.51c.647,1.017.387,2.656-.162,4.238A5.883,5.883,0,0,1,248.862,51.51Zm-14.194-5.763a4.328,4.328,0,0,1,.715.817c.338.669-.2,1.631-.491,2.218a14.069,14.069,0,0,1-2.645,3.616A16.535,16.535,0,0,1,233,48.826C233.283,47.96,233.764,46.2,234.667,45.747ZM209.2,35.427c4.04-2.436,9.851.849,10.659,5.319.425,2.362-1.734,4.43-3.444,5.7a18.367,18.367,0,0,1-7.167,2.83,44.3,44.3,0,0,1-8.073.839,19.452,19.452,0,0,1,.817-4.857A16.638,16.638,0,0,1,209.2,35.427Zm-32.886,67.741A35.691,35.691,0,0,1,163.291,79.9a37.5,37.5,0,0,1,.684-12.9,1.145,1.145,0,0,0,.452-1.819,47.342,47.342,0,0,1,2.766-7.59A62.052,62.052,0,0,1,175.1,45.07c.644-.8,1.324-1.568,2.034-2.3.065.189.134.378.209.565,3.345,8.353,13.386,9.116,21.541,9.1a14.476,14.476,0,0,0,1.086,4.06c3.492,7.919,14.494,7.776,21.465,5.56a29.44,29.44,0,0,0,9.012-4.884,12.413,12.413,0,0,0,1.223,2.567c2.182,3.5,7.131,5.3,11.106,4.907a8.451,8.451,0,0,0,5.912-3.57c.264.4.534.781.807,1.14,3.164,4.172,8.333,5.736,13.4,4.853a12.088,12.088,0,0,0,3.794-1.324c.038.1.077.2.115.3a1.092,1.092,0,0,0,1.034.746c.161.337.31.683.46,1.026-.089.164-.172.327-.251.491a1.169,1.169,0,0,0,1.127,1.658,32.122,32.122,0,0,1,1.092,3.6,24.623,24.623,0,0,1,.008,11.9,8.752,8.752,0,0,1-1.521-.293c-1.489-.429-1.837,1.96-.362,2.386a10.983,10.983,0,0,0,1.14.255c-.158.426-.327.847-.512,1.268A38.814,38.814,0,0,1,258.144,102.9c-7.47,6.2-17.136,9.974-26.556,11.937a73.639,73.639,0,0,1-28.978.116A60.56,60.56,0,0,1,176.311,103.169Zm7.623,43.359a73.5,73.5,0,0,0-9.093-4.3c.894-2.39,2.679-4.352,4.249-6.329,1.9-2.4,3.284-5.345,5.074-7.862,1.753-2.464,3.623-4.894,5.491-7.277a19.737,19.737,0,0,1,3.2-3.44,8.329,8.329,0,0,0,1.937-1.891c.438.136.878.27,1.316.4.549.161,1.1.312,1.655.458-4.425,9.086-5.874,18.943-7.492,28.792a1.157,1.157,0,0,0-.13.8q-.3,1.8-.613,3.6A24.4,24.4,0,0,1,183.934,146.528Zm15.818-28.82.588.263a1.151,1.151,0,0,0,1.588-.713,75.781,75.781,0,0,0,20.258,1.318c1.238,2.7-.323,6.226-2.5,7.947-3.688,2.916-6.111-2.288-4.9-5.412.557-1.442-1.641-2.433-2.2-.981-1.833,4.729,1.427,11.434,7.131,9.151,4.008-1.6,6.093-6.858,4.911-10.916a72.889,72.889,0,0,0,17.631-4.034,1.119,1.119,0,0,0,.143,1.1c1.192,1.633,1.191,3.766,1.311,5.707a49.166,49.166,0,0,0,1.327,7.171q.26,1.209.525,2.414a2.129,2.129,0,0,0-1,.689,1.124,1.124,0,0,0-.284.739c-2.145,1.006-4.877.983-7.122.911-3.289-.107-6.55-.677-9.84-.714-4.711-.051-9.419-.187-14.13-.263-2.659-.044-5.331-.042-7.977-.316-2.233-.235-4.587.066-6.723-.763-1.444-.557-2.434,1.642-.982,2.2,2.169.839,4.467.781,6.755.9,2.576.135,5.14.3,7.725.347,5.345.106,10.7.087,16.045.311,5.487.232,13.172,2.266,18.211-.952.719,3.228,1.463,6.452,2.257,9.662a1.146,1.146,0,0,0-.329.457,1.638,1.638,0,0,0,.915,2.389,1.088,1.088,0,0,0,.138.051c.034.136.069.27.105.406a1.2,1.2,0,0,0-.565.368c-3.22,3.683-7.968,4.82-12.657,5.217a80.106,80.106,0,0,1-14.946-.43c-6.15-.638-12.708-1.219-18.592-3.226a44.833,44.833,0,0,0-5.1-1.147c-1.276-.274-3.928-.65-4.811-1.932C194.253,136.084,195.551,126.565,199.753,117.708Zm-8.346,54.558a2.483,2.483,0,0,1-.959-1.632,25.975,25.975,0,0,1-.1-5.611,89.592,89.592,0,0,1,1.187-12.994,5.755,5.755,0,0,0,1.236-.2c1.477-.418.645-2.6-.8-2.265.07-.38.136-.764.2-1.146,2.4,1.477,6.219,1.772,8.408,2.241,2.829.607,5.591,1.487,8.445,2.031,3.652.7,7.345,1.147,11.037,1.549a87.673,87.673,0,0,0,16.84.472c4.841-.408,9.645-1.865,13.1-5.362,1.1,4.183,2.226,8.363,3.148,12.586.678,3.109.865,6.331,1.355,9.484a.988.988,0,0,0-.13,1.5c.014.017.026.035.039.051a1.134,1.134,0,0,0-.178.779,19.357,19.357,0,0,1-3.385-.24c-2.06-.262-4.08-.489-6.154-.574-5.432-.219-10.878-.446-16.308-.609-5.507-.167-11.019-.117-16.524.07-5.642.192-11.355.674-17,.463a13.739,13.739,0,0,1-2.521-.193A1.294,1.294,0,0,0,191.407,172.266ZM240.332,197.8a15.038,15.038,0,0,1-1.192-5.881c-.253-3.435.316-6.938-3.022-8.993-1.606-.988-3.8-1.075-5.617-1.151-2.113-.085-4.224-.113-6.336-.215-5.448-.265-15.495-2.629-16.367,5.2-.164,1.468-.075,2.954-.23,4.424-.225,2.149-1.6,2.6-3.555,2.834-1.744.212-3.485,0-5.226.337s-3.664,1.078-5.479.822c.605-3.614-.216-7.315-.65-10.915-.363-3.014.332-6.026.2-9.027a42.77,42.77,0,0,0,5.5.054c3.124-.04,6.241-.285,9.363-.38,6.148-.186,12.3-.348,18.451-.244,6.041.1,12.105.449,18.149.654,3.385.116,7.225,1.243,10.69.791-.009.428-.029.831-.029,1.159,0,1.776-.165,3.558-.335,5.324a21.016,21.016,0,0,0,.486,4.807,31.925,31.925,0,0,1,.469,6.7c-.128,1.852-.824,3.4-2.661,4.051a9.23,9.23,0,0,1-3.425.234,14.792,14.792,0,0,0-3.539.346C244.01,199.091,241.465,199.941,240.332,197.8Zm19.578,41.785c-3.37-.489-6.68-2.151-9.613-3.8a10.538,10.538,0,0,1-4.427-4.5c-.8-1.625-.17-3.366.508-4.921.948.547,2.428.272,3.828.292,1.91.027,3.651-.337,5.56-.016a40.335,40.335,0,0,1,6.091,1.514c1.769.595,4.1,1.432,5.356,2.874,1.148,1.316,1,3.355.477,4.89C266.5,239.379,263.128,240.053,259.91,239.585Z" stroke="#000" stroke-miterlimit="10" stroke-width="1.5"/><path d="M252.811,86.584c-2.089,1.556-2.1,3.918-3.715,5.736a19.318,19.318,0,0,1-6.221,4.879c-4.726,2.3-10.043,3.244-15.231,3.763a51.915,51.915,0,0,1-17.133-.668,46.177,46.177,0,0,1-7.975-3.13,3.82,3.82,0,0,1-2.138-1.682,4.536,4.536,0,0,0-1.918-1.448c-1.392-.7-2.368,1.507-.983,2.2.937.471,1.178,1.135,1.775,1.932.574.773,2.07,1.1,2.918,1.483a51.458,51.458,0,0,0,7.959,3.029c5.723,1.5,11.926,1.215,17.761.681a48.318,48.318,0,0,0,15.829-3.91,19.339,19.339,0,0,0,6.035-4.277,10.107,10.107,0,0,0,2.083-2.408,13.426,13.426,0,0,1,1.593-3.471,1.093,1.093,0,0,0,.923-.687l.246-.552A1.214,1.214,0,0,0,252.811,86.584Z" stroke="#000" stroke-miterlimit="10" stroke-width="1.5"/><path d="M194.174,76.359a6.607,6.607,0,0,1,.477-1.858,1.207,1.207,0,0,0-2.2-.982,11.072,11.072,0,0,0-.715,4.968,1.213,1.213,0,0,0,2.3.36l.492-1.1A1.1,1.1,0,0,0,194.174,76.359Z" stroke="#000" stroke-miterlimit="10" stroke-width="1.5"/><path d="M236.285,81.653c-.062-1.254-.684-2.613-.2-3.846.568-1.444-1.633-2.434-2.2-.983a5.52,5.52,0,0,0-.337,2.575,7.138,7.138,0,0,0,.185,1.591,1.687,1.687,0,0,1,.116.431c0,.039.007.078.014.116a1.273,1.273,0,0,0,.628,2.112C235.726,83.915,236.334,82.705,236.285,81.653Z" stroke="#000" stroke-miterlimit="10" stroke-width="1.5"/><path d="M40.107,112.847A12.919,12.919,0,0,0,38.9,110.91c-1.563-2.025-4.185-3.486-6.686-2.5-.124-.222-.241-.444-.379-.663a4.827,4.827,0,0,0-5.289-2.186,9.688,9.688,0,0,1,1.112-4.4c2.061-3.708-3.336-6.793-5.639-3.3-2.292,3.479-2.869,7.965-3.379,12.021-.673,5.338-2.153,10.588-1.218,15.962.6,3.439,4.763,4.715,7.628,3.475.026.276.052.551.09.818.753,5.3,7.8,4.765,10.209,1.335a9.512,9.512,0,0,0,.588-.964,6.509,6.509,0,0,0,1.48.049c2.833,2.246,7.156.481,8.562-2.962C47.857,123,43.7,115.6,40.107,112.847Z" fill="#f2933d"/><path d="M133.39,104.918c-.313-1.074-.679-2.134-1-3.206-.107-.359-.173-.632-.218-.846,2.37-4.271-2.929-10.507-7.516-7.252-3.868,2.746-3.749,6.184-3.28,9.694a8.616,8.616,0,0,0-.793,1.047c-.15.234-.267.492-.4.739a7.781,7.781,0,0,0-1.966.286,7.9,7.9,0,0,0-3.883,2.512c-2.05-.921-4.84.018-4.825,2.991.012,2.369-.229,4.733-.242,7.107-.026,4.755,5.476,6.411,8.754,3.626a8.2,8.2,0,0,0,1.463-1.7c3.282,4.225,10.945,3.075,10.925-3.347,0-.518.014-1.034.028-1.55a5.439,5.439,0,0,0,3.325-3.942A11.371,11.371,0,0,0,133.39,104.918Z" fill="#f2933d"/><path d="M60.685,25.044c-.38,1.321.7-.572,0,0Z" fill="#ea5760"/><path d="M60.675,25.053l.01-.009c.036-.126.083-.275.149-.465C60.78,24.737,60.728,24.895,60.675,25.053Z" fill="#ea5760"/><path d="M59.865,25.919c7.449-8.907-4.057-20.8-12.84-12.84-3.417,3.1-4.654,8.156-5.628,12.49-.212.944-.416,1.9-.609,2.87a44.275,44.275,0,0,0-20.49-1.65,7.332,7.332,0,0,0-5.5,4.137,5.365,5.365,0,0,0-1.032,5.227,8.388,8.388,0,0,0,4.365,7.224,40.664,40.664,0,0,0,3.743,1.607c6.535,3.554,15.292,4.227,21.866,2.643a9.95,9.95,0,0,0,2.579-1,8.79,8.79,0,0,0,2.692.446A9.49,9.49,0,0,0,58.4,37.672c.009-.943.1-1.88.2-2.819.015-.148.06-.5.1-.818q.2-1.36.442-2.717c.282-1.589.64-3.161,1.054-4.721.139-.522.3-1.033.477-1.544A7.262,7.262,0,0,0,59.865,25.919Z" fill="#ea5760"/><path d="M116.825,130.04c-.477-2.581-2.57-5.121-4.466-6.809a11.651,11.651,0,0,0-8.242-3.24,10.892,10.892,0,0,0-5.54,1.682c-2.775-7.681-14.625-7.852-17.869-.525h0a4.361,4.361,0,0,0-4.689-3.283,4.377,4.377,0,0,0-4.755,3.509c-.346,1.421-.289,1.447-.44,1.868a10.063,10.063,0,0,0-3.442-3.256,8.793,8.793,0,0,0-9.194.322,13.858,13.858,0,0,0-4.89,6.523,11.44,11.44,0,0,0-.615,6.6,7.953,7.953,0,0,0,.75,1.862,10.061,10.061,0,0,0,2.544,6.865c2.167,2.674,5.889,3.064,9.015,2.6a9.15,9.15,0,0,0,2.126-.592c-.234,2.283-.473,4.568-.754,6.848-.666,5.4-2.321,12.049-1.233,17.38.56,2.743,1.121,4.918,3.066,7.13a9.17,9.17,0,0,0,3.682,2.431c.557.024,5.671,1.147,2.974.608,5.07,1.013,10.306,2.3,15.381.431a12.759,12.759,0,0,0,5.346-3.634,10.591,10.591,0,0,0,4.4-.182c4.625-1.272,6.756-5.1,7.276-9.556.706-6.055-1.607-12.707-2.994-18.579-.516-2.185-1.095-4.346-1.59-6.532.41.178.828.352,1.26.52a11.061,11.061,0,0,0,8.581-.6C116.553,138.636,117.545,133.934,116.825,130.04Z" fill="#ea5760"/><path d="M127.4,183.387c-.9-6.707-4.614-13.223-12.283-12.995a9.133,9.133,0,0,0-6.662,3.148,10.408,10.408,0,0,0-2.328,1.767,9.916,9.916,0,0,0-.668.746,9.471,9.471,0,0,0-1.409.305,9.245,9.245,0,0,0-7.544-1.179,8.321,8.321,0,0,0-2.6,1.213,10.527,10.527,0,0,0-5.186.317,9.05,9.05,0,0,0-.853.306c-.339-.125-.69-.243-1.068-.345a9.157,9.157,0,0,0-6.368.79,9.725,9.725,0,0,0-8.581.466c-.1.058-.183.125-.276.185-3.626-1.859-8.289-1.35-10.257,2.572a6.833,6.833,0,0,0-6.281,1.448c-4.4,3.678-4.31,10.079-1.75,14.78,2.9,5.321,10.779,5.623,15.237,2.437.021-.016.039-.034.06-.05.165.122.312.252.483.371,2.79,1.925,7.694,1.364,9.885-1.275.455-.549.851-1.077,1.213-1.606a9.412,9.412,0,0,0,4.664.163c2.836,2.25,6.3,1.707,8.961-.227A9.081,9.081,0,0,0,100,195.505a8.562,8.562,0,0,0,6.342.239,8.876,8.876,0,0,0,12.244-3.618l.077-.009C122.873,191.616,128.081,188.5,127.4,183.387Z" fill="#c82452"/><path d="M116.558,68.682c-.127.071-.245.148-.369.221a38.448,38.448,0,0,0-4.59-7.821c-7.214-9.44-16.451-15.383-28.385-16.64-12.676-1.335-24.557,7.982-30.483,18.4a34.45,34.45,0,0,0-3.188,7.668,11.466,11.466,0,0,0-8.472,2.609c-3.945-1.834-9.225-1.106-10.094,4.21-.019.119-.028.244-.044.363-3.4-.831-7.293.241-10.244,1.639-8.28,3.921-5.949,14.6,0,19.05a14.384,14.384,0,0,0,3.886,2.082,9.884,9.884,0,0,0,5.371,3.215,16.861,16.861,0,0,0,6.363.062,41.411,41.411,0,0,0,4.215,3.77,31.666,31.666,0,0,0,5.6,3.559,25.958,25.958,0,0,0,9.46,5.411,34.715,34.715,0,0,0,13.368.959,30.929,30.929,0,0,0,9.731,3.982c.383,2.078,1.627,4.3,3.539,5.118a8.743,8.743,0,0,0,3.989,1.108,9.27,9.27,0,0,0,4.28-1.156,9.525,9.525,0,0,0,3.051-2.461,33.034,33.034,0,0,0,2.546-3.5c.139-.217.282-.431.423-.646a7.754,7.754,0,0,0,.5-.6c9.167-.136,16.689-7.386,19.919-15.891a34.759,34.759,0,0,0,2.158-9.992,15.013,15.013,0,0,0,5.179-6.416c.861-1.943,1.606-3.9,2.289-5.908a17.424,17.424,0,0,0,.727-3.855,5.774,5.774,0,0,0,.066-.787C128.045,70.484,122.373,65.445,116.558,68.682Z" fill="#ffedc9"/><path d="M115.784,45.961A51.217,51.217,0,0,0,111.5,41c-.049-.085-.091-.174-.144-.257-3.324-5.193-8.864-8.436-14.739-10.178C94.037,26.254,88.522,24.8,83.8,24.6c-7.419-.3-20.129,3.609-22.459,11.93a5.833,5.833,0,0,0-1.683.724,19.742,19.742,0,0,0-5.58,5.8,5.248,5.248,0,0,0-2.79,1.873c-.684.879-1.334,1.772-1.97,2.673a7.384,7.384,0,0,0-7,1.156,23.859,23.859,0,0,0-3.449,3.62,1.927,1.927,0,0,0-1.238-.422c-7.048.456-14.362,10.47-16.071,19.5A35.1,35.1,0,0,0,17.4,79.567c-2.06,6.285,6.667,9.085,10.063,4.243.025-.035.047-.075.072-.111a3.469,3.469,0,0,0,.849-.548,9.6,9.6,0,0,0,2.535-3.931,13.755,13.755,0,0,0,1.405-1.55,5.44,5.44,0,0,0,5.788,1.236A6.831,6.831,0,0,0,46.984,76.6c1.963-2.7,3.888-5.44,5.707-8.244a6.772,6.772,0,0,0,1.706-.4,7.124,7.124,0,0,0,4.322,6.21,8.3,8.3,0,0,0,8.94,2.16,6.825,6.825,0,0,0,6.573-2.054c.512-.613.992-1.241,1.457-1.875a9.059,9.059,0,0,0,8.537-.529,6.632,6.632,0,0,0,7.264-3.835c2.2-4.773,2.645-14.065-.056-20.555l.025-.239a15.771,15.771,0,0,0,10.107,5.775c.7.832,1.364,1.65,1.986,2.39,1.65,1.963,3.443,3.825,5.141,5.751,1.044,1.185,3.345,2.867,3.865,4.31,2.081,5.781,10.974,5.1,11-1.488C123.573,57.921,119.345,50.66,115.784,45.961Z" fill="#f2933d"/><path d="M63.724,87.641c-1.891-2.369-5.669-3.707-8.621-3.592-4.024.156-6.9,2.282-9.228,5.407-1.924,2.584-2.056,6.354-1.443,9.375a11.429,11.429,0,0,0,5.284,7.309c5.06,3.18,13.376,1.36,16.071-4.092a11.41,11.41,0,0,0,1.194-5.443c.037-.255.075-.511.1-.772C67.419,92.735,65.535,89.91,63.724,87.641Z" fill="#f7bfa7"/><path d="M121.252,83.326c-.007-.008-.012-.017-.019-.025-3.6-4.248-10.055-4.265-14.582-1.416a12.87,12.87,0,0,0-5.5,14.3c1.4,5.08,6.251,8.336,11.342,8.684a14.133,14.133,0,0,0,12.179-6.026C128.543,93.494,126.32,86.32,121.252,83.326Z" fill="#f7bfa7"/><path d="M81.538,63.792c.805-2.851,1.826-7.636-1.48-9.325-1.376-.7-2.343,1.487-.975,2.186,2.064,1.056.3,6.141-.171,7.66A35.9,35.9,0,0,1,75.35,72.6c-1.494,2.4-4.615,4.424-6.9,5.975-2.308,1.566-6.7,4.214-8.768,1.027-.843-1.3-2.781.105-1.943,1.4,2.344,3.608,6.639,2.606,9.869.864a34.388,34.388,0,0,0,5.679-3.949,20.49,20.49,0,0,0,3.814-3.64A35.909,35.909,0,0,0,81.538,63.792Z" stroke="#000" stroke-miterlimit="10" stroke-width="1.5"/><path d="M60.771,65.984c1.612-4.238,4.45-9.221,2.921-13.851-.485-1.468-2.717-.606-2.235.856,1.272,3.845-1.575,8.49-2.871,12.02a28.945,28.945,0,0,1-7.78,12,51.807,51.807,0,0,1-7.447,5.448c-2.019,1.234-5.835,3.685-8.276,2.369-1.359-.731-2.324,1.46-.976,2.186,2.834,1.523,6.535-.324,9.044-1.7A50.945,50.945,0,0,0,52.2,78.949,31.505,31.505,0,0,0,60.771,65.984Z" stroke="#000" stroke-miterlimit="10" stroke-width="1.5"/><path d="M123.179,229.851c-2.466-6.12-11.376-6.814-17.261-6.432a67.921,67.921,0,0,1-1.343-12.472c-.012-4.159-.943-8.275-.762-12.445a10.012,10.012,0,0,0,2.983-.424c3.814-1.131,5.49-4.723,6.262-8.312,3.079,1.689,6.574,4.153,10.044,3.1,5.2-1.573,6.473-8.547,6.111-13.208a21.5,21.5,0,0,0-2.454-7.984c-.812-1.589-1.767-4.335-3.974-4.257s-4.1,1.619-6.369,1.765a13.766,13.766,0,0,1-4.228-.878,3.661,3.661,0,0,0-.221-.837c-.036-.072-.074-.141-.11-.209a1.27,1.27,0,0,0-.3-.379,11.705,11.705,0,0,0-.282-1.437,55.675,55.675,0,0,1-1.063-6.01C109.59,155,108.7,150.6,108,146.177q-.482-3.032-1.054-6.046c1.775.8,4.628-.045,6.15-.587a7.379,7.379,0,0,0,3.615-2.977,1.1,1.1,0,0,0,.63.669l.369.166a1.523,1.523,0,0,0,.236.079c8.359,3.167,15.238-5.758,19.647-11.7a82.4,82.4,0,0,0,5.125-7.147,91.979,91.979,0,0,0,4.542-9.3c.28-.628.678-1.444,1.071-2.35a1.2,1.2,0,0,0,.541-.2c3.3-2.181,8.61-3.1,10-7.333.475-1.449-1.7-2.439-2.185-.974-.725,2.206-3,3.4-5.294,4.434a1,1,0,0,0,.007-1.376c-.657-.786,4-6.161,4.565-7.308.683-1.385-1.5-2.355-2.186-.974-.763,1.543-3.722,4.4-4.6,6.887a2.72,2.72,0,0,0-.262-.369,1.167,1.167,0,0,0-.118-.116c.634-1.783,1.207-3.592,1.888-5.353a8.325,8.325,0,0,0,.837-3.641c-.135-.785-1.173-1.5-1.886-.841a2.184,2.184,0,0,0-.524.692,1.033,1.033,0,0,0-.015.986,17.143,17.143,0,0,1-.947,2.665c-.508,1.188-.9,2.418-1.3,3.649a19.417,19.417,0,0,1,.287-5.911c.308-1.513-2.059-1.869-2.366-.357-.742,3.64-.633,8.172,1.082,11.536a1.234,1.234,0,0,0,1.032.727c-.2.608-.433,1.168-.555,1.516-.534,1.5-1.21,2.949-1.861,4.4-1.108,2.476-2.262,4.93-3.571,7.306a61.8,61.8,0,0,1-4.876,6.865c-3.8,5.139-10.206,14.5-17.7,11.158a1.144,1.144,0,0,0-.739-.083,12.177,12.177,0,0,0,1.02-4.393c.12-3.392-2.254-6.372-4.532-8.637-1.986-1.977-4.728-3.747-7.6-3.963a31.948,31.948,0,0,0,5.053-3.132c3.98-3.027,6.89-7.483,9.154-11.905-.008.036-.021.068-.027.105a26.174,26.174,0,0,0,1.629,11.781,1.2,1.2,0,0,0,2.232-.855,23.789,23.789,0,0,1-1.5-10.567,1.218,1.218,0,0,0-2.07-.993,31.97,31.97,0,0,0,3.148-11.346c6.53-1.688,8.961-10.651,8.708-16.563-.139-3.267-1.576-5.827-4.654-7.105a8.065,8.065,0,0,0-1.924-.521l0-.018c.447-3.932-.787-7.885-2.35-11.449a66.223,66.223,0,0,0-6.328-11.03c-5.091-7.294-12.1-13.866-20.344-17.365a41.369,41.369,0,0,0-25.164-2.077,48.406,48.406,0,0,0-9.6,3.412c2.332-5.307,3.4-11.351.222-16.142A11.013,11.013,0,0,0,51.7,7.942c-4.43.979-6.774,6.2-8.371,9.9a29.08,29.08,0,0,0-2.18,9.438c-.064.789-.11,1.6-.125,2.416a33.248,33.248,0,0,0-8.371-4.919c-6.309-2.755-14.332-3.626-20.459.022-7.567,4.5-4.877,15.51.244,20.785,4.1,4.225,10.126,6.164,16.112,6.342A33.887,33.887,0,0,0,22.238,60.3a75.582,75.582,0,0,0-6.4,14.039,98.07,98.07,0,0,0-3.465,12.57c-.383,1.973-1.557,7.023,1.209,7.96,1.448.491,2.435-1.689.975-2.184-1.157-.392.422-6.633.665-7.689A106.554,106.554,0,0,1,18.4,74.2a77.762,77.762,0,0,1,6.027-12.923,28.425,28.425,0,0,1,7.246-8.793c.323-.247.653-.481.988-.708a30.133,30.133,0,0,0,4-.686c1-.244.939-1.321.345-1.9.051-.028.1-.057.153-.088a1.11,1.11,0,0,0,.725.12,27.165,27.165,0,0,0,12.164-4.563c3.4-2.422,6.08-5.925,8.439-9.327.72-1.04,1.453-2.192,2.15-3.418.765-.42,1.542-.807,2.313-1.169A48.5,48.5,0,0,1,73.5,27.047a39.23,39.23,0,0,1,23.3,2.4c7.461,3.168,13.675,9.339,18.409,15.789a71.129,71.129,0,0,1,5.918,9.963c1.715,3.382,3.16,7.464,2.724,11.3a1.226,1.226,0,0,0,.025.416,4.392,4.392,0,0,0-3.525,2.913c-.009.025-.011.05-.017.072-.073-.16-.145-.323-.22-.483a34.024,34.024,0,0,0-10.85-12.688c-5.191-3.8-11.341-6.089-17.175-8.677a1.163,1.163,0,0,0-1.627.878,1.3,1.3,0,0,0,.409,1.852c1.417.823,1.854,3.319,2.357,4.749a20.463,20.463,0,0,1,1.217,4.794,16.7,16.7,0,0,1-1.789,8.649c-2.223,4.678-6.892,9.48-12.448,7.171-1.422-.591-2.4,1.591-.975,2.183,6.768,2.814,12.387-2.254,15.4-7.959a19.3,19.3,0,0,0,2.138-10.851,27.191,27.191,0,0,0-1.737-6.079c-.211-.609-.429-1.215-.685-1.794a82.505,82.505,0,0,1,12.3,6.174,32.1,32.1,0,0,1,10.97,11.908c4.842,9.365,5.815,21.542,1.4,31.159a31.983,31.983,0,0,1-10.406,13.109,34.455,34.455,0,0,1-12.058,4.96,1.105,1.105,0,0,0-.519.112q-1.185.256-2.369.463a78.71,78.71,0,0,1-33.418-1.941,51.035,51.035,0,0,1-12.6-5.386c-3.655-2.18-6.782-5.169-10-7.929-2.924-2.515-5.483-5.243-6.7-8.976-1.341-4.1.411-8.348-.378-12.5-.286-1.5-2.668-1.258-2.378.262.448,2.363.02,4.772-.127,7.145a16.816,16.816,0,0,0,1.022,7.02,14.223,14.223,0,0,0,1.067,2.244,1.227,1.227,0,0,0-.387.309c-3.3,3.931-9.088-2.083-10.858-4.824a6.075,6.075,0,0,1-.712-6.21c1.529-3.41,5.05-5.013,7.871-2.1,1.075,1.108,2.579-.754,1.521-1.847-3.129-3.232-7.234-2.56-10.081.636a8.323,8.323,0,0,0-1.253,9.655c2.324,4.694,10.362,11.875,15.239,6.346a41,41,0,0,0,5.94,5.8c4.056,3.431,7.951,6.67,12.733,9.07a48.089,48.089,0,0,0,4.69,2.038,13.247,13.247,0,0,0-4.453,4.682c-2.033,3.3-4.138,7.757-3.864,11.746.2,2.983,2.177,6.365,4.87,8.9-.025.044-.052.08-.073.128a171.138,171.138,0,0,0-6.9,17.17c-1.012,3.141-1.936,6.225-3.258,9.261-1.258,2.89-2.586,5.742-3.614,8.727-2.991.832-4.934,3.3-7.614,4.727-.247.119-.5.246-.775.376-1.381.651-.577,2.843.856,2.232a8.622,8.622,0,0,0,1.005-.511,3.308,3.308,0,0,1,1.066-.322,1.118,1.118,0,0,0,1.025-1.151c.7-.549,1.387-1.113,2.1-1.615-1.5,3.477-1.4,7.409-2.845,10.926a1.2,1.2,0,0,0,2.185.977l1.218-2.732a1.082,1.082,0,0,0-.118-1.149,36.746,36.746,0,0,1,1.687-6.9,1.2,1.2,0,0,0,.111.156,12.545,12.545,0,0,0,.54,2.8,18.839,18.839,0,0,1,.644,4.73,1.2,1.2,0,0,0,.006.505,20.484,20.484,0,0,1-.172,2.718c-.181,1.3,1.811,1.973,2.274.667a6.356,6.356,0,0,0,.151-4.135l0,0c-.062-.817-.152-1.637-.24-2.457a12.232,12.232,0,0,0-.429-2.879c-.068-.195-.133-.408-.193-.629,1.828,1.269,3.284,3.283,5.276,4.281,1.38.692,2.35-1.5.974-2.184-2.461-1.236-3.982-3.562-6.366-4.815a1.281,1.281,0,0,0-.814-1.6.971.971,0,0,0,.45-.516c2-6.063,4.988-11.678,6.834-17.806a147.523,147.523,0,0,1,6.918-17.416c2.81,1.983,6.059,2.95,8.86,1.833-.665,4.337-1.245,8.683-1.712,13.016-.3,2.781.06,5.59-.2,8.343a16.286,16.286,0,0,0,.372,5.7c-3.824-2.144-7.216,2.049-9.5,4.748a11.823,11.823,0,0,0-2.97,6.3c-.274,2.551,1.077,4.782,2.442,6.809,2.919,4.339,7.165,7.3,12.49,7.342,2.313.018,4.538-1.255,6.5-2.327a16.444,16.444,0,0,0,3.891-3.536q.312,6.219,1.161,12.393c.516,3.707,1.575,7.315,2.092,11a28.921,28.921,0,0,0,.547,3.415,1.2,1.2,0,0,0-1.405.61c-3.057,5.743,4.624,9.892,8.837,11.8,2.592,1.174,5.3,2.711,8.243,2.537,3.184-.186,3.865-3.766,2.944-6.226-1.094-2.921-3.9-4.851-6.617-6.062-1.74-.778-3.659-2.105-5.6-1.973a25.6,25.6,0,0,1-2.81.108c-.783-.034-.708.006-1.091-.968-.638-1.624-.6-3.516-.944-5.217-.439-2.184-1-4.33-1.384-6.531a123.6,123.6,0,0,1-1.517-13.724,11.568,11.568,0,0,0,4.311,4.517,9.022,9.022,0,0,0,7.645.405c2.359-.8,6.169-2.82,7.553-5.409a13.015,13.015,0,0,0,6.011,4.017c-.169,4.153.818,8.2.76,12.333a62.615,62.615,0,0,0,1.068,11.725,1.2,1.2,0,0,0-.418.221c-7.144,5.792,9.108,11.922,12.81,12.872a8.953,8.953,0,0,0,4.328.294C122.892,234.872,124.336,232.721,123.179,229.851Zm27.183-126.48c-.314.136-.624.276-.927.416.056-.246.105-.491.141-.734A1.171,1.171,0,0,0,150.362,103.371ZM58.9,30.151a17.093,17.093,0,0,0-7.171,7.091,1.245,1.245,0,0,0,.966,1.7,27.28,27.28,0,0,1-3.585,3.426,21.82,21.82,0,0,1-8.925,4,1.262,1.262,0,0,0-1.856-.708c-2.131,1.321-4.354,2.478-6.46,3.822-5.9.5-12.405-.885-16.768-4.643-5.148-4.434-8.023-14.222-1.093-18.349,5.044-3,12.143-1.811,17.294.308a31.53,31.53,0,0,1,7.29,4.133,12.909,12.909,0,0,1,2.676,2.643,13.608,13.608,0,0,0,.986,3.413,1.133,1.133,0,0,0,.274.558,6.384,6.384,0,0,0,4.042,3.237c1.479.421,1.825-1.948.359-2.366a3.777,3.777,0,0,1-2.305-1.955,7.193,7.193,0,0,0-1.038-3.778c-.039-.342-.071-.672-.1-.983a33.061,33.061,0,0,1,.666-8.794,25.654,25.654,0,0,1,4.183-9.5,6.828,6.828,0,0,1,5.859-3.3,9.409,9.409,0,0,1,5.7,2.546c2.822,2.538,2.45,7.424,1.694,10.754A25.813,25.813,0,0,1,58.9,30.151ZM124.231,88.52a42.9,42.9,0,0,0-3.265-17.171,1.031,1.031,0,0,0,1.571-.548c.848-2.459,3.93-1.669,5.686-.718,2.092,1.131,2.271,3.9,2.2,6C130.295,80.168,128.562,86.816,124.231,88.52ZM79.483,223.252a9.957,9.957,0,0,0,3.6.154c1.9-.111,3.494.947,5.225,1.719,2.5,1.115,5.379,3.044,5.665,6.038.326,3.41-5.27.736-6.56.148-3.114-1.413-11.652-4.685-9.424-9.295A2.79,2.79,0,0,0,79.483,223.252Zm24.231-104.038a1.089,1.089,0,0,0,1.276,1.2c4.737-.756,9.726,4.572,11.078,8.685.851,2.594-.815,6.066-2.824,7.652-.815.642-4.865,2.074-5.5.965a.97.97,0,0,0-1.368-.409,114.756,114.756,0,0,0-4.9-17.241c0-.009-.009-.016-.011-.023Q102.607,119.662,103.714,119.213Zm-21.443,3.679A68.578,68.578,0,0,0,94.56,121.8c-1.383,3.054-2.988,5.718-6.785,6.355-2.822.47-7.232-2.093-5.507-5.257ZM48.914,134.509c-.331-2.851,1.412-6.3,2.659-8.74,1.157-2.267,3.835-6.86,7.02-5.577a1.133,1.133,0,0,0,1.261-.241c1.985.548,4,1,6.007,1.384.473.091.95.175,1.429.257a1.185,1.185,0,0,0-.41.68c-1.6,7.139-3.024,14.387-4.212,21.665C57.638,148.479,49.511,139.652,48.914,134.509ZM62.68,168.16c.132-1.363-.135-2.843-.1-4.222a65.549,65.549,0,0,1,.782-7.693q.817-5.687,1.714-11.37c.1-.118.2-.229.3-.355a1.16,1.16,0,0,0-.007-1.447c1.114-6.849,2.364-13.675,3.881-20.44a1.078,1.078,0,0,0-.072-.733,88.012,88.012,0,0,0,10.5.961c-1.359,4,2.856,7.092,6.62,7.651,6.163.916,9.049-4.63,11.143-9.319.129-.03.259-.055.386-.089q.692-.17,1.377-.363a1.191,1.191,0,0,0,.049.183,126.784,126.784,0,0,1,6.144,24.127c.694,4.157,1.426,8.306,2.107,12.468.336,2.049.585,4.1.824,6.166.173,1.485,1.33,3.091.836,4.609-.008.027-.01.054-.016.08a7.729,7.729,0,0,0-1.142.442,1.239,1.239,0,0,0-.625,1.571,55.451,55.451,0,0,1-9.948,2.29c-8.375,1.282-16.787,2.494-25.275,2.571a33.254,33.254,0,0,1-7.5-.442c-.349-.079-1.333-.157-1.508-.543a10.955,10.955,0,0,1-.6-2.737A15.079,15.079,0,0,1,62.68,168.16Zm32.679,21.994c-.094-.158-.2-.318-.317-.479A1.2,1.2,0,0,0,93.1,191.07c2.126,2.862-4.163,5.554-6.069,6.256-5.63,2.064-8.678-2.938-10.846-7.347a1.216,1.216,0,0,0-1.813-.545,23.326,23.326,0,0,0-3.61,3.358,14.173,14.173,0,0,1-4.933,3.44c-3.821,1.674-7.794.094-10.694-2.56-2.864-2.62-5.66-6.6-3.975-10.526a17.1,17.1,0,0,1,3.548-4.669c1.055-1.118,3.01-3.433,4.749-2.287a1.3,1.3,0,0,0,1.834-.454,3.585,3.585,0,0,0,2.068,1.2,34.414,34.414,0,0,0,8.327.688c9.388.08,18.839-1.333,28.081-2.905,2.266-.385,9.337-1.323,11.688-4.066,1.241.154,2.459.678,3.781.957a9.6,9.6,0,0,0,4.638-.708,20.163,20.163,0,0,1,2.812-1.091c.646-.127,1.215,1.56,1.44,1.975a22.926,22.926,0,0,1,2.569,6.991c.63,3.586,0,10.9-4.511,11.865-3.156.672-6.831-2.527-9.524-3.766a1.208,1.208,0,0,0-1.67.916c-.473,3.175-1.351,6.448-4.54,7.866C101.743,197.751,97.79,193.753,95.359,190.154Zm23.087,43.221a16.118,16.118,0,0,1-3.7-.786c-1.613-.494-12.6-4.774-10.955-7.669a1.2,1.2,0,0,0,1.293.962c5-.46,12.3-.333,15.526,4.224C121.979,232.049,120.531,233.5,118.446,233.376Z" stroke="#000" stroke-miterlimit="10" stroke-width="1.5"/><path d="M18.625,130.517c.561-1.432-1.621-2.413-2.185-.975-.3.774-.54,1.564-.878,2.326a10.3,10.3,0,0,1-.271-1.344c-.335-2.061-.175-4.189-.54-6.236A27.066,27.066,0,0,1,14.8,119.5c.029-2.226.092-4.449.228-6.669a36.589,36.589,0,0,1,2.55-12.251,1.2,1.2,0,0,0-2.185-.976c-2.032,4.74-2.609,9.864-2.843,14.972a114.015,114.015,0,0,0-.023,11.722c.135,2.3-.138,6.244,1.692,8C16.6,136.58,18.04,132.011,18.625,130.517Z" stroke="#000" stroke-miterlimit="10" stroke-width="1.5"/><path d="M30.95,130.776c.239-.8.193-1.642.43-2.428a1.333,1.333,0,0,0-.966-1.657c-.038-.508-.07-1.012-.11-1.5-.185-2.284-.281-4.575-.38-6.864-.083-1.967-.149-3.936-.27-5.9-.056-.9.009-2.131-.707-2.8-1.13-1.056-2.641.8-1.52,1.848-.523-.489-.3-.5-.225.242s.105,1.46.143,2.192c.1,1.995.171,3.988.26,5.985.155,3.47-.036,7.5,1.137,10.821C29.061,131.622,30.642,131.8,30.95,130.776Z" stroke="#000" stroke-miterlimit="10" stroke-width="1.5"/><path d="M44.776,125.808a29.7,29.7,0,0,0-1.754-7.352c-.786-2.339-1.8-5.28-3.816-6.869-1.212-.956-2.732.893-1.521,1.849,1.679,1.324,2.427,3.942,3.1,5.877A26.01,26.01,0,0,1,42.4,126.07C42.5,127.609,44.876,127.346,44.776,125.808Z" stroke="#000" stroke-miterlimit="10" stroke-width="1.5"/><path d="M136.959,115.864c-.056-4.81-2.456-9.175-4.227-13.526-1.555-3.821-1.111-8.294-4.028-11.582-1.016-1.145-2.967.242-1.946,1.392,2.731,3.08,2.323,7.43,3.74,11.044,1.23,3.138,2.866,6.213,3.64,9.5a1.319,1.319,0,0,0-1.036,1.934c.449.8,1.251,1.276,1.7,2.068C135.451,117.852,136.972,116.92,136.959,115.864Z"/><path d="M100.761,99.064C94.512,112.558,71.29,112.669,66,98.341a1.2,1.2,0,0,0-2.234.856c6.028,16.311,32.073,16.2,39.184.841A1.2,1.2,0,0,0,100.761,99.064Z" stroke="#000" stroke-miterlimit="10" stroke-width="1.5"/><path d="M70.684,89.3a2.792,2.792,0,0,1,.079-1.088,10.9,10.9,0,0,0,.118-1.833,1.2,1.2,0,0,0-1.319-1.059A1.22,1.22,0,0,0,68.5,86.641c.025,1.2-.433,2.328-.055,3.514C68.919,91.629,71.151,90.766,70.684,89.3Z" stroke="#000" stroke-miterlimit="10" stroke-width="1.5"/><path d="M103.114,84.127a11.146,11.146,0,0,1-.348-3.164c-.069-1.541-2.446-1.277-2.378.258a13.028,13.028,0,0,0,.492,3.76C101.393,86.439,103.624,85.58,103.114,84.127Z" stroke="#000" stroke-miterlimit="10" stroke-width="1.5"/></g></svg>