<svg xmlns="http://www.w3.org/2000/svg" viewBox="0 0 118.92548 78.64202">
  <title>Recurso 5</title>
  <g id="Capa_2" data-name="Capa 2">
    <g id="Editar">
      <g>
        <path d="M39.48165,57.89812a2.00088,2.00088,0,0,0-1.9648-1.4961,8.25832,8.25832,0,0,0-5.6094,3.4131,5.32164,5.32164,0,0,0-3.001.6377c-.038.0224-.0712.0449-.1084.0673a4.91162,4.91162,0,0,0-3.9257-.7294,19.18811,19.18811,0,0,0-.6055-3.7276c-1.3672-4.9697-7.7051-4.2568-9.3584,0-.2275.583-.4346,1.1709-.6357,1.7627a4.05848,4.05848,0,0,0-3.0098-.1562,10.05,10.05,0,0,0-3.7276,2.3574,13.439,13.439,0,0,0-1.3447-3.8272c-2.0664-3.8457-7.7031-.4629-5.8066,3.3936,1.2324,2.5078.3769,5.4453.1377,8.082A12.89235,12.89235,0,0,0,2.07935,74.86a4.55686,4.55686,0,0,0,5.1328,2.0908,7.40449,7.40449,0,0,0,2.5801-1.2871c1.3984,2.3125,4.3662,3.6055,6.9668,1.9043.1035-.0684.1894-.1445.289-.2129a4.45766,4.45766,0,0,0,5.795.3955,12.82086,12.82086,0,0,0,1.8867-1.6142,5.0295,5.0295,0,0,0,5.1269-.0977,13.47946,13.47946,0,0,0,1.8907-1.6348,4.86587,4.86587,0,0,0,4.7949-2.4902C38.69655,67.85122,40.21415,62.443,39.48165,57.89812Z" fill="#bccf00"/>
        <path d="M35.47585,53.85022a1.19747,1.19747,0,0,0-1.1895-.3154,13.3381,13.3381,0,0,0-4.8828,3.1289c-1.8984,1.7422-4.1894,5.1797-7.0273,5.4414-.0586-4.0918-.461-8.0547-2.6016-11.6758a1.23462,1.23462,0,0,0-1.6719-.4375c-4.4824,2.6446-4.6455,8.0821-7.834,11.5059-1.9267-2.4512-3.248-5.3135-5.3535-7.6475a1.24171,1.24171,0,0,0-1.4824-.1904c-4.9355,2.3574-3.1094,11.4629-3.0488,15.7227a1.2228,1.2228,0,0,0,2.4443,0c-.042-2.9434-1.4336-10.4131,1.0313-12.9961,1.9716,2.4736,3.3037,5.3818,5.4384,7.748a1.24091,1.24091,0,0,0,1.7286,0c3.6796-2.8935,3.7822-8.3144,7.2636-11.2725,1.5235,3.2647,1.6446,6.7901,1.6514,10.4092a1.215,1.215,0,0,0,.8975,1.1787c4.1953.6289,6.9062-2.666,9.6074-5.3896a17.75848,17.75848,0,0,1,3.2754-2.6797c1.5849-.9814,1.1152,5.2842,1.0849,5.4961-.4013,2.9346-1.292,5.7539-1.4179,8.7285-.0674,1.5781,2.3779,1.5713,2.4443,0C36.06955,65.07,39.52175,58.73112,35.47585,53.85022Z" fill="#000100"/>
      </g>
      <g>
        <path d="M118.63115,45.93522a3.15143,3.15143,0,0,0-3.0987-2.3594,13.01918,13.01918,0,0,0-8.8437,5.3809,8.3813,8.3813,0,0,0-4.7315,1.0058c-.0605.0352-.1123.0703-.1709.1055a7.74194,7.74194,0,0,0-6.1904-1.1494,30.15191,30.15191,0,0,0-.9541-5.8779c-2.1563-7.836-12.1484-6.711-14.7559,0-.3574.9179-.6855,1.8476-1.0019,2.7783a6.4116,6.4116,0,0,0-4.7471-.2461,15.88832,15.88832,0,0,0-5.876,3.7178,21.118,21.118,0,0,0-2.1211-6.0342c-3.2578-6.0635-12.1445-.7305-9.1543,5.3506,1.9434,3.9531.5948,8.5859.2168,12.7422a20.34155,20.34155,0,0,0,2.4551,11.33,7.18688,7.18688,0,0,0,8.0938,3.295,11.64757,11.64757,0,0,0,4.0664-2.0274c2.2051,3.6465,6.8867,5.6836,10.9873,3.002.1631-.1084.2988-.2286.4541-.337a7.03032,7.03032,0,0,0,9.1387.625,20.426,20.426,0,0,0,2.9746-2.5449c2.5068,1.2998,5.8398,1.4932,8.0839-.1552a21.23816,21.23816,0,0,0,2.9795-2.5782,7.67188,7.67188,0,0,0,7.5616-3.9258C117.39575,61.62852,119.78635,53.10022,118.63115,45.93522Z" fill="#bccf00"/>
        <path d="M112.31565,39.55242a1.88517,1.88517,0,0,0-1.8769-.4981,21.03065,21.03065,0,0,0-7.6983,4.9326c-2.9912,2.7481-6.6064,8.167-11.0781,8.5811-.0947-6.4531-.7275-12.6992-4.1025-18.4102a1.94636,1.94636,0,0,0-2.6377-.6894c-7.0664,4.1689-7.3233,12.7422-12.3526,18.1406-3.0371-3.8652-5.1191-8.3769-8.4394-12.0566a1.95775,1.95775,0,0,0-2.3369-.3018c-7.7832,3.7178-4.9043,18.0752-4.8096,24.792.0351,2.4844,3.8906,2.4873,3.8555,0-.0664-4.6406-2.2598-16.4189,1.6269-20.4922,3.1084,3.9004,5.207,8.4854,8.5742,12.2168a1.95877,1.95877,0,0,0,2.7266,0c5.8008-4.5625,5.9629-13.1103,11.4521-17.7734,2.4014,5.1474,2.5928,10.707,2.6036,16.4121a1.9177,1.9177,0,0,0,1.415,1.8594c6.6152.9902,10.8906-4.2041,15.1484-8.4981a28.03243,28.03243,0,0,1,5.1631-4.2265c2.5-1.5469,1.7588,8.332,1.7119,8.666-.6328,4.6279-2.0371,9.0722-2.2363,13.7636-.1064,2.4864,3.75,2.4766,3.8555,0C113.25125,57.24092,118.69555,47.24772,112.31565,39.55242Z" fill="#000100"/>
      </g>
      <g>
        <path d="M62.215,20.484c.3116-.5547.6895-.8984.5684-1.3691a17.35641,17.35641,0,0,0,.5508-1.8281,24.29686,24.29686,0,0,0,3.1045-3.129c1.706-2.1914-.9756-5.0585-3.0869-3.0703-.0459.044-.0704.1016-.1163.1446a8.99872,8.99872,0,0,0-1.8339-3.6446c-2.8077-3.2392-8.1407-.4863-10.46,2.5371a1.83256,1.83256,0,0,0-.5859.2832,37.64032,37.64032,0,0,0-6.2461,5.9883,13.72255,13.72255,0,0,0-.9493,1.2403,2.418,2.418,0,0,0-1.6416-1.2422c.2247-.3047.4102-.5616.5127-.7324a1.91823,1.91823,0,0,0-.5908-2.7442,6.66073,6.66073,0,0,0,.3916-.9189,1.95563,1.95563,0,0,0-1.3935-2.5166,1.94467,1.94467,0,0,0,.1709-.92,14.52619,14.52619,0,0,0,1.2685-1.6289,1.91033,1.91033,0,0,0,.1299-1.8457,2.37137,2.37137,0,0,0-3.8535-1.6308,11.20284,11.20284,0,0,0-2.0488,2.3554,16.32647,16.32647,0,0,0-2.7793,3.5332,2.13735,2.13735,0,0,0,.4843,2.6895,6.53887,6.53887,0,0,0-.2851.9727,2.188,2.188,0,0,0,.5898,2.0898,4.4224,4.4224,0,0,0,.7266.4863,6.59676,6.59676,0,0,0-.3516.8448,2.13105,2.13105,0,0,0,.7471,2.2177,4.27258,4.27258,0,0,0-.0703,2.874,2.30862,2.30862,0,0,0,2.4189,1.5967,3.75541,3.75541,0,0,0,.7168,2.7149,2.4138,2.4138,0,0,0,2.1055,1.0625,2.19625,2.19625,0,0,0,2.581,1.1679l.0147-.0078c-.1553.2852-.3105.5694-.4688.8516a2.22015,2.22015,0,0,0,1.3926,3.2109,4.84725,4.84725,0,0,0,3.3477-.5117,2.19179,2.19179,0,0,0,2.2187,1.9336c2.7246-.3125,3.8672-2.2256,5.7618-3.9941a52.95429,52.95429,0,0,0,5.5771-6.3946c.3027-.1797.2441-.6328.4609-1.0215Zm-3.2578-4.8867c-1.3867,1.1611-2.8437,2.2441-4.3183,3.3262,1.5009-1.6367,3.0498-3.2285,4.6172-4.7969.0253.3672.0332.7412.0253,1.1172C59.17215,15.361,59.06665,15.48012,58.95725,15.59732Z" fill="#e2023f"/>
        <path d="M48.14673,13.618c.917-5.5505,7.22087-8.13525,12.327-6.6223C66.711,8.84377,66.53813,15.4839,63.52629,20.048,58.2836,27.99268,44.8771,36.33178,35.0209,34.48894c-1.95563-.36565-2.79384,2.63013-.8265,2.998,7.13339,1.33375,14.76025-1.97246,20.72594-5.62751,5.84006-3.57808,12.85-9.21408,13.806-16.49768C70.62038.93037,47.33895-.46608,45.14877,12.79147c-.32334,1.95722,2.6721,2.799,2.998.8265Z" fill="#1d1d1b"/>
        <path d="M45.35812,16.11631C49.5309,9.68163,42.66644-4.03819,34.414,1.14563c-5.15118,3.23575-5.03847,11.31065-3.71928,16.42157,2.17911,8.4425,7.9454,15.63829,13.66823,21.99843,1.34116,1.49051,3.53413-.71394,2.19841-2.19841C39.92341,29.99,30.13751,18.36925,33.65683,7.59278c3.13217-9.591,13.2611.40927,9.01674,6.95435-1.09183,1.68367,1.5986,3.24378,2.68455,1.56918Z" fill="#1d1d1b"/>
      </g>
    </g>
  </g>
</svg>
