<svg xmlns="http://www.w3.org/2000/svg" viewBox="0 0 170.9102 204.28682">
  <title>Recurso 3</title>
  <g id="Capa_2" data-name="Capa 2">
    <g id="Editar">
      <g>
        <path d="M125.8691,110.43712c-1.059-2.3682-.2671-7.4873,1.3687-9.1602.4077-.416.8501-.3125,1.2905-.3008,2.0357.0528,4.0723.1397,6.10891.2022a1.83555,1.83555,0,0,1,1.62989.6992c1.5727,2.1455,3.2256,4.2334,4.7705,6.3975.9375,1.3125-.125,2.5468-.4263,3.7646-.91009,3.6582-.9609,3.6465-4.6699,3.9912a3.523,3.523,0,0,0-.70119.0498c-4.16741,1.3164-6.62011-.8418-8.49751-4.1767C126.0293,111.66562,126.2334,110.88242,125.8691,110.43712Z" fill="#fefefe" fill-rule="evenodd"/>
        <g>
          <path d="M46.3799,103.108s4.3828,1.7197,15.3266,1.6855a36.13451,36.13451,0,0,0,18.7671-5.4404l4.8565,7.3721,6.51611,12.746s-15.76661,3.6055-19.13671,4.8018c-3.3697,1.1963-24.3228,8.0098-24.3228,8.0098s-6.0596-12.8389-3.3594-24.3379C45.0273,107.94492,45.7427,103.38342,46.3799,103.108Z" fill="#ee7130" fill-rule="evenodd"/>
          <path d="M66.8115,126.46732s22.543-7.3037,24.1978-6.288a2.75365,2.75365,0,0,1,1.5796,2.2744s8.65231,1.3105,8.5849,4.6152c-.0688,3.3018-4.1767,22.4219-7.0053,23.1377-2.8267.7158-1.74029-3.7695-20.6832-1.7441,0,0-9.1059,4.5888-14.4677.3593-5.35939-4.2295-8.1861-2.8838-10.8037-10.1865,0,0-1.981-5.1055,1.1596-6.1367C52.5166,131.46642,66.8115,126.46732,66.8115,126.46732Z" fill="#4262f8" fill-rule="evenodd"/>
          <path d="M71.9648,3.88632c.2383,1.667.4766,3.331.7403,5.1738,4.0117-3.6631,8.1494-7.1728,13.7939-4.1777,5.0537,2.6826,4.99421,7.6709,4.5435,13.1494a7.55518,7.55518,0,0,1,7.17871-1.665,11.987,11.987,0,0,1,4.83539,4.8427c2.0747,2.4571,2.2251,5.4033,1.7823,8.3301-.2544,1.6914-.1949,2.8272,1.5566,3.5039a3.21267,3.21267,0,0,1,1.6069,1.6289,5.19324,5.19324,0,0,1-.3369,5.5156,1.97773,1.97773,0,0,0,.3189,2.8555,8.71437,8.71437,0,0,1,2.58881,4.333,6.01676,6.01676,0,0,1-.42871,3.9795c-1.1079,2.2344-3.1884,3.125-5.4087,3.6084a3.65614,3.65614,0,0,0-3.1655,2.6045,12.11617,12.11617,0,0,1-1.8467,2.1846,6.83551,6.83551,0,0,1-7.3628.247,4.42672,4.42672,0,0,0-3.4121-.289c-5.24949,1.2236-8.2871-.9707-8.6137-6.251-.0699-1.123-.3311-1.5342-1.5-1.4189-2.3716.2363-4.7144.1953-6.7901-1.2696-.6279-.4443-1.1162-.124-1.6504.3457-5.3071,4.6807-9.5727,4.7588-14.9692.3145-2.9673,5.1308-6.9424,6.7793-12.8828,5.2295a2.09436,2.09436,0,0,0-2.7427,1.0556c-2.4702,4.3594-6.3774,5.8614-11.1489,5.3438-1.6988-.1846-2.7901.1719-3.61969,1.7568-1.12541,2.1465-3.207,3.1455-5.42381,3.8682a7.29451,7.29451,0,0,1-1.5288.1504c-2.25239-.0127-4.5962.3379-6.3569-1.6123-2.0996-1.4903-4.376-2.8252-5.3321-5.4229a8.86721,8.86721,0,0,1,1.7618-9.5195,7.12079,7.12079,0,0,1-7.3755-4.0264c-.9605-1.7588-.4654-3.6455-.7759-5.4521,1.9888-6.3203,3.2241-7.9951,8.9849-9.1699.2109-.6788-.313-1.1475-.5386-1.6866a11.266,11.266,0,0,1,7.0923-14.6757,7.53573,7.53573,0,0,1,6.5537.7109c.6601.4326,1.0132.6328,1.6714-.1904,4.1924-5.2481,7.8144-5.8409,14.061-2.2823-.4561-6.1972,1.7559-10.9795,7.6314-13.1904,4.3139-1.623,7.9912-.0322,10.8496,4.0029a8.62892,8.62892,0,0,1,7.268-6.1787C67.1509-.40958,70.0791.59722,71.9648,3.88632Z" fill="#3c3c3b" fill-rule="evenodd"/>
          <path d="M76.5537,181.71732c1.1738,5.0518,3.0718,10.1182-.2358,15.1016-1.458,1.4258-2.9825,2.6377-3.69969,4.8281-.71781,2.1846-3.01911,2.6914-5.28761,2.6358a25.45474,25.45474,0,0,1-4.3311-.9366c-2.8037-.3203-4.8579-2.08-6.9072-3.746a45.02786,45.02786,0,0,1-8.7359-8.8223,96.09306,96.09306,0,0,1-7.1108-9.8994c-.352-1.0186-.791-2.0127-1.0376-3.0547-.57179-2.4151.2695-3.875,2.6421-4.5791.4653-.1387.9077-.1377,1.0659-.6748.667-2.2705,2.4644-3.708,3.9429-5.3828,2.3037-3.084,6.0586-3.8594,10.0014-1.7139a4.97358,4.97358,0,0,0,5.0318.2529,4.87953,4.87953,0,0,1,2.5205.2813,5.036,5.036,0,0,1,3.481,2.9258,4.12323,4.12323,0,0,0,2.0239,2.6972c2.8955,2.0157,4.688,4.9336,6.1885,8.0537A13.23241,13.23241,0,0,1,76.5537,181.71732Z" fill="#3c3c3b" fill-rule="evenodd"/>
          <path d="M19.6968,68.20862c2.4463-1.1495,4.7705-2.4307,5.6347-5.2696.2774-.9053.8619-.8623,1.6621-.707,6.43661,1.2412,9.7217-.251,12.7959-5.8809.49371-.9052.856-1.0849,1.7808-.665a9.64787,9.64787,0,0,0,5.71291.9658c3.84179-.667,6.75439-2.4463,7.82569-6.7695,2.0864,2.7236,4.5586,4.3095,7.9819,4.1562,2.9502-.1347,5.3838-1.1416,6.9917-3.6338.7656-1.1855,1.2149-1.038,2.1904-.2451,2.6534,2.1592,5.71831,1.4971,8.63631.8701.47019.5723.10449,1.0215.05949,1.4571-.56249,5.4951,3.3541,8.5429,8.44051,6.4482a2.2909,2.2909,0,0,1,2.54929.1514,6.02892,6.02892,0,0,0,6.6455.5527,1.3188,1.3188,0,0,1,1.1255-.0674,1.77437,1.77437,0,0,1,.6372,1.4522c1.2642,15.3174-4.3897,29.3437-18.3936,37.4512-1.0156.6171-2.06689,1.1718-3.1294,1.7041a56.79533,56.79533,0,0,1-6.2924,2.3007c-1.0498.4268-2.1524.6924-3.2227,1.0616-4.7202,1.4736-9.5845.9394-14.4009,1.0586-3.9497-.128-7.6723-1.3291-11.4179-2.4102-1.45559-.6152-2.815-1.4385-4.3052-1.9854-5.3135-3.0039-10.148-6.5683-13.5737-11.7548a39.25875,39.25875,0,0,1-6.3946-19.2237A1.07436,1.07436,0,0,1,19.6968,68.20862Z" fill="#ffdbba" fill-rule="evenodd"/>
          <path d="M54.2539,44.83942a7.88465,7.88465,0,0,0-3.9404-3.7822,5.55869,5.55869,0,0,0-6.3902,1.7031,4.832,4.832,0,0,0-.22309,5.7256,3.26087,3.26087,0,0,0,5.373.6328c.38289-.4014.85309-.8467.46539-1.4228-.3941-.5899-.9419-.4415-1.4053,0-.66109.6298-1.333.8066-2.0513.0937a3.62661,3.62661,0,0,1-1.04679-3.666,1.91242,1.91242,0,0,1,1.93839-1.4209c2.6934-.2129,5.3638,2.1494,6.0034,5.3203a5.35092,5.35092,0,0,1-3.8007,6.1914c-5.4444,1.5576-10.7408-2.1318-10.3658-7.1973a2.78108,2.78108,0,0,1,.6329-1.9726c2.9843-2.3233,2.7002-6.1436,4.3222-9.0674,3.6651,3.5371,6.2451,4.2764,10.0645,2.4014,3.9082-1.919,7.018-4.6309,6.7094-9.5449-.0825-1.3311.2544-1.4786,1.49371-1.4415,3.43509.0967,5.96089-1.9443,6.46089-4.9619a3.84283,3.84283,0,0,0-3.1796-4.6982c-1.7618-.2637-4.4917,1.7012-4.74029,3.4824A3.67688,3.67688,0,0,0,60.792,22.815c.1914.5879.5005,1.3301,1.2695,1.1084a1.19753,1.19753,0,0,0,.7969-1.7051c-.7485-1.5264.0757-2.1133,1.3262-2.2187a2.0705,2.0705,0,0,1,2.3701,2.081,2.74873,2.74873,0,0,1-1.9556,2.9033c-3.00489,1.1612-7.29389-1.2695-7.897-4.4668-.5835-3.083,1.4292-5.082,4.899-4.8623a27.74464,27.74464,0,0,0,8.0175-1.2402c-.4565,2.7744.0157,5.2227,2.2315,7.0488.7266.5967,1.5415,1.3213,2.4277.2657.8628-1.0303-.16059-1.5098-.727-2.0938a5.7303,5.7303,0,0,1-.9375-7.2871A13.90066,13.90066,0,0,1,75.27,9.063c3.2417-3.0459,6.9185-3.8427,9.8364-2.0937a9.43082,9.43082,0,0,1,3.8789,10.5176,10.54189,10.54189,0,0,1-1.1909,2.8008,4.36577,4.36577,0,0,1-6.2021,1.1796c-2.2476-1.6875-2.9375-5.333-1.3408-7.1005,1.2793-1.417,2.1591-1.2686,2.8711.5185.2187.5488.1225,1.4072,1.0878,1.1133a1.37344,1.37344,0,0,0,1.0821-1.6025c-.2212-1.1456-.4234-2.3311-1.6001-3.0049a3.01134,3.01134,0,0,0-3.32419.3105c-2.29691,1.459-3.01761,3.6651-2.93171,6.2783a6.90826,6.90826,0,0,0,4.3946,6.3741c-5.1968,4.1474-6.066,6.7587-3.67489,11.4189-3.81681.3301-5.85441,2.8721-7.42481,6.1758a7.53111,7.53111,0,0,0-4.8071-3.7412c-2.1182-.585-2.76709-4.8233-1.332-7.3086a6.72157,6.72157,0,0,1,6.3076-2.874,3.50462,3.50462,0,0,1,2.8882,4.1601,3.29962,3.29962,0,0,1-3.6973,2.8477c-.79-.0782-1.4741-.3477-1.4682-1.1973.0078-.9639.8491-.7129,1.4301-.6816.95851.0517,1.9029-.0733,1.7788-1.2598a1.81493,1.81493,0,0,0-2.2534-1.5586c-2.081.2568-2.8364,1.9326-3.1518,3.6445-.2886,1.5733.6811,2.6612,2.2143,3.1641,1.9922.6514,4.3291-.2734,5.9624-2.3613a5.756,5.756,0,0,0,.6133-6.8018,5.07477,5.07477,0,0,0-5.5693-2.1318c-6.1573,1.1455-9.1372,6.375-7.0855,12.3584a1.21819,1.21819,0,0,1-.4082,1.5898,7.3925,7.3925,0,0,0-1.915,2.3594,3.25728,3.25728,0,0,0,.73,4.2685c1.5712,1.3086,3.5073,1.2051,5.3754.6651a.91769.91769,0,0,0,.5079-1.1797c-.1353-.4365-.5171-.542-.9385-.5264-.313.0118-.6284.0186-.9424.0235a2.81234,2.81234,0,0,1-2.9434-1.5108,1.76963,1.76963,0,0,1,.5606-2.1299,3.41892,3.41892,0,0,1,3.4599-.9257c2.3292.7246,2.8702,2.7148,3.3047,4.75a4.663,4.663,0,0,1-1.5737,4.8838,7.21488,7.21488,0,0,1-8.3945.2275,6.30154,6.30154,0,0,1-2.8355-7.127c.2862-1.2168.7241-2.3984,1.0796-3.5986.1533-.5215.3989-1.1543-.2524-1.4443-.6324-.2823-1.0254.2802-1.2857.7529C55.1758,40.938,54.8936,42.815,54.2539,44.83942Z" fill="#575756" fill-rule="evenodd"/>
          <path d="M54.167,20.54742c1.1255,1.9756.7334,2.6172-1.5762,2.832-4.1055.379-6.9253,4.8243-5.6792,8.3975.728,2.0889,2.3843,3.2354,4.2407,2.9277a4.90631,4.90631,0,0,0,3.73-4.5498c-.021-.6513-.0986-1.2949-.7817-1.5888a2.125,2.125,0,0,0-2.2422.1777c-.5649.4775-1.2334,1.4531.0322,1.7529.87361.208,1.1211.2403.668,1.0655-.458.8369-.9692,1.4277-2.0459.9033a3.46592,3.46592,0,0,1-1.1094-5.3809,5.43142,5.43142,0,0,1,6.4805-.9736,4.81891,4.81891,0,0,1,2.2881,6.0195,8.13674,8.13674,0,0,1-8.5689,4.8653c-2.7397-.4659-5.8091-4.1455-5.92579-7.1875a4.43772,4.43772,0,0,1,1.60889-3.7549c.51611-.4336,1.3116-.9785.5938-1.6914-.6499-.6436-1.2959.0674-1.8428.4814-1.3115.9971-1.7788,2.541-2.4243,3.9014-.5581.1328-.70359-.3399-1.01759-.5059-1.96681-1.0508-2.64551-2.2812-1.03511-4.2949a4.687,4.687,0,0,0,.6352-3.1797c-.0508-.8818-.415-1.7783.7183-2.459.82661-.4951.3911-1.375-.0469-2.0859-3.1772-5.1602,1.1406-10.9072,5.5063-12.0947a6.25168,6.25168,0,0,1,5.3916.917,9.52246,9.52246,0,0,1,2.5171,12.583c-1.5542,2.3838-4.7109,3.4521-6.9848,2.3593-1.9141-.9199-2.7281-3.5605-1.9004-5.9472.3818-1.1045,1.019-1.7881,2.227-1.6524a2.31931,2.31931,0,0,1,2.0733,1.9502c.1675.6582-.3589,1.8907.9077,1.7559,1.28271-.1328,1.43071-1.2891,1.3218-2.374-.3267-3.2842-3.2349-4.67-5.99809-2.8731a7.1935,7.1935,0,0,0-2.12251,9.044c1.4257,2.5117,5.146,3.4082,8.1699,1.9414C52.6758,21.48882,53.3232,21.04452,54.167,20.54742Z" fill="#575756" fill-rule="evenodd"/>
          <path d="M12.0312,50.38632c.61239-.7031.67189-1.6475,1.85449-.7949,4.376,3.1474,11.25351,1.0244,13.6099-4.1094.3164-.6914.5571-1.419.9399-2.4043,2.5625,3.2617,5.6163,2.8398,9.0581,1.2861-.8608,3.4258-.8881,6.3389.9913,9.1035.7221,1.0616-1.1172,4.5293-2.7852,5.5957a8.50506,8.50506,0,0,1-8.7314.6934,5.09733,5.09733,0,0,1-2.1309-7.0205,3.4368,3.4368,0,0,1,4.6914-1.2676,3.946,3.946,0,0,1,1.75,4.6729,1.499,1.499,0,0,1-2.3437.6963,1.30478,1.30478,0,0,0-2.0782.7558c-.3091,1.1797.8326,1.3555,1.6231,1.5469a4.07911,4.07911,0,0,0,4.8574-2.7383,5.60881,5.60881,0,0,0-1.9976-6.6709,4.971,4.971,0,0,0-5.9419.1065,7.3008,7.3008,0,0,0-3.2915,6.6191,6.546,6.546,0,0,0,.7793,2.6865c1.8614,3.5908-.3437,7.2237-4.4931,7.0606a12.28188,12.28188,0,0,1-8.96439-4.1035,6.56811,6.56811,0,0,1-1.06-7.2295,3.7095,3.7095,0,0,1,4.77049-1.8575,4.62346,4.62346,0,0,1,2.666,5.2227c-.35549,1.0898-1.0327,1.4004-1.9258.6074a1.13366,1.13366,0,0,0-1.95069.208c-.56151.791-.02051,1.2998.50439,1.8086,1.3892,1.3428,3.0235,1.1621,4.1973-.4697C19.5249,56.36772,17.4365,51.55332,12.0312,50.38632Z" fill="#575756" fill-rule="evenodd"/>
          <path d="M89.877,31.17342c-1.9874-4.1162-5.4419-3.5684-7.1773-1.0742a3.31069,3.31069,0,0,0-.4722,2.6963,1.39379,1.39379,0,0,0,1.937,1.1699c.8814-.3408,1.4073-1.0645.3819-1.9385a.72045.72045,0,0,1-.0415-1.2002,1.3326,1.3326,0,0,1,1.50731-.333,2.612,2.612,0,0,1,1.91849,2.1582,2.50329,2.50329,0,0,1-1.5313,2.8828,5.18888,5.18888,0,0,1-5.8901-1.0332,4.3553,4.3553,0,0,1-1.2002-5.1308,4.23115,4.23115,0,0,1,4.5713-2.9327,8.49793,8.49793,0,0,0,1.8706.003c.7368-.1494,1.5859-.876.98-1.4492-2.1929-2.0684.9018-1.1807.78021-2.0489.877.7266-.62791,2.0811.77149,2.2276.9409.0986,1.271-.9766,1.5108-1.8448a7.65851,7.65851,0,0,1,.6381-1.5156c2.2261-4.2519,6.814-4.6348,9.6968-.7744,2.1763,2.9131,2.4346,6.3105,1.7881,9.6826-.4014,2.0918-2.1035,3.2549-4.353,3.252-2.1114-.0039-4.4634-1.6631-4.9058-3.4082a3.31028,3.31028,0,0,1,2.2764-4.0723,1.9328,1.9328,0,0,1,2.07911.7822c.60149.835-.01861,1.2207-.65141,1.6533-.5107.3497-1.0644.92-.5957,1.5489.4287.5752,1.2149.3691,1.7422.0537,1.5508-.9219,2.48391-2.2373,1.8706-4.1143-.6074-1.8701-1.981-2.5263-3.88569-2.083-3.41121.792-5.17141,3.1299-5.128,6.8145A.32455.32455,0,0,1,89.877,31.17342Z" fill="#575756" fill-rule="evenodd"/>
          <path d="M23.7476,27.71542c2.1958,1.8242,2.2534,3.0537.5571,5.0176-.4321.5-.7612.3369-1.21049.2011a7.03749,7.03749,0,0,0-6.57661,1.3418,2.398,2.398,0,0,1-3.2471-.0273c-2.4404-2.2676-4.2832-4.9863-3.6382-8.4639.6192-3.3369,2.9287-5.4658,6.1607-6.4678,2.563-.7919,5.206.1407,6.1836,2.0508,1.3261,2.5938.6865,6.458-1.3262,7.9981a3.44467,3.44467,0,0,1-4.9468-.7764c-.3403-.6289-.6763-1.3623-.2187-1.9971.559-.7773.8696.2198,1.3169.3399a1.18678,1.18678,0,0,0,1.5356-1.0469,1.76135,1.76135,0,0,0-1.3521-1.9502c-1.2333-.3848-2.0957.2959-2.767,1.2686a4.58157,4.58157,0,0,0,.5205,6.0009,5.01666,5.01666,0,0,0,6.2807.2588A9.00193,9.00193,0,0,0,23.7476,27.71542Z" fill="#575756" fill-rule="evenodd"/>
          <path d="M27.7593,37.27892c-2.625-3.7354-1.7354-6.1143,1.9023-7.9786,3.3745-1.7275,6.3384-1.5097,9.1651.7764a6.83692,6.83692,0,0,1,2.2221,7.4668,7.42368,7.42368,0,0,1-5.6289,5.4834,4.22672,4.22672,0,0,1-4.9785-1.7363,6.627,6.627,0,0,1,.61181-7.2715c.86669-1.0723,1.84869-2.0469,3.38329-1.5313a3.43481,3.43481,0,0,1,2.5025,3.3213,2.26761,2.26761,0,0,1-2.0025-1.1504c-.3667-.4726-.5088-1.2519-1.373-.8222a1.6279,1.6279,0,0,0-.8531,1.5586,3.55235,3.55235,0,0,0,1.44,3.5039c1.4224.9258,2.5674.1172,3.6377-.6895a3.0749,3.0749,0,0,0,1.2436-3.5185c-.64549-2.0889-1.6631-4.0342-4.0332-4.4864-2.2431-.4287-3.8525.876-5.206,2.5079A10.348,10.348,0,0,0,27.7593,37.27892Z" fill="#575756" fill-rule="evenodd"/>
          <path d="M30.8535,15.32962a8.48037,8.48037,0,0,1,6.7534,4.2237,4.69489,4.69489,0,0,1-1.0854,5.9404,2.43218,2.43218,0,0,1-2.1856.5166c-1.07169-.1816-.65569-1.0859-.6992-1.7129a3.449,3.449,0,0,0-2.0757-3.1455,2.79637,2.79637,0,0,0-2.6914.3125,1.50752,1.50752,0,0,0-.7392,1.3799c.00681.5312.4585.5762.853.5019,1.1919-.2285,2.229-.1425,2.5913,1.2627a1.68732,1.68732,0,0,1-.854,2.0039c-1.1436.6133-2.2622,1.4004-3.7134.584-2.5215-1.417-3.3926-6.3466-1.4878-9.0351A6.63354,6.63354,0,0,1,30.8535,15.32962Z" fill="#575756" fill-rule="evenodd"/>
          <path d="M13.1548,41.94192a6.72454,6.72454,0,0,0-5.4282-2.08,3.15857,3.15857,0,0,0-2.62939,4.4912c.2588.5674.6142,1.2383,1.3681,1.0205a1.36173,1.36173,0,0,0,.8804-1.5059c-.0171-.624-.7676-1.4336.2637-1.832a2.65741,2.65741,0,0,1,2.42281.5781c1.83639,1.2188,2.67289,3.8692,1.75149,5.3164-1.2788,2.0137-4.7886,2.6768-6.9756,1.3213-1.9761-1.2246-3.1406-4.3847-2.6191-7.1074.6616-3.4395,2.6504-5.7705,5.2988-6.1699A6.76821,6.76821,0,0,1,13.103,37.857C14.1196,38.79062,13.0698,40.50252,13.1548,41.94192Z" fill="#575756" fill-rule="evenodd"/>
          <path d="M13.9961,44.23592c3.5347,3.0185,6.6108,2.9717,8.9604.0762a3.6771,3.6771,0,0,0,.8999-2.3623c.0093-1.3496.1363-2.8067-1.4887-3.3526-1.6416-.5498-2.6304.6885-3.62449,1.6533a1.04968,1.04968,0,0,0-.24081,1.4805c.5196.6143.9434.2266,1.3755-.165.5708-.5186,1.24031-1.3184,1.875-.2207a1.74563,1.74563,0,0,1-.5693,2.3066A3.37818,3.37818,0,0,1,15.981,42.522a4.94435,4.94435,0,0,1,1.6484-6.7939,5.17484,5.17484,0,0,1,6.9477,1.1787c1.7242,2.1006,2.3589,6.1269,1.0718,8.2187a8.45481,8.45481,0,0,1-7.247,4.1309C16.1436,49.32772,14.7686,47.69682,13.9961,44.23592Z" fill="#575756" fill-rule="evenodd"/>
          <path d="M96.376,58.09622c-2.6797-.0146-4.7451-1.9277-4.6206-4.2753.1157-2.2403,2.1606-3.7588,4.84181-3.4551.873.0986,1.41739-.126,1.63669-.8965.2671-.9365-.4448-1.1895-1.1646-1.4141-1.7138-.5322-3.0429.2617-4.3427,1.2012-.3633.2617-.6329.7813-1.1831.5781-.1524-.0566-.2706-.3808-.2911-.5918-.0571-.6484.4766-.7334.9239-.8437,2.728-.6651,4.6684-2.1475,5.3261-5.0156.1319-.5733.4986-.7325,1.0489-.4288.7221.3995.2246.7471-.0196,1.1055-.2671.3867-.5547.7627-.8208,1.1524a.78125.78125,0,0,0,1.1109,1.0869,7.60312,7.60312,0,0,0,.8437-.8184,4.03791,4.03791,0,0,1,4.8609-1.3105c1.8554.7129,3.7329,3.3672,3.6596,5.1298a2.88216,2.88216,0,0,1-2.249,2.6866c-1.4487.5107-2.8745.8642-4.2134-.2412a1.6843,1.6843,0,0,1-.46039-1.9366c.26119-.8554.73779-1.7285,1.65959-1.8183,1.0821-.1055,1.6021.4824.919,1.5742-.3618.5762-.6279,1.3486-.0205,1.6699.7314.3838,1.3091-.3515,1.6518-.958.7276-1.2822,1.2276-2.6641-.06689-3.8691-1.26951-1.1817-2.59571-.7637-3.84081.1504a1.90254,1.90254,0,0,0-.518.4795c-1.231,2.0654-2.38719,4.1289-4.9488,4.9609-.8183.2656-1.2749,1.3594-1.4511,2.3193a1.45659,1.45659,0,0,0,.5786,1.6641,1.11157,1.11157,0,0,0,1.3252.0049c.478-.3828,1.0371-.8633.5625-1.5635-.2637-.3897-.4009-.6992.0161-.9678a1.34137,1.34137,0,0,1,1.54731.0528,2.28957,2.28957,0,0,1,1.04979,2.6552C99.2734,57.87552,97.8794,58.11682,96.376,58.09622Z" fill="#575756" fill-rule="evenodd"/>
          <path d="M61.687,13.18412c-3.0166-1.8916-4.2515-5.6093-2.9424-8.0732,1.3091-2.4697,5.2173-3.709,8.085-2.5674,2.7305,1.0859,4.3257,4.5977,3.49361,7.6953a3.678,3.678,0,0,1-4.14211,2.6631c-1.9003-.4248-3.0673-1.5215-2.9448-3.6289a1.58663,1.58663,0,0,1,.6133-1.4473c.6445-.3886,1.041.1065,1.3882.503.5146.5869.9477,1.039,1.7056.2822.7436-.7451.44581-1.4424-.01519-2.1065-1.16991-1.6992-3.46341-1.6083-4.74951.2149A6.25231,6.25231,0,0,0,61.687,13.18412Z" fill="#575756" fill-rule="evenodd"/>
          <path d="M89.877,31.17342c.1616-.0088.32421-.0186.48821-.0283,1.44629,2.9189,3.57519,4.9072,7.09959,4.9785-1.1235,1.6982-1.1235,1.6982-2.9619,1.665a5.18163,5.18163,0,0,0-4.7016,4.5059c-.041.7324-.0044,1.4101.8388,1.7471a1.78611,1.78611,0,0,0,1.9532-.4317c.6284-.5586.50091-.9961-.0845-1.7344-.8941-1.1211.0893-1.6669,1.1299-1.7919a2.25843,2.25843,0,0,1,2.2558,2.8593,4.28236,4.28236,0,0,1-5.19429,3.2305A6.5513,6.5513,0,0,1,86.1475,41.48a2.0593,2.0593,0,0,1,.7045-2.5527C90.3838,37.26032,89.499,33.99372,89.877,31.17342Z" fill="#575756" fill-rule="evenodd"/>
          <path d="M83.7324,42.04252a6.59884,6.59884,0,0,0-.5376-2.6347c-.1079-.3526-.6787-.8799.1055-1.1221a1.79614,1.79614,0,0,1,1.1484.0244c.5181.2178.1836.6631.0596.9912a6.193,6.193,0,0,0,.9995,5.9873c.7129,1.0479.5249,1.6436-.7861,1.4795a2.55584,2.55584,0,0,0-2.2144,1.0254,7.06974,7.06974,0,0,1-8.28809.7871c-2.08831-1.3086-2.18941-3.331-1.79391-5.4199.5078-2.6826,2.4346-4.7607,4.4473-4.917a4.37264,4.37264,0,0,1,4.541,2.6973c.6509,1.3486.8003,2.7861-.4483,3.8886-1.1782,1.042-2.4673.6524-3.7099-.038-.7173-.3995-1.3745-.877-1.418-1.7364-.0581-1.1269.9409-.7539,1.5415-.9443.5562-.1748,1.0522-.4971.9766-1.1416-.0777-.6719-.6739-.7783-1.2422-.8252a2.90042,2.90042,0,0,0-2.8745,1.2344,3.27673,3.27673,0,0,0-.0655,3.5615,5.096,5.096,0,0,0,5.5464,2.6133A5.34485,5.34485,0,0,0,83.7324,42.04252Z" fill="#575756" fill-rule="evenodd"/>
          <path d="M101.1553,57.66952c2.1914,15.8242-2.3452,29.0205-15.1455,39.0381-1.0157.7929-2.5044.9931-3.0498,2.3818-1.0489.4932-1.5039.0889-1.5049-.998,14.1938-8.375,19.3379-21.2246,18.3384-37.1123-.0274-.4688-.042-.9375-.064-1.4073A2.22334,2.22334,0,0,1,101.1553,57.66952Z" fill="#3c3c3b" fill-rule="evenodd"/>
          <path d="M87.9517,55.38822c.6391-.0869,1.6044-.5088,1.7524.6895.1387,1.1377-.9731,1.0664-1.6597,1.2412a4.1682,4.1682,0,0,1-4.893-2.582,4.70672,4.70672,0,0,1,2.4502-5.9297,2.46187,2.46187,0,0,1,2.8012.5781,3.10905,3.10905,0,0,1,.9766,2.9815,1.0663,1.0663,0,0,1-1.3877.9218c-.626-.1396-1.5142-.2412-1.1499-1.3203.2041-.6103.4668-1.3476-.376-1.5615-.7012-.1787-1.0473.5937-1.3867,1.0752a2.41207,2.41207,0,0,0-.127,2.8642A2.614,2.614,0,0,0,87.9517,55.38822Z" fill="#575756" fill-rule="evenodd"/>
          <path d="M98.7046,37.85212c.7729.2402.78661,1.0889,1.2632,1.5606a2.61007,2.61007,0,0,0,4.08741-.0684c.30469-.3457.747-.7363.54779-1.21-.291-.6855-.8667-.4365-1.3823-.209-1.4258.6329-1.91649-.541-2.1362-1.4101-.3028-1.1963.7148-1.544,1.7158-1.6338a2.69154,2.69154,0,0,1,2.7266,1.4531,2.83838,2.83838,0,0,1-.2178,3.3018,4.16094,4.16094,0,0,1-3.8491,1.7959C99.0991,41.17632,98.1133,39.87852,98.7046,37.85212Z" fill="#575756" fill-rule="evenodd"/>
          <path d="M125.5698,165.94392c-3.6733-.0596-7.3779.585-11.0088-.3535-1.8227-.4717-3.6723-1.0322-4.4609-3.0625-.1113-.2901-.314-.6758-.2134-.8985,1.4663-3.2119-1.146-5.8476-1.2192-8.8466a38.18909,38.18909,0,0,1,.3642-5.1504c.2569-3.4639,2.8609-4.6358,5.6001-5.4854,1.378-.4267,2.4439-.915,2.7818-2.4072-.0147-1.0479,1.0991-1.2656,1.4868-2.0205,1.8384-1.1035,3.6904-1.7295,5.6265-.1895.1547.1231.4804.2481.5947.17,2.313-1.5498,4.8471-.8526,7.29-.6485,2.4321.2061,5.3985-.0918,7.146,1.1826,3.4121,2.4873,8.10261,3.5039,10.0049,7.9004.2363,1.6397.09671,3.3575,2.5264,3.7403,1.2231.1904,1.4028,1.7177,1.2631,2.9248-.1069.914-.353,1.8105-.5366,2.7168.2134,1.2373-.5351,2.0781-1.247,2.9111a16.22566,16.22566,0,0,1-7.7183,5.1406c-3.9644,1.1973-7.9243,2.4239-12.1563,1.8955A23.40826,23.40826,0,0,0,125.5698,165.94392Z" fill="#3c3c3b" fill-rule="evenodd"/>
          <path d="M152.1611,131.51232c-.6176.0254-1.0742.163-1.1797-.3692-.1157-.5781.30281-.875.773-.9941.9834-.2529,2.0034-.374,2.9751-.6602a21.57124,21.57124,0,0,0,11.8296-8.0117c.3564-.4932.6777-1.5566,1.4927-.9609.6865.5019-.1827,1.0771-.501,1.5244C163.7041,127.439,158.3135,130.316,152.1611,131.51232Z" fill="#0e1217" fill-rule="evenodd"/>
          <path d="M170.9102,131.55332a4.47923,4.47923,0,0,1-.41361.6172,25.717,25.717,0,0,1-10.7925,7.29c-.3828.1231-1.08889.79-1.3501-.1377-.186-.667.4033-.9629.9487-1.123a23.09236,23.09236,0,0,0,10.1162-6.6114c.3174-.33.6246-.7773,1.1714-.6006C170.7407,131.03572,170.8057,131.357,170.9102,131.55332Z" fill="#0b0f15" fill-rule="evenodd"/>
          <g>
            <path d="M168.5137,94.19782a27.18153,27.18153,0,0,0-6.1553-10.7236c-1.38919-1.4307-2.8169-2.9766-5.0064-3.2588q-2.13195-.9522-4.2661-1.9063a27.32939,27.32939,0,0,0-15.4756-.456c-2.3447-.0713-4.2485,1.0986-5.9609,2.4316-7.8135,6.084-11.1626,14.3115-11.0298,24.0313a9.62446,9.62446,0,0,0,1.8784,6.1894,2.68156,2.68156,0,0,0,.28421.1514,14.63092,14.63092,0,0,0,2.41159,4.2412c-.0239.0967-.0502.1924-.08.2881a4.82177,4.82177,0,0,0,1.8247,2.9228,23.57446,23.57446,0,0,0,10.5801,5.8204c3.3403.7998,6.7373,1.2246,10.1118.0371a25.6832,25.6832,0,0,0,18.36181-12.8213,29.53636,29.53636,0,0,0,2.73-12.0811C168.25,97.46642,169.0659,95.87362,168.5137,94.19782Zm-27.9253,15.3906c-.2075,4.2364-1.5108,5.5528-5.7461,5.752a9.24109,9.24109,0,0,0-1.876.1445,3.395,3.395,0,0,1-3.3755-1.1445c-.9638-.9004-1.5381-2.2119-2.853-2.7383-.0171.0117-.0322.0225-.0493.0361-.1695-.2861-.3394-.5713-.5088-.8525a1.92882,1.92882,0,0,0,.0918-.417,4.13851,4.13851,0,0,0-.1367-.9307c-1.2813-5.1562.8471-7.9619,6.0429-7.9619.2359-.0009.4722,0,.7061-.0009a3.58193,3.58193,0,0,1,3.0303.9404c1.5747,1.7627,2.831,3.7666,4.3076,5.6025A2.2366,2.2366,0,0,1,140.5884,109.58842Z" fill="#010101" fill-rule="evenodd"/>
            <path d="M157.0747,114.20072c-.3906,1.1504.6738,2.9483-.8159,3.9317a13.62238,13.62238,0,0,1-7.86959,2.6601c-1.21731-.0459-2.31991-1.7304-3.56841-2.5254-2.12159-1.3486-2.8823-2.9013-1.7559-5.4121.8575-1.9062.6006-4.4629,3.5728-4.7636a7.46875,7.46875,0,0,0,1.54051-.5567c4.84039-1.6631,4.84129-1.6621,8.09329,2.2949C157.1938,110.94982,157.1938,110.94982,157.0747,114.20072Z" fill="#fdfdfd" fill-rule="evenodd"/>
            <path d="M133.3467,98.44782c-5.417-.1435-5.417-.1435-6.4414-4.6719-.628-2.7705,1.4897-7.4375,3.9907-8.7207,1.07421-.5498,2.1343.1094,3.2026.1494.3907.0137.7769.0762,1.167.1153,4.8687.5088,5.4439,1.0703,6.1148,5.9736.0307.2295.1831.5567.0835.6738-1.6988,2.0303-3.4283,4.0323-5.1485,6.043-.8301.9678-1.914.2647-2.8657.4326C133.2227,98.482,132.9824,98.44982,133.3467,98.44782Z" fill="#fdfdfd" fill-rule="evenodd"/>
            <path d="M158.6406,90.24272a1.00265,1.00265,0,0,1-.1123.4248c-.6753,1.1192-6.3247,3.0743-7.5879,2.6543a26.1049,26.1049,0,0,0-4.0161-1.2695,3.936,3.936,0,0,1-3.707-4.0137c-.0962-1.3232-1.7193-2.7373.1723-3.9521,2.28861-1.4746,3.68361-5.0615,7.4361-3.1338a16.90646,16.90646,0,0,0,2.8447,1.0762C157.6777,83.24082,157.8657,86.80522,158.6406,90.24272Z" fill="#fdfdfd" fill-rule="evenodd"/>
            <path d="M165.9141,100.66952c.0288,4.4014-2.0962,7.0322-6.1597,8.1719-.7095.1992-.95019-.1436-1.3457-.5342-2.9067-2.8858-4.9263-6.1211-4.6968-10.4531.0596-1.1358.1787-1.9248,1.333-2.3545a17.35456,17.35456,0,0,0,2.0825-1.0635c3.4317-1.8408,4.4414-1.8486,7.3594.6914C166.2578,96.66852,165.6001,99.04162,165.9141,100.66952Z" fill="#fdfdfd" fill-rule="evenodd"/>
          </g>
          <path d="M69.0303,191.62262c-2.1934,4.3779-3.6514,5.3477-7.0074,4.8184-1.8525-.294-2.9643-1.6944-4.2822-2.7442a44.4,44.4,0,0,1-12.2021-15.1709c-2.3863-4.8369-.4175-8.8896,4.6245-11.4023,2.9472-1.4688,5.0493-.0449,7.2612,1.416a11.00027,11.00027,0,0,1,1.7813,1.5098c1.1367,1.1709,1.8339.8984,2.352-.5576.6118-1.7188,1.711-1.8799,3.0874-.8252.6148.4746,1.4419.9628,1.2886,1.8086-.1353.7343-1.0786.871-1.7066,1.0615-2.0795.6279-3.9604,1.5556-5.0527,3.4951-.9682,1.7178-.6772,3.1435.6568,4.875,1.28411,1.6641,3.6757,2.6816,3.6406,5.3291-.0137,1.084,1.1367.9971,1.8222,1.0381a7.95091,7.95091,0,0,0,3.419-.7403c2.186-.8779,4.3564-.8798,6.2202.67,1.43511,1.1914,2.03811,5.4961,1.144,7.3466a36.14054,36.14054,0,0,1-1.9326,3.1045,4.45462,4.45462,0,0,1,.0415-3.9462,2.29805,2.29805,0,0,0-.4126-2.9786C71.7471,188.65972,71.4009,188.79552,69.0303,191.62262Z" fill="#ed2056" fill-rule="evenodd"/>
          <path d="M71.4307,200.17832c-.5059,2.0986-1.9488,2.4883-3.5957,2.4531-3.2632-.0674-6.07379-1.5029-8.6617-3.2842a58.29276,58.29276,0,0,1-17.3027-19.2168,15.04623,15.04623,0,0,1-1.1577-3.0693,1.36953,1.36953,0,0,1,.7134-1.8018c.94191-.3164.8042.7578,1.021,1.2159,3.9243,8.3916,9.395,15.5166,17.1411,20.708C63.0933,199.53372,66.9351,201.02112,71.4307,200.17832Z" fill="#f9f6f2" fill-rule="evenodd"/>
          <path d="M70.9331,190.80332c2.2212-.2813,2.6089.1357,2.0977,2.1191-.3809,1.4717-1.41459,2.8028-.7911,4.5147.2452.6718-.6489.7158-1.1186.8925-2.0723.7842-4.0874.5098-6.4233-.415,3.0537-1.54,4.4658-4.1348,5.8339-6.7666A.42355.42355,0,0,1,70.9331,190.80332Z" fill="#f7f7f3" fill-rule="evenodd"/>
          <path d="M73.4409,179.01522a15.7208,15.7208,0,0,0-8.626,1.5576c-.6386.3145-1.458.9805-2.0713.0488-.4916-.748-.0195-1.5166.43561-2.1504C65.3066,175.50442,71.1143,175.67632,73.4409,179.01522Z" fill="#f9f7f3" fill-rule="evenodd"/>
          <path d="M75.999,184.66952c-3.1714-1.7627-5.9555-1.2139-8.7739-.3115-.6314.2011-1.5288,1.0293-2.0112.0224-.3623-.7558.3964-1.4629.9638-1.9873C69.4224,179.39312,74.2041,180.32872,75.999,184.66952Z" fill="#f5f3f2" fill-rule="evenodd"/>
          <path d="M70.3633,174.56692c-3.6148-.0888-6.4976.5762-8.6499,3.1153-.3921.4639-1.0073.7129-1.4224.2178-.6445-.7696-.3384-1.5928.22121-2.3467C62.52,172.856,67.0957,172.20372,70.3633,174.56692Z" fill="#f4f2ea" fill-rule="evenodd"/>
          <path d="M70.9331,190.80332c-.1353.1152-.2681.2304-.4033.3447-.7495-.6377-.94.502-1.4995.4746,1.3662-2.9111,3.0937-3.6015,4.7431-1.8926C72.6514,189.62362,71.2427,188.76132,70.9331,190.80332Z" fill="#361b0b" fill-rule="evenodd"/>
          <g>
            <path d="M95.6035,145.12462c-2.9585-.708-5.5566-2.4327-8.6885-2.7627a30.19731,30.19731,0,0,0-10.6626,1.1806q-16.43775,4.1163-22.0903-11.7343,1.7175-.66945,3.4365-1.3428c1.0533.4219,1.3902,1.4433,1.9141,2.3008,3.4077,5.582,8.9961,7.8193,15.18651,5.6259a27.8306,27.8306,0,0,1,18.01319-.2343c1.5386.4746,3.2349.8183,4.0713,2.4951C96.5478,142.18322,96.501,143.76522,95.6035,145.12462Z" fill="#fafbf9" fill-rule="evenodd"/>
            <path d="M67.0029,127.07282c2.5537,5.3086,3.03031,5.4365,8.7901,3.7344a31.57839,31.57839,0,0,1,19.80121.3291c1.03619.3613,1.68019,1.4219,2.86279,1.4121a11.30724,11.30724,0,0,1-1.27679,5.3369c-1.51031.75-2.80421-.0332-3.94491-.7803-4.7167-3.0937-9.6279-3.3857-14.8085-1.3789a17.5937,17.5937,0,0,1-8.523,1.2842c-4.5742-.542-7.5752-4.5225-6.4165-8.4912A13.31192,13.31192,0,0,1,67.0029,127.07282Z" fill="#fafbf9" fill-rule="evenodd"/>
            <path d="M63.4873,128.51912c.60991,6.2764,4.6523,9.1846,10.9258,7.7559a57.99352,57.99352,0,0,0,5.6128-1.7178,14.51944,14.51944,0,0,1,12.8496,1.5488,10.61865,10.61865,0,0,0,4.3061,1.7793c-.1079.9277.31061,1.9277-.3979,2.7676-6.542-3.3545-13.4043-4.6563-20.4131-2.0098-9.0835,3.4287-16.1509-1.209-18.772-8.1777C59.687,130.19392,61.3169,128.53472,63.4873,128.51912Z" fill="#4264f7" fill-rule="evenodd"/>
          </g>
          <path d="M74.5205,150.09532c1.7481-1.2481,3.88571-.8116,5.8091-1.3125a1.41974,1.41974,0,0,1,1.24661.4482,6.04394,6.04394,0,0,1,.34859,4.5381,2.32682,2.32682,0,0,1-2.4644,2.0693c-1.686-.1035-3.3579.9766-5.05219.0645A7.367,7.367,0,0,1,74.5205,150.09532Z" fill="#4362f8" fill-rule="evenodd"/>
          <path d="M61.3237,156.03182c-.541-.0391-1.0844-.0645-1.62549-.1211-4.41741-.4619-5.32031-2.3232-3.07031-6.208.418-.7227.919-.459,1.3784-.2842,1.4297.541,2.8335,1.1484,4.2466,1.7324C62.9844,152.97612,62.2876,154.52892,61.3237,156.03182Z" fill="#4362f3" fill-rule="evenodd"/>
          <path d="M64.5786,151.27982q3.112-.1113,6.2261-.2207c1.1899,1.6465.5181,3.5772.8159,5.3594a24.95648,24.95648,0,0,1-6.3105.2051,1.79919,1.79919,0,0,1-.0884-1.582,2.96708,2.96708,0,0,0-.9043-3.5586c-.0161-.0108.0044-.1211.0366-.1416A.83439.83439,0,0,1,64.5786,151.27982Z" fill="#4762f3" fill-rule="evenodd"/>
          <path d="M64.5786,151.27982c1.2734.1075,1.7998.6944,1.6001,2.0538a15.53922,15.53922,0,0,1-.8686,3.29,6.82491,6.82491,0,0,1-3.9844-.5899q.4629-2.44185.9272-4.8828Q63.4175,151.21242,64.5786,151.27982Z" fill="#f2f2f4" fill-rule="evenodd"/>
          <path d="M71.6206,156.41852c-1.3892-.4814-.8711-1.6152-.8662-2.5644.0044-.9336.0332-1.8643.0503-2.795a6.26316,6.26316,0,0,1,3.7158-.9638,27.77648,27.77648,0,0,1-.1147,5.8095C73.5786,156.60992,72.5444,156.22122,71.6206,156.41852Z" fill="#f7f7f6" fill-rule="evenodd"/>
          <path d="M36.6006,77.58942c1.7055,5.6348,5.6645,9.3555,10.66161,11.9707,9.75879,5.1026,19.75539,6.125,29.72709.6563a18.47569,18.47569,0,0,0,9.2407-11.375c.0425-.3116-.063.08-.0425-.2315.0654-.9629.23971-1.9004,1.2368-2.3066a.87653.87653,0,0,1,1.1187.6035,1.96323,1.96323,0,0,1-.8916,2.4053c-5.6993,13.9277-20.251,18.416-33.4453,14.7324a34.00278,34.00278,0,0,1-11.5787-5.5459,19.74323,19.74323,0,0,1-7.9663-12.3311,3.89468,3.89468,0,0,1-.4355-2.9492c.1401-.4629.3511-.9131.893-.9687.5503-.0557.8423.3525,1.0455.79a4.05676,4.05676,0,0,1,.4135,2.7344A2.17469,2.17469,0,0,0,36.6006,77.58942Z" fill="#3c3c3b" fill-rule="evenodd"/>
          <path d="M36.6006,77.58942c-.7495-1.249-.4868-2.6904-.7647-4.0283-.0879-.4258.07231-1.0879-.5088-1.1104-.69089-.0254-.7622.6436-.7597,1.1895.00681.8437.0596,1.6855.0937,2.5283a7.55892,7.55892,0,0,1-2.3701-2.8418c-.792-1.4658-1.3652-2.9326-.0527-4.3125a4.68653,4.68653,0,0,1,4.6235-1.6416c1.6255.3828,3.6817.3438,3.9131,2.5996a5.46251,5.46251,0,0,1-2.5996,5.6104C37.3433,76.07872,36.477,76.40392,36.6006,77.58942Z" fill="#e8ad8f" fill-rule="evenodd"/>
          <path d="M87.6514,79.31212c-.0645-.9112,1.2983-2.167.1557-2.5772-1.1211-.4013-.6968,1.6094-1.5771,2.1065-2.2627-1.1094-2.7393-4.1221-.8516-6.2305,1.2251-1.3731,2.4766-3.001,4.7666-1.9209,1.9751.9307,3.2783,2.959,2.9229,4.623C92.458,78.17242,90.9888,79.25642,87.6514,79.31212Z" fill="#e8ad8f" fill-rule="evenodd"/>
          <path d="M88.7031,103.03182a9.474,9.474,0,0,1-3.2617-.6025,23.18709,23.18709,0,0,1-3.5464-1.3399,7.20116,7.20116,0,0,0-1.9746-.4482c-.53319-.1621-1.2461-.1055-1.2095-.9727q1.3719-.7896,2.7442-1.5771a1.39512,1.39512,0,0,0,1.5049.998c1.9658,1.3584,4.2627,1.6143,6.5307,1.9649,0,0,12.0821,2.8955,12.9458,2.8125.86571-.0801,8.9219,1.5009,10.3389,1.7334,1.4165.2314,1.6523.7011,1.6523.7011s4.6353-.957,4.795-.5635c.1577.3926-4.3189,1.6641-4.5562,1.586-.23629-.0781,4.4824-.0137,4.32671.5361-.15481.5518-4.71781.0938-4.71781.0938s2.6006,2.0361,2.209,2.3525c-.3911.3164-2.6787-1.8789-2.6787-1.8789s-2.4322,1.501-3.2217.4023C109.793,107.732,88.7031,103.03182,88.7031,103.03182Z" fill="#3c3c3b" fill-rule="evenodd"/>
          <path d="M61.3315,72.15c-.2656,1.1621-.7119,2.1435-2.3232,1.8681-.8252-.1396-1.8145-.2637-1.4639-1.2812.4141-1.208,1.0171-2.6465,2.6309-2.6338C61.3018,70.11482,61.3306,71.16852,61.3315,72.15Z" fill="#3c3c3b" fill-rule="evenodd"/>
          <path d="M69.2036,73.56692c.2544-1.0654.5479-2.2138,1.9585-2.165.9907.0342.894.9131.8062,1.6143-.147,1.1601-.5528,2.2168-1.9385,2.1875C69.0039,75.18322,69.1909,74.29252,69.2036,73.56692Z" fill="#3c3c3b" fill-rule="evenodd"/>
          <path d="M122.6084,147.17632c.5727,1.6983,1.7627,2.1475,3.522,2.3242,2.2924.2315,4.6157-.6591,6.916.4952,1.52.7627,2.4184-.4883,2.8916-1.8545.7051-2.043,1.1821-4.1885,2.7715-5.8067a4.11229,4.11229,0,0,1,3.8203-.0429q1.3755.5463,2.75541,1.0908a.62385.62385,0,0,1,.03409.9678c-2.8286.6962-3.6352,2.3037-2.4858,5.0175.4228.9991.956,1.9541,1.3696,2.9561.93311,2.2637.023,4.4023-2.3403,4.9453-4.24759.9766-8.4907,2.1484-12.9014,2.0928-4.917-.0635-9.8481.5644-14.7524-.6084a4.42433,4.42433,0,0,1-3.6392-4.2373,27.66833,27.66833,0,0,1-.0664-5.167,5.46817,5.46817,0,0,1,4.9942-5.043,16.7691,16.7691,0,0,0,2.1005-.206c1.6875-.3926,2.8013-1.0928,2.2032-3.2325-.5113-1.8291,1.12791-3.0537,2.9321-2.3877,1.0737.3975,1.0107,1.0869.4341,1.8272a4.14151,4.14151,0,0,0-1.0039,3.0166C121.6074,144.688,122.3594,145.90392,122.6084,147.17632Z" fill="#ed2155" fill-rule="evenodd"/>
          <path d="M122.3618,164.33452a27.08277,27.08277,0,0,1-7.70459-.5527,5.62261,5.62261,0,0,1-1.29981-.5225c-.8296-.4531-1.9175-1.0488-1.5771-2.0381.3276-.958,1.5083-.3974,2.3051-.3251a96.57339,96.57339,0,0,0,26.2232-1.0684c4.4653-.8115,8.3384-2.7783,10.05661-7.4844.15579-.4248.30229-1.2471,1.04739-.9014.6694.3096.6328,1.0889.4541,1.6807a11.13858,11.13858,0,0,1-4.8232,6.4307,24.95839,24.95839,0,0,1-10.3926,3.4951A135.85421,135.85421,0,0,1,122.3618,164.33452Z" fill="#f9faf7" fill-rule="evenodd"/>
          <path d="M134.6602,138.78772c-3.36721,1.7587-4.00351,4.3701-4.35061,7.1464-.1079.8428-.1538,1.9981-1.2071,1.9961-.9287-.0009-1.2724-1.1035-1.4819-1.9277C126.77,142.66952,130.4263,138.45372,134.6602,138.78772Z" fill="#f8f4f0" fill-rule="evenodd"/>
          <path d="M139.9736,139.81792c-3.4956,1.5723-4.5097,4.3438-5.3579,7.2295-.1938.6582-.2627,1.5938-1.1909,1.4317-.8242-.1407-.7944-1.043-.8413-1.7383C132.2969,142.55232,135.7788,138.92932,139.9736,139.81792Z" fill="#f5f5ee" fill-rule="evenodd"/>
          <path d="M128.999,138.38342c-2.1142,2.623-3.42579,5.1484-2.8022,8.2685.1191.5996.0503,1.1611-.5879,1.3428-.7544.2129-1.1338-.3897-1.4444-.9404C122.4512,144.01032,125.0347,139.02892,128.999,138.38342Z" fill="#f4f4ef" fill-rule="evenodd"/>
          <path d="M145.833,155.10412c-.0146-2.6602-.9893-4.8164-1.79-7.0274-.2754-.7578-.7705-1.8183.3618-2.2441.9145-.3418,1.3081.6445,1.7261,1.2773C148.8818,151.25542,148.874,152.11382,145.833,155.10412Z" fill="#f6f5f3" fill-rule="evenodd"/>
          <path d="M145.3193,144.35022q-.0168-.48645-.03409-.9678a4.10548,4.10548,0,0,1,2.57909,3.917Q146.58975,145.82567,145.3193,144.35022Z" fill="#ed2155" fill-rule="evenodd"/>
          <path d="M142.5298,142.29162q-1.9116.0204-3.8203.0429C139.9658,140.78082,141.2417,141.00252,142.5298,142.29162Z" fill="#ed2155" fill-rule="evenodd"/>
          <path d="M122.6084,147.17632a3.2881,3.2881,0,0,1-.4448-3.8525C122.1348,144.62752,122.8799,145.84432,122.6084,147.17632Z" fill="#ed2155" fill-rule="evenodd"/>
          <path d="M54.8911,173.72612a3.65951,3.65951,0,0,1-3.7934,3.833,3.53144,3.53144,0,0,1-3.7183-3.372,4.38387,4.38387,0,0,1,3.7754-4.1348A3.72715,3.72715,0,0,1,54.8911,173.72612Z" fill="#501914" fill-rule="evenodd"/>
          <g>
            <path d="M60.8857,105.522" fill="#341b0f" fill-rule="evenodd"/>
            <path d="M71.6138,103.89412" fill="#341b0f" fill-rule="evenodd"/>
          </g>
          <path d="M119.9409,152.36382a3.61341,3.61341,0,0,1-4.1284,1.9746,3.42833,3.42833,0,0,1-2.5332-2.8232,3.56964,3.56964,0,0,1,1.6851-3.8428c1.6757-1.1035,3.4223-.665,4.9765,1.2979C120.9038,150.10022,120.4888,151.231,119.9409,152.36382Z" fill="#461d15" fill-rule="evenodd"/>
          <path d="M119.9409,152.36382c.0366-1.1328.3897-2.2627,0-3.3935C121.4492,150.10022,121.1103,151.231,119.9409,152.36382Z" fill="#ed2155" fill-rule="evenodd"/>
          <path d="M50.9185,171.62552c1.5488.1543,2.7763.7295,2.7646,2.3575a2.078,2.078,0,0,1-2.4448,2.1963,2.41343,2.41343,0,0,1-2.5156-2.5088C48.6675,172.12362,49.7358,171.73882,50.9185,171.62552Z" fill="#f5f7f2" fill-rule="evenodd"/>
          <path d="M117.3188,153.22222c-1.5405-.3564-2.7329-1.1631-2.875-2.7217a1.77539,1.77539,0,0,1,2.0586-1.9951,2.57644,2.57644,0,0,1,2.6846,2.4307A2.09685,2.09685,0,0,1,117.3188,153.22222Z" fill="#f4f3ed" fill-rule="evenodd"/>
          <path d="M77.9707,121.41072" fill="#f9faf8" fill-rule="evenodd"/>
          <path d="M16.9141,128.55332l19.1889-17.0235s7.3369-4.4121,7.6363-2.3271a33.885,33.885,0,0,0,.0224,10.8769h0c.1963,4.5762-.0581,9.251,2.9951,13.1846a1.15975,1.15975,0,0,1,.2007.8574c-.92629,3.9121.9946,6.9317,3.0718,9.9043,1.4531,1.1563,2.8931,2.3282,4.3682,3.4551.4848.3711.833.6983.4194,1.3154-.9595,1.3916-1.0088,3.1065-1.6382,4.6241-.7114,1.7109.0278,2.8095,1.7012,3.5078a30.23188,30.23188,0,0,0,7.2988,1.8252c2.9146.4277,3.2769,1.2597,1.8042,3.8515-.6831,1.2041-2.1538,1.9219-2.1665,3.5284a5.8438,5.8438,0,0,1,2.5156.4912,11.00221,11.00221,0,0,0,3.0386-4.3008c.37261-2.2998,1.7769-3.2158,4.0508-3.3399,2.4985-.1357,4.9971-.3906,7.4819-.7177a5.67547,5.67547,0,0,0,4.4278-2.7325,7.17587,7.17587,0,0,0,.8769-3.6054c.0918-2.5518.251-2.6563,2.7944-2.1524a28.4575,28.4575,0,0,1,6.2056,2.1543c1.6436.8643,2.5903.0918,3.2354-1.3799a30.93476,30.93476,0,0,0,1.2871-3.6787c1.30471-4.9316,2.1616-9.9629,3.5761-14.8662.5318-1.8427,1.6079-2.3271,3.3238-2.0615a14.41012,14.41012,0,0,1,9.5639,5.8809c1.2813,1.1181,1.67091,2.957,3.168,3.8964-.0508-1.1709,2.3472-.5898,1.60891-2.249-3.41311-5.5635-8.03081-9.4726-14.62841-10.6777a2.6321,2.6321,0,0,1-1.5679-.96,9.06105,9.06105,0,0,0-4.3496-2.6045,9.25455,9.25455,0,0,0-4.5596-1.0009l.0044-.0372-6.9092-13.9511-.0019.0117c-.7622-1.7754-1.6665-3.8701-2.2593-5.1445-.3633-.7813-.2212-1.1416.6304-1.2139q-1.69334-.6519-3.3867-1.3018a59.26063,59.26063,0,0,0,4.6992,10.4073l4.2065,8.3935c-4.7212-1.165-12.8784,2.0176-12.8784,2.0176l-.186.0937s-1.8247.7081-3.2661,1.2569c-.3853.1455-.8575.3242-1.40339.5264-.11421.0439-.20941.0781-.25971.0937a.11445.11445,0,0,0-.0406.0205c-6.82169,2.5508-23.5249,8.6631-24.1533,7.6016-.6933-1.1699-2.4399-9.4903-2.8032-11.7139l.0664-.0254s-.0537-.1806-.1318-.5117v-.0049c.0044-.0127-.0025-.0146-.0069-.0244a22.72459,22.72459,0,0,1,1.458-14.2324c.5113-1.0977,4.792.457,6.4253.7197,19.8516,1.6387,26.51081-5.0342,26.51081-5.0342-.47221-.2187-1.10451.0254-1.46931-.5078q-3.08415,1.15875-6.1674,2.3154s-5.4454,2.8545-17.8721,2.0118a43.73091,43.73091,0,0,1-26.9673-13.7842c-5.1357-6.4473-7.333-13.9424-8.0073-22.0029q-.8358.02925-1.6685.0605c.5796,11.1084,6.04491,22.3477,12.752,27.1338a119.86411,119.86411,0,0,0,13.43991,8.2187c.023.4307.14009,1.0684.16069,1.4991,0,0-2.462.1904-9.1968,4.1318,0,0-19.0655,13.4141-19.5308,15.5371-.4653,2.125-6.7485,4.1094-6.7485,4.1094s-1.252,2.0498,1.33841,1.0176a29.70335,29.70335,0,0,0,5.33879-3.002s-3.2895,4.7266-2.1865,5.0371c1.1025.3115,2.7368-4.4121,2.7368-4.4121s-1.16209,5.3506-.2187,5.1904A7.141,7.141,0,0,0,16.9141,128.55332Zm33.9082,2.7412c-.0274.0371-.0664.0918-.1202.1699C50.7534,131.39122,50.7939,131.33362,50.8223,131.29452Zm-.1558,11.8838c-.353-.2129-.65329-.3936-.8965-.5401.2661.1612.5708.3428.8965.5401.2886.1728.6143.3701.9844.5937C51.3174,143.56992,50.9829,143.36872,50.6665,143.17832Zm1.6919,1.0205c.3481.208.731.4394,1.1416.6875C53.1699,144.68412,52.7754,144.44782,52.3584,144.19882Zm41.6504,5.0625c-1.2573.3183-5.3569-3.2842-16.2813-1.9912-10.9277,1.291-10.6767,5.7724-23.2807-1.8155,0,0-8.6724-7.0488-5.149-12.0146.0162-.0225.0298-.042.0459-.0635-.0273.041-.0459.0635-.0459.0635s17.8301-6.5029,21.8345-7.8535a13.12872,13.12872,0,0,0,1.4155-.5615l5.7002-1.4971s8.6744-2.4707,11.2691-2.7158c2.5928-.2432,2.6772,1.25,2.6772,1.25s-8.9629.6572-11.3193,1.2939c-2.3564.6358-.6235,1.5742-.6235,1.5742a34.43033,34.43033,0,0,1,13.4409-1.3789v-.0019c1.458.2148,5.0351.997,6.2226,3.5986C101.4189,130.44682,95.2661,148.94192,94.0088,149.26132Z" fill="#3c3c3b" fill-rule="evenodd"/>
          <path d="M56.3467,149.22322s-2.9732,4.9629-.7676,6.1348c2.20511,1.1728,10.9365,2.5625,23.8286,1.499a6.01618,6.01618,0,0,0,3.8306-7.0879S72.5698,157.50742,56.3467,149.22322Z" fill="#4264f7" fill-rule="evenodd"/>
          <path d="M60.458,156.76032s.2969-5.4277.9263-5.3506a16.35751,16.35751,0,0,1,2.2822.6992l-.29829,4.877Z" fill="#fff" fill-rule="evenodd"/>
          <polygon points="69.803 153.114 74.206 152.864 74.929 157.264 70.053 157.281 69.803 153.114" fill="#fff" fill-rule="evenodd"/>
          <path d="M97.9414,115.25742" fill="#ee7130" fill-rule="evenodd"/>
          <g>
            <circle cx="13.4784" cy="130.03032" r="4.24662" transform="translate(-0.38881 0.04089) rotate(-0.17135)" fill="#fff"/>
            <path d="M15.35548,129.47095a3.63,3.63,0,0,1-2.32464,3.24559c-.58794.23734-.61132.25989-.85567-.18165a3.66873,3.66873,0,0,1-.57266-1.9442,3.57069,3.57069,0,0,1,2.11738-3.16655,1.67828,1.67828,0,0,1,.86178-.2089c-.28-.066-.07554-.01518.08091.14412a3.21348,3.21348,0,0,1,.6929,2.11159c.09332,1.61652,4.84789,2.95929,4.74023,1.09434-.39766-6.88883-13.35481-8.95468-13.23343-1.06894.10713,6.96027,12.83441,8.89524,13.23343,1.06894C20.17528,129.00473,15.45463,127.52635,15.35548,129.47095Z" fill="#3c3c3b"/>
          </g>
          <g>
            <circle cx="116.37525" cy="108.78817" r="4.24612" transform="translate(-0.34912 0.37467) rotate(-0.18419)" fill="#fff"/>
            <path d="M118.715,107.79705a2.91692,2.91692,0,0,1-2.16278,2.79876c-.938.2469-2.431.07753-2.49291-1.10188-.12585-2.39759,4.50358-3.88948,4.66081-1.12435.13732,2.41486,3.98983,4.07876,3.804.81088-.1956-3.43981-2.869-6.76875-6.44665-6.95228a5.67062,5.67062,0,0,0-5.85211,5.88244c.01794,3.361,2.53147,6.74746,5.96634,7.20977a5.68331,5.68331,0,0,0,6.33755-5.56739,3.332,3.332,0,0,0-1.68267-3.10944A1.40011,1.40011,0,0,0,118.715,107.79705Z" fill="#3c3c3b"/>
          </g>
        </g>
      </g>
    </g>
  </g>
</svg>
