<svg xmlns="http://www.w3.org/2000/svg" viewBox="0 0 40.34575 41.33701">
  <title>Recurso 4</title>
  <g id="Capa_2" data-name="Capa 2">
    <g id="Editar">
      <g>
        <path d="M33.43092,21.0259c.3242-.5752.7148-.9316.5898-1.4209a17.39794,17.39794,0,0,0,.5713-1.8945,25.23007,25.23007,0,0,0,3.2198-3.2471c1.7695-2.2724-1.0118-5.2461-3.2012-3.1845-.0488.0468-.0723.1064-.1211.1513a9.344,9.344,0,0,0-1.9024-3.7812c-2.9121-3.3604-8.4443-.5039-10.8505,2.6308a1.94317,1.94317,0,0,0-.6075.2959,38.99867,38.99867,0,0,0-6.4795,6.21,14.79973,14.79973,0,0,0-.9843,1.2871,2.50194,2.50194,0,0,0-1.7032-1.2871c.2334-.3164.4258-.583.5333-.7607a1.99022,1.99022,0,0,0-.6133-2.8467,7.19713,7.19713,0,0,0,.4062-.9541A2.02708,2.02708,0,0,0,10.843,9.6158a2.02216,2.02216,0,0,0,.1758-.9571,14.87152,14.87152,0,0,0,1.3164-1.6875,1.98342,1.98342,0,0,0,.1348-1.915,2.46016,2.46016,0,0,0-3.9971-1.6924,11.64489,11.64489,0,0,0-2.125,2.4444,16.92013,16.92013,0,0,0-2.8838,3.665,2.21621,2.21621,0,0,0,.5029,2.7891,6.72748,6.72748,0,0,0-.2959,1.0097,2.27509,2.27509,0,0,0,.6114,2.168,4.7892,4.7892,0,0,0,.7539.5049,6.76638,6.76638,0,0,0-.3643.876,2.21207,2.21207,0,0,0,.7744,2.2998,4.42944,4.42944,0,0,0-.0722,2.9795A2.3932,2.3932,0,0,0,7.884,23.7574a3.89812,3.89812,0,0,0,.7432,2.8174,2.50278,2.50278,0,0,0,2.1846,1.1015,2.27892,2.27892,0,0,0,2.6757,1.2119.04.04,0,0,0,.0157-.0087c-.1612.2958-.3223.5917-.4864.8828a2.30341,2.30341,0,0,0,1.4453,3.331,5.03063,5.03063,0,0,0,3.4727-.5312,2.27165,2.27165,0,0,0,2.3008,2.0058c2.8262-.3242,4.0117-2.3086,5.9765-4.1435a54.77463,54.77463,0,0,0,5.7852-6.6309c.3145-.1875.2539-.6562.4785-1.0615ZM30.052,15.9576c-1.4395,1.206-2.9502,2.3291-4.4785,3.4502,1.5566-1.6973,3.1621-3.3477,4.789-4.9756.0254.3808.0342.7695.0254,1.1592C30.27462,15.7134,30.16532,15.8355,30.052,15.9576Z" fill="#e2023f"/>
        <path d="M18.83712,13.9048c.9883-5.9707,7.4336-8.1543,12.7881-6.8691,6.7139,1.6123,6.044,8.9805,3.166,13.5391C29.552,28.8746,15.3,37.439,5.22192,35.5552c-2.0322-.3799-2.8994,2.7266-.8574,3.1094,7.4648,1.3945,15.2295-2.1055,21.5-5.8379,6.2148-3.7012,13.123-9.5742,14.3203-17.1133,2.3701-14.9209-22.1865-16.4082-24.4561-2.666-.3359,2.0342,2.7706,2.9063,3.1084.8574Z" fill="#36363e"/>
        <path d="M15.94552,16.4966c4.4659-6.8877-2.25-19.749-11.038-15.7373C-.71948,3.3287-.405,12.4244.53832,17.2437c1.7608,9.0108,8.4072,16.9443,14.375,23.5781,1.3936,1.5479,3.668-.7402,2.2793-2.2822C10.17992,30.7447.926,19.5923,3.61252,8.2759c2.5547-10.7656,14.2383-.6425,9.5489,6.5918-1.1358,1.751,1.6562,3.3653,2.7841,1.6289Z" fill="#36363e"/>
      </g>
    </g>
  </g>
</svg>
