<svg xmlns="http://www.w3.org/2000/svg" viewBox="0 0 95.47918 49.09583">
  <title>Recurso 7</title>
  <g id="Capa_2" data-name="Capa 2">
    <g id="Editar">
      <g>
        <path d="M39.48165,28.35188a2.001,2.001,0,0,0-1.9648-1.4961,8.25832,8.25832,0,0,0-5.6094,3.4131,5.32229,5.32229,0,0,0-3.001.6377c-.0381.0225-.0713.0449-.1084.0674a4.912,4.912,0,0,0-3.9257-.7295,19.18713,19.18713,0,0,0-.6055-3.7275c-1.3672-4.9698-7.7051-4.2569-9.3584,0-.2276.583-.4346,1.1709-.6358,1.7627a4.05822,4.05822,0,0,0-3.0097-.1563,10.0505,10.0505,0,0,0-3.7276,2.3574,13.43949,13.43949,0,0,0-1.3447-3.8271c-2.0664-3.8457-7.7031-.4629-5.8066,3.3935,1.2324,2.5078.3769,5.4453.1377,8.0821a12.89219,12.89219,0,0,0,1.5576,7.1845,4.55678,4.55678,0,0,0,5.1328,2.0909,7.40639,7.40639,0,0,0,2.5801-1.2872c1.3984,2.3125,4.3662,3.6055,6.9668,1.9043.1035-.0683.1894-.1445.289-.2128a4.45778,4.45778,0,0,0,5.795.3955,12.82134,12.82134,0,0,0,1.8867-1.6143,5.02927,5.02927,0,0,0,5.1269-.0977,13.47892,13.47892,0,0,0,1.8907-1.6347,4.86594,4.86594,0,0,0,4.7949-2.4903C38.69655,38.305,40.21415,32.89678,39.48165,28.35188Z" fill="#bccf00"/>
        <path d="M35.47585,24.30408a1.1973,1.1973,0,0,0-1.1895-.3155,13.34068,13.34068,0,0,0-4.8828,3.1289c-1.8984,1.7422-4.1894,5.1797-7.0273,5.4415-.0586-4.0918-.461-8.0547-2.6016-11.6758a1.23452,1.23452,0,0,0-1.6719-.4375c-4.4824,2.6445-4.6455,8.082-7.834,11.5058-1.9267-2.4511-3.248-5.3134-5.3535-7.6474a1.24187,1.24187,0,0,0-1.4824-.1905c-4.9355,2.3575-3.1094,11.4629-3.0488,15.7227a1.2228,1.2228,0,0,0,2.4443,0c-.042-2.9434-1.4336-10.4131,1.0313-12.9961,1.9716,2.4736,3.3037,5.3818,5.4384,7.7481a1.241,1.241,0,0,0,1.7286,0c3.6796-2.8936,3.7822-8.3145,7.2636-11.2725,1.5235,3.2646,1.6446,6.79,1.6514,10.4092a1.21507,1.21507,0,0,0,.8975,1.1787c4.1953.6289,6.9062-2.666,9.6074-5.3897a17.75848,17.75848,0,0,1,3.2754-2.6797c1.5849-.9814,1.1152,5.2842,1.0849,5.4961-.4013,2.9346-1.292,5.7539-1.4179,8.7286-.0674,1.5781,2.3779,1.5712,2.4443,0C36.06955,35.52378,39.52175,29.18488,35.47585,24.30408Z" fill="#000100"/>
      </g>
      <g>
        <path d="M95.18485,12.72688a3.15146,3.15146,0,0,0-3.0987-2.3594,13.01918,13.01918,0,0,0-8.8437,5.3809,8.38137,8.38137,0,0,0-4.7315,1.0059c-.0605.0351-.1123.0703-.1709.1054a7.74233,7.74233,0,0,0-6.1904-1.1494,30.15313,30.15313,0,0,0-.9541-5.8779c-2.1563-7.8359-12.1484-6.7109-14.7559,0-.3574.918-.6855,1.8476-1.0019,2.7783a6.4116,6.4116,0,0,0-4.7471-.2461,15.8896,15.8896,0,0,0-5.876,3.7178,21.11907,21.11907,0,0,0-2.1211-6.0342c-3.2578-6.0635-12.1445-.7305-9.1543,5.3506,1.9434,3.9531.5948,8.5859.2168,12.7422a20.34189,20.34189,0,0,0,2.4551,11.3301,7.18682,7.18682,0,0,0,8.0938,3.2949,11.645,11.645,0,0,0,4.0664-2.0274c2.2051,3.6465,6.8867,5.6836,10.9873,3.002.1631-.1084.2988-.2285.4541-.3369a7.03044,7.03044,0,0,0,9.1387.625,20.43835,20.43835,0,0,0,2.9746-2.5449c2.5068,1.2998,5.8398,1.4931,8.084-.1553a21.24235,21.24235,0,0,0,2.9794-2.5781,7.67188,7.67188,0,0,0,7.5616-3.9258C93.94945,28.42028,96.34,19.892,95.18485,12.72688Z" fill="#bccf00"/>
        <path d="M88.86935,6.34408a1.88534,1.88534,0,0,0-1.8769-.498,21.02807,21.02807,0,0,0-7.6983,4.9326c-2.9912,2.748-6.6064,8.167-11.0781,8.581-.0947-6.4531-.7275-12.6992-4.1025-18.4101a1.9463,1.9463,0,0,0-2.6377-.6895c-7.0664,4.169-7.3233,12.7422-12.3526,18.1407-3.0371-3.8653-5.1191-8.377-8.4394-12.0567a1.95786,1.95786,0,0,0-2.3369-.3017c-7.7832,3.7177-4.9043,18.0751-4.8096,24.7919.0352,2.4844,3.8906,2.4873,3.8555,0-.0664-4.6406-2.2598-16.4189,1.6269-20.4921,3.1084,3.9003,5.207,8.4853,8.5742,12.2168a1.95886,1.95886,0,0,0,2.7266,0c5.8008-4.5625,5.9629-13.1104,11.4521-17.7735,2.4014,5.1475,2.5928,10.707,2.6036,16.4121a1.9177,1.9177,0,0,0,1.415,1.8594c6.6152.9902,10.8906-4.2041,15.1484-8.498a28.02891,28.02891,0,0,1,5.1631-4.2266c2.5-1.5469,1.7588,8.332,1.7119,8.666-.6328,4.6279-2.0371,9.0723-2.2363,13.7637-.1064,2.4863,3.75,2.4765,3.8555,0C89.80495,24.03258,95.24925,14.03938,88.86935,6.34408Z" fill="#000100"/>
      </g>
    </g>
  </g>
</svg>
