<svg xmlns="http://www.w3.org/2000/svg" viewBox="0 0 101.11668 83.76706">
  <title>Recurso 6</title>
  <g id="Capa_2" data-name="Capa 2">
    <g id="Editar">
      <g>
        <path d="M38.09514,30.236c2.8232,1.3564,6.0874,6.6972,5.8813,9.5156-.0513.7031-.5391.9512-.9536,1.2832-1.919,1.542-3.8662,3.0478-5.7915,4.5801a2.22161,2.22161,0,0,1-2.0493.625c-3.1236-.7539-6.2774-1.3867-9.3902-2.1787-1.8882-.4795-1.87059-2.4453-2.542-3.8028-2.01659-4.0849-1.9599-4.1142,1.1919-7.3261a4.206,4.206,0,0,0,.6094-.5928c2.8169-4.4649,6.7617-4.3897,11.0952-2.7774C36.98964,29.22722,37.41154,30.109,38.09514,30.236Z" fill="#fefefe" fill-rule="evenodd"/>
        <g>
          <path d="M11.43154,78.47622a32.87307,32.87307,0,0,0,14.043,5.0918c2.3959.2324,4.9189.543,7.15771-.9023q2.70989-.78525,5.41989-1.5684A33.013,33.013,0,0,0,52.681,69.44692c2.2187-1.7637,3.064-4.3281,3.603-6.8945,2.46-11.7051-.8711-21.9073-8.5732-30.7656a11.6276,11.6276,0,0,0-6.5601-4.2432,3.65373,3.65373,0,0,0-.3808.081,17.64289,17.64289,0,0,0-5.5318-2.0293c-.0522-.1084-.104-.2187-.14989-.3281a5.83436,5.83436,0,0,0-3.96291-1.2724,28.46882,28.46882,0,0,0-14.2988,2.8847c-3.7051,1.8643-7.1685,4.126-9.3545,7.8516a31.02878,31.02878,0,0,0-6.9355,26.1474A35.68507,35.68507,0,0,0,7.44474,74.15C9.12394,75.25452,9.61464,77.36192,11.43154,78.47622ZM25.181,42.49872c-3.1123-4.0694-2.9356-6.2998.814-9.7862a11.12786,11.12786,0,0,0,1.6181-1.5976c1.0034-1.418,2.37211-1.6602,4.0039-1.5772,1.5918.0791,3.1446.8408,4.7681.3018.0073-.0244.0112-.0469.0176-.0703.3794.1289.7563.2578,1.1347.3867a2.2403,2.2403,0,0,0,.2403.4551,4.99071,4.99071,0,0,0,.85151.7529c5.20609,3.7568,5.42969,8.0039.63819,12.0576q-.32595.2754-.6513.5528c-1.0157.875-2.0166,1.705-3.5293,1.4921-2.8277-.3945-5.5494-1.2627-8.3414-1.8066A2.6878,2.6878,0,0,1,25.181,42.49872Z" fill="#010101" fill-rule="evenodd"/>
          <path d="M6.37925,51.10712c-.53661-1.3672-2.92091-2.1953-2.31391-4.2657.9624-3.2832,2.4956-6.4921,5.1821-8.5918,1.1587-.9052,3.4907-.2128,5.2612-.4531,3.0078-.4121,4.9219.4287,5.8413,3.6211.69631,2.4277,2.9268,4.5859.4195,7.1807a9.08164,9.08164,0,0,0-.9854,1.7158c-3.1679,5.3086-3.1689,5.3076-9.2544,4.1973C8.80364,54.195,8.80364,54.195,6.37925,51.10712Z" fill="#fdfdfd" fill-rule="evenodd"/>
          <path d="M40.54874,47.12462c5.1103-4.0918,5.1103-4.0918,9.5879-.7148,2.7387,2.0654,4.4253,8.0234,3.11961,11.1572-.56151,1.3438-2.05181,1.5625-3.06891,2.3604-.37009.292-.7768.5371-1.1665.8047-4.8862,3.3261-5.8549,3.2578-10.2988-.7422-.209-.1875-.6035-.3692-.6055-.5567-.0141-3.1943.0196-6.3916.0371-9.5869.0098-1.541,1.5582-1.7383,2.3047-2.6357C40.63664,46.99572,40.88514,46.83952,40.54874,47.12462Z" fill="#fdfdfd" fill-rule="evenodd"/>
          <path d="M23.62444,74.42252a1.16255,1.16255,0,0,1-.2286-.4795c-.2509-1.5566,3.4327-7.7676,4.9248-8.3662a31.48014,31.48014,0,0,0,4.6963-1.9609c2.4908-1.5108,4.585-1.1934,6.5484.8115,1.1216,1.1445,3.7221,1.1816,2.9272,3.7783-.9634,3.1455.5479,7.54-4.416,8.6904a20.32391,20.32391,0,0,0-3.4644,1.2276C29.974,80.13052,27.01994,76.98792,23.62444,74.42252Z" fill="#fdfdfd" fill-rule="evenodd"/>
          <path d="M8.78164,70.47822c-3.4595-4.0352-3.5537-8.1202-.6929-12.3409.4976-.7363.9873-.6074,1.6572-.5556,4.9312.3945,9.316,1.8017,12.4849,5.9775.8301,1.0928,1.3369,1.9131.60741,3.21a20.98335,20.98335,0,0,0-1.09081,2.6054c-1.7285,4.3731-2.6533,5.169-7.3271,5.1026C11.58484,74.43712,10.33974,71.736,8.78164,70.47822Z" fill="#fdfdfd" fill-rule="evenodd"/>
        </g>
      </g>
      <g>
        <path d="M94.49594,20.484c.3116-.5547.6895-.8984.5684-1.3691a17.35641,17.35641,0,0,0,.5508-1.8281,24.29686,24.29686,0,0,0,3.1045-3.129c1.706-2.1914-.9756-5.0585-3.0869-3.0703-.0459.044-.0704.1016-.1163.1446a8.99872,8.99872,0,0,0-1.8339-3.6446c-2.8077-3.2392-8.1407-.4863-10.46,2.5371a1.83256,1.83256,0,0,0-.5859.2832,37.64032,37.64032,0,0,0-6.2461,5.9883,13.72063,13.72063,0,0,0-.94929,1.2403,2.41807,2.41807,0,0,0-1.64161-1.2422c.2247-.3047.4102-.5616.5127-.7324a1.91823,1.91823,0,0,0-.5908-2.7442,6.66073,6.66073,0,0,0,.3916-.9189,1.95563,1.95563,0,0,0-1.3935-2.5166,1.94467,1.94467,0,0,0,.1709-.92,14.52619,14.52619,0,0,0,1.2685-1.6289,1.91033,1.91033,0,0,0,.1299-1.8457,2.37137,2.37137,0,0,0-3.8535-1.6308,11.20284,11.20284,0,0,0-2.0488,2.3554,16.32647,16.32647,0,0,0-2.7793,3.5332,2.13735,2.13735,0,0,0,.4843,2.6895,6.53887,6.53887,0,0,0-.2851.9727,2.188,2.188,0,0,0,.5898,2.0898,4.4224,4.4224,0,0,0,.7266.4863,6.59676,6.59676,0,0,0-.3516.8448,2.13105,2.13105,0,0,0,.7471,2.2177,4.27258,4.27258,0,0,0-.0703,2.874,2.30862,2.30862,0,0,0,2.4189,1.5967,3.75541,3.75541,0,0,0,.7168,2.7149,2.4138,2.4138,0,0,0,2.1055,1.0625,2.19625,2.19625,0,0,0,2.581,1.1679l.0147-.0078c-.1553.2852-.3105.5694-.46879.8516a2.22014,2.22014,0,0,0,1.39259,3.2109,4.84724,4.84724,0,0,0,3.3477-.5117,2.19179,2.19179,0,0,0,2.21871,1.9336c2.72459-.3125,3.86719-2.2256,5.76179-3.9941a52.95429,52.95429,0,0,0,5.5771-6.3946c.3027-.1797.24411-.6328.4609-1.0215Zm-3.2578-4.8867c-1.3867,1.1611-2.8437,2.2441-4.3183,3.3262,1.5009-1.6367,3.0498-3.2285,4.6172-4.7969.0253.3672.03321.7412.0253,1.1172C91.453,15.361,91.34754,15.48012,91.23814,15.59732Z" fill="#e2023f"/>
        <path d="M80.42762,13.618c.917-5.5505,7.22087-8.13525,12.327-6.6223C98.99189,8.84377,98.819,15.4839,95.80718,20.048,90.5645,27.99268,77.158,36.33178,67.30179,34.48894c-1.95563-.36565-2.79384,2.63013-.8265,2.998,7.13339,1.33375,14.76025-1.97246,20.72594-5.62751,5.84006-3.57808,12.85-9.21408,13.806-16.49768C102.90127.93037,79.61984-.46608,77.42966,12.79147c-.32334,1.95722,2.6721,2.799,2.998.8265Z" fill="#1d1d1b"/>
        <path d="M77.639,16.11631c4.17278-6.43469-2.69169-20.1545-10.94412-14.97068-5.15118,3.23575-5.03847,11.31065-3.71928,16.42157,2.17911,8.4425,7.9454,15.63829,13.66823,21.99843,1.34116,1.49051,3.53413-.71394,2.19841-2.19841C72.2043,29.99,62.41841,18.36925,65.93772,7.59278c3.13217-9.591,13.2611.40927,9.01674,6.95435-1.09183,1.68367,1.5986,3.24378,2.68455,1.56918Z" fill="#1d1d1b"/>
      </g>
    </g>
  </g>
</svg>
