<svg xmlns="http://www.w3.org/2000/svg" viewBox="0 0 251.61349 228.20343">
  <title>Recurso 8</title>
  <g id="Capa_2" data-name="Capa 2">
    <g id="Editar">
      <g>
        <ellipse cx="247.85654" cy="133.02761" rx="3.6875" ry="3" fill="#ffdbba"/>
        <ellipse cx="243.66904" cy="119.27761" rx="2.875" ry="3.375" fill="#ffdbba"/>
        <g>
          <ellipse cx="4.80625" cy="132.71801" rx="3.6875" ry="3" fill="#ffdbba"/>
          <ellipse cx="89.30625" cy="119.96801" rx="3.6875" ry="3" fill="#ffdbba"/>
          <ellipse cx="8.99375" cy="118.96801" rx="2.875" ry="3.375" fill="#ffdbba"/>
          <ellipse cx="78.86875" cy="112.34301" rx="2.875" ry="3.375" fill="#ffdbba"/>
          <path d="M34.24085,222.14581s6.3496-3.5674,8.918-.7852,2.2832,4.9219-1.5694,4.6367S34.02645,223.50121,34.24085,222.14581Z" fill="#56adda"/>
          <path d="M64.90785,223.052s4.6347-5.6172,8.0342-3.9492c3.3989,1.6689,3.9047,3.7676.2089,4.8906C69.45475,225.11741,65.19685,224.39381,64.90785,223.052Z" fill="#56adda"/>
          <polygon points="27.244 185.718 45.244 185.218 46.959 195.961 27.454 199.031 27.244 185.718" fill="#ffe900"/>
          <polygon points="56.105 196.835 73.152 189.251 67.244 178.718 53.244 182.218 56.105 196.835" fill="#ffe900"/>
          <path d="M30.27845,138.91821s17.6626,1.458,29.0639-1.8711c0,0,7.3028,30.9131,11.8521,38.542,0,0-7.2476,12.5176-48.3491,14.0733C22.84535,189.66241,33.313,154.61841,30.27845,138.91821Z" fill="#56adda"/>
          <path d="M12.24375,108.718s-8,25,28,30c0,0,36.5,1.5,38-35,0,0-27.5-10-30.5-9.5S12.24375,108.718,12.24375,108.718Z" fill="#ffdbba"/>
          <path d="M9.94445,108.46311s5.292-22.6816,21.9263-27.9746,21.9267-3.7802,24.9511-2.2685,27.0826,11.2246,19.212,29.0508c0,0-8.0904,4.2431-14.4644-6.2432,0,0-4.9351,2.2607-7.4023-.8232,0,0-4.52349,3.9082-6.5796,4.9355s-13.7764-5.1406-13.7764-5.1406-2.0562,6.374-5.7573,5.9629-4.729-1.6446-4.729-1.6446-3.0845,9.0479-9.4585,6.3741S9.94445,108.46311,9.94445,108.46311Z" fill="#7d4e24"/>
          <path d="M34.39365,125.66921a4.33826,4.33826,0,0,0-3.00731-3.2617,4.86557,4.86557,0,0,0-4.3774,1.0488,4.099,4.099,0,0,0-1.4336,2.7363,3.69981,3.69981,0,0,0-.0821,2.6817c1.1289,3.1445,5.5899,3.5996,7.6831,1.2138A5.10063,5.10063,0,0,0,34.39365,125.66921Z" fill="#e8ad8f"/>
          <path d="M61.89365,126.16921a4.33826,4.33826,0,0,0-3.00731-3.2617,4.86557,4.86557,0,0,0-4.3774,1.0488,4.099,4.099,0,0,0-1.4336,2.7363,3.69981,3.69981,0,0,0-.0821,2.6817c1.1289,3.1445,5.5899,3.5996,7.6831,1.2138A5.10063,5.10063,0,0,0,61.89365,126.16921Z" fill="#e8ad8f"/>
          <path d="M175.81654,63.36841a11.72653,11.72653,0,0,0-1.5015-4.7754c-3.5835-6.1875-17.627-11.2138-20.21439-1.4551a.71648.71648,0,0,0,1.30279.5489c3.2305-4.2481,9.207-3.9444,13.2583-1.086a10.26625,10.26625,0,0,1,3.9355,5.0059c.0918.2725.1582.5713.2305.8643-.2183-.0264-.43409-.0635-.6538-.0733-2.2378-.1172-5.209.7822-5.999,3.1611a2.87942,2.87942,0,0,0,.0996,2.0459.91913.91913,0,0,0,.0385.2256c1.06161,2.9434,4.7999,3.336,7.168,1.5752a5.68136,5.68136,0,0,0,2.0845-3.0801c.2256.1495.4546.293.667.4581,2.5889,2.0127,3.5556,4.7705,3.9189,7.9189a1.25213,1.25213,0,0,0,2.5025,0C183.10465,70.15941,179.99714,65.37531,175.81654,63.36841Zm-7.4732,3.709c-.0454-.4853,1.1201-1.4707,1.5708-1.6963a4.18257,4.18257,0,0,1,1.896-.333,5.9693,5.9693,0,0,1,1.1084.1309A3.05811,3.05811,0,0,1,168.34334,67.07741Z" fill="#572800"/>
          <g>
            <path d="M89.25985,115.30881c-2.3081.0586-5.5991,2.9258-4.2314,5.3946a.8112.8112,0,0,0,.2051.1992,4.06082,4.06082,0,0,0,3.0424,3.3936c-1.7055,5.0712-3.5737,9.541-7.9702,13.1533-5.5024,4.5224-12.3418,5.9004-19.2846,4.7695a.84718.84718,0,0,0-.4468.0547q-.63435-2.606-1.232-5.2266a35.72158,35.72158,0,0,0,18.19931-20.832,4.29859,4.29859,0,0,0,5.31729-3.4131,4.39536,4.39536,0,0,0-2.0991-4.0703,5.48238,5.48238,0,0,0-1.7285-.6992,31.83486,31.83486,0,0,0-1.2324-10.5723A29.03851,29.03851,0,0,0,38.334,79.14971a1.27669,1.27669,0,0,0-.3271.2285c-18.2295-2.001-29.686,19.5898-28.2715,35.7949a4.11723,4.11723,0,0,0-5.4424,4.8555,4.83846,4.83846,0,0,0,7.2769,2.7832c3.2368,7.8691,10.1865,13.2558,18.3008,15.9795a.26027.26027,0,0,0-.2002.2256q-.53175,3.75135-1.0435,7.4912a34.295,34.295,0,0,1-12.2241-3.9434c-3.4248-2.0059-5.6128-4.7441-8.1787-7.4482a3.5657,3.5657,0,0,0,.9048-1.3594,4.43015,4.43015,0,0,0-2.5972-5.6533,5.12876,5.12876,0,0,0-6.145,2.7978c-.9395,2.1699-.1787,6.1016,2.4023,6.8281a.93094.93094,0,0,0,1.0386-1.3515c-.0249-.0488-.0542-.0928-.08109-.1416a8.434,8.434,0,0,0,2.68309-.1514c3.7354,7.3955,14.2134,12.041,22.0323,11.6162-1.854,13.4424-3.7256,26.7998-7.0933,40.0225a1.55289,1.55289,0,0,0,1.4766,1.9385c1.0058.0615,2.0107.0986,3.0156.1338-.6265,3.3769-1.4058,8.4257,1.5933,9.2343,1.92041.5186,4.936-.4863,7.15041-.9941-.43751,7.8867-1.54841,15.9521-1.42681,23.7998a1.06008,1.06008,0,0,0,.0459.2197.727.727,0,0,0-.1494.9834,9.01357,9.01357,0,0,0,7.0117,4.4629c2.2617.2061,5.8291-.4844,6.5991-3.0146.7891-2.5938-2.2178-4.7784-4.3354-5.4551-1.8853-.6016-4.648-.6055-6.396.624,1.2885-7.0811,1.0346-14.8818.5312-21.9658q5.2383-.85545,10.47371-1.7295a1.38372,1.38372,0,0,0,.94869-1.6709,31.45039,31.45039,0,0,1-.3828-5.9756q2.6103-.46725,5.207-1.0781a23.327,23.327,0,0,0,1.6753,8.6338,1.4166,1.4166,0,0,0,1.69781.9648c2.48089-.6211,4.94719-1.3056,7.41259-1.9873-.6265,9.0049-1.68659,18.668-.7374,27.5459a1.21647,1.21647,0,0,0,.8306.9844,1.05712,1.05712,0,0,0,.0235.123c.50971,1.1826,2.9492,1.4092,3.9643,1.6299,2.6411.5781,7.0513,1.8047,8.4819-1.4043a4.34641,4.34641,0,0,0-3.1572-5.8916c-2.7549-.6445-5.8061.8125-7.7119,2.9385,1.2895-8.4834.627-17.8731-.0415-26.3818q.40216-.11145.8037-.2207c1.7959-.4922,5.3306-.7149,6.7627-2.1026.9258-.8965.7319-1.6523.4165-2.8174-.75-2.7734-2.4702-5.5986-3.6699-8.209a1.33014,1.33014,0,0,0-.14889-.2041,14.77879,14.77879,0,0,0,2.95059-3.1699,1.40467,1.40467,0,0,0-1.0898-2.0791c-.6372-5.4297-4.1245-11.6054-5.84379-16.6133-1.71241-4.9882-3.11231-10.0341-4.37931-15.1211,12.81931,2.9913,28.8374-5.374,29.4794-19.5664a4.53117,4.53117,0,0,0,3.4873-3.9824A4.7783,4.7783,0,0,0,89.25985,115.30881Zm-10.3921-5.1679a1.731,1.731,0,0,1,.481.1347,2.50148,2.50148,0,0,1,1.4961,2.2432,2.71378,2.71378,0,0,1-2.8858,2.3399A31.89147,31.89147,0,0,0,78.86775,110.14091Zm-72.26409,9.5947a2.40153,2.40153,0,0,1,3.16109-3.0937.68364.68364,0,0,0,.1514.0371,25.87934,25.87934,0,0,0,.91751,4.0947C9.27795,121.512,7.38345,121.68481,6.60365,119.73561Zm.49659,13.291a1.86753,1.86753,0,0,1-.3101.6358c-.043-.042-.08149-.084-.12549-.126a.63468.63468,0,0,0-1.05271.6123c.0283.0889.0713.1709.1015.2588a8.70378,8.70378,0,0,1-2.9643.2803,2.94507,2.94507,0,0,1-.48149-2.2715,2.85558,2.85558,0,0,1,3.29249-2.2139A2.34735,2.34735,0,0,1,7.10025,133.02661Zm62.8579,87.0303c1.58051-.5391,3.9883-.2588,4.1587,1.7949.1919,2.3057-2.6817,1.7363-4.1358,1.5615-1.08539-.1308-2.1675-.3125-3.2412-.5185-.207-.0381-.4126-.085-.6186-.127C67.36725,221.80981,68.40635,220.58421,69.95815,220.05691Zm5.47751-119.6367c.15089.7148.25489,1.4287.35109,2.1406-.6929,2.502-2.9854,3.7549-5.43209,3.9248.86229-4.456-.26321-9.3203-2.06211-13.4199a28.16256,28.16256,0,0,0-3.521-5.9414c-1.746-2.2471-4.2543-3.8828-6.1025-6.0176A26.35415,26.35415,0,0,1,75.43565,100.42021Zm-12.28321-.4073c2.2456-4.0546,1.0996-9.6933-1.7012-14.1845a28.25551,28.25551,0,0,1,3.418,4.3857c3.1045,5.2471,3.5186,10.3955,4.2285,16.2617-3.3017-.2734-6.4453-2.4804-5.9394-6.3603A.88017.88017,0,0,0,63.15245,100.01291ZM46.28965,79.71611c7.501,5.2177,9.813,11.7783,10.53469,20.6572a.44952.44952,0,0,0,.8784.1201c2.3086-7.4844-2.2339-16.4912-8.5713-20.9873.7568-.0156,1.5117-.0088,2.2617.0401a.5958.5958,0,0,0,.27151.2656c6.25779,3.1328,12.57909,11.7402,10.45169,19.1826a1.11033,1.11033,0,0,0-.9326.3037q-4.2312,4.128-7.1724-.7217a7.67044,7.67044,0,0,0,.13231-1.2998.797.797,0,0,0-.48-.7187c-.26171-6.4248-3.69191-13.2608-9.34321-16.501C44.97615,79.91331,45.63345,79.80491,46.28965,79.71611Zm-4.80421,1.1377c5.8506,3.8447,10.0659,8.7304,10.9649,15.8213a.524.524,0,0,0-.4039.542c.0118.2001.0479.3847.0728.5761-1.1772,2.2578-2.4902,4.3018-4.62259,5.5322a34.14607,34.14607,0,0,0-7.11621-22.0498C40.74815,81.12921,41.11535,80.98271,41.48545,80.85381Zm-1.5806,2.6826a43.75321,43.75321,0,0,1,6.8106,20.1709,8.58539,8.58539,0,0,1-1.5415.5312,8.4234,8.4234,0,0,1-1.979.2041C39.75595,97.36061,39.37955,91.02271,39.90485,83.53641Zm-6.8647,5.833c.7373-3.3408,2.8062-5.4356,4.8687-7.919.1435-.0234.2841-.0498.4282-.0732a1.34928,1.34928,0,0,0,.2065.1104l.0054.0127.0171.0263c-2.6182,7.2969-.7979,16.1856,3.145,22.7822a10.49267,10.49267,0,0,1-6.0552-3.6816C33.54065,97.23071,32.14415,93.42311,33.04015,89.36941Zm.2842,9.7998-.0059.0068a.80267.80267,0,0,0-.8022.4854c-.6074,1.6826-.9732,3.2764-2.4492,4.3974-1.9952-6.9228-1.2085-12.1904,1.97161-17.8916A15.62454,15.62454,0,0,0,33.32435,99.16921Zm-4.1778,5.2939a.41586.41586,0,0,0,.0689.0762c-1.3281.502-3.5454.5977-4.3193-.4267-.0689-.5049-.1289-1.0059-.1773-1.4971.0117-.042.0137-.0781.0274-.1231a.59421.59421,0,0,0-.085-.5371c-.4985-6.2275.7588-11.1884,4.5903-15.2041C26.26325,92.07941,26.13345,99.48371,29.14655,104.46311Zm-.832-20.0986c-5.2534,4.4082-7.9883,12.0283-5.5806,18.4434a.74921.74921,0,0,0-.538.4922c-.6241,2.3046-.84229,4.5019-3.1158,5.875a5.44337,5.44337,0,0,1-.6499.3242c-1.36959-10.1602,3.0196-16.6074,8.3492-24.3418C27.28185,84.87721,27.794,84.61451,28.31455,84.36451Zm-15.5503,23.2744a.45858.45858,0,0,0,.044-.331,34.754,34.754,0,0,1,4.9189-13.6104,25.21191,25.21191,0,0,1,5.1441-5.8535c-4.9268,6.1152-7.5445,14.4619-5.271,21.9424a6.09807,6.09807,0,0,1-1.8584.1953,7.117,7.117,0,0,1-3.1148-1.1992C12.66515,108.40061,12.71395,108.01981,12.76425,107.63891Zm1.0313,12.9375a27.24226,27.24226,0,0,1-1.3096-9.4248,7.52712,7.52712,0,0,0,4.1958.9903c3.417-.1631,7.1274-3.167,7.3384-6.6553a5.55869,5.55869,0,0,0,4.8594,1.4678c2.4814-.5196,5.1616-3.0069,5.2734-5.6573a10.9,10.9,0,0,0,10.4321,5.4561,11.32851,11.32851,0,0,0,8.6758-5.9102,5.72735,5.72735,0,0,0,7.7222,1.6104c1.3857,6.1963,10.9809,8.1777,15.0508,4.8174-.3047,11.5351-7.4117,21.8613-17.9058,27.0771a.64162.64162,0,0,0-.4121.2168c-.8887.4277-1.7979.8213-2.7315,1.1729C40.73695,141.10181,19.21735,136.58721,13.79555,120.57641ZM39.90685,221.093c.9966.042,5.44581,1.2647,3.791,3.2959-.8638,1.0615-3.4155.9297-4.5723.7158a7.41157,7.41157,0,0,1-4.1113-2.3378,1.02656,1.02656,0,0,0,.418-.6084.89412.89412,0,0,0,.46041.0107C37.31555,221.81181,38.35165,221.02961,39.90685,221.093Zm-6.59419-25.5488c-2.17141.374-4.53711,1.3672-5.37261-1.1465a14.05126,14.05126,0,0,1-.2578-4.5547,102.7357,102.7357,0,0,0,17.1875-1.0859,24.65055,24.65055,0,0,0,.1963,4.7832Q39.1868,194.53046,33.31265,195.54421Zm37.00339-5.458c-1.6099.9189-5.0108,1.2422-6.5235,1.6699-2.4614.6973-4.9277,1.3799-7.3798,2.1113a20.52444,20.52444,0,0,1-2.2222-6.9746c4.2358-1.0381,8.9243-2.1787,12.7783-4.4306.0059.0146.0029.0302.0093.0449C67.97915,184.86551,69.59435,187.52661,70.316,190.08621Zm-7.8482-31.6348c1.7476,5.6221,3.2237,13.6758,6.709,18.5166-5.1631,5.0967-13.9619,6.7285-20.8061,8.0938a97.68987,97.68987,0,0,1-23.5899,1.6279c3.835-15.4941,6.5322-31.5801,5.5899-47.5771a.3395.3395,0,0,0-.0923-.1944,39.82148,39.82148,0,0,0,24.436.0479c1.1035-.3711,2.18121-.7949,3.2329-1.2637A119.67455,119.67455,0,0,0,62.46785,158.45141Zm27.3033-36.3691a.85694.85694,0,0,0-.6016.1201,2.41129,2.41129,0,0,1-2.4238-1.7686c.497-1.1962.6298-2.6093,2.2968-2.7656a2.36,2.36,0,0,1,2.39511,2.3047A2.23839,2.23839,0,0,1,89.77115,122.08231Z" fill="#572800"/>
            <path d="M33.211,114.68191a5.21557,5.21557,0,0,0-5.397-.6016c-2.622,1.3916-3.52439,6.0576-.247,7.2539,1.0317.375,1.5761-.9951.9834-1.6904a1.95117,1.95117,0,0,1,1.1196-2.9805c2.3472-.4267,2.813,2.6104,4.5478,3.208a1.13982,1.13982,0,0,0,1.2823-.5224C36.37075,117.62621,34.54945,115.64481,33.211,114.68191Z" fill="#572800"/>
            <path d="M61.23595,109.86161c-2.80129-.2237-6.0977,2.5713-5.0566,5.5615a1.01238,1.01238,0,0,0,1.9331,0c.5224-1.3008,1.4126-3.0713,3.13621-2.7119,1.748.3642,1.71139,2.1201,2.27779,3.4053.3726.8447,1.5161.6132,1.9463,0C67.30185,113.50711,63.74135,110.06371,61.23595,109.86161Z" fill="#572800"/>
            <path d="M48.50985,120.75221c-1.6704-1.4189-4.4887-1.3525-5.6728.6416a.64061.64061,0,0,0,1.0024.7725,2.38628,2.38628,0,0,1,3.5361.6533,14.07254,14.07254,0,0,0-1.8413,1.0244.9417.9417,0,0,0,.19,1.4697c1.2222.6387,3.2612-.2451,3.9009-1.4677C50.16955,122.80491,49.28425,121.40941,48.50985,120.75221Z" fill="#572800"/>
            <path d="M46.42495,130.83811c-3.5708.8028-6.7632.9737-9.5674-1.8369-.4478-.4502-1.2647.1387-.898.6924,2.2862,3.458,7.7823,5.417,11.3042,2.585C47.98255,131.70041,47.188,130.66721,46.42495,130.83811Z" fill="#572800"/>
          </g>
          <ellipse cx="162.30724" cy="120.63501" rx="3.6875" ry="3" fill="#ffdbba"/>
          <ellipse cx="172.74474" cy="113.01001" rx="2.875" ry="3.375" fill="#ffdbba"/>
          <path d="M217.37265,222.81281s-6.34961-3.5674-8.91791-.7852-2.2833,4.9219,1.5693,4.6367S217.587,224.16821,217.37265,222.81281Z" fill="#f24c24"/>
          <path d="M186.70565,223.719s-4.63471-5.6172-8.03421-3.9492c-3.3989,1.6689-3.9047,3.7676-.2089,4.8906C182.15884,225.78441,186.41665,225.06081,186.70565,223.719Z" fill="#f24c24"/>
          <polygon points="224.37 186.385 206.37 185.885 204.655 196.628 224.159 199.698 224.37 186.385" fill="#fff"/>
          <polygon points="195.509 197.502 178.461 189.918 184.37 179.385 198.37 182.885 195.509 197.502" fill="#fff"/>
          <path d="M221.335,139.58521s-17.6626,1.458-29.0639-1.8711c0,0-7.3028,30.9131-11.8521,38.542,0,0,7.24761,12.5176,48.3491,14.0733C228.76814,190.32941,218.30044,155.28541,221.335,139.58521Z" fill="#f24c24"/>
          <path d="M239.36974,109.385s8,25-28,30c0,0-36.5,1.5-38-35,0,0,27.5-10,30.5-9.5S239.36974,109.385,239.36974,109.385Z" fill="#ffdbba"/>
          <path d="M241.669,109.13011s-5.292-22.6816-21.9263-27.9746-21.9267-3.7802-24.95109-2.2685-27.08261,11.2246-19.21191,29.0508c0,0,8.0903,4.2431,14.4643-6.2432,0,0,4.9351,2.2607,7.4024-.8233,0,0,4.5234,3.9083,6.5795,4.9356s13.7764-5.1406,13.7764-5.1406,2.0562,6.374,5.75731,5.9629,4.729-1.6446,4.729-1.6446,3.08449,9.0479,9.45849,6.3741S241.669,109.13011,241.669,109.13011Z" fill="#c88133"/>
          <path d="M217.21984,126.33621a4.33824,4.33824,0,0,1,3.0073-3.2617,4.86586,4.86586,0,0,1,4.37751,1.0488,4.09912,4.09912,0,0,1,1.43349,2.7363,3.69981,3.69981,0,0,1,.0821,2.6817c-1.1289,3.1445-5.5899,3.5996-7.6831,1.2138A5.1006,5.1006,0,0,1,217.21984,126.33621Z" fill="#e8ad8f"/>
          <path d="M189.71984,126.83621a4.33824,4.33824,0,0,1,3.0073-3.2617,4.86586,4.86586,0,0,1,4.37751,1.0488,4.09912,4.09912,0,0,1,1.43349,2.7363,3.69981,3.69981,0,0,1,.0821,2.6817c-1.1289,3.1445-5.5899,3.5996-7.6831,1.2138A5.1006,5.1006,0,0,1,189.71984,126.83621Z" fill="#e8ad8f"/>
          <g>
            <path d="M157.67544,120.97291a4.53118,4.53118,0,0,0,3.4873,3.9824c.642,14.1924,16.6601,22.5576,29.4795,19.5664-1.2671,5.087-2.667,10.1329-4.3794,15.1211-1.7193,5.0078-5.2066,11.1836-5.8438,16.6133a1.40467,1.40467,0,0,0-1.0898,2.0791,14.77864,14.77864,0,0,0,2.9506,3.1699,1.32485,1.32485,0,0,0-.1489.2041c-1.1997,2.6104-2.9199,5.4356-3.6699,8.209-.31539,1.1651-.5093,1.9209.4165,2.8174,1.43211,1.3877,4.9668,1.6104,6.7627,2.1025q.40215.11.8037.2207c-.6684,8.5088-1.331,17.8985-.0415,26.3819-1.90579-2.126-4.957-3.583-7.7119-2.9385a4.34642,4.34642,0,0,0-3.1572,5.8916c1.4306,3.209,5.8408,1.9824,8.4819,1.4043,1.0151-.2207,3.4546-.4473,3.96441-1.6299a1.08174,1.08174,0,0,0,.02339-.123,1.21647,1.21647,0,0,0,.83061-.9844c.94919-8.8779-.11091-18.541-.73731-27.5459,2.46531.6816,4.9316,1.3662,7.4126,1.9873a1.41655,1.41655,0,0,0,1.69771-.9648,23.327,23.327,0,0,0,1.67529-8.6338q2.59575.6138,5.207,1.0781a31.45039,31.45039,0,0,1-.3828,5.9756,1.38372,1.38372,0,0,0,.9487,1.6709q5.23545.87885,10.4737,1.7295c-.5034,7.084-.7573,14.8847.5312,21.9658-1.748-1.2295-4.5107-1.2256-6.396-.624-2.1176.6767-5.1245,2.8613-4.3354,5.4551.77,2.5302,4.3374,3.2207,6.5991,3.0146a9.01357,9.01357,0,0,0,7.0117-4.4629.72686.72686,0,0,0-.1494-.9834,1.06039,1.06039,0,0,0,.04591-.2197c.12159-7.8477-.98921-15.9131-1.42671-23.7998,2.2143.5078,5.2299,1.5127,7.1503.9941,2.9991-.8086,2.2198-5.8574,1.5933-9.2344,1.0049-.0351,2.0098-.0722,3.0156-.1337a1.55293,1.55293,0,0,0,1.4766-1.9385c-3.3677-13.2227-5.2393-26.5801-7.0933-40.0225,7.8189.4248,18.2969-4.2207,22.0323-11.6162a8.43688,8.43688,0,0,0,2.6831.1514c-.0269.0488-.05619.0927-.0811.1416a.93094.93094,0,0,0,1.0386,1.3515c2.581-.7265,3.3418-4.6582,2.40231-6.8281a5.12876,5.12876,0,0,0-6.145-2.7978,4.43015,4.43015,0,0,0-2.59721,5.6533,3.56583,3.56583,0,0,0,.9048,1.3594c-2.5659,2.7041-4.7539,5.4423-8.1787,7.4482a34.295,34.295,0,0,1-12.2241,3.9434q-.51495-3.7413-1.0435-7.4913a.26026.26026,0,0,0-.2002-.2255c8.1143-2.7237,15.064-8.1104,18.3008-15.9795a4.83851,4.83851,0,0,0,7.2769-2.7832,4.11723,4.11723,0,0,0-5.4424-4.8555c1.4145-16.2051-10.042-37.7959-28.2715-35.7949a1.27669,1.27669,0,0,0-.3271-.2285,29.03851,29.03851,0,0,0-39.4649,18.3105,31.83486,31.83486,0,0,0-1.2324,10.5723,5.48223,5.48223,0,0,0-1.72849.6992,4.39525,4.39525,0,0,0-2.09911,4.0703,4.29859,4.29859,0,0,0,5.3173,3.4131,35.72183,35.72183,0,0,0,18.1993,20.832q-.5985,2.62215-1.232,5.2266a.84718.84718,0,0,0-.4468-.0547c-6.9428,1.1309-13.7822-.2471-19.2846-4.7695-4.3965-3.6123-6.2647-8.0821-7.9702-13.1534a4.06058,4.06058,0,0,0,3.0424-3.3935.8112.8112,0,0,0,.2051-.1992c1.3677-2.4688-1.9233-5.336-4.23139-5.3946A4.77831,4.77831,0,0,0,157.67544,120.97291Zm15.979-5.4473a2.71361,2.71361,0,0,1-2.88579-2.3398,2.50147,2.50147,0,0,1,1.49609-2.2432,1.731,1.731,0,0,1,.481-.1347A31.88766,31.88766,0,0,0,173.65444,115.52561Zm67.1254,5.9151a25.88243,25.88243,0,0,0,.9175-4.0947.67834.67834,0,0,0,.1514-.0372,2.4016,2.4016,0,0,1,3.1611,3.0938C244.23,122.35181,242.33554,122.179,240.77984,121.44071Zm5.2735,9.4287a2.85559,2.85559,0,0,1,3.2925,2.2139,2.94473,2.94473,0,0,1-.4815,2.2714,8.70114,8.70114,0,0,1-2.9643-.2802c.0302-.0879.0732-.1699.1015-.2588a.63468.63468,0,0,0-1.0527-.6123c-.044.042-.0825.084-.1255.126a1.86753,1.86753,0,0,1-.3101-.6358A2.34735,2.34735,0,0,1,246.05334,130.86941Zm-60.5611,92.5654c-.206.042-.41159.0889-.61859.127-1.07371.206-2.15581.3877-3.24121.5185-1.4541.1748-4.3277.7442-4.13579-1.5615.17049-2.0537,2.57819-2.334,4.15869-1.7949C183.20714,221.25121,184.24624,222.47681,185.49224,223.43481Zm7.4522-141.6611c-1.8481,2.1348-4.3564,3.7705-6.1025,6.0176a28.16255,28.16255,0,0,0-3.521,5.9414c-1.7989,4.0996-2.9244,8.9638-2.062,13.4199-2.4468-.1699-4.73929-1.4229-5.4322-3.9248.0962-.7119.2002-1.4258.3511-2.1406A26.35413,26.35413,0,0,1,192.94444,81.77371Zm-4.4893,19.0088c.5059,3.8799-2.6377,6.0869-5.9394,6.3603.70991-5.8662,1.124-11.0146,4.2285-16.2617a28.2555,28.2555,0,0,1,3.418-4.3857c-2.8008,4.4912-3.9468,10.1299-1.7012,14.1845A.88017.88017,0,0,0,188.45514,100.78251Zm18.8379-20.0586c-5.6513,3.2402-9.0815,10.0762-9.3432,16.501a.797.797,0,0,0-.48.7187,7.67082,7.67082,0,0,0,.1323,1.2998q-2.94135,4.8486-7.1724.7217a1.11033,1.11033,0,0,0-.9326-.3037c-2.1274-7.4424,4.1939-16.0498,10.4517-19.1826a.59551.59551,0,0,0,.2715-.2657c.75-.0488,1.5049-.0556,2.2617-.04-6.33739,4.4961-10.8799,13.5029-8.5713,20.9873a.44952.44952,0,0,0,.8784-.1201c.7217-8.8789,3.0337-15.4395,10.5347-20.6572C205.98,80.47191,206.63734,80.58031,207.293,80.72391Zm3.94,1.2187a34.1466,34.1466,0,0,0-7.1162,22.0498c-2.1324-1.2304-3.4454-3.2744-4.6226-5.5322.0249-.1914.061-.376.0728-.5762a.52391.52391,0,0,0-.4039-.5419c.899-7.0909,5.1143-11.9766,10.9649-15.8213C210.49814,81.64971,210.86534,81.79621,211.233,81.94261Zm-2.8145,23.167a8.42346,8.42346,0,0,1-1.979-.2041,8.58539,8.58539,0,0,1-1.5415-.5312,43.7531,43.7531,0,0,1,6.81061-20.1709C212.23394,91.68971,211.85754,98.02761,208.41854,105.10961Zm7.53911-3.8154a10.49271,10.49271,0,0,1-6.05521,3.6816c3.9429-6.5966,5.76321-15.4853,3.145-22.7822l.0171-.0264.0054-.0126a1.35807,1.35807,0,0,0,.2065-.1104c.1441.0234.2847.0498.4283.0732,2.0625,2.4834,4.1313,4.5782,4.8686,7.919C219.46934,94.09011,218.07284,97.89771,215.95765,101.29421Zm3.61719-14.46c3.1801,5.7012,3.96681,10.9688,1.9716,17.8916-1.476-1.1211-1.8417-2.7148-2.4492-4.3974a.80253.80253,0,0,0-.8022-.4854l-.0059-.0068A15.62456,15.62456,0,0,0,219.57484,86.83421Zm2.7871.584c3.8315,4.0156,5.0888,8.9766,4.5903,15.2041a.59421.59421,0,0,0-.085.5371c.0137.045.0157.0811.02741.1231-.04831.4912-.10841.9922-.17731,1.4971-.7739,1.0244-2.9912.9287-4.3193.4267a.41586.41586,0,0,0,.0689-.0762C225.48,100.15061,225.35024,92.74631,222.36194,87.41821Zm2.4721-1.5937c5.32961,7.7343,9.7188,14.1816,8.3492,24.3418a5.44379,5.44379,0,0,1-.6499-.3242c-2.2735-1.3731-2.49169-3.5704-3.1158-5.875a.74921.74921,0,0,0-.538-.4922c2.4077-6.4151-.3272-14.0352-5.5806-18.4434C223.81944,85.28151,224.33165,85.54421,224.834,85.82451Zm14.1524,23.625a7.11821,7.11821,0,0,1-3.11479,1.1992,6.0981,6.0981,0,0,1-1.85841-.1953c2.2735-7.4805-.3442-15.8272-5.271-21.9424a25.21166,25.21166,0,0,1,5.1441,5.8535,34.754,34.754,0,0,1,4.9189,13.6104.45864.45864,0,0,0,.044.331C238.89954,108.68681,238.94834,109.06761,238.98644,109.44951Zm-42.3574,26.9551c-.9336-.3516-1.8428-.7452-2.7315-1.1729a.64162.64162,0,0,0-.4121-.2168c-10.4941-5.2158-17.6011-15.542-17.9057-27.0771,4.0698,3.3603,13.665,1.3789,15.0507-4.8174a5.72736,5.72736,0,0,0,7.72221-1.6104,11.32848,11.32848,0,0,0,8.67579,5.9102,10.89994,10.89994,0,0,0,10.4321-5.4561c.1118,2.6504,2.792,5.1377,5.2734,5.6572a5.55835,5.55835,0,0,0,4.8594-1.4677c.211,3.4883,3.9214,6.4922,7.3384,6.6552a7.52619,7.52619,0,0,0,4.1958-.9902,27.24226,27.24226,0,0,1-1.3096,9.4248C232.39614,137.25421,210.87654,141.76881,196.629,136.40461Zm19.0918,86.4316a.893.893,0,0,0,.4604-.0108,1.026,1.026,0,0,0,.418.6084,7.41113,7.41113,0,0,1-4.1113,2.3379c-1.1568.2139-3.7085.3457-4.57229-.7158-1.65481-2.0312,2.79439-3.2539,3.791-3.2959C213.26184,221.69651,214.29794,222.47881,215.72084,222.83621Zm-9.1734-28.6289a24.65006,24.65006,0,0,0,.1963-4.7832,102.7357,102.7357,0,0,0,17.1875,1.0859,14.05126,14.05126,0,0,1-.2578,4.5547c-.8354,2.5137-3.2012,1.5205-5.3726,1.1465Q212.42609,195.20051,206.54744,194.20731Zm-21.9121-11.0332c.0064-.0147.0034-.0303.00931-.0449,3.854,2.2519,8.54249,3.3925,12.77829,4.4306a20.52422,20.52422,0,0,1-2.2222,6.9746c-2.45209-.7314-4.9184-1.414-7.3798-2.1113-1.5127-.4277-4.9136-.751-6.5235-1.6699C182.01914,188.19361,183.63434,185.53251,184.63534,183.17411Zm9.0308-44.8047c1.0517.4687,2.1294.8926,3.2329,1.2637a39.82148,39.82148,0,0,0,24.436-.0479.33963.33963,0,0,0-.0923.1944c-.9423,15.997,1.75491,32.083,5.58991,47.5771a97.68993,97.68993,0,0,1-23.58991-1.6279c-6.8442-1.3653-15.643-2.9971-20.80609-8.0938,3.48529-4.8408,4.96139-12.8945,6.709-18.5166A119.67544,119.67544,0,0,0,193.66614,138.36941Zm-33.4903-17.7295a2.36,2.36,0,0,1,2.3951-2.3047c1.667.1563,1.7998,1.5694,2.2968,2.7656a2.41129,2.41129,0,0,1-2.4238,1.7686.85694.85694,0,0,0-.6016-.1201A2.23849,2.23849,0,0,1,160.17584,120.63991Z" fill="#572800"/>
            <path d="M218.40244,115.34891a5.21557,5.21557,0,0,1,5.397-.6016c2.622,1.3916,3.5244,6.0576.247,7.2539-1.0317.375-1.5761-.9951-.9834-1.6904a1.95117,1.95117,0,0,0-1.1196-2.9805c-2.3471-.4267-2.813,2.6104-4.54779,3.208a1.13983,1.13983,0,0,1-1.28231-.5224C215.24274,118.29321,217.064,116.31181,218.40244,115.34891Z" fill="#572800"/>
            <path d="M190.37754,110.52861c2.8013-.2237,6.0977,2.5713,5.0566,5.5615a1.01238,1.01238,0,0,1-1.9331,0c-.52239-1.3008-1.4126-3.0713-3.1362-2.7119-1.748.3642-1.7114,2.1201-2.2778,3.4053-.3726.8447-1.5161.6132-1.9463,0C184.31165,114.17411,187.87214,110.73071,190.37754,110.52861Z" fill="#572800"/>
            <path d="M203.10365,121.41921c1.67039-1.4189,4.48869-1.3525,5.67279.6416a.64062.64062,0,0,1-1.0024.7725,2.38628,2.38628,0,0,0-3.5361.6533,14.06606,14.06606,0,0,1,1.8413,1.0244.9417.9417,0,0,1-.19,1.4697c-1.2221.6387-3.2612-.2451-3.9009-1.4678C201.44394,123.47191,202.32924,122.07641,203.10365,121.41921Z" fill="#572800"/>
            <path d="M205.18854,131.50511c3.5708.8028,6.7632.9737,9.5674-1.8369.4478-.4502,1.26471.1387.898.6924-2.2862,3.458-7.78229,5.417-11.3042,2.585C203.63094,132.36741,204.42544,131.33421,205.18854,131.50511Z" fill="#572800"/>
          </g>
          <g>
            <path d="M108.69245,8.91821s5.0538-7.9414,12.273-8.3027,16.793-1.9356,23.7378,11.125c0,0,3.584,2.3545,3.8765,9.6621s-1.9727,14.543-5.6998,17.3193-9.7192,5.5528-15.9306,4.5303-17.4649-1.6064-20.315-9.1338S101.25055,20.69461,108.69245,8.91821Z" fill="#fff" fill-rule="evenodd"/>
            <g>
              <path d="M127.67974,44.01591a35.66951,35.66951,0,0,1-14.6303-3.5137c-6.313-3.0059-9.3657-8.0469-10.0479-14.6562-.5493-5.3272,1.0342-10.2559,3.6792-14.8965,5.2876-9.2744,13.54491-12.0264,22.752-10.5918a30.65859,30.65859,0,0,1,5.4814,1.0429,16.48348,16.48348,0,0,1,4.35351,2.5254c2.08259,1.5821,4.31109,3.125,5.78419,5.293a23.97358,23.97358,0,0,1,2.6323,23.459,17.04265,17.04265,0,0,1-7.83249,9.0801,20.75492,20.75492,0,0,1-10.04931,2.2558A6.08522,6.08522,0,0,0,127.67974,44.01591Zm-.7963-29.7412c-.8023.0556-1.4292-.1026-1.9844.4404-1.044,1.0205-2.209,1.918-3.2388,2.9521-3.8203,3.8409-3.84959,3.9776-2.4775,8.4844.1513.499.4472.9522.6191,1.4463a4.43709,4.43709,0,0,0,4.0576,3.2539,9.04109,9.04109,0,0,1,4.1563,1.2686c1.2954.8691,1.9175.2568,2.3183-.9053.9463-2.752,3.1241-4.5781,4.9961-6.6191.41751-.4551.62851-.6543.3487-1.251a16.98079,16.98079,0,0,1-1.71-5.6612,1.70312,1.70312,0,0,0-.9726-1.372A17.73663,17.73663,0,0,0,126.88344,14.27471Zm-16.9063-.6885a10.25848,10.25848,0,0,0,.7803,3.8066c.2178.5938.5347,1.0352,1.248,1.0059a8.02547,8.02547,0,0,1,4.2881,1.3623c1.03711.5928,1.5718.2998,2.3267-.4932a35.86367,35.86367,0,0,1,5.25341-5.1299c.28419-.1962.68939-.3886.45459-.8037-1.1318-1.997-1.3921-4.5722-3.6333-5.8359-1.4199-.7988-2.9556-1.3906-4.418-2.1172-.4902-.2441-.9014-.3467-1.17429.209a7.35631,7.35631,0,0,1-2.459,2.4102A6.54408,6.54408,0,0,0,109.97715,13.58621Zm38.1172,7.3574c-.3584-1.664-.74369-3.251-1.0322-4.8555a2.56919,2.56919,0,0,0-1.6533-2.1914,28.96564,28.96564,0,0,1-4.4224-2.457c-.8306-.5439-1.2954-.4756-1.8584.2969a9.36416,9.36416,0,0,1-1.3887,1.3291c-2.0903,1.8877-3.081,4.1689-1.99169,6.8896.80179,2,.93209,4.8037,4.24659,4.5762.2061-.0156.44241.3418.6563.5332,2.7495,2.4541,2.7495,2.4541,5.2895-.2744a4.20777,4.20777,0,0,0,.5918-.6436A8.47242,8.47242,0,0,0,148.09434,20.94361Zm-19.3804,14.5625c-.084-.2949.7749-1.3125-.186-1.9062-2.5718-1.5918-5.6982-1.5039-8.4727-2.6123-.9091-.3643-1.5883,1.792-2.6767,2.4824-.3423.2187-.6358.5195-.9863.7236-.72859.4258-.8467.8936-.5191,1.7285a10.765,10.765,0,0,0,10.6201,6.7539c.4693-.041.9195-.2011.9336-.6123C127.49574,39.94751,129.274,38.23461,128.71394,35.50611Zm-20.0288-24.6152c-2.10249,2.251-4.43549,7.872-4.1548,10.0234a5.9301,5.9301,0,0,0,1.1612,2.2666c.3476.5225.6362.2315.8593-.2275a13.53869,13.53869,0,0,1,2.7325-3.6094c.3256-.3262.6172-.6592.3999-1.2197A14.79377,14.79377,0,0,1,108.68515,10.89091Zm8.9033,29.792a10.60578,10.60578,0,0,1-3.1743-5.5655c-.1181-.4003-.0073-.9863-.6557-1.1015-1.2583-.2246-2.5137-.4717-3.7749-.6797-.5533-.0918-.7691.2471-.6416.7324.3676,1.3975.646,2.9453,1.8032,3.8682A12.80988,12.80988,0,0,0,117.58845,40.68291Zm26.9214-5.3916c2.94881-3.291,3.0244-7.2383,3.5264-11.1035a17.35978,17.35978,0,0,1-3.51759,3.6044c-.34321.2706-.79641.8204-.72411,1.1299C144.26814,30.94751,143.84774,33.07841,144.50984,35.29131Zm-22.3423-34.0137a22.86411,22.86411,0,0,0-6.2685,2.3701c2.042,1.376,4.3901,1.9541,6.0434,3.5176C123.04845,5.14481,120.92395,3.32251,122.16755,1.27761Zm15.5186,24.7256c.27051,4.1982-.21,8.3965.4121,12.5771a2.36247,2.36247,0,0,0,.8818,1.6416.6286.6286,0,0,0,.7813.0635c.313-.1641.1587-.3896.1099-.5976-.9312-4.0704-.7281-8.2364-1.04059-12.3594C138.77744,26.65161,138.83454,26.009,137.68614,26.00321Zm-23.085,7.2236c-.9594-4.4336-2.5273-8.5996-2.5796-13.0517-.0087-.6661-.4106-.5479-.8051-.5606-.355-.0117-.6651.209-.5523.4893.9507,2.3711.18851,4.9189.8072,7.332C112.02255,29.595,112.56065,31.71121,114.60115,33.22681Zm-6.3486,1.1895c-.8184-3.5938-1.562-7.1953-3.5561-10.3438A12.61656,12.61656,0,0,0,108.25255,34.41631Zm29.8823-29.5059c1.0186,3.5606,2.9331,6.043,6.5699,6.8281C143.71934,9.44171,141.26284,6.87131,138.13484,4.91041Zm-8.0971,9.0762c-1.7168-3.4346-3.4859-6.4551-6.6075-8.5166.022.6494-.3969,1.3721.4278,1.7929a7.46855,7.46855,0,0,1,3.582,4.9112C127.89854,13.82841,128.84534,13.62621,130.03774,13.98661Zm-5.2432-12.6045c2.3564,4.2256,6.2144,7.25,8.6352,11.3916a14.16674,14.16674,0,0,0-1.4184-2.9258c-1.4888-2.498-3.6992-4.5068-4.9463-7.1514C126.58314,1.67511,126.27894.76591,124.79454,1.38211ZM113.73,19.97681c-.1772.0137-.35639.0274-.5336.0391.42621,2.7871.8349,5.5771,1.289,8.3594a32.51222,32.51222,0,0,0,.6943,3.2402c.1851.6865.7183,1.1836,1.439.8682.8145-.3575.4946-.9131.0894-1.504a12.68891,12.68891,0,0,1-.87749-1.9033C114.51375,26.19561,114.27645,23.04911,113.73,19.97681Zm20.483-4.5537c1.80761-1.4775,2.0351-2.9814.32761-4.5713a.73.73,0,0,1-.18261-.2969c-.8511-2.5468-2.8946-4.3701-4.0772-6.7207a3.44469,3.44469,0,0,0-2.2724-1.5586c1.4448,1.9395,2.6943,3.4571,3.7651,5.0948,1.52,2.3193,3.95411,4.4199,2.2695,7.708C134.01424,15.13111,134.12854,15.259,134.213,15.42311Zm-1.0166,26.9463a1.47429,1.47429,0,0,0-.7334-1.1104c-3.2916-2.4502-3.17439-2.1123-4.0552,1.4346A26.88679,26.88679,0,0,0,133.19644,42.36941Zm7.4599-3.6699c.1538.0371.3106.0713.4644.1074.21191-.4609.6577-.9531.5996-1.376-.4458-3.2314-.6538-6.4795-.80669-9.7334-.01461-.3086-.10491-.6133-.46771-.5957-.4175.0176-.3555.3926-.3428.6631C140.296,31.40851,140.71054,35.03931,140.65634,38.69951Zm-3.9238-12.1221c-1.2554.6865-1.085,1.2529-1.0835,1.7471a57.8162,57.8162,0,0,0,.5962,7.6679c.206,1.4991.4345,2.9942.6753,4.4864.0449.2754.18111.6191.5586.4863.4218-.1455.2041-.4316.06151-.6797a7.96038,7.96038,0,0,1-.79931-4.0586C136.71394,33.14671,136.73254,30.06671,136.73254,26.57741Zm-1.2256,15.3018c-.1768-3.8194-.9478-7.5694-1.144-11.377C134.14754,34.34991,133.53965,38.23071,135.50694,41.87921Zm-25.98829-21.0166c-.49021,2.5615-.77441,5.1494.79439,7.5771C109.775,25.94461,110.01475,23.39771,109.51865,20.86261Zm18.21579-13.5567a17.155,17.155,0,0,0,2.3995,4.3067c1.7885,2.7832,1.8125,2.7666,2.8076,2.8154C131.23444,12.26591,130.08365,9.67021,127.73444,7.30591Zm5.522,32.8643c-.4145-3.1797-.2651-6.3858-.4443-9.5762C132.85214,33.79031,131.99965,37.02171,133.25644,40.17021Zm-23.5439-8.7832c-.958-2.4854-1.9483-4.9463-1.8682-7.6885C106.80915,25.64481,107.81015,29.76391,109.71255,31.387Zm21.5796,1.3652c-1.0899.9688-1.1509,4.7647,0,5.8945Zm-12.313-3.0371c-.9493-2.6074-1.5-5.3105-2.3379-7.9277A14.63313,14.63313,0,0,0,118.97915,29.71511Zm16.0966-20.4043c-.7143-2.0391-1.3886-4.1016-3.1816-5.4971Q133.485,6.56186,135.07574,9.31081Zm-7.6044-2.1963c-.9581-1.7109-2.8916-2.6738-3.379-4.7178-.1084-.4521-.4648-.0976-.6792.0118-.2788.1416-.4917.3818-.1616.6533C124.76724,4.30491,125.74274,6.08621,127.47134,7.11451Zm-1.0694,6.0713a10.289,10.289,0,0,0-2.5195-4.2412C124.57184,10.46221,124.796,12.259,126.40194,13.18581Zm7.8418-8.4678q1.2261,2.00835,2.4517,4.0147A6.68254,6.68254,0,0,0,134.24374,4.718Z" fill-rule="evenodd"/>
              <path d="M126.88344,14.27471a17.73663,17.73663,0,0,1,6.1128,2.0371,1.70312,1.70312,0,0,1,.9726,1.372,16.98079,16.98079,0,0,0,1.71,5.6612c.27981.5967.06881.7959-.3487,1.251-1.872,2.041-4.0498,3.8671-4.9961,6.6191-.4008,1.1621-1.0229,1.7744-2.3183.9053a9.04109,9.04109,0,0,0-4.1563-1.2686,4.43709,4.43709,0,0,1-4.0576-3.2539c-.1719-.4941-.4678-.9473-.6191-1.4463-1.37209-4.5068-1.3428-4.6435,2.4775-8.4844,1.0298-1.0341,2.1948-1.9316,3.2388-2.9521C125.45424,14.17211,126.08114,14.33031,126.88344,14.27471Z" fill="none" fill-rule="evenodd"/>
              <path d="M109.97715,13.58621a6.54408,6.54408,0,0,1,2.66651-5.5859,7.35631,7.35631,0,0,0,2.459-2.4102c.27289-.5557.68409-.4531,1.17429-.209,1.4624.7266,2.9981,1.3184,4.418,2.1172,2.2412,1.2637,2.5015,3.8389,3.6333,5.8359.2348.4151-.1704.6075-.45459.8037a35.86367,35.86367,0,0,0-5.25341,5.1299c-.7549.793-1.28959,1.086-2.3267.4932a8.02547,8.02547,0,0,0-4.2881-1.3623c-.7133.0293-1.0302-.4121-1.248-1.0059A10.25848,10.25848,0,0,1,109.97715,13.58621Z" fill="none" fill-rule="evenodd"/>
              <path d="M148.09434,20.94361a8.47242,8.47242,0,0,1-1.5625,3.2031,4.20777,4.20777,0,0,1-.5918.6436c-2.54,2.7285-2.54,2.7285-5.2895.2744-.21389-.1914-.4502-.5488-.6563-.5332-3.3145.2275-3.4448-2.5762-4.24659-4.5762-1.08931-2.7207-.09861-5.0019,1.99169-6.8896a9.36416,9.36416,0,0,0,1.3887-1.3291c.563-.7725,1.0278-.8408,1.8584-.2969a28.96564,28.96564,0,0,0,4.4224,2.457,2.56919,2.56919,0,0,1,1.6533,2.1914C147.35065,17.69261,147.73594,19.27961,148.09434,20.94361Z" fill="none" fill-rule="evenodd"/>
              <path d="M128.71394,35.50611c.5601,2.7285-1.2182,4.4414-1.2871,6.5576-.0141.4112-.4643.5713-.9336.6123a10.765,10.765,0,0,1-10.6201-6.7539c-.3276-.8349-.20949-1.3027.5191-1.7285.3505-.2041.644-.5049.9863-.7236,1.0884-.6904,1.7676-2.8467,2.6767-2.4824,2.7745,1.1084,5.9009,1.0205,8.4727,2.6123C129.48884,34.19361,128.62994,35.21121,128.71394,35.50611Z" fill="none" fill-rule="evenodd"/>
              <path d="M108.68515,10.89091a14.79377,14.79377,0,0,0,.9981,7.2334c.2173.5605-.0743.8935-.3999,1.2197a13.53869,13.53869,0,0,0-2.7325,3.6094c-.2231.459-.5117.75-.8593.2275a5.9301,5.9301,0,0,1-1.1612-2.2666C104.24965,18.76291,106.58265,13.14191,108.68515,10.89091Z" fill="none" fill-rule="evenodd"/>
              <path d="M117.58845,40.68291a12.80988,12.80988,0,0,1-6.4433-2.7461c-1.1572-.9229-1.4356-2.4707-1.8032-3.8682-.1275-.4853.0883-.8242.6416-.7324,1.2612.208,2.5166.4551,3.7749.6797.6484.1152.5376.7012.6557,1.1015A10.60578,10.60578,0,0,0,117.58845,40.68291Z" fill="none" fill-rule="evenodd"/>
              <path d="M144.50984,35.29131c-.6621-2.2129-.2417-4.3438-.7153-6.3692-.0723-.3095.3809-.8593.72411-1.1299a17.35978,17.35978,0,0,0,3.51759-3.6044C147.53424,28.053,147.45865,32.00031,144.50984,35.29131Z" fill="none" fill-rule="evenodd"/>
              <path d="M122.16755,1.27761c-1.2436,2.0449.8809,3.8672-.2251,5.8877-1.6533-1.5635-4.0014-2.1416-6.0434-3.5176A22.86411,22.86411,0,0,1,122.16755,1.27761Z" fill="none" fill-rule="evenodd"/>
              <path d="M137.68614,26.00321c1.1484.0058,1.0913.6484,1.14451,1.3252.31249,4.123.10939,8.289,1.04059,12.3594.0488.208.2031.4335-.1099.5976a.6286.6286,0,0,1-.7813-.0635,2.36247,2.36247,0,0,1-.8818-1.6416C137.47614,34.39971,137.95665,30.20141,137.68614,26.00321Z" fill="none" fill-rule="evenodd"/>
              <path d="M114.60115,33.22681c-2.04049-1.5156-2.5786-3.6318-3.1298-5.791-.61869-2.4131.1435-4.9609-.8072-7.332-.1128-.2803.1973-.501.5523-.4893.3945.0127.7964-.1055.8051.5606C112.07385,24.62721,113.64175,28.79321,114.60115,33.22681Z" fill="none" fill-rule="evenodd"/>
              <path d="M108.25255,34.41631a12.61656,12.61656,0,0,1-3.5561-10.3438C106.69055,27.221,107.43415,30.82251,108.25255,34.41631Z" fill="none" fill-rule="evenodd"/>
              <path d="M138.13484,4.91041c3.128,1.9609,5.5845,4.5313,6.5684,6.8301C141.06794,10.95341,139.15344,8.471,138.13484,4.91041Z" fill="none" fill-rule="evenodd"/>
              <path d="M130.03774,13.98661c-1.1924-.3604-2.1392-.1582-2.5977-1.8125a7.46855,7.46855,0,0,0-3.582-4.9112c-.8247-.4208-.4058-1.1435-.4278-1.7929C126.55184,7.53151,128.32094,10.552,130.03774,13.98661Z" fill="none" fill-rule="evenodd"/>
              <path d="M124.79454,1.38211c1.4844-.6162,1.7886.293,2.2705,1.3144,1.2471,2.6446,3.4575,4.6534,4.9463,7.1514a14.16674,14.16674,0,0,1,1.4184,2.9258C131.00894,8.63211,127.15094,5.60771,124.79454,1.38211Z" fill="none" fill-rule="evenodd"/>
              <path d="M113.73,19.97681c.5464,3.0723.7837,6.2188,2.10061,9.0996a12.68891,12.68891,0,0,0,.87749,1.9033c.4052.5909.7251,1.1465-.0894,1.504-.7207.3154-1.2539-.1817-1.439-.8682a32.51222,32.51222,0,0,1-.6943-3.2402c-.4541-2.7823-.86279-5.5723-1.289-8.3594C113.37365,20.00421,113.55285,19.99051,113.73,19.97681Z" fill="none" fill-rule="evenodd"/>
              <path d="M134.213,15.42311c-.0845-.1641-.1988-.292-.17-.3447,1.68461-3.2881-.7495-5.3887-2.2695-7.708-1.0708-1.6377-2.3203-3.1553-3.7651-5.0948a3.44469,3.44469,0,0,1,2.2724,1.5586c1.1826,2.3506,3.2261,4.1739,4.0772,6.7207a.73.73,0,0,0,.18261.2969C136.24814,12.44171,136.02065,13.94561,134.213,15.42311Z" fill="none" fill-rule="evenodd"/>
              <path d="M133.19644,42.36941a26.88679,26.88679,0,0,1-4.7886.3242c.88081-3.5469.7636-3.8848,4.0552-1.4346A1.47429,1.47429,0,0,1,133.19644,42.36941Z" fill="none" fill-rule="evenodd"/>
              <path d="M140.65634,38.69951c.0542-3.6602-.3603-7.291-.5532-10.9346-.0127-.2705-.0747-.6455.3428-.6631.3628-.0176.4531.2871.46771.5957.15289,3.2539.36089,6.502.80669,9.7334.0581.4229-.38769.9151-.5996,1.376C140.96694,38.77081,140.81014,38.73661,140.65634,38.69951Z" fill="none" fill-rule="evenodd"/>
              <path d="M136.73254,26.57741c0,3.4893-.0186,6.5693.0088,9.6494a7.96038,7.96038,0,0,0,.79931,4.0586c.14259.2481.36029.5342-.06151.6797-.37749.1328-.5137-.2109-.5586-.4863-.2408-1.4922-.4693-2.9873-.6753-4.4864a57.8162,57.8162,0,0,1-.5962-7.6679C135.64754,27.83031,135.47714,27.26391,136.73254,26.57741Z" fill="none" fill-rule="evenodd"/>
              <path d="M135.50694,41.87921c-1.96729-3.6485-1.3594-7.5293-1.144-11.377C134.55914,34.30981,135.33014,38.05981,135.50694,41.87921Z" fill="none" fill-rule="evenodd"/>
              <path d="M109.51865,20.86261c.49609,2.5351.25639,5.082.79439,7.5771C108.74425,26.012,109.02845,23.42411,109.51865,20.86261Z" fill="none" fill-rule="evenodd"/>
              <path d="M127.73444,7.30591c2.34921,2.3643,3.5,4.96,5.2071,7.1221-.9951-.0488-1.0191-.0322-2.8076-2.8154A17.155,17.155,0,0,1,127.73444,7.30591Z" fill="none" fill-rule="evenodd"/>
              <path d="M133.25644,40.17021c-1.25679-3.1485-.4043-6.3799-.4443-9.5762C132.99134,33.78441,132.84194,36.99051,133.25644,40.17021Z" fill="none" fill-rule="evenodd"/>
              <path d="M109.71255,31.387c-1.9024-1.6231-2.9034-5.7422-1.8682-7.6885C107.76425,26.44071,108.75455,28.90161,109.71255,31.387Z" fill="none" fill-rule="evenodd"/>
              <path d="M131.29214,32.75221v5.8945C130.14124,37.51691,130.20224,33.721,131.29214,32.75221Z" fill="none" fill-rule="evenodd"/>
              <path d="M118.97915,29.71511a14.63313,14.63313,0,0,1-2.3379-7.9277C117.47915,24.40461,118.02985,27.10771,118.97915,29.71511Z" fill="none" fill-rule="evenodd"/>
              <path d="M135.07574,9.31081q-1.59225-2.7495-3.1816-5.4971C133.68714,5.20921,134.36144,7.27171,135.07574,9.31081Z" fill="none" fill-rule="evenodd"/>
              <path d="M127.47134,7.11451c-1.7286-1.0283-2.7041-2.8096-4.2198-4.0527-.3301-.2715-.1172-.5117.1616-.6533.2144-.1094.5708-.4639.6792-.0118C124.57974,4.44071,126.51324,5.40361,127.47134,7.11451Z" fill="none" fill-rule="evenodd"/>
              <path d="M126.40194,13.18581c-1.6059-.9268-1.8301-2.7236-2.5195-4.2412A10.289,10.289,0,0,1,126.40194,13.18581Z" fill="none" fill-rule="evenodd"/>
              <path d="M134.24374,4.718a6.68254,6.68254,0,0,1,2.4517,4.0147Q135.47009,6.72586,134.24374,4.718Z" fill="none" fill-rule="evenodd"/>
            </g>
          </g>
        </g>
      </g>
    </g>
  </g>
</svg>
