<svg xmlns="http://www.w3.org/2000/svg" viewBox="0 0 157.48296 123.63481">
  <title>Recurso 10</title>
  <g id="Capa_2" data-name="Capa 2">
    <g id="Editar">
      <g>
        <g>
          <g>
            <path d="M155.48284,111.06035c.1308-1.7002-.8926-2.3291-2.7266-2.4785a2.62592,2.62592,0,0,0-2.6328,2.1738,2.725,2.725,0,0,0,1.583,2.8877,2.57256,2.57256,0,0,0,3.2402-1.0137A7.85771,7.85771,0,0,0,155.48284,111.06035Z" fill="#1d1d1b" fill-rule="evenodd"/>
            <path d="M139.10584,79.284a2.502,2.502,0,0,0-2.4004-2.5039,2.44768,2.44768,0,0,0-2.5,2.3857,2.48361,2.48361,0,0,0,2.3838,2.5166A2.53183,2.53183,0,0,0,139.10584,79.284Z" fill="#1d1d1b" fill-rule="evenodd"/>
            <path d="M127.49354,72.86405a2.4335,2.4335,0,1,0-2.6562,2.208A2.42683,2.42683,0,0,0,127.49354,72.86405Z" fill="#1d1d1b" fill-rule="evenodd"/>
            <path d="M107.30994,84.77905a2.31753,2.31753,0,0,0-2.1211-2.5537,2.362,2.362,0,0,0-.3994,4.707A2.29882,2.29882,0,0,0,107.30994,84.77905Z" fill="#1d1d1b" fill-rule="evenodd"/>
            <path d="M68.41443,28.91775a2.34154,2.34154,0,1,0,2.1533,2.5176A2.34644,2.34644,0,0,0,68.41443,28.91775Z" fill="#1d1d1b" fill-rule="evenodd"/>
            <path d="M94.29823,35.37965a2.19614,2.19614,0,0,0,1.3447,2.1914,2.24976,2.24976,0,0,0,2.7549-3.3349,4.22238,4.22238,0,0,0-.9961-.9307,1.73832,1.73832,0,0,0-2.4433.3867A3.04894,3.04894,0,0,0,94.29823,35.37965Z" fill="#1d1d1b" fill-rule="evenodd"/>
            <path d="M99.182,74.56125a2.169,2.169,0,0,0,2.0937,2.3731,2.08971,2.08971,0,0,0,2.3458-2.0752,2.225,2.225,0,1,0-4.4395-.2979Z" fill="#1d1d1b" fill-rule="evenodd"/>
            <path d="M118.682,82.37865a1.81379,1.81379,0,0,0-2.4229-2.0556,3.18889,3.18889,0,0,0-1.6621,2.084,1.89221,1.89221,0,0,0,1.0909,2.0029,1.75964,1.75964,0,0,0,2.2041-.4668A9.87388,9.87388,0,0,0,118.682,82.37865Z" fill="#1d1d1b" fill-rule="evenodd"/>
            <path d="M83.35293,28.324a1.92418,1.92418,0,0,0-2.0498,1.8516,1.98515,1.98515,0,0,0,1.8154,2.1074,1.95251,1.95251,0,0,0,2.1172-1.9502A1.90664,1.90664,0,0,0,83.35293,28.324Z" fill="#1d1d1b" fill-rule="evenodd"/>
            <path d="M108.15474,68.72535a1.96844,1.96844,0,0,0,3.9287.2344,1.91935,1.91935,0,0,0-1.9141-2.1426A1.94969,1.94969,0,0,0,108.15474,68.72535Z" fill="#1d1d1b" fill-rule="evenodd"/>
            <path d="M122.31194,66.30645a1.92653,1.92653,0,0,0,.2793-3.8428,1.92795,1.92795,0,1,0-.2793,3.8428Z" fill="#1d1d1b" fill-rule="evenodd"/>
            <path d="M115.07074,53.57005a1.82854,1.82854,0,0,0,1.3916,2.0616,1.88046,1.88046,0,0,0,2.247-1.1407,1.913,1.913,0,0,0-.8896-2.3584,3.13486,3.13486,0,0,0-.5703-.2187,1.5071,1.5071,0,0,0-2.041,1.0478A5.34274,5.34274,0,0,0,115.07074,53.57005Z" fill="#1d1d1b" fill-rule="evenodd"/>
            <path d="M143.00434,87.53785a1.93121,1.93121,0,1,0,1.9306-1.8418A2.01,2.01,0,0,0,143.00434,87.53785Z" fill="#1d1d1b" fill-rule="evenodd"/>
            <path d="M151.39,95.61015a1.848,1.848,0,0,0-2.0205,1.665,1.89325,1.89325,0,1,0,3.7617.4326A1.84951,1.84951,0,0,0,151.39,95.61015Z" fill="#1d1d1b" fill-rule="evenodd"/>
            <path d="M154.33434,122.00275a1.85936,1.85936,0,0,0-1.624-2.0752,1.91794,1.91794,0,0,0-2.0732,1.6386,1.87381,1.87381,0,0,0,1.6484,2.0547A1.80983,1.80983,0,0,0,154.33434,122.00275Z" fill="#1d1d1b" fill-rule="evenodd"/>
            <path d="M108.50234,42.68435a1.76566,1.76566,0,0,0-1.9072,1.1465,1.56657,1.56657,0,0,0,.6689,1.7304,4.22889,4.22889,0,0,0,1.2325.5762,1.637,1.637,0,0,0,1.9707-1.0185,1.69732,1.69732,0,0,0-.9141-2.169A6.18659,6.18659,0,0,0,108.50234,42.68435Z" fill="#1d1d1b" fill-rule="evenodd"/>
          </g>
          <g>
            <path d="M64.07263,27.04765a6.12806,6.12806,0,0,1-.1474-.6778,2.5936,2.5936,0,0,1,3.7422-2.7734,2.79612,2.79612,0,0,1,.33.1738,3.5929,3.5929,0,0,1,1.4356,1.5332,5.25735,5.25735,0,0,1,.5371,1.044,7.43326,7.43326,0,0,1,.2305.7187,5.22934,5.22934,0,0,1,1.5039-1.1357,4.33987,4.33987,0,0,1,.6171-.2676c.0147-.0117.0303-.0254.044-.0361a2.33781,2.33781,0,0,1,2.1035-.2031,3.09846,3.09846,0,0,1,1.2647.707,1.55217,1.55217,0,0,1,.2988.3271c.0244.0342.0478.0606.0742.0957a2.55442,2.55442,0,0,1,.251,2.1524c-.2598,1.4043-1.96,2.3467-2.9697,3.1631a13.47592,13.47592,0,0,0-2.0186,1.9726,16.64963,16.64963,0,0,1-1.5156,1.7295.88434.88434,0,0,1-.5772.2178.99005.99005,0,0,1-1.4228-.4756,14.99256,14.99256,0,0,0-1.3985-2.3154,19.33208,19.33208,0,0,1-1.3711-2.4844C64.77483,29.84745,63.83733,28.09645,64.07263,27.04765Z" fill="#e20613"/>
            <path d="M65.08343,32.51445a21.87535,21.87535,0,0,0,2.3535,2.6826,5.0721,5.0721,0,0,0,2.873,1.6611.76621.76621,0,0,0,.8477-.872,46.7386,46.7386,0,0,0,4.3262-4.0987c1.1582-1.3662,2.4384-3.2412,2.1621-5.1455a2.94831,2.94831,0,0,0-3.8526-2.4492,5.5453,5.5453,0,0,0-2.497.9853,3.33439,3.33439,0,0,0-.5225.5694,4.7327,4.7327,0,0,0-4.127-3.7442c-2.1748-.122-4.0615,2.0625-4.2041,4.1387C62.27873,28.62285,63.68493,30.70685,65.08343,32.51445Zm-.8203-4.5948c-.5342-1.5517.0244-3.957,1.7978-4.5166,2.044-.6464,3.6582,1.4395,3.7715,3.2735a.47181.47181,0,0,0,.2402.4043c-.0429.0937-.0859.1855-.123.2744a.438.438,0,0,0,.7939.3691A2.69259,2.69259,0,0,1,72.392,26.118a7.72971,7.72971,0,0,1,2.1377-.2481c.5097.0235,1.1923.1661,1.2587.7832a3.6346,3.6346,0,0,1-.3173,1.9532A14.35909,14.35909,0,0,1,72.65373,32.2c-.8018.8487-2.1455,1.5098-2.9209,2.4815a8.37439,8.37439,0,0,1-.9463-.7188,17.493,17.493,0,0,1-1.7647-1.9023A14.69616,14.69616,0,0,1,64.26313,27.91965Z" fill="#1d1d1b"/>
          </g>
          <g>
            <path d="M92.32563,36.74005a6.55311,6.55311,0,0,1-.502-.4795,2.594,2.594,0,0,1,1.54-4.3965,3.06844,3.06844,0,0,1,.3741-.041,3.59028,3.59028,0,0,1,2.0478.4629,5.42067,5.42067,0,0,1,1.0293.5625c.1904.1357.3984.2949.5938.4648a5.2183,5.2183,0,0,1,.6064-1.7842,5.09493,5.09493,0,0,1,.3584-.5674c.0088-.0175.0147-.0361.0205-.0507a2.3342,2.3342,0,0,1,1.624-1.3526,3.09993,3.09993,0,0,1,1.4453-.1221,1.42043,1.42043,0,0,1,.4307.1036c.0391.0107.0762.0185.1172.0332a2.5511,2.5511,0,0,1,1.4131,1.6416c.5732,1.3076-.3037,3.041-.6817,4.2881a13.44876,13.44876,0,0,0-.5644,2.7627,17.08788,17.08788,0,0,1-.2822,2.2822.889.889,0,0,1-.3575.5049.988.988,0,0,1-1.4443.4043A14.90338,14.90338,0,0,0,97.639,40.327a19.63192,19.63192,0,0,1-2.5302-1.2891C94.47893,38.66285,92.72013,37.73805,92.32563,36.74005Z" fill="#e20613"/>
            <path d="M96.22993,40.69415a21.637,21.637,0,0,0,3.456.9004,5.07727,5.07727,0,0,0,3.3106-.2364.767.767,0,0,0,.2099-1.1982,46.45974,46.45974,0,0,0,1.2813-5.8194c.1894-1.7822.2011-4.0527-1.0987-5.4736a2.94935,2.94935,0,0,0-4.5644.1358,5.51025,5.51025,0,0,0-1.5137,2.2187,3.48733,3.48733,0,0,0-.1123.7598,4.73359,4.73359,0,0,0-5.5166-.7774c-1.8682,1.1172-2.2031,3.9834-1.1572,5.7813C91.72593,39.04955,94.059,39.98125,96.22993,40.69415Zm-3.2588-3.3409c-1.3116-.9853-2.1973-3.288-1.045-4.7461,1.3291-1.6845,3.833-.8632,4.961.5938a.47162.47162,0,0,0,.4219.1982c.0175.0996.0371.1993.0546.2959a.438.438,0,0,0,.8643-.1396,2.696,2.696,0,0,1,.4629-2.2568,7.63425,7.63425,0,0,1,1.6289-1.4034c.4355-.2656,1.0801-.5332,1.4834-.0595a3.622,3.622,0,0,1,.831,1.7959,14.49559,14.49559,0,0,1-.3125,4.5566c-.1904,1.1514-.9296,2.4541-1.0253,3.6914a8.68069,8.68069,0,0,1-1.1885-.0644,17.3066,17.3066,0,0,1-2.5244-.584A14.76735,14.76735,0,0,1,92.97113,37.35325Z" fill="#1d1d1b"/>
          </g>
          <g>
            <path d="M138.64594,88.22145a6.20352,6.20352,0,0,1-.503-.4785,2.59331,2.59331,0,0,1,1.542-4.3955,2.53647,2.53647,0,0,1,.3701-.042,3.584,3.584,0,0,1,2.0479.4648,5.21852,5.21852,0,0,1,1.0312.5625c.1915.1368.3975.292.5958.4649a5.10767,5.10767,0,0,1,.6035-1.7842,4.80587,4.80587,0,0,1,.3623-.5693c.0058-.0157.0117-.0352.0185-.0518a2.338,2.338,0,0,1,1.624-1.3516,3.07187,3.07187,0,0,1,1.4415-.122,1.48573,1.48573,0,0,1,.4355.1035c.0371.0117.0742.0195.1123.0351a2.54842,2.54842,0,0,1,1.415,1.6387c.5733,1.3096-.3046,3.044-.6816,4.2891a13.33855,13.33855,0,0,0-.5615,2.7627,17.12468,17.12468,0,0,1-.2842,2.2832.8924.8924,0,0,1-.3584.5039.99078.99078,0,0,1-1.4453.4053,14.932,14.932,0,0,0-2.4531-1.1309,19.79516,19.79516,0,0,1-2.5303-1.2871C140.79824,90.14525,139.03844,89.22145,138.64594,88.22145Z" fill="#e20613"/>
            <path d="M142.54924,92.17845a21.77533,21.77533,0,0,0,3.4551.8995,5.065,5.065,0,0,0,3.3105-.2383.76527.76527,0,0,0,.2129-1.1953,47.23074,47.23074,0,0,0,1.2783-5.8204c.1914-1.7822.2012-4.0537-1.0986-5.4716a2.94842,2.94842,0,0,0-4.5625.1308,5.57448,5.57448,0,0,0-1.5156,2.2217,3.46213,3.46213,0,0,0-.1123.7588,4.73467,4.73467,0,0,0-5.5147-.7793c-1.8701,1.1191-2.206,3.9863-1.1582,5.7852C138.04534,90.53205,140.37834,91.46655,142.54924,92.17845Zm-3.2578-3.3418c-1.3125-.9873-2.1973-3.288-1.0459-4.747,1.3291-1.6846,3.8349-.8623,4.959.5908a.46761.46761,0,0,0,.4238.2002c.0185.1025.0351.2021.0537.2988a.43816.43816,0,0,0,.8643-.1416,2.70308,2.70308,0,0,1,.4628-2.2558,7.75382,7.75382,0,0,1,1.629-1.4053c.4355-.2637,1.082-.5303,1.4824-.0576a3.60878,3.60878,0,0,1,.831,1.7959,14.3188,14.3188,0,0,1-.3105,4.5556c-.1914,1.1524-.9297,2.4541-1.0264,3.6914a8.49871,8.49871,0,0,1-1.1885-.0625,17.403,17.403,0,0,1-2.5254-.5849A14.81055,14.81055,0,0,1,139.29144,88.83665Z" fill="#1d1d1b"/>
          </g>
          <g>
            <path d="M111.08734,54.48905a6.02436,6.02436,0,0,1-.502-.4805,2.68987,2.68987,0,0,1,1.9131-4.4375,3.61773,3.61773,0,0,1,2.0479.4639,5.33107,5.33107,0,0,1,1.0312.5635c.1904.1367.3965.2929.5938.4658a5.14507,5.14507,0,0,1,.6054-1.7852,4.83607,4.83607,0,0,1,.3604-.5674l.0195-.0546a2.3428,2.3428,0,0,1,1.6231-1.3487,3.0807,3.0807,0,0,1,1.4423-.1221,1.47958,1.47958,0,0,1,.4336.1016c.0371.0117.0762.0234.1172.0371a2.53753,2.53753,0,0,1,1.4121,1.6387c.5742,1.3105-.3027,3.043-.6806,4.2881a13.48538,13.48538,0,0,0-.5635,2.7617,16.91131,16.91131,0,0,1-.2822,2.2842.91387.91387,0,0,1-.3565.5049.9922.9922,0,0,1-1.4463.4033,15.1356,15.1356,0,0,0-2.4551-1.1289,19.36637,19.36637,0,0,1-2.5292-1.2881C113.24064,56.41185,111.48084,55.48805,111.08734,54.48905Z" fill="#e20613"/>
            <path d="M114.99254,58.44605a21.92031,21.92031,0,0,0,3.4541.8975,5.05459,5.05459,0,0,0,3.3116-.2364.76583.76583,0,0,0,.209-1.1972,46.84221,46.84221,0,0,0,1.2822-5.8194c.1914-1.7832.2012-4.0527-1.0996-5.4726a2.947,2.947,0,0,0-4.5616.1348,5.541,5.541,0,0,0-1.5166,2.2187,3.47856,3.47856,0,0,0-.1103.7617,4.7303,4.7303,0,0,0-5.5166-.7802c-1.8701,1.1171-2.2051,3.9843-1.1582,5.7832C110.48774,56.79765,112.82074,57.73215,114.99254,58.44605Zm-3.2597-3.3447c-1.3106-.9854-2.1973-3.2871-1.044-4.7451,1.3272-1.6846,3.833-.8614,4.9571.5937a.47948.47948,0,0,0,.4257.2002c.0176.0986.0352.1992.0528.2959a.4381.4381,0,0,0,.8642-.1416,2.70089,2.70089,0,0,1,.4629-2.2568,7.80865,7.80865,0,0,1,1.6299-1.4043c.4356-.2637,1.0801-.5313,1.4815-.0576a3.60615,3.60615,0,0,1,.832,1.7959,14.42522,14.42522,0,0,1-.3115,4.5586c-.1914,1.1494-.9307,2.4511-1.0244,3.6875a8.09223,8.09223,0,0,1-1.1885-.0625,17.29286,17.29286,0,0,1-2.5264-.584A14.76388,14.76388,0,0,1,111.73284,55.10135Z" fill="#1d1d1b"/>
          </g>
          <g>
            <path d="M106.723,68.58865c-.1279-.1113-.249-.2266-.3603-.3438a1.85937,1.85937,0,0,1,1.1064-3.1523,1.80161,1.80161,0,0,1,.2666-.0332,2.58042,2.58042,0,0,1,1.4688.334,3.74909,3.74909,0,0,1,.7402.4023c.1367.0987.2852.2119.4248.335a3.75773,3.75773,0,0,1,.4355-1.2803,3.45923,3.45923,0,0,1,.2579-.4062.17931.17931,0,0,1,.0146-.0371,1.66956,1.66956,0,0,1,1.165-.9708,2.21832,2.21832,0,0,1,1.0352-.0878,1.04158,1.04158,0,0,1,.3115.0752.68936.68936,0,0,1,.0821.0244,1.82953,1.82953,0,0,1,1.0136,1.1757c.4112.9405-.2177,2.1827-.4873,3.0762a9.47927,9.47927,0,0,0-.4052,1.9824,12.10517,12.10517,0,0,1-.2042,1.6377.63131.63131,0,0,1-.2558.3614.71018.71018,0,0,1-1.0371.29,10.7794,10.7794,0,0,0-1.7608-.8096,14.33275,14.33275,0,0,1-1.8154-.9238C108.26894,69.96755,107.00624,69.30445,106.723,68.58865Z" fill="#e20613"/>
            <path d="M109.52484,71.42655a15.48693,15.48693,0,0,0,2.4765.6426,3.64048,3.64048,0,0,0,2.376-.168.55026.55026,0,0,0,.1514-.8594,33.528,33.528,0,0,0,.9199-4.1738c.1357-1.2793.1445-2.9082-.7891-3.9248a2.11088,2.11088,0,0,0-3.2724.0957,3.9445,3.9445,0,0,0-1.0879,1.5908,2.56437,2.56437,0,0,0-.0811.5469,3.38975,3.38975,0,0,0-3.957-.5606,3.18252,3.18252,0,0,0-.8291,4.1495C106.29244,70.244,107.96814,70.91485,109.52484,71.42655Zm-2.3369-2.3985c-.9414-.706-1.5782-2.3593-.7491-3.4062.9532-1.2061,2.7481-.6172,3.5547.4268a.34969.34969,0,0,0,.3067.1435c.0107.0713.0234.1426.0371.2129a.31374.31374,0,0,0,.6191-.1006,1.94478,1.94478,0,0,1,.332-1.6201,5.58923,5.58923,0,0,1,1.169-1.0059c.3125-.1914.7754-.3818,1.0644-.0429a2.59825,2.59825,0,0,1,.5967,1.2871,10.32334,10.32334,0,0,1-.2256,3.2695c-.1357.8272-.665,1.7608-.7363,2.6484a6.16531,6.16531,0,0,1-.8486-.0459,12.172,12.172,0,0,1-1.8135-.4209A10.51987,10.51987,0,0,1,107.18794,69.02805Z" fill="#1d1d1b"/>
          </g>
          <g>
            <path d="M100.18594,86.17455a4.65423,4.65423,0,0,1-.3613-.3437,1.86108,1.86108,0,0,1,1.1054-3.1543,2.12335,2.12335,0,0,1,.2666-.0293,2.57759,2.57759,0,0,1,1.4698.332,3.84519,3.84519,0,0,1,.7392.4033c.1377.0987.2862.212.4258.333a3.75528,3.75528,0,0,1,.4356-1.2793,3.14547,3.14547,0,0,1,.2568-.4052l.0156-.0381a1.67317,1.67317,0,0,1,1.166-.9707,2.22231,2.22231,0,0,1,1.0332-.0879,1.00413,1.00413,0,0,1,.3125.0752c.0264.0078.0528.0146.0801.0244a1.83324,1.83324,0,0,1,1.0156,1.1777c.4112.9395-.2197,2.1807-.4882,3.0743a9.475,9.475,0,0,0-.4043,1.9824,12.2745,12.2745,0,0,1-.2041,1.6367.62985.62985,0,0,1-.2569.3623.70722.70722,0,0,1-1.0351.291,10.62713,10.62713,0,0,0-1.7617-.8096,14.681,14.681,0,0,1-1.8165-.9238C101.72994,87.55445,100.46914,86.89045,100.18594,86.17455Z" fill="#e20613"/>
            <path d="M102.98574,89.01245a15.66753,15.66753,0,0,0,2.4775.6446,3.64691,3.64691,0,0,0,2.376-.168.5528.5528,0,0,0,.1524-.8613,34.09268,34.09268,0,0,0,.9189-4.1739c.1358-1.2793.1436-2.9082-.789-3.9267a2.11458,2.11458,0,0,0-3.2735.0966,3.95352,3.95352,0,0,0-1.0859,1.5918,2.5126,2.5126,0,0,0-.0811.5479,3.39338,3.39338,0,0,0-3.958-.5615,3.18438,3.18438,0,0,0-.8301,4.1484C99.75433,87.83185,101.42914,88.50075,102.98574,89.01245Zm-2.3369-2.3974c-.9414-.708-1.5762-2.3584-.75-3.4053.9531-1.211,2.751-.6172,3.5576.4258a.33823.33823,0,0,0,.3027.1425c.0147.0723.0274.1446.0391.212a.31477.31477,0,0,0,.6211-.1006,1.93859,1.93859,0,0,1,.3311-1.6192,5.56455,5.56455,0,0,1,1.1689-1.0058c.3125-.1914.7754-.3819,1.0625-.042a2.58724,2.58724,0,0,1,.5996,1.2881,10.35334,10.35334,0,0,1-.2275,3.2685c-.1348.8252-.6641,1.7598-.7354,2.6475a6.095,6.095,0,0,1-.8506-.0459,12.17257,12.17257,0,0,1-1.8115-.419A10.59857,10.59857,0,0,1,100.64884,86.61505Z" fill="#1d1d1b"/>
          </g>
          <g>
            <path d="M120.79434,73.93825a4.16706,4.16706,0,0,1-.3613-.3447,1.86061,1.86061,0,0,1,1.1054-3.1533,2.28411,2.28411,0,0,1,.2666-.0293,2.56628,2.56628,0,0,1,1.4688.3339,3.78921,3.78921,0,0,1,.7412.4024c.1357.0976.2842.2119.4258.332a3.73907,3.73907,0,0,1,.4346-1.2793,3.51511,3.51511,0,0,1,.2587-.4062c.004-.0127.0088-.0254.0118-.0371a1.67811,1.67811,0,0,1,1.166-.9698,2.23486,2.23486,0,0,1,1.0361-.0888,1.00433,1.00433,0,0,1,.3106.0761c.0273.0079.0546.0137.082.0235a1.82914,1.82914,0,0,1,1.0137,1.1758c.414.9414-.2168,2.1826-.4883,3.0771a9.657,9.657,0,0,0-.4043,1.9815,11.54363,11.54363,0,0,1-.2041,1.6386.643.643,0,0,1-.2549.3623.71149.71149,0,0,1-1.0361.291,10.4892,10.4892,0,0,0-1.7617-.8115,14.4169,14.4169,0,0,1-1.8155-.9238C122.33924,75.31815,121.07654,74.65505,120.79434,73.93825Z" fill="#e20613"/>
            <path d="M123.59414,76.77615a15.46266,15.46266,0,0,0,2.4785.6445,3.64678,3.64678,0,0,0,2.376-.1679.55205.55205,0,0,0,.1504-.8614,33.68933,33.68933,0,0,0,.9199-4.1728c.1358-1.2793.1436-2.9092-.789-3.9268a2.11276,2.11276,0,0,0-3.2735.0977,3.91717,3.91717,0,0,0-1.0849,1.5908,2.45348,2.45348,0,0,0-.0831.5459,3.39055,3.39055,0,0,0-3.956-.5596,3.18258,3.18258,0,0,0-.8311,4.1485C120.36274,75.59545,122.03654,76.26545,123.59414,76.77615Zm-2.3389-2.3975c-.9384-.707-1.5742-2.3584-.747-3.4052.9531-1.209,2.749-.6172,3.5566.4257a.33986.33986,0,0,0,.3037.1426c.0137.0723.0264.1436.0381.2149a.31453.31453,0,0,0,.6201-.1036,1.93893,1.93893,0,0,1,.3311-1.6181,5.6127,5.6127,0,0,1,1.1719-1.0078c.3105-.1905.7724-.3809,1.0605-.042a2.58058,2.58058,0,0,1,.5986,1.289,10.40572,10.40572,0,0,1-.2236,3.2686c-.1357.8271-.668,1.7617-.7363,2.6484a5.93842,5.93842,0,0,1-.8516-.0468,12.14339,12.14339,0,0,1-1.8135-.419A10.6435,10.6435,0,0,1,121.25524,74.37865Z" fill="#1d1d1b"/>
          </g>
          <g>
            <path d="M148.69184,112.68825a4.62886,4.62886,0,0,1-.3594-.3457,1.858,1.858,0,0,1,1.1045-3.1504,1.80954,1.80954,0,0,1,.2676-.0312,2.56738,2.56738,0,0,1,1.4687.333,3.75255,3.75255,0,0,1,.7383.4023,5.37059,5.37059,0,0,1,.4267.335,3.74262,3.74262,0,0,1,.4346-1.2813,3.488,3.488,0,0,1,.2588-.4062.31861.31861,0,0,1,.0147-.0371,1.67291,1.67291,0,0,1,1.165-.9698,2.23066,2.23066,0,0,1,1.0352-.0898,1.0929,1.0929,0,0,1,.3105.0762.65372.65372,0,0,1,.082.0263,1.82512,1.82512,0,0,1,1.0137,1.1758c.4141.9385-.2178,2.1817-.4873,3.0742a9.59531,9.59531,0,0,0-.4053,1.9825,12.1107,12.1107,0,0,1-.2031,1.6367.65312.65312,0,0,1-.2549.3642.715.715,0,0,1-1.0371.291,10.55534,10.55534,0,0,0-1.7617-.8125,14.32166,14.32166,0,0,1-1.8145-.9228C150.23773,114.06715,148.975,113.40405,148.69184,112.68825Z" fill="#e20613"/>
            <path d="M151.49254,115.52715a15.70344,15.70344,0,0,0,2.4776.6425,3.64291,3.64291,0,0,0,2.3769-.1669.55159.55159,0,0,0,.1514-.8594,33.57026,33.57026,0,0,0,.918-4.1758c.1367-1.2773.1435-2.9072-.7881-3.9238a2.11219,2.11219,0,0,0-3.2725.0937,3.94956,3.94956,0,0,0-1.0879,1.5918,2.58981,2.58981,0,0,0-.081.5469,3.39484,3.39484,0,0,0-3.957-.5606,3.18618,3.18618,0,0,0-.8311,4.1485C148.26014,114.34545,149.93594,115.01445,151.49254,115.52715Zm-2.3378-2.3985c-.9405-.708-1.5733-2.3584-.75-3.4052.955-1.2071,2.7519-.6172,3.5605.4248a.32823.32823,0,0,0,.3027.1425c.0118.0733.0264.1446.0371.2149a.3139.3139,0,0,0,.6192-.1016,1.95091,1.95091,0,0,1,.333-1.6211,5.51792,5.51792,0,0,1,1.1709-1.0039c.3125-.1914.7744-.3818,1.0605-.0439a2.58476,2.58476,0,0,1,.5987,1.2881,10.3575,10.3575,0,0,1-.2256,3.2695c-.1348.8262-.666,1.7598-.7344,2.6484a6.23538,6.23538,0,0,1-.8516-.0468,12.42192,12.42192,0,0,1-1.8134-.419A10.639,10.639,0,0,1,149.15473,113.12865Z" fill="#1d1d1b"/>
          </g>
        </g>
        <g>
          <g>
            <path d="M47.56293,24.81915c-.5606-.3223-1.0411-.6368-1.5508-.8926a29.69665,29.69665,0,0,0-15.2002-3.293,9.62049,9.62049,0,0,0-6.0342,2.0703c-.4492-.0312-.8291-.0547-1.21-.0791a4.84552,4.84552,0,0,1-3.205-1.5019,39.08709,39.08709,0,0,1-3.9942-4.3877,11.9286,11.9286,0,0,1-1.8935-3.7451,6.54533,6.54533,0,0,1,2.1279-7.2627,26.91741,26.91741,0,0,1,2.9853-2.0821,1.82511,1.82511,0,0,1,.6915-.3222c2.9169-.4336,5.7441-.4678,8.1035,1.75a33.51086,33.51086,0,0,1,5.2451,6.582,5.6181,5.6181,0,0,1,.8535,2.7031,6.4237,6.4237,0,0,0,.5205,2.0244,3.44083,3.44083,0,0,0,.9395,1.1651,1.32972,1.32972,0,0,0,1.6123.0918,1.50371,1.50371,0,0,0,.9375-1.5352,11.0152,11.0152,0,0,0-.4698-2.248,3.05793,3.05793,0,0,1,.2852-2.5772,4.7789,4.7789,0,0,1,.5195-.8047c2.9551-3.6103,6.6846-5.4834,11.418-4.9306a6.26482,6.26482,0,0,1,4.915,3.2763,5.54113,5.54113,0,0,1,.7139,3.5088,12.05772,12.05772,0,0,1-1.2471,4.0059,22.82539,22.82539,0,0,1-4.1894,5.6875A14.01617,14.01617,0,0,1,47.56293,24.81915Z" fill="#e44f71" fill-rule="evenodd"/>
            <path d="M25.64783,26.37965c2.5899,2.7217,6.0528,3.7217,9.4404,4.8584,1.211.4072,2.4522.7188,3.6768,1.0811a14.045,14.045,0,0,0,4.9209.6328,3.78942,3.78942,0,0,1,.7686.1045,7.34127,7.34127,0,0,1,1.3457,5.2588,17.08279,17.08279,0,0,1-.4239,2.455c-.6816,3.0059-2.7705,4.8116-5.3711,6.1211a2.53635,2.53635,0,0,1-3.1806-.4531,20.73158,20.73158,0,0,1-5.6182-9,7.90845,7.90845,0,0,1-.2168-3.4092,8.45675,8.45675,0,0,0,.1289-1.9062,1.772,1.772,0,0,0-1.7754-1.4532,1.49543,1.49543,0,0,0-1.5693,1.1475,12.06809,12.06809,0,0,0-.3281,2.2725,7.81513,7.81513,0,0,1-3.5674,6.2509,12.03352,12.03352,0,0,1-4.0498,2.1319,11.34663,11.34663,0,0,1-1.3076.2881,1.4923,1.4923,0,0,1-1.3643-.545,4.6497,4.6497,0,0,1-1.1904-2.5703,7.15014,7.15014,0,0,1,1.789-5.8672,45.237,45.237,0,0,1,3.7862-3.5234c.7685-.6719,1.6338-1.2305,2.4511-1.8447A3.78986,3.78986,0,0,0,25.64783,26.37965Z" fill="#e44f71" fill-rule="evenodd"/>
            <path d="M27.18693,24.08865a11.84834,11.84834,0,0,1,4.2168-.7031,28.17835,28.17835,0,0,1,12.3974,2.9257,10.78548,10.78548,0,0,1,1.4873.8692,1.13448,1.13448,0,0,1-.1113,2.0195,3.27736,3.27736,0,0,1-2.2021.4863,29.90632,29.90632,0,0,1-3.959-.6738c-2.6348-.7724-5.2383-1.6543-7.8242-2.5752A12.1991,12.1991,0,0,1,27.18693,24.08865Z" fill="#ef804b" fill-rule="evenodd"/>
          </g>
          <path d="M14.15473,23.658c-.4991-.332-.7422-.5166-1.004-.666a36.7004,36.7004,0,0,1-8.8134-7.3232c-.6885-.75-1.2989-1.5703-1.9336-2.3711a3.99128,3.99128,0,0,0-1.2647-1.1289.91807.91807,0,0,1-.3105-1.4629,1.05065,1.05065,0,0,1,1.4951-.3848,7.65353,7.65353,0,0,1,1.04.8379c2.4698,2.2236,4.918,4.4736,7.4112,6.6709a18.01349,18.01349,0,0,0,4.4619,2.958c.2187.1006.4551.1621.957.334-.834-1.0684-1.4765-1.9229-2.1513-2.75a13.07481,13.07481,0,0,1-2.5362-5.5293,9.53807,9.53807,0,0,1,2.583-8.8232,16.27966,16.27966,0,0,1,4.3057-3.1778,7.89593,7.89593,0,0,1,3.706-.8388,20.55642,20.55642,0,0,1,3.6182.3418,8.67062,8.67062,0,0,1,3.8213,1.6894,27.11726,27.11726,0,0,1,5.1475,5.3945c.3466.4473.6982.8897,1.1406,1.4532.3271-.3682.5596-.6397.8027-.9014,2.541-2.7129,5.4131-4.8604,9.1953-5.5264a16.7754,16.7754,0,0,1,7.209.3389,6.77222,6.77222,0,0,1,1.9658,1.1484,9.34018,9.34018,0,0,1,4.0489,5.8438,9.55076,9.55076,0,0,1-.001,4.1797,19.454,19.454,0,0,1-4.7617,8.8486c-1.3682,1.5049-2.9024,2.8633-4.375,4.2988.3418,2.0889.3379,2.0967-1.3418,3.541-.2871.2471-.5567.5127-.9033.8331.1298.3056.2285.6015.375.8701a11.55465,11.55465,0,0,1,.998,7.0898c-.042.3809-.1465.7539-.2002,1.1328-.6035,4.1338-3.0352,6.9502-6.5293,8.9649a8.82553,8.82553,0,0,1-2.3164.8925,5.65785,5.65785,0,0,1-5.4736-1.5156,25.171,25.171,0,0,1-4.8633-6.375,5.75714,5.75714,0,0,0-1.1416-1.8506,17.41639,17.41639,0,0,1-4.3311,3.4971,13.12216,13.12216,0,0,1-4.999,1.8399,4.79889,4.79889,0,0,1-4.9922-2.1221,8.92494,8.92494,0,0,1-1.168-8.2168,12.142,12.142,0,0,1,4.4415-6.1016c1.121-.8506,2.2382-1.7041,3.3427-2.5742a5.30945,5.30945,0,0,0,1.4512-1.3525,8.29087,8.29087,0,0,0-4.0693-.0606,57.55449,57.55449,0,0,0-11.4385,4.3848c-1.0244.5283-2.0264,1.0937-3.0508,1.6201-.7324.3779-1.5029.6572-1.7822,1.5869a.77135.77135,0,0,1-.9629.4463,1.4498,1.4498,0,0,1-.8047-.7275,1.74344,1.74344,0,0,1,.3291-1.9532,13.79173,13.79173,0,0,1,2.2217-2.0683,44.77364,44.77364,0,0,1,10.0508-4.6973C13.11563,24.077,13.46423,23.92365,14.15473,23.658Zm33.4082,1.1612a14.01617,14.01617,0,0,0,2.874-2.7969,22.82539,22.82539,0,0,0,4.1894-5.6875,12.05772,12.05772,0,0,0,1.2471-4.0059,5.54113,5.54113,0,0,0-.7139-3.5088,6.26482,6.26482,0,0,0-4.915-3.2763c-4.7334-.5528-8.4629,1.3203-11.418,4.9306a4.7789,4.7789,0,0,0-.5195.8047,3.05793,3.05793,0,0,0-.2852,2.5772,11.0152,11.0152,0,0,1,.4698,2.248,1.50371,1.50371,0,0,1-.9375,1.5352,1.32972,1.32972,0,0,1-1.6123-.0918,3.44083,3.44083,0,0,1-.9395-1.1651,6.4237,6.4237,0,0,1-.5205-2.0244,5.6181,5.6181,0,0,0-.8535-2.7031,33.51086,33.51086,0,0,0-5.2451-6.582c-2.3594-2.2178-5.1866-2.1836-8.1035-1.75a1.82511,1.82511,0,0,0-.6915.3222,26.91741,26.91741,0,0,0-2.9853,2.0821,6.54533,6.54533,0,0,0-2.1279,7.2627,11.9286,11.9286,0,0,0,1.8935,3.7451,39.08709,39.08709,0,0,0,3.9942,4.3877,4.84552,4.84552,0,0,0,3.205,1.5019c.3809.0244.7608.0479,1.21.0791a9.62049,9.62049,0,0,1,6.0342-2.0703,29.69665,29.69665,0,0,1,15.2002,3.293C46.52183,24.18235,47.00233,24.49685,47.56293,24.81915Zm-21.9151,1.5605a3.78986,3.78986,0,0,1-1.6553,2.0303c-.8173.6142-1.6826,1.1728-2.4511,1.8447a45.237,45.237,0,0,0-3.7862,3.5234,7.15014,7.15014,0,0,0-1.789,5.8672,4.6497,4.6497,0,0,0,1.1904,2.5703,1.4923,1.4923,0,0,0,1.3643.545,11.34663,11.34663,0,0,0,1.3076-.2881,12.03352,12.03352,0,0,0,4.0498-2.1319,7.81513,7.81513,0,0,0,3.5674-6.2509,12.06809,12.06809,0,0,1,.3281-2.2725,1.49543,1.49543,0,0,1,1.5693-1.1475,1.772,1.772,0,0,1,1.7754,1.4532,8.45675,8.45675,0,0,1-.1289,1.9062,7.90845,7.90845,0,0,0,.2168,3.4092,20.73158,20.73158,0,0,0,5.6182,9,2.53635,2.53635,0,0,0,3.1806.4531c2.6006-1.3095,4.6895-3.1152,5.3711-6.1211a17.08279,17.08279,0,0,0,.4239-2.455,7.34127,7.34127,0,0,0-1.3457-5.2588,3.78942,3.78942,0,0,0-.7686-.1045,14.045,14.045,0,0,1-4.9209-.6328c-1.2246-.3623-2.4658-.6739-3.6768-1.0811C31.70063,30.10135,28.23773,29.10135,25.64783,26.37965Zm1.5391-2.291a12.1991,12.1991,0,0,0,4.0049,2.3486c2.5859.9209,5.1894,1.8028,7.8242,2.5752a29.90632,29.90632,0,0,0,3.959.6738,3.27736,3.27736,0,0,0,2.2021-.4863,1.13448,1.13448,0,0,0,.1113-2.0195,10.78548,10.78548,0,0,0-1.4873-.8692,28.17835,28.17835,0,0,0-12.3974-2.9257A11.84834,11.84834,0,0,0,27.18693,24.08865Z" fill="#4d2811" fill-rule="evenodd"/>
        </g>
      </g>
    </g>
  </g>
</svg>
