<svg xmlns="http://www.w3.org/2000/svg" viewBox="0 0 162.99072 165.4723">
  <title>Recurso 1</title>
  <g id="Capa_2" data-name="Capa 2">
    <g id="Editar">
      <g>
        <g>
          <path d="M105.4029,73.12422c-8.3916-22.4234-48.584-22.5054-50.27439,9.5468-1.95811,36.2891,61.95889,37.2754,53.12789-5.9926" fill="#ffe512"/>
          <path d="M106.90188,72.711c-4.504-11.33561-16.272-17.748-28.27775-16.87381-12.86342.93668-22.6224,10.17416-24.63269,22.86433-1.80827,11.41487,2.48864,22.47981,12.76363,28.27218A32.98591,32.98591,0,0,0,95.9336,108.3506c12.744-5.79971,16.29208-19.17705,13.82178-32.08543-.37566-1.963-3.37273-1.13181-2.998.8265,1.93534,10.113.05216,20.93429-9.154,26.834-7.25588,4.64987-16.83371,5.15794-24.86079,2.355-8.99827-3.14206-15.4905-10.75954-16.05726-20.42351-.69621-11.87141,5.70417-23.19593,17.61412-26.2021,11.60086-2.92815,25.04988,2.41938,29.60448,13.8824.73,1.83733,3.73809,1.03626,2.998-.8265Z" fill="#1d1d1b"/>
        </g>
        <path d="M113.42279,57.1989c9.39485-5.6634,18.65249-11.45908,26.52751-19.17177,1.43183-1.40231-.76724-3.60008-2.19841-2.19841-7.68873,7.53024-16.72957,13.15854-25.89829,18.68563-1.71154,1.03175-.15042,3.72116,1.56918,2.68455Z" fill="#1d1d1b"/>
        <path d="M92.256,44.19453c2.87464-3.52075,4.11635-7.68767,5.53548-11.93155.636-1.90183-2.36561-2.71755-2.998-.8265-1.22917,3.67581-2.23821,7.50054-4.73593,10.55965-1.2552,1.53732.93183,3.74966,2.19841,2.19841Z" fill="#1d1d1b"/>
        <path d="M73.04638,46.03367c-4.15332-14.83587-7.25669-29.928-10.7676-44.9219-.456-1.94731-3.45444-1.123-2.998.8265,3.51092,14.994,6.61427,30.086,10.7676,44.9219a1.55584,1.55584,0,0,0,2.998-.8265Z" fill="#1d1d1b"/>
        <path d="M52.18449,56.93135c-4.68356-2.9703-9.47-5.92424-13.15019-10.13933-1.31837-1.51-3.50976.69645-2.19841,2.19841,3.84475,4.4036,8.88724,7.52287,13.77941,10.62547,1.69462,1.07472,3.25612-1.6147,1.56918-2.68455Z" fill="#1d1d1b"/>
        <path d="M46.81361,92.76285c-3.6474,2.65368-8.31141,3.12624-12.51246,4.47169-1.89808.60789-1.08665,3.61068.8265,2.998,4.46672-1.43053,9.37507-1.96215,13.25514-4.78511,1.60218-1.16567.05242-3.86435-1.56918-2.68455Z" fill="#1d1d1b"/>
        <path d="M52.5127,108.19c-8.15591,9.61615-15.68352,19.71874-23.21087,29.82781-1.19562,1.6057,1.50188,3.15747,2.68455,1.56918,7.36911-9.89656,14.74025-19.78455,22.72473-29.19859,1.287-1.51739-.90186-3.7271-2.19841-2.19841Z" fill="#1d1d1b"/>
        <path d="M67.916,120.22522a17.99963,17.99963,0,0,0-3.519,6.95445c-.50362,1.93787,2.4943,2.76456,2.998.8265a14.44337,14.44337,0,0,1,2.71942-5.58255c1.26174-1.53335-.92565-3.74515-2.19841-2.19841Z" fill="#1d1d1b"/>
        <path d="M82.90392,125.94657c2.68506,12.38365,3.64513,24.99441,1.8213,37.573-.28377,1.95709,2.7115,2.80217,2.998.8265a109.70877,109.70877,0,0,0-1.8213-39.226c-.42376-1.95441-3.4216-1.12734-2.998.8265Z" fill="#1d1d1b"/>
        <path d="M99.89943,118.36582a58.437,58.437,0,0,1,5.63681,10.396c.78813,1.83281,3.46727.251,2.68455-1.56918a58.43593,58.43593,0,0,0-5.63681-10.396c-1.13651-1.62942-3.83287-.07719-2.68455,1.56918Z" fill="#1d1d1b"/>
        <path d="M120.73505,78.43081q4.418-1.25166,8.836-2.5034a1.55584,1.55584,0,0,0-.8265-2.998q-4.41769,1.25278-8.836,2.5034a1.55584,1.55584,0,0,0,.8265,2.998Z" fill="#1d1d1b"/>
        <path d="M115.34392,101.4899c14.99625,8.22476,29.52219,17.35076,45.26259,24.1357,1.81805.78368,3.40341-1.8939,1.56918-2.68455-15.74012-6.78482-30.26655-15.91105-45.26259-24.1357-1.75523-.96266-3.32584,1.7211-1.56918,2.68455Z" fill="#1d1d1b"/>
        <path d="M42.72235,71.34154c-13.5027-4.86174-27.2249-9.0664-40.8232-13.646-1.90041-.64-2.7158,2.36169-.8265,2.998,13.59833,4.57961,27.32048,8.78425,40.8232,13.646,1.88577.679,2.698-2.32413.8265-2.998Z" fill="#1d1d1b"/>
      </g>
    </g>
  </g>
</svg>
