<svg xmlns="http://www.w3.org/2000/svg" viewBox="0 0 328.38892 127.34642">
  <title>Recurso 2</title>
  <g style="isolation: isolate">
    <g id="Capa_2" data-name="Capa 2">
      <g id="Editar">
        <g>
          <path d="M188.514,106.49545c1.5019,6.3887,4.3271,11.8662,10.4765,14.9853a25.22288,25.22288,0,0,0,12.4551,2.9659c4.8945-.2139,9.7998.7607,14.6602-.2686,1.0918-.2324,2.248.8076,3.3242-.1396-.1514-1.1885-1.628-.3165-1.9082-1.2735,1.3867-.1533,2.75-.5996,4.1328-.083,1.2822.4942.6933-1.082,1.3789-1.249h4.5723c-3.7383-2.0274-7.4786.0586-11.5684-.0947,1.4121-1.6289,3.2695-1.1475,4.6728-1.8262.7872-.3809,1.9913.0244,2.2188-1.3096-2.1182-.6865-3.999.751-5.7021.8115,1.6816-.6191,3.7714-.8095,5.7744-1.4082q1.9833-.93015,3.9648-1.8593c-.0205-.169-.042-.3379-.0615-.5069-1.6065-.084-3.2129-.1689-4.7988-.2519-.335-1.4444,1.6308-.7998,1.5537-2.0039-1.7862-.2471-3.1582,1.2558-5.2129,1.0966,4.3681-6.1084,4.7138-12.7119,3.3799-19.7607-1.3418-7.1123-5.5723-11.5967-12.0352-13.835-14.9434-5.1796-27.6719,1.4297-31.21,15.168A39.75938,39.75938,0,0,0,188.514,106.49545Z" fill="#060606" fill-rule="evenodd"/>
          <path d="M233.00126,117.60575a6.7223,6.7223,0,0,0-6.1055,1.9102q3.0147-.65775,6.0332-1.3135A.8942.8942,0,0,0,233.00126,117.60575Z" fill="#a7a7a7" fill-rule="evenodd"/>
          <path d="M233.03346,121.433c-.9014-.0693-.6377,1.1445-1.3789,1.249,1.1514,1.3106,2.4775,1.9043,4.1738,1.0947C235.60666,122.06375,232.79026,123.63215,233.03346,121.433Z" fill="#5d5b5a" fill-rule="evenodd"/>
          <path d="M199.53936,108.41045c-2.419,3.6426-.629,7.5371-.1915,11.1524.3204,2.6328,7.3213,3.2998,9.2071,1.1435,1.5449-1.7636,2.9902-3.6142,4.4258-5.4677.8476-1.0948-.5069-5.5284-1.9278-5.9629-3.5478-1.086-7.084-2.5088-10.9238-1.4004C199.60376,107.69175,199.43966,107.90555,199.53936,108.41045Z" fill="#fbfbfb" fill-rule="evenodd"/>
          <path d="M207.32156,95.03745c3.3359-1.4121,5.9336-5.5996,4.959-7.9942a8.915,8.915,0,0,0-12.2373-4.5214c-3.3584,1.6074-4.0528,5.0371-1.878,9.2802C200.81666,94.016,203.66336,95.67125,207.32156,95.03745Z" fill="#fbfbfb" fill-rule="evenodd"/>
          <path d="M227.28636,111.44565c.1533-3.1377-2.9629-5.5537-3.6582-8.9043-.0263-.127-.3369-.2197-.5303-.2861-2.9082-1.0118-10.5927,4.8457-9.9951,7.7392.4004,1.9287.7119,4.5791,2.0283,5.4483,1.9942,1.3193,4.8018,1.5722,7.3145,1.8896C224.096,117.54035,227.23756,113.75915,227.28636,111.44565Z" fill="#fafafa" fill-rule="evenodd"/>
          <path d="M223.97386,89.24055c-1.9013-1.9268-3.8467-3.5166-6.9179-2.7578-3.5166.8691-5.1124,3.331-4.087,6.8144.9268,3.1465,3.3711,5.4004,4.8926,8.21.7442,1.374,5.1485.0352,5.8203-1.6973a16.08372,16.08372,0,0,0,.2188-10.6474Z" fill="#f4f7f8" fill-rule="evenodd"/>
          <path d="M199.53936,108.41045q.2958-.26805.5898-.5351c3.541-1.4805,2.3213-4.3526,2.0166-6.9463a7.7702,7.7702,0,0,0-.7881-3.3809c-2.6269-2.6992-5.5859-1.5683-8.5166-.7441-2.7324,1.1308-3.7441,2.999-3.1924,6.0361.3282,1.8125.8789,2.8711,2.6778,3.4307a14.13768,14.13768,0,0,1,4.0127,1.9756A2.71937,2.71937,0,0,0,199.53936,108.41045Z" fill="#f9faf9" fill-rule="evenodd"/>
          <path d="M223.90066,89.16245c2.3281,1.539,3.4844,4.4795,6.6855,5.4629-.8418-5.5742-4.3125-8.9053-8.8281-11.9483-.2324,2.7588,1.998,4.3369,2.2158,6.5645Z" fill="#d3d2d3" fill-rule="evenodd"/>
          <path d="M192.84106,96.80405c2.8106.5605,5.7686-.543,8.5166.7441.1231-.5088-.041-1.4394.9609-.622.5469.4453,1.1329,1.0761,1.6817-.0157-.0576-3.1084-2.6807-1.8242-4.1914-2.4482A7.05169,7.05169,0,0,0,192.84106,96.80405Z" fill="#060606" fill-rule="evenodd"/>
          <path d="M199.80886,94.46225c.9258,1.6221,3.5097.4072,4.1914,2.4482,1.1113-.6172,2.4473-.831,3.3213-1.873-3.2881-.4092-6.0489-2.3135-9.1563-3.2354C198.29026,92.95145,199.24246,93.58725,199.80886,94.46225Z" fill="#f9faf9" fill-rule="evenodd"/>
          <path d="M228.21506,111.74645c1.3037-.6924,1.4317-1.6963,1.8594-2.4971.292-.5449.6221-1.2393.1563-1.7197-.2461-.2549-.9649-.1407-1.4493-.0625a1.12439,1.12439,0,0,0-1.0322,1.5576C227.93776,109.81285,228.02856,110.62335,228.21506,111.74645Z" fill="#cfcfcf" fill-rule="evenodd"/>
          <path d="M219.25806,121.95245c1.2734-.1387,2.3877.0947,2.8633-1.1191a1.4395,1.4395,0,0,0-.3242-1.0215C220.68676,119.90075,219.88406,120.47985,219.25806,121.95245Z" fill="#a3a3a3" fill-rule="evenodd"/>
        </g>
        <g style="mix-blend-mode: multiply">
          <path d="M326.35666,88.25035a21.63288,21.63288,0,0,0,1.6631,7.6152c.9453,11.8672.9531,11.9238-11.1172,14.1729-7.832,1.4599-15.6914,2.7939-23.5566,4.0566-5.3164.8525-7.4473-1.0752-7.5547-6.5225-.0137-.6504-.0098-1.3027.002-1.955.1855-10.7432.1855-10.7432-10.2432-13.8457-2.3037-.9092-5.2109-.1875-6.9678-2.5743-16.3144-5.1582-33.1191-8.1113-49.957-10.7695-12.6582-2-25.1484-5.2793-38.0977-5.2559a83.69175,83.69175,0,0,0-24.4531,3.8155c-8.2529,2.542-16.5996,4.5068-24.9434,6.5947-3.3769.8438-4.8593.4473-3.8535-3.751,5.1485-21.5107,15.9629-40.331,27.5371-58.7959,3.4395-5.4853,6.7735-11.0703,11.9981-15.2441,4.6328-3.6953,9.6875-5.8174,15.6299-5.7383.5039.7383,2.0849.3574,1.9795,1.4961-.1328,1.4062-1.5996,1.6152-2.6582,2.123-1.0694.3848-2.1651.6915-3.2334,1.0821-1.8448.8125-3.9463.9277-5.67,2.082-9.6064,7.543-16.7324,17.1084-22.6142,27.6953a264.91949,264.91949,0,0,0-18.3809,42.3252,257.8725,257.8725,0,0,1,16.3858-38.5556c6.5068-12.2618,14.0146-23.7706,25.6552-31.9336,1.8379-.6924,3.7871-.9444,5.668-1.4659a69.1973,69.1973,0,0,1,8.7607-.1943c3.1631-.0078,4.9659,1.4102,4.7608,4.709-.1348,2.168.2988,3.8681,2.6035,4.582a3.10692,3.10692,0,0,1,1.7119,2.1817,4.08586,4.08586,0,0,1-2.0224,2.6484c-1.2168.3906-2.003-.5566-2.9727-.9473-.9629-.4472-1.9766-.7636-2.957-1.1797-2.0078-1.0859-1.8213-4.7382-5.0996-4.3378-.5625-1.3292-1.3496-1.9551-2.6836-.8204-2.2598.0743-3.8028,1.3672-5.1465,3.0079-3.1856.83-5.8447,2.125-5.4863,6.1289-.2188,1.8847-2.1602,1.7617-3.1709,2.7304a7.20382,7.20382,0,0,1-2.0381,1.418,3.33727,3.33727,0,0,1-1.8242-.4522c-3.4473-.0878-4.1651,2.9209-5.3711,5.0665-.8028,1.4306.9882.997,1.7275,1.249,1.5283.4355,3.3887.3945,3.7021,2.5664-.9375,1.2519-2.3339,1.499-3.7402,1.7324a18.45618,18.45618,0,0,1-2.6973-.1836c-3.9287.5039-4.9501,3.8516-5.8652,6.7315-.8281,2.6054,1.5967.5517,2.3711,1.0459,1.4531.1582,2.7744.5117,3.1387,2.2119a5.21214,5.21214,0,0,1-3.1094,2.6025,3.04586,3.04586,0,0,1-1.3457-.0898c-2.6006-1.1856-3.9795.372-4.9473,2.3925a29.61266,29.61266,0,0,0-2.3603,6.3399,8.7989,8.7989,0,0,1-.6279,1.9297,27.37585,27.37585,0,0,0-4.1622,11.0176c1.9493.2734,2.837-1.1807,4.1446-1.6739a6.3883,6.3883,0,0,1,2.6435-.2178c2.2041-.1689,4.1534-1.2011,6.2032-1.8759,1.2236-.2393,2.5283.0019,3.6826-.6524,1.7715-.8515,3.4404-1.8066,4.1386-3.8066,1.045-3.002.2129-4.0547-2.8671-2.7305a3.13272,3.13272,0,0,1-1.3321.1446,3.17456,3.17456,0,0,1-1.1445-.7061c-.6934-.8486-1.751-1.5576-1.1641-2.918a4.35559,4.35559,0,0,1,2.9629-1.3681c1.9668-.0586,4.0508,1.2646,5.8731-.502a10.65769,10.65769,0,0,0,1.6552-3.4014c.8916-2.5576-.1416-3.5341-2.6523-3.4013a2.84866,2.84866,0,0,1-2.2793-2.4141,3.59254,3.59254,0,0,1,2.1758-2.6377,2.84107,2.84107,0,0,1,1.3584.042c3.7715,1.3926,4.5703-1.4639,5.6474-3.9394.9727-2.2315-.3037-2.8008-2.1709-2.9375a2.57825,2.57825,0,0,1-2.1132-2.4668,3.52886,3.52886,0,0,1,2.3007-2.4024c1.7364-.0058,3.3946,1.8945,5.2012.2168,2.2403-2.3564,3.0059-4.918,1.1924-7.8799.54-2.1865,2.9502-1.5976,4.1416-2.8144,1.3027-1.1182,1.8574-3.1787,4.0186-3.2158a2.57322,2.57322,0,0,1,1.6582,2.039,7.1462,7.1462,0,0,1-.8057,3.2529c-.4277,1.003-.7441,2.0547-1.208,3.0469q-1.9263,3.0132-3.5947,6.1807a37.66691,37.66691,0,0,0-1.584,4.9766,10.01064,10.01064,0,0,1-.6192,1.8466c-1.6992,3.3662-1.3545,5.544,3.0703,5.5059a2.25435,2.25435,0,0,1,1.2852.6592,2.92354,2.92354,0,0,1,.7188,1.9795,4.68133,4.68133,0,0,1-1.5411,3.2295,1.7769,1.7769,0,0,1-1.3574-.0118c-3.5029-2.9121-5.2676-2.5136-6.6211,1.4805-1.872,5.5234,3.1065,3.3477,5.0938,4.5352a2.5132,2.5132,0,0,1,1.4511,2.3339,3.07815,3.07815,0,0,1-1.4111,2.4678,2.30843,2.30843,0,0,1-1.3906.083c-5.0371-2.834-6.4365-2.3779-7.96,2.5938.4141,1.332,2.8506,1.2285,2.3145,3.2285a4.08906,4.08906,0,0,1-.6875.6816c-1.1992.9825-3.125,1.2227-3.3506,3.1914a.86562.86562,0,0,0,.8994.9424c2.0039.0479,3.8682-.3154,5.1152-2.122a5.91089,5.91089,0,0,1,1.8731-2.1778c1.1348-.0351,1.5469.7774,1.9267,1.625,1.6963,4.0488,4.5381,1.417,6.9659,1.1875,1.8759.7403,3.3496,2.6192,5.7031,2.002,3.8242-.3262,2.2998-3.4356,2.8379-5.4649a5.48692,5.48692,0,0,1,.3926-1.3447,2.52784,2.52784,0,0,1,2.2968-1.377c3.2266.0284,6.503,1.7823,9.6748-.2861,2.0362-.7773,2.1495.9541,2.7315,2.084a5.29405,5.29405,0,0,1,.2226,1.3398c-.0263.8985-.1855,1.7832-.2207,2.6797-.4199,3.7041,1.252,5.416,4.9532,5.3242a15.51409,15.51409,0,0,1,4.3164.3331c1.5019.4384,2.7011,1.7158,4.4101,1.5585,1.3926.085,2.7881.0616,4.169.2725.8896.1367,1.747.4141,2.6191.6143,2.7988.915,4.0322-1.4805,5.7979-2.7539a1.81212,1.81212,0,0,1,1.5429,1.1142c.2051.4424.336.9151.5342,1.3584a4.41669,4.41669,0,0,0,6.1006,2.3819c2.5547-1.4102.2754-3.5811-.7188-5.3047a1.95994,1.95994,0,0,1-.0449-1.2852c1.3809-1.1445,3.2598-1.9336,3.0235-4.2402a6.38988,6.38988,0,0,1,.4111-1.919,2.29026,2.29026,0,0,1,.9092-.9541,8.34144,8.34144,0,0,1,2.6982.0967c1.6035.2275,3.249.3799,4.2002,1.9834a1.86844,1.86844,0,0,1-.1328,1.3301c-4.6416,1.6045-4.6416,1.6045-1.7461,5.7402a1.78561,1.78561,0,0,1-.3594,1.2598c-1.3574.9404-2.8125,1.9902-1.5595,3.8262,1.6152,2.3652,2.9902.0976,4.4345-.4688,2.5215-.0684,1.6465,3.252,3.6856,3.666,3.0644,1.4278,4.7285-.3662,6.1777-2.6592,2.0684.1534,1.917,1.8077,2.0254,3.1631.1074,1.3282.0566,2.6192,1.8984,2.6397,3.3594.9834,4.7608-.6885,5.1387-3.7647.8399-1.6396,2.3203-1.1777,3.6797-1.1289.6309.0498,1.252.2031,1.8799.2569.8955.0732,2.0928.4677,2.1709-.9737.0605-1.1006-.918-1.5801-1.8574-1.8574-1.1211-.3301-2.1895.167-3.2832.3184a1.98233,1.98233,0,0,1-1.2891-.5274,5.4161,5.4161,0,0,1-.8106-2.7627,19.7904,19.7904,0,0,1-.0449-2.1513c.0498-3.7383,2.2949-7.6534-.9004-11.1329a2.31793,2.31793,0,0,1-.123-1.3125c1.6807-1.664,3.168-3.4199,2.6748-6.0527a24.49772,24.49772,0,0,1,.2324-2.5957,11.763,11.763,0,0,0-.9678-6.9668,2.876,2.876,0,0,1,.0098-1.3086c1.6231-3.5703,1.668-7.0058-.8896-10.2168a2.59722,2.59722,0,0,1-.1348-1.2969c1.206-4.3847.958-4.7334-4.751-6.6611a11.93647,11.93647,0,0,1-1.9355-.5469c-2.416-1.2412-5.1114-1.6464-7.6504-2.5156-.8379-.2568-1.6524-.5849-2.5156-.7685-1.7676.0507-4.1915-2.3536-4.9493,1.3652-.0625,1.4101.0078,2.8144-.0175,4.2226a6.75289,6.75289,0,0,1-.834,3.6504,1.32766,1.32766,0,0,1-1.3535.461c-1.4512-1.2989-1.2715-3.1387-1.5997-4.8125a13.34939,13.34939,0,0,1,.1875-2.8018c.9454-5.332-2.9785-5.4873-6.4843-6.0771a12.31082,12.31082,0,0,1-1.9649-.416c-2.5713-.4727-5.1338-2.9141-7.7031.0019-.5195.7422-1.0078,1.5371-2.1191,1.3281-1.4961-1.6543-1.3731-4.4375-3.8155-5.4336-.7763-.7002-2.4443-1.0371-1.7998-2.414.708-1.5117,2.4473-1.3008,3.8965-1.3867,19.5244,4.1992,39.1768,7.9511,57.0547,17.5722,4.9883,2.6836,7.9648,6.6387,8.7852,12.1153.7871,5.2402,2.2304,10.4843.7226,15.8437.0684,17.3135-2.3779,34.5274-2.2812,48.418-.4209-11.2002,2.1347-25.7031,2.0312-40.3135.5488-9.9873,1.3125-19.9385-1.7539-29.7773a11.20892,11.20892,0,0,0-7.1094-7.8028c-15.5097-6.3779-31.2519-11.8799-47.8427-14.7158-2.2061-.377-4.5196-.748-6.2393-2.4824-1.1406-2.2246-1.0547-2.5156.7832-2.6602,23.1602,4.627,45.833,10.7832,67.0811,21.4063.4267-.2315.6591-.1074.6953.3789,5.1435,5.3183,10.5927,10.3711,14.5634,16.7109,1.3614.1309.7647,1.3233,1.0909,2.0137C319.13016,59.16435,321.73076,74.01785,326.35666,88.25035Z" fill="#060606" fill-rule="evenodd"/>
          <path d="M181.44556,2.90075c.3867-.9288,3.5313-.8946.9971-2.8477,11.1396-.4141,22.1279,1.7246,33.2314,1.9609,1.1113.0235,2.3008-.0488,3.1758.8946-1.0772,1.5879-2.8838.0937-3.8711.6289.8887.3828,2.8994-.2608,1.0801,2.0859-5.9131.5918-11.8028-.1797-17.6582-.6094-3.6641-.2695-7.3223-.5625-11.0039-.6211C185.33226,4.21715,183.07736,4.79715,181.44556,2.90075Z" fill="#212121" fill-rule="evenodd"/>
          <path d="M216.68186,4.80015c-.9433-.4522-1.8886-.9053-3.3213-1.5908,2.1465-.1172,3.8184-.209,5.4893-.3008,3.5625,1.1269,7.4434.4101,10.9414,1.9062-1.3379.4844-.6484,1.3653-.418,2.1524C224.79026,8.29915,220.71506,6.66535,216.68186,4.80015Z" fill="#0d0d0d" fill-rule="evenodd"/>
          <path d="M188.48466,71.37925c-2.6407.4375-5,.291-5.9336-2.8379-2.2012-4.4024-5.0664-1.9805-7.8145-.7598q-.4512-1.0869-.9062-2.1719c-1.4825.1846-2.9571.3262-4.0957-.9599-.7032-1.6416-3.3321-.21-3.7266-2.3408,3.1426-1.4082,7.123-.5469,9.6738-3.5606.3145-.0029.6328.002.9473.0098a4.13455,4.13455,0,0,1,.9941,1.0137,3.02026,3.02026,0,0,0,3.7305,1.2666c.6231-.212,1.2061-.7002,1.1094-1.3702-.2949-2.0068-2.1738-1.4179-3.3906-1.9033a3.439,3.439,0,0,1-1.543-1.0439,2.07837,2.07837,0,0,0-1.1299-1.958c-1.0195-2.7422-.9814-5.1836,1.9287-6.8145a3.61754,3.61754,0,0,1,.9688.0342,2.01319,2.01319,0,0,1,.8183,2.0918c-.1133,1.8428-.166,3.7324,2.3067,3.9414,1.9316.1621,2.2705-1.4922,2.5879-2.8789.416-1.8145,1.3496-3.8848-1.4532-4.7305-1.0605-.3183-2.2363-.3262-3.04-1.2597-.0088-.6719-.0186-1.3477-.0274-2.0215.1534-.1651.3077-.3321.462-.4981,5.2734.9356,6.2812-3.7441,8.6796-6.5967,1.4131.4092,1.5977,1.6065,1.8155,2.7862.4072,1.5898-.6865,3.7617,1.5976,4.6074a1.85673,1.85673,0,0,0,2.3487-1.2041c1.1113-2.583-.1543-4.2949-2.1914-5.6885-.5469-2.6601,2.5175-1.8554,3.1914-3.3496,1.6279-2.7246.9687-5.209-.7676-7.5859a2.41608,2.41608,0,0,1,.3262-1.252,11.52627,11.52627,0,0,0,4.0605-3.8984c2.4365.0254,1.71,2.7793,3.1748,3.6406,1.0127.5557,2.1006,1.1602,2.9443-.0879a3.32767,3.32767,0,0,0-.1054-3.6152c-.7246-1.3213-2.4336-1.4873-3.2481-2.7207.0225-1.6328,1.295-1.7617,2.4434-2.0488.6934-.1153,1.3965-.17,2.0967-.2168a6.18243,6.18243,0,0,1,2.747.0781c2.1602.6875,4.2227,2.9297,6.5645.374.5176-.7266,1.0019-1.5225,2.1113-1.2148q2.87115,5.94285,8.8057,3.0439.50535-1.12065,1.0127-2.2402a1.16152,1.16152,0,0,1,.8574.3281c4.2178,5.7988,4.2158,5.8008,8.084-.0547q.87885.0351,1.7607.0703c.6797,4.5059,3.7647,6.6485,7.7559,7.9043-.333.5235-.669,1.0508-1.001,1.5742-.6015,1.0733-1.6338.9141-2.581.835-2.0137-.1689-3.6221.2178-3.8858,2.5947-.1816,1.6553-.2295,3.3379,1.5098,4.292,2.2012,1.2061,3.6943.21,4.8574-1.6963a2.415,2.415,0,0,1,1.1318-.8926c.293,0,.585,0,.878.004a2.48026,2.48026,0,0,1,.8593,1.1347c.6094,1.5899.6348,3.6875,3.0284,3.793,1.2861.0586,1.5732-.9971,1.6259-1.9785.1172-2.0938.3477-4.3037-2.2109-5.291-1.041-.4024-2.2119-.4825-3.1094-1.2442q-.03075-2.7099-.0586-5.4219a1.08537,1.08537,0,0,1,.9024.1954c3.2129,3.7275,4.5039,1.5117,5.4668-1.7481q1.25235.43365,2.5019.8682a4.074,4.074,0,0,1,.8555,1.7304c.2988,1.8516.873,3.3926,2.9736,3.9834,2.6534.75,2.5342-1.9882,3.8701-2.8671.6797.0214,1.3565.0449,2.0362.0683.6748,3.1231,3.1992,5.0938,4.7763,7.6553a6.19069,6.19069,0,0,1-.0156.9619c-1.2441,1.1836-3.7793.8242-3.7168,3.6367.0567,2.5586.8399,4.2793,3.2871,5.1738a2.09318,2.09318,0,0,1,1.4961,1.6954c-.0273.375-.0566.7539-.083,1.1289a1.93223,1.93223,0,0,1-.2929.3789c-1.5547,1.2187-5.1768-.75-5.0127,2.9355.1357,3.0283,3.1328,2.6817,5.0976,3.4512a7.94965,7.94965,0,0,1,2.0908,1.1474q-.45555.97425-.9091,1.9502a1.6554,1.6554,0,0,1-.7168.5743c-1.7715.8007-4.1465-1.7461-5.2403.2109-1.5195,2.7139,3.0938,2.6367,3.0596,5.0225a3.59653,3.59653,0,0,1-.0313.9716c-1.9082,1.2686-4.9091,1.084-4.7451,4.8555.1504,3.4551,1.8965,4.8301,4.7295,5.6895a5.19342,5.19342,0,0,1,1.9483,1.3681q-.04695,1.0914-.0948,2.1826c-1.5908.9747-3.0595-.0654-4.5791-.2773-.7988-.1123-1.7314-.2285-2.0605.6367-.457,1.209.6387,1.5908,1.4531,2.0498,1.6631.9365,3.418.0987,5.1211.2705.3574.0118.7129.0225,1.0713.0352a3.18022,3.18022,0,0,1,1.1045,3.8926c-.9961.4824-2.1445-1.2188-3.0762.2148a2.5901,2.5901,0,0,1-1.8506.4024c-4.7676-.5625-4.7676-.5625-3.5908,4.1171-2.4512.5059-4.1758.3321-3.4004-2.9902a3.73069,3.73069,0,0,0-.6855-3.6631,5.13624,5.13624,0,0,1-1.4336-.0498c-4.9854-1.1699-4.9854-1.1738-5.4199,3.877-3.6602.0136-1.1856-3.627-2.8555-4.7989-1.3828-1.0351-3.0957-1.8046-3.1699-3.9043q.00285-.50535.0078-1.0117c2.3711-1.2988,2.4941-3.3515,1.8984-5.6494q.0234-.5376.0469-1.0732a8.84061,8.84061,0,0,0,1.5322-6.8262c-.2412-1.1787-.7783-2.1465-2.1084-2.2754-1.3789-.1299-1.9414.8379-2.3828,1.9395-.7695,1.9257-.3086,4.1914-1.667,5.9492q-1.1499-.46-2.3017-.918c-1.3477-1.5723-.709-3.3389-.4883-5.0625.2461-1.9219-.002-3.6055-2.2813-4.0625a2.55555,2.55555,0,0,0-3.1679,1.541c-.7579,1.9551-.6856,3.8311,1.3437,5.0547,1.4981.9024,3.3496,1.1563,4.6191,2.4951q.0177,1.06785.0362,2.1338c-2.2061,1.6465-4.6143-1.0293-6.876.2901-.457,2.5039,2.6729,2.5673,2.9941,4.4931.0137.3096.0157.6211.0079.9336-2.0098,1.375-4.7569.6904-6.6514,2.3867q-.5259-.66495-1.0527-1.33c-2.5264-1.9336-4.7364-3.0118-4.9073,1.7421a3.70373,3.70373,0,0,1-.959,2.1036q-1.0986-.48645-2.1992-.9746a5.73724,5.73724,0,0,1-1.1347-3.1094c-.2627-1.6533-.709-3.4893-2.8887-2.8946-1.8985.5137-1.3027,2.2579-.9668,3.6582a4.73563,4.73563,0,0,1,.375,2.3282c-2.0469.6386-3.0195-1.0352-4.3184-2.0069-.2988-4.5517-2.9062-6.4892-7.2793-6.4951a4.68807,4.68807,0,0,1-3.1484-1.0429c.3203-.7325.6396-1.4688.959-2.2022,2.4844-2.3603,5.9013.3213,8.8193-1.3291-4.8994-3.3525-6.1328-3.1191-8.7832,1.3516-1.5127-.3682-.8174-2.209-1.9033-2.8594-3.6045-4.2188-6.9746-1.5391-10.377.3535-1.6328-.8105-1.5996-2.2705-1.4843-3.7637.1992-1.416,1.3769-2.4453,1.5205-3.8867a16.39142,16.39142,0,0,0,.2177-1.8906c-.0127-1.4658,1.1172-3.25-.9785-4.1797a2.11243,2.11243,0,0,0-2.6435.3604,5.48463,5.48463,0,0,0-1.0733,4.9189c.2569.9746,1.3457,1.291,1.9961,1.9707.4365,2.6621-2.5224,1.8311-3.3027,3.2402-.9356,1.3311-.7656,2.2744.8975,2.7754a5.58161,5.58161,0,0,1,3.206,1.709c.0498.4375.0967.874.1465,1.3145a3.81,3.81,0,0,1-1.6543.9795C185.44166,66.99835,185.44166,66.99835,188.48466,71.37925Z" fill="#151616" fill-rule="evenodd"/>
          <path d="M216.68186,4.80015c4.4121-.3467,8.5674.8174,12.6914,2.167,13.92,3.6269,28.2246,5.8515,41.5821,11.5429,4.6152,1.9668,9.3261,3.7178,14.0556,5.3907,3.3907,1.2031,5.0752,3.5312,6.1436,6.8925,3.2285,10.1719,2.4375,20.4961,1.6611,30.8477-2.7383-2.375-.9638-5.3164-1.0029-8.0293-.2979-4.2119-.2285-8.4238-.8262-12.6406-1.0605-7.458-5.0176-12.0977-11.8213-15.3535-12.583-6.0196-26.0732-8.9512-39.3437-12.668-4.6885-1.3145-9.503-2.1914-14.2617-3.2676-2.3428-1.0332-4.5616.4395-6.8584.3623-2.0586-.2451-4.043-.8642-6.0762-1.2461-2.2617-.8369-4.6777-.3554-6.9844-.8076-3.7031-1.085-7.6777-.2725-11.3437-1.6152a14.29766,14.29766,0,0,0-5.0821-.9629c-1.6523.0625-2.9199-.4434-1.8945-2.5254Z" fill="#f1f1f1" fill-rule="evenodd"/>
          <path d="M173.95826,7.14875c-12.0283,8.7305-19.8594,20.7441-26.2451,33.8242a236.18068,236.18068,0,0,0-14.0078,35.2227,17.8835,17.8835,0,0,1-1.2686,3.1543,1.45846,1.45846,0,0,1-2.0635.6728c-.6367-.3447-.58-1.0439-.3867-1.7168a48.6043,48.6043,0,0,1,1.5801-5.6084c7.9775-18.8125,15.4697-37.9043,28.4853-54.0332,3.7393-4.6347,7.3506-9.498,12.6416-12.622C173.18386,6.33235,173.85576,6.41825,173.95826,7.14875Z" fill="#f4f7f8" fill-rule="evenodd"/>
          <path d="M190.44556,39.307c-.3691-.957.0811-2.1807-.9453-2.9228-1.9639.083-4.0606.6064-5.3223-1.6133.1905-1.0987,1.0528-1.5303,1.9278-1.9444,2.9716-.166,3.6464-2.3867,3.6562-4.6621.0107-2.7754-2.5967-1.5224-4.0098-2.125a6.746,6.746,0,0,1-1.8027-.7519c-.9082-.5449-2.0176-.8184-2.582-1.8496.2363-1.0059-.2881-2.2471.9062-2.959a2.2499,2.2499,0,0,0,2.8164-1.1465c.2793-.5.9102-1.1318.2871-1.6289-.4453-.3555-1.1748.2422-1.7978.0664q-.56985-1.11615-1.1436-2.2363c-3.6445-1.5625-4.3711,2.8759-7.0039,3.4072a1.30428,1.30428,0,0,1-1.1543-.502c-.6484-2.1826.9473-3.2734,2.2071-4.5263-.5547-4.3086,2.9658-2.5176,4.8203-3.2207a8.51408,8.51408,0,0,1,2.9961,1.1416c2.3418.3369,2.3418.3369,5.4941-1.9776,1.4512,1.5079-.0293,2.6914-.6816,3.5879-1.4219,1.9512.2402,1.9424,1.2422,2.4395.8632,1.8808-2.8692,4.3965-.0498,5.3222,1.9736.6504,1.2685-3.2187,2.8193-4.4091q.94485.8745,1.8877,1.7509c1.8271,1.7706.4209,4.1934,1.2441,6.1661-.083.3066-.1689.6132-.2519.9179-.1621.2793-.3135.5645-.4658.8496-2.9356,5.4639-2.9356,5.4639,2.4707,7.7588-.7969,2.5713-3.8653-.3525-4.7618,1.9717C192.63506,37.53155,192.27176,39.08135,190.44556,39.307Z" fill="#060606" fill-rule="evenodd"/>
          <path d="M291.81276,53.61165c.8906,2.6074-.543,5.502,1.0029,8.0293-.8008,16.5996-1.6045,33.1992-2.4326,50.3359-2.3936-1.209-1.6963-2.9375-1.6396-4.0351C289.68966,89.82555,290.76586,71.71905,291.81276,53.61165Z" fill="#f4f7f8" fill-rule="evenodd"/>
          <path d="M272.389,72.42705c-8.1963-1.0771-9.4161-2.8437-7.4161-10.7002,1.0332-4.0507,3.6739-.7226,5.4834-1.2129,2.2706.7676,3.3184,2.1866,2.8545,4.7041C272.87236,67.59605,272.68576,70.02185,272.389,72.42705Z" fill="#f3f3f3" fill-rule="evenodd"/>
          <path d="M247.04806,30.39285c-.0693,4.5352-2.0693,5.627-6.3691,4.1661-4.8018-1.6309-1.8066-5.0752-2.083-7.6338-.3633-3.3477,2.3086-2.1455,4.0605-2.0498,1.1231.0625,2.2383.2519,3.3594.3847C247.73076,26.69565,246.39286,28.74545,247.04806,30.39285Z" fill="#f3f3f3" fill-rule="evenodd"/>
          <path d="M205.00416,66.73865c2.4346-.6524,4.8047-.0284,7.1758.3906,3.9004.6894,4.9765,3.082,3.2519,7.1474a33.03181,33.03181,0,0,1-3.7558.2139C204.43576,74.10775,204.31856,73.94755,205.00416,66.73865Z" fill="#f4f4f4" fill-rule="evenodd"/>
          <path d="M272.49436,42.74255c-3.0019-1.3956-6.8261-1.2969-6.164-6.8877.5039-4.2627,1.4511-5.1006,5.0976-3.6182C274.81666,34.41045,275.43486,40.50815,272.49436,42.74255Z" fill="#eee" fill-rule="evenodd"/>
          <path d="M180.51686,45.14685c1.2959.0029,2.5918-.0176,3.8857.0068,2.6035.0517,3.7051,1.3232,2.4366,3.71-1.2627,2.3691,1.0185,7.1279-4.6797,6.6601-3.4405-.2832-4.6641-1.3496-3.3389-4.7158a13.476,13.476,0,0,0,.4766-2.8252Q179.90946,46.56765,180.51686,45.14685Z" fill="#f0f1f1" fill-rule="evenodd"/>
          <path d="M246.24926,65.475c-.542-2.1055-.0205-4.1533.2949-6.2256.3155-2.0811.2227-4.2481,3.5235-3.5283,2.624.5703,4.999,1.373,3.9443,4.5185-.7422,2.2139,2.0723,6.4014-3.1367,6.4483A9.46621,9.46621,0,0,0,246.24926,65.475Z" fill="#f7f7f7" fill-rule="evenodd"/>
          <path d="M281.11356,69.83625c-1.0684,1.3555,1.6328,5.0957-2.2403,5.1016-2.9004.0039-5.9394-1.3457-4.5488-5.5117.7363-2.2032-1.2578-5.7247,2.1758-6.4913C279.59006,62.24645,281.40646,65.18005,281.11356,69.83625Z" fill="#eee" fill-rule="evenodd"/>
          <path d="M178.32836,47.94855c-1.2969,2.085-1.4111,4.5088-1.9287,6.8145-2.2978-.2471-5.7412,1.208-6.6377-.8457-1.0908-2.502,1.1211-5.4795,2.1504-8.1289.9326-2.3936,3.4228-1.2354,5.1396-1.2129C179.47876,44.60775,177.99246,46.75815,178.32836,47.94855Z" fill="#ececec" fill-rule="evenodd"/>
          <path d="M145.49736,67.64685c-1.2823,2.7773-3.9688,2.9462-7.4854,3.8671,2.6348-4.9394,1.9609-10.3652,6.2637-13.8554,4.0762-.8633,5.0449-.2364,4.2773,3.2207C148.01976,63.28745,147.91826,66.03055,145.49736,67.64685Z" fill="#efefef" fill-rule="evenodd"/>
          <path d="M248.11936,26.81085c6.1934-.3486,8.9864,3.4238,6.9961,9.2676-.5859,1.7246-1.8398,1.1934-2.708.9375-1.6689-.4922-4.1787.0684-4.3877-2.7578-.0967-1.2832-.0644-2.5742-.0937-3.8613Q248.02266,28.60525,248.11936,26.81085Z" fill="#f1f1f1" fill-rule="evenodd"/>
          <path d="M301.47286,87.78545c.668,3.9395-1.1796,5.2237-4.8593,5.2891-2.5664.0469-2.6709-1.1797-2.2617-2.9609.6328-2.754-1.2735-6.9004,4.2792-6.9258C302.73266,83.17025,301.16436,85.94365,301.47286,87.78545Z" fill="#dfe7e8" fill-rule="evenodd"/>
          <path d="M233.48366,74.76005c.7109-4.9902,4.2392-2.1367,6.6514-2.3867,4.2207.4004,3.581,3.5508,3.0166,6.0586-.7627,3.375-3.2471,1.001-4.9092.8731C235.57156,79.098,232.51976,78.92705,233.48366,74.76005Z" fill="#f1f1f1" fill-rule="evenodd"/>
          <path d="M156.844,57.12535a.52342.52342,0,0,0,.0264.6328,9.17514,9.17514,0,0,1-2.7373,7.8613c-1.7461,2.1445-4.4014,2.1328-6.752,2.8359-1.3144-4.3593.793-8.1621,2.7715-11.5234C151.60186,54.47105,154.61356,55.62925,156.844,57.12535Z" fill="#f4f4f4" fill-rule="evenodd"/>
          <path d="M325.49246,101.69175c.9707,4.875-3.0996,3.6582-5.2803,4.3144-2.9502.8867-2.4228-1.7597-2.6416-3.3164-.6201-4.4004,2.6758-5.3564,5.8232-6.1621C325.04906,96.10575,325.18966,96.54325,325.49246,101.69175Z" fill="#e9e9e9" fill-rule="evenodd"/>
          <path d="M274.29416,51.78445c-3.1093.254-6.374-.0107-8.1709-2.6298-.8486-1.2383-.5449-4.2598.4453-5.5293,1.4825-1.8985,3.8243.4199,5.8428.2461C276.24536,45.74645,273.40256,49.20835,274.29416,51.78445Z" fill="#eaecec" fill-rule="evenodd"/>
          <path d="M227.54616,17.67805c-.5967,5.082-4.0117,1.375-5.9424,1.6602-3.4355.5097-3.0703-2.3633-2.916-4.6641-1.4375-2.5176-.2402-3.6289,2.1894-3.5791a8.0881,8.0881,0,0,1,3.6817.6396C228.16036,12.40655,226.69166,15.62625,227.54616,17.67805Z" fill="#eee" fill-rule="evenodd"/>
          <path d="M316.98466,80.27965c.872,8.2636.5644,8.6992-7.1602,10.0976C309.32736,81.47685,309.47876,81.26205,316.98466,80.27965Z" fill="#e8e8e8" fill-rule="evenodd"/>
          <path d="M301.86446,79.36755c-1.0009,3.7617-4.0029,1.6748-5.9209,1.663-2.082-.0107-.8261-2.288-.9414-3.5127a45.88162,45.88162,0,0,1,.1192-5.7167c2.1894-1.334,5.2207-1.6602,6.4414.0078C302.94456,73.69855,303.92306,76.77185,301.86446,79.36755Z" fill="#f4f4f4" fill-rule="evenodd"/>
          <path d="M310.54516,70.49645c2.3301-.4375,5.3184-3.5371,6.8359-.0196,2.0459,4.7364-.1923,7.9571-5.0136,8.8594a9.04859,9.04859,0,0,1-1.8789-.0293A7.58236,7.58236,0,0,1,310.54516,70.49645Z" fill="#f6f6f6" fill-rule="evenodd"/>
          <path d="M187.32056,2.88705c1.7324,4.2226,5.5459.9551,8.0928,2.2461.5107.7353-2.669,1.6406.1689,2.3887.9903.2617,1.6738,1.4404,2.1553,2.4912.5127,1.7099.4853,3.3076-.9473,4.6162-.2197.0976-.4424.1894-.666.2832-2.9873-.3633-6.667.1523-4.3506-5.1065.9219-2.0966-.5937-3.9326-3.1679-3.9775-3.0313-.0527-6.0616.0605-9.0948.1006.5811-2.5147,2.6455-.9199,3.8721-1.4209.7285-.0567-.2588-.9932.0879-.4395-1.7998.4981-3.5996.9541-5.3203-.2519q1.6464-.45855,3.2949-.916Q184.38556,2.8949,187.32056,2.88705Z" fill="#eaeaea" fill-rule="evenodd"/>
          <path d="M198.262,72.34405c-1.0937-.7344-4.9004,1.166-4.1465-3.2578.3281-1.9238-.2402-4.918,3.2354-3.668,2.0019.7227,6.1347-1.7656,5.6338,3.5196C202.71416,71.79915,201.96506,73.23665,198.262,72.34405Z" fill="#f2f2f2" fill-rule="evenodd"/>
          <path d="M157.93966,53.82645q-1.4121.57435-2.8242,1.1485c-4.0498.7754-4.9023.0176-3.9189-3.5059a9.02348,9.02348,0,0,1,2.8076-4.4746c.3935-1.5664,1.625-1.8789,2.9883-1.9961,4.1426-1.0097,5.1797-.1387,4.1992,3.6309A8.17224,8.17224,0,0,1,157.93966,53.82645Z" fill="#f1f0f0" fill-rule="evenodd"/>
          <path d="M288.15846,72.53935c-1.3203,1.4707,2.0605,6.6553-3.9287,4.8028-1.7139-.5293-2.3897-1.3633-2.0205-3.1426a36.79135,36.79135,0,0,1,.7851-4.7539c.4258-1.211-.8388-3.8291,1.834-3.3985,2.0244.3252,4.0342,1.4795,3.3496,4.3418A10.30559,10.30559,0,0,0,288.15846,72.53935Z" fill="#ebebeb" fill-rule="evenodd"/>
          <path d="M237.50026,15.71125c-.4121,6.2402-1.3027,6.9033-6.2666,5.6387-3.6719-.9336-1.1026-4.2715-2.6748-5.9121C231.677,11.03645,234.54326,14.77765,237.50026,15.71125Z" fill="#f3f3f3" fill-rule="evenodd"/>
          <path d="M163.02176,41.19855q-1.03275.9858-2.0684,1.9658a3.55278,3.55278,0,0,1-4.8389-.0869c-1.4824-1.3447-.3642-3.001.2657-4.4248.7783-1.7578,1.5722-3.5557,3.5517-4.3545,1.2989-.3545,2.5928-.7099,3.8907-1.0683,2.5625-.9746,2.7949.6884,2.4101,2.4023C165.75316,37.76305,165.09206,39.92515,163.02176,41.19855Z" fill="#f0f0f0" fill-rule="evenodd"/>
          <path d="M154.00416,46.99445a24.83434,24.83434,0,0,1-1.3994,4.0742c-1.6446,3.0039-.792,4.1895,2.5107,3.9063.378.875,2.0967.6748,1.7285,2.1504-4.622-1.5742-7.2382-.0137-7.9404,4.8896-.3125,2.1778-1.7549,4.1143-1.5225,6.4404q-.94335-.40425-1.8837-.8085a47.15068,47.15068,0,0,1,1.7324-5.9649c1.4033-3.2539.6631-4.6123-2.9541-4.0234.0332-.6524.0703-1.3028.1035-1.9551,2.9141-1.1631,5.0625-2.999,5.9277-6.1895.3155-1.1679.9229-2.3935,2.459-2.5449C153.178,46.97885,153.59206,46.98765,154.00416,46.99445Z" fill="#060606" fill-rule="evenodd"/>
          <path d="M180.48946,43.12535c-7.9687-.2793-7.9687-.2793-4.6435-8.6309,4.9551-2.2754,6.0752-1.541,6.2168,4.0537-.0078,1.5264-.2481,2.9541-1.7012,3.8428A.54656.54656,0,0,1,180.48946,43.12535Z" fill="#ececec" fill-rule="evenodd"/>
          <path d="M175.68186,58.74835c-1.3857,6.1817-6.0019,3.586-9.6738,3.5606-.1094-2.8614.791-5.5977,3.7021-6.0381C171.67016,55.973,175.07836,54.70735,175.68186,58.74835Z" fill="#e9e9e9" fill-rule="evenodd"/>
          <path d="M281.41526,44.85485c-5.1787-1.0938-7.3193-4.6954-5.9687-9.3662.2832-.9747.6972-1.4668,1.6377-1.1407,1.7715.6172,4.1211.6739,4.2968,3.2461C281.54326,39.98175,281.41526,42.389,281.41526,44.85485Z" fill="#dbe0e1" fill-rule="evenodd"/>
          <path d="M275.86936,49.01985c.3848-1.0713-1.3203-3.5488,1.5664-3.3437,3.626.2607,5.0723,2.5351,4.5098,6.0312-.209,1.3125.9072,3.8516-2.0957,3.1563C276.96116,54.19565,274.39286,52.99255,275.86936,49.01985Z" fill="#d8d8d8" fill-rule="evenodd"/>
          <path d="M316.52756,99.08435c-1.7617,3.4375,1.1621,8.5507-5.1308,8.6054-1.543.0137-2.4903.1602-2.8233-2.039C307.67116,99.67615,311.91726,99.88505,316.52756,99.08435Z" fill="#e4e4e4" fill-rule="evenodd"/>
          <path d="M247.01686,23.68585a4.48236,4.48236,0,0,1-.9385.1729c-7.4805-.2393-7.6338-.4229-6.8174-8.0772C246.57346,16.58915,246.70146,16.71715,247.01686,23.68585Z" fill="#bfbfbf" fill-rule="evenodd"/>
          <path d="M169.73466,64.64975c1.2714.7197,3.0693-.8018,4.0957.9599-.5371,3.1426-1.793,5.5733-5.5528,5.2764-1.5166-.1201-3.9013,1.9707-4.3496-.8154-.334-2.0801.3916-4.6162,3.4199-4.9844C168.14866,64.98665,168.94166,64.79715,169.73466,64.64975Z" fill="#e9e9e9" fill-rule="evenodd"/>
          <path d="M194.16626,61.98275c1.5732-1.75,1.6055-5.4063,5.6094-4.1152,2.1308.6894,4.6484.5312,4.3203,3.832-.3594.8213.0244,2.4502-1.209,2.3125-2.9082-.3262-6.0488.5605-8.6973-1.3965C194.18286,62.40365,194.17406,62.19175,194.16626,61.98275Z" fill="#ededed" fill-rule="evenodd"/>
          <path d="M308.52856,82.29325c-.1035,2.2657-.2002,4.5332-.3096,6.7989-.1269,2.6484-2.414,2.5039-3.9629,2.5722-1.8906.084-1.5908-1.8593-1.3867-2.9765.4307-2.3399-1.7949-5.8946,2.7168-6.5547A2.35079,2.35079,0,0,1,308.52856,82.29325Z" fill="#dcdfe0" fill-rule="evenodd"/>
          <path d="M301.86936,55.29625c.6299,2.6416.4434,4.5341-3.0312,4.3017-1.6856-.1123-3.5899.2188-2.7891-2.3379.6875-2.1953-1.6767-5.8105,2.7803-6.373C302.77176,50.389,301.55886,53.40465,301.86936,55.29625Z" fill="#e5e5e5" fill-rule="evenodd"/>
          <path d="M270.48756,59.54235a38.75051,38.75051,0,0,1-3.9639-1.5772c-2.2705-1.1904-.8281-3.1699-.6914-4.7324.2002-2.2363,1.7774-1.1094,2.9092-.8066,1.5527.414,3.0967.8701,4.6436,1.3085C273.47286,56.19565,276.07646,59.91245,270.48756,59.54235Z" fill="#f3f3f3" fill-rule="evenodd"/>
          <path d="M158.02266,57.78545c1.3995-2.0351,4.4327-2.9551,5.1788-1.3613a6.618,6.618,0,0,1-2.1192,7.7344c-1.082.8613-2.6748,1.0879-4.039,1.6015-1.6709.0098-1.8125-1.0879-1.4688-2.2744A18.03748,18.03748,0,0,1,158.02266,57.78545Z" fill="#ebebeb" fill-rule="evenodd"/>
          <path d="M300.89286,97.42615c.9023,4.8232-3.0332,4.7626-5.544,4.999-2.9638.2763-1.2734-2.5694-1.4961-3.9776-.6416-4.0615,2.7022-3.7109,5.0918-4.123C301.97286,93.80305,300.57056,96.28445,300.89286,97.42615Z" fill="#f2f2f2" fill-rule="evenodd"/>
          <path d="M219.75026,76.28355c-3.6992-1.4199-2.7656-4.4239-1.7891-6.7725,1.0088-2.4209,3.711-1.165,5.0762-.4873,3.251,1.6094.873,4.8145,1.3281,7.2774Q222.057,76.2923,219.75026,76.28355Z" fill="#f3f3f3" fill-rule="evenodd"/>
          <path d="M152.76586,46.96905a25.60272,25.60272,0,0,0-1.8779,4.2686c-.8613,3.5322-2.9043,5.0693-6.5088,4.4658,1.0488-2.6856,1.9258-5.458,3.1973-8.0361C148.83816,45.10385,151.16236,44.91345,152.76586,46.96905Z" fill="#e8e8e7" fill-rule="evenodd"/>
          <path d="M188.48466,71.37925c-1.2159-1.3555-5.1192.5683-4.1289-3.6299.5039-2.1377.7578-3.7236,3.5185-3.2266a26.71611,26.71611,0,0,0,4.3467.0987C191.845,67.35575,194.10766,71.54715,188.48466,71.37925Z" fill="#f2f2f2" fill-rule="evenodd"/>
          <path d="M159.93186,34.29815c-1.2754,2.7832-2.5508,5.5664-4.0625,8.8662h5.084a2.74722,2.74722,0,0,0,2.0195,1.9512c.9532,1.1953.4942,2.4688-.1035,3.5117-1.4902,2.6055-.2236,4.0166,1.9366,5.168-2.2793,1.9961-4.5713,1.3164-6.8663.0312.9532-2.6425,1.9053-5.289,2.8838-8.0019-1.0508-1.4609-2.6865-.0918-3.831-.8262q-1.4238-.9345-2.8457-1.8672c-.4688-3.7968,1.3916-6.7363,3.541-9.5644C158.43576,33.80985,159.18576,34.05505,159.93186,34.29815Z" fill="#060606" fill-rule="evenodd"/>
          <path d="M264.63106,23.55115c-1.1093,1.3925,1.8516,4.5712-1.6445,4.6679-5.1133.1446-6.3867-1.7099-6.0547-7.5146C259.52176,21.59605,262.55886,21.264,264.63106,23.55115Z" fill="#f1f1f1" fill-rule="evenodd"/>
          <path d="M302.06276,65.23665c.2764,2.4951.2832,4.3398-3.2783,4.2275-3.0987-.0947-3.168-1.4248-3.1729-3.8427-.0039-3.1192,1.2695-4.3047,4.2813-4.3633C303.45726,61.18585,301.90456,63.65465,302.06276,65.23665Z" fill="#f2f2f2" fill-rule="evenodd"/>
          <path d="M240.12716,71.43975c-1.2148-.4023-2.4336-.7929-3.6445-1.207-2.1308-.7324-1.7793-2.3184-1.4355-3.9883.3867-1.875,1.5371-1.7256,2.9121-1.3144,2.0078.6015,4.0312,1.1523,6.0498,1.7265C244.00216,69.29525,244.78056,72.56865,240.12716,71.43975Z" fill="#f2f2f2" fill-rule="evenodd"/>
          <path d="M254.94756,83.12535c-2.5235-1.7305-1.7364-5.1905-.6504-5.8321,2.539-1.4941,5.2402.2813,7.5039,2.0049C261.72876,84.53355,258.27366,83.71325,254.94756,83.12535Z" fill="#ebebeb" fill-rule="evenodd"/>
          <path d="M308.96316,54.41245c.7988,3.7461-.2481,5.0752-3.042,4.8047-4.0674-.3907-1.9014-3.6602-2.4756-5.6114-.7578-2.5859,1.0508-2.7255,3.002-2.8427C310.58326,50.51785,308.72286,53.66825,308.96316,54.41245Z" fill="#eaeaea" fill-rule="evenodd"/>
          <path d="M164.806,53.79525h-4.961c1.1006-3.0547,2.1152-5.8672,3.1279-8.6797,5.3135-.9082,5.3584-.8955,3.7588,4.2383A42.86691,42.86691,0,0,1,164.806,53.79525Z" fill="#eee" fill-rule="evenodd"/>
          <path d="M308.68576,79.32745q-.999.5376-1.997,1.0733c-4.167-.0518-4.5899-.8731-3.126-6.0655-.3125-3.7422,2.1445-3.8974,4.8418-3.7422C310.23656,73.44755,309.87136,76.37535,308.68576,79.32745Z" fill="#f4f4f4" fill-rule="evenodd"/>
          <path d="M282.99046,48.05115c5.3653.831,6.4297,3.6816,5.8115,7.7519-.2343,1.5254-.7451,1.7324-2.2119,1.4121C280.62136,55.91925,284.27466,51.30305,282.99046,48.05115Z" fill="#dedede" fill-rule="evenodd"/>
          <path d="M283.18576,37.18685c4.0391,1.8291,6.4063,6.4346,5.5235,9.5986-.209.751-.6641,1.3086-1.2686,1.0664-1.7441-.705-4.0088-1.0371-4.2138-3.4648C283.03736,42.14585,283.18576,39.87825,283.18576,37.18685Z" fill="#d9e3e5" fill-rule="evenodd"/>
          <path d="M157.68776,33.56675c.1572,3.6836-2.8438,6.1992-3.541,9.5644-1.4297,1.0157-2.9375.6416-4.8946.2539C151.93,39.76105,151.54716,34.01005,157.68776,33.56675Z" fill="#e4e7e7" fill-rule="evenodd"/>
          <path d="M265.887,85.95145c-3.3887-.8457-3.0351-3.7402-2.3223-5.7597.7969-2.2569,2.6729-.0879,4.0528.125a26.5253,26.5253,0,0,1,3.7109,1.1152C271.64866,85.50615,270.23856,87.49645,265.887,85.95145Z" fill="#ededed" fill-rule="evenodd"/>
          <path d="M167.77956,33.33525c3.8799-1.165,5.1348-.1943,3.2734,3.7686-1.0761,2.2949-1.6601,4.9277-4.5078,5.6875-1.0869.29-2.8623.8301-2.0879-1.5996C164.32646,38.04915,166.06276,35.69565,167.77956,33.33525Z" fill="#eee" fill-rule="evenodd"/>
          <path d="M304.37526,41.58335c3.6201-.417,4.1016,1.9717,4.4277,4.4726.3418,2.628-1.5547,2.8125-3.3613,2.9112-4.0488.2246-2.5957-3.1856-3.2461-5.1368C301.47286,41.65075,302.90846,41.42125,304.37526,41.58335Z" fill="#cfd7d9" fill-rule="evenodd"/>
          <path d="M272.22876,77.28935c-.5996,1.3145-1.208,2.8868-3.0439,1.8653-1.7618-.9815-4.4346-.3868-5.3184-2.7022a4.61007,4.61007,0,0,1,.4453-3.2373c.6973-1.4355,1.9258-.5195,2.9385-.2099,1.6875.5175,3.3633,1.0673,5.0439,1.6044C272.27176,75.50225,272.25216,76.39585,272.22876,77.28935Z" fill="#e7e7e7" fill-rule="evenodd"/>
          <path d="M174.73656,67.78155c1.1289-2.4599,5.6524-4.334,7.6582-3.0644,1.7666,1.1152-.4853,2.5644.1563,3.8242C179.06276,71.54135,175.90646,71.23275,174.73656,67.78155Z" fill="#dfdfdf" fill-rule="evenodd"/>
          <path d="M312.51976,67.94755c-2.7178.5313-2.0312-1.498-2.0273-2.7129.0049-1.9355-.7266-4.1962,2.7344-4.4433,3.6083-.2598,3.6347,2.4697,3.8046,4.3555C317.31856,68.41535,313.94946,66.89875,312.51976,67.94755Z" fill="#e8e8e8" fill-rule="evenodd"/>
          <path d="M177.52956,56.72105c1.4619.0449,2.9238.0508,4.3848.1416,1.4531.0898,3.1044-.0049,2.6113,2.3369-.3613,1.7324-.292,3.6973-2.9942,3.4853-2.5879-.2002-5.9238.712-4.9023-3.9267C176.928,58.07945,177.22976,57.40075,177.52956,56.72105Z" fill="#eaeaea" fill-rule="evenodd"/>
          <path d="M303.65066,65.81675c.0293-2.4365-.4522-4.9297,3.1142-4.8574,2.8213.0566,2.3799,2.2617,2.376,3.7714-.0068,1.9746-.0381,4.2178-3.0976,4.4141C302.93966,69.34505,303.88506,67.142,303.65066,65.81675Z" fill="#e0e0e0" fill-rule="evenodd"/>
          <path d="M316.42606,93.27965c.8047,4.8593-2.961,4.5234-5.5274,5.1963-2.2168.581-1.5-1.3467-1.6279-2.4854-.4893-4.3994,3.0596-4.2441,5.6885-4.8945C317.41136,90.48665,316.16726,92.61945,316.42606,93.27965Z" fill="#ededee" fill-rule="evenodd"/>
          <path d="M181.36746,23.43785c.9541.6279,2.4472-.1866,3.1269,1.1679,1.0157,2.9571-.6718,5.1836-2.0088,7.5147-4.5449,1.7842-5.0937,1.4834-4.9404-2.7061C178.66526,27.32355,178.87916,24.65265,181.36746,23.43785Z" fill="#eee" fill-rule="evenodd"/>
          <path d="M196.25706,24.71325c-4.1728-1.295-.2295-4.2315-1.2441-6.1661.126-1.1679.5781-2.0156,1.9365-1.9765,3.8818-.4727,4.3672.1601,3.2422,4.2285C200.20536,23.434,199.513,25.36165,196.25706,24.71325Z" fill="#e6e6e6" fill-rule="evenodd"/>
          <path d="M165.57546,24.43005q.65775-.8805,1.3183-1.7637c4.0909-.6094,4.8643.1445,3.6719,3.5615a5.46525,5.46525,0,0,1-2.6914,3.3057,2.81,2.81,0,0,1-2.0127,1.9472c-1.5722.8848-3.2783.9141-4.2305-.6025-.8476-1.3545.3965-2.6992,1.1114-3.9346A6.81773,6.81773,0,0,1,165.57546,24.43005Z" fill="#eee" fill-rule="evenodd"/>
          <path d="M293.75606,28.932c4.75,1.7715,5.9375,4.8535,5.9532,8.6533.0039,1.0987.207,2.417-1.5459,2.3848a2.14552,2.14552,0,0,1-2.4073-1.8467C295.20046,35.31675,294.54516,32.52965,293.75606,28.932Z" fill="#dfdfdf" fill-rule="evenodd"/>
          <path d="M248.92216,74.42215c1.5644.8916,3.83,1.211,3.1699,3.9043-.7695,2.1133-1.874,3.9258-4.5,2.877-2.5762-1.0273-2.1699-3.7832-2.1817-5.6973C245.40166,73.34015,247.70926,74.82255,248.92216,74.42215Z" fill="#ededed" fill-rule="evenodd"/>
          <path d="M174.595,21.62235c2.0498.878,3.3916,2.001,1.6494,4.3467-1.0332,1.3926-.9922,3.4024-2.5312,4.5176-4.9434.457-5.2442.1914-3.461-3.8897C171.14576,24.557,171.13506,21.50525,174.595,21.62235Z" fill="#e8e8e8" fill-rule="evenodd"/>
          <path d="M293.58226,107.85575c-.4297-3.667,2.3291-3.9062,4.919-4.2929,1.3115-.1973,2.1621.0185,1.8349,1.7597-.5146,2.7578-.872,5.3282-4.6904,5.3731C293.27466,110.725,293.54226,109.40855,293.58226,107.85575Z" fill="#efefef" fill-rule="evenodd"/>
          <path d="M153.096,74.57355a9.37962,9.37962,0,0,1,1.5469-5.3887c1.0996-1.9755,3.2646-1.8877,5.1718-2.124.9278-.1123,1.0899.7793.9004,1.3096-.6543,1.8545-.1113,4.4424-2.9648,5.0303C156.33036,73.69365,154.93386,74.10575,153.096,74.57355Z" fill="#e5e5e5" fill-rule="evenodd"/>
          <path d="M250.82836,67.76105c2.5244.6318,2.4746,2.4815,2.0488,4.4453-.5839,2.6983-2.6855.6143-3.9472,1.2041-3.0069-.4521-4.1387-2.2773-3.1328-5.0234C246.93576,65.26785,249.18966,68.431,250.82836,67.76105Z" fill="#f5f5f5" fill-rule="evenodd"/>
          <path d="M271.44356,31.27475c-3.6171-1.2901-6.5781-2.9863-4.7763-7.6553,1.7734.7051,3.8476,1.0449,5.2471,2.2031C273.97486,27.52575,275.44166,29.80115,271.44356,31.27475Z" fill="#f1f1f1" fill-rule="evenodd"/>
          <path d="M226.56466,77.27575a24.4562,24.4562,0,0,1,.0098-3.7823c.1914-1.2705-.2031-3.3857,1.7412-3.2822,1.7822.0957,4.5049-.0586,4.1153,3.2188C232.15846,77.27965,229.86356,78.04525,226.56466,77.27575Z" fill="#ebebeb" fill-rule="evenodd"/>
          <path d="M174.595,21.62235c-3.0849,1.8721-2.7373,5.6407-4.9189,7.9082,1.457,1.3321,2.8496.5518,4.0371.9561-2.2744,1.6924-4.1377.8633-5.8389-.9531a23.60589,23.60589,0,0,1,1.4092-3.5039c1.8086-3.0489.6797-3.8555-2.3897-3.3633.6661-1.7461,2.9678-.3731,3.7237-1.9512a3.99994,3.99994,0,0,1,3.7734-2.2334c.1885.126.3828.2451.582.3555,1.4629.0928,3.0606-.6797,4.3262.6728C178.41036,21.725,175.56276,19.57945,174.595,21.62235Z" fill="#060606" fill-rule="evenodd"/>
          <path d="M254.43,19.83625c.0918,1.9795,2.0722,4.8184-.7354,5.6357-2.5761.7491-5.3164-.5556-5.6338-4.083C248.805,15.224,252.44756,20.93005,254.43,19.83625Z" fill="#e7e7e7" fill-rule="evenodd"/>
          <path d="M282.03836,60.00815c-.3867.8096.664,3.123-1.5166,2.4092-1.961-.6436-5.3184-.1934-5.1182-3.7569.0635-1.1006-.6299-3.5937,1.8516-2.916C279.29326,56.30305,282.44166,56.21225,282.03836,60.00815Z" fill="#ddd" fill-rule="evenodd"/>
          <path d="M145.36746,76.90265c-.6211-4.3808.9043-6.9912,5.2285-7.6211.8164-.1191,1.7754-.3037,1.6738.8828C151.93,74.20445,149.74736,76.55985,145.36746,76.90265Z" fill="#e9e9e9" fill-rule="evenodd"/>
          <path d="M318.43966,96.181c-.0566-3.3994-1.1718-6.9521,3.2325-8.0595,2.4394-.6114,1.7099,1.832,2.0136,2.9082C324.64286,94.41535,324.52756,94.44955,318.43966,96.181Z" fill="#cedade" fill-rule="evenodd"/>
          <path d="M194.16626,61.98275a1.76939,1.76939,0,0,0,.0234.6328c-.8007-.0625-1.6562-.2969-2.1152.6914-3.0254-.5527-7.8047.7344-5.5801-5.3242a7.81856,7.81856,0,0,1,6.6465-.1367C193.55686,59.20735,192.26586,60.98865,194.16626,61.98275Z" fill="#f5f5f5" fill-rule="evenodd"/>
          <path d="M274.40456,81.21715c-1.2793-1.0391-.8262-2.5684-1.1045-3.8926,1.458-3.6846,3.7324-.8359,5.4893-.4981,2.2031.4219,1.746,2.5762,1.2109,3.9122C278.58036,84.27275,276.22686,80.24545,274.40456,81.21715Z" fill="#e8e8e8" fill-rule="evenodd"/>
          <path d="M144.44756,71.79525c-1.6622,2.7851-.836,6.3691-4.8448,6.7041-1.0029.085-2.2666,1.1699-3.0107-.1826-.5801-1.0479.0898-2.1592.6709-3.1446C138.73166,72.67705,141.10766,72.16825,144.44756,71.79525Z" fill="#dcdcdc" fill-rule="evenodd"/>
          <path d="M159.99826,31.40265c-1.2734.6865-2.5537,1.1943-4.3203-.0879,1.8135-2.5898,3.4942-5.2441,5.4571-7.6738.9619-1.1924,2.4404-2.9766,3.7207-.0684A20.23984,20.23984,0,0,1,159.99826,31.40265Z" fill="#e6e6e6" fill-rule="evenodd"/>
          <path d="M301.13986,46.55305c.417,2.2871-.8408,2.502-2.2607,2.4189-2.4238-.1396-2.8223-1.7138-2.5674-3.7392.207-1.6465-.4814-4.1113,2.333-3.8008C302.04906,41.81085,300.01586,45.19955,301.13986,46.55305Z" fill="#c0c6c7" fill-rule="evenodd"/>
          <path d="M159.99826,31.40265a34.41894,34.41894,0,0,1,4.8575-7.8301q.3573.4293.7197.8575c-1.1787,2.1875-2.3584,4.374-3.5147,6.5175,1.2911,1.0508,2.6104.2149,3.8008.5332a2.74438,2.74438,0,0,0,1.918,1.8545q-1.65975,3.9273-3.3223,7.8565c-.4795.0019-.956.0049-1.4355.0068.7783-2.0137,1.4843-4.0586,2.3554-6.0322.7989-1.8086-.5371-1.6953-1.5546-1.9365Q161.90946,32.31425,159.99826,31.40265Z" fill="#060606" fill-rule="evenodd"/>
          <path d="M193.12526,16.79625c-.1172,1.4267-.1777,2.8603-.3711,4.2773-.2461,1.7998-.8613,3.0352-3.1231,2.1299-1.955-.7773-2.914-1.6172-1.7148-3.8623a12.84262,12.84262,0,0,1,2.4395-3.458C191.27756,16.18685,192.20336,16.49055,193.12526,16.79625Z" fill="#f2f2f2" fill-rule="evenodd"/>
          <path d="M273.45336,84.28935c.1035-.3007-.8398-2.5078,1.4805-1.6074,1.7002.6621,4.6367.3731,4.3594,3.4561-.1055,1.1806.3125,3.458-2.0245,2.9472C275.24246,88.64285,272.46706,88.39485,273.45336,84.28935Z" fill="#dedede" fill-rule="evenodd"/>
          <path d="M307.57446,95.92025c.5274,2.6934-.7129,3.9307-3.248,4.2705-2.8262.3779-1.6094-1.8223-1.7686-2.8955-.3564-2.3897.5576-3.9756,3.2773-4.2119C308.56276,92.847,307.41726,94.76785,307.57446,95.92025Z" fill="#eee" fill-rule="evenodd"/>
          <path d="M288.80886,62.47105c-.2735,1.3457-.0528,2.8691-2.1621,2.417-2.3047-.4932-3.8233-1.4541-3.4473-4.1631.1553-1.124-.0312-2.4385,1.6963-2.1387C287.12326,58.973,288.79716,60.00815,288.80886,62.47105Z" fill="#dcdcdc" fill-rule="evenodd"/>
          <path d="M174.39086,18.48175c-1.168.8936-2.0566,2.2627-3.7734,2.2334-1.8428-.1992-1.9571-1.0488-1.0371-2.4765,1.6377-2.543,3.0644-5.337,6.9043-4.3262C176.63306,15.82455,174.50806,16.68975,174.39086,18.48175Z" fill="#dadada" fill-rule="evenodd"/>
          <path d="M200.19166,20.79915c.0049-2.2432-.4297-4.1465-3.2422-4.2285q-.4131-.8262-.8252-1.6582l-.2158-.375.29-.3242c1.7617.1738,3.0889-.8301,4.4815-1.6582a6.30453,6.30453,0,0,1,2.1269,1.373c.9942.958,3.1094.6006,3.168,2.6631-.9365.3984-2.2637-.3975-2.8867.9521.3769,2.7539.789,5.5098-1.0821,7.9571C199.77566,24.559,201.86156,21.95535,200.19166,20.79915Z" fill="#060606" fill-rule="evenodd"/>
          <path d="M281.52076,85.10575c2.0967,2.0127,5.7978,1.3272,5.1475,5.25-.211,1.2715-.8633,1.7959-2.3672,1.5098C280.61936,91.16635,281.05106,88.63705,281.52076,85.10575Z" fill="#d4dbdd" fill-rule="evenodd"/>
          <path d="M302.53736,106.42215c-.3496-2.7148.0176-4.3769,2.6387-4.6679,2.082-.2295,2.0293,1.1152,1.8379,2.3965-.3106,2.0839.0722,4.8339-3.1895,4.8847C301.23076,109.07255,302.80106,106.95835,302.53736,106.42215Z" fill="#efefef" fill-rule="evenodd"/>
          <path d="M281.303,31.90265c-.1758.9317.0567,2.2471-1.5185,1.7881-2.2588-.6572-4.9326-.9502-4.5323-4.4277.1172-1.0371.1289-2.1494,1.5254-1.5147C278.70436,28.62335,281.37716,28.851,281.303,31.90265Z" fill="#e3e3e3" fill-rule="evenodd"/>
          <path d="M303.56276,74.33525c1.3545,1.8604-2.5918,6.4522,3.126,6.0655.3007.9336,1.8759.6269,1.8398,1.8925q-1.47075-.0819-2.9424-.1601c-1.1855-.9942-3.0488-1.0801-3.7217-2.7656a16.72413,16.72413,0,0,1-.2041-1.8741c.004-6.6123.0079-6.6123-6.539-5.6923C299.721,69.1,301.69166,69.69175,303.56276,74.33525Z" fill="#060606" fill-rule="evenodd"/>
          <path d="M224.55886,11.73465c-1.9893.9151-6.0684-2.3418-5.8711,2.9395-1.1406.2871-.8359,1.3643-1.1484,2.1016-2.9122-.8907-1.9512-3.418-2.2872-5.3975.4063-1.7373,2.2286-1.5342,3.2774-2.3955,2.3369.3008,4.8564-1.2246,7.0303.6992-1.0508.1035-2.1045.2051-3.7373.3652C223.04906,10.80305,223.803,11.26785,224.55886,11.73465Z" fill="#060606" fill-rule="evenodd"/>
          <path d="M287.23076,82.12145c-.6788.9365.6035,3.25-1.502,2.8828-1.6113-.2793-4.2383-.4033-3.9082-3.3008.123-1.0684-.5469-3.1211,1.3926-2.752C284.78836,79.25035,287.45926,79.12925,287.23076,82.12145Z" fill="#ebebeb" fill-rule="evenodd"/>
          <path d="M179.29906,19.51005c-1.4961.1094-3.0459.5801-4.3281-.6728a45.89953,45.89953,0,0,1,2.8574-3.6826c1.6113-1.711,3.3145-2.6309,4.6074.3789C180.639,16.266,180.29416,18.142,179.29906,19.51005Z" fill="#e1e1e1" fill-rule="evenodd"/>
          <path d="M318.48466,83.79625c.58-1.2803-.9043-3.8252,1.6787-3.6612,1.7998.1153,1.7607,2.336,2.0605,3.8994a2.24258,2.24258,0,0,1-2.3642,2.8731C317.24736,87.00915,319.00606,84.82845,318.48466,83.79625Z" fill="#ccc" fill-rule="evenodd"/>
          <path d="M177.54516,29.41435c.2315,4.1153,2.2022,3.6758,4.7197,1.8018,1.3936.833,1.462,2.2314,1.5498,3.6221.0274,2.2949-.0087,4.5586-2.7529,5.4492-.2724-.5567-.9111-1.2559-.7588-1.6465,2.0469-5.2471-1.039-4.8535-4.457-4.1465C176.86546,32.95345,176.01486,30.78545,177.54516,29.41435Z" fill="#060606" fill-rule="evenodd"/>
          <path d="M310.51006,50.50225c2.748,1.9395,3.2578,4.0879,3.8681,6.1397.4502,1.5185-.6953,1.8779-1.8115,2.205-1.5625.4561-2.0078-.457-2.042-1.7275C310.47486,55.21715,310.51006,53.31475,310.51006,50.50225Z" fill="#d7d7d7" fill-rule="evenodd"/>
          <path d="M183.57936,17.76985c1.1201-.8359,1.9521-3.7344,3.417-1.9863,1.539,1.8408-.5235,4.334-1.7949,5.9648-1.2676,1.627-2.4844.459-2.9278-1.2695C182.70826,19.57455,183.14476,18.67515,183.57936,17.76985Z" fill="#dedede" fill-rule="evenodd"/>
          <path d="M178.15066,3.81675c2.0293.1015,4.0586.2031,6.4541.3222-1.6016,1.5743-3.96.0127-5.0938,1.7901q-2.7729.6108-5.5527,1.2197-.63135-.55365-1.2647-1.1064A8.41332,8.41332,0,0,1,178.15066,3.81675Z" fill="#f1f1f1" fill-rule="evenodd"/>
          <path d="M308.68576,79.32745q-.14055-4.36665-.2812-8.7344c.7129-.0312,1.4267-.0654,2.1406-.0966q-.02775,4.40325-.0566,8.8105C309.887,79.31375,309.28736,79.32065,308.68576,79.32745Z" fill="#060606" fill-rule="evenodd"/>
          <path d="M158.02266,57.78545c.4502,2.7539-3.2109,5.003-.9794,7.9746-1.0479,1.5733-1.9414-.0507-2.9102-.1406a31.0425,31.0425,0,0,1,2.7373-7.8613C157.25516,57.767,157.637,57.77575,158.02266,57.78545Z" fill="#060606" fill-rule="evenodd"/>
          <path d="M301.71606,35.45245a9.1537,9.1537,0,0,1,3.6133,3.7119C301.27366,40.56865,301.23266,40.53355,301.71606,35.45245Z" fill="#a8a8a8" fill-rule="evenodd"/>
          <path d="M169.22486,15.98665c-1.1074,1.8262-1.5615,4.3125-4.3066,4.7051C165.34986,17.934,165.34986,17.934,169.22486,15.98665Z" fill="#c3c3c3" fill-rule="evenodd"/>
          <path d="M184.30106,11.83335c-1.3242.4717-2.8633,1.5185-2.9961-1.1416.8974-1.3848,2.0957-2.793,3.7402-1.6641C186.24246,9.85185,184.39086,10.81865,184.30106,11.83335Z" fill="#d4d4d4" fill-rule="evenodd"/>
          <path d="M286.41036,36.40265c-2.2998-.6777-3.7353-1.4609-3.7285-3.6162.0039-.7764.5137-1.3643,1.1211-1.0967C285.53246,32.45735,286.262,33.95635,286.41036,36.40265Z" fill="silver" fill-rule="evenodd"/>
          <path d="M217.31666,54.16435c-.957,1.1836,1.3535,5.3438-2.7246,4.1739-2.6983-.7735-7.6387,1.9912-7.8613-3.3184-.0762-1.832-2.0079-6.8896,3.3906-5.8945C212.90846,49.63605,218.094,47.48955,217.31666,54.16435Z" fill="#f0f0f0" fill-rule="evenodd"/>
          <path d="M262.71416,64.62145c-.4522.7226,1.996,4.6357-1.9659,4.5947-5.1836-.0537-5.6904-1.2481-4.9609-8.6182.1113-1.1445-1.168-3.7715,1.9971-3.0722C260.95046,58.22785,265.17116,58.03155,262.71416,64.62145Z" fill="#f2f2f2" fill-rule="evenodd"/>
          <path d="M217.60186,44.23865c-.6348.9492,1.5878,4.4541-1.9639,3.5019-2.667-.7129-7.6065,2.0938-7.708-3.4766-.0323-1.6523-1.9131-5.8437,2.3008-5.2656C212.98946,39.37925,218.75606,36.93975,217.60186,44.23865Z" fill="#e0e9eb" fill-rule="evenodd"/>
          <path d="M243.97286,64.52275c-1.5351.4483-2.7968-.5781-4.205-.7802-6.0137-.8633-3.4873-5.0293-2.8985-8.0616.7881-4.0517,3.8047-1.4111,5.8008-1.331,1.9863.0781,2.502,1.5996,2.1846,3.4883-.376,2.2285-.6123,4.4785-.9072,6.7187Z" fill="#f4f4f4" fill-rule="evenodd"/>
          <path d="M264.62136,35.65655c-.8838.7031,2.0058,3.7305-1.5742,3.8701-4.7315.1885-6.5723-1.9345-6.3125-7.3525.0713-1.5186-.7637-4.2432,2.3437-3.5117C262.31856,29.42515,266.31856,29.95145,264.62136,35.65655Z" fill="#f3f3f3" fill-rule="evenodd"/>
          <path d="M218.12916,25.88415c-.665.7509,1.1221,3.8662-1.8926,2.8193-2.667-.9277-7.6347.9062-7.1553-4.7227.1827-2.1289-.4902-4.8086,3.6495-4.5947C217.23466,19.61945,218.64476,21.557,218.12916,25.88415Z" fill="#f2f2f2" fill-rule="evenodd"/>
          <path d="M229.31076,27.22005c.71-1.4209-1.6367-4.9775,2.7266-4.3125,2.8818.4385,6.1377.6514,4.9766,4.9385-.5196,1.9101,1.1992,5.5634-3.0079,5.1386C230.887,32.67025,227.54126,32.02185,229.31076,27.22005Z" fill="#f1f1f1" fill-rule="evenodd"/>
          <path d="M227.20926,26.77665c-.7432.7862,2.0508,3.9932-1.5684,4.1827-4.8281.2519-6.2793-1.7286-6.0029-7.3399.0693-1.4316-.2949-3.1289,2.165-2.4473C224.49046,21.91925,229.19556,20.27765,227.20926,26.77665Z" fill="#f3f3f3" fill-rule="evenodd"/>
          <path d="M200.70146,56.559c-1.1817-.8301-5.0674,1.0009-4.0596-2.9209.5517-2.1455-1.1699-6.7373,4.0557-5.836,2.0625.3526,5.4638-.6201,4.2617,3.5948C204.33616,53.58625,206.10966,57.61365,200.70146,56.559Z" fill="#f2f2f2" fill-rule="evenodd"/>
          <path d="M217.76586,35.20345c-.2109.6836.9199,3.7773-2.0723,2.6504-2.3164-.877-7.0419,1.664-6.7314-3.6455.1035-1.751-1.3584-5.4151,2.6055-4.7227C214.20926,29.94955,218.85476,28.975,217.76586,35.20345Z" fill="#f4f4f4" fill-rule="evenodd"/>
          <path d="M227.54126,57.33435c1.1953-1.2891-1.9473-5.6641,3.207-5.2872,2.6026.1915,5.2598.6387,4.0645,4.0352-.6758,1.9229,1.4473,5.9375-3.0137,5.5342C229.82836,61.43875,226.29326,62.02185,227.54126,57.33435Z" fill="#f1f1f1" fill-rule="evenodd"/>
          <path d="M191.19756,55.89685c-1.211-.6875-3.7959,1.0019-3.7178-1.6221.0791-2.6338.1377-5.8252,2.3428-7.4736,1.0976-.8223,4.3554-.4483,5.3164.5996,1.8564,2.0214-.4864,4.7578-.168,7.2382C194.20046,56.52765,192.93,56.90755,191.19756,55.89685Z" fill="#f6f6f6" fill-rule="evenodd"/>
          <path d="M198.76786,42.35c1.1425-1.2139-1.7481-5.8623,3.4511-4.9356,1.7256.3086,5.045-.709,4.0528,2.9571-.5938,2.1972,1.4326,6.7597-3.9873,5.6621C200.52756,45.67805,197.48466,46.69565,198.76786,42.35Z" fill="#e5ebed" fill-rule="evenodd"/>
          <path d="M245.76586,41.04715c-.2344.6934.9336,3.5684-2.2851,2.4707-2.3633-.8046-6.9307,1.0977-6.0801-4.3398.2519-1.6133-.3623-4.0518,2.6328-3.1094C242.41336,36.82065,247.01976,34.74445,245.76586,41.04715Z" fill="#eef1f2" fill-rule="evenodd"/>
          <path d="M218.96016,54.34015c.6954-.8594-1.7587-4.5088,2.4532-3.5234,1.791.4189,5.4931-1.0664,4.4453,2.9609-.5332,2.0479,1.9219,6.0498-3.1719,6.0049C219.03936,59.74835,218.23466,57.94955,218.96016,54.34015Z" fill="#ececec" fill-rule="evenodd"/>
          <path d="M256.87136,43.42415c.2226-1.375-1.0488-3.9961,2.2861-3.2109,2.6768.6279,6.3086.4277,5.2647,4.9433-.3203,1.3906,1.1338,4.4336-2.0635,3.625C259.87036,48.15075,255.33426,48.68785,256.87136,43.42415Z" fill="#e4eaec" fill-rule="evenodd"/>
          <path d="M245.014,49.53935c-.5645.875,1.3886,3.8672-1.9454,3.1924-2.746-.5556-7.1572.1865-5.8818-5.0869.2881-1.1855-1.2305-4.0137,1.7568-3.2402C241.469,45.057,246.33426,43.48865,245.014,49.53935Z" fill="#f3f4f3" fill-rule="evenodd"/>
          <path d="M181.06176,40.28745q1.2525-2.89455,2.5059-5.791c.2363-.3438.4482-.3282.6318.0468,1.5117,1.3477,3.9941-.0957,5.3008,1.8409-.1348.4677-.2813.9306-.3984,1.4033-1.626,6.6709-1.6241,6.6709-8.7403,4.6035C180.596,41.68975,180.82736,40.98865,181.06176,40.28745Z" fill="#f0f2f2" fill-rule="evenodd"/>
          <path d="M246.91236,49.99445c.8291-.8691-1.5137-4.1191,2.0459-3.1719,2.3311.6221,6.5879-.7441,5.8057,4.211-.2207,1.4052,1.1308,3.8105-1.9805,3.8359C248.41236,54.90265,246.81466,53.65655,246.91236,49.99445Z" fill="#f2f2f2" fill-rule="evenodd"/>
          <path d="M228.94556,35.59405c.0068-.0137-1.4199-2.7734,1.5615-1.9101,2.3106.6699,6.6104-.4473,5.5791,4.4902-.291,1.3984.8887,4.1631-2.3164,3.4023C231.264,40.98075,227.21806,41.70245,228.94556,35.59405Z" fill="#e8e7e7" fill-rule="evenodd"/>
          <path d="M190.44556,39.307c.957-1.0137.502-3.3008,2.8027-3.0957,3.3467-.2598,4.7539,1.124,3.8457,4.5078-.5214,1.9375.4043,4.5547-3.4785,4.334C188.85276,44.77765,190.43,41.78745,190.44556,39.307Z" fill="#dde5e8" fill-rule="evenodd"/>
          <path d="M219.68776,34.85385c.3076-1.1719-.9336-3.8223,1.8828-3.125,2.1895.5449,6.2539-.585,5.4961,4.041-.2539,1.5586.7422,4.4082-2.6211,3.8135C221.90356,39.13505,218.45436,39.38315,219.68776,34.85385Z" fill="#ebebeb" fill-rule="evenodd"/>
          <path d="M219.595,43.94565c.5264-.711-1.4619-3.3838,1.8037-3.1836,3.0655.1875,5.7696.625,5.0703,4.8916-.3125,1.9014.1817,3.7685-2.9277,3.5635C220.24246,48.99835,218.74046,47.80205,219.595,43.94565Z" fill="#e7eff3" fill-rule="evenodd"/>
          <path d="M205.99926,64.559c-.3935-5.7461-.1064-6.0235,5.1494-4.7832,1.0664.25,2.1016.914,3.1465.9023,1.9336-.0215,2.5859.6436,2.2363,2.5537-.3222,1.7324-1.1386,2.5127-2.955,2.249-2.5313-.3681-5.0762-.6328-7.6133-.9443Z" fill="#f4f4f4" fill-rule="evenodd"/>
          <path d="M206.93486,32.01005c-.6475,1.1446,1.7255,4.7364-2.3897,3.7657-1.7207-.4043-5.3271,1.0019-4.3398-3.043.4638-1.8906-1.1289-5.4063,3.0312-5.1582C205.77856,27.72685,208.53736,27.88115,206.93486,32.01005Z" fill="#f2f2f2" fill-rule="evenodd"/>
          <path d="M255.04906,42.65855c-.3496,1.292,1.0879,4.0927-2.207,3.2597-2.3496-.5918-6.0664.0977-5.4805-4.2558.2227-1.6446-.417-4.1035,2.9903-3.5371C253.14766,38.59015,256.19946,38.20635,255.04906,42.65855Z" fill="#dae5e7" fill-rule="evenodd"/>
          <path d="M228.23656,46.00225c.457-1.1386-1.0508-3.9013,1.9736-3.5566,2.7471.3105,6.1358.541,5.1807,4.9375-.3047,1.418.8633,4.1806-2.3349,3.3164C230.78836,50.08825,226.72486,50.99935,228.23656,46.00225Z" fill="#ecf1f2" fill-rule="evenodd"/>
          <path d="M256.20926,52.891c.7051-1.291-.6524-4.2881,2.3847-3.5635,2.1563.5127,5.7334.0498,5.4688,3.9287-.0977,1.3946.5439,4.1485-2.4863,3.4805C259.36646,56.24835,255.971,57.03155,256.20926,52.891Z" fill="#e4eaec" fill-rule="evenodd"/>
          <path d="M215.53936,11.05305c2.0263,1.4326.7441,4.0195,2,5.7227-2.045,2.3105-4.6153,2.0078-7.8458-.9307-1.7011-3.124-1.33-5.3701,2.5879-6.124A3.43559,3.43559,0,0,1,215.53936,11.05305Z" fill="#eee" fill-rule="evenodd"/>
          <path d="M198.01006,34.23955c-2.1739-.0898-5.5762,1.2373-5.9336-1.5634-.3077-2.4161-.3731-6.4053,3.9287-7.045C201.56276,27.36165,197.78936,31.265,198.01006,34.23955Z" fill="#f2f2f2" fill-rule="evenodd"/>
          <path d="M202.00606,25.50035c.2227-2.67-1.4384-5.5977,1.0821-7.9571,1.7275,1.0254,5.0039-.3798,4.7646,3.7168C207.514,27.11165,207.76786,27.12535,202.00606,25.50035Z" fill="#eaeaea" fill-rule="evenodd"/>
          <path d="M257.33036,69.75425c1.4687,1.1474,4.9297.0967,4.9297,3.6523,0,1.252.0742,3.6504-2.0684,2.7832-1.959-.7949-5.8447.6231-5.4766-3.7226C254.83816,71.01785,254.72686,69.38115,257.33036,69.75425Z" fill="#e7e7e7" fill-rule="evenodd"/>
          <path d="M230.48946,68.81375c-2.2841-.3017-4.5693-.5849-3.9599-4.2021.4521-2.6895,2.1973-1.8652,3.5771-1.7354,2.3106.2178,3.836,1.251,3.1748,4.0362C232.92406,68.42905,232.81076,69.92515,230.48946,68.81375Z" fill="#eaeaea" fill-rule="evenodd"/>
          <path d="M221.19066,61.68585c1.9727.0703,4.3106-.4336,3.7324,2.833-.2275,1.2871.2022,3.6319-2.1171,2.5635-1.7735-.8174-5.2833,1.1221-5.2334-3.207C217.61156,60.52275,219.89676,62.15265,221.19066,61.68585Z" fill="#f2f2f2" fill-rule="evenodd"/>
          <path d="M205.97486,16.59115c-1.335-.6201-2.6689-1.2461-4.0029-1.8662-.8741-2.4707-.9024-4.7168,1.6738-6.2686,5.4043.3555,6.3564,2.2451,4.0771,8.0879Q206.84836,16.56915,205.97486,16.59115Z" fill="#ebebeb" fill-rule="evenodd"/>
          <path d="M207.72286,16.54425c.0176-3.1748,1.6622-7.1904-3.871-7.5049a2.44978,2.44978,0,0,1,1.913-1.9414c2.4209-.2578,4.8584-.707,7.1397.625-.6035.9766.0137,1.9864-.0772,2.9785-4.4619-.3671-2.6504,3.087-3.1338,5.1436Q208.70776,16.19515,207.72286,16.54425Z" fill="#060606" fill-rule="evenodd"/>
          <path d="M191.19756,55.89685c1.3027-.2832,2.873.2402,3.7734-1.2579.668,1.7989-1.3643,2.0547-1.8301,3.2071-2.2158-.0274-4.4433-.5586-6.6465.1367C187.264,55.48765,190.139,57.74255,191.19756,55.89685Z" fill="#060606" fill-rule="evenodd"/>
          <path d="M205.76486,7.098a3.29531,3.29531,0,0,1-1.913,1.9414c-1.5997,1.5723-1.7588,3.6211-1.8799,5.6856-1.0176-.3135-.8037-1.3301-1.1592-2.0215-1.0098-1.2871-1.8945-2.7285-3.7412-2.9551-.0069-1.7324-6.5811-1.1074-1.6582-4.6152C198.70926,6.60675,202.62426,4.80505,205.76486,7.098Z" fill="#151515" fill-rule="evenodd"/>
          <path d="M212.82736,10.70145c-.6797-.9902-2.8466-.4072-2.6435-2.041.1777-1.4238,1.8515-.4297,2.7207-.9375q2.814.62985,5.625,1.2598c-.5586,1.3223-1.8057,1.6533-2.9902,2.0703Q214.18291,10.87725,212.82736,10.70145Z" fill="#212121" fill-rule="evenodd"/>
          <path d="M185.53446,25.639c2.0537-1.5781,5.2509-.6933,5.5683.4356.585,2.0947-.2431,4.7656-1.0224,7.0078-.7705,2.2217-2.5176-.2646-3.7657.2949-2.4589.8203-3.1875-.3701-2.9296-2.582A9.4788,9.4788,0,0,1,185.53446,25.639Z" fill="#e7e7e7" fill-rule="evenodd"/>
          <path d="M185.53446,25.639a38.09469,38.09469,0,0,1-1.3936,4.9004c-1.043,2.4405.5674,2.5733,2.1738,2.8379-.3105,1.1055-1.3584.8711-2.1152,1.166-.2109-.0088-.4219-.0254-.6318-.0468-1.3408-.7344-.9346-2.1602-1.3028-3.2803q1.1133-3.3033,2.2295-6.6104Q185.01441,25.12145,185.53446,25.639Z" fill="#060606" fill-rule="evenodd"/>
          <path d="M197.07156,9.74835c.6553-1.6035,2.0263-1.457,3.0732-.8555,1.5235.875.5713,2.502.668,3.8106-.8067,2.7266-2.4004,3.0684-4.6143,1.5117C197.40256,12.90465,197.07646,11.29525,197.07156,9.74835Z" fill="#ebebeb" fill-rule="evenodd"/>
        </g>
        <g>
          <path d="M39.48164,106.60235a2.00154,2.00154,0,0,0-1.9648-1.4961,8.26014,8.26014,0,0,0-5.6094,3.4131,5.31454,5.31454,0,0,0-3.001.6382c-.038.022-.0713.0444-.1084.0669a4.908,4.908,0,0,0-3.9257-.729,19.18593,19.18593,0,0,0-.6055-3.728c-1.3672-4.9698-7.7051-4.2564-9.3584,0-.2275.5825-.4346,1.1713-.6358,1.7622a4.068,4.068,0,0,0-3.0097-.1563,10.0695,10.0695,0,0,0-3.7276,2.3574,13.44117,13.44117,0,0,0-1.3447-3.8266c-2.0664-3.8457-7.70308-.4629-5.8066,3.3935,1.2324,2.5074.3769,5.4458.1377,8.0816a12.892,12.892,0,0,0,1.5576,7.185,4.55651,4.55651,0,0,0,5.1328,2.0904,7.40454,7.40454,0,0,0,2.5801-1.2862c1.3984,2.3125,4.3662,3.605,6.9668,1.9038.10352-.0688.1894-.145.289-.2133a4.45663,4.45663,0,0,0,5.795.396,12.87952,12.87952,0,0,0,1.8867-1.6138,5.02833,5.02833,0,0,0,5.1269-.0986,13.486,13.486,0,0,0,1.8907-1.6348,4.86555,4.86555,0,0,0,4.7949-2.4898C38.69656,116.556,40.21414,111.14725,39.48164,106.60235Z" fill="#bccf00"/>
          <path d="M35.47584,102.55455a1.196,1.196,0,0,0-1.1895-.315,13.33063,13.33063,0,0,0-4.88278,3.128c-1.89842,1.7426-4.18942,5.1796-7.02732,5.4423-.0586-4.0927-.461-8.0546-2.6016-11.6757a1.23332,1.23332,0,0,0-1.6719-.438c-4.4824,2.644-4.6455,8.0815-7.834,11.5053-1.9267-2.4511-3.248-5.3129-5.3535-7.6469a1.2418,1.2418,0,0,0-1.4824-.1909c-4.9355,2.3574-3.1094,11.4638-3.0488,15.7236a1.22281,1.22281,0,0,0,2.4443,0c-.042-2.9434-1.4336-10.4136,1.0313-12.9966,1.9716,2.4736,3.3037,5.3818,5.4384,7.7485a1.24225,1.24225,0,0,0,1.7286,0c3.6796-2.894,3.7822-8.3154,7.2636-11.2729,1.5235,3.2646,1.6446,6.7905,1.6514,10.4087a1.21479,1.21479,0,0,0,.8975,1.1792c4.1953.6289,6.9062-2.666,9.60742-5.3897a17.77588,17.77588,0,0,1,3.27538-2.6801c1.5849-.981,1.1152,5.2846,1.0849,5.496-.40128,2.9351-1.292,5.7544-1.4179,8.7295-.06738,1.5772,2.3779,1.5708,2.4443,0C36.06956,113.77375,39.52174,107.43535,35.47584,102.55455Z" fill="#000100"/>
        </g>
        <g>
          <path d="M118.63106,94.639a3.15269,3.15269,0,0,0-3.0986-2.3593,13.02409,13.02409,0,0,0-8.84373,5.3808,8.39,8.39,0,0,0-4.7315,1.0064c-.0605.0356-.1123.0703-.1709.1054a7.7427,7.7427,0,0,0-6.1904-1.1494,30.15922,30.15922,0,0,0-.9541-5.8779c-2.15628-7.8359-12.1484-6.7109-14.7559,0-.35738.9185-.6855,1.8472-1.0019,2.7783a6.41649,6.41649,0,0,0-4.7471-.2461,15.89,15.89,0,0,0-5.876,3.7173,21.1267,21.1267,0,0,0-2.1211-6.0337c-3.2578-6.0639-12.1445-.7305-9.15428,5.3506,1.94338,3.9531.59478,8.5864.21678,12.7427a20.341,20.341,0,0,0,2.4551,11.3296,7.18682,7.18682,0,0,0,8.0938,3.2949,11.63975,11.63975,0,0,0,4.0664-2.0278c2.205,3.6469,6.8867,5.684,10.9873,3.0019.1631-.1079.2988-.2285.4541-.3364a7.02973,7.02973,0,0,0,9.1386.625,20.434,20.434,0,0,0,2.9747-2.5449c2.5068,1.2998,5.8398,1.4931,8.0839-.1558a21.16972,21.16972,0,0,0,2.9795-2.5776,7.67235,7.67235,0,0,0,7.56163-3.9253C117.39576,110.33235,119.78636,101.80455,118.63106,94.639Z" fill="#bccf00"/>
          <path d="M112.31564,88.25615a1.886,1.886,0,0,0-1.8769-.497,21.02724,21.02724,0,0,0-7.6983,4.9321c-2.9912,2.748-6.6064,8.1665-11.0781,8.581-.0947-6.4526-.7275-12.6997-4.1025-18.4096a1.946,1.946,0,0,0-2.6377-.69c-7.0664,4.169-7.3233,12.7422-12.35258,18.1407-3.03712-3.8648-5.11912-8.3775-8.43942-12.0572a1.95778,1.95778,0,0,0-2.3369-.3012c-7.7832,3.7172-4.9043,18.0756-4.8096,24.792.0351,2.4848,3.8906,2.4873,3.8555,0-.0665-4.6407-2.2598-16.419,1.6269-20.4922,3.1084,3.8999,5.207,8.4853,8.5742,12.2172a1.9601,1.9601,0,0,0,2.7266,0c5.8008-4.5629,5.9629-13.1108,11.4521-17.7744,2.4014,5.148,2.5928,10.7071,2.60362,16.4121a1.91634,1.91634,0,0,0,1.415,1.8594c6.61518.9912,10.89058-4.2036,15.14837-8.498a28.11021,28.11021,0,0,1,5.1631-4.2266c2.5-1.5459,1.7588,8.3325,1.7119,8.6665-.6328,4.6279-2.0371,9.0728-2.2363,13.7637-.1064,2.4868,3.75,2.477,3.85553,0C113.25126,105.94515,118.69556,95.95145,112.31564,88.25615Z" fill="#000100"/>
        </g>
      </g>
    </g>
  </g>
</svg>
