<svg xmlns="http://www.w3.org/2000/svg" viewBox="0 0 238.41135 241.51998">
  <title>Recurso 1</title>
  <g id="Capa_2" data-name="Capa 2">
    <g id="Editar">
      <g>
        <g>
          <g>
            <path d="M154.34608,40.3856c-8.24631-4.87-19.745-3.78991-28.887-2.86806-10.33276,1.04191-20.39275,6.2989-28.938,12.0054A24.06712,24.06712,0,0,0,87.507,59.50565c-4.30169,3.31477-5.80588,8.78458-6.52034,14.49539a64.93086,64.93086,0,0,0,1.04575,21.4112,31.10537,31.10537,0,0,0,4.99123,10.60992c2.66378,3.82072,6.41154,6.37961,10.07667,9.17989.61156.46731,1.23406.923,1.857,1.37823a27.50463,27.50463,0,0,0,5.32053,5.24182q5.0464,3.72325,10.27433,7.17637c3.25283,2.136,6.54453,4.76357,10.19913,6.14651.50052.18943,1.05828.38669,1.64845.58155a28.71843,28.71843,0,0,0,7.98079,5.19464,13.42408,13.42408,0,0,0,8.43884.40425c.01948-.00551.035-.01525.0542-.02068a17.01986,17.01986,0,0,1,2.42637,2.19958l.0012,1.29409c.00431,4.08647,3.64135,6.06029,7.27024,5.53806,4.71176-.6779,7.25077-4.75343,7.8031-9.13031.39251-3.11089-2.907-5.73763-5.73763-5.73763a6.03034,6.03034,0,0,0-1.09723.1017q-1.31848-1.32135-2.63647-2.642a9.34661,9.34661,0,0,0-2.11345-1.6328c4.258-2.87388,7.0797-7.56457,9.82841-12.051a73.6297,73.6297,0,0,0,9.51429-24.61062c.01245-.07208.01947-.14457.03153-.21673C174.54972,75.84076,172.4999,51.10736,154.34608,40.3856Z" fill="#e000e7"/>
            <g>
              <path d="M153.07418,55.998a3.55909,3.55909,0,0,0-5.56336,4.29266c3.34742,7.289,5.14938,13.409,4.81378,21.53684a95.77644,95.77644,0,0,1-4.85393,25.09429c-1.411,4.4338,5.10148,7.01967,7.38639,3.114,5.07266-8.67,6.2779-18.29416,6.55108-28.2083C161.64163,73.37926,160.222,61.69046,153.07418,55.998Z" fill="#f399f5"/>
              <path d="M152.80484,119.858a5.89326,5.89326,0,0,0-.16293-1.58291,3.80635,3.80635,0,0,0-7.3381,0,5.88786,5.88786,0,0,0-.16293,1.58211c-.0004.03856-.01054.07448-.00974.113.0016.07448.00311.14888.005.22336a3.83689,3.83689,0,0,0,7.67338,0c.00192-.07448.00343-.14888.005-.22336C152.81538,119.932,152.80524,119.89617,152.80484,119.858Z" fill="#f399f5"/>
            </g>
          </g>
          <path d="M233.10706,229.31186a38.07391,38.07391,0,0,0-8.68631-8.09742c-6.72454-4.57374-15.02816-6.57367-22.88969-8.16751-8.04753-1.63128-16.24665-2.74919-23.8564-5.98709a50.35529,50.35529,0,0,1-19.4202-15.49826,59.95491,59.95491,0,0,1-10.596-22.5319,72.25915,72.25915,0,0,1-1.85728-12.40294,43.73661,43.73661,0,0,1-.05269-6.19752,34.89707,34.89707,0,0,1,.69658-4.288c.37846.86062.87859,1.62458,1.29841,2.48879.8801,1.81249,1.01149,5.02038,3.25466,5.80229a4.20667,4.20667,0,0,0,4.40027-1.27693,47.87542,47.87542,0,0,0,4.55777-5.39852c1.892-2.44,6.63138-7.33962,2.88051-10.18037-1.51785-1.14952-4.25451-1.19862-6.07211-1.41687-1.34781-.16181-2.709-.29472-4.05254-.51377.88593-1.00559,1.78719-2.00232,2.679-3.01454A83.58725,83.58725,0,0,0,164.19508,120.82a88.24835,88.24835,0,0,0,5.96218-12.56124,93.28957,93.28957,0,0,0,4.28724-13.41284c2.13835-8.96427,2.46229-18.5421-.28139-27.412a48.49553,48.49553,0,0,0-13.27418-20.99146A51.95944,51.95944,0,0,0,138.9262,34.19662a43.42787,43.42787,0,0,0-26.02868,1.7365c-8.12464,3.00129-15.52588,8.73932-21.42062,14.99423C85.46292,57.30927,80.47176,65.12682,78.255,73.6771c-4.80021,18.51592,7.40164,35.67109,20.42085,47.55762a115.65575,115.65575,0,0,0,21.9846,15.43544c7.42152,4.11808,15.59605,8.62636,24.37944,7.35135.03864-.005.07528-.01445.11272-.02107-2.3083,3.02244-2.52775,7.56337-2.61317,11.18955a61.05879,61.05879,0,0,0,1.01381,12.42872,64.37567,64.37567,0,0,0,9.20128,23.28412,56.09252,56.09252,0,0,0,18.06226,17.36688c7.10572,4.33793,15.31386,6.157,23.39484,7.70211,8.463,1.61843,17.20235,2.95028,24.98014,6.87821a33.00539,33.00539,0,0,1,9.57624,7.54038c2.90541,3.25466,4.66569,7.17317,7.25467,10.62429a1.35778,1.35778,0,0,0,2.37767-1.06139C237.89673,236.00679,235.50038,232.40208,233.10706,229.31186Zm-74.25079-89.06732q.48232.08585.96272.19366a2.74513,2.74513,0,0,1,.58115.21482c-.16987.3336-.47977.80179-.60645.99705-1.08518,1.67878-2.34071,3.27614-3.55681,4.86176-1.02667,1.33935-2.12119,2.63145-3.21882,3.91149a5.9104,5.9104,0,0,1-.44129.39874,1.75782,1.75782,0,0,1-.233.17626,12.71578,12.71578,0,0,1-.96632-2.82287c-.61627-1.70065-1.66824-3.22465-2.40026-4.88323a7.68806,7.68806,0,0,0-.87547-1.71382c.60262-.94955,1.25473-1.85736,1.93958-2.73905C152.91939,139.60567,155.90911,139.74713,158.85627,140.24454Zm-14.59749.99857c-8.10045.47051-16.02561-4.51522-22.78679-8.37179a111.04608,111.04608,0,0,1-21.74216-15.88256,79.53865,79.53865,0,0,1-8.86448-9.98743A58.97466,58.97466,0,0,1,83.629,95.134a32.89623,32.89623,0,0,1,.52079-26.80277A57.50748,57.50748,0,0,1,100.43416,47.6948c6.974-5.69085,14.949-9.69039,23.94366-10.8083,8.91989-1.10937,17.45732,1.42469,25.16726,5.81714a46.42062,46.42062,0,0,1,17.38635,17.28888c7.641,13.50991,6.12392,29.05184,1.09061,43.16789a80.99558,80.99558,0,0,1-10.173,20.2976,103.341,103.341,0,0,1-7.51228,9.08473c-.71565.78463-1.42309,1.58211-2.10059,2.40266a1.95858,1.95858,0,0,0-1.04966,1.32642A22.80536,22.80536,0,0,0,144.25879,141.2431Z" fill="#463131"/>
        </g>
        <g>
          <g>
            <path d="M82.97242,7.44391c-8.24631-4.87-19.745-3.78991-28.887-2.86806-10.33276,1.04191-20.39275,6.2989-28.938,12.0054A24.06712,24.06712,0,0,0,16.13333,26.564c-4.30169,3.31477-5.80588,8.78458-6.52034,14.49539a64.93086,64.93086,0,0,0,1.04575,21.4112A31.10537,31.10537,0,0,0,15.65,73.08047c2.66378,3.82072,6.41154,6.37961,10.07667,9.17989.61156.46731,1.23406.923,1.857,1.37823a27.50463,27.50463,0,0,0,5.32053,5.24182q5.0464,3.72325,10.27433,7.17637c3.25283,2.136,6.54453,4.76357,10.19913,6.14651.50052.18943,1.05828.38669,1.64845.58155a28.71844,28.71844,0,0,0,7.98079,5.19464,13.42408,13.42408,0,0,0,8.43885.40425c.01948-.00551.035-.01525.0542-.02068a17.01987,17.01987,0,0,1,2.42637,2.19958l.0012,1.29409c.00431,4.08647,3.64135,6.06029,7.27024,5.53806,4.71176-.6779,7.25077-4.75343,7.8031-9.13031.39251-3.11089-2.907-5.73763-5.73763-5.73763a6.03033,6.03033,0,0,0-1.09723.1017q-1.31848-1.32135-2.63647-2.642a9.3466,9.3466,0,0,0-2.11345-1.6328c4.258-2.87388,7.0797-7.56457,9.82841-12.051a73.6297,73.6297,0,0,0,9.51429-24.61062c.01245-.07208.01947-.14457.03153-.21673C103.17606,42.89906,101.12623,18.16567,82.97242,7.44391Z" fill="#b2ca00"/>
            <g>
              <path d="M81.70051,23.05633A3.55909,3.55909,0,0,0,76.13715,27.349c3.34742,7.289,5.14938,13.409,4.81378,21.53684A95.77644,95.77644,0,0,1,76.097,73.98013c-1.411,4.4338,5.10148,7.01967,7.38639,3.114,5.07266-8.67,6.2779-18.29416,6.55108-28.2083C90.268,40.43757,88.84838,28.74877,81.70051,23.05633Z" fill="#e0ea99"/>
              <path d="M81.43117,86.91632a5.89326,5.89326,0,0,0-.16293-1.58291,3.80635,3.80635,0,0,0-7.3381,0,5.88786,5.88786,0,0,0-.16293,1.58211c-.0004.03856-.01054.07448-.00974.113.0016.07448.00311.14888.005.22336a3.83689,3.83689,0,0,0,7.67338,0c.00192-.07448.00343-.14888.005-.22336C81.44171,86.99032,81.43157,86.95448,81.43117,86.91632Z" fill="#e0ea99"/>
            </g>
          </g>
          <path d="M161.7334,196.37017a38.07391,38.07391,0,0,0-8.68631-8.09742c-6.72454-4.57374-15.02816-6.57367-22.88969-8.16751-8.04753-1.63128-16.24665-2.74919-23.8564-5.98709a50.35529,50.35529,0,0,1-19.4202-15.49826,59.9549,59.9549,0,0,1-10.596-22.5319A72.25915,72.25915,0,0,1,74.42756,123.685a43.73659,43.73659,0,0,1-.05269-6.19752,34.89706,34.89706,0,0,1,.69658-4.288c.37846.86062.87859,1.62458,1.29841,2.48879.8801,1.81249,1.01149,5.02038,3.25466,5.80229a4.20667,4.20667,0,0,0,4.40027-1.27693,47.87544,47.87544,0,0,0,4.55777-5.39852c1.892-2.44,6.63138-7.33962,2.88051-10.18037-1.51785-1.14952-4.25451-1.19862-6.07211-1.41687-1.34781-.16181-2.709-.29472-4.05254-.51377.88593-1.00559,1.78719-2.00232,2.679-3.01454a83.58725,83.58725,0,0,0,8.80405-11.81125A88.24835,88.24835,0,0,0,98.7836,75.31709a93.28957,93.28957,0,0,0,4.28724-13.41284c2.13835-8.96427,2.46229-18.5421-.28139-27.412A48.49553,48.49553,0,0,0,89.51526,13.50077,51.95944,51.95944,0,0,0,67.55254,1.25493a43.42787,43.42787,0,0,0-26.02868,1.7365C33.39922,5.99272,25.998,11.73074,20.10324,17.98566,14.08925,24.36758,9.0981,32.18512,6.88135,40.73541,2.08114,59.25133,14.283,76.4065,27.3022,88.293a115.65575,115.65575,0,0,0,21.9846,15.43544c7.42152,4.11808,15.59605,8.62636,24.37944,7.35135.03864-.005.07528-.01445.11272-.02107-2.3083,3.02244-2.52775,7.56337-2.61317,11.18955A61.05879,61.05879,0,0,0,72.1796,134.677a64.37567,64.37567,0,0,0,9.20128,23.28412A56.09252,56.09252,0,0,0,99.44314,175.328c7.10572,4.33793,15.31386,6.157,23.39484,7.70211,8.463,1.61843,17.20235,2.95028,24.98014,6.87821a33.00539,33.00539,0,0,1,9.57624,7.54038c2.90541,3.25466,4.66569,7.17317,7.25467,10.62429a1.35778,1.35778,0,0,0,2.37767-1.06139C166.52307,203.06509,164.12672,199.46039,161.7334,196.37017ZM87.48261,107.30284q.48232.08585.96272.19366a2.74513,2.74513,0,0,1,.58115.21482c-.16987.3336-.47977.80179-.60645.99705-1.08518,1.67878-2.34071,3.27614-3.55681,4.86176-1.02667,1.33935-2.12119,2.63145-3.21882,3.91149a5.91038,5.91038,0,0,1-.44129.39874,1.75782,1.75782,0,0,1-.233.17626,12.71578,12.71578,0,0,1-.96632-2.82287c-.61627-1.70065-1.66824-3.22465-2.40026-4.88323a7.68805,7.68805,0,0,0-.87547-1.71382c.60262-.94955,1.25473-1.85736,1.93958-2.73905C81.54573,106.664,84.53545,106.80544,87.48261,107.30284Zm-14.59749.99857c-8.10045.47051-16.02561-4.51522-22.78679-8.37179A111.04608,111.04608,0,0,1,28.35617,84.04706a79.53865,79.53865,0,0,1-8.86448-9.98743,58.97466,58.97466,0,0,1-7.2364-11.86737,32.89623,32.89623,0,0,1,.52079-26.80277A57.50748,57.50748,0,0,1,29.06049,14.75311c6.974-5.69085,14.949-9.69039,23.94366-10.8083C61.924,2.83544,70.46147,5.3695,78.1714,9.76195A46.42062,46.42062,0,0,1,95.55776,27.05083c7.641,13.50991,6.12392,29.05184,1.09061,43.16789a80.99558,80.99558,0,0,1-10.173,20.2976A103.341,103.341,0,0,1,78.96306,99.601c-.71565.78463-1.42309,1.58211-2.10059,2.40266a1.95858,1.95858,0,0,0-1.04966,1.32642A22.80536,22.80536,0,0,0,72.88512,108.30141Z" fill="#463131"/>
        </g>
        <g>
          <path d="M61.31239,110.93794a120.40761,120.40761,0,0,0,5.873-18.0078c1.3653-5.8716-5.71089-10.2842-10.16789-5.9189a61.80978,61.80978,0,0,1-11.80671,8.7529c-.6816-.957-1.3428-1.9282-2.0117-2.875-1.1445-1.6226-4.3428-5.0796-4.56059-6.9658a8.003,8.003,0,0,0-1.17481-3.4131,4.17113,4.17113,0,0,0-3.53119-2.5029,6.28949,6.28949,0,0,0-1.35741-.147c-3.01659,0-6.4434,2.7729-6.0635,6.063a18.1269,18.1269,0,0,0,1.4346,5.2221c-.1602,3.063-.0772,6.1661-.09569,9.0669-.01181,1.7471.02049,3.4834.082,5.2149-6.61331,3.23-13.46191,5.4961-19.40631,10.3418-4.5253,3.6889-.3691,9.9385,4.2881,10.3506a157.017,157.017,0,0,0,17.1201.2119c.54111,3.4741,1.167,6.9316,1.8243,10.396.29881,1.5791.0839,2.8999.914,4.3872-1.1191-2.0034-.3711-.9346-.2509.3442A10.35712,10.35712,0,0,0,34.911,147.6c3.9443,4.8423,10.3477.3369,12.0703-3.9541,2.0596-5.1318,3.9863-10.101,6.3828-15.1098.2295-.4785.4571-.9576.6866-1.4366,1.8945.1304,3.8984.8199,5.8222,1.0533,3.9531.479,8.9405-.3863,10.1709-4.8619C71.5165,117.93894,65.996,113.80364,61.31239,110.93794Z" fill="#ffc531"/>
          <path d="M75.02619,119.56194a49.91648,49.91648,0,0,0-5.6845-4.333,34.18749,34.18749,0,0,1-4.11819-3.188,2.43065,2.43065,0,0,0,.11909-.2553c1.8106-5.0884,4.1817-9.9043,6.3282-14.857,1.5215-3.5107,4.6299-9.3598.1631-11.9682-3.0655-1.7886-7.2862.2153-10.2647,1.2441a53.84427,53.84427,0,0,0-13.4043,6.2554c-2.8828-3.5352-5.6348-7.1743-8.5898-10.6514a32.86249,32.86249,0,0,0-3.1963-2.8896,16.85607,16.85607,0,0,1-1.71-1.8613,7.55144,7.55144,0,0,1-.5137-.7247,1.8862,1.8862,0,0,1-.2001-.3686c1.125-1.4512-.77149-3.9072-2.376-2.6817a3.432,3.432,0,0,0-1.4522,3.3917c-1.3642,1.0698-1.499,2.4829-2.0527,4.2192-.4092,1.2856-.958,2.5317-1.4414,3.792-.5176,1.352-.5996,2.7529-1.0215,4.1181a75.886,75.886,0,0,0-2.2559,8.4756c-.3339,1.7881-.9755,4.2627-.3964,6.1201a13.95617,13.95617,0,0,1-2.0762.1333,8.15166,8.15166,0,0,0-3.2246.9483c-2.5762,1.3545-4.9903,2.9751-7.4951,4.4517-3.4649,2.0419-11.1822,5.5454-10.0508,10.7153.9194,4.1972,5.2217,5.3535,8.81831,6.3828,2.52349.7222,4.90429,1.832,7.46779,2.4756,2.541.6387,4.95121.3135,7.4717.7754a7.1775,7.1775,0,0,0,.7842,3.6006,66.91375,66.91375,0,0,1,3.3457,6.8686c1.47361,3.8115,2.4092,10.0664,7.1572,10.9976,3.52541.6904,7.6279-1.7486,9.7588-4.419,2.8594-3.5849,6.1289-7.2734,6.39261-11.9887,2.44919,1.2617,5.83789,1.0551,8.44719.9741,2.4229-.0742,4.8125-.4317,7.2383-.5044,3.6738-.1099,8.46-.4458,11.0967-3.3692C81.455,127.71094,77.81429,122.36184,75.02619,119.56194Zm-1.0478,8.2881c-1.5371,1.7368-5.7461,1.5537-7.8477,1.6192-2.1416.0669-4.2343.4082-6.375.5468-2.8701.1856-6.164-.645-8.8925.3433a1.85308,1.85308,0,0,0-1.3282,1.8535,1.17561,1.17561,0,0,0-.6289.3994c-2.3613,2.8423-4.1963,6.022-6.4668,8.9414-1.3789,1.7725-3.8183,4.7774-6.4746,4.3638-1.2246-.1919-2.0683-3.833-2.5019-4.8848q-1.207-2.9187-2.4141-5.8388a29.1219,29.1219,0,0,0-2.2539-3.9551,5.80346,5.80346,0,0,1-.751-3.4238,1.95372,1.95372,0,0,0-1.583-1.9434c-.8525-1.8735-2.8535-2.4126-4.77829-2.4219a20.59679,20.59679,0,0,1-6.55371-1.0351c-2.0137-.6358-3.9292-1.523-5.9639-2.0923-.8877-.2485-3.1748-.6646-3.5713-1.6748-.0498-.1265,3.3511-2.647,3.8047-3.0283a35.83515,35.83515,0,0,1,3.458-2.0816c1.1367-.7426,2.2393-1.5395,3.3438-2.3296,1.872-1.3408,3.5869-3.0097,5.7509-3.8691a7.56777,7.56777,0,0,0,2.89951-1.8652,1.698,1.698,0,0,0,1.22849-.1753c2.1504-1.2124,1.6758-3.7432,1.9707-5.8887a64.638,64.638,0,0,1,1.75581-7.7612c.57619-2.1656.85159-4.3404,1.46289-6.4951.37211-1.3101.7617-2.606,1.0596-3.9371.0186-.0815.0283-.1567.04-.2324a21.09333,21.09333,0,0,0,1.5694,1.6914,18.25932,18.25932,0,0,1,2.0097,1.9322c1.0723,1.3891,2.0967,2.8169,3.15341,4.2163,2.249,2.9795,4.49509,5.9614,6.85149,8.8559.9336,1.147,2.584.7886,3.56551,0a37.42248,37.42248,0,0,1,12.63569-6.374c2.0098-.6182,4.7012-2.1587,6.9062-1.9282-.0791.3808-.1718.7588-.2841,1.1318-.2461.8897-.6953,1.6748-.9991,2.5376a58.89729,58.89729,0,0,1-2.9785,6.5816c-.8437,1.6943-1.4004,3.5112-2.2148,5.2299a21.38044,21.38044,0,0,0-1.9746,5.565,1.96179,1.96179,0,0,0-.1875,1.209c.6572,3.8584,4.8711,5.9106,7.415,8.4126,1.4873,1.4633,3.3164,2.2812,4.6485,4.0195C72.99889,124.73684,74.67659,127.05954,73.97839,127.85Z" fill="#463131"/>
        </g>
      </g>
    </g>
  </g>
</svg>
