<svg xmlns="http://www.w3.org/2000/svg" viewBox="0 0 425.705 390.604"><title>art12</title><g id="Capa_2" data-name="Capa 2"><g id="Objects"><path d="M48.227,96.5A115.018,115.018,0,0,1,37.04,78.827c-2.944-5.887-7-11.028-10.38-16.674A63.281,63.281,0,0,0,21.9,55.027a27.183,27.183,0,0,1-3.07-4.652c-2.023-3.391-7.32-8.038-11.169-4.189-2.516,2.515-1.478,5.158-.191,7.5-.384,3.455-.5,6.936-.823,10.41C6.2,68.938,6.2,74.292,5.212,79.023A69.534,69.534,0,0,0,4.2,93.171c-.025,4.446-.339,8.9-.207,13.339.179,6.056,3.739,17.111,11.5,10.948,1.877-1.489,2.367-4.294,3.23-6.535.06.05.118.1.188.154.693.566,1.4,1.11,2.106,1.652a9.348,9.348,0,0,0,4.844,1.67c3.282.376,5.553-3.59,6.575-6.055.669-1.616.536-2.312,1.933-1.521,1.634.927,3.016,2.229,4.663,3.143,3.139,1.74,7.018.6,8.018-3.045a7.48,7.48,0,0,0-.693-4.821C48.376,101.053,49.873,98.7,48.227,96.5Z" fill="#ffd697"/><path d="M123.715,335.61c-2.369-4.741-5.235-9.328-7.027-14.317a146.148,146.148,0,0,1-4.964-15.423c-2.751-11.429-6.085-22.539-9.534-33.775-3.514-11.45-6.839-22.853-9.732-34.481-2.9-11.663-5.853-23.317-9.883-34.649-3.865-10.884-8.239-21.738-11.343-32.871-1.442-5.172-2.612-10.3-4.414-15.375-1.983-5.581-4.09-11.1-5.647-16.827-1.452-5.365-2.51-10.849-3.607-16.294-.422-2.076-1.065-4.051-1.463-6.125-.337-1.742-.342-4.091-1.4-5.608-2.269-3.247-6.105-3.2-9.443-1.623-1.278.6-2.847,1.961-4.334,1.3-2.041-.909-4.25-2.516-6.6-2.405-4.368.213-6.1,3.214-7.168,7.08-.588,2.154-1.4,2.476-3.656,2.562-1.273.052-1.809-1.119-2.946-2.314a4.173,4.173,0,0,0-5.889,0c-1.593,1.831-2.847,3.54-4.437,5.171-.287-.008-.577-.016-.864-.022C6.8,119.536,5.4,122,5.809,124.277q.151.819.379,1.629a17.544,17.544,0,0,0,.047,5.125c.6,4.384,2.614,8.96,4.136,13.094,1.588,4.307,3.318,8.556,4.761,12.916,1.464,4.421,1.943,9.172,3.148,13.689,1.146,4.277,2.919,8.424,3.862,12.742,1.769,8.112,6.817,14.846,9.324,22.65a66.65,66.65,0,0,0,3.169,7.924,103.631,103.631,0,0,0,6.516,22.2c1.961,4.559,4.768,8.667,6.132,13.467a70.253,70.253,0,0,0,3.67,10.243,20.945,20.945,0,0,0,1.075,6.151c2.3,7.091,4.265,12.394,7.259,20.059,1.772,4.531,3.7,9,5.6,13.48,2.3,5.437,5.442,10.438,7.554,16.01,1.171,3.093,2.228,6.093,3.424,9.071a30.37,30.37,0,0,0,2.968,6.839,4.185,4.185,0,0,0,.312.434c.2.433.392.872.586,1.308a72.05,72.05,0,0,0,2.8,8.372,27.943,27.943,0,0,1,.55,4.288,3.773,3.773,0,0,0,4.388,3.85c.081.093.155.188.238.279a4.187,4.187,0,0,0,5.061.652c4.274-2.427,6.944-7.563,12.072-7.675,2.817-.058,5.309-1.168,8.2-1.18,2.356-.013,4.716,0,7.072,0A4.223,4.223,0,0,0,123.715,335.61Z" fill="#ffca39"/><path d="M127.136,346.829c-.353-2.485-2.071-3.647-3.836-5.232a1.188,1.188,0,0,0-1.668.064c-2.311-.749-5.277-.564-7.267-.5a22.128,22.128,0,0,0-8.979,2.443,23.17,23.17,0,0,0-6.356.833c-3.736,1.121-7.148,3.421-10.3,5.649-2.095,1.483-7.22,5.9-4.321,8.891,4.46,4.6,11.371-2.173,15.31-3.661,3.962-1.494,8.192-2.113,12.256-3.308a115.356,115.356,0,0,1,14.336-3.724C127,348.171,127.22,347.407,127.136,346.829Z" fill="#ac794a"/><path d="M127.942,352.752c-5.326-3.559-13.22.071-18.74.8-6.483.856-13.362,1.052-19.436,3.65-2.366,1.011-3.289,2.629-3.307,4.39a8.3,8.3,0,0,0-.2.811,10.132,10.132,0,0,0,1.858,7.306,33.8,33.8,0,0,1,5.381,7.353c1.466,2.913,1.825,6.031,5.342,7.072,6.635,1.96,13.756.51,20.2-1.532a26.979,26.979,0,0,0,8.814-4.852c2.609-2.095,3.84-6.042,4.674-9.144C134.046,362.982,133.06,356.169,127.942,352.752Z" fill="#e35668"/><path d="M311.361,320.382c-.949-4.6-6.072-5.219-9.852-4.346a25.911,25.911,0,0,1-6.535,1.018c-2.918,0-5.835-.038-8.753.019-5.646.108-11.23,1.1-16.9,1.173-11.9.154-24,2.073-35.875.721-4.4-.5-8.764-.757-13.187-.974-3.733-.187-8.361-.519-11.773,1.319a6.3,6.3,0,0,0-.989.662c-1.646-.925-3.951-.7-4.28,1.63-.676,4.832-2.609,11.287-.934,15.99a4.067,4.067,0,0,0,3.83,2.916l17.669.094c6.356.033,12.438.977,18.77-.085,5.185-.869,10.1-3.189,15.4-3.379a129.569,129.569,0,0,0,18.536-1.994,68.912,68.912,0,0,0,15.156-4.451c4.332-1.888,9.216-2.563,13.8-3.44C308.762,326.621,312.142,324.143,311.361,320.382Z" fill="#e5667c"/><path d="M219.07,360.85c-10.857-2.791-23.081-3.642-34.064-1.127a4.017,4.017,0,0,0-2.982,3.916c.4,3.91,2.386,6.76,5.359,9.263,3.755,3.162,7.9,3.749,12.693,4.139,9.164.746,19.355.627,26.977-5.113a4.3,4.3,0,0,0,1.585-2.259,3.3,3.3,0,0,1,1.53.925c1.406,1.769,4.86.358,4.589-1.9C233.9,361.582,224.187,362.159,219.07,360.85Z" fill="#c22f6d"/><path d="M326.86,370.9c-2.4-2.551-6.563-2.987-9.829-3.26-8.008-.673-15.863,1.1-23.735,2.041a3.385,3.385,0,0,0-3.208,3.3,4.273,4.273,0,0,0-.593,1.38c-2.077,8.559,9.313,7.488,14.4,7.372,7.229-.165,15.758,2.429,22.249-2.008C329.587,377.379,329.6,373.819,326.86,370.9Z" fill="#c22f6d"/><path d="M366.093,107.569c-3.993-7.294-13.272-9.115-20.861-9.275a23.478,23.478,0,0,0-10.417,1.954c-.7-.858-1.414-1.706-2.189-2.529-.643-3.25-2.163-6.8-5.208-8.012-4.584-1.823-9.1.079-13.621,1.109-4.261.969-10.324-3.615-13.9-5.5-2.621-1.381-5.327-1.607-7.975-2.845-2.308-1.079-3.385-2.789-5.022-4.625-2.22-2.487-6.293-1.044-7.171,1.892-.425,1.428-1.253,9.165-2.933,9.275-1.5.093-3.51-1.61-4.6-2.479a51.273,51.273,0,0,0-5.765-4.219c-3.394-2.026-9.147-3.985-11.34-7.372-1.994-3.081-3.249-7.373-6.717-9.139-7.458-3.793-11.3,7.351-12.768,12.517-.937,3.3-5.458,4.658-8.206,5.918-4.365,2.007-9.5,3.194-12.406-1.295a25.279,25.279,0,0,1-2.715-5.252,23.161,23.161,0,0,1-1.022-5.017c-.6-3.487-2.272-9.3-6.61-9.913-10.493-1.494-9.992,12.524-18.521,15.189-9.623,3.009-16.5,9.2-22.7,16.86-4.322,5.346-8.2,11.443-9.808,18.14a17.75,17.75,0,0,0-1.69-6.206,7.388,7.388,0,0,0-8.687-3.927c-4.744,1.137-7.19,6.517-8.509,10.652a30.679,30.679,0,0,0-1.011,13.444c.622,4.639,3.371,7.615,6.981,10.365,1.5,1.14,3.346,1.858,4.807,3.018a5.912,5.912,0,0,0,3.912,1.19c.033.358.047.718.07,1.066a20.171,20.171,0,0,0,.644,5.072c.064.187.121.343.166.474a7.157,7.157,0,0,0,.092,1.2,20.332,20.332,0,0,0,.677,3.2c.582,1.985,1.649,3.815,2.325,5.77a44.808,44.808,0,0,0,6.249,12.414c6.37,8.527,15.568,10.854,24.521,15.68,10.242,5.52,20.963,9.731,32.584,11.164,3.8.469,7.671.735,11.559.9-.1,1.42-.13,2.855-.133,4.28a13.761,13.761,0,0,0-1.16,6.539c.138,3.46,2.347,6.213,3.918,9.126,3.294,6.122,12.447,8.162,18.67,6.232,6-1.861,8.609-8.769,10.559-14.085,1.108-3.021,2.471-5.746,3.8-8.673a17.311,17.311,0,0,0,1.231-3.984,147.709,147.709,0,0,0,29.605-7.416c3.321-1.157,7-2.2,9.982-4.075a64.061,64.061,0,0,0,8.026-6.453c2.573-2.275,5.152-4.881,8.411-6.116a32.815,32.815,0,0,0,8.1-4.4C340.178,161.3,344.5,146.984,344.7,133.9c0-.045,0-.091,0-.138,2.079-.235,4.189-.59,6.232-.974a23.562,23.562,0,0,0,10.953-5.865C366.744,122.449,369.4,113.61,366.093,107.569Z" fill="#ffe6c9"/><path d="M157.354,175.255c-1.64-2.527-2.446-5.384-3.629-8.134-2.635-6.132-5.823-11-5.992-17.908a3.814,3.814,0,0,0-2.93-3.786,2.532,2.532,0,0,0-2.311-3.374c-3.637.257-4.073,3.905-5.4,6.563-2.3,4.6-7.444,7.557-11.835,9.692-10.191,4.956-22.39,4.754-33.426,5.723-3.606.317-6,5.63-2.035,7.516a57.969,57.969,0,0,0,19.706,5.266,27.535,27.535,0,0,1,3.725.947,22.217,22.217,0,0,0,5.708.171c3.314-.133,6.281-1.356,9.319-2.585.231-.092.445-.2.673-.3-4.119,3.592-8.3,6.611-10.367,11.97a4.015,4.015,0,0,0,1.861,4.567c5.08,2.852,10.548,1.734,16.123,1.734a13.442,13.442,0,0,0,3.487-.144,3.641,3.641,0,0,0,1.049-.486c-.229.419-.463.837-.69,1.257-1.709,3.178-2.891,6.916-1.189,10.334,1.974,3.957,7.085,2.24,9.943.655,7.458-4.128,16.8-13.207,12.571-22.338A60.213,60.213,0,0,0,157.354,175.255Z" fill="#b54c36"/><path d="M412.03,152.683c-3.1-2.195-8.457-2.639-12.041-3.15a110.286,110.286,0,0,1-15.721-3.145c-1.438-2.521-3.977-2.756-6.448-3.984a60.509,60.509,0,0,1-8.744-5.707c-3.6-2.647-8.3-3.91-10.738-7.856-.052-.086-.113-.16-.169-.237-.133-2.11-2.455-3.236-4.413-2.866-2.493-1.924-7.46.358-6.767,4.556a17.793,17.793,0,0,0,1.684,5.141c-.179,1.262-.332,2.515-.535,3.678a49.174,49.174,0,0,1-5.065,14.433,44.848,44.848,0,0,1-9.267,11.691c-3.093,2.874-6.732,6.663-5.809,11.291.776,3.876,4.951,6.409,7.972,8.515,1.511,1.054,3.123,2,4.556,3.165,1.95,1.59,4.36,2.454,6.536,3.756a28.626,28.626,0,0,0,13.016,3.733,133.2,133.2,0,0,0,13.344.575,10.094,10.094,0,0,0,9.23-6.5,11.085,11.085,0,0,0,.771-3.333c5.3.2,14.375-.367,12.839-7.7-.662-3.165-3.959-4.44-6.684-5.342-2.055-.682-4.319-1.38-6.485-1.883,3.916-1.306,8.126-1.638,11.95-3.3,3.211-1.4,6.276-2.588,9.589-3.728a18.007,18.007,0,0,0,8.893-6.105C415,156.476,413.694,153.864,412.03,152.683Z" fill="#b54c36"/><path d="M343.95,92.785c4.865.372,8.276-2.922,10.55-6.878,2.091-3.64,3.67-8.178,3.236-12.415-.445-4.365-2.593-8.813-4.459-12.729-.854-1.792-1.682-3.571-2.516-5.348A80.8,80.8,0,0,0,346.938,47a51,51,0,0,0-3.578-5.953c-1.319-2.363-2.672-4.707-4.069-6.993a31.593,31.593,0,0,0-8.443-9.487c-4.547-3.206-10.081-4.181-15.25-6.027-10.84-3.869-21.7-7.906-33.009-10.238a28.607,28.607,0,0,0-7.246-.39c-3.18-.624-6.66-.759-9.738-1.129-8.32-1-16.879-1.09-25.251-1.253-6.787-.136-21.291,2.06-25.507,9.532a3.042,3.042,0,0,0-.492-.067c-4.57-.19-7.257,2.922-10.318,5.914-3.879,3.785-8.355,7.149-11.824,11.312-3.524,4.233-7.356,8.128-11.012,12.245-3.549,4-6.307,8.7-9.277,13.127-3.788,5.652-9.26,11.7-10.155,18.623-.981,7.593,9.3,6.257,13.055,1.844,13.356-8.905,26.8-17.862,39.141-28.131,2.109-1.753,4.446-3.938,6.787-5.625-.2.975-.475,1.936-.765,2.885-2.264,7.364-6.53,14.023-8.726,21.463-1.6,5.42-2.2,13.1,2.146,17.412,4.722,4.691,11.848,2.482,15.816-1.8a32.787,32.787,0,0,0,4.813-7.548c1.67-3.28,3.945-6.359,5.746-9.6,1.693-3.04,3.709-5.846,5.516-8.813.522-.858,1.634-3.148,2.7-4.747a20.783,20.783,0,0,1,.861,4.366c.59,3.713.95,7.226,2.339,10.751,2.356,5.98,4.981,11.991,10.771,15.363a12.49,12.49,0,0,0,8.864,1.637c3.534-.883,5.121-2.56,6.605-5.785,1.384-3,2.723-6.028,3.952-9.093a47.51,47.51,0,0,1,3.115-6.961,15.75,15.75,0,0,1,1.767,1.483c1.649,1.507,3.114,3.214,4.619,4.865,1.982,2.176,4.94,3.474,7.33,5.169,3.038,2.153,5.351,5.219,8.458,7.367,5.5,3.793,12.748,2.7,16.4-3.024a16.775,16.775,0,0,0,1.946-4.174,31.808,31.808,0,0,0,1.993,3.722,48.918,48.918,0,0,0,5.472,6.619C335.51,89.052,339.343,92.432,343.95,92.785Z" fill="#b54c36"/><path d="M335.09,136.494a11.118,11.118,0,0,0-.252-3.655c-2.192-8.311-7.505-15.169-16.9-12.928-6.122,1.458-10.8,6.79-12.289,12.776a15.894,15.894,0,0,0-2.562,10.175c.607,9.354,8.356,14.264,17.146,11.829a21.338,21.338,0,0,0,5.312-2.334,16.784,16.784,0,0,0,7.03-4.642A11.223,11.223,0,0,0,335.09,136.494Z" fill="#f7bfa7"/><path d="M158.671,133.576c-9.992,13.682,12.182,31.82,24.533,21.581v0c7.074-2.106,10.023-10.015,9.115-16.752C190.08,121.763,167.136,121.982,158.671,133.576Z" fill="#f7bfa7"/><path d="M309.27,301.883c-2.784-4.123-4.247-9.971-5.757-14.759-2.228-7.041-3.222-14.441-5.1-21.584a99.785,99.785,0,0,1-3.368-22.633c-.473-13.573-6.118-25.115-11.749-37.12-2.124-4.534-8.243-5.362-12.1-2.639-4.674,3.292-5.7,9.391-9.54,13.383-2.662,2.766-5.773,2.722-9.358,2.725-3.289,0-6.323.767-9.562,1.132a32.651,32.651,0,0,1-9.241.031c-2.8-.549-4.992-3.512-6.9-5.8a16.355,16.355,0,0,0-3.4-8.264c-2.12-2.624-6.108-.886-6.942,1.9a1.945,1.945,0,0,0-.693.853c-1.975,4.666-1.961,10.305-2.694,15.3-.858,5.818-1.983,11.58-2.557,17.436-.263,2.667-.024,6.463-1.14,8.9a14.927,14.927,0,0,0-1.24,5.763c-.21,5.048-1,10.224-1.516,15.272a321.094,321.094,0,0,0-2.1,32.534c0,3.512-.934,8.013.74,11.24,2.385,4.586,10.948,2.609,14.864,2.3,5.639-.447,11.218-.715,16.874-.712,5.385,0,10.553,1.18,15.948,1.18,2.813,0,5.65.11,8.458-.052,2.063-.116,4.04-.842,6.089-1.074,5.989-.679,11.748-.883,17.676-2.259,5.489-1.276,11.03-.246,16.584-.141,3.125.058,7.229.35,8.908-3.065C312.31,307.961,311.491,305.166,309.27,301.883Z" fill="#ede28d"/><path d="M275.232,276.186c-.674-1.723.06-3.592-.76-5.353a6.941,6.941,0,0,0-2.808-3.162,15.376,15.376,0,0,0-8.262-1.345c-7.409.447-14.72,1.751-22.1,2.424-2.443.221-4.976.182-7.427.215-1.414.022-2.823-.035-4.231-.152a5.209,5.209,0,0,1-.989-.168,3.2,3.2,0,0,0-2.46-2.071,1.25,1.25,0,0,0-.3-.483,6.075,6.075,0,0,0-2.587-1.629,2.688,2.688,0,0,0-3.275,1.859c-2.485,7.438-1.03,15.681,2.08,22.647,2.94,6.586,5.881,13.182,13.347,15.534,3.321,1.049,7.087.709,10.515.806a111.783,111.783,0,0,0,12.169.082c6.706-.539,13.687-3.142,16.414-9.738C276.784,290.27,277.308,281.46,275.232,276.186Z" fill="#edcc54"/><path d="M200.665,121.133c-.1-.246-.185-.434-.245-.585a3.311,3.311,0,0,0-.917-3.007l-.006-.019c-.1-.124-.194-.246-.288-.37a4.421,4.421,0,0,0-4.1-2.661,4.664,4.664,0,0,0-4.619,4.62,19.5,19.5,0,0,0,.263,3.3,8.627,8.627,0,0,0,2,3.764,4.269,4.269,0,0,0,4.315,1.14,6.076,6.076,0,0,0,3.1-2.353A4.747,4.747,0,0,0,200.665,121.133Z"/><path d="M289.64,118.738a4.83,4.83,0,0,0-.469-1.152,3.644,3.644,0,0,0-.519-.682,2.958,2.958,0,0,0-.6-.676,7.376,7.376,0,0,0-.892-.662,4.873,4.873,0,0,0-8.723,1.453,7.287,7.287,0,0,0,.409,4.446,7.928,7.928,0,0,0,1.583,2.726A5.57,5.57,0,0,0,283,125.8a5.232,5.232,0,0,0,5.987-2.429,6.876,6.876,0,0,0,.793-3.029A4.762,4.762,0,0,0,289.64,118.738Z"/><path d="M297.842,140.939a9.816,9.816,0,0,0-2.918,4.1c-.718,1.82-1.941,3.335-2.723,5.048-2.035,4.449-5.594,7.281-9.272,10.34-7.119,5.918-16.617,8.223-25.516,9.78-9.579,1.679-18.29,2.082-27.557-1.446-8.54-3.255-14.595-10.718-18.047-18.935-1.3-3.09-6.408-1.773-5.114,1.41,3.531,8.679,9.076,16.476,17.084,21.554,9.49,6.016,20.968,6.937,31.838,5.429,19.087-2.648,46.319-12.378,46.417-35.542A2.477,2.477,0,0,0,297.842,140.939Z"/><path d="M282.8,290.581a27.622,27.622,0,0,0-1.456-8.938c-1.442-4.318-.459-8.328-.781-12.732-.511-6.963-7.331-5.635-12.4-5.624-8.57.019-17.047,1.406-25.632,1.745-3.915.154-7.834.455-11.755.321a67.094,67.094,0,0,0-9.91-.078,2.083,2.083,0,0,0-3.462,1.5,78.721,78.721,0,0,0,2.142,19.778c.93,3.59,2.709,8.9,5.588,12.356,2.175,4.092,7.221,6.345,11.451,7.808,7.747,2.686,16.486,1.624,24.51,1.583,5.636-.031,11.323.368,16.432-2.457C282.739,302.957,282.891,295.77,282.8,290.581Zm-7.134,9.258c-1.994,3.642-10.374,2.447-13.712,2.394-6.6-.108-13.193.671-19.759-.342a24.312,24.312,0,0,1-8.919-3.238c-1.734-1.036-3.162-2.516-4.885-3.52-.4-.546-.784-1.1-1.129-1.66a36.293,36.293,0,0,1-3.529-8.076c-1.864-5.917-2.16-12.191-2.206-18.354,5.019,1.292,9.717,2.609,15.049,2.791a157.8,157.8,0,0,0,19.348-.43c6.089-.536,12.085-.585,18.191-.818,1.852-.071,1.082,1.673,1.063,3.016s-.2,2.7-.3,4.039c-.223,3.071.641,5.931,1.59,8.814C277.915,288.848,277.926,295.713,275.667,299.838Z"/><path d="M421.873,148.967c-11.428-2.515-23.478-2.472-34.6-6.566-9.549-3.51-19.086-8.49-26.31-15.78A24.915,24.915,0,0,0,372.347,116.4c4.065-7.623-1.224-16.558-7.24-21.277a22.95,22.95,0,0,0-12.086-4.83,2.917,2.917,0,0,0,.516-.574c12.365-18.254,7.471-43.359-5.525-59.8-11.784-14.9-30.452-22.555-48.563-26.3-22.357-4.627-47.29-5.36-69.4,1.006a59.978,59.978,0,0,0-19.46,9.457c-2.261,1.674-9.46,6.892-6.146,10.45a5.7,5.7,0,0,0,.936.787c1.337.963,2.984-1.195,1.753-2.273-1.855-1.631,8.861-7.576,10.293-8.339C224.28,11.05,232.23,9.2,239.856,8.024c19.762-3.037,40.6-1.786,60.041,2.543,15.727,3.5,30.842,10.3,41.651,22.556a47.319,47.319,0,0,1,11.222,24.06,46.845,46.845,0,0,1-.157,15.647c-.933,5.092-2.739,9.876-3.562,14.995a2.642,2.642,0,0,0,.782,2.41,22.1,22.1,0,0,0-6.745,1.417,14.018,14.018,0,0,0-4.042,2.41A135.564,135.564,0,0,0,328.49,73.836a2.5,2.5,0,0,0-.8-.786,26.187,26.187,0,0,0-3.622-10.385c-1.209-1.859-4.915-1.991-5.291.693-.635,4.476-.124,8.518.017,13.013.1,3.4-.083,8.748-3.916,10.139-2.875,1.043-6.87-.48-9.5-1.605a34.169,34.169,0,0,1-9.191-6.055c-2.458-2.171-5.469-4.526-7.417-7.17-1.775-2.4-3.159-5.058-5.933-6.458a4.355,4.355,0,0,0-5.08.654c-1.844,1.54-2.157,3.945-2.259,6.2a28.842,28.842,0,0,1-1.256,8.218c-.63,2.008-1.635,5.205-4.057,5.4-2.864.232-5.255-1.6-7.218-3.419a33.652,33.652,0,0,1-5.812-7.565c-.822-1.378-1.529-2.827-2.228-4.271-.585-1.214-2.211-3.745-2.27-5.019-.2-4.25-1.2-9.554-5.765-10.951-2.761-.844-4.722,1.446-6.179,3.365-2.021,2.662-4.047,5.282-5.864,8.093C230.6,72.516,226.721,79.8,220,84.225c-7.875,5.191-9.1-4.658-9.143-10.112-.067-7.883,3.3-14.383,6.033-21.528,1.115-2.913-2.135-5.334-4.741-4.738-4,.909-5.795,4.867-8.476,7.538-4.073,4.058-8.954,7.717-13.326,11.489-4.534,3.905-9.192,7.82-13.944,11.458-3.879,2.973-10.167,7.941-15.446,6.922-1.507-.293,1.239-9.94,1.48-10.729,1.674-5.5,5.316-10.086,8.269-14.918,6.34-10.38,14.659-19.532,22.758-28.542a1.007,1.007,0,0,0-1.425-1.422c-5.116,4.6-10.424,9.145-15.169,14.137a177.276,177.276,0,0,0-12.383,15.267c-3.824,5.036-7.2,10.194-9.184,16.241-1.3,3.968-3.139,9.89-.649,13.762a8.427,8.427,0,0,0,5.221,3.852,64.778,64.778,0,0,0-9.405,15.369c-2.255-3.625-6.307-6.836-10.244-6.822-7.323.031-10.658,5.442-12.251,11.883-1.67,6.76-1.267,14.015,3.719,19.206,3.291,3.424,7.748,4.689,12.248,4.669-.1,2.439-.1,4.879.019,7.3a59.456,59.456,0,0,0,20.12,42.165c12.511,11.157,28.205,17.707,44.755,20.924-.21.466-.431.933-.7,1.4-1.478,2.574-4.335,3.592-6.171,5.726-3.818,4.437-9.057,6.833-14.41,8.9-10.851,4.2-21.584,8.733-33.087,10.973-6.21,1.209-12.571,1.336-18.873,1.436a66.236,66.236,0,0,1-17.5-1.638c-5.744-1.464-11.006-4.892-15.631-8.5-3.223-2.515-7.021-4.707-9.553-7.947a3.64,3.64,0,0,0,.963-4.388c-.036-.06-.074-.125-.111-.191,1.852-2.107-.009-5.876-1.094-8.013a35.274,35.274,0,0,0-6.963-8.706c-1.065-3.807-2.118-7.618-3.128-11.445-1.381-5.24-2.965-10.41-4.611-15.557a36.114,36.114,0,0,0,5.839,3.437c5.8,2.819,11.431,5.936,17.519,8.134a40.508,40.508,0,0,0,15.139,2.325,17.684,17.684,0,0,0-4.649,9.4,3.89,3.89,0,0,0,1.966,3.427c3.819,2.294,7.966,1.535,12.122.768,3.866-.715,4.551,1.549,5.385,4.832,1.408,5.519,2.5,12.02,9.529,12.194,5.494.138,10.776-4.567,14.636-7.891,3.846-3.307,7.786-7.245,10.255-11.7a3.261,3.261,0,0,0-4.432-4.432c-3.783,2.159-6.875,5.68-10.039,8.643-2.61,2.447-7.008,6.877-10.5,7.143-.027-.041-.042-.069-.074-.119a15.531,15.531,0,0,1-.994-3.639c-.812-2.919-1.381-5.848-2.987-8.472a10.209,10.209,0,0,0-8.113-4.721c-2.087-.1-4.851.87-7.309,1.085a44.363,44.363,0,0,1,4.413-4.566c3.233-3.035,6.876-5.644,10.112-8.681,3.689-3.463-1.682-8.548-5.453-5.453-7.736,6.346-19.623,5.284-28.346,2.117-4.722-1.714-8.9-4.509-13.475-6.5-.657-.285-1.342-.591-2.027-.922,3.843-.009,7.684-.011,11.524-.085,7.331-.14,14.963-.843,21.921-3.27,10.465-3.65,20.748-11.423,22.338-23.019.082-.6-.767-1.116-1.075-.455-5.161,11.037-18.025,16.454-29.389,18.4-7.773,1.333-15.895.956-23.748.931-.636,0-4.482.262-4.517.237a7.656,7.656,0,0,0-2.888-.967,7.481,7.481,0,0,0-6.152,1.151c-.977-3-1.95-6-2.886-9.015-1.692-5.431-3.095-10.932-4.528-16.435-1.5-5.743-3.793-11.208-5.329-16.925-1.149-4.271-1.867-9.07-4.2-12.878a6.267,6.267,0,0,0-2.551-2.408c-4.231-5.931-7.6-12.637-11.566-18.74-4.835-7.421-8.629-15.644-12.92-23.4-3-5.407-5.7-11.014-8.626-16.476-.271-.35-.544-.695-.815-1.033A93.883,93.883,0,0,1,14.6,32.584a86.677,86.677,0,0,1-4.915-8.866,3.2,3.2,0,0,0-1.438.017,5.189,5.189,0,0,0-.864-.083,1.075,1.075,0,0,0-1.152,1.19.867.867,0,0,0-.542.8C5.367,33.631,4.5,41.6,4.14,49.6S3.494,65.574,2.984,73.552C2.464,81.729,1.592,89.9.915,98.061c-.47,5.679-2.2,13.367.851,18.572a2.78,2.78,0,0,0,1,1.013c2.267,10.631,5.382,21.065,8.322,31.522q5.134,18.24,9.832,36.584c6.241,24.544,13.039,48.828,21.49,72.717,7.54,21.311,16.142,42.229,25.579,62.766q.515,1.822,1.06,3.639c3.278,10.834,14.783,40.453,15.575,43.138,1.69,5.744,4.678,10.939,6.525,16.594,1.468,4.484,4.733,6.193,9.321,5.981a148.933,148.933,0,0,0,17.473-2.261,33.317,33.317,0,0,0,15.525-7.319c4.41-3.81,4.481-8.355,4.214-13.83a45.127,45.127,0,0,0-3.539-15.548c-1.029-2.436-2.215-4.8-3.329-7.2a22.831,22.831,0,0,0-2.369-4.716,37.551,37.551,0,0,0-1.209-5.807c-.826-3.343-1.714-6.671-2.61-9.995-1.8-6.681-3.8-13.306-5.747-19.947-1.9-6.466-3.713-12.923-6.022-19.256-.709-1.949-1.513-3.858-2.361-5.748-.1-.917-.185-1.839-.263-2.761-.086-.243-.165-.489-.256-.734-2.163-5.962-4.5-11.861-6.467-17.89-3.659-11.222-6.978-22.551-10.161-33.915a69.331,69.331,0,0,0,5.08,4.725c4.727,4.1,9.255,7.852,15.024,10.443,11.748,5.279,26.648,4.206,39.112,2.949,13.213-1.333,25.794-6.923,38.06-11.583,5.751-2.184,11.291-4.943,15.67-9.383,1-1.021,2.093-1.932,3.173-2.852-.945,2.758-1.892,5.512-2.817,8.273a210.624,210.624,0,0,0-7.29,29.705,284.381,284.381,0,0,0-3.4,29.586c-.685,9.369-1.036,18.626.16,27.906-2.6,1.218-2.151,5.945,1.353,5.945a3.283,3.283,0,0,0,.944-.147,3.544,3.544,0,0,0,1.149.21,3.178,3.178,0,0,0,.267.406,27.4,27.4,0,0,0-1.148,5.6c-.519,3.982-3.15,9.916-1.039,13.621a1.6,1.6,0,0,0,2.468.356,77.933,77.933,0,0,0,24.944,4.608q1.608.061,3.228.114a69.066,69.066,0,0,0,.168,15.663c-1.729-.246-3.571-.331-5.475-.644a125.083,125.083,0,0,0-20.509-1.488c-7.789,0-24.836-2.687-27.3,8-1.1,4.79,2.947,8.694,6.348,11.3,4.95,3.793,12.093,5.82,18.061,7.188,9.838,2.256,28.122,1.53,33.15-9.238a2.648,2.648,0,0,0-3.592-3.595c-3.186,1.458-5.821,3.714-9.012,5.15-4.555,2.058-10.58,1.615-15.448,1.486-4.9-.129-9.769-2.273-14.284-3.974-3.122-1.177-7.48-3.242-8.6-6.671-1.264-3.879,19.421-2.938,20.673-2.938a115.4,115.4,0,0,1,16.037.814,42.619,42.619,0,0,0,5.777.746c1.759.006,4.519-.194,5.585,1.525,2.112,3.409,6.969,1.112,6.245-2.637-1.325-6.839-2.248-13.71-3.372-20.573a142.022,142.022,0,0,0,20.208-.845c8.651-1.09,17.48-1.651,26.021-3.35.276-.057.558-.11.834-.163-.384,2.074-.6,4.144-.812,6.263-.339,3.448.889,7.076,1.311,10.509a59.942,59.942,0,0,1,.872,8.258,11.929,11.929,0,0,0,1.108,5.594,2.258,2.258,0,0,0-2.3,2.927c1.384,5.522,7.489,8.239,12.234,10.426,6.473,2.987,12.643,3.042,19.621,2.084,8.745-1.2,29.36-7.229,20.005-19.853-3.427-4.628-9.545-4.329-14.752-4.148-6.988.24-13.845.662-20.786,1.549-2.675.343-5.014,1.424-7.62,2a3.141,3.141,0,0,0-.5.155c-.149-1.315-.215-2.585-.437-3.907a107.457,107.457,0,0,0-2.681-11.849c-1.01-3.532-1.234-7.085-1.961-10.653,3.167-.611,6.328-1.228,9.471-1.986,2.937-.709,6.442-1.4,8.882-3.281,4.8-.376,9.656-.463,13.326-4.007a4.977,4.977,0,0,0,1.325-2.637c.312-1.557-.411-2-.884-3.294-.9-2.451-2.057-4.8-3.081-7.2,2.567-.742,4.722-2.259,4.91-5.309a3.185,3.185,0,0,0-2.971-3.264,242.635,242.635,0,0,0-5.862-23.555,18.726,18.726,0,0,0,.735-2.228c.359-1.37.234-2.839.605-4.186.575-2.082-.839-4.58-.138-6.494a1.229,1.229,0,0,0,.044-.151,72.739,72.739,0,0,0,7.773-5.682,63.11,63.11,0,0,0,9.769-8.785c5.52-6.4,4.664-14.686,1.215-21.871-3.49-7.279-12.118-12.658-18.143-17.627-3.51-2.894-6.7-6.146-9.954-9.318q-2.719-2.646-5.509-5.2c-.985-.9-2.311-1.748-3.39-2.7q8.429-2.914,16.631-6.533c12.549-5.542,24.844-12.5,32.872-23.944,9.136-13.024,8.816-30.381,6.745-45.453a120.253,120.253,0,0,0-5.889-23.928,13.827,13.827,0,0,1,6.635-2.752,16.139,16.139,0,0,1,12.983,4.337c3.888,3.531,5.8,8.755,1.91,12.966-3.336,3.612-8.643,4.192-11.984,7.574-1.507,1.522-.627,3.675,1.159,4.39a9.28,9.28,0,0,0,3.708.63,2.493,2.493,0,0,0,.684,1.784c12.332,13.635,30.585,20.546,48.218,23.809,3.85.713,7.831,1.571,11.763,2.027-.865.582-1.768,1.1-2.671,1.623a57.361,57.361,0,0,1-7,3.332c-2.1.847-4.359,1.419-6.511,2.1-2.609.828-5.655,2.245-8.388,2.465-3.4.273-7.435.947-10.4,2.742-1.986,1.2-2.668,4.341-.771,5.992,4.083,3.543,10.219,4.062,14.9,6.731a17.686,17.686,0,0,1-4.424.716c-3.913.394-8.347-.619-11.873,1.386-4.86,2.758.53,6.5.815,9.578.13,1.424-5.727,2.518-6.64,2.715a38.65,38.65,0,0,1-8.54.583,31.146,31.146,0,0,1-14.49-3.987,33.966,33.966,0,0,1-6.47-4.918c-1.748-1.6-3.78-2.8-5.346-4.515-1.858-2.038-4.421.552-3.509,2.708,1.145,2.7,1.649,4.736,3.615,7.049a31.679,31.679,0,0,0,7.874,6.243,39.285,39.285,0,0,0,18.326,5.119c6.281.314,13.8-.779,19.011-4.5a8.459,8.459,0,0,0,3.51-6.5,5.644,5.644,0,0,0-.709-3.175c.13,0,.257,0,.389,0,1.044.011,2.087-.006,3.133-.041a29.356,29.356,0,0,0,7.408-1.1c3.913-1.16,7.943-4.891,6.311-9.332-1.35-3.672-5.23-5.323-8.574-6.734.456-.1.9-.212,1.323-.34a123.5,123.5,0,0,0,16.185-5.757c3.855-1.779,9.145-4.208,11.476-7.968C426.549,154.528,426.058,149.889,421.873,148.967ZM148.409,113.43a80.127,80.127,0,0,0-4.1,18.641,28.426,28.426,0,0,1-5.942-1.827c-4.664-2.156-5.646-6.5-5.738-11.216-.085-4.368.69-10.18,4.741-12.583,3.579-2.124,8.926.188,11.538,3.449A3.4,3.4,0,0,0,148.409,113.43ZM7.166,95C7.706,87.368,8.447,79.723,8.7,72.079q.341-10.263.2-20.526a31.154,31.154,0,0,0,7.685-.611,7.277,7.277,0,0,0,3.09-1.165c2.714,5.367,5.68,10.616,8.549,15.883,3.775,6.933,7.146,14.134,11.412,20.782,3.374,5.262,6.249,11,9.72,16.224-.118.141-.238.279-.354.436-1.747,2.4-2.889,5.263-4.885,7.482.64-.713-2.78-3.272-3.514-3.993a7.647,7.647,0,0,0-5.254-2.56c-3.672-.144-5.426,4.947-6.855,7.438C24.7,118.063,23.5,109.2,20.715,107c-4.526-3.581-7.428.953-8.747,5.034-.646,2-1.152,4.014-1.8,5.994a1.659,1.659,0,0,0-.572-.422c-.718-.731-1.391-1.779-2.088-2.56a5.473,5.473,0,0,0-.466-.445c-.008-.061-.013-.122-.027-.187C5.461,108.247,6.722,101.265,7.166,95ZM92,325.223c-4.417-9.749-6.46-20.239-9.539-30.428-6.309-20.874-11.7-42.077-16.766-63.3-1.182-4.951-2.385-9.855-3.3-14.861-.909-4.956-2.894-9.114-4.744-13.732a33.85,33.85,0,0,1-1.587-6.209,42.132,42.132,0,0,0-2.275-6.552c-.853-2.284-1.237-4.838-2.068-7.166-.916-2.579-1.869-5.133-2.656-7.756-3.057-10.153-7.443-19.858-10.619-29.98A241.331,241.331,0,0,0,28,119.027a6.17,6.17,0,0,0,1.877-.958,14.061,14.061,0,0,0,3.2-3.92c.539-.85,1.06-1.674,1.529-2.563.93-1.748,1.344-1.5,2.441-.21,1.754,2.058,4.321,5.011,7.283,5.367a34.9,34.9,0,0,0,1.566,10.478c1.391,5.084,2.675,10.183,3.927,15.3a127.1,127.1,0,0,0,4.423,14.686c1.712,4.581,1.834,9.661,3.692,14.171,3.871,9.405,4.9,19.871,7.653,29.632,1.232,4.377,3.156,8.549,4.431,12.928,1.48,5.086,2.642,10.133,4.576,15.095.847,2.175.9,5.119,1.4,7.424.6,2.762,1.226,5.509,1.717,8.291.876,4.968,2.74,9.575,4.283,14.357,3.125,9.676,5.58,19.673,8.024,29.533,2.269,9.159,6.536,17.81,8.567,26.951a18.68,18.68,0,0,0,1.554,5.152c1.223,2.123,2.614,3.862,3.283,6.274.734,2.637.843,5.111,2.126,7.583.773,1.5,1.615,2.96,2.449,4.429-3.006.76-5.356,2.364-8.46,3.641a2.56,2.56,0,0,0-1.184-.61,11.1,11.1,0,0,1-.82-1.557,13.972,13.972,0,0,1-1.17-3.819c-.151-1.684-1.309-3.361-1.9-4.929C93.642,329.58,92.955,327.341,92,325.223Zm1.667,19.626c-.949.373-1.935.778-2.908,1.22a.377.377,0,0,0-.03-.039c-1.7-1.839-2.14-3.821-3.12-6.1a116.93,116.93,0,0,1-4.719-13.837c-1.46-5.113-2.548-10.288-4.288-15.322-1.615-4.666-3.745-9.07-5-13.863-1.334-5.091-2.168-10.3-4.111-15.209a131.436,131.436,0,0,1-5.03-14.4,262.652,262.652,0,0,0-9.836-29.779,111.022,111.022,0,0,1-3.793-12.945c-1.236-4.606-3.369-8.946-4.768-13.508-3.109-10.141-7.5-19.861-10.967-29.876q-10.317-29.759-21.176-59.337c1.469-2.6,2.043-5.646,2.888-8.477a13.683,13.683,0,0,1,.809-2.093,2.245,2.245,0,0,0,.135.318,26.575,26.575,0,0,0,3.322,5.254,7.116,7.116,0,0,0,4.424,2.4c3.46,9.421,7.355,18.655,10.224,28.282C38.871,158.1,43.269,168.3,46.675,178.8c1.414,4.365,2.648,8.979,4.238,13.253,1.637,4.395,2.2,9.032,4.108,13.353,4.586,10.413,5.8,21.829,8.835,32.772,3.015,10.885,5.248,22.007,8.264,32.9,2.907,10.495,5.428,21.21,7.955,31.8,2.482,10.4,6.047,20.142,9.5,30.224,1.019,2.968,1.856,5.84,2.907,8.8A25.947,25.947,0,0,0,93.662,344.849Zm-18.82-20.816c-1.022-2.418-1.953-4.876-2.857-7.344-.058-.4-.121-.8-.174-1.209-.271-.729-.546-1.456-.812-2.185-2.944-8.077-6-16.128-8.885-24.226-.975-2.737-1.874-5.523-2.574-8.338-3.39-8.026-6.663-16.108-9.7-24.312-8.794-23.76-16.156-47.925-23.309-72.218-6.368-21.625-14.164-42.789-20.8-64.315.329.455.644.891.928,1.295,1.485,2.146,4.827,3.689,6.737,1.444,6,19.867,12.521,39.581,18.9,59.329,3.26,10.078,7.3,19.9,10.31,30.058,1.356,4.576,3.173,8.994,4.467,13.59.731,2.588.98,5.274,1.707,7.869.737,2.631,1.809,5.177,2.761,7.736a246.5,246.5,0,0,1,8.867,30.276,102.6,102.6,0,0,0,4.871,14.073c1.932,4.934,2.5,10.6,3.913,15.711,1.278,4.625,3.576,9,5.094,13.565,1.7,5.1,2.762,10.367,4.415,15.473,1.862,5.762,3.592,13.421,7.783,18.074a14.259,14.259,0,0,0-1.786,1.4C82.1,341.009,78.344,332.331,74.842,324.033Zm52.834,28.1a47.548,47.548,0,0,1,2.943,8.566c.85,3.805,2.237,10.859-.5,14.135-3.227,3.865-9.335,5.773-13.985,6.945a91.367,91.367,0,0,1-13.685,1.933c-1.587.151-4.249,1.022-4.912-.876-.718-2.063-1.765-3.981-2.664-5.967-2.277-5.022-4.228-10.141-6.376-15.214-.165-.392-.32-.795-.467-1.2,4.965-.2,10.014-2.328,14.7-3.606,6.317-1.722,12.807-2.521,19.267-3.476C124.012,353.077,126.139,353.017,127.676,352.136Zm-3.009-6.79c.058.144.116.292.175.436a9.334,9.334,0,0,1,.461,2.684c.02.31-1.974.238-2.233.31a71.738,71.738,0,0,1-7.289,1.306,142.863,142.863,0,0,0-15.506,3.328c-4.366,1.262-8.653,3.5-13.021,4.725-.4-1.261-.8-2.527-1.293-3.742-.058-.238-.116-.48-.177-.72,4.94-3.272,11.509-4.1,16.823-6.475,1.472-.657,2.883-1.4,4.3-2.17,1.779-.963,4.287-.743,6.248-.76,3.553-.022,7.046.732,10.586.8A2.689,2.689,0,0,0,124.667,345.346Zm-19.98-65.264c.583,1.634,1.156,3.27,1.667,4.925,1.983,6.4,3.515,12.934,5.238,19.4q2.676,10.047,5.331,20.1,1.317,4.99,2.534,10.006c.371,1.524.651,3.02,1.028,4.467-2.1-.176-4.2-.336-6.3-.39a2.361,2.361,0,0,0-.955-.966q-1.214-2.232-2.473-4.443c-1.372-2.435-1.737-4.874-2.258-7.565a15.082,15.082,0,0,0-2.215-5.092,18.782,18.782,0,0,1-2.565-6.35c-2.065-9.159-6.092-17.846-8.443-26.985-2.538-9.874-4.893-19.816-7.787-29.6-1.43-4.821-3.484-9.349-4.329-14.342-.891-5.268-2.338-10.421-3.164-15.7-.323-2.038-1.618-4.3-2.27-6.281a62.631,62.631,0,0,1-1.678-6.282,86.8,86.8,0,0,0-4.263-12.8c-3.7-9.51-4.421-19.955-7.651-29.61-1.571-4.685-2.708-9.308-3.885-14.117-1.2-4.9-3.391-9.507-4.646-14.427-1.325-5.174-2.383-10.517-4.156-15.558-1.453-4.137-2.772-8.269-3.805-12.517,2.17-1.369,3.733-4.142,4.937-6.138a6.336,6.336,0,0,0,.3-.6c.478,1.344.776,2.819,1.135,4.072,1.6,5.566,3.379,11.015,5.069,16.553C62.586,141.3,65.355,152.906,69.14,164.3c3.929,11.842,7.082,23.832,10.232,35.9.547,2.1,1.119,4.2,1.7,6.3a2.565,2.565,0,0,0-.727,3.587,7.877,7.877,0,0,0,2.37,2.242c2.325,8.087,4.785,16.139,7.141,24.215C94.077,251.029,98.174,266.256,104.687,280.082Zm187.607,91.825c5.4-2.129,12.047-2.215,17.788-2.469,4.848-.212,10.326-.854,15.065.307,3.016.743.672,3.785-.536,4.68-2.308,1.712-5.291,2.261-8.013,2.965-5.679,1.468-11.773,2.36-17.588,1.209-2.667-.527-5.564-2.275-7.941-3.571-1.025-.555-2.223-1.127-3.409-1.729A20.493,20.493,0,0,0,292.293,371.908Zm12.091-44.847a21.889,21.889,0,0,0-6.712,1.845c-2.316.453-4.663,1.538-6.826,2.079-4.043,1.014-8.107,1.761-12.191,2.567-8.924,1.764-18.09,2.534-27.123,3.714-8.679,1.133-17.737,1.011-26.479.944-4.587-.033-9.434.24-13.954-.564-3.17-.564-6.434-1.25-9.622-.79.781-2.441.837-5.384,1.132-7.767.235-1.924.279-4.015.406-5.955a18.923,18.923,0,0,0-.149-2.251,2.8,2.8,0,0,0,1.488-.822c1.841.4,3.75.673,5.552,1.043a91.759,91.759,0,0,0,16.4,1.952c12.37.277,24.706.8,37.079.376,11.464-.4,22.766-1.013,34.158-2.367a37.763,37.763,0,0,0,7.438-1.648,22.068,22.068,0,0,0,2.963-1.435,20.917,20.917,0,0,0,.365,3.495,34.57,34.57,0,0,0,.923,4.813C308.059,327.06,305.333,326.932,304.384,327.06Zm4.437-16.76c-2.215.268-3.675,1.436-5.738,2.234-4.653,1.8-9.786,1.8-14.645,2.711-5.357,1.007-10.854.376-16.238.9s-10.816.748-16.23.892c-10.857.288-21.724.154-32.582.342a110.672,110.672,0,0,1-15.589-1.173c-1.058-.132-2.123-.212-3.194-.287A2.729,2.729,0,0,0,203,314.817a260.92,260.92,0,0,1,2.319-54.121c1.254-8.759,3.046-17.429,4.763-26.107.844-4.255,1.947-8.452,2.963-12.668q.884-3.662,1.587-7.355c.212-1.1.329-2.41.66-3.619.027-.067.061-.129.089-.194a3.608,3.608,0,0,0,.152-.557,5.11,5.11,0,0,1,.745-1.364q4.257.571,8.549.876c-.854,3.272.47,7.629,1.7,10.225,2.985,6.317,10.89,8.462,17.285,8.744,6.848.306,13.607-5.713,17.95-10.293,3.2-3.377,7.527-7.449,8.4-11.945,4.671-1,9.286-2.214,13.852-3.6a72.041,72.041,0,0,0,1.635,7.971c1.184,4.909,2.289,9.838,3.4,14.763,2.281,10.081,4.427,20.19,6.706,30.271.842,3.722,1.425,7.521,1.969,11.329a17.245,17.245,0,0,1-2.193,1.609,12.9,12.9,0,0,0-3.407,3.553c-2.559,3.7,3.628,7.37,6.053,3.542a5.772,5.772,0,0,1,.679-.869c.052.329.107.657.163.986a2.924,2.924,0,0,0-.851,1.17,7.416,7.416,0,0,1-2.5,2.982,1.082,1.082,0,0,0,.219,1.7,3.784,3.784,0,0,0,4.1-.535c.183.887.383,1.767.593,2.648-2.969,2.24-1.1,6.836,1.85,6.7l3.09,10.848c.95,3.344,1.634,6.1,3.349,8.783A.523.523,0,0,0,308.821,310.3Zm-79.035-99.962a3.23,3.23,0,0,0,.287-.339,164.855,164.855,0,0,0,28.243-1.461c.82-.114,1.643-.238,2.461-.364-.974,1.118-2.1,2.132-3.032,3.241a39.238,39.238,0,0,1-9.38,8.383c-4.158,2.563-9.31,2.206-13.615.129a8.1,8.1,0,0,1-3.968-4.4C230.318,214.523,228.747,211.348,229.786,210.338Zm68.5,4.177c5.657,5.807,11.93,10.766,17.858,16.268,5.7,5.291,12.166,14.228,6.219,21.771-2.61,3.31-6.306,5.972-9.666,8.457-1.8,1.329-3.813,2.563-5.657,3.97a3.057,3.057,0,0,0-2.864-1.958c-.434-2.541-.923-5.07-1.552-7.563-2.4-9.506-4.642-19.054-7.211-28.517-1.318-4.865-2.742-9.689-4.421-14.438-1.1-3.117-2.637-6.317-3.437-9.595a10.119,10.119,0,0,0,1.908,2.333C292.524,208.187,295.318,211.468,298.285,214.515Zm41.668-69.849c-.582,10.238-4.33,19.359-11.624,26.59-6.554,6.5-15.292,10.774-23.594,14.574-34.8,15.92-76.089,21.521-112.506,7.745-16.454-6.224-31.4-17.886-37.656-34.768-4.156-11.213-4.3-24.105-2.182-35.746a82.245,82.245,0,0,1,6.009-19.077A51.263,51.263,0,0,1,166,92.641c7.386-1.933,15.636-8.629,19.573-11.832,5.65-4.592,11.243-9.213,16.649-14.092.641-.577,1.292-1.135,1.949-1.687a49.063,49.063,0,0,0-1.314,10.083c-.118,6.483,1.275,15.664,8.416,18.218,9.071,3.248,17.111-3.714,22.459-10.329a123.931,123.931,0,0,0,7.919-11.592c.963-1.515,1.954-3.013,2.949-4.5.668,3.046,2.338,6.136,3.612,8.869,3.045,6.53,7.961,13.77,14.642,16.953,5.556,2.648,13.369,2.455,16.867-3.41A34.167,34.167,0,0,0,283.6,79.25c.053-.231.1-.456.154-.682.514.542,1.039,1.072,1.566,1.607,3.289,3.33,6.665,6.862,10.583,9.456,6.379,4.221,15.7,8.138,23.216,4.805,4.072-1.8,6.579-5.373,7.852-9.6,3.165,8.618,6.613,17.138,9.2,25.955A101.123,101.123,0,0,1,339.953,144.665Z"/></g></g></svg>