<svg xmlns="http://www.w3.org/2000/svg" viewBox="0 0 319.624 466.063"><title>atr3</title><g id="Capa_2" data-name="Capa 2"><g id="Objects"><path d="M60.589,98.476c6.435-.146,11.813,5.851,16.139,10.1.894.88,1.856,1.842,2.773,2.865.758-1.761,1.617-3.521,2.611-5.318C88.628,94.34,98.59,82.98,113.181,85.139c4.175.618,6.94,4.678,8.258,8.258.238.643.442,1.293.621,1.953a11.087,11.087,0,0,1,3.753-.286,20.374,20.374,0,0,1,13.643,7.114,14.554,14.554,0,0,1,4.654,1.779c2.936-1.908,6.506-3.28,9.985-1.85a34.389,34.389,0,0,1,6.7,3.679c2.119-6.937,11.218-10.658,17.677-6.75.528.319,1.049.666,1.567,1.015a12.494,12.494,0,0,1,4.2-2.215c6-1.839,11.4-.079,15.612,3.7-2.907-6.06-4.7-12.368-2.553-18.952,3.04-9.323,13.007-10.954,20.178-5.328,1.362,1.068,2.67,2.193,3.953,3.34a10.908,10.908,0,0,1,11.061,3.147c1.121,1.289,2.186,2.625,3.225,3.982,11.7,4.792,19.116,20.275,23.4,35.411.148.269.288.539.434.808.043-.069.082-.138.129-.2a16.481,16.481,0,0,1,10.923-7.369c5.965-.933,11.137,1.446,13.106,7.44,3.084,9.393.6,18.584-5.494,26.063a24.415,24.415,0,0,1-12.048,8.241,19.213,19.213,0,0,1-2.715.515c-1.4,10.547-6.145,20.674-14.2,27.675-5.013,4.357-10.9,5.795-16.258,9.348-7.162,4.746-14.527,5.965-22.979,6.721-.331.029-.666.048-1,.072-18.254,6.044-40.54,5.132-58.121,5.09-15.453-.037-31.338-2.418-45.242-9.4C90.612,190.58,82.157,170.518,77.06,155.6c-2.278-6.675-2.489-14.828-2-22.384a5.876,5.876,0,0,1-.821-.512,61.427,61.427,0,0,0-5.667-3.89c-2.389-1.417-4.194-3.983-6.16-5.922-4.511-4.448-10.7-8.636-10.638-15.606A8.923,8.923,0,0,1,60.589,98.476Z" fill="#ffeccb"/><path d="M221.926,167.009c1.334-10.619,10.318-20.7,21.874-19.5,7.569.792,15.431,6.576,18.085,14.084a9.907,9.907,0,0,1,3.454,8.044c-1.052,11.409-10.249,21.389-22.416,19.995C231.527,188.331,220.338,179.654,221.926,167.009Z" fill="#f9bea0"/><path d="M84.932,164.641a11.225,11.225,0,0,0,13.539,1.749,17.058,17.058,0,0,0,6.021-5.909,11.732,11.732,0,0,0,3.784-6.895c1.211-6.752-.775-14.638-6.165-19.231a15.3,15.3,0,0,0-21.124.664C72.639,143.261,78.07,157.305,84.932,164.641Z" fill="#f9bea0"/><path d="M92.237,61.98a15.337,15.337,0,0,1-.507-1.454c-1.747-6.469,2.576-11.005,7.63-12.17-2.871-8,4.154-17.749,11.721-19.845a31.673,31.673,0,0,1,7.2-1.078c.014-.051.021-.106.035-.159,2.247-8.851,11.607-15.376,20.807-12.855a24.362,24.362,0,0,1,5.733,2.41c.161-.1.312-.212.478-.314,5.962-3.555,13.182-4.622,20.31-3.806,8.462-2.463,17.94-.775,24.613,6.416a27.978,27.978,0,0,1,6.768,13.344,28.527,28.527,0,0,1,11.092-1.38c7.879.6,16.843,1.932,23.655,6.1,10.053,6.152,13.52,18.214,11.221,29.013a11.468,11.468,0,0,1-5.2,11.533,25.259,25.259,0,0,1-5.677,5.492c-7.455,5.193-18.283,6.839-28.357,5.307-.932.261-1.874.473-2.815.637a16.58,16.58,0,0,1-5.907,6.985,13.607,13.607,0,0,1-10.794,2.051,36.592,36.592,0,0,1-12.165.584c-9.532-1.028-16.41-5.341-22.6-11.042a15.724,15.724,0,0,1-9.791,4.152c-9.363.494-16.352-7.509-18.478-15.991a11.91,11.91,0,0,1-4.1,6.216c-3.124,2.5-6.528,3.378-9.82,2.421-8.146,2.82-16.94-4.738-17.528-13.727A14.1,14.1,0,0,1,92.237,61.98Z" fill="#f9953d"/><path d="M131.053,167.49c.767-6.308,7.439-11.322,14.063-7.575,7.854,4.44,18.706,4.961,27.432,7.464,3.192.914,6.99.973,10.6,1.036a4.325,4.325,0,0,0,.431-.219c3.946-2.6,7.7-1.98,10.317.17,1.958-.191,3.9-.415,6.052-.426a5.987,5.987,0,0,1,3.229,11.181,25.656,25.656,0,0,1-2.769,1.384,6.491,6.491,0,0,1-1.663.516,37.447,37.447,0,0,1-3.562,1.361,10.672,10.672,0,0,1-1.77,1.6,19.46,19.46,0,0,1-9.705,3.206,29.651,29.651,0,0,1-6.366,5.341c-3.142,1.728-7.008,1.224-10.487,1.2a58.012,58.012,0,0,1-14.643-1.721C140.4,188.88,129.544,179.929,131.053,167.49Z" fill="#f28e7e"/><path d="M227.869,288.443a347.069,347.069,0,0,1-24.174-47.1,14.911,14.911,0,0,0-7.283-8.064,27,27,0,0,0-3.99-7.139c-5.391-6.893-13.708-6.052-20.719-3.1-4.857-.973-10.178-3.486-14.7-4.9-7.048-2.2-13.639-3.879-20.561-6.539-8.51-3.269-17.781,6.649-15.58,14.852a13.788,13.788,0,0,0,.148,4.5c-5.043,7.028-2.88,17.718-2.872,25.884.01,9.705-.618,19.359-1.06,29.024-.306,4.469-.4,8.854-.41,12.95a11.054,11.054,0,0,0,3.605,8.6c-.511,6.89.718,13.206,8.2,17.619,4.509,2.658,9.881,3.142,14.969,2.756,1.039-.077,2.074-.124,3.111-.177,4.77,1.66,10.54,1.422,15.091.983,8.073-.78,12.366-1.71,20.974-2.468,9.493-.838,21.518-.076,30.086-4.794a46.993,46.993,0,0,0,4.54-2.886c1.527-1.079,4.736-1.671,1.182-1.671,5.421,0,8.682-2.042,12.036-5.114C241.393,308.08,240.529,289.67,227.869,288.443Z" fill="#60b4c4"/><path d="M257.675,324.637c-1.116-8.14-10.788-9.255-16.431-5.223a16.857,16.857,0,0,0-7.265-5.695c-5.96-2.363-12.353,1.271-16.816,4.018-6.382,3.929-14.49,4.858-21.7,6.277a154.1,154.1,0,0,1-23.614,2.889c-6.586.262-12.451-1.726-18.655,1.549a9.38,9.38,0,0,0-2.843,2.286,10.85,10.85,0,0,0-10.7-1.541c-7.665-5.431-19.979.909-17.136,11.692.666,2.523,1.451,5.008,2.312,7.465.338,3.619.827,7.236.88,10.873.092,6.494.9,13.259,5.951,17.873,5.56,5.085,16.015,3.52,17.775-4.693.045-.206.058-.4.1-.6a13.066,13.066,0,0,0,6.274-.885,13.023,13.023,0,0,0,4.541,1.752c5.272.91,9.343-.661,12.44-5.061a16.232,16.232,0,0,0,2.7-6.083c2.891-3.362,3.862-8.2,3.9-13.04,6.464-.529,12.911-1.559,19.284-2.675,1.589-.278,3.182-.561,4.773-.859,1.824,14.039,12.641,27.654,27.76,20.891,3.488-1.562,6.055-5.589,8.277-8.465,3.026-3.919,7.04-7.154,10.156-11.058C255.508,338.966,259.028,334.49,257.675,324.637Z" fill="#426163"/><path d="M180.672,415.5a10.675,10.675,0,0,0-2.412-.327c-3.676.277-8.134,2.532-8.748,6.662-1.557,10.476-7.632,22.006-4.644,32.62.039-.014.072-.032.108-.047,1.834,6.158,11.827,8.285,14.766.047,1.7-4.768,2.7-9.866,4.265-14.713a59.75,59.75,0,0,0,3.325-15.5C187.516,420.55,184.459,416.121,180.672,415.5Z" fill="#60b4c4"/><path d="M286.426,398.927c.013-.708.029-1.417.053-2.127.04-1.383.236-2.764.4-4.134.772-6.623.4-13.935-.047-20.576-.788-11.748-17.446-11.748-18.235,0-.547,8.185-.277,16.505-.129,24.71.14,7.656,4.007,14.836,12.258,15.378C288.337,412.675,290.42,403.675,286.426,398.927Z" fill="#60b4c4"/><path d="M101.033,52.472c6.5,4,13.507,1.578,17.923-4.146,1.469-1.906-1.372-4.591-3.275-3.274-2.5,1.734-6.173,4.056-9.4,3.219-2.447-.637-6.308-2.341-6.047-5.347.491-5.685,7.884-11.069,12.566-13.351a20.743,20.743,0,0,1,8.895-2.246,17.074,17.074,0,0,0,.991,4.87c1.746,4.91,8.589,9.578,13.248,5.08,4.673-4.514-.3-10.1-4.691-12.283a20.485,20.485,0,0,0-4.709-1.66c1.853-6.511,10.191-8.369,17.276-7.5a16.419,16.419,0,0,0,.346,10.243c1.752,4.651,6.285,10.175,10.933,12.117,6.417,2.682,9.892-4.355,9.21-9.831-.962-7.706-7.012-13.042-14.088-15.59A16.3,16.3,0,0,1,161.053,5.7c5.648-.983,11.829.407,17.1,2.434,5.314,2.04,10.981,5.346,13.709,10.561a16.727,16.727,0,0,1,1.57,9.984,19.426,19.426,0,0,1-2.035,5.661c-.457,1.014-.51,3.081-1.839,3.343-1.514.3-1.178,2.836.367,2.7,2.091-.182,3.053-1.47,3.9-3.29,1.115-2.4,2.922-4.226,3.48-6.924,1.018-4.919.79-9.935-1.881-14.319C189.561,6.222,177.092,1.285,166.21.779,159.939.488,153.337,2.346,148.894,7a21.641,21.641,0,0,0-3.312,4.525,27.061,27.061,0,0,0-7.424-.349c-4.792.47-10.056,2.059-13.146,6.031a15.694,15.694,0,0,0-2.844,5.642c-9.678-.093-19.346,6.166-24.663,14.192C93.582,42.961,95.05,48.785,101.033,52.472Zm47.309-35.644a17.463,17.463,0,0,1,2,.787,17.17,17.17,0,0,1,7.246,6.464,10.884,10.884,0,0,1,1.964,5.125c.026,1.03,0,4.371-1.4,4.705-2.251.539-5-2.836-6.247-4.31-1.926-2.276-4.1-5.016-4.171-8.13A15.064,15.064,0,0,1,148.342,16.828ZM126.28,28a14.826,14.826,0,0,1,4.025,1.961c.835.576,2.371,1.337,2.625,2.424.547,2.317-2.376,2.135-3.684,1.239A7.929,7.929,0,0,1,126.28,28Z" stroke="#000" stroke-miterlimit="10" stroke-width="1.5"/><path d="M125.3,163.4c1.559,5.124,1.993,10.349,4.747,15.035,3.134,5.331,7.58,11.6,13.222,14.5,5.238,2.682,11.108,3.536,16.912,4.014,7.107.587,13.809.587,20.683-1.61,5.711-1.823,10.886-3.763,15.321-7.91,4.131-3.861,8.833-7.653,9.977-13.43a19.6,19.6,0,0,0,.177-7.859,9.192,9.192,0,0,0-1.163-3.1c-.121-.172-1.227-1.319-1.092-.994a1.94,1.94,0,0,0-.159-.3c.462-.019.922-.048,1.383-.1a1.4,1.4,0,0,0-.2-2.781c-3.521-.1-6.993-.951-10.521-.843a96.85,96.85,0,0,1-10.568-.082c-7.066-.55-13.935-2.131-20.907-3.311-3.449-.586-6.934-1.129-10.315-2.04-3.045-.819-5.941-1.972-9.006-2.725-3.169-.78-6.493-1.256-9.612-2.09-2.228-.594-4.34-1.433-6.671-1.435a2.013,2.013,0,0,0-1.657,1.112C122.981,152.473,123.681,158.078,125.3,163.4Zm3.531-12.965c2.218.376,4.273,1.657,6.568,1.7,1.721.037,3.756.954,5.42,1.4,1.419.38,2.833.758,4.255,1.12,3.343.851,6.5,2.173,9.906,2.867,3.126.634,6.277,1.128,9.424,1.668,6.83,1.178,13.518,2.58,20.482,2.759,3.7.1,7.323-.3,11-.37,1.3-.027,2.6.037,3.888.1a2.047,2.047,0,0,0-.179,1.3c.3,1.887,1.078,2.159,1.33,3.55a15.062,15.062,0,0,1-.142,6.388c-1.088,4.382-5.537,8.1-8.932,10.963-3.988,3.365-8.954,5.09-13.943,6.473-5.9,1.633-11.568,1.628-17.615,1.073-4.926-.451-10.19-1.014-14.643-3.335-5.119-2.666-8.357-7.849-11.66-12.361-2.722-3.716-2.947-8.738-4.4-13C128.2,158.62,127.069,154.442,128.835,150.435Z" stroke="#000" stroke-miterlimit="10" stroke-width="1.5"/><path d="M115.613,112.971a14.378,14.378,0,0,1,11.777,4.669,40.437,40.437,0,0,1,4.162,5.339c1.249,1.885,1.092,4.308,1.1,6.456,0,2.928-4.535,2.928-4.543,0a7.552,7.552,0,0,0-.687-4.039,27.925,27.925,0,0,0-3.139-3.628,9.637,9.637,0,0,0-7.817-3.677c-7.35-.132-10.038,6.089-10.093,12.5-.027,3.425-5.38,3.427-5.315,0C101.223,121.38,105.792,113.661,115.613,112.971Z" stroke="#000" stroke-miterlimit="10" stroke-width="1.5"/><path d="M220.322,126.106c9-.315,16.46,10.5,14.605,18.775a1.43,1.43,0,0,1-1.747.993,5.918,5.918,0,0,0-.782-.138,1.217,1.217,0,0,1-.64-2.23c-1.752-5.4-4.557-11.079-10.593-12.419-6.868-1.522-10.568,6.88-10.74,12.258-.095,3.05-4.762,3.068-4.747,0C205.875,134.714,211.034,126.429,220.322,126.106Z" stroke="#000" stroke-miterlimit="10" stroke-width="1.5"/><path d="M.843,119.806c.115,2.68,1.11,4.816,2.132,7.3.9,2.191,2.07,4.068,3.132,6.155.22.433.446.917.687,1.406-.053.492-.1.98-.122,1.456-.212,3.965,1.351,7.527,2.9,11.1,3.334,7.691,8.32,13.959,12.743,21,4.5,7.167,8.677,14.544,13.1,21.758,3.637,5.923,6.9,12.357,11.938,17.253a48.053,48.053,0,0,0,19.116,11.662c7.966,2.4,16.143,2.083,24.354,1.659,7.7-.4,15.56-1.046,22.821-3.909,2.543-1,6.338-2.444,8.869-4.623-3.922,14.572-7.447,29.177-9.081,44.293-2.049,18.989-2.482,37.957-2.537,57.035a1.737,1.737,0,0,0-.87,2.077,20.754,20.754,0,0,0,5.2,8.36,51.513,51.513,0,0,1-2.547,7.263,32.983,32.983,0,0,0-1.982,10.531c-.129,6.295,1.06,12.844,2.416,18.978,1.21,5.465,3.438,11.23,8.418,14.329a31,31,0,0,0,9.77,3.855c3.213.75,6.277,2.082,9.538,2.624a49.391,49.391,0,0,0,6.4.637c-1.515,8.315,1.482,16.352,5.272,24.084,2.178,4.44,4.886,10.331,9.717,12.4a21.454,21.454,0,0,0,3.531,1.182c-3.423,4.176-4.977,10.41-5.582,15.334a77,77,0,0,0-.253,17.15c.444,4.207,1.34,9.39,5.251,11.842,4.254,2.666,10.157,1.033,13.341-2.617,3.689-4.234,5.352-9.871,6.1-15.355a89.3,89.3,0,0,0,.8-11.008c.027-2.178.024-4.355.008-6.533a8.2,8.2,0,0,1,.679-1.966c1.512-3.423,3.883-10.257-1.216-11.994-2.669-.909-5.5,1.1-8.177,1.189-.89.029-1.778.056-2.661.1a1.533,1.533,0,0,0-.354-.434c-2.838-2.258-6.665-1.02-9.736-2.931-3.436-2.136-5.695-7.6-7.522-11.044-2.226-4.186-4.294-8.586-5.006-13.322a24.094,24.094,0,0,1,.3-6.1,78.1,78.1,0,0,0,12.21-1.652c2.854-.587,5.614-1.321,8.457-1.932,2.31-.5,4.667-1.1,6.374-2.838,2.172-2.2,1.191-6.687,1.189-9.527a41.586,41.586,0,0,0-.068-5.223c-.151-1.179-.746-2.114-.981-3.258.084.405.126.05.946.026a10.258,10.258,0,0,0,2.383-.14c1.414-.391,2.715-1.284,4.12-1.75a32.108,32.108,0,0,1,8.132-1.544c4.347,9.387,9.385,22.855,21.449,23.209,5.885.172,11.2-4.374,15.8-7.575,2.323-1.615,5.555-3.069,7.522-5.084a63.335,63.335,0,0,0,4.874-5.661,14.262,14.262,0,0,0,2.981,2.484,28.493,28.493,0,0,1,4.974,3.419,31.791,31.791,0,0,0,8.052,4.792,21.128,21.128,0,0,0,7.838,1.588c-.188,1.289-.365,2.577-.569,3.864a102.574,102.574,0,0,0-1.388,11.951,38.807,38.807,0,0,0,3.343,18.26c2.28,4.881,6.625,8.967,12.419,7.2,5.674-1.728,8.4-7.012,8.989-12.614.848-7.961-1.141-16.007-.219-23.991.545-4.712,2.921-10.814-1.3-14.605-2.712-2.437-8.729-1.755-12.091-1.338-2.873.359-6.231,1.26-7.148,3.84a2.549,2.549,0,0,0-.685.82,8.217,8.217,0,0,1-3.628.214,22.348,22.348,0,0,1-7.458-2.7c-2.68-1.749-5.3-3.782-8.3-4.966a34.169,34.169,0,0,1-3.235-1.783c3.256-4.765,6.108-9.811,9.963-14.1,2.967-3.306,7.854-9.3,5.7-14.112-1.03-2.305-3.375-3.584-5.338-4.961a30.8,30.8,0,0,1-3.92-3.02c-1.013-.988-1.866-2.571-3.076-3.282-1.17-.684-2.54-.835-3.69-1.636a16.006,16.006,0,0,1-3.182-2.96c-1-1.213-2.056-2.426-3.132-3.61l.968-.748a36.22,36.22,0,0,0,5.376-4.7,2.242,2.242,0,0,0,1.409-1.742c.006-.043.01-.088.014-.132a1.313,1.313,0,0,0,.079-.866c.1-3.06-1.609-5.853-3.674-8.066a44.249,44.249,0,0,0-5.283-4.853,20.384,20.384,0,0,0-.87-2.024c-.972-1.815-1.988-3.6-3.074-5.346-4.184-6.734-9.084-12.952-13.429-19.573-4.9-7.463-9.62-15.07-13.96-22.869a122.566,122.566,0,0,1-5.648-11.571c1.636,1.438,3.431,2.728,5.071,4.133,2.481,2.123,5.132,4.078,7.561,6.255,1.855,1.662,4.34,2.287,6.186,3.941,1.184,1.062,2.672,1.705,3.864,2.8,1.057.975,2.08,1.975,3.1,2.989a27.813,27.813,0,0,0,6.8,4.345,50.61,50.61,0,0,0,15.307,5.051c11.341,1.847,24.546,3.678,35.52-.8,9.6-3.914,14.683-12.094,20.052-20.418a3.825,3.825,0,0,0,2.183.547c7.8-.383,11.177-11.217,11.284-17.752.039-2.378-3.616-2.37-3.687,0a20.026,20.026,0,0,1-1.594,6.745c-.772,1.9-2.376,5.833-4.762,6.221a1.2,1.2,0,0,1-.959-.288c.549-6.91.853-13.533,2.84-20.3.688-2.333-2.8-3.23-3.592-.991a73.684,73.684,0,0,0-3.716,14.75,7.71,7.71,0,0,1-.721-1.955c-.262-1.221-.117-2.558-.442-3.742-.17-.615-.56-1.15-.737-1.766a6.132,6.132,0,0,1,.748-4.786,1.7,1.7,0,0,0-1.9-2.469c-2.849.631-4.94,2.9-4.574,6.013a13.429,13.429,0,0,0,1.013,3.941c.433,1,.275,2.214.523,3.317.78,3.48,2.54,5.5,4.519,8.294.217.311.434.639.661.975-5.949,7.723-11.708,16.528-21.787,18.967-10.408,2.522-22.924,1.179-33.213-1.449a44.217,44.217,0,0,1-13.613-6.21c-4.265-2.862-7.469-7.053-12.165-9.411-4.974-2.5-8.964-6.871-13.272-10.346a29.594,29.594,0,0,1-3.4-2.852c-.08-.088-.156-.184-.236-.275,4.3-.874,8.539-2,12.852-3.224a73.91,73.91,0,0,0,22.184-10.91c6.123-4.332,11.843-9.2,16.122-15.421,4.192-6.094,6.819-12.913,9.16-19.885a75.863,75.863,0,0,0,2.308-8.364c6.831.129,13.7-1.3,19.086-5.849,6.224-5.262,8.367-13.035,6.934-20.921-1.31-7.221-5.8-16.557-14.081-17.4a13.54,13.54,0,0,0-10.888,4.455c-3.036,3.266-3.29,6.248-2.944,10.5a1.64,1.64,0,0,0,3.279,0c.314-3.729,1.4-6.414,4.874-8.251,2.563-1.358,5.8-1.81,8.1.4a20.893,20.893,0,0,1,5.976,15.072c-.184,11.025-10,15.191-19.467,16.605a42.952,42.952,0,0,0,.08-9.274c-1.593-15.2-7.857-28.825-14.89-42.225-1.951-3.718-5.146-10.093-9.319-13.941.561-.41,1.115-.832,1.647-1.282,7.685-6.473,10.315-16.557,8.4-26.227C250.632,44.528,231.712,25.845,212.271,34c-1.829.771-1.086,3.784.84,3.045a21.558,21.558,0,0,1,19.309,1.779c14.49,8.835,26.2,37.192,6.536,47.362-.491.253-.988.492-1.49.724a8.1,8.1,0,0,0-3.494.668,1.153,1.153,0,0,0-.734,1,40.612,40.612,0,0,1-14.754,1.985q-1.684-.085-3.361-.3c.743-6.636-1.612-14.678-6.6-19.124-4.109-3.663-10.513-7.312-16.052-4.564-6.5,3.227-6.567,11.036-2.928,16.468,4.109,6.134,9.9,9.852,16.936,11.986.056.016.111.029.166.043a13.362,13.362,0,0,1-10.9,5.552c-5.2.2-10.257.632-15.444-.232-8.758-1.458-19.1-4.752-24.618-12.257,3.182-3.4,6.229-7.674,6.391-12.416.135-4-2.014-11.266-7.2-10.711-4.318.46-7.291,5.426-8.59,9.136-1.372,3.932-.261,9.03,1.293,12.77.016.034.032.071.047.1a13.371,13.371,0,0,1-5.471,2.645,31.952,31.952,0,0,1-10.341.1,12.1,12.1,0,0,1-5.354-1.483,29.078,29.078,0,0,1-4.66-3.481c-.972-.936-.968-3.18-1.482-4.4a15.334,15.334,0,0,0-2.632-4.369c-1.807-2.077-4.815-.693-5.63,1.488-.66,1.749-.026,5.518-1.359,6.713a6.187,6.187,0,0,1-4.788,1.6,16.664,16.664,0,0,1-8.83-3.827c-4.968-4.437-7.823-10.667-9.668-16.965-.864-2.941-4.976-1.67-4.5,1.242C83.92,72.41,85.688,79,89.452,84c-1.276.878-2.58,1.717-3.883,2.556-2.186,1.411-4.049,3.087-6.108,4.665a36.676,36.676,0,0,0-3.05,2.448,10.157,10.157,0,0,0-2.078,3.269c-.368.7-.777,1.366-1.205,2.02a28.5,28.5,0,0,0-6.958-7.442c-5.2-3.912-12.418-6.449-17.1-.383-3.835,4.971-3.877,13.167-1.935,18.914a32.128,32.128,0,0,0,6.239,10.365c2.55,2.947,5.989,6.678,9.956,7.493a53.338,53.338,0,0,0,.381,5.812c.544,4.463,1.943,8.549,2.973,12.884a95.725,95.725,0,0,0,3.011,10.36,74.462,74.462,0,0,0,10.394,19.831c4.934,6.53,11.41,11.353,17.725,16.462,6.7,5.417,13.372,10.97,21.438,14.2.269.109.544.211.816.319a25.6,25.6,0,0,1-5.749,2.949,45.085,45.085,0,0,1-9.583,2.751A126.38,126.38,0,0,1,83.449,215.2c-7.144.077-14.273-.687-20.691-4.06-5.782-3.039-11.221-7.07-15.035-12.437-8.2-11.535-14.343-24.438-22.23-36.173-4.064-6.052-8.327-11.662-11.086-18.486a27.618,27.618,0,0,1-1.783-5.428c3.316-.536,6.276-4.31,7.515-7.048,2.14-4.725,4.026-9.636,4.143-14.887.083-3.724-5.637-3.7-5.766,0a29,29,0,0,1-3.1,11.026,16.947,16.947,0,0,1-1.641,2.843c.027-.846-.034-1.718-.051-2.574q-.086-4.114-.174-8.224c-.05-2.45-.463-7.813,1.963-9.347,2.313-1.462.179-5.15-2.148-3.677-3.2,2.027-4.757,7.061-4.931,10.669-.093,1.914-.125,3.834-.153,5.753-1.406-3.361-2.523-6.753-3.755-10.408-.526-1.556-2.934-1.765-3.359,0A24.944,24.944,0,0,0,.843,119.806ZM272.829,379.76c.384-2.682.64-5.439,1.16-8.09a29.185,29.185,0,0,0,.626-4.105,6.443,6.443,0,0,0,.3-1.094,2.473,2.473,0,0,0-.161-1.377,61.094,61.094,0,0,1,6.813-.211,15.288,15.288,0,0,1,3.612.273c1.406.475,1.155,2.67,1.042,3.832-.2,2.038-.82,3.993-1.079,6.023a59.8,59.8,0,0,0-.376,9.139c.148,5.257,1.263,11.239.084,16.415-.61,2.67-3.451,8.645-7.266,6.1-2.942-1.966-3.937-6.618-4.749-9.82C271.441,391.373,272.038,385.29,272.829,379.76ZM166.371,436c.557-4.374,2.058-11.541,6.171-14.01a3.062,3.062,0,0,0,1.29-1.429,21.751,21.751,0,0,0,6.779-.5,11.751,11.751,0,0,0,1.786-.311,9.324,9.324,0,0,1-.534,2.169,34.274,34.274,0,0,1-1.791,4.022c-1.2,2.366-.418,6.453-.508,9.075-.1,2.759-.215,5.534-.577,8.274-.508,3.821-1.342,8.155-3.3,11.528-1.116,1.926-5.04,6.387-7.5,3.663-1.969-2.176-2.075-5.983-2.164-8.758A86.831,86.831,0,0,1,166.371,436ZM70.03,103.341c-.037.055-.071.106-.108.159a40.242,40.242,0,0,0-6.342,18.706,61.427,61.427,0,0,1-5.148-4.446,31.086,31.086,0,0,1-5.861-8.6,18.85,18.85,0,0,1-.331-13.034c.718-1.855,2.341-4.023,4.6-3.559a16.089,16.089,0,0,1,6.816,3.367,25.739,25.739,0,0,1,5.811,6.342A10.323,10.323,0,0,1,70.03,103.341Zm85.622-26.275a16.21,16.21,0,0,1-2.957,5.108c-1.1-3.723-.952-7.817,2.144-10.637.039-.037.072-.066.109-.1.217.513.391,1.041.619,1.562A5.629,5.629,0,0,1,155.652,77.066Zm53.469,12.012c-.585-.166-1.169-.343-1.747-.537-3.024-1.025-6.946-2.416-9.207-4.778-1.819-1.9-5.841-5.873-5.026-8.895.763-2.823,3.074-3.666,5.709-2.769C205.1,74.223,210.323,82.368,209.121,89.078ZM117.4,339.669c.458-4.086,2.23-7.815,3.465-11.674a45.483,45.483,0,0,0,15.918,5.019c11.967,1.67,24.045.248,35.948-1.274,13.323-1.7,27.073-1.922,39.841-6.538a59.5,59.5,0,0,0,10.157-4.6c3-1.773,5.479-4.073,8.311-6.055,2.124-1.486,4.189-3.058,6.247-4.646a50.711,50.711,0,0,0,2.862,4.934,18.778,18.778,0,0,0,4.25,4.422c1.047.729,2.148,1.105,2.91,2.12a20.07,20.07,0,0,0,2.371,2.667,48.724,48.724,0,0,0,5.885,4.569,6.144,6.144,0,0,1,1.107.96c-.018.092-.039.2-.058.344a13.087,13.087,0,0,1-1.348,3.238,34.128,34.128,0,0,1-4.816,5.676c-3.552,3.534-5.856,8.772-8.726,12.883a63.174,63.174,0,0,1-5.6,7.148c-1.683,1.8-3.975,2.976-5.994,4.371-2.363,1.634-4.7,3.316-7.143,4.834-1.707,1.06-4.133,3.039-6.221,2.976-4.442-.137-8.3-3.462-10.305-7.279-1.269-2.415-2.907-4.549-4.012-7.081-1.083-2.474-2.066-4.987-3.243-7.421a3.138,3.138,0,0,0-2.751-1.58,37.088,37.088,0,0,0-10.111,1.313c-2.51.745-4.738,2.04-7.238,2.241-2.7.217-5.823,1.731-6.609,4.58a7.271,7.271,0,0,0,.455,4.134,7.7,7.7,0,0,1,.586,3.372l0,5.283c0,.952,0,1.9,0,2.855-1.884.791-4.044.787-5.972,1.446a68.1,68.1,0,0,1-9.734,2.1,53.8,53.8,0,0,1-11.227.458,32.889,32.889,0,0,1-9.926-1.942c-3.042-1.01-6.752-1.162-9.514-2.846-2.384-1.454-4.348-2.732-5.643-5.314a27.779,27.779,0,0,1-2.267-7.307C118.116,352.088,116.717,345.764,117.4,339.669Zm7.022-110.423a117.982,117.982,0,0,1,2.815-12.928c.54-1.782,1.1-3.612,1.5-5.47a230.2,230.2,0,0,0,38.873,8.28,129.1,129.1,0,0,0,25.649,1.248c.3-.019.594-.047.891-.069.89,2.337,2.5,4.667,3.221,6.856a74.759,74.759,0,0,0,4.989,11.449q6.245,11.887,13.526,23.165c4.313,6.66,9.216,12.918,13.364,19.689a103.916,103.916,0,0,1,5.943,10.833c1.2,2.608,3.795,4.017,5.582,6.136a1.055,1.055,0,0,0,.611.343c.341.573.676,1.158,1.018,1.77-4.921,3.274-9.956,6.38-14.9,9.639-2.888,1.9-5.336,4.2-8.455,5.819a54.393,54.393,0,0,1-8.9,3.681c-12,3.732-24.38,4.162-36.757,5.669-11.1,1.351-22.456,2.8-33.635,1.636a41.013,41.013,0,0,1-14.827-3.98,32.75,32.75,0,0,1-2.852-1.692,3.034,3.034,0,0,0-3.528-2.612c-.653-.537-1.29-1.1-1.916-1.667a3.027,3.027,0,0,0,.763-2.112c-.034-19.6.245-39.111,2.344-58.618.5-4.641,1.063-9.278,1.881-13.875C122.407,238,123.611,233.664,124.424,229.245Zm-3.467-28.32c-8.143-3.6-14.995-9.723-21.777-15.374-6.1-5.082-11.925-9.818-16.147-16.673A75.6,75.6,0,0,1,74.356,148.2c-2.085-7.992-4.551-15.727-3.79-24.111A38.213,38.213,0,0,1,73.682,111.8c.288-.631.613-1.234.951-1.826a1.678,1.678,0,0,0,.486-.5,4.932,4.932,0,0,0,.463-1.047c1.517-2.334,3.25-4.495,4.572-6.99a10.249,10.249,0,0,1,1.4-2.627c.767-.658,1.556-1.269,2.36-1.881,1.549-1.179,2.989-2.551,4.628-3.6a39.118,39.118,0,0,0,5.939-4.559,19.259,19.259,0,0,0,2.131,1.219c4.076,1.988,9.57,3.843,14.038,2.037a13.609,13.609,0,0,0,5.376-3.571,3.931,3.931,0,0,0,.4.442,37.01,37.01,0,0,0,7.44,5.555c4.569,2.521,11.544,2.481,16.639,1.951a21.42,21.42,0,0,0,10.273-3.89,25.118,25.118,0,0,0,4.216,4.413c8.589,7,19.858,10.314,30.84,10.64a48.245,48.245,0,0,0,7.756-.312c3.045-.4,6.073-.319,9.007-1.44a19.541,19.541,0,0,0,10.687-9.276c9.276,1.353,19.546.156,27.673-4.357a24.092,24.092,0,0,1,3.354,4.189,102.471,102.471,0,0,1,6.729,12.746c3.488,7.266,7.046,14.871,9.255,22.636,2.278,8.01,3.633,17.109,2.128,25.381a82.413,82.413,0,0,1-7.3,21.717c-6.98,13.9-20.881,24.462-35.512,29.407a100.186,100.186,0,0,1-24.322,5.392,126.472,126.472,0,0,1-25.764-.851,252.779,252.779,0,0,1-25.825-4.939c-4.836-1.147-9.831-2.37-14.668-3.917a2.611,2.611,0,0,0-3.39-1.16C124.052,202.209,122.484,201.6,120.957,200.926Z" stroke="#000" stroke-miterlimit="10" stroke-width="1.5"/></g></g></svg>