<svg xmlns="http://www.w3.org/2000/svg" viewBox="0 0 222.324 218.054"><title>estrella</title><g id="Capa_2" data-name="Capa 2"><g id="Objects"><path d="M171.586,106.31a336.968,336.968,0,0,0,16.436-50.4c3.821-16.432-15.982-28.781-28.455-16.564C149.6,49.1,138.3,56.817,126.525,63.845c-1.907-2.678-3.758-5.4-5.63-8.046-3.2-4.541-12.154-14.216-12.763-19.494a22.4,22.4,0,0,0-3.288-9.552,11.673,11.673,0,0,0-9.882-7,17.6,17.6,0,0,0-3.8-.411c-8.442,0-18.032,7.76-16.969,16.968a50.729,50.729,0,0,0,4.015,14.614c-.448,8.572-.216,17.256-.268,25.374-.033,4.889.057,9.749.229,14.594C59.663,99.927,40.5,106.269,23.861,119.83c-12.664,10.324-1.033,27.813,12,28.967,15.98,1.413,31.948.924,47.912.593,1.514,9.722,3.266,19.4,5.105,29.094.836,4.419.235,8.116,2.558,12.278-3.132-5.607-1.039-2.616-.7.963A28.985,28.985,0,0,0,97.7,208.911c11.038,13.551,28.959.943,33.779-11.066,5.764-14.362,11.156-28.268,17.863-42.286.642-1.339,1.279-2.68,1.921-4.02,5.3.365,10.91,2.295,16.294,2.948,11.063,1.341,25.021-1.081,28.464-13.606C200.143,125.9,184.694,114.33,171.586,106.31Z" fill="#fccb00"/><path d="M209.965,130.445c-4.717-4.742-10.6-8.135-15.908-12.126-3.867-2.908-8.174-5.477-11.525-8.922a6.8,6.8,0,0,0,.333-.714c5.067-14.24,11.7-27.718,17.71-41.578,4.258-9.825,12.957-26.194.456-33.494-8.579-5.006-20.391.6-28.726,3.482C158.8,41.757,146.331,46.649,134.792,54.6c-8.068-9.893-15.769-20.078-24.039-29.809-2.755-3.243-5.871-5.266-8.945-8.087a47.173,47.173,0,0,1-4.786-5.209,21.133,21.133,0,0,1-1.438-2.028,5.279,5.279,0,0,1-.56-1.032C98.173,4.373,92.866-2.5,88.376.929a9.6,9.6,0,0,0-4.064,9.492c-3.818,2.994-4.2,6.949-5.745,11.808-1.145,3.6-2.681,7.085-4.034,10.612-1.449,3.784-1.678,7.7-2.859,11.525a212.372,212.372,0,0,0-6.313,23.719c-.934,5-2.73,11.929-1.109,17.127-1.883.456-4.359.234-5.81.373a22.813,22.813,0,0,0-9.024,2.654c-7.21,3.791-13.966,8.326-20.975,12.458-9.7,5.714-31.294,15.519-28.128,29.987,2.573,11.746,14.613,14.982,24.679,17.863,7.062,2.021,13.725,5.127,20.9,6.928,7.111,1.787,13.856.877,20.91,2.17A20.087,20.087,0,0,0,69,167.722c3.367,6.455,6.718,12.388,9.363,19.222,4.124,10.667,6.742,28.171,20.03,30.777,9.866,1.932,21.347-4.894,27.311-12.367,8-10.033,17.152-20.355,17.89-33.551,6.854,3.531,16.338,2.953,23.64,2.726,6.781-.208,13.468-1.208,20.257-1.412,10.281-.308,23.676-1.248,31.055-9.429C227.957,153.25,217.768,138.28,209.965,130.445Zm-2.932,23.195c-4.3,4.861-16.081,4.348-21.962,4.531-5.993.187-11.85,1.142-17.841,1.53-8.032.519-17.25-1.805-24.886.961a5.186,5.186,0,0,0-3.717,5.187,3.29,3.29,0,0,0-1.76,1.118c-6.608,7.954-11.744,16.853-18.1,25.023-3.859,4.96-10.686,13.37-18.12,12.212-3.427-.537-5.788-10.727-7-13.67q-3.378-8.168-6.756-16.34c-1.615-3.915-4.1-7.465-6.308-11.069-2.066-3.375-1.987-5.665-2.1-9.582a5.468,5.468,0,0,0-4.43-5.439c-2.386-5.243-7.986-6.752-13.372-6.778a57.641,57.641,0,0,1-18.341-2.9c-5.635-1.779-11-4.262-16.69-5.855-2.484-.7-8.885-1.86-9.995-4.687-.139-.354,9.378-7.408,10.648-8.475,2.726-2.289,6.657-3.855,9.677-5.825,3.181-2.078,6.267-4.308,9.358-6.52,5.239-3.752,10.038-8.423,16.094-10.828a21.179,21.179,0,0,0,8.114-5.22,4.752,4.752,0,0,0,3.438-.491C79,87.134,77.673,80.051,78.5,74.047c1.008-7.342,3.012-14.574,4.914-21.72C85.025,46.266,85.8,40.18,87.506,34.15c1.041-3.666,2.132-7.293,2.965-11.018.052-.228.079-.439.112-.65a59.031,59.031,0,0,0,4.392,4.733c1.97,1.908,3.952,3.235,5.624,5.407,3,3.887,5.868,7.883,8.825,11.8C115.719,52.76,122,61.105,128.6,69.206c2.613,3.21,7.231,2.207,9.978,0,10.472-8.418,22.593-13.905,35.362-17.838,5.625-1.73,13.157-6.041,19.327-5.4-.221,1.066-.481,2.124-.8,3.167-.689,2.49-1.946,4.687-2.8,7.1a164.828,164.828,0,0,1-8.336,18.419c-2.361,4.742-3.919,9.826-6.2,14.636-2.41,5.07-4.589,10.085-5.526,15.574a5.49,5.49,0,0,0-.525,3.383c1.839,10.8,13.632,16.541,20.751,23.543,4.162,4.1,9.281,6.384,13.009,11.249C204.292,144.927,208.987,151.427,207.033,153.639Z"/></g></g></svg>