<svg xmlns="http://www.w3.org/2000/svg" viewBox="0 0 24.07484 21.0625">
  <title>Recurso17</title>
  <g id="52996117-e84d-468f-a48e-6b61c0040c59" data-name="Capa 2">
    <g id="3f8227a7-11a5-4202-aecc-aef4f9acbd3b" data-name="Layer 6">
      <g>
        <path d="M16.67481,5.163a3.0234,3.0234,0,0,0,0-4.27749A3.00151,3.00151,0,0,0,14.53677,0h-.00094a3.00346,3.00346,0,0,0-2.138.88547l-.36088.36079L11.67612.88547a3.09841,3.09841,0,0,0-4.27711,0,3.02868,3.02868,0,0,0,0,4.27749L11.70373,9.4677a.47112.47112,0,0,0,.66644,0Zm-.66634-3.61115a2.0814,2.0814,0,0,1,0,2.94481L12.0369,8.46819,8.06544,4.49662a2.08213,2.08213,0,0,1,2.94434-2.94481l.694.694a.48515.48515,0,0,0,.66644,0l.694-.694A2.132,2.132,0,0,1,16.00846,1.55181Z" fill="#f46819"/>
        <path d="M11.38253,14.76233c.10406-1.06492.381-3.89381-3.99729-6.06455A5.86132,5.86132,0,0,1,5.4358,7.24907c-.11226-.14034-.21631-.29264-.31753-.4409-.02479-.03629-.04967-.07219-.0736-.10763a23.365,23.365,0,0,0-.58172-3.296,4.65744,4.65744,0,0,0-1.07774-1.434C3.28757,1.59922,2.983.75654,2.21351.60838a1.43839,1.43839,0,0,0-1.07783.2163,2.21132,2.21132,0,0,0-.832,1.4947c-.03676.196-.88905,4.84.43534,8.56111a6.30168,6.30168,0,0,0,1.73409,2.39214l3.66224,2.76489a3.94246,3.94246,0,0,1,.81.93561L6.705,20.56a.47169.47169,0,0,0,.4703.50254H10.9159a.47141.47141,0,0,0,.47125-.47407c-.01291-2.1698-.02856-5.47125-.02025-5.665ZM3.58493,3.74791a13.65126,13.65126,0,0,1,.37455,1.94935,2.51308,2.51308,0,0,0-.5998-.22488l-.14249-2.293A2.34653,2.34653,0,0,1,3.58493,3.74791Zm6.85879,10.92281-.01565.174c-.01291.15136.00368,3.43538.01385,5.27531H7.67883L7.885,16.96757c-.0506-.64513-.94249-1.491-1.1717-1.67367L3.06392,12.54a5.369,5.369,0,0,1-1.43767-1.97518,17.95079,17.95079,0,0,1-.3967-8.07055,1.30833,1.30833,0,0,1,.43629-.89.46486.46486,0,0,1,.37-.07c.17841.03412.32657.33025.40716.57756L2.6513,5.46249a1.08182,1.08182,0,0,0-.4654.227c-.52648.46342-.51723,1.32674.02488,2.30929a27.74534,27.74534,0,0,0,3.5628,4.50718A.47127.47127,0,1,0,6.451,11.8506,27.41138,27.41138,0,0,1,3.03546,7.54313c-.37737-.68434-.31573-1.06765-.22742-1.14588.08652-.075.45748-.08831,1.06219.35664a2.82635,2.82635,0,0,1,.4703.58727c.11509.16654.2329.33826.359.4965a6.75773,6.75773,0,0,0,2.289,1.7143C10.76218,11.424,10.54777,13.61692,10.44372,14.67072Z" fill="#f46819"/>
        <path d="M23.77025,2.31938a2.214,2.214,0,0,0-.83118-1.4947,1.44118,1.44118,0,0,0-1.07962-.2163c-.76756.14816-1.07227.99084-1.17076,1.36218a4.66493,4.66493,0,0,0-1.07774,1.434A23.12071,23.12071,0,0,0,19.031,6.69913c-.02479.03591-.05061.07229-.0754.109-.10132.14825-.20526.30056-.31762.44043A5.92565,5.92565,0,0,1,16.66652,8.708c-4.35525,2.16057-4.07826,4.98945-3.97421,6.05437l.0147.14957c.00829.19971-.00735,3.504-.01932,5.67653a.47143.47143,0,0,0,.47125.47407H16.8994a.47154.47154,0,0,0,.4703-.50254l-.24109-3.51549a3.01666,3.01666,0,0,1,.80074-.99866l3.69541-2.792a6.29028,6.29028,0,0,0,1.711-2.37329C24.66119,7.152,23.807,2.515,23.77025,2.31938ZM20.489,3.74838a2.35937,2.35937,0,0,1,.36786-.56992l-.14261,2.294a2.51118,2.51118,0,0,0-.599.22478A13.67188,13.67188,0,0,1,20.489,3.74838Zm1.95953,6.81647A5.33619,5.33619,0,0,1,21.033,12.52071l-3.68165,2.781a3.324,3.324,0,0,0-1.16247,1.734l.20707,3.0843h-2.763c.01009-1.83946.02573-5.12253.01376-5.2739l-.01565-.1754c-.10395-1.0538-.31837-3.24716,3.43312-5.10868a6.78586,6.78586,0,0,0,2.31023-1.72485c.12611-.15777.24392-.32949.359-.496a2.82568,2.82568,0,0,1,.4703-.58727c.60469-.44457.97556-.43166,1.063-.35664.08841.0787.15.46154-.22733,1.14588A27.475,27.475,0,0,1,17.6238,11.8506a.47124.47124,0,1,0,.67737.65531,27.79743,27.79743,0,0,0,3.5629-4.50718c.54212-.98255.55136-1.8454.02488-2.30882a1.08884,1.08884,0,0,0-.46634-.22723l.20829-3.35055c.08039-.2474.22855-.54372.40621-.57784a.47023.47023,0,0,1,.37181.07,1.31213,1.31213,0,0,1,.43534.89A17.91257,17.91257,0,0,1,22.4485,10.56485Z" fill="#f46819"/>
      </g>
    </g>
  </g>
</svg>
