<svg xmlns="http://www.w3.org/2000/svg" viewBox="0 0 119.59653 41.44965">
  <title>nosotrosRecurso 11</title>
  <g id="Capa_2" data-name="Capa 2">
    <g id="Editar">
      <g>
        <path d="M68.22453,19.5467c1.5564-1.1119,2.8429-2.7605,4.9635-2.7922,1.0785-.0161,1.2087-.6496,1.4166-1.4415,1.70322-6.4865,5.9368-9.2261,12.4591-8.022a1.44712,1.44712,0,0,0,1.8115-.8616c5.1191-8.3272,14.6655-8.6206,20.4178-.5586a8.0288,8.0288,0,0,1,.981,5.051c-.0406.8036-.42918,1.7523,1.12982,2.0129,5.77.9644,8.30358,4.1541,8.17848,9.9336-.0067.31.009.6204.0142.9306-1.8863,5.1061-5.5265,7.111-10.96368,7.0004-11.00562-.224-22.02152-.201-33.02772.0071-3.77128.0713-6.4792-1.0462-8.2922-4.3179l.02.0413a6.41177,6.41177,0,0,1-.0246-5.1078l.0256-.0226C68.35173,21.1287,67.49643,19.957,68.22453,19.5467Z" fill="#b3dfe7"/>
        <path d="M1.87485,26.7766c2.02768-1.4486,3.70378-3.5964,6.46638-3.6377,1.4051-.0209,1.57462-.8463,1.8455-1.8779,2.219-8.4505,7.7344-12.0197,16.2316-10.451a1.88512,1.88512,0,0,0,2.36-1.1225c6.6691-10.8486,19.106-11.2307,26.6-.7278,1.27452,1.7863,1.3957,4.2546,1.2781,6.5805-.053,1.0469-.5592,2.2829,1.4719,2.6223,7.517,1.2564,10.8178,5.4119,10.6548,12.9413-.0087.4039.01172.8084.0185,1.2125-2.4574,6.6521-7.1999,9.2641-14.2834,9.12-14.3379-.2918-28.6892-.2619-43.028.0092-4.9132.0929-8.441-1.3629-10.8029-5.6253l.0259.0539a8.3537,8.3537,0,0,1-.032-6.6544l.0333-.0295C2.04063,28.8375.92633,27.3111,1.87485,26.7766Z" fill="#d2ecf1"/>
      </g>
    </g>
  </g>
</svg>
