<svg xmlns="http://www.w3.org/2000/svg" viewBox="0 0 18.5957 20.94516">
  <title>Recurso 12</title>
  <g id="71f3ae7b-0323-47ca-afda-83dd461d43aa" data-name="Capa 2">
    <g id="2e5e7aaa-ec69-419d-82b3-5ba5d3f9a275" data-name="Layer 6">
      <g>
        <path d="M8.44146,5.64652a2.84859,2.84859,0,0,0,.59859.06355V6.1942a.34587.34587,0,1,0,.69175,0V5.64237a1.37535,1.37535,0,0,0,.38323-.14268.88333.88333,0,0,0,.31341-.3206.99734.99734,0,0,0,.11806-.50977.966.966,0,0,0-.2518-.6828,2.10791,2.10791,0,0,0-.7814-.48007,2.00925,2.00925,0,0,1-.48994-.23234.35866.35866,0,0,1-.1567-.30446.33371.33371,0,0,1,.14047-.281.90778.90778,0,0,1,.513-.1045,1.89225,1.89225,0,0,1,.376.03966c.12829.0261.22966.05045.30353.072.03062.00812.06124-.01439.09186-.06844a.77152.77152,0,0,0,.07157-.19009.85376.85376,0,0,0,.0261-.20264c0-.06309-.0153-.1009-.04547-.11437-.03514-.009-.072-.01983-.11123-.03247a1.01942,1.01942,0,0,0-.15357-.036,2.35466,2.35466,0,0,0-.24183-.02619c-.028-.00175-.07333-.00138-.10534-.00277V1.48708a.34587.34587,0,1,0-.69175,0v.58338c-.04851.00978-.11335.00683-.15726.02011a1.19307,1.19307,0,0,0-.40214.20264.78655.78655,0,0,0-.232.30446.93845.93845,0,0,0-.07517.372,1.02427,1.02427,0,0,0,.0784.41883.91813.91813,0,0,0,.21564.30354,1.45915,1.45915,0,0,0,.3171.22247,3.62809,3.62809,0,0,0,.38231.17294,1.79658,1.79658,0,0,1,.5166.272.41908.41908,0,0,1,.1437.32964.32858.32858,0,0,1-.21886.327,1.37677,1.37677,0,0,1-.53284.091,1.93719,1.93719,0,0,1-.50663-.055c-.13282-.03689-.25577-.07563-.36931-.11437-.02158-.00452-.04455.01983-.06844.072a.91819.91819,0,0,0-.059.17921,1.31569,1.31569,0,0,0-.02924.19636c-.00452.06309.00221.10358.01983.12073A1.28063,1.28063,0,0,0,8.44146,5.64652Z" fill="#f46819"/>
        <path d="M9.29758,19.04469A3.85867,3.85867,0,1,0,5.43936,15.186,3.86327,3.86327,0,0,0,9.29758,19.04469Zm0-6.795A2.93634,2.93634,0,1,1,6.3617,15.186,2.93942,2.93942,0,0,1,9.29758,12.24968Z" fill="#f46819"/>
        <path d="M8.44146,16.97489a2.861,2.861,0,0,0,.59859.06355v.484a.34587.34587,0,1,0,.69175,0v-.55183A1.37523,1.37523,0,0,0,10.115,16.828a.88431.88431,0,0,0,.31341-.3207.99734.99734,0,0,0,.11806-.50977.966.966,0,0,0-.2518-.6828,2.10911,2.10911,0,0,0-.7814-.48007,2.00925,2.00925,0,0,1-.48994-.23234.35866.35866,0,0,1-.1567-.30446.33382.33382,0,0,1,.14047-.281.90778.90778,0,0,1,.513-.1045,1.89225,1.89225,0,0,1,.376.03966c.12829.0261.22966.05045.30353.072.03062.00812.06124-.01439.09186-.06844a.7722.7722,0,0,0,.07157-.19.85508.85508,0,0,0,.0261-.20273c0-.063-.0153-.10081-.04547-.11437-.03514-.009-.072-.01983-.11123-.03237a1.00692,1.00692,0,0,0-.15357-.03606,2.35816,2.35816,0,0,0-.24183-.0261c-.028-.00184-.07333-.00148-.10534-.00286v-.53578a.34587.34587,0,1,0-.69175,0v.58338c-.04851.00978-.11335.00683-.15726.02011a1.19476,1.19476,0,0,0-.40214.20264.78723.78723,0,0,0-.232.30446.93845.93845,0,0,0-.07517.372,1.02427,1.02427,0,0,0,.0784.41883.91813.91813,0,0,0,.21564.30354,1.456,1.456,0,0,0,.3171.22247,3.62809,3.62809,0,0,0,.38231.17294,1.79889,1.79889,0,0,1,.5166.272.41913.41913,0,0,1,.1437.32973.32866.32866,0,0,1-.21886.327,1.37685,1.37685,0,0,1-.53284.09094,1.93324,1.93324,0,0,1-.50663-.055c-.13282-.03689-.25577-.07563-.36931-.11437-.02158-.00452-.04455.01983-.06844.072a.91917.91917,0,0,0-.059.1793,1.31278,1.31278,0,0,0-.02924.19627c-.00452.06309.00221.10367.01983.12073A1.28016,1.28016,0,0,0,8.44146,16.97489Z" fill="#f46819"/>
        <path d="M18.13453,4.20178h-5.013c.01041-.11483.03467-.2256.03467-.3432a3.85844,3.85844,0,1,0-7.71688,0c0,.1176.02435.22837.03468.3432H.46117A.46092.46092,0,0,0,0,4.66294V20.484a.46086.46086,0,0,0,.46117.46117H18.13453a.46086.46086,0,0,0,.46117-.46117V4.66294A.46092.46092,0,0,0,18.13453,4.20178ZM9.29758.92233A2.93588,2.93588,0,1,1,6.3617,3.85858,2.9394,2.9394,0,0,1,9.29758.92233ZM.92233,5.12411H5.67A3.84638,3.84638,0,0,0,6.88476,6.84454h-.845a.46117.46117,0,0,0,0,.92233h6.51582a.46117.46117,0,0,0,0-.92233h-.84486a3.84635,3.84635,0,0,0,1.215-1.72043h4.74771V9.2557H.92233Zm16.751,14.89871H.92233V10.178h16.751Z" fill="#f46819"/>
      </g>
    </g>
  </g>
</svg>
