<svg xmlns="http://www.w3.org/2000/svg" viewBox="0 0 155.46871 185.10523">
  <title>Recurso 15</title>
  <g id="Capa_2" data-name="Capa 2">
    <g id="Editar">
      <path d="M148.4921,183.89023c-17.3244-.3742-34.6473-.8428-51.9735-1.0932-14.3269-.2069-28.6592-.3102-42.9864-.1738-13.0257.1239-26.0466.7565-39.0724.8888-3.4757.0353-6.9853-.82-10.4347-1.4945-2.399-.4691-3.0455-2.1312-2.6744-4.5594a127.50658,127.50658,0,0,0,1.2534-29.9818c-.2791-3.3407.262-6.7421.1363-10.1049-.5619-15.0296-1.3299-30.0519-1.8226-45.0835-.3205-9.7782-.2718-19.5681-.4332-29.352C.36471,55.66763.19131,48.4.00481,41.13313c-.0839-3.2688.909-5.1497,4.7093-5.1674,9.2271-.043,18.4522-.4305,27.6794-.6217,2.519-.0521,4.7574-.6458,4.8865-3.5354.4751-10.6245,7.2275-16.7626,15.1242-22.4652,6.8532-4.9493,14.7137-7.3663,22.6293-8.8459,6.5789-1.2298,13.3247-.007,20.1967,1.7852,11.8773,3.0976,16.7633,11.8006,21.2398,21.4066,1.0731,2.3027,1.225,5.0886,1.5174,7.6842.2372,2.1054.9898,3.2235,3.2473,3.2168,8.9158-.0264,17.84161.2685,26.7438-.0726,4.9212-.1886,7.6319,1.7428,7.4845,6.6854-.43869,14.7126-1.0376,29.4225-1.2799,44.1382-.1907,11.5786.2459,23.1676.0516,34.7461-.1876,11.1789-.89939,22.348-1.2422,33.5257-.2548,8.3091-.1947,16.6284-.4908,24.9354a15.756,15.756,0,0,1-1.6619,5.5666c-.2491.5613-1.5118.6727-2.3106.9901Q148.5106,184.49773,148.4921,183.89023ZM27.1186,122.70643l.1106.0009c0,10.4495.0584,20.8995-.0354,31.3481-.0284,3.1544,1.0929,4.6698,4.3912,4.5832,4.8943-.1286,9.7947-.1119,14.6911-.0507,5.1249.064,10.2489.3898,15.372.3623,13.9327-.0749,27.8651-.2491,41.7969-.439,6.6278-.0904,13.2598-.5253,19.8777-.3474,2.342.063,3.3548-.5509,3.5525-2.6037.4168-4.3282.8228-8.6653.988-13.0081.3335-8.7661.7162-17.5391.6867-26.3079-.0367-10.9284-.5151-21.8546-.71359-32.7833-.12291-6.7714-.09921-13.5459-.10171-20.319-.0008-2.3515-.2938-4.3827-3.3582-4.2963-8.4305.2374-16.8622.7019-25.29109.653-9.77761-.0567-19.55071-.6934-29.32931-.844-13.0466-.2009-26.0968-.1618-39.1453-.2582-3.3404-.0247-4.1974,1.7022-4.0987,4.7947.3157,9.8872.4935,19.7805.5861,29.6727C27.19131,102.81053,27.1186,112.75883,27.1186,122.70643ZM4.5685,43.52453a20.25839,20.25839,0,0,0-.6259,3.5973c.0288,11.1208-.0329,22.2456.2577,33.3608.2628,10.0581,1.1897,20.1011,1.3687,30.1589.3425,19.2427.3473,38.4914.5406,57.7371a43.761,43.761,0,0,0,.603,4.9761c3.1861-2.9225,6.8677-5.8594,7.4287-9.3045,1.5278-9.3817,1.9768-18.9675,2.403-28.4926.4606-10.2918.3959-20.6066.5897-30.9109.1441-7.6667.552-15.3355.447-22.998-.1149-8.3836-.7622-16.7584-1.0287-25.1418C16.3712,50.80993,10.4858,44.13323,4.5685,43.52453Zm127.1101,10.0203a46.52444,46.52444,0,0,1,.5622,5.8644c-.2429,8.2777-.9143,16.5528-.8752,24.8262.0513,10.8149.8199,21.6254.92771,32.4413.14039,14.0865-.086,28.1765-.10621,42.2651-.00479,3.3935-1.2224,4.3186-4.6814,4.1242-9.8479-.5537-19.7055-1.1983-29.5627-1.2601-12.5473-.0785-25.101.2733-37.6461.6396q-15.44415.45075-30.8717,1.4048c-7.2987.4638-7.9208-.0209-6.5987-7.1509a7.349,7.349,0,0,0,.1408-1.1228c.1995-6.9678.5006-13.935.5563-20.9041.0725-9.0712.0015-18.1445-.1025-27.2158q-.23445-20.44575-.6153-40.8896c-.0486-2.7521-.5427-5.5113-.4139-8.2476.149-3.1666,1.6485-4.5678,5.2652-3.9887,2.9812.4773,6.1489-.2109,9.234-.3826a46.88263,46.88263,0,0,0-10.4282-2.8617c-4.7666-.8149-5.7225-.1236-5.7404,4.7153-.0371,10.0672.1728,20.1349.2082,30.2027q.0915,26.01315.0728,52.0264c-.002,2.5095-.2809,5.0205-.4711,7.5278-.527,6.952-1.0749,13.9023-1.6295,21.0452,4.7735.4264,8.9996,1.0078,13.2386,1.1255,4.2605.1183,8.5332-.3136,12.8018-.3489,11.68189-.0968,23.36549-.0327,35.04649-.1796,13.8207-.1738,27.6393-.5098,41.4592-.757,3.26931-.0585,6.5582.1402,9.7975-.1845a3.608,3.608,0,0,0,2.2839-2.5682c.7743-7.8318.6067-15.8213,2.0753-23.5048,2.25561-11.8017.5137-23.465.3661-35.1941-.0787-6.2526.4731-12.512.4342-18.7664-.0614-9.8818-.3109-19.7643-.63569-29.6414C135.681,53.86633,134.1956,52.49993,131.6786,53.54483Zm13.5488-13.8301c-1.7512-.5562-3.485-1.5083-5.2592-1.5904-4.256-.1972-8.533-.0546-12.7972.0831-3.297.1064-6.8174-1.0351-9.7391,1.6532-.3217.2961-1.3448-.1624-2.04059-.2822-2.02361-.3483-4.05671-1.056-6.06731-.9957-11.5366.3457-23.0648,1.1033-34.602,1.256-7.3921.0979-14.7923-.7786-22.1938-.892-5.3712-.0822-10.7516.5641-16.126.5352-6.7385-.0362-13.4738-.5183-20.2133-.6174a37.75357,37.75357,0,0,0-6.1251.8863q-.2271.61605-.4543,1.2322c2.1557,1.5287,4.1454,4.0106,6.4962,4.4202,9.8785,1.7215,19.835,3.1775,29.8228,4.0255,6.4724.5496,13.0485-.1176,19.578-.2441,10.28381-.1994,20.5687-.609,30.851-.5484,11.1571.0657,22.3385.201,33.4576,1.0128C136.8185,50.16033,142.786,47.04063,145.2274,39.71473Zm2.2382,136.9795a24.68564,24.68564,0,0,0,.7554-3.536c.2675-4.2259.4214-8.4589.6299-12.6887.3179-6.4518.7315-12.9003.9406-19.3556.1487-4.5913-.0375-9.1925.0432-13.7873.10761-6.1214.3923-12.2399.485-18.3614.1059-6.995.0019-13.9935.13661-20.9876.23949-12.4425.66779-24.8819.82669-37.325.0307-2.4056-.81069-4.8223-1.2498-7.2339q-.61755-.2217-1.2351-.4436c-1.8329,2.2644-3.6659,4.5287-4.8446,5.9849a43.18358,43.18358,0,0,1,3.7464,5.0828c.1929.3588-1.3422,2.1693-1.4778,2.1016a49.413,49.413,0,0,1-4.7026-2.9374c-.3105,2.8624-.878,6.0139-.9535,9.1772-.2401,10.049-.2772,20.1026-.43169,30.1538-.09091,5.9139-.90241,11.8975-.264,17.7264,1.80059,16.4388-.33961,32.6473-1.69311,48.94a20.35074,20.35074,0,0,0,2.1122,10.3804C141.6557,172.27813,144.7366,174.10163,147.4656,176.69423ZM9.6235,177.799q.11985.67935.2399,1.3586c5.2224.4111,10.4396,1.0542,15.6688,1.1742,6.3977.1468,12.8051-.1719,19.2088-.2418,16.9511-.185,33.9026-.4895,50.8536-.467,12.9476.0172,25.8941.5103,38.8426.678,2.8956.0375,5.7974-.4001,8.6963-.619q.27165-.6798.5432-1.3596c-2.7636-2.1601-5.2528-4.8999-8.3459-6.3642-7.31049-3.461-15.3262-1.8926-23.026-2.0121-10.5629-.1638-21.1363.5735-31.7081.7211-19.8713.2775-39.7445.493-59.61739.5459C15.6448,171.22743,12.5159,174.16493,9.6235,177.799ZM81.6485,3.55433c-9.94219,2.1832-19.6036,4.5229-28.3709,10.1905-6.7558,4.3672-10.6526,10.0555-11.8198,17.8298-.2597,1.7297-.8151,3.7107,2.047,3.8046,7.5703.2484,15.13951.6546,22.7112.7113,11.7602.0881,23.5228-.0087,35.2829-.1443a60.96519,60.96519,0,0,0,9.7565-.8651,3.7144,3.7144,0,0,0,2.3902-2.5975c.4921-8.6883-8.5035-23.0829-16.452-25.6896C92.2448,5.171,86.9451,4.61833,81.6485,3.55433ZM46.2389,53.47293c26.6766.2118,53.3621,5.2866,80.0288.1845C99.5851,50.15393,72.91631,54.11173,46.2389,53.47293Z"/>
      <path d="M4.5685,43.52453c5.9173.6087,11.8027,7.2854,11.9838,12.9824.2665,8.3834.9138,16.7582,1.0287,25.1418.105,7.6625-.3029,15.3313-.447,22.998-.1938,10.3043-.1291,20.6191-.5897,30.9109-.4262,9.5251-.8752,19.1109-2.403,28.4926-.561,3.4451-4.2426,6.382-7.4287,9.3045a43.761,43.761,0,0,1-.603-4.9761c-.1933-19.2457-.1981-38.4944-.5406-57.7371-.179-10.0578-1.1059-20.1008-1.3687-30.1589-.2906-11.1152-.2289-22.24-.2577-33.3608A20.25839,20.25839,0,0,1,4.5685,43.52453Zm6.0644,5.2317c-1.4546,1.9989-2.9063,3.2265-2.6815,3.8382.533,1.4507,1.8611,2.6092,2.8678,3.8859.8367-.8387,2.4298-1.7602,2.3489-2.4983C13.0115,52.55313,11.91231,51.22743,10.6329,48.75623Zm.3546,111.7181a19.49591,19.49591,0,0,0-2.6989,3.6789c-.1226.2916,1.6687,1.9454,2.0288,1.779a8.45755,8.45755,0,0,0,2.9802-2.593C13.4321,163.163,12.1815,161.93023,10.9875,160.47433Z" fill="#fff"/>
      <path d="M131.6786,53.54483c2.517-1.0449,4.0024.3215,4.09171,3.0397.32479,9.8771.57429,19.7596.63569,29.6414.0389,6.2544-.5129,12.5138-.4342,18.7664.1476,11.7291,1.88951,23.3924-.3661,35.1941-1.4686,7.6835-1.301,15.673-2.0753,23.5048a3.608,3.608,0,0,1-2.2839,2.5682c-3.2393.3247-6.52819.126-9.7975.1845-13.8199.2472-27.6385.5832-41.4592.757-11.681.1469-23.3646.0828-35.04649.1796-4.26861.0353-8.5413.4672-12.8018.3489-4.239-.1177-8.4651-.6991-13.2386-1.1255.5546-7.1429,1.1025-14.0932,1.6295-21.0452.1902-2.5073.4691-5.0183.4711-7.5278q.02055-26.01315-.0728-52.0264c-.0354-10.0678-.2453-20.1355-.2082-30.2027.0179-4.8389.9738-5.5302,5.7404-4.7153a46.88263,46.88263,0,0,1,10.4282,2.8617c-3.0851.1717-6.2528.8599-9.234.3826-3.6167-.5791-5.1162.8221-5.2652,3.9887-.1288,2.7363.3653,5.4955.4139,8.2476q.36045,20.444.6153,40.8896c.104,9.0713.175,18.1446.1025,27.2158-.0557,6.9691-.3568,13.9363-.5563,20.9041a7.349,7.349,0,0,1-.1408,1.1228c-1.3221,7.13-.7,7.6147,6.5987,7.1509q15.4188-.98,30.8717-1.4048c12.5451-.3663,25.0988-.7181,37.6461-.6396,9.8572.0618,19.7148.7064,29.5627,1.2601,3.459.1944,4.67661-.7307,4.6814-4.1242.02021-14.0886.2466-28.1786.10621-42.2651-.10781-10.8159-.87641-21.6264-.92771-32.4413-.0391-8.2734.6323-16.5485.8752-24.8262A46.52444,46.52444,0,0,0,131.6786,53.54483Z" fill="#fff"/>
      <path d="M145.2274,39.71473c-2.4414,7.3259-8.4089,10.4456-15.4123,9.9343-11.1191-.8118-22.3005-.9471-33.4576-1.0128-10.2823-.0606-20.56719.349-30.851.5484-6.5295.1265-13.1056.7937-19.578.2441-9.9878-.848-19.9443-2.304-29.8228-4.0255-2.3508-.4096-4.3405-2.8915-6.4962-4.4202q.2271-.616.4543-1.2322a37.75357,37.75357,0,0,1,6.1251-.8863c6.7395.0991,13.4748.5812,20.2133.6174,5.3744.0289,10.7548-.6174,16.126-.5352,7.4015.1134,14.8017.9899,22.1938.892,11.5372-.1527,23.0654-.9103,34.602-1.256,2.0106-.0603,4.0437.6474,6.06731.9957.69579.1198,1.71889.5783,2.04059.2822,2.9217-2.6883,6.4421-1.5468,9.7391-1.6532,4.2642-.1377,8.5412-.2803,12.7972-.0831C141.7424,38.20643,143.4762,39.15853,145.2274,39.71473Z" fill="#fff"/>
      <path d="M147.4656,176.69423c-2.729-2.5926-5.8099-4.4161-7.1762-7.1094a20.35074,20.35074,0,0,1-2.1122-10.3804c1.3535-16.2927,3.4937-32.5012,1.69311-48.94-.63841-5.8289.17309-11.8125.264-17.7264.15449-10.0512.19159-20.1048.43169-30.1538.0755-3.1633.643-6.3148.9535-9.1772a49.413,49.413,0,0,0,4.7026,2.9374c.1356.0677,1.6707-1.7428,1.4778-2.1016a43.18358,43.18358,0,0,0-3.7464-5.0828c1.1787-1.4562,3.0117-3.7205,4.8446-5.9849q.61755.22185,1.2351.4436c.43911,2.4116,1.2805,4.8283,1.2498,7.2339-.1589,12.4431-.5872,24.8825-.82669,37.325-.13471,6.9941-.03071,13.9926-.13661,20.9876-.0927,6.1215-.37739,12.24-.485,18.3614-.0807,4.5948.1055,9.196-.0432,13.7873-.2091,6.4553-.6227,12.9038-.9406,19.3556-.2085,4.2298-.3624,8.4628-.6299,12.6887A24.68564,24.68564,0,0,1,147.4656,176.69423Zm-1.47229-12.7461c-1.20841-1.0794-2.36511-2.3842-2.56821-2.2497a9.04951,9.04951,0,0,0-3.1674,3.0724c-.2162.4239,1.41261,1.7888,2.1981,2.7236Z" fill="#fff"/>
      <path d="M9.6235,177.799c2.8924-3.6341,6.0213-6.5716,11.3558-6.5859,19.87289-.0529,39.74609-.2684,59.61739-.5459,10.5718-.1476,21.1452-.8849,31.7081-.7211,7.6998.1195,15.71551-1.4489,23.026,2.0121,3.0931,1.4643,5.5823,4.2041,8.3459,6.3642q-.2715.6798-.5432,1.3596c-2.8989.2189-5.8007.6565-8.6963.619-12.9485-.1677-25.895-.6608-38.8426-.678-16.951-.0225-33.9025.282-50.8536.467-6.40369.0699-12.8111.3886-19.2088.2418-5.2292-.12-10.4464-.7631-15.6688-1.1742Q9.7434,178.47828,9.6235,177.799Z" fill="#fff"/>
      <path d="M81.6485,3.55433c5.2966,1.064,10.5963,1.6167,15.5451,3.2397,7.9485,2.6067,16.9441,17.0013,16.452,25.6896a3.7144,3.7144,0,0,1-2.3902,2.5975,60.96519,60.96519,0,0,1-9.7565.8651c-11.7601.1356-23.5227.2324-35.2829.1443-7.57169-.0567-15.1409-.4629-22.7112-.7113-2.8621-.0939-2.3067-2.0749-2.047-3.8046,1.1672-7.7743,5.064-13.4626,11.8198-17.8298C62.0449,8.07723,71.70631,5.73753,81.6485,3.55433Zm22.801,28.6348c4.334.0582,5.1571-.7935,4.5982-5.0994a19.00871,19.00871,0,0,0-15.3175-16.0368c-2.1203-.3872-4.4306-1.1927-6.3745-.7013-2.1985.5557-4.1626,2.2449-6.0858,3.6384-3.4135,2.4731-6.3948,2.2477-9.0495-1.1504-1.9763-2.5297-3.9859-3.2554-6.7109-1.1637a10.39434,10.39434,0,0,1-2.7598,1.1773c-6.2222,2.3023-10.7846,6.7648-14.7387,11.8139a10.21562,10.21562,0,0,0-1.6016,5.6883c-.0898,2.7962,1.6121,3.6255,4.2663,2.5709a9.16842,9.16842,0,0,1,3.1979-.9031c14.0491.0077,28.0982.0992,42.1472.164C98.83031,32.20023,101.6399,32.18913,104.4495,32.18913Zm-27.237-17.68c1.4256-1.9832,2.6773-2.9559,2.6709-3.9203-.00709-1.0761-1.15709-2.1445-1.8097-3.2163-.99139.939-2.4267,1.725-2.8216,2.8698C74.979,11.03413,76.14231,12.32123,77.2125,14.50913Z" fill="#fff"/>
      <path d="M46.2389,53.47293c26.67741.6388,53.3462-3.319,80.0288.1845C99.601,58.75953,72.9155,53.68473,46.2389,53.47293Z" fill="#fff"/>
      <path d="M145.99331,163.94813l-3.53751,3.5463c-.78549-.9348-2.4143-2.2997-2.1981-2.7236a9.04951,9.04951,0,0,1,3.1674-3.0724C143.6282,161.56393,144.7849,162.86873,145.99331,163.94813Z"/>
      <path d="M104.4495,32.18913c-2.8096,0-5.61919.0111-8.4287-.0019-14.049-.0648-28.0981-.1563-42.1472-.164a9.16842,9.16842,0,0,0-3.1979.9031c-2.6542,1.0546-4.3561.2253-4.2663-2.5709a10.21562,10.21562,0,0,1,1.6016-5.6883c3.9541-5.0491,8.5165-9.5116,14.7387-11.8139a10.39434,10.39434,0,0,0,2.7598-1.1773c2.725-2.0917,4.7346-1.366,6.7109,1.1637,2.6547,3.3981,5.636,3.6235,9.0495,1.1504,1.9232-1.3935,3.8873-3.0827,6.0858-3.6384,1.9439-.4914,4.2542.3141,6.3745.7013a19.00871,19.00871,0,0,1,15.3175,16.0368C109.6066,31.39563,108.7835,32.24733,104.4495,32.18913Zm-32.57919-8.3908q.41264-.27375.82519-.5477c-1.2394-2.0746-2.3834-4.2175-3.7834-6.1774a2.38972,2.38972,0,0,0-2.2701-.5391,2.48856,2.48856,0,0,0-.8904,2.1616,90.4572,90.4572,0,0,0,2.185,9.0559,2.39047,2.39047,0,0,0,2.0555,1.0611,2.65546,2.65546,0,0,0,1.6097-1.6776A14.73043,14.73043,0,0,0,71.87031,23.79833Zm21.06069,5.511c5.6206-2.5955,3.2669-7.176,4.0349-10.4217.2342-.9901-1.9783-2.5592-3.0702-3.8631q-.78075.35625-1.5615.7124C92.5202,19.96733,92.7062,24.19773,92.931,29.30933Zm-29.7769-5.2238c-.1533-1.1464-.2312-2.412-.5049-3.6337-.5861-2.617-2.22189-3.0221-4.0528-1.3578a3.838,3.838,0,0,0-.70309,3.226,49.93776,49.93776,0,0,0,2.38819,6.0729c.8152-.399,1.9497-.5959,2.3627-1.2491C63.1334,26.36993,63.0007,25.20283,63.1541,24.08553Zm17.3099,4.0789c.4498-2.6186.895-5.2106,1.3824-8.0477-1.4433,0-2.4278-.0527-3.404.015-.9504.066-1.8922.2553-2.8083.3862C75.8105,25.93013,77.2687,28.14813,80.464,28.16443Zm6.8458.0565c2.2984-3.8812,2.3641-7.6865.92851-11.8233C83.9008,19.65823,83.5029,24.31743,87.3098,28.22093Zm14.5917-7.7528q-.7782.1584-1.5566.3169c.0973,1.7995.0938,3.6139.356,5.389.0746.505.9222.8958,1.41541,1.3389.43969-.5337,1.32089-1.146,1.24229-1.5875C103.0296,24.07843,102.4129,22.28263,101.9015,20.46813Z"/>
      <path d="M77.2125,14.50913c-1.07019-2.1879-2.2335-3.475-1.9604-4.2668.3949-1.1448,1.83021-1.9308,2.8216-2.8698.65261,1.0718,1.80261,2.1402,1.8097,3.2163C79.8898,11.55323,78.6381,12.52593,77.2125,14.50913Z"/>
      <path d="M71.87031,23.79833a14.73043,14.73043,0,0,1-.26851,3.3368,2.65546,2.65546,0,0,1-1.6097,1.6776,2.39047,2.39047,0,0,1-2.0555-1.0611,90.4572,90.4572,0,0,1-2.185-9.0559,2.48856,2.48856,0,0,1,.8904-2.1616,2.38972,2.38972,0,0,1,2.2701.5391c1.4,1.9599,2.544,4.1028,3.7834,6.1774Q72.283,23.52453,71.87031,23.79833Z" fill="#fff"/>
      <path d="M92.931,29.30933c-.2248-5.1116-.4108-9.342-.5968-13.5724q.78075-.35625,1.5615-.7124c1.0919,1.3039,3.3044,2.873,3.0702,3.8631C96.1979,22.13333,98.5516,26.71383,92.931,29.30933Z" fill="#fff"/>
      <path d="M63.1541,24.08553c-.1534,1.1173-.0207,2.2844-.5099,3.0583-.413.6532-1.5475.8501-2.3627,1.249A49.93,49.93,0,0,1,57.89331,22.32a3.838,3.838,0,0,1,.70309-3.226c1.83091-1.6643,3.4667-1.2592,4.0528,1.3578C62.9229,21.67353,63.0008,22.93913,63.1541,24.08553Z" fill="#fff"/>
      <path d="M80.464,28.16443c-3.1953-.0163-4.6535-2.2343-4.8299-7.6465.9161-.1309,1.8579-.3202,2.8083-.3862.9762-.0677,1.9607-.015,3.404-.015C81.359,22.95383,80.9138,25.54583,80.464,28.16443Z" fill="#fff"/>
      <path d="M87.3098,28.22093c-3.8069-3.9035-3.409-8.5627.92851-11.8233C89.6739,20.53443,89.6082,24.33973,87.3098,28.22093Z" fill="#fff"/>
      <path d="M101.9015,20.46813c.5114,1.8145,1.1281,3.6103,1.4571,5.4573.0786.4415-.8026,1.0538-1.24229,1.5875-.49321-.4431-1.34081-.8339-1.41541-1.3389-.2622-1.7751-.2587-3.5895-.356-5.389Q101.12325,20.62663,101.9015,20.46813Z" fill="#fff"/>
    </g>
  </g>
</svg>
