<svg xmlns="http://www.w3.org/2000/svg" viewBox="0 0 77.27699 70.21496">
  <title>nosotrosRecurso 16</title>
  <g id="Capa_2" data-name="Capa 2">
    <g id="Editar">
      <g>
        <path d="M48.69766,38.19792c-2.0243-2.6181-4.0727-5.3902-6.3284-7.8004-1.6656-1.7799-3.3278-3.9967-5.34919-5.3799a2.87694,2.87694,0,0,0-3.98421.6709c-2.9221,4.641,3.5381,10.1105,6.0615,13.6052,1.94871,2.6989,4.0841,5.3378,6.2328,7.8796,1.69491,2.0044,3.9087,3.7532,6.6261,2.9061C57.57676,48.32762,50.23286,40.183,48.69766,38.19792Z" fill="#f46819"/>
        <path d="M76.52046,31.75622c-1.8066-3.9308-6.6686-5.3947-10.5929-5.9063a26.98994,26.98994,0,0,0-4.6109-.2029,21.132,21.132,0,0,0,3.9046-12.1385c-.0841-6.158-3.9824-11.9726-10.1378-13.3238-3.2001-.7027-6.5668.7211-9.31339,2.2212a22.426,22.426,0,0,0-7.65821,6.9822,23.61111,23.61111,0,0,0-3.7025,9.6603,8.77282,8.77282,0,0,0,.2133,3.825,5.93309,5.93309,0,0,0-.7105-.0866,3.69627,3.69627,0,0,0-2.3427.6226,10.72158,10.72158,0,0,0-.9289-.9632c-.5823-1.0996-1.0673-2.3027-1.4827-3.2653a14.45884,14.45884,0,0,1-1.1339-5.1022,13.43407,13.43407,0,0,1,.9003-5.4784c.5772-1.5386,2.09881-2.8566,1.8477-4.5773a1.2546,1.2546,0,0,0-1.1047-1.0374c-2.2934-.1947-3.5259,2.4864-4.2544,4.2835a16.30436,16.30436,0,0,0-.9977,6.8799,14.205,14.205,0,0,0,1.2828,5.4281,17.28836,17.28836,0,0,0-5.0867-1.0077c-3.1916-.1237-8.6093.5042-9.03319,4.4802a1.30216,1.30216,0,0,0,2.108,1.1203A12.07487,12.07487,0,0,1,20.61457,22.15c2.8999.034,6.6427,1.1898,8.64851,3.4252a1.58159,1.58159,0,0,0,.76149.4843,5.02361,5.02361,0,0,0-.0396,1.1743c.2099,2.4197,1.7892,4.8349,3.0328,6.8377,1.4427,2.3242,3.0487,4.5351,4.6442,6.7557a9.709,9.709,0,0,0,1.3673,1.8029c1.6026,1.677,3.1904,3.3674,4.8642,4.9749a35.063,35.063,0,0,0,4.2241,3.4822,1.25614,1.25614,0,0,0-.1093.2162,29.90522,29.90522,0,0,0-.91919,3.9864,16.29917,16.29917,0,0,1-1.82321,3.9916c-1.3235,2.3982-3.1861,5.4998-6.013,6.2729-2.7959.7649-4.5562-2.0903-5.3796-4.2923-.6626-1.7725.154-3.223-.1358-4.963-.1859-1.1181-.7246-2.9165-.0645-3.9531a2.265,2.265,0,0,0-3.6884-2.6255c-4.494,5.0319-10.705,10.1519-17.9267,9.1353-5.3644-.753-8.2924-7.593-7.0525-12.405a17.06347,17.06347,0,0,1,10.2693-11.3744c5.03-2.1421,10.8097-1.8244,16.1015-1.1403a.21872.21872,0,0,0,.1477-.3931C20.37837,24.83182,1.20877,33.517.056,47.505c-.6053,7.3465,3.741,14.3435,11.016,16.0612,3.9398.9293,8.5967-.4027,12.0945-2.179a28.04416,28.04416,0,0,0,5.96-4.1331c-.073,1.7697-.3232,3.5704.4091,5.243,1.64151,3.7525,3.7868,7.1258,8.2119,7.6656,4.4452.5427,8.087-3.2453,10.2538-6.6283,1.79881-2.8084,4.0879-6.9755,3.3559-10.4925A25.93322,25.93322,0,0,0,55.233,54.676c1.92211.6249,3.0372-2.3094,1.1122-2.9351-.0586-.0192-.1156-.0414-.1737-.0606,0-.0163.0041-.0319.0037-.0482a12.29358,12.29358,0,0,0-1.8185-5.3761,1.59406,1.59406,0,0,0,.3421.2717,15.37714,15.37714,0,0,0,3.39331,1.5541,10.14743,10.14743,0,0,0,5.03789-.0341,20.01436,20.01436,0,0,0,8.1146-3.2674C75.44386,41.98672,78.84726,36.81932,76.52046,31.75622ZM47.17907,45.68362a39.65786,39.65786,0,0,1-5.92861-6.4157c-2.24239-3.4215-4.9075-6.5166-6.723-10.2157a9.071,9.071,0,0,1-.7993-2.1865,1.54189,1.54189,0,0,1-.0359-.4175c.023-.0082.044-.0156.0759-.0282,1.0062-.388,2.7488,1.3832,3.3593,1.9888,1.0858,1.0751,1.9114,2.2583,3.0391,3.3163a53.17625,53.17625,0,0,1,7.45751,9.416c1.27019,1.8718,2.49109,3.7717,3.59579,5.7457.5616,1.0032.9814,2.0924,1.4461,3.1505A32.31558,32.31558,0,0,1,47.17907,45.68362ZM68.81636,41.053a13.11019,13.11019,0,0,1-5.69129,2.4308,12.64876,12.64876,0,0,1-4.02341.3309c-1.08359-.1606-2.162-.2672-3.2545-.3339a1.853,1.853,0,0,0-1.8536,2.0917c-1.1792-2.2294-2.6056-4.3196-3.9587-6.4438-1.2617-1.9785-2.3672-4.0043-3.8061-5.8694-.7394-.9573-1.5575-1.8547-2.38569-2.7366-.679-.7219-1.98881-1.5193-2.46591-2.3553-.1315-.2303-.2792-.4613-.4343-.6923a1.33429,1.33429,0,0,0-.5165-1.2113c-4.86829-3.9701-1.4497-11.398,1.57671-15.4607,2.633-3.5334,8.38049-7.7353,13.03709-6.3855,4.1337,1.1981,6.0754,6.1707,5.7293,10.1017-.4813,5.4546-3.7621,10.2104-7.8922,13.5852-1.9554,1.5985.2004,5.234,2.4297,3.825,2.4508-1.5482,5.58911-1.8392,8.4223-1.7593,2.8044.0778,6.398.5746,8.37381,2.7959C74.645,35.82342,71.011,39.43072,68.81636,41.053Z" fill="#f46819"/>
      </g>
    </g>
  </g>
</svg>
