<svg xmlns="http://www.w3.org/2000/svg" viewBox="0 0 212.55714 276.31692">
  <title>nosotrosRecurso 13</title>
  <g id="Capa_2" data-name="Capa 2">
    <g id="Editar">
      <g>
        <g>
          <g>
            <path d="M76.59129,115.46382c-4.0406-2.3867-8.503-1.9121-12.8736-.916a36.61554,36.61554,0,0,0-21.2412,14.582c-.1421-.0508-.2886-.0996-.4404-.1406-9.85009-2.6211-19.18609,4.583-24.8887,12.0752-2.853,3.751-4.7788,8.4443-3.8608,13.1728a37.81663,37.81663,0,0,0,5.4023,13.0938c2.9619,4.6816,7.53911,8.042,11.4932,11.7949,4.04591,3.8379,8.4087,6.7559,13.9341,7.793,5.9267,1.1133,9.6425-1.4795,12.9443-6.0977,2.8164-3.9433,4.9204-7.0449,9.6816-8.4531,8.2432-2.4356,16.5957-4.8359,19.7598-13.8154,3.2646-9.2637,1.43511-21.4981-1.8237-30.503C82.99159,123.39352,81.06389,118.10442,76.59129,115.46382Z" fill="#d14654"/>
            <path d="M28.12489,119.25972c-.1933-.1191-.3901-.2324-.58389-.3486a3.96388,3.96388,0,0,0-.79351-2.3184c-2.3262-3.042-6.8584-4.5293-10.39749-5.6523-3.29391-1.044-7.70021-2.8838-11.13281-1.3155-.1865.086-.3603.1807-.5317.2813-2.1797-.044-4.4517,1.4404-3.9409,3.959,1.1289,5.5576,6.7597,10.3964,10.92141,13.9267,5.06149,4.2949,11.58929,6.419,18.12059,4.9805,3.4443-.7598,4.9653-4.4678,4.2602-7.583C33.33539,122.05172,30.61229,120.787,28.12489,119.25972Z" fill="#45a931"/>
            <path d="M81.76509,141.746c.0146.001.0293.002.043.002-.1304-.1123-.2759-.1905-.4136-.2891-.0791-.0566-.1553-.1133-.2368-.166a5.7285,5.7285,0,0,0-.6866-.3779c-.0366-.0157-.0737-.0323-.1113-.0489a6.14542,6.14542,0,0,0-2.8032-.5224,5.95926,5.95926,0,0,0-4.0654,2.1758,5.38667,5.38667,0,0,0-.1724,6.6972,5.71635,5.71635,0,1,0,8.4463-7.4707Z" fill="#e5807c"/>
            <path d="M31.96719,166.15522a5.741,5.741,0,0,0-3.7407,5.1797,5.26749,5.26749,0,0,0,1.4277,3.9336,5.68119,5.68119,0,1,0,2.313-9.1133Z" fill="#e5807c"/>
          </g>
          <g>
            <path d="M79.78509,115.12592c-7.4185-6.4414-17.7988-4.9844-25.8887-.7217-4.7622,2.5108-9.979,5.9385-12.5161,10.667-.583-1.5849-1.19329-3.1572-1.7778-4.7402-1.31449-8.7891-2.5293-17.5733-2.3472-26.4531a1.846,1.846,0,0,0-1.5054-1.67c-2.23189-.4795-3.1108,1.6709-3.2695,3.4756-.1035,1.1817-.5478,2.3076-.6362,3.5117a32.16342,32.16342,0,0,0,.1792,5.1846c.3193,3.6406.5283,7.2393,1.1538,10.8477a40.49118,40.49118,0,0,0,1.3989,5.5576,30.41013,30.41013,0,0,0-7.915-8.4102,22.83732,22.83732,0,0,0-11.2725-3.7558,39.11293,39.11293,0,0,0-6.5469.2744c-1.40469.1113-2.8081.2373-4.2124.3555a2.94432,2.94432,0,0,0-1.1884.4316,1.27593,1.27593,0,0,0-1.376-.0537c-3.0645,1.5703-2.0967,5.0537-1.0347,7.6846a37.61548,37.61548,0,0,0,6.5694,10.2138c3.4965,3.9815,8.665,5.8789,13.7758,6.7158a27.97774,27.97774,0,0,0-10.1679,14.4649c-1.9932,6.7939.5693,14.0742,3.7382,20.0683a74.81242,74.81242,0,0,0,9.2759,13.6856c3.3907,3.958,7.4605,7.5527,12.4502,9.2861,6.1983,2.1563,12.4199.7237,17.8218-2.7744,3.1973-2.0713,5.6592-4.7256,8.5151-7.1982a38.91843,38.91843,0,0,1,10.53031-6.208c3.19919-1.3594,6.51709-2.4131,9.71829-3.7637,2.0581-.8692,3.7832-2.0586,4.3945-3.8447.0371-.0274.07421-.0459.1108-.0762,7.5987-6.1611,6.3247-19.0654,4.1221-27.4854C89.52729,131.38082,87.11129,121.48722,79.78509,115.12592Zm-66.6094,10.6436c-2.7553-1.7647-4.976-4.4483-7.0932-6.8868-.4644-.5341-4.0591-5.6416-2.9034-6.1748a1.65859,1.65859,0,0,0,.6773-.5605,10.278,10.278,0,0,1,3.07961-.5078c1.92769.0644,3.81979-.001,5.74359-.0186a20.69254,20.69254,0,0,1,11.6397,3.5635c3.2671,2.3311,5.3594,6.0244,6.916,9.6299.4404,1.0205.8105,2.2763,1.2275,3.5478q-1.75919.62265-3.456,1.3848c-1.2359-.1387-2.46579-.3643-3.6802-.5635C21.18109,128.495,16.82509,128.10732,13.17569,125.76952Zm72.9092,15.8759a45.72625,45.72625,0,0,1,.8945,11.8565c-.2656,3.6572-1.5161,7.0703-2.1489,10.6367a6.468,6.468,0,0,0-2.2109,1.2168c-1.0264.874-2.6553,1.1777-3.899,1.6094-2.7729.9638-5.5141,2.0332-8.2182,3.1777a47.63414,47.63414,0,0,0-15.4785,10.6533c-3.9693,3.9795-9.60789,6.6221-15.2158,5.3848-4.0152-.8848-7.398-3.9746-10.1504-6.8457a67.82325,67.82325,0,0,1-7.5704-10.1846c-3.145-4.8506-6.2041-11.0488-5.75-16.9912.4229-5.5469,3.7432-10.4668,7.53371-14.3008q1.41584-1.43115,2.91949-2.7148c3.4551.5625,7.3169.9053,9.93751-.751a1.88551,1.88551,0,0,0,2.04-1.0918,14.68565,14.68565,0,0,0,2.14449,4.3467,2.09067,2.09067,0,0,0,3.7623-1.3604c-.0992-2.8593-1.2554-5.583-2.24079-8.2714a18.08325,18.08325,0,0,1,4.75389-4.6456,53.91817,53.91817,0,0,1,9.3902-5.5888c7.5024-3.3906,16.25491-4.2139,21.9131,2.7529C83.13909,126.25682,84.73969,134.581,86.08489,141.64542Z" fill="#463131"/>
            <path d="M37.99459,152.788a3.37136,3.37136,0,0,0-2.5723-.1191,3.48378,3.48378,0,0,0-2.1201,2.3408c-.0234.0439-.0498.084-.0713.1309a3.31455,3.31455,0,0,0,4.1284,4.5234,4.18125,4.18125,0,0,0,1.6895-1.1543,3.83159,3.83159,0,0,0,.8305-1.7422,3.96969,3.96969,0,0,0-.1494-2.0791A3.27134,3.27134,0,0,0,37.99459,152.788Z" fill="#463131"/>
            <path d="M66.49259,138.48332a3.34074,3.34074,0,0,0-3.3999.3008,4.40406,4.40406,0,0,0-1.2871,1.4717,4.095,4.095,0,0,0-.28759.9687,3.37779,3.37779,0,0,0,1.26609,3.1924,2.92247,2.92247,0,0,0,2.79791.501,3.4,3.4,0,0,0,.91059-6.4346Z" fill="#463131"/>
            <path d="M62.46579,152.94522a3.953,3.953,0,0,0-1.65379,2.0157,17.0456,17.0456,0,0,1-1.523,4.1201c-.72851,1.5039-1.624,3.8994-3.26071,4.6816-1.5894.7588-4.2359.4483-5.0962-1.2627-.3653-.7275-1.5694-.3213-1.2124.4385,1.3857,2.9551,5.8105,5.3867,8.9038,3.3174,2.2593-1.5108,3.5317-3.7637,4.97851-5.9932,1.45559-2.2431.88869-4.0029.75779-6.4297A1.21057,1.21057,0,0,0,62.46579,152.94522Z" fill="#463131"/>
          </g>
        </g>
        <g>
          <path d="M179.854,176.75412c-.08841-.1483-.19371-.3106-.30691-.4786a27.131,27.131,0,0,1-3.1946-6.4918,2.92066,2.92066,0,0,0-2.2452-2.0282l-.1229-.4352a3.02655,3.02655,0,0,0,.0654-1.7527,341.19019,341.19019,0,0,0-9.9557-33.7655,2.78506,2.78506,0,0,0,1.1748-2.7773,52.14594,52.14594,0,0,0-4.8616-14.8972c-1.1049-2.2517-3.9302-1.5102-4.84729.3037a2.21965,2.21965,0,0,0-1.29051-.8673,4.0172,4.0172,0,0,0-2.44249-.4261c-.03521.0048-.06331.0158-.09771.0214q-6.45794-.9636-12.9158-1.927c-3.3051-.4932-6.2364-1.1717-9.3163.4241a2.40162,2.40162,0,0,0-1.388,2.3484,2.81846,2.81846,0,0,0-.4524,4.6792,28.55878,28.55878,0,0,0-1.3631,11.4105,141.58532,141.58532,0,0,0-5.1779,17.8858c-.7746,3.5899-3.2233,10.3043-1.5137,14.211-.2262,2.0318-.4284,4.0677-.5835,6.1117a2.3388,2.3388,0,0,0,.3613,1.5088,2.53107,2.53107,0,0,0-2.2633,1.6382,10.26133,10.26133,0,0,0,3.2719,11.58,2.056,2.056,0,0,0,3.2289-.9544,2.3727,2.3727,0,0,0,2.6077-2.2482l-.0696-1.5542c.4968,1.0411.9859,2.0859,1.4857,3.1256,1.3001,2.7044,5.1229.7047,4.5963-1.9376-.0174-.0873-.0293-.1744-.0462-.2615a49.29408,49.29408,0,0,0,22.6618,4.0391,2.49131,2.49131,0,0,0,2.403-2.0169q4.3293.14715,8.69591-.0965a35.95047,35.95047,0,0,0,11.168,2.145c2.21029.1151,3.13969-1.8193,2.76619-3.5241A2.71864,2.71864,0,0,0,179.854,176.75412Zm-47.96881-45.1583c-.53,1.395-1.044,2.7958-1.5666,4.1933.60641-2.0823,1.2386-4.1589,1.9272-6.2226a2.43361,2.43361,0,0,0-2.2456-3.2879c.1783-.9416.403-1.8737.6656-2.7972a63.66326,63.66326,0,0,0,4.0653,6.3162A2.90161,2.90161,0,0,0,131.88519,131.59582Zm4.66,5.9951c.2034-1.7556.3647-3.5216.4729-5.3005.00191-.0313-.0035-.0575-.0025-.0882a2.75138,2.75138,0,0,0,2.5201-.1869c.0588.0778.1202.1532.1786.2312a2.72643,2.72643,0,0,0-1.9759,1.9181Q137.15144,135.87972,136.54519,137.59092Zm3.0697,29.5598c-.4063-1.9376-.8033-4.1578-1.3423-6.3384.5038.3832,1.0176.7519,1.5259,1.1286a26.13826,26.13826,0,0,0,.3639,5.3054Zm1.885-15.4744c-.1872-.0951-.3743-.1905-.5628-.2818q.564-.8916,1.116-1.7904Q141.76989,150.64227,141.49989,151.67632Zm3.6566-33.6696q.58665.0924,1.1731.1848-.56445.60975-1.05459,1.2595A3.32746,3.32746,0,0,0,145.15649,118.00672Zm.47851,50.1954c.25729-.5397.50879-1.0813.75889-1.6234q1.8651,1.2321,3.7676,2.4081Q147.89814,168.59592,145.635,168.20212Zm6.98809-45.8381c-.0066.0712-.0154.1419-.0222.2131a3.22122,3.22122,0,0,0-.7376-.2021q.2454-.6006.4908-1.2015a4.42043,4.42043,0,0,0,.5005-.6365q.1035.2184.2057.4507A3.3053,3.3053,0,0,0,152.62309,122.364Zm.6323,26.117c.059-.1964.1145-.3937.17261-.5902.15749.5519.30369,1.107.46549,1.6577Q153.57444,149.01482,153.25539,148.481Zm14.1263,20.1254q-.77385-.72555-1.5291-1.4664-.9201-2.6166-1.8141-5.2405Q165.71039,165.25292,167.38169,168.60642Z" fill="#56b5e2"/>
          <path d="M211.62028,158.12572a9.898,9.898,0,0,0-8.0929-4.6954c-1.0962-9.0241-8.0641-18.2871-14.2632-24.5599-5.7031-5.7707-14.7611-13.5458-23.4723-12.8575-.5573-1.5314-1.1272-3.0561-1.7332-4.5606,9.0275-2.0765,17.5288-6.0259,23.6012-13.1967a39.12207,39.12207,0,0,0,8.3412-17.1179c9.8607,2.5741,16.9951-10.2377,8.1124-16.4147-.693-.482-2.0063-.756-2.6204-1.2946q-1.81125.23865-.8794-.9002.15885-1.11525.2416-2.2395a49.77693,49.77693,0,0,0-.31629-10.8401c-.67611-4.9209-2.04561-13.951-6.77921-17.0277q.96765.12315,1.9353.2464c1.64091.2089,2.8194-2.0559,1.9194-3.3449a54.32855,54.32855,0,0,0-21.1616-17.8233,66.73085,66.73085,0,0,0-12.5696-4.5406,30.4671,30.4671,0,0,0-6.8095-1.3504c.5776-.7122,1.1226-1.4565,1.6458-2.2442a2.25254,2.25254,0,0,0-1.9298-3.363c-10.5369-.0238-21.1926.3991-31.4531,3.0076-7.1804,1.8254-16.7589,4.8301-21.645,10.9354a17.92868,17.92868,0,0,1-7.0472-7.3283,2.03194,2.03194,0,0,0-3.4876,0c-2.0748,4.623-3.7824,9.3115-2.2014,14.0662-8.3282,4.9263-10.9936,16.8127-11.89149,25.727-.18591,1.8463,2.23669,2.4538,3.40129,1.4088q1.998-1.79265,4.0433-3.5279a71.38955,71.38955,0,0,0-1.5102,9.4308c-.3169,3.5804-.773,7.7176.1312,11.3197a7.074,7.074,0,0,0-2.2692,1.1108c-2.4833,1.925-2.9937,5.4978-2.49839,8.4239.55429,3.2757,2.49639,6.6043,5.65669,7.9366,2.2345.942,5.1158.752,6.7385-1.065a42.79289,42.79289,0,0,0,11.7952,18.5972,48.99081,48.99081,0,0,0,20.3847,10.9514c-.5473,1.9942-1.0674,3.9981-1.576,6.0056a79.17239,79.17239,0,0,0-20.446,19.7371c-5.5639,7.5162-12.1729,17.9167-13.472,27.5187a7.9123,7.9123,0,0,0-7.5656,2.5124c-2.961,3.4057-1.9063,8.7564,1.3046,11.6127,3.4591,3.077,8.74291,2.3964,11.8122-.8961,3.989-4.279,2.01771-10.2113-1.5784-14.0212-.0212-.0225-.0451-.0369-.06689-.0578,1.57659-3.5583,2.71109-7.3618,4.43079-10.8588a97.20339,97.20339,0,0,1,7.9668-13.3022,107.44561,107.44561,0,0,1,16.5533-17.9424c-4.9124,20.4949-8.054,41.5649-11.2412,62.2964a2.91183,2.91183,0,0,0,2.7587,3.6216c.7165.0156,1.4328.0371,2.1493.0532-1.8314,15.8488-1.608,32.1806-2.3061,48.0851a2.58449,2.58449,0,0,0,1.8861,2.4773c2.5418.5111,5.0899.9795,7.6492,1.3734a128.82552,128.82552,0,0,0-.7805,13.0185,67.60852,67.60852,0,0,0-.0629,8.0165c-4.7828-2.8282-11.2862-4.5313-16.26849-2.5774-4.40661,1.7277-7.29671,7.1303-3.23021,10.8525,3.7861,3.4655,11.0324,2.9386,15.5917,1.7637,1.4703-.3786,7.3066-3.4185,7.48051-5.8736.01309-.0248.03329-.0415.04489-.0676,1.6372-3.697.7263-8.1287.7337-12.1141.0079-4.1753.0775-8.35.0909-12.525,1.045.1251,2.0912.2417,3.1417.3302,2.7549.2321,7.2401,1.2639,9.0965-1.5446,1.7944-2.7145.3799-7.8186.2314-10.8486-.235-4.7959-.4619-9.5926-.72709-14.3868,3.15949-.0117,6.31889-.0257,9.47869-.0131l5.3626.0213q1.78756.0072,3.5751.0142,2.47245-.7824,1.5375.4817c.3922.7558.0654,4.6173.1175,5.7387q.12255,2.6352.1315,5.2759a119.44121,119.44121,0,0,1-.6331,12.2885c-.1935,1.939,1.9188,2.9758,3.5131,2.6762a70.7897,70.7897,0,0,1,8.9985-1.0771c-.7587,4.7461-1.3385,9.5051-1.6319,14.3128-.2878,4.7131-.9619,10.0504-.245,14.8359a2.51437,2.51437,0,0,0,.3561,1.8284c.0101.0421.0147.0866.025.1285a1.78417,1.78417,0,0,0,1.5869,1.3381c3.4601,6.5873,17.3177,7.5099,19.4307-.5924,1.1181-4.2873-2.3417-7.8985-6.3708-8.572-3.1601-.528-7.0426.3916-10.2886,2.0226.1059-3.3757-.1529-6.8405-.1307-10.0843.03491-5.1133-.0643-10.2178-.2367-15.3253a89.16639,89.16639,0,0,1,10.73961.3866,3.06362,3.06362,0,0,0,3.05649-3.0564c-1.4252-15.6488-2.9498-31.2873-4.4704-46.9272.3326.006.6651.0156.9977.0214a3.2569,3.2569,0,0,0,3.11121-4.0841q-5.3-18.6483-10.94981-37.1941c-2.8308-9.2776-5.3796-18.8559-8.549-28.1131,7.6865,2.2831,14.77581,7.8349,20.1039,13.5461a55.68633,55.68633,0,0,1,7.7406,10.5523,37.22889,37.22889,0,0,1,1.814,3.7663c.9775,2.6782,1.6356,5.438,2.6059,8.1018a8.0056,8.0056,0,0,0-4.07059,9.225,8.969,8.969,0,0,0,11.89909,5.6325C211.631,168.44562,213.99088,162.53892,211.62028,158.12572Zm-8.8046-84.9123c-.33969,3.3114-3.3858,4.359-6.1383,3.7201a37.39624,37.39624,0,0,0-.005-7.5876A4.07574,4.07574,0,0,1,202.81568,73.21342ZM92.37719,174.15022a4.50643,4.50643,0,0,1-6.53,1.1989,4.887,4.887,0,0,1-1.0273-6.3098,6.071,6.071,0,0,1,5.0343-2.5404,1.687,1.687,0,0,0,1.3113.2315C92.63229,168.96452,94.03689,171.67772,92.37719,174.15022Zm22.3842,92.2149c-2.1971.2126-5.96839.7665-7.9712-.3193-3.1808-1.7245-1.5507-4.1321.8741-5.1867a10.1349,10.1349,0,0,1,6.5903-.0472c2.85241.7638,5.2685,2.4738,7.9099,3.7052C120.19389,265.17782,115.227,266.31972,114.76139,266.36512ZM88.44089,77.68242a3.305,3.305,0,0,1-2.7528-3.0504,3.62914,3.62914,0,0,1,1.7093-3.5377,6.82279,6.82279,0,0,1,4.1634-.8168,26.79375,26.79375,0,0,0,.1429,6.3975C90.67539,77.26882,89.82839,77.90132,88.44089,77.68242Zm7.3333-17.1099a6.53141,6.53141,0,0,0-2.0719.4313,3.742,3.742,0,0,0-1.4235,1.4996,5.346,5.346,0,0,0-.5271,2.8764,6.64,6.64,0,0,0-1.5856-.5774c.0674-3.7495-.1758-7.5202.104-11.272a71.41662,71.41662,0,0,1,3.0517-15.8588,1.49993,1.49993,0,0,0-1.8305-1.8304,42.2279,42.2279,0,0,0-6.6567,2.5802,24.56225,24.56225,0,0,1,10.0363-14.6803,1.715,1.715,0,0,0,.7659-1.8821c-.056-.177-.09979-.3505-.151-.5261a2.18177,2.18177,0,0,0-.1669-.5814,20.00373,20.00373,0,0,1-.6144-6.9469c.1167-.4661.2569-.9299.4114-1.3908a58.80454,58.80454,0,0,0,6.3679,6.99,1.6218,1.6218,0,0,0,1.9415.2505,73.48922,73.48922,0,0,1,47.1199-14.9569,28.21739,28.21739,0,0,0-2.662,3.3571,1.62435,1.62435,0,0,0,1.392,2.4257,58.18315,58.18315,0,0,1,39.8294,16.136q-.2328-.0264-.4655-.0527a1.834,1.834,0,0,0-1.5763,2.7468,45.67273,45.67273,0,0,1,8.3496,33.6576c-.1147-.4008-.2233-.8029-.35539-1.2002a2.49418,2.49418,0,0,0-1.39421-1.5684c-.0169-.0162-.0275-.0336-.0452-.0497q-4.48425-4.0311-8.9684-8.0624a1.88394,1.88394,0,0,0-3.1728,1.3143q-.1485,1.7133-.3015,3.426a54.98451,54.98451,0,0,0-6.1408-6.2813,2.12469,2.12469,0,0,0-.0598-.5008c-.50129-2.0123-3.0364-3.1852-4.6619-1.4823-1.0209,1.0695-1.0309,3.2654-1.1949,4.6187a33.67878,33.67878,0,0,0-.2569,4.7434c.0007.0366-.001.0798-.0018.1203A91.56473,91.56473,0,0,1,149.673,44.10892a1.66189,1.66189,0,0,0-2.803,1.1612,28.12151,28.12151,0,0,0,1.66129,10.8163A63.91659,63.91659,0,0,1,130.873,45.91762a1.54886,1.54886,0,0,0-2.60691,1.0798,13.35859,13.35859,0,0,0,1.7766,7.4645c-.2843-.0028-.5614-.0344-.8435-.0464-5.5431-.8027-10.8416-2.6533-14.8245-6.9035a2.13227,2.13227,0,0,0-3.6041,1.4928c.1296,2.1358.2145,4.2707.279,6.4068a38.71543,38.71543,0,0,1-9.2948-5.9982c-.9917-.8625-3.0883-.7286-3.3199.8765-.49789,3.4496-1.0211,6.8975-1.4753,10.3536A2.18705,2.18705,0,0,0,95.77419,60.57252ZM109.34,97.21452c-9.664-8.3547-13.29581-19.6276-12.43061-32.064a14.70481,14.70481,0,0,0,3.9965.5496,1.702,1.702,0,0,0,1.6767-1.6768c.179-2.8947.2016-5.7907.13741-8.6871.16529.0688.32649.1461.49139.2156a46.009,46.009,0,0,0,9.4777,5.1237,2.13068,2.13068,0,0,0,2.6804-2.0418q-.0393-2.4117-.1334-4.8178c5.7482,4.0019,12.814,5.3017,19.9406,5.5868a2.228,2.228,0,0,0,2.1521-2.7556,49.34047,49.34047,0,0,0,5.8425,2.9675c2.9185,1.2307,6.3544,3.0558,9.5533,3.1582a2.143,2.143,0,0,0,1.86541-1.07c.93379-1.6963.36309-3.0896-.11961-4.9173-.1097-.4156-.2147-.8342-.3197-1.2533q2.48685,1.66635,5.0931,3.1398c3.0736,1.7299,7.239,4.5648,10.7828,5.1092a3.04524,3.04524,0,0,0,2.2173-.3594,1.62418,1.62418,0,0,0,2.1597-1.8981,28.22515,28.22515,0,0,1-.4659-6.6005,100.63316,100.63316,0,0,1,6.9097,9.2955,1.73025,1.73025,0,0,0,1.649.8299,2.10985,2.10985,0,0,0,3.7639-.5382q.5184-1.29825,1.0368-2.5967a26.8736,26.8736,0,0,0,2.8967,1.4986,34.52235,34.52235,0,0,1-7.3566,31.8634c-8.9875,10.0075-23.5769,12.5851-36.4159,12.9428a70.62564,70.62564,0,0,1-17.77229-1.6521,2.1486,2.1486,0,0,0-1.08431-.2643A43.98973,43.98973,0,0,1,109.34,97.21452Zm75.59039,170.9599c1.50461,3.3406-3.3666,3.9398-5.7746,3.7155a11.85,11.85,0,0,1-6.3212-2.1042C176.48349,267.92342,183.112,264.13712,184.93038,268.17442Zm-20.9432-34.5209a107.19547,107.19547,0,0,0,.3955-12.399c-.1016-3.3756.5964-9.5162-1.9304-12.203-2.2774-2.4214-7.0457-1.4522-9.9667-1.4573q-8.4918-.0141-16.9818-.0953a2.90733,2.90733,0,0,0-2.8794,2.8795c.34061,7.5743.8108,15.1433,1.2341,22.7134l.0801,1.4328c-1.2133-.4109-3.7109-.0282-4.8642-.1a94.11739,94.11739,0,0,1-10.18439-1.1903c.67149-15.1813,2.09149-30.6575,1.60659-45.8477,18.7812.4562,37.5588,1.0631,56.3419,1.4492q1.7982,21.8793,3.6767,43.7507A75.15337,75.15337,0,0,0,163.98719,233.65352ZM179.189,182.445c-20.68071-.4242-41.36611-.547-62.04781-.8954,3.6361-23.2447,8.5582-46.2777,12.14081-69.5186a78.63156,78.63156,0,0,0,17.93069,1.4386,95.55212,95.55212,0,0,0,11.7852-1.0525c2.8972,12.4077,7.3869,24.599,10.9285,36.8454Q174.71214,165.81037,179.189,182.445Zm26.78309-16.6148a4.50674,4.50674,0,0,1-6.2258-1.9136c-1.18429-2.4423.5541-5.5129,2.9414-6.3885a1.40435,1.40435,0,0,0,.1922-.0931,5.59253,5.59253,0,0,1,4.3177,1.7755C208.93758,161.24412,208.13128,164.42132,205.97208,165.83022Z" fill="#3c3c3b"/>
          <path d="M167.36279,88.00952c-3.8653,1.9109-7.074,4.6736-11.1756,6.2415a36.85521,36.85521,0,0,1-11.8081,2.4142c-9.0515.3207-17.4079-2.9382-25.0524-7.528a.72925.72925,0,0,0-.8798,1.1404c6.836,7.2454,16.7939,10.6907,26.6757,10.3167,8.2889-.3135,19.2559-3.4534,24.4525-10.3724C170.63529,88.81032,168.65429,87.371,167.36279,88.00952Z" fill="#3c3c3b"/>
          <path d="M129.20529,67.59932a5.69231,5.69231,0,0,0-4.9575,6.6938c.1739,1.1808,1.9068.7962,1.9771-.2675.1742-2.6373,3.4514-4.6888,5.5429-2.5604.968.9851.8346,3.946,2.8168,3.4328a1.45281,1.45281,0,0,0,1.042-1.3687C135.78619,70.19882,132.44959,67.294,129.20529,67.59932Z" fill="#3c3c3b"/>
          <path d="M160.40819,66.93122c-3.7241-.4783-7.3614,2.6338-7.0049,6.4573.1179,1.2638,1.9768,1.6961,2.3336.3158.4944-1.9128,2.25411-3.9775,4.44611-3.4991,2.49739.5451,2.18029,2.7559,3.15289,4.4902a1.40217,1.40217,0,0,0,2.3936,0C167.89179,71.49912,163.38659,67.31372,160.40819,66.93122Z" fill="#3c3c3b"/>
          <path d="M114.37679,83.16982a5.34654,5.34654,0,0,0-6.5874-3.9886,6.27874,6.27874,0,0,0-3.7632,2.7475c-1.1585,1.8567-1.0647,4.8119,1.1147,5.9092.079.0398.1604.0675.2406.1014a4.94991,4.94991,0,0,0,5.1688,1.8728C113.37569,89.06282,114.87419,85.89062,114.37679,83.16982Z" fill="#f0c8d9"/>
          <path d="M184.74948,85.49532a5.41221,5.41221,0,0,0-3.7506-4.0676,6.06567,6.06567,0,0,0-5.4587,1.3079,5.11272,5.11272,0,0,0-1.7878,3.413,4.613,4.613,0,0,0-.1026,3.3438c1.4081,3.922,6.97121,4.4883,9.5814,1.5136A6.3618,6.3618,0,0,0,184.74948,85.49532Z" fill="#f0c8d9"/>
        </g>
      </g>
    </g>
  </g>
</svg>
