<svg xmlns="http://www.w3.org/2000/svg" viewBox="0 0 18.94202 21.0625">
  <title>Recurso19</title>
  <g id="08ce5f83-0ed8-45dc-bbb1-32754ae2add5" data-name="Capa 2">
    <g id="9437d05c-c214-40c2-96ce-05428455b278" data-name="Layer 6">
      <g>
        <path d="M5.66414,4.67576a2.60767,2.60767,0,1,0-3.145-.0001A4.09281,4.09281,0,0,0,0,8.44787v3.08369a4.12322,4.12322,0,0,0,1.40994,3.0883v4.54537A1.9001,1.9001,0,0,0,4.09166,20.8943,1.89813,1.89813,0,0,0,6.771,19.16524v-4.5438a4.05716,4.05716,0,0,0,1.4114-3.08987V8.44787A4.09273,4.09273,0,0,0,5.66414,4.67576ZM4.09166,1.04734A1.56133,1.56133,0,1,1,2.53143,2.60768,1.56234,1.56234,0,0,1,4.09166,1.04734ZM7.135,11.53157a3.01854,3.01854,0,0,1-1.20434,2.423l-.20706.15752v5.05312a.8507.8507,0,0,1-.849.84992.83874.83874,0,0,1-.48272-.1504l-.30027-.20957-.30017.20957a.84146.84146,0,0,1-.48429.1504.85123.85123,0,0,1-.84991-.84992v-5.0526l-.20613-.157a3.06966,3.06966,0,0,1-1.20382-2.42408V8.44787a3.04384,3.04384,0,0,1,6.08768,0Z" fill="#f46819"/>
        <path d="M18.84506,15.01011l-.95423-1.85485a4.0665,4.0665,0,0,0,.3186-1.57405V8.51532a4.07483,4.07483,0,0,0-2.50074-3.75284,2.59753,2.59753,0,1,0-3.14318-.00021,4.07541,4.07541,0,0,0-2.49865,3.75305v3.06589a4.0969,4.0969,0,0,0,.31609,1.57248l-.95528,1.858a.89916.89916,0,0,0,.03372.8693.88452.88452,0,0,0,.75786.42344H11.4681v2.86846a1.89275,1.89275,0,0,0,1.89119,1.88962,1.87343,1.87343,0,0,0,.77681-.16726,1.89261,1.89261,0,0,0,2.67052-1.72236V16.30442H18.0539a.87485.87485,0,0,0,.75335-.41936A.88973.88973,0,0,0,18.84506,15.01011ZM14.1361,1.15836a1.55007,1.55007,0,1,1-1.549,1.549A1.55264,1.55264,0,0,1,14.1361,1.15836Zm1.62317,14.09871v3.91581a.8439.8439,0,0,1-1.32248.69345l-.30017-.21114-.30121.21062a.82384.82384,0,0,1-.47613.14935.844.844,0,0,1-.84384-.84227V15.25707H10.47962L11.552,13.17014l-.11866-.23733a3.0363,3.0363,0,0,1-.31913-1.3516V8.51532a3.02394,3.02394,0,0,1,6.04789,0v3.06589a3.01363,3.01363,0,0,1-.32122,1.35107l-.12013.23785,1.07342,2.08694Z" fill="#f46819"/>
      </g>
    </g>
  </g>
</svg>
