<svg xmlns="http://www.w3.org/2000/svg" viewBox="0 0 162.55322 157.81506">
  <title>nosotrosRecurso 8</title>
  <g id="Capa_2" data-name="Capa 2">
    <g id="Editar">
      <g>
        <g>
          <path d="M96.36291,39.69382c-4.6997-3.1191-16.82759-3.666-24.5132-.3633.7378-1.2978,1.4053-2.6445,2.1997-3.8613a47.82317,47.82317,0,0,0,5.0635-10.3135c2.374-7.0273.96441-15.5713-5.76759-19.5752-7.43411-4.4228-15.66061.7285-18.728,7.9346-2.84571,6.6875-2.93991,13.875-1.33591,20.8799a14.05631,14.05631,0,0,0,.5312,1.7607,16.89417,16.89417,0,0,0,.0772,3.001,7.0128,7.0128,0,0,0,6.3164,6.4961,6.33006,6.33006,0,0,0,3.65911,7.164c8.46339,3.9952,19.13679,7.0254,28.18409,3.6514C99.12121,53.83152,104.13981,44.85492,96.36291,39.69382Z" fill="#d3634a"/>
          <path d="M61.04311,61.79342c-.6895-3.6045-3.4697-9.0674-7.1231-10.456a8.18133,8.18133,0,0,0-7.6552,1.0107,12.12037,12.12037,0,0,0-5.9737-8.9883c-7.8633-4.9316-19.041-.4492-25.1103,5.3721-.0381.0371-.0762.0771-.1143.1142a33.59282,33.59282,0,0,0-5.9985,3.2764c-5.92869,4.0361-9.7046,12.6348-6.15869,19.335,2.71429,5.1308,7.70259,6.2558,12.73919,5.6289,6.0894,1.8428,14.5723-.5567,19.2916-3.6309a26.13238,26.13238,0,0,0,6.4228-6.1592c.0098.3272.02.6573.0317.9795a13.90687,13.90687,0,0,0,.3653,2.628,7.10778,7.10778,0,0,0-1.0913,1.0429c-7.26029,8.5909,8.6635,18.7725,16.26271,13.2979C64.09871,80.08152,62.46981,69.25242,61.04311,61.79342Zm-8.3125.2276c.1035-1.4639,1.4546-.5323,0,0Z" fill="#d3634a"/>
          <path d="M64.22861,50.38032c-2.6699-3.4531-5.3716-7.1093-8.3467-10.2881-2.1967-2.3476-4.3891-5.2714-7.0551-7.0957a3.79444,3.79444,0,0,0-5.2549.8848c-3.854,6.1211,4.6665,13.335,7.9946,17.9443,2.5703,3.5596,5.3867,7.0401,8.2207,10.3926,2.2354,2.6436,5.1553,4.9502,8.7393,3.833C75.93961,63.74072,66.25351,52.99852,64.22861,50.38032Z" fill="#ff9f1d"/>
        </g>
        <path d="M162.3951,155.52582c-2.3457-4.6845-5.7851-8.749-8.8222-12.9961-3.0918-4.3261-5.14459-9.3037-7.9161-13.8379a41.575,41.575,0,0,0-19.852-17.2373c-8.39549-3.6513-17.2949-5.2226-25.9922-7.8662a23.46132,23.46132,0,0,1-12.1816-7.8222c-.7305-.8868-1.4151-1.8076-2.1055-2.7256-.4321-.5742-1.5166-1.5528-1.6768-2.2539-.3867-1.6934-1.8115-4.5127-.8525-6.1963,1.1138-1.9551-1.7798-3.9971-2.8506-2.0303a7.04506,7.04506,0,0,0-.7812,4.1338A18.259,18.259,0,0,0,80.4,92.47112a45.40162,45.40162,0,0,0,3.957,6.0274,22.9629,22.9629,0,0,0,5.0992,5.4795c3.894,2.9287,8.6538,4.4414,13.30711,5.6474,4.83349,1.252,9.53559,2.6534,14.28509,4.1827a58.96559,58.96559,0,0,1,13.3155,5.874c4.23341,2.6445,7.1387,6.1767,9.9199,10.2451,3.1104,4.5518,5.0986,9.7549,8.1602,14.3271,3.2421,4.8409,6.9648,9.6436,11.5742,13.2491A1.60855,1.60855,0,0,0,162.3951,155.52582Z" fill="#463131"/>
        <path d="M100.92491,41.88422c-2.3828-5.1845-8.7954-7.1152-13.9712-7.79a35.59162,35.59162,0,0,0-6.0815-.2676,27.87138,27.87138,0,0,0,5.1499-16.0098c-.1109-8.122-5.2525-15.791-13.3711-17.5732-4.22069-.9268-8.6611.9512-12.28369,2.9297a29.57914,29.57914,0,0,0-10.10061,9.209,31.14287,31.14287,0,0,0-4.8833,12.7412,11.5713,11.5713,0,0,0,.2813,5.0449,7.82675,7.82675,0,0,0-.9371-.1142,4.87463,4.87463,0,0,0-3.0898.8212,14.16468,14.16468,0,0,0-1.2251-1.2705c-.7681-1.4502-1.4077-3.0371-1.9556-4.3066a19.07035,19.07035,0,0,1-1.4956-6.7295,17.7188,17.7188,0,0,1,1.1875-7.2256c.76131-2.0293,2.7681-3.7676,2.437-6.0371a1.65468,1.65468,0,0,0-1.457-1.3682c-3.0249-.2568-4.6504,3.2793-5.6113,5.6495a21.50588,21.50588,0,0,0-1.3159,9.0742,18.73694,18.73694,0,0,0,1.6919,7.1592,22.80308,22.80308,0,0,0-6.709-1.3291c-4.2095-.1631-11.355.665-11.9141,5.9091a1.71745,1.71745,0,0,0,2.7803,1.4776,15.92567,15.92567,0,0,1,9.1382-2.6641c3.8247.0449,8.76121,1.5693,11.4067,4.5176a2.08549,2.08549,0,0,0,1.0044.6387,6.62893,6.62893,0,0,0-.0522,1.5488c.2768,3.1914,2.3598,6.3769,4,9.0185,1.9028,3.0655,4.021,5.9815,6.1254,8.9102a12.8001,12.8001,0,0,0,1.8033,2.3779c2.1137,2.2119,4.208,4.4414,6.4155,6.5616a46.25732,46.25732,0,0,0,5.5713,4.5927,1.65857,1.65857,0,0,0-.1441.2852,39.44214,39.44214,0,0,0-1.2124,5.2578,21.49456,21.49456,0,0,1-2.40469,5.2646c-1.74561,3.1631-4.20221,7.2539-7.93071,8.2735-3.6875,1.0088-6.00929-2.7569-7.0952-5.6612-.874-2.3378.2031-4.2509-.1792-6.5459-.2451-1.4746-.9556-3.8466-.085-5.2138,2.106-3.3135-2.3388-6.292-4.8647-3.4629-5.9273,6.6367-14.11919,13.3896-23.6441,12.0488-7.0752-.9931-10.937-10.0146-9.3017-16.3613,1.8178-7.0586,6.957-12.1973,13.5444-15.002,6.6343-2.8252,14.2573-2.4062,21.2368-1.5039a.28851.28851,0,0,0,.1948-.5185c-14.7001-11.4893-39.98339-.0342-41.5039,18.415-.7983,9.6895,4.9341,18.918,14.5293,21.1836,5.1963,1.2256,11.3384-.5312,15.9517-2.874a36.98541,36.98541,0,0,0,7.8608-5.4512c-.0962,2.334-.4262,4.709.5396,6.9151,2.165,4.9492,4.9946,9.3984,10.831,10.1103,5.8628.7158,10.66611-4.2803,13.524-8.7422,2.3725-3.7041,5.3916-9.2002,4.4262-13.8388a34.21437,34.21437,0,0,0,5.11191,2.1552c2.53509.8242,4.00579-3.0459,1.46679-3.8711-.0772-.0254-.1524-.0547-.2291-.08,0-.0215.0054-.042.0049-.0635-.0439-2.5176-1.2221-4.8692-2.3984-7.0908a2.10276,2.10276,0,0,0,.4512.3584,20.27671,20.27671,0,0,0,4.4755,2.0498c2.3658.7099,4.2652.3623,6.6446-.045a26.39867,26.39867,0,0,0,10.7026-4.3095C99.505,55.37742,103.99381,48.562,100.92491,41.88422Zm-38.6992,18.3692c-2.687-2.5537-5.7959-5.376-7.8193-8.4619-2.9576-4.5127-6.4727-8.5948-8.8672-13.4737A11.965,11.965,0,0,1,44.485,35.434a2.03528,2.03528,0,0,1-.0474-.5507c.0303-.0108.0581-.0206.1001-.0372,1.3272-.5117,3.6255,1.8243,4.4307,2.6231,1.4321,1.418,2.521,2.9785,4.0083,4.374,3.9717,3.7276,6.8061,7.9531,9.8359,12.419,1.6753,2.4687,3.28571,4.9746,4.74271,7.5781.74069,1.3232,1.29439,2.7598,1.90719,4.1553A42.63091,42.63091,0,0,1,62.22571,60.25342Zm28.5381-6.1074a17.29182,17.29182,0,0,1-7.5064,3.206,16.683,16.683,0,0,1-5.3066.4365c-1.4292-.2119-2.8516-.3525-4.29249-.4404a2.4441,2.4441,0,0,0-2.44481,2.7588c-1.55519-2.9404-3.4365-5.6973-5.22119-8.499-1.66411-2.6094-3.12211-5.2813-5.02-7.7412-.97511-1.2627-2.05421-2.4463-3.14651-3.6094-.89549-.9522-2.6231-2.0039-3.2524-3.1065-.1734-.3037-.3682-.6084-.5728-.9131a1.75967,1.75967,0,0,0-.6812-1.5976c-6.4209-5.2363-1.91209-15.0332,2.0796-20.3916,3.4727-4.6602,11.05331-10.2022,17.1949-8.4219,5.4521,1.5801,8.0131,8.1387,7.5566,13.3233-.6348,7.1943-4.9619,13.4668-10.40919,17.9179-2.57911,2.1084.26419,6.9033,3.20459,5.0449,3.23241-2.0419,7.3716-2.4257,11.10841-2.3203,3.69869.1026,8.43849.7578,11.04439,3.6875C98.45131,47.24852,93.65831,52.00632,90.76381,54.146Z" fill="#463131"/>
      </g>
    </g>
  </g>
</svg>
