<svg xmlns="http://www.w3.org/2000/svg" viewBox="0 0 21.74894 20.86279">
  <title>Recurso18</title>
  <g id="a3218de9-0fe1-4c1a-ba43-730a6fd47662" data-name="Capa 2">
    <g id="2bce9f79-832a-4466-83cc-eecf8102e771" data-name="Layer 6">
      <path d="M5.27622,20.86279a1.82284,1.82284,0,0,1-1.79-2.12793l.90723-5.28955L.55063,9.69922A1.81823,1.81823,0,0,1,1.55747,6.59814L6.869,5.82666l2.375-4.813V1.01318a1.818,1.818,0,0,1,3.26074.001l2.376,4.8125,5.31055.77148a1.8181,1.8181,0,0,1,1.00781,3.10107l-3.84375,3.74609.9082,5.28955a1.80873,1.80873,0,0,1-.72363,1.77832,1.83378,1.83378,0,0,1-1.915.13867l-4.75-2.498-4.75,2.498A1.82864,1.82864,0,0,1,5.27622,20.86279ZM10.32016,1.54541,7.80551,6.64063a.60214.60214,0,0,1-.45215.32813l-5.623.81689a.61758.61758,0,0,0-.3418,1.0542l4.06836,3.96631a.60019.60019,0,0,1,.17285.53125l-.96,5.60059a.61745.61745,0,0,0,.89648.65137l5.0293-2.64453a.60094.60094,0,0,1,.55859,0l5.0293,2.64453a.6244.6244,0,0,0,.65137-.04687.6148.6148,0,0,0,.24512-.60449L16.119,13.3374a.60019.60019,0,0,1,.17285-.53125l4.06934-3.96631a.61795.61795,0,0,0-.34277-1.0542l-5.62207-.81689a.601.601,0,0,1-.45215-.32812l-2.51562-5.0957a.64038.64038,0,0,0-1.1084.00049ZM7.26743,6.375h0Z" fill="#f46819"/>
    </g>
  </g>
</svg>
