<svg xmlns="http://www.w3.org/2000/svg" viewBox="0 0 21.5926 21.19117">
  <title>Recurso20</title>
  <g id="df0f2a8b-36f2-43c1-a940-d55661d0c2f6" data-name="Capa 2">
    <g id="99f19945-b1ea-46c1-9d2c-0c49b525fb15" data-name="Layer 6">
      <g>
        <path d="M10.79659,7.24707a.46055.46055,0,0,0,.32576-.135l3.15388-3.15434a2.334,2.334,0,0,0,0-3.2969,2.38708,2.38708,0,0,0-3.29736,0L10.79659.843,10.61394.66081a2.38708,2.38708,0,0,0-3.29736,0,2.33382,2.33382,0,0,0,0,3.2969l3.15425,3.15434A.46071.46071,0,0,0,10.79659,7.24707ZM7.55544,2.30945a1.40993,1.40993,0,0,1,2.407-.99711l.50841.508a.46059.46059,0,0,0,.65153,0l.508-.508a1.444,1.444,0,0,1,1.99431,0,1.41113,1.41113,0,0,1,0,1.99385L10.79659,6.13467,7.9681,3.30619A1.40146,1.40146,0,0,1,7.55544,2.30945Z" fill="#f46819"/>
        <path d="M4.98378,6.77275a2.29445,2.29445,0,1,0-2.7672-.00009A3.60119,3.60119,0,0,0,0,10.09177v2.71329a3.628,3.628,0,0,0,1.24059,2.71735V19.5218a1.67187,1.67187,0,0,0,2.3596,1.52137A1.67013,1.67013,0,0,0,5.95767,19.5218v-3.998a3.56983,3.56983,0,0,0,1.24187-2.71873V10.09177A3.60113,3.60113,0,0,0,4.98378,6.77275ZM3.60018,3.58016A1.37379,1.37379,0,1,1,2.22736,4.95307,1.37468,1.37468,0,0,1,3.60018,3.58016ZM6.278,12.80506a2.656,2.656,0,0,1-1.05968,2.132l-.18219.1386V19.5218a.74852.74852,0,0,1-.747.74783.738.738,0,0,1-.42474-.13233l-.26421-.1844-.26411.1844a.74039.74039,0,0,1-.42612.13233.749.749,0,0,1-.74782-.74783v-4.4457L1.98076,14.938A2.701,2.701,0,0,1,.92154,12.80506V10.09177a2.67823,2.67823,0,0,1,5.35646,0Z" fill="#f46819"/>
        <path d="M11.16972,11.5467a1.64779,1.64779,0,1,0-1.91183-.00009A2.49373,2.49373,0,0,0,7.721,13.84585v1.75581a2.51148,2.51148,0,0,0,.80321,1.83092v2.51581a1.244,1.244,0,0,0,1.68918,1.1604,1.24361,1.24361,0,0,0,1.68872-1.1604V17.4335a2.46847,2.46847,0,0,0,.80368-1.83184V13.84585A2.49349,2.49349,0,0,0,11.16972,11.5467ZM10.2139,9.48337a.7265.7265,0,1,1-.72627.72581A.72685.72685,0,0,1,10.2139,9.48337Zm1.5704,6.11829a1.56,1.56,0,0,1-.62139,1.25044l-.18228.13814v2.95815a.33212.33212,0,0,1-.50307.26457l-.26319-.18357-.26365.18311a.33279.33279,0,0,1-.50491-.26411V16.9907l-.18135-.13814a1.5855,1.5855,0,0,1-.62186-1.2509V13.84585a1.57086,1.57086,0,0,1,3.14172,0Z" fill="#f46819"/>
        <path d="M21.50729,15.86578l-.83962-1.632a3.578,3.578,0,0,0,.28033-1.385V10.15112a3.58538,3.58538,0,0,0-2.20036-3.30206A2.28553,2.28553,0,1,0,15.982,6.84887a3.58589,3.58589,0,0,0-2.19852,3.30225v2.69763a3.6048,3.6048,0,0,0,.27812,1.3836l-.84054,1.63481a.79115.79115,0,0,0,.02967.76488.77827.77827,0,0,0,.66683.37258h1.09885v2.52392a1.6654,1.6654,0,0,0,1.664,1.66264,1.6484,1.6484,0,0,0,.68351-.14717,1.66528,1.66528,0,0,0,2.34974-1.51547V17.00462h1.09746a.76976.76976,0,0,0,.66286-.369A.78286.78286,0,0,0,21.50729,15.86578ZM17.36395,3.67785a1.36388,1.36388,0,1,1-1.363,1.363A1.36615,1.36615,0,0,1,17.36395,3.67785Zm1.4282,12.40523v3.44546a.74253.74253,0,0,1-1.16363.61015l-.26411-.18578-.265.18532a.72488.72488,0,0,1-.41894.13141.74264.74264,0,0,1-.74249-.7411V16.08307H14.14666l.94357-1.83626-.10441-.20882a2.6716,2.6716,0,0,1-.28079-1.18925V10.15112a2.66072,2.66072,0,0,1,5.32144,0v2.69763a2.65164,2.65164,0,0,1-.28264,1.18879l-.1057.20928.94449,1.83626Z" fill="#f46819"/>
      </g>
    </g>
  </g>
</svg>
