<svg xmlns="http://www.w3.org/2000/svg" viewBox="0 0 260.42698 170.22876">
  <title>nosotrosRecurso 7</title>
  <g id="Capa_2" data-name="Capa 2">
    <g id="Editar">
      <g>
        <path d="M104.055,45.70935c1.5564-1.1119,2.8429-2.7605,4.9635-2.7922,1.0785-.0161,1.2087-.6496,1.4166-1.4415,1.7032-6.4865,5.9368-9.2261,12.4591-8.022a1.44712,1.44712,0,0,0,1.8115-.8616c5.1191-8.3272,14.6655-8.6206,20.4178-.5586a8.0288,8.0288,0,0,1,.981,5.051c-.0406.8036-.4292,1.7523,1.1298,2.0129,5.77.9644,8.3036,4.1541,8.1785,9.9336-.0067.31.009.6204.0142.9306-1.8863,5.1061-5.5265,7.111-10.9637,7.0004-11.0056-.224-22.0215-.201-33.0277.0071-3.7713.0713-6.4792-1.0462-8.2922-4.3179l.02.0413a6.41177,6.41177,0,0,1-.0246-5.1078l.0256-.0226C104.18218,47.29135,103.32688,46.11965,104.055,45.70935Z" fill="#b3dfe7"/>
        <path d="M2.574,45.96385c2.7837-1.9887,5.0847-4.9374,8.8774-4.994,1.9291-.0288,2.1618-1.1619,2.5337-2.5781,3.0463-11.6016,10.6183-16.5015,22.2838-14.3479,1.6557.3057,2.3366-.0715,3.24-1.541,9.1558-14.8938,26.23-15.4184,36.51832-.9992,1.7498,2.4524,1.9161,5.841,1.7546,9.0341-.0727,1.4373-.7677,3.1341,2.0207,3.6002,10.32,1.7248,14.8515,7.4297,14.6278,17.7667-.012.5544.0159,1.1097.0253,1.6645-3.3737,9.1325-9.8845,12.7184-19.6092,12.5205-19.6841-.4005-39.38662-.3595-59.07182.0127-6.7452.1275-11.5884-1.8711-14.831-7.7228l.0356.074c-1.07088-3.0403-1.5035-6.0834-.04388-9.1357l.04568-.0404C2.80146,48.79325,1.27176,46.69775,2.574,45.96385Z" fill="#d2ecf1"/>
        <path d="M7.70528,95.93925c2.02768-1.4486,3.70378-3.5964,6.46638-3.6377,1.4051-.0209,1.57462-.8463,1.8455-1.8779,2.219-8.4505,7.7344-12.0197,16.2316-10.451a1.88512,1.88512,0,0,0,2.36-1.1225c6.6691-10.8486,19.106-11.2307,26.6-.7278,1.2745,1.7863,1.3957,4.2546,1.2781,6.5805-.053,1.0469-.5592,2.2829,1.4719,2.6223,7.517,1.2564,10.8178,5.4119,10.6548,12.9413-.0087.4039.0117.8084.0185,1.2125-2.4574,6.6521-7.1999,9.2641-14.28343,9.12-14.3379-.2918-28.6892-.2619-43.028.0092-4.9132.0929-8.441-1.3629-10.8029-5.6253l.0259.0539a8.3537,8.3537,0,0,1-.032-6.6544l.0333-.0295C7.87106,98.00015,6.75676,96.47375,7.70528,95.93925Z" fill="#d2ecf1"/>
        <path d="M141.80558,98.27145c2.0277-1.4486,3.7038-3.5965,6.4663-3.6377,1.4052-.0209,1.5747-.8463,1.8456-1.8779,2.219-8.4506,7.7344-12.0197,16.2315-10.451a1.88532,1.88532,0,0,0,2.3601-1.1225c6.6691-10.8486,19.1059-11.2307,26.6-.7278,1.2745,1.7863,1.3956,4.2546,1.278,6.5804-.0529,1.047-.5591,2.283,1.4719,2.6224,7.5171,1.2564,10.8179,5.4119,10.6549,12.9413-.0087.4039.0116.8084.0185,1.2124-2.4575,6.6522-7.1999,9.2642-14.2834,9.12-14.338-.2917-28.6893-.2618-43.028.0093-4.9132.0929-8.441-1.3629-10.803-5.6253l.026.0538a8.35328,8.35328,0,0,1-.032-6.6544l.0333-.0294C141.97138,100.33235,140.85708,98.806,141.80558,98.27145Z" fill="#d2ecf1"/>
        <path d="M65.30078,19.54675c1.5564-1.1119,2.8429-2.7606,4.9634-2.7922,1.0786-.0161,1.2087-.6496,1.4167-1.4415,1.7032-6.4865,5.9368-9.2261,12.4591-8.022a1.44712,1.44712,0,0,0,1.8115-.8616c5.1191-8.3273,14.6655-8.6206,20.4178-.5587a8.02924,8.02924,0,0,1,.981,5.0511c-.0406.8036-.4292,1.7523,1.1298,2.0129,5.77.9643,8.3036,4.154,8.1785,9.9335-.0067.31.0089.6205.0142.9307-1.8863,5.1061-5.5265,7.111-10.9637,7.0003-11.0056-.2239-22.0215-.2009-33.0277.0071-3.7713.0713-6.4792-1.0461-8.2922-4.3179l.0199.0414a6.41242,6.41242,0,0,1-.0245-5.1079l.0255-.0226C65.428,21.12865,64.57268,19.95705,65.30078,19.54675Z" fill="#d2ecf1"/>
      </g>
      <path d="M209.055,131.70935c1.5564-1.1119,2.8429-2.7605,4.9635-2.7922,1.0785-.0161,1.2087-.6496,1.4166-1.4415,1.7032-6.4865,5.9368-9.2261,12.4591-8.022a1.44712,1.44712,0,0,0,1.8115-.8616c5.1191-8.3272,14.6655-8.6206,20.4178-.5586a8.0288,8.0288,0,0,1,.981,5.051c-.0406.8036-.4292,1.7523,1.1298,2.0129,5.77.9644,8.3036,4.1541,8.1785,9.9336-.0067.31.009.6204.0142.9306-1.8863,5.1061-5.5265,7.111-10.9637,7.0004-11.0056-.224-22.0215-.201-33.0277.0071-3.7713.0713-6.4792-1.0462-8.2922-4.3179l.02.0413a6.41177,6.41177,0,0,1-.0246-5.1078l.0256-.0226C209.18218,133.29135,208.32688,132.11965,209.055,131.70935Z" fill="#b3dfe7"/>
      <g>
        <polygon points="68.368 139.477 64.294 147.048 59.577 154.561 54.582 156.662 53.601 152.317 55.877 144.219 53.615 144.982 46.85 155.629 40.014 166.594 37.066 164.925 37.843 159.028 40.857 148.018 39.244 148.083 28.884 149.74 35.393 142.207 42.4 135.511 50.49 130.305 49.381 129.715 42.73 124.819 56.756 125.003 57.871 127.135 58.076 127.615 51.067 125.832 51.211 127.254 58.204 127.246 59.702 126.504 59.952 131.422 66.728 140.71 68.368 139.477" fill="#fbcd43"/>
        <polygon points="127.23 105.844 120.574 118.858 106.597 123.194 108.417 125.365 106.947 126.055 95.576 127.011 88.503 137.369 78.764 141.98 75.895 140.124 74.136 129.153 64.207 125.221 58.486 116.423 62.161 104.178 71.001 96.057 76.943 85.729 87.057 79.518 97.372 74.276 105.928 69.063 115.267 65.371 125.514 65.473 133.565 61.827 136.289 72.991 146.377 73.922 146.399 75.502 148.744 78.474 141.349 87.77 133.616 96.414 127.23 105.844" fill="#0d77b6"/>
        <path d="M117.25628,83.20835a7.81079,7.81079,0,0,0-6.15187-2.90607,9.03034,9.03034,0,0,0-6.35568,2.5818.60041.60041,0,0,0-.07106.105,9.12755,9.12755,0,0,0-3.35231,4.969,7.29336,7.29336,0,0,0,1.033,5.843,7.9629,7.9629,0,0,0,6.20436,3.44344,10.921,10.921,0,0,0,6.98261-1.82363,8.34281,8.34281,0,0,0,3.4959-5.73184,8.50221,8.50221,0,0,0-1.785-6.48076" fill="#fbcd43"/>
        <path d="M97.75548,95.4506a7.65841,7.65841,0,0,0-5.97737-1.47773,9.06184,9.06184,0,0,0-5.45548,2.96475.4383.4383,0,0,0,.07257.66707,7.42783,7.42783,0,0,0,.5513,9.0919,7.66963,7.66963,0,0,0,5.73492,2.22665,8.10043,8.10043,0,0,0,5.69788-2.36872,7.65314,7.65314,0,0,0,2.03055-5.69015,7.36454,7.36454,0,0,0-2.65437-5.41376" fill="#fbcd43"/>
        <path d="M81.70553,108.66782c-2.537-1.206-8.42637-.66088-9.15061,2.66056a.41159.41159,0,0,0,.21927.4864c-1.82825,3.03424-1.612,6.96716,1.23379,9.30035a8.20577,8.20577,0,0,0,5.66852,1.70164,6.36515,6.36515,0,0,0,5.08179-2.85666,8.2725,8.2725,0,0,0,.49564-6.20589c-.58367-2.23438-1.84521-4.27573-3.54839-5.08641" fill="#fbcd43"/>
        <polygon points="147.349 76.157 136.748 73.29 132.222 62.606 144.132 60.636 155.116 59.148 150.801 67.067 147.349 76.157" fill="#f19d2e"/>
        <polygon points="46.922 112.98 45.442 111.951 48.486 109.766 51.503 103.736 62.121 94.608 69.25 90.875 76.212 91.605 75.482 91.362 69.244 98.856 62.9 106.45 59.567 115.544 46.922 112.98" fill="#f19d2e"/>
        <polygon points="106.264 132.515 101.849 142.409 92.484 150.355 77.901 154.368 77.509 146.638 78.209 139.805 87.635 135.282 96.976 130.684 106.06 125.824 106.526 126.916 106.264 132.515" fill="#f19d2e"/>
        <path d="M156.45655,56.99951c-11.82812,3.68586-24.28161,4.09506-36.24869,7.13239A88.86442,88.86442,0,0,0,95.66839,74.544,91.44613,91.44613,0,0,0,76.39444,90.36529c-.95119-1.07781-2.84894-.56052-4.1429-.54353-3.4975.04632-7.27755-.52656-10.145,1.8051-3.14695,2.56018-5.72106,6.17039-8.43255,9.17991q-5.28562,5.86-10.56808,11.72a.57133.57133,0,0,0,.36441.90488q7.36553,1.94561,14.85156,3.28438c-2.85978,1.33259-2.80728,4.29734-1.74955,7.381A46.01765,46.01765,0,0,0,41.483,127.45861a.56824.56824,0,0,0,.12662,1.08244,28.65716,28.65716,0,0,1,6.64751,1.54414c-9.99676,3.90822-16.54084,12.64187-21.17787,22.092-.2301.46787.2949.88942.73192.74582q5.04932-1.67,10.09864-3.33689a32.52087,32.52087,0,0,0-2.37332,20.134.57221.57221,0,0,0,.90486.386,64.44978,64.44978,0,0,0,17.08591-22.02252,26.3851,26.3851,0,0,1,.80294,9.82227c-.037.37831.37063.83538.77051.60839A28.4941,28.4941,0,0,0,68.8112,141.29256a.60142.60142,0,0,0,.02007-.21927c2.51385,1.49318,5.213,1.5148,8.00325-1.09479.01079-.01081-.10344-.32118-.09109-.32427l.07257-.02934a112.86129,112.86129,0,0,1,.57132,11.317c.06022,1.487-.332,3.87116,1.12875,4.88257,2.5154,1.74487,10.50324-3.09755,12.60485-4.32823a66.97027,66.97027,0,0,0,13.74128-11.04678c1.28628-1.30789,3.10991-2.71305,3.709-4.549.83536-2.56173-.25018-6.87142-.67787-9.72345a92.66347,92.66347,0,0,0,20.15718-17.60628c12.84881-14.85309,21.64114-32.78518,29.09-50.80838a.557.557,0,0,0-.684-.76281M46.86743,113.14907q-2.04754.315-1.62444-1.30943,1.24378-1.37582,2.4876-2.75628,2.17491-2.41349,4.35138-4.827c3.10063-3.43725,6.09626-7.02121,9.32506-10.3411,2.46908-2.53857,4.49034-2.85667,7.84421-2.92769,1.64762-.03706,4.8965.5389,6.34644-.366a.47836.47836,0,0,0-.1081.74737A91.34461,91.34461,0,0,0,59.6915,115.82352c-3.92675-.64854-9.31272-.891-12.82407-2.67445M67.772,140.85093a27.32209,27.32209,0,0,1-9.17064,14.027c-.5513.44009-2.20043,1.995-2.988,1.53951-.09415-.0525.03247-2.31621.01857-2.63893a27.37061,27.37061,0,0,0-1.45922-7.45974.57056.57056,0,0,0-1.04383-.01081A62.10686,62.10686,0,0,1,38.668,166.67976c-1.66921,1.5426-1.79733,2.32393-2.49994.06949-.57594-1.85143-.261-4.49036-.09882-6.33406a31.779,31.779,0,0,1,3.40947-11.54708c.23467-.46788-.29956-.88942-.73192-.74582q-5.01228,1.65609-10.02612,3.31218c4.68953-9.15675,11.26452-17.44724,21.35543-20.82272a.57063.57063,0,0,0,.01084-1.04384,29.07652,29.07652,0,0,0-6.14108-1.8298,45.32027,45.32027,0,0,1,13.04489-2.53548,30.76062,30.76062,0,0,0,1.52718,3.13152.87632.87632,0,0,0-.08336-.05559,16.99427,16.99427,0,0,0-7.38565-1.22759c-.7273.04169-.596,1.16274.12818,1.12568a15.65535,15.65535,0,0,1,6.81273,1.14112.56773.56773,0,0,0,.77518-.55126c.806,1.41753,1.61671,2.66982,2.188,3.54689,1.63061,2.5,4.13678,6.141,7.07063,8.23027a.45236.45236,0,0,0-.25169.30728m8.7846-1.121s-.16832-.41846-.15131-.37677c-6.25068,5.15279-10.23459-1.6723-12.98622-5.61141-1.6538-2.3718-10.54033-14.60911-3.394-16.18258a97.03238,97.03238,0,0,0,16.69677,22.10281Zm30.818-7.17253c-.17916,4.83933-2.57256,6.55951-5.78284,9.5783a64.58175,64.58175,0,0,1-9.52732,7.56011c-2.19576,1.3959-11.334,7.09532-13.32593,4.112-.82457-1.23377-.23317-5.67935-.29645-7.20959q-.1413-3.41872-.281-6.83436c9.93809-3.95145,19.67544-7.37944,28.57738-12.83335.03553-.02007.06951-.04478.105-.0664a33.44886,33.44886,0,0,1,.53122,5.69324M128.2374,106.693a93.436,93.436,0,0,1-20.64825,18.36754.57256.57256,0,0,0-.91877.49876c.00311.02316.00617.051.01084.07566-9.02088,5.62221-19.27395,9.234-29.09159,13.136a.55786.55786,0,0,0-.15442-.264,86.50559,86.50559,0,0,1-16.78173-22.06885A90.71283,90.71283,0,0,1,97.614,74.68455,88.25261,88.25261,0,0,1,125.251,64.152c2.05369-.4092,4.11359-.76281,6.17807-1.10252a14.74015,14.74015,0,0,0,14.89326,14.586.52171.52171,0,0,0,.332.07411l.25786-.03088A149.3294,149.3294,0,0,1,128.2374,106.693m19.28478-30.23889a13.6046,13.6046,0,0,1-14.97356-13.59c7.76858-1.243,15.5634-2.2421,23.14047-4.461-2.53081,6.07773-5.22071,12.13076-8.16691,18.051"/>
        <path d="M118.99292,83.0158c-3.13922-3.92675-9.08417-3.7152-12.5075-.32581a.6621.6621,0,0,0-.06951.10655c-3.29053,2.5293-4.83934,6.94863-2.32083,10.81052,2.79951,4.29734,9.2818,4.34212,13.187,1.61981a8.45922,8.45922,0,0,0,1.71086-12.21107m-1.49777,10.55882c-2.74239,2.50923-7.53541,3.33226-10.74725,1.16429-4.88566-3.29983-2.60343-9.94581,2.01665-12.07054a.53316.53316,0,0,0,.32275-.48022,7.11232,7.11232,0,0,1,8.40785,11.38648"/>
        <path d="M98.70186,96.31934c-3.79244-3.13152-9.57986-2.10775-12.61253,1.51635a.50982.50982,0,0,0,.09109.75971,8.674,8.674,0,0,0,.74738,10.34573,8.94134,8.94134,0,0,0,12.63261.01236,9.0369,9.0369,0,0,0-.85854-12.63415m.44009,11.3803a7.80252,7.80252,0,0,1-10.43378,1.32487c-3.8866-2.90915-3.45113-8.89115.122-11.82193a.54424.54424,0,0,0,.20843-.41074,7.5251,7.5251,0,0,1,10.10335,10.9078"/>
        <path d="M80.88,107.84418c-2.75008-1.38818-9.078-.88789-9.796,2.798a.475.475,0,0,0,.244.54508,8.1869,8.1869,0,0,0,1.49471,10.37817c3.24888,2.77173,9.149,2.9246,11.54552-1.09325,2.07536-3.48049.19768-10.76729-3.48822-12.628m1.1844,13.32592c-2.78876,2.23437-7.08764,1.42833-9.32044-1.27082a7.28454,7.28454,0,0,1,.298-9.22933.55044.55044,0,0,0-.38759-.88633c1.82212-2.55864,8.0589-1.28936,9.43472.58987,2.0985,2.869,2.92,8.43717-.02469,10.79662"/>
        <path d="M77.64693,104.5164a7.34513,7.34513,0,0,0-7.03821,1.35112c-.55591.46633.12507,1.36965.6856.90023a6.16848,6.16848,0,0,1,5.90786-1.2106c.69026.21618,1.13959-.81994.44475-1.04076"/>
        <path d="M80.05362,101.891a5.586,5.586,0,0,0-6.6321-.53272c-.62076.37831.068,1.27391.6856.90023a4.44507,4.44507,0,0,1,5.25318.52809c.54508.48023,1.23685-.41383.69333-.8956"/>
        <path d="M99.99851,111.15743a6.05452,6.05452,0,0,1-6.30167,2.87828.56549.56549,0,0,0-.16677,1.118,7.22421,7.22421,0,0,0,7.50916-3.55306c.36752-.62692-.67632-1.06236-1.04072-.44317"/>
        <path d="M103.9802,112.115a8.54577,8.54577,0,0,1-5.76121,5.06787c-.6995.19456-.27332,1.24149.42312,1.04847a9.634,9.634,0,0,0,6.37881-5.67317.56591.56591,0,0,0-1.04072-.44317"/>
        <path d="M121.4619,80.24669a10.82983,10.82983,0,0,0-6.9672-2.58025c-.72575-.00926-.5914,1.11178.12818,1.1226a9.63757,9.63757,0,0,1,6.14569,2.35172c.55431.471,1.24764-.42154.69333-.89406"/>
        <path d="M119.00918,75.95507c-.70723-.1822-.86476.93884-.16677,1.11642a6.27111,6.27111,0,0,1,4.30812,3.81247.56537.56537,0,0,0,1.0485-.42154,7.45591,7.45591,0,0,0-5.18984-4.50735"/>
        <path d="M131.69334,96.40812a15.52387,15.52387,0,0,1-4.15841,5.81524c-.54352.474.1359,1.37891.6856.89869a16.74366,16.74366,0,0,0,4.51353-6.27076.56593.56593,0,0,0-1.04072-.44317"/>
        <path d="M131.21159,92.94893a15.2448,15.2448,0,0,1-3.31527,5.318c-.50186.52656.39527,1.21679.894.69333a16.04966,16.04966,0,0,0,3.462-5.56817c.25018-.681-.789-1.12876-1.04072-.44317"/>
        <path d="M55.21087,103.46978a19.79813,19.79813,0,0,1-5.437,5.965c-.58829.42773.09731,1.328.68715.89869a20.5322,20.5322,0,0,0,5.64383-6.17193c.366-.61766-.52189-1.3187-.894-.69178"/>
        <path d="M59.09841,101.52154l-4.29426,5.76736c-.43391.58369.457,1.27855.89252.69487q2.14939-2.88832,4.29421-5.77045c.43236-.58368-.457-1.27855-.89247-.69178"/>
        <path d="M92.24831,135.52057a33.31141,33.31141,0,0,1-7.21733,3.17476c-.69639.21464-.27025,1.26156.42157,1.04847a34.53985,34.53985,0,0,0,7.48131-3.32453c.62387-.37059-.06484-1.26619-.68555-.89869"/>
        <path d="M96.28438,136.782a14.3723,14.3723,0,0,1-7.86122,3.59322.56525.56525,0,0,0,.12813,1.12259,15.4782,15.4782,0,0,0,8.41864-3.81711c.54046-.48022-.14047-1.38509-.68555-.89869"/>
        <path d="M39.11275,154.36309a13.59265,13.59265,0,0,0-1.1566,9.3158c.16215.701,1.28784.5806,1.12413-.12971a12.66435,12.66435,0,0,1,1.07163-8.74292c.332-.65009-.70874-1.08862-1.03917-.44317"/>
        <path d="M43.31777,149.46986a16.23543,16.23543,0,0,0-2.622,9.5397c.02625.72729,1.15042.59295,1.12418-.12816a14.9153,14.9153,0,0,1,2.39184-8.71976c.39065-.6053-.49875-1.30634-.894-.69178"/>
        <path d="M64.334,141.74237a14.45583,14.45583,0,0,1-3.1624,6.36032c-.471.5528.42152,1.24612.894.69023a15.622,15.622,0,0,0,3.38784-6.88378c.15287-.71339-.9666-.874-1.11946-.16677"/>
      </g>
      <path d="M85.86591,139.00839c2.0277-1.4486,3.7038-3.5965,6.4663-3.6377,1.4052-.0209,1.5747-.8463,1.8456-1.8779,2.219-8.4506,7.7344-12.0197,16.2315-10.451a1.88532,1.88532,0,0,0,2.3601-1.1225c6.6691-10.8486,19.1059-11.2307,26.6-.7278,1.2745,1.7863,1.3956,4.2546,1.278,6.5804-.0529,1.047-.5591,2.283,1.4719,2.6224,7.5171,1.2564,10.8179,5.4119,10.6549,12.9413-.0087.4039.0116.8084.0185,1.2124-2.4575,6.6522-7.1999,9.2642-14.2834,9.12-14.338-.2917-28.6893-.2618-43.028.0093-4.9132.0929-8.441-1.3629-10.803-5.6253l.026.0538a8.35328,8.35328,0,0,1-.032-6.6544l.0333-.0294C86.03171,141.06929,84.91741,139.54289,85.86591,139.00839Z" fill="#d2ecf1"/>
    </g>
  </g>
</svg>
