<svg xmlns="http://www.w3.org/2000/svg" viewBox="0 0 156.85996 148.12439">
  <title>nosotrosRecurso 14</title>
  <g id="Capa_2" data-name="Capa 2">
    <g id="Editar">
      <g>
        <g>
          <g>
            <path d="M49.92837,45.98027a17.6092,17.6092,0,0,1,.7419,2.3058c.2547.8962,1.1969,1.5367,1.3099,2.4036a8.32871,8.32871,0,0,0,1.3488,4.3688,4.60747,4.60747,0,0,0,4.9576,2.0171c3.0421-.5587,6.7638-.7513,9.4421-2.432a5.27558,5.27558,0,0,0,.7753-.6028c2.8902,2.3451,8.1416,1.3037,7.7308-3.3511-.0038-.0503-.0085-.1075-.0132-.1598.519.0117,1.0325.0223,1.5297.0519a41.82669,41.82669,0,0,0,9.3555-.2657c3.8994-.6247,4.2157-5.6063,2.1274-8.0591a87.14889,87.14889,0,0,1-9.6611-14.2449c-1.1829-2.1269-2.0657-4.4245-3.1637-6.6002-1.2203-2.4176-2.9307-4.9598-3.6944-7.5395a3.3565,3.3565,0,0,0-1.945-2.2482,12.532,12.532,0,0,0-2.07509-5.3054c-1.11191-1.5176-3.44271-1.8309-4.49241,0-1.701,2.9681-1.0153,6.8546-1.0901,10.187a84.88851,84.88851,0,0,0,.9632,11.9372c.459,3.8429.4184,7.722.9981,11.5855.2354,1.5705.5058,3.1465.7676,4.7237-2.2917-1.343-4.8562-2.335-6.8043-4.181-1.2313-1.1666-2.4063-2.3942-3.5783-3.6235a14.42909,14.42909,0,0,0-3.0936-4.003,4.23671,4.23671,0,0,0-1.9404-.9732,6.90739,6.90739,0,0,1-1.6255-2.7668c-.7807-2.841-4.8266-2.1312-4.9785.6737a11.44428,11.44428,0,0,0,2.15221,7.0405C46.64067,40.01357,48.70807,43.062,49.92837,45.98027Z" fill="#ff8047"/>
            <path d="M60.70527,99.95767c.5291-3.5011-.57039-5.7913-3.5089-7.7449-1.8164-1.2082-3.3001-2.8758-5.055-4.2325a16.61118,16.61118,0,0,0,.8884-1.4595,2.985,2.985,0,0,0,.0405-2.7487,4.98521,4.98521,0,0,0,.6101-.7574c1.9154-2.9627,1.0504-6.5017.0118-9.6444-1.2625-3.8206-1.0076-6.4973,1.2942-9.8072a4.16828,4.16828,0,0,0-1.4992-5.7164c-2.5021-1.1872-4.9521-.6164-7.5454-.0161-1.9871.4606-7.2283-.6323-10.2135-1.1848a75.39131,75.39131,0,0,1-7.8665-1.8378c-5.009-2.5205-10.3687-4.5014-14.2524-8.6894-2.5637-2.6144-5.9838-1.0403-7.1207,1.525a1.67431,1.67431,0,0,0-1.5102,2.8002,73.91232,73.91232,0,0,0,10.1427,9.9509c3.8401,3.2355,6.8635,7.5034,10.9748,10.3687,4.3186,3.0091,8.9582,5.5085,13.27291,8.5335a72.04918,72.04918,0,0,0,6.40139,4.5523,29.75665,29.75665,0,0,1-8.0355,5.482c-6.41089,3.1208-12.4718,8.4664-17.4995,13.4606-2.2785,2.263-1.36439,6.7487,1.9691,7.459,5.2903,1.1275,11.0123-1.6388,16.1398-2.7808,3.2174-.7165,6.41-1.5456,9.6072-2.3451,2.8513-.713,5.4968-1.8909,8.4509-1.8909C58.20707,103.234,60.41387,101.88867,60.70527,99.95767Z" fill="#ff8047"/>
            <path d="M80.13807,105.76067a56.21047,56.21047,0,0,0-5.4936-2.1857c-.2019-.0693-.4957-.1516-.8331-.2416a11.505,11.505,0,0,0-6.3742-2.4071c-1.3746-1.8023-4.4518-2.6619-5.3651.6222-1.401,5.0433-.9748,10.4155-2.3096,15.5055a36.34379,36.34379,0,0,0-1.1682,8.2696,45.15759,45.15759,0,0,1-.4192,4.5743c-1.4813,3.3374-2.7764,6.6905-2.6705,10.496.113,4.027,5.6511,3.8147,6.1,0a15.46626,15.46626,0,0,1,1.0192-3.8285,4.42221,4.42221,0,0,0,3.2175-1.9037c2.9744-4.6146,5.422-9.4604,8.613-13.9399a18.64444,18.64444,0,0,1,4.0973-4.4455,8.65067,8.65067,0,0,0,3.5954-5.5783C82.41657,108.87457,82.041,106.64827,80.13807,105.76067Z" fill="#ff8047"/>
            <path d="M134.87837,93.02087c-3.4443-1.756-6.7109-3.763-9.965-5.8311-1.45249-.9234-2.89249-2.0759-4.3653-3.1477-.0195-.0927-.0296-.187-.0514-.2794a2.30208,2.30208,0,0,0-2.97279-1.6672c-.31251-.1656-.62741-.3253-.94531-.464-4.7713-2.0798-8.4212,3.9387-4.0973,7.0093.4232.3004.8432.6039,1.264.907a26.30808,26.30808,0,0,1-1.9668,3.9815c-1.9613,3.1552-5.4968,4.8368-7.0459,8.3138a5.026,5.026,0,0,0-.4333,1.719c-2.4086-.7021-5.4367.5654-5.4001,3.8206.0038.2783.01871.5556.0265.8331a11.027,11.027,0,0,0-5.2389-.7859c-.8876.0534-1.7704.1301-2.6588.1601a2.83077,2.83077,0,0,0-.7995.0156c-.08959-.0125-.1667-.0226-.2353-.0311a.04267.04267,0,0,0,.0156-.0648c-2.1515-4.0696-7.66389-1.385-7.3701,2.4738a2.73485,2.73485,0,0,0,1.0878,3.35c.907.5591,1.3816,2.1319,1.9481,2.9915a27.15888,27.15888,0,0,0,2.1788,2.9513c1.6746,1.9263,2.6003,4.3767,4.64351,6.0489a41.09743,41.09743,0,0,1,11.17039,14.3533c1.7494,4.0181,8.027,1.8417,7.9561-2.155-.1792-10.1333-4.1557-19.7974-4.4183-29.9569a12.89954,12.89954,0,0,0,6.0609-.0175,43.75183,43.75183,0,0,1,8.7323-.3713c6.1217.1395,12.2434.1668,18.3668.2108,3.0366.0218,4.5921-2.7523,4.1572-5.4579C143.80927,97.48637,138.47537,94.85487,134.87837,93.02087Z" fill="#ff8047"/>
            <path d="M144.94387,54.36917a7.8671,7.8671,0,0,0-1.06131.2996c-3.4233,1.0166-6.6719,2.6682-10.11069,3.6824a44.50614,44.50614,0,0,0-6.50521,2.2952,29.4748,29.4748,0,0,0-4.9177,1.262,3.3974,3.3974,0,0,0-5.90909.8404c-1.52261,3.9668-1.37151,8.1661-1.61151,12.3405-.1683,2.9148,3.5783,5.161,6.0299,3.461a38.13137,38.13137,0,0,0,4.8952-4.253,26.08026,26.08026,0,0,1,7.0131-4.4297c2.6409-1.3107,5.0799-2.9517,7.7551-4.227,1.1088-.5294,2.3611-.6047,3.4403-1.2055a26.08694,26.08694,0,0,1,2.3596-1.3543c.314-.0974.62731-.1971.9467-.2825C152.76356,61.33067,150.41806,53.28187,144.94387,54.36917Z" fill="#ff8047"/>
            <path d="M97.73807,49.529c1.33481,1.2117,2.5933,2.4904,4.0216,3.6149,2.7095,2.1304,5.9558,5.489,9.4547,6.0695,2.792.4637,5.49751-1.1552,5.5372-4.2176a75.80387,75.80387,0,0,1,.8214-10.7166c.5173-3.2421,1.7361-6.8168,1.7548-10.095.0413-7.3297,2.5364-14.254,2.7562-21.529a3.99438,3.99438,0,0,0-6.7693-2.8042,68.13905,68.13905,0,0,0-6.40379,7.9546c-1.90221,2.7955-4.92331,5.2763-6.24481,8.3468-2.2568,5.2409-6.5247,9.2637-9.2964,14.1507-.0234.0129-.0484.0219-.07179.0347a3.31915,3.31915,0,0,0-1.67061,3.8377c-.1247.3753-.2432.7524-.3437,1.1417C90.23087,49.40347,95.17207,51.57177,97.73807,49.529Z" fill="#ff8047"/>
          </g>
          <path d="M108.74567,55.10677c-12.3276-11.0824-33.4046-10.7107-45.027,1.1981a3.00644,3.00644,0,0,0-1.1003.2326,20.87859,20.87859,0,0,0-6.0672,3.3359c-2.0424,1.7596-2.8022,5.1181-3.75129,7.5197-2.66431,6.742-2.88321,13.712.61169,20.1532,3.184,5.8677,8.27331,12.457,14.737,14.8571a23.8833,23.8833,0,0,0,7.3507,1.4887,31.2625,31.2625,0,0,0,5.3931,2.3183c8.25851,2.6229,19.0782.748,25.7688-4.7791C120.42657,90.05857,122.31,67.3,108.74567,55.10677Z" fill="#ffa431"/>
        </g>
        <g>
          <path d="M155.93036,53.25567c-2.88549-4.3474-20.5448,1.1662-22.9253,1.6883-5.0074,1.0979-9.9276,3.8311-15.1766,3.7076h-.0132a2.767,2.767,0,0,0,.1589-.6402c.537-4.2047.49171-8.5432.92271-12.7764.45819-4.5009,1.02939-8.9898,1.42909-13.4969a90.82141,90.82141,0,0,0,.0125-13.3531c-.1964-3.421-.1551-6.9992-1.2429-10.2689a2.678,2.678,0,0,0,.2727-3.3398,1.38062,1.38062,0,0,0-2.3556,0c.1901.0549.074.1593-.3515.3132.3686-.369-.0296-.2049-.5618-.0588a4.24539,4.24539,0,0,0-2.0096,1.8499c-1.1697,1.6431-2.4718,3.371-3.4817,5.0998a134.48478,134.48478,0,0,1-8.1938,11.8125c-2.7172,3.6823-4.7245,7.7028-7.0973,11.6025a68.90541,68.90541,0,0,0-3.4989,5.9371,14.719,14.719,0,0,1-1.1041,1.7961c-.63509-1.1708-.9772-2.3841-1.5858-3.6071-1.1446-2.2999-2.35329-4.569-3.6624-6.7805-1.2787-2.1608-2.8918-4.0915-4.1472-6.2577a46.57488,46.57488,0,0,0-4.4619-5.8904c-1.7689-2.1671-2.88479-4.8243-4.1651-7.3003a59.95579,59.95579,0,0,0-3.6476-6.3099c-1.4314-2.1017-3.1629-4.0003-4.1307-6.3793a.8528.8528,0,0,0-1.6302,0,3.97232,3.97232,0,0,0-.11219.9261,1.20631,1.20631,0,0,0-.26031.5171c-1.8008,7.4854-1.0754,15.8724-.226,23.4376.4317,3.8488.8689,7.6881,1.253,11.5422.1208,1.2067.2556,2.4355.4387,3.6589-.1831-.1531-.3685-.3054-.547-.466-2.4032-2.1522-5.30739-3.6818-7.97939-5.4593-2.91591-1.9407-5.79061-3.8522-8.50941-6.077a35.69551,35.69551,0,0,1-3.7747-3.1033,34.71569,34.71569,0,0,0-2.4826-2.6661,1.0668,1.0668,0,0,0-.9397-1.5231c-.1567-.0074-.3125-.0175-.4684-.0296a1.1751,1.1751,0,0,0-1.4501,1.1045c-.0094.1103-.0126.2194-.018.3297a1.29214,1.29214,0,0,0-.0046.9394,10.07282,10.07282,0,0,0,.8197,3.4411c.7652,1.8,1.3045,3.6784,1.959,5.5221,1.2429,3.4984,3.1186,6.67,4.5562,10.0714,1.5141,3.5829,3.3219,7.0151,4.5002,10.7367.2322.7369.4527,1.4904.6849,2.2443a18.1019,18.1019,0,0,0-2.5364-1.029,42.65514,42.65514,0,0,0-8.0239-1.5153,67.26758,67.26758,0,0,1-7.2555-1.5736q-1.9392-.4764-3.8923-.8946a24.30507,24.30507,0,0,1-4.7488-1.7026c-2.488-1.0926-4.9621-2.2088-7.4814-3.2289A67.40323,67.40323,0,0,0,10.109,43.851c-3.5175-1.0024-10.9616-2.2602-10.0288,3.5448.2813,1.7486,1.998,3.2303,3.2868,4.2737,1.8944,1.5321,3.8097,3.0181,5.6051,4.6705,2.0292,1.8659,3.9204,3.7933,6.0883,5.5076,2.4296,1.9225,4.9513,3.7252,7.4799,5.5144,4.8508,3.4329,9.506,7.0568,14.7254,9.9147,1.9909,1.0898,4.2578,2.1713,5.771,3.8985.4941.5642.9975,1.1299,1.5336,1.6516-1.2678,1.0555-2.4975,2.1644-3.72939,3.2576q-5.15371,4.57845-10.45281,8.9968c-3.3204,2.7636-7.1714,5.0729-10.2323,8.1244a38.79885,38.79885,0,0,1-4.6575,4.1506,14.43623,14.43623,0,0,0-2.2325,1.398,3.95489,3.95489,0,0,0-.9414,2.5766,2.2928,2.2928,0,0,0,1.7027,2.2349c4.1417.8594,8.4657-.4641,12.5006-1.3395,2.3424-.5081,4.9287-.334,7.3241-.6589,2.7686-.3741,5.5022-.8521,8.2779-1.1467,4.4518-.4722,8.6317-2.8442,13.0897-2.9626a13.73171,13.73171,0,0,0,3.8519-.5853c-1.0263,5.5397-1.4355,11.2516-2.6955,16.7164a74.29729,74.29729,0,0,0-1.493,11.2717c-.2735,3.562-1.1891,6.6174.3366,10.0507a2.23222,2.23222,0,0,0,3.0492.7999c3.0079-1.7782,4.349-5.1267,6.3649-7.8135,2.4203-3.2256,4.9801-6.2994,7.66-9.3115a67.09654,67.09654,0,0,0,6.9017-9.0649c.9304-1.4845,2.591-3.3882,3.3406-5.3172.3304.4083.6608.8139.9772,1.2183q2.0958,2.67555,4.1386,5.3958c2.725,3.6181,5.0729,7.5662,7.90931,11.0887,2.82629,3.5089,5.96819,6.7486,8.79529,10.2584,1.1362,1.4115,1.3886,4.5885,3.4014,5.6663a2.06427,2.06427,0,0,0,2.0635,0c.0257-.0165.0522-.0324.0779-.0488a2.07543,2.07543,0,0,0,.7286-.8108,4.55183,4.55183,0,0,0,.5018.7847,1.2358,1.2358,0,0,0,1.7587,0c1.3505-1.7412.97881-3.8915.8089-5.9803a78.74633,78.74633,0,0,0-1.1237-7.7963c-.83139-4.5469-2.08439-9.0474-2.7437-13.6196-.3242-2.2594-.83069-4.5107-1.2546-6.7549a36.98952,36.98952,0,0,1-.5696-3.9999,12.07568,12.07568,0,0,1-.0218-1.435c.0078-.1776.0194-.2875.0257-.3526a.99361.99361,0,0,0,.4761-.4729,35.97321,35.97321,0,0,0,7.1363.3467c4.416-.067,8.853.2497,13.2721.3101,4.2617.0581,8.5179-.1032,12.7773-.0615,3.784.0362,7.1744,1.5234,10.9039,1.7346.5166.2334,1.04191.4461,1.5788.63a1.349,1.349,0,0,0,1.5125-1.9695c-.0951-.1341-.1957-.2657-.2946-.3979a2.1898,2.1898,0,0,0-2.1203-2.7055c-.106,0-.2073-.0058-.311-.0089a53.36354,53.36354,0,0,0-7.1581-5.4699c-3.6219-2.4324-7.02639-5.1478-10.4137-7.8899a92.82737,92.82737,0,0,1-8.8421-7.5107,41.04194,41.04194,0,0,0-3.6111-3.5155c-.1106-.0904-.22749-.1726-.342-.2603a10.11266,10.11266,0,0,0,2.33151-1.4572c1.90209-1.497,3.85479-2.8805,5.83419-4.2773a65.06894,65.06894,0,0,0,6.2386-4.8437c2.118-1.9193,5.1009-3.2141,7.5399-4.6911a37.99331,37.99331,0,0,0,6.5581-4.6007c1.4798-1.4026,5.00121-2.3724,5.56621-4.4257.02649-.196.05369-.392.07939-.5883.0008-.0137.0008-.021.0024-.0339a2.06121,2.06121,0,0,0,.0959-.3152A1.97414,1.97414,0,0,0,155.93036,53.25567Zm-62.6106-8.4594a9.0579,9.0579,0,0,0,1.3457-1.7997c1.1541-1.7455,2.3775-3.389,3.5931-5.0959,2.1835-3.0675,3.7116-6.5733,5.9121-9.6166,2.4251-3.3531,4.9895-6.601,7.3593-9.9938,1.2101-1.7338,2.2067-3.6387,3.50491-5.304a18.59032,18.59032,0,0,0,1.218-1.8358c.20649,2.1398-.01011,4.3423.03429,6.493a100.90541,100.90541,0,0,1-.233,14.0946c-.5088,4.2551-.974,8.5187-1.4642,12.7765-.487,4.2285-1.28809,8.8958-.8525,13.1657q-.21975-.26715-.4457-.5299c-5.1173-5.8708-13.1271-9.2824-20.643-11.1725-.0381-.0565-.07789-.1125-.1207-.1682-.046-.0577-.1138-.1481-.19019-.2517C92.67067,45.295,93.02757,45.05377,93.31977,44.79627ZM64.79327,5.97317c.0132.023.0272.0464.0412.0701,1.3598,2.3116,2.7071,4.598,3.8331,7.033,1.2445,2.69,2.5801,5.341,3.8697,8.0099a19.66827,19.66827,0,0,0,2.5637,3.2845c.9032,1.1233,1.7728,2.2591,2.563,3.4657a141.842,141.842,0,0,1,8.0488,13.682c.4707.9292.89611,2.2021,1.5086,3.3905a51.72,51.72,0,0,0-10.8486-.1621,19.18316,19.18316,0,0,0-6.4132,1.6952,1.80572,1.80572,0,0,0-1.04969-1.8305,50.47384,50.47384,0,0,1-1.73371-8.2447c-.4271-3.6355-.8961-7.2552-1.3832-10.8826-.51509-3.8455-.9125-7.704-1.066-11.5814A60.25274,60.25274,0,0,1,64.79327,5.97317ZM48.78287,41.57447c-1.56711-3.2549-3.39671-6.3594-4.78381-9.7086-.1761-.424-.3358-.8642-.4917-1.3087a87.61745,87.61745,0,0,0,10.2814,7.7289c1.4579,1.0071,2.9868,1.9103,4.472,2.875,1.4144.9183,2.5996,2.3451,4.02711,3.1711,1.51879.8798,2.66429,3.0055,4.307,3.7906.02089.0304.03969.0635.06079.0935q-.5484.3402-1.0895.701a1.25648,1.25648,0,0,0-.7332.1204c-3.7147,1.8959-6.7732,5.0113-9.4367,8.2385a57.97022,57.97022,0,0,1-2.0665-5.833A96.86822,96.86822,0,0,0,48.78287,41.57447Zm-9.23951,31.8056a146.41486,146.41486,0,0,1-13.5331-9.0295,102.50343,102.50343,0,0,1-12.9152-10.2299c-1.8196-1.7712-3.7824-3.3379-5.7336-4.9568-.3928-.3257-1.4417-1.0297-2.1718-1.7143,3.0335-.0047,6.308,1.5632,9.0353,2.3428,4.656,1.3313,8.85691,4.2718,13.6025,5.2544a125.97477,125.97477,0,0,0,13.6071,2.5684,33.46376,33.46376,0,0,1,6.8698,1.2421c1.60451.5011,2.9542,1.3263,4.46051,1.8656a30.11167,30.11167,0,0,0-4.60071,10.0486,23.3479,23.3479,0,0,0-.3227,9.0814c-.71059-.7309-1.6254-1.9108-2.0587-2.3943C44.19387,75.68977,41.59667,74.50687,39.54337,73.38007Zm18.5008,28.9376a2.59,2.59,0,0,1-.3748.1539,7.31,7.31,0,0,1-1.7159.2968,29.72093,29.72093,0,0,0-4.5048.556c-2.0105.4731-3.9734,1.1475-5.9605,1.7093a60.99713,60.99713,0,0,1-6.6851,1.1011c-2.0743.351-4.1471.7297-6.2355.9958-2.2138.281-4.5313.1025-6.7069.551-1.4323.2949-2.9767.734-4.543,1.08.9444-.8676,1.8413-1.7887,2.7444-2.6942,2.6963-2.7005,6.0961-4.8527,9.0199-7.3101,3.09891-2.6034,6.1263-5.3912,9.0376-8.2023,1.4642-1.414,2.8201-2.919,4.1736-4.4382a9.91527,9.91527,0,0,0,.9881-1.4065c.1457.0611.2875.1262.4395.1776q.4617.06435.9226.1212a2.4476,2.4476,0,0,0,.5579.0066,34.80888,34.80888,0,0,0,7.2252,11.4728,39.587,39.587,0,0,0,4.3201,3.9773,1.26325,1.26325,0,0,0-.10669.1605A2.55594,2.55594,0,0,0,58.04417,102.31767Zm21.49,8.8713c.4933-.6839-.5128.3362-.6701.5337-.4045.5089-.6219,1.0984-.9773,1.6435-.8462,1.301-1.6605,2.6229-2.4818,3.9398a64.441,64.441,0,0,1-6.6735,8.703c-2.3728,2.6732-4.557,5.4376-6.7599,8.244a47.13092,47.13092,0,0,0-2.9736,4.139c-.1099.1753-.2182.3506-.32809.5267.17149-1.7591.63589-3.5674.67479-5.1784a62.0239,62.0239,0,0,1,1.5227-10.9531,101.91692,101.91692,0,0,0,1.3769-10.369c.3335-3.3741.8362-6.7985.8635-10.1999a48.81055,48.81055,0,0,0,16.7077,7.2606,1.37406,1.37406,0,0,0,.0951,1.001c.0405.0775.08731.1531.12931.2298A1.97716,1.97716,0,0,0,79.53417,111.189Zm-3.8152-7.4874c-10.3538-3.595-20.0756-11.4888-23.2643-22.2723-1.7471-5.9067-.1972-12.09,2.8934-17.2295.2781-.4645.5774-.9121.88281-1.3527a1.774,1.774,0,0,0,1.30679-1.7389c2.87621-3.5678,6.40621-6.5597,9.0135-10.3527a1.11732,1.11732,0,0,0,.2119-.637c6.9119-3.6079,15.3145-3.38,23.0501-1.4833a1.52389,1.52389,0,0,0,1.8359.4855,60.241,60.241,0,0,1,7.127,2.5115,31.91472,31.91472,0,0,1,11.7143,8.318,17.455,17.455,0,0,1,1.1728,1.5316,1.33634,1.33634,0,0,0,.2548.3939,24.35275,24.35275,0,0,1,3.5837,12.4286,41.88649,41.88649,0,0,1-2.8894,15.148,27.52961,27.52961,0,0,1-9.1125,12.0725C95.69957,107.54007,84.50727,106.75187,75.719,103.70157Zm32.3401,26.9213c.5814,2.9748,1.1253,5.9589,1.4994,8.9683.1589,1.2721.1348,2.7858.2765,4.2422a9.07579,9.07579,0,0,1-.5703-.9993,15.44121,15.44121,0,0,0-1.8383-3.4571c-2.7857-3.3115-5.7072-6.5052-8.4883-9.8197-2.9409-3.5043-5.3853-7.4979-8.2163-11.1081a68.16025,68.16025,0,0,0-7.021-8.2904,40.10217,40.10217,0,0,0,11.0879-.3124,25.57741,25.57741,0,0,0,9.901-3.9061,1.29949,1.29949,0,0,0,.4668.355c.15741.0748.3171.1426.4777.21a7.88358,7.88358,0,0,0-.5985,3.7661,65.77971,65.77971,0,0,0,1.0341,9.0279C106.64007,122.95827,107.32277,126.858,108.05907,130.62287Zm18.1151-40.5542c1.5359,1.5044,3.3212,2.6023,4.9475,3.9773,3.4668,2.9319,7.0264,5.7555,10.7325,8.3811.533.378,1.0644.7703,1.5959,1.1701-.3663-.0218-.7325-.041-1.0949-.0557-4.017-.1641-8.0776.2264-12.0969.2813-4.2827.0584-8.5632.1788-12.8451.3-3.2549.0919-7.1114,1.1525-10.3094.1067.3273-.2524.653-.5088.9764-.7733,6.3664-5.2191,9.3174-12.8755,10.8852-20.6979.9453,1.0169,2.1539,1.9262,2.8957,2.7417C123.27317,87.05027,124.67577,88.60027,126.17417,90.06867Zm19.0814-30.3885c-3.1544,2.1796-6.5379,4.0065-9.7289,6.1315a50.80853,50.80853,0,0,0-3.9843,3.4095c-1.4548,1.2052-3,2.2992-4.5017,3.4463a26.85987,26.85987,0,0,0-3.611,3.0846,9.27174,9.27174,0,0,1-3.2549,2.6856,1.50086,1.50086,0,0,0-.32489.1555c-.10991-.0713-.14341-.0829-.02571.0206l-.0039.0031c-.0577-.0447-.1153-.0899-.1761-.1335a.20712.20712,0,0,0-.0187-.0098,29.27385,29.27385,0,0,0-3.152-16.7066c.1207.0195.2415.0397.3623.0569a20.64873,20.64873,0,0,0,4.2835.1434c4.5157-.2813,8.6122-2.1948,13.0032-2.9698,4.1791-.7367,8.4392-2.5207,12.6892-2.6567,1.0473-.0335,2.0884-.1037,3.1326-.1275C148.39046,57.37637,146.86467,58.56817,145.25556,59.68017Z" fill="#463131"/>
          <path d="M74.83527,70.40487a2.3811,2.3811,0,0,0-2.1919-2.3875,2.6407,2.6407,0,0,0-.9952-.0714,2.45819,2.45819,0,0,0-.4612.0745l-.0024.0011a2.19757,2.19757,0,0,0-1.1175.6647c-.06619.0697-.1308.1418-.1901.2182l-.0015.0027a2.47675,2.47675,0,0,0-.4177.8408,2.35091,2.35091,0,0,0-.0803.5552c-.00159.0339-.00859.0682-.00859.1017a2.4785,2.4785,0,0,0,.44419,1.4089,2.27351,2.27351,0,0,0,1.165.9164,1.87157,1.87157,0,0,0,.8486.1473,2.53094,2.53094,0,0,0,.8167-.0842,2.3813,2.3813,0,0,0,2.1919-2.3884Z" fill="#463131"/>
          <path d="M99.01987,68.66717c-.02731-.2003-.05381-.4002-.08181-.6008a2.25918,2.25918,0,0,0-2.1764-1.6575,2.27215,2.27215,0,0,0-1.4439.5229,2.44934,2.44934,0,0,0-.38489.1777,2.47495,2.47495,0,1,0,2.49739,4.2737l.0024-.0008c.1589-.0677.3077-.1425.3365-.1554a2.44494,2.44494,0,0,0,.9258-.902A2.48979,2.48979,0,0,0,99.01987,68.66717Z" fill="#463131"/>
          <path d="M98.00917,82.05617a.98117.98117,0,0,0-1.366,0c-1.5919,1.4864-1.588,4.2367-2.7975,6.0703a10.76913,10.76913,0,0,1-6.138,4.1284c-2.3565.6288-4.815-.6526-6.5379-2.2056-.6616-.5958-1.01689-1.4904-1.62389-2.1609a10.07677,10.07677,0,0,1-1.94271-2.3731,1.1895,1.1895,0,0,0-2.3245.3151,6.58952,6.58952,0,0,0,.9936,3.4155,16.47417,16.47417,0,0,0,1.906,3.0655,10.94694,10.94694,0,0,0,8.9621,4.0598,14.38769,14.38769,0,0,0,9.2044-4.9559C98.32327,89.20377,100.68207,84.58447,98.00917,82.05617Z" fill="#463131"/>
        </g>
      </g>
    </g>
  </g>
</svg>
