<svg xmlns="http://www.w3.org/2000/svg" viewBox="0 0 68.80167 40.13827">
  <title>nosotrosRecurso 10</title>
  <g id="Capa_2" data-name="Capa 2">
    <g id="Editar">
      <path d="M1.87487,25.46522c2.02771-1.4486,3.7038-3.5965,6.4663-3.6377,1.4052-.0209,1.5747-.8463,1.8456-1.8779,2.219-8.4506,7.7344-12.0197,16.2315-10.451a1.88532,1.88532,0,0,0,2.3601-1.1225c6.6691-10.8486,19.1059-11.2307,26.6-.7278,1.2745,1.7863,1.3956,4.2546,1.278,6.5804-.0529,1.047-.5591,2.283,1.4719,2.6224,7.5171,1.2564,10.8179,5.4119,10.6549,12.9413-.0087.4039.0116.8084.0185,1.2124-2.4575,6.6522-7.1999,9.2642-14.2834,9.12-14.338-.2917-28.6893-.2618-43.028.0093-4.9132.0929-8.441-1.3629-10.803-5.6253l.026.0538a8.35328,8.35328,0,0,1-.032-6.6544l.03331-.0294C2.04067,27.52612.92637,25.99972,1.87487,25.46522Z" fill="#d2ecf1"/>
    </g>
  </g>
</svg>
