<svg xmlns="http://www.w3.org/2000/svg" viewBox="0 0 133.67277 66.80608">
  <title>nosotrosRecurso 9</title>
  <g id="Capa_2" data-name="Capa 2">
    <g id="Editar">
      <g>
        <path d="M2.574,34.9604c2.7837-1.9887,5.0847-4.9374,8.8774-4.994,1.9291-.0288,2.1618-1.1619,2.5337-2.5781,3.0463-11.6016,10.6183-16.5015,22.2838-14.3479,1.6557.3057,2.3366-.0715,3.24-1.541,9.1558-14.8938,26.23-15.4184,36.5183-.9992,1.7498,2.4524,1.91611,5.841,1.7546,9.0341-.0727,1.4373-.7677,3.1341,2.0207,3.6002,10.32,1.7248,14.8515,7.4297,14.62781,17.7667-.012.5544.01589,1.1097.02529,1.6645-3.3737,9.1325-9.8845,12.7184-19.6092,12.5205-19.68409-.4005-39.3866-.3595-59.0718.0127-6.7452.1275-11.5884-1.8711-14.831-7.7228l.0356.074c-1.0709-3.0403-1.5035-6.0834-.0439-9.1357L.981,38.274C2.80147,37.7898,1.27177,35.6943,2.574,34.9604Z" fill="#d2ecf1"/>
        <path d="M82.30077,55.5433c1.5564-1.1119,2.8429-2.7606,4.9634-2.7922,1.0786-.0161,1.2087-.6496,1.4167-1.4415,1.7032-6.4865,5.9368-9.2261,12.4591-8.022a1.44712,1.44712,0,0,0,1.8115-.8616c5.1191-8.3273,14.6655-8.6206,20.41781-.5587a8.02935,8.02935,0,0,1,.981,5.0511c-.04061.8036-.42921,1.7523,1.12979,2.0129,5.77.9643,8.3036,4.154,8.1785,9.9335-.0067.31.0089.6205.0142.9307-1.8863,5.1061-5.52649,7.111-10.9637,7.0003-11.0056-.2239-22.0215-.2009-33.0277.0071-3.7713.0713-6.4792-1.0461-8.2922-4.3179l.0199.0414a6.41242,6.41242,0,0,1-.0245-5.1079l.0255-.0226C82.428,57.1252,81.57267,55.9536,82.30077,55.5433Z" fill="#d2ecf1"/>
      </g>
    </g>
  </g>
</svg>
