<?xml version="1.0" encoding="UTF-8"?><svg xmlns="http://www.w3.org/2000/svg" xmlns:xlink="http://www.w3.org/1999/xlink" contentScriptType="text/ecmascript" width="144" zoomAndPan="magnify" contentStyleType="text/css" viewBox="0 0 144 143.999998" height="143.999998" preserveAspectRatio="xMidYMid meet" version="1.0"><defs><clipPath id="clip-0"><path d="M 23 6.03125 L 144 6.03125 L 144 114 L 23 114 Z M 23 6.03125 " clip-rule="nonzero"/></clipPath><clipPath id="clip-1"><path d="M 60 6.03125 L 144 6.03125 L 144 98 L 60 98 Z M 60 6.03125 " clip-rule="nonzero"/></clipPath><clipPath id="clip-2"><path d="M 23 6.03125 L 144 6.03125 L 144 126 L 23 126 Z M 23 6.03125 " clip-rule="nonzero"/></clipPath><clipPath id="clip-3"><path d="M 59 6.03125 L 144 6.03125 L 144 96 L 59 96 Z M 59 6.03125 " clip-rule="nonzero"/></clipPath></defs><path fill="rgb(39.219666%, 70.979309%, 96.469116%)" d="M 94.730469 96.851562 L 76.804688 78.886719 C 76.378906 78.457031 75.867188 78.183594 75.273438 78.066406 C 74.683594 77.949219 74.105469 78.003906 73.546875 78.234375 C 72.988281 78.46875 72.542969 78.832031 72.207031 79.335938 C 71.871094 79.839844 71.703125 80.394531 71.703125 80.996094 L 71.703125 122.875 C 71.703125 123.1875 71.75 123.496094 71.847656 123.792969 C 71.941406 124.089844 72.082031 124.367188 72.265625 124.621094 C 72.449219 124.875 72.667969 125.097656 72.917969 125.28125 C 73.171875 125.46875 73.449219 125.609375 73.746094 125.710938 C 74.050781 125.8125 74.367188 125.863281 74.6875 125.863281 C 75.160156 125.863281 75.605469 125.757812 76.023438 125.550781 C 76.445312 125.339844 76.796875 125.046875 77.078125 124.667969 L 95.003906 100.753906 C 95.21875 100.46875 95.378906 100.152344 95.480469 99.808594 C 95.582031 99.460938 95.621094 99.109375 95.59375 98.753906 C 95.570312 98.394531 95.480469 98.050781 95.332031 97.722656 C 95.183594 97.398438 94.984375 97.105469 94.730469 96.851562 Z M 94.730469 96.851562 " fill-opacity="1" fill-rule="nonzero"/><path fill="rgb(9.799194%, 46.269226%, 82.348633%)" d="M 81.609375 90.148438 L 63.683594 84.171875 C 63.144531 83.992188 62.601562 83.96875 62.050781 84.097656 C 61.5 84.226562 61.023438 84.492188 60.625 84.890625 C 60.222656 85.292969 59.957031 85.765625 59.828125 86.316406 C 59.699219 86.867188 59.722656 87.414062 59.902344 87.949219 L 71.851562 123.820312 C 71.949219 124.117188 72.09375 124.394531 72.277344 124.644531 C 72.464844 124.898438 72.683594 125.117188 72.9375 125.300781 C 73.195312 125.484375 73.472656 125.625 73.769531 125.722656 C 74.070312 125.816406 74.375 125.863281 74.6875 125.863281 L 74.875 125.863281 C 75.203125 125.84375 75.519531 125.769531 75.824219 125.644531 C 76.128906 125.519531 76.402344 125.351562 76.652344 125.132812 C 76.898438 124.917969 77.105469 124.667969 77.269531 124.382812 C 77.4375 124.097656 77.550781 123.796875 77.617188 123.472656 L 83.589844 93.582031 C 83.664062 93.222656 83.671875 92.863281 83.613281 92.503906 C 83.554688 92.144531 83.433594 91.804688 83.25 91.488281 C 83.066406 91.171875 82.835938 90.898438 82.550781 90.667969 C 82.269531 90.4375 81.953125 90.265625 81.609375 90.148438 Z M 81.609375 90.148438 " fill-opacity="1" fill-rule="nonzero"/><g clip-path="url(#clip-0)"><path fill="rgb(12.939453%, 58.81958%, 95.289612%)" d="M 142.125 6.867188 C 141.648438 6.535156 141.121094 6.355469 140.539062 6.328125 C 139.960938 6.304688 139.417969 6.4375 138.914062 6.730469 L 25.386719 72.492188 C 24.878906 72.785156 24.492188 73.195312 24.226562 73.71875 C 23.957031 74.242188 23.855469 74.796875 23.914062 75.382812 C 23.976562 75.964844 24.1875 76.488281 24.554688 76.945312 C 24.921875 77.40625 25.386719 77.726562 25.945312 77.914062 L 79.601562 95.8125 L 121.304688 113.699219 C 121.511719 113.789062 121.726562 113.851562 121.949219 113.890625 C 122.171875 113.933594 122.394531 113.945312 122.617188 113.9375 C 122.84375 113.925781 123.0625 113.890625 123.28125 113.832031 C 123.5 113.769531 123.707031 113.6875 123.902344 113.578125 C 124.101562 113.472656 124.285156 113.34375 124.453125 113.195312 C 124.621094 113.046875 124.773438 112.878906 124.90625 112.699219 C 125.035156 112.515625 125.144531 112.320312 125.234375 112.113281 C 125.320312 111.90625 125.382812 111.691406 125.421875 111.46875 L 143.347656 9.835938 C 143.449219 9.265625 143.390625 8.710938 143.167969 8.171875 C 142.949219 7.636719 142.597656 7.199219 142.125 6.867188 Z M 142.125 6.867188 " fill-opacity="1" fill-rule="nonzero"/></g><g clip-path="url(#clip-1)"><path fill="rgb(9.799194%, 46.269226%, 82.348633%)" d="M 142.847656 11.050781 C 143.066406 10.746094 143.222656 10.410156 143.316406 10.046875 C 143.410156 9.683594 143.433594 9.3125 143.386719 8.941406 C 143.339844 8.566406 143.230469 8.214844 143.050781 7.882812 C 142.871094 7.554688 142.640625 7.265625 142.351562 7.023438 C 142.066406 6.78125 141.742188 6.597656 141.386719 6.476562 C 141.03125 6.355469 140.667969 6.300781 140.292969 6.320312 C 139.914062 6.335938 139.554688 6.417969 139.210938 6.570312 C 138.867188 6.722656 138.5625 6.933594 138.300781 7.203125 L 60.390625 89.414062 L 82.875 97.1875 Z M 142.847656 11.050781 " fill-opacity="1" fill-rule="nonzero"/></g><path fill="rgb(9.799194%, 46.269226%, 82.348633%)" d="M 7.300781 118.0625 C 6.523438 118.0625 5.847656 117.800781 5.277344 117.273438 C 3.785156 115.902344 2.320312 114.492188 0.878906 113.046875 C 0.597656 112.765625 0.382812 112.445312 0.230469 112.078125 C 0.078125 111.710938 0.00390625 111.328125 0.00390625 110.933594 C 0.00390625 110.539062 0.078125 110.15625 0.230469 109.789062 C 0.382812 109.421875 0.597656 109.101562 0.878906 108.820312 C 1.15625 108.539062 1.480469 108.324219 1.847656 108.171875 C 2.210938 108.019531 2.59375 107.941406 2.988281 107.941406 C 3.386719 107.941406 3.765625 108.015625 4.132812 108.167969 C 4.5 108.320312 4.820312 108.535156 5.101562 108.8125 C 6.488281 110.203125 7.898438 111.558594 9.328125 112.875 C 9.78125 113.289062 10.078125 113.800781 10.214844 114.398438 C 10.355469 115 10.3125 115.585938 10.085938 116.160156 C 9.863281 116.734375 9.496094 117.195312 8.988281 117.542969 C 8.480469 117.890625 7.917969 118.0625 7.300781 118.0625 Z M 7.300781 118.0625 " fill-opacity="1" fill-rule="nonzero"/><path fill="rgb(9.799194%, 46.269226%, 82.348633%)" d="M 48.003906 137.761719 C 45.117188 137.75 42.261719 137.453125 39.4375 136.871094 C 39.035156 136.804688 38.664062 136.664062 38.320312 136.445312 C 37.976562 136.226562 37.6875 135.953125 37.457031 135.617188 C 37.226562 135.28125 37.070312 134.914062 36.992188 134.515625 C 36.910156 134.117188 36.910156 133.71875 36.992188 133.320312 C 37.070312 132.921875 37.226562 132.558594 37.457031 132.222656 C 37.691406 131.886719 37.976562 131.613281 38.320312 131.394531 C 38.664062 131.175781 39.035156 131.035156 39.4375 130.96875 C 39.839844 130.90625 40.234375 130.921875 40.628906 131.019531 C 43.070312 131.519531 45.53125 131.777344 48.023438 131.78125 L 49.382812 131.78125 C 49.785156 131.746094 50.179688 131.789062 50.5625 131.917969 C 50.945312 132.050781 51.28125 132.25 51.578125 132.527344 C 51.875 132.800781 52.101562 133.125 52.261719 133.496094 C 52.417969 133.867188 52.492188 134.253906 52.484375 134.660156 C 52.5 135.054688 52.4375 135.4375 52.300781 135.808594 C 52.164062 136.179688 51.957031 136.511719 51.6875 136.800781 C 51.417969 137.09375 51.105469 137.320312 50.746094 137.484375 C 50.386719 137.652344 50.007812 137.742188 49.609375 137.753906 L 48.050781 137.753906 Z M 26.59375 132.039062 C 26.109375 132.039062 25.652344 131.929688 25.222656 131.707031 C 22.28125 130.167969 19.449219 128.445312 16.730469 126.546875 C 16.417969 126.316406 16.164062 126.03125 15.960938 125.703125 C 15.757812 125.371094 15.628906 125.011719 15.566406 124.628906 C 15.503906 124.246094 15.511719 123.867188 15.597656 123.488281 C 15.683594 123.109375 15.839844 122.761719 16.058594 122.441406 C 16.28125 122.125 16.554688 121.859375 16.878906 121.644531 C 17.203125 121.433594 17.554688 121.289062 17.933594 121.214844 C 18.316406 121.140625 18.695312 121.140625 19.078125 121.210938 C 19.457031 121.285156 19.8125 121.425781 20.136719 121.636719 C 22.640625 123.402344 25.25 124.996094 27.964844 126.421875 C 28.261719 126.574219 28.523438 126.773438 28.753906 127.015625 C 28.984375 127.257812 29.171875 127.53125 29.308594 127.835938 C 29.449219 128.140625 29.53125 128.460938 29.5625 128.792969 C 29.59375 129.128906 29.570312 129.457031 29.492188 129.78125 C 29.414062 130.109375 29.28125 130.410156 29.101562 130.691406 C 28.921875 130.972656 28.699219 131.21875 28.433594 131.425781 C 28.171875 131.632812 27.882812 131.789062 27.566406 131.898438 C 27.25 132.007812 26.925781 132.0625 26.589844 132.0625 Z M 26.59375 132.039062 " fill-opacity="1" fill-rule="nonzero"/><path fill="rgb(9.799194%, 46.269226%, 82.348633%)" d="M 63.367188 134.558594 C 63.019531 134.558594 62.683594 134.503906 62.359375 134.390625 C 62.03125 134.277344 61.734375 134.113281 61.464844 133.894531 C 61.199219 133.679688 60.972656 133.421875 60.792969 133.128906 C 60.613281 132.832031 60.488281 132.515625 60.417969 132.175781 C 60.347656 131.839844 60.335938 131.5 60.382812 131.15625 C 60.429688 130.8125 60.535156 130.488281 60.695312 130.183594 C 60.851562 129.878906 61.058594 129.605469 61.3125 129.371094 C 61.566406 129.136719 61.851562 128.953125 62.171875 128.816406 C 63.894531 128.082031 65.558594 127.234375 67.171875 126.28125 C 67.511719 126.09375 67.875 125.976562 68.261719 125.925781 C 68.648438 125.878906 69.03125 125.90625 69.40625 126.007812 C 69.785156 126.113281 70.128906 126.28125 70.4375 126.515625 C 70.746094 126.753906 71 127.039062 71.199219 127.375 C 71.398438 127.710938 71.523438 128.070312 71.582031 128.457031 C 71.636719 128.84375 71.621094 129.226562 71.527344 129.605469 C 71.433594 129.984375 71.273438 130.332031 71.046875 130.648438 C 70.816406 130.960938 70.539062 131.222656 70.207031 131.429688 C 68.375 132.515625 66.476562 133.476562 64.519531 134.316406 C 64.152344 134.476562 63.765625 134.554688 63.367188 134.558594 Z M 63.367188 134.558594 " fill-opacity="1" fill-rule="nonzero"/><g clip-path="url(#clip-2)"><path stroke-linecap="round" transform="matrix(5.975103, 0, 0, 5.978288, 0.00000125, 0.290545)" fill="none" stroke-linejoin="round" d="M 23.499855 1.5052 L 4.499791 12.505292 L 10.499949 14.504715 L 12.499784 20.504944 L 13.500028 15.50508 L 20.499776 18.504868 Z M 23.499855 1.5052 " stroke="rgb(0%, 0%, 0%)" stroke-width="1" stroke-opacity="1" stroke-miterlimit="4"/></g><g clip-path="url(#clip-3)"><path stroke-linecap="round" transform="matrix(5.975103, 0, 0, 5.978288, 0.00000125, 0.290545)" fill="none" stroke-linejoin="round" d="M 13.500028 15.50508 L 23.499855 1.5052 L 10.499949 14.504715 " stroke="rgb(0%, 0%, 0%)" stroke-width="1" stroke-opacity="1" stroke-miterlimit="4"/></g><path stroke-linecap="round" transform="matrix(5.975103, 0, 0, 5.978288, 0.00000125, 0.290545)" fill="none" stroke-linejoin="round" d="M 12.499784 20.504944 L 15.499863 16.504791 " stroke="rgb(0%, 0%, 0%)" stroke-width="1" stroke-opacity="1" stroke-miterlimit="4"/><path stroke-linecap="round" transform="matrix(5.975103, 0, 0, 5.978288, 0.00000125, 0.290545)" fill="none" stroke-linejoin="round" d="M 0.500122 18.504868 C 0.736781 18.741401 0.977363 18.972706 1.221867 19.198131 " stroke="rgb(0%, 0%, 0%)" stroke-width="1" stroke-opacity="1" stroke-miterlimit="4"/><path fill="rgb(0%, 0%, 0%)" d="M 20.3125 121.757812 C 22.636719 123.621094 25.121094 125.238281 27.769531 126.601562 C 28.121094 126.785156 28.425781 127.027344 28.683594 127.328125 C 28.9375 127.632812 29.125 127.972656 29.246094 128.347656 C 29.367188 128.726562 29.410156 129.113281 29.378906 129.507812 C 29.34375 129.902344 29.238281 130.277344 29.054688 130.628906 C 28.875 130.980469 28.632812 131.285156 28.332031 131.542969 C 28.027344 131.796875 27.6875 131.984375 27.3125 132.105469 C 26.933594 132.226562 26.546875 132.269531 26.152344 132.238281 C 25.757812 132.203125 25.382812 132.097656 25.03125 131.914062 C 22.03125 130.367188 19.210938 128.535156 16.574219 126.421875 C 16.265625 126.171875 16.015625 125.875 15.828125 125.527344 C 15.636719 125.179688 15.519531 124.808594 15.476562 124.414062 C 15.433594 124.019531 15.464844 123.632812 15.578125 123.253906 C 15.6875 122.871094 15.867188 122.527344 16.113281 122.21875 C 16.363281 121.910156 16.660156 121.660156 17.007812 121.46875 C 17.355469 121.277344 17.726562 121.160156 18.117188 121.117188 C 18.511719 121.074219 18.898438 121.109375 19.28125 121.21875 C 19.660156 121.328125 20.003906 121.507812 20.3125 121.757812 Z M 40.695312 130.921875 C 43.6875 131.429688 46.699219 131.632812 49.734375 131.527344 C 50.128906 131.511719 50.511719 131.574219 50.882812 131.714844 C 51.253906 131.851562 51.585938 132.058594 51.875 132.328125 C 52.164062 132.597656 52.390625 132.914062 52.554688 133.273438 C 52.71875 133.632812 52.808594 134.011719 52.824219 134.410156 C 52.835938 134.804688 52.773438 135.1875 52.636719 135.558594 C 52.496094 135.929688 52.292969 136.261719 52.023438 136.550781 C 51.753906 136.84375 51.4375 137.070312 51.078125 137.234375 C 50.714844 137.398438 50.339844 137.488281 49.941406 137.5 C 46.503906 137.621094 43.085938 137.394531 39.695312 136.816406 C 39.304688 136.75 38.941406 136.609375 38.605469 136.398438 C 38.269531 136.1875 37.988281 135.921875 37.757812 135.597656 C 37.527344 135.273438 37.371094 134.917969 37.28125 134.53125 C 37.195312 134.144531 37.183594 133.757812 37.25 133.367188 C 37.316406 132.976562 37.457031 132.613281 37.667969 132.277344 C 37.878906 131.941406 38.144531 131.660156 38.46875 131.429688 C 38.789062 131.199219 39.144531 131.042969 39.53125 130.953125 C 39.917969 130.867188 40.304688 130.855469 40.695312 130.921875 Z M 40.695312 130.921875 " fill-opacity="1" fill-rule="nonzero"/><path stroke-linecap="round" transform="matrix(5.975103, 0, 0, 5.978288, 0.00000125, 0.290545)" fill="none" stroke-linejoin="round" d="M 10.605204 21.958772 C 10.913122 21.826784 11.211234 21.675848 11.500193 21.505309 " stroke="rgb(0%, 0%, 0%)" stroke-width="1" stroke-opacity="1" stroke-miterlimit="4"/></svg>