<svg xmlns="http://www.w3.org/2000/svg" viewBox="0 0 52.72873 53.0663">
  <title>Recurso 4</title>
  <g id="Capa_2" data-name="Capa 2">
    <g id="Editar">
      <g>
        <path d="M52.72873,27.26331c-.0394,1.2811-.0702,2.5625-.1207,3.8432a18.13254,18.13254,0,0,1-.4939,3.2016,26.90436,26.90436,0,0,1-.6666,2.6981c-.4038,1.2116-.8637,2.4093-1.3806,3.577a11.55378,11.55378,0,0,1-1.9794,2.8974c-.7846.8916-1.6239,1.7348-2.4199,2.6167a20.5807,20.5807,0,0,1-4.1223,3.3993,20.572,20.572,0,0,1-3.7408,1.9621,28.74408,28.74408,0,0,1-4.6695,1.3658,14.43557,14.43557,0,0,1-3.0431.241,43.33848,43.33848,0,0,1-5.0375-.1646c-.9508-.1179-1.8924-.309-2.8428-.4307a20.96328,20.96328,0,0,1-3.7292-.8855,24.63835,24.63835,0,0,1-3.6463-1.3262,21.99815,21.99815,0,0,1-2.2411-1.3538c-.8555-.5687-1.682-1.1812-2.5175-1.7797a19.451,19.451,0,0,1-2.8831-2.6325q-.86085-.92655-1.7408-1.8356a24.4423,24.4423,0,0,1-1.9497-2.6173,15.32287,15.32287,0,0,1-2.0467-4.4502A31.06715,31.06715,0,0,1,.12463,29.704a21.7279,21.7279,0,0,1-.0512-4.1396c.0773-1.1472.167-2.2974.3359-3.4337a24.433,24.433,0,0,1,1.0677-3.8986,33.992,33.992,0,0,1,2.1496-5.0749,19.10986,19.10986,0,0,1,2.1918-3.2053c.6302-.7816,1.2934-1.5369,1.9525-2.2947a15.634,15.634,0,0,1,3.7885-3.2203c.3048-.1818.5392-.48.8409-.6687.4469-.2796.9188-.5214,1.3911-.7572.6923-.3457,1.3895-.6826,2.0933-1.0041a20.47267,20.47267,0,0,1,3.9074-1.3433,10.2465,10.2465,0,0,1,1.935-.2373c1.1455-.04,2.2752-.2104,3.412-.3235a22.04589,22.04589,0,0,1,4.9164.0757,16.02219,16.02219,0,0,1,3.6766.8052,28.0781,28.0781,0,0,1,2.766,1.1823c1.0806.5432,2.131,1.1506,3.1683,1.7736.5498.3301,1.0363.7638,1.5654,1.1305a20.356,20.356,0,0,1,3.4694,3.0576c.7925.8722,1.5483,1.7832,2.2581,2.724a57.77646,57.77646,0,0,1,3.5629,5.4726,15.97235,15.97235,0,0,1,1.2148,2.9729,16.67849,16.67849,0,0,1,.7872,3.1629,21.65325,21.65325,0,0,1,.1694,2.2459c.028.8513.0065,1.7042.0065,2.5564Zm-51.0021,6.4488a1.82141,1.82141,0,0,0,.0461.1833c.2473.7491.4827,1.5025.75,2.2444a7.54491,7.54491,0,0,0,.6131,1.435,25.25168,25.25168,0,0,0,2.0789,3.087c1.1941,1.4064,2.5037,2.718,3.8099,4.0241a22.6935,22.6935,0,0,0,1.8867,1.5361l.0174-.0809a1.163,1.163,0,0,1,.362-.1393c.436-.0095.8742-.0109,1.3087.0218,1.5536.1172,3.1059.2433,4.6668.2134.9185-.0175,1.8376-.0032,2.8053-.0032.2758-.6393.6128-1.3292.8743-2.0466.4644-1.2741.8819-2.5652,1.3217-3.8483.0818-.2389.1689-.4766.2686-.7084a.23593.23593,0,0,1,.1646-.1293.2108.2108,0,0,1,.1626.1252,1.202,1.202,0,0,1,.0337.533c-.3259,1.038-.6535,2.0767-1.0262,3.0985-.3569.9783-.7689,1.9365-1.157,2.9034-.0444.1107-.0905.2207-.1359.3311l.0635-.0351c.5681.4405,1.1471.8679,1.702,1.3244,1.1181.9197,2.1509,1.9428,3.3597,2.7539a.88427.88427,0,0,1,.2841.4452,2.569,2.569,0,0,1,.0563.5685c.6244.0175,1.2453.0531,1.866.0489a22.153,22.153,0,0,0,5.8162-.3537c.9158-.2514,1.8425-.4675,2.7466-.7551a19.06505,19.06505,0,0,0,3.2226-1.4011c.4434-.2378.8719-.5033,1.2558-.7264-.133-.4161-.2501-.7823-.3574-1.1181-.0038.0791-.0021.1949-.0163.3087a5.48526,5.48526,0,0,1-.1199.7683.37453.37453,0,0,1-.2589.2365.37911.37911,0,0,1-.2694-.2253,1.714,1.714,0,0,1-.0873-.5834,20.87184,20.87184,0,0,1,.3856-3.5414,9.89706,9.89706,0,0,1,.6644-2.3382,19.52151,19.52151,0,0,1,1.669-2.64,1.90406,1.90406,0,0,1,1.2984-.8346c1.087-.1931,2.171-.4184,3.2662-.5449a23.3351,23.3351,0,0,1,2.3914-.0565c.2495-.0029.5217-.0764.7003.2047a21.90978,21.90978,0,0,0,1.2485-4.2818,20.98711,20.98711,0,0,0,.4461-3.1612c.0283-1.8344.043-3.6689.0622-5.5033.0007-.0653-.0104-.1306-.0166-.2026a4.17113,4.17113,0,0,1-.9022.2278c-.6959.0174-1.3943-.0109-2.0899-.0511a6.78675,6.78675,0,0,1-2.4181-.5109c-.4542-.2035-.8997-.4263-1.3511-.6362-.5827-.271-1.1572-.5633-1.7535-.8004a16.41554,16.41554,0,0,1-2.4387-1.228,4.98991,4.98991,0,0,1-1.7926-1.902,10.21651,10.21651,0,0,1-.9712-2.9358c-.2336-1.1256-.3766-2.2729-.6636-3.3838a10.16836,10.16836,0,0,1-.2544-3.9441,3.34791,3.34791,0,0,1,1.0037-2.1439c.4776-.4279,1.019-.7842,1.5261-1.18.1572-.1228.2948-.2709.4705-.4345-.442-.3034-.8225-.6059-1.2402-.8429-.9862-.5594-1.9792-1.1092-2.9896-1.6233a16.31643,16.31643,0,0,0-4.288-1.5531,24.28674,24.28674,0,0,0-4.1131-.4471c-.565-.012-1.1305-.002-1.6958-.002l-.0337.0752a3.46828,3.46828,0,0,0,.2959.5051c.3623.4363.7309.8688,1.1202,1.2808A1.96422,1.96422,0,0,1,27.936,5.09a5.26453,5.26453,0,0,1-1.175,2.3431c-.6803.8481-1.4405,1.6318-2.1613,2.4477a6.57249,6.57249,0,0,1-1.5471,1.3627c-.5673.336-1.1313.6779-1.7025,1.007a.26144.26144,0,0,0-.1639.308c.0492.2715.0676.5493.1281.8178.2962,1.315.6045,2.6272.9012,3.9421a1.22334,1.22334,0,0,1,.0239.4755c-.0181.0999-.1316.1824-.2024.2727-.0686-.083-.1774-.1564-.1998-.2505q-.4968-2.0907-.9705-4.1869c-.0766-.3392-.1166-.6867-.1766-1.05-.1303.0536-.2424.0994-.3543.1459a3.08325,3.08325,0,0,1-1.752.3714,5.90165,5.90165,0,0,1-1.1819-.3632q-1.89915-.7926-3.7809-1.6269c-.6077-.2682-1.2094-.5537-1.794-.8682a1.68778,1.68778,0,0,1-.4995-.4982,2.26444,2.26444,0,0,1-.2991-1.5258c.0258-.6426.0744-1.2843.1134-1.9309-1.9411.8614-7.1152,7.1524-7.6727,9.3726.3998-.2537.4342.1829.5865.293.5087-.6673.9882-1.3315,1.505-1.9653.6686-.8201,1.3762-1.6083,2.05-2.4243a23.80813,23.80813,0,0,1,2.6059-2.6574c.1395-.1234.228-.0844.3048.0612a.73037.73037,0,0,1-.1741.856c-.6989.6776-1.412,1.3432-2.0737,2.056-.6776.73-1.3139,1.4997-1.9443,2.2716-.5669.6941-1.0913,1.4229-1.6551,2.1196a.61016.61016,0,0,0-.0339.7605,10.69812,10.69812,0,0,1,.9998,3.165c.1785,1.1964.4115,2.3846.6199,3.5765.1121.6412.2185,1.2835.3397,1.923a.2885.2885,0,0,0,.1657.1749q1.0272.37065,2.0614.7222,2.3703.80745,4.7425,1.6087a.539.539,0,0,1,.3722.6983c-.0674.2779-.1498.3208-.4209.228q-3.05475-1.04565-6.1102-2.0893c-.2644-.0903-.5316-.1727-.79-.2563-.0966.3204-.195.6186-.2763.9213a7.3255,7.3255,0,0,1-1.9907,3.3106c-.7582.7581-1.4688,1.5637-2.2052,2.3437A5.37664,5.37664,0,0,1,1.72663,33.71211Zm1.818-3.5715.0558.0337c.0644-.0743.1244-.1529.1938-.2221a6.332,6.332,0,0,0,1.7536-2.4958,3.14836,3.14836,0,0,0,.3426-1.4373c-.1169-.7511-.2685-1.4968-.4103-2.2719-.1089.8177-.197,1.6022-.3214,2.3808a11.496,11.496,0,0,1-.7085,2.7062c-.136.3199-.3092.6221-.7091.6827-.0364.0055-.0815.067-.092.11C3.60773,29.79651,3.57843,29.96911,3.54463,30.14061Zm19.0452,19.4873a10.877,10.877,0,0,0-2.0204-1.626,2.56688,2.56688,0,0,0-1.758-.2692c.0362.0209.0682.0403.1011.0582.3669.1997.8366.227,1.0759.6434.0147.0257.0683.0302.1045.0423.3191.1068.636.221.9583.317.2332.0695.4558.1376.5488.3973a.15151.15151,0,0,0,.0809.0747C21.983,49.38861,22.28663,49.50771,22.58983,49.62791ZM24.85193,7.906c-1.5098,1.0908-2.9774,2.1512-4.445,3.2115l.0696.0955C22.061,10.31091,23.73493,9.53181,24.85193,7.906Zm1.2393-1.3614a6.31409,6.31409,0,0,0,1.0618-1.6467.19107.19107,0,0,0-.011-.1649c-.2939-.3376-.5958-.6683-.9319-1.0413A5.53456,5.53456,0,0,1,26.09123,6.54461Zm12.0511,6.0997c0-.5005-.0111-1.034.0032-1.5668.0142-.5298.054-1.059.0826-1.5884l-.0726-.0013A6.43877,6.43877,0,0,0,38.14233,12.64431Zm13.455,8.9382c-.0654.6939-.1255,1.3318-.1862,1.9765a2.43812,2.43812,0,0,0,.353-.1361.23069.23069,0,0,0,.111-.1752C51.79323,22.70671,51.69713,22.16781,51.59733,21.58251Zm-8.5539,22.4179c.4346-.4751.8596-.9398,1.2846-1.4044-.4315.2957-.8453.6171-1.2624.9343C42.91023,43.64841,42.88593,43.77921,43.04343,44.00041ZM25.35983,1.81661h-.6357l.0591.2459.5766.1099Z"/>
        <path d="M1.72663,33.71211a5.37664,5.37664,0,0,0,.4215-.3587c.7364-.78,1.447-1.5856,2.2052-2.3437a7.3255,7.3255,0,0,0,1.9907-3.3106c.0813-.3027.1797-.6009.2763-.9213.2584.0836.5256.166.79.2563q3.05565,1.04325,6.1102,2.0893c.2711.0928.3535.0499.4209-.228a.539.539,0,0,0-.3722-.6983q-2.37075-.80565-4.7425-1.6087-1.0338-.35205-2.0614-.7222a.2885.2885,0,0,1-.1657-.1749c-.1212-.6395-.2276-1.2818-.3397-1.923-.2084-1.1919-.4414-2.3801-.6199-3.5765a10.69812,10.69812,0,0,0-.9998-3.165.61016.61016,0,0,1,.0339-.7605c.5638-.6967,1.0882-1.4255,1.6551-2.1196.6304-.7719,1.2667-1.5416,1.9443-2.2716.6617-.7128,1.3748-1.3784,2.0737-2.056a.73037.73037,0,0,0,.1741-.856c-.0768-.1456-.1653-.1846-.3048-.0612a23.80813,23.80813,0,0,0-2.6059,2.6574c-.6738.816-1.3814,1.6042-2.05,2.4243-.5168.6338-.9963,1.298-1.505,1.9653-.1523-.1101-.1867-.5467-.5865-.293.5575-2.2202,5.7316-8.5112,7.6727-9.3726-.039.6466-.0876,1.2883-.1134,1.9309a2.26444,2.26444,0,0,0,.2991,1.5258,1.68778,1.68778,0,0,0,.4995.4982c.5846.3145,1.1863.6,1.794.8682q1.8828.83085,3.7809,1.6269a5.90165,5.90165,0,0,0,1.1819.3632,3.08325,3.08325,0,0,0,1.752-.3714c.1119-.0465.224-.0923.3543-.1459.06.3633.1.7108.1766,1.05q.4731,2.09625.9705,4.1869c.0224.0941.1312.1675.1998.2505.0708-.0903.1843-.1728.2024-.2727a1.22334,1.22334,0,0,0-.0239-.4755c-.2967-1.3149-.605-2.6271-.9012-3.9421-.0605-.2685-.0789-.5463-.1281-.8178a.26144.26144,0,0,1,.1639-.308c.5712-.3291,1.1352-.671,1.7025-1.007a6.57249,6.57249,0,0,0,1.5471-1.3627c.7208-.8159,1.481-1.5996,2.1613-2.4477A5.26453,5.26453,0,0,0,27.936,5.09a1.96422,1.96422,0,0,0-.5583-1.7714c-.3893-.412-.7579-.8445-1.1202-1.2808a3.46828,3.46828,0,0,1-.2959-.5051l.0337-.0752c.5653,0,1.1308-.01,1.6958.002a24.28674,24.28674,0,0,1,4.1131.4471,16.31643,16.31643,0,0,1,4.288,1.5531c1.0104.5141,2.0034,1.0639,2.9896,1.6233.4177.237.7982.5395,1.2402.8429-.1757.1636-.3133.3117-.4705.4345-.5071.3958-1.0485.7521-1.5261,1.18a3.34791,3.34791,0,0,0-1.0037,2.1439,10.16836,10.16836,0,0,0,.2544,3.9441c.287,1.1109.43,2.2582.6636,3.3838a10.21651,10.21651,0,0,0,.9712,2.9358,4.98991,4.98991,0,0,0,1.7926,1.902,16.41554,16.41554,0,0,0,2.4387,1.228c.5963.2371,1.1708.5294,1.7535.8004.4514.2099.8969.4327,1.3511.6362a6.78675,6.78675,0,0,0,2.4181.5109c.6956.0402,1.394.0685,2.0899.0511a4.17113,4.17113,0,0,0,.9022-.2278c.0062.072.0173.1373.0166.2026-.0192,1.8344-.0339,3.6689-.0622,5.5033a20.98711,20.98711,0,0,1-.4461,3.1612,21.90978,21.90978,0,0,1-1.2485,4.2818c-.1786-.2811-.4508-.2076-.7003-.2047a23.3351,23.3351,0,0,0-2.3914.0565c-1.0952.1265-2.1792.3518-3.2662.5449a1.90406,1.90406,0,0,0-1.2984.8346,19.52151,19.52151,0,0,0-1.669,2.64,9.89706,9.89706,0,0,0-.6644,2.3382,20.87184,20.87184,0,0,0-.3856,3.5414,1.714,1.714,0,0,0,.0873.5834.37911.37911,0,0,0,.2694.2253.37453.37453,0,0,0,.2589-.2365,5.48526,5.48526,0,0,0,.1199-.7683c.0142-.1138.0125-.2296.0163-.3087.1073.3358.2244.702.3574,1.1181-.3839.2231-.8124.4886-1.2558.7264a19.06505,19.06505,0,0,1-3.2226,1.4011c-.9041.2876-1.8308.5037-2.7466.7551a22.153,22.153,0,0,1-5.8162.3537c-.6207.0042-1.2416-.0314-1.866-.0489a2.569,2.569,0,0,0-.0563-.5685.88427.88427,0,0,0-.2841-.4452c-1.2088-.8111-2.2416-1.8342-3.3597-2.7539-.5549-.4565-1.1339-.8839-1.702-1.3244l-.0635.0351c.0454-.1104.0915-.2204.1359-.3311.3881-.9669.8001-1.9251,1.157-2.9034.3727-1.0218.7003-2.0605,1.0262-3.0985a1.202,1.202,0,0,0-.0337-.533.2108.2108,0,0,0-.1626-.1252.23593.23593,0,0,0-.1646.1293c-.0997.2318-.1868.4695-.2686.7084-.4398,1.2831-.8573,2.5742-1.3217,3.8483-.2615.7174-.5985,1.4073-.8743,2.0466-.9677,0-1.8868-.0143-2.8053.0032-1.5609.0299-3.1132-.0962-4.6668-.2134-.4345-.0327-.8727-.0313-1.3087-.0218a1.163,1.163,0,0,0-.362.1393l-.0174.0809a22.6935,22.6935,0,0,1-1.8867-1.5361c-1.3062-1.3061-2.6158-2.6177-3.8099-4.0241a25.25168,25.25168,0,0,1-2.0789-3.087,7.54491,7.54491,0,0,1-.6131-1.435c-.2673-.7419-.5027-1.4953-.75-2.2444A1.82141,1.82141,0,0,1,1.72663,33.71211Zm33.6504-4.032-.0429-.0001c0-1.2585.029-2.518-.0094-3.7754a4.37634,4.37634,0,0,0-.9546-2.6861,14.97263,14.97263,0,0,0-1.1862-1.1838,10.68364,10.68364,0,0,0-2.3151-1.7292c-.8054-.4445-1.6011-.9069-2.4121-1.3408a7.48777,7.48777,0,0,0-3.0676-1.0427.39461.39461,0,0,1-.2025-.1164,4.36347,4.36347,0,0,0-.4692-.4349c-.3009-.1966-.5921-.0555-.8932.0633a9.333,9.333,0,0,0-2.2701,1.1994,27.26215,27.26215,0,0,0-3.7476,3.287,9.36673,9.36673,0,0,0-1.512,1.9612,5.83263,5.83263,0,0,1-.3568.6417,5.31255,5.31255,0,0,0-.7462,4.6298,6.08519,6.08519,0,0,0,1.1367,1.9839c.5302.7038,1.1092,1.3719,1.6193,2.0895.6345.8926,1.2369,1.8094,1.8217,2.7356a7.184,7.184,0,0,0,1.7353,1.9755,3.45839,3.45839,0,0,0,1.3558.7537.66622.66622,0,0,0,.221.0021,2.63467,2.63467,0,0,1,.3274-.0663,29.75987,29.75987,0,0,0,4.2505-.1858c.8939-.1381,1.796-.223,2.6943-.3331a6.92824,6.92824,0,0,0,1.8098-.5799,5.67271,5.67271,0,0,0,1.8149-1.131,4.37433,4.37433,0,0,0,1.398-3.2629C35.38013,31.983,35.377,30.83151,35.377,29.68011Zm-6.8604-23.6988c.0225.2116.032.4205.2662.5217.7377.3187,1.4802.627,2.21.9629,1.0087.4644,2.0076.9498,3.0103,1.4272.7535.3588,1.5045.7228,2.2618,1.0734a.31539.31539,0,0,0,.2809-.0157.61741.61741,0,0,0-.1938-.8985c-.4129-.1834-.8298-.3591-1.235-.5585-.7079-.3483-1.4026-.7235-2.113-1.0663-.738-.356-1.4854-.693-2.2338-1.0269-.6212-.2771-1.2513-.5343-1.8743-.8075-.174-.0763-.2632.0016-.3223.1449A1.49307,1.49307,0,0,0,28.51663,5.98131Zm12.782,33.8406a.6553.6553,0,0,0-.3045-.5838c-1.6445-1.4309-3.3981-2.721-5.1564-4.0051-.1977-.1444-.3063-.1004-.3641.1423a.649.649,0,0,0,.3089.8103c.7598.5584,1.5279,1.1066,2.2697,1.6884.9591.7523,1.8953,1.534,2.8427,2.3014.1857.1505.3102.1076.3719-.126A1.8423,1.8423,0,0,0,41.29863,39.82191Zm-6.6693-16.545.0536.0329a.34451.34451,0,0,0,.0092.1139,1.02325,1.02325,0,0,0,.1772.3245c.0263.0253.201-.0603.2719-.131q1.59465-1.5891,3.1765-3.191a.71368.71368,0,0,0,.0503-.779c-.0792-.1226-.169-.1481-.2772-.031-.0988.1068-.1988.2127-.3017.3155-.9596.9585-1.9235,1.9128-2.8758,2.8784A2.34489,2.34489,0,0,0,34.62933,23.27691Z" fill="#fff"/>
        <path d="M3.54463,30.14061c.0338-.1715.0631-.3441.1045-.5137.0105-.043.0556-.1045.092-.11.3999-.0606.5731-.3628.7091-.6827a11.496,11.496,0,0,0,.7085-2.7062c.1244-.7786.2125-1.5631.3214-2.3808.1418.7751.2934,1.5208.4103,2.2719a3.14836,3.14836,0,0,1-.3426,1.4373,6.332,6.332,0,0,1-1.7536,2.4958c-.0694.0692-.1294.1478-.1938.2221Z" fill="#fff"/>
        <path d="M22.58983,49.62791c-.3032-.1202-.6068-.2393-.9089-.3623a.15151.15151,0,0,1-.0809-.0747c-.093-.2597-.3156-.3278-.5488-.3973-.3223-.096-.6392-.2102-.9583-.317-.0362-.0121-.0898-.0166-.1045-.0423-.2393-.4164-.709-.4437-1.0759-.6434-.0329-.0179-.0649-.0373-.1011-.0582a2.56688,2.56688,0,0,1,1.758.2692A10.877,10.877,0,0,1,22.58983,49.62791Z" fill="#fff"/>
        <path d="M24.85193,7.906c-1.117,1.6258-2.7909,2.4049-4.3754,3.307l-.0696-.0955C21.87453,10.05721,23.34213,8.99681,24.85193,7.906Z" fill="#fff"/>
        <path d="M26.09123,6.54461a5.53456,5.53456,0,0,0,.1189-2.8529c.3361.373.638.7037.9319,1.0413a.19107.19107,0,0,1,.011.1649A6.31409,6.31409,0,0,1,26.09123,6.54461Z" fill="#fff"/>
        <path d="M38.14233,12.64431a6.43877,6.43877,0,0,1,.0132-3.1565l.0726.0013c-.0286.5294-.0684,1.0586-.0826,1.5884C38.13123,11.61031,38.14233,12.14381,38.14233,12.64431Z" fill="#fff"/>
        <path d="M51.59733,21.58251c.0998.5853.1959,1.1242.2778,1.6652a.23069.23069,0,0,1-.111.1752,2.43812,2.43812,0,0,1-.353.1361C51.47183,22.91431,51.53193,22.27641,51.59733,21.58251Z" fill="#fff"/>
        <path d="M43.04343,44.00041c-.1575-.2212-.1332-.352.0222-.4701.4171-.3172.8309-.6386,1.2624-.9343C43.903,43.06061,43.478,43.52531,43.04343,44.00041Z" fill="#fff"/>
        <path d="M25.35983,1.81661v.3558l-.5766-.1099-.0591-.2459Z" fill="#fff"/>
        <path d="M35.377,29.68011c0,1.1514.0031,2.3029-.0008,3.4543a4.37433,4.37433,0,0,1-1.398,3.2629,5.67271,5.67271,0,0,1-1.8149,1.131,6.92824,6.92824,0,0,1-1.8098.5799c-.8983.1101-1.8004.195-2.6943.3331a29.75987,29.75987,0,0,1-4.2505.1858,2.63467,2.63467,0,0,0-.3274.0663.66622.66622,0,0,1-.221-.0021,3.45839,3.45839,0,0,1-1.3558-.7537,7.184,7.184,0,0,1-1.7353-1.9755c-.5848-.9262-1.1872-1.843-1.8217-2.7356-.5101-.7176-1.0891-1.3857-1.6193-2.0895a6.08519,6.08519,0,0,1-1.1367-1.9839,5.31255,5.31255,0,0,1,.7462-4.6298,5.83263,5.83263,0,0,0,.3568-.6417,9.36673,9.36673,0,0,1,1.512-1.9612,27.26215,27.26215,0,0,1,3.7476-3.287,9.333,9.333,0,0,1,2.2701-1.1994c.3011-.1188.5923-.2599.8932-.0633a4.36347,4.36347,0,0,1,.4692.4349.39461.39461,0,0,0,.2025.1164,7.48777,7.48777,0,0,1,3.0676,1.0427c.811.4339,1.6067.8963,2.4121,1.3408a10.68364,10.68364,0,0,1,2.3151,1.7292,14.97263,14.97263,0,0,1,1.1862,1.1838,4.37634,4.37634,0,0,1,.9546,2.6861c.0384,1.2574.0094,2.5169.0094,3.7754Zm-.9504,4.1582.1154.0102a4.029,4.029,0,0,0,.1026-.6396q.00975-3.1875-.0035-6.3751a6.74346,6.74346,0,0,0-.0985-1.1654,3.00306,3.00306,0,0,0-1.0544-1.7552A38.333,38.333,0,0,1,34.42663,33.83831Z"/>
        <path d="M28.51663,5.98131a1.49307,1.49307,0,0,1,.057-.2433c.0591-.1433.1483-.2212.3223-.1449.623.2732,1.2531.5304,1.8743.8075.7484.3339,1.4958.6709,2.2338,1.0269.7104.3428,1.4051.718,2.113,1.0663.4052.1994.8221.3751,1.235.5585a.61741.61741,0,0,1,.1938.8985.31539.31539,0,0,1-.2809.0157c-.7573-.3506-1.5083-.7146-2.2618-1.0734-1.0027-.4774-2.0016-.9628-3.0103-1.4272-.7298-.3359-1.4723-.6442-2.21-.9629C28.54863,6.40181,28.53913,6.19291,28.51663,5.98131Z"/>
        <path d="M41.29863,39.82191a1.8423,1.8423,0,0,1-.0318.2275c-.0617.2336-.1862.2765-.3719.126-.9474-.7674-1.8836-1.5491-2.8427-2.3014-.7418-.5818-1.5099-1.13-2.2697-1.6884a.649.649,0,0,1-.3089-.8103c.0578-.2427.1664-.2867.3641-.1423,1.7583,1.2841,3.5119,2.5742,5.1564,4.0051A.6553.6553,0,0,1,41.29863,39.82191Z"/>
        <path d="M34.62933,23.27691a2.34489,2.34489,0,0,1,.284-.4668c.9523-.9656,1.9162-1.9199,2.8758-2.8784.1029-.1028.2029-.2087.3017-.3155.1082-.1171.198-.0916.2772.031a.71368.71368,0,0,1-.0503.779q-1.58145,1.60215-3.1765,3.191c-.0709.0707-.2456.1563-.2719.131a1.02325,1.02325,0,0,1-.1772-.3245.34451.34451,0,0,1-.0092-.1139Z"/>
        <path d="M34.42663,33.83831a38.333,38.333,0,0,0-.9384-9.9251,3.00306,3.00306,0,0,1,1.0544,1.7552,6.74346,6.74346,0,0,1,.0985,1.1654q.0156,3.1875.0035,6.3751a4.029,4.029,0,0,1-.1026.6396Z" fill="#fff"/>
      </g>
    </g>
  </g>
</svg>
