<svg xmlns="http://www.w3.org/2000/svg" viewBox="0 0 231.815 349.005"><title>abeja</title><g id="Capa_2" data-name="Capa 2"><g id="Objects"><path d="M87.767,13.063C62.174,26.688,71.99,88.4,103.382,86.436c6.8,3.755,16.1,3.191,21.507-2.843C146.3,59.706,126.191-7.394,87.767,13.063Z" fill="#fff"/><path d="M86.22,88.155C80.3,75.4,72.651,65.2,59.076,60.2c-14.166-5.224-37.5,3.65-39.723,20.092-2.682,19.87,14.425,30.306,32.045,31.4a49.852,49.852,0,0,0,20.187-3.271C80.984,110.052,91.561,99.669,86.22,88.155Z" fill="#fff"/><path d="M201.938,100.067c-22.741-21.907-70.906-9.5-94.671,4.551-19.845,11.736-39.029,23.57-47.91,45.865a33.437,33.437,0,0,0-2.083,7.856c-2.323,5.412-3.054,11.219-1.125,16.608,6.426,17.955,19.423,25.544,37.724,27.774,3.431.419,6.833.616,10.218.7,22.706,2.27,48.1-4.868,66.84-16.4a62.066,62.066,0,0,0,13.941-12.456c1.138-.864,2.28-1.721,3.4-2.614a50.2,50.2,0,0,0,13.045-16.012C214.353,139.013,219.966,117.434,201.938,100.067Z" fill="#ffa147"/><path d="M171.369,180.972q-.085-1.388-.172-2.774c-.677-10.951-8.058-16.984-16.136-18.128-.769-.993-1.478-2.032-2.205-3.087a97.547,97.547,0,0,1-6.247-10.673A155.313,155.313,0,0,1,131.976,106.5a16.557,16.557,0,0,0-8.581-11.7c-4.575-4.556-11.429-6.484-17.761-1.967-37.165,26.513-25.1,92.271,13.95,111.345,9.32,4.552,21.086,7.88,30.8,2.4a25.9,25.9,0,0,0,8.895-8.308C166.367,195.668,171.911,189.724,171.369,180.972Z" fill="#724528"/><path d="M193.575,81.4c-10.355-2.743-21.411-2.435-32.023-2.388-4.529.022-9.312-.107-14.145-.088a65.658,65.658,0,0,0,5.254-28.439c-.373-10.272-2.714-23.15-9.287-31.357A42.822,42.822,0,0,0,118.322,3.546C112.46,2.247,107.607.012,101.434,0S88.893,2.319,83.35,4.845c-9.1,4.145-18.17,10.55-21.5,20.467a64.681,64.681,0,0,0-2.377,29.9c-16.187-4.936-33.083-4.439-47,7.5C4.883,69.225-.692,78.982.07,89.154c.818,10.959,10.055,19.245,19.1,24.111,15.231,8.193,33.02,10.536,50.119,8.249a113.7,113.7,0,0,0-11.23,14.131c-9.535,14.2-15.715,31.926-12.631,49.126,3.16,17.616,15.284,29.224,31.414,35.746,35.093,14.191,74.943,5.185,105.036-16.084,24.4-17.245,50.388-44.381,49.936-76.317C231.489,105.543,214.819,87.028,193.575,81.4ZM69.254,38.647c1-11.037,5.484-18,15.112-23.381,9.38-5.249,18.674-6.686,28.862-3.3,8.83,2.936,16.006,4.657,22.665,11.674,6.973,7.343,8.185,19.806,8.136,29.393-.045,8.781-3.516,16.892-5.888,25.217q-1.418.618-2.827,1.237a51.307,51.307,0,0,0-16.8,4.269,5.308,5.308,0,0,0-2.877,4.877q-3.46,1.731-6.852,3.558c-7.856-14.089-22.684-25.328-36.4-31.9-.5-.242-1.012-.478-1.521-.711A59.772,59.772,0,0,1,69.254,38.647ZM99.418,97.533c-.3.188-.615.371-.92.557A62.15,62.15,0,0,1,75.976,72.853C85.062,78.778,94.683,87.528,99.418,97.533Zm-62.275,6.745c-8.154-2.171-17.579-6.189-22.213-13.621-4.875-7.815,1.341-16.6,6.683-22.106C32.528,57.3,48.571,59.764,62.021,65.431c5.123,15.4,13.79,28.758,26.354,38.252C71.258,106.242,54.186,108.816,37.143,104.278Zm26.432,87.295c-7.272-11.906-5.154-26.01-.075-38.467.126.821.259,1.634.39,2.432,2.245,13.752,11.037,26.109,20.084,36.255,6.389,7.168,15.063,14.75,24.26,19.711C91.693,210.889,72.341,205.927,63.575,191.573Zm102.765,4.321a99.186,99.186,0,0,1-18.656,9.285c-8.205.987-15.887,1.828-24.422-.283-11.1-2.747-21.383-11.988-29.252-19.8a79.389,79.389,0,0,1-19.3-30.306c-1.845-5.37-2.632-10.807-.909-16.241.718-2.269,1.406-4.543,2.032-6.833A128.581,128.581,0,0,1,90.02,116.333c1.812-.68,3.607-1.394,5.361-2.181a4.677,4.677,0,0,0,3.11-4.126c.822.423,1.636.847,2.484,1.244a5.22,5.22,0,0,0,4.072.211c3.791,2.321,9.841-.183,8.649-6.237a41.687,41.687,0,0,0-2-6.852q3.188-2.326,6.47-4.5a4.68,4.68,0,0,0,1.764.7,53.072,53.072,0,0,0,7.546.72c-.523,1.054-1.021,2.133-1.478,3.266-3.08,7.677-2.826,15.078-3.091,23.267-.5,15.2,6.187,28.332,14.765,40.509,6.222,8.828,20.355,23.381,34.366,29.74C170.154,193.4,168.254,194.676,166.34,195.894Zm35.693-31.876a107.31,107.31,0,0,1-12.526,14.011c-.166.038-.333.085-.5.107-2.784.381-4.15,2.59-7.172,1.807-2.465-.637-4.9-2.383-7.081-3.616-10.141-5.716-18.268-14.2-24.9-23.65-6.745-9.609-11.591-18.981-11.819-30.831-.129-6.692-.97-13.221.665-19.768.612-2.46,1.437-4.857,2.27-7.252,3.495-.245,6.981-.494,10.439-.544,9.435-.142,18.95-.224,28.369.471,17.455,1.293,31.736,11.063,35.735,28.632C218.813,137.9,210.3,152.83,202.033,164.018Z"/><path d="M189.639,107.136a6.8,6.8,0,0,0-10.811,0,8.687,8.687,0,0,0-2.95,6.381,8.354,8.354,0,0,0,16.708,0A8.69,8.69,0,0,0,189.639,107.136Z"/><path d="M29.608,228.165a6.91,6.91,0,0,0-13.323,3.672,7.361,7.361,0,0,0,3.174,4.128c.146.1.29.2.433.309a5.866,5.866,0,0,0,6.11,0c.142-.1.286-.2.431-.309a6.917,6.917,0,0,0,3.175-7.8Z"/><path d="M16.226,268.315a6.557,6.557,0,0,0-6.255,8.216c.131.5.261,1,.394,1.5a6.081,6.081,0,0,0,11.723,0c.13-.5.263-1,.393-1.5A6.556,6.556,0,0,0,16.226,268.315Z"/><path d="M57.587,303.268q-.888-.156-1.777-.309a6.018,6.018,0,0,0-4.351.57,5.65,5.65,0,0,0-1.145,8.869,5.876,5.876,0,0,0,5.5,1.45c.592-.1,1.185-.2,1.777-.309,2.3-.4,3.912-2.942,3.912-5.137S59.891,303.665,57.587,303.268Z"/><path d="M108.357,312.579a10.531,10.531,0,0,0-4.422-.551c-1.918.18-4.1,1.158-4.891,3.039a3.323,3.323,0,0,0,0,4.6c.793,1.882,2.973,2.859,4.891,3.039a10.487,10.487,0,0,0,4.422-.551A5.01,5.01,0,0,0,108.357,312.579Z"/><path d="M164.134,311.659a11.748,11.748,0,0,0-5.4-1.655,10.183,10.183,0,0,0-2.985.28,7.341,7.341,0,0,0-2.427,1.2c-5.725,1.592-5.679,10.37.155,11.827.179.126.326.283.519.4a9.42,9.42,0,0,0,4.222,1.047,11.126,11.126,0,0,0,5.92-1.682A6.7,6.7,0,0,0,164.134,311.659Z"/><path d="M206.635,335.006c-9.029,0-9.029,14,0,14S215.665,335.006,206.635,335.006Z"/></g></g></svg>