<svg xmlns="http://www.w3.org/2000/svg" viewBox="0 0 162.56203 264.33784">
  <title>Recurso 1</title>
  <g id="Capa_2" data-name="Capa 2">
    <g id="Editar">
      <g>
        <g>
          <path d="M144.43229,37.98728a120.40761,120.40761,0,0,0,5.873-18.0078c1.3653-5.8716-5.71089-10.2842-10.16789-5.9189a61.80978,61.80978,0,0,1-11.80671,8.7529c-.6816-.957-1.3428-1.9282-2.0117-2.875-1.1445-1.6226-4.3428-5.0796-4.56059-6.9658a8.003,8.003,0,0,0-1.17481-3.4131,4.17113,4.17113,0,0,0-3.53119-2.5029,6.28949,6.28949,0,0,0-1.35741-.147c-3.01659,0-6.4434,2.7729-6.0635,6.063a18.1269,18.1269,0,0,0,1.4346,5.2221c-.1602,3.063-.0772,6.1661-.09569,9.0669-.01181,1.7471.02049,3.4834.082,5.2149-6.61331,3.23-13.46191,5.4961-19.40631,10.3418-4.5253,3.6889-.3691,9.9385,4.2881,10.3506a157.017,157.017,0,0,0,17.1201.2119c.54111,3.4741,1.167,6.9316,1.8243,10.396.29881,1.5791.0839,2.8999.914,4.3872-1.1191-2.0034-.3711-.9346-.2509.3442a10.35712,10.35712,0,0,0,2.4892,6.1411c3.9443,4.8423,10.3477.3369,12.0703-3.9541,2.0596-5.1318,3.9863-10.101,6.3828-15.1098.2295-.4785.4571-.9576.6866-1.4366,1.8945.1304,3.8984.8199,5.8222,1.0533,3.9531.479,8.9405-.3863,10.1709-4.8619C154.6364,44.98828,149.11589,40.853,144.43229,37.98728Z" fill="#ffc531"/>
          <path d="M158.14609,46.61128a49.91648,49.91648,0,0,0-5.6845-4.333,34.18749,34.18749,0,0,1-4.11819-3.188,2.43065,2.43065,0,0,0,.11909-.2553c1.8106-5.0884,4.1817-9.9043,6.3282-14.857,1.5215-3.5107,4.6299-9.3598.1631-11.9682-3.0655-1.7886-7.2862.2153-10.2647,1.2441a53.84427,53.84427,0,0,0-13.4043,6.2554c-2.8828-3.5352-5.6348-7.1743-8.5898-10.6514a32.8625,32.8625,0,0,0-3.1963-2.8896,16.85607,16.85607,0,0,1-1.71-1.8613,7.55144,7.55144,0,0,1-.5137-.7247,1.8862,1.8862,0,0,1-.2001-.3686c1.125-1.4512-.77149-3.9072-2.376-2.6817a3.432,3.432,0,0,0-1.4522,3.3917c-1.3642,1.0698-1.499,2.4829-2.0527,4.2192-.4092,1.2856-.958,2.5317-1.4414,3.792-.5176,1.352-.5996,2.7529-1.0215,4.1181a75.886,75.886,0,0,0-2.2559,8.4756c-.3339,1.7881-.9755,4.2627-.3964,6.1201a13.95617,13.95617,0,0,1-2.0762.1333,8.15166,8.15166,0,0,0-3.2246.9483c-2.5762,1.3545-4.9903,2.9751-7.4951,4.4517-3.4649,2.0419-11.1822,5.5454-10.0508,10.7153.9194,4.1972,5.2217,5.3535,8.81831,6.3828,2.52349.7222,4.90429,1.832,7.46779,2.4756,2.541.6387,4.95121.3135,7.4717.7754a7.1775,7.1775,0,0,0,.7842,3.6006,66.91376,66.91376,0,0,1,3.3457,6.8686c1.47361,3.8115,2.4092,10.0664,7.1572,10.9976,3.52541.6904,7.6279-1.7486,9.7588-4.419,2.8594-3.5849,6.1289-7.2734,6.39261-11.9887,2.44919,1.2617,5.83789,1.0551,8.44719.9741,2.4229-.0742,4.8125-.4317,7.2383-.5044,3.6738-.1099,8.46-.4458,11.0967-3.3692C164.57489,54.76028,160.93419,49.41118,158.14609,46.61128Zm-1.0478,8.2881c-1.5371,1.7368-5.7461,1.5537-7.8477,1.6192-2.1416.0669-4.2343.4082-6.375.5468-2.8701.1856-6.164-.645-8.8925.3433a1.85308,1.85308,0,0,0-1.3282,1.8535,1.17561,1.17561,0,0,0-.6289.3994c-2.3613,2.8423-4.1963,6.022-6.4668,8.9414-1.3789,1.7725-3.8183,4.7774-6.4746,4.3638-1.2246-.1919-2.0683-3.833-2.5019-4.8848q-1.207-2.9187-2.4141-5.8388a29.12191,29.12191,0,0,0-2.2539-3.9551,5.80346,5.80346,0,0,1-.751-3.4238,1.95372,1.95372,0,0,0-1.583-1.9434c-.8525-1.8735-2.8535-2.4126-4.77829-2.4219a20.59679,20.59679,0,0,1-6.55371-1.0351c-2.0137-.6358-3.9292-1.523-5.9639-2.0923-.8877-.2485-3.1748-.6646-3.5713-1.6748-.0498-.1265,3.3511-2.647,3.8047-3.0283a35.83515,35.83515,0,0,1,3.458-2.0816c1.1367-.7426,2.2393-1.5395,3.3438-2.3296,1.872-1.3408,3.5869-3.0097,5.7509-3.8691a7.56776,7.56776,0,0,0,2.89951-1.8652,1.698,1.698,0,0,0,1.22849-.1753c2.1504-1.2124,1.6758-3.7432,1.9707-5.8887a64.638,64.638,0,0,1,1.75581-7.7612c.57619-2.1656.85159-4.3404,1.46289-6.4951.37211-1.3101.7617-2.606,1.0596-3.9371.0186-.0815.0283-.1567.04-.2324a21.09331,21.09331,0,0,0,1.5694,1.6914,18.25932,18.25932,0,0,1,2.0097,1.9322c1.0723,1.3891,2.0967,2.8169,3.15341,4.2163,2.249,2.9795,4.49509,5.9614,6.85149,8.8559.9336,1.147,2.584.7886,3.56551,0a37.42248,37.42248,0,0,1,12.63569-6.374c2.0098-.6182,4.7012-2.1587,6.9062-1.9282-.0791.3808-.1718.7588-.2841,1.1318-.2461.8897-.6953,1.6748-.9991,2.5376a58.8973,58.8973,0,0,1-2.9785,6.5816c-.8437,1.6943-1.4004,3.5112-2.2148,5.2299a21.38044,21.38044,0,0,0-1.9746,5.565,1.96179,1.96179,0,0,0-.1875,1.209c.6572,3.8584,4.8711,5.9106,7.415,8.4126,1.4873,1.4633,3.3164,2.2812,4.6485,4.0195C156.11879,51.78618,157.79649,54.10888,157.09829,54.89938Z" fill="#463131"/>
        </g>
        <g>
          <g>
            <path d="M39.10569,140.85171c1.00491-.82169,1.28279-1.26012.05026-2.23194a43.45462,43.45462,0,0,1,1.91667-10.31627,3.34889,3.34889,0,0,0,.62309-.18844c.60458-.3079.70545-.65276.3934-1.25176a4.75521,4.75521,0,0,0-.25864-.4042c.32534-.86637.63739-1.72022.96588-2.56772a24.55393,24.55393,0,0,1,3.16636-5.85382,12.71041,12.71041,0,0,1,4.84012-4.13782,31.62011,31.62011,0,0,1,3.90848-1.36343c.60458-.18573,1.21123-.37488,1.79908-.60665.77279-.30375,1.51176-.70166,2.29856-.96209a13.74183,13.74183,0,0,1,1.97744-.40491c1.75826-.30926,3.51051-.67714,5.28063-.88731a47.105,47.105,0,0,1,4.87122-.28831c2.54191-.03767,5.08582-.00979,7.62845.02931a24.95752,24.95752,0,0,1,2.84731.2234c1.45493.18708,2.90421.42378,4.3535.65555a17.9745,17.9745,0,0,1,7.07942,2.64314c.86458.5634,1.71286,1.15468,2.56314,1.7411a8.85047,8.85047,0,0,1,1.76247,1.59247c.76757.911,1.56409,1.80322,2.39557,2.65565a14.9496,14.9496,0,0,1,1.95056,2.69547c.812,1.32018,1.627,2.63828,2.41588,3.97168a22.82268,22.82268,0,0,1,2.03856,3.90112,18.28165,18.28165,0,0,1,1.05488,3.89769c.08693.70931.20174,1.41576.29146,2.12578a19.60563,19.60563,0,0,1-.45238,5.7917,23.48625,23.48625,0,0,1-2.38271,6.459,15.65217,15.65217,0,0,1-1.64337,2.477c-.89261,1.16726-1.84662,2.28841-2.78347,3.42222a4.87276,4.87276,0,0,1-.6667.67714c-1.13795.93135-2.25288,1.89473-3.44316,2.75487a24.75087,24.75087,0,0,1-3.03933,1.86749c-1.4071.73511-2.86933,1.362-4.30224,2.04757a2.36947,2.36947,0,0,1-1.473.34629,1.09533,1.09533,0,0,0-1.29051.60879,1.24411,1.24411,0,0,1-.64783.4754q-1.38073.55289-2.78626,1.0458a42.83416,42.83416,0,0,1-8.685,2.00289,56.51175,56.51175,0,0,1-8.33325.20524c-1.42834-.02788-2.85532-.1487-4.2805-.25128a6.44747,6.44747,0,0,1-1.28879-.2234,33.49517,33.49517,0,0,1-10.4363-4.82825c-1.16483-.82869-2.30557-1.69227-3.46311-2.53076a5.23189,5.23189,0,0,1-1.30473-1.37386c-.94079-1.42634-1.91746-2.82744-2.84145-4.26421a19.6035,19.6035,0,0,1-2.012-4.81567A23.74225,23.74225,0,0,1,39.10569,140.85171Zm34.77757,9.04914a22.66231,22.66231,0,0,0,6.108-.94736,4.23,4.23,0,0,0,1.20007-.51593c2.11112-1.34248,4.22153-2.6871,6.30091-4.07705a12.85561,12.85561,0,0,0,2.9336-2.77646c.41742-.53059.83806-1.059,1.24754-1.59591a5.05777,5.05777,0,0,0,.93793-3.94022.75717.75717,0,0,0-.79624-.72117c-.42307.00486-.69987.24571-.73547.76793a1.68292,1.68292,0,0,1-.16685.79516,9.3187,9.3187,0,0,1-1.57675,2.49859,1.93332,1.93332,0,0,0-.27716.38675,10.66624,10.66624,0,0,1-2.30064,2.40086,69.82075,69.82075,0,0,1-6.67758,4.36265,4.633,4.633,0,0,1-1.10063.44959,20.90041,20.90041,0,0,1-7.07935.73025,13.00106,13.00106,0,0,1-2.46127-.38189,16.62654,16.62654,0,0,1-5.918-2.98171,9.97981,9.97981,0,0,1-3.55733-4.52807,7.715,7.715,0,0,0-1.09956-1.96872,2.7781,2.7781,0,0,0-.39376-.444.63526.63526,0,0,0-1.05867.26808,1.62475,1.62475,0,0,0,.09458,1.37529,12.82368,12.82368,0,0,1,.76478,1.74181,9.89728,9.89728,0,0,0,1.701,2.988,17.31316,17.31316,0,0,0,6.06257,4.52671,12.89162,12.89162,0,0,0,5.23144,1.49468C72.13794,149.84359,73.011,149.87011,73.88326,149.90085ZM61.059,128.35519a1.56065,1.56065,0,0,0,1.681-1.40253,1.98857,1.98857,0,0,1,.3089-1.1135,1.14637,1.14637,0,0,0-.0677-1.52685,4.59884,4.59884,0,0,0-.99969-.999,1.56083,1.56083,0,0,0-2.28777.37417,3.98562,3.98562,0,0,0-.53409.916c-.71345,1.77463.26322,3.00823,1.61092,3.68122A1.09,1.09,0,0,0,61.059,128.35519Zm29.44426-3.68051a3.35753,3.35753,0,0,0-.88388-2.10276,1.42867,1.42867,0,0,0-1.71772-.37774,3.693,3.693,0,0,0-1.0814.70094,1.72506,1.72506,0,0,0-.43529,2.15237,4.883,4.883,0,0,1,.23391.67156,1.56325,1.56325,0,0,0,2.33031,1.00255c.24678-.1201.4601-.3114.70688-.43286A1.588,1.588,0,0,0,90.5033,124.67469Z" fill="#fff" fill-rule="evenodd"/>
            <path d="M60.37132,167.89925a7.04682,7.04682,0,0,1,2.4271.02588c.75013.05655,1.503.08514,2.31808.12982a15.92543,15.92543,0,0,1,.53445,2.89864,9.3337,9.3337,0,0,0,.99834,3.52488.8273.8273,0,0,0,.60036.534c.69537.16271,1.38966.33028,2.08989.465a5.89646,5.89646,0,0,0,3.37475-.444,5.416,5.416,0,0,0,3.49657-3.17229,4.5352,4.5352,0,0,0,.45938-1.83882c.03067-.83012.05476-1.66017.08343-2.551,1.7055-.44123,3.40613-.81053,5.05966-1.32925,1.663-.52079,3.27874-1.19028,4.999-1.8256a5.85806,5.85806,0,0,1,.60458,2.20613,1.3819,1.3819,0,0,0,.11481.69251,16.70892,16.70892,0,0,1,1.19521,4.59441c.22161,1.33547.52708,2.6445.83563,3.95767.46425,1.97222.835,3.97168,1.41654,5.9083.82484,2.74294,1.37179,5.55221,2.14222,8.30487.50228,1.7935,1.17284,3.541,1.79943,5.2995q1.66189,4.658,2.94675,9.43246a10.44187,10.44187,0,0,0,.31626,1.14632,11.65871,11.65871,0,0,1,.68379,4.21181c.01294.83427-.02438,1.66918-.039,2.50281a2.32648,2.32648,0,0,1-.532,1.42412,1.27739,1.27739,0,0,1-.7665.52851,12.9775,12.9775,0,0,1-2.23022.33857q-7.38949.02724-14.77971-.037c-1.30652-.0133-2.612-.20524-3.91756-.32534-1.26534-.1166-2.52861-.25414-3.79467-.36652-.94944-.08514-1.90416-.11588-2.8501-.22269-2.72092-.30511-5.43983-.6346-8.14159-1.09048-2.27-.38325-4.54337-.73933-6.78053-1.29716-1.7303-.43072-3.46726-.83842-5.19513-1.27893a3.53708,3.53708,0,0,1-.74212-.3924c.03732-.43422.05447-.828.10645-1.21752.21575-1.61128.4636-3.219.658-4.83311a20.53015,20.53015,0,0,1,1.30066-5.176c.92148-2.324,1.70728-4.70257,2.5412-7.06083.34415-.97253.63246-1.96521,1.00077-2.92723a80.35644,80.35644,0,0,0,2.57394-8.67289c.64511-2.49859,1.34462-4.98324,1.997-7.4804a25.60156,25.60156,0,0,0,.93657-4.18042A1.87317,1.87317,0,0,1,60.37132,167.89925Z" fill="#8d7c98" fill-rule="evenodd"/>
            <path d="M103.11527,119.75007a56.85861,56.85861,0,0,0-4.82368-5.67017,8.69666,8.69666,0,0,0-1.561-1.2825c-.70409-.51729-1.42869-1.0067-2.15859-1.48767a20.34912,20.34912,0,0,0-6.02175-2.773,31.384,31.384,0,0,0-4.67434-.86923,14.43091,14.43091,0,0,1-1.64616-.24292,19.6131,19.6131,0,0,0-4.39088-.28274c-2.30629-.00207-4.6125.01394-6.91843-.00493a36.54118,36.54118,0,0,0-6.9942.59764c-2.26547.41957-4.53293.83005-6.799,1.24683-.19552.0356-.38718.088-.58227.125a1.08891,1.08891,0,0,0-.92849.81268c-.0534.18566-.13962.3623-.21089.54453-1.18363.28059-2.33938.54939-3.49235.83148a5.817,5.817,0,0,0-1.13867.33371,18.88691,18.88691,0,0,0-3.899,2.50274c-.60944.50685-1.12709,1.12194-1.71007,1.66153a14.71566,14.71566,0,0,0-2.37327,3.40063A31.6523,31.6523,0,0,0,40.141,124.912a8.47113,8.47113,0,0,1-.41156.84964,4.05666,4.05666,0,0,1-1.86256-.44959,21.11307,21.11307,0,0,1-3.8781-1.80465,9.29086,9.29086,0,0,1-3.58285-4.19858,7.02806,7.02806,0,0,1-.28724-4.36958,6.12443,6.12443,0,0,1,4.70465-1.13588,13.324,13.324,0,0,1,4.046,1.33347,1.00149,1.00149,0,0,0,1.53414-.8748,19.82054,19.82054,0,0,0-.119-3.5667,29.82835,29.82835,0,0,1-.192-7.36037,4.99635,4.99635,0,0,1,1.4169-2.82322,2.06345,2.06345,0,0,1,1.47337-.69537,5.99867,5.99867,0,0,1,1.7792.06148,8.572,8.572,0,0,1,3.26266,1.38158,1.13756,1.13756,0,0,0,1.94749-.85872c.04847-.51243-.00558-1.036.05619-1.54708A17.96178,17.96178,0,0,1,52.123,92.31292c.26808-.48655.5644-.95852.83634-1.443a4.5504,4.5504,0,0,1,1.47094-1.53378,3.64448,3.64448,0,0,1,4.94621.571,19.88086,19.88086,0,0,1,1.55687,1.95542c.5965.84127,1.14074,1.72022,1.70342,2.58659a6.32064,6.32064,0,0,1,.95744,2.0392,1.916,1.916,0,0,0,.92892,1.18685.96767.96767,0,0,0,1.37944-.199,7.24576,7.24576,0,0,0,.59521-1.02907c.80246-1.50726,1.591-3.02288,2.40294-4.52457.28309-.52358.60772-1.02486.93828-1.5212a11.99988,11.99988,0,0,1,4.8003-4.16084,2.85526,2.85526,0,0,1,3.455.6953,11.76919,11.76919,0,0,1,2.59081,4.76756,13.30271,13.30271,0,0,1,.5466,3.03682c.03246,1.00884.60107,1.35506,1.61864,1.12887A9.26531,9.26531,0,0,0,85.615,94.519c.54031-.32885,1.10092-.62345,1.64966-.939a3.147,3.147,0,0,1,2.54184-.222,6.3932,6.3932,0,0,1,2.56178,1.20222,3.35656,3.35656,0,0,1,1.22388,2.36662,22.59578,22.59578,0,0,1-.01051,2.61733,2.23335,2.23335,0,0,1-.49849,1.4367,1.37783,1.37783,0,0,0-.25793,1.12816,1.04707,1.04707,0,0,0,1.44685.939c.83742-.24363,1.67276-.49634,2.5161-.71624a4.49963,4.49963,0,0,1,1.05588-.14526c1.11314-.01809,2.226.00493,3.33915-.00908a5.91427,5.91427,0,0,1,2.71506.79524,1.90735,1.90735,0,0,1,.46424.36859,1.61181,1.61181,0,0,1,.1068,2.4246,8.52683,8.52683,0,0,1-.98261.86429,1.47363,1.47363,0,0,0-.57705.8733,1.08427,1.08427,0,0,0,.97567,1.36071,7.32649,7.32649,0,0,0,1.072.01251,8.11,8.11,0,0,1,4.075,1.161,2.21736,2.21736,0,0,1,.65412.50893,6.52645,6.52645,0,0,1,1.54987,3.17365,3.728,3.728,0,0,1-.97875,3.08086,5.15142,5.15142,0,0,1-1.24583,1.08562,10.13016,10.13016,0,0,1-4.14689,1.71529C104.314,119.66421,103.759,119.69631,103.11527,119.75007Z" fill="#d0c213" fill-rule="evenodd"/>
            <path d="M52.37464,213.28741a1.41349,1.41349,0,0,1,1.08491.08865,76.9886,76.9886,0,0,0,8.39952,1.6734q4.00127.6168,8.01906,1.13445c1.17985.15363,2.3747.18923,3.56219.289,2.057.17457,4.11194.38053,6.17144.52923,1.30616.09494,2.61726.14376,3.927.155,2.62319.023,5.2471.02931,7.87029-.00143a28.39584,28.39584,0,0,0,5.85211-.24292c.289.65133.54489,1.26356.82969,1.86191q1.48024,3.12368,2.98,6.23636a10.95816,10.95816,0,0,1,1.00463,2.9168c.05962.34765.06591.70366.09143,1.0032a2.40743,2.40743,0,0,1-1.32332.87058,16.71982,16.71982,0,0,1-3.82084.851,18.17051,18.17051,0,0,0-1.88458.287,9.2772,9.2772,0,0,1-4.12666-.10337,7.92932,7.92932,0,0,0-1.64931-.19967,12.89647,12.89647,0,0,1-1.64166-.222,8.11141,8.11141,0,0,1-3.07629-1.72787,2.41583,2.41583,0,0,1-.59242-.73583c-.35744-.57248-.6712-1.17076-1.03043-1.74181a13.57422,13.57422,0,0,1-1.59133-3.96188c-.15534-.61366-.354-1.21895-.56276-1.81723a1.74245,1.74245,0,0,0-1.60319-1.22245c-.2367-.0223-.47511-.03138-.71281-.03138q-3.039-.00311-6.07794-.00071c-1.21788-.00136-1.83811.13476-2.26261,1.8612a57.48585,57.48585,0,0,1-2.06473,7.558,7.848,7.848,0,0,1-1.21473,2.47907,31.69031,31.69031,0,0,1-4.58948-.08243c-.71074-.0677-1.41268-.22061-2.12092-.31a2.20328,2.20328,0,0,1-1.76212-.814.59668.59668,0,0,0-.76721-.14941,1.578,1.578,0,0,1-1.26327.04254c-2.23051-.56755-4.46316-1.12394-6.693-1.69084a1.3876,1.3876,0,0,1-.98089-.52987c.03739-.16893.088-.393.13719-.61716.20424-.93056.41335-1.86048.61051-2.79183a11.11146,11.11146,0,0,1,.57805-1.9324,37.15407,37.15407,0,0,0,2.12235-7.05526A17.99978,17.99978,0,0,0,52.37464,213.28741Z" fill="#79c49f" fill-rule="evenodd"/>
            <path d="M109.48188,133.94794a23.545,23.545,0,0,0-1.8326-6.49958,3.59933,3.59933,0,0,1,1.09884-1.406c.27652-.22555.56726-.43358.84549-.6549a3.60393,3.60393,0,0,1,2.28284-.87752c.75048,0,1.50619-.08235,2.24938-.01323a3.89164,3.89164,0,0,1,1.44964.47054,2.36977,2.36977,0,0,1,1.15647,1.84376,5.66354,5.66354,0,0,1-.652,3.43616,4.26655,4.26655,0,0,1-2.55657,2.32759c-1.0112.34136-1.998.75327-3.00158,1.11629C110.232,133.79574,109.92032,133.84107,109.48188,133.94794Z" fill="#fff" fill-rule="evenodd"/>
            <path d="M107.932,258.93379a18.3009,18.3009,0,0,1,4.7361-1.88215,23.66121,23.66121,0,0,1,4.6115-.40069q1.9022.02724,3.80582.08514a2.48542,2.48542,0,0,1,1.90066,1.08283.81517.81517,0,0,1-.03939,1.08905,3.89415,3.89415,0,0,1-.85664.62831,7.60435,7.60435,0,0,1-2.58831.84263,20.59081,20.59081,0,0,1-5.10262.24856A14.9196,14.9196,0,0,1,107.932,258.93379Z" fill="#9d7c1d" fill-rule="evenodd"/>
            <path d="M37.09472,136.45346c-.11238.77143-.2091,1.43048-.304,2.08045a2.65042,2.65042,0,0,1-1.48074.053c-.77565-.16335-1.5523-.32949-2.32194-.52079a10.04079,10.04079,0,0,1-3.66413-1.908,2.03388,2.03388,0,0,1-.80739-1.77255,5.06086,5.06086,0,0,1,.503-2.06437,1.60706,1.60706,0,0,1,1.38644-.97739,6.67918,6.67918,0,0,1,2.13242,0,7.47534,7.47534,0,0,1,3.13569,1.85634c.21883.63389.48591,1.25591.64189,1.90445A1.94254,1.94254,0,0,0,37.09472,136.45346Z" fill="#fff" fill-rule="evenodd"/>
            <path d="M66.95647,168.08569c1.42312-.007,2.64936.016,3.87388-.02724,1.18435-.04189,2.36634-.15356,3.54368-.23319.5243,1.44585.14312,3.62189-1.01506,4.48968a4.53332,4.53332,0,0,1-5.0272.703,3.4201,3.4201,0,0,1-.60529-1.51A13.22776,13.22776,0,0,0,66.95647,168.08569Z" fill="#fff" fill-rule="evenodd"/>
            <path d="M53.48085,261.01217a8.13034,8.13034,0,0,1-5.92259.92427c-.69565-.13962-1.404-.21711-2.10869-.31062a1.54667,1.54667,0,0,1-.98783-.35187,1.18009,1.18009,0,0,1,1.17913-1.10306c.58992-.05447,1.18049-.12982,1.77184-.14312,1.02872-.02166,2.05979.02166,3.08815-.00979a3.65224,3.65224,0,0,1,2.15023.52923C52.88285,260.69519,53.13141,260.81736,53.48085,261.01217Z" fill="#9d7c1d" fill-rule="evenodd"/>
            <path d="M55.11271,128.95627c-1.90309-2.285-5.555-2.442-8.16111-1.63287a10.012,10.012,0,0,0-6.7317,12.12435c1.45872,5.85382,8.55587,7.68993,13.21869,4.33048a8.12831,8.12831,0,0,0,3.16951-7.06784,8.384,8.384,0,0,0-.19338-1.34041A6.31457,6.31457,0,0,0,55.11271,128.95627Z" fill="#ff9595" fill-rule="evenodd"/>
            <path d="M103.52333,129.73542a6.38513,6.38513,0,0,0-1.70585-3.87252c-2.65186-2.69268-6.45876-2.41831-9.57658-.75678-3.64526,1.94291-3.91263,6.3383-3.41628,9.92737.502,3.631,3.96674,6.12262,7.434,6.24544,3.46726.12217,6.91914-2.75895,7.83369-6.03526A7.60511,7.60511,0,0,0,103.52333,129.73542Z" fill="#ff9595" fill-rule="evenodd"/>
          </g>
          <g>
            <path d="M5.98893,148.80894c0-1.92468-.00458-3.67214.00207-5.41953.00243-.75542.00071-1.51212.0534-2.26547a4.34057,4.34057,0,0,1,.26808-1.14982.65529.65529,0,0,1,.65626-.43143.6325.6325,0,0,1,.62588.467,5.22535,5.22535,0,0,1,.2342,1.279c.04818,1.82774.0534,3.65677.08621,5.48451a5.58713,5.58713,0,0,0,.33335,2.22422c.06177.141.14762.27158.20667.37839a1.14207,1.14207,0,0,0,.16264.02652,3.30834,3.30834,0,0,0,2.42388-1.30338,13.37718,13.37718,0,0,1,1.1055-1.08634,3.90747,3.90747,0,0,1,.55153-.45166,1.10582,1.10582,0,0,1,1.22588.05519,1.07043,1.07043,0,0,1,.03253,1.12322,1.83678,1.83678,0,0,1-.28524.37839c-.74348.77493-1.44263,1.60155-2.25245,2.30035a4.11931,4.11931,0,0,1-2.86025,1.27478,1.18112,1.18112,0,0,0-.318.07192.40408.40408,0,0,0,.04847.55711c.51314.606,1.00391,1.235,1.568,1.79071,1.55787,1.5345,3.11153,3.07593,4.734,4.53994a29.23925,29.23925,0,0,0,7.82,5.16475,58.35866,58.35866,0,0,0,6.59387,2.39593q3.24732.98654,6.5306,1.85426c1.07161.28131,2.1771.44473,3.27424.622,1.52856.24506,3.07035.4112,4.59155.69322a19.74756,19.74756,0,0,0,3.08086.2758c1.59033.04261,3.18209.00279,4.77313.016a4.57838,4.57838,0,0,0,2.06994-.46982c.96409-.467,1.95127-.8901,2.923-1.34319.39519-.18358.77844-.39376,1.16033-.60386.05826-.03145.08064-.12846.14977-.24578-.75821-.30089-1.51-.60036-2.2616-.89847a32.4099,32.4099,0,0,1-7.52758-4.06518c-1.11422-.83012-2.24273-1.6448-3.34823-2.48744a6.489,6.489,0,0,1-1.54636-1.6378c-1.10092-1.69928-2.26018-3.36224-3.33915-5.0761a18.24,18.24,0,0,1-1.8256-4.512c-.15041-.49363-.28481-.99347-.40941-1.49539a29.8123,29.8123,0,0,1-.4671-4.97137c-.02338-.31-.029-.62138-.04568-1.00391a10.14783,10.14783,0,0,1-1.20672-.095,37.05938,37.05938,0,0,1-3.83377-.8545,11.472,11.472,0,0,1-3.82434-2.14744,4.06085,4.06085,0,0,1-1.52156-3.46826,7.29673,7.29673,0,0,1,.68207-2.8749,3.60237,3.60237,0,0,1,2.92931-2.16767,16.569,16.569,0,0,1,2.736-.05033,2.5101,2.5101,0,0,1,1.11908.368,28.73912,28.73912,0,0,1,2.48879,1.63151,6.22,6.22,0,0,1,.92156,1.07726c.09322.11238.1843.22755.34486.42586.41856-1.67347.80739-3.23235,1.21931-4.87994-.24156-.09358-.51557-.22547-.80388-.3079a19.95591,19.95591,0,0,1-5.006-2.17954,11.1196,11.1196,0,0,1-4.8715-6.1184,8.91225,8.91225,0,0,1-.13583-4.58462,2.45846,2.45846,0,0,1,1.15925-1.60291,8.21846,8.21846,0,0,1,5.30751-1.3725,17.037,17.037,0,0,1,3.13984.67785c.14905.0454.30233.07471.53616.13125a2.62215,2.62215,0,0,0,.11309-.67578c-.09944-.90754-.24435-1.81023-.34765-2.71777a9.651,9.651,0,0,1-.09144-1.54222c.07156-1.46258-.0702-2.92795.12775-4.39053a7.33432,7.33432,0,0,1,2.3045-4.33677,4.28385,4.28385,0,0,1,2.70212-1.1323,7.34473,7.34473,0,0,1,3.394.47611c.43558.17872.88488.32463,1.25419.45867.32706-.1201.32949-.33163.35494-.52365a20.80876,20.80876,0,0,1,3.30984-8.48223A6.76239,6.76239,0,0,1,55.20522,86.656a5.454,5.454,0,0,1,3.92728.47683,8.4558,8.4558,0,0,1,3.0938,2.91193c.81647,1.12394,1.55015,2.308,2.32194,3.46475.16828.25207.34207.502.58506.85736.376-.68207.69251-1.27342,1.02414-1.85426.59028-1.03529,1.17527-2.07409,1.78964-3.0948a14.56069,14.56069,0,0,1,4.97766-4.70744,5.42078,5.42078,0,0,1,3.39848-.89711,4.6225,4.6225,0,0,1,2.88677,1.251,13.05909,13.05909,0,0,1,2.88641,4.19436,21.91559,21.91559,0,0,1,1.006,3.29583c.06284.22547.132.44959.18887.64225.32077.15013.47683-.097.6775-.17936a2.08865,2.08865,0,0,0,.502-.31419,10.40816,10.40816,0,0,1,2.73979-1.42,3.63612,3.63612,0,0,1,1.40432-.18151,8.12969,8.12969,0,0,1,5.24846,1.9457A5.23874,5.23874,0,0,1,95.73539,96.899c.05061.86987.008,1.74667.00665,2.62-.00036.22969,0,.4601,0,.666.15391.04332.23248.09358.29668.07821a25.34353,25.34353,0,0,1,5.466-.20453,6.89833,6.89833,0,0,1,3.69523,1.20494,4.07877,4.07877,0,0,1,1.91389,2.89585,3.70236,3.70236,0,0,1-.09358,1.29015,8.79118,8.79118,0,0,1-.42614,1.18749,5.72422,5.72422,0,0,0,.58113.30232c.406.15849.81611.31069,1.23468.43422a6.73327,6.73327,0,0,1,4.47881,4.29073,8.61722,8.61722,0,0,1,.50442,1.83189,5.84792,5.84792,0,0,1-1.32854,4.56017,6.63691,6.63691,0,0,1-1.83539,1.67969,11.61658,11.61658,0,0,1-5.42411,1.97708,2.88472,2.88472,0,0,0-.41713.09494,10.65394,10.65394,0,0,0,1.06153,1.8424c.36652.61294.75013,1.2168,1.16555,1.88908.19059-.16264.36788-.29875.52708-.45166a10.24156,10.24156,0,0,1,2.64028-2.0169,3.91042,3.91042,0,0,1,1.48-.40627,15.33271,15.33271,0,0,1,3.32871-.06005,4.56034,4.56034,0,0,1,4.09971,3.73355,7.61461,7.61461,0,0,1-2.03713,6.69159,3.86614,3.86614,0,0,1-1.54179,1.09885c-1.36343.54381-2.72585,1.0912-4.10258,1.60077a6.97173,6.97173,0,0,1-1.23425.21018,5.073,5.073,0,0,0-.05519.77908,17.45088,17.45088,0,0,1-.41363,4.24955,25.37758,25.37758,0,0,1-2.1157,6.55191,20.99645,20.99645,0,0,1-2.98828,4.71237c-.77322.90826-1.48531,1.86677-2.25846,2.77368a11.28913,11.28913,0,0,1-1.27657,1.24475c-.724.61995-1.48874,1.19243-2.21585,1.80951a20.2697,20.2697,0,0,1-5.33017,3.33708,11.67219,11.67219,0,0,0-2.19283,1.15261,8.89962,8.89962,0,0,0,1.10235.44959c1.656.41613,3.25393,1.03951,4.9427,1.33833a30.43951,30.43951,0,0,0,7.22947.52222,16.81487,16.81487,0,0,1,1.78406-.08872,10.38821,10.38821,0,0,0,3.74442-.62831,25.331,25.331,0,0,0,4.34935-1.931,28.42638,28.42638,0,0,0,6.06671-4.58741q1.2321-1.21269,2.56007-2.32552a27.7818,27.7818,0,0,0,3.36116-3.69795,44.55131,44.55131,0,0,0,4.27529-6.8661,20.11766,20.11766,0,0,0,.982-2.29406c.3721-.92084.6908-1.8647,1.10442-2.76388a3.7638,3.7638,0,0,0,.28974-1.97572c-.10409-1.10442-.26322-2.2047-.40705-3.37261a15.55977,15.55977,0,0,1-2.65779-3.1214c-.30225-.36581-.58706-.7477-.87194-1.12952a2.73333,2.73333,0,0,1-.31691-.50128.68093.68093,0,0,1,.53616-.983,1.87211,1.87211,0,0,1,1.79729.70931c.28031.33371.51486.7058.78294,1.04995.16721.21575.35922.41192.53444.613.28867-.07685.22933-.28624.23284-.47475q.03925-2.14465.08479-4.29a1.71428,1.71428,0,0,1,.36759-1.22238,1.04491,1.04491,0,0,1,1.64094.12146.671.671,0,0,1,.08028.54939,3.1772,3.1772,0,0,0-.19059,1.52192c.015,1.50869.04575,3.01731.07263,4.62236a5.43044,5.43044,0,0,0,1.7411-1.01649,11.91038,11.91038,0,0,0,1.55509-1.46465,3.24664,3.24664,0,0,1,1.67061-.84127.765.765,0,0,1,.84721.30161.82729.82729,0,0,1,.0722.90125,1.55167,1.55167,0,0,1-.35673.47125q-.82987.75813-1.68491,1.48839a13.93709,13.93709,0,0,1-1.99524,1.49682,10.51966,10.51966,0,0,0-1.35127,1.09327c0,.64783-.00243,1.23918.00108,1.83117.00171.27852.02094.55568.02237.83355a8.20209,8.20209,0,0,1-1.04058,4.94c-.39583.90962-.72747,1.84654-1.10657,2.76388a14.97091,14.97091,0,0,1-.74276,1.61614c-.81611,1.4535-1.61757,2.91958-2.5136,4.32426-.68279,1.06947-1.4926,2.05736-2.26339,3.06821a15.6594,15.6594,0,0,1-1.0814,1.2692c-.65412.69186-1.31453,1.38094-2.006,2.03506-1.06811,1.0102-2.17046,1.98552-3.24736,2.98592a29.9001,29.9001,0,0,1-8.78456,5.6262,21.47686,21.47686,0,0,1-4.44986,1.28107c-.85135.15985-1.74632.07192-2.61447.16056a28.125,28.125,0,0,1-5.71142-.14176,25.40781,25.40781,0,0,1-5.3459-1.126q-2.15141-.70066-4.31025-1.383a1.65159,1.65159,0,0,0-.38325-.023,26.42769,26.42769,0,0,0,.85243,3.91156c.36338,1.21266.55325,2.47628.81082,3.719.12882.622.22026,1.25176.36166,1.87028q.61937,2.73314,1.26777,5.4552c.14591.61709.28974,1.23918.48591,1.843.89882,2.76038,1.45808,5.60876,2.17646,8.41589a25.37717,25.37717,0,0,0,.94665,2.94889c1.60741,4.11129,2.84244,8.33847,4.076,12.57265a20.98646,20.98646,0,0,1,.83291,5.155,29.50238,29.50238,0,0,1-.14212,3.09337,3.14693,3.14693,0,0,1-.84228,1.9359,1.86433,1.86433,0,0,0-.21189,2.30664c1.08491,2.211,2.14679,4.43385,3.22848,6.64756a11.125,11.125,0,0,1,1.21687,4.3284c.01222.23806.0035.47611.01394.71488a1.6795,1.6795,0,0,1-.88831,1.6902,2.20173,2.20173,0,0,0-.56061.44051,1.95647,1.95647,0,0,1-1.13759.5822c-.73483.15642-1.44864.41263-2.1824.576-.88731.19831-1.78649.3435-2.75723.52573a4.16287,4.16287,0,0,0,.75885,1.4535,25.76293,25.76293,0,0,1,3.0191,5.66531c.341.88939.72117,1.76412,1.09606,2.64028.969,2.26268,1.93447,4.52807,2.923,6.78231.4468,1.01721.95887,2.005,1.41654,3.018a14.62149,14.62149,0,0,1,1.13724,3.37339,3.31646,3.31646,0,0,0,.30647.68271c.362-.1675.68764-.305,1.00183-.46489a15.16736,15.16736,0,0,1,6.29919-1.61549c2.06294-.08586,4.1326-.02095,6.19975-.01258a4.82076,4.82076,0,0,1,3.70289,1.88286,3.19174,3.19174,0,0,1-.43744,4.30467,7.92721,7.92721,0,0,1-2.61969,1.38015,17.996,17.996,0,0,1-4.81152.75892,23.26192,23.26192,0,0,1-6.38855-.5955,8.41835,8.41835,0,0,1-4.024-1.95478,1.33266,1.33266,0,0,1-.4967-1.147,1.30387,1.30387,0,0,0-.12846-.67928,10.25235,10.25235,0,0,1-.8437-2.46785,17.459,17.459,0,0,0-1.45107-3.772c-.97389-1.9171-1.72573-3.92628-2.56629-5.8985-1.04194-2.44554-2.07066-4.89874-3.13812-7.33385a18.95617,18.95617,0,0,0-1.08627-1.97987c-.70373-1.19378-1.42662-2.37642-2.191-3.64633-.36166,0-.79416-.00207-1.227,0a9.45154,9.45154,0,0,1-2.7059-.34207,4.44991,4.44991,0,0,0-1.29716-.127,17.318,17.318,0,0,1-3.50071-.66956.53922.53922,0,0,1-.2126-.10259c-.86358-.6346-1.73517-1.25941-2.58238-1.91639a2.67455,2.67455,0,0,1-.622-.71767,23.0836,23.0836,0,0,1-2.76109-5.393c-.18887-.64861-.34872-1.30481-.52887-1.95478-.052-.18851-.12811-.37074-.2066-.5955a16.92849,16.92849,0,0,0-3.19882-.10895c-1.02872-.01952-2.05779.00772-3.0582.01466a3.379,3.379,0,0,0-.62724,1.47659,34.54446,34.54446,0,0,1-1.71779,6.1826c-.11095,1.27407-.9864,2.23608-1.391,3.39148a1.08,1.08,0,0,1-.97317.76657c-.39476.03353-.79059.0845-1.18613.09286a34.43607,34.43607,0,0,1-7.5897-.62131,2.57354,2.57354,0,0,0-.42407-.00214,3.14477,3.14477,0,0,0-.16164.66112,17.94035,17.94035,0,0,1-.42657,4.02122,4.77883,4.77883,0,0,0-.0499,1.06818c-.0311,1.51141-.04018,3.02217-.09844,4.53086-.028.7121-.1913,1.41718-.223,2.12857-.06177,1.4214-.10366,2.84559-.104,4.26764-.00243,3.17372.02652,6.34673.04046,9.52039a2.45641,2.45641,0,0,0,.27959,1.37186.99224.99224,0,0,1-.22376,1.29916,2.844,2.844,0,0,1-1.40145.84263,13.006,13.006,0,0,0-2.81064.95923,10.14318,10.14318,0,0,1-6.52159.64368c-.58156-.1166-1.17841-.155-1.76419-.25829a8.09194,8.09194,0,0,1-1.5034-.34557,2.44269,2.44269,0,0,1-1.4989-1.43534,1.72051,1.72051,0,0,1-.01151-1.38437,12.759,12.759,0,0,1,.67757-1.3893,3.00966,3.00966,0,0,1,2.08281-1.25734,10.12964,10.12964,0,0,1,2.011-.19824c1.27163-.03,2.54541.01537,3.81633-.02095a4.27429,4.27429,0,0,1,2.39386.56969,7.45228,7.45228,0,0,0,2.16145.79931c.01816-.41678.045-.76864.04711-1.12115.0108-3.33851.0286-6.67694.0213-10.01394a27.74415,27.74415,0,0,1,.32842-4.2705,25.48387,25.48387,0,0,0,.16657-3.09337c.02438-.83291-.00565-1.66646.02059-2.5a8.39745,8.39745,0,0,1,.1497-1.5345,32.72958,32.72958,0,0,0,.42972-4.37308c.00279-.0321-.03-.06841-.07749-.16821-1.25519-.32885-2.55585-.67649-3.85994-1.00741-1.0779-.27294-2.1691-.49706-3.239-.798a10.91946,10.91946,0,0,1-1.77041-.69394,1.85318,1.85318,0,0,1-1.0877-2.33109q.5026-2.20642,1.01227-4.41076a4.41446,4.41446,0,0,1,.28274-.909,36.85886,36.85886,0,0,0,1.80115-5.04257,20.14424,20.14424,0,0,0,.69816-3.61488,3.82818,3.82818,0,0,0-.03388-.63946,4.27444,4.27444,0,0,0-.65934-.21575,4.23626,4.23626,0,0,1-1.73838-.731,2.25177,2.25177,0,0,1-1.00491-2.0392,3.1825,3.1825,0,0,1,.04883-.474c.37145-2.19283.547-4.41219.88074-6.60781a20.04332,20.04332,0,0,1,1.2587-4.58176c.94529-2.31365,1.708-4.70265,2.54155-7.06162.26422-.74905.47018-1.51977.76442-2.257a73.26639,73.26639,0,0,0,2.752-8.86834c.65769-2.53626,1.40046-5.05022,2.06894-7.58441a13.60524,13.60524,0,0,0,.58013-2.52518,5.38355,5.38355,0,0,0-.60494.17386c-.98089.43286-1.96764.85521-2.93388,1.31875a6.49656,6.49656,0,0,1-2.99322.66048c-2.22493-.04468-4.45058-.05519-6.67408-.13268a11.77719,11.77719,0,0,1-2.23372-.33228,26.42613,26.42613,0,0,0-3.88646-.58363,23.05931,23.05931,0,0,1-4.54022-.92642c-2.32687-.67092-4.66461-1.31045-6.96418-2.06651a46.05077,46.05077,0,0,1-6.10761-2.35125A37.41707,37.41707,0,0,1,14.75533,161.51a36.96794,36.96794,0,0,1-3.868-3.5381c-1.14074-1.16376-2.28848-2.32266-3.38833-3.5248a6.182,6.182,0,0,1-1.55752-2.76881,1.19525,1.19525,0,0,0-.37217-.57384,9.18506,9.18506,0,0,0-.96967-.69115,8.40393,8.40393,0,0,1-2.61376-2.73107A19.07974,19.07974,0,0,1,.208,144.05889a4.28016,4.28016,0,0,1-.19059-1.75718.94762.94762,0,0,1,1.27063-.851c.40384.13125.629.37767.53059.79652a1.95633,1.95633,0,0,0,.16156,1.14424,15.0593,15.0593,0,0,0,2.02112,3.765A4.06386,4.06386,0,0,0,5.98893,148.80894Zm33.11676-7.95722a23.74225,23.74225,0,0,0,.65762,6.5617,19.6035,19.6035,0,0,0,2.012,4.81567c.924,1.43677,1.90066,2.83787,2.84145,4.26421a5.23189,5.23189,0,0,0,1.30473,1.37386c1.15754.83849,2.29828,1.70207,3.46311,2.53076a33.49517,33.49517,0,0,0,10.4363,4.82825,6.44747,6.44747,0,0,0,1.28879.2234c1.42519.10259,2.85217.2234,4.2805.25128a56.51175,56.51175,0,0,0,8.33325-.20524,42.83416,42.83416,0,0,0,8.685-2.00289q1.40539-.49016,2.78626-1.0458a1.24411,1.24411,0,0,0,.64783-.4754,1.09533,1.09533,0,0,1,1.29051-.60879,2.36947,2.36947,0,0,0,1.473-.34629c1.43291-.68557,2.89513-1.31245,4.30224-2.04757a24.75087,24.75087,0,0,0,3.03933-1.86749c1.19028-.86015,2.30522-1.82352,3.44316-2.75487a4.87276,4.87276,0,0,0,.6667-.67714c.93685-1.1338,1.89087-2.255,2.78347-3.42222a15.65217,15.65217,0,0,0,1.64337-2.477,23.48625,23.48625,0,0,0,2.38271-6.459,19.60563,19.60563,0,0,0,.45238-5.7917c-.08972-.71-.20453-1.41647-.29146-2.12578a18.28165,18.28165,0,0,0-1.05488-3.89769,22.82268,22.82268,0,0,0-2.03856-3.90112c-.78887-1.3334-1.60391-2.6515-2.41588-3.97168a14.9496,14.9496,0,0,0-1.95056-2.69547c-.83148-.85243-1.628-1.7446-2.39557-2.65565A8.85047,8.85047,0,0,0,95.41,114.67955c-.85028-.58642-1.69856-1.1777-2.56314-1.7411a17.9745,17.9745,0,0,0-7.07942-2.64314c-1.44928-.23177-2.89857-.46846-4.3535-.65555a24.95752,24.95752,0,0,0-2.84731-.2234c-2.54263-.0391-5.08654-.067-7.62845-.02931a47.105,47.105,0,0,0-4.87122.28831c-1.77012.21018-3.52237.57805-5.28063.88731a13.74183,13.74183,0,0,0-1.97744.40491c-.7868.26043-1.52578.65834-2.29856.96209-.58785.23177-1.1945.42092-1.79908.60665a31.62011,31.62011,0,0,0-3.90848,1.36343,12.71041,12.71041,0,0,0-4.84012,4.13782,24.55393,24.55393,0,0,0-3.16636,5.85382c-.32849.84749-.64054,1.70135-.96588,2.56772a4.75521,4.75521,0,0,1,.25864.4042c.312.599.21118.94386-.3934,1.25176a3.34889,3.34889,0,0,1-.62309.18844,43.45462,43.45462,0,0,0-1.91667,10.31627C40.38847,139.59159,40.1106,140.03,39.10569,140.85171Zm21.26563,27.04754a1.87317,1.87317,0,0,0-.15842.40634,25.60156,25.60156,0,0,1-.93657,4.18042c-.6524,2.49716-1.35192,4.98181-1.997,7.4804a80.35644,80.35644,0,0,1-2.57394,8.67289c-.36831.962-.65662,1.95471-1.00077,2.92723-.83391,2.35826-1.61971,4.73682-2.5412,7.06083a20.53015,20.53015,0,0,0-1.30066,5.176c-.19438,1.61406-.44223,3.22184-.658,4.83311-.052.38954-.06913.7833-.10645,1.21752a3.53708,3.53708,0,0,0,.74212.3924c1.72787.44051,3.46483.84821,5.19513,1.27893,2.23716.55782,4.51056.91391,6.78053,1.29716,2.70176.45588,5.42067.78537,8.14159,1.09048.94593.1068,1.90066.13754,2.8501.22269,1.26606.11238,2.52933.24992,3.79467.36652,1.30552.1201,2.611.312,3.91756.32534q7.3895.07538,14.77971.037a12.9775,12.9775,0,0,0,2.23022-.33857,1.27739,1.27739,0,0,0,.7665-.52851,2.32648,2.32648,0,0,0,.532-1.42412c.01466-.83363.052-1.66854.039-2.50281a11.65871,11.65871,0,0,0-.68379-4.21181,10.44187,10.44187,0,0,1-.31626-1.14632q-1.29322-4.77206-2.94675-9.43246c-.6266-1.75854-1.29716-3.506-1.79943-5.2995-.77043-2.75266-1.31738-5.56194-2.14222-8.30487-.58156-1.93662-.9523-3.93608-1.41654-5.9083-.30854-1.31317-.614-2.62219-.83563-3.95767a16.70892,16.70892,0,0,0-1.19521-4.59441,1.3819,1.3819,0,0,1-.11481-.69251,5.85806,5.85806,0,0,0-.60458-2.20613c-1.72022.63532-3.336,1.30481-4.999,1.8256-1.65353.51872-3.35416.888-5.05966,1.32925-.02867.89082-.05276,1.72087-.08343,2.551a4.5352,4.5352,0,0,1-.45938,1.83882,5.416,5.416,0,0,1-3.49657,3.17229,5.89646,5.89646,0,0,1-3.37475.444c-.70023-.13468-1.39452-.30225-2.08989-.465a.8273.8273,0,0,1-.60036-.534,9.3337,9.3337,0,0,1-.99834-3.52488,15.92543,15.92543,0,0,0-.53445-2.89864c-.815-.04468-1.568-.07328-2.31808-.12982A7.04682,7.04682,0,0,0,60.37132,167.89925Zm42.74395-48.14918c.64368-.05376,1.19872-.08586,1.74954-.148a10.13016,10.13016,0,0,0,4.14689-1.71529,5.15142,5.15142,0,0,0,1.24583-1.08562,3.728,3.728,0,0,0,.97875-3.08086,6.52645,6.52645,0,0,0-1.54987-3.17365,2.21736,2.21736,0,0,0-.65412-.50893,8.11,8.11,0,0,0-4.075-1.161,7.32649,7.32649,0,0,1-1.072-.01251,1.08427,1.08427,0,0,1-.97567-1.36071,1.47363,1.47363,0,0,1,.57705-.8733,8.52683,8.52683,0,0,0,.98261-.86429,1.61181,1.61181,0,0,0-.1068-2.4246,1.90735,1.90735,0,0,0-.46424-.36859,5.91427,5.91427,0,0,0-2.71506-.79524c-1.11314.014-2.226-.009-3.33915.00908a4.49963,4.49963,0,0,0-1.05588.14526c-.84335.2199-1.67869.47261-2.5161.71624a1.04707,1.04707,0,0,1-1.44685-.939,1.37783,1.37783,0,0,1,.25793-1.12816,2.23335,2.23335,0,0,0,.49849-1.4367,22.59578,22.59578,0,0,0,.01051-2.61733,3.35656,3.35656,0,0,0-1.22388-2.36662A6.3932,6.3932,0,0,0,89.8065,93.358a3.147,3.147,0,0,0-2.54184.222c-.54874.31555-1.10936.61015-1.64966.939a9.26531,9.26531,0,0,1-2.7646,1.35013c-1.01756.22619-1.58618-.12-1.61864-1.12887a13.30271,13.30271,0,0,0-.5466-3.03682,11.76919,11.76919,0,0,0-2.59081-4.76756,2.85526,2.85526,0,0,0-3.455-.6953,11.99988,11.99988,0,0,0-4.8003,4.16084c-.33056.49634-.65519.99762-.93828,1.5212-.812,1.50168-1.60048,3.01731-2.40294,4.52457a7.24576,7.24576,0,0,1-.59521,1.02907.96767.96767,0,0,1-1.37944.199,1.916,1.916,0,0,1-.92892-1.18685,6.32064,6.32064,0,0,0-.95744-2.0392c-.56268-.86637-1.10693-1.74532-1.70342-2.58659a19.88086,19.88086,0,0,0-1.55687-1.95542,3.64448,3.64448,0,0,0-4.94621-.571,4.5504,4.5504,0,0,0-1.47094,1.53378c-.27194.48448-.56826.95644-.83634,1.443a17.96178,17.96178,0,0,0-2.09475,6.54075c-.06177.51107-.00772,1.03465-.05619,1.54708a1.13756,1.13756,0,0,1-1.94749.85872,8.572,8.572,0,0,0-3.26266-1.38158,5.99867,5.99867,0,0,0-1.7792-.06148,2.06345,2.06345,0,0,0-1.47337.69537,4.99635,4.99635,0,0,0-1.4169,2.82322,29.82835,29.82835,0,0,0,.192,7.36037,19.82054,19.82054,0,0,1,.119,3.5667,1.00149,1.00149,0,0,1-1.53414.8748,13.324,13.324,0,0,0-4.046-1.33347,6.12443,6.12443,0,0,0-4.70465,1.13588,7.02806,7.02806,0,0,0,.28724,4.36958,9.29086,9.29086,0,0,0,3.58285,4.19858,21.11307,21.11307,0,0,0,3.8781,1.80465,4.05666,4.05666,0,0,0,1.86256.44959,8.47113,8.47113,0,0,0,.41156-.84964,31.6523,31.6523,0,0,1,2.65114-5.71835A14.71566,14.71566,0,0,1,45.1654,115.793c.583-.53959,1.10063-1.15468,1.71007-1.66153a18.88691,18.88691,0,0,1,3.899-2.50274,5.817,5.817,0,0,1,1.13867-.33371c1.153-.28209,2.30872-.55089,3.49235-.83148.07127-.18222.15749-.35887.21089-.54453a1.08891,1.08891,0,0,1,.92849-.81268c.19509-.037.38675-.08936.58227-.125,2.26611-.41678,4.53358-.82726,6.799-1.24683a36.54118,36.54118,0,0,1,6.9942-.59764c2.30593.01887,4.61214.00286,6.91843.00493a19.6131,19.6131,0,0,1,4.39088.28274,14.43091,14.43091,0,0,0,1.64616.24292,31.384,31.384,0,0,1,4.67434.86923,20.34912,20.34912,0,0,1,6.02175,2.773c.7299.481,1.4545.97038,2.15859,1.48767a8.69666,8.69666,0,0,1,1.561,1.2825A56.85861,56.85861,0,0,1,103.11527,119.75007ZM52.37464,213.28741a17.99978,17.99978,0,0,1-.17207,1.85562,37.15407,37.15407,0,0,1-2.12235,7.05526,11.11146,11.11146,0,0,0-.57805,1.9324c-.19716.93135-.40627,1.86127-.61051,2.79183-.04918.22412-.0998.44823-.13719.61716a1.3876,1.3876,0,0,0,.98089.52987c2.22979.5669,4.46244,1.1233,6.693,1.69084a1.578,1.578,0,0,0,1.26327-.04254.59668.59668,0,0,1,.76721.14941,2.20328,2.20328,0,0,0,1.76212.814c.70823.08936,1.41018.24227,2.12092.31a31.69031,31.69031,0,0,0,4.58948.08243,7.848,7.848,0,0,0,1.21473-2.47907,57.48585,57.48585,0,0,0,2.06473-7.558c.4245-1.72644,1.04473-1.86256,2.26261-1.8612q3.03843.00107,6.07794.00071c.2377,0,.47611.00908.71281.03138A1.74245,1.74245,0,0,1,80.86731,220.43c.20875.59829.40741,1.20358.56276,1.81723a13.57422,13.57422,0,0,0,1.59133,3.96188c.35923.571.673,1.16933,1.03043,1.74181a2.41583,2.41583,0,0,0,.59242.73583,8.11141,8.11141,0,0,0,3.07629,1.72787,12.89647,12.89647,0,0,0,1.64166.222,7.92932,7.92932,0,0,1,1.64931.19967,9.2772,9.2772,0,0,0,4.12666.10337,18.17051,18.17051,0,0,1,1.88458-.287,16.71982,16.71982,0,0,0,3.82084-.851,2.40743,2.40743,0,0,0,1.32332-.87058c-.02552-.29954-.03181-.65555-.09143-1.0032a10.95816,10.95816,0,0,0-1.00463-2.9168q-1.5064-3.11017-2.98-6.23636c-.28481-.59836-.54067-1.21058-.82969-1.86191a28.39584,28.39584,0,0,1-5.85211.24292c-2.62319.03074-5.2471.02445-7.87029.00143-1.30974-.01122-2.62083-.06005-3.927-.155-2.05951-.1487-4.11444-.35465-6.17144-.52923-1.18749-.0998-2.38235-.1354-3.56219-.289q-4.0165-.52147-8.01906-1.13445a76.9886,76.9886,0,0,1-8.39952-1.6734A1.41349,1.41349,0,0,0,52.37464,213.28741Zm57.10724-79.33947c.43844-.10688.75013-.1522,1.03987-.25693,1.00355-.363,1.99038-.77493,3.00158-1.11629a4.26655,4.26655,0,0,0,2.55657-2.32759,5.66354,5.66354,0,0,0,.652-3.43616,2.36977,2.36977,0,0,0-1.15647-1.84376,3.89164,3.89164,0,0,0-1.44964-.47054c-.74319-.06913-1.4989.01323-2.24938.01323a3.60393,3.60393,0,0,0-2.28284.87752c-.27823.22133-.569.42936-.84549.6549a3.59933,3.59933,0,0,0-1.09884,1.406A23.545,23.545,0,0,1,109.48188,133.94794ZM107.932,258.93379a14.9196,14.9196,0,0,0,6.46712,1.6937,20.59081,20.59081,0,0,0,5.10262-.24856,7.60435,7.60435,0,0,0,2.58831-.84263,3.89415,3.89415,0,0,0,.85664-.62831.81517.81517,0,0,0,.03939-1.08905,2.48542,2.48542,0,0,0-1.90066-1.08283q-1.90326-.05866-3.80582-.08514a23.66121,23.66121,0,0,0-4.6115.40069A18.3009,18.3009,0,0,0,107.932,258.93379ZM37.09472,136.45346a1.94254,1.94254,0,0,1-.77879-1.34877c-.156-.64854-.42307-1.27056-.64189-1.90445a7.47534,7.47534,0,0,0-3.13569-1.85634,6.67918,6.67918,0,0,0-2.13242,0,1.60706,1.60706,0,0,0-1.38644.97739,5.06086,5.06086,0,0,0-.503,2.06437,2.03388,2.03388,0,0,0,.80739,1.77255,10.04079,10.04079,0,0,0,3.66413,1.908c.76964.1913,1.54629.35744,2.32194.52079a2.65042,2.65042,0,0,0,1.48074-.053C36.88562,137.88395,36.98234,137.22489,37.09472,136.45346Zm29.86175,31.63223a13.22776,13.22776,0,0,1,.77,3.42222,3.4201,3.4201,0,0,0,.60529,1.51,4.53332,4.53332,0,0,0,5.0272-.703c1.15818-.8678,1.53936-3.04383,1.01506-4.48968-1.17734.07964-2.35933.1913-3.54368.23319C69.60583,168.10171,68.37959,168.07869,66.95647,168.08569ZM53.48085,261.01217c-.34943-.19481-.598-.317-.82977-.465a3.65224,3.65224,0,0,0-2.15023-.52923c-1.02836.03145-2.05944-.01187-3.08815.00979-.59135.0133-1.18191.08865-1.77184.14312a1.18009,1.18009,0,0,0-1.17913,1.10306,1.54667,1.54667,0,0,0,.98783.35187c.70473.09351,1.413.171,2.10869.31062A8.13034,8.13034,0,0,0,53.48085,261.01217Z" fill="#132420" fill-rule="evenodd"/>
            <path d="M73.88326,149.90085c-.8723-.03074-1.74532-.05726-2.6169-.09215a12.89162,12.89162,0,0,1-5.23144-1.49468,17.31316,17.31316,0,0,1-6.06257-4.52671,9.89728,9.89728,0,0,1-1.701-2.988,12.82368,12.82368,0,0,0-.76478-1.74181,1.62475,1.62475,0,0,1-.09458-1.37529.63526.63526,0,0,1,1.05867-.26808,2.7781,2.7781,0,0,1,.39376.444,7.715,7.715,0,0,1,1.09956,1.96872,9.97981,9.97981,0,0,0,3.55733,4.52807,16.62654,16.62654,0,0,0,5.918,2.98171,13.00106,13.00106,0,0,0,2.46127.38189,20.90041,20.90041,0,0,0,7.07935-.73025,4.633,4.633,0,0,0,1.10063-.44959,69.82075,69.82075,0,0,0,6.67758-4.36265,10.66624,10.66624,0,0,0,2.30064-2.40086,1.93332,1.93332,0,0,1,.27716-.38675,9.3187,9.3187,0,0,0,1.57675-2.49859,1.68292,1.68292,0,0,0,.16685-.79516c.0356-.52222.3124-.76307.73547-.76793a.75717.75717,0,0,1,.79624.72117,5.05777,5.05777,0,0,1-.93793,3.94022c-.40949.53688-.83012,1.06532-1.24754,1.59591a12.85561,12.85561,0,0,1-2.9336,2.77646c-2.07938,1.38995-4.18979,2.73457-6.30091,4.07705a4.23,4.23,0,0,1-1.20007.51593A22.66231,22.66231,0,0,1,73.88326,149.90085Z" fill="#132420" fill-rule="evenodd"/>
            <path d="M61.059,128.35519a1.09,1.09,0,0,1-.28838-.07049c-1.3477-.673-2.32437-1.90659-1.61092-3.68122a3.98562,3.98562,0,0,1,.53409-.916,1.56083,1.56083,0,0,1,2.28777-.37417,4.59884,4.59884,0,0,1,.99969.999,1.14637,1.14637,0,0,1,.0677,1.52685,1.98857,1.98857,0,0,0-.3089,1.1135A1.56065,1.56065,0,0,1,61.059,128.35519Z" fill="#132420" fill-rule="evenodd"/>
            <path d="M90.5033,124.67469a1.588,1.588,0,0,1-.84721,1.61406c-.24678.12146-.4601.31276-.70688.43286a1.56325,1.56325,0,0,1-2.33031-1.00255,4.883,4.883,0,0,0-.23391-.67156,1.72506,1.72506,0,0,1,.43529-2.15237,3.693,3.693,0,0,1,1.0814-.70094,1.42867,1.42867,0,0,1,1.71772.37774A3.35753,3.35753,0,0,1,90.5033,124.67469Z" fill="#132420" fill-rule="evenodd"/>
          </g>
        </g>
      </g>
    </g>
  </g>
</svg>
