<svg xmlns="http://www.w3.org/2000/svg" viewBox="0 0 326.79874 199.56626">
  <title>Recurso 12</title>
  <g id="Capa_2" data-name="Capa 2">
    <g id="Editar">
      <g>
        <g>
          <path d="M185.80632,101.00647c0-.9209.57319-1.6211.08789-2.1289a24.57,24.57,0,0,0-.4258-2.6943,35.529,35.529,0,0,0,1.7881-6.1445c.6055-3.9717-4.7617-5.6924-6.0205-1.6914-.0274.0869.0029.1767-.0244.2656a12.96429,12.96429,0,0,0-4.878-3.3028c-5.8339-2.1054-10.61129,5.1368-11.40129,10.5918a2.64862,2.64862,0,0,0-.53711.7725,54.402,54.402,0,0,0-3.6465,11.9688,19.63714,19.63714,0,0,0-.3213,2.2373,3.48449,3.48449,0,0,0-2.9473-.4073c.0674-.5429.11921-.999.127-1.2871a2.77169,2.77169,0,0,0-2.6856-3.0439,9.6,9.6,0,0,0-.1543-1.4375,2.8272,2.8272,0,0,0-3.5371-2.1905,2.77879,2.77879,0,0,0-.4355-1.2822,20.644,20.644,0,0,0,.4512-2.9511,2.76261,2.76261,0,0,0-1.1407-2.42,3.43,3.43,0,0,0-6.0156.6641,16.125,16.125,0,0,0-.918,4.4209,23.52855,23.52855,0,0,0-1.0127,6.4209,3.0928,3.0928,0,0,0,2.5127,3.0527,9.26412,9.26412,0,0,0,.3282,1.4287,3.16435,3.16435,0,0,0,2.2207,2.2198,6.41073,6.41073,0,0,0,1.2607.0996,9.34668,9.34668,0,0,0,.1533,1.3154,3.07777,3.07777,0,0,0,2.5098,2.2695,6.17109,6.17109,0,0,0,1.9434,3.6778c1.0966.9336,2.9941,1.3427,4.1796.3066a5.43432,5.43432,0,0,0,2.8233,2.918,3.48134,3.48134,0,0,0,3.4072-.1485,3.17332,3.17332,0,0,0,4.082-.3505.06549.06549,0,0,0,.0137-.0186c.00491.4678.0098.9375.0098,1.4053a3.21086,3.21086,0,0,0,4.0254,3.0664,7.0029,7.0029,0,0,0,3.8642-3.0098,3.17144,3.17144,0,0,0,4.166.8711c3.2178-2.3203,3.3067-5.541,4.4473-9.1123,1.2568-3.9326,1.5606-7.9287,2.1787-12.0107.2539-.4405-.47849-.9707-.47849-1.6153Zm-6.88671-3.8632c-.9297,2.4453-2.002,4.8418-3.0977,7.25.73641-3.126,1.56641-6.2305,2.4356-9.3184q.43935.6723.8213,1.3926C179.02411,96.69307,178.97521,96.91857,178.91961,97.14327Z" fill="#ff6300"/>
          <path d="M163.19589,102.41061c-3.25713-8.67579,5.02986-17.77628,13.7137-18.20853,9.22376-.45912,12.36771,8.90157,11.49965,16.43618-.93619,8.126-4.7629,15.96656-9.278,22.68343-4.08911,6.08313-9.70842,12.91215-16.93937,15.26008-1.895.61531-1.08417,3.61837.8265,2.998,9.14731-2.97018,15.96845-11.78078,20.71921-19.71715,4.90815-8.1993,9.50053-18.86374,7.58341-28.62848-1.73457-8.83492-10.19128-14.12577-18.84856-11.32085-8.66721,2.80814-15.7136,12.16335-12.2745,21.32385.69678,1.856,3.70323,1.05207,2.998-.8265Z" fill="#36363e"/>
          <path d="M161.43312,107.36687c.55369-6.26233-3.63917-11.51631-9.22673-13.89059-4.926-2.09315-11.592-1.86282-14.11772,3.62266-3.74845,8.141,2.80042,18.09813,8.48053,23.43978,8.61448,8.10118,20.01959,12.7721,31.071,16.498,1.90019.64064,2.71553-2.36108.8265-2.998-13.92268-4.694-38.72708-14.23848-38.18469-32.49031.36067-12.1369,18.9366-4.29823,18.04213,5.81839-.17617,1.99255,2.9339,1.98069,3.109,0Z" fill="#36363e"/>
        </g>
        <g>
          <path d="M176.276,21.81807c.2198-.3916.4854-.6329.4004-.9649a12.21534,12.21534,0,0,0,.3877-1.289,16.98879,16.98879,0,0,0,2.1885-2.2051c1.2021-1.544-.6875-3.5655-2.1758-2.1641-.0322.0322-.0498.0723-.081.1016a6.3496,6.3496,0,0,0-1.293-2.5674c-1.97949-2.2832-5.7383-.3428-7.3731,1.7871a1.302,1.302,0,0,0-.4121.1992,26.49334,26.49334,0,0,0-4.40229,4.2217,9.76738,9.76738,0,0,0-.66991.873,1.703,1.703,0,0,0-1.1563-.875c.15821-.2148.2891-.3955.3613-.5156a1.35309,1.35309,0,0,0-.416-1.9345,4.83132,4.83132,0,0,0,.2754-.6475,1.37835,1.37835,0,0,0-.9824-1.7734,1.377,1.377,0,0,0,.1211-.6485,10.42569,10.42569,0,0,0,.8935-1.1484,1.34245,1.34245,0,0,0,.0909-1.3008,1.67067,1.67067,0,0,0-2.7149-1.1494,7.90993,7.90993,0,0,0-1.4443,1.6592,11.52341,11.52341,0,0,0-1.959,2.4912,1.50615,1.50615,0,0,0,.3408,1.8955,4.55287,4.55287,0,0,0-.20019.6855,1.54318,1.54318,0,0,0,.41509,1.4727,3.101,3.101,0,0,0,.5127.3428,4.56709,4.56709,0,0,0-.2471.5957,1.50107,1.50107,0,0,0,.5254,1.5634,3.00986,3.00986,0,0,0-.0488,2.0254,1.62688,1.62688,0,0,0,1.7041,1.125,2.64413,2.64413,0,0,0,.5058,1.9131,1.69805,1.69805,0,0,0,1.4834.749,1.54731,1.54731,0,0,0,1.8203.8233l.0098-.0049c-.1094.2002-.2188.4004-.3301.5996a1.56476,1.56476,0,0,0,.9805,2.2637,3.4159,3.4159,0,0,0,2.3594-.3613,1.54491,1.54491,0,0,0,1.5644,1.3632c1.9199-.2197,2.7256-1.5683,4.0606-2.8154a37.34617,37.34617,0,0,0,3.9316-4.5068c.21291-.126.17191-.4463.3242-.7198Zm-2.2959-3.4444c-.9785.8184-2.0049,1.5821-3.0449,2.3448,1.0586-1.1543,2.1504-2.2764,3.2549-3.3809.0185.2588.0234.5215.0185.7871C174.13051,18.20767,174.05632,18.29167,173.98011,18.37367Z" fill="#ff6300"/>
          <path d="M166.36,16.97917c.6709-4.0586,5.0498-5.542,8.6885-4.668,4.5625,1.0957,4.1074,6.1026,2.1514,9.2002-3.56059,5.6387-13.2432,11.4571-20.0909,10.1778-1.3808-.2579-1.97069,1.8535-.582,2.1123,5.07031.9482,10.3467-1.4297,14.6074-3.9659,4.2227-2.5136,8.916-6.5048,9.7305-11.6279,1.6103-10.1377-15.0752-11.1484-16.6172-1.8115-.2285,1.3808,1.8828,1.9746,2.1123.583Z" fill="#36363e"/>
          <path d="M164.39421,18.73987c3.03511-4.6806-1.5283-13.4179-7.499-10.6933-3.8233,1.7461-3.6104,7.9258-2.9688,11.2011,1.1963,6.1231,5.71191,11.5137,9.7666,16.0196.94731,1.0527,2.4922-.503,1.5498-1.5498-4.7656-5.2959-11.0537-12.875-9.22749-20.5635,1.73629-7.3145,9.67579-.4355,6.48729,4.4795-.7705,1.1894,1.126,2.2871,1.8916,1.1064Z" fill="#36363e"/>
        </g>
        <g>
          <g>
            <path d="M248.63051,44.73407a7.63282,7.63282,0,0,0,2.9336,3.2685,12.37238,12.37238,0,0,0,2.7227,1.1084,13.86,13.86,0,0,0,3.6308.917,10.569,10.569,0,0,0,3.5332-.5674c.6719-.2275,1.31451-.5361,1.97851-.791a14.87936,14.87936,0,0,0,5.627-3.5615,2.0918,2.0918,0,0,1,.50589-.2686,9.84876,9.84876,0,0,1,1.0703.6436,10.46712,10.46712,0,0,0,6.46481,1.9424,8.82873,8.82873,0,0,0,4.58989-1.0049,8.65924,8.65924,0,0,0,1.8418-1.3486,2.6293,2.6293,0,0,1,1.5625-.959c.163.3642.3359.6904.4619,1.0342a23.70444,23.70444,0,0,1,1.623,5.3134,33.54428,33.54428,0,0,1,.249,3.7559c.0137,1.8496-.07609,3.7012-.1015,5.5508a14.48857,14.48857,0,0,1-.75,3.8486,30.41867,30.41867,0,0,1-2.9063,6.7598,24.53637,24.53637,0,0,1-3.8789,4.8564c-.998,1.0137-2.0117,2.0098-3.0088,3.0235a23.73562,23.73562,0,0,1-4.4599,3.3291c-2.5918,1.624-5.2149,3.205-7.8848,4.7011a37.20588,37.20588,0,0,1-8.5498,3.2598,59.07,59.07,0,0,1-8.8506,1.6406c-2.4941.2783-5.0146.3174-7.5254.4287-1.0918.0489-2.1865-.0058-3.2812.0196a31.277,31.277,0,0,1-6.2022-.4766,19.13088,19.13088,0,0,1-2.2353-.4912q-4.07235-1.248-8.125-2.5596a24.576,24.576,0,0,1-9.6729-5.9902c-1.5224-1.4854-2.956-3.0693-4.3623-4.669a30.15387,30.15387,0,0,1-1.9199-2.6513,1.11381,1.11381,0,0,1,.0508-1.5,1.21057,1.21057,0,0,0,.1465-.3906c-.3477-.5088-.7227.0791-1.208-.1827a22.60184,22.60184,0,0,1-1.9102-5.8115,3.11285,3.11285,0,0,1,.18161-.3721c.70409-.9697.77839-1.1064.03419-1.7871a5.07693,5.07693,0,0,1-1.4609-3.6777c-.1914-2.3457-.2305-4.6934-.292-7.043a18.39329,18.39329,0,0,1,.7861-5.9853c.3692-1.1914.668-2.4014.9844-3.5528a.40341.40341,0,0,1,.5781.2598,4.06616,4.06616,0,0,0,2.334,1.9385,13.67672,13.67672,0,0,0,4.1602.8105,25.4692,25.4692,0,0,0,6.20891-.2549,15.78944,15.78944,0,0,0,5.75-2.3007,30.03306,30.03306,0,0,1,4.22859-2.1836c.3193.5937.6298,1.1035.8769,1.6406a11.39289,11.39289,0,0,0,6.6758,5.9346,15.80155,15.80155,0,0,0,6.9082,1.0263,6.60848,6.60848,0,0,0,1.4434-.2754,14.81577,14.81577,0,0,0,7.9384-5.7548C248.24671,45.16377,248.39611,45.01137,248.63051,44.73407Zm1.4785,40.7226V85.406c1.1465,0,2.2969.0595,3.4395-.0127a14.23376,14.23376,0,0,0,8.3223-3.0323c.6796-.5508,1.3066-1.1699,2.0097-1.6836a8.05451,8.05451,0,0,0,2.002-2.1396q1.34475-2.0523,2.6465-4.1318a1.46059,1.46059,0,0,0-.3926-2.0313,1.49155,1.49155,0,0,0-2.0459.3545,10.94918,10.94918,0,0,0-1.2881,1.8926,15.31937,15.31937,0,0,1-4.3115,5.0674,11.89444,11.89444,0,0,1-7.5264,2.7773c-1.91019.0361-3.8203.0352-5.7314.0596a13.028,13.028,0,0,1-4.3321-.7549,23.89645,23.89645,0,0,1-5.9218-3.1065,10.56079,10.56079,0,0,1-4.0352-4.1923,1.19191,1.19191,0,0,0-.1904-.2657.966.966,0,0,0-1.6162.252,3.08,3.08,0,0,0-.1436,1.1201,4.41769,4.41769,0,0,0,1.4189,2.8643,25.12583,25.12583,0,0,0,7.503,5.1816,16.90481,16.90481,0,0,0,8.39061,1.8379C248.904,85.42347,249.50751,85.45667,250.109,85.45667Zm13.4297-23.2646a2.61541,2.61541,0,0,0-1.4629-2.6182c-.4629-.2588-.9863-.5791-1.5322-.2597-.6475.3779-1.3691.7226-1.65229,1.4931a2.61294,2.61294,0,0,0,2.26069,3.541C262.72721,64.52307,263.53191,63.821,263.53871,62.19207Zm-30.8828,5.2998a2.35509,2.35509,0,0,0,.11041-.4356c-.003-.5459-.01271-1.0927-.03231-1.6367-.0791-2.1133-.7148-2.6426-2.7441-2.331a1.43351,1.43351,0,0,0-1.2734,1.0976,3.0742,3.0742,0,0,0,.6679,3.0469c.9297,1.085,1.5821,1.2451,2.8184.5508C232.34541,67.70477,232.47821,67.60807,232.65591,67.49187Z" fill="#ffdbba" fill-rule="evenodd"/>
            <path d="M244.33561,94.68817a67.31452,67.31452,0,0,0,12.7822-2.1172,41.28072,41.28072,0,0,0,11.8194-5.1729,37.863,37.863,0,0,0,3.9462,6.8496c1.335,1.8643,2.6202,3.7715,3.794,5.7393a37.69115,37.69115,0,0,0,4.08791,5.5166c1.32909,1.5176,2.48439,3.1865,3.71189,4.792.2314.3037.4209.6416.6602.9375a8.07831,8.07831,0,0,1,1.7197,5.8379,11.60235,11.60235,0,0,1-2.4981,2.1103,25.14415,25.14415,0,0,1-5.5283,2.8252c-3.94239,1.4493-7.8789,2.9297-11.94239,4.0039-2.68751.709-5.43261,1.2012-8.15331,1.7862-.7998.1709-1.6133.291-2.4043.4922a26.02019,26.02019,0,0,1-7.1435.8017c-.54689-.0156-1.0938.0166-1.6407.0156a1.34857,1.34857,0,0,1-1.3203-.8037,12.205,12.205,0,0,1-.9297-2.4394,31.91945,31.91945,0,0,1-.6611-6.5088,32.94955,32.94955,0,0,0-.3994-5.5527,19.95913,19.95913,0,0,1-.26169-2.9346q-.10112-6.23145-.12891-12.4639A9.08759,9.08759,0,0,1,244.33561,94.68817Z" fill="#ffe512" fill-rule="evenodd"/>
            <path d="M288.279,120.05047c1.7832.9316,3.4824,1.7939,5.1591,2.7012.91121.4921,1.7969,1.0361,2.668,1.5976a5.78771,5.78771,0,0,1,.9736.8662,2.85079,2.85079,0,0,1,.7852,2.2324,11.68641,11.68641,0,0,1-4.4111,8.8038c-.292.246-.6231.4472-.9073.7021a5.70854,5.70854,0,0,1-4.2314,1.4375c-1.0361-.042-2.0752-.0381-3.1104-.0898a5.8368,5.8368,0,0,1-4.9209-3.0772c-.4228-.7012-.8291-1.4141-1.2509-2.1172a2.55441,2.55441,0,0,0-2.7149-1.4131c-.916.125-1.8408.1944-2.7588.3077-1.7334.2138-3.45989.4941-5.1982.6435a2.095,2.095,0,0,0-1.918,1.292,5.40116,5.40116,0,0,0-.4941,1.709c-.1309,1.7969-.1953,3.6006-.2461,5.4004a14.9097,14.9097,0,0,1-.8379,4.9785,4.77189,4.77189,0,0,1-2.8594,2.7266,14.917,14.917,0,0,1-6.2334,1.0888,34.881,34.881,0,0,1-6.21379-.3066c-.52251-.1045-1.03321-.2725-1.55861-.4141a6.13174,6.13174,0,0,1,.30461-3.1426,61.65635,61.65635,0,0,0,1.92779-8.622,8.41225,8.41225,0,0,1,.2949-1.2774,6.67185,6.67185,0,0,0,.0791-3.875,2.18813,2.18813,0,0,1,.49021-.123,32.19015,32.19015,0,0,0,6.46779-.9903c2.3467-.5107,4.7168-.9121,7.0664-1.4052a75.60205,75.60205,0,0,0,10.1875-3.043c1.5918-.5752,3.1758-1.1699,4.7764-1.7158a27.27008,27.27008,0,0,0,8.12991-4.5029c.16989-.1348.35639-.2481.539-.3653C288.30732,120.029,288.3668,120.02407,288.279,120.05047Z" fill="#f48e0f" fill-rule="evenodd"/>
            <path d="M290.235,63.50747c-.0849-.2187-.1289-.2734-.1201-.3144a39.27441,39.27441,0,0,0,.5625-8.4649,17.65264,17.65264,0,0,1,.2207-1.9101c.3613-.211.6504-.3584.918-.5411a6.16894,6.16894,0,0,1,4.3515-1.0537,13.31937,13.31937,0,0,0,1.9649.0284,1.27506,1.27506,0,0,1,1.34181.9687,3.45768,3.45768,0,0,1,.22069.7871c.1426,1.4649.2851,2.9297.373,4.3994a2.28719,2.28719,0,0,1-.26369,1.0879,9.2882,9.2882,0,0,1-4.05461,4.3555,6.48353,6.48353,0,0,1-1.40239.415A22.06261,22.06261,0,0,1,290.235,63.50747Z" fill="#ffdbba" fill-rule="evenodd"/>
            <path d="M199.51432,73.30437a8.09119,8.09119,0,0,1-7.22261-2.1182,19.27076,19.27076,0,0,1-2.0235-2.3408,3.43622,3.43622,0,0,1-.5986-3.0937c.1855-.6817.3515-1.3702.5859-2.0342a1.83423,1.83423,0,0,1,1.8985-1.2715,6.3763,6.3763,0,0,1,4.5732,1.8408,2.61746,2.61746,0,0,1,.5674,1.3233q.75,2.84175,1.5371,5.6718C199.00751,71.904,199.24381,72.51137,199.51432,73.30437Z" fill="#ffdbba" fill-rule="evenodd"/>
            <path d="M322.93132,135.05237a7.91223,7.91223,0,0,1-1.08111-.9072,18.51393,18.51393,0,0,1-3.9638-8.3144c-.0098-.0489.0234-.1055.0625-.2549a16.385,16.385,0,0,1,3.042-.0186,2.53844,2.53844,0,0,1,2.1396,1.5694,5.79834,5.79834,0,0,1,.542,1.8701c.1035,1.3027.1055,2.6162.09281,3.9248A3.13145,3.13145,0,0,1,322.93132,135.05237Z" fill="#ffe512" fill-rule="evenodd"/>
            <path d="M261.00941,174.42057a11.66965,11.66965,0,0,1-4.4853,5.0029,5.96046,5.96046,0,0,1-4.6446.836,2.55839,2.55839,0,0,1,.1641-.7442,13.58938,13.58938,0,0,1,5.4131-5.1054C258.60321,173.79167,259.21651,173.82,261.00941,174.42057Z" fill="#ffe512" fill-rule="evenodd"/>
            <g>
              <path d="M220.21261,13.75257a7.12463,7.12463,0,0,1,1.9179-5.1406c.8125-1.0264,1.7442-1.9609,2.6446-2.916,2.7109-2.875,5.98821-3.4063,9.6113-2.1885A8.34763,8.34763,0,0,1,237.568,5.154a5.72531,5.72531,0,0,1,1.5049,1.8711c-.13959.3662-.3018.8203-.4853,1.2637a9.27628,9.27628,0,0,0-.2452,6.7158,2.69053,2.69053,0,0,0,1.3174,1.79,2.27511,2.27511,0,0,0,3.2764-1.4199,6.54546,6.54546,0,0,0,.3506-1.917,13.56873,13.56873,0,0,0-.5323-4.5381c-.1269-.414-.24119-.832-.3818-1.3242.39261-.3945.7441-.8066,1.1563-1.1514a14.90428,14.90428,0,0,1,6.0234-3.1963,12.13813,12.13813,0,0,1,2.5957-.3164,14.96977,14.96977,0,0,1,6.1465.6846c1.2119.4912,2.4043,1.0303,3.5976,1.5625.3487.1563.6602.3955,1.0098.541a4.54747,4.54747,0,0,1,2.2578,2.0987,5.83471,5.83471,0,0,1-.4834,1.0293,7.06153,7.06153,0,0,0-1.1689,3.3769,4.83389,4.83389,0,0,0,1.42581,4.4951,2.848,2.848,0,0,0,2.07219.8321,2.62289,2.62289,0,0,0,2.4961-2.5586,14.72015,14.72015,0,0,0-.4687-4.876c-.14159-.5274-.2832-1.0547-.4219-1.5684a5.35225,5.35225,0,0,1,3.2578-2.2685,19.18482,19.18482,0,0,1,4.4131-.1826c.7646.0214,1.52541.1377,2.2881.1552a5.64512,5.64512,0,0,1,3.7207,1.4883c.3691.3262.7529.6348,1.1328.9483a5.40688,5.40688,0,0,1,1.918,3.3418,24.97759,24.97759,0,0,1,.1367,6.539,12.27676,12.27676,0,0,1-.7754,4.0078c-.2442.5459-.4746,1.0977-.6817,1.5772a2.91872,2.91872,0,0,1-1.7099.0869,2.095,2.095,0,0,0-1.54589.3857,4.02032,4.02032,0,0,1-.709.4034c-.48631.2324-1.03421.3574-1.248.9648a4.41333,4.41333,0,0,0-.39261,2.5469,1.09067,1.09067,0,0,0,.75.7929,4.89766,4.89766,0,0,0,4.1211-.2382c.5361-.2657,1.02151-.628,1.55951-.9649a10.40341,10.40341,0,0,1,3.07719,2.0889,18.684,18.684,0,0,0,2.09281,1.5469,8.31937,8.31937,0,0,1,3.34859,4.1289,2.53645,2.53645,0,0,1-1.332,3.4423,9.35186,9.35186,0,0,0-1.3291.9209,5.1182,5.1182,0,0,1-1.585.8213,2.32705,2.32705,0,0,1-2.1758-.3847,18.19274,18.19274,0,0,1-1.6846-1.5352,3.0686,3.0686,0,0,0-1.705-.9062,1.21462,1.21462,0,0,0-1.4658,1.4462c.122.6358.2988,1.2608.4648,1.9415a5.92122,5.92122,0,0,1-4.4492,2.6943,8.333,8.333,0,0,1-6.6016-1.9922,7.28937,7.28937,0,0,1,.4678-1.0234,5.50631,5.50631,0,0,0,.8301-2.9639,9.33159,9.33159,0,0,0-.5215-4.1914,3.47121,3.47121,0,0,0-2.5264-2.1211,2.63439,2.63439,0,0,0-3.2285,2.0068,11.64061,11.64061,0,0,0,.2715,6.1485c.2148.6718.4883,1.3252.7539,2.0371a9.9018,9.9018,0,0,1-3.0879,2.6269,39.76557,39.76557,0,0,1-3.9102,1.6817,5.39554,5.39554,0,0,1-4.1503.0508c-.8536-.3555-1.752-.6036-2.6329-.8897a3.47376,3.47376,0,0,1-1.9951-1.625c-.9775-1.749-1.6387-3.5869-.8974-5.6279a4.94978,4.94978,0,0,0,.2285-2.4278,3.16375,3.16375,0,0,0-.54689-1.33,1.356,1.356,0,0,0-2.02731-.1426,2.641,2.641,0,0,0-.88869,1.707c-.03031.3809-.06251.7637-.06251,1.1455a11.45568,11.45568,0,0,1-8.1592,10.7217,8.85194,8.85194,0,0,1-4.0654.0635,14.05384,14.05384,0,0,1-3.711-1.2608,9.26263,9.26263,0,0,1-4.5937-5.7197,3.28375,3.28375,0,0,1,.3564-2.8437,6.1169,6.1169,0,0,0,.81741-3.46,4.39469,4.39469,0,0,0-.10741-.9746,1.41928,1.41928,0,0,0-1.2598-1.1162,1.396,1.396,0,0,0-1.5117.7568,12.14662,12.14662,0,0,0-1.2754,3.7041,4.36954,4.36954,0,0,1-2.63569,3.4737c-1.32421.6455-2.57331,1.4414-3.878,2.1298a12.91755,12.91755,0,0,1-6.29291,1.5664c-1.3672-.0185-2.7334-.0332-4.0996-.0869a5.583,5.583,0,0,1-1.2832-.2353c-1.6465-.4619-1.959-.874-1.7578-2.5791a6.75571,6.75571,0,0,1,.60251-2.0244,27.67871,27.67871,0,0,1,4.78219-6.8135,2.8987,2.8987,0,0,1,1.5469-.8535c1.0605-.2569,2.0908-.6299,3.1348-.9512a5.17167,5.17167,0,0,0,2.2617-1.5713,1.47547,1.47547,0,0,0-.752-2.5469,2.1973,2.1973,0,0,0-.80659-.1054,7.69675,7.69675,0,0,0-3.73831,1.0459c-.5381.375-1.1406.6611-1.6553,1.0625a2.62479,2.62479,0,0,1-1.4961.5547,16.78089,16.78089,0,0,1-11.4297-3.2032c-.1767-.1279-.34959-.2636-.5205-.3984a1.58592,1.58592,0,0,1-.6718-1.4121,11.94828,11.94828,0,0,0,0-1.8028,2.81849,2.81849,0,0,1,.7939-2.2402,11.27267,11.27267,0,0,1,3.9375-3.1475,11.42252,11.42252,0,0,0,1.6055-.8183,13.71663,13.71663,0,0,1,7.54-1.7998c1.6406.0058,3.2832-.0235,4.92381.0146a7.65673,7.65673,0,0,1,1.76179.291,1.847,1.847,0,0,1,1.4101,1.2452,2.34132,2.34132,0,0,0,.2969.5791.60244.60244,0,0,0,.9746.1347,1.23646,1.23646,0,0,1,1.2803-.4404,1.09052,1.09052,0,0,0,.4697-.1182c1.0781-.3545,1.2822-1.1318.4961-1.9785A3.8844,3.8844,0,0,0,220.21261,13.75257Z" fill="#683c11" fill-rule="evenodd"/>
              <path d="M269.58761,38.404a5.55788,5.55788,0,0,1-.3331-3.0332c.2559.2793.4385.3877.4737.5322A4.04512,4.04512,0,0,1,269.58761,38.404Z" fill="#6d6d2a" fill-rule="evenodd"/>
            </g>
            <path d="M223.60421,72.39907c.5126-4.54-3.2872-8.0556-7.6846-8.4062a6.97789,6.97789,0,0,0-4.6475,1.1836,6.66483,6.66483,0,0,0-3.1084,3.0283c-1.9531.7578-3.5068,1.9004-3.60939,4.6347-.11911,3.1856,1.73049,5.5323,4.24319,7.2373,4.2442,2.8809,11.5576,1.7862,14.0264-2.9179A7.45542,7.45542,0,0,0,223.60421,72.39907Z" fill="#ff8898" fill-rule="evenodd"/>
            <path d="M283.9879,62.07777a5.66157,5.66157,0,0,0-3.0644-3.6015,7.171,7.171,0,0,0-8.7217-2.9063c-3.2959,1.3897-4.791,4.0235-5.251,7.4561a9.07485,9.07485,0,0,0,2.7539,7.2998c2.837,2.7256,6.835,2.8027,10.26961,1.332C283.6501,70.08557,284.817,65.62757,283.9879,62.07777Z" fill="#ff8898" fill-rule="evenodd"/>
          </g>
          <g>
            <path d="M298.152,135.74767a10.676,10.676,0,0,0,4.9561,2.8184,15.56321,15.56321,0,0,0,3.0927.2119,2.00758,2.00758,0,0,0,1.6524-.9287,12.04581,12.04581,0,0,0,1.6719-2.8125c.8554-2.1289,1.6855-4.2695,2.5585-6.3926q.87315-2.11965,1.8399-4.2021a2.65368,2.65368,0,0,1,2.3984-1.7031,40.36437,40.36437,0,0,1,4.7461-.1055,5.45595,5.45595,0,0,1,5.0567,4.041,15.4607,15.4607,0,0,1,.1347,8.5684,3.42935,3.42935,0,0,1-.4238.8798,3.29656,3.29656,0,0,1-5.0615,1.0166,5.88227,5.88227,0,0,1-1.085-.9931,19.76312,19.76312,0,0,1-2.8594-4.3828c-.48039-1.0391-.9355-2.0889-1.4589-3.2578-.1934.373-.377.667-.504.9814q-1.3212,3.268-2.6191,6.5449a15.59171,15.59171,0,0,1-1.9648,3.3955,5.29086,5.29086,0,0,1-4.8047,2.2686,13.036,13.036,0,0,1-8.1387-3.0205c-.3359-.2793-.6836-.5401-1.0566-.834a8.86974,8.86974,0,0,0-2.1309,1.4961,7.69541,7.69541,0,0,1-3.6592,1.7441,21.22244,21.22244,0,0,1-6.6924-.083,8.9638,8.9638,0,0,1-6.03709-4.4062c-.40041-.6475-.76951-1.3155-1.14551-1.9619a11.41772,11.41772,0,0,0-3.9502.3632c-1.2422.1661-2.48829.3106-3.8232.4766a10.2019,10.2019,0,0,0-.2158,1.293c-.0479,1.2031-.0254,2.4082-.0821,3.6084q-.09225,1.96425-.28319,3.9228a10.6016,10.6016,0,0,1-1.332,4.0215,7.29778,7.29778,0,0,1-3.90041,3.0938,20.136,20.136,0,0,1-7.5537,1.2539c-.92289.0117-1.8447.0312-2.833.0468-.3906.9151-.8125,1.7422-1.1084,2.6133a40.36317,40.36317,0,0,1-4.0703,8.5742,1.51444,1.51444,0,0,0,.7226,2.7745,44.79917,44.79917,0,0,0,8.0235,3.3017c1.874.584,3.7295,1.2266,5.7461,1.8936a7.1889,7.1889,0,0,1,.6279-.4414,1.13155,1.13155,0,0,1,1.5781.3271,2.02644,2.02644,0,0,1,.3008,1.8682,23.59465,23.59465,0,0,1-1.4756,3.1025,15.1286,15.1286,0,0,1-5.89159,5.5586,9.80075,9.80075,0,0,1-6.88081.5645,2.0263,2.0263,0,0,1-1.4366-2.419,8.36544,8.36544,0,0,1,2.2051-4.1465c.8877-.958,1.9111-1.791,2.8789-2.6728.27641-.253.5733-.4805.8272-.6934-.0801-.5205-.4903-.5058-.7657-.5859a37.78343,37.78343,0,0,1-6.9257-2.9356,17.22736,17.22736,0,0,1-2.0567-1.333,2.72606,2.72606,0,0,1-1.1113-2.872,7.49452,7.49452,0,0,1,1.10061-2.8809,37.23634,37.23634,0,0,0,4.457-9.8184c-.71971-.2314-1.43651-.4785-2.16311-.6963a3.09427,3.09427,0,0,1-2.1084-3.3291,19.12066,19.12066,0,0,1,.6162-3.5459,73.51037,73.51037,0,0,0,1.9366-8.1269,28.72688,28.72688,0,0,1,.6826-3.0361,11.93,11.93,0,0,1,.6543-1.5401,1.85951,1.85951,0,0,0-1.253-.1064,4.72975,4.72975,0,0,1-3.0771-.9063,2.93511,2.93511,0,0,1-.82809-.9834,13.45653,13.45653,0,0,1-1.877-6.0488c-.15041-1.7969-.27541-3.5996-.289-5.4023-.01471-1.9219-.39461-3.8077-.48251-5.7129-.14649-3.1651-.1621-6.3369-.209-9.5049-.0263-1.7432-.0048-3.4844-.0048-5.2139-.4161-.1113-.5401.1826-.708.3662a20.29123,20.29123,0,0,1-8.1758,5.2813,35.58019,35.58019,0,0,1-12.3672,2.1572c-1.80469.0107-3.6104-.0478-5.416-.04a27.19056,27.19056,0,0,1-8.6592-1.6309,51.44061,51.44061,0,0,1-8.5547-3.7363,47.32,47.32,0,0,1-7.1006-4.709,7.1327,7.1327,0,0,1-2.61519-4.4483,8.4172,8.4172,0,0,0-3.84961-.6367,18.53725,18.53725,0,0,0-4.0742.3311.74122.74122,0,0,1-.8584-.3262.832.832,0,0,1-.001-.9258,2.31878,2.31878,0,0,1,1.86721-1.1709c.59569-.0791,1.19919-.0918,1.79879-.1357.5371-.0371,1.07621-.0752,1.57421-.1113.23929-.3995-.05761-.543-.23141-.7246-.7959-.8272-1.6075-1.6416-2.39359-2.4776a4.36076,4.36076,0,0,1-.67971-.918,1.4596,1.4596,0,0,1,.3946-1.7773,1.50057,1.50057,0,0,1,1.8222.0303,8.66779,8.66779,0,0,1,.6641.7236,23.85768,23.85768,0,0,0,4.2432,3.8516c.1757.1152.3642.2119.541.3154.4814-.2539.3447-.6816.3525-1.0273.041-1.6934.0488-3.3868.07811-5.0801a7.35412,7.35412,0,0,1,.08209-1.1446,1.25651,1.25651,0,0,1,.9961-1.1572c.5195-.0556,1.0302.3867,1.1943,1.1416a7.11985,7.11985,0,0,1,.1143,1.4649q.01755,3.6123.0058,7.2246a5.95545,5.95545,0,0,1-.26759,2.7451,1.06953,1.06953,0,0,0,.209.9004,8.46836,8.46836,0,0,0,1.38189,1.3857,47.51866,47.51866,0,0,0,11.5205,6.5235,46.1567,46.1567,0,0,0,5.7519,1.8994,27.69548,27.69548,0,0,0,6.834.6845,52.143,52.143,0,0,0,8.0273-.3212,28.80027,28.80027,0,0,0,10.94141-3.7139,12.14211,12.14211,0,0,0,4.01079-3.9981c-.1162-.3339-.418-.3007-.67379-.3037-1.14951-.0107-2.29791-.0009-3.44631-.0029a29.08677,29.08677,0,0,1-9.044-1.3193c-2.8564-.9287-5.71969-1.8389-8.5625-2.8067a25.44272,25.44272,0,0,1-9.122-5.667,52.51212,52.51212,0,0,1-5.7198-6.0966c-.6689-.8584-1.2588-1.7764-1.9365-2.7432-1.0293,0-2.0644-.0059-3.0986.0019a10.62384,10.62384,0,0,1-7.7949-3.25,14.36928,14.36928,0,0,1-2.1905-2.6464,6.54273,6.54273,0,0,1-.8515-5.3457,13.92817,13.92817,0,0,1,.8652-2.6338,4.34689,4.34689,0,0,1,4.23241-2.5489,10.8107,10.8107,0,0,1,3.04789.5909c.41111.1269.8174.2724,1.3437.4492a6.32073,6.32073,0,0,0,.0459-.8506,47.24409,47.24409,0,0,1,.1231-9.3262,15.75715,15.75715,0,0,1,.6035-2.7129q.83205-2.8329,1.75491-5.6367a9.007,9.007,0,0,1,2.75879-4.1885,2.70374,2.70374,0,0,0,.538-.6035c1.0264-1.6035,2.0381-3.2168,3.1133-4.9238a2.12772,2.12772,0,0,0-.6279-.2656,19.17457,19.17457,0,0,1-9.8526-3.6778,13.21461,13.21461,0,0,1-1.372-1.167,3.40858,3.40858,0,0,1-1.1807-2.7607c.0518-1.0361.044-2.0791.001-3.1182a3.412,3.412,0,0,1,.666-2.1435,13.74474,13.74474,0,0,1,4.3369-4.1797c1.6485-.9619,3.3828-1.7803,5.1104-2.5957a12.9661,12.9661,0,0,1,5.6211-.8945c1.7519-.0088,3.5019.0244,5.2539.0195a8.23786,8.23786,0,0,1,3.5273.6211,1.80759,1.80759,0,0,0,.5303.0459c.1416-.4756.2715-.9424.4189-1.4033a11.82106,11.82106,0,0,1,2.4414-4.4151q1.48245-1.6479,3.0137-3.249a11.41494,11.41494,0,0,1,6.6524-3.2529,9.784,9.784,0,0,1,3.8964.3564,12.73967,12.73967,0,0,1,6.8868,3.8555,1.51578,1.51578,0,0,0,.3574.2041c.5234-.3994,1.0644-.8428,1.6377-1.2393.5381-.3711,1.1172-.6855,1.667-1.042a13.26918,13.26918,0,0,1,6.1191-2.167,35.22219,35.22219,0,0,1,5.73241-.0039,12.49108,12.49108,0,0,1,3.63279.9444c1.7676.7197,3.4678,1.6113,5.1788,2.4658a5.19521,5.19521,0,0,1,1.0322.8008c.36521.3183.7051.665,1.0664,1.0097.707-.413,1.3603-.7929,2.0137-1.1748a7.96874,7.96874,0,0,1,4.0898-.9922c2.0205-.0039,4.043.0401,6.0586.1622a7.33154,7.33154,0,0,1,3.9512,1.4472c.791.585,1.5703,1.1924,2.2988,1.8526a8.64165,8.64165,0,0,1,2.9141,5.8877,38.67786,38.67786,0,0,1-.06639,7.372,19.20969,19.20969,0,0,1-1.627,5.5752,5.096,5.096,0,0,0,.67579.5899,35.33193,35.33193,0,0,1,5.04,4.1826,16.62984,16.62984,0,0,1,2.542,2.7715,6.9314,6.9314,0,0,1,1.3008,5.2656,4.96928,4.96928,0,0,1-2.2539,3.2832,34.94033,34.94033,0,0,1-3.334,2.0391,15.60969,15.60969,0,0,1-1.8603.7558c.2109,1.8848,1.3251,3.5371,1.4843,5.5733.4395-.1924.7832-.3184,1.1045-.4883a7.37892,7.37892,0,0,1,3.461-.877c1.0937-.0019,2.1884,0,3.2773-.0781a5.03925,5.03925,0,0,1,2.7559.917,1.651,1.651,0,0,1,.5195.6133,8.05688,8.05688,0,0,1,1.16411,3.2148c.17569,1.3545.20989,2.7236.34179,4.084a4.29088,4.29088,0,0,1-.6387,2.667,35.66219,35.66219,0,0,1-2.3867,3.3193,8.01744,8.01744,0,0,1-2.9942,2.251,11.48647,11.48647,0,0,1-3.4853.7979,29.13166,29.13166,0,0,1-3.2784.0185c-.3242,0-.6494.0274-1.0546.0449a9.14349,9.14349,0,0,0-.50789.9932,26.68415,26.68415,0,0,1-6.207,9.7461c-1.27641,1.2764-2.539,2.5684-3.83791,3.8223a34.31507,34.31507,0,0,1-4.6162,3.3964c-.3564.2452-.7158.4854-1.1611.7862a3.51483,3.51483,0,0,0,1.1699,1.123,33.93072,33.93072,0,0,0,9.1484,4.3252,31.7491,31.7491,0,0,0,5.7657,1.1924,46.09921,46.09921,0,0,0,7.5224.29c1.1416-.0634,2.2783-.2109,3.417-.3261a11.08382,11.08382,0,0,0,5.5781-2.586,23.41945,23.41945,0,0,0,5.3272-5.5361c.8193-1.2236,1.68851-2.4209,2.4443-3.6836a21.27546,21.27546,0,0,0,3.11721-10.7324c.03909-2.5117.09379-5.0264.08989-7.5381-.002-.9756-.1475-1.9512-.21589-2.792-1.28711-.918-2.43841-1.7383-3.59081-2.5596a3.53651,3.53651,0,0,1-.3965-.291,1.22473,1.22473,0,0,1-.4179-1.4531,1.42676,1.42676,0,0,1,1.6933-.666,4.58387,4.58387,0,0,1,1.25.7539,25.6894,25.6894,0,0,0,2.3086,1.5117,5.49937,5.49937,0,0,0,.1914-.8672c.0528-1.583.0742-3.167.128-4.751.0244-.708.0908-1.414.1513-2.1191a.793.793,0,0,1,.5899-.7109.7319.7319,0,0,1,.8349.3701,4.6508,4.6508,0,0,1,.8516,2.6094c.0586,1.2558.0508,2.5156.081,3.7734.0157.6435.0547,1.2851.0918,2.1572a3.59512,3.59512,0,0,0,.5957-.4775c.84971-1.2071,1.6758-2.4297,2.5313-3.6309a6.91666,6.91666,0,0,1,.9531-1.1055.80022.80022,0,0,1,1.0508.0997,1.49316,1.49316,0,0,1,.541,1.4658,5.14406,5.14406,0,0,1-.5547,1.5234q-1.53225,2.4258-3.17579,4.7783a7.8537,7.8537,0,0,1-1.32611,1.4453,5.63322,5.63322,0,0,1-1.2364.6036c0,.5752.0098,1.1728-.0009,1.7695-.041,2.3496-.0401,4.7021-.1465,7.0508a23.17823,23.17823,0,0,1-1.78809,7.7832,35.39944,35.39944,0,0,1-5.80081,9.2793,25.37085,25.37085,0,0,1-6.2881,5.4638,15.63123,15.63123,0,0,1-7.3173,2.1475,44.17642,44.17642,0,0,1-11.2774-.6143,35.3134,35.3134,0,0,1-9.7402-3.3154c-1.2041-.6347-2.3867-1.3144-3.5557-1.9609-.3262.2217-.14349.4092-.0361.5762.625.9599,1.2617,1.915,1.89061,2.873,1.41109,2.1465,2.83589,4.2822,4.22459,6.4434a24.75893,24.75893,0,0,0,2.9287,3.9443,61.3553,61.3553,0,0,1,4.4668,5.6592c.3643.4785.6924.9843,1.0362,1.4785a10.16078,10.16078,0,0,1,1.96971,5.8047,3.6065,3.6065,0,0,1-.001.4931,1.75473,1.75473,0,0,0,1.01759,1.8848c.8535.4863,1.707.9795,2.5918,1.4033a29.63368,29.63368,0,0,1,4.2812,2.4082,9.45984,9.45984,0,0,1,2.4317,2.6367,3.55682,3.55682,0,0,1,.5273,2.0333,14.67707,14.67707,0,0,1-1.8779,7.54A3.69618,3.69618,0,0,0,298.152,135.74767Zm-49.5215-91.0136c-.2344.2773-.3838.4297-.5049.6006a14.81577,14.81577,0,0,1-7.9384,5.7548,6.60848,6.60848,0,0,1-1.4434.2754,15.80155,15.80155,0,0,1-6.9082-1.0263,11.39289,11.39289,0,0,1-6.6758-5.9346c-.2471-.5371-.5576-1.0469-.8769-1.6406a30.03306,30.03306,0,0,0-4.22859,2.1836,15.78944,15.78944,0,0,1-5.75,2.3007,25.4692,25.4692,0,0,1-6.20891.2549,13.67672,13.67672,0,0,1-4.1602-.8105,4.06616,4.06616,0,0,1-2.334-1.9385.40341.40341,0,0,0-.5781-.2598c-.3164,1.1514-.6152,2.3614-.9844,3.5528a18.39329,18.39329,0,0,0-.7861,5.9853c.0615,2.3496.1006,4.6973.292,7.043a5.07693,5.07693,0,0,0,1.4609,3.6777c.7442.6807.6699.8174-.03419,1.7871a3.11285,3.11285,0,0,0-.18161.3721,22.60184,22.60184,0,0,0,1.9102,5.8115c.4853.2618.8603-.3261,1.208.1827a1.21057,1.21057,0,0,1-.1465.3906,1.11381,1.11381,0,0,0-.0508,1.5,30.15387,30.15387,0,0,0,1.9199,2.6513c1.4063,1.5997,2.8399,3.1836,4.3623,4.669a24.576,24.576,0,0,0,9.6729,5.9902q4.05465,1.30515,8.125,2.5596a19.13088,19.13088,0,0,0,2.2353.4912,31.277,31.277,0,0,0,6.2022.4766c1.0947-.0254,2.1894.0293,3.2812-.0196,2.5108-.1113,5.0313-.1504,7.5254-.4287a59.07,59.07,0,0,0,8.8506-1.6406,37.20588,37.20588,0,0,0,8.5498-3.2598c2.6699-1.4961,5.293-3.0771,7.8848-4.7011a23.73562,23.73562,0,0,0,4.4599-3.3291c.9971-1.0137,2.0108-2.0098,3.0088-3.0235a24.53637,24.53637,0,0,0,3.8789-4.8564,30.41867,30.41867,0,0,0,2.9063-6.7598,14.48857,14.48857,0,0,0,.75-3.8486c.02541-1.8496.1152-3.7012.1015-5.5508a33.54428,33.54428,0,0,0-.249-3.7559,23.70444,23.70444,0,0,0-1.623-5.3134c-.126-.3438-.2989-.67-.4619-1.0342a2.6293,2.6293,0,0,0-1.5625.959,8.65924,8.65924,0,0,1-1.8418,1.3486,8.82873,8.82873,0,0,1-4.58989,1.0049,10.46712,10.46712,0,0,1-6.46481-1.9424,9.84876,9.84876,0,0,0-1.0703-.6436,2.0918,2.0918,0,0,0-.50589.2686,14.87936,14.87936,0,0,1-5.627,3.5615c-.664.2549-1.30661.5635-1.97851.791a10.569,10.569,0,0,1-3.5332.5674,13.86,13.86,0,0,1-3.6308-.917,12.37238,12.37238,0,0,1-2.7227-1.1084A7.63282,7.63282,0,0,1,248.63051,44.73407Zm-28.4179-30.9815a3.8844,3.8844,0,0,1,.6562.4961c.7861.8467.582,1.624-.4961,1.9785a1.09052,1.09052,0,0,1-.4697.1182,1.23646,1.23646,0,0,0-1.2803.4404.60244.60244,0,0,1-.9746-.1347,2.34132,2.34132,0,0,1-.2969-.5791,1.847,1.847,0,0,0-1.4101-1.2452,7.65673,7.65673,0,0,0-1.76179-.291c-1.64061-.0381-3.28321-.0088-4.92381-.0146a13.71663,13.71663,0,0,0-7.54,1.7998,11.42252,11.42252,0,0,1-1.6055.8183,11.27267,11.27267,0,0,0-3.9375,3.1475,2.81849,2.81849,0,0,0-.7939,2.2402,11.94828,11.94828,0,0,1,0,1.8028,1.58592,1.58592,0,0,0,.6718,1.4121c.17091.1348.3438.2705.5205.3984a16.78089,16.78089,0,0,0,11.4297,3.2032,2.62479,2.62479,0,0,0,1.4961-.5547c.5147-.4014,1.1172-.6875,1.6553-1.0625a7.69675,7.69675,0,0,1,3.73831-1.0459,2.1973,2.1973,0,0,1,.80659.1054,1.47547,1.47547,0,0,1,.752,2.5469,5.17167,5.17167,0,0,1-2.2617,1.5713c-1.044.3213-2.0743.6943-3.1348.9512a2.8987,2.8987,0,0,0-1.5469.8535,27.67871,27.67871,0,0,0-4.78219,6.8135,6.75571,6.75571,0,0,0-.60251,2.0244c-.2012,1.7051.1113,2.1172,1.7578,2.5791a5.583,5.583,0,0,0,1.2832.2353c1.3662.0537,2.7324.0684,4.0996.0869a12.91755,12.91755,0,0,0,6.29291-1.5664c1.30469-.6884,2.55379-1.4843,3.878-2.1298A4.36954,4.36954,0,0,0,224.068,37.278a12.14662,12.14662,0,0,1,1.2754-3.7041,1.396,1.396,0,0,1,1.5117-.7568,1.41928,1.41928,0,0,1,1.2598,1.1162,4.39469,4.39469,0,0,1,.10741.9746,6.1169,6.1169,0,0,1-.81741,3.46,3.28375,3.28375,0,0,0-.3564,2.8437,9.26263,9.26263,0,0,0,4.5937,5.7197,14.05384,14.05384,0,0,0,3.711,1.2608,8.85194,8.85194,0,0,0,4.0654-.0635,11.45568,11.45568,0,0,0,8.1592-10.7217c0-.3818.0322-.7646.06251-1.1455a2.641,2.641,0,0,1,.88869-1.707,1.356,1.356,0,0,1,2.02731.1426,3.16375,3.16375,0,0,1,.54689,1.33,4.94978,4.94978,0,0,1-.2285,2.4278c-.7413,2.041-.0801,3.8789.8974,5.6279a3.47376,3.47376,0,0,0,1.9951,1.625c.8809.2861,1.7793.5342,2.6329.8897a5.39554,5.39554,0,0,0,4.1503-.0508,39.76557,39.76557,0,0,0,3.9102-1.6817,9.9018,9.9018,0,0,0,3.0879-2.6269c-.2656-.7119-.5391-1.3653-.7539-2.0371a11.64061,11.64061,0,0,1-.2715-6.1485,2.63439,2.63439,0,0,1,3.2285-2.0068,3.47121,3.47121,0,0,1,2.5264,2.1211,9.33159,9.33159,0,0,1,.5215,4.1914,5.50631,5.50631,0,0,1-.8301,2.9639,7.28937,7.28937,0,0,0-.4678,1.0234,8.333,8.333,0,0,0,6.6016,1.9922,5.92122,5.92122,0,0,0,4.4492-2.6943c-.166-.6807-.3428-1.3057-.4648-1.9415a1.21462,1.21462,0,0,1,1.4658-1.4462,3.0686,3.0686,0,0,1,1.705.9062,18.19274,18.19274,0,0,0,1.6846,1.5352,2.32705,2.32705,0,0,0,2.1758.3847,5.1182,5.1182,0,0,0,1.585-.8213,9.35186,9.35186,0,0,1,1.3291-.9209,2.53645,2.53645,0,0,0,1.332-3.4423,8.31937,8.31937,0,0,0-3.34859-4.1289,18.684,18.684,0,0,1-2.09281-1.5469,10.40341,10.40341,0,0,0-3.07719-2.0889c-.538.3369-1.02341.6992-1.55951.9649a4.89766,4.89766,0,0,1-4.1211.2382,1.09067,1.09067,0,0,1-.75-.7929,4.41333,4.41333,0,0,1,.39261-2.5469c.21379-.6074.76169-.7324,1.248-.9648a4.02032,4.02032,0,0,0,.709-.4034,2.095,2.095,0,0,1,1.54589-.3857,2.91872,2.91872,0,0,0,1.7099-.0869c.2071-.4795.4375-1.0313.6817-1.5772a12.27676,12.27676,0,0,0,.7754-4.0078,24.97759,24.97759,0,0,0-.1367-6.539,5.40688,5.40688,0,0,0-1.918-3.3418c-.3799-.3135-.7637-.6221-1.1328-.9483a5.64512,5.64512,0,0,0-3.7207-1.4883c-.76269-.0175-1.5235-.1338-2.2881-.1552a19.18482,19.18482,0,0,0-4.4131.1826,5.35225,5.35225,0,0,0-3.2578,2.2685c.1387.5137.28031,1.041.4219,1.5684a14.72015,14.72015,0,0,1,.4687,4.876,2.62289,2.62289,0,0,1-2.4961,2.5586,2.848,2.848,0,0,1-2.07219-.8321,4.83389,4.83389,0,0,1-1.42581-4.4951,7.06153,7.06153,0,0,1,1.1689-3.3769,5.83471,5.83471,0,0,0,.4834-1.0293,4.54747,4.54747,0,0,0-2.2578-2.0987c-.3496-.1455-.6611-.3847-1.0098-.541-1.1933-.5322-2.3857-1.0713-3.5976-1.5625a14.96977,14.96977,0,0,0-6.1465-.6846,12.13813,12.13813,0,0,0-2.5957.3164A14.90428,14.90428,0,0,0,243.529,6.444c-.4122.3448-.76369.7569-1.1563,1.1514.14061.4922.2549.9102.3818,1.3242a13.56873,13.56873,0,0,1,.5323,4.5381,6.54546,6.54546,0,0,1-.3506,1.917,2.27511,2.27511,0,0,1-3.2764,1.4199,2.69053,2.69053,0,0,1-1.3174-1.79,9.27628,9.27628,0,0,1,.2452-6.7158c.1835-.4434.34571-.8975.4853-1.2637A5.72531,5.72531,0,0,0,237.568,5.154a8.34763,8.34763,0,0,0-3.1816-1.6465c-3.62309-1.2178-6.9004-.6865-9.6113,2.1885-.9004.9551-1.8321,1.8896-2.6446,2.916A7.12463,7.12463,0,0,0,220.21261,13.75257Zm24.123,80.9356a9.08759,9.08759,0,0,0-.4902,3.7148q.02625,6.23295.12891,12.4639a19.95913,19.95913,0,0,0,.26169,2.9346,32.94955,32.94955,0,0,1,.3994,5.5527,31.91945,31.91945,0,0,0,.6611,6.5088,12.205,12.205,0,0,0,.9297,2.4394,1.34857,1.34857,0,0,0,1.3203.8037c.5469.001,1.09381-.0312,1.6407-.0156a26.02019,26.02019,0,0,0,7.1435-.8017c.791-.2012,1.6045-.3213,2.4043-.4922,2.7207-.585,5.4658-1.0772,8.15331-1.7862,4.06349-1.0742,8-2.5546,11.94239-4.0039a25.14415,25.14415,0,0,0,5.5283-2.8252,11.60235,11.60235,0,0,0,2.4981-2.1103,8.07831,8.07831,0,0,0-1.7197-5.8379c-.2393-.2959-.4288-.6338-.6602-.9375-1.2275-1.6055-2.3828-3.2744-3.71189-4.792a37.69115,37.69115,0,0,1-4.08791-5.5166c-1.1738-1.9678-2.459-3.875-3.794-5.7393a37.863,37.863,0,0,1-3.9462-6.8496,41.28072,41.28072,0,0,1-11.8194,5.1729A67.31452,67.31452,0,0,1,244.33561,94.68817Zm43.9434,25.3623c.0878-.0264.02831-.0215-.01569.0068-.18261.1172-.36911.2305-.539.3653a27.27008,27.27008,0,0,1-8.12991,4.5029c-1.6006.5459-3.1846,1.1406-4.7764,1.7158a75.60205,75.60205,0,0,1-10.1875,3.043c-2.3496.4931-4.7197.8945-7.0664,1.4052a32.19015,32.19015,0,0,1-6.46779.9903,2.18813,2.18813,0,0,0-.49021.123,6.67185,6.67185,0,0,1-.0791,3.875,8.41225,8.41225,0,0,0-.2949,1.2774,61.65635,61.65635,0,0,1-1.92779,8.622,6.13174,6.13174,0,0,0-.30461,3.1426c.5254.1416,1.0361.3096,1.55861.4141a34.881,34.881,0,0,0,6.21379.3066,14.917,14.917,0,0,0,6.2334-1.0888,4.77189,4.77189,0,0,0,2.8594-2.7266,14.9097,14.9097,0,0,0,.8379-4.9785c.0508-1.7998.1152-3.6035.2461-5.4004a5.40116,5.40116,0,0,1,.4941-1.709,2.095,2.095,0,0,1,1.918-1.292c1.73831-.1494,3.4648-.4297,5.1982-.6435.918-.1133,1.8428-.1827,2.7588-.3077a2.55441,2.55441,0,0,1,2.7149,1.4131c.4218.7031.8281,1.416,1.2509,2.1172a5.8368,5.8368,0,0,0,4.9209,3.0772c1.0352.0517,2.0743.0478,3.1104.0898a5.70854,5.70854,0,0,0,4.2314-1.4375c.2842-.2549.6153-.4561.9073-.7021a11.68641,11.68641,0,0,0,4.4111-8.8038,2.85079,2.85079,0,0,0-.7852-2.2324,5.78771,5.78771,0,0,0-.9736-.8662c-.8711-.5615-1.75679-1.1055-2.668-1.5976C291.7614,121.84437,290.0622,120.98207,288.279,120.05047Zm1.956-56.543a22.06261,22.06261,0,0,0,4.11231-.2422,6.48353,6.48353,0,0,0,1.40239-.415,9.2882,9.2882,0,0,0,4.05461-4.3555,2.28719,2.28719,0,0,0,.26369-1.0879c-.0879-1.4697-.2304-2.9345-.373-4.3994a3.45768,3.45768,0,0,0-.22069-.7871,1.27506,1.27506,0,0,0-1.34181-.9687,13.31937,13.31937,0,0,1-1.9649-.0284,6.16894,6.16894,0,0,0-4.3515,1.0537c-.2676.1827-.5567.3301-.918.5411a17.65264,17.65264,0,0,0-.2207,1.9101,39.27441,39.27441,0,0,1-.5625,8.4649C290.1061,63.23407,290.1501,63.28877,290.235,63.50747Zm-90.72069,9.7969c-.27051-.793-.50681-1.4004-.68261-2.0225q-.79109-2.83-1.5371-5.6718a2.61746,2.61746,0,0,0-.5674-1.3233,6.3763,6.3763,0,0,0-4.5732-1.8408,1.83423,1.83423,0,0,0-1.8985,1.2715c-.2344.664-.4004,1.3525-.5859,2.0342a3.43622,3.43622,0,0,0,.5986,3.0937,19.27076,19.27076,0,0,0,2.0235,2.3408A8.09119,8.09119,0,0,0,199.51432,73.30437Zm123.417,61.748a3.13145,3.13145,0,0,0,.834-2.1308c.01269-1.3086.01069-2.6221-.09281-3.9248a5.79834,5.79834,0,0,0-.542-1.8701,2.53844,2.53844,0,0,0-2.1396-1.5694,16.385,16.385,0,0,0-3.042.0186c-.0391.1494-.0723.206-.0625.2549a18.51393,18.51393,0,0,0,3.9638,8.3144A7.91223,7.91223,0,0,0,322.93132,135.05237Zm-61.92191,39.3682c-1.7929-.6006-2.4062-.6289-3.5527-.0107a13.58938,13.58938,0,0,0-5.4131,5.1054,2.55839,2.55839,0,0,0-.1641.7442,5.96046,5.96046,0,0,0,4.6446-.836A11.66965,11.66965,0,0,0,261.00941,174.42057Zm8.5782-136.0166a4.04512,4.04512,0,0,0,.1406-2.501c-.0352-.1445-.2178-.2529-.4737-.5322A5.55788,5.55788,0,0,0,269.58761,38.404Z" fill="#4f2400" fill-rule="evenodd"/>
            <path d="M250.109,85.45667c-.6015,0-1.205-.0332-1.80269.0059a16.90481,16.90481,0,0,1-8.39061-1.8379,25.12583,25.12583,0,0,1-7.503-5.1816,4.41769,4.41769,0,0,1-1.4189-2.8643,3.08,3.08,0,0,1,.1436-1.1201.966.966,0,0,1,1.6162-.252,1.19191,1.19191,0,0,1,.1904.2657,10.56079,10.56079,0,0,0,4.0352,4.1923,23.89645,23.89645,0,0,0,5.9218,3.1065,13.028,13.028,0,0,0,4.3321.7549c1.9111-.0244,3.82121-.0235,5.7314-.0596a11.89444,11.89444,0,0,0,7.5264-2.7773,15.31937,15.31937,0,0,0,4.3115-5.0674,10.94918,10.94918,0,0,1,1.2881-1.8926,1.49155,1.49155,0,0,1,2.0459-.3545,1.46059,1.46059,0,0,1,.3926,2.0313q-1.29795,2.0844-2.6465,4.1318a8.05451,8.05451,0,0,1-2.002,2.1396c-.7031.5137-1.3301,1.1328-2.0097,1.6836a14.23376,14.23376,0,0,1-8.3223,3.0323c-1.1426.0722-2.293.0127-3.4395.0127Z" fill="#4f2400" fill-rule="evenodd"/>
            <path d="M263.53871,62.19207c-.0068,1.6289-.8115,2.331-2.3867,2.1562a2.61294,2.61294,0,0,1-2.26069-3.541c.28319-.7705,1.00479-1.1152,1.65229-1.4931.5459-.3194,1.0693.0009,1.5322.2597A2.61541,2.61541,0,0,1,263.53871,62.19207Z" fill="#4f2400" fill-rule="evenodd"/>
            <path d="M232.65591,67.49187c-.1777.1162-.3105.2129-.4531.292-1.2363.6943-1.8887.5342-2.8184-.5508a3.0742,3.0742,0,0,1-.6679-3.0469,1.43351,1.43351,0,0,1,1.2734-1.0976c2.0293-.3116,2.665.2177,2.7441,2.331.0196.544.02931,1.0908.03231,1.6367A2.35509,2.35509,0,0,1,232.65591,67.49187Z" fill="#4f2400" fill-rule="evenodd"/>
          </g>
        </g>
        <g>
          <g>
            <path d="M119.89521,54.16467a16.00251,16.00251,0,0,1,2.8759,4.9473q.3927,1.0386.793,2.0762a14.63636,14.63636,0,0,1,1.11621,3.0332,24.136,24.136,0,0,1,.05369,4.2695c-.0312.8486-.2461,1.6875-.3496,2.5361a24.12165,24.12165,0,0,1-6.8808,14.376c-.7578.7744-1.5127,1.5537-2.2539,2.3408a32.14349,32.14349,0,0,1-6.9141,5.5508c-1.90429,1.1436-3.8066,2.2901-5.6865,3.4707a44.795,44.795,0,0,1-7.0879,3.378,52.48353,52.48353,0,0,1-7.4522,2.4941,68.92706,68.92706,0,0,1-10.7675,1.8662,1.78673,1.78673,0,0,1-1.4219-.3701,1.30493,1.30493,0,0,0-1.8594.0879,1.91321,1.91321,0,0,1-1.5635.5c-1.64739-.0967-3.2998-.1621-4.9463-.292-1.4179-.1133-2.8339-.2725-4.24409-.4639-.67191-.0898-1.32711-.3008-2.00291-.4599-.0957-.2325-.17-.4483-.2676-.6504-.14449-.3008-.4482-.4522-.6943-.2725a2.40155,2.40155,0,0,1-2.2774.1309c-1.3711-.3868-2.7461-.7657-4.13479-1.0743a5.15294,5.15294,0,0,1-1.71581-.7255c-.8154-.5245-1.6494-1.0196-2.4658-1.543a32.56586,32.56586,0,0,1-5.0361-4.3486c-.2442-.2403-.4444-.5293-.708-.7432-2.15629-1.7432-3.3477-4.1426-4.4766-6.5752a5.72322,5.72322,0,0,1-.8242-3.0898,2.89782,2.89782,0,0,0-.7627-2.045,2.78282,2.78282,0,0,1-.6045-1.3818,30.62739,30.62739,0,0,1,.2578-11.3936,2.25562,2.25562,0,0,1,1.1465-1.6093v-2.0459c3.666-.0723,7.2412-.1494,10.81841-.21a3.687,3.687,0,0,0,2.09369-.625,3.318,3.318,0,0,1,1.0606-.5303,24.23249,24.23249,0,0,0,4.6484-1.6777,61.188,61.188,0,0,0,5.4219-2.9004,30.93792,30.93792,0,0,0,4.08-2.7969,19.93252,19.93252,0,0,0,4.2696-5.0879,30.40755,30.40755,0,0,0,2.6435-4.9746c.0342-.0918.15331-.1513.3282-.3125.413.3204.8427.6631,1.28411.9912.45709.3428.93749.6514,1.38279,1.0069a36.85952,36.85952,0,0,0,5.4551,3.5166,19.55552,19.55552,0,0,0,8.62211,2.4795,29.92239,29.92239,0,0,0,7.66009-.375,31.63242,31.63242,0,0,0,9.67491-4.2031,20.05623,20.05623,0,0,0,2.72459-2.3311c.6328-.5664,1.2363-1.167,1.9179-1.8154.3164.2841.5733.4863.7959.7187,1.2188,1.2803,2.4131,2.584,3.6524,3.8447a1.77386,1.77386,0,0,1,.5908,1.5147,4.44811,4.44811,0,0,0,.0996,1.3545c.1846.8008.6934.9814,1.5469.6162C119.611,54.29847,119.70961,54.24967,119.89521,54.16467Zm-35.918,41.8672a21.38909,21.38909,0,0,0,5.08111-.832,9.46756,9.46756,0,0,0,3.02529-1.1289,47.87682,47.87682,0,0,0,7.9141-5.6631,15.29681,15.29681,0,0,0,3.5234-4.3721,68.48529,68.48529,0,0,0,3.0313-7.0644c.54491-1.4971.12891-2.9268.0273-4.3838-.0117-.1807-.3711-.4414-.5947-.4727a.956.956,0,0,0-.7314.2832,1.20124,1.20124,0,0,0-.2539.7911,5.862,5.862,0,0,1-.8067,2.9296c-.67669,1.3809-1.3799,2.751-1.9844,4.1641a17.94374,17.94374,0,0,1-4.65429,6.2607,53.44285,53.44285,0,0,1-5.666,4.1192,15.14393,15.14393,0,0,1-7.77241,2.2685,31.00676,31.00676,0,0,1-6.2852-.5546,10.63332,10.63332,0,0,1-5.1181-2.1934c-.7696-.5898-1.5577-1.1621-2.2725-1.8115a19.78349,19.78349,0,0,1-1.9971-2.0987c-.8262-1.0136-1.5683-2.0976-2.3554-3.1425a6.80405,6.80405,0,0,0-.6758-.7725.87447.87447,0,0,0-1.0957-.1738.93037.93037,0,0,0-.5332.9873,3.21708,3.21708,0,0,0,.2998.9717c.5947,1.1679,1.164,2.3544,1.84861,3.4677a11.31545,11.31545,0,0,0,2.56839,2.959c.8027.6406,1.5859,1.3067,2.3974,1.9356a12.95582,12.95582,0,0,0,4.8155,2.5097A36.385,36.385,0,0,0,83.97721,96.03187Zm13.7187-28.0205c.0127-.3066.0303-.4785.02741-.6465a2.43286,2.43286,0,0,0-2.44241-2.4853,1.191,1.191,0,0,0-1.2598,1.1172,17.01545,17.01545,0,0,0,.3125,3.0117,1.9332,1.9332,0,0,0,2.30571,1.2432,1.32968,1.32968,0,0,0,1.04979-1.1924A10.30055,10.30055,0,0,0,97.69591,68.01137Zm-26.1767,3.9737a8.13693,8.13693,0,0,0,.07811,1.1142,1.40951,1.40951,0,0,0,2.38279.749c1.1729-1.0576,1.2393-1.4677.4844-2.9228-.1035-.1992-.15919-.4268-.2715-.6211a1.34046,1.34046,0,0,0-1.4394-.6924,1.36231,1.36231,0,0,0-1.1739,1.2754C71.53291,71.22427,71.53971,71.57,71.51921,71.98507Z" fill="#ffdbba" fill-rule="evenodd"/>
            <path d="M40.82291,132.63736c.7666-.4033,1.3066-.708,1.86041-.9814,4.54589-2.254,9.124-4.4424,13.63369-6.7637a55.44957,55.44957,0,0,0,13.3897-9.4053,27.12154,27.12154,0,0,0,4.1191-5.0088c.545-.8642,1.1524-1.6885,1.6739-2.4492,3.6777-.4844,7.2265-.9531,10.9101-1.4375a4.40094,4.40094,0,0,1,.2608.8281,5.87636,5.87636,0,0,0,2.04,3.4737,3.76977,3.76977,0,0,0,5.0186.0791,12.69813,12.69813,0,0,0,3.747-5.4336,11.07628,11.07628,0,0,0,.20711-2.6875c1.67179-.7588,3.47849-1.5791,5.36909-2.4356a3.59492,3.59492,0,0,1,.4521.6621q1.5249,3.80565,3.0225,7.6231c1.5732,4.0312,3.1602,8.0595,4.6885,12.1093a22.64865,22.64865,0,0,1,1.2734,5.6543,86.51037,86.51037,0,0,0,1.7842,9.0606c.2871,1.335.6641,2.6533.9463,3.9902a13.49563,13.49563,0,0,1,.3906,2.6953c.0108,2.7881-.05269,5.5762-.124,8.3662-.0186.7334-.1914,1.4659-.2549,2.2022a3.47391,3.47391,0,0,1-2.2002,3.0176c-.9863.4453-1.9883.8691-3.0068,1.2256-.96579.3398-1.9639.5937-2.9532.8662a13.6819,13.6819,0,0,1-3.8837.5459c-1.8243-.0303-3.6524-.0664-5.4737.0049a47.10006,47.10006,0,0,1-9.0176-.7657,52.32259,52.32259,0,0,1-8.6494-1.9824,68.411,68.411,0,0,1-9.2207-3.6133c-4.0234-2.0322-8-4.1465-11.8642-6.4531-2.9326-1.752-5.7549-3.7012-8.5479-5.6729-2.9336-2.0703-5.77539-4.2705-8.6523-6.4228C41.49671,133.33077,41.277,133.071,40.82291,132.63736Z" fill="#00c5c7" fill-rule="evenodd"/>
            <g>
              <path d="M37.50941,65.06417c-.2597.1074-.4023.2197-.54.2138a.98466.98466,0,0,0-1.044.7158c-.45409,1.2266-.9296,2.4493-1.3164,3.6983a21.74661,21.74661,0,0,0-.7285,6.0976c-.0107.6192-.039,1.2393-.0566,1.8028-.39359.2539-.6074.0117-.84959-.1094-.60941-.3066-1.23641-.584-1.833-.916a6.71851,6.71851,0,0,0-5.1319-.5957c-.0781.0205-.1836-.0654-.3769-.1436.1836-.2939.3457-.5801.5312-.8486,1.0342-1.501,2.0254-3.0352,3.1358-4.4795.4599-.5967.3955-1.3965,1.0224-1.9307a7.14938,7.14938,0,0,0,1.1719-1.6621c2.2715-3.5537,4.0605-7.3945,6.5195-10.8408q2.13284-2.99415,4.09569-6.1074a16.8571,16.8571,0,0,0,2.2207-3.8291,3.01672,3.01672,0,0,1,.8555-1.041,7.69853,7.69853,0,0,0,1.6299-1.9659,1.01835,1.01835,0,0,1,.3037-.4091c1.1211-.7041,1.7227-1.9209,2.7246-2.7383.9746-.793,1.9014-1.6504,2.92191-2.3779a48.92284,48.92284,0,0,1,5.26169-3.5088,53.766,53.766,0,0,1,11.9707-4.9776c.4981-.125.97461-.3291,1.4697-.4599a29.87038,29.87038,0,0,1,9.83791-.876c.96779.0684,1.93849.1035,2.90729.1182a20.331,20.331,0,0,1,4.5625.6464,50.53227,50.53227,0,0,1,8.1484,2.5225,34.43645,34.43645,0,0,1,7.6016,4.5762,41.00111,41.00111,0,0,1,4.82221,4.0947,6.05557,6.05557,0,0,0,.69139.4902c.211.17.4844.3369.5742.5645a3.33538,3.33538,0,0,0,1.5567,1.7256,2.24018,2.24018,0,0,1-1.4668,2.4873,6.98252,6.98252,0,0,0-1.8379,1.2138,27.0206,27.0206,0,0,1-11.2637,5.5098,22.25851,22.25851,0,0,1-5.1025.3428,20.27611,20.27611,0,0,1-5.2529-.6035,21.12113,21.12113,0,0,1-5.8799-2.6914c-2.3428-1.5186-4.5899-3.1836-6.8633-4.8077a1.61379,1.61379,0,0,1-.4522-.6845c-.1074-.2588-.1093-.5596-.206-.8252a.92742.92742,0,0,0-1.7764.1211,12.28246,12.28246,0,0,0-.3144,1.8545,5.967,5.967,0,0,1-.9356,2.7256c-.9844,1.6025-2.0205,3.1767-3.0664,4.7392a18.93958,18.93958,0,0,1-5.9668,5.3008c-.9639.6045-1.9931,1.1045-2.98049,1.6758a29.58566,29.58566,0,0,1-10.10151,3.5537,11.00447,11.00447,0,0,1-2.3848.1025,5.893,5.893,0,0,0-2.6846.3115,3.60847,3.60847,0,0,1-3.1386-.0722c-.7998-.4004-1.7686-.3076-2.583-.8135-.5352-.3311-1.1739.0039-1.5957.6221a1.13241,1.13241,0,0,0,.1191,1.5576A12.60187,12.60187,0,0,0,37.50941,65.06417Z" fill="#af6140" fill-rule="evenodd"/>
              <path d="M21.93721,80.88927c-.0664.5264-.0938,1.0147-.1954,1.4874a6.64539,6.64539,0,0,0,1.1739,5.0214,4.20639,4.20639,0,0,0,1.3359,1.2803,14.01475,14.01475,0,0,0,4.4063,1.8184,11.66211,11.66211,0,0,0,2.8896.1933,20.6882,20.6882,0,0,0,5.2647-.4355c.0937-.0283.2168.041.4218.0859.5616.9717,1.1719,1.9932,1.7481,3.0342a7.57464,7.57464,0,0,0,1.4668,1.8701c1.5351,1.4424,3.0351,2.9258,4.5176,4.4238a21.40718,21.40718,0,0,0,3.5361,2.6719c.1885.126.4014.2207.5771.3633a14.2573,14.2573,0,0,0,6.5655,2.6865,4.41461,4.41461,0,0,1,.6572.1836,2.60366,2.60366,0,0,1,.3887.2305,8.50685,8.50685,0,0,1-1.1563,1.9805,1.2927,1.2927,0,0,1-.6797.4668c-1.041.2871-2.0937.5332-3.1465.7705-.3867.0879-.8066.0498-1.1835.164-2.2247.6875-4.4473,1.3789-6.6563,2.1192a9.97167,9.97167,0,0,1-3.207.3769,3.61785,3.61785,0,0,1-2.22849-.4482,4.12357,4.12357,0,0,1-.11331-1.0996c.209-1.4063.4609-2.8057.73531-4.1993.14159-.7255.40729-1.4277.52929-2.1552a2.2272,2.2272,0,0,0-.1357-1.1553,1.58692,1.58692,0,0,0-2.3672-.8936,10.9186,10.9186,0,0,0-1.707,1.1329,12.67981,12.67981,0,0,1-7.4385,2.6201c-.5694.0244-1.1416-.0254-1.71.0049a10.49442,10.49442,0,0,1-5.9189-1.3135,6.86757,6.86757,0,0,0-1.2578-.5274,22.19284,22.19284,0,0,1-7.6299-4.4218c-1.7647-1.5274-3.624-2.9473-5.3848-4.4815-.8935-.7793-1.6601-1.7002-2.5908-2.667,1.2021-.6738,2.2617-1.3349,3.3769-1.8808,1.7901-.8731,3.6319-1.6416,5.4229-2.5118a25.95406,25.95406,0,0,0,5.2158-3.2412c1.3643-1.124,2.6983-2.2812,4.0498-3.4189A1.58576,1.58576,0,0,1,21.93721,80.88927Z" fill="#af6140" fill-rule="evenodd"/>
              <path d="M117.07391,90.69307c1.0117-1.0645,1.9062-2.0166,2.81441-2.9561a28.51708,28.51708,0,0,0,6.18749-9.5498,24.12585,24.12585,0,0,0,1.02251-3.6104c.36229-1.6689.63959-3.3603.92279-5.0458a12.44629,12.44629,0,0,0,.0948-1.5303c.02541-.6192.0381-1.2403.0537-1.8565a1.61656,1.61656,0,0,1,1.9043.5547c1.497,1.9248,3.584,3.1494,5.43941,4.6533a28.8576,28.8576,0,0,0,10.41409,4.9405c.0371.0097.0557.0761.1465.209a10.28447,10.28447,0,0,1-2.1778,1.8144,5.7986,5.7986,0,0,0-2.3027,1.9883,4.36136,4.36136,0,0,1-2.8203,1.7451,9.13458,9.13458,0,0,1-2.0303.2109c-.7959.0313-1.5967.0137-2.39349-.0117a2.02406,2.02406,0,0,0-1.93951,1.4121,1.12519,1.12519,0,0,0,.0567,1.1475,11.49191,11.49191,0,0,0,.9453,1.207c.6484.7188,1.35351,1.3897,1.97851,2.1299a3.09721,3.09721,0,0,1,1.05659,2.1436,6.52469,6.52469,0,0,1-3.2412.832c-.8525.0371-1.708-.0107-2.5615.0039a11.99913,11.99913,0,0,0-1.5332.0996c-1.0371.1494-1.38669.4775-1.5479,1.6943a1.73982,1.73982,0,0,1-1.1709,1.5323,11.34323,11.34323,0,0,1-4.1757.7568,3.5298,3.5298,0,0,1-2.8077-1.3935C118.62861,92.84147,117.91181,91.81807,117.07391,90.69307Z" fill="#af6140" fill-rule="evenodd"/>
            </g>
            <path d="M127.91861,63.10807c-.56929-1.416-1.1904-2.8154-1.7002-4.2549a24.65445,24.65445,0,0,0-4.4726-7.7978,8.91613,8.91613,0,0,1-.64649-1,11.15429,11.15429,0,0,1,2.07219-2.2959,3.658,3.658,0,0,1,3.1426-.9883,13.10907,13.10907,0,0,1,5.7344,2.0371,3.84355,3.84355,0,0,1,1.0019.9102,7.00455,7.00455,0,0,1,1.21291,6.4394,20.95479,20.95479,0,0,1-2.06741,4.291,8.0279,8.0279,0,0,1-2.583,2.4414A1.94983,1.94983,0,0,1,127.91861,63.10807Z" fill="#ffdbba" fill-rule="evenodd"/>
            <path d="M35.89811,87.781a1.72573,1.72573,0,0,1-.4463.1103c-1.5381-.0146-3.0771-.084-4.6142-.0527a9.10091,9.10091,0,0,1-4.9942-1.5264,3.27122,3.27122,0,0,1-1.4101-3.1133,7.40489,7.40489,0,0,1,1.6835-4.042,1.96139,1.96139,0,0,1,1.6641-.7422,7.49168,7.49168,0,0,1,6.1084,2.8848,2.66946,2.66946,0,0,1,.48049,1.0742,23.18467,23.18467,0,0,0,1.5674,5.041C35.97621,87.50067,35.91571,87.63247,35.89811,87.781Z" fill="#ffdbba" fill-rule="evenodd"/>
            <path d="M87.49381,196.47137h-1.8691a9.453,9.453,0,0,1-.8633-3.6221q-.01035-5.7963.00391-11.5937a4.19819,4.19819,0,0,1,.07319-.5899c.4043-.1875.4414.0996.5557.2686a26.34072,26.34072,0,0,1,2.7412,5.6445,7.02363,7.02363,0,0,1,.4502,2.1377c.0635,1.5254.0205,3.0518.0039,4.5791A4.251,4.251,0,0,1,87.49381,196.47137Z" fill="#00c5c7" fill-rule="evenodd"/>
            <path d="M39.654,173.22627c0-1.8682.02531-3.5147-.0088-5.1592a9.36242,9.36242,0,0,1,.584-2.8311c.2558-.873.5576-1.7343.7607-2.6191a5.102,5.102,0,0,1,1.459-2.2734,1.03459,1.03459,0,0,1,.5996-.2823,3.41966,3.41966,0,0,1,1.7695.1182,7.87349,7.87349,0,0,0-.7558,3.8125,7.10036,7.10036,0,0,1-.3536,1.834c-.2851,1.1035-.6054,2.1933-.9111,3.289a3.27631,3.27631,0,0,1-.2881.9746c-.6816.9786-1.41209,1.9219-2.1426,2.8633C40.28381,173.05927,40.07971,173.069,39.654,173.22627Z" fill="#00c5c7" fill-rule="evenodd"/>
            <path d="M94.82681,104.01337a3.53268,3.53268,0,0,1-.0742.6845,11.20607,11.20607,0,0,1-2.5537,3.7842,1.21254,1.21254,0,0,1-2.0371-.0459c-.6602-.7158-.7442-.9345-.9668-2.5771C90.98991,105.26917,92.80632,104.67547,94.82681,104.01337Z" fill="#ffdbba" fill-rule="evenodd"/>
            <path d="M60.19111,84.89907c0-.0683.0068-.1377.0058-.207a6.56808,6.56808,0,0,0-2.2578-5.0049,7.55945,7.55945,0,0,0-7.5156-2.7256c-4.9141.9219-7.418,6.0098-7.0088,10.624.2275,2.5704,1.26661,5.0059,3.75,6.1299a7.63532,7.63532,0,0,0,4.5068.5362,8.32588,8.32588,0,0,0,1.30081-.2911c.332-.1025,2.15429-.7421,1.01859-.3964a8.1888,8.1888,0,0,0,2.9775-1.668,5.06874,5.06874,0,0,0,2.4434-2.1963A7.52674,7.52674,0,0,0,60.19111,84.89907Z" fill="#ff8898" fill-rule="evenodd"/>
            <path d="M118.81611,60.72137a5.19991,5.19991,0,0,0-1.0703-.5049,5.27377,5.27377,0,0,0-.7559-.3105q1.0107.2841-.64059-.3262a8.22089,8.22089,0,0,0-2.24421-.2119,9.01852,9.01852,0,0,0-5.0742,2.1484,8.44188,8.44188,0,0,0-2.4394,8.707,8.08732,8.08732,0,0,0,13.2519,3.6045C123.61591,70.68717,122.91961,63.26827,118.81611,60.72137Z" fill="#ff8898" fill-rule="evenodd"/>
          </g>
          <g>
            <path d="M65.59932,114.64807a4.95693,4.95693,0,0,0-2.27351,1.0655,15.046,15.046,0,0,1-4.4336,2.5244c-1.8115.6797-3.5966,1.4394-5.4355,2.0351a26.93615,26.93615,0,0,1-6.8848,1.1768,36.77665,36.77665,0,0,1-6.3261-.0352c-1.3028-.1543-2.6036-.3164-3.9082-.4511-.6797-.0713-1.36429-.1065-2.0469-.128a40.6774,40.6774,0,0,1-7.6172-.9882c-1.1113-.2491-2.2383-.42-3.4473-.6446a3.478,3.478,0,0,1-.5127.9483c-1.5908,1.5644-2.6406,3.5586-4.1396,5.1933a2.94013,2.94013,0,0,1-.3535.3682,1.086,1.086,0,0,1-1.7246-.6709,2.88948,2.88948,0,0,1,.7011-2.3828,6.049,6.049,0,0,0,1.4033-2.3164c-.1259-.3555-.4501-.2754-.7099-.2725-.9678.0117-1.9356.0527-2.9024.0762a1.19037,1.19037,0,0,1-.875-2.0488,2.576,2.576,0,0,1,1.8545-.7461c1.3116.0156,2.6221.0039,4.0118.0039-.3223-.6114-.5821-1.1426-.875-1.6543-.2833-.4912-.6153-.9561-.8975-1.4492a6.51147,6.51147,0,0,1-.5117-1.0782,1.37808,1.37808,0,0,1,.5185-1.5107,1.525,1.525,0,0,1,1.751.1025,5.02077,5.02077,0,0,1,.4453.5147c1.1553,1.3349,2.2901,2.6836,3.4805,3.9883a1.84927,1.84927,0,0,0,1.043.5,68.09128,68.09128,0,0,0,10.705,1.1513,30.3778,30.3778,0,0,1,3.56939.3008,26.133,26.133,0,0,0,5.6269.2354c1.2988-.1504,2.6055-.1456,3.9131-.3096a32.46194,32.46194,0,0,0,8.6309-2.6426,16.3629,16.3629,0,0,0,4.7246-2.7031,2.3389,2.3389,0,0,1,.7226-.4502c2.3301-.8701,4.127-2.6094,6.252-3.8115.14451-.083.27151-.1963.5644-.4131a6.81061,6.81061,0,0,0-1.0957-.3213c-.9648-.0986-1.9336-.1533-2.8994-.2334a32.387,32.387,0,0,1-6.04779-1.1846c-.53521.336-.66021.916-.90141,1.4121-.22359.458-.3838.9512-.6123,1.4082a3.86054,3.86054,0,0,1-2.4199,2.0176,14.37524,14.37524,0,0,1-3.3125.8067,3.07086,3.07086,0,0,0-.67389.1083c-2.07221.6192-4.15821,1.2002-6.20311,1.8946a10.871,10.871,0,0,1-3.1611.6738c-.9697.0283-1.9414.0264-2.9111.0029a4.418,4.418,0,0,1-2.7081-.8994,3.27944,3.27944,0,0,1-1.47159-3.083c.12009-1.0752.21869-2.1514.31929-3.2265.0205-.2178.0029-.4375.0029-.7872-.9511.337-1.8086.5967-2.6289.9395a11.9129,11.9129,0,0,1-4.334.875c-1.4257.0361-2.8554.0381-4.2812.002a10.88245,10.88245,0,0,1-4.5918-1.1973,15.87125,15.87125,0,0,0-2.0332-.8975,23.89226,23.89226,0,0,1-8.0742-4.7002c-1.8203-1.5566-3.7305-3.0097-5.5176-4.6015-1.1016-.9834-2.0547-2.1328-3.0566-3.2237a3.67688,3.67688,0,0,1-.6924-.9726c-.5674-1.3037-.4541-2.2764.6211-3.0303.3252-.2266.6767-.4199,1.0166-.6269a75.98089,75.98089,0,0,1,8.416-4.1846,32.05694,32.05694,0,0,0,7.5224-4.9951,29.18562,29.18562,0,0,0,4.6124-5.2549c.9433-1.2891,1.9599-2.5303,2.8183-3.874.8252-1.294,1.4981-2.6836,2.2188-4.042a4.32307,4.32307,0,0,1,1.7402-2.0196,3.85094,3.85094,0,0,0,1.1914-1.6172c.8389-1.5546,1.5957-3.1533,2.4307-4.7099.4306-.7998.9492-1.5576,1.4472-2.3213.9961-1.5283,1.9883-3.0615,3.0147-4.5693.9931-1.46,1.9668-2.9414,3.0635-4.3243a8.33971,8.33971,0,0,0,2.06541-3.665,3.04745,3.04745,0,0,1,1.01849-1.5537c1.3643-1.3779,2.7061-2.7852,4.1553-4.0703a47.66719,47.66719,0,0,1,8.8233-6.459,59.35139,59.35139,0,0,1,16.2294-6.2148,35.07505,35.07505,0,0,1,5.4356-.5635,59.23722,59.23722,0,0,1,8.206.3213,16.66673,16.66673,0,0,1,2.3584.3779,51.2622,51.2622,0,0,1,11.4717,3.8447,47.57757,47.57757,0,0,1,7.2676,4.8018,27.65715,27.65715,0,0,1,5.2979,5.0781,11.46119,11.46119,0,0,0,.82031.8701,1.58142,1.58142,0,0,0,1.03709.4903c.9033.1162,1.2344.498,1.0361,1.3906a6.72044,6.72044,0,0,0,.1133,2.0185,1.09226,1.09226,0,0,0,.1914.6368,28.11846,28.11846,0,0,0,3.3428,3.4746c.8056-.7959,1.5761-1.5391,2.3232-2.3047a5.55352,5.55352,0,0,1,4.3389-1.6739,14.51364,14.51364,0,0,1,7.7246,2.4444,6.74378,6.74378,0,0,1,1.8887,1.958,9.88924,9.88924,0,0,1,1.8086,6.7959,14.5843,14.5843,0,0,1-1.4981,4.5224,14.0384,14.0384,0,0,1-3.7197,4.9102,6.82767,6.82767,0,0,0,2.124,2.209c1.5635,1.1475,3.1524,2.2646,4.75,3.3662a8.12319,8.12319,0,0,0,1.49711.8115c1.63279.6729,3.25489,1.3867,4.93449,1.9219a14.25977,14.25977,0,0,0,2.8731.3516,6.40774,6.40774,0,0,0,.8555.0048,1.68077,1.68077,0,0,1,1.8027,1.0313,1.92179,1.92179,0,0,1-.4434,2.0684c-.5507.5751-1.1455,1.1113-1.7441,1.6386-.6416.5635-1.3115,1.0948-1.9648,1.6436a6.16273,6.16273,0,0,1-.7754.6709,6.881,6.881,0,0,0-2.8536,2.6172,1.8555,1.8555,0,0,1-.6562.5273,10.13127,10.13127,0,0,1-3.9609,1.5108c-.44139.0722-.8809.165-1.4805.2812.2226.3242.3623.5332.5078.7412.459.6524.94731,1.2861,1.375,1.959a3.939,3.939,0,0,1,.418,3.1416,2.71758,2.71758,0,0,1-1.791,1.9297,12.7177,12.7177,0,0,1-4.4971.9404c-.7959-.0166-1.5928-.0039-2.375-.0039-.4639.6045-.8858,1.1387-1.291,1.6865a4.16647,4.16647,0,0,1-2.043,1.4981,12.75734,12.75734,0,0,1-6.3857.789,6.10555,6.10555,0,0,1-4.5196-3.5537,3.216,3.216,0,0,1-.23429-1.1621c-.03911-.5078-.01081-1.0185-.01081-1.6982-.3125.1338-.53419.165-.6553.29a26.987,26.987,0,0,1-4.7705,3.5987c-1.3759.913-2.77539,1.7959-4.1611,2.6982a5.55653,5.55653,0,0,0-.498.4082,9.30826,9.30826,0,0,0,2.8652,2.4297c7.4687,4.291,15.1172,8.2422,22.8496,12.0312,2.457,1.2032,4.9687,2.2989,7.4971,3.3418a28.05735,28.05735,0,0,0,4.2314,1.3311,9.80573,9.80573,0,0,0,3.0488.2705c1.5352-.1367,3.0694-.0811,4.59961-.1748a4.2939,4.2939,0,0,0,1.501-.2627,6.59147,6.59147,0,0,1,2.33209-.4561,3.528,3.528,0,0,0,1.7783-.4521,1.559,1.559,0,0,1,1.6172,2.6592,2.87376,2.87376,0,0,1-2.0332.7422,11.47561,11.47561,0,0,0-1.876.0742,6.11645,6.11645,0,0,0-1.0791.3271,4.16727,4.16727,0,0,0,.55271.8877,15.58933,15.58933,0,0,0,3.99609,3.1787,2.36885,2.36885,0,0,1,.4336.2744c.5576.4122.7744.8575.6357,1.2823a1.74111,1.74111,0,0,1-1.7236,1.1455,1.70957,1.70957,0,0,1-.6445-.2139,18.73869,18.73869,0,0,1-2.4278-1.5771c-1.122-.9639-2.1406-2.0479-3.2021-3.084-.2393-.2315-.4736-.4697-.6875-.6826-.4453.1591-.3555.4814-.3564.7422-.0108,1.541.0029,3.082-.0166,4.623a7.48147,7.48147,0,0,1-.1358,1.5293,1.30851,1.30851,0,0,1-1.2373,1.0059,1.34577,1.34577,0,0,1-1.4443-.961,7.50577,7.50577,0,0,1-.18749-1.6924c-.02541-1.539-.00591-3.08-.01471-4.6191-.0029-.3867-.0537-.7705-.0752-1.0928-.209-.1035-.3086-.1924-.4062-.1924a22.61205,22.61205,0,0,1-8.8946-2.2373c-6.0976-2.5722-11.9668-5.6162-17.8134-8.7129-3.7803-2.0058-7.5244-4.0664-11.1807-6.289a2.86334,2.86334,0,0,0-.5039-.166,2.07477,2.07477,0,0,0,.26371,1.3271c1.66989,4.1817,3.36419,8.3526,5.01359,12.544a39.75386,39.75386,0,0,1,2.3526,9.2529c.3584,2.6504,1.0049,5.2607,1.5517,7.8828.4317,2.0615.91611,4.1133,1.3614,6.1738a5.80352,5.80352,0,0,1,.1298,1.1846c.0118,2.2275.0596,4.4561-.0126,6.6797-.0489,1.4775-.2383,2.956-.4336,4.4248a6.92838,6.92838,0,0,1-4.42389,5.6435,41.92164,41.92164,0,0,1-7.13281,2.3653c-.2715.0674-.539.1474-.8476.2314a2.94749,2.94749,0,0,0,.0957,2.1709c.6025,1.4785,1.1338,2.9854,1.7431,4.4629a14.30185,14.30185,0,0,1,.8369,6.2227,2.65581,2.65581,0,0,1-2.747,2.6865c-.4561-.001-.9131.0107-1.3701.0107-4.91019,0-9.8204.0118-14.7315-.0107a2.391,2.391,0,0,0-2.1348.8193,14.01776,14.01776,0,0,0,1.628,4.0381,51.00492,51.00492,0,0,1,2.0429,4.877,3.86255,3.86255,0,0,1,.1915,1.3486c.0195,1.9971.0263,3.9951.0068,5.9941a6.84788,6.84788,0,0,1-1.3096,3.8311,3.13169,3.13169,0,0,1-2.1738,1.5244,14.34329,14.34329,0,0,1-3.2266.1016,2.69158,2.69158,0,0,1-2.1738-1.9707,14.12571,14.12571,0,0,1-.9844-4.9961c.0703-3.6875.0342-7.377.0137-11.0664a6.32958,6.32958,0,0,1,.373-2.5078,2.3423,2.3423,0,0,0,.2022-.8262,2.99078,2.99078,0,0,1,1.3115-2.294,2.00689,2.00689,0,0,1,1.0381-.5166,5.28558,5.28558,0,0,0,2.2354-.7607,5.78024,5.78024,0,0,1,2.7949-.6309q7.01655.0015,14.0312-.0136h1.7227a3.62479,3.62479,0,0,0,.2812-2.3682,10.5636,10.5636,0,0,0-.4687-1.9893c-.25-.8183-.5449-1.622-.8428-2.4257-.6494-1.75-1.458-3.46-1.3281-5.4883-1.7959-.0322-3.49319-.0596-5.1895-.0957-1.6533-.0352-3.3134-.0088-4.9599-.1397-1.7022-.1406-3.3965-.3925-5.0821-.6797-1.6836-.2871-3.3613-.6328-5.0214-1.0361-1.6055-.3887-3.2051-.8223-4.7686-1.3486-1.6104-.5371-3.1826-1.1875-4.9111-1.6192a5.68715,5.68715,0,0,0,.0439,2.7627,26.56837,26.56837,0,0,1,.5791,7.8223,2.028,2.028,0,0,1-2.3984,2.2002c-1.0186-.083-2.0264-.2774-3.03619-.4434a8.57666,8.57666,0,0,0-1.167-.2597,10.23562,10.23562,0,0,1-4.07421-1.1787c-2.7519-1.2461-5.4961-2.5137-8.209-3.8467a33.3994,33.3994,0,0,1-2.8945-1.8086,8.86511,8.86511,0,0,0-5.0117-1.416c-.043,0-.085.0625-.2305.1806.0391.2539.0752.5772.1367.8965a9.44933,9.44933,0,0,1-.50579,5.8535,11.4156,11.4156,0,0,0-.64261,2.6534,5.05956,5.05956,0,0,1-1.0586,2.3037c-.42579.5312-.7871,1.1142-1.17479,1.6767a4.27721,4.27721,0,0,1-4.31931,2.1572,2.66554,2.66554,0,0,1-2.5625-2.6728c-.0166-1.9951-.2266-3.9815-.07619-5.9815a13.83655,13.83655,0,0,1,.54689-2.8398c.3164-1.0947.6582-2.1807.9785-3.2715a7.981,7.981,0,0,1,2.834-3.9824,2.9695,2.9695,0,0,1,2.05861-.7061c.96769.0547,1.94139.0118,2.91009.0157a2.88694,2.88694,0,0,1,.6836.0381c1.3721.3418,2.752.663,4.1055,1.0664a13.22383,13.22383,0,0,1,3.6601,1.8242,47.90255,47.90255,0,0,0,7.4151,3.874c.831.374,1.6709.7314,2.5107,1.084a10.87494,10.87494,0,0,0,3.42391.9951,19.23082,19.23082,0,0,1,2.83779.6318c.4043-.581.2071-1.165.2383-1.7109.0293-.5098.0205-1.0215.0088-1.5322a5.53119,5.53119,0,0,0-.0908-.8506,26.95344,26.95344,0,0,1-.4307-6.9043c-.4502-.2578-.872-.5352-1.3232-.749-3.5527-1.7012-6.99219-3.6172-10.3711-5.6299-2.7422-1.6338-5.41309-3.3906-8.0606-5.1787-4.1132-2.7783-8.039-5.8174-11.9736-8.8428a3.605,3.605,0,0,1-1.2246-1.6006,1.94417,1.94417,0,0,1,.7285-2.5596,22.75309,22.75309,0,0,1,2.91121-1.7861c4.63859-2.3271,9.32419-4.5615,13.94719-6.9199a61.49435,61.49435,0,0,0,10.1924-6.5723c.2666-.2109.5547-.3965.833-.5957C65.80432,114.84047,65.70081,114.74577,65.59932,114.64807Zm54.29589-60.4834c-.1856.085-.2842.1338-.3838.1768-.8535.3652-1.3623.1846-1.5469-.6162a4.44811,4.44811,0,0,1-.0996-1.3545,1.77386,1.77386,0,0,0-.5908-1.5147c-1.2393-1.2607-2.4336-2.5644-3.6524-3.8447-.2226-.2324-.4795-.4346-.7959-.7187-.6816.6484-1.2851,1.249-1.9179,1.8154a20.05623,20.05623,0,0,1-2.72459,2.3311,31.63242,31.63242,0,0,1-9.67491,4.2031,29.92239,29.92239,0,0,1-7.66009.375,19.55552,19.55552,0,0,1-8.62211-2.4795,36.85952,36.85952,0,0,1-5.4551-3.5166c-.4453-.3555-.9257-.6641-1.38279-1.0069-.44141-.3281-.87111-.6708-1.28411-.9912-.17489.1612-.294.2207-.3282.3125a30.40755,30.40755,0,0,1-2.6435,4.9746,19.93252,19.93252,0,0,1-4.2696,5.0879,30.93792,30.93792,0,0,1-4.08,2.7969,61.188,61.188,0,0,1-5.4219,2.9004,24.23249,24.23249,0,0,1-4.6484,1.6777,3.318,3.318,0,0,0-1.0606.5303,3.687,3.687,0,0,1-2.09369.625c-3.57721.0606-7.15241.1377-10.81841.21v2.0459a2.25562,2.25562,0,0,0-1.1465,1.6093,30.62739,30.62739,0,0,0-.2578,11.3936,2.78282,2.78282,0,0,0,.6045,1.3818,2.89782,2.89782,0,0,1,.7627,2.045,5.72322,5.72322,0,0,0,.8242,3.0898c1.1289,2.4326,2.32031,4.832,4.4766,6.5752.2636.2139.4638.5029.708.7432a32.56586,32.56586,0,0,0,5.0361,4.3486c.8164.5234,1.6504,1.0185,2.4658,1.543a5.15294,5.15294,0,0,0,1.71581.7255c1.38869.3086,2.76369.6875,4.13479,1.0743a2.40155,2.40155,0,0,0,2.2774-.1309c.2461-.1797.54981-.0283.6943.2725.0976.2021.1719.4179.2676.6504.6758.1591,1.331.3701,2.00291.4599,1.41019.1914,2.82619.3506,4.24409.4639,1.6465.1299,3.29891.1953,4.9463.292a1.91321,1.91321,0,0,0,1.5635-.5,1.30493,1.30493,0,0,1,1.8594-.0879,1.78673,1.78673,0,0,0,1.4219.3701,68.92706,68.92706,0,0,0,10.7675-1.8662,52.48353,52.48353,0,0,0,7.4522-2.4941,44.795,44.795,0,0,0,7.0879-3.378c1.8799-1.1806,3.78221-2.3271,5.6865-3.4707a32.14349,32.14349,0,0,0,6.9141-5.5508c.7412-.7871,1.4961-1.5664,2.2539-2.3408a24.12165,24.12165,0,0,0,6.8808-14.376c.1035-.8486.3184-1.6875.3496-2.5361a24.136,24.136,0,0,0-.05369-4.2695,14.63636,14.63636,0,0,0-1.11621-3.0332q-.4014-1.0386-.793-2.0762A16.00251,16.00251,0,0,0,119.89521,54.16467Zm-79.0723,78.4727c.4541.4336.6738.6934.9385.8916,2.87691,2.1523,5.7187,4.3525,8.6523,6.4228,2.793,1.9717,5.6153,3.9209,8.5479,5.6729,3.8642,2.3066,7.8408,4.4209,11.8642,6.4531a68.411,68.411,0,0,0,9.2207,3.6133,52.32259,52.32259,0,0,0,8.6494,1.9824,47.10006,47.10006,0,0,0,9.0176.7657c1.8213-.0713,3.6494-.0352,5.4737-.0049a13.6819,13.6819,0,0,0,3.8837-.5459c.9893-.2725,1.98741-.5264,2.9532-.8662,1.0185-.3565,2.0205-.7803,3.0068-1.2256a3.47391,3.47391,0,0,0,2.2002-3.0176c.0635-.7363.2363-1.4688.2549-2.2022.07131-2.79.1348-5.5781.124-8.3662a13.49563,13.49563,0,0,0-.3906-2.6953c-.2822-1.3369-.6592-2.6552-.9463-3.9902a86.51037,86.51037,0,0,1-1.7842-9.0606,22.64865,22.64865,0,0,0-1.2734-5.6543c-1.5283-4.0498-3.1153-8.0781-4.6885-12.1093q-1.49115-3.81885-3.0225-7.6231a3.59492,3.59492,0,0,0-.4521-.6621c-1.8906.8565-3.6973,1.6768-5.36909,2.4356a11.07628,11.07628,0,0,1-.20711,2.6875,12.69813,12.69813,0,0,1-3.747,5.4336,3.76977,3.76977,0,0,1-5.0186-.0791,5.87636,5.87636,0,0,1-2.04-3.4737,4.40094,4.40094,0,0,0-.2608-.8281c-3.6836.4844-7.2324.9531-10.9101,1.4375-.5215.7607-1.1289,1.585-1.6739,2.4492a27.12154,27.12154,0,0,1-4.1191,5.0088,55.44957,55.44957,0,0,1-13.3897,9.4053c-4.50969,2.3213-9.0878,4.5097-13.63369,6.7637C42.12951,131.92936,41.58951,132.23406,40.82291,132.63736Zm-3.3135-67.5732a12.60187,12.60187,0,0,1-1.0742-.9307,1.13241,1.13241,0,0,1-.1191-1.5576c.4218-.6182,1.0605-.9532,1.5957-.6221.8144.5059,1.7832.4131,2.583.8135a3.60847,3.60847,0,0,0,3.1386.0722,5.893,5.893,0,0,1,2.6846-.3115,11.00447,11.00447,0,0,0,2.3848-.1025,29.58566,29.58566,0,0,0,10.10151-3.5537c.98739-.5713,2.01659-1.0713,2.98049-1.6758a18.93958,18.93958,0,0,0,5.9668-5.3008c1.0459-1.5625,2.082-3.1367,3.0664-4.7392a5.967,5.967,0,0,0,.9356-2.7256,12.28246,12.28246,0,0,1,.3144-1.8545.92742.92742,0,0,1,1.7764-.1211c.0967.2656.0986.5664.206.8252a1.61379,1.61379,0,0,0,.4522.6845c2.2734,1.6241,4.5205,3.2891,6.8633,4.8077a21.12113,21.12113,0,0,0,5.8799,2.6914,20.27611,20.27611,0,0,0,5.2529.6035,22.25851,22.25851,0,0,0,5.1025-.3428,27.0206,27.0206,0,0,0,11.2637-5.5098,6.98252,6.98252,0,0,1,1.8379-1.2138,2.24018,2.24018,0,0,0,1.4668-2.4873,3.33538,3.33538,0,0,1-1.5567-1.7256c-.0898-.2276-.3632-.3945-.5742-.5645a6.05557,6.05557,0,0,1-.69139-.4902,41.00111,41.00111,0,0,0-4.82221-4.0947,34.43645,34.43645,0,0,0-7.6016-4.5762,50.53227,50.53227,0,0,0-8.1484-2.5225,20.331,20.331,0,0,0-4.5625-.6464c-.9688-.0147-1.9395-.0498-2.90729-.1182a29.87038,29.87038,0,0,0-9.83791.876c-.49509.1308-.9716.3349-1.4697.4599a53.766,53.766,0,0,0-11.9707,4.9776,48.92284,48.92284,0,0,0-5.26169,3.5088c-1.02051.7275-1.94731,1.5849-2.92191,2.3779-1.0019.8174-1.6035,2.0342-2.7246,2.7383a1.01835,1.01835,0,0,0-.3037.4091,7.69853,7.69853,0,0,1-1.6299,1.9659,3.01672,3.01672,0,0,0-.8555,1.041,16.8571,16.8571,0,0,1-2.2207,3.8291q-1.96425,3.107-4.09569,6.1074c-2.459,3.4463-4.248,7.2871-6.5195,10.8408a7.14938,7.14938,0,0,1-1.1719,1.6621c-.6269.5342-.5625,1.334-1.0224,1.9307-1.1104,1.4443-2.1016,2.9785-3.1358,4.4795-.1855.2685-.3476.5547-.5312.8486.1933.0782.2988.1641.3769.1436a6.71851,6.71851,0,0,1,5.1319.5957c.5966.332,1.22359.6094,1.833.916.24219.1211.456.3633.84959.1094.0176-.5635.0459-1.1836.0566-1.8028a21.74661,21.74661,0,0,1,.7285-6.0976c.3868-1.249.86231-2.4717,1.3164-3.6983a.98466.98466,0,0,1,1.044-.7158C37.10711,65.28387,37.24971,65.17157,37.50941,65.06417Zm-15.5722,15.8251a1.58576,1.58576,0,0,0-.4278.1358c-1.3515,1.1377-2.6855,2.2949-4.0498,3.4189a25.95406,25.95406,0,0,1-5.2158,3.2412c-1.791.8702-3.6328,1.6387-5.4229,2.5118-1.1152.5459-2.1748,1.207-3.3769,1.8808.9307.9668,1.6973,1.8877,2.5908,2.667,1.7608,1.5342,3.6201,2.9541,5.3848,4.4815a22.19284,22.19284,0,0,0,7.6299,4.4218,6.86757,6.86757,0,0,1,1.2578.5274,10.49442,10.49442,0,0,0,5.9189,1.3135c.5684-.0303,1.1406.0195,1.71-.0049a12.67981,12.67981,0,0,0,7.4385-2.6201,10.9186,10.9186,0,0,1,1.707-1.1329,1.58692,1.58692,0,0,1,2.3672.8936,2.2272,2.2272,0,0,1,.1357,1.1553c-.122.7275-.3877,1.4297-.52929,2.1552-.27441,1.3936-.52631,2.793-.73531,4.1993a4.12357,4.12357,0,0,0,.11331,1.0996,3.61785,3.61785,0,0,0,2.22849.4482,9.97167,9.97167,0,0,0,3.207-.3769c2.209-.7403,4.4316-1.4317,6.6563-2.1192.3769-.1142.7968-.0761,1.1835-.164,1.0528-.2373,2.1055-.4834,3.1465-.7705a1.2927,1.2927,0,0,0,.6797-.4668,8.50685,8.50685,0,0,0,1.1563-1.9805,2.60366,2.60366,0,0,0-.3887-.2305,4.41461,4.41461,0,0,0-.6572-.1836,14.2573,14.2573,0,0,1-6.5655-2.6865c-.1757-.1426-.3886-.2373-.5771-.3633a21.40718,21.40718,0,0,1-3.5361-2.6719c-1.4825-1.498-2.9825-2.9814-4.5176-4.4238a7.57464,7.57464,0,0,1-1.4668-1.8701c-.5762-1.041-1.1865-2.0625-1.7481-3.0342-.205-.0449-.3281-.1142-.4218-.0859a20.6882,20.6882,0,0,1-5.2647.4355,11.66211,11.66211,0,0,1-2.8896-.1933,14.01475,14.01475,0,0,1-4.4063-1.8184,4.20639,4.20639,0,0,1-1.3359-1.2803,6.64539,6.64539,0,0,1-1.1739-5.0214C21.84341,81.904,21.87081,81.41567,21.93721,80.88927Zm95.1367,9.8038c.8379,1.125,1.5547,2.1484,2.3349,3.1211a3.5298,3.5298,0,0,0,2.8077,1.3935,11.34323,11.34323,0,0,0,4.1757-.7568,1.73982,1.73982,0,0,0,1.1709-1.5323c.16121-1.2168.5108-1.5449,1.5479-1.6943a11.99913,11.99913,0,0,1,1.5332-.0996c.8535-.0146,1.709.0332,2.5615-.0039a6.52469,6.52469,0,0,0,3.2412-.832,3.09721,3.09721,0,0,0-1.05659-2.1436c-.625-.7402-1.33011-1.4111-1.97851-2.1299a11.49191,11.49191,0,0,1-.9453-1.207,1.12519,1.12519,0,0,1-.0567-1.1475,2.02406,2.02406,0,0,1,1.93951-1.4121c.79679.0254,1.59759.043,2.39349.0117a9.13458,9.13458,0,0,0,2.0303-.2109,4.36136,4.36136,0,0,0,2.8203-1.7451,5.7986,5.7986,0,0,1,2.3027-1.9883,10.28447,10.28447,0,0,0,2.1778-1.8144c-.0908-.1329-.1094-.1993-.1465-.209a28.8576,28.8576,0,0,1-10.41409-4.9405c-1.85541-1.5039-3.94241-2.7285-5.43941-4.6533a1.61656,1.61656,0,0,0-1.9043-.5547c-.0156.6162-.02829,1.2373-.0537,1.8565a12.44629,12.44629,0,0,1-.0948,1.5303c-.2832,1.6855-.5605,3.3769-.92279,5.0458a24.12585,24.12585,0,0,1-1.02251,3.6104,28.51708,28.51708,0,0,1-6.18749,9.5498C118.98011,88.67647,118.08561,89.62857,117.07391,90.69307Zm10.8447-27.585a1.94983,1.94983,0,0,0,1.6943-.2178,8.0279,8.0279,0,0,0,2.583-2.4414,20.95479,20.95479,0,0,0,2.06741-4.291,7.00455,7.00455,0,0,0-1.21291-6.4394,3.84355,3.84355,0,0,0-1.0019-.9102,13.10907,13.10907,0,0,0-5.7344-2.0371,3.658,3.658,0,0,0-3.1426.9883,11.15429,11.15429,0,0,0-2.07219,2.2959,8.91613,8.91613,0,0,0,.64649,1,24.65445,24.65445,0,0,1,4.4726,7.7978C126.72821,60.29267,127.34932,61.69207,127.91861,63.10807ZM35.89811,87.781c.0176-.1485.0781-.2803.0391-.3663a23.18467,23.18467,0,0,1-1.5674-5.041,2.66946,2.66946,0,0,0-.48049-1.0742,7.49168,7.49168,0,0,0-6.1084-2.8848,1.96139,1.96139,0,0,0-1.6641.7422,7.40489,7.40489,0,0,0-1.6835,4.042,3.27122,3.27122,0,0,0,1.4101,3.1133,9.10091,9.10091,0,0,0,4.9942,1.5264c1.5371-.0313,3.0761.0381,4.6142.0527A1.72573,1.72573,0,0,0,35.89811,87.781Zm51.5957,108.6904a4.251,4.251,0,0,0,1.0957-3.1758c.0166-1.5273.0596-3.0537-.0039-4.5791a7.02363,7.02363,0,0,0-.4502-2.1377,26.34072,26.34072,0,0,0-2.7412-5.6445c-.1143-.169-.1514-.4561-.5557-.2686a4.19819,4.19819,0,0,0-.07319.5899q-.00886,5.80065-.00391,11.5937a9.453,9.453,0,0,0,.8633,3.6221ZM39.654,173.22627c.4257-.1573.6298-.167.7128-.2735.73051-.9414,1.461-1.8847,2.1426-2.8633a3.27631,3.27631,0,0,0,.2881-.9746c.3057-1.0957.626-2.1855.9111-3.289a7.10036,7.10036,0,0,0,.3536-1.834,7.87349,7.87349,0,0,1,.7558-3.8125,3.41966,3.41966,0,0,0-1.7695-.1182,1.03459,1.03459,0,0,0-.5996.2823,5.102,5.102,0,0,0-1.459,2.2734c-.2031.8848-.5049,1.7461-.7607,2.6191a9.36242,9.36242,0,0,0-.584,2.8311C39.67932,169.71157,39.654,171.35807,39.654,173.22627Zm55.1728-69.2129c-2.02049.6621-3.8369,1.2558-5.6318,1.8457.2226,1.6426.3066,1.8613.9668,2.5771a1.21254,1.21254,0,0,0,2.0371.0459,11.20607,11.20607,0,0,0,2.5537-3.7842A3.53268,3.53268,0,0,0,94.82681,104.01337Z" fill="#4f2400" fill-rule="evenodd"/>
            <path d="M83.97721,96.03187a36.385,36.385,0,0,1-8.2646-1.0166,12.95582,12.95582,0,0,1-4.8155-2.5097c-.8115-.6289-1.5947-1.295-2.3974-1.9356a11.31545,11.31545,0,0,1-2.56839-2.959c-.68461-1.1133-1.25391-2.2998-1.84861-3.4677a3.21708,3.21708,0,0,1-.2998-.9717.93037.93037,0,0,1,.5332-.9873.87447.87447,0,0,1,1.0957.1738,6.80405,6.80405,0,0,1,.6758.7725c.7871,1.0449,1.5292,2.1289,2.3554,3.1425a19.78349,19.78349,0,0,0,1.9971,2.0987c.7148.6494,1.5029,1.2217,2.2725,1.8115a10.63332,10.63332,0,0,0,5.1181,2.1934,31.00676,31.00676,0,0,0,6.2852.5546,15.14393,15.14393,0,0,0,7.77241-2.2685,53.44285,53.44285,0,0,0,5.666-4.1192,17.94374,17.94374,0,0,0,4.65429-6.2607c.6045-1.4131,1.30771-2.7832,1.9844-4.1641a5.862,5.862,0,0,0,.8067-2.9296,1.20124,1.20124,0,0,1,.2539-.7911.956.956,0,0,1,.7314-.2832c.2236.0313.583.292.5947.4727.10161,1.457.51761,2.8867-.0273,4.3838a68.48529,68.48529,0,0,1-3.0313,7.0644,15.29681,15.29681,0,0,1-3.5234,4.3721,47.87682,47.87682,0,0,1-7.9141,5.6631,9.46756,9.46756,0,0,1-3.02529,1.1289A21.38909,21.38909,0,0,1,83.97721,96.03187Z" fill="#4f2400" fill-rule="evenodd"/>
            <path d="M97.69591,68.01137a10.30055,10.30055,0,0,1-.0068,1.0479,1.32968,1.32968,0,0,1-1.04979,1.1924,1.9332,1.9332,0,0,1-2.30571-1.2432,17.01545,17.01545,0,0,1-.3125-3.0117,1.191,1.191,0,0,1,1.2598-1.1172,2.43286,2.43286,0,0,1,2.44241,2.4853C97.72621,67.53287,97.70861,67.70477,97.69591,68.01137Z" fill="#4f2400" fill-rule="evenodd"/>
            <path d="M71.51921,71.98507c.0205-.4151.0137-.7608.0605-1.0977a1.36231,1.36231,0,0,1,1.1739-1.2754,1.34046,1.34046,0,0,1,1.4394.6924c.11231.1943.168.4219.2715.6211.7549,1.4551.6885,1.8652-.4844,2.9228a1.40951,1.40951,0,0,1-2.38279-.749A8.13693,8.13693,0,0,1,71.51921,71.98507Z" fill="#4f2400" fill-rule="evenodd"/>
          </g>
        </g>
      </g>
    </g>
  </g>
</svg>
