<svg xmlns="http://www.w3.org/2000/svg" viewBox="0 0 91.60597 66.82189">
  <title>Recurso 19</title>
  <g id="Capa_2" data-name="Capa 2">
    <g id="Editar">
      <g>
        <path d="M61.59361,22.98275l19.3091,5.0234c-.0635-.1113-.1357-.2344-.2324-.3887-.7398-1.1816-.6118-1.3769-2.1362-2.0781a81.954,81.954,0,0,0-8.5059-2.7793q-5.84758-1.9248-11.6821-3.8887a6.736,6.736,0,0,1,3.2368,3.9551A.34343.34343,0,0,1,61.59361,22.98275Z" fill="#fff"/>
        <path d="M46.77622,30.53545c-.2587-.0117-.5175-.0195-.77439-.0098-4.34421.1563-9.04981,4.836-3.645,8.0782a9.38093,9.38093,0,0,0,1.38139.6621Q45.19277,34.87725,46.77622,30.53545Z" fill="#fff"/>
        <path d="M57.47451,19.19565a.3755.3755,0,0,1-.0772-.6426c-1.4487-.4883-2.8979-.9707-4.3457-1.461q-2.98455-1.0107-5.9653-2.0371a.28705.28705,0,0,1-.3193.2754,8.98934,8.98934,0,0,0-6.5039,2.1035l20.583,5.3536A6.02086,6.02086,0,0,0,57.47451,19.19565Z" fill="#fff"/>
        <path d="M46.82462,40.96705c-.8721-.3164-1.7822-.5468-2.6484-.8496q-1.23345,3.74715-2.3736,7.5235a14.41277,14.41277,0,0,0,2.7705.9062q.95506-3.26655,1.93171-6.5293C46.60972,41.66635,46.71862,41.31865,46.82462,40.96705Z" fill="#fff"/>
        <path d="M61.56631,39.57065a20.55416,20.55416,0,0,0-2.7612-9.9239c-2.17529-3.5566-5.3628-5.0332-9.503-4.998-4.0547.0351-8.4311.1972-11.8344,2.6504a13.6389,13.6389,0,0,0-5.4385,9.7265c-.6436,6.3535,2.7768,14.4942,9.3437,16.1797.2593.0547.5191.1074.7783.1641a9.9834,9.9834,0,0,0,1.2251.1387.32563.32563,0,0,1,.2784.1777q1.8603.4014,3.7173.8086a.35507.35507,0,0,1,.4135-.2793C56.47791,55.86165,61.82121,47.24245,61.56631,39.57065Zm-6.875-6.7969c-.0562.0801-.1128.1601-.1694.2422a.34733.34733,0,0,1-.3833.1562c-.0757-.0293-.1509-.0566-.2266-.084-.40719-.1504-.23-.8066.1811-.6562-1.1284-.416-2.33-.8574-3.5561-1.2149q-1.3902,4.43265-2.74219,8.875c-.05271.1739-.10351.3477-.15581.5215a5.68832,5.68832,0,0,1,3.67881,3.3906,3.99539,3.99539,0,0,1-2.73251,5.004,7.36873,7.36873,0,0,1-3.7158.2636c-.4253,1.2657-.7339,2.5586-.3789,3.2364.20221.3867-.3843.7304-.5869.3418-.5967-1.1387.0737-2.2715.417-3.4493.021-.0742.0434-.1465.0649-.2207a14.73218,14.73218,0,0,1-2.77979-.8906c-.21331.7109-.43751,1.418-.64641,2.1309a.34.34,0,0,1-.6548-.1817c.21821-.7441.4521-1.4844.6758-2.2285-.7149-.332-1.39359-.6953-2.0093-1.0547a.34059.34059,0,0,1,.3432-.5879c.5581.3282,1.19.67,1.8643.9903q1.13895-3.75585,2.3623-7.4825c-2.332-.9472-4.8184-2.7246-4.2949-5.5625.5571-3.0195,4.0483-4.3789,6.75581-4.4668.34129-.0117.68119-.0039,1.02009.0176.3418-.9375.6752-1.8769,1.0258-2.8105.1524-.4063.80911-.2285.6553.1797-.3374.8984-.6577,1.8027-.9873,2.705a15.75124,15.75124,0,0,1,2.3618.4825c.3257-1.0391.6465-2.0762.9756-3.1133.1318-.416.7881-.2363.6553.1816-.3301,1.041-.6543,2.0821-.982,3.125.2466.0762.4917.1582.73441.2403,1.00439.3476,2.60739.6191,3.23049,1.5781A.32844.32844,0,0,1,54.69131,32.77375Z" fill="#fff"/>
        <path d="M45.90472,46.41435c-.15089.5117-.4888,1.332-.813,2.2227a6.08272,6.08272,0,0,0,3.8095-.4942c3.16561-1.6738,1.6172-5.2754-.79239-6.6074-.21151-.1172-.43021-.2188-.65141-.3145Q46.67517,43.8167,45.90472,46.41435Z" fill="#fff"/>
        <path d="M89.48671,31.31865a1.17156,1.17156,0,0,1,.1484-.3398q-1.062-.2754-2.1245-.5528l-.001.002a.36034.36034,0,0,1-.6455-.1699q-2.34075-.60945-4.6816-1.2168a.30564.30564,0,0,1-.5259.1015c-.0957-.1152-.1694-.2109-.2353-.3008q-23.2881-6.0585-46.5747-12.1152-6.8379-1.78125-13.6753-3.5586a19.269,19.269,0,0,0-3.2823-.8535c-1.8828-.125-1.9721.0117-2.45019,1.9023q-.89056,3.51855-1.81151,7.0274-3.5193,13.4121-7.4844,26.7012,37.39755,9.00585,74.795,18.0136,2.52615-8.5605,5.0522-17.1172l2.5376-8.5976q.63435-2.14755,1.2686-4.2988.31785-1.07235.6342-2.1485a1.70414,1.70414,0,0,0-.2885-2.2969C90.03851,31.92415,89.38321,31.74445,89.48671,31.31865Zm-3.0737,7.3555q-2.73195,9.44235-5.4634,18.8867a.354.354,0,0,1-.3159.5976,5.355,5.355,0,0,0-5.9688,3.2911c-.1494.3847-.7456.2402-.6645-.127q-15.97635-3.8877-32.05859-7.3047c-.18611-.0351-.37061-.0722-.55231-.1172q-13.74165-2.918-27.5522-5.5039a.28366.28366,0,0,1-.2339-.3613.32368.32368,0,0,1-.0952-.3086,5.55432,5.55432,0,0,0-3.3062-6.2227.36151.36151,0,0,1-.0156-.6621.34364.34364,0,0,1,.0225-.207c2.9697-6.4863,5.854-13.0566,6.0976-20.2949a.19308.19308,0,0,0,.0059-.0235c-.1123-.0468-.22459-.0859-.3355-.1425-.39109-.1973-.0464-.7832.3428-.586a3.58371,3.58371,0,0,0,5.2476-3.455c-.02049-.3692.4594-.4219.623-.1661a.32826.32826,0,0,1,.4072-.2441q29.565,7.459,59.1289,14.9219a.33957.33957,0,0,1-.18059.6543q-29.56426-7.4619-59.12891-14.9219a.29858.29858,0,0,1-.1709-.1133,4.23554,4.23554,0,0,1-5.271,4.2715c-.2925,7.2773-3.1875,13.9102-6.1787,20.4434a.30393.30393,0,0,1-.0337.0449,6.23581,6.23581,0,0,1,3.4223,6.75q12.0279,2.247,24.0025,4.7578c-3.9737-2.5234-6.3648-7.5098-6.8233-12.1914-.622-6.3594,2.5684-13.0313,8.834-15.2481a26.28345,26.28345,0,0,1,12.1031-.9629,9.91935,9.91935,0,0,1,6.1977,3.877c6.5337,8.4629,4.2041,27.0879-8.2295,27.1211q12.03075,2.65425,24.00441,5.5625a6.04114,6.04114,0,0,1,6.00779-3.2656q2.7357-9.46005,5.47221-18.918a6.05012,6.05012,0,0,1-3.71731-7.4863c.1362-.4141.7925-.2364.65531.1797a5.36356,5.36356,0,0,0,3.78069,6.8144A.33879.33879,0,0,1,86.413,38.67415Zm-6.8633-4.9883c.0342-.4336.7134-.4356.6797,0a5.25006,5.25006,0,0,0,1.6108,4.2812c.3145.3047-.1665.7852-.4809.4805A5.91917,5.91917,0,0,1,79.54971,33.68585Zm1.2832,6.8398a5.36376,5.36376,0,0,1-2.4419-4.2929c-.0205-.4375.6592-.4336.6792,0a4.65213,4.65213,0,0,0,2.1055,3.707C81.53991,40.18,81.19911,40.76785,80.83291,40.52565Zm-15.3135,3.0664a9.42738,9.42738,0,0,1-.833,3.3184c-.1807.3965-.7661.0508-.5869-.3438a8.46044,8.46044,0,0,0,.7402-2.9746C64.868,43.15655,65.54771,43.15455,65.51941,43.59205Zm-2.72359.2891c-.04791-.4336.63229-.4297.67919,0a6.11154,6.11154,0,0,1-1.6279,4.875c-.2979.3223-.7769-.1582-.4805-.4785A5.45379,5.45379,0,0,0,62.79582,43.88115ZM31.72452,27.99245c-.3013.3184-.7813-.164-.481-.4804a11.14824,11.14824,0,0,1,3.7388-2.6133c.398-.1699.7441.414.3428.5859A10.69025,10.69025,0,0,0,31.72452,27.99245Zm3.3076.0215a5.94019,5.94019,0,0,0-2.65529,2.9356c-.166.3984-.82271.2226-.65521-.1797a6.676,6.676,0,0,1,2.9677-3.3418C35.07312,27.21705,35.41542,27.80305,35.03212,28.014Zm-13.0908,20.0371c.4302.0781.2471.7324-.1807.6543a33.01831,33.01831,0,0,1-5.1142-1.3535c-.4102-.1445-.2325-.8008.1806-.6562A32.82482,32.82482,0,0,0,21.94132,48.05105Zm-2.856-27.0332a2.784,2.784,0,0,0,2.79451-1.3476.34.34,0,0,1,.58639.3437,3.48594,3.48594,0,0,1-3.562,1.6582C18.47252,21.60775,18.65712,20.95345,19.08532,21.01785Zm.4278,25.6446a.33957.33957,0,0,1,.1806-.6543q1.8318.4569,3.6636.916a.34046.34046,0,0,1-.1802.6562Q21.34457,47.12045,19.51312,46.66245Zm1.997-23.8731c-.3945.1836-.7387-.4023-.3427-.5859a5.47906,5.47906,0,0,0,2.8588-3.0567c.1524-.4062.80861-.2285.6553.1817A6.14666,6.14666,0,0,1,21.51012,22.78935Z" fill="#fff"/>
        <path d="M7.14252,42.09015c.2192-.7559.4306-1.5137.6479-2.2715a.35825.35825,0,0,1-.05859-.1191,6.44747,6.44747,0,0,0-2.83491-3.9024.31919.31919,0,0,1-.1485-.207.28919.28919,0,0,1-.1494-.3672q4.084-12.2724,8.1689-24.543a.35306.35306,0,0,1,.5616-.1504.29574.29574,0,0,1,.3247-.3046,4.88527,4.88527,0,0,0,5.1079-4.8321.30592.30592,0,0,1,.2725-.3164c-.0591-.2344.1088-.5176.3959-.416q30.5436,10.9278,61.4131,20.9141a.349.349,0,0,1,.2491.3261q.451,1.19535.9033,2.3887l5.2505,1.3672c.6567-.8731,1.6709-2.2988,1.3984-3.0723-.4097-1.166-2.8784-1.4961-3.8823-1.8418l-7.4614-2.5683q-7.4613-2.56935-14.9229-5.1387-14.9223-5.1357-29.8452-10.2734l-14.9224-5.1368L15.47892.891a4.00307,4.00307,0,0,0-2.4868,2.9531c-.4331,1-.7329,2.1289-1.0874,3.1601q-1.26855,3.68565-2.5371,7.3692-2.628,7.6347-5.2554,15.2676-1.26855,3.6855-2.5371,7.3711l-.544,1.58a1.48524,1.48524,0,0,0,1.3516,1.586c1.2363.9687,3.2593,1.3808,4.7515,1.9062Z" fill="#fff"/>
        <path d="M44.37492,39.50225c.8584.3027,1.7612.5644,2.6304.873q1.4142-4.67865,2.8789-9.3398a16.49614,16.49614,0,0,0-2.4068-.4453Q45.86612,35.02565,44.37492,39.50225Z" fill="#fff"/>
        <path d="M13.65422,10.90455a.32635.32635,0,0,1-.2241-.1035.3392.3392,0,0,1-.0069.0606q-4.05975,12.1962-8.1196,24.3925a7.15192,7.15192,0,0,1,2.8101,3.4336q3.89416-13.62,7.35-27.3593a.3469.3469,0,0,1,.4185-.2383l23.60061,6.1406a.31374.31374,0,0,1,.06639-.0898,9.70986,9.70986,0,0,1,6.2993-2.5078q-13.234-4.5381-26.40869-9.25l.002.0058A5.57018,5.57018,0,0,1,13.65422,10.90455Z" fill="#fff"/>
        <path d="M90.39541,30.50225a.31714.31714,0,0,0-.12159-.0586l-2.34861-.6113a9.93936,9.93936,0,0,0,1.5185-3.8594.35043.35043,0,0,0-.2368-.418q-30.64455-10.5498-61.2895-21.0996-3.99689-1.374-7.9942-2.7519c-1.4956-.5137-4.1347-2.1524-5.7192-1.586-.69919.25-.8281.8418-1.1426,1.4414-1.1553,2.1993-1.731,5.0274-2.5371,7.3692L.01362,39.46315a.34287.34287,0,0,0,.1557.3848,57.71293,57.71293,0,0,0,6.7842,2.8906c-.4898,1.6836-.97269,3.3672-1.4722,5.0469a.18683.18683,0,0,1-.0322-.0078c-.42529-.1016-.6064.5527-.1812.6562q38.15625,9.1875,76.3116,18.377c.4248.1035.6059-.5527.1806-.6543-.0537-.0137-.1069-.0254-.1606-.0391q3.8709-13.1133,7.7422-26.2304c.6333-2.1446,1.3325-4.2852,1.9028-6.4473.1797-.6797.6734-1.8672.0718-2.5508A1.074,1.074,0,0,0,90.39541,30.50225Zm-88.0127,9.6758a1.48524,1.48524,0,0,1-1.3516-1.586l.544-1.58q1.26856-3.68565,2.5371-7.3711,2.62725-7.63185,5.2554-15.2676,1.26855-3.68265,2.5371-7.3692c.3545-1.0312.6543-2.1601,1.0874-3.1601A4.00307,4.00307,0,0,1,15.47892.891l2.1318.7343,14.9224,5.1368q14.92306,5.13855,29.8452,10.2734,7.46115,2.56935,14.9229,5.1387l7.4614,2.5683c1.0039.3457,3.4726.6758,3.8823,1.8418.2725.7735-.7417,2.1992-1.3984,3.0723l-5.2505-1.3672q-.45195-1.19235-.9033-2.3887a.349.349,0,0,0-.2491-.3261Q49.978,15.5901,19.43052,4.66045c-.2871-.1016-.455.1816-.3959.416a.30592.30592,0,0,0-.2725.3164,4.88527,4.88527,0,0,1-5.1079,4.8321.29574.29574,0,0,0-.3247.3046.35306.35306,0,0,0-.5616.1504Q8.68328,22.9525,4.599,35.223a.28919.28919,0,0,0,.1494.3672.31919.31919,0,0,0,.1485.207,6.44747,6.44747,0,0,1,2.83491,3.9024.35825.35825,0,0,0,.05859.1191c-.2173.7578-.4287,1.5156-.6479,2.2715l-.0083-.0059C5.642,41.55885,3.619,41.14675,2.38272,40.17805ZM19.43982,5.38315q13.174,4.7109,26.40869,9.25a9.70986,9.70986,0,0,0-6.2993,2.5078.31374.31374,0,0,0-.06639.0898l-23.60061-6.1406a.3469.3469,0,0,0-.4185.2383q-3.4386,13.74315-7.35,27.3593a7.15192,7.15192,0,0,0-2.8101-3.4336q4.05975-12.1962,8.1196-24.3925a.3392.3392,0,0,0,.0069-.0606.32635.32635,0,0,0,.2241.1035,5.56943,5.56943,0,0,0,5.78761-5.5117ZM46.767,15.33035a.28705.28705,0,0,0,.3193-.2754q2.9817,1.02255,5.9653,2.0371c1.4478.4903,2.897.9727,4.3457,1.461a.3755.3755,0,0,0,.0772.6426,6.02086,6.02086,0,0,1,3.3716,3.5918l-20.583-5.3536A8.98934,8.98934,0,0,1,46.767,15.33035Zm11.5791,3.541q5.8359,1.96,11.6821,3.8887a81.954,81.954,0,0,1,8.5059,2.7793c1.5244.7012,1.3964.8965,2.1362,2.0781.0967.1543.1689.2774.2324.3887l-19.3091-5.0234a.34343.34343,0,0,0-.0107-.1563A6.736,6.736,0,0,0,58.34611,18.87135Zm32.0844,14.9258q-.3171,1.0752-.6342,2.1485-.6336,2.15025-1.2686,4.2988l-2.5376,8.5976q-2.52615,8.55765-5.0522,17.1172-37.39755-9.0087-74.795-18.0136,3.95595-13.2891,7.4844-26.7012.92145-3.50985,1.81151-7.0274c.47809-1.8906.56739-2.0273,2.45019-1.9023a19.269,19.269,0,0,1,3.2823.8535q6.83715,1.7784,13.6753,3.5586Q58.134,22.7825,81.42131,28.84205c.0659.0899.1396.1856.2353.3008a.30564.30564,0,0,0,.5259-.1015q2.34075.60645,4.6816,1.2168a.36034.36034,0,0,0,.6455.1699l.001-.002q1.062.2784,2.1245.5528a1.17156,1.17156,0,0,0-.1484.3398c-.1035.4258.5518.6055.6553.1816A1.70414,1.70414,0,0,1,90.43051,33.79715Z"/>
        <path d="M86.47251,38.014a5.36356,5.36356,0,0,1-3.78069-6.8144c.13719-.4161-.51911-.5938-.65531-.1797a6.05012,6.05012,0,0,0,3.71731,7.4863q-2.73632,9.4599-5.47221,18.918a6.04114,6.04114,0,0,0-6.00779,3.2656q-11.97211-2.9151-24.00441-5.5625c12.4336-.0332,14.7632-18.6582,8.2295-27.1211a9.91935,9.91935,0,0,0-6.1977-3.877,26.28345,26.28345,0,0,0-12.1031.9629c-6.2656,2.2168-9.456,8.8887-8.834,15.2481.4585,4.6816,2.8496,9.668,6.8233,12.1914q-11.9751-2.50485-24.0025-4.7578a6.23581,6.23581,0,0,0-3.4223-6.75.30393.30393,0,0,0,.0337-.0449c2.9912-6.5332,5.8862-13.1661,6.1787-20.4434a4.23554,4.23554,0,0,0,5.271-4.2715.29858.29858,0,0,0,.1709.1133q29.56486,7.4619,59.12891,14.9219a.33957.33957,0,0,0,.18059-.6543Q52.16231,23.183,22.59752,15.723a.32826.32826,0,0,0-.4072.2441c-.1636-.2558-.64349-.2031-.623.1661a3.58371,3.58371,0,0,1-5.2476,3.455c-.3892-.1972-.73389.3887-.3428.586.11091.0566.2232.0957.3355.1425a.04521.04521,0,0,1-.0059.0157c-.2436,7.2461-3.1279,13.8164-6.0976,20.3027a.34364.34364,0,0,0-.0225.207.36151.36151,0,0,0,.0156.6621,5.55432,5.55432,0,0,1,3.3062,6.2227.32368.32368,0,0,0,.0952.3086.28366.28366,0,0,0,.2339.3613q13.81126,2.581,27.5522,5.5039c.1817.045.3662.0821.55231.1172q16.08029,3.422,32.05859,7.3047c-.0811.3672.5151.5117.6645.127a5.355,5.355,0,0,1,5.9688-3.2911.354.354,0,0,0,.3159-.5976q2.7312-9.44235,5.4634-18.8867A.33879.33879,0,0,0,86.47251,38.014Zm-38.687,16.2012a.35507.35507,0,0,0-.4135.2793q-1.8582-.40425-3.7173-.8086a.32563.32563,0,0,0-.2784-.1777,9.9834,9.9834,0,0,1-1.2251-.1387c-.2592-.0567-.519-.1094-.7783-.1641-6.5669-1.6855-9.9873-9.8262-9.3437-16.1797a13.6389,13.6389,0,0,1,5.4385-9.7265c3.4033-2.4532,7.7797-2.6153,11.8344-2.6504,4.1402-.0352,7.32771,1.4414,9.503,4.998a20.55416,20.55416,0,0,1,2.7612,9.9239C61.82121,47.24245,56.47791,55.86165,47.78552,54.21515Z"/>
        <path d="M51.46082,30.85385c-.24271-.0821-.48781-.1641-.73441-.2403.3277-1.0429.6519-2.084.982-3.125.1328-.4179-.5235-.5976-.6553-.1816-.3291,1.0371-.6499,2.0742-.9756,3.1133a15.75124,15.75124,0,0,0-2.3618-.4825c.3296-.9023.6499-1.8066.9873-2.705.15381-.4082-.5029-.586-.6553-.1797-.3506.9336-.684,1.873-1.0258,2.8105-.3389-.0215-.6788-.0293-1.02009-.0176-2.70751.0879-6.19871,1.4473-6.75581,4.4668-.5235,2.8379,1.9629,4.6153,4.2949,5.5625q-1.2276,3.7266-2.3623,7.4825c-.6743-.3203-1.3062-.6621-1.8643-.9903a.34059.34059,0,0,0-.3432.5879c.61571.3594,1.2944.7227,2.0093,1.0547-.2237.7441-.45759,1.4844-.6758,2.2285a.34.34,0,0,0,.6548.1817c.2089-.7129.4331-1.42.64641-2.1309a14.73218,14.73218,0,0,0,2.77979.8906c-.0215.0742-.0439.1465-.0649.2207-.3433,1.1778-1.0137,2.3106-.417,3.4493.2026.3886.78911.0449.5869-.3418-.355-.6778-.0464-1.9707.3789-3.2364a7.36873,7.36873,0,0,0,3.7158-.2636,3.99539,3.99539,0,0,0,2.73251-5.004,5.68832,5.68832,0,0,0-3.67881-3.3906c.0523-.1738.1031-.3476.15581-.5215q1.34624-4.44435,2.74219-8.875c1.2261.3575,2.4277.7989,3.5561,1.2149-.4111-.1504-.58829.5058-.1811.6562.0757.0274.1509.0547.2266.084a.34733.34733,0,0,0,.3833-.1562c.0566-.0821.1132-.1621.1694-.2422a.32844.32844,0,0,0,0-.3418C54.06821,31.473,52.46521,31.20145,51.46082,30.85385Zm-9.104,7.75c-5.40481-3.2422-.69921-7.9219,3.645-8.0782.25689-.0097.51569-.0019.77439.0098q-1.5768,4.34475-3.038,8.7305A9.38093,9.38093,0,0,1,42.35682,38.60385Zm2.21629,9.9433a14.41277,14.41277,0,0,1-2.7705-.9062q1.144-3.7764,2.3736-7.5235c.8662.3028,1.7763.5332,2.6484.8496-.106.3516-.2149.6993-.31979,1.0508Q45.52546,45.27855,44.57312,48.54715Zm3.53571-7.0117c2.40959,1.332,3.958,4.9336.79239,6.6074a6.08272,6.08272,0,0,1-3.8095.4942c.3242-.8907.66211-1.711.813-2.2227q.76755-2.5986,1.5527-5.1934C47.67862,41.31665,47.89732,41.41825,48.10882,41.53545Zm-1.10351-1.1602c-.8692-.3086-1.772-.5703-2.6304-.873q1.4838-4.4766,3.1025-8.9121a16.49614,16.49614,0,0,1,2.4068.4453Q48.42232,35.69955,47.00532,40.37525Z"/>
        <path d="M16.64642,47.35185a33.01831,33.01831,0,0,0,5.1142,1.3535c.4278.0781.6109-.5762.1807-.6543a32.82482,32.82482,0,0,1-5.1143-1.3554C16.41392,46.55105,16.23622,47.20735,16.64642,47.35185Z"/>
        <path d="M23.35732,46.92415q-1.8318-.457-3.6636-.916a.33957.33957,0,0,0-.1806.6543q1.8318.4569,3.664.9179A.34046.34046,0,0,0,23.35732,46.92415Z"/>
        <path d="M34.68932,27.42805a6.676,6.676,0,0,0-2.9677,3.3418c-.1675.4023.48921.5781.65521.1797a5.94019,5.94019,0,0,1,2.65529-2.9356C35.41542,27.80305,35.07312,27.21705,34.68932,27.42805Z"/>
        <path d="M34.98232,24.89875a11.14824,11.14824,0,0,0-3.7388,2.6133c-.3003.3164.1797.7988.481.4804a10.69025,10.69025,0,0,1,3.6006-2.5078C35.72642,25.31275,35.38032,24.72885,34.98232,24.89875Z"/>
        <path d="M61.84711,48.75615a6.11154,6.11154,0,0,0,1.6279-4.875c-.0469-.4297-.7271-.4336-.67919,0a5.45379,5.45379,0,0,1-1.42921,4.3965C61.07021,48.598,61.54921,49.07845,61.84711,48.75615Z"/>
        <path d="M64.83971,43.59205a8.46044,8.46044,0,0,1-.7402,2.9746c-.1792.3946.4062.7403.5869.3438a9.42738,9.42738,0,0,0,.833-3.3184C65.54771,43.15455,64.868,43.15655,64.83971,43.59205Z"/>
        <path d="M81.84021,37.96705a5.25006,5.25006,0,0,1-1.6108-4.2812c.0337-.4356-.6455-.4336-.6797,0a5.91917,5.91917,0,0,0,1.8096,4.7617C81.67371,38.75225,82.15471,38.27175,81.84021,37.96705Z"/>
        <path d="M79.07021,36.23275c-.02-.4336-.6997-.4375-.6792,0a5.36376,5.36376,0,0,0,2.4419,4.2929c.3662.2422.707-.3457.3428-.5859A4.65213,4.65213,0,0,1,79.07021,36.23275Z"/>
        <path d="M22.46622,20.014a.34.34,0,0,0-.58639-.3437,2.784,2.784,0,0,1-2.79451,1.3476c-.4282-.0644-.6128.5899-.1811.6543A3.48594,3.48594,0,0,0,22.46622,20.014Z"/>
        <path d="M24.02622,19.14675a5.47906,5.47906,0,0,1-2.8588,3.0567c-.396.1836-.0518.7695.3427.5859a6.14666,6.14666,0,0,0,3.1714-3.4609C24.83482,18.91825,24.17862,18.74055,24.02622,19.14675Z"/>
      </g>
    </g>
  </g>
</svg>
