<svg xmlns="http://www.w3.org/2000/svg" viewBox="0 0 158.40676 158.27322">
  <title>Recurso 9</title>
  <g id="Capa_2" data-name="Capa 2">
    <g id="Editar">
      <g>
        <g>
          <path d="M133.953,47.45336c.3144-.565.622-1.0493.8691-1.563a29.68268,29.68268,0,0,0,3.0733-15.2481,9.60486,9.60486,0,0,0-2.1573-6.0024c.02441-.4492.044-.8291.0625-1.2104a4.84942,4.84942,0,0,1,1.4551-3.2276,39.15057,39.15057,0,0,1,4.3311-4.0561,11.93524,11.93524,0,0,1,3.7158-1.9488,6.54547,6.54547,0,0,1,7.29291,2.023,26.651,26.651,0,0,1,2.12409,2.9555,1.84539,1.84539,0,0,1,.334.6875c.4746,2.9092.5488,5.7354-1.6338,8.1275a33.48959,33.48959,0,0,1-6.5059,5.3389,5.62766,5.62766,0,0,1-2.68939.894,6.3876,6.3876,0,0,0-2.01761.5483,3.45829,3.45829,0,0,0-1.15139.9576,1.329,1.329,0,0,0-.06841,1.6132,1.50449,1.50449,0,0,0,1.5479.9141,10.9478,10.9478,0,0,0,2.2412-.5015,3.0513,3.0513,0,0,1,2.5811.2481,4.70681,4.70681,0,0,1,.8125.5073c3.6523,2.9028,5.5781,6.6045,5.09571,11.3457a6.26754,6.26754,0,0,1-3.20611,4.9624,5.53281,5.53281,0,0,1-3.4971.7637,12.02232,12.02232,0,0,1-4.0234-1.1895,22.75,22.75,0,0,1-5.748-4.1059A14.03092,14.03092,0,0,1,133.953,47.45336Z" fill="#ffe900" fill-rule="evenodd"/>
          <path d="M132.076,25.56276c-2.6826,2.6293-3.6338,6.1054-4.7217,9.5087-.3896,1.2188-.6826,2.4624-1.0283,3.6934a14.05813,14.05813,0,0,0-.56249,4.9282,3.83229,3.83229,0,0,1-.09081.771,7.344,7.344,0,0,1-5.2393,1.4204,17.04126,17.04126,0,0,1-2.46089-.3877c-3.01561-.6377-4.85061-2.7002-6.19921-5.2822a2.53785,2.53785,0,0,1,.40621-3.1865,20.76048,20.76048,0,0,1,8.919-5.7471,7.89963,7.89963,0,0,1,3.40519-.2661,8.61451,8.61451,0,0,0,1.9083.1021,1.77473,1.77473,0,0,0,1.4277-1.7969,1.4957,1.4957,0,0,0-1.1699-1.5528,11.94076,11.94076,0,0,0-2.2774-.2954,7.81308,7.81308,0,0,1-6.3008-3.477,12.04,12.04,0,0,1-2.1904-4.0181,11.44509,11.44509,0,0,1-.3076-1.3042,1.49251,1.49251,0,0,1,.5254-1.3711,4.65161,4.65161,0,0,1,2.5527-1.2275,7.15438,7.15438,0,0,1,5.8945,1.7051,45.57206,45.57206,0,0,1,3.5762,3.7334c.6817.7597,1.2539,1.6162,1.8799,2.4243A3.786,3.786,0,0,0,132.076,25.56276Z" fill="#ffe900" fill-rule="evenodd"/>
          <path d="M134.38846,27.06856a11.84036,11.84036,0,0,1,.76559,4.2066,28.1902,28.1902,0,0,1-2.748,12.4375,10.48693,10.48693,0,0,1-.8467,1.499,1.1344,1.1344,0,0,1-2.0215-.0806,3.27326,3.27326,0,0,1-.5185-2.1948,29.76971,29.76971,0,0,1,.6172-3.9697c.7353-2.6436,1.5781-5.2608,2.46091-7.8594A12.22712,12.22712,0,0,1,134.38846,27.06856Z" fill="#00a0db" fill-rule="evenodd"/>
        </g>
        <path d="M134.63165,14.031c.3242-.5029.50581-.7485.6523-1.0127a36.64358,36.64358,0,0,1,7.1953-8.9175c.7393-.7006,1.5498-1.3222,2.3409-1.9682a3.98832,3.98832,0,0,0,1.11131-1.2808.91828.91828,0,0,1,1.459-.3315,1.0528,1.0528,0,0,1,.40619,1.4902,7.722,7.722,0,0,1-.82219,1.0508c-2.18851,2.5015-4.40241,4.9814-6.56451,7.5054a18.1305,18.1305,0,0,0-2.89449,4.5063c-.09571.2192-.15241.4575-.31941.96,1.0567-.8496,1.90141-1.503,2.7207-2.189a13.03128,13.03128,0,0,1,5.4903-2.6162,9.535,9.535,0,0,1,8.8593,2.4546,16.28379,16.28379,0,0,1,3.2403,4.2588,7.90473,7.90473,0,0,1,.8926,3.6928,20.5109,20.5109,0,0,1-.2901,3.626,8.64669,8.64669,0,0,1-1.6338,3.8423,27.09876,27.09876,0,0,1-5.3203,5.2266c-.4414.351-.8779.7104-1.43459,1.1611.37109.3223.64749.5513.91219.791,2.749,2.5005,4.9384,5.3403,5.6582,9.1138a16.78545,16.78545,0,0,1-.23439,7.2119,6.83139,6.83139,0,0,1-1.12011,1.9839,9.34455,9.34455,0,0,1-5.7842,4.1318,9.543,9.543,0,0,1-4.17969.0586,19.44643,19.44643,0,0,1-8.917-4.6323c-1.52441-1.3462-2.90331-2.8613-4.36031-4.314-2.084.374-2.0928.3692-3.5616-1.29-.2509-.2813-.5195-.5488-.8447-.8902-.3047.1353-.5996.2359-.8643.3873a11.563,11.563,0,0,1-7.07609,1.1001c-.37991-.0357-.75491-.1343-1.13481-.1841-4.1426-.543-6.99319-2.9351-9.0596-6.3999a8.8002,8.8002,0,0,1-.9238-2.3023,5.65463,5.65463,0,0,1,1.4346-5.4951,25.25976,25.25976,0,0,1,6.3047-4.9551,5.725,5.725,0,0,0,1.834-1.1689,17.4465,17.4465,0,0,1-3.5596-4.2783,13.132,13.132,0,0,1-1.9121-4.9727,4.798,4.798,0,0,1,2.0508-5.0215,8.92283,8.92283,0,0,1,8.1992-1.2871,12.14154,12.14154,0,0,1,6.164,4.3526c.8662,1.1088,1.7364,2.2138,2.6221,3.3061a5.31144,5.31144,0,0,0,1.374,1.4312,8.32363,8.32363,0,0,0,.001-4.0718,57.4722,57.4722,0,0,0-4.5498-11.3731c-.542-1.0151-1.1221-2.0097-1.6631-3.0254-.3877-.728-.6777-1.4941-1.6133-1.7607a.77218.77218,0,0,1-.4599-.9561,1.44566,1.44566,0,0,1,.7168-.8139,1.73786,1.73786,0,0,1,1.956.2998,13.70317,13.70317,0,0,1,2.1026,2.1919,44.91634,44.91634,0,0,1,4.8418,9.9829C134.19805,12.99926,134.35525,13.34446,134.63165,14.031Zm-.6787,33.4224a14.03092,14.03092,0,0,0,2.8379,2.8335,22.75,22.75,0,0,0,5.748,4.1059,12.02232,12.02232,0,0,0,4.0234,1.1895,5.53281,5.53281,0,0,0,3.4971-.7637,6.26754,6.26754,0,0,0,3.20611-4.9624c.48239-4.7412-1.44341-8.4429-5.09571-11.3457a4.70681,4.70681,0,0,0-.8125-.5073,3.0513,3.0513,0,0,0-2.5811-.2481,10.9478,10.9478,0,0,1-2.2412.5015,1.50449,1.50449,0,0,1-1.5479-.9141,1.329,1.329,0,0,1,.06841-1.6132,3.45829,3.45829,0,0,1,1.15139-.9576,6.3876,6.3876,0,0,1,2.01761-.5483,5.62766,5.62766,0,0,0,2.68939-.894,33.48959,33.48959,0,0,0,6.5059-5.3389c2.1826-2.3921,2.1084-5.2183,1.6338-8.1275a1.84539,1.84539,0,0,0-.334-.6875,26.651,26.651,0,0,0-2.12409-2.9555,6.54547,6.54547,0,0,0-7.29291-2.023,11.93524,11.93524,0,0,0-3.7158,1.9488,39.15057,39.15057,0,0,0-4.3311,4.0561,4.84942,4.84942,0,0,0-1.4551,3.2276c-.0185.3813-.03809.7612-.0625,1.2104a9.60486,9.60486,0,0,1,2.1573,6.0024,29.68268,29.68268,0,0,1-3.0733,15.2481C134.575,46.40406,134.26735,46.88836,133.953,47.45336Zm-1.877-21.8906a3.786,3.786,0,0,1-2.0537-1.626c-.626-.8081-1.1982-1.6646-1.8799-2.4243a45.57206,45.57206,0,0,0-3.5762-3.7334,7.15438,7.15438,0,0,0-5.8945-1.7051,4.65161,4.65161,0,0,0-2.5527,1.2275,1.49251,1.49251,0,0,0-.5254,1.3711,11.44509,11.44509,0,0,0,.3076,1.3042,12.04,12.04,0,0,0,2.1904,4.0181,7.81308,7.81308,0,0,0,6.3008,3.477,11.94076,11.94076,0,0,1,2.2774.2954,1.4957,1.4957,0,0,1,1.1699,1.5528,1.77473,1.77473,0,0,1-1.4277,1.7969,8.61451,8.61451,0,0,1-1.9083-.1021,7.89963,7.89963,0,0,0-3.40519.2661,20.76048,20.76048,0,0,0-8.919,5.7471,2.53785,2.53785,0,0,0-.40621,3.1865c1.3486,2.582,3.1836,4.6445,6.19921,5.2822a17.04126,17.04126,0,0,0,2.46089.3877,7.344,7.344,0,0,0,5.2393-1.4204,3.83229,3.83229,0,0,0,.09081-.771,14.05813,14.05813,0,0,1,.56249-4.9282c.3457-1.231.6387-2.4746,1.0283-3.6934C128.44215,31.66816,129.39335,28.19206,132.076,25.56276Zm2.31251,1.5058a12.22712,12.22712,0,0,0-2.291,4.0386c-.88281,2.5986-1.72561,5.2158-2.46091,7.8594a29.76971,29.76971,0,0,0-.6172,3.9697,3.27326,3.27326,0,0,0,.5185,2.1948,1.1344,1.1344,0,0,0,2.0215.0806,10.48693,10.48693,0,0,0,.8467-1.499,28.1902,28.1902,0,0,0,2.748-12.4375A11.84036,11.84036,0,0,0,134.38846,27.06856Z" fill="#1d1d1b" fill-rule="evenodd"/>
        <g>
          <path d="M128.63846,74.58326c-.249,2.1049-1.65231,2.6259-3.92671,2.3657a3.261,3.261,0,0,1-2.6895-3.2827,3.39243,3.39243,0,0,1,2.627-3.1475,3.2057,3.2057,0,0,1,3.7138,2.0171A9.83419,9.83419,0,0,1,128.63846,74.58326Z" fill="#1d1d1b" fill-rule="evenodd"/>
          <path d="M101.00365,109.43376a3.11622,3.11622,0,0,1-3.5341,2.48,3.04193,3.04193,0,0,1-2.4776-3.5132,3.09,3.09,0,0,1,3.5127-2.499A3.15413,3.15413,0,0,1,101.00365,109.43376Z" fill="#1d1d1b" fill-rule="evenodd"/>
          <path d="M85.28105,114.48116a3.02855,3.02855,0,1,1-2.7129-3.335A3.01969,3.01969,0,0,1,85.28105,114.48116Z" fill="#1d1d1b" fill-rule="evenodd"/>
          <path d="M63.50365,95.07936a2.88487,2.88487,0,0,1-3.2011,2.6098,2.94,2.94,0,0,1,.6435-5.8447A2.85763,2.85763,0,0,1,63.50365,95.07936Z" fill="#1d1d1b" fill-rule="evenodd"/>
          <path d="M2.58375,153.92306a2.91388,2.91388,0,1,1,3.2354-2.5571A2.92074,2.92074,0,0,1,2.58375,153.92306Z" fill="#1d1d1b" fill-rule="evenodd"/>
          <path d="M35.73905,152.259a2.731,2.731,0,0,1,2.1689-2.3525,2.7996,2.7996,0,0,1,2.5606,4.7334,5.22869,5.22869,0,0,1-1.4395.896,2.16032,2.16032,0,0,1-2.89059-1.0596A3.79457,3.79457,0,0,1,35.73905,152.259Z" fill="#1d1d1b" fill-rule="evenodd"/>
          <path d="M51.12475,105.59636a2.69872,2.69872,0,0,1,3.126-2.3901,2.60053,2.60053,0,0,1,2.3672,3.0957,2.76949,2.76949,0,1,1-5.4932-.7056Z" fill="#1d1d1b" fill-rule="evenodd"/>
          <path d="M76.81225,100.74826c-.2714,2.1802-2.3759,2.7969-3.455,1.9253a3.98456,3.98456,0,0,1-1.5274-2.9463,2.35327,2.35327,0,0,1,1.8145-2.1787,2.193,2.193,0,0,1,2.582,1.0967A12.61749,12.61749,0,0,1,76.81225,100.74826Z" fill="#1d1d1b" fill-rule="evenodd"/>
          <path d="M20.67855,158.241a2.39745,2.39745,0,0,1-2.0577-2.7539,2.47275,2.47275,0,0,1,2.7227-2.1382,2.43215,2.43215,0,0,1,2.1172,2.8891A2.37354,2.37354,0,0,1,20.67855,158.241Z" fill="#1d1d1b" fill-rule="evenodd"/>
          <path d="M60.67365,114.88446a2.44989,2.44989,0,1,1,2.0009,2.8116A2.42793,2.42793,0,0,1,60.67365,114.88446Z" fill="#1d1d1b" fill-rule="evenodd"/>
          <path d="M77.37775,121.23846a2.39826,2.39826,0,0,1-.583,4.7608,2.4,2.4,0,1,1,.583-4.7608Z" fill="#1d1d1b" fill-rule="evenodd"/>
          <path d="M65.47446,135.04756a2.27409,2.27409,0,0,1,2.19429-2.1826,2.341,2.341,0,0,1,2.46871,1.9346,2.3803,2.3803,0,0,1-1.65431,2.666,3.95468,3.95468,0,0,1-.749.1274,1.875,1.875,0,0,1-2.2402-1.768A6.99228,6.99228,0,0,1,65.47446,135.04756Z" fill="#1d1d1b" fill-rule="evenodd"/>
          <path d="M107.74785,100.29756a2.40217,2.40217,0,1,1,1.9121,2.7119A2.49795,2.49795,0,0,1,107.74785,100.29756Z" fill="#1d1d1b" fill-rule="evenodd"/>
          <path d="M119.92655,92.45726a2.299,2.299,0,0,1-2.0664-2.5181,2.35619,2.35619,0,1,1,4.69731.3765A2.30157,2.30157,0,0,1,119.92655,92.45726Z" fill="#1d1d1b" fill-rule="evenodd"/>
          <path d="M129.869,60.94746a2.3107,2.3107,0,0,1-2.48049,2.1392,2.386,2.386,0,0,1-2.14061-2.4981,2.33165,2.33165,0,0,1,2.5078-2.1108A2.2533,2.2533,0,0,1,129.869,60.94746Z" fill="#1d1d1b" fill-rule="evenodd"/>
          <path d="M54.83765,146.75656a2.19424,2.19424,0,0,1-2.0527-1.8574,1.95079,1.95079,0,0,1,1.2324-1.9527,5.34817,5.34817,0,0,1,1.6416-.4087,2.04156,2.04156,0,0,1,2.1621,1.7198,2.11084,2.11084,0,0,1-1.6367,2.4282A7.52655,7.52655,0,0,1,54.83765,146.75656Z" fill="#1d1d1b" fill-rule="evenodd"/>
        </g>
      </g>
    </g>
  </g>
</svg>
