<svg xmlns="http://www.w3.org/2000/svg" viewBox="0 0 87.3193 106.20411">
  <title>Recurso 14</title>
  <g id="Capa_2" data-name="Capa 2">
    <g id="Editar">
      <g>
        <g>
          <path d="M60.832,28.02281c-2.46491-2.4043-9.67631-4.1093-14.66021-3.0019.5903-.6934,1.1436-1.4258,1.7568-2.0645a29.19327,29.19327,0,0,0,4.208-5.6113c2.2212-3.9453,2.3467-9.2285-1.2368-12.3945-3.956-3.4961-9.4741-1.3418-12.1323,2.6328a20.47607,20.47607,0,0,0-3.1709,12.3711,8.41626,8.41626,0,0,0,.1192,1.1152,10.27619,10.27619,0,0,0-.2955,1.8086,4.28029,4.28029,0,0,0,3.0513,4.6133,3.861,3.861,0,0,0,1.3809,4.7109c4.622,3.3574,10.6792,6.3867,16.4878,5.3887C60.88032,36.81381,64.90862,32.00131,60.832,28.02281Z" fill="#de634a"/>
          <path d="M37.14062,37.267c-.0035-2.2403-1.0518-5.834-3.0845-7.0801a4.99375,4.99375,0,0,0-4.7061-.2617,7.40445,7.40445,0,0,0-2.5615-6.0703c-4.1567-3.8496-11.3691-2.4297-15.6694.3711-.0279.0195-.0557.039-.0825.0566a20.6597,20.6597,0,0,0-3.9683,1.2832c-4.0147,1.748-7.2554,6.4766-5.8887,10.8984,1.0449,3.3848,3.9092,4.625,7.0015,4.8203,3.4424,1.795,8.8017,1.3204,11.9805.0118a15.915,15.915,0,0,0,4.5517-2.9649c-.0303.1992-.063.3985-.0918.5918a8.40828,8.40828,0,0,0-.0796,1.6172,4.46687,4.46687,0,0,0-.7729.502c-5.3286,4.3281,3.0649,12.2421,8.2441,9.8222C36.89692,48.58141,37.14982,41.90171,37.14062,37.267Zm-5.0108-.8086c.2285-.8653.9331-.1543,0,0Z" fill="#de634a"/>
          <path d="M40.34712,30.78261c-1.2095-2.3731-2.41409-4.8731-3.8379-7.1172a29.172,29.172,0,0,0-3.4263-5.0566,2.31247,2.31247,0,0,0-3.2509-.0645c-3.0069,3.2324,1.2841,8.5274,2.7563,11.668,1.1382,2.4277,2.4321,4.834,3.751,7.166,1.0405,1.8398,2.5288,3.5547,4.8061,3.291C45.85342,40.12441,41.26412,32.58341,40.34712,30.78261Z" fill="#ffaa1d"/>
        </g>
        <path d="M87.28362,104.98571a61.39358,61.39358,0,0,0-3.8169-8.7969c-1.3618-2.9433-2.0293-6.1621-3.1758-9.1972a25.36483,25.36483,0,0,0-9.9487-12.5899c-4.6201-3.1425-9.7788-5.0957-14.6953-7.6679a14.33169,14.33169,0,0,1-6.418-6.0743c-.33689-.6152-.643-1.246-.9521-1.875a5.44677,5.44677,0,0,1-.7505-1.541c-.0391-1.0586-.5742-2.9121.1924-3.8125.8901-1.0468-.6128-2.5996-1.4785-1.541a4.29629,4.29629,0,0,0-.938,2.3887,11.12215,11.12215,0,0,0-.0347,3.584,27.61818,27.61818,0,0,0,1.68851,4.0625,14.0144,14.0144,0,0,0,2.436,3.8652,22.78528,22.78528,0,0,0,7.33989,4.8984c2.7563,1.2989,5.4179,2.6739,8.0922,4.1309a36.022,36.022,0,0,1,7.3184,5.0332,20.54457,20.54457,0,0,1,4.7861,7.2715c1.3492,3.082,1.9507,6.4277,3.2676,9.5176a34.39075,34.39075,0,0,0,5.437,9.2597A.982.982,0,0,0,87.28362,104.98571Z" fill="#463131"/>
        <path d="M63.31932,29.85291c-.8409-3.3789-4.4678-5.2656-7.4956-6.2578a21.58072,21.58072,0,0,0-3.6163-.8496,17.00243,17.00243,0,0,0,4.9048-9.0176c.8575-4.8828-1.3554-10.0664-6.0229-12.0566-2.4268-1.0352-5.30229-.4121-7.6997.3632a18.04417,18.04417,0,0,0-7.1021,4.375,19.03023,19.03023,0,0,0-4.3759,7.086,7.088,7.088,0,0,0-.4039,3.0586,4.54369,4.54369,0,0,0-.5488-.1738,2.95961,2.95961,0,0,0-1.9458.1425,8.56736,8.56736,0,0,0-.5913-.9023c-.2959-.957-.4985-1.9824-.6836-2.8067a11.62636,11.62636,0,0,1-.1328-4.205,10.80807,10.80807,0,0,1,1.5322-4.1973c.6875-1.1309,2.0874-1.9453,2.1465-3.3437a1.01272,1.01272,0,0,0-.7183-.9883c-1.7851-.4961-3.1611,1.4394-4.0058,2.7519a13.13554,13.13554,0,0,0-1.8203,5.293,11.43244,11.43244,0,0,0,.2031,4.4863,13.93874,13.93874,0,0,0-3.874-1.5586c-2.5054-.5761-6.8843-.8906-7.8145,2.1914a1.0477,1.0477,0,0,0,1.4995,1.2012,9.7219,9.7219,0,0,1,5.7818-.5605c2.2895.4609,5.0771,1.9355,6.3286,4.0039a1.27376,1.27376,0,0,0,.5288.498,4.06474,4.06474,0,0,0-.2061.9219c-.1967,1.9453.6914,4.0918,1.375,5.8633.7935,2.0547,1.7325,4.0449,2.6622,6.039a7.84045,7.84045,0,0,0,.811,1.6309c1.0166,1.5664,2.0195,3.1426,3.103,4.6641a28.287,28.287,0,0,0,2.8198,3.3867.8967.8967,0,0,0-.1186.1543,23.898,23.898,0,0,0-1.32329,3.0156,13.10837,13.10837,0,0,1-2.04,2.8848c-1.4062,1.6972-3.3442,3.873-5.6958,4.0625-2.3257.1855-3.291-2.3379-3.6123-4.2012-.2588-1.502.604-2.5274.6353-3.9473.0205-.9121-.1363-2.414.5415-3.1347a1.82452,1.82452,0,0,0-2.5254-2.6309c-4.3077,3.3066-9.9883,6.4277-15.5479,4.543-4.1299-1.3985-5.4214-7.2481-3.7207-10.8692a13.73377,13.73377,0,0,1,9.8262-7.459c4.2993-.9414,8.8242.1758,12.9072,1.5098a.176.176,0,0,0,.1748-.2891c-7.5117-8.5605-23.9756-4.5605-26.9809,6.3301-1.5787,5.7227.811,11.9063,6.309,14.3555,2.9766,1.3242,6.8604.9687,9.8921.0859a22.53737,22.53737,0,0,0,5.334-2.375,9.26846,9.26846,0,0,0-.4614,4.2071c.7363,3.2128,1.9277,6.205,5.3481,7.2929,3.4341,1.0957,6.8819-1.3554,9.1026-3.707,1.8432-1.9512,4.2773-4.9063,4.22561-7.7969a20.95358,20.95358,0,0,0,2.82029,1.8711c1.42771.7832,2.749-1.3711,1.3188-2.1543-.042-.0234-.0849-.0488-.1269-.0722.0019-.0137.0083-.0254.0097-.0391a9.88105,9.88105,0,0,0-.6333-4.5234,1.27014,1.27014,0,0,0,.2295.2656,12.50046,12.50046,0,0,0,2.4512,1.7383,8.17967,8.17967,0,0,0,3.99071.7265,16.11608,16.11608,0,0,0,6.90819-1.3711C60.936,37.78651,64.40132,34.20841,63.31932,29.85291Zm-25.2945,6.625a31.93753,31.93753,0,0,1-3.729-5.9629c-1.2612-3.043-2.9062-5.8887-3.7885-9.0859a7.36207,7.36207,0,0,1-.3047-1.8516,1.19952,1.19952,0,0,1,.0346-.334c.0191-.0039.0371-.0078.0635-.0117.855-.1562,1.9678,1.5059,2.3599,2.0762.6977,1.0137,1.1738,2.0723,1.9067,3.0781a42.793,42.793,0,0,1,4.4898,8.5645c.7246,1.6699,1.4057,3.3574,1.9838,5.0839.294.877.4629,1.8008.6719,2.7071A25.96937,25.96937,0,0,1,38.02482,36.47791Zm17.8081-.4238a10.556,10.556,0,0,1-4.8647,1.0703,10.20665,10.20665,0,0,1-3.2334-.3399c-.8325-.291-1.6694-.5351-2.5234-.7519a1.49113,1.49113,0,0,0-1.7798,1.3769c-.5987-1.9394-1.41459-3.8066-2.166-5.6894-.7017-1.7539-1.273-3.5215-2.1314-5.2129-.4419-.8672-.9556-1.6992-1.4775-2.5215a14.16673,14.16673,0,0,1-1.59869-2.2324c-.06931-.2031-.15131-.4063-.23971-.6133a1.07253,1.07253,0,0,0-.2271-1.0351c-3.2568-3.8692.5596-9.2325,3.5625-11.9942,2.6104-2.4004,7.7867-4.8633,11.2681-3.0976,3.0903,1.5664,3.8814,5.789,3.0186,8.8476-1.1973,4.2442-4.5039,7.5137-8.27639,9.5645-1.78611.9726-.62451,4.1699,1.34859,3.3886a12.16856,12.16856,0,0,1,6.9268-.1308c2.206.4824,4.97361,1.4121,6.20461,3.4668C61.227,32.79041,57.81242,35.099,55.83292,36.05411Z" fill="#463131"/>
      </g>
    </g>
  </g>
</svg>
