<?xml version="1.0" encoding="utf-8"?>
<!-- Generator: Adobe Illustrator 21.0.0, SVG Export Plug-In . SVG Version: 6.00 Build 0)  -->
<svg version="1.1" id="Capa_1" xmlns="http://www.w3.org/2000/svg" xmlns:xlink="http://www.w3.org/1999/xlink" x="0px" y="0px"
	 viewBox="0 0 64 64" style="enable-background:new 0 0 64 64;" xml:space="preserve">
<style type="text/css">
	.st0{fill:#FFFFFF;}
</style>
<g>
	<path class="st0" d="M60.1,21.3v26.3c0,4.1-3.4,7.5-7.5,7.5H11.4c-4.1,0-7.5-3.4-7.5-7.5V21.3c0-4.1,3.4-7.5,7.5-7.5h6.6l1.5-4
		c0.7-1.9,3-3.5,5.1-3.5h15c2.1,0,4.3,1.6,5.1,3.5l1.5,4h6.6C56.8,13.8,60.1,17.2,60.1,21.3z M45.1,34.5c0-7.2-5.9-13.1-13.1-13.1
		s-13.1,5.9-13.1,13.1S24.8,47.6,32,47.6S45.1,41.7,45.1,34.5z M40.4,34.5c0,4.7-3.8,8.4-8.4,8.4s-8.4-3.8-8.4-8.4S27.3,26,32,26
		S40.4,29.8,40.4,34.5z"/>
</g>
</svg>
