<svg xmlns="http://www.w3.org/2000/svg" viewBox="0 0 68.00184 82.06173">
  <title>Recurso 21</title>
  <g id="Capa_2" data-name="Capa 2">
    <g id="Editar">
      <g>
        <path d="M33.2256,23.25v4.5234c0,.8555-.8535.8555-.8535,0v-4.457a26.06761,26.06761,0,0,0-5.2149,1.0879c-6.6269,2.0332-13.2441,5.5742-17.0801,11.5371A27.34458,27.34458,0,0,0,6.335,46.5683h5.5351c.8535,0,.8535,1.7071,0,1.7071H6.3066c-.0263,0-.0439-.5996-.0683-.6016a20.31717,20.31717,0,0,0,.3447,6.2031C8.9209,65.7597,20.6025,73.5508,32.3643,72.6387c-.4249-.1993-.1856-.9395.3457-.8321.0283.0039.0556.0078.0839.0137l.42092-3.9473c.06158-.5761.97168-.58.90918,0q-.21675,2.048-.4355,4.0938C48.63182,74.2226,58.5791,58.8359,57.373,45.2617,56.1924,31.9648,46.04,22.582,33.2256,23.25ZM12.208,56.8652q-1.1469.7413-2.2939,1.4863c-.4932.3204-.94928-.4687-.46-.7851q1.1484-.74415,2.2949-1.4863C12.2422,55.7597,12.6982,56.5469,12.208,56.8652ZM28.8096,44.7051c.4824-.336.9375.4531.4599.7851a3.00057,3.00057,0,0,0-1.2734,2.6699c.0322.586-.8789.5821-.9092,0A3.92563,3.92563,0,0,1,28.8096,44.7051ZM14.0049,37.2012a2.325,2.325,0,0,1-2.459-.9024c-.3516-.4687.4394-.9219.7861-.459a1.37932,1.37932,0,0,0,1.4307.4844A.4552.4552,0,0,1,14.0049,37.2012Zm5.9111-6.3594a4.32392,4.32392,0,0,0-1.4228-2.0625c-.4541-.3692.1933-1.0098.6435-.6426a5.15955,5.15955,0,0,1,1.6572,2.4629C20.9717,31.1601,20.09282,31.3965,19.916,30.8418ZM22.63382,66.584q-.5655,1.327-1.13382,2.6543c-.2295.5371-1.0137.0742-.7861-.459q.56838-1.3272,1.1347-2.6543C22.0771,65.5879,22.8623,66.0527,22.63382,66.584ZM24.1641,46.3828c-.0948.5762-.9717.3301-.877-.2422a5.866,5.866,0,0,1,2.8535-4.1211.45529.45529,0,0,1,.46.7852A5.00187,5.00187,0,0,0,24.1641,46.3828ZM53.0615,60.1601q-1.36665-1.0869-2.7334-2.1738c-.458-.3652.1905-1.0058.6436-.6445q1.36668,1.0869,2.7334,2.1758C54.1631,59.8808,53.5146,60.5215,53.0615,60.1601Zm3.668-11.6386q-3.0351.3633-6.0713.7246c-.5811.0683-.5742-.8418,0-.9102q3.0366-.3603,6.0713-.7226C57.3115,47.543,57.3037,48.4531,56.7295,48.5215ZM50.1787,37.8847a1.941,1.941,0,0,0,1.2783-1.8574.45541.45541,0,0,1,.9102,0,2.874,2.874,0,0,1-1.9463,2.7344C49.8662,38.957,49.6299,38.0781,50.1787,37.8847Zm-5.96288-7.1562q.84087-1.0722,1.68458-2.1426c.3623-.459,1.001.1895.6435.6446q-.84375,1.0692-1.6855,2.1406C44.4971,31.832,43.8574,31.1836,44.21582,30.7285ZM43.0029,64.1699q1.14255.9405,2.2871,1.8809c.4532.3711-.1943,1.0117-.6425.6425Q43.502,65.753,42.3584,64.8144C41.9062,64.4414,42.5537,63.8008,43.0029,64.1699ZM38.5303,52.2246a8.1444,8.1444,0,0,0,.3017-3.5606c-.081-.5742.7959-.8203.878-.2421a9.17955,9.17955,0,0,1-.3028,4.0429C39.2353,53.0254,38.3584,52.7851,38.5303,52.2246Zm-1.752-3.3379c-.0664-.582.8438-.5762.9102,0a3.96707,3.96707,0,0,1-1.9453,3.8496.455.455,0,0,1-.459-.7851A3.08568,3.08568,0,0,0,36.7783,48.8867ZM34.9346,34.3906a8.927,8.927,0,0,0-1.4707-.6582q.13188,5.76855.2617,11.5371.107,1.0899.2383,2.1777a2.22612,2.22612,0,0,1,.1406,3.6622,2.07551,2.07551,0,0,1-1.9658.0312,42.294,42.294,0,0,0-3.8975,5.4609,1.1676,1.1676,0,0,1,.5635.7461c.4502-.3183,1.0635.2989.6162.6582q-1.33,1.06935-2.6602,2.1387a.46142.46142,0,0,1-.7773-.3223,17.60192,17.60192,0,0,1,.5889-3.8652.452.452,0,0,1,.8798.1914,43.38125,43.38125,0,0,1,4.01572-5.6172,1.24163,1.24163,0,0,1-.07232-.1054,1.61927,1.61927,0,0,1-.1846-.8282A2.16411,2.16411,0,0,1,32.8603,47.25q-.0219-1.0107-.0449-2.0254a94.5943,94.5943,0,0,1-.39258-11.7774c-.13472-.0292-.26752-.0625-.40422-.0878a.51259.51259,0,0,1-.0293.3789.58555.58555,0,0,1-1.1153-.3125,3.64664,3.64664,0,0,1,.7051-1.4395q.48345-.8466.9678-1.6914a.46081.46081,0,0,1,.832.1074,7.03294,7.03294,0,0,0,2.1074,3.2735C35.88382,34.0293,35.3721,34.6367,34.9346,34.3906Z" fill="#fff"/>
        <path d="M17.7539,21.2676a31.35156,31.35156,0,0,1,5.5547-2.375.35588.35588,0,0,1-.001-.045c.5156-2.9218-6.4287-6.0449-8.54878-6.5996A11.35762,11.35762,0,0,0,4.3975,14.4238C-1.4375,19.6465.6797,28.123,4.999,33.4453A34.95463,34.95463,0,0,1,17.7539,21.2676Zm-13.7588.2441c.0899-.5762.9668-.3301.877.2422a6.82377,6.82377,0,0,0,.67972,4.1992c.26558.5215-.51962.9805-.78522.459A7.86734,7.86734,0,0,1,3.9951,21.5117Zm.3526,8.5273a7.8164,7.8164,0,0,1-1.7461-4.8281c-.001-.8535.9091-.8535.9111,0a5.93485,5.93485,0,0,0,1.4785,4.0488C5.3496,29.7148,4.71,30.5,4.3477,30.039Z" fill="#fff"/>
        <path d="M46.4346,21.4414c-10.75878-5.4766-23.6075-3.6582-32.9434,3.7754C3.0049,33.5644-1.3311,46.9414,4.5586,59.3047c2.5947,5.4472,6.459,11.4316,11.8711,14.3945,5.0947,2.7871,11.1377,3.0488,16.832,3.2148a.50661.50661,0,0,1,.5459-.6328c15.2891,2.0625,26.9805-11,28.1699-25.4082C62.96782,38.8691,57.3486,26.9961,46.4346,21.4414ZM37.4971,75.6133H31.5176v-.8555h5.9795C38.3516,74.7578,38.3516,75.6133,37.4971,75.6133ZM56.6904,57.2051C53.3281,67.039,44.251,74.3281,33.707,72.8867a.49273.49273,0,0,1-.4228.5762C21.5996,74.8242,9.6182,67.6582,6.2139,56.1933A25.467,25.467,0,0,1,15.0947,29.082,33.61935,33.61935,0,0,1,32.46,22.3281h.0156a23.043,23.043,0,0,1,16.0293,4.584C57.5644,33.8906,60.3037,46.6328,56.6904,57.2051Zm.5459-22.0684c.1709.5625-.708.8008-.8779.2402a12.04817,12.04817,0,0,0-3.4043-5.4082c-.4316-.3984.2129-1.039.6426-.6425A12.939,12.939,0,0,1,57.2363,35.1367Z" fill="#fff"/>
        <path d="M17.915,12.4805c.0059-.0079.0069-.0176.0137-.0254C25.3125,3.5176,42.5205.4863,48.5381,12.3887a16.96953,16.96953,0,0,1,2.4336-.9688A18.45562,18.45562,0,0,0,34.5674.9101C27.5596.9277,18.9326,5.1015,15.3262,11.207a.416.416,0,0,1-.2627.1992,14.70114,14.70114,0,0,1,2.2099.7754C17.46782,12.2676,17.6875,12.3711,17.915,12.4805ZM40.167,2.6484A18.93371,18.93371,0,0,1,45.6709,5.789c.4531.3692-.1943,1.0098-.6445.6426a17.61445,17.61445,0,0,0-5.10158-2.9062C39.3779,3.3262,39.6162,2.4472,40.167,2.6484Z" fill="#fff"/>
        <path d="M63.2832,14.6465c-4.44138-3.8868-10.042-3.7989-14.6973-1.375a.52017.52017,0,0,1-.2275.123,17.572,17.572,0,0,0-5.918,5.2442.46968.46968,0,0,1-.1767.1464,29.9807,29.9807,0,0,1,9.5537,5.0118,28.2237,28.2237,0,0,1,7.9648,10.0058c2.43562,2.0977,6.8692-7.414,7.1455-8.8496A10.80723,10.80723,0,0,0,63.2832,14.6465Zm1.1309,9.2578c-.0362.582-.94628.584-.9092,0a8.52162,8.52162,0,0,0-1.4932-5.4395c-.3301-.4863.459-.9394.78612-.459A9.33492,9.33492,0,0,1,64.4141,23.9043Zm.5595-2.9063a9.45843,9.45843,0,0,0-2.46478-5.1328c-.39852-.4277.24408-1.0722.64448-.6445a10.28777,10.28777,0,0,1,2.6973,5.5371C65.93849,21.3301,65.0615,21.5762,64.9736,20.998Z" fill="#fff"/>
        <path d="M11.7686,71.3887c-1.7803,1.7949-4.2715,4.8515-4.254,7.4804q-.54195,1.80465,2.375,1.7051a12.02976,12.02976,0,0,0,.7774-1.0957c.3867-.5684.7519-1.1523,1.1279-1.7285q1.3536-2.0742,2.7061-4.1465c.00682-.0098.0156-.0137.0234-.0234a18.075,18.075,0,0,1-1.6113-1.1797C12.5264,72.0801,12.1455,71.7383,11.7686,71.3887Zm.4511,3.6855a5.333,5.333,0,0,0-2.4131,2.7773c-.205.543-1.0849.3067-.8779-.2421a6.30492,6.30492,0,0,1,2.832-3.3204A.455.455,0,0,1,12.2197,75.0742Z" fill="#fff"/>
        <path d="M55.5303,68.707a.46344.46344,0,0,1,.0644.082,14.61479,14.61479,0,0,0,2.6856,3.8477c.97652.9863,4.3838,4.0977,5.2168.7949.455-1.8027-1.7598-3.6054-2.8575-4.789q-1.37985-1.4883-2.7617-2.9766A27.93509,27.93509,0,0,1,55.5303,68.707Z" fill="#fff"/>
        <path d="M51.8584,11.1738c-.0059-.0117-.0039-.0254-.0098-.0391A19.39119,19.39119,0,0,0,34.5674,0C27.2529-.0039,18.3115,4.3633,14.54,10.748a.41375.41375,0,0,0,.1104.5586A12.42594,12.42594,0,0,0,5.707,12.3769C-2.626,17.0957-.7334,27.8574,4.3896,34.1328a.45687.45687,0,0,0,.1387.1133A25.9637,25.9637,0,0,0,1.293,52.873a38.40665,38.40665,0,0,0,9.8232,17.8809c-2.1016,2.1465-6.5488,7.793-3.873,10.6094a2.15378,2.15378,0,0,0,3.29-.1465c1.9111-1.9531,3.2627-4.8692,4.75-7.1485,5.5322,3.2911,12.3447,3.5938,18.6855,3.7754a.43343.43343,0,0,0,.41412-.5937A24.75322,24.75322,0,0,0,54.8887,69.4043c1.2138,2.3262,5.7539,8.7773,8.7099,5.875a3.43575,3.43575,0,0,0,.3106-4.1289c-1.2735-2.3477-3.7051-4.334-5.5205-6.2715a28.94781,28.94781,0,0,0,2.7177-5.627,33.65929,33.65929,0,0,0-.8291-24.3691c2.2588.0547,5.0381-3.9805,5.876-5.418a12.11178,12.11178,0,0,0-.3437-13.3926A12.80225,12.80225,0,0,0,51.8584,11.1738Zm-36.5322.0332C18.9326,5.1015,27.5596.9277,34.5674.9101A18.45562,18.45562,0,0,1,50.9717,11.4199a16.96953,16.96953,0,0,0-2.4336.9688C42.5205.4863,25.3125,3.5176,17.9287,12.4551c-.0068.0078-.0078.0175-.0137.0254-.2275-.1094-.44718-.2129-.6416-.2989a14.70114,14.70114,0,0,0-2.2099-.7754A.416.416,0,0,0,15.3262,11.207Zm26.3047,7.3926a31.44038,31.44038,0,0,0-17.41408.0019c-.02832-2.33-3.11722-4.457-5.46972-5.7031,7.09472-8.3242,23.2324-11.3633,28.9853-.0879a18.259,18.259,0,0,0-6.0791,5.3692A.36181.36181,0,0,0,41.6309,18.5996ZM4.3975,14.4238A11.35762,11.35762,0,0,1,14.75882,12.248c2.12008.5547,9.06438,3.6778,8.54878,6.5996a.35588.35588,0,0,0,.001.045,31.35156,31.35156,0,0,0-5.5547,2.375A34.95463,34.95463,0,0,0,4.999,33.4453C.6797,28.123-1.4375,19.6465,4.3975,14.4238ZM14.501,73.6035q-1.3536,2.0742-2.7061,4.1465c-.376.5762-.7412,1.1601-1.1279,1.7285a12.02976,12.02976,0,0,1-.7774,1.0957q-2.91495.0996-2.375-1.7051c-.0175-2.6289,2.4737-5.6855,4.254-7.4804.3769.3496.7578.6914,1.1445,1.0117a18.075,18.075,0,0,0,1.6113,1.1797C14.5166,73.5898,14.50782,73.5937,14.501,73.6035Zm46.1386-4.9609c1.0977,1.1836,3.3125,2.9863,2.8575,4.789-.833,3.3028-4.24028.1914-5.2168-.7949a14.61479,14.61479,0,0,1-2.6856-3.8477.46344.46344,0,0,0-.0644-.082,27.93509,27.93509,0,0,0,2.3476-3.041Q59.25778,67.1543,60.6396,68.6426ZM61.9775,50.873C60.7881,65.2812,49.0967,78.3437,33.8076,76.2812a.50661.50661,0,0,0-.5459.6328c-5.6943-.166-11.7373-.4277-16.832-3.2148-5.4121-2.9629-9.2764-8.9473-11.8711-14.3945-5.8897-12.3633-1.5537-25.7403,8.9326-34.0879,9.3359-7.4336,22.18462-9.252,32.9434-3.7754C57.3486,26.9961,62.96782,38.8691,61.9775,50.873Zm4.9502-25.9199c-.2763,1.4356-4.70988,10.9473-7.1455,8.8496a28.2237,28.2237,0,0,0-7.9648-10.0058,29.9807,29.9807,0,0,0-9.5537-5.0118.46968.46968,0,0,0,.1767-.1464,17.572,17.572,0,0,1,5.918-5.2442.52017.52017,0,0,0,.2275-.123c4.6553-2.4239,10.25592-2.5118,14.6973,1.375A10.80723,10.80723,0,0,1,66.92769,24.9531Z"/>
        <path d="M48.5049,26.9121a23.043,23.043,0,0,0-16.0293-4.584H32.46A33.61935,33.61935,0,0,0,15.0947,29.082,25.467,25.467,0,0,0,6.2139,56.1933C9.6182,67.6582,21.5996,74.8242,33.2842,73.4629a.49273.49273,0,0,0,.4228-.5762c10.544,1.4414,19.6211-5.8477,22.9834-15.6816C60.3037,46.6328,57.5644,33.8906,48.5049,26.9121ZM57.373,45.2617c1.2061,13.5742-8.74118,28.9609-23.6845,26.7051q.21825-2.048.4355-4.0938c.0625-.58-.8476-.5761-.90918,0l-.42092,3.9473c-.0283-.0059-.0556-.0098-.0839-.0137-.5313-.1074-.7706.6328-.3457.8321-11.7618.9121-23.4434-6.879-25.7813-18.7618a20.31717,20.31717,0,0,1-.3447-6.2031c.0244.002.042.6016.0683.6016h5.5635c.8535,0,.8535-1.7071,0-1.7071H6.335a27.34458,27.34458,0,0,1,3.7421-10.6269c3.836-5.9629,10.4532-9.5039,17.0801-11.5371a26.06761,26.06761,0,0,1,5.2149-1.0879v4.457c0,.8555.8535.8555.8535,0V23.25C46.04,22.582,56.1924,31.9648,57.373,45.2617Z"/>
        <path d="M50.6582,49.2461q3.0366-.3633,6.0713-.7246c.5742-.0684.582-.9785,0-.9082q-3.0351.3603-6.0713.7226C50.084,48.4043,50.0771,49.3144,50.6582,49.2461Z"/>
        <path d="M50.4209,38.7617a2.874,2.874,0,0,0,1.9463-2.7344.45541.45541,0,0,0-.9102,0,1.941,1.941,0,0,1-1.2783,1.8574C49.6299,38.0781,49.8662,38.957,50.4209,38.7617Z"/>
        <path d="M44.8584,31.3711q.84375-1.06935,1.6855-2.1406c.3575-.4551-.2812-1.1036-.6435-.6446q-.84225,1.07235-1.68458,2.1426C43.8574,31.1836,44.4971,31.832,44.8584,31.3711Z"/>
        <path d="M13.7627,36.3242a1.37932,1.37932,0,0,1-1.4307-.4844c-.3467-.4629-1.1377-.0097-.7861.459a2.325,2.325,0,0,0,2.459.9024A.4552.4552,0,0,0,13.7627,36.3242Z"/>
        <path d="M20.7939,30.5996a5.15955,5.15955,0,0,0-1.6572-2.4629c-.4502-.3672-1.0976.2734-.6435.6426a4.32392,4.32392,0,0,1,1.4228,2.0625C20.09282,31.3965,20.9717,31.1601,20.7939,30.5996Z"/>
        <path d="M11.749,56.0801q-1.1484.74115-2.2949,1.4863c-.48928.3164-.0332,1.1055.46.7851q1.1469-.744,2.2939-1.4863C12.6982,56.5469,12.2422,55.7597,11.749,56.0801Z"/>
        <path d="M21.8486,66.125q-.56835,1.32705-1.1347,2.6543c-.2276.5332.5566.9961.7861.459q.56685-1.3272,1.13382-2.6543C22.8623,66.0527,22.0771,65.5879,21.8486,66.125Z"/>
        <path d="M44.6475,66.6933c.4482.3692,1.0957-.2714.6425-.6425q-1.14255-.9405-2.2871-1.8809c-.4492-.3691-1.0967.2715-.6445.6445Q43.50395,65.7549,44.6475,66.6933Z"/>
        <path d="M50.9717,57.3418c-.4531-.3613-1.1016.2793-.6436.6445q1.3668,1.0869,2.7334,2.1738c.4531.3614,1.1016-.2793.6436-.6425Q52.3383,58.4307,50.9717,57.3418Z"/>
        <path d="M32.5469,30.2949q-.48345.84375-.9678,1.6914a3.64664,3.64664,0,0,0-.7051,1.4395.58555.58555,0,0,0,1.1153.3125.51259.51259,0,0,0,.0293-.3789c.1367.0253.2695.0586.40422.0878a94.5943,94.5943,0,0,0,.39258,11.7774q.02205,1.0137.0449,2.0254a2.16411,2.16411,0,0,0-1.6494,2.3476,1.61927,1.61927,0,0,0,.1846.8282,1.24163,1.24163,0,0,0,.07232.1054,43.38125,43.38125,0,0,0-4.01572,5.6172.452.452,0,0,0-.8798-.1914,17.60192,17.60192,0,0,0-.5889,3.8652.46142.46142,0,0,0,.7773.3223q1.3302-1.06935,2.6602-2.1387c.4473-.3593-.166-.9765-.6162-.6582a1.1676,1.1676,0,0,0-.5635-.7461,42.294,42.294,0,0,1,3.8975-5.4609,2.07551,2.07551,0,0,0,1.9658-.0312,2.22612,2.22612,0,0,0-.1406-3.6622q-.13185-1.08975-.2383-2.1777-.13035-5.76855-.2617-11.5371a8.927,8.927,0,0,1,1.4707.6582c.4375.2461.94922-.3613.5517-.7148a7.03294,7.03294,0,0,1-2.1074-3.2735A.46081.46081,0,0,0,32.5469,30.2949Z"/>
        <path d="M4.9912,29.2597a5.93485,5.93485,0,0,1-1.4785-4.0488c-.002-.8535-.9121-.8535-.9111,0A7.8164,7.8164,0,0,0,4.3477,30.039C4.71,30.5,5.3496,29.7148,4.9912,29.2597Z"/>
        <path d="M5.55182,25.9531a6.82377,6.82377,0,0,1-.67972-4.1992c.0898-.5723-.7871-.8184-.877-.2422a7.86734,7.86734,0,0,0,.7715,4.9004C5.0322,26.9336,5.8174,26.4746,5.55182,25.9531Z"/>
        <path d="M39.92482,3.5254A17.61445,17.61445,0,0,1,45.0264,6.4316c.4502.3672,1.0976-.2734.6445-.6426A18.93371,18.93371,0,0,0,40.167,2.6484C39.6162,2.4472,39.3779,3.3262,39.92482,3.5254Z"/>
        <path d="M62.50882,15.8652A9.45843,9.45843,0,0,1,64.9736,20.998c.0879.5782.9649.3321.877-.2402a10.28777,10.28777,0,0,0-2.6973-5.5371C62.7529,14.793,62.1103,15.4375,62.50882,15.8652Z"/>
        <path d="M62.0117,18.4648a8.52162,8.52162,0,0,1,1.4932,5.4395c-.03708.584.873.582.9092,0a9.33492,9.33492,0,0,0-1.61628-5.8985C62.4707,17.5254,61.6816,17.9785,62.0117,18.4648Z"/>
        <path d="M37.4971,74.7578H31.5176v.8555h5.9795C38.3516,75.6133,38.3516,74.7578,37.4971,74.7578Z"/>
        <path d="M52.9541,29.9687a12.04817,12.04817,0,0,1,3.4043,5.4082c.1699.5606,1.0488.3223.8779-.2402a12.939,12.939,0,0,0-3.6396-5.8105C53.167,28.9297,52.5225,29.5703,52.9541,29.9687Z"/>
        <path d="M11.7607,74.289a6.30492,6.30492,0,0,0-2.832,3.3204c-.207.5488.6729.7851.8779.2421a5.333,5.333,0,0,1,2.4131-2.7773A.455.455,0,0,0,11.7607,74.289Z"/>
        <path d="M35.2842,51.9512a.455.455,0,0,0,.459.7851,3.96707,3.96707,0,0,0,1.9453-3.8496c-.0664-.5762-.9766-.582-.9102,0A3.08568,3.08568,0,0,1,35.2842,51.9512Z"/>
        <path d="M39.4072,52.4648a9.17955,9.17955,0,0,0,.3028-4.0429c-.0821-.5782-.959-.3321-.878.2421a8.1444,8.1444,0,0,1-.3017,3.5606C38.3584,52.7851,39.2353,53.0254,39.4072,52.4648Z"/>
        <path d="M27.9961,48.1601a3.00057,3.00057,0,0,1,1.2734-2.6699c.4776-.332.0225-1.1211-.4599-.7851a3.92563,3.92563,0,0,0-1.7227,3.455C27.1172,48.7422,28.0283,48.7461,27.9961,48.1601Z"/>
        <path d="M26.1406,42.0195a5.866,5.866,0,0,0-2.8535,4.1211c-.0947.5723.7822.8184.877.2422a5.00187,5.00187,0,0,1,2.4365-3.5781A.45529.45529,0,0,0,26.1406,42.0195Z"/>
      </g>
    </g>
  </g>
</svg>
