<svg xmlns="http://www.w3.org/2000/svg" viewBox="0 0 99.7365 61.71365">
  <title>Recurso 7</title>
  <g id="Capa_2" data-name="Capa 2">
    <g id="Editar">
      <g>
        <path d="M6.44767,22.41426c2.3604-3.291,6.1563-3.8369,9.9317-3.7578a21.83254,21.83254,0,0,1,5.2324.6445c.6709.1816,1.374.4541,2.0908.7119a18.45439,18.45439,0,0,1,1.378-8.0625c1.2636-3.2637,3.2041-7.9238,7.1171-8.5703,3.9893-.6592,8.6387,1.7236,11.7676,3.9619a48.01414,48.01414,0,0,1,5.2305,4.2744,10.67139,10.67139,0,0,1,1.4082,1.5821,7.25508,7.25508,0,0,1,1.0342-1.6719c1.4228-1.6905,3.4844-4.2481,5.5801-5.1397a15.18759,15.18759,0,0,1,13.4902,1.292,12.48725,12.48725,0,0,1,6.3418,11.3848c-.0117.2607-.0283.5312-.0479.8066a6.86426,6.86426,0,0,1,6.836-.3681c2.4218,1.1474,4.3545,3.2588,6.6855,4.6211,2.4043,1.4052,5.1485,3.2392,5.2227,6.3164.1318,5.5966-4.7735,8.5791-9.5254,9.9619a17.30728,17.30728,0,0,1-4.8828.6406,10.14435,10.14435,0,0,1,.6474,3.9141c-.1123,3.0703-2.2695,5.7597-4.2851,7.8574-1.3682,1.4238-1.8946,3.6406-3.5283,5.1289-3.6954,3.3691-9.7325-.1553-13.2852-2.1191a17.89407,17.89407,0,0,1-3.7637-2.7354,14.868,14.868,0,0,1-2.83,3.0674c-3.5167,2.875-8.0362,1.7207-11.8838.3515-3.5508-1.2617-7.1846-2.581-9.5977-5.6396a10.794,10.794,0,0,1-1.4951-2.6563,23.35429,23.35429,0,0,1-3.6699,2.8428,14.03333,14.03333,0,0,1-13.7285.0332c-4.3282-2.3125-6.2803-6.4062-4.5918-11.1513a7.86534,7.86534,0,0,1,3.5605-3.9961,12.5084,12.5084,0,0,1-4.251-3.3037C6.42627,29.93666,4.04247,25.76876,6.44767,22.41426Z" fill="#fff"/>
        <path d="M7.28367,34.882c-6.1621-2.124-9.1856-10.8408-6.001-16.3642,1.7412-3.0205,5.5664-4.9541,8.835-5.6738,3.207-.7071,6.581-.0694,9.8457.0673a1.46374,1.46374,0,0,1-.0323-.1894,8.37572,8.37572,0,0,1-.3115-2.0108,13.34725,13.34725,0,0,1,.7481-2.6826,12.90475,12.90475,0,0,1,2.3535-3.7392c2.0898-2.3438,4.6338-2.8955,7.5156-3.7061a11.57217,11.57217,0,0,1,9.0703.7256,19.84212,19.84212,0,0,1,5.4688,4.9824c3.1924-2.5342,7.1015-3.9101,11.0566-5.124a24.64747,24.64747,0,0,1,7.8242-.9609c2.2862.0468,5.3604.4179,7.3067,1.7295a22.06182,22.06182,0,0,1,5.7158,5.7207c1.4521,2.0693,2.2373,4.4267,3.5049,6.5634a6.07739,6.07739,0,0,1,.7988,3.6182c7.2598-.6094,14.4736,3.7705,17.7549,10.3477a9.61013,9.61013,0,0,1-2.7197,11.9052c-2.2276,1.585-4.8858,1.6114-7.5147,1.6328a26.89648,26.89648,0,0,1-4.5176-.3603c.3116.7705.6182,1.5439.8789,2.331a20.07471,20.07471,0,0,1,.9307,6.7149,11.85316,11.85316,0,0,1-6.3047,9.9863c-6.3291,3.3682-13.8369-.3047-19.0732-4.4472-2.3721,5.1201-9.6875,6.0009-15.0635,5.3066-5.4941-.709-12.3525-4.5088-15.2148-9.8516a15.73942,15.73942,0,0,1-18.5899,3.6231c-3.9072-1.9043-7.0986-4.9844-7.085-9.6192a11.95146,11.95146,0,0,1,1.7276-6.0478,11.08639,11.08639,0,0,1,1.6074-1.874c.7383-.7784,1.6484-1.1211,2.3828-1.8164.7627-.7247,1.9307.2392,1.5899,1.1474a14.6434,14.6434,0,0,1-1.334,3.1504,8.4197,8.4197,0,0,0-1.457,4.2383c-.1934,3.4043,2.6933,5.4775,5.413,6.7314,5.9258,2.7334,11.794-.6562,14.795-5.8867.9502-1.6592,3.8837-.9326,4.04.9336.4287,5.1377,7.0439,9.5391,11.7373,10.415,3.7568.6993,11.2988,1.1133,11.5498-4.2226.124-2.5684,3.4981-2.6123,4.4316-.7227,4.7266,1.6221,9.7422,5.8291,14.9493,4.7237,3.1738-.6739,4.6855-4.045,4.7773-6.9248.1143-3.5704-1.7539-6.9375-2.8398-10.2481a2.53223,2.53223,0,0,1,3.167-3.376c3.3017.7911,8.0595,1.752,11.372.6153,2.9532-1.0117,2.6573-4.8164,1.6094-7.083-2.2773-4.9229-8.7949-10.4912-14.4346-8.4287a3.07676,3.07676,0,0,1-1.3076.583,1.19128,1.19128,0,0,1-.4101.0507,4.64764,4.64764,0,0,1-1.377-.1123,2.12854,2.12854,0,0,1,.0811-4.2295,5.54613,5.54613,0,0,0-.4219-.9316c-.7344-1.3906-1.4004-2.8535-2.1943-4.2324-1.8077-3.1348-4.4385-5.9629-8.0987-6.5899a19.7222,19.7222,0,0,0-10.3222,1.2901c-3.2227,1.2051-6.6211,2.2392-8.9444,4.9316a2.57537,2.57537,0,0,1-4.0156.1192c-1.375-1.7178-2.5537-3.6055-4.3115-4.9678a6.87231,6.87231,0,0,0-6.4258-1.2393c-1.9502.4336-3.9834.7549-5.3789,2.3203a9.66715,9.66715,0,0,0-1.5869,2.7598c-.3731.875-.9971,1.7637-1.2989,2.5918a1.69406,1.69406,0,0,1-.8193.9209,2.25784,2.25784,0,0,1-2.0449,2.9785c-2.4004.0596-4.7901-.1943-7.1895-.1943a11.248,11.248,0,0,0-7.7666,3.2715c-4.2949,3.9043,1.959,9.332,3.4258,12.8457A1.48121,1.48121,0,0,1,7.28367,34.882Z" fill="#0087cb"/>
      </g>
    </g>
  </g>
</svg>
