<svg xmlns="http://www.w3.org/2000/svg" viewBox="0 0 282.89523 290.15638">
  <title>conoceRecurso 9</title>
  <g id="Capa_2" data-name="Capa 2">
    <g id="Editar">
      <g>
        <path d="M176.54784,199.7656c-5.19577-2.499-13.38992-3.85337-15.76044-3.96728-28.75631-1.3806-58.99056,7.12407-87.37346,10.83883-4.95046.648-18.53514,1.42785-21.236,6.30751-5.23136,9.45071,10.02081,13.47338,16.75934,13.72214,5.509.203,11.05538.00445,16.5691.04863,13.06222.10563,26.14723.20006,39.15583-1.16183a125.92344,125.92344,0,0,0,37.962-9.79981c1.50272-.66368,2.98258-1.37538,4.45983-2.09222a25.33918,25.33918,0,0,1,4.10244-2.00539,21.80447,21.80447,0,0,0,5.82509-2.52C183.43848,205.14416,181.18893,201.998,176.54784,199.7656Z" fill="#d5d5d5"/>
        <g>
          <g>
            <path d="M102.9493,185.11612c-1.23639-.88775-3.49829-.4525-4.89691-.40678a30.11694,30.11694,0,0,1-6.27828-.22476c-2.18059-.38953-7.18612-2.76265-8.87647-.33337a1.62993,1.62993,0,0,0-2.36086,1.16942c-.258,1.27643-.69552,3.51777.16109,4.68412,1.03641,1.40982,2.39415,1.7027,3.98562,2.20314,2.09483.65693,4.28187,1.08918,6.40861,1.63527,1.64915.42328,3.25934.61428,4.916.91766,1.30005.23826,2.78252.96261,4.12231.50789a4.68074,4.68074,0,0,0,3.00429-3.01518c.46854-1.13038.69782-2.30946,1.05359-3.46155A3.11317,3.11317,0,0,0,102.9493,185.11612Z" fill="#cd4343"/>
            <path d="M146.30645,182.74368c-.08354-1.90275-.97159-4.71711-3.12418-5.13141-2.35441-.45166-5.10479,1.38512-7.17117,2.29826-1.27313.56258-2.56306,1.23976-3.87922,1.67355a23.99527,23.99527,0,0,0-3.10692,1.10568,2.05644,2.05644,0,0,0-1.66081.86519c-.01235-.04871-.02623-.09811-.03483-.14835-.36367-1.95514-3.34249-1.42325-3.37019.45549a6.21094,6.21094,0,0,0,.80529,2.94545c-.14014-.28536-.09926,1.01286-.0952,1.19635a7.80511,7.80511,0,0,0,.324,1.86532c.62179,2.26152,2.25293,3.254,4.4935,3.44283,4.64669.39106,9.36158-2.58063,12.54828-5.74186C143.66922,185.94833,146.42965,185.53188,146.30645,182.74368Z" fill="#cd4343"/>
            <path d="M82.428,205.17116c-4.15085-.17305-8.34281-.015-12.49772-.00522-2.2586.00522-6.31272.51157-6.745,3.36344-.43708,2.88186,2.61737,3.98754,4.85235,4.62721,1.04983.30116,2.13157.472,3.19606.71093.86182.194,1.69709.478,2.56459.65471a7.46006,7.46006,0,0,0,3.04809-.05768,1.22769,1.22769,0,0,0,1.01577-1.263,38.74528,38.74528,0,0,0,3.83842-.83973c1.83456-.50037,4.03548-1.18584,5.18572-2.81213a2.74832,2.74832,0,0,0,.15764-2.86982C86.20715,205.25132,83.86769,205.23184,82.428,205.17116Z" fill="#47bf84"/>
            <path d="M165.45619,202.32083c-.81051-1.79191-2.81965-2.61215-4.55457-3.22643-2.09782-.74461-4.62306-.28091-6.73186.194a19.61635,19.61635,0,0,0-6.61457,2.80692c-2.17837,1.48323-4.55909,2.81213-5.76249,5.29695a1.66263,1.66263,0,0,0,1.63044,2.44508,2.28531,2.28531,0,0,0,1.18054.89741,6.361,6.361,0,0,0,3.15824.12964,26.69277,26.69277,0,0,1,3.28972-.05393,15.094,15.094,0,0,0,3.47436-.6847c1.34692-.3244,2.76534-.51165,4.08671-.92219C161.66126,208.25745,167.53613,206.92035,165.45619,202.32083Z" fill="#47bf84"/>
          </g>
          <g>
            <g>
              <path d="M139.19029,32.81686c-1.52588-1.14541-3.70318-.82477-5.43886-.55284a17.02082,17.02082,0,0,0-5.82056,2.4908,16.603,16.603,0,0,0-3.85974,3.42641,17.44076,17.44076,0,0,1-2.46456-2.35595q-1.318-1.31137-2.63617-2.62565a34.973,34.973,0,0,0-5.383-4.01592,72.809,72.809,0,0,0-12.3292-6.35246,59.82357,59.82357,0,0,0-12.11825-4.05642c-4.84376-.8734-9.61479.24946-14.24537,1.6151a40.38232,40.38232,0,0,0-11.32692,5.89244A13.2836,13.2836,0,0,0,61.368,28.62114c-.75665.84571-1.73906,1.38957-2.52486,2.17537-.68355.68393-1.19519,1.59339-1.85819,2.31552-.93676,1.02022-1.90084,1.99112-2.802,3.0451-1.64279,1.92293-3.26686,3.86166-4.83325,5.84749a52.41618,52.41618,0,0,0-3.8635,5.7674c-1.299,2.17691-3.26279,4.36356-3.78863,6.88052a11.58556,11.58556,0,0,0-2.9219.33115c-2.0248.5813-2.78444,2.83162-3.60246,4.54551a21.20485,21.20485,0,0,0-.88169,3.24738c-.31612,1.09524-.65586,2.18067-.92741,3.28857a28.19736,28.19736,0,0,0-.4232,6.81163q.00219,2.00577.0056,4.01224a1.73335,1.73335,0,0,0-.52177-.57079c-.03966-.0652-.08653-.13938-.15165-.23373a2.52261,2.52261,0,0,0-.76371-.84126A17.05607,17.05607,0,0,0,29.041,73.76145a4.75742,4.75742,0,0,0-5.09244.58506c-2.908,2.66984-3.26387,7.578-2.11056,11.134A10.27631,10.27631,0,0,0,30.4688,92.5933c3.45564.388,7.14946-.221,8.43233-3.84747a6.14441,6.14441,0,0,0,.2-3.25558,30.41583,30.41583,0,0,0,1.80127,3.359c1.17494,1.92891,1.73307,4.1553,2.63309,6.22428,3.67134,8.44322,12.68834,12.991,20.30526,17.2212a52.20748,52.20748,0,0,0,6.05652,2.80093c2.44056.97535,4.63212,2.00086,7.2929,2.09452a65.543,65.543,0,0,0,12.6427-1.04277,10.44693,10.44693,0,0,0,.74837,3.57622,8.27509,8.27509,0,0,0,4.01707,4.07966,9.89811,9.89811,0,0,0,10.45336-1.22335c3.42833-2.88025.86635-7.52395,2.79342-10.86874,3.35637-1.5357,6.54683-3.41744,9.73315-5.27746,2.04021-1.19029,4.07966-2.28775,6.01908-3.65109A42.96725,42.96725,0,0,0,129.25,97.79283c.5836-.5836,1.3289-1.01731,1.96458-1.54314A12.37719,12.37719,0,0,0,132.848,94.033a30.043,30.043,0,0,0,3.56349-6.10369c.47076-1.027.9034-2.07128,1.3424-3.11183a18.42777,18.42777,0,0,0,1.34577-3.14321,55.04432,55.04432,0,0,1,1.63826-7.7945c.70487-1.95292.52622-4.19043.4367-6.22129a30.86957,30.86957,0,0,0-.87156-7.16373,33.18808,33.18808,0,0,0-3.262-7.48283c2.10158-3.46906,5.6752-6.70823,6.037-10.92942A11.14187,11.14187,0,0,0,139.19029,32.81686Z" fill="#ffe6c9"/>
              <path d="M93.58251,18.61007a15.20934,15.20934,0,0,0-2.75376-6.76891C86.77763,6.34945,79.25437,3.54553,72.56892,4.02795a15.298,15.298,0,0,0-13.04864,8.8642,20.46863,20.46863,0,0,0-7.4049,1,15.87612,15.87612,0,0,0-1.80127.74461c-.46293-.08914-.92326-.16554-1.375-.22322-3.43163-.433-8.10793.28313-9.33043,4.07061-1.04055,3.22413.43218,7.03785,2.78291,9.38259l-.00859.00445c-6.79552-1.76261-16.56312.07272-16.8856,8.5803-.32141,8.5016,10.44815,12.30327,16.59526,15.215,1.5252.72213,2.88708-1.14388,1.999-2.21434a14.84483,14.84483,0,0,0,4.51782,2.23459c4.7718,1.38581,10.48037-1.25625,11.60821-5.88346a10.711,10.711,0,0,0,8.24723-4.60028,5.80669,5.80669,0,0,0,.733-1.58434,11.5799,11.5799,0,0,0,8.85369.29586q.32586-.12806.64236-.27638a19.43708,19.43708,0,0,0,8.21579-3.50136C92.11907,32.32547,95.26649,24.83067,93.58251,18.61007Z" fill="#ecc547"/>
              <path d="M112.46069,86.24238a9.94091,9.94091,0,0,0-4.40813-.79409,53.65887,53.65887,0,0,0-6.07937.28467,37.532,37.532,0,0,0-12.007,3.46162,41.30693,41.30693,0,0,0-5.16992,2.94775,7.36882,7.36882,0,0,0-1.9833,1.59929c-.52361.66445-.94988,1.38888-1.43675,2.0788-.94612,1.34163.61091,2.59489,1.863,2.42406.15695-.02171.31312-.04265.4693-.06436a1.25451,1.25451,0,0,0,1.00565-.83083l.02248.018c1.11242.80153,2.64176.65992,3.87776,1.17157a34.41444,34.41444,0,0,0,5.90257,1.88028c3.23878.67572,6.87231.22245,10.13165-.21877,4.09761-.55353,10.47852-1.74842,11.32684-6.70225A6.95711,6.95711,0,0,0,112.46069,86.24238Z" fill="#f08e7e"/>
              <g>
                <path d="M65.36063,79.2412a9.40246,9.40246,0,0,0-3.35262-.62326,1.34757,1.34757,0,0,0-.643-.11314,13.91763,13.91763,0,0,0-4.95084.83451,14.42858,14.42858,0,0,0-4.75569,3.48187c-2.77363,2.97092-2.43764,7.18843-.34765,10.41256,1.95185,3.01142,5.64528,4.89991,9.04324,5.77185,3.807.97612,7.67084-1.09893,9.72264-4.30956C73.47086,89.38858,71.34711,81.57014,65.36063,79.2412Z" fill="#f7bfa7"/>
                <path d="M136.80512,64.63591a11.42676,11.42676,0,0,0-3.411-3.65639,15.36664,15.36664,0,0,0-4.65613-2.64215c-3.12073-.89066-7.061,1.60689-8.36674,4.49013a8.33546,8.33546,0,0,0-2.12144,4.59353,9.59119,9.59119,0,0,0,2.44953,8.28666c4.467,4.568,12.20033,2.99263,15.7833-1.72525C138.5599,71.24526,138.346,67.53564,136.80512,64.63591Z" fill="#f7bfa7"/>
              </g>
            </g>
            <path d="M122.49048,117.45006c-.62663-1.9948-1.88849-3.78219-2.25554-5.75613-.409-2.2046-.948-3.84363-3.03167-4.97255-3.03612-1.64578-8.16784-1.21429-9.18215,2.6818a7.10293,7.10293,0,0,0-.05093,2.35894c.09888,1.18361.05132,2.37988.05209,3.56725.00038,1.42033.37717,3.27507-.345,4.574-1.03487,1.86079-6.73147,3.28481-8.56941,3.26233-2.97659-.03444-2.77846-2.50047-4.8235-4.61071a11.15856,11.15856,0,0,0-3.986-3.14627c-1.65475-.66522-3.80773-.36329-5.54863-.36406-.01158,0-.02324.00222-.03559.00222a1.48383,1.48383,0,0,0-2.11056,1.12447c-.31842,2.09222.51571,3.88935.91352,5.90739a28.04985,28.04985,0,0,1,.5704,6.65661c-.13815,3.4159.86036,7.33448,4.94148,7.63034,1.69073.12365,3.46016-.09213,5.16064-.09358a47.21308,47.21308,0,0,0,6.70861-.32363,44.77637,44.77637,0,0,1,6.24568-.17459,19.59216,19.59216,0,0,0,6.55573-1.35958,8.41178,8.41178,0,0,1,2.56574-.60753,5.19679,5.19679,0,0,0,2.43979-.58958,9.86962,9.86962,0,0,0,3.56387-4.59576,15.329,15.329,0,0,0,1.5851-5.65947C123.931,121.072,123.04186,119.20454,122.49048,117.45006Z" fill="#47bf84"/>
            <path d="M120.26455,83.32684c-.25176-2.65634-1.81439-4.86546-2.42077-7.41019a3.75335,3.75335,0,0,0,.84088-1.45853.85328.85328,0,0,0-1.03641-1.03595c-1.59369.26518-3.06082,1.98882-4.34147,2.91922-1.53379,1.114-3.14359,2.11478-4.768,3.08936a45.26206,45.26206,0,0,1-10.09683,4.89461,42.87079,42.87079,0,0,1-11.9063,1.633,32.06514,32.06514,0,0,1-5.19991-.53857c-.81089-.13109-1.59485-.52292-2.40351-.65248a.55945.55945,0,0,0-1.05244.01795l-.003.00077a.16611.16611,0,0,0-.06444.2862c-.69628,3.11176-.88284,6.25128.49139,9.19374a14.70407,14.70407,0,0,0,6.31456,6.1547c5.54786,3.16944,12.44641,3.62417,18.55616,2.07726a35.99583,35.99583,0,0,0,9.39709-3.34556c2.741-1.58733,4.71788-4.40544,6.18239-7.15168A14.71649,14.71649,0,0,0,120.26455,83.32684Zm-3.91711,6.691a15.46241,15.46241,0,0,1-4.87552,6.2311c-2.38594,1.61732-5.29058,2.34091-8.04472,3.04586-5.37665,1.37462-10.85448,1.53862-16.0293-.74614a14.9036,14.9036,0,0,1-6.203-4.85795c-1.66488-2.326-1.5963-5.0422-2.02142-7.71656,5.86321,3.40394,13.65135,2.62044,19.97411.90792,3.75-1.01577,7.44279-3.13722,10.76319-5.10441a48.917,48.917,0,0,0,4.94631-3.42787c.15549-.12059.321-.24347.49293-.36782a4.28891,4.28891,0,0,0,.28988.88545,22.015,22.015,0,0,1,1.38812,3.51708A11.33309,11.33309,0,0,1,116.34744,90.01782Z"/>
            <path d="M146.42106,169.52267a20.22489,20.22489,0,0,0-1.4132-6.02054c-1.99749-4.57551-3.23648-9.40653-5.16133-14.00152-2.008-4.795-3.61558-9.74742-5.45236-14.60836-1.77012-4.68566-3.7624-9.23194-5.246-14.02476-.70564-2.27724-1.33526-4.577-1.95668-6.87753-.30821-1.14242-.61014-2.287-.91314-3.43017q-.22471-.85054-.44982-1.70047c-.0191-.07111-.57232-1.46222-.372-.98279a11.61956,11.61956,0,0,0-1.51546-3.33881c-1.15883-1.36257-2.84358-1.11243-4.08449-.05914-1.32514,1.12516-.5536,3.332-.15242,4.67139a28.89449,28.89449,0,0,0,2.22784,5.5359c1.03641,1.94019,1.16259,4.27665,1.40384,6.42663a10.80023,10.80023,0,0,0,.591,3.35968,11.85031,11.85031,0,0,1,.791,2.28108c.90079,3.59195-2.18734,4.9905-5.12689,5.631-1.89447.41277-3.77283.88468-5.67106,1.28395-1.14917.24271-2.30163.46746-3.45081.7094a18.29138,18.29138,0,0,1-3.47021.7476,60.74845,60.74845,0,0,0-6.61687.12135,59.25034,59.25034,0,0,1-6.63406.39934c-2.33385.00522-4.66771.015-7.00187.01642a6.931,6.931,0,0,1-1.0282-.03743.32239.32239,0,0,0-.036-.00453c-.058-.9251-.00407-1.87422-.00667-2.80239-.00453-2.00309-.01764-3.99943-.19668-5.99584-.18617-2.084-.77606-4.05941-.82362-6.15386-.03782-1.663-.1281-3.69612-2.10089-4.21751-1.91319-.50489-4.1418-.16853-6.08613-.05093a1.70119,1.70119,0,0,0-.14866,3.386,9.1758,9.1758,0,0,0,.31159,1.70346,71.18328,71.18328,0,0,1,.6386,11.95125,69.45453,69.45453,0,0,1-.78948,12.27105c-.36674,2.03906-.62855,4.12684-.951,6.18163a40.50552,40.50552,0,0,0-.20826,6.37493c-.11276.35432-.22169.71239-.33967,1.06372a60.06608,60.06608,0,0,0-1.94655,6.419,38.07517,38.07517,0,0,1-1.93873,7.28362c-.78994,1.78884-1.73453,3.96276-.75473,5.87817.86972,1.70124,2.60088,1.83832,4.30135,1.75072,1.26116-.0652,2.52754-.09289,3.79653-.10187.7453.22023,1.49106.4367,2.24357.63668a21.04312,21.04312,0,0,0,5.10364.88023c1.7083.01649,3.30728.45772,5.00177.56711,1.62706.10486,3.20726.44046,4.843.44123,1.92178.00146,3.847-.02854,5.76732.01941,1.44427.036,2.85524.43079,4.30212.4772,2.02111.0652,4.06133-.00222,6.08275-.06513a48.22707,48.22707,0,0,0,10.31291-1.57015c3.36052-.84049,6.58956-2.20989,9.97624-2.89528,2.24211-.454,3.96545-1.893,5.973-2.84888a37.16493,37.16493,0,0,0,6.42027-2.16939C146.3053,173.17837,146.645,171.37073,146.42106,169.52267Z" fill="#b9ffff"/>
          </g>
          <path d="M177.994,58.652c-.05324.44943-.436.65992-.74837.90562-.35132.27569-.4907.8892-.66974,1.27574-.41276.89373-.83789,1.77243-1.21614,2.68257-.20865.50344-1.22856,1.15661-1.64616,1.51768a4.24082,4.24082,0,0,1-.44874.33637c.47306-2.505,1.0147-5.676.44008-8.184a.9383.9383,0,0,0-.52737-1.38359,4.68193,4.68193,0,0,0-.44683-.14605,1.11113,1.11113,0,0,0-1.33526.75811,24.10642,24.10642,0,0,0-.81088,4.2452c-.26,1.44872-.59779,2.89076-.80605,4.34707a1.65379,1.65379,0,0,0-.02769.87939c-.00675.02179-.01649.04273-.02248.06374a10.72486,10.72486,0,0,1-1.623-2.35748q-.55057-1.01911-1.057-2.06231c-.31573-.64719-.44606-1.448-.82254-2.05479a8.2247,8.2247,0,0,1-1.548-3.74629c-.07234-1.28847-2.08294-1.29591-2.00984,0a15.66867,15.66867,0,0,0,1.24651,4.72087c.81541,2.1035,1.00342,4.849,2.51995,6.64533.99146,1.17533,1.75854,2.46234,3.23993,2.99048q-.01519,1.65172-.024,3.30353a51.25643,51.25643,0,0,1-.72213,9.93988A22.79442,22.79442,0,0,1,158.775,98.09092a34.32108,34.32108,0,0,1-16.46048,5.16585,39.15883,39.15883,0,0,1-9.7399-.43294,48.27817,48.27817,0,0,1-6.12172-1.8196,47.03041,47.03041,0,0,0,12.85956-15.77318,32.53418,32.53418,0,0,0,1.94432-23.91371,45.93546,45.93546,0,0,0-2.95036-6.98016c1.46559-.83305,2.47952-2.70727,3.30951-4.06394a46.3626,46.3626,0,0,0,2.95527-6.22359c1.608-3.81141.56895-8.79071-2.00838-11.91528A9.52473,9.52473,0,0,0,131.09655,29.783a12.73742,12.73742,0,0,0-5.33024,5.11791c-1.40722-1.65706-2.96049-3.17918-4.52043-4.70591l-.00828-.00675a27.84035,27.84035,0,0,0-2.12069-2.18588,44.56505,44.56505,0,0,0-6.05207-4.68113,57.59017,57.59017,0,0,0-13.26327-6.31126q-.9579-.32586-1.91288-.62019A19.197,19.197,0,0,0,96.31226,11.964C93.17381,5.64228,85.25842-.53406,77.89916.03673a10.47762,10.47762,0,0,0-8.49554,5.4542c-.08622.1581-.16446.31987-.24125.48173a18.92464,18.92464,0,0,0-8.89035.32056,10.73377,10.73377,0,0,0-4.32275,2.5695,22.12418,22.12418,0,0,0-12.47786.827,17.5322,17.5322,0,0,0-9.03832,7.89706c-1.8904,3.44291-1.8308,7.39815-.85024,11.08376a10.296,10.296,0,0,0-4.722,2.25032,6.76347,6.76347,0,0,0-2.15888,5.876c-2.73128,2.55293-2.47354,6.67225-1.04577,10.15489a13.65924,13.65924,0,0,0,4.05189,5.80928A11.12969,11.12969,0,0,0,35.68183,54.905c-.62326,1.29975-1.19144,2.63087-1.68475,3.98224a42.9485,42.9485,0,0,0-2.31284,10.96394c-.00222.02248.00184.04342.00077.06589-.16669.878-.30116,1.76268-.39221,2.65557-2.021-1.66-4.229-2.77991-7.07375-1.4435-3.52268,1.65475-5.12052,6.50227-5.48987,10.035A12.49546,12.49546,0,0,0,23.8441,92.95284c1.91809,1.35889,5.03514,1.7027,7.309,1.71773,2.00385.01342,3.5493-.90869,5.18611-1.76345A53.59576,53.59576,0,0,0,51.39432,109.771c6.24752,4.47218,13.62511,6.70378,21.17123,7.59368-1.66373,1.72448-4.0545,2.59566-6.21607,3.5493a57.94381,57.94381,0,0,1-9.64363,3.16722,49.85329,49.85329,0,0,1-20.05167.9304,41.18911,41.18911,0,0,1-17.71558-8.00345,37.99634,37.99634,0,0,1-6.87124-6.96221,27.80871,27.80871,0,0,1-2.46188-3.69459c2.2102-.63975,3.61742-3.38668,4.247-5.39882a12.08373,12.08373,0,0,0,.03183-7.43259.78862.78862,0,0,0-1.50686,0c-.71385,1.82106-.89365,3.84585-1.5199,5.70818a8.59487,8.59487,0,0,1-1.40607,2.60908c-.13409.1663-.27753.31987-.42473.472a1.5034,1.5034,0,0,0,.02017-.2997c-.015-.36552-.006-.72957-.01534-1.09593a1.54786,1.54786,0,0,0-.5869-1.17909,10.271,10.271,0,0,1-.16032-1.34984A11.06771,11.06771,0,0,0,7.90309,94.884c-.31351-.79109-1.65775-1.30121-2.0956-.27347a11.60234,11.60234,0,0,0-.66483,6.30751c-.03667.01649-.07418.03368-.10977.05393-1.62737-1.1079-1.902-3.91781-2.33194-5.643a1.318,1.318,0,0,0-2.52524,0c-.72735,3.32.79631,8.71132,4.70438,9.31064a2.03078,2.03078,0,0,0,1.15661-.1169,17.80873,17.80873,0,0,0,2.38256,4.92614A43.0257,43.0257,0,0,0,15.5039,117.949a41.89517,41.89517,0,0,0,19.25052,9.95261,52.8478,52.8478,0,0,0,22.29937-.43593,59.56781,59.56781,0,0,0,11.0441-3.5605c2.67659-1.15439,6.24345-2.33723,7.3914-5.26174-.29471,5.42206-.90562,10.85156-1.43452,16.24209a166.96926,166.96926,0,0,1-3.05821,19.228c-.70526,3.23993-1.57275,6.43707-2.3462,9.66051-.75512,3.147-1.06786,6.41007-1.9701,9.51215a32.1093,32.1093,0,0,0-1.09264,5.5711.905.905,0,0,0-.09773.27868,2.5535,2.5535,0,0,0,.03068,1.04722c-.02017,2.45628.64466,4.48192,3.03205,4.04292a1.38789,1.38789,0,0,0,1.021-1.22028q.23772.07974.45657.15656a41.03537,41.03537,0,0,0,7.94393,1.74765,6.814,6.814,0,0,0-.4008,1.42179,38.509,38.509,0,0,0-.18464,4.20922c-.00974.69367-.391,1.21506-.455,1.93344a2.48818,2.48818,0,0,0,1.50118,2.11922,8.00866,8.00866,0,0,0,2.41586.51318,17.90913,17.90913,0,0,1,3.04548.48464,32.10747,32.10747,0,0,0,4.40361.72743c-.15127,1.66-.21348,3.34549-.2131,4.99426.00077,1.26446.10785,2.54994.04234,3.81893a4.1795,4.1795,0,0,0-.47045-.09589c-1.02513-.1416-2.05256-.17827-3.07846-.34611a36.61142,36.61142,0,0,0-5.95012-.23672c-2.21473,0-4.43206.03452-6.64609-.012-2.15513-.045-4.27136-.56634-6.4307-.61129-2.99938-.0629-6.22021,1.4705-5.27332,4.94938.64458,2.36492,2.96233,4.75608,5.01412,5.96961,5.88576,3.47965,13.481,4.06915,19.57339.76409a35.07305,35.07305,0,0,0,5.63332-3.63836c1.14349-.94167,2.2896-3.32531.83-4.25049a19.8347,19.8347,0,0,0-.07939-5.83176c-.1775-1.68022-.19929-3.37471-.30492-5.061a46.89225,46.89225,0,0,0,6.85513.89895c2.0518.10639,3.66912.49891,4.8976-1.5087.98731-1.61356.60193-3.84141.79969-5.62879.15058-1.36411.21125-2.72.31911-4.07437,1.31394.00821,2.62787.006,3.941-.015a114.46039,114.46039,0,0,0,12.84682-.97013c.79593-.10264,1.584-.227,2.36906-.36107.22767,1.04577.50451,2.08256.70334,3.14252.206,1.09747.39221,2.19862.59856,3.29455.19476,1.02552.5701,2.02188.742,3.03014a1.68846,1.68846,0,0,0,1.62821,1.23907,16.8046,16.8046,0,0,0,4.45906-.23826,23.82332,23.82332,0,0,0,4.58341-1.72,11.778,11.778,0,0,0,.47038,2.129,41.258,41.258,0,0,0,1.16528,4.67968c.82247,2.10795.52775,4.75309,3.46086,5.001a6.25922,6.25922,0,0,0,3.14474-1.02851c1.27459-.68317,2.435-1.43077,3.77138-2.04206,3.29685-1.50648,7.02028-2.054,10.571-2.60985a20.87247,20.87247,0,0,1,4.12155-.30867c1.65069.06965,1.99672,1.94019,1.95108,3.19268-.0955,2.64583-2.52678,3.89986-4.78868,4.4227a50.3489,50.3489,0,0,1-10.47922,1.72072,19.86629,19.86629,0,0,1-5.10441-.7858c-1.34132-.33713-2.25707-1.49674-3.51109-2.07726a1.32043,1.32043,0,0,0-1.79184,1.79183,6.81067,6.81067,0,0,0,2.57242,3.0991c1.457.89066,3.29716.92288,4.89768,1.39632,1.9454.57531,4.49535.17973,6.46629-.08392a56.00121,56.00121,0,0,0,6.11527-1.254c2.94438-.7341,5.90333-1.2772,7.75177-3.98224,1.58288-2.31621,2.23567-6.72319-.03145-8.87686-2.50875-2.38295-5.36475-2.141-8.57133-1.633A45.81836,45.81836,0,0,0,146.515,199.388a40.70465,40.70465,0,0,0-4.299,2.28031,4.96574,4.96574,0,0,1-1.04469.49139,3.09137,3.09137,0,0,1-.118-.36107c-.09773-.35953-.16255-.73111-.24271-1.09593-.30714-1.40085-1.28886-2.76795-1.45178-4.17555a10.17393,10.17393,0,0,0-1.254-3.75672c2.14845-.83528,4.38151-1.43905,6.47228-2.44662,2.36078-1.13866,4.89615-3.26387,4.3216-6.18684a11.52052,11.52052,0,0,0-2.44209-4.56055c-.56181-.73341-1.10046-1.478-1.6342-2.22408.08653-.06444.17382-.12734.25767-.19852a12.181,12.181,0,0,0,1.54168-1.96489,5.19021,5.19021,0,0,1,1.663-.91544q.28651-.145.57117-.29065a1.11388,1.11388,0,0,0,1.75555-.54685,3.02056,3.02056,0,0,0,.13516-.45243,1.65843,1.65843,0,0,0-.19622-2.62865c-.121-.47122-.26034-.93339-.37418-1.37086-.424-1.63228-.8757-3.25788-1.32406-4.88341-.869-3.153-1.8117-6.28426-2.65971-9.44327-1.76376-6.5756-3.929-13.03814-6.164-19.46623-2.14017-6.15539-4.59729-12.16174-7.24949-18.1134-1.32966-2.986-2.802-5.91192-4.41894-8.75328-.72144-1.2683-1.55519-2.46986-2.32035-3.71185-.36483-.59326-.73418-1.18131-1.12892-1.75517-.03935-.05692-.08238-.11161-.12588-.16477.76294.409,1.50947.84648,2.30348,1.21054a27.49846,27.49846,0,0,0,5.318,1.77388,37.91454,37.91454,0,0,0,10.4088.77084,36.69373,36.69373,0,0,0,18.14331-5.59059,26.27568,26.27568,0,0,0,11.337-16.04365A42.66532,42.66532,0,0,0,173.29,74.60724q-.01013-2.56762-.02017-5.1344c1.9866-.53934,3.38553-2.20982,4.783-3.74928.79554-.87716,1.03756-2.56866,1.375-3.6886.3626-1.20532,1.03679-2.07872,1.10345-3.38292C180.61776,56.98455,178.18242,57.07138,177.994,58.652ZM132.88769,32.68952c3.33766-1.32522,6.21684.36329,7.769,3.344,1.46153,2.80385.76785,5.76357-.45058,8.47613a38.05346,38.05346,0,0,1-2.2211,4.26913c-.43747.71462-1.06,1.37462-1.58618,2.072-.42251-.73188-.85361-1.45853-1.287-2.17691-1.79521-2.974-3.66651-5.90525-5.64114-8.76379a1.57715,1.57715,0,0,0-1.18691-1.69372c-.07716-.10793-.15357-.21578-.23074-.32287A8.94589,8.94589,0,0,1,132.88769,32.68952Zm-39.0782-11.549a17.43964,17.43964,0,0,1-6.76331,11.24408c-2.08816,1.50947-4.94409,2.53575-7.16787.77982a13.944,13.944,0,0,1-2.93947-3.40018,12.58217,12.58217,0,0,0-.62924-4.49166,7.186,7.186,0,0,0,7.58171-3.86388,6.71716,6.71716,0,0,0,.47682-4.46167A49.21231,49.21231,0,0,1,93.863,18.706,10.49191,10.49191,0,0,1,93.80949,21.14053Zm-18.03515-.857A9.99658,9.99658,0,0,1,73.442,16.89687a16.89362,16.89362,0,0,1,3.89871-.27193c.77575.00222,1.55289.02248,2.33087.05017.012.02171.02546.04119.03781.06367a2.89424,2.89424,0,0,1-.35094,3.53956A2.61094,2.61094,0,0,1,75.77434,20.28354ZM77.72427,4.45943c3.74215-.74837,7.90649,2.04137,10.54933,4.35228A17.65324,17.65324,0,0,1,92.92742,15.072a51.13925,51.13925,0,0,0-9.31256-1.19182c-.179-.006-.36521-.0135-.54946-.01948A12.72471,12.72471,0,0,0,81.123,11.4801a20.18427,20.18427,0,0,0-7.47531-4.31784A6.10451,6.10451,0,0,1,77.72427,4.45943Zm-5.3231,6.89778A16.54634,16.54634,0,0,1,77.201,13.869a16.74744,16.74744,0,0,0-4.47141.87125A12.30581,12.30581,0,0,1,72.40116,11.35721Zm-4.3134-1.12363a18.20679,18.20679,0,0,0,.26334,4.4721c-.76486-.60822-1.53754-1.16558-2.29865-1.663a29.85423,29.85423,0,0,0-4.69279-2.49456A13.19543,13.19543,0,0,1,68.08777,10.23359ZM57.63885,13.68992a26.89281,26.89281,0,0,1,8.88667,4.995,17.34432,17.34432,0,0,1,6.01233,9.41627,5.832,5.832,0,0,1-4.01369,6.94127c-3.71975.99031-7.07236-2.12222-9.008-4.89991a19.8724,19.8724,0,0,1-3.214-10.65457A11.10059,11.10059,0,0,1,57.63885,13.68992ZM37.25419,22.17134c.70833-3.98,4.13842-7.14347,7.77724-8.55706a16.96622,16.96622,0,0,1,8.22069-.91544,15.08423,15.08423,0,0,0-.66483,1.66151c-1.23416,3.73586-.62586,7.97875.36521,11.68983a20.81771,20.81771,0,0,0,5.87894,9.9039A12.51868,12.51868,0,0,0,66.17458,39.391a49.55878,49.55878,0,0,1-8.487,1.43529c-1.10115-3.568-3.93468-6.46031-6.96781-8.48066a25.78667,25.78667,0,0,0-10.69569-3.83688,21.227,21.227,0,0,0-2.22263-.188A12.413,12.413,0,0,1,37.25419,22.17134Zm3.71031,11.62908c-.27753-.32133-.54195-.65847-.79739-1.00381a23.70064,23.70064,0,0,1,5.58123,1.73645A15.08225,15.08225,0,0,1,52.945,40.70947c-.709-.08614-1.42-.20228-2.13234-.36038C46.97837,39.49817,43.4718,36.71,40.96451,33.80042ZM47.01465,51.143a11.143,11.143,0,0,1-5.59243-1.221A19.2836,19.2836,0,0,1,32.627,41.75148a14.56187,14.56187,0,0,1-1.263-3.1485c3.45341-1.05474,7.31729,1.31992,10.03768,3.17918,1.35061.92441,2.54242,2.02779,3.83427,3.02415a10.9802,10.9802,0,0,1,3.60844,4.3575C49.483,50.80139,48.5466,51.00443,47.01465,51.143Zm6.97794-6.51723a15.90144,15.90144,0,0,1-.92211,4.661,8.04292,8.04292,0,0,0-.45994-1.63527,12.11946,12.11946,0,0,0-2.153-3.45042A23.17721,23.17721,0,0,0,53.99259,44.62574ZM35.15446,32.81011l.033-.006a19.41565,19.41565,0,0,0,1.33043,2.12444,12.24044,12.24044,0,0,0-5.23067-.28689C32.02245,33.467,33.85363,33.08956,35.15446,32.81011Zm-3.31288,17.186a10.3414,10.3414,0,0,1-2.72116-4.39125,11.68464,11.68464,0,0,1-.65325-2.59719c.01243.02923.02478.06.03789.08921a21.497,21.497,0,0,0,7.18843,8.40119A7.20285,7.20285,0,0,1,31.84157,49.9961Zm.70073,40.61505c-1.67194.54831-3.66912.0359-5.29841-.436-3.395-.98356-4.76988-4.44142-4.90435-7.70306a11.16335,11.16335,0,0,1,2.687-7.92406c1.77987-1.96412,4.13957-.43747,6.11343,1.20156.00192.21279.003.42627.009.64128a33.02478,33.02478,0,0,0,3.37249,13.006c.0764.16477.1607.32731.23895.49063C34.03459,90.104,33.31468,90.35794,32.5423,90.61116Zm55.79834,118.3962a13.4113,13.4113,0,0,1-1.70761,1.236c-1.339.88767-2.74471,1.67876-4.16128,2.43381-4.98045,2.65565-11.20887,1.37837-15.82-1.34685a7.72554,7.72554,0,0,1-2.89574-3.64519c.02923-.00974.06-.02017.103-.03667a6.259,6.259,0,0,1,2.27809-.17229c1.76038.03743,3.50987.41123,5.262.56557,3.38146.29663,6.88543.04572,10.27886.04572a31.78856,31.78856,0,0,1,3.87025.367c.97121.11905,1.94809.30484,2.92451.43294C88.42824,208.92719,88.38329,208.96762,88.34064,209.00735Zm12.47824-21.24993c-.04089,1.75141-.58582,3.44743-.593,5.213a5.61631,5.61631,0,0,1-.2045,1.693c-.70863.2569-1.86225-.15664-2.60648-.19407a43.028,43.028,0,0,1-6.40416-.91613c-1.7274-.34987-3.49568-.45849-5.2329-.75589a14.33135,14.33135,0,0,1-2.56268-.70265,9.47288,9.47288,0,0,0-2.36454-.11606,4.58361,4.58361,0,0,1-.53412-.06819,8.10423,8.10423,0,0,0,.08952-1.99565c-.01611-1.04577-.07119-2.08777-.11836-3.132a6.54186,6.54186,0,0,1,.21164-1.51093l.0326-.02248c.15994.02025.32133.04119.48127.06213,4.31408.56112,8.7084.61881,13.05355.8293q3.40355.16523,6.81125.24125C100.847,186.836,100.8297,187.29449,100.81888,187.75742Zm44.20171-2.05778a8.58384,8.58384,0,0,1-2.88516,1.8331c-1.97578.92664-4.119,1.42923-6.11758,2.30049a53.31219,53.31219,0,0,1-5.31382,2.21358,9.52927,9.52927,0,0,1-2.77769.33414c-.38615-1.28326-.84494-2.568-1.18951-3.8602-.34466-1.2907-.87647-2.59712-1.28664-3.91482,2.59152-.54087,5.14484-1.21353,7.721-1.92891a43.56748,43.56748,0,0,0,5.19393-2.00385c1.16712-.49147,2.35073-.90271,3.47436-1.45332.77721,1.40162,1.95706,2.69009,2.786,3.99053C145.14271,184.02165,145.72777,184.89436,145.02059,185.69964ZM125.3191,108.06908a81.021,81.021,0,0,1,4.33955,9.01846c2.54027,6.05652,4.879,12.152,6.997,18.36661,2.196,6.44673,4.29429,12.92875,6.05245,19.50964.84533,3.16353,1.73637,6.30827,2.63609,9.45677.46178,1.61732.91168,3.23832,1.36786,4.85795.1416.5049.27194,1.07346.42849,1.64425q-.88379.436-1.76905.872c-1.28955.636-1.82927,1.80756-2.7938,2.80239a1.01766,1.01766,0,0,0-1.37868.69367c-.02179.07939-.03973.158-.05623.23672-.12994.07042-.25321.13854-.36107.20374a15.4026,15.4026,0,0,1-2.39077,1.075c-1.71206.66813-3.3777,1.442-5.10886,2.063-1.62522.58206-3.32531.89741-4.96994,1.41734a32.89583,32.89583,0,0,1-3.71936.91613,1.15761,1.15761,0,0,0-1.9731.34534c-.05093.00974-.10263.01795-.15357.02547a103.70329,103.70329,0,0,1-12.23707,1.16858c-2.24656.09067-4.49427.11391-6.74191.09589a1.14763,1.14763,0,0,0-1.60535-.01948c-5.349-.08837-10.69876-.38953-16.038-.606A93.78673,93.78673,0,0,1,74.393,180.96228c-1.41167-.23373-2.75291-.59856-4.12975-.95356-.19254-.05024-.41093-.0952-.636-.14613.03889-.454.08384-.90792.094-1.36188.06183-2.73044,1.20793-5.43395,1.61694-8.139.92779-6.13368,2.71325-12.12354,3.80251-18.23475A151.29227,151.29227,0,0,0,77.24,134.272c.17451-3.02339.32026-6.06173.38055-9.08964.04978-2.487-.109-4.95007-.22736-7.42216q2.25684.09562,4.55234.01948c.20144,1.23378.68163,2.50353.8596,3.65938a39.91134,39.91134,0,0,1,.50858,9.80434c-.19246,2.23306.05661,5.08193,2.52639,5.91568,2.19938.74238,4.99763.34688,7.27235.38055,6.40561.09589,13.19508.36107,19.36957-1.64731,1.44618-.47038,2.926-.8352,4.38266-1.27121,1.37684-.412,3.38146-.88621,4.4774-1.86148a33.76624,33.76624,0,0,1,3.00168-1.76115,1.30278,1.30278,0,0,0,1.5874-.87724c.52062-1.6645-.19292-3.96429-.48434-5.65725a31.57573,31.57573,0,0,0-1.67577-6.267c-.712-1.80311-1.29446-3.67288-2.07688-5.446a28.04263,28.04263,0,0,0-1.52665-2.88408,5.86236,5.86236,0,0,1-1.19412-2.49678,1.1022,1.1022,0,0,0-.44644-.81349q2.23268-1.34163,4.365-2.84512c.1469.215.29142.43371.41952.666C123.98867,105.60375,124.62205,106.854,125.3191,108.06908ZM95.42528,124.24076a9.38475,9.38475,0,0,0,14.5364-6.40109c.28283-1.63535.65624-4.78308-.28129-6.68806,2.40427-1.075,4.79205-2.272,7.12215-3.59049a10.45618,10.45618,0,0,0,1.51913,3.81448,50.72937,50.72937,0,0,1,2.438,6.54944,38.75931,38.75931,0,0,1,1.68843,6.21308c.22138,1.28625.19891,2.91024.46631,4.34853a23.71547,23.71547,0,0,0-2.85179,1.59791c-2.17806,1.40975-4.78492,1.94686-7.26444,2.64805a60.2278,60.2278,0,0,1-16.74446,2.0218c-2.42031.00153-4.85081-.10033-7.26851.02547a5.11928,5.11928,0,0,1-2.21626-.16477c-1.04615-.44721-.78281-2.46457-.75174-3.37172a37.66566,37.66566,0,0,0-.34342-7.497,16.691,16.691,0,0,0-.7473-3.77851A12.66684,12.66684,0,0,1,84.004,117.677c2.15-.1393,4.30741-.37825,6.45248-.71983a1.16446,1.16446,0,0,0,.1393.23895C92.37343,119.55134,92.87649,122.48935,95.42528,124.24076Zm-2.55784-7.70383a73.6184,73.6184,0,0,0,12.34676-3.529q.85008-.328,1.70239-.67718a5.04477,5.04477,0,0,1,.28275,1.19113,34.53467,34.53467,0,0,1-.04564,3.51555,6.77434,6.77434,0,0,1-4.06877,5.75912,7.13619,7.13619,0,0,1-7.263-1.20754C94.402,120.30492,93.89372,118.17074,92.86744,116.53693ZM123.35007,98.061a73.03748,73.03748,0,0,1-19.23817,10.9489,69.06622,69.06622,0,0,1-26.52133,4.69916,44.24857,44.24857,0,0,1-23.36309-6.79737c-6.75886-4.43175-12.24827-11.331-15.97768-18.4325a26.6162,26.6162,0,0,1-2.64023-18.28944c1.04346-4.76659.81273-9.17656,2.52371-13.845a13.51341,13.51341,0,0,1,.72213-1.81208,2.47629,2.47629,0,0,1,.69559-.73042,15.2528,15.2528,0,0,0,8.436,1.41435,6.71312,6.71312,0,0,0,3.90438-1.71021c-.1281,1.48024,1.727,2.81965,2.8893,1.48024a15.54471,15.54471,0,0,0,3.47957-10.4763,59.377,59.377,0,0,0,8.93868-1.67048c1.82336-.46148,1.54054-2.81367.16745-3.3942a11.63157,11.63157,0,0,0,2.30386-.24869,8.94828,8.94828,0,0,0,5.82539-4.45791,8.52968,8.52968,0,0,0,4.34185,3.37241c4.34185,1.39863,8.85745-1.03825,11.94113-3.99943A22.56451,22.56451,0,0,0,97.776,23.6815a15.127,15.127,0,0,0,.48986-3.59118q.313.10781.62625.21724a58.87227,58.87227,0,0,1,11.97411,5.76134,48.81506,48.81506,0,0,1,5.40818,4.04215c1.36372,1.15439,2.65074,2.56275,4.098,3.67142.8487,1.28019,1.6536,2.58738,2.56567,3.82346.56634.76708,1.11657,1.54314,1.66112,2.32519.02324.20151.05285.40149.0952.60078a1.56428,1.56428,0,0,0,1.05167,1.07123q.77541,1.14948,1.53494,2.31176c2.62266,4.02865,5.16509,8.148,7.37345,12.42086a32.28682,32.28682,0,0,1,3.92234,12.7985,29.98609,29.98609,0,0,1-1.88511,11.67633C134.20278,87.76006,128.98937,93.47721,123.35007,98.061Z"/>
          <g>
            <path d="M72.336,71.52839a1.48777,1.48777,0,0,0-.47421-.11913,2.15255,2.15255,0,0,1,.4446.11391Z"/>
            <path d="M74.85,74.06039a2.00016,2.00016,0,0,0-1.38666-1.90874c-.03145-.03667-.06106-.07487-.097-.11008a1.8458,1.8458,0,0,0-1.03042-.51318,1.94836,1.94836,0,0,1,.264.13332,1.62326,1.62326,0,0,0-.29364-.13854c-.09888-.01872-.20151-.03444-.30821-.04794-.24723-.033-.25506-.07042-.13639-.066a2.36522,2.36522,0,0,0-.3277-.02846,2.04914,2.04914,0,0,0-2.03047,2.03009c-.00713.64872-.02585,1.29975-.01757,1.94847a2.05852,2.05852,0,0,0,2.048,2.04881,4.27709,4.27709,0,0,0,.46485-.06444c.06137.00522.12243.009.18464.009a1.91263,1.91263,0,0,0,1.71359-1.027A3.42594,3.42594,0,0,0,74.85,74.06039Z"/>
          </g>
          <path d="M120.908,57.82052a2.03372,2.03372,0,0,0-1.4952-1.88473,1.54235,1.54235,0,0,0-1.10606-.44054,1.71146,1.71146,0,0,0-1.675,1.675c-.04495.40678-.09665.81434-.12918,1.22258-.00414.05845-.00944.11759-.01427.176a5.45515,5.45515,0,0,0-.10187.90194c-.00521.03743-.00713.05538-.00192.04119-.00222.08538-.00706.17006-.006.2569l.02286-.00368a1.91109,1.91109,0,0,0,1.39333,1.863,1.87208,1.87208,0,0,0,.81917.03889,2.09321,2.09321,0,0,0,.34273.03,1.972,1.972,0,0,0,1.92815-1.92822A14.75589,14.75589,0,0,0,120.908,57.82052Z"/>
          <g>
            <path d="M96.48,149.6841c.00752-.13785.01235-.27561.01312-.41277a2.01242,2.01242,0,0,0-1.99826-1.99779c-1.51653.01718-3.55751.54079-4.04668,2.11846a2.84786,2.84786,0,0,0-2.91063-.1528,2.57821,2.57821,0,0,0-1.23194,2.39338,5.03909,5.03909,0,0,0,.26518,1.28548c-.05837-.20381.04948-.06221.06934.122q.05224.48545.14045.96561a6.03237,6.03237,0,0,0,.3142,1.10192,2.5417,2.5417,0,0,0-.52469,2.04436c.22882,1.53639,1.8634,3.05338,3.4762,2.4256a1.99612,1.99612,0,0,0,.99253-.85545H91.046a3.17112,3.17112,0,0,0,1.24053-.35063,1.8881,1.8881,0,0,0,2.97023-.827,5.54,5.54,0,0,1,.58053-.59779,1.74759,1.74759,0,0,0,.51686-1.60305,7.48417,7.48417,0,0,0,1.0664-2.33424A3.30822,3.30822,0,0,0,96.48,149.6841Z" fill="#ff3654"/>
            <path d="M86.57082,152.91806c.00936.03145.02179.07111.04012.12135C86.59629,152.99891,86.58432,152.95771,86.57082,152.91806Z" fill="#ff3654"/>
          </g>
          <path d="M130.88606,154.29114a2.26635,2.26635,0,0,0-1.80081-.848,2.13477,2.13477,0,0,0-1.06188.29065c-.57155-2.19785-1.40085-4.69908-3.78034-5.39728-3.21071-.94313-5.59773,1.29745-7.08879,3.83918a1.98958,1.98958,0,0,0,2.22332,2.89229,2.48441,2.48441,0,0,0,.33859-.07939,2.209,2.209,0,0,0,1.57459.83819.626.626,0,0,1,.28735.06674c.00146.02692.00338.05017.0056.08016a5.90751,5.90751,0,0,0,.37825,1.9319,4.02626,4.02626,0,0,0,3.58673,2.50054,4.12414,4.12414,0,0,0,1.26753-.34235,2.60836,2.60836,0,0,0,1.64463.12657c2.26344-.633,2.78858-1.88925,2.79863-3.90807A1.91138,1.91138,0,0,0,130.88606,154.29114Z" fill="#ffd154"/>
          <path d="M121.7777,165.19363c-.49254-.02025-1.07384-.06819-1.675-.09067a17.82172,17.82172,0,0,1-1.84169-.88989c-.167-.08246-.34534-.17083-.53-.26449a12.49152,12.49152,0,0,0-.79554-1.06594,1.7529,1.7529,0,0,0-.68209-.46294,5.16215,5.16215,0,0,0-.85169-.74315,2.75032,2.75032,0,0,0-2.1552-.35953,13.17639,13.17639,0,0,0-1.32513.51533,29.75438,29.75438,0,0,0-6.67678.40234,1.732,1.732,0,0,0-1.02406,2.51772c.06635.12281.1334.24646.19967.37a1.30841,1.30841,0,0,0,.33821.4,5.76,5.76,0,0,0,3.70732,3.97473,4.92174,4.92174,0,0,0,1.442.32816,2.15531,2.15531,0,0,0,.14866,2.85931,4.477,4.477,0,0,0,4.2149.97458q.40675-.16408.80828-.33706c.08461-.04948.17075-.09888.25621-.14912q.82247-.64159.05876-.03145a3.64214,3.64214,0,0,0,1.56524-.98578,3.80746,3.80746,0,0,0,2.94967-2.35,3.684,3.684,0,0,0,.13294-.5049,7.61757,7.61757,0,0,0,1.57874.08914c.0517.00376.10447.00821.15656.01051l-.00338-.021c.18464-.012.37158-.02846.56181-.05393C124.78122,168.9953,124.03439,165.28729,121.7777,165.19363Z" fill="#5cb854"/>
        </g>
        <path d="M130.23136,136.63546a3.58371,3.58371,0,0,0-1.778.421c-.00368-.12734-.00667-.25467-.00936-.38132a1.85788,1.85788,0,0,0-3.71369,0c-.00522.30116-.00821.60231-.00107.9027a2.8521,2.8521,0,0,0,.42512,2.42782,4.1842,4.1842,0,0,0,.96821,1.13421,2.40092,2.40092,0,0,0,3.02937,1.19029c-.02025.01273-.04119.024-.06106.036.05546-.01872.1011-.039.15281-.05768a2.0291,2.0291,0,0,0,.65171.23971,5.61457,5.61457,0,0,0,1.02927.1146,2.53169,2.53169,0,0,0,2.51811-2.51849A3.39586,3.39586,0,0,0,130.23136,136.63546Z" fill="#9a40a9"/>
      </g>
      <g>
        <path d="M280.6667,244.01433a12.202,12.202,0,0,1-3.0312.0088,9.39,9.39,0,0,0-2.65139-.7939c-2.35061-.3057-4.08791,2.2675-5.52981,3.709-4.0356,4.0341-10.1069,4.5839-15.2431,6.6376q-3.28935,1.314-6.57809,2.6299a32.81633,32.81633,0,0,0-5.98641.1836,26.51126,26.51126,0,0,0-8.0937,2.7276c-.1724.0888-.3457.1767-.5181.2646a27.77994,27.77994,0,0,0-5.7246,1.2686,25.72493,25.72493,0,0,0-6.9248,4q-.68625.53175-1.355,1.0683c-.3369.1612-.6719.3272-1.00439.502-2.45991,1.292-4.84861,2.7148-7.23091,4.1416-2.49909,1.497-4.7344,3.3896-7.2862,4.8418-2.3476,1.3359-4.5727,2.6836-6.8291,4.1709a19.54751,19.54751,0,0,1-7.9072,3.0976c-4.74559.8448-10.0034,2.3477-14.9263,1.6934a33.01151,33.01151,0,0,0-4.415-1.1133.28634.28634,0,0,1-.0405-.0078c-3.9204-1.2725-7.6924-3.0107-11.523-4.5518-2.2637-1.7646-3.8266-4.3007-6.3511-5.7041a30.23149,30.23149,0,0,0-3.9204-3.8066,59.09018,59.09018,0,0,1-4.8095-4.7285c-1.4082-1.6651-2.647-3.3692-4.1939-4.9307-.729-.7344-1.5517-1.5371-2.4136-2.2793a2.154,2.154,0,0,0,.003-.3691,4.08464,4.08464,0,0,0-1.9136-3.2637,5.73779,5.73779,0,0,0-2.2793-1.6894,1.9393,1.9393,0,0,0-1.084-.7178,5.35774,5.35774,0,0,0-4.5766,1.3506,7.52306,7.52306,0,0,0-6.4566,5.0527,6.09791,6.09791,0,0,0,1.1641,6.0166,50.47556,50.47556,0,0,0,4.9111,6.249c2.0088,1.9141,5.03961,2.9326,7.4942,4.1631a61.84627,61.84627,0,0,0,7.9501,3.7822c3.5748,1.1944,7.188,2.2784,10.7588,3.4834a51.47923,51.47923,0,0,0,10.3662,4.8301,39.183,39.183,0,0,0,5.8555,1.4463,27.22512,27.22512,0,0,0,4.90381,1.0898,25.48628,25.48628,0,0,0,5.46049,1.629c2.3833.2793,4.6928-.5079,7.08151-.5069a60.09573,60.09573,0,0,0,9.90429-1.2597,20.722,20.722,0,0,0,7.9995-2.5889,35.63978,35.63978,0,0,0,6.5957-5.2549c1.9151-1.9658,3.56551-4.1689,5.5088-6.1123a62.70878,62.70878,0,0,1,5.5523-4.8232c1.10641-.5313,2.2309-1.0284,3.3867-1.4737,3.1484-1.2109,6.1816-2.9092,9.28071-4.3818.98-.1445,1.96539-.2793,2.94879-.4385a70.02162,70.02162,0,0,0,11.4843-2.668,36.15773,36.15773,0,0,0,6.1685-.3466c1.7275-.2823,3.4287-.0664,5.1387-.5489,1.59671-.4502,3.2466-.8027,4.831-1.331,3.1363-1.0469,6.1421-3.1133,8.90771-4.8946,2.93559-1.8916,6.14849-3.2119,8.71879-5.6474A2.24659,2.24659,0,0,0,280.6667,244.01433Z" fill="#d5d5d5"/>
        <g>
          <path d="M276.5085,235.50463c-1.2421-2.125-4.0117-2.7403-6.0341-3.7891-2.1914-1.1377-4.3755-2.2315-6.6021-3.3008-2.438-1.1709-4.6318-2.7734-6.9365-4.1728-4.86569-2.9571-9.2022-7.2969-12.9131-11.5967-1.8389-2.1319-3.2808-4.542-5.0923-6.6914a76.09835,76.09835,0,0,1-5.2832-6.1836c-1.2886-1.9072-3.2744-3.6406-5.7002-3.7266-2.4585-.0879-4.7446,1.7354-6.3384,3.461-2.498,2.7041-6.1518,3.6972-9.2402,5.6474a77.15811,77.15811,0,0,1-11.63129,6.1153c-4.33261,1.7832-9.06061,2.4257-13.46291,4.0244-1.83009.6631-3.6363,1.3877-5.4639,2.0634a51.765,51.765,0,0,1-6.6489,1.6143c-4.26029.9521-8.3804,2.4209-12.6602,3.2988-4.7485.9727-9.5678,1.9229-14.35009,2.7149-1.893.3125-3.86371.0742-5.78421.4267-1.9409.3565-3.9633.628-5.9355.791-1.7959.1514-3.6567.0176-5.4605.0176-1.81-.0019-3.1381-1.1318-5.0522-.5136a3.07928,3.07928,0,0,0-.939.5009c-1.6772-.8691-3.52,1.585-2.0327,2.9082,1.7637,1.5684,1.8125,4.1309,3.37111,5.8311,2.06149,2.249,3.68609,4.8369,5.562,7.2334,1.70119,2.1728,3.42039,4.2256,4.98729,6.5068a21.6118,21.6118,0,0,0,5.6558,6.1397c.3994.2607.7871.5127,1.1704.7636a42.66555,42.66555,0,0,0,4.2856,5.5498c2.0171,2.0948,4.648,3.5118,6.7481,5.5225a14.39388,14.39388,0,0,0,1.874,1.4639,35.707,35.707,0,0,0,5.1934,3.4892c.685.4698,1.3667.9444,2.0527,1.4121,3.2344,2.1993,6.5122,4.3291,9.8599,6.3497a2.66937,2.66937,0,0,0,3.1299-.2647,29.74293,29.74293,0,0,0,6.2426,1.084q.52965.1362,1.062.249a13.66514,13.66514,0,0,0,3.4581.2695,9.7127,9.7127,0,0,0,1.83-.3505,2.8731,2.8731,0,0,0,.8785-.1788,3.9119,3.9119,0,0,1,.5253-.0449,6.948,6.948,0,0,0,5.7266-3.124c1.4189-2.0322,3.9116-3.8408,5.8159-5.4004a51.76325,51.76325,0,0,1,8.2066-4.9639,78.19378,78.19378,0,0,1,17.3852-6.8789c2.8423-.749,5.4678-1.1504,8.1074-2.5195,2.5923-1.3457,4.855-2.9307,7.6626-3.8301,2.85011-.9131,5.6866-1.8232,8.5176-2.7959,2.85651-.9804,5.7891-2.1103,8.8267-2.2763a39.88964,39.88964,0,0,0,4.2612-.5498,16.19683,16.19683,0,0,0,4.4551-.9981q1.83976-.91995,3.6826-1.8379c1.0391-.5176,1.79391-2.2187,2.4561-3.1435A5.5305,5.5305,0,0,0,276.5085,235.50463Z" fill="#fffded"/>
          <g>
            <path d="M152.44311,234.58663c-2.38131,2.0976-3.43751,5.1767-4.46921,8.2392a8.74308,8.74308,0,0,0-.6216-3.3271,1.19378,1.19378,0,0,0-1.36519-.5547,6.68662,6.68662,0,0,0-3.77741,3.8848c.0039-.3819.0103-.7002.0039-.877a18.39833,18.39833,0,0,0-.0923-2.7822c.0347-.0273.0694-.0469.1045-.0752a.297.297,0,0,0,0-.4248,2.1577,2.1577,0,0,0-.6596-.3897.63311.63311,0,0,0-.7676.4356,16.54946,16.54946,0,0,0-.6026,5.0674c-.0537,1.4336-.041,3.1875,1.2115,4.1113a1.2116,1.2116,0,0,0,1.76561-.7178c.50539-1.5312,1.08249-4.0341,2.437-5.2822.43209,2.2832-.30221,4.8438.14159,7.126a1.223,1.223,0,0,0,2.2183.291c2.395-4.3535,3.4985-9.2725,5.8379-13.6729A.87226.87226,0,0,0,152.44311,234.58663Z" fill="#d5d5d5"/>
            <path d="M264.2825,239.67553l-1.0113,1.0107a7.1982,7.1982,0,0,0,.2168-1.1904.61492.61492,0,0,0-.7763-.5928c-1.8267.7461-3.0923,2.3271-4.9073,3.0684-.5659.2304-.997.9355-1.3916,1.3779a11.03724,11.03724,0,0,1-1.7436,1.6494,39.83461,39.83461,0,0,1,2.3774-3.7432c.898-1.5039,1.7237-3.0468,2.6768-4.5175.4331-.667-.6309-1.2813-1.0591-.6192-1.1865,1.8301-2.1987,3.7637-3.34619,5.6182-.88721,1.4355-2.03221,2.7969-2.25831,4.5068a.61349.61349,0,0,0,.7769.5918,10.47641,10.47641,0,0,0,3.8232-3.0439,9.86044,9.86044,0,0,1,2.1416-1.5157c.7915-.5283,1.4751-1.164,2.2617-1.6699a11.98813,11.98813,0,0,0-.415,1.9571.6178.6178,0,0,0,1.04691.4335l2.45409-2.4541A.61329.61329,0,0,0,264.2825,239.67553Z" fill="#d5d5d5"/>
          </g>
          <g>
            <path d="M200.0393,243.734a2.72491,2.72491,0,0,0-1.562-1.1816c-.083-.2217-.1714-.4424-.2686-.665a2.54123,2.54123,0,0,0-3.4961-.917,11.38685,11.38685,0,0,0-2.1367,2.1347,3.3886,3.3886,0,0,0-4.8921-.3095,12.71777,12.71777,0,0,0-1.8872,1.8164,2.974,2.974,0,0,0-.45749-.0039,2.19436,2.19436,0,0,0-2.22021-1.4883,4.85868,4.85868,0,0,0-2.82179,1.2842,2.48948,2.48948,0,0,0-.45851-.0313,2.59091,2.59091,0,0,0-3.79.6074,10.394,10.394,0,0,0-1.6069,3.2452,2.76024,2.76024,0,0,0-2.5831.8017c-.0258.0264-.0463.0528-.0722.0801-3.5625.8613-3.9844,4.4766-1.7158,7.1191a1.63018,1.63018,0,0,0,1.8642.542,4.1967,4.1967,0,0,0,.2007,1.1797,2.565,2.565,0,0,0,2.3364,1.7852,5.6172,5.6172,0,0,0,.3745,3.7129c.8111,1.8984,3.3169,1.2978,4.2759,0a5.52469,5.52469,0,0,0,.938-3.1133c.415-.2393.8945-.4297,1.2896-.6192.3837-.1855.7495-.3759,1.1044-.5761.2095-.0596.4224-.1192.6402-.1768a4.34169,4.34169,0,0,0,1.8598-1.0049,3.20679,3.20679,0,0,0,1.2544-.6933,3.98678,3.98678,0,0,0,1.1426.6377,5.16127,5.16127,0,0,0,2.44581.1797c.01909.165.03959.331.06739.499.3003,1.7705,2.3892,2.1308,3.7432,1.5224,2.6782-1.2011,3.9121-4.9316,4.2656-7.6572.23781-.5215.4394-1.0596.6294-1.5986.0591-.167.10741-.3389.1577-.5108.0215-.041.0439-.0849.0649-.1259C199.7356,248.32,201.2459,245.85613,200.0393,243.734Z" fill="#7ed9e0"/>
            <path d="M242.7214,234.29173c.0088-.0459.0191-.0918.0274-.1377a9.3188,9.3188,0,0,0-.1372-5.1455,2.57539,2.57539,0,0,0-4.2222-1.1143,5.21238,5.21238,0,0,0-.5322.4854,7.95966,7.95966,0,0,0-.8008-1.1026,2.49975,2.49975,0,0,0-3.0664-.3955c-.1094.0752-.21189.1543-.311.2354a2.43244,2.43244,0,0,0-3.36189-.835c-.06731.0469-.12741.0967-.19141.1445a7.70251,7.70251,0,0,0-.6923-1.6797,2.4936,2.4936,0,0,0-3.8946-.5019,9.725,9.725,0,0,0-1.9326,4.1269,10.80261,10.80261,0,0,0-4.14009,4.2305,3.756,3.756,0,0,0-1.39551-1.9228c-1.1123-.8204-2.5914-.1182-3.2759.8593-1.32859,1.8985-.78659,5.5743.3589,7.4092a3.75784,3.75784,0,0,0,1.0283,1.1201,2.91443,2.91443,0,0,0,2.65621.7032,3.92626,3.92626,0,0,0,2.08939-1.2891c.6435.2959,1.3071.5732,1.9214.8809a.29525.29525,0,0,0,.4321-.2032,2.67025,2.67025,0,0,0,2.1104.5508c.0009.4131.0048.8272.0019,1.2393-.0083,2.0888,2.8101,3.4629,4.2881,1.7763.1455-.167.2783-.3349.4038-.5048l.0073.0058a2.5887,2.5887,0,0,0,2.31161,2.5518,2.38127,2.38127,0,0,0,2.309-1.418,2.56652,2.56652,0,0,0,4.22119-1.125q.25275-.9873.5044-1.9756a2.21957,2.21957,0,0,0,2.0015-.2139,22.80757,22.80757,0,0,0,3.35791-3.0634C246.3635,236.55343,244.7722,233.62473,242.7214,234.29173Z" fill="#7ed9e0"/>
            <path d="M214.9963,245.01823a2.66491,2.66491,0,0,0-1.5107-2.0742c-.0547-.376-.1118-.7529-.1904-1.1289a12.57342,12.57342,0,0,0,.0337-5.5781,3.96218,3.96218,0,0,0-2.2251-4.4844c-1.6626-.6894-3.8492.375-5.501.7383a9.89552,9.89552,0,0,1-5.9014-.4951,4.98356,4.98356,0,0,0-3.1172-.4014c-.3842.0762-1.0156.2949-1.5385.4473a5.2799,5.2799,0,0,0-.6753-1.1875,3.49668,3.49668,0,0,0-3.1578-1.2266,21.00626,21.00626,0,0,0-.4672-2.1992,1.55745,1.55745,0,0,0-2.9825,0,32.62506,32.62506,0,0,0-.8422,5.3193c-.1905,1.8516.2021,2.9629,1.8686,3.8672a3.70923,3.70923,0,0,0,3.3511.0147,3.99915,3.99915,0,0,0,2.6572.5703c1.2051-.1534,2.2832-.8887,3.4551-.3897a12.31159,12.31159,0,0,0,1.3262.4756,4.98979,4.98979,0,0,0,2.2924,4.1172,13.33331,13.33331,0,0,1,.32281,1.835,2.36954,2.36954,0,0,0-.74611,1.7802,4.98428,4.98428,0,0,0,.9585,3.1172c1.0825,1.4043,3.8325,1.791,4.51461-.1699a7.529,7.529,0,0,0,2.59619-.4014q.1224.2871.2515.5713c.8828,1.9365,3.3491,1.3242,4.3706,0A4.19978,4.19978,0,0,0,214.9963,245.01823Z" fill="#ffc51b"/>
          </g>
          <path d="M280.3074,234.65013a6.01007,6.01007,0,0,0-1.2276.0595,2.97568,2.97568,0,0,0-.5781.1182,4.32007,4.32007,0,0,0-1.3271-.7676,10.11929,10.11929,0,0,1-2.8037-1.0078c-1.3565-.8642-18.5396-12.1533-20.9522-14.3437-4.4243-4.0147-8.3472-8.5811-12.3633-12.9942a84.93252,84.93252,0,0,0-6.2915-6.5898,19.30063,19.30063,0,0,1-2.956-2.9463,5.50318,5.50318,0,0,0-3.0943-2.1807c-2.061-.4726-3.7881.418-5.4233,1.6426-2.09719,1.5684-4.229,3.1318-6.2305,4.8281-4.4853,3.8008-9.78469,6.1387-15.1489,8.4658a156.49955,156.49955,0,0,1-17.4063,6.4717,269.23391,269.23391,0,0,1-36.8798,8.1543c-4.9571.7471-9.9873,1.1924-14.99269,1.458-2.37891.125-4.71881-.1425-7.09181-.2324a6.16742,6.16742,0,0,1-3.0298-.8047,3.15524,3.15524,0,0,0-1.7148-.415.66914.66914,0,0,0-.3487,1.2275,1.05178,1.05178,0,0,0,.0005.3154c1.3858,8.7334,5.4038,16.7344,10.39161,23.9454a150.45337,150.45337,0,0,0,17.80129,20.8525c6.7612,6.7002,14.5346,12.6221,23.6606,15.6348,7.8594,2.5927,17.9307,1.6367,24.9644-3.0625a.55289.55289,0,0,0,.5283-.0498c1.3008-.7793,2.2178-1.9903,3.4648-2.8653,1.5381-1.0791,2.9854-2.2783,4.4214-3.4873a120.25251,120.25251,0,0,1,9.8994-7.8486,75.53676,75.53676,0,0,1,21.4615-9.7022c7.8891-2.2509,16.1972-3.4882,23.54831-7.291a79.06827,79.06827,0,0,1,10.05129-4.3554,7.34823,7.34823,0,0,0,3.334-2.2256c3.17771-1.8008,6.3173-3.8037,7.9306-7.2198A1.87371,1.87371,0,0,0,280.3074,234.65013Zm-25.2945,14.9345c-7.539,2.8379-15.5966,3.9629-23.1919,6.6289a75.53021,75.53021,0,0,0-19.81389,10.0948,95.051,95.051,0,0,0-8.66951,7.4277c-1.4624,1.3691-2.8969,2.7666-4.3623,4.1338a5.01136,5.01136,0,0,0-.6508.7353,1.22551,1.22551,0,0,0-.6143.0489c-4.1807,1.4648-8.2593,2.9492-12.7036,3.457a28.821,28.821,0,0,1-12.7622-1.3496c-8.2764-2.8662-15.4111-8.8008-21.6109-14.8115a189.26873,189.26873,0,0,1-16.6455-18.4971c-5.0473-6.3916-9.4248-13.1719-11.2588-21.1357h0c1.2886.4599,2.6495.7255,3.9532,1.1582,2.876.9541,6.1211.9043,9.1069.9365a111.75794,111.75794,0,0,0,19.0449-1.7031,228.44207,228.44207,0,0,0,36.5904-8.8018,171.47667,171.47667,0,0,0,16.542-6.8193,71.01691,71.01691,0,0,0,7.4121-3.9004c2.5576-1.5645,4.58741-3.6563,6.9599-5.4561a27.21406,27.21406,0,0,0,2.7539-2.0762,6.86333,6.86333,0,0,1,2.5122-1.6728c.4497-.1484,1.8579,1.9326,2.1617,2.2646,1.1206,1.2178,2.4565,2.2432,3.6396,3.3995,4.3687,4.2773,8.1455,9.2031,12.3062,13.6845,2.6748,2.8809,5.6103,6.0625,8.9282,8.2129,2.8638,1.8555,9.0298,5.4043,9.125,5.4795.1582.1231.32371.2373.4844.3584.1718.1377.3427.2774.5107.4199a2.25581,2.25581,0,0,0,.5264.3457c1.4453,1.0264,2.9394,1.9932,4.3647,3.043.958.7061,1.95851,1.335,2.9429,2.0049a8.17456,8.17456,0,0,0,2.8945,1.0713,7.73378,7.73378,0,0,0-.6191.4775,7.82808,7.82808,0,0,0-1.3145,1.9824c-.5439-.2519-2.832,1.9942-3.9389,2.4375-1.3448.5371-2.7559.8975-4.1045,1.4366C261.9065,246.04073,258.6433,248.21743,255.0129,249.58463Z"/>
          <g>
            <path d="M172.449,255.98313a.60568.60568,0,0,1-.1187.0224A.26139.26139,0,0,0,172.449,255.98313Z"/>
            <path d="M213.8787,229.13443c-2.2989.7051-4.3443,2.2549-6.7569,2.4991a30.92694,30.92694,0,0,1-7.4316-.4073,12.61079,12.61079,0,0,1-9.9102-7.6845.28376.28376,0,0,0-.5425,0,4.63651,4.63651,0,0,0-.145.6943,12.60375,12.60375,0,0,0-5.1855,10.3555,7.08931,7.08931,0,0,0,.3979,2.4648,8.16059,8.16059,0,0,0-2.9511.9356,6.802,6.802,0,0,0-2.9869,3.0947c-.3779.8867-.4785,1.9414-.77679,2.8906a2.43282,2.43282,0,0,0-1.57861-.8789c-1.29539-.0098-2.1778-.6279-3.5117-.6162-2.8682.0273-5.7935.5186-7.0069,3.3633a9.80164,9.80164,0,0,0-.2002,7.6699,6.16658,6.16658,0,0,0,4.1948,3.2695c-.1132.2471-.2158.501-.3081.751-.8559,2.3252-.6528,4.8291,1.2334,6.5186a10.89322,10.89322,0,0,0,7.9039,2.3476c2.7963-.2422,5.6127-3.1592,6.4223-5.7666a.78493.78493,0,0,0-.959-.959c-1.7363.6065-3.0175,2.2969-4.5464,3.295-1.4052.916-3.7797.0703-5.1909-.4444a2.93194,2.93194,0,0,1-2.2812-3.0117,10.50768,10.50768,0,0,1,.2197-2.4102c.0664-.3046.15091-.6132.2344-.914.0859-.3135.3076-.25.2334-.208a.48859.48859,0,0,0,.0102-.9317,1.84777,1.84777,0,0,0-2.353.6836,7.71951,7.71951,0,0,1-2.6899-3.6201c-.4771-1.3574-.1607-5.3301,1.2197-6.1377a6.907,6.907,0,0,1,2.7295-.665c.3774-.0283.7558-.0479,1.1343-.0547a1.77774,1.77774,0,0,0,.4829-.0567,1.20816,1.20816,0,0,0,.186.1153,4.92236,4.92236,0,0,0,1.79741.5176c.86319.1113,1.292.832,1.91649,1.4511a1.3721,1.3721,0,0,0,1.938,0c1.8569-2.2168,1.24951-5.3418,3.893-6.9658a3.89423,3.89423,0,0,1,3.4961-.3271,6.26237,6.26237,0,0,0,5.377,1.665.85309.85309,0,0,0,.5805-1.165,3.6405,3.6405,0,0,1,.9908-.5411c1.47311-.5312,3.643.2999,4.9707.9102,4.37641,2.0088,1.0908,7.6543-.2671,10.4805a1.04184,1.04184,0,0,0,.0952,1.0498c-.5039,1.1621-.563,2.4619-.9961,3.6748-.3462.9707-.9482,1.9267-1.3862,2.8721-1.4512,3.1201-5.2129,2.4736-7.13039.0996-.16461-.2032-.50981.0654-.36131.2783,1.8906,2.7275,4.768,3.9033,7.69631,2.248,1.309-.7392,1.51309-2.4326,2.414-3.4951a7.09327,7.09327,0,0,0,1.27689-5.6074,13.84555,13.84555,0,0,0,3.63911-6.1035c.65479-2.7119-.46871-5.1455-2.11811-7.2285-1.2945-1.6338-4.7676-2.1104-6.6714-2.2754a5.98938,5.98938,0,0,0-4.6592,1.7138,13.74769,13.74769,0,0,1-1.2715-.8476,4.38844,4.38844,0,0,0-.7441-.3301,5.605,5.605,0,0,1-1.1201-3.3428c-.2598-3.1025.3647-6.6562,2.5263-9.0097.1304,4.0195,5.1856,7.8486,8.66411,8.582a34.10433,34.10433,0,0,0,9.40669.7344,10.84652,10.84652,0,0,0,7.3789-4.1504C214.8845,229.74383,214.5378,228.93333,213.8787,229.13443Z"/>
          </g>
          <path d="M246.8049,234.92843c-1.0449-1.2315-2.4184-1.4209-3.79-2.0205,1.3564-.7803,1.793-2.1504,1.8984-3.9024.15681-2.6035-1.4926-4.5478-3.5053-5.9912a8.129,8.129,0,0,0-6.5152-1.1767,10.74259,10.74259,0,0,0-3.1743,1.0586c-.0439.0263-.0776.0478-.1103.0703l-.0303-.0098a3.59334,3.59334,0,0,1-1.3389-.9629c-1.541-1.3476-2.9097-2.4209-5.124-2.0508a5.41066,5.41066,0,0,0-4.6025,4.0869,16.43055,16.43055,0,0,0,.0634,6.6895,5.80752,5.80752,0,0,0-5.5713,3.5693c-1.0908,2.3282-1.64549,6.4102-.5463,8.8028a5.20618,5.20618,0,0,0,.6997,1.123,16.2251,16.2251,0,0,1-4.65189,4.9697c-3.06151,2.1006-7.66261,2.0293-11.07911,1.0577a.38321.38321,0,0,0-.2046.7382c3.957,1.3418,8.4038,1.7588,12.2339-.1689a12.54653,12.54653,0,0,0,5.2095-5.376,4.38059,4.38059,0,0,0,4.0678-.1396,19.62749,19.62749,0,0,0,2.2154-1.8194c.8618-.6367,2.2348,1.2237,2.7656,1.7735,1.9546,2.0224,3.7773,4.0176,6.7202,4.3281,3.6138.3799,6.5938-3.8887,8.9287-6.0088.6157-.5576,1.0938-1.082,1.9375-1.0254a7.05844,7.05844,0,0,0,2.0718-.1094,3.29705,3.29705,0,0,0,2.2788-2.8652C247.6516,238.04463,247.8562,236.16763,246.8049,234.92843Zm-2.4707,2.3037a14.71078,14.71078,0,0,1-.1499,1.9609c-.8818.0498-1.9653-.3808-2.7724.1348a22.53137,22.53137,0,0,0-3.4063,2.7236c-1.52,1.4473-3.9482,5.0303-6.3867,3.9893-1.8486-.7891-3.1802-2.7549-4.6084-4.0996-1.17039-1.1016-2.8442-2.3516-4.5625-1.8555-1.4316.4121-2.2144,1.5401-3.4048,2.3193a.9726.9726,0,0,1-1.4062-.164,6.349,6.349,0,0,0-.0225-1.4453.54682.54682,0,0,0-.79739-.417,15.04323,15.04323,0,0,1-.38911-2.5362c-.1885-3.3925,1.2856-5.8144,4.4165-6.4521a1.44715,1.44715,0,0,0,1.9599.8057.63375.63375,0,0,0,.1495-1.1446c-.94779-.6523-.6836-1.7578-.5684-2.7588.167-1.4589.0088-3.0439.6104-4.4121.78321-1.7754,3.5107-1.9697,4.7558-.7109a11.536,11.536,0,0,0,2.5918,2.1455,2.26694,2.26694,0,0,0,2.0938.208,12.18363,12.18363,0,0,1,3.96381-1.1172,5.809,5.809,0,0,1,4.68119,1.9766c1.126,1.1289,1.5791,3.8193-.0191,4.8086a1.1993,1.1993,0,0,0,.3926,2.1797.68734.68734,0,0,0,.1304.4619,9.35405,9.35405,0,0,0,1.8237,1.8349C243.9685,236.14623,244.4075,236.29753,244.3342,237.23213Z"/>
        </g>
      </g>
    </g>
  </g>
</svg>
