<svg xmlns="http://www.w3.org/2000/svg" viewBox="0 0 229.3097 217.71902">
  <title>conoceRecurso 5</title>
  <g id="Capa_2" data-name="Capa 2">
    <g id="Editar">
      <g>
        <path d="M166.98047,40.35724c.62065-1.10485,1.37335-1.78944,1.13214-2.727A34.57054,34.57054,0,0,0,169.2097,33.989a48.39456,48.39456,0,0,0,6.18355-6.23235c3.398-4.36484-1.9432-10.07553-6.1485-6.11543-.09142.08764-.14022.20237-.23165.288A17.92367,17.92367,0,0,0,165.36034,14.67c-5.59238-6.45185-16.21467-.96861-20.83426,5.0534a3.65009,3.65009,0,0,0-1.167.56408,74.97209,74.97209,0,0,0-12.441,11.92751,27.33028,27.33028,0,0,0-1.89081,2.47043,4.8163,4.8163,0,0,0-3.26975-2.47422c.44756-.6069.817-1.1186,1.0212-1.4588a3.82073,3.82073,0,0,0-1.17676-5.4659,13.26687,13.26687,0,0,0,.78-1.83027c.80728-2.45868-.74493-4.33954-2.77558-5.01257a3.8734,3.8734,0,0,0,.3404-1.83246,28.9333,28.9333,0,0,0,2.5266-3.24445,3.805,3.805,0,0,0,.25874-3.67627c-.05258-3.1335-4.43674-5.987-7.67541-3.24823a22.31385,22.31385,0,0,0-4.08081,4.69149,32.51911,32.51911,0,0,0-5.53582,7.03744,4.25717,4.25717,0,0,0,.96463,5.357,13.02414,13.02414,0,0,0-.56786,1.93743,4.35814,4.35814,0,0,0,1.17477,4.16247,8.80854,8.80854,0,0,0,1.44724.96861,13.13944,13.13944,0,0,0-.70032,1.68267,4.24464,4.24464,0,0,0,1.48808,4.41722,8.51013,8.51013,0,0,0-.14,5.72444c.69056,1.86154,2.69391,3.62767,4.818,3.18031a7.48,7.48,0,0,0,1.42772,5.40755,4.80781,4.80781,0,0,0,4.19374,2.11629,4.3745,4.3745,0,0,0,5.14084,2.32623.189.189,0,0,0,.02928-.01554c-.30933.56806-.61845,1.13413-.93375,1.69622a4.42209,4.42209,0,0,0,2.77377,6.39548,9.65475,9.65475,0,0,0,6.668-1.01921c.22169,2.07745,2.27583,4.09654,4.41922,3.85135,5.42685-.62244,7.70269-4.433,11.47636-7.95546A105.4745,105.4745,0,0,0,164.2282,45.66739c.60292-.35793.48621-1.26041.918-2.03463Zm-6.48889-9.73334c-2.762,2.31268-5.66409,4.4698-8.6012,6.62513,2.9895-3.26,6.0746-6.43053,9.19655-9.55448.05039.73139.06614,1.47632.05039,2.22524C160.91962,30.15324,160.70948,30.39046,160.49158,30.6239Z" fill="#e1023f"/>
        <path d="M138.95916,26.68142c1.46609-10.77558,13.58563-15.64166,23.3656-13.492,11.1325,2.44691,14.00227,13.84358,9.154,23.148-5.5602,10.67058-16.51444,18.48488-26.86952,24.03528-9.12176,4.88934-21.19525,10.07374-31.79411,7.87965-3.88924-.80512-5.55234,5.16274-1.64623,5.97135,10.20383,2.11231,20.93176-1.30393,30.20333-5.39867C152.443,63.9356,163.261,56.833,171.16324,47.56782c6.27874-7.3617,11.05271-16.86124,8.023-26.66362-3.02816-9.79736-12.69268-14.77311-22.54842-14.35579-10.79983.45729-22.08917,7.01476-23.65,18.48678-.53022,3.897,5.4357,5.5832,5.97135,1.64623Z" fill="#1d1d1b"/>
        <path d="M133.4048,31.65763c5.27841-7.639,3.44333-17.61167-2.19705-24.5196-4.90029-6.00153-13.46883-9.88835-20.39607-4.75247-10.42105,7.7262-9.19455,24.725-5.64963,35.49952,5.06782,15.40323,15.51779,28.6089,26.26055,40.479,2.67994,2.96116,7.04853-1.42891,4.3788-4.3788-8.18991-9.04933-15.92586-18.72244-21.34987-29.72119-4.92827-9.9935-8.99148-24.27342-2.18055-34.43765,3.82646-5.7104,9.8162-3.74205,13.77687.76764,4.42143,5.03433,5.96286,12.21723,2.00987,17.93809-2.27089,3.28648,3.094,6.38616,5.34709,3.1255Z" fill="#1d1d1b"/>
      </g>
      <g>
        <path d="M4.02983,72.59422c3.10926,17.39615,6.48622,34.72407,12.596,51.38743,1.78784,4.876,3.00667,5.61312,8.18645,4.83566,4.68121-.70262,9.37988-1.28905,13.96058-1.91164.196,1.23657.31133,2.26295.52605,3.26818q1.61133,7.54233,3.26811,15.07511c3.73873,16.95759,7.40494,33.94339,14.30883,49.98664,2.86622,6.66056,6.08976,13.17491,11.57023,18.161,8.39713,7.63978,19.89786,4.8143,23.8804-5.81166,2.20945-5.895,2.04393-12.02821,1.42174-18.13236a247.18776,247.18776,0,0,0-7.879-42.15605c-2.91385-10.32138-4.54962-21.17781-11.34749-30.48126,2.64589-1.08264,5.14713-2.19341,7.7104-3.13524,4.16526-1.53052,4.95129-2.88393,4.03574-7.25618q-2.1765-10.394-4.31959-20.795-4.53192-21.89307-9.06454-43.786c-.60145-2.89319-1.97818-4.14529-4.68741-4.15724-21.32835-.09388-42.484,1.325-63.14246,7.18038C2.88342,45.48114,1.06263,46.36247,0,48.43577v3.13509a3.22843,3.22843,0,0,1,.37649.77834Q2.21818,62.46894,4.02983,72.59422Zm71.911,135.12257,6.86748-1.97519Q80.90755,211.76842,75.94085,207.71679Zm6.51406-7.56879c-.87444.55182-1.5967,1.36172-2.49869,1.85005-6.40459,3.46774-8.77635,2.91709-11.44122-3.07547q7.80778-1.99535,15.81231-4.04091C84.52628,196.68383,84.67,198.75021,82.45491,200.148Zm1.73974-11.909a1.75649,1.75649,0,0,1-.92677,1.26624c-4.95133,2.21572-9.84321,4.59215-15.35043,5.2358-1.35581.15845-2.04331-.09942-2.50369-1.40232-.61464-1.73941-1.41132-3.41446-2.1882-5.25548l20.50252-7.16478C83.89469,183.29245,84.11706,185.76341,84.19465,188.239Zm-1.083-13.22907L61.73646,183.914c-.5489-1.74991-.96621-3.08028-1.38245-4.40709,7.51522-2.22184,14.93925-4.41671,22.48967-6.649C82.894,173.26225,82.985,173.99234,83.11168,175.0099Zm-1.05013-8.28561c-7.62418,2.72242-15.20324,5.4288-23.0167,8.21892-.5532-2.03722-.93468-3.44216-1.36944-5.04338A66.1205,66.1205,0,0,0,81.36913,163.282C81.59668,164.41316,81.779,165.31949,82.06155,166.72428Zm-1.74838-8.353c-7.72957,3.24158-15.10966,6.94722-23.5698,8.08707-.43061-1.556-.84033-3.03677-1.28041-4.62713,8.88477-.491,16.828-2.91622,23.31455-9.47321C79.30735,154.43274,79.795,156.34226,80.31317,158.37125Zm-3.411-14.28255c-.143.80138-.00146,1.88445-.47292,2.36047-4.61882,4.66408-9.84584,8.40981-16.31285,10.112-1.84633.486-3.70859.91151-5.72027,1.403-1.07189-4.07036-2.067-7.849-3.18287-12.08659C60.264,149.15583,68.66645,150.43381,76.90213,144.08869Zm-56.223-93.818C34.334,47.54336,48.18692,46.79,62.05548,46.16932a2.971,2.971,0,0,1,3.298,2.35741c1.70067,5.62515,3.64394,11.21021,4.84462,16.94666,2.73269,13.056,5.06116,26.1964,7.612,39.29114.26126,1.34109-.25765,1.76288-1.35326,2.29866a77.90235,77.90235,0,0,0-8.42151,4.56321c-3.00838,1.96353-2.92533,4.63012-.14282,6.9236a3.72547,3.72547,0,0,1,1.0822,1.58373c1.711,4.92531,3.30834,9.89092,5.07931,14.794.49245,1.36339.01731,1.93562-.95746,2.75521-7.19412,6.04862-14.92518,6.10882-22.906,1.97243-1.2494-.64751-1.91962-2.41251-3.04249-3.9068,2.24516-1.14255,2.6363-2.604,2.28973-4.40155-.35193-1.82549-.55575-3.6845-.99623-5.48681-1.316-5.38434-1.83434-4.93-7.39466-5.354-4.0708-.31035-8.19181.09526-12.28939.05947-2.97114-.026-4.77881-1.27426-5.75463-4.44922a373.60793,373.60793,0,0,1-9.99908-43.09175c-1.19951-6.59693-2.337-13.20509-3.5727-20.20486C13.19335,51.96175,16.91743,51.022,20.67912,50.27066Z"/>
        <path d="M213.24119,81.58755a50.55711,50.55711,0,0,0-18.92936,6.15984c-7.09365,3.79456-14.23423,7.5018-21.37143,11.2143-1.33825.69613-2.27173,1.53263-1.61525,3.15142.659,1.62513,1.91915,1.94633,3.48491,1.37768,1.3209-.4798,2.63845-.96865,4.02743-1.47928,2.99891,4.45782,5.92489,8.80718,8.93142,13.27622-1.78854.60575-3.31436,1.12251-4.9186,1.66587-2.39133-3.49172-4.331-7.07528-7.90162-9.906-4.22564-3.35011-8.48273-5.36429-13.67473-5.71334-10.15316-.68264-19.83274,1.71427-29.39567,4.72385a158.28116,158.28116,0,0,0-34.96718,15.718c-2.55733,1.55683-5.00723,3.14624-3.69259,6.85305.25725.72528-.13859,1.66113.03192,2.442.70925,3.24785,1.03607,6.6938,2.388,9.66431,3.45349,7.58781,10.06792,11.76662,17.54086,14.68656,10.20811,3.98887,20.86742,4.86773,31.67961,4.0173,9.98093-.785,19.5936-3.085,28.23206-8.39727,7.92913-4.876,13.4142-11.43179,13.16435-21.32875-.07176-2.84253-.8646-5.66684-1.322-8.46972a48.068,48.068,0,0,0,5.56746.68388c10.15082.12274,18.79084-4.704,27.674-8.67242a1.6759,1.6759,0,0,1,2.2483.32055,3.09042,3.09042,0,0,0,2.69031.49416c.59019-.24613.797-1.50669,1.07776-2.34917.10157-.30473-.07609-.70254-.15109-1.233,2.8789-.84926,5.11962-2.27257,4.95847-5.69855-.01257-.267.20207-.54467.31111-.81734V96.35793c-.24726-1.00268-.53461-1.9975-.73549-3.00937C226.88108,84.81944,221.80425,80.74959,213.24119,81.58755Zm-94.49463,37.16836c10.37495-4.16737,20.92063-7.90639,32.12374-9.191,4.79386-.5497,9.63454-1.18082,14.22377,1.26777,6.16017,3.2867,7.00134,8.79581,1.94837,13.57491-3.47467,3.2864-7.88649,4.43428-12.4204,5.05708-10.57065,1.45217-21.15517.391-31.71168-.24307-6.27959-.37718-12.51978-1.41026-18.77765-2.14852l-.23589-1.26791C108.8391,123.43632,113.67166,120.79452,118.74656,118.75591Zm44.56655,29.54746c-8.68685,3.18057-17.69858,3.95046-26.86312,3.31964-8.90966-.61326-17.59946-2.196-25.64455-6.30247-6.01757-3.07161-10.9889-7.16748-12.96941-14.00049a16.46762,16.46762,0,0,1-.26713-1.65946c.91657.24766,1.60239.37536,2.24626.61552,17.07312,6.36895,34.69032,9.30244,52.86828,7.61128,4.95876-.46129,9.88775-2.08175,14.63361-3.73516,4.01318-1.39809,7.0591-4.36117,9.204-8.72562C178.91723,136.10526,174.00358,144.38927,163.31312,148.30337ZM191.4349,111.736c-2.727-3.79828-5.72522-7.40173-8.73273-11.24046,1.90315-.86107,3.65007-1.65144,5.57734-2.52337,2.48211,4.96459,4.92086,9.84252,7.38147,14.76411C194.04088,114.02229,192.79662,113.63265,191.4349,111.736Zm8.64155-.39307c-2.78932-4.98114-5.51378-9.84653-8.32913-14.87416,1.64313-.71428,3.25517-1.41514,4.82082-2.09589,2.12654,5.32238,4.217,10.55454,6.35776,15.91234C202.11746,110.58531,200.88234,111.04376,200.07645,111.34288Zm7.87057-2.90332c-2.41386-5.28762-4.77378-10.45716-7.23005-15.83771,1.38654-.56209,2.5269-1.02448,4.06354-1.64736,2.11787,5.45853,4.19554,10.81357,6.351,16.369C209.82422,107.7817,209.00517,108.06872,207.947,108.43956Zm5.37421-9.27773c-1.57174-3.05638-3.14348-6.11261-4.78478-9.30412.82233-.24351,1.496-.44292,2.17133-.64285.95841,3.35878,1.88336,6.60036,2.80831,9.842Zm8.519,4.30082-.9208.2368c-2.13915-4.86991-4.2783-9.73982-6.48349-14.7601,4.49739-.31107,6.52153,1.081,7.41066,4.93536A25.998,25.998,0,0,1,221.84018,103.46265Z"/>
        <path d="M23.003,116.11644c.97583,3.175,2.78349,4.4232,5.75463,4.44922,4.09758.03579,8.2186-.36982,12.28939-.05947,5.56032.424,6.07868-.03032,7.39466,5.354.44048,1.80231.64431,3.66133.99623,5.48681.34657,1.79757-.04457,3.259-2.28973,4.40155,1.12287,1.4943,1.79309,3.25929,3.04249,3.9068,7.98077,4.13639,15.71184,4.07619,22.906-1.97243.97477-.8196,1.44991-1.39182.95746-2.75521-1.771-4.90307-3.36829-9.86869-5.07931-14.794a3.72547,3.72547,0,0,0-1.0822-1.58373c-2.78251-2.29349-2.86556-4.96007.14282-6.9236a77.90235,77.90235,0,0,1,8.42151-4.56321c1.09561-.53578,1.61452-.95757,1.35326-2.29866-2.55088-13.09474-4.87935-26.23511-7.612-39.29114-1.20068-5.73645-3.14395-11.32151-4.84462-16.94666a2.971,2.971,0,0,0-3.298-2.35741c-13.86856.62069-27.72146,1.374-41.37636,4.10134-3.76169.7513-7.48577,1.69109-11.24793,2.54917,1.23566,6.99977,2.37319,13.60793,3.5727,20.20486A373.60793,373.60793,0,0,0,23.003,116.11644ZM19.13709,59.03418a5.16286,5.16286,0,0,1,2.66823.98366c.40014.26734.45827,1.062.6485,1.62593,4.35192,12.90189,8.7007,25.80486,13.25283,39.309,7.06533-1.1185,14.41007-2.27184,21.75094-3.44923,2.1327-.34205,4.24889-.78818,6.38287-1.12112,1.70268-.26574,3.28-.03681,4.392,1.50428,1.71612,2.37832.73512,5.02188-2.2253,5.53448-7.48708,1.29649-14.98371,2.55033-22.501,3.65469-3.45819.508-6.97083.66792-10.46431.90422a3.50643,3.50643,0,0,1-3.94955-2.87314Q24.03874,85.88357,19.022,66.65071a28.59859,28.59859,0,0,1-.82849-5.51728C18.1527,60.4139,18.80211,59.03418,19.13709,59.03418Z" fill="#bbb"/>
        <path d="M65.41375,193.33868c.46038,1.3029,1.14787,1.56077,2.50369,1.40232,5.50722-.64365,10.39911-3.02008,15.35043-5.2358a1.75649,1.75649,0,0,0,.92677-1.26624c-.07759-2.47555-.3-4.94651-.46658-7.32054l-20.50252,7.16478C64.00243,189.92422,64.79911,191.59927,65.41375,193.33868Z" fill="#fff"/>
        <path d="M51.21323,145.87759c1.11591,4.23756,2.111,8.01623,3.18287,12.08659,2.01167-.49154,3.87393-.917,5.72027-1.403,6.467-1.70217,11.694-5.44789,16.31285-10.112.47146-.476.33-1.55909.47292-2.36047C68.66645,150.43381,60.264,149.15583,51.21323,145.87759Z" fill="#fff"/>
        <path d="M56.74337,166.45832c8.46014-1.13986,15.84022-4.8455,23.5698-8.08707-.51818-2.029-1.00582-3.93851-1.53566-6.01327-6.48651,6.557-14.42978,8.98225-23.31455,9.47321C55.903,163.42155,56.31277,164.90229,56.74337,166.45832Z" fill="#fff"/>
        <path d="M59.04484,174.94321c7.81346-2.79013,15.39253-5.49651,23.0167-8.21892-.28254-1.40479-.46486-2.31112-.69241-3.44231a66.1205,66.1205,0,0,1-23.69374,6.61785C58.11016,171.501,58.49164,172.906,59.04484,174.94321Z" fill="#fff"/>
        <path d="M79.95621,201.99805c.902-.48833,1.62425-1.29823,2.49869-1.85005,2.2151-1.3978,2.07137-3.46417,1.87239-5.26634q-8.01293,2.04772-15.81231,4.04091C71.17986,204.91515,73.55163,205.4658,79.95621,201.99805Z" fill="#fff"/>
        <path d="M61.73646,183.914l21.37522-8.90412c-.12671-1.01755-.21764-1.74765-.268-2.15194-7.55042,2.23226-14.97445,4.42713-22.48967,6.649C60.77026,180.83373,61.18756,182.16411,61.73646,183.914Z" fill="#fff"/>
        <path d="M82.80833,205.7416l-6.86748,1.97519Q80.901,211.77385,82.80833,205.7416Z" fill="#fff"/>
        <path d="M167.317,134.15223c-4.74586,1.65341-9.67485,3.27387-14.63361,3.73516-18.178,1.69116-35.79516-1.24233-52.86828-7.61128-.64387-.24016-1.32969-.36785-2.24626-.61552A16.46762,16.46762,0,0,0,97.836,131.32c1.98052,6.833,6.95185,10.92888,12.96941,14.00049,8.04509,4.10651,16.73489,5.68922,25.64455,6.30247,9.16454.63082,18.17627-.13907,26.86312-3.31964,10.69047-3.91409,15.60411-12.1981,13.20793-22.87676C174.37614,129.79105,171.33022,132.75414,167.317,134.15223Z" fill="#42afc4"/>
        <path d="M122.91036,129.2216c10.55651.634,21.141,1.69524,31.71168.24307,4.53391-.62281,8.94574-1.77068,12.4204-5.05708,5.053-4.7791,4.21179-10.28821-1.94837-13.57491-4.58923-2.44859-9.42992-1.81747-14.22377-1.26777-11.20311,1.28461-21.74879,5.02363-32.12374,9.191-5.0749,2.03861-9.90746,4.68041-14.84975,7.04926l.23589,1.26791C110.39058,127.81134,116.63077,128.84442,122.91036,129.2216Z" fill="#42afc4"/>
        <path d="M182.70217,100.49549c3.00751,3.83873,6.00572,7.44218,8.73273,11.24046,1.36172,1.8967,2.606,2.28634,4.22608,1.00028-2.46061-4.92159-4.89936-9.79952-7.38147-14.76411C186.35223,98.84405,184.60532,99.63442,182.70217,100.49549Z" fill="#fff"/>
        <path d="M191.74732,96.46872c2.81535,5.02764,5.5398,9.893,8.32913,14.87416.80589-.29912,2.041-.75757,2.84946-1.05771-2.14072-5.35781-4.23122-10.59-6.35776-15.91234C195.00249,95.05357,193.39045,95.75444,191.74732,96.46872Z" fill="#fff"/>
        <path d="M200.717,92.60185c2.45627,5.38055,4.8162,10.55009,7.23005,15.83771,1.05815-.37084,1.8772-.65786,3.18451-1.11609-2.15548-5.5554-4.23315-10.91044-6.351-16.369C203.24387,91.57738,202.1035,92.03976,200.717,92.60185Z" fill="#fff"/>
        <path d="M214.4359,88.93936c2.20518,5.02027,4.34434,9.89019,6.48349,14.7601l.9208-.2368a25.998,25.998,0,0,0,.00638-9.58793C220.95743,90.0204,218.93329,88.62829,214.4359,88.93936Z" fill="#fff"/>
        <path d="M208.53644,89.85772c1.64131,3.19151,3.213,6.24774,4.78478,9.30412l.19486-.105c-.925-3.24165-1.8499-6.48323-2.80831-9.842C210.03245,89.41479,209.35877,89.61421,208.53644,89.85772Z" fill="#fff"/>
        <path d="M29.09232,105.10695a3.50643,3.50643,0,0,0,3.94955,2.87314c3.49347-.23629,7.00611-.39621,10.46431-.90422,7.51726-1.10436,15.01389-2.35821,22.501-3.65469,2.96042-.5126,3.94142-3.15616,2.2253-5.53448-1.112-1.54109-2.68933-1.77-4.392-1.50428-2.134.33294-4.25017.77907-6.38287,1.12112-7.34087,1.17739-14.68561,2.33073-21.75094,3.44923-4.55213-13.50414-8.90091-26.40712-13.25283-39.309-.19023-.56391-.24836-1.35858-.6485-1.62593a5.16286,5.16286,0,0,0-2.66823-.98366c-.335,0-.98439,1.37972-.94361,2.09925a28.59859,28.59859,0,0,0,.82849,5.51728Q23.99978,85.89366,29.09232,105.10695Z"/>
      </g>
    </g>
  </g>
</svg>
