<svg xmlns="http://www.w3.org/2000/svg" viewBox="0 0 202.07882 92.15753">
  <title>conoceRecurso 2</title>
  <g id="Capa_2" data-name="Capa 2">
    <g id="Editar">
      <g>
        <path d="M7.05724,24.53128c2.583-3.6025,6.7373-4.2002,10.8692-4.1132a23.88628,23.88628,0,0,1,5.7265.706c.7344.1983,1.5039.4971,2.2881.7783a20.18914,20.18914,0,0,1,1.5088-8.8232c1.3828-3.5723,3.5058-8.6719,7.7891-9.3799,4.3652-.7217,9.4541,1.8867,12.8779,4.3359a52.37622,52.37622,0,0,1,5.7246,4.6778,11.6797,11.6797,0,0,1,1.542,1.7314,7.91182,7.91182,0,0,1,1.1318-1.8291c1.5567-1.8506,3.8135-4.6494,6.1065-5.625,4.7714-2.0273,10.3759-1.1992,14.7646,1.4141a13.66444,13.66444,0,0,1,6.9404,12.4599c-.0127.2852-.0302.5811-.0527.8819a7.51706,7.51706,0,0,1,7.4824-.4024c2.6504,1.2559,4.7657,3.5664,7.3164,5.0577,2.6309,1.538,5.6348,3.5449,5.7159,6.913.1445,6.125-5.2237,9.3887-10.4248,10.9024a18.92248,18.92248,0,0,1-5.3438.7012,11.10789,11.10789,0,0,1,.708,4.2841c-.123,3.3604-2.4834,6.3037-4.6894,8.5987-1.4971,1.5586-2.0733,3.9843-3.8614,5.6132-4.0439,3.6875-10.6513-.1699-14.54-2.3183a19.62444,19.62444,0,0,1-4.1192-2.9942,16.27453,16.27453,0,0,1-3.0976,3.3575c-3.8486,3.1465-8.7949,1.8828-13.0059.3838-3.8857-1.3809-7.8623-2.8243-10.5039-6.1719a11.85212,11.85212,0,0,1-1.6367-2.9072,25.49917,25.49917,0,0,1-4.0156,3.1113,15.36074,15.36074,0,0,1-15.0254.0371c-4.7363-2.5313-6.8731-7.0117-5.0254-12.2051a8.60658,8.60658,0,0,1,3.8965-4.373,13.70476,13.70476,0,0,1-4.6524-3.6162C7.03384,32.76378,4.42441,28.20218,7.05724,24.53128Z" fill="#fff"/>
        <path d="M7.97134,38.17588c-6.74423-2.3243-10.05283-11.8643-6.56743-17.9092,1.9062-3.3057,6.09183-5.4219,9.66993-6.21,3.5088-.7734,7.2022-.0761,10.7744.0742a1.74149,1.74149,0,0,1-.0351-.208,9.19915,9.19915,0,0,1-.3408-2.2002,14.74973,14.74973,0,0,1,.8183-2.9365,14.15959,14.15959,0,0,1,2.5762-4.0918c2.2871-2.5654,5.0713-3.1689,8.2256-4.0566,3.3359-.9365,6.8554-.9756,9.9267.7949a21.72,21.72,0,0,1,5.9854,5.4522c3.4941-2.7735,7.7724-4.2793,12.1006-5.6075a26.98205,26.98205,0,0,1,8.5634-1.0517c2.502.0508,5.8663.458,7.9961,1.8926a24.15,24.15,0,0,1,6.2559,6.2607c1.5889,2.2656,2.4482,4.8457,3.8359,7.1836a6.64326,6.64326,0,0,1,.8741,3.9599c7.9462-.6669,15.8408,4.127,19.4316,11.3252,2.1826,4.377,1.0498,10.1622-2.9756,13.0293-2.4385,1.7344-5.3476,1.7637-8.2246,1.7871a29.47288,29.47288,0,0,1-4.9443-.3945c.3408.8438.6767,1.6895.9619,2.5518A21.98238,21.98238,0,0,1,93.898,55.17a12.97353,12.97353,0,0,1-6.9004,10.9297c-6.9267,3.6855-15.1435-.334-20.874-4.8682-2.5967,5.6045-10.6025,6.5684-16.4863,5.8086-6.0137-.7763-13.5195-4.9345-16.6524-10.7822a17.22448,17.22448,0,0,1-20.3447,3.9648c-4.2763-2.0839-7.7695-5.455-7.7539-10.5273a13.068,13.068,0,0,1,1.8906-6.6191,12.17335,12.17335,0,0,1,1.7588-2.0508c.8076-.8516,1.8047-1.2266,2.6084-1.9883.834-.793,2.1123.2627,1.7403,1.2559a16.08574,16.08574,0,0,1-1.46,3.4482A9.21781,9.21781,0,0,0,9.82974,48.38c-.2119,3.7256,2.9472,5.9951,5.9238,7.3672,6.4854,2.9912,12.9082-.7178,16.1924-6.4434,1.04-1.8154,4.25-1.0205,4.4219,1.0225.4687,5.623,7.7089,10.4394,12.8447,11.3984,4.1123.7656,12.3662,1.2187,12.6416-4.6211.1348-2.8115,3.8281-2.8594,4.8496-.791,5.1728,1.7754,10.6621,6.3789,16.3603,5.1699,3.4737-.7373,5.129-4.4277,5.2295-7.5791.125-3.9072-1.9199-7.5928-3.1084-11.2158a2.77142,2.77142,0,0,1,3.4659-3.6953c3.6142.8662,8.8203,1.9179,12.4463.6738,3.2314-1.1074,2.9082-5.2715,1.7617-7.752-2.4932-5.3876-9.626-11.4824-15.7979-9.2246a3.36779,3.36779,0,0,1-1.4316.6377,1.29853,1.29853,0,0,1-.4492.0557,5.08069,5.08069,0,0,1-1.5059-.123,2.32958,2.32958,0,0,1,.0879-4.629,6.01271,6.01271,0,0,0-.4619-1.0195c-.8037-1.5215-1.5323-3.123-2.4014-4.6318-1.9785-3.4307-4.8574-6.5264-8.8633-7.2119a21.56975,21.56975,0,0,0-11.2968,1.4121c-3.5274,1.3183-7.2461,2.4502-9.7891,5.3965a2.818,2.818,0,0,1-4.3945.1308c-1.5059-1.8799-2.795-3.9463-4.7188-5.4375-2.2764-1.7656-4.3008-1.9658-7.0332-1.3564-2.1348.4756-4.3594.8271-5.8867,2.54a10.61471,10.61471,0,0,0-1.7373,3.0205c-.4072.9571-1.0908,1.9307-1.4209,2.836a1.85771,1.85771,0,0,1-.8965,1.0087,2.47185,2.47185,0,0,1-2.2383,3.2598c-2.6269.0645-5.2422-.2129-7.8681-.2129a12.31186,12.31186,0,0,0-8.5,3.5801c-4.70123,4.2734,2.1435,10.2129,3.749,14.0596A1.62071,1.62071,0,0,1,7.97134,38.17588Z" fill="#0087cb"/>
      </g>
      <g>
        <g>
          <path d="M182.47878,48.62143c2.3613-.1719,5.8379-1.1875,8.0664-.4678,5.7305,1.8535,7.5488,8.8779,8.0332,13.9062.4375,4.5528-.1836,7.9717-5.0801,9.9873-3.2988,1.3545-8.2773.4415-11.2558-1.2089,2.1816,4.5586,4.2949,10.0732-.3106,13.6093-5.9277,4.5538-11.875-.9433-13.6406-6.6816,1.1855,3.6729-2.0567,5.9092-5.336,6.0215-4.0839.1347-3.1347-2.3653-5.0664-5.1699,1.7012,7.6084-10.0703,11.0556-15.5586,9.9423-4.8906-.9873-5.8457-5.0683-7.6464-9.2539-.9258-2.1552-3.2793-6.3476.2832-7.6279-5.17,4.7441-15.5782-3.9951-15.5996-10.0859-.0196-5.2979,8.1152-10.0811,11.5351-4.9922-2.4687-3.6465-4.0547-5.0117-4.3769-9.7578-.2832-4.169.6113-7.1114,4.2285-9.6582,9.2597-6.5186,17.7617,5.1474,18.207,13.5683-.9551-4.458.3262-10.581,4.8399-12.6299,2.6699-1.2119,7.5175-.955,9.5605,1.3448,1.9473,2.1953,1.4531,5.8935,1.5957,8.6552,2.2578-4.121,2.9473-10.1367,8.4844-11.5302,5.0195-1.2608,14.8789,10.1855,10.3613,14.2558" fill="#fff"/>
          <path d="M142.03148,90.03643c-5.0273-1.0156-6.5664-4.8164-8.0527-8.4922-.2188-.542-.4414-1.0908-.6797-1.6435-.0879-.2061-.1895-.4307-.2969-.6709a13.28359,13.28359,0,0,1-1.4433-4.6836,10.12634,10.12634,0,0,1-4.2871-.9405c-4.5313-1.9804-9.3926-7.2783-9.4102-12.0078-.0156-4.0547,3.4551-7.3095,6.7305-8.3134a8.01449,8.01449,0,0,1,2.0332-.3545,13.71819,13.71819,0,0,1-1.6016-5.9844c-.3437-5.0625,1.1113-8.3506,4.8633-10.9932a10.20319,10.20319,0,0,1,10.8672-1.1035,17.30332,17.30332,0,0,1,7.3379,7.6748,9.91906,9.91906,0,0,1,5.0859-5.7724c3.293-1.4952,8.8301-1.0772,11.3106,1.7158a7.24079,7.24079,0,0,1,1.5917,3.3086c1.3243-2.9102,3.1641-5.6807,6.9961-6.6446,3.9512-.9961,9.5274,3.5782,12.0489,8.3047a11.76936,11.76936,0,0,1,1.1758,3.1328,11.11357,11.11357,0,0,1,4.7089.1534c6.8301,2.208,8.6133,10.4668,9.0684,15.1923.4355,4.5235.0098,9.0498-6.0078,11.5245a14.71376,14.71376,0,0,1-8.9942.121c1.3965,3.7579,2.1993,8.6836-2.2265,12.0811a8.3883,8.3883,0,0,1-7.9492,1.6045,11.93952,11.93952,0,0,1-5.959-4.7197,7.85422,7.85422,0,0,1-5.9375,2.7666c-2.3848.083-3.6035-.6866-4.3379-1.6807a8.89662,8.89662,0,0,1-1.502,2.0137c-2.9902,3.0517-8.2929,4.6523-12.5097,4.6523A13.31933,13.31933,0,0,1,142.03148,90.03643Zm17.0977-12.2725a12.30266,12.30266,0,0,1,1.3828,2.8038c.582,1.5341.6601,1.7714,2.3926,1.7148a4.79835,4.79835,0,0,0,3.705-1.6699,2.51125,2.51125,0,0,0,.2774-2.2949c-.0117-.0372-.0234-.0733-.0352-.1123a1.50578,1.50578,0,0,1,2.8731-.9024c.0137.041.0273.084.041.127,1.0605,3.3437,3.4805,6.1269,6.0488,6.9453a5.47965,5.47965,0,0,0,5.2012-1.1231c3.3379-2.5634,2.3613-6.5556-.1328-11.7617a1.50523,1.50523,0,0,1,2.0859-1.9687c2.6055,1.4414,7.1524,2.2841,9.9551,1.1318,4.0176-1.6543,4.5605-4.2461,4.1543-8.4502-.3828-3.9912-1.8027-10.9365-6.9941-12.6172a9.62008,9.62008,0,0,0-3.8204.0274,4.845,4.845,0,0,1-1.4531,2.3535,1.50687,1.50687,0,0,1-2.332-1.8408h-.002a1.50542,1.50542,0,0,1-.1074-3.0069c.291-.0215.6094-.0566.9473-.1045a9.56778,9.56778,0,0,0-.8496-2.1621c-2.0508-3.8476-6.5078-7.3418-8.6582-6.7998-3.3653.8467-4.6036,3.9219-5.9102,7.1768a33.69026,33.69026,0,0,1-1.623,3.6152,1.50445,1.50445,0,0,1-2.8223-.6465c-.0313-.5937-.0352-1.2314-.0371-1.8877-.0059-2.2265-.0156-4.5312-1.1817-5.8428-1.5136-1.705-5.6308-1.9658-7.8105-.9736-3.0332,1.376-4.4043,5.2656-4.2461,8.8985a16.84565,16.84565,0,0,1,.2871,2.2812,1.50481,1.50481,0,0,1-2.9746.3926,14.82866,14.82866,0,0,1-.3086-2.2969c-.8906-4.2988-3.7637-9.2793-7.7422-11.2119a7.288,7.288,0,0,0-7.8183.8564c-2.8926,2.0371-3.8672,4.294-3.5938,8.3272.2402,3.5264,1.1973,4.874,2.9375,7.3213.3594.5058.7461,1.0478,1.1563,1.6523a.35315.35315,0,0,1,.0254.0391l.0039.0019h0l.0019.003a1.50645,1.50645,0,0,1-2.498,1.6845c-.0059-.0117-.0157-.0224-.0235-.0351a3.44543,3.44543,0,0,0-4.1582-1.2451c-2.5429.7822-4.6093,3.2138-4.5996,5.4228.0098,3.1104,3.6367,7.5254,7.6055,9.2608a5.94769,5.94769,0,0,0,4.2637.455,4.64245,4.64245,0,0,1,1.7148-1.041,1.50542,1.50542,0,0,1,1.5273,2.5254,6.66825,6.66825,0,0,1-1.3281.9541c-.3906.9805.5352,3.0234,1.0899,4.249.1152.2569.2246.501.3203.7207.2441.5723.4765,1.1426.7031,1.7032,1.5449,3.8164,2.5781,6.0078,5.8594,6.6699,3.5.708,9.5429-.6641,12.3867-3.5654a4.68918,4.68918,0,0,0,1.4023-4.5694,1.50717,1.50717,0,0,1,2.711-1.1846Z" fill="#005eaa"/>
        </g>
        <g opacity="0.57">
          <path d="M141.65848,91.88113c-6.0215-1.2158-7.9082-5.8818-9.4258-9.6308-.2129-.5293-.4297-1.0664-.6621-1.6084-.084-.1944-.1817-.4082-.2832-.6338a19.87693,19.87693,0,0,1-1.3672-3.6904,12.96118,12.96118,0,0,1-3.4043-.9873c-5.0508-2.209-10.5176-8.085-10.5371-13.7266-.0156-4.3301,3.4121-8.6563,7.9863-10.0957a17.55486,17.55486,0,0,1-.8183-4.4356c-.2618-3.8545.1445-8.7763,5.6562-12.6601a12.17654,12.17654,0,0,1,12.7754-1.2559,17.49984,17.49984,0,0,1,6.4043,5.5821,10.94282,10.94282,0,0,1,4.416-3.7012c3.8984-1.7695,10.3984-1.3086,13.4961,2.1797.1309.1484.2559.2978.3711.4521a10.93858,10.93858,0,0,1,6.3496-4.3633c5.5664-1.4013,11.7422,4.6895,14.1699,9.2452a14.67674,14.67674,0,0,1,.8867,1.9892,10.666,10.666,0,0,1,3.9161.3887c5.8203,1.8838,9.5019,7.8515,10.3632,16.8056.4532,4.7012.0469,10.4776-7.166,13.4454a14.65763,14.65763,0,0,1-7.0449.7978c.7793,3.7119.4258,7.9541-3.7441,11.1553a10.37283,10.37283,0,0,1-9.668,1.9053,13.02957,13.02957,0,0,1-5.5723-3.7383,10.2687,10.2687,0,0,1-5.6875,1.873,7.785,7.785,0,0,1-4.0351-.8017c-.166.1953-.3399.3838-.5254.5713-3.4238,3.4951-9.2188,5.2148-13.8555,5.2148A15.20147,15.20147,0,0,1,141.65848,91.88113ZM160.68,76.69663a14.23122,14.23122,0,0,1,1.5937,3.2041c.0586.1562.127.3418.1914.5.0996.0039.2227.0058.375,0a3.07386,3.07386,0,0,0,2.2305-.8711c.0488-.0684.1484-.2119.0176-.6612q-.0177-.05265-.0352-.1084a3.38886,3.38886,0,0,1,6.4648-2.0351c.0137.0469.0293.0928.043.1396.8594,2.7022,2.877,5.0967,4.8262,5.7188a3.54259,3.54259,0,0,0,3.4824-.8242c1.7813-1.3662,2.2383-3.3536-.6855-9.4561a3.38888,3.38888,0,0,1,4.6972-4.4277c2.1875,1.2109,6.1446,1.9345,8.3262,1.0371,2.5762-1.0586,3.4141-2.2041,3-6.5293-.2734-2.8418-1.3789-9.6065-5.7031-11.0039a5.51933,5.51933,0,0,0-1.8946-.0332,6.70772,6.70772,0,0,1-1.541,2.0195,3.382,3.382,0,0,1-5.6152-2.0293,3.38727,3.38727,0,0,1,.3281-5.6474,13.12313,13.12313,0,0,0-.875-1.3838c-2.1738-3.0098-4.8437-4.4942-5.6387-4.4278-2.3183.585-3.2675,2.6817-4.623,6.0537a35.03446,35.03446,0,0,1-1.7168,3.8194,3.389,3.389,0,0,1-6.3555-1.4551c-.0312-.6231-.0351-1.29-.0371-1.9775-.0078-1.7012-.0136-3.8194-.709-4.5997-.8496-.9599-4.0058-1.246-5.625-.5087-2.2226,1.0078-3.2402,4.0791-3.1484,6.9648a18.71014,18.71014,0,0,1,.293,2.3984,3.38867,3.38867,0,0,1-6.6973.8907,16.61745,16.61745,0,0,1-.332-2.4317c-.8164-3.8017-3.3789-8.1679-6.6992-9.7802a5.39515,5.39515,0,0,0-5.9122.7021c-2.3496,1.6543-3.0292,3.2715-2.7988,6.6602.2031,2.997.9024,3.9804,2.5918,6.3574.3692.5146.7617,1.0674,1.1758,1.6806a.3932.3932,0,0,1,.0391.0586,3.38735,3.38735,0,0,1-5.6153,3.7901q-.0264-.0396-.0527-.0762c-.2266-.3271-.6953-.8652-2.0176-.4609-1.7187.5283-3.2773,2.2509-3.2734,3.6162.0097,2.123,3,6.0215,6.4765,7.5439a4.72022,4.72022,0,0,0,2.586.4785,6.73223,6.73223,0,0,1,2.0019-1.1132,3.38845,3.38845,0,0,1,3.4375,5.6855,8.554,8.554,0,0,1-.7402.6094,16.83318,16.83318,0,0,0,.9434,2.4297c.123.2695.2382.5244.3359.7539.2519.584.4883,1.167.7207,1.7402,1.5098,3.7315,2.2383,5.0791,4.4863,5.5313,2.9082.5908,8.3106-.6348,10.668-3.0391a2.80112,2.80112,0,0,0,.9121-2.8408,3.38885,3.38885,0,0,1,6.0977-2.6621Z" fill="#0087cb"/>
        </g>
      </g>
    </g>
  </g>
</svg>
