<svg xmlns="http://www.w3.org/2000/svg" viewBox="0 0 118.92544 45.43383">
  <title>conoceRecurso 10</title>
  <g id="Capa_2" data-name="Capa 2">
    <g id="Editar">
      <g>
        <path d="M39.48164,24.68976a2.00154,2.00154,0,0,0-1.9648-1.4961,8.26014,8.26014,0,0,0-5.6094,3.4131,5.31454,5.31454,0,0,0-3.001.6382c-.038.022-.0713.0444-.1084.0669a4.908,4.908,0,0,0-3.9257-.729,19.18593,19.18593,0,0,0-.6055-3.728c-1.3672-4.9698-7.7051-4.2564-9.3584,0-.2275.5825-.4346,1.1713-.6358,1.7622a4.068,4.068,0,0,0-3.0097-.1563,10.0695,10.0695,0,0,0-3.7276,2.3574,13.44117,13.44117,0,0,0-1.3447-3.8266c-2.0664-3.8457-7.70308-.4629-5.8066,3.3935,1.2324,2.5074.3769,5.4458.1377,8.0816a12.892,12.892,0,0,0,1.5576,7.185,4.55651,4.55651,0,0,0,5.1328,2.0904,7.40454,7.40454,0,0,0,2.5801-1.2862c1.3984,2.3125,4.3662,3.605,6.9668,1.9038.10352-.0688.1894-.145.289-.2133a4.45663,4.45663,0,0,0,5.795.396,12.87952,12.87952,0,0,0,1.8867-1.6138,5.02833,5.02833,0,0,0,5.1269-.0986,13.486,13.486,0,0,0,1.8907-1.6348,4.86555,4.86555,0,0,0,4.7949-2.4898C38.69656,34.64336,40.21414,29.23466,39.48164,24.68976Z" fill="#bbce00"/>
        <path d="M35.47584,20.642a1.196,1.196,0,0,0-1.1895-.315,13.33063,13.33063,0,0,0-4.88278,3.128c-1.89842,1.7426-4.18942,5.1796-7.02732,5.4423-.0586-4.0927-.461-8.0546-2.6016-11.6757a1.23332,1.23332,0,0,0-1.6719-.438c-4.4824,2.644-4.6455,8.0815-7.834,11.5053-1.9267-2.4511-3.248-5.3129-5.3535-7.6469a1.2418,1.2418,0,0,0-1.4824-.1909c-4.9355,2.3574-3.1094,11.4638-3.0488,15.7236a1.22281,1.22281,0,0,0,2.4443,0c-.042-2.9434-1.4336-10.4136,1.0313-12.9966,1.9716,2.4736,3.3037,5.3818,5.4384,7.7485a1.24225,1.24225,0,0,0,1.7286,0c3.6796-2.894,3.7822-8.3154,7.2636-11.2729,1.5235,3.2646,1.6446,6.7905,1.6514,10.4087a1.21479,1.21479,0,0,0,.8975,1.1792c4.1953.6289,6.9062-2.666,9.60742-5.3897a17.77588,17.77588,0,0,1,3.27538-2.6801c1.5849-.981,1.1152,5.2846,1.0849,5.496-.40128,2.9351-1.292,5.7544-1.4179,8.7295-.06738,1.5772,2.3779,1.5708,2.4443,0C36.06956,31.86116,39.52174,25.52276,35.47584,20.642Z" fill="#000100"/>
      </g>
      <g>
        <path d="M118.63106,12.72636a3.15269,3.15269,0,0,0-3.0986-2.3593,13.02409,13.02409,0,0,0-8.84373,5.3808,8.39,8.39,0,0,0-4.7315,1.0064c-.0605.0356-.1123.0703-.1709.1054a7.7427,7.7427,0,0,0-6.1904-1.1494,30.15922,30.15922,0,0,0-.9541-5.8779c-2.15628-7.8359-12.1484-6.7109-14.7559,0-.35738.9185-.6855,1.8472-1.0019,2.7783a6.41649,6.41649,0,0,0-4.7471-.2461,15.89,15.89,0,0,0-5.876,3.7173,21.1267,21.1267,0,0,0-2.1211-6.0337c-3.2578-6.0639-12.1445-.7305-9.15428,5.3506,1.94338,3.9531.59478,8.5864.21678,12.7427a20.341,20.341,0,0,0,2.4551,11.3296,7.18682,7.18682,0,0,0,8.0938,3.2949,11.63975,11.63975,0,0,0,4.0664-2.0278c2.205,3.6469,6.8867,5.684,10.9873,3.0019.1631-.1079.2988-.2285.4541-.3364a7.02973,7.02973,0,0,0,9.1386.625,20.434,20.434,0,0,0,2.9747-2.5449c2.5068,1.2998,5.8398,1.4931,8.0839-.1558a21.16972,21.16972,0,0,0,2.9795-2.5776,7.67235,7.67235,0,0,0,7.56163-3.9253C117.39576,28.41976,119.78636,19.892,118.63106,12.72636Z" fill="#bbce00"/>
        <path d="M112.31564,6.34356a1.886,1.886,0,0,0-1.8769-.497,21.02724,21.02724,0,0,0-7.6983,4.9321c-2.9912,2.748-6.6064,8.1665-11.0781,8.581-.0947-6.4526-.7275-12.6997-4.1025-18.4096a1.946,1.946,0,0,0-2.6377-.69c-7.0664,4.169-7.3233,12.7422-12.35258,18.1407-3.03712-3.8648-5.11912-8.3775-8.43942-12.0572a1.95778,1.95778,0,0,0-2.3369-.3012c-7.7832,3.7172-4.9043,18.0756-4.8096,24.792.0351,2.4848,3.8906,2.4873,3.8555,0-.0665-4.6407-2.2598-16.419,1.6269-20.4922,3.1084,3.8999,5.207,8.4853,8.5742,12.2172a1.9601,1.9601,0,0,0,2.7266,0c5.8008-4.5629,5.9629-13.1108,11.4521-17.7744,2.4014,5.148,2.5928,10.7071,2.60362,16.4121a1.91634,1.91634,0,0,0,1.415,1.8594c6.61518.9912,10.89058-4.2036,15.14837-8.498a28.11021,28.11021,0,0,1,5.1631-4.2266c2.5-1.5459,1.7588,8.3325,1.7119,8.6665-.6328,4.6279-2.0371,9.0728-2.2363,13.7637-.1064,2.4868,3.75,2.477,3.85553,0C113.25126,24.03256,118.69556,14.03886,112.31564,6.34356Z" fill="#000100"/>
      </g>
    </g>
  </g>
</svg>
