<svg xmlns="http://www.w3.org/2000/svg" viewBox="0 0 334.12297 327.75214">
  <title>conoceRecurso 4</title>
  <g id="Capa_2" data-name="Capa 2">
    <g id="Editar">
      <g>
        <g>
          <path d="M302.4831,104.66343c9.22609,4.9121,5.6875,27.1601-5.6294,26.4511a6.389,6.389,0,0,1-7.7534-1.0249C281.382,121.47833,288.6311,97.28883,302.4831,104.66343Z" fill="#fff"/>
          <path d="M303.0407,131.73423c2.1328-4.5992,4.8916-8.2735,9.7852-10.0782,5.1069-1.8833,13.5205,1.3159,14.32029,7.2432.96681,7.1631-5.20019,10.9253-11.55229,11.3198a17.97162,17.97162,0,0,1-7.2773-1.1792A5.14316,5.14316,0,0,1,303.0407,131.73423Z" fill="#fff"/>
          <path d="M261.3244,136.02863c8.1983-7.8975,25.5615-3.4263,34.1289,1.6406,7.1543,4.231,14.0698,8.4971,17.2715,16.5342a12.05421,12.05421,0,0,1,.751,2.832,8.13761,8.13761,0,0,1,.4057,5.9873c-2.3164,6.4727-7.0019,9.2085-13.5996,10.0127-1.2368.1509-2.4633.2222-3.6836.252-8.1855.8183-17.3403-1.7549-24.0957-5.9121a22.37476,22.37476,0,0,1-5.0258-4.4903c-.4102-.3115-.8218-.6206-1.22461-.9424a18.09612,18.09612,0,0,1-4.70269-5.7724C256.8488,150.06863,254.8254,142.28933,261.3244,136.02863Z" fill="#ffa147"/>
          <path d="M272.3444,165.19463q.03075-.50025.062-1a6.66449,6.66449,0,0,1,5.8169-6.5352c.2774-.3579.5328-.7324.795-1.1127a35.16566,35.16566,0,0,0,2.25189-3.8477,55.99039,55.99039,0,0,0,5.27541-14.3525,5.96883,5.96883,0,0,1,3.0933-4.2188,4.7851,4.7851,0,0,1,6.4028-.709c13.398,9.5581,9.0479,33.2637-5.0288,40.1397-3.3599,1.6411-7.6016,2.8408-11.1045.8647a9.338,9.338,0,0,1-3.2065-2.9951A6.12784,6.12784,0,0,1,272.3444,165.19463Z" fill="#724528"/>
        </g>
        <g>
          <path d="M250.5559,146.13993c-.1631,11.5127,9.2075,21.2954,18.0019,27.5122,10.8482,7.6675,25.21439,10.9141,37.8653,5.7984,5.8149-2.3511,10.1855-6.5357,11.3247-12.8863,1.1118-6.2007-1.1158-12.5923-4.5533-17.7099a40.98862,40.98862,0,0,0-4.04831-5.0943,29.84363,29.84363,0,0,0,18.06791-2.9736c3.2588-1.7539,6.5888-4.7412,6.8838-8.6919.2744-3.667-1.7354-7.1846-4.4703-9.5298-5.0185-4.3056-11.1093-4.4848-16.9448-2.7055a23.31761,23.31761,0,0,0-.8569-10.7798c-1.2002-3.5752-4.47071-5.8843-7.7505-7.3785a16.24073,16.24073,0,0,0-6.5195-1.7465c-2.2251.0044-3.9746.81-6.0879,1.2783a15.43724,15.43724,0,0,0-9.0313,5.6177c-2.3696,2.9585-3.2138,7.601-3.3481,11.3042a23.66956,23.66956,0,0,0,1.894,10.2524c-1.7422-.0068-3.4663.0396-5.0991.0317-3.8257-.017-7.8115-.1279-11.5444.8609C256.6809,131.32793,250.6711,138.00273,250.5559,146.13993Zm58.019-24.7051c-.1836.084-.36671.169-.5483.2564-4.9449,2.3681-10.2906,6.4199-13.1226,11.499q-1.22235-.657-2.4702-1.2827a1.91348,1.91348,0,0,0-1.0371-1.7583,18.49614,18.49614,0,0,0-6.0547-1.5391q-.5076-.2226-1.019-.4458c-.855-3.0014-2.1065-5.9253-2.1226-9.0908-.0176-3.456.4194-7.9492,2.9331-10.5962,2.4009-2.5298,4.9878-3.1499,8.1709-4.2085a12.27972,12.27972,0,0,1,10.40479,1.189,9.72393,9.72393,0,0,1,5.44771,8.4287A21.54774,21.54774,0,0,1,308.5749,121.43483Zm-1.8413,4.7832a22.40507,22.40507,0,0,1-8.1191,9.0977c-.1099-.0669-.2217-.1328-.3316-.2007C299.9899,131.50813,303.4582,128.35383,306.7336,126.218Zm-4.4697,11.1143a27.99945,27.99945,0,0,0,9.5005-13.79c4.8486-2.043,10.6323-2.9297,14.5673,1.125,1.9258,1.9838,4.16649,5.1518,2.4092,7.9692-1.6704,2.6792-5.0683,4.1274-8.0078,4.9102C314.5891,139.18243,308.4343,138.25473,302.2639,137.33233Zm-7.1592,38.8696a33.93138,33.93138,0,0,0,8.7456-7.1059c3.2612-3.6577,6.4307-8.1123,7.2402-13.0699.0474-.288.0952-.581.14069-.8769,1.831,4.4907,2.59471,9.5752-.02689,13.8672C308.0441,174.19123,301.0676,175.97983,295.1047,176.20193Zm-23.0034-6.998c5.0512-2.2925,10.146-7.5386,12.3891-10.7212,3.0923-4.3897,5.5015-9.125,5.32279-14.6035-.09569-2.9522-.00389-5.6201-1.11429-8.3877-.1645-.4082-.3442-.7974-.53271-1.1773a19.13234,19.13234,0,0,0,2.72021-.2597,1.68708,1.68708,0,0,0,.63579-.253q1.18276.786,2.33251,1.6231a15.02822,15.02822,0,0,0-.7192,2.4702,2.06188,2.06188,0,0,0,3.1181,2.2485,1.88186,1.88186,0,0,0,1.4678-.0761c.3057-.1431.5991-.2959.8955-.4483a1.68617,1.68617,0,0,0,1.1211,1.4873c.6323.2837,1.2793.541,1.9326.7862a46.35358,46.35358,0,0,1,5.1157,5.5463c.2256.8257.4737,1.6455.7325,2.4634a9.15858,9.15858,0,0,1-.3277,5.855,28.61985,28.61985,0,0,1-6.9585,10.9253c-2.8369,2.8149-6.54341,6.1465-10.54541,7.1367a23.36909,23.36909,0,0,1-8.80419.1021,35.75648,35.75648,0,0,1-6.7256-3.3472C273.4675,170.135,272.7824,169.67463,272.1013,169.20393Zm-15.669-24.77c1.4414-6.3335,6.58989-9.8555,12.8824-10.3218,3.39549-.2505,6.8256-.2212,10.227-.1699,1.2466.018,2.5034.1079,3.7632.1962.30029.8633.5976,1.7276.81829,2.6143.58941,2.3604.28621,4.7139.23981,7.1265-.082,4.2719-1.8291,7.6508-4.2607,11.1147a28.02238,28.02238,0,0,1-8.97811,8.5259,11.54277,11.54277,0,0,1-2.55269,1.3037c-1.0894.2822-1.582-.5142-2.5855-.6514-.06-.0078-.1201-.0249-.1801-.0385a38.68518,38.68518,0,0,1-4.51571-5.0508C258.3112,155.04963,255.2409,149.66873,256.4323,144.43393Z" fill="#463131"/>
          <path d="M265.758,138.57693a2.45126,2.45126,0,0,1,3.8975,0,3.13182,3.13182,0,0,1,1.0634,2.3003,3.0117,3.0117,0,0,1-6.0234,0A3.13271,3.13271,0,0,1,265.758,138.57693Z" fill="#463131"/>
          <path d="M323.4494,182.20783a2.49093,2.49093,0,0,1,4.80279,1.3237,2.65354,2.65354,0,0,1-1.14409,1.4883c-.0527.0376-.1045.0737-.1562.1113a2.11462,2.11462,0,0,1-2.20271,0c-.05119-.0376-.103-.0737-.15529-.1113a2.49372,2.49372,0,0,1-1.1445-2.812Z" fill="#463131"/>
          <path d="M328.2736,196.68193a2.36379,2.36379,0,0,1,2.2549,2.9619c-.04731.1802-.0942.3618-.1421.542a2.19215,2.19215,0,0,1-4.226,0c-.0469-.1802-.0948-.3618-.1416-.542A2.36353,2.36353,0,0,1,328.2736,196.68193Z" fill="#463131"/>
          <path d="M313.363,209.28253q.3201-.0564.6406-.1113a2.16952,2.16952,0,0,1,1.5684.2055,2.03668,2.03668,0,0,1,.4126,3.1973,2.11819,2.11819,0,0,1-1.981.5229c-.21341-.0376-.4272-.0737-.6406-.1113a1.92061,1.92061,0,0,1,0-3.7031Z" fill="#463131"/>
          <path d="M295.0603,212.63893a3.79644,3.79644,0,0,1,1.5942-.1987,2.092,2.092,0,0,1,1.7632,1.0957,1.19779,1.19779,0,0,1,0,1.6572,2.09178,2.09178,0,0,1-1.7632,1.0957,3.78045,3.78045,0,0,1-1.5942-.1987A1.80607,1.80607,0,0,1,295.0603,212.63893Z" fill="#463131"/>
          <path d="M274.9528,212.30743a4.2353,4.2353,0,0,1,1.9478-.5967,3.671,3.671,0,0,1,1.0762.1011,2.64636,2.64636,0,0,1,.875.4311,2.23575,2.23575,0,0,1-.0557,4.2637c-.0645.0454-.1177.1021-.187.1441a3.39587,3.39587,0,0,1-1.522.3774,4.011,4.011,0,0,1-2.1343-.6064A2.41349,2.41349,0,0,1,274.9528,212.30743Z" fill="#463131"/>
          <path d="M259.6311,220.72393c3.2548,0,3.2548,5.0469,0,5.0469C256.3757,225.77083,256.3757,220.72393,259.6311,220.72393Z" fill="#463131"/>
        </g>
      </g>
      <g>
        <g>
          <path d="M176.82736,5.00508c-8.92188,5.44514-4.08358,27.4471,7.1722,26.07509a6.389,6.389,0,0,0,7.67988-1.47821C198.879,20.5525,190.22264-3.16983,176.82736,5.00508Z" fill="#fff"/>
          <path d="M177.8596,32.06194c-2.39907-4.46609-5.36877-7.97213-10.35985-9.4865-5.20863-1.58031-13.42,2.1072-13.87048,8.07122-.54471,7.2075,5.83247,10.60125,12.19678,10.62224a17.97162,17.97162,0,0,0,7.19554-1.6043A5.14316,5.14316,0,0,0,177.8596,32.06194Z" fill="#fff"/>
          <path d="M219.756,33.90047c-8.6477-7.4027-25.71853-1.9201-33.97377,3.64091C178.88863,42.185,172.23545,46.84964,169.511,55.0608a12.05421,12.05421,0,0,0-.58349,2.8712,8.13761,8.13761,0,0,0-.05359,6.00079c2.69231,6.32558,7.53031,8.78166,14.16383,9.19723,1.24352.078,2.47209.07724,3.692.03536,8.21942.33645,17.2074-2.76964,23.70716-7.31617a22.37476,22.37476,0,0,0,4.75358-4.77754c.39121-.335.784-.66776,1.16718-1.01265a18.09612,18.09612,0,0,0,4.35578-6.03847C225.048,47.65357,226.6113,39.76892,219.756,33.90047Z" fill="#ffa147"/>
          <path d="M210.46689,63.663q-.06006-.49758-.12059-.99464a6.66449,6.66449,0,0,0-6.19045-6.18252c-.29793-.341-.57487-.69987-.85894-1.06412a35.16567,35.16567,0,0,1-2.47385-3.7089,55.99039,55.99039,0,0,1-6.10871-14.01813,5.96883,5.96883,0,0,0-3.33558-4.03,4.7851,4.7851,0,0,0-6.43338-.332c-12.8139,10.328-7.07994,33.73741,7.37607,39.77534,3.45043,1.44107,7.75523,2.38974,11.13611.21145a9.338,9.338,0,0,0,3.02518-3.17814A6.12784,6.12784,0,0,0,210.46689,63.663Z" fill="#724528"/>
        </g>
        <g>
          <path d="M216.35159,27.36c-3.7845-.768-7.75692-.42335-11.575-.18184-1.62952.10372-3.35337.15859-5.09217.26764a23.66956,23.66956,0,0,0,1.289-10.34589c-.35142-3.68893-1.46665-8.27388-4.00581-11.0882A15.43724,15.43724,0,0,0,187.62211.93378C185.485.59033,183.6912-.1112,181.46968.015a16.24073,16.24073,0,0,0-6.40575,2.12614c-3.18644,1.68413-6.31578,4.1812-7.30407,7.82068a23.31761,23.31761,0,0,0-.22272,10.81151c-5.92987-1.43373-11.99965-.89735-16.75679,3.69538-2.59254,2.50168-4.39241,6.13118-3.90326,9.77575.52637,3.92657,4.026,6.71328,7.38209,8.27288a29.84363,29.84363,0,0,0,18.21129,1.908,40.9886,40.9886,0,0,0-3.74233,5.32313c-3.1312,5.31054-4.97982,11.82186-3.506,17.94662,1.51,6.27279,6.11865,10.19365,12.06152,12.1994,12.92935,4.36436,27.08023.28015,37.45969-8.01085,8.41435-6.72226,17.19462-17.03808,16.35608-28.52136C230.50684,35.24588,224.11563,28.93533,216.35159,27.36ZM170.7064,14.604A9.72393,9.72393,0,0,1,175.65,5.87008a12.27972,12.27972,0,0,1,10.31707-1.79764c3.23975.86995,5.85858,1.33714,8.40382,3.72167,2.66473,2.4949,3.3647,6.9547,3.55,10.40578.16972,3.161-.908,6.1533-1.58537,9.19971q-.49724.25237-.99108.50484a18.49614,18.49614,0,0,0-5.95393,1.89182,1.91348,1.91348,0,0,0-.93211,1.81614q-1.20848.69613-2.39066,1.42547c-3.12523-4.90412-8.69953-8.63518-13.77489-10.709-.18641-.07659-.37419-.1507-.5624-.22378A21.54774,21.54774,0,0,1,170.7064,14.604Zm12.10123,20.55367c-.10573.07423-.21346.14658-.31925.21982A22.40507,22.40507,0,0,1,173.8493,26.772C177.24442,28.71187,180.89187,31.65717,182.80763,35.15766Zm-22.26877,3.74519c-2.98038-.60892-6.45742-1.85519-8.28219-4.43173-1.91963-2.7094.13126-6.00345,1.93731-8.09687,3.69023-4.27867,9.516-3.733,14.47616-1.97807a27.99945,27.99945,0,0,0,10.2935,13.20861C172.858,38.88777,166.76827,40.17512,160.53886,38.90285ZM171.8983,69.759c-2.869-4.13073-2.405-9.25129-.84076-13.84172.06278.29272.1277.58241.19192.86713,1.09908,4.90154,4.52457,9.16243,7.99484,12.62242a33.93138,33.93138,0,0,0,9.14759,6.58034C182.42623,76.11546,175.35678,74.73941,171.8983,69.759Zm37.07445-.61949a35.75648,35.75648,0,0,1-6.51755,3.73618,23.36909,23.36909,0,0,1-8.795.41482c-4.05322-.7536-7.94888-3.86191-10.9461-6.50545a28.61985,28.61985,0,0,1-7.58775-10.498,9.15858,9.15858,0,0,1-.67079-5.82567c.21035-.83168.4099-1.66463.58665-2.50215a46.35359,46.35359,0,0,1,4.78135-5.837c.63778-.28312,1.26856-.578,1.88312-.89828a1.68617,1.68617,0,0,0,1.03187-1.55054c.30483.13474.6067.27006.92027.395a1.88186,1.88186,0,0,0,1.46974-.01018,2.06188,2.06188,0,0,0,2.98075-2.42764,15.02822,15.02822,0,0,0-.86294-2.42373q1.09795-.90465,2.23322-1.7572a1.68708,1.68708,0,0,0,.64955.21525,19.13234,19.13234,0,0,0,2.73076.09959c-.16588.39031-.32243.78939-.46269,1.20654-.946,2.828-.69782,5.48591-.62007,8.43864.14315,5.47954,2.82613,10.06528,6.17075,14.26591,2.426,3.04546,7.82,7.98348,12.997,9.97556C210.29259,68.161,209.63569,68.66079,208.97275,69.13952Zm12.17057-12.22661A38.68518,38.68518,0,0,1,216.93184,62.22c-.0591.0171-.11809.0377-.17753.049-.99372.19586-1.43872,1.0198-2.54281.802a11.54277,11.54277,0,0,1-2.62481-1.15163,28.02238,28.02238,0,0,1-9.463-7.98425c-2.63072-3.31521-4.57312-6.58574-4.90571-10.84546-.18792-2.40572-.62874-4.73736-.17889-7.12829.16827-.89812.41433-1.77838.66344-2.65782,1.25245-.16209,2.5018-.3256,3.7452-.41674,3.39253-.25085,6.815-.48143,10.21934-.43065,6.309.09617,11.65536,3.30991,13.466,9.54789C226.62963,47.16,223.88046,52.71182,221.14332,56.91291Z" fill="#463131"/>
          <path d="M215.47965,36.7046a2.45126,2.45126,0,0,0-3.89078.22876,3.13182,3.13182,0,0,0-.92655,2.35875,3.0117,3.0117,0,0,0,6.013-.35353A3.13271,3.13271,0,0,0,215.47965,36.7046Z" fill="#463131"/>
          <path d="M160.44856,83.64638a2.49093,2.49093,0,1,0-4.71682,1.60331,2.65354,2.65354,0,0,0,1.22948,1.41858c.05482.03444.10865.06744.16246.10194a2.11462,2.11462,0,0,0,2.19891-.12928c.0489-.04054.0985-.07962.14849-.12022a2.49372,2.49372,0,0,0,.97748-2.87433Z" fill="#463131"/>
          <path d="M156.48221,98.37868a2.36379,2.36379,0,0,0-2.07717,3.08914c.0578.17711.11527.35565.17367.53273a2.19215,2.19215,0,0,0,4.21871-.248c.03624-.18264.0734-.36674.10954-.54938A2.36353,2.36353,0,0,0,156.48221,98.37868Z" fill="#463131"/>
          <path d="M172.10667,110.0824q-.32286-.03751-.646-.07351a2.16952,2.16952,0,0,0-1.55363.2972,2.03668,2.03668,0,0,0-.22423,3.216,2.11819,2.11819,0,0,0,2.00828.40573c.21083-.05006.42214-.09865.633-.14871a1.92061,1.92061,0,0,0-.21735-3.69672Z" fill="#463131"/>
          <path d="M190.57482,112.35877a3.79644,3.79644,0,0,0-1.60311-.10479,2.092,2.092,0,0,0-1.69585,1.1973,1.19779,1.19779,0,0,0,.09727,1.65434,2.09178,2.09178,0,0,0,1.82447.99032,3.78045,3.78045,0,0,0,1.57979-.29193A1.80607,1.80607,0,0,0,190.57482,112.35877Z" fill="#463131"/>
          <path d="M210.6282,110.84766a4.2353,4.2353,0,0,0-1.97946-.48135,3.671,3.671,0,0,0-1.06841.16409,2.64636,2.64636,0,0,0-.84819.48171,2.23575,2.23575,0,0,0,.30586,4.25308c.06705.04154.12349.095.19514.13288a3.39587,3.39587,0,0,0,1.54153.28742,4.011,4.011,0,0,0,2.095-.73062A2.41349,2.41349,0,0,0,210.6282,110.84766Z" fill="#463131"/>
          <path d="M226.41748,118.35037c-3.24919.191-2.953,5.22923.29622,5.0382C229.96348,123.1975,229.66726,118.1593,226.41748,118.35037Z" fill="#463131"/>
        </g>
      </g>
      <g>
        <path d="M297.22881,67.85051a22.81367,22.81367,0,0,0,2.0313-1.5772c6.2207-5.5263,3.7392-14.5117-4.0108-16.7715a10.88067,10.88067,0,0,0-1.3505-.2988,13.31975,13.31975,0,0,0-7.72078.9365,19.59524,19.59524,0,0,0-4.01172,1.6797,26.75509,26.75509,0,0,0-2.36328,1.4893,19.30494,19.30494,0,0,0-1.55562-6.8037,18.135,18.135,0,0,0-1.1123-2.2325c-.0186-.0654-.0313-.1328-.0488-.1972-.8057-2.8408-2.8321-4.4492-5.4747-5.5938a11.4097,11.4097,0,0,0-5.2695-.997,5.42805,5.42805,0,0,0-1.6299.2158c-.1465.0283-.29.0508-.4375.0859-3.01268.7158-4.4365,3.0381-5.8349,5.5049-2.6065,4.6045-.0323,11.3223.8906,16.0527a49.91712,49.91712,0,0,1,1.0205,10.3926,62.55419,62.55419,0,0,0,.1846,8.5147,3.27276,3.27276,0,0,0,1.1211,2,3.65937,3.65937,0,0,0,5.166,2.0332c2.9541-1.5313,6.3027-2.2588,9.4746-3.2285a73.25773,73.25773,0,0,0,9.8076-3.7842C288.56871,74.11811,295.39971,71.38471,297.22881,67.85051Z" fill="#e54654"/>
        <path d="M303.76791,69.44621c4.54-6.2324,4.3935-16.9151-2.0684-21.75-6.2197-4.6543-14.6132-3.5088-20.6181.7832a12.51108,12.51108,0,0,0-.1241-2.8467c-.581-3.3975-2.69528-6.0781-4.7402-8.7432-4.3779-5.7031-11.2178-7.1543-16.7578-2.2285-5.3252,4.7363-6.1475,13.1084-6.1201,19.7432.0293,7.4365,1.54882,14.6133,2.50682,21.9238a2.83887,2.83887,0,0,0,.33008,4.4951c3.3418,2.4893,8.0996,2.3223,12.1035,2.1231a80.70787,80.70787,0,0,0,13.0625-1.999C289.61161,79.14641,298.56481,76.58881,303.76791,69.44621Zm-26.8457,5.5928a63.88932,63.88932,0,0,1-9.5313,1.1933,30.36288,30.36288,0,0,1-4.3955-.2139c.1143-4.5947-2.1142-9.6738-2.3769-13.9863-.3447-5.6328-.878-11.3818.5781-16.9043a13.34575,13.34575,0,0,1,3.7422-6.2959c1.6621-1.5937,3.9365-.374,5.4365.7793a28.46411,28.46411,0,0,1,5.4736,5.7832c1.8663,2.6299,1.5049,5.5127.8487,8.4912a1.6211,1.6211,0,0,0,3.1279.8467c.10452-.3516.209-.7109.3086-1.0752a1.76876,1.76876,0,0,0,1.6445-.5723c4.6885-4.9355,14.2325-7.0097,18.4903-.3056,3.6914,5.8096-.4453,13.959-5.6553,17.0908C289.40171,73.00381,282.79521,73.88661,276.92221,75.039Z" fill="#463131"/>
      </g>
      <g>
        <g>
          <g>
            <path d="M62.57117,199.74328a22.06852,22.06852,0,0,1,.9297,2.8896c.3193,1.1231,1.5,1.9258,1.6416,3.0122.2724,2.1094.4003,3.6934,1.6904,5.4751a5.774,5.774,0,0,0,6.2129,2.5279c3.8125-.7002,8.4765-.9415,11.833-3.0479a6.60184,6.60184,0,0,0,.9717-.7554c3.622,2.939,10.20312,1.6338,9.6884-4.1997-.0048-.063-.0107-.1347-.0166-.2002.6504.0147,1.294.0279,1.917.065a52.40886,52.40886,0,0,0,11.7246-.333c4.8868-.7828,5.2832-7.0259,2.6661-10.0997a109.22083,109.22083,0,0,1-12.1075-17.852c-1.4824-2.6655-2.5888-5.5449-3.9648-8.2715-1.5293-3.0298-3.6729-6.2158-4.6299-9.4487a4.20609,4.20609,0,0,0-2.4375-2.8174,15.70575,15.70575,0,0,0-2.6006-6.6489c-1.3935-1.9019-4.3144-2.2945-5.6299,0-2.1318,3.7197-1.2724,8.5903-1.36618,12.7666a106.37656,106.37656,0,0,0,1.20708,14.9599c.5752,4.816.5244,9.6773,1.25092,14.5191.295,1.9682.63378,3.9433.96188,5.9199-2.872-1.6831-6.08588-2.9263-8.5273-5.2397-1.543-1.462-3.01558-3.0005-4.4844-4.5411a18.08218,18.08218,0,0,0-3.8769-5.0166,5.31023,5.31023,0,0,0-2.4317-1.2197,8.65653,8.65653,0,0,1-2.0371-3.4673c-.97849-3.5605-6.0488-2.6709-6.2392.8443a14.34213,14.34213,0,0,0,2.6972,8.8232C58.451,192.26568,61.04187,196.086,62.57117,199.74328Z" fill="#ffa147"/>
            <path d="M76.077,267.38878c.6631-4.3877-.7148-7.2578-4.39738-9.7061-2.27642-1.5141-4.13582-3.604-6.335-5.3042a20.84284,20.84284,0,0,0,1.11328-1.8291,3.74131,3.74131,0,0,0,.0508-3.4448,6.24771,6.24771,0,0,0,.7646-.9492c2.4004-3.7129,1.3164-8.148.0147-12.0865-1.5821-4.788-1.2627-8.1425,1.622-12.2905a5.22393,5.22393,0,0,0-1.8789-7.164c-3.1357-1.4878-6.206-.7725-9.456-.0201-2.4903.5772-9.0586-.7924-12.7998-1.4848a94.51108,94.51108,0,0,1-9.8584-2.3032c-6.2774-3.1587-12.9942-5.6412-17.8614-10.8897-3.21289-3.2764-7.499-1.3037-8.9238,1.9111a2.09829,2.09829,0,0,0-1.8926,3.5093,92.63377,92.63377,0,0,0,12.711,12.4707c4.81251,4.0547,8.60151,9.4033,13.7539,12.9942,5.4121,3.771,11.2265,6.9033,16.6338,10.6943,2.4111,1.6909,5.1464,4.1226,8.0224,5.7051a37.29136,37.29136,0,0,1-10.0703,6.8701c-8.0342,3.9111-15.6299,10.6103-21.9307,16.8691-2.8554,2.836-1.7099,8.4576,2.4678,9.3477,6.6299,1.4131,13.8008-2.0537,20.22661-3.4849,4.03219-.8979,8.03319-1.937,12.04-2.9389,3.57328-.8936,6.88868-2.3697,10.59078-2.3697C72.94617,271.49468,75.71177,269.80868,76.077,267.38878Z" fill="#ffa147"/>
            <path d="M100.43047,274.66118a70.4482,70.4482,0,0,0-6.8847-2.7392c-.253-.0869-.6211-.19-1.044-.3028a14.41867,14.41867,0,0,0-7.9883-3.0166c-1.7226-2.2587-5.5791-3.3359-6.7236.7798-1.7558,6.3203-1.2217,13.0528-2.8945,19.4317a45.547,45.547,0,0,0-1.4639,10.3637,56.62081,56.62081,0,0,1-.5254,5.7325c-1.8564,4.1826-3.47948,8.3847-3.3467,13.1538.1416,5.0468,7.0821,4.7807,7.6446,0a19.38373,19.38373,0,0,1,1.2773-4.7979,5.54187,5.54187,0,0,0,4.0322-2.3857c3.7276-5.7832,6.795-11.856,10.794-17.4698a23.3657,23.3657,0,0,1,5.1348-5.5712,10.84115,10.84115,0,0,0,4.5058-6.9908C103.286,278.56358,102.81527,275.77348,100.43047,274.66118Z" fill="#ffa147"/>
            <path d="M169.03206,258.69538c-4.3164-2.2007-8.4102-4.7158-12.4883-7.3076-1.8203-1.1572-3.625-2.6016-5.4707-3.9448-.0244-.1162-.0371-.2344-.0644-.3501a2.885,2.885,0,0,0-3.7256-2.0894c-.3916-.2075-.7862-.4077-1.1846-.5815-5.9795-2.6065-10.5537,4.936-5.1348,8.7842.5303.3764,1.0567.7568,1.584,1.1367a32.9735,32.9735,0,0,1-2.4648,4.9897c-2.458,3.9541-6.8887,6.0615-8.8301,10.419a6.29934,6.29934,0,0,0-.543,2.1543c-3.0185-.8799-6.8134.7085-6.7675,4.788.0048.3487.0234.6963.0332,1.044a13.819,13.819,0,0,0-6.5655-.9849c-1.1123.0669-2.2187.1631-3.332.2007a3.54952,3.54952,0,0,0-1.002.0195c-.1123-.0156-.2089-.0283-.2949-.039a.05334.05334,0,0,0,.0196-.0811c-2.6963-5.1001-9.6045-1.7358-9.2364,3.1001a3.42739,3.42739,0,0,0,1.36332,4.1983c1.13668.7007,1.73148,2.6718,2.44138,3.749a34.02318,34.02318,0,0,0,2.7305,3.6987c2.0986,2.4141,3.2588,5.4849,5.8193,7.5806a51.50451,51.50451,0,0,1,13.999,17.9878c2.1924,5.0356,10.0596,2.3081,9.9707-2.7007-.2246-12.6992-5.208-24.8105-5.5371-37.5425,2.5118.7627,5.0469.4219,7.5957-.022a54.82748,54.82748,0,0,1,10.9434-.4653c7.6719.1748,15.3437.209,23.0176.2642,3.8056.0273,5.7549-3.4492,5.2099-6.8399C180.22446,264.29158,173.53986,260.99378,169.03206,258.69538Z" fill="#ffa147"/>
            <path d="M181.64636,210.25638a9.84031,9.84031,0,0,0-1.3301.3755c-4.2901,1.274-8.3613,3.3438-12.6709,4.6148a55.772,55.772,0,0,0-8.1524,2.8764,36.93608,36.93608,0,0,0-6.163,1.5816,4.25757,4.25757,0,0,0-7.4053,1.0532c-1.9082,4.9712-1.7188,10.2339-2.0196,15.4653-.2109,3.6529,4.4844,6.4678,7.5567,4.3374a47.77922,47.77922,0,0,0,6.13482-5.33c2.54288-2.4912,5.63568-3.9864,8.789-5.5513,3.30958-1.6426,6.36618-3.6992,9.71878-5.2974,1.3896-.6635,2.959-.7578,4.3115-1.5107a32.67173,32.67173,0,0,1,2.957-1.6973c.3936-.122.7862-.247,1.1865-.354C191.44616,218.98058,188.50666,208.89368,181.64636,210.25638Z" fill="#ffa147"/>
            <path d="M122.48717,204.19048c1.6728,1.5186,3.25,3.1211,5.04,4.5303,3.3955,2.6699,7.4639,6.8789,11.8487,7.6064,3.499.5811,6.8896-1.4477,6.9394-5.2856a94.98926,94.98926,0,0,1,1.02932-13.4302c.64838-4.063,2.17578-8.5429,2.19918-12.6513.05182-9.1856,3.1787-17.8633,3.4541-26.9805.1299-4.2847-5.5449-6.6499-8.4834-3.5142a85.39927,85.39927,0,0,0-8.0254,9.9688c-2.3838,3.5034-6.1699,6.6123-7.8261,10.4604-2.8282,6.5679-8.1768,11.6094-11.65038,17.7339-.02932.0161-.06062.0274-.08992.0435a4.15956,4.15956,0,0,0-2.0937,4.8095c-.1563.4703-.3047.9429-.4307,1.4307C113.079,204.03328,119.27137,206.75058,122.48717,204.19048Z" fill="#ffa147"/>
          </g>
          <path d="M136.28206,211.18078c-15.4492-13.8887-41.8633-13.4229-56.4287,1.5014a3.76926,3.76926,0,0,0-1.3789.2915,26.16506,26.16506,0,0,0-7.6035,4.1807c-2.5596,2.2051-3.5118,6.4141-4.7012,9.4238-3.3389,8.4492-3.6133,17.1841.7666,25.2564,3.99022,7.3535,10.36822,15.6113,18.4687,18.6191a29.92655,29.92655,0,0,0,9.212,1.8657,39.167,39.167,0,0,0,6.7588,2.9053c10.3496,3.2871,23.9091.9375,32.2939-5.9892C150.92076,254.983,153.28106,226.46148,136.28206,211.18078Z" fill="#ffc531"/>
        </g>
        <g>
          <path d="M195.41486,208.86088c-3.6162-5.4482-25.7471,1.4615-28.7305,2.1158-6.2753,1.3759-12.4414,4.8012-19.0195,4.6464h-.0166a3.46288,3.46288,0,0,0,.1992-.8022c.6729-5.2695.6162-10.7065,1.1563-16.0117.5742-5.6406,1.29-11.2661,1.791-16.9146a113.80923,113.80923,0,0,0,.0156-16.7343c-.2461-4.2872-.1943-8.7715-1.5576-12.8692.9912-.9629,1.2393-2.4409.34182-4.1855a1.73028,1.73028,0,0,0-2.95212,0c.2382.0688.0927.1997-.4405.3925.4619-.4624-.0371-.2568-.7041-.0737a5.321,5.321,0,0,0-2.5185,2.3184c-1.4659,2.0591-3.0977,4.2246-4.3633,6.3911a168.54831,168.54831,0,0,1-10.2686,14.8037c-3.4052,4.6147-5.92088,9.6533-8.8945,14.5405a86.33837,86.33837,0,0,0-4.3848,7.4405,18.45007,18.45007,0,0,1-1.3838,2.2509c-.7959-1.4673-1.2246-2.9878-1.9873-4.5205-1.43448-2.8823-2.9492-5.726-4.5898-8.4975-1.6025-2.708-3.624-5.1275-5.1973-7.8423a58.37137,58.37137,0,0,0-5.5918-7.3819c-2.2168-2.7158-3.6152-6.0459-5.2197-9.1489a75.15721,75.15721,0,0,0-4.5713-7.9077c-1.7939-2.6338-3.9638-5.0132-5.1767-7.9946a1.06872,1.06872,0,0,0-2.043,0,4.98148,4.98148,0,0,0-.1406,1.1606,1.511,1.511,0,0,0-.3262.648c-2.2568,9.3808-1.3477,19.8916-.2832,29.3725.541,4.8233,1.0889,9.6348,1.5703,14.4649.1514,1.5122.3203,3.0522.54982,4.5854-.22952-.1919-.46192-.3828-.68552-.584-3.0118-2.6972-6.6514-4.6142-10-6.8418-3.6543-2.4321-7.2569-4.8276-10.6641-7.6157a44.739,44.739,0,0,1-4.7305-3.8891,43.51671,43.51671,0,0,0-3.1113-3.3413,1.33688,1.33688,0,0,0-1.1777-1.9087q-.29445-.01395-.58689-.0372a1.47278,1.47278,0,0,0-1.81741,1.3843c-.0117.1382-.0157.2749-.0225.4131a1.61944,1.61944,0,0,0-.0058,1.1773,12.6239,12.6239,0,0,0,1.0273,4.3125c.959,2.2558,1.6348,4.6098,2.4551,6.9204,1.5576,4.3842,3.9082,8.3589,5.7099,12.6216,1.8975,4.4902,4.1631,8.7915,5.6397,13.4555.291.9234.5674,1.8677.8584,2.8125a22.70491,22.70491,0,0,0-3.17868-1.2895,53.46052,53.46052,0,0,0-10.05571-1.899,84.29934,84.29934,0,0,1-9.0928-1.9721q-2.43015-.597-4.8779-1.1211a30.45191,30.45191,0,0,1-5.9512-2.1338c-3.1181-1.3692-6.2187-2.7681-9.3759-4.0464a84.41538,84.41538,0,0,0-8.3653-2.4502c-4.40819-1.2563-13.7373-2.8325-12.5683,4.4424.3525,2.1914,2.5039,4.0483,4.11911,5.3559,2.374,1.92,4.77439,3.7823,7.02439,5.8531,2.543,2.3384,4.9131,4.7539,7.6299,6.9023,3.0449,2.4092,6.2051,4.6685,9.374,6.9107,6.0791,4.3022,11.9131,8.8437,18.4541,12.4253,2.4951,1.3657,5.336,2.7211,7.2324,4.8857.61921.707,1.25,1.416,1.9219,2.0698-1.5888,1.3228-3.1299,2.7124-4.6738,4.0825q-6.45855,5.7378-13.0996,11.2749c-4.1612,3.4634-8.98729,6.3575-12.82329,10.1817a48.62358,48.62358,0,0,1-5.83691,5.2016c-.9453.6778-1.9316.8863-2.7978,1.752a4.95608,4.95608,0,0,0-1.1797,3.229,2.87308,2.87308,0,0,0,2.1338,2.8008c5.1904,1.0771,10.6094-.5816,15.666-1.6787,2.9355-.6367,6.1767-.4185,9.1787-.8257,3.4697-.4688,6.8955-1.0679,10.374-1.437,5.5791-.5918,10.8174-3.5645,16.4043-3.7129a17.20512,17.20512,0,0,0,4.8272-.7334c-1.2862,6.9424-1.7989,14.1006-3.378,20.9492a93.112,93.112,0,0,0-1.8711,14.126c-.3427,4.4639-1.4902,8.293.4219,12.5957a2.79738,2.79738,0,0,0,3.8213,1.0024c3.7695-2.2285,5.4502-6.4248,7.9766-9.792,3.0332-4.0424,6.2412-7.8945,9.5996-11.6694a84.07731,84.07731,0,0,0,8.6494-11.3603c1.166-1.8604,3.2471-4.2461,4.1865-6.6636.4141.5117.8281,1.02,1.2246,1.5268q2.6265,3.3531,5.18662,6.7622c3.415,4.5342,6.35738,9.482,9.91208,13.8965,3.542,4.3975,7.4795,8.4575,11.0224,12.856,1.4239,1.769,1.7403,5.7505,4.2627,7.1011a2.58645,2.58645,0,0,0,2.586,0c.0322-.0206.0654-.0406.0976-.0611a2.59969,2.59969,0,0,0,.9131-1.0161,5.71772,5.71772,0,0,0,.6289.9834,1.54885,1.54885,0,0,0,2.2041,0c1.6924-2.1821,1.2266-4.8769,1.0137-7.4946-.26558-3.2793-.8164-6.5357-1.4082-9.7705-1.042-5.6983-2.6123-11.3384-3.4385-17.0684-.4063-2.8315-1.041-5.6528-1.5723-8.4653a46.356,46.356,0,0,1-.7138-5.0127,15.13933,15.13933,0,0,1-.0274-1.7984c.0098-.2226.0244-.3603.0322-.4419a1.24462,1.24462,0,0,0,.5967-.5927,45.08065,45.08065,0,0,0,8.9434.4345c5.5342-.0839,11.0947.313,16.6328.3887,5.3408.0728,10.6748-.1294,16.0127-.0771,4.7422.0454,8.9912,1.9091,13.665,2.1738.6475.2925,1.3057.5591,1.9786.7895a1.69061,1.69061,0,0,0,1.8955-2.4682c-.1192-.168-.2452-.333-.3692-.4986a2.7443,2.7443,0,0,0-2.6572-3.3906c-.1328,0-.2598-.0073-.3897-.0112a66.89082,66.89082,0,0,0-8.9707-6.855c-4.539-3.0483-8.8056-6.4512-13.0507-9.8877-3.8282-3.0971-7.63678-5.8462-11.0811-9.4126a51.44966,51.44966,0,0,0-4.5254-4.4057c-.1387-.1133-.2851-.2163-.4287-.3262a12.67368,12.67368,0,0,0,2.9219-1.8262c2.3838-1.876,4.831-3.6098,7.31152-5.3603a81.55627,81.55627,0,0,0,7.81838-6.0703c2.6543-2.4053,6.3925-4.0279,9.4492-5.879a47.61285,47.61285,0,0,0,8.2187-5.7656c1.8545-1.7578,6.2676-2.9731,6.9756-5.5464.0332-.2456.0674-.4912.0996-.7373.001-.0171.001-.0263.003-.0425a2.58137,2.58137,0,0,0,.1201-.395A2.47392,2.47392,0,0,0,195.41486,208.86088Zm-78.4648-10.6015a11.35334,11.35334,0,0,0,1.68652-2.2554c1.44628-2.1875,2.97948-4.2471,4.50288-6.3862,2.7364-3.8443,4.6514-8.2378,7.4092-12.0518,3.0391-4.2021,6.25292-8.2724,9.2227-12.5244,1.5166-2.1728,2.7656-4.5601,4.3925-6.647a23.31022,23.31022,0,0,0,1.5264-2.3007c.2588,2.6816-.01268,5.4418.043,8.1372.1211,5.894.4101,11.7934-.292,17.6635-.63768,5.3326-1.22068,10.6758-1.835,16.0118-.6103,5.2993-1.6142,11.1484-1.0683,16.4995q-.2754-.3348-.5586-.6641c-6.4131-7.3574-16.4512-11.6328-25.8702-14.0015-.0478-.0708-.09758-.1411-.1513-.2109-.0576-.0723-.1426-.1855-.23828-.3154C116.13658,198.88438,116.58387,198.58208,116.95007,198.25938Zm-35.75-48.6538c.0166.0288.0341.0581.0517.0879,1.7041,2.8969,3.3926,5.7622,4.8037,8.8139,1.5596,3.3711,3.2334,6.6934,4.8496,10.0381a24.64156,24.64156,0,0,0,3.2129,4.1162c1.1319,1.4077,2.2217,2.8311,3.212,4.3433a177.76475,177.76475,0,0,1,10.0869,17.1465c.5898,1.1645,1.123,2.7597,1.8906,4.249a64.81651,64.81651,0,0,0-13.5957-.2031,24.03922,24.03922,0,0,0-8.0371,2.1245,2.26308,2.26308,0,0,0-1.3155-2.294,63.262,63.262,0,0,1-2.1728-10.3325c-.5352-4.5561-1.123-9.0923-1.7334-13.6382-.6455-4.8193-1.1436-9.6548-1.3359-14.5141A75.51309,75.51309,0,0,1,81.20007,149.60558Zm-20.06448,44.6162c-1.96391-4.0791-4.25681-7.9697-5.99511-12.167-.2207-.5313-.42089-1.083-.6162-1.6401,3.9072,3.6611,8.5176,6.6674,12.8848,9.686,1.8271,1.2622,3.7431,2.394,5.6044,3.603,1.7725,1.1509,3.2579,2.939,5.0469,3.9741,1.9033,1.1026,3.3389,3.7666,5.3975,4.7505.0263.0381.0498.0796.0762.1172q-.68715.4263-1.3653.8784a1.57459,1.57459,0,0,0-.9189.1509c-4.65528,2.376-8.48828,6.2803-11.8262,10.3247a72.63966,72.63966,0,0,1-2.5898-7.31C65.33387,202.30228,63.10137,198.30228,61.13558,194.22178Zm-11.57911,39.8594c-6.0088-3.2964-11.3584-7.3829-16.95989-11.316A128.45272,128.45272,0,0,1,16.411,209.94488c-2.2803-2.2197-4.7402-4.1831-7.1855-6.2119-.4922-.4082-1.8067-1.2905-2.7217-2.1484,3.8017-.0059,7.9053,1.959,11.3232,2.936,5.835,1.6685,11.09961,5.3535,17.0469,6.585,5.7002,1.1797,11.2441,2.666,17.05271,3.2187A41.94377,41.94377,0,0,1,60.536,215.881c2.0107.6279,3.7022,1.6621,5.5899,2.3379a37.73881,37.73881,0,0,0-5.7657,12.5932,29.26136,29.26136,0,0,0-.4043,11.3809c-.8906-.916-2.0371-2.3946-2.58-3.0005C55.38458,236.97568,52.12977,235.49328,49.55647,234.08118Zm23.1856,36.2651a3.25038,3.25038,0,0,1-.4698.1929,9.16146,9.16146,0,0,1-2.1504.372,37.23338,37.23338,0,0,0-5.6455.6968c-2.5195.5928-4.9795,1.438-7.4697,2.1421a76.4603,76.4603,0,0,1-8.3779,1.3799c-2.5996.4399-5.1973.9145-7.8145,1.248-2.7744.3521-5.67869.1284-8.4052.6905-1.795.3696-3.73049.9199-5.6934,1.3535,1.1836-1.0874,2.3076-2.2417,3.4394-3.3765,3.379-3.3843,7.6397-6.0815,11.3038-9.1611,3.88371-3.2627,7.67771-6.7564,11.3261-10.2793,1.835-1.772,3.5342-3.6582,5.2305-5.562a12.43487,12.43487,0,0,0,1.2383-1.7627c.1826.0766.3603.1582.55081.2226q.57853.08055,1.15619.1519a3.06988,3.06988,0,0,0,.6992.0083,43.62415,43.62415,0,0,0,9.0547,14.3779,49.60142,49.60142,0,0,0,5.4141,4.9844,1.56894,1.56894,0,0,0-.1338.2012A3.203,3.203,0,0,0,72.74207,270.34628Zm26.9316,11.1177c.6182-.857-.6426.4214-.8398.6689-.5069.6377-.77928,1.3765-1.2247,2.0596-1.0605,1.6304-2.081,3.2871-3.1103,4.9375a80.75906,80.75906,0,0,1-8.36328,10.9067c-2.97362,3.3501-5.71092,6.8145-8.47172,10.3316a59.07673,59.07673,0,0,0-3.7265,5.187c-.1377.2197-.2735.4394-.4112.6601.2149-2.2046.7969-4.4707.8457-6.4897a77.73258,77.73258,0,0,1,1.9082-13.7266,127.72272,127.72272,0,0,0,1.7256-12.9946c.418-4.2285,1.04792-8.52,1.0821-12.7827a61.17356,61.17356,0,0,0,20.9384,9.0991,1.722,1.722,0,0,0,.1192,1.2544c.0508.0972.1094.1919.1621.2881A2.47608,2.47608,0,0,0,99.67367,281.464Zm-4.7812-9.3833c-12.9756-4.5054-25.1592-14.398-29.1553-27.9121-2.1895-7.4024-.2471-15.1514,3.626-21.5923.3486-.5821.7236-1.1431,1.10642-1.6953a2.22311,2.22311,0,0,0,1.63768-2.1792c3.6045-4.4712,8.02832-8.2207,11.2959-12.9742a1.39994,1.39994,0,0,0,.2656-.7983c8.6621-4.5215,19.1924-4.2358,28.8867-1.8589a1.90965,1.90965,0,0,0,2.3008.6084,75.50037,75.50037,0,0,1,8.9317,3.1475,39.99661,39.99661,0,0,1,14.68062,10.4243,21.86533,21.86533,0,0,1,1.46978,1.9194,1.67607,1.67607,0,0,0,.3193.4937,30.51982,30.51982,0,0,1,4.4912,15.5757,52.49428,52.49428,0,0,1-3.6211,18.9838,34.49931,34.49931,0,0,1-11.4199,15.1294C119.93247,276.89118,105.90607,275.90338,94.89247,272.08068Zm40.5292,33.7382c.7286,3.7281,1.4102,7.4678,1.879,11.2393.1992,1.5942.16892,3.4912.3466,5.3164a11.36749,11.36749,0,0,1-.7148-1.2524,19.35325,19.35325,0,0,0-2.3037-4.3325c-3.49118-4.15-7.1524-8.1524-10.6377-12.3062-3.6856-4.3916-6.749-9.3965-10.2969-13.9209-2.6855-3.4258-5.4902-7.3491-8.7988-10.3896a50.25379,50.25379,0,0,0,13.8955-.3916,32.05387,32.05387,0,0,0,12.4082-4.8951,1.629,1.629,0,0,0,.585.4449c.1972.0937.3974.1787.5986.2631a9.87937,9.87937,0,0,0-.75,4.7198,82.42783,82.42783,0,0,0,1.29592,11.3139C133.64336,296.21348,134.49886,301.10068,135.42166,305.81888Zm22.7022-50.8232c1.9248,1.8853,4.1621,3.2612,6.2002,4.9844,4.3447,3.6743,8.8057,7.2129,13.4502,10.5034.668.4736,1.334.9653,2,1.4663-.459-.0273-.918-.0513-1.3721-.0698-5.0342-.2056-10.123.2837-15.1601.3525-5.3672.0733-10.73148.2241-16.0977.376-4.0791.1152-8.9121,1.4443-12.9199.1338.41012-.3164.8183-.6377,1.2236-.9692,7.97852-6.5406,11.6768-16.1358,13.6416-25.939,1.1846,1.2744,2.6992,2.414,3.62892,3.436C154.48816,251.213,156.246,253.15538,158.12386,254.99568Zm23.9131-38.0835c-3.9531,2.7315-8.19338,5.021-12.19238,7.6841a63.679,63.679,0,0,0-4.99322,4.2729c-1.8232,1.5103-3.7597,2.8814-5.6416,4.3189a33.66535,33.66535,0,0,0-4.5254,3.8657c-1.0986,1.2046-2.50578,2.8233-4.0791,3.3657a1.87712,1.87712,0,0,0-.4072.1949c-.1377-.0894-.1797-.104-.0322.0258l-.0049.0039c-.0723-.0561-.1445-.1127-.2207-.1674a.23417.23417,0,0,0-.0234-.0122,36.68657,36.68657,0,0,0-3.9502-20.9371c.1513.0245.3027.0498.4541.0713a25.87556,25.87556,0,0,0,5.3681.1797c5.6592-.3525,10.793-2.7505,16.2959-3.7217,5.2373-.9233,10.5762-3.1591,15.9024-3.3295,1.3125-.042,2.6172-.1299,3.9258-.1597C185.96566,214.025,184.05358,215.51868,182.037,216.91218Z" fill="#463131"/>
          <path d="M93.785,230.35258a2.98424,2.98424,0,0,0-2.747-2.9921,3.31047,3.31047,0,0,0-1.2471-.0894,3.08342,3.08342,0,0,0-.5781.0933l-.003.0014a2.75449,2.75449,0,0,0-1.4004.833c-.083.0874-.164.1778-.2382.2735l-.002.0044a3.08974,3.08974,0,0,0-.5234,1.0527,2.94282,2.94282,0,0,0-.1006.6958c-.002.0425-.0108.0854-.0108.1274a3.10622,3.10622,0,0,0,.5567,1.7657,2.84891,2.84891,0,0,0,1.4599,1.1484,2.34629,2.34629,0,0,0,1.0635.1846,3.16843,3.16843,0,0,0,1.0235-.1055,2.98425,2.98425,0,0,0,2.747-2.9932Z" fill="#463131"/>
          <path d="M124.09358,228.17488c-.03422-.251-.06742-.5015-.10252-.7529a2.83111,2.83111,0,0,0-2.7276-2.0772,2.84722,2.84722,0,0,0-1.8095.6553,3.067,3.067,0,0,0-.48238.2227,3.10166,3.10166,0,0,0,3.12978,5.3559l.0039-.0015c.19832-.0844.3848-.1782.4209-.1943a3.06489,3.06489,0,0,0,1.1602-1.1304A3.12016,3.12016,0,0,0,124.09358,228.17488Z" fill="#463131"/>
          <path d="M122.827,244.95418a1.2297,1.2297,0,0,0-1.7119,0c-1.9951,1.8628-1.9902,5.3096-3.5059,7.6074a13.49668,13.49668,0,0,1-7.6923,5.1739c-2.9532.788-6.0342-.8179-8.1934-2.7642-.8291-.7466-1.2744-1.8677-2.0351-2.708a12.62583,12.62583,0,0,1-2.4346-2.9741,1.49071,1.49071,0,0,0-2.9131.395,8.25828,8.25828,0,0,0,1.2451,4.2803,20.6536,20.6536,0,0,0,2.3887,3.8418,13.71912,13.71912,0,0,0,11.2314,5.0878c4.4502-.3588,8.6114-2.9428,11.5352-6.2109C123.22058,253.91168,126.17658,248.12268,122.827,244.95418Z" fill="#463131"/>
        </g>
      </g>
    </g>
  </g>
</svg>
