<svg xmlns="http://www.w3.org/2000/svg" viewBox="0 0 38.90902 40.06157">
  <title>conoceRecurso 8</title>
  <g id="Capa_2" data-name="Capa 2">
    <g id="Editar">
      <g>
        <path d="M32.28828,20.484c.3116-.5547.6895-.8984.5684-1.3691a17.35641,17.35641,0,0,0,.5508-1.8281,24.29686,24.29686,0,0,0,3.1045-3.129c1.706-2.1914-.9756-5.0585-3.0869-3.0703-.0459.044-.0704.1016-.1163.1446a8.99872,8.99872,0,0,0-1.8339-3.6446c-2.8077-3.2392-8.1407-.4863-10.46,2.5371a1.83256,1.83256,0,0,0-.5859.2832,37.64032,37.64032,0,0,0-6.2461,5.9883,13.72139,13.72139,0,0,0-.94929,1.2403,2.41806,2.41806,0,0,0-1.64161-1.2422c.2247-.3047.4102-.5616.5127-.7324a1.91823,1.91823,0,0,0-.5908-2.7442,6.66073,6.66073,0,0,0,.3916-.9189,1.95563,1.95563,0,0,0-1.3935-2.5166,1.94467,1.94467,0,0,0,.1709-.92,14.52619,14.52619,0,0,0,1.2685-1.6289,1.91033,1.91033,0,0,0,.1299-1.8457,2.37137,2.37137,0,0,0-3.8535-1.6308A11.20284,11.20284,0,0,0,6.179,5.81212a16.32647,16.32647,0,0,0-2.7793,3.5332,2.13735,2.13735,0,0,0,.4843,2.6895,6.53887,6.53887,0,0,0-.2851.9727,2.188,2.188,0,0,0,.5898,2.0898,4.4224,4.4224,0,0,0,.7266.4863,6.59676,6.59676,0,0,0-.3516.8448,2.13105,2.13105,0,0,0,.7471,2.2177,4.27258,4.27258,0,0,0-.0703,2.874,2.30862,2.30862,0,0,0,2.4189,1.5967,3.75541,3.75541,0,0,0,.7168,2.7149,2.4138,2.4138,0,0,0,2.1055,1.0625,2.19625,2.19625,0,0,0,2.581,1.1679l.0147-.0078c-.1553.2852-.3105.5694-.46879.8516a2.22015,2.22015,0,0,0,1.39259,3.2109,4.84724,4.84724,0,0,0,3.3477-.5117,2.19179,2.19179,0,0,0,2.21871,1.9336c2.72459-.3125,3.86719-2.2256,5.76179-3.9941a52.95429,52.95429,0,0,0,5.5771-6.3946c.3027-.1797.24411-.6328.4609-1.0215Zm-3.2578-4.8867c-1.3867,1.1611-2.8437,2.2441-4.3183,3.3262,1.5009-1.6367,3.0498-3.2285,4.6172-4.7969.0253.3672.03321.7412.0253,1.1172C29.24538,15.361,29.13988,15.48012,29.03048,15.59732Z" fill="#e1023f"/>
        <path d="M18.22,13.618c.917-5.5505,7.22087-8.13525,12.327-6.6223,6.23724,1.8481,6.06438,8.48823,3.05254,13.05233C28.35684,27.99268,14.95034,36.33178,5.09413,34.48894c-1.95563-.36565-2.79384,2.63013-.8265,2.998,7.13339,1.33375,14.76025-1.97246,20.72594-5.62751,5.84006-3.57808,12.85-9.21408,13.806-16.49768C40.69362.93037,17.41218-.46608,15.222,12.79147c-.32334,1.95722,2.6721,2.799,2.998.8265Z" fill="#1d1d1b"/>
        <path d="M15.43136,16.11631C19.60413,9.68163,12.73967-4.03819,4.48723,1.14563-.66395,4.38138-.55124,12.45629.76795,17.5672c2.17911,8.4425,7.9454,15.63829,13.66823,21.99843,1.34116,1.49051,3.53413-.71394,2.19841-2.19841C9.99664,29.99.21075,18.36925,3.73007,7.59278c3.13217-9.591,13.2611.40927,9.01674,6.95435-1.09183,1.68367,1.5986,3.24378,2.68455,1.56918Z" fill="#1d1d1b"/>
      </g>
    </g>
  </g>
</svg>
