<svg xmlns="http://www.w3.org/2000/svg" viewBox="0 0 141.9475 134.2436">
  <title>conoceRecurso 12</title>
  <g id="Capa_2" data-name="Capa 2">
    <g id="Editar">
      <g>
        <path d="M64.79647,44.01741a2.19842,2.19842,0,0,1-1.16718-1.99173A179.91012,179.91012,0,0,0,59.39668,9.83675l-21.332,27.42252A2.61607,2.61607,0,0,1,36.02,38.33161a2.16689,2.16689,0,0,1-2.31975.03234Q22.941,32.688,11.71394,28.104A105.18171,105.18171,0,0,0,25.4327,51.60924a2.85733,2.85733,0,0,1-.4496,3.90392A86.83253,86.83253,0,0,0,12.48843,71.31535c-1.7606,2.88315-5.27141,7.47831-5.603,10.98216L5.913,84.72765a3.3824,3.3824,0,0,0,4.29469-.41316c5.13973-1.3814,10.80751-5.191,15.39476-7.82775a184.60789,184.60789,0,0,0,15.93917-10.3691,2.80348,2.80348,0,0,1,4.07666.86808A2.405,2.405,0,0,1,48.672,68.537Q53.66313,81.90925,58.654,95.282c1.11655-3.46687,1.31468-7.22615,1.68745-10.93359q.79577-7.9114,1.59168-15.82307a2.572,2.572,0,0,1,.88009-1.75663,3.847,3.847,0,0,1,.63816-2.45907c1.18479-1.532,3.12862-1.80753,4.88293-2.18835a138.36733,138.36733,0,0,0,17.59839-4.95948A172.36333,172.36333,0,0,1,65.72882,45.118,2.64491,2.64491,0,0,1,64.79647,44.01741Z" fill="#ffb100"/>
        <path d="M93.8243,54.84293A164.38409,164.38409,0,0,1,69.094,40.69039a179.95533,179.95533,0,0,0-5.344-36.47776C65.686,1.42336,61.32866-1.692,59.17113,1.08115L34.6248,32.63586A251.412,251.412,0,0,0,7.77673,20.55434,2.8142,2.8142,0,0,0,4.245,24.263,110.09433,110.09433,0,0,0,19.63993,53.126,91.01147,91.01147,0,0,0,5.04886,73.23572C2.92559,77.27294-3.48733,86.88994,2.47463,90.6c5.33717,3.32087,14.35488-3.15645,18.844-5.47866a188.00385,188.00385,0,0,0,22.46659-13.807q5.9482,15.93659,11.89623,31.87318c.76629,2.05341,3.5617,2.10471,4.79042.529,6.29422-8.06763,6.05379-20.58347,6.701-30.9261.76247-1.30253.367-2.17662.949-3.64562.68879-1.73767.84693-1.46845,3.04757-1.92856q2.472-.51659,4.9195-1.13825A124.9615,124.9615,0,0,0,93.9497,59.98934C96.30889,58.98808,95.94554,55.823,93.8243,54.84293Zm-25.49,7.27841c-1.75431.38083-3.69814.65632-4.88293,2.18835a3.847,3.847,0,0,0-.63816,2.45907,2.572,2.572,0,0,0-.88009,1.75663q-.79578,7.9116-1.59168,15.82307c-.37278,3.70743-.5709,7.46671-1.68745,10.93359Q53.66306,81.90938,48.672,68.537a2.405,2.405,0,0,0-3.05371-1.55128,2.80348,2.80348,0,0,0-4.07666-.86808,184.60789,184.60789,0,0,1-15.93917,10.3691c-4.58726,2.63672-10.255,6.44635-15.39476,7.82775a3.3824,3.3824,0,0,1-4.29469.41316l.97246-2.43014c.33157-3.50385,3.84238-8.099,5.603-10.98216A86.83253,86.83253,0,0,1,24.9831,55.51316a2.85733,2.85733,0,0,0,.4496-3.90392A105.18171,105.18171,0,0,1,11.71394,28.104q11.232,4.6041,21.98629,10.25994A2.16689,2.16689,0,0,0,36.02,38.33161a2.61607,2.61607,0,0,0,2.04467-1.07235l21.332-27.42252A179.91012,179.91012,0,0,1,63.6293,42.02567a2.19842,2.19842,0,0,0,1.16718,1.99173,2.64491,2.64491,0,0,0,.93235,1.10059A172.36333,172.36333,0,0,0,85.93269,57.16186,138.36733,138.36733,0,0,1,68.3343,62.12134Z" fill="#231f20"/>
      </g>
      <g>
        <path d="M121.74145,94.32205a1.44339,1.44339,0,0,1-.76632-1.30769,118.12166,118.12166,0,0,0-2.779-21.13394L104.19043,89.88494a1.7176,1.7176,0,0,1-1.34245.70406,1.42269,1.42269,0,0,1-1.52306.02123q-7.06406-3.72661-14.4353-6.73626A69.058,69.058,0,0,0,95.8968,99.30654a1.876,1.876,0,0,1-.29519,2.56315,57.01071,57.01071,0,0,0-8.2035,10.37507c-1.15594,1.893-3.461,4.91-3.67869,7.21044l-.63848,1.59553a2.22075,2.22075,0,0,0,2.81972-.27127c3.37454-.907,7.09577-3.40822,10.10758-5.13938a121.206,121.206,0,0,0,10.465-6.80793,1.84065,1.84065,0,0,1,2.67657.56995,1.57905,1.57905,0,0,1,2.00494,1.01851q3.277,8.77968,6.55377,17.55971a34.79937,34.79937,0,0,0,1.10791-7.17855q.52247-5.1943,1.045-10.38878a1.68864,1.68864,0,0,1,.57783-1.15333,2.52576,2.52576,0,0,1,.419-1.61452c.77788-1.00587,2.05412-1.18675,3.20593-1.43678a90.84635,90.84635,0,0,0,11.55439-3.25619,113.16674,113.16674,0,0,1-13.265-7.90751A1.73654,1.73654,0,0,1,121.74145,94.32205Z" fill="#ffb100"/>
        <path d="M140.79995,101.42965a107.92789,107.92789,0,0,1-16.23688-9.292,118.15134,118.15134,0,0,0-3.50865-23.94981c1.271-1.83132-1.58979-3.87676-3.00634-2.056L101.932,86.8494a165.06685,165.06685,0,0,0-17.62735-7.93224,1.84769,1.84769,0,0,0-2.31876,2.435,72.28346,72.28346,0,0,0,10.10766,18.95027,59.75442,59.75442,0,0,0-9.57991,13.20322c-1.39405,2.65068-5.60452,8.96481-1.69013,11.40066,3.50417,2.18035,9.42483-2.0724,12.37222-3.59707a123.43568,123.43568,0,0,0,14.75065-9.06514q3.90534,10.46332,7.81058,20.92663a1.84,1.84,0,0,0,3.14519.34733c4.13253-5.29688,3.97467-13.51427,4.39958-20.30482.50061-.85519.241-1.42908.62307-2.39357.45223-1.14088.55606-.96413,2.00091-1.26621q1.623-.33917,3.22994-.74733a82.04463,82.04463,0,0,0,11.72666-3.99752A1.84611,1.84611,0,0,0,140.79995,101.42965Zm-16.7357,4.77871c-1.15181.25-2.428.43091-3.20593,1.43678a2.52576,2.52576,0,0,0-.419,1.61452,1.68864,1.68864,0,0,0-.57783,1.15333q-.52248,5.19444-1.045,10.38878a34.79937,34.79937,0,0,1-1.10791,7.17855q-3.27684-8.77995-6.55377-17.55971a1.57905,1.57905,0,0,0-2.00494-1.01851,1.84065,1.84065,0,0,0-2.67657-.56995,121.206,121.206,0,0,1-10.465,6.80793c-3.01181,1.73116-6.733,4.23241-10.10758,5.13938a2.22075,2.22075,0,0,1-2.81972.27127l.63848-1.59553c.21769-2.30049,2.52275-5.31748,3.67869-7.21044a57.01071,57.01071,0,0,1,8.2035-10.37507,1.876,1.876,0,0,0,.29519-2.56315A69.058,69.058,0,0,1,86.88962,83.874q7.37447,3.02286,14.4353,6.73626A1.42269,1.42269,0,0,0,102.848,90.589a1.7176,1.7176,0,0,0,1.34245-.70406l14.00574-18.00451a118.12166,118.12166,0,0,1,2.779,21.13394,1.44339,1.44339,0,0,0,.76632,1.30769,1.73654,1.73654,0,0,0,.61214.7226,113.16674,113.16674,0,0,0,13.265,7.90751A90.84635,90.84635,0,0,1,124.06425,106.20836Z" fill="#231f20"/>
      </g>
    </g>
  </g>
</svg>
