<svg xmlns="http://www.w3.org/2000/svg" viewBox="0 0 342.0302 259.75011">
  <title>conoceRecurso 7</title>
  <g id="Capa_2" data-name="Capa 2">
    <g id="Editar">
      <g>
        <path d="M280.8741,122.95742c-.0401-.1426-.085-.2862-.1358-.4297-.0175-.0527-.0322-.1055-.04978-.1582-.38862-1.1299-.76952-2.1377-1.13962-3.0791a77.976,77.976,0,0,0-5.292-20.1026,5.39811,5.39811,0,0,0-2.4463-2.6054c-.2764-.5977-.5762-1.1885-.9043-1.7735a7.92945,7.92945,0,0,0-10.7676-2.8232,10.5734,10.5734,0,0,0-4.4209,5.0937c-.1132-.2343-.2304-.4668-.3642-.6972a6.13867,6.13867,0,0,0-9.53708-1.2295c-2.14162,2.0596-2.76472,4.8389-3.11042,7.6523a35.63607,35.63607,0,0,0-2.8183,6.1856,33.19766,33.19766,0,0,0-1.708,4.9072c-1.5,4.2607-3.1016,8.6377-2.8096,13.1953a25.63862,25.63862,0,0,0-2.1143,5.1309c-2.1865,7.4052,6.708,11.0879,11.8809,6.916a13.71467,13.71467,0,0,0,1.7959-1.7832c4.2646,2.2637,9.8974,1.6201,14.5117,1.5293,4.5664-.0899,9.9502.2793,14.2529-1.4307C282.0997,134.91152,282.7061,128.77962,280.8741,122.95742Z" fill="#0090c1"/>
        <path d="M303.9981,38.85482c-.2598-.0136-.5185-.0244-.7773-.0244a26.73346,26.73346,0,0,0-1.4571-2.2754c-5.4316-7.5918-13.7998-12.5019-22.8408-14.747-8.8437-5.9844-20.1123-7.6621-30.8467-6.1416a44.62322,44.62322,0,0,0-16.1328,5.7216c-.6767.294-1.3398.6162-1.9951.9522a5.85386,5.85386,0,0,0-1.1709-.0811c-7.1416.2276-15.58788,7.1817-19.9023,12.4307-.5547.6748-1.0879,1.3809-1.6094,2.1016-3.9004-3.795-11.6397-2.5577-13.0176,3.7255-1.72358,2.5879-2.1553,6.2051-.3535,8.6192-.0225-.0879-.044-.1758-.0664-.2637.86332,2.7578,3.6494,4.5703,6.4199,5.0195a25.03645,25.03645,0,0,0,.2686,7.7139c1.96482,9.8965,11.2744,16.7627,20.165,20.2158a65.493,65.493,0,0,0,7.3272,2.3926c7.3417,7.1211,22.1044,7.2246,26.5722,13.9317,6.0967.8193,11.77742-3.8672,17.1445-5.5782,8.379-2.6709,15.8174-4.0342,21.5274-11.5635a47.51167,47.51167,0,0,0,6.3086-6.791,36.32085,36.32085,0,0,0,6.1572-12.584,4.97788,4.97788,0,0,1,.8848-.0917,23.23421,23.23421,0,0,0,5.0361-.6153c3.75-.664,7.1309-3.8906,8.8477-7.1299C326.4639,42.51992,312.19152,32.38612,303.9981,38.85482Z" fill="#ffedc9"/>
        <path d="M269.9874,53.73182c-2.2276.3779-4.7266,2.4053-5.8252,3.2461-5.3223-1.586-11.2598-1.377-16.7149-1.3535a6.94213,6.94213,0,0,0-2.8261.6191,8.38521,8.38521,0,0,0-3.5079,1.209,4.63813,4.63813,0,0,0-1.5283,6.459,6.33656,6.33656,0,0,0,3.9151,6.2871c6.455,2.8828,13.4238,5.417,20.6142,4.8681a8.73132,8.73132,0,0,0,6.1221-2.8564,16.88693,16.88693,0,0,0,2.5937-1.3613c2.1309-1.3838,1.1133-.9121,3.3223-2.4951C283.6807,62.95642,279.0479,52.19472,269.9874,53.73182Z" fill="#f08e7e"/>
        <path d="M229.9161,43.55992c-2.9151-5.0918-10.6035-7.9277-15.6328-4.0469a14.41024,14.41024,0,0,0-3.1514,3.2246,11.40081,11.40081,0,0,0-.0088,13.1387,13.537,13.537,0,0,0,6.6201,5.0264c2.7959,1.0127,6.2119.2402,8.6856-1.209C232.1173,56.36072,233.004,48.95252,229.9161,43.55992Z" fill="#f7bfa7"/>
        <path d="M304.31552,49.66832c.001-.1142.00678-.2295.001-.3418a9.90789,9.90789,0,0,0-1.18562-4.3945c-.959-2.2217-3.2969-3.4444-5.3818-4.2988a10.23643,10.23643,0,0,0-6.1817-.167,10.049,10.049,0,0,0-7.2041,7.542,12.35175,12.35175,0,0,0,.0957,5.4472,11.99545,11.99545,0,0,0,2.6221,4.7363c2.1729,2.8096,6.60942,3.752,9.8721,2.7471,2.5859-.7969,4.0771-2.4228,5.6465-4.4756a10.59918,10.59918,0,0,0,1.7256-5.2724A6.25345,6.25345,0,0,0,304.31552,49.66832Z" fill="#f7bfa7"/>
        <path d="M286.8956,142.10482c.08-3.5879-2.8614-5.7812-6.1162-6.1162-5.2666-.542-10.4971.503-15.7705.2432-4.8086-.2383-9.3897-.3447-13.3057,2.791l-.0283.0029a14.80574,14.80574,0,0,0-3.5948.9659,5.29335,5.29335,0,0,0-4.9033.4218,8.17792,8.17792,0,0,0-1.6006,1.3897,4.61163,4.61163,0,0,0-.9502.2392c-.1337.0498-.2509.1055-.3798.1563-1.6338-3.3799-7.6153-3.6836-8.5274.6943q-.39405,1.89255-.7881,3.7832a6.149,6.149,0,0,0,2.8819,6.1778,4.69507,4.69507,0,0,0,2.4326,1.8564,4.90874,4.90874,0,0,0,1.77832.7441c1.90038,2.6973,6.23438,2.7657,8.89448.3672,2.56452.0801,5.0723-1.2099,5.48152-4.167.07128-.5127.15328-.8105.17478-.956a12.43151,12.43151,0,0,1,1.28222-.2715,26.50921,26.50921,0,0,1,5.46878-.0146c1.4248.0322,2.8935.0615,4.3515-.0108-.3144,8.6348,9.5928,11.1904,16.8975,6.8281a5.83189,5.83189,0,0,0,2.65622-3.583C286.3897,150.92612,286.8048,146.17812,286.8956,142.10482Z" fill="#f5a400"/>
        <path d="M233.4444,175.513c-3.25488-2.8906-8.5977-1.2832-11.917-4.1562-1.42188-1.2305-3.9902-.0918-3.3428,1.9453a13.01412,13.01412,0,0,0,4.4444,6.2148c2.4736,1.9463,7.2168,3.6416,10.0781,1.7227C234.5508,180.00332,235.2989,177.15852,233.4444,175.513Z" fill="#ea4d07"/>
        <path d="M298.8204,173.50622c-3.8184.8838-7.7198.7822-11.58788,1.4043-3.20612.5156-3.14362,5.8174,0,6.3887,4.59178.8349,9.25578,1.6406,13.88868.5517C306.5557,180.57462,304.2501,172.24942,298.8204,173.50622Z" fill="#ea4d07"/>
        <g>
          <path d="M304.5977,172.847c-.3213-2.3779-2.4199-3.2178-4.5615-3.416-3.4004-.3164-7.3916.6348-10.6611,1.4844-1.6358.4248-3.211.9756-4.8203,1.4951-.2188.0723-2.0762.4736-2.03028.54a4.69282,4.69282,0,0,1-.41312-1.6045c-.4346-2.1582-.917-4.3046-1.3223-6.4687q-.3237-1.7007-.5498-3.4209c-.0595-.4522-.09278-.9063-.1113-1.3643a2.717,2.717,0,0,1,.0166-.5556,1.20989,1.20989,0,0,0,.3066-.8408,11.66734,11.66734,0,0,0,6.1436-2.1075c1.43072-1.1328,1.26372-3.4609,1.1152-5.0439a75.63982,75.63982,0,0,1,.1123-9.2041c.1055-3.4619.3955-7.2227-1.7636-10.1602a1.1146,1.1146,0,0,0-.6231-.4492c-.3779-6.3623-2.3135-12.4014-3.9775-18.5683-1.0742-3.9883-2.25-7.9502-3.4405-11.9043-.54-1.793-1.0136-3.626-1.6884-5.3702-.0118-.0283-.0235-.0527-.0352-.08,1.5801.582,3.1113,1.2929,4.7012,1.8847,2.1611.8047,4.7842.7578,7.0615.7862a46.66615,46.66615,0,0,0,14.2754-2.0879,43.77248,43.77248,0,0,0,20.5977-14.5996,46.32663,46.32663,0,0,0,6.6513-11.17,129.06839,129.06839,0,0,0,5.791-15.8974,80.82019,80.82019,0,0,0,2.0049-11.1865,19.4102,19.4102,0,0,0,.1992-3.5752c2.2852-1.8956,3.5401-5.0567,4.3897-7.8106a1.2895,1.2895,0,0,0-2.4678-.7441c-.0498.1611-.10058.3281-.1562.5a5.876,5.876,0,0,0-.6827-3.4991c-.833-1.4335-3.1093-.2187-2.2695,1.2217.9795,1.6875.127,4.2461-.7607,6.4756a1.39421,1.39421,0,0,0-.2803-.1074,1.22061,1.22061,0,0,0-.833-1.1006c-.1338-1.583.0215-3.2998-.0244-4.9062-.04978-1.6534-2.626-1.7266-2.5782-.0596a21.65873,21.65873,0,0,1,.1045,4.0781,21.458,21.458,0,0,1-.9375-3.5713c-.2939-1.6367-2.8017-1.0283-2.5078.6035.5039,2.8067,1.4815,7.1914,4.4971,8.3047a1.08849,1.08849,0,0,0,1.1172-.1592c-.5996.8311-.1289,2.2354.9375,2.1036a37.15837,37.15837,0,0,1-.5762,3.9902,79.49442,79.49442,0,0,1-2.5918,11.9424c-2.6367,8.4677-6.1045,17.0742-11.8252,23.9472a40.85376,40.85376,0,0,1-19.02438,12.9073,44.73918,44.73918,0,0,1-12.99022,1.8232,20.17474,20.17474,0,0,1-7.1504-.9648,48.68573,48.68573,0,0,0-6.6055-2.3887,3.02932,3.02932,0,0,1-.16988-.7207c9.85058-3.2129,19.86718-9.0957,25.39648-18.0127,3.1543-5.082,4.7578-11.04,6.0127-16.8311.04682-.2099.09082-.4199.1347-.6298a11.19934,11.19934,0,0,0,11.7207.0205,8.84828,8.84828,0,0,0,3.8819-11.3828c-1.5127-3.8584-5.7656-6.9053-9.7813-7.5245a5.30588,5.30588,0,0,0-5.0185,2.2383,26.84069,26.84069,0,0,0-5.5371-11.6972c-3.5508-4.3995-8.9307-7.5616-13.9922-9.9024a79.68428,79.68428,0,0,0-7.5313-3.0312,12.10727,12.10727,0,0,0,.7461-4.5596,1.33652,1.33652,0,0,0-1.2597-1.3184c-2.2452-.333-3.8438,2.3516-4.8692,3.9356-.0547.0859-.1142.1748-.1719.2617-.4082-.1074-.8183-.2119-1.2265-.3125A13.776,13.776,0,0,0,274.668,6.6a1.29993,1.29993,0,0,0-1.5898-1.2823,8.62846,8.62846,0,0,0-3.93068,2.7403,9.39391,9.39391,0,0,0,1.08008-4.5889,1.31318,1.31318,0,0,0-1.5918-1.2832c-3.3086.5586-5.834,3.4707-7.9639,5.833-.9267,1.0283-1.8681,2.0537-2.8095,3.0811-.0703-.001-.1436-.001-.21488-.001a9.50812,9.50812,0,0,0,1.50688-5.1309,1.31177,1.31177,0,0,0-1.9014-1.165c-2.8047,1.2734-4.7471,3.749-6.7842,5.9746-.0605-.0029-.1221-.0059-.1846-.0098a7.37793,7.37793,0,0,0,1.543-4.3125,1.30984,1.30984,0,0,0-1.5908-1.2842c-2.8447.6729-4.832,2.6329-6.6533,4.8477l-.0391.0059a13.19151,13.19151,0,0,0,2.8936-6.5391,1.29538,1.29538,0,0,0-1.5899-1.2822c-3.9697,1.0947-7.0888,4.4033-9.6963,7.4228-.58788.6797-1.2158,1.3301-1.8515,1.9727.2187-.3721.4394-.7432.6435-1.1221,1.3369-2.4678,2.8887-7.0322,5.87112-7.9121,1.58788-.4668.99608-2.9785-.60352-2.5059-3.3096.9737-5.06248,4.5049-6.5557,7.337a87.34235,87.34235,0,0,1-6.7363,10.2968,79.53947,79.53947,0,0,0-6.9619,4.8242,42.53161,42.53161,0,0,0-12.3799,16.2657c-.0244-.0342-.043-.0694-.0703-.1026-2.4453-2.9951-5.334-5.1953-9.1748-3.164-2.874,1.5234-4.8359,4.9873-5.5645,8.042a8.43923,8.43923,0,0,0,2.8477,8.8857,8.93337,8.93337,0,0,0,8.1309,1.2061c-.6065,8.8906,2.06932,17.1181,8.8095,23.4628,7.17582,6.7579,17.044,10.8526,26.2666,13.9327q2.94.9828,5.918,1.6904a1.23727,1.23727,0,0,0-.42678.457c-1.34272,2.4317-5.11032,2.7647-7.59272,2.9131a46.78943,46.78943,0,0,1-11.6006-1.2021,89.24008,89.24008,0,0,1-22.461-7.2686,75.472,75.472,0,0,1-19.17768-12.959,39.62463,39.62463,0,0,1-6.81151-9.0205,36.83937,36.83937,0,0,1-3.6768-8.3105,1.30636,1.30636,0,0,0,.5625-.7276,1.23817,1.23817,0,0,0,.7793-1.0937,22.5593,22.5593,0,0,1,2.2783-7.5723c.7081-1.4853-1.4697-2.8701-2.1816-1.374a32.69717,32.69717,0,0,0-1.9941,5.1963,1.449,1.449,0,0,0-.2188-.0615,13.28732,13.28732,0,0,1,.2988-4.9043c.4356-1.6006-2.03409-2.3477-2.4677-.7422a16.24012,16.24012,0,0,0-.334,6.4248c-.209-.541-.3731-1.0938-.5235-1.6006-.4287-1.4473-.7255-2.9336-1.2646-4.3467-.584-1.5303-3.0986-.9492-2.5078.6026.6719,1.7587,1.0049,3.7646,1.64451,5.5957a6.55971,6.55971,0,0,0-.69721-.1065c-1.4747-.1426-1.7657,2.1113-.3995,2.5225l.4112.124a1.28256,1.28256,0,0,0,.5966.042,9.7837,9.7837,0,0,1,1.9991.7314,6.48228,6.48228,0,0,0,.6699.6104.97812.97812,0,0,0,.3896.1865,1.14194,1.14194,0,0,0,.3721.8389,40.04455,40.04455,0,0,0,3.65921,8.5771,42.98716,42.98716,0,0,0,7.04,9.6758c5.94339,6.1777,13.89848,10.8682,21.56248,14.5439a92.47981,92.47981,0,0,0,25.375,7.544c3.64552.5908,9.8741,1.4629,14.2891-.1426-.0098.0195-.01858.0401-.0283.0596-.9864,2.081-1.9004,4.1992-2.7637,6.3369a109.9816,109.9816,0,0,0-4.43158,13.7822c-1.14652,4.4434-1.54982,9.1543-2.85062,13.5293-.835,2.8145-1.7422,5.9727-1.1553,8.917a1.13105,1.13105,0,0,0,.2178.461c-1.1475,2.8388-.8848,6.5273-.7403,9.2919.0821,1.5957-.1064,3.8438.9473,5.169,1.2754,1.5996,3.7949,1.8623,5.6836,2.0791.6523.0732,1.3252.1406,2.0039.2002a14.16293,14.16293,0,0,0-.6289,2.9932,99.02679,99.02679,0,0,1-2.2686,10.371,1.17685,1.17685,0,0,0-1.3974.8672c-.0176.0635-.0342.126-.0527.1895a62.43574,62.43574,0,0,0-6.1719-2.7637,12.09647,12.09647,0,0,0-7.1035.0518c-2.8145.791-8.1573,4.5537-4.19438,7.4424a20.679,20.679,0,0,0,12.59278,3.3808,7.91587,7.91587,0,0,0,5.0625-1.9844,6.86353,6.86353,0,0,0,1.5234-2.6816,1.2874,1.2874,0,0,0,1.5518-.875c.7353-3.5557,1.9443-6.9961,2.5654-10.5781.169-.9873.2959-1.9922.4239-2.9873.0683-.5586.1445-1.1153.2519-1.67a7.29276,7.29276,0,0,1,.1934-.7646c.0097-.0156.0117-.0254.0224-.04a1.061,1.061,0,0,0,1.0772-.7373c1.1064.0419,2.2021.0546,3.2568.0332,1.6074-.0303,3.6074.0791,4.6094-1.4717,1.5303-2.3701,1.3847-5.4707,2.7314-7.9688,1.1358-2.1015,4.8008-.6992,6.6729-.582,2.4795.1562,3.4697.8545,3.6435,3.292a31.37172,31.37172,0,0,0,.3399,4.8555c.9648,4.2207,6.6347,3.4941,9.8418,3.2294q2.4141-.1947,4.8183-.3916c-.59268,2.3428.7071,6.5938.9649,7.9102.3476,1.7803.749,3.5488,1.10642,5.3272a3.98363,3.98363,0,0,0,1.50688,2.7871,1.29039,1.29039,0,0,0,.3134,1.8359c5.6651,3.9375,13.3135,7.7061,19.6621,2.8701C303.1378,178.12532,304.961,175.51112,304.5977,172.847ZM195.9883,50.26012c-2.1152-1.3955-2.1464-4.3076-1.624-6.4941a10.96919,10.96919,0,0,1,3.2666-5.2998c2.7471-2.5625,5.09962-.3438,6.9903,1.9687a1.08167,1.08167,0,0,0,1.0878.4258,45.11481,45.11481,0,0,0-2.5996,9.5117c-.0127.0781-.0214.1563-.0341.2354C201.0704,52.13712,197.9913,51.58342,195.9883,50.26012Zm36.9561,124.9248c-.6211,1.6758-2.0381,2.1758-3.6787,2.458-2.9951.5117-6.3477-.5879-9.1035-1.6631a12.67178,12.67178,0,0,1-2.01268-1.0195c-.95512-.5869-.25392-1.0527.34958-1.5937a9.10161,9.10161,0,0,1,5.4209-1.9356c3.2793-.2178,6.2598,1.707,9.2344,3.1465C233.088,174.78062,233.0206,174.98472,232.9444,175.18492Zm75.7549-133.1191c-1.1016-1.3428,1.5986-2.0157,2.251-2.0498a7.35846,7.35846,0,0,1,4.0927,1.5771,9.38,9.38,0,0,1,4.5518,6.7608c.3076,3.1718-2.4238,5.6035-5.1426,6.6425a8.53942,8.53942,0,0,1-7.833-1.1269,1.32926,1.32926,0,0,0-.3584-.1641,42.66651,42.66651,0,0,0,.8076-9.6435C308.1387,44.83922,309.6641,43.24642,308.6993,42.06582Zm-31.2041-29.4844a14.15362,14.15362,0,0,1-.4365,1.7031c-.2207-.0693-.4434-.1318-.66218-.1982A11.77514,11.77514,0,0,1,277.4952,12.58142Zm-5.9932,2.8408c.2822.0674.5654.1367.8457.208a26.09367,26.09367,0,0,1-1.9599,2.3115C270.7276,17.08532,271.10552,16.24162,271.502,15.42222Zm.209-6.4355a19.90192,19.90192,0,0,1-1.6006,3.5107c-.4072-.083-.8135-.166-1.2217-.2422A25.63559,25.63559,0,0,1,271.711,8.98672Zm-9.6162,1.2939c1.4932-1.6728,3.2246-3.8603,5.34372-4.9629a18.30344,18.30344,0,0,1-3.20412,5.6651c-.1181.1679-.2343.3349-.3496.5048q-1.32855-.1494-2.6582-.2451C261.5157,10.92122,261.8067,10.60092,262.0948,10.28062Zm-6.03028-1.7139a23.64744,23.64744,0,0,1-1.34372,2.5401c-.4034-.0117-.7998-.0391-1.1944-.0723A19.90311,19.90311,0,0,1,256.06452,8.56672Zm-7.49412.1875c-.252.4532-.54488.8965-.8301,1.3272-.2119-.0498-.42478-.0918-.63478-.124A12.9254,12.9254,0,0,1,248.5704,8.75422Zm-5.2188-3.1718a19.89177,19.89177,0,0,1-3.5967,5.5654c-1.4853.5781-2.9521,1.2607-4.4072,1.8594C237.73252,10.55892,240.2276,7.29822,243.3516,5.58242Zm-17.70208,77.7353c-8.68362-4.2304-17.26662-10.3799-19.73932-20.2334a29.76947,29.76947,0,0,1-.5478-11.1025,1.141,1.141,0,0,0,.1425-.9942,46.05572,46.05572,0,0,1,8.9317-20.0957,41.44879,41.44879,0,0,1,9.5967-8.9052,1.25935,1.25935,0,0,0,1.584.3252,22.88592,22.88592,0,0,0,5.3496-4.502,54.41939,54.41939,0,0,1,5.67962-2.543,11.58952,11.58952,0,0,0-1.38962,3.1622,1.30314,1.30314,0,0,0,1.8447,1.5078c2.6992-1.2246,4.5948-3.5635,6.4024-5.8311.417-.5224.8779-1.1094,1.373-1.7129a6.02055,6.02055,0,0,1,.8379-.0234,1.51559,1.51559,0,0,0,.1387.8584c-.9102,1.5058-1.8555,2.9844-2.7158,4.5234a1.29871,1.29871,0,0,0,1.7021,1.8213c2.8477-1.3193,4.8369-3.8203,6.8369-6.3096.6319.0371,1.26272.1036,1.8946.1807-.6221,1.5147-1.125,3.168-1.6026,4.6299-.4824,1.4756,1.4756,2.1426,2.3252,1.0586,1.4678-1.878,3.082-3.6758,4.708-5.4541.1153,0,.2334.001.3477.0049,1.0381.0234,2.0674.1025,3.0937.2099a31.33481,31.33481,0,0,1-3.5371,5.5899,1.2908,1.2908,0,0,0,1.7578,1.8886c2.4395-1.9765,4.27442-4.5019,6.294-6.873.6425.1074,1.2871.2217,1.9277.3506a25.56158,25.56158,0,0,0-2.1465,6.3271c-.17478,1.0147.7715,2.1367,1.8447,1.5069,2.6622-1.5674,4.3604-4.0498,6.3438-6.3399l.0049-.0088c.4189.1241.8349.2491,1.25.378a20.32363,20.32363,0,0,0-1.0449,3.3994,1.30331,1.30331,0,0,0,1.84272,1.5068c1.55178-.6553,2.46678-2.1035,3.34378-3.4912q2.1006.7764,4.15922,1.6523c5.58588,2.3789,11.21478,5.7539,15.06438,10.5235,3.6338,4.5,4.9981,10.1445,4.9932,15.8252-.0069,5.5547-1.4834,11.2529-3.0205,16.5547-1.7774,6.1455-4.6084,11.6337-9.3438,16a52.47892,52.47892,0,0,1-32.4678,13.29C247.92,92.49162,236.1173,88.41832,225.64952,83.31772Zm32.37788,15.0977c-2.8457.6211-3.2871-1.8809-3.6182-4.0645a54.21066,54.21066,0,0,0,8.668-.165C263.5723,96.55312,259.8301,98.02092,258.0274,98.41542Zm-25.5498,39.751a25.98029,25.98029,0,0,1,1.4814-6.5967c.6202-2.0635.7588-4.4004,1.18852-6.5215.47368-2.3496,1.02928-4.6807,1.628-7.001a110.30934,110.30934,0,0,1,4.23338-13.0185c.8642-2.1914,1.831-4.3428,2.8388-6.4707a51.58787,51.58787,0,0,0,2.5147-5.2452q2.6469.51855,5.3115.8096a1.04434,1.04434,0,0,0,.1435.2627c.3018,1.8623.4815,3.6318,1.6709,5.2188,1.1416,1.5253,3.4688,1.5888,5.1446,1.3173,3.14262-.5078,7.7773-3.3828,7.0283-7.0576a51.91039,51.91039,0,0,0,6.0644-1.2959,7.48905,7.48905,0,0,0,.9053,2.2022,21.10335,21.10335,0,0,1,2.1758,4.7666c1.1924,3.9209,2.3643,7.8496,3.4727,11.7939,1.95312,6.9492,4.3427,13.9365,4.6152,21.1924a1.52963,1.52963,0,0,0-.4522.8877,1.135,1.135,0,0,0-.7158.5713c-3.2763-.4531-6.9658.1084-10.1699.3584-4.4668.3486-8.8896,1.082-13.3506,1.4814-4.5322.4024-9.043,1.0157-13.5459,1.6436-3.5439.4932-6.9599,1.2842-10.4961,1.458A1.349,1.349,0,0,0,232.4776,138.16642Zm37.1094,18.7441c-1.9834.0361-3.919.1211-4.2969-2.1016-.4697-2.7588.4375-5.8291-1.792-8.0361-1.3115-1.3018-3.4043-1.3428-5.1289-1.4502-1.9883-.124-3.96868-.8428-5.9414-.2021-1.5811.5127-2.5527,2.1132-3.11428,3.581a38.169,38.169,0,0,0-1.29,4.6592c-.333,1.3594-.56452,1.958-1.99022,2.0127-2.46978.0957-4.9864-.2217-7.4639-.2959a19.624,19.624,0,0,1-4.5703-.583c-1.336-.3574-1.6143-.7783-1.7119-2.1758-.2032-2.8701-1.0069-7.8428.5761-10.7715a43.26483,43.26483,0,0,0,9.90922-1.2256,119.00887,119.00887,0,0,1,13.73338-1.7636c4.2119-.4385,8.4112-.9815,12.625-1.42,2.1192-.2236,4.2451-.372,6.3731-.4648,2.1816-.0977,4.584-.4971,6.72652.0049a1.31217,1.31217,0,0,0,1.60748-.8633l.01952-.0674a1.32848,1.32848,0,0,0,1.11618-.1133,17.10984,17.10984,0,0,1,.3242,4.9473c-.0537,2.5937-.1328,5.1836-.2187,7.7764-.05668,1.6494,1.0166,5.6201-.6768,6.6338-2.3701,1.4189-5.4443,1.1787-8.085,1.3779C274.06552,156.53942,271.8497,156.86952,269.587,156.91052Zm30.2529,20.502a9.545,9.545,0,0,1-5.2363,1.9765c-3.8125.3955-7.71-2.0049-10.8477-4.1543,3.05862-.4912,5.999-1.8633,9.0674-2.4482,1.6221-.3086,8.5176-2.1367,9.2178.2832C302.4913,174.63322,300.8829,176.49942,299.8399,177.41252Z"/>
          <path d="M239.9092,39.138a1.3332,1.3332,0,0,0-1.0078-.7412,1.44094,1.44094,0,0,0-.206-.0869,1.29953,1.29953,0,0,0-1.6055.8643c-.0225.083-.0381.165-.0547.247-.0234.0547-.05168.1084-.0693.1631a1.21356,1.21356,0,0,0,.0088.7657,4.29684,4.29684,0,0,0,.542,1.6992,1.29888,1.29888,0,0,0,2.3691-.2383A3.701,3.701,0,0,0,239.9092,39.138Z"/>
          <path d="M276.3253,38.50722a1.75872,1.75872,0,0,0-1.7432-1.461,1.22253,1.22253,0,0,0-1.64258.8038,7.10194,7.10194,0,0,0-.40722,2.581,2.49574,2.49574,0,0,0,2.3906,2.4551,1.2877,1.2877,0,0,0,1.2647-.917A7.07291,7.07291,0,0,0,276.3253,38.50722Z"/>
          <path d="M283.5147,53.23962a1.30624,1.30624,0,0,0-1.5898-1.2832c-14.8692,2.0117-30.27838,4.3135-44.9873.1728a1.34229,1.34229,0,0,0-2.5078.5137c-.6846,6.876-1.1211,13.7608,4.8115,18.501,4.707,3.7607,11.9375,5.1016,17.7656,5.8457,6.5098.834,13.26462-.0146,18.5615-4.1338C281.2364,68.44762,283.0176,60.00332,283.5147,53.23962Zm-9.2305,17.332c-4.4648,4.042-10.914,4.4766-16.6152,3.9102-5.2314-.5205-11.1426-1.916-15.6963-4.5947-5.6689-3.333-5.6767-9.3575-5.164-15.1172,14.4082,3.8886,29.4082,1.9043,43.9921-.0723C280.2159,60.38612,278.586,66.67912,274.2842,70.57162Z"/>
        </g>
      </g>
      <g>
        <path d="M143.34,124.85739a11.24225,11.24225,0,0,0-3.4863.3614,19.143,19.143,0,0,0-.6435-6.9043c-2.6534-9.1412-11.9825-12.8257-20.6758-11.4561a11.98876,11.98876,0,0,0-3.8125,1.3359,28.58871,28.58871,0,0,0-7.8907-3.7143,23.62937,23.62937,0,0,0-7.03609-7.3633c-3.43261-2.2446-9.16991-2.4272-12.582,0a30.71519,30.71519,0,0,0-5.12891,4.5449,10.69949,10.69949,0,0,0-10.1836,6.02c-.2344.4761-.4551.9449-.6651,1.4102-.1015.1113-.205.2202-.3037.333a12.00366,12.00366,0,0,0-6.55369-1.812c-6.00781-2.7441-13.42281.9702-16.00681,6.915a63.88779,63.88779,0,0,0-10.5313-2.5332c-6.75189-.8672-9.7075,8.71-5.3398,12.8916,4.8613,4.6543,11.6685,6.3882,17.8701,8.6206,1.0791.3882,2.21881.7989,3.3936,1.1988.0605.1152.122.229.1816.3452a12.11956,12.11956,0,0,0,1.251,1.9536c-1.31939,3.7681.43261,8.4087,3.0693,11.1133,7.3867,7.5752,19.2852,7.9536,29.2862,7.4311-.211.5352-.4297,1.066-.63289,1.607-1.01071,2.6919.64259,5.956,2.98049,7.3257a6.58953,6.58953,0,0,0,7.8613-1.0142,8.44739,8.44739,0,0,0,2.49321-5.9199,5.348,5.348,0,0,0-.78711-3.1372,36.70187,36.70187,0,0,0,3.9267-.9068,17.42362,17.42362,0,0,0,7.0967-4.1806,30.01228,30.01228,0,0,0,14.3399-3.2705,38.362,38.362,0,0,0,12.583-1.4537c4.3467-1.2338,9.0263-3.955,11.25681-7.9702C151.33711,131.82909,149.1916,125.35649,143.34,124.85739Z" fill="#ffedc9"/>
        <path d="M72.4182,127.502c-.0098-.045-.0215-.0879-.0323-.1324-.8847-3.7187-3.3759-7.1211-6.9082-8.2573a7.509,7.509,0,0,0-6.2949.77,7.91942,7.91942,0,0,0-3.8271,1.9405,6.59565,6.59565,0,0,0-2.06059,4.9389,5.89284,5.89284,0,0,0,.11229,2.0406c-.875,3.7709,1.1055,7.416,4.2129,9.582,2.9854,2.0801,7.05181,1.7431,10.1719.2954C72.1818,136.64359,73.4113,131.87059,72.4182,127.502Z" fill="#f7bfa7"/>
        <path d="M137.2326,128.54829c-.8506-2.663-2.6416-4.0571-5.1211-5.1005-1.8857-.793-4.3886-.3941-6.3105-.0572a16.34447,16.34447,0,0,0-5.0537,1.8941c-2.0899,1.1787-4.2354,3.3169-4.6856,5.7715-.664,3.6157.8399,7.6567,4.3526,9.3071a9.76909,9.76909,0,0,0,9.081-.1826,8.80148,8.80148,0,0,0,1.0469-.6324,10.26873,10.26873,0,0,0,3.79691-2.31c.042-.0479.08489-.0957.12689-.1431q1.97175-2.56635.2412-.289c.1162-.1221.2227-.2515.3282-.3819a11.06287,11.06287,0,0,0,1.455-2.0078A7.91424,7.91424,0,0,0,137.2326,128.54829Z" fill="#f7bfa7"/>
        <path d="M192.26089,229.43409a18.82739,18.82739,0,0,0-1.1523-5.335,16.734,16.734,0,0,0-.5098-4.2231l-.01069-.041c-.07231-.2925-.14451-.585-.23241-.8731a18.582,18.582,0,0,0-2.4502-5.2309,18.22429,18.22429,0,0,0-1.86139-2.2881,23.255,23.255,0,0,0-8.90721-6.2129,22.67248,22.67248,0,0,0-6.3887-1.4424c-9.163-5.0156-24.3486-.5186-24.206,11.6187a21.921,21.921,0,0,0,.6982,5.1894,17.34511,17.34511,0,0,0,.1123,3.5254,21.05254,21.05254,0,0,0,4.0186,12.4722c.0137.0175.0283.0337.041.0517a23.954,23.954,0,0,0,2.3711,2.9317,28.86319,28.86319,0,0,0,18.6309,9.7446C183.29219,250.57669,192.95529,239.916,192.26089,229.43409Z" fill="#e8481b"/>
        <path d="M158.08711,205.17429a6.62512,6.62512,0,0,0-2.94341-2.4067,5.12235,5.12235,0,0,0-4.5507-.5772,7.53839,7.53839,0,0,0-4.8868,7.9146,8.98677,8.98677,0,0,0,1.2686,4.1113,6.81131,6.81131,0,0,0,5.5264,3.3096,7.81208,7.81208,0,0,0,4.9541-1.9824,6.912,6.912,0,0,0,2.1943-4.71A9.0791,9.0791,0,0,0,158.08711,205.17429Z" fill="#f6a900"/>
        <path d="M163.21211,235.91459a6.938,6.938,0,0,0-.66311-.8843c-.1982-.2534-.4775-.6084-.6103-.771a7.20859,7.20859,0,0,0-1.8262-1.4722,6.72876,6.72876,0,0,0-2.6592-.9287,5.21458,5.21458,0,0,0-3.5-1.46,6.41609,6.41609,0,0,0-6.2627,4.3199c-.7373,1.9731-.1094,4.0068.6924,5.8213,1.3662,3.0922,5.4316,4.9301,8.66411,4.8286a7.44856,7.44856,0,0,0,6.21579-3.3916A5.88626,5.88626,0,0,0,163.21211,235.91459Z" fill="#f6a900"/>
        <path d="M185.05589,222.72749a5.45178,5.45178,0,0,0-4.8663-2.896l-.01849.001a2.89382,2.89382,0,0,0-.48931-.376,4.65577,4.65577,0,0,0-1.9131-1.0693,5.017,5.017,0,0,0-3.7402.4785,6.44172,6.44172,0,0,0-2.23439,2.1519c-1.26751,1.7734-1.00971,4.727.14949,6.5014a9.31172,9.31172,0,0,0,7.455,4.2398,6.21547,6.21547,0,0,0,5.31251-2.8062,2.24828,2.24828,0,0,0,.22659-.4033c.0713-.1684.1338-.3154.1885-.4438a6.21344,6.21344,0,0,0,.4472-1.1319A6.045,6.045,0,0,0,185.05589,222.72749Z" fill="#f6a900"/>
        <path d="M187.29219,237.96919a3.35919,3.35919,0,0,0-2.7813-1.621,3.19934,3.19934,0,0,0-2.2539.9335,3.27334,3.27334,0,0,0-.8193,3.1011,3.76869,3.76869,0,0,0,4.793,2.6485,2.95925,2.95925,0,0,0,2.1572-2.834A2.76565,2.76565,0,0,0,187.29219,237.96919Z" fill="#f6a900"/>
        <path d="M37.5622,209.43259c-2.2642.5708-4.1953,2.3633-5.687,4.0498-2.3438,2.6504-4.5908,5.6343-3.5518,9.3711a4.85788,4.85788,0,0,0,4.64071,3.5332,4.94944,4.94944,0,0,0,4.64059-3.5332c-.5567,1.438-.3032.7232-.0532.3487a7.18978,7.18978,0,0,0,.8413-2.0923c.0971-.3413.2217-.6748.3501-1.0059-.1529.417.3691-.791.457-.9702.231-.4717.4834-.9326.7383-1.3921.1684-.3032,1.1855-2.5581.6352-1.2861.1548-.3574.32771-.7066.5088-1.0513.0532-.1011.08791-.1714.1118-.2246A3.57955,3.57955,0,0,0,37.5622,209.43259Z" fill="#923b91"/>
        <path d="M136.7277,254.88479c-.76659-3.6905-4.7431-4.2007-7.8574-4.4942a18.0011,18.0011,0,0,0-8.5771,1.8257c-2.7627,1.1924-1.3692,4.7505.7334,5.6123a24.70319,24.70319,0,0,0,7.0664,1.357c2.4052.2485,4.708,1.2275,6.955-.1729A3.75631,3.75631,0,0,0,136.7277,254.88479Z" fill="#923b91"/>
        <path d="M127.3225,197.53419a6.26458,6.26458,0,0,0-3.44439-5.7944c-.02051-.0225-.042-.0435-.06251-.0655a24.37349,24.37349,0,0,0-4.001-11.8891c-2.413-3.8794-7.5097-8.1739-8.10349-12.9175a8.08889,8.08889,0,0,0-4.10741-6.5093c-3.4092-3.3423-10.541-1.1821-10.6377,4.5093a4.73517,4.73517,0,0,1-.831,2.6245,13.46308,13.46308,0,0,0-2.3311,1.1577,12.53536,12.53536,0,0,0-1.4385-1.0439,6.32381,6.32381,0,0,0-1.1006-.5254,6.489,6.489,0,0,0-4.8281-1.2759,16.27574,16.27574,0,0,0-.4883-3.0347,2.89714,2.89714,0,0,0-4.8056-1.2685c-5.18169,5.8471-7.708,12.021-10.1768,19.3447-1.8232,5.4087-5.1035,12.0757-4.542,17.8677,1.28811,13.2759,18.3672,10.3701,27.7608,10.7998,8.0009.3662,17.623.2827,23.7929-4.7642,4.02641,1.6143,9.40041-2.0166,9.3516-6.5483C127.3273,197.979,127.3244,197.75639,127.3225,197.53419Zm-20.48439-4.3682c-.10941.0386-.22661.0586-.33691.0943a11.99993,11.99993,0,0,0,1.2978-1.0987c.044.1123.0879.2237.1319.3355C107.7736,192.87789,107.4162,192.96339,106.83811,193.166Z" fill="#ed7762"/>
        <path d="M120.6965,204.24949c-1.252,1.9038-7.0166,1.8042-9.1026,2.0747-5.9687.7749-11.8427,1.6499-17.8447,2.1675a49.1626,49.1626,0,0,1-17.07809-1.4824c-4.04591-1.0576-9.07231-4.6055-13.27641-3.7691a1.70351,1.70351,0,0,0-.7451,2.8208c1.89751,2.0425,3.1963,4.3081,5.292,6.2911,2.5547,2.416,6.1182,3.8378,9.39651,4.9555,6.93059,2.3623,14.44329,1.5742,21.59959,1.5962,6.2012.0186,12.3789-1.7373,18.4961-2.5825,5.3682-.7417,10.918-2.4199,12.7441-8.0747C132.0607,202.41749,123.8137,199.51069,120.6965,204.24949Z" fill="#e72f50"/>
        <path d="M115.9797,179.86179c-3.666.8526-7.1514,3.084-10.8115,4.2368a48.08193,48.08193,0,0,1-15.4424,2.4444,37.758,37.758,0,0,1-12.0049-2.4292c-2.2256-.7622-4.4922-1.7544-6.8662-1.0537a1.6329,1.6329,0,0,0-.7119,2.6987c6.1347,6.5698,12.0058,10.0781,21.2715,10.6987a45.86656,45.86656,0,0,0,16.5283-2.2964c4.3818-1.3598,11.1504-3.0791,13.1191-7.6889C122.5812,182.91409,120.1398,178.89449,115.9797,179.86179Z" fill="#fadadd"/>
        <path d="M145.093,104.35249a16.54583,16.54583,0,0,0-2.1084-2.2377c1.8984-6.128-2.6397-12.7608-7.3448-16.9908-5.5029-4.9467-11.8886-11.6894-18.6425-14.7934a9.10964,9.10964,0,0,0-9.07719,1.3901c-.03121-.0127-.06251-.0273-.09371-.04a23.78347,23.78347,0,0,0-10.9727-1.7676c-.0703-.0181-.1299-.0469-.2012-.0635-4.4423-1.0312-9.5849.2539-14.0498,2.9072-2.664-.2797-5.6328.8101-8.2451,2.0645-6.60249-1.8501-15.0996,3.8281-19.4922,7.7358-6.0752,5.4038-12.59129,15.1524-7.73829,23.2207,0,.0723-.00481.1441-.00291.2168a10.09074,10.09074,0,0,0,6.9961,9.6333c13.208,4.4209,27.7402-7.5117,36.5537-16.3618a57.01614,57.01614,0,0,0,5.16411-5.8442c.12109.2759.25389.5522.40919.8291,5.1562,9.1592,17.6631,17.8188,29.2275,18.1494a21.54443,21.54443,0,0,0,1.8887,3.9775c4.0244,6.6104,12.5215,4.4507,15.1191-1.9653C145.9514,112.37889,148.0412,108.18559,145.093,104.35249Z" fill="#f2933d"/>
        <path d="M153.1652,143.12449a7.23924,7.23924,0,0,0-5.66009-2.0254,12.0358,12.0358,0,0,0-5.22561,1.5567,6.51491,6.51491,0,0,0-7.249,3.4839,3.4314,3.4314,0,0,0-1.6182.9643c-3.69819,3.7744-6.5996,11.708.6553,13.7036a7.63094,7.63094,0,0,0,1.3027.2344c2.4199,2.7915,7.34181,3.7041,9.84081.5273.295-.375.55469-.749.80179-1.1235,3.335,3.0542,9.9551,2.8491,11.6699-1.7808a7.04054,7.04054,0,0,0,5.3262-6.4638C163.509,146.66549,158.1447,143.13769,153.1652,143.12449Z" fill="#f2933d"/>
        <path d="M62.2668,155.09669c-.9482-2.5674-1.1094-5.2427-2.7549-7.5425a7.75082,7.75082,0,0,0-4.0947-3.0664,6.31152,6.31152,0,0,0-4.4317-5.4966,6.40795,6.40795,0,0,0-6.0483-6.0996,5.73568,5.73568,0,0,0-4.1279-1.2749c-5.1885-1.7109-10.8989-.4951-16.189,2.4053-4.86419,2.6675-3.5469,10.6596,1.5083,11.7832a7.34123,7.34123,0,0,0,2.37451,2.9072,6.892,6.892,0,0,0,6.97459.6211,8.282,8.282,0,0,0,3.75641,6.9058,7.44838,7.44838,0,0,0,3.29639,1.3501c.0073.0127.0127.0263.02.039a7.19123,7.19123,0,0,0,7.8804,3.2647C53.8879,166.79249,64.7854,161.91159,62.2668,155.09669Z" fill="#f2933d"/>
        <g>
          <path d="M182.39079,166.709a16.63765,16.63765,0,0,1-6.1445.2808c2.9551-.7369,6.34281-2.0699,7.9385-4.5625.831-1.2984-1.211-2.5269-2.0362-1.2359-.9306,1.4526-2.8086,2.3809-4.7031,2.9976a20.78781,20.78781,0,0,0,2.93361-5.646c.46-1.4668-1.833-2.1123-2.292-.6494a23.00464,23.00464,0,0,1-4.06351,6.9521l-.0107-.0015c.0557-.2919.1445-.5859.1738-.7334.0586-.2807.1026-.5537.1387-.8266a1.20726,1.20726,0,0,0-.23929-2.1919l-.57421-.1621a1.20717,1.20717,0,0,0-1.4775,1.4433,10.14992,10.14992,0,0,1-.374,2.4141,3.43665,3.43665,0,0,0,.1298,1.5391,1.19909,1.19909,0,0,0,.1866,2.2129c.15331.0424.3076.0815.4628.1215-1.77049,4.2564-5.25,6.8287-9.7949,8.3501a27.88535,27.88535,0,0,1-14.7041.7896,61.23145,61.23145,0,0,1-18.5312-7.9219c-5.9502-3.7236-10.7237-8.8398-16.3018-13.0264a.961.961,0,0,0-1.0801-.1191c-.374-.6084-.7675-1.2056-1.18939-1.7876a79.0695,79.0695,0,0,0,9.30959-2.7119,48.47324,48.47324,0,0,0,5.2529-2.2734,13.29014,13.29014,0,0,0,2.2637,10.9794c3.622,4.9688,9.663,5.1924,13.875,1.251a10.67948,10.67948,0,0,0,7.8261,3.7012c3.0039-.0781,4.4073-2.439,4.7852-5.0142,2.26951,1.5166,4.7627,3.5039,7.3721,2.1285,3.68941-1.9468,5.6787-6.6499,6.10441-10.5874.49129-4.5513-2.30071-7.5616-5.78021-10.004a39.88,39.88,0,0,0-10.34179-4.9941c2.332-2.7661,4.33689-7.8848,1.61809-11.0137-1.2128-1.3955-4.3388-2.8359-7.2509-3.247a21.42816,21.42816,0,0,0,3.915-5.9214,20.05935,20.05935,0,0,0,1.09181-11.1553c-1.18851-7.8047-5.98241-14.7773-10.58981-20.9741-4.8565-6.5274-12.03319-11.5244-19.3428-14.9556-5.5957-2.6274-11.8819-3.8457-17.25-.4346a51.93021,51.93021,0,0,0-4.4121-3.5815,14.29928,14.29928,0,0,0-6.0518-1.9619c-4.876-.6782-10.0137.9165-14.5889,2.4399a68.40328,68.40328,0,0,0-24.6455,14.1675c-5.4765,5.1221-8.8813,11.7192-11.6377,18.5884-.27439.6826-.5649,1.4199-.8266,2.1807-2.07179.5263-1.5601,3.0483-.5903,5.3945a2.58532,2.58532,0,0,0,.2431.5654q.11865.26145.2383.5142c-.1338-.0957-.2681-.1895-.3984-.2803-2.4649-1.7002-5.6416-.9951-8.1377.1699-4.7232,2.2036-8.1812,6.7061-6.6285,12.0205,1.0689,3.6597,4.0142,6.7266,7.25,8.8858-.1997-.0874-.40029-.1704-.6044-.2442a5.48252,5.48252,0,0,0-2.8077.0679c-1.6264.271-3.0346,1.7544-4.0493,2.9351-2.0151,2.3457-4.5898,6.0976-4.1992,9.3559.4111,3.4224,3.5518,5.5713,6.5381,6.6719a10.91929,10.91929,0,0,0,4.2939.6684c-1.9853,4.5333-2.4038,10.375,2.5415,12.6334a8.69875,8.69875,0,0,0,6.066.3144,6.90361,6.90361,0,0,0,2.4091-1.3955,6.38936,6.38936,0,0,1,1.6661-1.1265c.1132-.042.4765,1.1866.5117,1.3042a19.00727,19.00727,0,0,0,.7207,2.3467c.4658,1.0498,1.9717,1.9995,2.8955,2.6284a8.519,8.519,0,0,0,6.9922.9756c4.1894-1.0981,6.6318-5.3579,7.9883-9.1401a12.64165,12.64165,0,0,0,.6777-3.0918,37.4628,37.4628,0,0,0,11.97951,4.1435,4.389,4.389,0,0,0-1.08011.9063,1.0576,1.0576,0,0,0-.9775.3213,25.66394,25.66394,0,0,1-5.0205,4.0859,33.69873,33.69873,0,0,0-3.1924,1.7017,56.74873,56.74873,0,0,1-9.9317,3.851,56.56291,56.56291,0,0,1-20.4463,1.5743c-6.8916-.6993-13.0522-2.9805-18.1762-7.7242a42.54917,42.54917,0,0,1-6.0391-7.767,3.06432,3.06432,0,0,1-.3066-.5762,1.16564,1.16564,0,0,0-.2539-1.2642,7.89191,7.89191,0,0,1,.4379-2.5249c.2315-.7407.7847-1.4375.9473-2.1836a5.30633,5.30633,0,0,0,.1406-.7524c1.0811-.2808,1.4053-2.0274.0982-2.2744-.8843-.1665-1.9624-.1138-2.2671.9365-.3897,1.3413-.8843,2.6265-1.3125,3.9619-.334-.8794-.585-1.7851-.8159-2.4726a48.76926,48.76926,0,0,1-1.30719-4.7198,1.18327,1.18327,0,0,0-.52291-1.9458l-.5728-.1621a1.20351,1.20351,0,0,0-1.478,1.4429c.2949,1.5054.6763,2.9951,1.1138,4.4673-.1587-.1944-.3189-.3843-.4824-.5718a.991.991,0,0,0-.1475-.9253,4.5069,4.5069,0,0,0-2.8437-1.7876c-1.0616-.3066-2.1446,1.1963-1.1856,1.9707a21.9104,21.9104,0,0,1,5.45411,6.8804c-1.51851-.7178-3.01171-1.4956-4.58891-2.0801a1.21735,1.21735,0,0,0-.3217-.1445l-.5713-.1626a1.19217,1.19217,0,0,0-.6504,2.2925c3.06931.9541,5.75731,2.7968,8.84131,3.7431a1.14319,1.14319,0,0,0,.60059.0264,24.93834,24.93834,0,0,0,1.935,3.1557,30.65994,30.65994,0,0,0,17.9888,12.4893,56.485,56.485,0,0,0,24.1113.1558,53.85915,53.85915,0,0,0,12.086-4.0777,1.0479,1.0479,0,0,0,1.4775-.4438,1.40023,1.40023,0,0,1,.4512-.4727q.9096-.4467,1.8125-.9096c.0097-.0254.0205-.0518.0312-.0772.6807-.3711,1.3653-.729,2.0254-1.1479.46-.2925.9024-.6114,1.334-.9458-.8574,2.3452-1.4863,4.7744-2.1142,7.2021-.2149.6294-.4346,1.2554-.6641,1.8789-1.7481,4.729-3.2129,9.6065-4.6377,14.4404q-.3486,1.19385-.6758,2.3931c-.0088.0288-.0224.0523-.0312.0825-.8164,2.8335-1.81549,5.6407-2.5049,8.5113a.96413.96413,0,0,0-.7197,1.081,3.04531,3.04531,0,0,0,.2773,1.0317c-.1318.7579-.2373,1.5196-.3018,2.2906q-.14205,1.642-.2812,3.2861c-.4385,2.3735-.6309,4.8652.4473,6.6323a1.159,1.159,0,0,0,.6152.5103.9142.9142,0,0,0,.5371.2266,11.1345,11.1345,0,0,0,3.0576,1.7128,50.0913,50.0913,0,0,0,7.7861,2.0796,1.27306,1.27306,0,0,0,.2256.4253c.4151.5127-.2548,3.6787-.3945,4.5489-.2012,1.2783-.4424,2.5605-.7549,3.8208-4.123.6655-8.4775-.4952-12.4043-1.6397-4.3447-1.2646-9.0332-2.5352-12.1845-5.9497a19.85675,19.85675,0,0,1-3.0713-4.4268,4.42946,4.42946,0,0,1,.6591-1.9765c.8565-1.2237-1.04-2.4053-1.9521-1.335a10.57535,10.57535,0,0,0-1.1685-2.4121c-1.853-2.6899-5.1836-1.5776-7.3408.083-4.0527,3.1192-11.5679,11.2944-4.4639,15.2056a8.58873,8.58873,0,0,0,9.1841-.646,13.45607,13.45607,0,0,0,3.7036-4.6768c.1866-.3691.3545-.749.5103-1.1328.1934.2944.3911.585.5874.8731a16.8545,16.8545,0,0,0,8.3374,6.4672c6.3711,2.3946,13.9766,5.2154,20.8701,3.751a1.18024,1.18024,0,0,0,.84671-.8286,49.209,49.209,0,0,0,1.18069-6.1811,14.77158,14.77158,0,0,0,.2509-3.3374c2.292.6069,4.6397,1.1606,7.0079,1.6362a1.318,1.318,0,0,0,2.0293.3852c2.2363.4009,4.4794.7251,6.7001.9356a59.88846,59.88846,0,0,0,21.8584-1.9395c.5801,1.8604,1.2784,3.6748,2.0108,5.4815.9912,2.4482,2.2627,4.7363,2.3545,7.4253a26.69824,26.69824,0,0,1-2.2227,10.5542c-.5234,1.3755-1.8623,4.2285-1.3144,6.061a1.245,1.245,0,0,0-.0576.1592,13.59556,13.59556,0,0,0-.29889,2.292,1.23435,1.23435,0,0,0-.55861.8891c-.791,5.8301,8.9688,7.3775,12.8848,7.7613,2.54881.25,5.5186.3027,7.8711-.8633,2.9736-1.4741,3.17671-5.3667,1.2783-7.7246-2.4883-3.0864-6.5742-4.0996-10.332-4.606a12.63939,12.63939,0,0,0-5.5098.793,10.86073,10.86073,0,0,1-2.67579.5742c-.66891.0332-.15521-1.1142,0-1.7021a45.05228,45.05228,0,0,1,1.80279-5.0357,23.3207,23.3207,0,0,0,1.2275-5.5527,18.12306,18.12306,0,0,0-.1621-6.9263,23.49425,23.49425,0,0,0-1.4121-3.3457c-.6729-1.5879-1.3164-3.1851-1.91109-4.8027-.25791-.7012-.48541-1.4121-.70321-2.127.9707-.3237,1.9287-.6787,2.876-1.0576a1.18971,1.18971,0,0,0,2.1738-.8838l-.0068-.0288a21.21609,21.21609,0,0,0,5.9473-3.7246c.0127.0229.0234.0469.0361.0698.71481,1.3628,2.793.1983,2.0791-1.1606-.1494-.2842-.28129-.5728-.4014-.8657.1592-.2251.3164-.4541.4639-.6939a8.6594,8.6594,0,0,0,.502-.9463,1.01288,1.01288,0,0,0,1.0224-.8457c.6846-3.0288-.11619-6.2129-.8349-9.2593a1.20537,1.20537,0,0,0-.3155-1.3686c-.0605-.2769-.1191-.5518-.17379-.8252a1.00646,1.00646,0,0,0-.77151-.8399c-.1133-.2954-.22749-.5771-.3369-.8378-1.627-3.898-3.4053-7.7354-5.044-11.6333-2.1464-5.1124-4.539-10.1045-6.75-15.1841-1.0595-2.4312-2.0292-4.9126-3.1562-7.3081,5.0322,4.0659,9.6152,8.584,15.209,11.9858,5.84761,3.5557,12.9004,6.6826,19.6875,7.8023a30.28026,30.28026,0,0,0,15.9238-1.7261c4.71-1.8955,8.1182-4.9497,9.876-9.5269a19.808,19.808,0,0,0,8.1777-.1587A1.19177,1.19177,0,0,0,182.39079,166.709ZM42.9626,215.28759a13.0425,13.0425,0,0,1-2.8076,4.7651,6.272,6.272,0,0,1-8.52489.625c-2.36771-2.0288.98039-5.5859,2.34909-7.2353,1.1621-1.4019,5.5566-6.5484,7.4341-3.8213a16.71182,16.71182,0,0,1,1.5249,3.7646c.0952.2569.2007.5083.31391.7574A9.20524,9.20524,0,0,1,42.9626,215.28759Zm76.9526,34.3374c1.9561-.4351,3.5733-1.1743,5.6328-1.1313a18.84347,18.84347,0,0,1,5.8184,1.3569,6.86942,6.86942,0,0,1,3.8682,3.4409c1.3144,3.3018-3.1953,3.7525-5.2188,3.7905a26.29791,26.29791,0,0,1-8.59369-1.3383c-1.39071-.4537-3.585-1.2862-4.34571-2.7398.2246-1.0298.21871-2.0947.3642-3.1338A7.40734,7.40734,0,0,0,119.9152,249.625Zm21.6573-92.0669a2.78031,2.78031,0,0,1-.1875-.8926,1.28819,1.28819,0,0,1,.3418,1.2998C141.674,157.83009,141.6213,157.69389,141.5725,157.55809Zm9.89061-29.3891c1.706,2.8432-.47071,6.4062-2.584,8.5654a1.14591,1.14591,0,0,0-.87891.8154,17.85437,17.85437,0,0,1-5.2432,2.6572c-1.4707.5269-2.8203.1875-4.3447.4219-1.5176.2339-.9121,2.5386.59381,2.3062.83589-.1275,1.67869.2441,2.455.0771a20.73545,20.73545,0,0,0,3.95219-1.3174,18.71917,18.71917,0,0,0,4.125-2.3974,46.01937,46.01937,0,0,1,8.7051,3.687c3.0898,1.709,6.6972,4.0366,7.0253,7.8608a12.18927,12.18927,0,0,1-4.0195,9.5049c-2.249,2.1289-5.53709-1.5581-7.5713-2.522a1.20508,1.20508,0,0,0-1.8086,1.0103c.1133,2.4209-.4238,4.8017-3.2793,4.6611a8.29576,8.29576,0,0,1-5.46089-3.1748c1.39059-2.2226,1.70409-5.3354-1.41311-6.416-1.4258-.4951-2.21289.5869-2.6211,1.8091-.4775,1.4345.3057,3.1772,1.0899,4.5298a8.53847,8.53847,0,0,1-4.4434,2.4287c-3.6465.6845-6.5664-2.9849-7.6855-5.9776-1.1729-3.1377-.9131-6.6723,1.373-9.0737a27.37239,27.37239,0,0,0,7.3623-7.0102,25.57074,25.57074,0,0,0,3.9336-10.0411,13.90189,13.90189,0,0,0,.2031-2.3974l.9434.2671a1.19151,1.19151,0,0,0,.6494-2.2915l-.0732-.021a1.38147,1.38147,0,0,1,.5879-.501,1.02966,1.02966,0,0,0,.6171-.1919C146.0363,124.999,150.673,126.85109,151.46311,128.169ZM45.7214,97.61379c1.312-2.6436,2.3589-5.3623,3.9341-7.8867a39.48935,39.48935,0,0,1,8.4297-9.3711,68.9505,68.9505,0,0,1,21.7714-11.6387c4.0694-1.3545,8.3741-2.5103,12.69051-2.2271,4.52729.2979,7.13469,3.0738,10.46769,5.7178a1.2036,1.2036,0,0,0,1.4434-.1597c5.1182-3.8315,11.5772-1.7158,16.7402.8633a50.16491,50.16491,0,0,1,16.97271,13.3262c4.30369,5.436,8.32129,11.7788,10.01949,18.5488a18.4956,18.4956,0,0,1-.2431,10.6861,21.49822,21.49822,0,0,1-5.4561,7.7929,3.63447,3.63447,0,0,0-1.833,1.0733,30.30021,30.30021,0,0,1-.3174-5.9419.32116.32116,0,0,0-.001-.0528,1.15921,1.15921,0,0,0-1.0185-1.7192c-3.9375.0625-8.083-1.6948-11.8125-2.8101a72.32554,72.32554,0,0,1-12.916-4.9873,39.13444,39.13444,0,0,1-9.8633-6.9941c-1.584-1.5986-4.51759-4.3169-4.9795-6.8906a1.08754,1.08754,0,0,0,.46091-.9146,1.83584,1.83584,0,0,0-1.27731-1.8901,1.18665,1.18665,0,0,0-1.46969.8193c.27539-1.4951-2.01081-2.1577-2.293-.6474-.84771,4.5703-4.83791,8.3056-8.27641,11.1323a51.0808,51.0808,0,0,1-13.5273,8.2803,44.48009,44.48009,0,0,1-10.2686,2.8774,6.33617,6.33617,0,0,1-1.75.2686,6.63673,6.63673,0,0,1-2.80469-.566c-.15231.022-.30561.0474-.44331.0601a9.17334,9.17334,0,0,1-3.0088-.207c-.0742-.0015-.1494.0005-.2256-.003-.0527-.0024-.1084-.0127-.1602-.0156a13.61468,13.61468,0,0,1-2.1875-.9585,5.4709,5.4709,0,0,1-3.8212-1.4731,7.10483,7.10483,0,0,1-3.2251-2.0406h-.0137c-.0303.149-.0557.2984-.08159.4478a13.62235,13.62235,0,0,1-1.311-2.1777c-.27241-.5352-.52681-1.0811-.76711-1.6328l.0054-.0127c-.0054-.0005-.00829-.0049-.0137-.0059-.0429-.1011-.0864-.2026-.1294-.3037-.0009-.0147-.0029-.0254-.0044-.0415a7.95857,7.95857,0,0,1,.3794-2.5982A29.45666,29.45666,0,0,1,45.7214,97.61379Zm-16.82229,22.602c-2.28071-4.7934,1.57329-8.5512,5.67289-10.4648a5.43569,5.43569,0,0,1,7.2138,2.0249c.9175,1.6709,1.2764,3.1611,3.05031,3.977a43.83151,43.83151,0,0,0,1.42,11.5044c.09179.3721.19039.7432.29189,1.1138-.8012.9834-1.5615,1.9556-2.998,1.8833a18.25415,18.25415,0,0,1-5.8862-1.7974A17.94,17.94,0,0,1,28.89911,120.21579Zm31.87839,39.0523c-2.4228,4.3369-7.27439,6.2739-11.33,2.6826-1.375-1.2188-1.15339-3.208-2.1875-4.6738-1.0113-1.4307-2.6377-.9976-3.899-.1768-1.729,1.1231-2.938,2.3159-5.187,2.1514a4.5235,4.5235,0,0,1-4.2641-3.2266c-.7486-2.5439.1313-5.8115,1.54-8.1899a16.38519,16.38519,0,0,0,2.1157-.7422c1.8697-.8003,6.4063-3.626,3.5904-6.0225-2.2471-1.914-5.1158,2.0484-6.2872,3.5152a14.01881,14.01881,0,0,0-.832,1.1616,10.24836,10.24836,0,0,1-7.44869-1.6753,4.90041,4.90041,0,0,1-2.39941-4.3145c.0757-1.7002,1.6445-3.7861,2.5439-5.146a10.665,10.665,0,0,1,3.273-3.3906c1.9033-1.1304,3.7837.5064,5.5434,1.1323,1.0777.3838,1.7056-.7876,1.3662-1.624a22.35958,22.35958,0,0,0,6.21,1.8565,4.79374,4.79374,0,0,0,3.207-.6143,3.922,3.922,0,0,0,1.0293-.9409c2.8574,8.4502,8.1709,16.3066,15.55861,21.3135C62.9924,154.70949,61.5979,157.80319,60.7775,159.26809Zm7.81161-6.4815a29.32573,29.32573,0,0,1-3.58891-1.9316,4.61137,4.61137,0,0,0-3.9014-3.8345,1.21655,1.21655,0,0,0-.8496.1577,42.34519,42.34519,0,0,1-11.03509-18.2221,1.253,1.253,0,0,0-.62891-2.2046,40.63914,40.63914,0,0,1-1.3584-11.3159c.0087-.3277.0214-.6709.0351-1.021a29.18936,29.18936,0,0,0,3.5078,1.2085,25.90692,25.90692,0,0,0,3.3828.8139c4.35061,1.2813,9.1924.6494,13.6797-.4551a51.59438,51.59438,0,0,0,9.9492-3.6123c3.2979-1.582,5.9922-3.7714,8.96-5.8408,4.4453-3.102,9.6816-7.9902,10.72071-13.5615-.70021,3.3511,1.69629,6.1665,3.75979,8.5268a39.09913,39.09913,0,0,0,9.90821,8.147,66.49782,66.49782,0,0,0,13.61329,5.815c2.5449.8071,5.1113,1.5351,7.67671,2.2641,1.07029.3037,2.13969.6138,3.21679.8545a1.20555,1.20555,0,0,0,.32421.148l1.95219.5532a58.60169,58.60169,0,0,0,.5556,7.1128,18.96523,18.96523,0,0,1-1.3242,8.2988,21.93912,21.93912,0,0,1-8.0293,10.1997,1.26446,1.26446,0,0,0-.4648.228c-.2422.1866-.4668.3824-.6836.5835-.29789.2007-.5986.3995-.9043.5909-8.1758,5.1635-18.0977,6.7182-27.43259,8.4741C89.2844,156.71,78.4133,157.21679,68.58911,152.78659Zm21.82319,5.6782q.75735-.05115,1.50981-.1201c1.94429-.1777,3.87789-.4565,5.80759-.7841a12.45919,12.45919,0,0,1-2.1983,4.8461c-1.6406,1.9112-6.2197-.663-5.1689-3.0493A1.24487,1.24487,0,0,0,90.4123,158.46479Zm-24.94819,53.4034c-1.22951-.7237-1.39071-1.6319-1.30281-2.9683.0235-.373.0703-.7441.126-1.1162a.8385.8385,0,0,0,.0576-.0972,1.84835,1.84835,0,0,1-.17379-.3681c.01459-.105.02639-.2085.03809-.3072.165-1.4995.21091-3.0097.33691-4.5136.39449.2646.79689.5073,1.17579.7373.78221.4736,1.5664.9389,2.3603,1.3867a39.7858,39.7858,0,0,0-.3593,5.7549,8.888,8.888,0,0,0,.11321,2.5703A13.58418,13.58418,0,0,1,65.46411,211.86819Zm5.15229,1.8896a1.16878,1.16878,0,0,0-.2871-.8833c-.6016-.7119-.2266-2.3091-.1856-3.1636.0635-1.3413-.038-2.6108.1397-3.914a31.10235,31.10235,0,0,0,2.9941,1.3096c.0371.0136.0723.0253.1094.0385a.95383.95383,0,0,0,.0479,1.127c.4072.5869.1572,2.3862.1562,3.1133a26.56323,26.56323,0,0,0,.0772,3.185Q72.13445,214.16679,70.6164,213.75779Zm5.7832,1.5186a1.06283,1.06283,0,0,0-.27149-.4488,23.4667,23.4667,0,0,1-.167-4.2929,12.52064,12.52064,0,0,0-.11231-2.6548c2.2959.5552,4.7041.8481,7.0127,1.2558a15.86049,15.86049,0,0,0,.47561,3.8697,25.91348,25.91348,0,0,1,.15819,3.9048C81.1193,216.42869,78.7492,215.87109,76.3996,215.27639Zm15.627,2.9453c-2.0323-.1929-4.0743-.4873-6.1162-.8496-.1475-1.3321.0429-2.8242-.127-4.0747a24.367,24.367,0,0,1-.5615-3.7285,74.36113,74.36113,0,0,0,8.8281.8652,22.51012,22.51012,0,0,1,.2627,3.5752c.1709,1.4648.2285,2.9389.3623,4.4077Q93.34645,218.34454,92.0266,218.22169Zm5.3291.2886a1.06107,1.06107,0,0,0-.4151-.8638,34.17152,34.17152,0,0,1-.3144-4.6768,12.47479,12.47479,0,0,0-.1563-2.4546,44.51673,44.51673,0,0,0,8.9658-.7426c.587-.1089,1.1709-.2115,1.7579-.3125.18351.9751.10151,2.1523.22551,2.955a28.87948,28.87948,0,0,1,.81939,4.899,1.1957,1.1957,0,0,0,.0625.3799A60.24029,60.24029,0,0,1,97.3557,218.51029Zm18.8789-2.8008a50.59151,50.59151,0,0,1-5.2461,1.457,1.19809,1.19809,0,0,0-.4141-.8218c-.1631-1.6699-.7265-3.2973-.8887-4.9712-.0742-.749-.1211-1.539-.2509-2.3022a44.79193,44.79193,0,0,0,7.1806-1.7378c.1348-.0474.2696-.0977.4043-.146a1.07656,1.07656,0,0,0,.3653.5444c.7695,2.2798,1.0703,4.6734,1.622,7.0093C118.0637,215.09229,117.12711,215.40869,116.2346,215.70949Zm10.2822-5.3941a16.0238,16.0238,0,0,1-5.2734,3.5176,49.97958,49.97958,0,0,0-1.8487-7.5161c-.0039-.0112-.0107-.0205-.01459-.0317a44.113,44.113,0,0,0,5.71969-2.7832,1.00745,1.00745,0,0,0,.0527.1943c.7735,2.0254,1.0752,4.1792,1.6934,6.2368C126.7404,210.06059,126.6359,210.18949,126.5168,210.31539Zm2.043-9.5288a17.01728,17.01728,0,0,1,.5254,5.4995,2.069,2.069,0,0,1-.4522,1.2227c-.29689-1.2622-.54689-2.5415-.9512-3.7725a1.16419,1.16419,0,0,0-.1533-.5913c-.0625-.1084-.1221-.2177-.1836-.3266a1.071,1.071,0,0,0-.5429-.4781C127.4123,201.854,127.9855,201.332,128.5598,200.78659Zm-12.586-29.9121q2.74665,6.03,5.3789,12.0957a1.1606,1.1606,0,0,0-.7099.73c-.5996,1.6836-2.3028,2.9341-3.6328,4.0303a24.2359,24.2359,0,0,1-5.3575,3.4267,28.69024,28.69024,0,0,1-13.3086,2.3604c-5.1191-.2432-10.29679-.3125-15.3877-.9341a53.93773,53.93773,0,0,1-6.9726-1.5879,17.62112,17.62112,0,0,1-5.9141-2.3965c-1.2509-.8955-2.4736,1.1514-1.2353,2.0371a18.79416,18.79416,0,0,0,5.9023,2.4893,59.4369,59.4369,0,0,0,7.1553,1.6943,143.37736,143.37736,0,0,0,17.585,1.1221,31.17923,31.17923,0,0,0,14.5097-3.2637,26.54534,26.54534,0,0,0,5.0947-3.5766,13.66784,13.66784,0,0,0,3.337-3.6353c.3281.7715.6591,1.5415.9834,2.3154,1.4326,3.4195,3.47651,6.9029,4.3447,10.524-.16019.1372-.3067.2622-.3906.3379a24.835,24.835,0,0,1-3.211,2.6616,43.95672,43.95672,0,0,1-8.124,3.7221,39.94833,39.94833,0,0,1-7.4814,1.7627c-.043-.0585-.0791-.1215-.126-.1782a1.13173,1.13173,0,0,0-1.959.544,47.68614,47.68614,0,0,1-9.3438.998,76.196,76.196,0,0,1-9.8251-.6328c-.7159-.1045-1.4297-.2266-2.1387-.3574a1.35385,1.35385,0,0,0-1.252-.2363c-1.9521-.3819-3.8974-.8018-5.8613-1.1153a24.75892,24.75892,0,0,1-8.9951-3.3935c-.7529-.4522-3.2539-1.5074-4.1524-2.4908.0186-.0903.03521-.1806.0528-.2714a1.61542,1.61542,0,0,1,.292-.3384,16.89688,16.89688,0,0,1,.89741-2.5489c.18169-.8339.36919-1.6655.57029-2.4946.09571-.2251.18071-.4282.2422-.5971.9463-2.6167,1.5977-5.3199,2.2998-8.0103q.48495-1.8486.9971-3.6885c2.5928,3.0176,7.7969,4.2378,11.4043,4.7022a100.39392,100.39392,0,0,0,15.7451.6045c7.2471-.2198,18.0606-1.1011,21.5625-8.687.63671-1.3804-1.3955-2.627-2.0371-1.2354-3.0723,6.6533-12.7393,7.2642-19.0713,7.5249-4.1601.1709-8.3271-.0132-12.4814-.2402a29.45035,29.45035,0,0,1-9.0508-1.7515c-1.5401-.5923-3.5713-1.3384-4.5264-2.7773a1.17707,1.17707,0,0,0-.8271-.5342q.9081-2.8308,1.9082-5.6245a37.9566,37.9566,0,0,0,1.7051-4.7207c.0898-.3448.1826-.689.2753-1.0328q.24465-.7434.4961-1.4848c.7227-2.1206,1.7666-4.1055,2.4668-6.2256a1.04657,1.04657,0,0,0,.0547-.2393,1.51644,1.51644,0,0,1,.6563-.4223,1.174,1.174,0,0,0,.7509-1.6411,55.52638,55.52638,0,0,0,8.8819.3833c-1.2481,3.7363,2.4678,7.0068,6.2431,6.937,3.8067-.0708,5.1211-5.503,5.9405-8.4219,1.96191-.3726,3.9238-.7739,5.87991-1.1587q1.11313-.219,2.22549-.4556a1.23855,1.23855,0,0,0,.2422.5264C112.0637,160.38529,113.7062,165.89309,115.9738,170.87449Z"/>
          <path d="M78.8703,123.08249c.0332-.1152.0733-.2295.1143-.3427.1748-.4839.3974-.9478.5449-1.441a1.19128,1.19128,0,0,0-2.291-.6494,17.23241,17.23241,0,0,0-.7471,2.1734,1.94645,1.94645,0,0,0,1.3281,2.3242C79.1145,125.59229,79.76,123.83009,78.8703,123.08249Z"/>
          <path d="M117.9172,126.83449a5.31689,5.31689,0,0,1,.0625-1.4473c.376-1.4868-1.9131-2.1396-2.2891-.6489a5.81391,5.81391,0,0,0-.1767,1.5791,5.39953,5.39953,0,0,1-.0625,1.4473c-.375,1.4863,1.914,2.1401,2.291.6494A5.864,5.864,0,0,0,117.9172,126.83449Z"/>
          <path d="M124.7893,134.125c.2841-1.4976-2.0069-2.1602-2.292-.6499-.8741,4.6079-5.2071,6.9082-9.3116,8.2422a46.48063,46.48063,0,0,1-14.3632,1.9453,46.31117,46.31117,0,0,1-16.7666-3.104,36.23675,36.23675,0,0,1-7.5401-4.481c-1.5176-1.0708-3.874-2.8476-4.6435-4.8437a1.16373,1.16373,0,0,0,.1533-.5796,1.83259,1.83259,0,0,0-1.2754-1.8892,1.19826,1.19826,0,0,0-1.5166,1.1368c-.0332,2.5542,1.8848,4.6377,3.6416,6.2729a37.9948,37.9948,0,0,0,7.3623,5.2119c5.9199,3.2627,13.082,4.4927,19.7822,4.6494a48.3544,48.3544,0,0,0,16.6133-2.2959C119.215,142.17529,123.8264,139.20509,124.7893,134.125Z"/>
          <path d="M197.32439,224.88619c-1.1592-9.8823-9.6269-18.2998-18.4336-21.9858a35.86,35.86,0,0,0-15.9521-3.1123,26.94546,26.94546,0,0,0-6.9463,1.584,6.90605,6.90605,0,0,0-3.7988,2.7026c-3.3887,1.9204-4.8838,5.5894-5.9444,9.3994-1.41309,5.0655-2.3486,10.1167-1.5146,15.3672,1.3193,8.294,7.2656,14.9258,14.6533,18.5235,6.94921,3.3847,16.1797,4.4189,23.1709.6015C190.716,243.51029,198.48259,234.72659,197.32439,224.88619Zm-46.4346-16.5195a7.94924,7.94924,0,0,1,2.1309-2.0395,1.22647,1.22647,0,0,0,.8486-.4576,7.12992,7.12992,0,0,1,.8145-.3134,1.19129,1.19129,0,0,0,.8066-1.4551,8.67108,8.67108,0,0,1,1.3174-.5938.97115.97115,0,0,0,.7666.5616c2.709.4829,1.6416,5.4453.7988,7.0971-.8593,1.6856-2.9824,1.7647-4.625,1.6104a4.25059,4.25059,0,0,1-2.3086-.772,4.60686,4.60686,0,0,1-.8652-.999l-.1846-.3321q-.2622-.67515.07231.0005A1.20113,1.20113,0,0,0,150.8898,208.36669Zm6.7842,33.5781a1.613,1.613,0,0,0-1.9785.3745,23.91655,23.91655,0,0,1-6.8115-8.2006,1.27118,1.27118,0,0,0,.6592.4765l.5732.1621a1.20577,1.20577,0,0,0,1.0908-2.0654c1.1875-4.0918,8.21391-3.2017,10.6074-.7563,1.9854,2.0263,1.7012,6.4257-.1572,8.3491C161.0578,240.90379,158.5002,242.48879,157.674,241.94479Zm25.95511,1.2408c-2.20121-2.4776,4.42289-5.6094,6.40819-5.1607a1.18537,1.18537,0,0,0,.7354-.0552,31.49843,31.49843,0,0,1-6.8907,6.3531A1.13013,1.13013,0,0,0,183.62911,243.18559Zm9.04589-7.9654c-.3594.605-.75,1.1953-1.1621,1.7725a1.03682,1.03682,0,0,0-.8262-1.2598c-4.26559-.9634-12.9668,4.3872-8.7754,9.104a1.1012,1.1012,0,0,0,.6172.3701q-.8085.50175-1.6318.9527c-3.6651,2.001-8.5205,2.1162-12.55759,1.5229a27.37321,27.37321,0,0,1-9.65631-3.3598,13.71257,13.71257,0,0,0,1.8594-.6363,7.48707,7.48707,0,0,0,4.2197-3.7104,9.53512,9.53512,0,0,0-1.5273-9.9971c-4.1094-4.1968-13.8858-3.2651-14.5596,3.4619a.87394.87394,0,0,0,.03711.3325c-.00981-.0205-.02051-.04-.02931-.06-2.2451-4.7412-2.2793-10.105-1.2529-15.1504a55.4718,55.4718,0,0,1,1.4053-5.9414c.0996.1523.2031.3013.3164.4443,1.8291,2.3374,6.0927,2.7813,8.6699,1.6016,2.76561-1.2676,3.5918-4.0908,3.7812-6.9268.1202-1.7837-.2959-3.9243-1.6259-5.1152.041-.0103.0888-.0215.1298-.0317a24.56948,24.56948,0,0,1,8.7354-.2237,35.105,35.105,0,0,1,15.1504,6.0161,29.03629,29.03629,0,0,1,9.7549,12.1997A15.86252,15.86252,0,0,1,192.675,235.22019Z"/>
          <path d="M187.75311,218.98149a8.09559,8.09559,0,0,0-6.36031-4.4288c-2.26569-.2739-4.9824.3409-5.877,2.646a1.34182,1.34182,0,0,0-.0605.209,3.73691,3.73691,0,0,0-3.0069,2.5977,8.52823,8.52823,0,0,0-.06829,6.7993,10.86315,10.86315,0,0,0,11.60149,5.6211C189.77269,231.09719,189.92889,223.25389,187.75311,218.98149Zm-4.69631,11.2128c-2.84269.6524-5.9843-1.1591-7.7656-3.2358a4.81713,4.81713,0,0,1-1.16009-3.9092c.15719-1.4482.56829-3.833,2.45309-3.0718,1.2178.4922,1.8545-1.1171,1.12991-1.9492a1.16579,1.16579,0,0,0,.09269-.1801c.53131-1.3663,3.3809-.9952,4.4414-.754,1.9297.4385,3.3057,2.4922,3.9522,4.2237C187.36929,224.458,186.84979,229.32369,183.05679,230.19429Z"/>
        </g>
      </g>
    </g>
  </g>
</svg>
