<svg xmlns="http://www.w3.org/2000/svg" viewBox="0 0 342.11492 283.49542">
  <title>conoceRecurso 6</title>
  <g id="Capa_2" data-name="Capa 2">
    <g id="Editar">
      <g>
        <g>
          <path d="M172.3909,86.174c2.62678-1.116,5.27415-2.603,8.039-3.33439l.00835-.00513a3.76758,3.76758,0,0,1,2.66722-.42251,10.01379,10.01379,0,0,1,2.58825.21126,2.38388,2.38388,0,0,1,1.44151.47643,2.52139,2.52139,0,0,1,2.33143,1.18791c2.85086,5.14311-3.58739,10.47827-7.88042,13.638.25235.25038.5047.50207.7577.7435.63692.6074,1.24694,1.16476,1.84278,1.81391a1.29777,1.29777,0,0,0,.21895.22151q.32172.13778.63311.29535c2.86309.95417,6.40551,1.99631,8.01908,4.78871,2.33912,4.04712-.08219,8.02875-4.68595,8.11028a7.82844,7.82844,0,0,1-1.37023-.10658,19.94369,19.94369,0,0,1,1.11532,6.17308c.09244,3.96171-4.18066,5.15212-7.176,3.6657a16.66436,16.66436,0,0,1-5.82954-5.43471,2.83228,2.83228,0,0,1-.43987-1.01124c-1.1217-1.51475-2.15871-3.11353-3.11478-4.67188-2.126-3.4628-3.9938-7.002-3.96874-11.22828a3.6375,3.6375,0,0,1,.67032-2.106,4.38128,4.38128,0,0,1,.298-2.56643,4.94958,4.94958,0,0,1-2.55939-3.14753C164.87907,89.40367,169.48158,87.41066,172.3909,86.174Z" fill="#c06140"/>
          <path d="M61.98075,112.78863c.62345-2.20874,1.49155-4.327,2.23578-6.496.79038-2.3025.93615-4.9569,2.04568-7.12528a81.45877,81.45877,0,0,1,6.90245-11.31494c2.84961-3.85763,6.0164-6.19426,9.91394-8.89613,3.93857-2.73021,8.79533-3.58161,12.79425-6.0498a3.60819,3.60819,0,0,1,1.68873-.56308c.0263-.01157.05135-.02249.07772-.0334a21.99085,21.99085,0,0,1,2.926-.92846c.1438-.03728,3.58286-.54132,1.51469-.26,1.23025-.1676,2.456-.36149,3.69332-.47583a6.78829,6.78829,0,0,1,5.233,1.4325c.49957-1.73232,2.12728-3.09874,3.76137-2.78347a6.45785,6.45785,0,0,1,2.30836-.67992c3.346-.3442,7.14007.7435,10.27537,1.85882,2.18507.7769,4.40993,1.4755,6.57758,2.38732,2.9915,1.25787,5.64143,3.11222,8.57323,4.424,5.41472,2.42263,10.04162,6.22121,14.49008,10.07378,3.79477,3.28619,8.26052,7.47842,7.44634,12.83857-.41036,2.70128-3.93732,2.736-5.36792.9497a3.66208,3.66208,0,0,1-3.88273,2.5465c-3.40567-.38779-6.04461-2.20493-8.63227-4.18835-1.62252-.93359-3.24832-1.86145-4.91456-2.71732a130.86717,130.86717,0,0,0-13.29382-5.653c-3.746-1.42158-7.83544-1.95258-11.14156-4.336-.49891-.35959-.98822-.7416-1.46143-1.14162a51.57561,51.57561,0,0,1-3.127,4.92995C107.618,97.64881,100.75277,103.85457,93.73407,108.87a50.91128,50.91128,0,0,1-11.5448,5.74538c-3.91483,1.49036-7.167,4.66675-11.76185,3.46668a8.956,8.956,0,0,1-1.83377-.70182C65.7633,119.29435,60.78773,117.01295,61.98075,112.78863Z" fill="#c06140"/>
          <path d="M27.3117,117.01683c5.4616-1.64441,11.35339-.48543,16.8536-1.94364,2.44058-.64718,4.47791-.90722,6.92494.088,2.82581,1.15,4.675,3.53151,3.88531,6.65339a3.68317,3.68317,0,0,1-3.71133,2.576,11.01914,11.01914,0,0,0-.93549,7.58507,9.24856,9.24856,0,0,0,6.02021,6.71046c2.44512.81418,5.0385-.12841,7.43674,1.31566,2.88873,1.74008,2.66656,5.08472,1.42349,7.74938-.25551,6.7054-2.90163,16.34956-9.76488,18.72663-3.86992,1.3413-8.19635-.95864-8.23422-5.37751-.00835-.8919.02951-1.71378.0668-2.56071a8.14172,8.14172,0,0,1-6.03436-.68637c-5.158-3.13727-5.12325-8.24448-3.6818-13.23669-.22276.07-.44559.13992-.67678.21382a8.91323,8.91323,0,0,1-8.36512-1.31053C23.82,139.86947,31.127,131.5576,33.70044,128.98605c.32684-.32619.653-.63955.985-.94707-1.22382-.27227-2.46241-.47261-3.7402-.65494-3.03963-.43408-5.95151-1.15194-7.15289-4.30848C22.76889,120.38521,24.7863,117.777,27.3117,117.01683Z" fill="#c06140"/>
        </g>
        <path d="M61.74512,123.80244a4.32414,4.32414,0,0,1,.64205.08028,4.18512,4.18512,0,0,1,4.189-1.15707c.11434.03406.21961.08094.33072.12072a13.34851,13.34851,0,0,1,8.97318-9.96522c3.0416-1.098,6.51531-1.17186,9.70715-1.46143a29.68852,29.68852,0,0,0,10.91492-2.94337c10.24393-5.19255,16.43944-18.59947,28.98976-18.49282,5.583.04681,10.94635,3.30868,15.929,5.48021,4.59284,2.002,8.6804,3.746,13.57569,3.753a5.33613,5.33613,0,0,1,.91117-.08153c.33066,0,.66007,0,.99072.00066a4.33108,4.33108,0,0,1,4.29625,2.71666c2.57478,1.88006,4.21662,4.68858,5.8058,7.57409,2.16831,3.93732,4.81179,7.72564,5.14054,12.36221a3.72664,3.72664,0,0,1-1.18147,2.99538c1.49931,6.99042,1.67013,14.28586-.78012,21.083-2.8669,7.95682-9.29424,14.15745-16.46449,18.349-7.63767,4.46706-16.67766,6.00937-25.33438,7.10411-1.24689.15859-2.50094.28253-3.76005.3801a3.09743,3.09743,0,0,1,2.28133,2.59148,7.76608,7.76608,0,0,1-1.16989,5.86491,17.34722,17.34722,0,0,1-1.70668,2.09191c-.271.29535-.54.59011-.80452.89059.59011-.671-.06937.19587-.15346.36149-1.59306,3.14818-5.94447,2.60371-7.66785,0a16.05816,16.05816,0,0,1-2.58313-10.55145,5.79928,5.79928,0,0,1,.29022-1.27332,60.04694,60.04694,0,0,1-11.97948-2.22676A44.96288,44.96288,0,0,1,79.07258,155.1095,61.29154,61.29154,0,0,1,68.13327,135.965c-.19331.19-.38911.37813-.59071.54513a13.74316,13.74316,0,0,1-1.32722.98816c1.24372-.79045-.44815.33513-.8251.601a7.4217,7.4217,0,0,1-3.66117,1.09605c-4.60126.22026-9.59222-3.97-9.43751-8.70157C52.45469,125.50721,57.47261,123.62781,61.74512,123.80244Z" fill="#ffeccb"/>
        <path d="M87.80755,203.19127a87.53693,87.53693,0,0,0,4.61283-11.4832c1.297-4.60185,2.68069-9.13756,4.19157-13.67393,1.14287-3.43137,3.31058-6.51985,7.39432-5.61125a13.31489,13.31489,0,0,1,8.22,5.13732,9.16472,9.16472,0,0,1,2.01294,4.67188c.253,1.72469-.00447,3.814.76283,5.416.07449.156-.02314.20034-.1413.20225.12525.03215.29541.079.53876.1509a10.23856,10.23856,0,0,0,1.75868.34933c1.94936.21895,2.71088-.228,4.4092-1.159.14-.08475.28-.16891.4206-.25366a20.37729,20.37729,0,0,1,.25426-2.14779,7.29176,7.29176,0,0,1,3.23359-4.70778,3.39162,3.39162,0,0,1,2.51251-.60168c.02952-.77243.07186-1.54487.13222-2.31855a3.31944,3.31944,0,0,1,6.63478,0c.33835,3.34787.90663,6.63215,1.31369,9.94274a22.35078,22.35078,0,0,1,1.31691,6.1076v.2292c.02761.25945.06358.51759.07772.77953.19778,3.69588,1.01965,7.29478,1.055,11.00927.03465,3.58227-.02315,6.46521-3.61435,8.21042-.382.18561-.77565.34677-1.17437.49378-.04878.02439-.08928.05655-.13932.08094a5.01577,5.01577,0,0,1-2.23767.49181c-.67742.08475-.55033.09244.409.01926-1.4325.793-2.45531,2.34623-3.43643,3.61113-2.09579,2.70253-4.38231,5.19065-8.12507,4.41953-3.10512-.63889-5.14889-3.21242-8.1828-3.81982a54.25125,54.25125,0,0,0-10.74535-1.27134,41.32659,41.32659,0,0,0-5.59711.01026c-1.64375.23243-3.25029,1.17759-4.79772,1.7337-2.85283,1.02412-5.17336-1.57892-5.43149-4.13766C85.0254,210.9246,86.16123,206.961,87.80755,203.19127Z" fill="#e54654"/>
        <path d="M166.79635,252.89358c.62923-2.8913,2.40147-6.91784,6.03055-6.56923,5.12706.49253,5.54892,5.35377,4.736,9.4381-.79813,4.01181-1.83383,9.09331-7.21,9.45415a2.88182,2.88182,0,0,1-1.86467-.49313,3.79549,3.79549,0,0,1-2.65756-3.57451A30.664,30.664,0,0,1,166.79635,252.89358Z" fill="#ed7a89"/>
        <path d="M123.71653,259.33762c2.12662-1.85244,4.80928-1.28417,7.16446-.18108,2.68584,1.25852,3.76782,3.17389,4.77137,5.8803.90985,2.45149,2.00268,5.82632,1.08192,8.34593a3.78382,3.78382,0,0,1-2.62935,4.78161c-5.36469,1.32335-9.46954-2.72633-11.46005-7.30957C121.1835,267.48965,120.60621,262.04791,123.71653,259.33762Z" fill="#ed7a89"/>
        <g>
          <g>
            <path d="M170.47744,241.43675c6.62-1.88,14.59541-3.04542,21.57879-1.97119a2.959,2.959,0,0,1,3.9,1.93976c.05332.19521.10724.39167.16056.58748a3.25614,3.25614,0,0,1-.50279,2.67051c.34933,1.7959.74738,3.58476,1.06653,5.38842a3.7782,3.7782,0,0,1-3.58029,4.70008c-3.08079.0931-5.96637.41929-8.893-.82891a5.26729,5.26729,0,0,1-2.85474-2.55748c-.21836-.4809-.40068-1.07357-.63054-1.55065a16.59907,16.59907,0,0,1-.87967-1.46971,4.54111,4.54111,0,0,1-.32172-1.07613c-1.58721.26386-3.16547.58748-4.7444.93937a94.22036,94.22036,0,0,0-9.10035,2.70384c-1.39719.46295-3.39343,1.29252-4.05547,2.67169-2.11564,4.41059-8.63931.56059-6.54674-3.82686C157.58173,244.497,165.48069,242.85577,170.47744,241.43675Z" fill="#d3dad8"/>
            <path d="M75.22067,238.41382a2.3661,2.3661,0,0,1,4.04711-.881,2.88987,2.88987,0,0,1,.64081.481,3.14533,3.14533,0,0,1,.82444,1.3394c-.17852-.62088.10849.07318.17141.18686.11492.20672.22092.42054.33066.63054.097.18489.36794.79485.41094.90406.03919.08087.079.16438.1169.24591,2.47911,1.16279,4.35976,4.12543,5.9567,6.1005,2.93048,3.62461,5.45259,7.54391,8.48907,11.08889,2.73271,3.19125,5.73709,6.06716,8.71058,9.02394.60549.60234,1.22386,1.23025,1.796,1.88972a4.04645,4.04645,0,0,1,.97724-.88546,3.90246,3.90246,0,0,1-2.30638-4.61152,21.11644,21.11644,0,0,1,5.40637-7.95038c2.76361-2.53493,6.86787-3.4981,10.43659-4.21978A55.57285,55.57285,0,0,1,134.573,251.169a61.24925,61.24925,0,0,1,6.27263.5907c1.566.228,2.31473,1.28739,3.26823,2.13885a2.06472,2.06472,0,0,1,.31844.36018c.0167.00769.03406.01348.05076.02117a4.53844,4.53844,0,0,1,3.12182-.95029,3.4036,3.4036,0,0,1,2.05923,6.03376c-.02571.11171-.05076.22342-.07772.33519a4.85072,4.85072,0,0,1-1.3227,2.32308c-1.706,1.68353-4.31742,1.30343-6.14935.07384q-.56335-.43247-1.123-.87073c-.63692-.49694-.61444-.13992-.09823.02446.0334.01091-1.367.11618-1.82674.16628a5.30622,5.30622,0,0,1-5.53287-2.92476c-2.39311.04688-4.78747.03919-7.18307.15221a23.12012,23.12012,0,0,0-4.10813.59839,3.35028,3.35028,0,0,1,.07127,1.27588c-.28057,2.2261-1.17114,3.2952-2.30191,5.12838a3.6717,3.6717,0,0,1-.58557.69472c1.8961,1.9205,1.45886,5.97853-1.71115,6.91146-2.37253.698-4.54728,1.9443-6.96669,2.46563a4.5702,4.5702,0,0,1-1.70865.05911c-.02439.13288-.04491.26451-.07962.4a1.87964,1.87964,0,0,1-2.734,1.11276c-2.58247-1.47681-4.58068-3.84619-6.92941-5.69344a61.23958,61.23958,0,0,1-8.8795-8.94689c-2.68266-3.21946-5.01922-6.71375-7.454-10.11875-1.43506-2.00525-4.042-4.51585-5.12135-7.11627a4.81668,4.81668,0,0,1-2.13943-3.163c-.11881-.58366-.30692-1.16667-.36662-1.76059a3.84931,3.84931,0,0,1-.147-.427A3.22835,3.22835,0,0,1,75.22067,238.41382Z" fill="#d3dad8"/>
          </g>
          <path d="M144.81562,236.43619c-2.19461-1.86467-4.0792-3.86992-6.82348-4.88057-2.62678-.967-4.84842-2.87723-4.84842-5.91363,0-3.24641,2.7379-5.549,4.99542-7.45725a36.69164,36.69164,0,0,1,18.68745-8.28426,62.89123,62.89123,0,0,1,20.16748,1.02669,3.5486,3.5486,0,0,1,2.637,3.4628c-.01926.2106-.03787.42185-.05714.63179-.007.07962-.02886.14708-.0392.22348a40.76914,40.76914,0,0,1,7.66983,6.60842c2.67689,3.09933,10.5669,8.31443,5.27152,12.78853-3.005,2.53881-6.61348,1.21671-10.118,1.01446a37.8179,37.8179,0,0,0-11.59812.79683c-2.94653.70372-6.9609.54836-9.19792,2.78156a8.10873,8.10873,0,0,0-2.19533,2.78669,5.61437,5.61437,0,0,1-3.69457,2.95488,4.28932,4.28932,0,0,1-4.7419-1.92885A30.51553,30.51553,0,0,0,144.81562,236.43619Z" fill="#fff"/>
          <path d="M79.4636,229.07329c5.78522-5.40637,13.33557-7.24665,21.07022-7.8457a78.27965,78.27965,0,0,1,13.11216.43342,36.4442,36.4442,0,0,1,6.13967.81478,36.30117,36.30117,0,0,0,5.7037,1.491,3.75615,3.75615,0,0,1,3.249,2.35267,17.99238,17.99238,0,0,1,2.3879,1.22124,17.28083,17.28083,0,0,1,4.32255,3.5989c1.97448,2.33466,4.53643,4.17421,6.83512,6.16855,2.07711,1.80241,3.50192,4.19354,5.55214,6.05493,2.142,1.94686,3.145,3.99577,2.57287,6.9012a4.21051,4.21051,0,0,1-5.18874,2.94659c-5.90594-2.20625-12.28324-.59714-18.46659-.51048-5.17842.07318-12.3872,1.44532-15.36653,6.12364-1.11269,1.74777-3.81911,2.88295-5.6889,1.49154a12.06491,12.06491,0,0,1-3.27081-3.72606,17.1507,17.1507,0,0,0-3.127-3.19053,17.02349,17.02349,0,0,1-3.4557-3.92186c-.96442-1.46912-3.14693-2.6711-4.5075-3.78839-3.24767-2.666-6.05427-5.88924-9.62431-8.1642-1.56861-.99973-3.0178-1.29377-3.66117-3.344A4.98675,4.98675,0,0,1,79.4636,229.07329Z" fill="#fff"/>
          <path d="M177.93857,255.01954c3.23616-1.84022,7.9202-.67289,11.4851-.47064.75251.04366,7.14711.95607,7.09253-.35058-.07581-1.821,2.95941-2.27943,3.21946-.436.49628,3.51993-2.221,4.62434-5.278,4.91075a47.58036,47.58036,0,0,1-7.447-.01223c-2.901-.18877-6.52235.0405-9.07207-1.49286A1.25686,1.25686,0,0,1,177.93857,255.01954Z" fill="#e54654"/>
          <path d="M165.64961,256.08226a1.33149,1.33149,0,0,1,0,2.551,125.23915,125.23915,0,0,1-13.41586,2.8053,2.43178,2.43178,0,0,1-2.67564-1.0883C146.30914,254.16624,163.30594,255.65462,165.64961,256.08226Z" fill="#e54654"/>
          <path d="M139.70334,262.79338a4.36411,4.36411,0,0,1,3.084-1.33493,3.7102,3.7102,0,0,0,2.24859-.64784,2.58744,2.58744,0,0,1,2.61139,4.46766c-2.08743.90531-4.397.75507-6.63727.66842A1.867,1.867,0,0,1,139.70334,262.79338Z" fill="#e54654"/>
          <path d="M105.919,278.22665a.856.856,0,0,1,1.05305-.1361c.03787.02762.06805.04879.10079.07259a10.86245,10.86245,0,0,0,1.012-1.01584,16.13422,16.13422,0,0,1,3.74335-2.46175c3.12188-1.76513,6.21806-3.938,9.87028-4.27567,2.70831-.2511,2.69931,3.99636,0,4.22556-2.779.23565-5.29151,2.48555-7.77575,3.63362a55.46,55.46,0,0,0-4.928,2.80017C106.86549,282.32321,104.17065,280.40982,105.919,278.22665Z" fill="#e54654"/>
        </g>
        <path d="M138.01272,178.15223c.18363-2.325.35439-4.607,2.298-6.19938a13.20881,13.20881,0,0,1,7.07327-2.81943,6.365,6.365,0,0,1,.85271-.06549,4.6608,4.6608,0,0,1,1.40554.194,3.17131,3.17131,0,0,1,3.26435.65106,6.82961,6.82961,0,0,1,1.89223,3.82554,10.78225,10.78225,0,0,0,1.53079,3.12188c1.76828,2.82134-.55736,6.29893-3.66959,6.3946a16.04525,16.04525,0,0,0-4.58192.95094,7.84741,7.84741,0,0,1-6.67456.854C138.33371,183.97349,137.78667,181.025,138.01272,178.15223Z" fill="#ed7a89"/>
        <path d="M79.90346,176.96373a6.16813,6.16813,0,0,1,5.12384-2.01682c.84949.00132,1.7003.19008,2.54979.226a27.49473,27.49473,0,0,0,3.68687-.66842l.02564-.00513.079-.00967a3.40346,3.40346,0,0,1,2.01163.33132,2.55155,2.55155,0,0,1,2.0374.76665c.07765.07127.15471.142.23176.21323a2.71317,2.71317,0,0,1,.7063,2.66978,88.478,88.478,0,0,1-2.89452,8.81466c-.71918,1.64822-2.87914,2.45531-4.52032,2.55295-1.52179.09054-3.70234-.61259-5.07512.12841a3.956,3.956,0,0,1-5.88858-3.37936C77.92642,183.27036,77.753,179.72281,79.90346,176.96373Z" fill="#ed7a89"/>
        <g>
          <path d="M163.00928,95.84962a1.98873,1.98873,0,0,1,2.12537-3.048c2.14326.55158,3.18862,1.96672,3.884,4.0009a11.06889,11.06889,0,0,1,.5143,3.04732,3.49542,3.49542,0,0,1-.48346,1.97961c.02564-.03853.03978-.05977.059-.08929a2.27662,2.27662,0,0,0-.147.2774,2.57112,2.57112,0,0,1-4.91265,0c-.04813-.12262-.097-.24466-.14643-.36728-.2369-.58814.24978.62542-.06871-.00579a6.68232,6.68232,0,0,1-.504-2.89071c-.00513-.29279-.027-.58557-.05-.87711-.01926-.19455-.03919-.3897-.05911-.58366q.07712.41709-.01473-.09757c-.07127-.41416-.13873-.82766-.18173-1.247q.06263.41807-.00191-.02821C163.017,95.89328,163.01447,95.87533,163.00928,95.84962Z" fill="#e54654"/>
          <path d="M169.10852,101.74018c.1098-.18042.192-.28766,0,0Z" fill="#e54654"/>
        </g>
        <path d="M54.84135,110.8874a3.29891,3.29891,0,0,1,1.59043-.4642c.01736-.0501.02827-.10079.04819-.1509a2.07816,2.07816,0,0,1,3.75361-.49056,15.68187,15.68187,0,0,1,2.248,4.35338,19.12653,19.12653,0,0,1,.461,3.118l.027.01473c.06871-.00125.15471-.00381.28056-.00894,3.6657-.149,4.58068,5.89825.87645,6.47738a7.77551,7.77551,0,0,1-6.25264-1.69254,3.04253,3.04253,0,0,1-2.08554-2.20237,18.66419,18.66419,0,0,1-2.5626-4.98518A3.51586,3.51586,0,0,1,54.84135,110.8874Z" fill="#e54654"/>
        <path d="M111.47123,138.02926c3.29007-1.08514,6.618-.02952,9.97292-.01414a93.67489,93.67489,0,0,0,14.07145-.95989c3.005-.44053,6.27454-1.14938,9.20246-.19521,3.3286-1.22322,6.9442,3.28876,4.0458,6.53136-2.19849,2.45919-3.1347,5.339-6.03823,7.2383a5.78755,5.78755,0,0,1-1.602.73712c-.42955.357-.86941.70175-1.32657,1.02537-3.51224,2.48108-7.53944,2.88689-11.61864,3.80634a48.34906,48.34906,0,0,1-6.09471,1.32848c-2.14457.2029-5.81994.52909-7.70125-.80774-3.43005-2.438-6.27066-5.34351-7.57731-9.42785A7.42709,7.42709,0,0,1,111.47123,138.02926Z" fill="#f28e7e"/>
        <path d="M150.30037,112.074a1.88828,1.88828,0,0,1,1.85632-1.85692,1.86125,1.86125,0,0,1,1.82805,1.70089l.00894.018c-.018-.1265-.01026-.1169.02124.03274l.00513.01861c.03978.06805.08153.13288.12262.19837a3.6237,3.6237,0,0,1,.52712,1.33045,2.10345,2.10345,0,0,1-1.43631,2.52921,2.07538,2.07538,0,0,1-2.60239-1.98342c.00058-.03662-.002-.07581-.002-.11434-.03656-.13676-.09435-.26964-.14445-.40384A3.51385,3.51385,0,0,1,150.30037,112.074Z" fill="#463131"/>
        <path d="M100.537,116.87685a1.99678,1.99678,0,0,1,.58366-1.40745,1.94445,1.94445,0,0,1,1.12558-.54448,3.311,3.311,0,0,1,.81418-.16247,2.043,2.043,0,0,1,1.49608.619,2.24882,2.24882,0,0,1,.619,1.49542,4.90437,4.90437,0,0,1,.059.98691c-.027.19324-.052.38523-.07706.57854a2.17442,2.17442,0,0,1-3.63421.958l-.33968-.43921a2.15134,2.15134,0,0,1-.287-.949A1.997,1.997,0,0,1,100.537,116.87685Z" fill="#463131"/>
        <path d="M100.54539,137.45329c1.40422,5.05651,2.72436,9.60636,5.74479,13.88459,2.73593,3.8763,6.21608,6.77536,10.70043,7.84314,4.56846,1.0877,9.64036.85659,14.26983.30758,4.78747-.56762,9.35079-1.96606,13.18856-5.217a26.12107,26.12107,0,0,0,7.77383-11.18712c1.15767-3.32091,2.10992-8.36966-.04365-11.45815a1.18888,1.18888,0,0,0-1.20329-1.6168c-9.22876,1.49483-18.717,1.02544-27.99838.44178a156.97145,156.97145,0,0,0-16.024-.29213c-1.63219.06227-3.99636.13867-5.17717,1.58787A6.00192,6.00192,0,0,0,100.54539,137.45329Zm2.6653-2.63895c.863-2.2403,4.50751-1.65408,6.32655-1.74264,2.67491-.131,5.35246-.10724,8.028.00835,10.66133.45907,21.40734,1.03826,32.00442-.62285-.00382.226-.00645.452.00256.68189.05267,1.22059.41863,2.37121.37819,3.622a14.37881,14.37881,0,0,1-.43467,3.22011,21.174,21.174,0,0,1-2.736,6.18906,20.39362,20.39362,0,0,1-11.225,8.86476,33.13028,33.13028,0,0,1-7.971,1.18784,58.64689,58.64689,0,0,1-6.898.165,15.68072,15.68072,0,0,1-12.201-7.144,29.25519,29.25519,0,0,1-3.73955-7.28512A30.78141,30.78141,0,0,1,103.743,138.313C103.53689,137.28444,102.80365,135.87121,103.2107,134.81434Z" fill="#463131"/>
        <path d="M1.13491,152.83205c.50208,1.23341.811,2.60943,1.88323,3.49423a8.88673,8.88673,0,0,0,4.08177,1.93016,22.595,22.595,0,0,0,2.36292,6.99233,26.56552,26.56552,0,0,0,6.17369,8.09805,58.76123,58.76123,0,0,0,17.5259,10.41088c6.95,2.83357,14.5453,3.85066,22.01407,3.97072,6.87746.11171,13.97191.21382,20.68368-1.48964.00454.21829.01157.43724.027.65553a39.45848,39.45848,0,0,1,.1361,4.20827,4.64856,4.64856,0,0,0,.83792,3.05061c1.20967,1.63409,3.3639,1.3728,5.10977.90985,1.83252-.48478,3.57707-1.23347,5.37815-1.81779a16.78418,16.78418,0,0,0,2.81622-1.11078c-.5882,1.45176-1.17634,2.90287-1.78564,4.34694a64.49659,64.49659,0,0,0-3.52894,12.4373c-.71082,3.54051-2.1549,8.18793-.5214,11.60707a1.09272,1.09272,0,0,0,.63054.5477,36.74226,36.74226,0,0,0-11.652,9.45737,2.03872,2.03872,0,0,0,.23052,2.87788,4.5987,4.5987,0,0,0,.07831,1.97573c.10533.48155.21895.96186.31784,1.44466.15221.73712-.21185.95739.42507.48675-1.59878,1.18206-1.77216,2.86565-.97724,4.60764a18.15776,18.15776,0,0,0,1.6001,3.091c.64593.915,1.42093,1.71759,2.04634,2.65381,1.0691,1.59944,1.81648,3.73632,3.53019,4.74953a1.11991,1.11991,0,0,0,.3705.13229c.11683.11427.23821.22855.36281.34289a14.43956,14.43956,0,0,1,1.30468,2.17666c.46236.65494,1.02353,1.22959,1.47938,1.88907,1.92115,2.78024,3.77228,5.77043,6.32786,8.02546,1.7529,1.54743,3.38764,3.16679,4.991,4.82724a1.28258,1.28258,0,0,0,.02308.56762,6.779,6.779,0,0,0,2.67754,3.59311,26.50018,26.50018,0,0,1,3.84868,3.7402c.31849.39167.78788,1.05049,1.34137,1.70345a1.05879,1.05879,0,0,0,.07.67874,6.23,6.23,0,0,0,2.9241,3.24c1.39522.48668,2.46432-.19712,3.45446-1.16088a15.83941,15.83941,0,0,1,2.95231-1.73173c.98112-.56506,1.95771-1.13715,2.93824-1.70345,2.12978-1.23413,4.26921-2.46182,6.471-3.56425q.65773-.32842,1.31559-.6575a16.15045,16.15045,0,0,1-.88993-1.85632,12.74188,12.74188,0,0,0,1.37279,1.74073,13.51242,13.51242,0,0,0,4.13254,3.23872,10.92939,10.92939,0,0,0,4.9139.7846,8.96789,8.96789,0,0,0,4.8805-1.41389.44782.44782,0,0,0,.32237-.16694c.06614-.07831.1271-.1624.1862-.24591a3.8776,3.8776,0,0,0,1.2148-2.32631,2.05706,2.05706,0,0,0-.10717-.98882c.10783-.69149.18166-1.37858.27411-1.9988a19.56088,19.56088,0,0,0,.22736-4.426,97.593,97.593,0,0,0,9.74693-4.56464,7.94,7.94,0,0,0,2.71088-.43658,1.13345,1.13345,0,0,0,.32684-.18752c.05392.05523.10783.11046.16181.16438a1.22731,1.22731,0,0,0,1.73429,0c1.02281-1.19238,2.5966-1.46971,4.15626-1.68741.01026.01157.01795.02439.02952.03787a23.03466,23.03466,0,0,0,3.02871,3.05,4.18623,4.18623,0,0,0,1.27845.68255,6.99043,6.99043,0,0,0,1.72916,1.88131,7.06206,7.06206,0,0,0,2.12531,1.15773,1.35756,1.35756,0,0,0,.45525.15471,8.4938,8.4938,0,0,0,6.07413,1.123,1.8342,1.8342,0,0,0,.4283-.122c3.82941.36919,5.75057-5.41157,6.60651-8.75687q3.57319.157,7.14257.3801c2.95876.19074,5.90469.34867,8.86923.37629,1.53007.01414,3.4628.03209,4.64873-1.116,1.10441-1.0716,1.84219-3.39665.95351-4.81692-1.02866-1.64632-2.65249-1.48773-4.171-2.32118a3.5697,3.5697,0,0,1-.30435-.80971c-.16438-.79295,1.60522-1.67005,1.87684-2.45787a2.88286,2.88286,0,0,0-.44053-2.73343,9.68,9.68,0,0,0-.96956-.78848,1.46281,1.46281,0,0,0-.10079-.14c.1079-.079.21829-.15471.33388-.22342a5.40862,5.40862,0,0,0,2.18185-1.86724c.89828-1.94423-.22861-2.71989-1.50957-3.667a5.29938,5.29938,0,0,0,1.08-.67354,2.17,2.17,0,0,0,0-3.08717c-2.18442-1.70865-3.46733-4.11583-5.18617-6.24048-1.72081-2.12662-3.44294-4.23977-5.14061-6.3779a52.15357,52.15357,0,0,0-5.70626-6.24311,26.77887,26.77887,0,0,1-2.82331-3.152,2.69611,2.69611,0,0,0,.31212-.67611,1.16407,1.16407,0,0,0-.305-1.15385c-1.45755-1.2219-3.9675-1.77216-5.77562-2.2595-2.78413-.748-5.69469-.89769-8.51543-1.50574a37.89189,37.89189,0,0,0-17.77818.19331,34.85041,34.85041,0,0,0-4.71744,1.611c-.24531-4.06507-1.15576-8.177-1.70286-12.18179-.40384-2.95041-.81353-5.85071-1.342-8.73951,3.265.0167,6.17177-2.16127,9.27438-2.9844a37.24637,37.24637,0,0,0,8.03639-2.90418c2.37641-1.27069,4.97111-3.55656,3.34918-6.48125a14.56321,14.56321,0,0,0-1.88709-2.47852,35.10515,35.10515,0,0,0,8.0563-3.71258c2.78991-1.97822,5.49632-3.96039,8.43581-5.7223a44.69621,44.69621,0,0,0,7.99726-6.636c2.54006-2.52914,5.49566-4.6513,8.08457-7.14257,4.88885-4.70271,7.68514-10.72746,11.01952-16.50243,2.24668-3.88912,4.95185-8.1327,6.03758-12.64467a4.26468,4.26468,0,0,0,.542-.03149c4.46509-.556,8.23481-6.23015,8.44732-10.434.104-2.04444-3.01655-2.01426-3.15712,0-.12072,1.73041-1.24892,3.26311-2.22873,4.63137a7.02747,7.02747,0,0,1-1.89545,1.70477l-.00191-.02183a5.11932,5.11932,0,0,1,.495-2.96454,17.80465,17.80465,0,0,0,1.18527-7.61906,1.31289,1.31289,0,0,0-2.62421,0,24.56609,24.56609,0,0,1-1.90123,7.19787,11.8281,11.8281,0,0,0-.38911,1.15c-.4995-1.20007-.45269-2.26595-1.6168-3.05764a.969.969,0,0,0-.18423-.09889,3.55382,3.55382,0,0,1-.104-.61253c-.09763-1.35544-.17726-2.69806-.35123-4.0458a1.07948,1.07948,0,0,0-2.15746,0c-.30495,2.35649-.69919,5.46094.4379,7.61393a13.3932,13.3932,0,0,0,1.63158,3.83777,6.25049,6.25049,0,0,0,1.65145,2.01228,33.07706,33.07706,0,0,1-2.2242,4.56273c-1.52435,2.874-3.39665,5.52584-5.149,8.25986-3.3196,5.17842-6.23916,10.39608-10.85391,14.59153-2.50027,2.27232-5.242,4.29493-7.69605,6.61091a47.8932,47.8932,0,0,1-7.67941,6.27966c-2.74816,1.66624-5.22668,3.64966-7.89712,5.40966a40.76624,40.76624,0,0,1-7.05525,3.389,2.18744,2.18744,0,0,0-1.028.84561,35.79735,35.79735,0,0,1-1.59306-3.43584c1.16864-.705,2.31158-1.45242,3.41657-2.25372a41.042,41.042,0,0,0,15.17521-21.21922,47.42822,47.42822,0,0,0,1.79721-20.54626,12.042,12.042,0,0,0,2.56577.339c2.45984.08285,5.48218.56762,7.78988-.46485,4.12674-1.84666,1.86336-7.44055-.37629-9.9261-.12585-.14-.28956-.30561-.43855-.48543.09764.00256.19587.00322.29279.00513a24.7828,24.7828,0,0,0,3.06021.27615,6.105,6.105,0,0,0,4.7778-2.33209c1.97191-2.68846-.03846-6.05237-1.99236-8.09871-2.24412-2.35136-4.75794-3.38061-7.52919-4.937-.29021-.16247-1.64118-.77756-1.45432-1.2482a4.44047,4.44047,0,0,1,1.46912-1.52244,26.57384,26.57384,0,0,0,3.579-2.85342c3.04482-3.35944,3.33886-8.09036-1.04983-10.49951-4.17809-2.2929-8.23481-.18877-11.8729,2.19533-2.20171,1.44341-4.63525,2.37187-6.74577,3.99958a10.45938,10.45938,0,0,0-2.67754,3.39606,3.59483,3.59483,0,0,0-3.58029.55664c-.66329-.95351-1.21164-1.69635-1.4062-2.0065-3.04482-4.824-7.71538-8.59828-12.39107-11.76829a69.51919,69.51919,0,0,0-7.79179-4.6847,31.98948,31.98948,0,0,0-7.7096-3.152,85.55847,85.55847,0,0,0-8.75043-1.23669c-2.93114-.25426-6.1281-.62344-8.99566.19975a.97427.97427,0,0,0,0,1.86527c2.45472.72233,5.13226.67032,7.66785.88348a78.81253,78.81253,0,0,1,8.0146,1.04148c4.78616.90406,9.397,3.46148,13.47878,6.04014a71.34826,71.34826,0,0,1,12.28641,9.68085,15.06533,15.06533,0,0,1,1.66683,2.03155,2.54822,2.54822,0,0,1,.44822.36406,22.7976,22.7976,0,0,1,4.3405,5.90081c.32941.46295.65178.931.95226,1.41455.04879.07831.086.15668.12519.235a.295.295,0,0,0,.15155.02183.7764.7764,0,0,0-.12393.03084,2.49643,2.49643,0,0,1,.0912.23887,1.22242,1.22242,0,0,0-.30626.15024,5.02109,5.02109,0,0,1-1.92306.28c-.82319-.045-1.57189.19258-2.388.19837a24.29153,24.29153,0,0,1-5.66385-.85653,89.65356,89.65356,0,0,1-11.148-2.93436c-3.7832-1.38759-7.58888-2.74428-11.35347-4.17744-1.92628-.73265-3.85059-1.51725-5.74157-2.336a17.98186,17.98186,0,0,0-5.34095-1.67518c-.94319-.088-1.25464,1.13393-.71589,1.72982a19.30388,19.30388,0,0,0,5.87,3.90582,65.244,65.244,0,0,0,5.98688,2.61909c3.9527,1.42993,7.8887,2.97348,11.87546,4.3046a78.28267,78.28267,0,0,0,12.91629,2.96191,20.929,20.929,0,0,0,5.7031-.25491,5.98313,5.98313,0,0,0,2.38469-.70175,28.26854,28.26854,0,0,1,3.06724,4.35016,43.99371,43.99371,0,0,1,4.42985,12.246,44.77322,44.77322,0,0,1-.93747,23.68932,37.17777,37.17777,0,0,1-13.18152,18.9006,59.11276,59.11276,0,0,1-22.441,9.57546c-16.56213,3.51421-36.53374,3.24069-51.0206-6.618a37.09662,37.09662,0,0,1-14.824-21.738,49.50763,49.50763,0,0,1-1.193-15.17645c.1695-2.59983.55663-5.17079.929-7.74431a45.37642,45.37642,0,0,0,12.90734-1.72719A58.92449,58.92449,0,0,0,99.563,110.00135a66.08906,66.08906,0,0,0,13.01393-11.32717c.852-.9445,1.62771-1.92306,2.37128-2.92279,1.48832-.94128,2.69418-3.09039,3.41717-4.40539.97922-1.77861,2.2165-4.45674,1.00873-6.39006a1.10051,1.10051,0,0,0-1.87361,0,17.97889,17.97889,0,0,0-1.21033,2.97546c-.18173.38332-.37819.75764-.58558,1.12558-.4989.73772-1.012,1.47681-1.56288,2.22932A54.68256,54.68256,0,0,1,108.93879,97.46a60.17284,60.17284,0,0,1-12.24406,9.92544,54.96283,54.96283,0,0,1-16.33287,6.81066,88.71139,88.71139,0,0,1-10.14116,1.254c.12775-1.12242.23177-2.24668.28766-3.37614.09567-1.91793-2.54913-2.02261-3.14562-.42567a31.33408,31.33408,0,0,0-1.27,4.29237q-1.10569.16756-2.20178.3968a24.713,24.713,0,0,0,.09567-2.64539c-.01348-1.61167.42507-3.154.47261-4.75472a21.555,21.555,0,0,1,.66394-4.72967c.38523-1.52363.52908-3.08717.90406-4.616a33.44282,33.44282,0,0,1,9.41108-16.25705,55.71989,55.71989,0,0,1,8.21561-6.245,17.4029,17.4029,0,0,1,4.3739-2.36227c1.64763-.44947,3.27271-.96567,4.88246-1.53717a74.96627,74.96627,0,0,1,9.912-3.11991,31.64389,31.64389,0,0,1,4.80154-.63245,15.42,15.42,0,0,1,3.163.418c1.30856.1791,1.89347-1.80813.55539-2.01623-.56571-.08857-1.08067-.37175-1.63863-.50976a11.39561,11.39561,0,0,0-2.07973-.14064,25.13933,25.13933,0,0,0-4.92291.15793A65.85407,65.85407,0,0,0,92.06013,70.105c-3.57,1.13774-6.95129,1.95515-10.14248,4.01306a62.82077,62.82077,0,0,0-8.59308,6.31175A37.01867,37.01867,0,0,0,62.497,98.02378c-.44178,1.70793-.66007,3.45313-1.11335,5.15343a26.30821,26.30821,0,0,0-.73009,3.667c-1.75546.156-3.32025,1.35866-4.82849,2.21137a7.02867,7.02867,0,0,0-3.43906,4.22754c-.05589.26964-.10658.54579-.1509.82378-3.57648-1.52494-7.62675-1.44532-11.60582-1.70793-4.46253-.29476-9.293.02117-13.32657,2.14069-3.22715,1.69642-7.83288,4.43169-6.71631,8.8718,1.09093,4.33412,5.40578,5.33,9.05222,6.68863a4.82171,4.82171,0,0,1,.92524.38332,1.18372,1.18372,0,0,1-.12006.23249,9.38735,9.38735,0,0,1-1.81135,1.95705,42.91165,42.91165,0,0,0-4.21144,3.74085c-1.42678,1.61548-2.31669,3.954-1.46207,6.05039a9.62207,9.62207,0,0,0,3.7402,4.78234,14.05753,14.05753,0,0,0,6.02152,2.0662,7.06761,7.06761,0,0,0,1.49865-.09113c.25169-.04688.50595-.07962.76027-.10533-.12907.68512-.40712,1.36-.53232,2.04056-.393,2.14332-.757,4.50619.34033,6.51919a8.60031,8.60031,0,0,0,3.58608,3.40244,10.619,10.619,0,0,0,5.95663,1.51146c.33131,2.39048,1.14425,4.57937,3.52835,5.92264,3.4628,1.95133,7.40715,2.32953,10.60477-.303,2.95041-2.42776,4.6031-5.8803,6.44338-9.14085a21.75383,21.75383,0,0,0,1.75033-5.39743,10.90643,10.90643,0,0,0,.08219-5.74157l-.00454-.01414q.14161-.49313.25432-.99519c.07831.21573.15727.43277.2388.64718,3.22333,8.33692,8.25729,15.53735,15.832,20.44613a51.40184,51.40184,0,0,0,11.8036,5.60868,29.81391,29.81391,0,0,1-7.16446.93359,37.045,37.045,0,0,0-4.62947.547,22.61415,22.61415,0,0,0-3.7498.68768c-1.84087.57084-3.649,1.15516-4.19414,3.1829-.24276.89762.37819,2.46044.56953,3.36391.01795.08409.02821.1695.04366.25491-6.61742,1.66749-13.8095,1.23663-20.56237.98237-6.69054-.251-13.43512-.97146-19.71025-3.45635-5.90272-2.33722-11.5596-5.2151-16.32648-9.47538a23.70527,23.70527,0,0,1-5.71264-7.04177c-.91373-1.8197-1.44408-3.87374-2.1812-5.80258,4.62368-1.638,7.51827-5.65425,6.45108-10.80321a1.14161,1.14161,0,0,0-2.187,0c-.83213,3.389-2.30316,6.29446-5.78647,7.19142a25.2692,25.2692,0,0,1-.58689-2.88873,18.86973,18.86973,0,0,1,.55539-6.367,1.13535,1.13535,0,0,0-2.18757-.60359A17.38014,17.38014,0,0,0,6.043,151.95876c.03721.48287.059,1.08968.10532,1.73561-1.5905-1.4492-1.61166-4.73861-3.37035-6.4466a1.59645,1.59645,0,0,0-2.64025.69794C-.33229,149.64534.5005,151.26983,1.13491,152.83205Zm52.17439-32.20153a8.838,8.838,0,0,0-4.84519,5.80705c-1.09605,4.494.19449,9.84457,3.93212,12.81806,3.34149,2.65762,7.75457,4.1704,11.39009,2.02839.05135.19265.09692.38523.13288.5811a13.5,13.5,0,0,1,.13485,1.45623c.0353.73265.05392,1.46465.052,2.19724a15.1897,15.1897,0,0,1-1.08126,3.7736,16.77588,16.77588,0,0,0-.51561,2.63323c-.35637,1.46011-.71273,2.92148-1.20139,4.35595a22.792,22.792,0,0,1-4.05994,7.00778c-1.95705,2.23577-3.979,3.20788-6.8941,2.036a3.717,3.717,0,0,1-2.33531-2.14135c-.53232-1.0376-.25938-2.48555-.20547-3.613.07-1.51922-2.16-2.60818-3.177-1.31632-.86553,1.09993-2.91576.13038-3.902-.4-1.49476-.80261-2.84448-1.724-2.71542-3.64.12137-1.801,1.21164-3.77353,1.0543-5.55345a3.65591,3.65591,0,0,0-3.79345-3.62908,8.72475,8.72475,0,0,1-2.96132.09632c-.95607-.26714-1.86915-.64856-2.78925-1.00749-1.50121-.58623-3.63934-2.79754-2.54782-4.47726,1.9314-2.96967,6.50374-4.43044,7.40715-8.14815.87132-3.58739-2.64092-5.05645-5.52643-5.83145-1.56546-.4206-4.90174-1.52244-4.71166-3.68306.18233-2.06561,2.4104-2.987,3.9398-3.89879,3.93733-2.34813,8.59382-2.66919,13.08074-2.45084,3.67405.17785,7.55929-.2774,10.90657,1.24952a7.77642,7.77642,0,0,0,.63567,2.73461A5.29015,5.29015,0,0,0,53.30931,120.63052Zm4.58712,2.40593c2.19145.07765,5.545.12841,6.90435,2.08868a60.6289,60.6289,0,0,0,.11816,13.12051,1.67284,1.67284,0,0,0-.26708-.02183l-.01546-.00132c-3.26567-.06036-6.96089.01032-9.483-2.43091-1.98664-1.92306-3.43071-4.90687-2.849-7.74168C52.87463,125.276,54.83169,122.9279,57.89643,123.03645Zm7.66463-4.08177q-.23118,1.50916-.42185,3.03516a7.61051,7.61051,0,0,0-1.577-.924,17.66869,17.66869,0,0,0-5.66576-1.37858c-.20356-.01091-.40522-.00769-.60747-.00447-1.28351-1.65664-2.11051-3.7736-1.27069-5.90279.495-1.25524,1.629-1.7458,2.69359-2.38279.60418-.36149,1.09987-.89571,1.67839-1.25142-.28311,2.94206-.76276,5.723.15222,8.72472a1.48967,1.48967,0,0,0,2.85152,0c.04556-.14958.08285-.29726.12262-.44493A20.91661,20.91661,0,0,0,65.56106,118.95468ZM167.346,100.91127c-.199.27418-.38648.488-.54448.70182-.25294-.24341-.51042-.481-.76987-.716.07127-.09889.1413-.20034.20613-.31014a1.32775,1.32775,0,0,0-.09054-1.42349c.25879-1.14484-.70116-3.13858-1.84476-5.0218.03085-.01091.06037-.02058.09186-.03018.6241-.185,1.29317.63311,1.57761,1.14866.55025.99723.82509,2.08172,1.29962,3.111C167.728,99.36508,168.01122,99.99819,167.346,100.91127Zm2.04253,3.53729c-.10849-.13676-.21961-.26971-.32941-.40456a4.26011,4.26011,0,0,0,2.20815-2.46109c.79235-1.94489-.33454-3.64006-.98494-5.41222a11.13183,11.13183,0,0,0-1.77091-3.317,13.59406,13.59406,0,0,0,1.33815-1.36313,11.73377,11.73377,0,0,1,2.91378-2.31861c1.92628-1.15641,3.92509-2.17285,5.85906-3.31322,1.84863-1.08961,4.53512-2.90478,6.72209-1.7195.97791.52975,2.38536,1.31435,2.30508,2.62422a4.56463,4.56463,0,0,1-1.41258,2.87466c-2.07074,2.07008-5.895,3.54367-6.01449,6.88575-.12131,3.33761,4.84394,4.52611,7.04888,5.83533a12.275,12.275,0,0,1,3.16935,2.81042c.46814.57531,1.92694,2.336,1.42165,3.19381-1.75612,2.98506-9.18576-1.74008-9.476,3.51349-.09757,1.78564,1.49351,3.24385,1.93851,4.17678.4732.992,2.50607,3.60021.732,3.73763a43.9477,43.9477,0,0,1-5.65366-.05523,12.8172,12.8172,0,0,1-3.3979-.79551c-.158-.6312-.3275-1.25852-.51627-1.882A37.76448,37.76448,0,0,0,169.38849,104.44856Zm-43.33408,72.00476a.958.958,0,0,0-.01032.1939c.15478,2.77959-1.91852,5.44944-4.1132,6.986-1.22512.85653-3.007,2.11439-4.3714.75955-2.02386-2.00972-2.16318-4.82146-2.54328-7.48033A89.72331,89.72331,0,0,0,126.05441,176.45332Zm14.64091,8.55067c-.15793-.7005-.32231-1.40166-.50149-2.10348-.5252-2.054-1.16022-4.07467-1.69056-6.123a12.1313,12.1313,0,0,0-.7577-2.24412,66.66037,66.66037,0,0,0,16.15179-5.84427,15.07629,15.07629,0,0,0,3.01464,6.92875c.60871.7243,1.71634,1.61423,1.97895,2.56071-.01867.02183-.03472.043-.06233.07193a8.49154,8.49154,0,0,1-2.603,1.68163,39.60207,39.60207,0,0,1-6.70408,2.28133C146.4812,183.00328,143.93858,185.09584,140.69532,185.004Zm40.40616,71.80317c.08094-.43211.15734-.87711.22414-1.3317,3.41782.201,6.83249.472,10.25032.60484a7.254,7.254,0,0,0,2.94206-.26839,1.00328,1.00328,0,0,0,1.16088.37885,3.83038,3.83038,0,0,0,2.63645-1.91215,1.60239,1.60239,0,0,0,.18555-.44178,5.2916,5.2916,0,0,1,1.1712.87645c.52844.57275.55474,2.1067-.23564,2.52665-1.32592.70247-3.31256.36018-4.75985.31593C190.1537,257.41712,185.62378,257.10764,181.10148,256.80716Zm13.57063-4.93383c.174.45269.43533.897.62029,1.3561-.10724.1438-.217.28312-.32494.42376a2.25989,2.25989,0,0,0-.38911-.42567,1.23346,1.23346,0,0,0-1.89413.45972c-.50858-.08475-1.01518-.18173-1.51791-.29732-1.288-.29791-2.59923-.46676-3.9097-.63567-1.88972-.24268-3.77426-.43079-5.65944-.58044a15.70525,15.70525,0,0,0-.12387-2.1812.61675.61675,0,0,0,.56308.39167c2.255-.04109,4.478-.42632,6.7413-.4398a27.12882,27.12882,0,0,0,6.05493-.39812A3.12446,3.12446,0,0,0,194.67211,251.87333Zm-14.72126-5.99391a16.31942,16.31942,0,0,0,7.43095.68637c2.50416-.45013,5.01989-.69537,7.52662-1.11466a2.98579,2.98579,0,0,0,.62989,1.342,5.01684,5.01684,0,0,0,.88546.83023,17.17579,17.17579,0,0,0-1.32592,1.35031c-.00834.016-.01544.0334-.02379.0501a.27563.27563,0,0,0-.14767-.09632,28.02162,28.02162,0,0,0-6.82348-.69537,14.57091,14.57091,0,0,0-6.38112.99138.50728.50728,0,0,0-.30245.40837A8.51228,8.51228,0,0,0,179.95085,245.87942Zm-10.87632,8.67849c.66967-1.72147,5.321-10.51489,7.72367-6.20261,1.54487,2.7738.79235,6.84084.03919,9.75272a41.11061,41.11061,0,0,1-1.891,5.791c-.14123.03662-.28444.07259-.4283.10079-.69406.14-1.74258.12525-2.65953.289-1.49924-.1008-2.94271-.61128-3.45379-2.25115A11.628,11.628,0,0,1,169.07453,254.55791Zm-10.91045-1.8942a15.38933,15.38933,0,0,0-5.05007,2.39054,9.71091,9.71091,0,0,0-.25807-1.26175,2.21173,2.21173,0,0,0,.32934-.4c3.29139-3.23931,5.49185-7.46941,9.42916-10.06286a27.58835,27.58835,0,0,1,12.55861-4.48561,67.2691,67.2691,0,0,1,15.11359.56506,24.4582,24.4582,0,0,0,6.65779.36084c.42185.35571,1.72338,1.159,1.15641,1.55966-.69472.49115-1.46268.87066-2.13109,1.401a2.99187,2.99187,0,0,0-.74416.85916c-1.08383-.03537-2.15747.0526-3.26311.10658a40.60149,40.60149,0,0,0-4.05994.20672c-2.94206.43342-5.83723-.31074-8.7305.34736a.64483.64483,0,0,0-.45914.37116q-.20613-.156-.42822-.29923c-5.25232-3.34017-9.95694,2.28331-12.31467,7.32371A31.25338,31.25338,0,0,0,158.16408,252.66372Zm4.3643,6.76378c.50082-.08732.99907-.1528,1.49608-.20159a13.40346,13.40346,0,0,0,.02308,1.60713,10.13429,10.13429,0,0,1-1.26359-1.159C162.69788,259.5874,162.61313,259.50712,162.52838,259.4275Zm-10.1367.6479a14.69419,14.69419,0,0,0,2.41875-1.77986,14.1835,14.1835,0,0,1,6.81257-2.71732c.99592-.149,2.00788-.253,3.02747-.33138-.1008.39746-.19455.80327-.27608,1.21421a11.81791,11.81791,0,0,0-2.45984.38076c-1.94555.54323-3.91871.76152-5.85716,1.31888a7.08676,7.08676,0,0,0-3.34142,2.11571,1.14945,1.14945,0,0,0-.31914-.19909Zm-1.34584-11.82858c-.67736-1.07745-1.31947-2.19665-2.07074-3.224a69.57627,69.57627,0,0,0-6.05105-6.63406c-1.9969-2.10736-3.61047-4.84842-5.95091-6.59494a40.20165,40.20165,0,0,1-7.26526-6.55319,1.20232,1.20232,0,0,0-1.05108-.49115,29.75691,29.75691,0,0,1,2.2762-2.98059c1.7266-1.72081,3.83389-2.64355,5.95026-3.79608,4.51775-2.46307,8.97194-5.13482,14.04-6.29827a39.52917,39.52917,0,0,1,8.04026-1.07035,40.298,40.298,0,0,1,7.66081.86166c2.49581.42317,4.98327.42185,7.47586.78979,1.07548.1599,2.12472.37629,3.18093.61509.08285.01926.17082.0334.25879.04885,1.76638,1.93332,3.08907,4.26153,4.76491,6.28479a80.08691,80.08691,0,0,1,5.12068,6.96281c1.49674,2.26148,3.34978,4.24746,4.887,6.47356.62989.91241,1.23538,1.8364,1.88394,2.72633-.38017-.03662-.71918-.0668-.95292-.07193-2.39048-.05714-4.80279-.44947-7.18821-.64271-4.88115-.39746-9.84647-.6813-14.6724.375a31.20044,31.20044,0,0,0-12.3269,5.49691c-3.0345,2.30961-5.199,5.40512-7.62163,8.29261C151.3001,248.62948,151.16787,248.44137,151.04584,248.24682Zm-11.82023,14.94849c.80517-.21448,1.6091-.40325,2.40915-.55092a25.44352,25.44352,0,0,1,3.728-.40325c-1.934.73653-3.87183,1.46077-5.80067,2.20947Q139.41757,263.81783,139.22561,263.19531Zm-15.127-2.02129c.90143-1.75421,2.5035-2.18185,4.34628-2.526a6.28949,6.28949,0,0,1,6.33489,2.813,12.93527,12.93527,0,0,1,2.0303,7.68133c-.027.924-.20678,2.04891-.30633,3.188a2.14538,2.14538,0,0,0-.37366.50148c-.90025,1.63665-3.49107,2.11374-5.24272,1.6694a8.98864,8.98864,0,0,1-4.9235-3.68431C124.34195,268.36413,122.60956,264.06985,124.09861,261.174Zm-16.81514,19.69039c.03149-.03215.06489-.061.097-.09632a.86219.86219,0,0,0,.113-1.02412,2.77155,2.77155,0,0,0,.97915-.46236,2.36712,2.36712,0,0,0,.78591-1.01959,1.64632,1.64632,0,0,0,.55545.00125c3.74981-.61766,6.55444-4.277,9.68658-6.15573.671-.40259,1.35031-.7917,2.031-1.17759a15.40915,15.40915,0,0,0,.77243,1.40041c-3.89432,1.88775-7.52918,4.1896-11.333,6.25008A29.97813,29.97813,0,0,1,107.28347,280.86441ZM105.851,267.715a9.23087,9.23087,0,0,1-2.38923-.78137c.54322-.454,1.064-.985,1.60266-1.39785,1.83706-1.40876,3.36969-3.10775,5.14127-4.57943a16.05976,16.05976,0,0,1,2.901-2.14457c1.019-.51364,2.10926-.84949,3.12057-1.39975a42.74652,42.74652,0,0,1,5.44556-2.69036c4.70074-1.76125,9.85674-3.07816,14.91575-2.5709,2.62171.26326,5.25363.244,7.86628.67545a28.44,28.44,0,0,0,5.1149.39167,5.68418,5.68418,0,0,0,.84949.63758,13.332,13.332,0,0,1-.42632,3.43328c-.08863.045-.17273.08863-.26649.13295a1.52276,1.52276,0,0,0-.78013,1.62705,25.7099,25.7099,0,0,0-11.32842.69794,10.02724,10.02724,0,0,0-2.54979-2.65894c-1.44085-1.019-2.82134-2.02767-4.64807-2.12978a14.38362,14.38362,0,0,0-4.76366.61831,7.52457,7.52457,0,0,0-5.19643,4.774c-.06233.17976-.1098.36472-.16181.54829q-.66365.28128-1.32789.57084c-3.65992,1.61035-7.533,4.182-9.69749,7.61584a.839.839,0,0,0,1.141,1.14037c3.20335-1.97954,5.78075-4.78484,9.2114-6.45943.08929-.045.17851-.0912.269-.13485a14.71923,14.71923,0,0,0,.35381,3.61369c-1.087.60227-2.16318,1.21934-3.2188,1.87362-1.86658,1.15641-3.39409,3.08651-5.33832,4.06316-.40647.20547-.802.40515-1.17443.61963a2.98388,2.98388,0,0,0-.183-.31461,3.78694,3.78694,0,0,0-1.90826-1.33624c-.11368-.04169-.23184-.07831-.34867-.11493.81741-1.24373.93293-2.93371-.54389-3.79793A5.567,5.567,0,0,0,105.851,267.715ZM76.9286,240.1372c.08738-.0764.17595-.15412.26392-.22986a2.27627,2.27627,0,0,0,.64212-1.51857,23.842,23.842,0,0,1,2.18889,3.07435,63.67178,63.67178,0,0,0,6.17624,8.92183q4.12707,4.82149,8.4005,9.50681A52.194,52.194,0,0,1,98.544,264.143a6.18347,6.18347,0,0,0,1.13781,1.25083,2.57627,2.57627,0,0,0-.21763.90919,1.4448,1.4448,0,0,0,.721,1.25787,2.55064,2.55064,0,0,0,1.05436.32487,1.13862,1.13862,0,0,0,.63049,1.13268,7.59586,7.59586,0,0,0,2.82653,1.24176,2.67387,2.67387,0,0,1,.5644.11368c-.82576,1.21677-1.20264,2.92923.0096,4.03232a3.17922,3.17922,0,0,0,1.34005.65684,1.22432,1.22432,0,0,0-.04109.31337,5.63788,5.63788,0,0,0,.09054.79748c.0096.06614.0597.42244.06614.443.01473.14064.02762.28253.03274.42376-.04754.00579-.08988.01091-.1008.01157-.08863.00388-.17851.00388-.26714,0a3.00438,3.00438,0,0,0-.626.052c.15149-.02183.14833-.027-.00711-.01539h-.086l-.02893-.00454a.81416.81416,0,0,1-.17785-.03787.88945.88945,0,0,0-.11493-.02051c-.059-.04885-.11427-.10467-.17141-.156a21.02012,21.02012,0,0,0-1.71312-2.21269c-.287-.31652-.57978-.62219-.8752-.922-.01216-.01545-.0263-.0334-.03912-.04819-1.02031-1.20967-1.87105-2.55038-2.8458-3.796-1.06265-1.3561-2.12018-2.73534-3.28488-4.00662-1.12308-1.22578-2.37194-2.21137-3.55465-3.362a49.39745,49.39745,0,0,1-5.74926-7.34107,34.31245,34.31245,0,0,1-2.59983-3.71061c-.51949-.99592-1.47813-1.49864-2.04445-2.46695a1.42854,1.42854,0,0,0-.34544-.39614c-1.00808-2.6711-3.77741-5.077-4.93317-7.36349-.15346-.30436-.25945-.65494-.38655-.98625C76.8445,240.22195,76.88368,240.18342,76.9286,240.1372Zm9.797-15.545a27.18189,27.18189,0,0,1,13.43453-2.64539,80.04511,80.04511,0,0,1,14.62678,2.00393c2.248.53744,4.51585,1.02031,6.78246,1.47681.18423.03721,1.38049.10849,1.437.15155a5.2736,5.2736,0,0,0,1.18212.69025,4.77949,4.77949,0,0,0,2.34748.36662,1.43586,1.43586,0,0,0,.74094-.26714,1.49846,1.49846,0,0,0,.35577.94838,55.3007,55.3007,0,0,0,6.85945,6.64951c2.30763,1.97895,3.69779,4.86965,5.76727,7.0855a49.398,49.398,0,0,1,5.85137,7.07518,38.34077,38.34077,0,0,0,2.80332,4.40993c-2.18244-.42639-4.293-1.2457-6.47613-1.66111a66.06764,66.06764,0,0,0-7.00838-.96955,37.95161,37.95161,0,0,0-14.5524,1.92819,62.36736,62.36736,0,0,0-6.35409,2.66019,28.44551,28.44551,0,0,0-6.08189,3.15456c-1.85179,1.40173-3.46155,3.16679-5.36857,4.48054a18.87522,18.87522,0,0,0-2.18434,1.6688,13.64665,13.64665,0,0,0-.71207-1.55519c-.50148-.62989-.976-1.2745-1.44986-1.925-1.04919-1.44407-2.21006-2.80017-3.3286-4.19026-2.32118-2.88689-4.57687-5.97274-7.11634-8.67212-2.29606-2.44058-3.69845-5.48856-5.46351-8.29964a27.92468,27.92468,0,0,0-3.13984-4.09078,12.2018,12.2018,0,0,0-1.21676-1.13136c-.165-.13676-.93812-.89059-.87454-.66585a1.7551,1.7551,0,0,0-.547-.88355c.29213-.31974.57466-.65875.89059-.99776a26.299,26.299,0,0,1,2.66019-2.46307A35.14327,35.14327,0,0,1,86.72563,224.59215Zm5.14764-27.75057c2.78347-7.17531,5.08984-14.94593,9.21593-21.52482a71.07484,71.07484,0,0,0,10.504,1.45117,17.97457,17.97457,0,0,0,1.25853,6.044c.82122,2.09513,2.126,4.3405,4.41118,5.06993,5.94256,1.89932,11.49661-6.30084,10.791-11.50759a.86607.86607,0,0,0-.03531-.14445c2.06816-.2536,4.11576-.57019,6.1262-.94582.53869-.09889,1.07613-.20606,1.61357-.31718a30.86932,30.86932,0,0,1,.3448,3.54374,46.03565,46.03565,0,0,0,1.11657,5.90338c.80393,4.26732,1.23413,8.53338,1.72338,12.84113.48668,4.29177,1.13906,8.56876,1.53717,12.87013.04044.43855.0668.87191.08475,1.30409-2.50863,1.27134-4.96466,2.66466-7.47651,3.95014a18.20829,18.20829,0,0,0-6.19938,4.7611,31.61541,31.61541,0,0,0-2.13366,2.67557,4.82519,4.82519,0,0,0-1.08-.45006c-1.1134-.28963-2.22228-.59333-3.3305-.89894-2.25892-.62219-4.53959-1.22322-6.82993-1.71759a78.25942,78.25942,0,0,0-15.154-1.86592,28.172,28.172,0,0,0-11.69247,2.38982c.71918-1.69379.53553-3.38764.723-5.22207a62.72273,62.72273,0,0,1,1.16029-6.40229A73.89364,73.89364,0,0,1,91.87328,196.84158ZM78.08954,178.508a23.867,23.867,0,0,1,6.14929-1.47681c4.47476-.57341,8.87693-.68768,13.20651-2.108a.97128.97128,0,0,0,.50792-.36919c.235.06358.472.12775.7076.18943a69.20471,69.20471,0,0,0-5.24653,9.58637c-.50726,1.14234-.9946,2.293-1.47359,3.44675a1.47759,1.47759,0,0,0-.98047-.14057,45.973,45.973,0,0,0-5.51236,2.0303c-1.38115.48024-2.72825,1.06009-4.13062,1.47872a5.6516,5.6516,0,0,1-1.95127.40068c.50917.03912.36149-1.28936.366-1.71568.01027-1.202-.47642-2.37187-.58109-3.57648-.09179-1.06522-.14255-2.13175-.18108-3.20078a12.02924,12.02924,0,0,0-.80452-2.8817C77.94957,179.50708,77.28049,178.838,78.08954,178.508Z" fill="#463131"/>
        <path d="M152.47643,228.18658c1.18791-.366,1.62962-1.5089,2.71029-2.11249a5.82087,5.82087,0,0,1,3.61626-.68834c.7268.19909,1.367.68387,2.09579.90663.87389.26649,1.2482-1.46136,1.61548-1.92687.78144-.992,2.65374-.57341,3.80825-.59392a3.648,3.648,0,0,1,1.77407.10592c.65369.38332,1.98795,1.84791,2.456.31271.23631-.77118.03209-.85528.65882-1.40686.47767-.42054.7621-.98237,1.2649-1.38174,2.50285-1.99374,5.31715.897,7.201,2.21328.64468.45072.01861,1.51916-.617,1.05753-1.62515-1.18212-2.83745-2.79695-5.02824-2.64289-2.40014.1695-1.26432,2.77709-2.413,3.88853a2.72982,2.72982,0,0,1-3.886.10336c-.915-.70372-2.56064-.55026-3.88077-.495-.46236.86166-.56119,1.69188-1.46143,2.37509-1.00933.76665-2.57865.06483-3.53789-.39233a2.789,2.789,0,0,0-3.8256,1.18534,2.27233,2.27233,0,0,1-2.551,1.0138C151.65265,229.59081,151.79645,228.39527,152.47643,228.18658Z" fill="#463131"/>
        <path d="M145.08664,224.00915c.44046-.75126,1.38173-.60806,1.94936-1.141a11.75472,11.75472,0,0,0,1.10565-1.74067,5.4084,5.4084,0,0,1,1.65723-1.47234,7.70911,7.70911,0,0,1,3.95467-.73068c.6241-.00191,1.48707-.81418,2.01748-1.10506a7.5574,7.5574,0,0,0,1.75481-1.53842c1.89032-1.89354,4.52164-.26583,6.64563.11427,2.108.37688,4.25259-.78913,5.74479,1.2553.12006.16306-.147.366-.27931.21507-1.83509-2.08546-3.02293.16438-4.70463.58241a5.08959,5.08959,0,0,1-2.94908-.2607,7.91187,7.91187,0,0,0-1.87874-.41482c-.91629-.061-1.211.6479-1.61035,1.27522a7.2724,7.2724,0,0,1-3.43262,2.56643c-1.376.49444-3.06475-.05714-4.25134.95929-1.03182.88289-1.20454,2.3077-2.44637,3.08329C147.16441,226.40475,143.92379,225.99513,145.08664,224.00915Z" fill="#463131"/>
        <path d="M104.99378,251.16192a23.33534,23.33534,0,0,0,2.763-2.03931,7.77017,7.77017,0,0,1,2.77058-2.04312c1.568-.61,3.14115,1.16279,4.259-.61963a5.622,5.622,0,0,1,3.81916-2.14589c1.61417-.20415,3.57576.73009,4.95946-.17273,1.20975-.79038,1.97639-1.733,3.44486-2.09644,2.70509-.6671,5.65293,1.15773,7.5253,2.91832.70049.65816-.36406,1.72338-1.05365,1.05305a10.29007,10.29007,0,0,0-3.92962-2.44893c-2.12149-.70826-2.971.52653-4.01885,2.11051a3.67361,3.67361,0,0,1-2.7308,1.6855c-1.84087-.12841-3.46221-1.07548-5.22023-.08344a5.90859,5.90859,0,0,0-1.40232,1.4851,4.29432,4.29432,0,0,1-1.74264,1.02544c-1.349.533-2.85474-.87579-3.91549.04175-1.50956,1.30534-2.83547,4.39257-5.3184,2.95429A1.03881,1.03881,0,0,1,104.99378,251.16192Z" fill="#463131"/>
        <path d="M103.82455,237.719c.82957-.9946,2.15805-.89315,3.37482-1.07482a3.21711,3.21711,0,0,1,2.41875-1.96547,17.68924,17.68924,0,0,1,5.251-.23946,4.3893,4.3893,0,0,1,2.69293-1.16864,18.377,18.377,0,0,1,5.54063.98691,1.13489,1.13489,0,0,1-.60293,2.187c-.96955-.27293-1.925-.58945-2.90162-.83923-1.61226-.41225-2.33078.14445-3.26114,1.28482-.60168.73647-2.12662.44178-2.92858.43277a11.27047,11.27047,0,0,0-3.19828.147,2.992,2.992,0,0,1-2.17733,2.48621c-1.35418.41738-3.213.61384-4.20826-.57084A1.21316,1.21316,0,0,1,103.82455,237.719Z" fill="#463131"/>
        <path d="M95.63083,230.77937a24.40957,24.40957,0,0,1,3.545-2.26917,8.53695,8.53695,0,0,1,5.53031-.47452,10.21219,10.21219,0,0,0,3.92764-.15024c1.08515-.174,2.01361.716,3.18225.34867,2.072-.65369,4.02654-.1914,6.18334-.13229a.31164.31164,0,0,1,0,.62285,32.84729,32.84729,0,0,0-4.10361.29022c-.757.11618-1.2142,1.331-2.00267,1.54868a4.69082,4.69082,0,0,1-2.343-.13222,13.74716,13.74716,0,0,0-4.2134-.70951c-1.80944.04813-4.5505-.11178-5.74223,1.47675-1.02668,1.37089-2.35391,1.9706-3.96361,1.25083A.97458.97458,0,0,1,95.63083,230.77937Z" fill="#463131"/>
        <path d="M156.49527,124.02139c2.75842-3.91036,7.27552-4.46831,11.38688-2.38535a9.093,9.093,0,0,1,1.75671,1.17246,5.08958,5.08958,0,0,1,1.62192,1.7696,8.83934,8.83934,0,0,1,1.44027,7.12784,6.9296,6.9296,0,0,1-1.66111,3.16357,6.56276,6.56276,0,0,1-1.30475,1.4993,8.01407,8.01407,0,0,1-5.90851,1.80556,6.2581,6.2581,0,0,1-1.90827-.14643,6.49408,6.49408,0,0,1-2.86118-1.51528,10.50743,10.50743,0,0,1-1.48773-1.16733A8.96306,8.96306,0,0,1,156.49527,124.02139Z" fill="#f9bea0"/>
        <path d="M81.06626,127.12144c6.56219-1.55709,13.13846,2.86625,14.89523,9.18766a12.58391,12.58391,0,0,1-3.68687,11.71109,9.8969,9.8969,0,0,1-6.14481,2.43736,10.24148,10.24148,0,0,1-9.24612-3.29066,10.42985,10.42985,0,0,1-1.12813-1.611,14.67348,14.67348,0,0,1-1.18278-1.5661C70.56228,137.85588,73.84656,128.83515,81.06626,127.12144Z" fill="#f9bea0"/>
      </g>
      <g>
        <g>
          <path d="M332.13865,18.33915c-2.8882-3.6797-8.9433-3.6446-13.1025-3.4717-5.1362.2139-10.3394-.2617-14.0977,3.8955a5.39049,5.39049,0,0,0,5.2056,8.9424,51.31069,51.31069,0,0,1,8.8921-.9365c1.3349-.0518,2.6538-.0733,3.9863-.0167-.6362,2.2413-2.977,4.4668-4.83789,5.628q-4.97461,3.0996-9.97311,6.1943a59.287,59.287,0,0,1-9.6641,4.5313c-3.9126,1.4775-7.4692,3.8056-11.2944,5.4931-7.4531,3.2891-14.5186,7.3975-21.9243,10.792a103.94977,103.94977,0,0,1-22.4844,7.2715c-7.0664,1.4512-13.7153,3.9619-20.9815,4.3076a20.63413,20.63413,0,0,1-9.1298-1.3008c-2.3848-1.039-3.8521-1.1728-2.6729-3.539a26.39289,26.39289,0,0,1,4.8774-6.2461c2.2559-2.3477,4.4605-5.6133,7.0606-7.5244,2.1572-1.586,2.4316-4.6397,0-6.1748-7.3281-4.627-16.7793,7.25-20.6216,12.4746a15.59835,15.59835,0,0,0-3.19041,11.3457c.686,4.8056,4.66161,7.6299,8.668,9.7226,8.6274,4.5059,19.1552,3.0498,28.2597,1.086a190.20787,190.20787,0,0,0,32.041-9.4278c10.1875-4.1718,20.3052-9.3027,30.085-14.3486,2.23881-1.1543,4.8408-2.1543,6.9687-3.4619,2.4117-1.4815,5.0572-2.0381,7.5166-3.3408,4.6163-2.4434,9.065-5.458,13.4947-8.2207C333.00535,37.15945,338.36815,26.27275,332.13865,18.33915Z" fill="#4674ab"/>
          <g>
            <path d="M307.11035,32.56865a28.90934,28.90934,0,0,0-4.4956-12.2051c-4.4756-7.4365-13.55619-11.3799-21.6235-13.4102-4.5201-1.1387-9.1792-.9892-13.7911-1.2461a47.24716,47.24716,0,0,0-14.4165,1.1719c-9.0122,2.2324-17.1201,6.7754-22.5293,14.4316a44.017,44.017,0,0,0-7.5459,29.0401c.7081,5.9971,2.5415,15.0547,9.2295,16.3535a5.876,5.876,0,0,0,6.3003.248c3.9004-2.3164,8.7881-3.1015,13.0279-4.7392,5.2631-2.0332,10.645-3.6875,15.8935-5.7861,5.2163-2.085,10.5147-3.8555,15.7974-5.7618,5.2744-1.9033,10.1474-4.6494,15.1113-7.2431C301.811,41.46605,307.54985,37.54905,307.11035,32.56865Z" fill="#66c7ab"/>
            <path d="M299.35795,57.219c-4.3218-.9941-7.7662,1.4151-11.2691,3.5948-1.9414,1.208-3.5449,2.8213-5.5166,4.0185a76.778,76.778,0,0,1-7.4004,3.7881,121.12022,121.12022,0,0,1-11.997,5.0635,8.23287,8.23287,0,0,0-4.9297,1.416c-4.5957.9287-9.898.0225-14.0562,1.833l.0777.0996a3.67863,3.67863,0,0,0-1.4244,5.0362c2.1553,4.5634,9.1538,4.1152,13.417,3.9423a33.60907,33.60907,0,0,0,6.4356-.9277,40.11191,40.11191,0,0,0,7.2339-.2451c4.8574-.3985,9.6167-2.1231,14.0952-3.958,4.082-1.6729,8.8979-3.2149,12.5781-5.6299,3.3071-2.1689,5.9736-7.3154,6.6787-11.1221C303.81935,61.22485,302.52495,57.94655,299.35795,57.219Z" fill="#66c7ab"/>
          </g>
          <path d="M238.27685,50.12625a6.92545,6.92545,0,0,0-10.6509,1.084c-2.3017,2.0683-2.2397,5.9296-.6533,8.3759a6.51627,6.51627,0,0,0,1.7061,2.3828,7.40773,7.40773,0,0,0,4.8559,1.9395,7.21393,7.21393,0,0,0,4.8071-1.9766,7.93067,7.93067,0,0,0,2.0972-3.4902A8.25913,8.25913,0,0,0,238.27685,50.12625Z" fill="#f29089"/>
          <path d="M297.68015,37.48855a7.64694,7.64694,0,0,0-.9214-3.544,6.22377,6.22377,0,0,0-3.7163-2.9179,6.642,6.642,0,0,0-5.4326.833,9.27139,9.27139,0,0,0-3.0356,3.0947,6.01887,6.01887,0,0,0-.7837,1.9131,9.18267,9.18267,0,0,0-.208,1.7324,6.37029,6.37029,0,0,0,.8286,3.0479,5.88855,5.88855,0,0,0,2.3745,2.33,7.92538,7.92538,0,0,0,1.6553.6524,7.26963,7.26963,0,0,0,3.3833-.0254,7.73714,7.73714,0,0,0,3.5561-2.0576,6.1625,6.1625,0,0,0,1.2822-1.7637A5.39585,5.39585,0,0,0,297.68015,37.48855Z" fill="#f29089"/>
        </g>
        <g>
          <path d="M341.22365,21.69065a19.75893,19.75893,0,0,0-4.3316-6.1904,21.5271,21.5271,0,0,0-7.54149-3.9375c-4.83881-1.7031-10.83741-1.3125-15.83051-.4346-3.083.542-5.937,1.9492-9.086,2.1992a2.48882,2.48882,0,0,0-2.0464,1.2452,25.689,25.689,0,0,0-1.812-2.2149,31.75775,31.75775,0,0,0-3.0185-2.7129,36.85088,36.85088,0,0,0-3.7681-3.1875c-9.3223-5.7724-20.4536-6.7998-31.1518-6.3711a53.90154,53.90154,0,0,0-15.7339,2.5596c-5.2744,1.8506-9.6265,5.3594-13.4956,9.3106-4.083,4.1669-7.003,8.9042-9.9742,13.8789a28.74872,28.74872,0,0,0-3.2207,7.3574c-.249.9179-.5058,1.8428-.7578,2.7715a2.24268,2.24268,0,0,0-.226.4336,17.32489,17.32489,0,0,0-.8912,4.1054c-.0463.2227-.0937.4444-.1372.666a10.00965,10.00965,0,0,0-1.1914.5176c-1.0195.5586-1.9526,1.251-2.9721,1.8106-1.0523.5771-1.9502,1.6543-2.9703,2.334-.977.6503-1.9804,1.2597-2.9536,1.9169-3.1621,2.1368-7.0097,4.7002-8.74661,8.2784a42.6555,42.6555,0,0,0-3.2807,3.999,21.28875,21.28875,0,0,0-4.3198,10.0732c-.418,3.9063,1.14941,7.2647,3.7978,10.0557,3.3975,3.5801,8.87841,4.8809,13.58791,5.4277a75.51174,75.51174,0,0,0,15.4507.086,86.7794,86.7794,0,0,0,13.6016-2.4727,1.96284,1.96284,0,0,0,.9199,1.3506c-1.0171-.6465.5898.6553.709.7256q.9945.3999.1499.0928a3.81587,3.81587,0,0,0,.6108.583,18.54476,18.54476,0,0,0,4.3506,2.2148,29.61676,29.61676,0,0,0,10.7627,3.0049c3.8725.1592,7.81-.2217,11.6924-.2207,4.0371.001,7.788-1.5977,11.5644-2.8555,1.6118-.5361,3.0176-1.4297,4.6602-1.9297a25.54079,25.54079,0,0,0,5.123-1.9541,62.20228,62.20228,0,0,0,9.7808-6.7881,26.75,26.75,0,0,0,6.3149-7.5253c1.0489-1.8819,3.34181-4.0313,3.9053-6.3086.2773-.1065.5537-.2139.8311-.3194a16.35447,16.35447,0,0,0,1.998-6.0664c4.5493-2.6113,8.7017-6.1172,12.8735-9.2168a72.94911,72.94911,0,0,0,13.9615-12.8232C341.47315,31.30885,343.30955,26.40745,341.22365,21.69065Zm-118.1514,22.0742c.1192-1.04.1675-2.1279.2129-3.2099.2339-.8858.4863-1.7705.7227-2.667.7993-3.0264,1.4365-5.8711,3.0478-8.5908,1.3745-2.3194,2.8164-4.5987,4.1978-6.9141a39.8784,39.8784,0,0,1,5.7329-6.9834,30.26,30.26,0,0,1,13.7178-8.6709c5.1074-1.4326,10.5063-1.542,15.7744-1.6396a53.32992,53.32992,0,0,1,15.9946,2.0859,36.47914,36.47914,0,0,1,7.2075,2.9756c2.4404,1.3213,4.7183,3.6367,6.7197,5.5566a12.28049,12.28049,0,0,1,1.3804,1.6035,59.73458,59.73458,0,0,1,5.2417,6.4082,15.93205,15.93205,0,0,0,.7359,3.3643c.5478,1.6318.6635,3.2939,1.2036,4.9189a26.80191,26.80191,0,0,1,1.6762,7.4268,24.01081,24.01081,0,0,1-6.0649,3.0693c-2.6538.96-5.0342,2.6221-7.604,3.794-5.7686,2.6318-11.5108,5.3769-17.2451,8.1064-2.7442,1.3057-5.4009,2.7412-8.2373,3.8418-2.9029,1.126-5.8775,2.0528-8.8672,2.9121-5.7813,1.6612-11.6802,2.8418-17.4834,4.4131a87.55569,87.55569,0,0,1-10.8506,2.2217,1.04037,1.04037,0,0,0-.0874-.0869c-.0234-.0195-.0415-.0322-.0606-.0469-.0297-.0566-.0659-.1221-.1171-.2099a3.81558,3.81558,0,0,0-.9893-.877,12.81267,12.81267,0,0,1-1.8721-2.0596c-.1621-.2129-.5258-.7129-.914-1.3086a11.25715,11.25715,0,0,0-1.0303-3.538,1.55827,1.55827,0,0,0-.7358-2.0313A34.65806,34.65806,0,0,1,223.07225,43.76485Zm-3.9687,14.1026q.28485.9873.625,1.958a19.511,19.511,0,0,0,1.4355,3.2988,23.56546,23.56546,0,0,0,3.0239,5.2481c-3.3813.1523-9.2666-.0371-10.3081-3.6465-.5107-1.7686.8487-3.3799,2.1221-4.71.4956-.3603.981-.6933,1.4028-1.001C217.94975,58.61845,218.524,58.24145,219.10355,57.86745Zm84.29,4.3056A48.42766,48.42766,0,0,0,300.1,67.12135a22.62007,22.62007,0,0,1-5.934,6.8164,55.615,55.615,0,0,1-8.1866,5.5342,20.944,20.944,0,0,1-4.436,1.5947c-1.6426.502-3.0933,1.4277-4.7065,1.9658-3.0562,1.0196-6.1778,2.4405-9.4375,2.4405-3.6597.0009-7.2842.1972-10.938.2978-3.2583.0898-6.5445-1.1074-9.5303-2.3809-.6689-.2861-1.3237-.581-1.9731-.9101a2.30509,2.30509,0,0,0-.6524-.1983c-.2178-.1943-.4346-.3886-.6484-.5869,4.9648-1.4521,9.8857-3.0791,14.8169-4.5429,5.6948-1.6885,11.1845-3.9375,16.7729-5.9287,2.8384-1.0118,5.874-1.5938,8.7456-2.544,2.9737-.9834,5.898-2.1201,8.7681-3.3721,3.6357-1.5849,7.3574-2.9765,11.0283-4.4814C303.65675,61.27565,303.52245,61.723,303.39355,62.17305Zm33.47609-35.6455c-.3447,2.6202-2.0493,4.8038-3.7002,6.7481-4.1455,4.8838-9.3443,8.7471-14.4868,12.5029-2.4883,1.8184-4.9864,3.6231-7.4307,5.501a36.17329,36.17329,0,0,1-8.2998,4.331c-5.3892,2.2217-10.7725,4.544-16.20359,6.6514-5.6582,2.1963-11.5742,3.5264-17.2422,5.6729-5.7109,2.1631-11.4946,3.9824-17.2852,5.9082-2.3076.7666-4.6088,1.5468-6.936,2.25-2.6133.79-5.3047,1.248-7.9145,2.0205a70.98975,70.98975,0,0,1-13.5201,2.6465,79.56812,79.56812,0,0,1-12.9985.0634c-3.9365-.2783-8.4272-1.1806-11.51861-3.788-5.0517-4.2618-2.2666-10.5928,1.04251-14.9874a42.277,42.277,0,0,1,3.375-3.958,32.09184,32.09184,0,0,1,5.9502-6.8144c.607-.3535,1.2188-.6973,1.8233-1.0537,1.9599-1.1582,3.6684-2.6455,5.602-3.8135.3101-.1875.5425-.3359.749-.4648a49.9788,49.9788,0,0,0,.146,6.2255c.0249.3077.0572.6143.0938.9209a29.8672,29.8672,0,0,0-4.4444,3.8955c-1.6792,1.8204-3.2348,3.5762-3.3774,6.044-.2715.3037-.5381.6094-.7944.9238a7.97731,7.97731,0,0,0,4.3735,7.0733c3.9483,2.2509,9.6377,2.2314,14.0117,1.6972.6436-.0781,1.2857-.164,1.9258-.2509a6.03162,6.03162,0,0,0,.9263.1328,1.57008,1.57008,0,0,0,1.2822-.4551c4.2109-.6514,8.3623-1.4922,12.5342-2.4727,5.8437-1.373,11.7168-2.6347,17.4775-4.3359a117.35493,117.35493,0,0,0,16.9483-6.9561c5.7304-2.7099,11.4638-5.4228,17.2334-8.038,2.4389-1.1055,4.6523-2.5508,7.1709-3.4776a25.29435,25.29435,0,0,0,6.1474-3.0996,1.83629,1.83629,0,0,0,.73-.5654c.3555-.2871.7036-.5869,1.0381-.9102,2.42821-2.3486,5.8535-3.2744,7.93021-6.0683a10.33614,10.33614,0,0,0,1.396-9.6016c-1.22761-3.4385-4.232-4.915-7.71541-4.9492-1.5009-.0156-2.93359.4814-4.415.5742a6.07007,6.07007,0,0,0-.9038.1357,18.88428,18.88428,0,0,0-2.21-3.6689c-.0884-.1123-.1723-.2285-.25879-.3418a27.713,27.713,0,0,0,6.83009-1.4082,32.92452,32.92452,0,0,1,8.0073-1.1094,20.23634,20.23634,0,0,1,7.53861.6319c2.41939.7724,5.34909,1.8662,6.84719,4.0429C335.53615,22.264,337.16015,24.32445,336.86965,26.52755Zm-25.58109,8.2422c-.69431-2.4404-1.23241-4.9765-1.93061-7.4453,1.7334-.168,4.8071-1.4394,6.0551.2891a5.01221,5.01221,0,0,1-.5839,5.9326,13.965,13.965,0,0,1-3.4751,2.5986A2.75844,2.75844,0,0,0,311.28855,34.76975Z" fill="#463131"/>
          <path d="M242.47115,42.86055a2.361,2.361,0,0,0-.6875-1.6611,2.30138,2.30138,0,0,0-1.2026-.6328,2.67326,2.67326,0,0,0-1.7539-.1367,2.60844,2.60844,0,0,0-1.1582.6758q-.205.265-.4106.5312a2.61219,2.61219,0,0,0-.3584,1.3252c-.0186.1641-.0381.3301-.0572.4961a2.56169,2.56169,0,0,0,.7857,1.8955c.1811.1397.3623.2803.5424.4199a2.68211,2.68211,0,0,0,1.3545.3662.10709.10709,0,0,0,.0254.001,2.65952,2.65952,0,0,0,1.354-.3662,2.49629,2.49629,0,0,0,.5503-.4365,2.3292,2.3292,0,0,0,.979-1.8799c0-.0459-.0058-.0898-.0092-.1357A2.28485,2.28485,0,0,0,242.47115,42.86055Z" fill="#463131"/>
          <path d="M282.08985,31.52365a2.75649,2.75649,0,0,0-.7573-1.8281,2.58527,2.58527,0,0,0-3.6573,0,2.75843,2.75843,0,0,0-.7568,1.8281l-.081.8252a4.23826,4.23826,0,0,0,.2373,1.4961,2.52028,2.52028,0,0,0,4.8588,0,8.89669,8.89669,0,0,0,.25-1.3574A4.96611,4.96611,0,0,0,282.08985,31.52365Z" fill="#463131"/>
          <path d="M270.05905,42.86745c-2.02-.583-3.4966,2.4941-4.3764,3.7988a5.41858,5.41858,0,0,1-4.0635,2.7402c-1.459.1563-3.7368.0147-4.2329-1.6582a1.81655,1.81655,0,0,0-3.5005.9649c.8662,3.5791,4.8008,4.959,8.146,4.6377,4.2607-.4112,6.5806-3.4893,8.6221-6.9307C271.35255,45.24245,271.74905,43.35475,270.05905,42.86745Z" fill="#463131"/>
        </g>
      </g>
    </g>
  </g>
</svg>
