<svg xmlns="http://www.w3.org/2000/svg" viewBox="0 0 240.533 233.194"><title>corazon</title><g id="Capa_2" data-name="Capa 2"><g id="Objects"><path d="M204.234,163.023a107.6,107.6,0,0,0,9.58-7.439c29.34-26.064,17.636-68.443-18.917-79.1a51.318,51.318,0,0,0-6.37-1.409c-10.769-2.51-23.928-.613-36.415,4.417a92.42,92.42,0,0,0-18.921,7.922,126.189,126.189,0,0,0-11.146,7.024c-.23-11.11-3.33-22.4-7.337-32.089a85.532,85.532,0,0,0-5.246-10.529c-.088-.308-.148-.626-.23-.93-3.8-13.4-13.357-20.984-25.821-26.383a53.813,53.813,0,0,0-24.853-4.7,25.6,25.6,0,0,0-7.687,1.018c-.691.133-1.368.24-2.063.405C34.6,24.6,27.883,35.555,21.288,47.189c-12.293,21.717-.152,53.4,4.2,75.711A235.431,235.431,0,0,1,30.3,171.917c-.161,13.293-.792,26.921.871,40.159a15.436,15.436,0,0,0,5.288,9.433c3.491,8.7,13.537,15.2,24.365,9.589,13.933-7.222,29.726-10.653,44.686-15.227a345.515,345.515,0,0,0,46.257-17.848C163.389,192.584,195.607,179.692,204.234,163.023Z" fill="#e54654"/><path d="M226.462,169.635c20.388-27.988,19.73-75.96-9.289-97.672-27.931-20.9-65.623-15.757-92.589,3.517a56.183,56.183,0,0,0-.557-12.784c-2.609-15.257-12.1-27.295-21.287-39.263C83.08-2.178,52.365-8.695,27.486,13.426,3.573,34.695-.12,72.291,0,102.086c.132,33.395,6.955,65.624,11.257,98.453-6.008,4.8-5.877,14.713,1.482,20.186C27.749,231.9,49.115,231.153,67.1,230.259c19.739-.983,39.394-4.785,58.659-8.977C162.89,213.195,203.1,201.71,226.462,169.635ZM105.906,194.75a286.906,286.906,0,0,1-42.8,5.359,136.35,136.35,0,0,1-19.739-.961c.513-20.633-9.494-43.442-10.674-62.808-1.548-25.3-3.943-51.112,2.6-75.912a59.931,59.931,0,0,1,16.8-28.273c7.464-7.157,17.678-1.68,24.414,3.5a127.823,127.823,0,0,1,24.58,25.97c8.381,11.81,6.758,24.756,3.811,38.131-2.013,9.144,11.384,12.845,14.046,3.8.469-1.579.939-3.192,1.386-4.828a7.943,7.943,0,0,0,7.385-2.57C148.769,74,191.628,64.683,210.749,94.789c16.577,26.089-2,62.685-25.4,76.749S132.28,189.575,105.906,194.75Z"/></g></g></svg>