<svg xmlns="http://www.w3.org/2000/svg" viewBox="0 0 91.60597 66.82269">
  <title>involucrate_4.1Recurso 2</title>
  <g id="Capa_2" data-name="Capa 2">
    <g id="Editar">
      <g>
        <path d="M61.59371,22.98275l19.309,5.0234c-.0634-.1103-.1357-.2334-.2324-.3887-.7397-1.1806-.6118-1.3769-2.1362-2.0771a81.716,81.716,0,0,0-8.5059-2.7793q-5.84759-1.9248-11.6821-3.8887a6.73309,6.73309,0,0,1,3.2368,3.9551A.33858.33858,0,0,1,61.59371,22.98275Z" fill="#fff"/>
        <path d="M46.77632,30.53645c-.2588-.0117-.5176-.0195-.7744-.0108-4.3443.1563-9.0498,4.836-3.64509,8.0791a9.26845,9.26845,0,0,0,1.38139.6612Q45.19277,34.87875,46.77632,30.53645Z" fill="#fff"/>
        <path d="M57.47451,19.19655a.37539.37539,0,0,1-.0771-.6425c-1.4488-.4883-2.898-.9717-4.3457-1.4619q-2.9847-1.01085-5.9654-2.0362a.28691.28691,0,0,1-.3193.2744,8.99321,8.99321,0,0,0-6.5039,2.1036l20.583,5.3544A6.02111,6.02111,0,0,0,57.47451,19.19655Z" fill="#fff"/>
        <path d="M46.82462,40.96805c-.8721-.3164-1.7822-.5468-2.6484-.8496q-1.23345,3.74565-2.3736,7.5235a14.34085,14.34085,0,0,0,2.7705.9052q.9552-3.26655,1.93171-6.5293C46.60982,41.66725,46.71872,41.31865,46.82462,40.96805Z" fill="#fff"/>
        <path d="M61.56631,39.57065a20.54653,20.54653,0,0,0-2.7612-9.9229c-2.17529-3.5566-5.3628-5.0332-9.503-4.998-4.0546.0351-8.4311.1972-11.8344,2.6494a13.64287,13.64287,0,0,0-5.4385,9.7275c-.6436,6.3535,2.7769,14.4932,9.3437,16.1787.2593.0547.5191.1084.7784.1641a9.95892,9.95892,0,0,0,1.2251.1396.32211.32211,0,0,1,.2783.1778q1.8603.3999,3.7173.8086a.35358.35358,0,0,1,.4135-.2793C56.47791,55.86265,61.82121,47.24345,61.56631,39.57065Zm-6.875-6.7959c-.0561.08-.1128.1601-.1694.2412a.34592.34592,0,0,1-.3833.1562c-.0757-.0283-.1509-.0556-.2266-.084-.40719-.1503-.23-.8066.1812-.6552-1.1285-.416-2.3301-.8584-3.5562-1.2158q-1.39,4.4325-2.74219,8.8759c-.05271.1739-.10351.3477-.15571.5215a5.68593,5.68593,0,0,1,3.67871,3.3906,3.99518,3.99518,0,0,1-2.73241,5.0039,7.37925,7.37925,0,0,1-3.7159.2637c-.4253,1.2656-.7339,2.5586-.3789,3.2363.20221.3868-.3843.7295-.5869.3418-.5967-1.1386.0737-2.2714.417-3.4502.021-.0732.0435-.1455.0649-.2197a14.805,14.805,0,0,1-2.7797-.8916c-.2134.711-.4375,1.419-.6465,2.1309a.33985.33985,0,0,1-.6548-.1807c.2183-.7451.4521-1.4853.6758-2.2285-.7149-.333-1.39359-.6953-2.0093-1.0557a.34017.34017,0,0,1,.3433-.5869c.5581.3281,1.1899.6699,1.8642.9893q1.13895-3.7545,2.3623-7.4815c-2.332-.9482-4.8183-2.7246-4.2949-5.5625.5571-3.0195,4.0483-4.3789,6.7559-4.4668a10.16867,10.16867,0,0,1,1.02.0176c.3418-.9375.6753-1.8769,1.02591-2.8105.15229-.4063.809-.2295.65519.1797-.3374.8984-.6577,1.8027-.9873,2.705a15.74852,15.74852,0,0,1,2.3618.4815c.3257-1.0381.6465-2.0762.9756-3.1123.1319-.416.7881-.2373.6553.1806-.3301,1.0411-.6543,2.083-.9819,3.125.2465.0772.4917.1582.73431.2412,1.00439.3467,2.60749.6192,3.23049,1.5772A.33023.33023,0,0,1,54.69131,32.77475Z" fill="#fff"/>
        <path d="M45.90472,46.41535c-.15089.5107-.4888,1.332-.813,2.2227a6.09,6.09,0,0,0,3.8096-.4942c3.16551-1.6748,1.6172-5.2764-.79249-6.6074-.21141-.1172-.43021-.2188-.65141-.3154Q46.67517,43.81665,45.90472,46.41535Z" fill="#fff"/>
        <path d="M89.48671,31.31965a1.16557,1.16557,0,0,1,.1485-.3399q-1.06215-.27675-2.1246-.5527l-.0009.001a.35993.35993,0,0,1-.6455-.169q-2.3409-.6093-4.6817-1.2177a.30545.30545,0,0,1-.5259.1025c-.0957-.1162-.1694-.2119-.2353-.3008q-23.2881-6.0585-46.5747-12.1162-6.8379-1.77975-13.6753-3.5576a19.17757,19.17757,0,0,0-3.2822-.8535c-1.8829-.125-1.9722.0107-2.4502,1.9014q-.8907,3.51855-1.8116,7.0283-3.51915,13.4121-7.4843,26.7002,37.3974,9.00735,74.7949,18.0136,2.52615-8.559,5.0522-17.1171l2.5376-8.5967q.63435-2.1489,1.2686-4.2989.31785-1.0737.6343-2.1494a1.70435,1.70435,0,0,0-.2886-2.2968C90.03851,31.92515,89.38321,31.74445,89.48671,31.31965Zm-3.0737,7.3555q-2.73195,9.44235-5.4634,18.8867a.35343.35343,0,0,1-.3159.5967,5.35661,5.35661,0,0,0-5.9688,3.292c-.1494.3847-.7456.2392-.6645-.128q-15.97635-3.8862-32.05859-7.3037c-.186-.0351-.37061-.0732-.55221-.1172q-13.7418-2.918-27.5523-5.5039a.284.284,0,0,1-.2339-.3613.32574.32574,0,0,1-.0952-.3096,5.55373,5.55373,0,0,0-3.3061-6.2217.36222.36222,0,0,1-.0157-.663.34145.34145,0,0,1,.0225-.2061c2.9697-6.4863,5.854-13.0576,6.0976-20.2949a.16473.16473,0,0,1,.0059-.0235c-.1123-.0468-.2246-.0869-.3354-.1425-.3912-.1973-.0464-.7832.3427-.587a3.58329,3.58329,0,0,0,5.2476-3.4541c-.02049-.3701.45951-.4218.623-.1669a.329.329,0,0,1,.4073-.2442q29.56485,7.4604,59.1289,14.9219a.34009.34009,0,0,1-.18069.6553q-29.56426-7.4619-59.12891-14.9219a.30849.30849,0,0,1-.1709-.1133,4.23554,4.23554,0,0,1-5.271,4.2715c-.2925,7.2773-3.1875,13.9092-6.1787,20.4433a.305.305,0,0,1-.0337.045,6.23541,6.23541,0,0,1,3.4224,6.75q12.02775,2.247,24.0024,4.7568c-3.97359-2.5225-6.3647-7.5088-6.8232-12.1914-.6221-6.3584,2.5683-13.0312,8.8339-15.2471a26.25658,26.25658,0,0,1,12.1031-.9629,9.91489,9.91489,0,0,1,6.1977,3.877c6.5337,8.4619,4.2041,27.0869-8.2295,27.1211q12.03075,2.65275,24.00441,5.5615a6.042,6.042,0,0,1,6.00779-3.2646q2.7357-9.46,5.47221-18.918a6.0508,6.0508,0,0,1-3.71731-7.4873c.13631-.4141.7925-.2354.65531.1807a5.36362,5.36362,0,0,0,3.78079,6.8144A.33881.33881,0,0,1,86.413,38.67515Zm-6.8633-4.9893c.0342-.4336.7134-.4355.6797,0a5.251,5.251,0,0,0,1.6108,4.2822c.3145.3047-.1665.7852-.4809.4805A5.92033,5.92033,0,0,1,79.54971,33.68585Zm1.2832,6.8408a5.36507,5.36507,0,0,1-2.4419-4.2929c-.0205-.4375.6592-.4346.6792,0a4.64912,4.64912,0,0,0,2.1055,3.706C81.53991,40.18,81.19911,40.76785,80.83291,40.52665Zm-15.3135,3.0655a9.41658,9.41658,0,0,1-.833,3.3183c-.18059.3975-.7661.0518-.5869-.3428a8.46576,8.46576,0,0,0,.7402-2.9755C64.86811,43.15755,65.54782,43.15555,65.51941,43.59215Zm-2.72359.29c-.04791-.4346.63229-.4297.67919,0a6.11224,6.11224,0,0,1-1.6279,4.875c-.2979.3223-.7769-.1592-.4805-.4795A5.45153,5.45153,0,0,0,62.79582,43.88215ZM31.72452,27.99245c-.3013.3184-.7812-.163-.4809-.4804a11.14408,11.14408,0,0,1,3.7387-2.6123c.398-.1709.7442.414.3428.5859A10.70166,10.70166,0,0,0,31.72452,27.99245Zm3.3076.0225a5.94008,5.94008,0,0,0-2.6552,2.9356c-.16609.3984-.8228.2226-.6553-.1807a6.6802,6.6802,0,0,1,2.9678-3.3418C35.07312,27.21715,35.41542,27.80405,35.03212,28.015Zm-13.0908,20.0371c.4302.0772.2471.7324-.1807.6543a32.90933,32.90933,0,0,1-5.1142-1.3545c-.4102-.1445-.2324-.8008.1807-.6553A32.92421,32.92421,0,0,0,21.94132,48.05205Zm-2.8559-27.0332a2.78554,2.78554,0,0,0,2.79441-1.3476.3398.3398,0,0,1,.58639.3427,3.48662,3.48662,0,0,1-3.562,1.6592C18.47262,21.60775,18.65712,20.95345,19.08542,21.01885Zm.4277,25.6436a.33957.33957,0,0,1,.1806-.6543q1.8318.4584,3.6636.917a.34.34,0,0,1-.1802.6552Q21.34472,47.122,19.51312,46.66245Zm1.9971-23.8721c-.3946.1836-.7388-.4023-.3428-.5859a5.48269,5.48269,0,0,0,2.8589-3.0567c.1523-.4062.8086-.2285.6552.1817A6.14962,6.14962,0,0,1,21.51022,22.79035Z" fill="#fff"/>
        <path d="M7.14252,42.09015c.2192-.7559.4306-1.5137.6479-2.2705a.35425.35425,0,0,1-.0586-.1201,6.44988,6.44988,0,0,0-2.8349-3.9024.31954.31954,0,0,1-.1485-.207.288.288,0,0,1-.1494-.3662q4.084-12.27255,8.169-24.543a.35309.35309,0,0,1,.5615-.1513.29515.29515,0,0,1,.3247-.3038,4.88513,4.88513,0,0,0,5.1079-4.832.30692.30692,0,0,1,.2725-.3174c-.0591-.2334.1089-.5175.396-.415q30.54345,10.92765,61.4131,20.9131a.35041.35041,0,0,1,.249.3271q.4512,1.19535.9033,2.3887l5.2505,1.3662c.6567-.873,1.6709-2.2988,1.3984-3.0723-.4096-1.166-2.8784-1.4961-3.8823-1.8418l-7.4614-2.5683q-7.46115-2.56785-14.9229-5.1377-14.9223-5.1357-29.8452-10.2734l-14.9224-5.1368L15.47892.892a3.99972,3.99972,0,0,0-2.4868,2.9531c-.4331,1-.7329,2.1289-1.0874,3.1592q-1.26855,3.6855-2.5371,7.3701-2.628,7.6347-5.2554,15.2676-1.26855,3.6855-2.5371,7.3711l-.5439,1.5791a1.48545,1.48545,0,0,0,1.3515,1.5869c1.2363.9677,3.2593,1.3799,4.7515,1.9062Z" fill="#fff"/>
        <path d="M44.37492,39.50325c.8584.3017,1.7612.5635,2.6304.8721q1.4142-4.6773,2.8789-9.3389a16.2335,16.2335,0,0,0-2.4068-.4453Q45.86612,35.02665,44.37492,39.50325Z" fill="#fff"/>
        <path d="M13.65422,10.90465a.33036.33036,0,0,1-.2241-.1026.35076.35076,0,0,1-.0069.0606q-4.05975,12.1962-8.1196,24.3925a7.14475,7.14475,0,0,1,2.8101,3.4327q3.8943-13.62015,7.3501-27.3594a.34613.34613,0,0,1,.4184-.2373l23.6006,6.1396a.32625.32625,0,0,1,.06639-.0888,9.70063,9.70063,0,0,1,6.2993-2.5079q-13.234-4.538-26.40869-9.25l.002.0059A5.56951,5.56951,0,0,1,13.65422,10.90465Z" fill="#fff"/>
        <path d="M90.39541,30.50325a.33332.33332,0,0,0-.12159-.0596l-2.34861-.6103a9.94387,9.94387,0,0,0,1.5185-3.8604.3504.3504,0,0,0-.2368-.418q-30.64455-10.5483-61.2895-21.0986-3.99689-1.3755-7.9942-2.7519c-1.4956-.5147-4.1347-2.1534-5.7192-1.587-.6992.25-.8281.8428-1.1426,1.4415-1.1552,2.2001-1.7309,5.0283-2.5371,7.3701L.01362,39.46415a.342.342,0,0,0,.1557.3838,57.58147,57.58147,0,0,0,6.7842,2.8916c-.4897,1.6826-.9726,3.3672-1.4722,5.0469-.0112-.002-.0214-.0049-.0322-.0078-.4253-.1016-.6064.5527-.1811.6553q38.15625,9.18885,76.3115,18.3779c.4248.1025.6059-.5528.1807-.6553l-.1607-.0381q3.8709-13.11465,7.7422-26.2304c.6333-2.1446,1.3325-4.2852,1.9028-6.4473.1797-.6797.6734-1.8682.0718-2.5508A1.07117,1.07117,0,0,0,90.39541,30.50325Zm-88.0127,9.6758a1.48545,1.48545,0,0,1-1.3515-1.5869l.5439-1.5791q1.26856-3.68565,2.5371-7.3711,2.62725-7.63335,5.2554-15.2676,1.26855-3.68415,2.5371-7.3701c.3545-1.0303.6543-2.1592,1.0874-3.1592A3.99972,3.99972,0,0,1,15.47892.892l2.1318.7343,14.9224,5.1368q14.92306,5.1372,29.8452,10.2734,7.46115,2.56935,14.9229,5.1377l7.4614,2.5683c1.0039.3457,3.4727.6758,3.8823,1.8418.2725.7735-.7417,2.1993-1.3984,3.0723l-5.2505-1.3662q-.45195-1.19385-.9033-2.3887a.35041.35041,0,0,0-.249-.3271q-30.8658-9.98445-61.4131-20.9131c-.2871-.1025-.4551.1816-.396.415a.30692.30692,0,0,0-.2725.3174,4.88513,4.88513,0,0,1-5.1079,4.832.29515.29515,0,0,0-.3247.3038.35309.35309,0,0,0-.5615.1513Q8.68322,22.9535,4.599,35.224a.288.288,0,0,0,.1494.3662.31954.31954,0,0,0,.1485.207,6.44988,6.44988,0,0,1,2.8349,3.9024.35425.35425,0,0,0,.0586.1201c-.2173.7568-.4287,1.5146-.6479,2.2705l-.0083-.0049C5.642,41.559,3.619,41.14675,2.38272,40.17905Zm17.0571-34.795q13.17419,4.71105,26.40869,9.25a9.70063,9.70063,0,0,0-6.2993,2.5079.32625.32625,0,0,0-.06639.0888l-23.6006-6.1396a.34613.34613,0,0,0-.4184.2373q-3.43876,13.74315-7.3501,27.3594a7.14475,7.14475,0,0,0-2.8101-3.4327q4.0599-12.1962,8.1196-24.3925a.35076.35076,0,0,0,.0069-.0606.33036.33036,0,0,0,.2241.1026,5.56876,5.56876,0,0,0,5.7876-5.5108ZM46.767,15.33035a.28691.28691,0,0,0,.3193-.2744q2.9817,1.02105,5.9654,2.0362c1.4477.4902,2.8969.9736,4.3457,1.4619a.37539.37539,0,0,0,.0771.6425,6.02111,6.02111,0,0,1,3.3716,3.5918l-20.583-5.3544A8.99321,8.99321,0,0,1,46.767,15.33035Zm11.5791,3.542q5.8359,1.96,11.6821,3.8887a81.716,81.716,0,0,1,8.5059,2.7793c1.5244.7002,1.3965.8965,2.1362,2.0771.0967.1553.169.2784.2324.3887l-19.309-5.0234a.33858.33858,0,0,0-.0108-.1553A6.73309,6.73309,0,0,0,58.34611,18.87235Zm32.0845,14.9248q-.31725,1.0752-.6343,2.1494-.6336,2.1504-1.2686,4.2989l-2.5376,8.5967q-2.526,8.559-5.0522,17.1171Q43.54037,56.95205,6.143,47.94565q3.9558-13.2891,7.4843-26.7002.92145-3.50985,1.8116-7.0283c.478-1.8907.5673-2.0264,2.4502-1.9014a19.17757,19.17757,0,0,1,3.2822.8535q6.83715,1.77825,13.6753,3.5576Q58.134,22.784,81.42131,28.84305c.0659.0889.1396.1846.2353.3008a.30545.30545,0,0,0,.5259-.1025q2.3409.6078,4.6817,1.2177a.35993.35993,0,0,0,.6455.169l.0009-.001q1.06215.2769,2.1246.5527a1.16557,1.16557,0,0,0-.1485.3399c-.1035.4248.5518.6055.6553.1807A1.70435,1.70435,0,0,1,90.43061,33.79715Z"/>
        <path d="M86.47261,38.015a5.36362,5.36362,0,0,1-3.78079-6.8144c.13719-.4161-.519-.5948-.65531-.1807a6.0508,6.0508,0,0,0,3.71731,7.4873q-2.73631,9.45855-5.47221,18.918a6.042,6.042,0,0,0-6.00779,3.2646q-11.97211-2.9136-24.00441-5.5615c12.4336-.0342,14.7632-18.6592,8.2295-27.1211a9.91489,9.91489,0,0,0-6.1977-3.877,26.25658,26.25658,0,0,0-12.1031.9629c-6.2656,2.2159-9.456,8.8887-8.8339,15.2471.4585,4.6826,2.84961,9.6689,6.8232,12.1914q-11.9751-2.50485-24.0024-4.7568a6.23541,6.23541,0,0,0-3.4224-6.75.305.305,0,0,0,.0337-.045c2.9912-6.5341,5.8862-13.166,6.1787-20.4433a4.23554,4.23554,0,0,0,5.271-4.2715.30849.30849,0,0,0,.1709.1133q29.565,7.4604,59.12891,14.9219a.34009.34009,0,0,0,.18069-.6553q-29.56425-7.4604-59.1289-14.9219a.329.329,0,0,0-.4073.2442c-.16349-.2549-.64349-.2032-.623.1669a3.58329,3.58329,0,0,1-5.2476,3.4541c-.3891-.1962-.7339.3897-.3427.587.1108.0556.2231.0957.3354.1425a.16473.16473,0,0,0-.0059.0235c-.2436,7.2373-3.1279,13.8086-6.0976,20.2949a.34145.34145,0,0,0-.0225.2061.36222.36222,0,0,0,.0157.663,5.55373,5.55373,0,0,1,3.3061,6.2217.32574.32574,0,0,0,.0952.3096.284.284,0,0,0,.2339.3613q13.81126,2.57955,27.5523,5.5039c.1816.044.36621.0821.55221.1172q16.08029,3.422,32.05859,7.3037c-.0811.3672.5151.5127.6645.128a5.35661,5.35661,0,0,1,5.9688-3.292.35343.35343,0,0,0,.3159-.5967q2.7312-9.44385,5.4634-18.8867A.33881.33881,0,0,0,86.47261,38.015Zm-38.6871,16.2012a.35358.35358,0,0,0-.4135.2793q-1.8582-.40575-3.7173-.8086a.32211.32211,0,0,0-.2783-.1778,9.95892,9.95892,0,0,1-1.2251-.1396c-.2593-.0557-.5191-.1094-.7784-.1641-6.5668-1.6855-9.9873-9.8252-9.3437-16.1787a13.64287,13.64287,0,0,1,5.4385-9.7275c3.4033-2.4522,7.7798-2.6143,11.8344-2.6494,4.1402-.0352,7.32771,1.4414,9.503,4.998a20.54653,20.54653,0,0,1,2.7612,9.9229C61.82121,47.24345,56.47791,55.86265,47.78552,54.21615Z"/>
        <path d="M51.46082,30.85475c-.24261-.083-.48781-.164-.73431-.2412.3276-1.042.6518-2.0839.9819-3.125.1328-.4179-.5234-.5966-.6553-.1806-.3291,1.0361-.6499,2.0742-.9756,3.1123a15.74852,15.74852,0,0,0-2.3618-.4815c.3296-.9023.6499-1.8066.9873-2.705.15381-.4092-.5029-.586-.65519-.1797-.35061.9336-.68411,1.873-1.02591,2.8105a10.16867,10.16867,0,0,0-1.02-.0176c-2.7076.0879-6.1988,1.4473-6.7559,4.4668-.5234,2.8379,1.9629,4.6143,4.2949,5.5625q-1.22745,3.7251-2.3623,7.4815c-.6743-.3194-1.3061-.6612-1.8642-.9893a.34017.34017,0,0,0-.3433.5869c.61571.3604,1.2944.7227,2.0093,1.0557-.2237.7432-.4575,1.4834-.6758,2.2285a.33985.33985,0,0,0,.6548.1807c.209-.7119.4331-1.4199.6465-2.1309a14.805,14.805,0,0,0,2.7797.8916c-.0214.0742-.0439.1465-.0649.2197-.3433,1.1788-1.0137,2.3116-.417,3.4502.2026.3877.78911.045.5869-.3418-.355-.6777-.0464-1.9707.3789-3.2363a7.37925,7.37925,0,0,0,3.7159-.2637,3.99518,3.99518,0,0,0,2.73241-5.0039,5.68593,5.68593,0,0,0-3.67871-3.3906c.0522-.1738.103-.3476.15571-.5215q1.34624-4.4457,2.74219-8.8759c1.2261.3574,2.4277.7998,3.5562,1.2158-.4112-.1514-.58839.5049-.1812.6552.0757.0284.1509.0557.2266.084a.34592.34592,0,0,0,.3833-.1562c.0566-.0811.1133-.1612.1694-.2412a.33023.33023,0,0,0,0-.3428C54.06831,31.474,52.46521,31.20145,51.46082,30.85475Zm-9.104,7.75c-5.40471-3.2431-.69921-7.9228,3.64509-8.0791.2568-.0087.5156-.0009.7744.0108q-1.57695,4.34475-3.0381,8.7295A9.26845,9.26845,0,0,1,42.35682,38.60475Zm2.21629,9.9424a14.34085,14.34085,0,0,1-2.7705-.9052q1.144-3.7764,2.3736-7.5235c.8662.3028,1.7763.5332,2.6484.8496-.1059.3506-.21479.6992-.31979,1.0498Q45.52561,45.2787,44.57312,48.54715Zm3.53571-7.0107c2.40969,1.331,3.958,4.9326.79249,6.6074a6.09,6.09,0,0,1-3.8096.4942c.3242-.8907.66211-1.712.813-2.2227q.76755-2.6001,1.5527-5.1943C47.67862,41.31765,47.89742,41.41925,48.10882,41.53645Zm-1.10351-1.1611c-.8692-.3086-1.772-.5704-2.6304-.8721q1.48395-4.4781,3.1025-8.9121a16.2335,16.2335,0,0,1,2.4068.4453Q48.42232,35.69905,47.00532,40.37535Z"/>
        <path d="M16.64642,47.35185a32.90933,32.90933,0,0,0,5.1142,1.3545c.4278.0781.6109-.5771.1807-.6543a32.92421,32.92421,0,0,1-5.1142-1.3555C16.414,46.55105,16.23622,47.20735,16.64642,47.35185Z"/>
        <path d="M23.35732,46.92515q-1.8318-.45855-3.6636-.917a.33957.33957,0,0,0-.1806.6543q1.8318.4584,3.664.9179A.34.34,0,0,0,23.35732,46.92515Z"/>
        <path d="M34.68942,27.42805a6.6802,6.6802,0,0,0-2.9678,3.3418c-.1675.4033.48921.5791.6553.1807a5.94008,5.94008,0,0,1,2.6552-2.9356C35.41542,27.80405,35.07312,27.21715,34.68942,27.42805Z"/>
        <path d="M34.98232,24.89975a11.14408,11.14408,0,0,0-3.7387,2.6123c-.3003.3174.1796.7988.4809.4804a10.70166,10.70166,0,0,1,3.6006-2.5068C35.72652,25.31375,35.38032,24.72885,34.98232,24.89975Z"/>
        <path d="M61.84711,48.75715a6.11224,6.11224,0,0,0,1.6279-4.875c-.0469-.4297-.7271-.4346-.67919,0a5.45153,5.45153,0,0,1-1.42921,4.3955C61.07021,48.598,61.54921,49.07945,61.84711,48.75715Z"/>
        <path d="M64.83971,43.59215a8.46576,8.46576,0,0,1-.7402,2.9755c-.1792.3946.40631.7403.5869.3428a9.41658,9.41658,0,0,0,.833-3.3183C65.54782,43.15555,64.86811,43.15755,64.83971,43.59215Z"/>
        <path d="M81.84021,37.96805a5.251,5.251,0,0,1-1.6108-4.2822c.0337-.4355-.6455-.4336-.6797,0a5.92033,5.92033,0,0,0,1.8096,4.7627C81.67371,38.75325,82.15471,38.27275,81.84021,37.96805Z"/>
        <path d="M79.07021,36.23375c-.02-.4346-.6997-.4375-.6792,0a5.36507,5.36507,0,0,0,2.4419,4.2929c.3662.2412.707-.3467.3428-.5869A4.64912,4.64912,0,0,1,79.07021,36.23375Z"/>
        <path d="M22.46622,20.014a.3398.3398,0,0,0-.58639-.3427,2.78554,2.78554,0,0,1-2.79441,1.3476c-.4283-.0654-.6128.5889-.1812.6543A3.48662,3.48662,0,0,0,22.46622,20.014Z"/>
        <path d="M24.02632,19.14775a5.48269,5.48269,0,0,1-2.8589,3.0567c-.396.1836-.0518.7695.3428.5859a6.14962,6.14962,0,0,0,3.1713-3.4609C24.83492,18.91925,24.17862,18.74155,24.02632,19.14775Z"/>
      </g>
    </g>
  </g>
</svg>
