<svg xmlns="http://www.w3.org/2000/svg" viewBox="0 0 22.51086 21.2491">
  <title>dineross</title>
  <g id="3023ba0b-6a8f-49c4-b09d-eae2c8700b93" data-name="Capa 2">
    <g id="35f56fc8-eae6-4543-89fc-db051a944373" data-name="Layer 6">
      <g>
        <path d="M8.54595,7.9522a4.30784,4.30784,0,0,0,.9819.0968v.6903a.375.375,0,1,0,.75,0V7.9832c.0095-.0017.0194-.0009.0288-.0027a1.95814,1.95814,0,0,0,.6436-.2402,1.26632,1.26632,0,0,0,.4512-.46,1.4463,1.4463,0,0,0,.1689-.7324,1.386,1.386,0,0,0-.3613-.9815,3.043,3.043,0,0,0-1.1231-.6904,2.88832,2.88832,0,0,1-.7041-.334.51383.51383,0,0,1-.2256-.4365.47908.47908,0,0,1,.2022-.4043,1.30533,1.30533,0,0,1,.7373-.1504,2.6707,2.6707,0,0,1,.54.0567c.1846.0371.3301.0722.4366.1035.0439.0127.0879-.0205.13181-.0987a1.07877,1.07877,0,0,0,.10349-.2724,1.27161,1.27161,0,0,0,.0371-.291c0-.0909-.0215-.1456-.0654-.1651-.0508-.0127-.1035-.0283-.16019-.0469a1.55788,1.55788,0,0,0-.22071-.0517,3.31586,3.31586,0,0,0-.3476-.0371c-.0724-.005-.1815-.0052-.273-.0076V1.9746a.375.375,0,1,0-.75,0v.7939a2.31393,2.31393,0,0,0-.3481.0733,1.70767,1.70767,0,0,0-.5781.291,1.12705,1.12705,0,0,0-.3331.4366,1.35316,1.35316,0,0,0-.1083.5361,1.46822,1.46822,0,0,0,.1132.6006,1.311,1.311,0,0,0,.3096.4375,2.10777,2.10777,0,0,0,.45611.3193,5.23573,5.23573,0,0,0,.54879.249,2.5836,2.5836,0,0,1,.74221.3897.60521.60521,0,0,1,.207.4746.47338.47338,0,0,1-.31441.4697,2.00107,2.00107,0,0,1-.7657.1309,2.75283,2.75283,0,0,1-.7285-.0801c-.19039-.0527-.3682-.1074-.5303-.1641-.0312-.0058-.0644.0284-.0986.1036a1.30832,1.30832,0,0,0-.085.2578,1.88154,1.88154,0,0,0-.0419.2822c-.0069.0908.0029.1484.0283.1738A1.79414,1.79414,0,0,0,8.54595,7.9522Z" fill="#f46819"/>
        <path d="M9.77595,10.7647a5.38235,5.38235,0,1,0-5.3824-5.3828A5.38907,5.38907,0,0,0,9.77595,10.7647Zm0-9.7647a4.38235,4.38235,0,1,1-4.3824,4.3819A4.38749,4.38749,0,0,1,9.77595,1Z" fill="#f46819"/>
        <path d="M22.00345,16.2325c-1.1015-.6045-3.5312-2.003-3.7217-2.1397l-.1089-.1318c-.71969-.877-2.6342-3.211-7.5483-1.5518a6.19685,6.19685,0,0,1-2.5493.375c-.1885-.0205-.3804-.0576-.5669-.0918l-.1401-.0264A24.64865,24.64865,0,0,0,4.46,10.6299a4.90989,4.90989,0,0,0-1.8843-.2676,1.85574,1.85574,0,0,0-1.9004-.1435,1.51588,1.51588,0,0,0-.647.9717,2.34648,2.34648,0,0,0,.4971,1.7461c.1191.1738,2.9599,4.2949,6.7495,6.0957a6.71046,6.71046,0,0,0,3.0957.4941l4.8232-.6729a3.08894,3.08894,0,0,1,1.3789.1602l2.6319,2.0313a.98838.98838,0,0,0,1.4697-.3116l1.7173-3.1679A.98721.98721,0,0,0,22.00345,16.2325ZM4.05965,11.5459a14.56979,14.56979,0,0,1,1.7426,1.1817,2.65673,2.65673,0,0,0-.6183.2809L3.35716,11.3953A2.50209,2.50209,0,0,1,4.05965,11.5459Zm15.7558,8.7071-2.6118-2.0147a2.96413,2.96413,0,0,0-1.7012-.3955,4.17187,4.17187,0,0,0-.4336.0186l-4.8042.6709a5.66712,5.66712,0,0,1-2.56-.4024c-3.5484-1.6865-6.2402-5.5918-6.353-5.7578a1.38711,1.38711,0,0,1-.3409-.9941.50581.50581,0,0,1,.2256-.3311c.1602-.1055.4933.0038.7385.1284L4.645,13.5332a1.15165,1.15165,0,0,0-.1787.5196c-.0478.7431.6064,1.3838,1.7505,1.7138a29.55269,29.55269,0,0,0,6.0547.709h.0083a.5.5,0,0,0,.00831-1,29.12528,29.12528,0,0,1-5.794-.6699c-.79681-.2295-1.03811-.5635-1.03021-.6895.0078-.1201.2783-.4082,1.0644-.5293a3.02858,3.02858,0,0,1,.7964.0879c.21.0391.4263.0791.6392.1035a7.134,7.134,0,0,0,3.0034-.4306c4.23581-1.4287,5.7202.3799,6.4326,1.248l.1201.1455c.2427.2832,3.9649,2.3477,3.9927,2.3477Z" fill="#f46819"/>
      </g>
    </g>
  </g>
</svg>
