<svg xmlns="http://www.w3.org/2000/svg" viewBox="0 0 130.27198 87.25892">
  <title>Recurso 4</title>
  <g id="Capa_2" data-name="Capa 2">
    <g id="Editar">
      <g>
        <g>
          <g>
            <path d="M18.81423,16.05392c-2.2666-.165-5.6036-1.1387-7.7432-.4492-5.5,1.7783-7.2471,8.5215-7.7119,13.3477-.4199,4.3701.1767,7.6513,4.8779,9.5869,3.1651,1.3008,7.9453.4238,10.8047-1.1592-2.0957,4.376-4.124,9.668.2959,13.0615,5.6904,4.3731,11.3994-.9033,13.0938-6.414-1.1377,3.5273,1.9755,5.6738,5.122,5.7812,3.9199.1289,3.0078-2.2686,4.8633-4.9609-1.6338,7.3017,9.666,10.6113,14.9346,9.5429,4.6953-.9482,5.6113-4.8672,7.3398-8.8828.8887-2.0683,3.1475-6.0937-.2705-7.3232,4.9619,4.5537,14.9512-3.834,14.9727-9.6807.0185-5.0849-7.7901-9.6758-11.0723-4.793,2.3711-3.498,3.8916-4.8095,4.2002-9.3642.2725-4.0039-.5859-6.8272-4.0586-9.2725-8.8877-6.2558-17.0488,4.9424-17.4766,13.0244.918-4.2793-.3134-10.1552-4.6445-12.123-2.5635-1.1631-7.2158-.918-9.1768,1.291-1.8701,2.1065-1.3945,5.6572-1.5312,8.3086-2.168-3.957-2.8301-9.7305-8.1455-11.0674-4.8174-1.2119-14.2813,9.7754-9.9443,13.6836" fill="#fff"/>
            <path d="M55.12083,56.03832c-4.0469,0-9.1387-1.5352-12.0088-4.4648a8.57351,8.57351,0,0,1-1.4424-1.9327c-.7041.9541-1.874,1.6924-4.1631,1.6133a7.54066,7.54066,0,0,1-5.6982-2.6562,11.47218,11.47218,0,0,1-5.7197,4.5312,8.05367,8.05367,0,0,1-7.6309-1.541c-4.249-3.2617-3.4785-7.9893-2.1367-11.5947a14.11281,14.11281,0,0,1-8.6348-.1192c-5.7754-2.374-6.1836-6.7187-5.7666-11.0605.4375-4.5371,2.1494-12.4629,8.7061-14.584a10.69123,10.69123,0,0,1,4.5195-.1475,11.22548,11.22548,0,0,1,1.1299-3.0058c2.4189-4.5381,7.7705-8.9278,11.5645-7.9707,3.6777.9248,5.4433,3.582,6.7138,6.3779a6.94483,6.94483,0,0,1,1.5293-3.1758c2.3799-2.6826,7.6953-3.082,10.8565-1.6474a9.53174,9.53174,0,0,1,4.8828,5.539,16.61123,16.61123,0,0,1,7.041-7.3672,9.80038,9.80038,0,0,1,10.4326,1.0606c3.6025,2.5371,4.999,5.6924,4.668,10.5508a13.16464,13.16464,0,0,1-1.5381,5.7461,7.6038,7.6038,0,0,1,1.9541.3408c3.1416.9639,6.4726,4.0879,6.46,7.9785-.0166,4.54-4.6846,9.626-9.0332,11.5273a9.73083,9.73083,0,0,1-4.1153.9014,12.76518,12.76518,0,0,1-1.3847,4.4971c-.1045.2304-.2012.4453-.2862.6435-.2285.5313-.4414,1.0577-.6513,1.5772-1.4278,3.5283-2.9053,7.1758-7.7315,8.1523A12.86978,12.86978,0,0,1,55.12083,56.03832Zm-12.7041-12.6357a1.44571,1.44571,0,0,1,1.4111,1.7607,4.50171,4.50171,0,0,0,1.3487,4.3867c2.7295,2.7852,8.5293,4.1026,11.8877,3.4238,3.1504-.6367,4.1416-2.7392,5.624-6.4033.2178-.5371.4404-1.0859.6767-1.6338.0899-.2119.1954-.4453.3077-.6923.5322-1.1768,1.4189-3.1387,1.0449-4.0792a6.43509,6.43509,0,0,1-1.2744-.916,1.44495,1.44495,0,0,1,1.4668-2.4238,4.47325,4.47325,0,0,1,1.6445.999,5.71809,5.71809,0,0,0,4.0928-.4375c3.8105-1.665,7.291-5.9023,7.3008-8.8886.0078-2.1202-1.9747-4.4551-4.417-5.2041a3.30511,3.30511,0,0,0-3.9893,1.1933l-.0244.0342a1.44528,1.44528,0,0,1-2.3965-1.6162l.0029-.0049h.002c.0088-.0127.0156-.0254.0254-.0381.3926-.5801.7636-1.1006,1.1094-1.5859,1.6699-2.3496,2.5898-3.6416,2.8193-7.0283.2627-3.8702-.6719-6.0362-3.4492-7.9922a6.99226,6.99226,0,0,0-7.5039-.8213c-3.8194,1.8554-6.5782,6.6338-7.4327,10.7617a14.44372,14.44372,0,0,1-.2949,2.2061,1.44527,1.44527,0,0,1-2.8564-.3799,15.93212,15.93212,0,0,1,.2763-2.1875c.1504-3.4883-1.164-7.2207-4.0751-8.543-2.0948-.9502-6.0459-.7012-7.4991.9346-1.1191,1.2607-1.1269,3.4717-1.1328,5.6084-.0029.6299-.0058,1.2422-.0361,1.8125a1.44451,1.44451,0,0,1-2.71.6211,32.45945,32.45945,0,0,1-1.5556-3.4698c-1.2559-3.125-2.4444-6.0771-5.6758-6.8896-2.0635-.5205-6.3399,2.834-8.3096,6.5264a9.12528,9.12528,0,0,0-.8144,2.0771c.3232.044.6289.0791.9091.0986a1.44579,1.44579,0,0,1-.1045,2.8877h-.0019a1.44557,1.44557,0,0,1-2.2373,1.7657,4.65875,4.65875,0,0,1-1.3965-2.2579,9.13355,9.13355,0,0,0-3.665-.0253C6.53,18.593,5.16673,25.26,4.79853,29.091c-.3886,4.0362.1319,6.5244,3.9883,8.1114,2.6904,1.1054,7.0557.2959,9.5557-1.086a1.44521,1.44521,0,0,1,2.0029,1.8887c-2.3935,4.998-3.332,8.8301-.1269,11.29a5.26134,5.26134,0,0,0,4.9912,1.0791c2.4658-.7871,4.789-3.459,5.8086-6.6689.0117-.0401.0244-.0811.0371-.1211a1.44565,1.44565,0,0,1,2.7578.8682c-.0117.0351-.0215.0712-.0332.1054a2.41656,2.41656,0,0,0,.2656,2.2041,4.6039,4.6039,0,0,0,3.5576,1.6016c1.6631.0566,1.7383-.1719,2.2959-1.6445a11.8663,11.8663,0,0,1,1.3281-2.6924A1.44569,1.44569,0,0,1,42.41673,43.40262Z" fill="#005eaa"/>
          </g>
          <g opacity="0.57">
            <path d="M55.12283,57.843c-4.4512,0-10.0137-1.6504-13.3008-5.0049-.1768-.1807-.3448-.3623-.5039-.5479a7.49363,7.49363,0,0,1-3.8721.7696,9.86376,9.86376,0,0,1-5.46-1.7988,12.49986,12.49986,0,0,1-5.3496,3.5878,9.95613,9.95613,0,0,1-9.2802-1.8281c-4.003-3.0722-4.3409-7.1445-3.5928-10.708a14.06411,14.06411,0,0,1-6.7627-.7656c-6.9238-2.8486-7.3125-8.3936-6.8789-12.9063.8271-8.5957,4.3603-14.3242,9.9482-16.1298a10.23586,10.23586,0,0,1,3.7588-.3741,14.17365,14.17365,0,0,1,.8516-1.9111c2.331-4.3721,8.2568-10.2188,13.6015-8.8721a10.49261,10.49261,0,0,1,6.0938,4.1865q.16695-.2196.3564-.4326c2.9727-3.3486,9.2129-3.791,12.9541-2.0918a10.49521,10.49521,0,0,1,4.2393,3.5518,16.79218,16.79218,0,0,1,6.1484-5.3594,11.687,11.687,0,0,1,12.2617,1.207c5.292,3.7266,5.6827,8.4522,5.4307,12.1514a16.91738,16.91738,0,0,1-.7861,4.2598c4.3906,1.3799,7.6806,5.5322,7.666,9.6885-.0195,5.415-5.2666,11.0566-10.1162,13.1767a12.47312,12.47312,0,0,1-3.2656.9483,19.31079,19.31079,0,0,1-1.3125,3.54c-.0987.2187-.1914.4228-.2715.6103-.2237.5196-.4326,1.0362-.6367,1.542-1.4571,3.5997-3.2686,8.0801-9.0479,9.2452A14.55318,14.55318,0,0,1,55.12283,57.843Zm-12.7041-16.2481a3.255,3.255,0,0,1,3.1718,3.9629,2.68782,2.68782,0,0,0,.876,2.7266c2.2617,2.3086,7.4492,3.4844,10.2393,2.918,2.1582-.4356,2.8584-1.7266,4.3076-5.3096.2226-.5498.4492-1.1094.6904-1.6699.0947-.2207.2051-.4649.3233-.7246a16.41919,16.41919,0,0,0,.9062-2.3321,8.39433,8.39433,0,0,1-.7119-.5849,3.25212,3.25212,0,0,1,3.2998-5.4561,6.40092,6.40092,0,0,1,1.9228,1.0684,4.53544,4.53544,0,0,0,2.4815-.461c3.3379-1.4619,6.208-5.2031,6.2158-7.2412.0039-1.3095-1.4922-2.9638-3.1416-3.4707-1.2695-.3887-1.7187.1289-1.9375.4434-.0156.0234-.0322.0469-.0488.0722a3.25185,3.25185,0,0,1-5.3906-3.6386c.0117-.0186.0234-.0371.0361-.0557.4004-.5889.7764-1.1191,1.1289-1.6143,1.6221-2.2812,2.2949-3.2246,2.4902-6.1005.2188-3.253-.4326-4.8057-2.6875-6.3946a5.17917,5.17917,0,0,0-5.6738-.6738c-3.1885,1.5498-5.6475,5.7402-6.4316,9.3897a15.82387,15.82387,0,0,1-.3194,2.332,3.25219,3.25219,0,0,1-6.4277-.8535,18.06832,18.06832,0,0,1,.2812-2.3028c.0879-2.7695-.8896-5.7187-3.0214-6.6855-1.5547-.707-4.585-.4336-5.4014.4873-.667.75-.6738,2.7842-.6787,4.416-.002.6602-.0049,1.3008-.0362,1.8984a3.25245,3.25245,0,0,1-6.1005,1.3965,33.94747,33.94747,0,0,1-1.6475-3.665c-1.3018-3.2383-2.2129-5.251-4.4385-5.8106-.7627-.0644-3.3252,1.3594-5.4111,4.25a12.42975,12.42975,0,0,0-.8408,1.3262,3.2536,3.2536,0,0,1,.3154,5.4229,3.25063,3.25063,0,0,1-5.3916,1.9482,6.44325,6.44325,0,0,1-1.4775-1.9394,5.29246,5.29246,0,0,0-1.8194.0312c-4.1513,1.3428-5.2109,7.834-5.4736,10.5625-.3984,4.1523.4062,5.251,2.8779,6.2686,2.0947.8593,5.8926.165,7.9932-.9961a3.25186,3.25186,0,0,1,4.5078,4.25c-2.8066,5.8584-2.3672,7.7646-.6572,9.0771a3.40246,3.40246,0,0,0,3.3427.7901c1.8702-.5967,3.8077-2.8956,4.6338-5.4893.0127-.0439.0264-.0889.0401-.1328a3.25312,3.25312,0,0,1,6.206,1.9531c-.0117.0342-.0224.0684-.0332.1035-.1269.4317-.0312.5684.0166.6358a2.9412,2.9412,0,0,0,2.1406.8349c.1456.0059.2647.0039.3594,0,.0615-.1513.1289-.3301.1856-.4795a13.549,13.549,0,0,1,1.5293-3.0761A3.2527,3.2527,0,0,1,42.41873,41.59492Z" fill="#0087cb"/>
          </g>
        </g>
        <g>
          <g>
            <path d="M66.43993,45.46982c-2.2666-.165-5.6036-1.1387-7.7432-.4492-5.5,1.7783-7.2471,8.5215-7.7119,13.3477-.4199,4.3701.1767,7.6513,4.8779,9.5869,3.1651,1.3008,7.9453.4238,10.8047-1.1592-2.0957,4.376-4.124,9.668.2959,13.0615,5.6904,4.3731,11.3994-.9033,13.0938-6.414-1.1377,3.5273,1.9755,5.6738,5.122,5.7812,3.9199.1289,3.0078-2.2686,4.8633-4.9609-1.6338,7.3017,9.666,10.6113,14.9346,9.5429,4.6953-.9482,5.6113-4.8672,7.3398-8.8828.8887-2.0683,3.1475-6.0937-.2705-7.3232,4.9619,4.5537,14.9512-3.834,14.9727-9.6807.0185-5.0849-7.7901-9.6758-11.0723-4.793,2.3711-3.498,3.8916-4.8095,4.2002-9.3642.2725-4.0039-.5859-6.8272-4.0586-9.2725-8.8877-6.2558-17.0488,4.9424-17.4766,13.0244.918-4.2793-.3134-10.1552-4.6445-12.123-2.5635-1.1631-7.2158-.918-9.1768,1.291-1.8701,2.1065-1.3945,5.6572-1.5312,8.3086-2.168-3.957-2.8301-9.7305-8.1455-11.0674-4.8174-1.2119-14.2813,9.7754-9.9443,13.6836" fill="#fff"/>
            <path d="M102.74653,85.45422c-4.0469,0-9.1387-1.5352-12.0088-4.4648a8.57351,8.57351,0,0,1-1.4424-1.9327c-.7041.9541-1.874,1.6924-4.1631,1.6133a7.54066,7.54066,0,0,1-5.6982-2.6562,11.47218,11.47218,0,0,1-5.7197,4.5312,8.05367,8.05367,0,0,1-7.6309-1.541c-4.249-3.2617-3.4785-7.9893-2.1367-11.5947a14.11281,14.11281,0,0,1-8.6348-.1192c-5.7754-2.374-6.1836-6.7187-5.7666-11.0605.4375-4.5371,2.1494-12.4629,8.7061-14.584a10.69123,10.69123,0,0,1,4.5195-.1475,11.22548,11.22548,0,0,1,1.1299-3.0058c2.4189-4.5381,7.7705-8.9278,11.5645-7.9707,3.6777.9248,5.4433,3.582,6.7138,6.3779a6.94483,6.94483,0,0,1,1.5293-3.1758c2.3799-2.6826,7.6953-3.082,10.8565-1.6474a9.53174,9.53174,0,0,1,4.8828,5.539,16.61123,16.61123,0,0,1,7.041-7.3672,9.80038,9.80038,0,0,1,10.4326,1.0606c3.6025,2.5371,4.999,5.6924,4.668,10.5508a13.16464,13.16464,0,0,1-1.5381,5.7461,7.6038,7.6038,0,0,1,1.9541.3408c3.1416.9639,6.4726,4.0879,6.46,7.9785-.0166,4.54-4.6846,9.626-9.0332,11.5273a9.73083,9.73083,0,0,1-4.1153.9014,12.76518,12.76518,0,0,1-1.3847,4.4971c-.1045.2304-.2012.4453-.2862.6435-.2285.5313-.4414,1.0577-.6513,1.5772-1.4278,3.5283-2.9053,7.1758-7.7315,8.1523A12.86978,12.86978,0,0,1,102.74653,85.45422Zm-12.7041-12.6357a1.44571,1.44571,0,0,1,1.4111,1.7607,4.50171,4.50171,0,0,0,1.3487,4.3867c2.7295,2.7852,8.5293,4.1026,11.8877,3.4238,3.1504-.6367,4.1416-2.7392,5.624-6.4033.2178-.5371.4404-1.0859.6767-1.6338.0899-.2119.1954-.4453.3077-.6923.5322-1.1768,1.4189-3.1387,1.0449-4.0792a6.43509,6.43509,0,0,1-1.2744-.916,1.44495,1.44495,0,0,1,1.4668-2.4238,4.47325,4.47325,0,0,1,1.6445.999,5.71809,5.71809,0,0,0,4.0928-.4375c3.8105-1.665,7.291-5.9023,7.3008-8.8886.0078-2.1202-1.9747-4.4551-4.417-5.2041a3.30511,3.30511,0,0,0-3.9893,1.1933l-.0244.0342a1.44528,1.44528,0,0,1-2.3965-1.6162l.0029-.0049h.002c.0088-.0127.0156-.0254.0254-.0381.3926-.5801.7636-1.1006,1.1094-1.5859,1.6699-2.3496,2.5898-3.6416,2.8193-7.0283.2627-3.8702-.6719-6.0362-3.4492-7.9922a6.99226,6.99226,0,0,0-7.5039-.8213c-3.8194,1.8554-6.5782,6.6338-7.4327,10.7617a14.44372,14.44372,0,0,1-.2949,2.2061,1.44527,1.44527,0,0,1-2.8564-.3799,15.93212,15.93212,0,0,1,.2763-2.1875c.1504-3.4883-1.164-7.2207-4.0751-8.543-2.0948-.9502-6.0459-.7012-7.4991.9346-1.1191,1.2607-1.1269,3.4717-1.1328,5.6084-.0029.6299-.0058,1.2422-.0361,1.8125a1.44451,1.44451,0,0,1-2.71.6211,32.45945,32.45945,0,0,1-1.5556-3.4698c-1.2559-3.125-2.4444-6.0771-5.6758-6.8896-2.0635-.5205-6.3399,2.834-8.3096,6.5264a9.12528,9.12528,0,0,0-.8144,2.0771c.3232.044.6289.0791.9091.0986a1.44579,1.44579,0,0,1-.1045,2.8877h-.0019a1.44557,1.44557,0,0,1-2.2373,1.7657,4.65875,4.65875,0,0,1-1.3965-2.2579,9.13355,9.13355,0,0,0-3.665-.0253c-4.9844,1.6113-6.3477,8.2783-6.7159,12.1093-.3886,4.0362.1319,6.5244,3.9883,8.1114,2.6904,1.1054,7.0557.2959,9.5557-1.086a1.44521,1.44521,0,0,1,2.0029,1.8887c-2.3935,4.998-3.332,8.8301-.1269,11.29a5.26134,5.26134,0,0,0,4.9912,1.0791c2.4658-.7871,4.789-3.459,5.8086-6.6689.0117-.0401.0244-.0811.0371-.1211a1.44565,1.44565,0,0,1,2.7578.8682c-.0117.0351-.0215.0712-.0332.1054a2.41656,2.41656,0,0,0,.2656,2.2041,4.6039,4.6039,0,0,0,3.5576,1.6016c1.6631.0566,1.7383-.1719,2.2959-1.6445a11.8663,11.8663,0,0,1,1.3281-2.6924A1.44569,1.44569,0,0,1,90.04243,72.81852Z" fill="#005eaa"/>
          </g>
          <g opacity="0.57">
            <path d="M102.74853,87.25892c-4.4512,0-10.0137-1.6504-13.3008-5.0049-.1768-.1807-.3448-.3623-.5039-.5479a7.49363,7.49363,0,0,1-3.8721.7696,9.86376,9.86376,0,0,1-5.46-1.7988,12.49986,12.49986,0,0,1-5.3496,3.5878,9.95613,9.95613,0,0,1-9.2802-1.8281c-4.003-3.0722-4.3409-7.1445-3.5928-10.708a14.06411,14.06411,0,0,1-6.7627-.7656c-6.9238-2.8486-7.3125-8.3936-6.8789-12.9063.8271-8.5957,4.3603-14.3242,9.9482-16.1298a10.23586,10.23586,0,0,1,3.7588-.3741,14.17365,14.17365,0,0,1,.8516-1.9111c2.331-4.3721,8.2568-10.2188,13.6015-8.8721a10.49261,10.49261,0,0,1,6.0938,4.1865q.16695-.2196.3564-.4326c2.9727-3.3486,9.2129-3.791,12.9541-2.0918a10.49521,10.49521,0,0,1,4.2393,3.5518,16.79218,16.79218,0,0,1,6.1484-5.3594,11.687,11.687,0,0,1,12.2617,1.207c5.292,3.7266,5.6827,8.4522,5.4307,12.1514a16.91738,16.91738,0,0,1-.7861,4.2598c4.3906,1.3799,7.6806,5.5322,7.666,9.6885-.0195,5.415-5.2666,11.0566-10.1162,13.1767a12.47312,12.47312,0,0,1-3.2656.9483,19.31079,19.31079,0,0,1-1.3125,3.54c-.0987.2187-.1914.4228-.2715.6103-.2237.5196-.4326,1.0362-.6367,1.542-1.4571,3.5997-3.2686,8.0801-9.0479,9.2452A14.55318,14.55318,0,0,1,102.74853,87.25892Zm-12.7041-16.2481a3.255,3.255,0,0,1,3.1718,3.9629,2.68782,2.68782,0,0,0,.876,2.7266c2.2617,2.3086,7.4492,3.4844,10.2393,2.918,2.1582-.4356,2.8584-1.7266,4.3076-5.3096.2226-.5498.4492-1.1094.6904-1.6699.0947-.2207.2051-.4649.3233-.7246a16.41919,16.41919,0,0,0,.9062-2.3321,8.39433,8.39433,0,0,1-.7119-.5849,3.25212,3.25212,0,0,1,3.2998-5.4561,6.40092,6.40092,0,0,1,1.9228,1.0684,4.53544,4.53544,0,0,0,2.4815-.461c3.3379-1.4619,6.208-5.2031,6.2158-7.2412.0039-1.3095-1.4922-2.9638-3.1416-3.4707-1.2695-.3887-1.7187.1289-1.9375.4434-.0156.0234-.0322.0469-.0488.0722a3.25185,3.25185,0,0,1-5.3906-3.6386c.0117-.0186.0234-.0371.0361-.0557.4004-.5889.7764-1.1191,1.1289-1.6143,1.6221-2.2812,2.2949-3.2246,2.4902-6.1005.2188-3.253-.4326-4.8057-2.6875-6.3946a5.17917,5.17917,0,0,0-5.6738-.6738c-3.1885,1.5498-5.6475,5.7402-6.4316,9.3897a15.82387,15.82387,0,0,1-.3194,2.332,3.25219,3.25219,0,0,1-6.4277-.8535,18.06832,18.06832,0,0,1,.2812-2.3028c.0879-2.7695-.8896-5.7187-3.0214-6.6855-1.5547-.707-4.585-.4336-5.4014.4873-.667.75-.6738,2.7842-.6787,4.416-.002.6602-.0049,1.3008-.0362,1.8984a3.25245,3.25245,0,0,1-6.1005,1.3965,33.94747,33.94747,0,0,1-1.6475-3.665c-1.3018-3.2383-2.2129-5.251-4.4385-5.8106-.7627-.0644-3.3252,1.3594-5.4111,4.25a12.42975,12.42975,0,0,0-.8408,1.3262,3.2536,3.2536,0,0,1,.3154,5.4229,3.25063,3.25063,0,0,1-5.3916,1.9482,6.44325,6.44325,0,0,1-1.4775-1.9394,5.29246,5.29246,0,0,0-1.8194.0312c-4.1513,1.3428-5.2109,7.834-5.4736,10.5625-.3984,4.1523.4062,5.251,2.8779,6.2686,2.0947.8593,5.8926.165,7.9932-.9961a3.25186,3.25186,0,0,1,4.5078,4.25c-2.8066,5.8584-2.3672,7.7646-.6572,9.0771a3.40246,3.40246,0,0,0,3.3427.7901c1.8702-.5967,3.8077-2.8956,4.6338-5.4893.0127-.0439.0264-.0889.0401-.1328a3.25312,3.25312,0,0,1,6.206,1.9531c-.0117.0342-.0224.0684-.0332.1035-.1269.4317-.0312.5684.0166.6358a2.9412,2.9412,0,0,0,2.1406.8349c.1456.0059.2647.0039.3594,0,.0615-.1513.1289-.3301.1856-.4795a13.549,13.549,0,0,1,1.5293-3.0761A3.2527,3.2527,0,0,1,90.04443,71.01082Z" fill="#0087cb"/>
          </g>
        </g>
      </g>
    </g>
  </g>
</svg>
