<svg xmlns="http://www.w3.org/2000/svg" viewBox="0 0 59.18512 59.1843">
  <title>email</title>
  <g id="Capa_2" data-name="Capa 2">
    <g id="Editar">
      <g>
        <circle cx="29.59238" cy="29.59217" r="29.59235" fill="#fff"/>
        <path d="M39.3406,42.0876c-.0391-.0269-.0408-.067-.053-.1004q-.214-.596-.4259-1.1903-1.06587-2.9823-2.1334-5.9646c-.02118-.0595-.0244-.124-.1305-.1004q-3.019.6585-6.0409,1.3103c-.1493.0327-.1485.0343-.19378-.1077q-1.08978-3.39465-2.17782-6.7902c-.0294-.0881-.0605-.1102-.1546-.0865q-6.3282,1.57245-12.6537,3.141c-.3276.0816-.6564.164-1.0137.2537q10.5861,5.9157,21.1405,11.815c-.0539.022-.08.0318-.10768.0433a16.12618,16.12618,0,0,1-5.46332,1.0809,15.93463,15.93463,0,0,1-2.8163-.1893,15.30651,15.30651,0,0,1-3.4232-.9316,16.09045,16.09045,0,0,1-8.2527-7.3353,15.01185,15.01185,0,0,1-1.2021-2.8538.23439.23439,0,0,0-.1241-.1542c-.8341-.4626-1.665-.9267-2.5004-1.3885-.0898-.049-.089-.0833-.04288-.1648.62208-1.1112,1.24008-2.2256,1.86458-3.3368a.79233.79233,0,0,0,.1032-.3679,14.81118,14.81118,0,0,1,.1799-1.8528,15.64812,15.64812,0,0,1,1.2356-4.1135,16.09562,16.09562,0,0,1,5.71172-6.7266.33979.33979,0,0,0,.11218-.1199q.96855-1.74255,1.9396-3.4853c.0131-.022.0428-.0432.0224-.0758a19.3579,19.3579,0,1,0,.2461-.0849.13644.13644,0,0,0,.0162.0155q1.3254.7392,2.65152,1.48a.19631.19631,0,0,0,.14888.0113,15.10118,15.10118,0,0,1,1.6868-.3165,15.93509,15.93509,0,0,1,3.6725-.053,16.7,16.7,0,0,1,2.135.3573A16.13139,16.13139,0,0,1,45.2416,25.7219c.0522.221.09552.4429.1469.6861Q35.2263,20.76395,25.1059,15.1469a.21581.21581,0,0,0,.0256.1387q3.06693,9.55755,6.1352,19.1176c.0318.0987.0718.1109.164.0906q2.32695-.5079,4.6548-1.0109,3.4143-.739,6.8318-1.4791,1.24695-.26925,2.4891-.5409c.0824-.0179.1101-.0131.09472.0824-.06132.4177-.13392.8313-.222,1.2434a.10539.10539,0,0,1-.09622.0889c-.11178.022-.2236.0465-.3361.071q-3.3606.7293-6.7234,1.4538c-.1159.0236-.1166.0604-.0824.1566q1.15035,3.20505,2.2966,6.4108c.07752.2187.0783.2195-.0914.3713C39.9526,41.6029,39.6523,41.8526,39.3406,42.0876ZM13.7437,31.2141a.20252.20252,0,0,0,.1166-.0106q.82245-.20325,1.644-.4071,6.052-1.50285,12.10382-3.0015c.10068-.0245.128-.0531.09338-.1591q-2.17035-6.7404-4.3338-13.4826c-.0122-.0358-.0098-.0815-.055-.1109Q18.52833,22.62935,13.7437,31.2141Z" fill="#b9007e" fill-rule="evenodd"/>
      </g>
    </g>
  </g>
</svg>
