<svg xmlns="http://www.w3.org/2000/svg" viewBox="0 0 21.06543 21.76074">
  <title>empres1</title>
  <g id="3793e4f4-2db7-4948-a5d7-da76e9270104" data-name="Capa 2">
    <g id="259a38ac-85ef-48d8-81db-d9dcffcce76f" data-name="Layer 6">
      <g>
        <g>
          <path d="M6.7627,21.76074a.49971.49971,0,0,1-.5-.5V19.36816H3.88379A2.31014,2.31014,0,0,1,1.56641,17.0708V14.93945H.5a.49978.49978,0,0,1-.43164-.752l2.10645-3.60693c-.002-.05811-.00293-.11621-.00293-.1748A7.15878,7.15878,0,0,1,5.94238,4.11621a.50033.50033,0,0,1,.47656.87988,6.157,6.157,0,0,0-3.24707,5.40967c0,.09277.00293.18506.00684.27686a.49808.49808,0,0,1-.06738.27637L1.3711,13.93945h.69531a.49971.49971,0,0,1,.5.5V17.0708a1.30889,1.30889,0,0,0,1.31738,1.29736H6.7627a.49971.49971,0,0,1,.5.5v2.39258A.49971.49971,0,0,1,6.7627,21.76074Z" fill="#f46819"/>
          <path d="M14.18457,21.76074a.49971.49971,0,0,1-.5-.5V15.11328a.5.5,0,0,1,1,0v6.14746A.49971.49971,0,0,1,14.18457,21.76074Z" fill="#f46819"/>
        </g>
        <path d="M13.86621,14.24658a7.17209,7.17209,0,0,1-4.27734-1.394l-1.23145.32617a.49995.49995,0,0,1-.61035-.61426L8.0752,11.354A6.99162,6.99162,0,0,1,6.666,7.123a7.20012,7.20012,0,0,1,14.39941,0A7.16987,7.16987,0,0,1,13.86621,14.24658ZM9.69727,11.80664a.5034.5034,0,0,1,.30957.10693A6.21362,6.21362,0,0,0,20.06543,7.123a6.20019,6.20019,0,0,0-12.39941,0A6.01131,6.01131,0,0,0,9.0127,10.93066a.49884.49884,0,0,1,.09277.44434l-.167.61523.63086-.167A.49463.49463,0,0,1,9.69727,11.80664Z" fill="#f46819"/>
        <g>
          <path d="M13.14453,7.665a.49883.49883,0,0,1-.33887-.13232l-1.877-1.72949a.50005.50005,0,0,1,0-.73535l1.877-1.729a.5.5,0,1,1,.67773.73535L12.00586,5.43555,13.4834,6.79736a.49977.49977,0,0,1-.33887.86768Z" fill="#f46819"/>
          <path d="M16.13574,5.93555h-4.668a.5.5,0,0,1,0-1h4.668a.5.5,0,0,1,0,1Z" fill="#f46819"/>
        </g>
        <g>
          <path d="M14.25879,10.81934a.49977.49977,0,0,1-.33887-.86768l1.47754-1.36084L13.91992,7.228a.5.5,0,0,1,.67773-.73535l1.877,1.73047a.50005.50005,0,0,1,0,.73535l-1.877,1.72852A.5006.5006,0,0,1,14.25879,10.81934Z" fill="#f46819"/>
          <path d="M15.93555,9.08984h-4.668a.5.5,0,1,1,0-1h4.668a.5.5,0,1,1,0,1Z" fill="#f46819"/>
        </g>
      </g>
    </g>
  </g>
</svg>
