<svg xmlns="http://www.w3.org/2000/svg" viewBox="0 0 22.51044 20.04861">
  <title>donantes</title>
  <g id="8d598cb6-ff05-4878-90fe-6c71e60df216" data-name="Capa 2">
    <g id="87fdcc21-70b0-47b2-a0ae-40ebadd21c61" data-name="Layer 6">
      <g>
        <path d="M10.96131.87613l-.20117.20169L10.55779.87613A3.16507,3.16507,0,0,0,6.1868.87548a3.08918,3.08918,0,0,0,0,4.37217L10.29926,9.3601a.65172.65172,0,0,0,.92191,0l4.11231-4.11246a3.09351,3.09351,0,0,0,0-4.37152A3.16538,3.16538,0,0,0,10.96131.87613ZM14.935,3.0615a1.77594,1.77594,0,0,1-.52333,1.26439L10.76014,7.97733,7.10869,4.32523A1.78706,1.78706,0,0,1,9.6359,1.79789l.66335.6627a.65172.65172,0,0,0,.92191,0l.662-.66205a1.8308,1.8308,0,0,1,2.52852-.00065A1.77525,1.77525,0,0,1,14.935,3.0615Z" fill="#f46819"/>
        <path d="M22.003,15.032c-1.13191-.622-3.52841-2.0014-3.72171-2.1411l-.1094-.1323c-.7217-.877-2.6387-3.2061-7.5488-1.5518a6.2479,6.2479,0,0,1-2.5488.376c-.1885-.021-.3809-.0571-.5674-.0923l-.1397-.0259A24.71594,24.71594,0,0,0,4.459,9.42851a4.9044,4.9044,0,0,0-1.88281-.2671,1.85087,1.85087,0,0,0-1.9004-.1435,1.50991,1.50991,0,0,0-.6474.9712,2.34349,2.34349,0,0,0,.497,1.7456c.1192.1748,2.96,4.2963,6.7491,6.0971a6.71155,6.71155,0,0,0,3.0957.4932l4.8222-.6729a3.1038,3.1038,0,0,1,1.3799.1607l2.6318,2.0303a.98683.98683,0,0,0,.6016.2055.97253.97253,0,0,0,.2051-.0219.98383.98383,0,0,0,.6631-.4952l1.7168-3.167A.98521.98521,0,0,0,22.003,15.032ZM5.80179,11.52711a2.66024,2.66024,0,0,0-.61779.2805l-1.82641-1.6128a2.51209,2.51209,0,0,1,.701.1497A14.54351,14.54351,0,0,1,5.80179,11.52711Zm14.0137,7.524-2.6123-2.0137a2.97069,2.97069,0,0,0-1.7041-.396,4.26548,4.26548,0,0,0-.4307.0186l-4.8047.6713a5.66159,5.66159,0,0,1-2.5596-.4028c-3.5478-1.686-6.2392-5.5918-6.3525-5.7578a1.38488,1.38488,0,0,1-.3408-.9941.50392.50392,0,0,1,.2256-.3306c.161-.1077.4917.0019.7361.1263l2.6724,2.3598a1.15048,1.15048,0,0,0-.179.5193c-.04789.7431.6074,1.3838,1.7509,1.7138a29.429,29.429,0,0,0,6.0547.709.51061.51061,0,0,0,.5078-.4917.49984.49984,0,0,0-.4922-.5083,29.067,29.067,0,0,1-5.7929-.6699c-.7969-.2295-1.0381-.5635-1.0303-.689.0078-.1206.2783-.4082,1.0645-.5293a3.00311,3.00311,0,0,1,.7949.0879c.2109.0391.42771.0791.6406.103a7.18407,7.18407,0,0,0,3.002-.4311c4.2382-1.4253,5.7207.3804,6.4336,1.2476l.1191.1445c.2392.2817,3.9648,2.3496,3.9932,2.3501Z" fill="#f46819"/>
      </g>
    </g>
  </g>
</svg>
