<svg xmlns="http://www.w3.org/2000/svg" viewBox="0 0 65.56856 65.84905">
  <title>Recurso 2</title>
  <g id="Capa_2" data-name="Capa 2">
    <g id="Editar">
      <g>
        <g>
          <path d="M52.1,16.8339a2.64433,2.64433,0,0,0,.2841-.2344,1.36685,1.36685,0,0,0-.6338-2.373,1.54569,1.54569,0,0,0-.1943-.0381,1.91225,1.91225,0,0,0-1.0967.1621,2.901,2.901,0,0,0-.5664.2549,3.95283,3.95283,0,0,0-.3301.2227,2.75165,2.75165,0,0,0-.247-.9639,2.88607,2.88607,0,0,0-.167-.3154c-.0039-.0088-.0039-.0186-.0078-.0274a1.23434,1.23434,0,0,0-.8008-.7773,1.64921,1.64921,0,0,0-.7549-.1231.75122.75122,0,0,0-.2314.0371.45718.45718,0,0,1-.0616.0137,1.3505,1.3505,0,0,0-.8125.8086c-.3535.666.0391,1.6133.1875,2.2822a7.18448,7.18448,0,0,1,.1856,1.4776,9.01188,9.01188,0,0,0,.0566,1.2138.47066.47066,0,0,0,.168.2803.52108.52108,0,0,0,.74321.2705,8.06449,8.06449,0,0,1,1.33879-.4961,10.32072,10.32072,0,0,0,1.3838-.5761C50.89,17.7587,51.85391,17.3437,52.1,16.8339Z" fill="#fff"/>
          <path d="M53.03841,17.0361a2.3411,2.3411,0,0,0-.3769-3.0899,2.49987,2.49987,0,0,0-2.9356.1875,1.8122,1.8122,0,0,0-.0273-.4052,2.92491,2.92491,0,0,0-.708-1.2276,1.55532,1.55532,0,0,0-2.3965-.2549,3.72864,3.72864,0,0,0-.7988,2.8369,24.7031,24.7031,0,0,0,.44041,3.1143.4043.4043,0,0,0,.06349.6396,2.6742,2.6742,0,0,0,1.7324.2579,12.04815,12.04815,0,0,0,1.8545-.333A5.07174,5.07174,0,0,0,53.03841,17.0361Zm-3.80469.8984a9.32615,9.32615,0,0,1-1.35351.208,4.18535,4.18535,0,0,1-.6269-.0166c-.002-.6543-.3379-1.3721-.39259-1.9853a7.52348,7.52348,0,0,1,.02049-2.4092,1.9174,1.9174,0,0,1,.5088-.9121c.2314-.2325.5605-.0674.7773.0918a4.00678,4.00678,0,0,1,.8028.8027,1.42247,1.42247,0,0,1,.1513,1.2061.23133.23133,0,0,0,.44931.1093c.01359-.0507.02729-.1006.04-.1543a.25246.25246,0,0,0,.23139-.0869c.6514-.7207,2.003-1.0517,2.6338-.1133a1.90508,1.90508,0,0,1-.74119,2.458A7.7884,7.7884,0,0,1,49.23372,17.9345Z" fill="#1d1d1b"/>
        </g>
        <g>
          <path d="M43.28161,22.2148a3.7524,3.7524,0,0,0-.2051-.3887,1.639,1.639,0,0,0-2.9394.1807,1.66959,1.66959,0,0,0-.0899.2177,2.27288,2.27288,0,0,0-.0713,1.3252,3.444,3.444,0,0,0,.1631.7246,4.49221,4.49221,0,0,0,.18171.4424,3.40686,3.40686,0,0,0-1.59871.1807c-.0107.0019-.0224.0019-.0342.0029a1.47236,1.47236,0,0,0-1.1025.7559,1.93715,1.93715,0,0,0-.3242.8564.969.969,0,0,0-.0117.2803c.0009.0264,0,.0508.0009.0772a1.61278,1.61278,0,0,0,.7549,1.1435c.6973.5742,1.9033.3389,2.7256.3252a8.479,8.479,0,0,1,1.7783.1348,10.68226,10.68226,0,0,0,1.4385.2207.55142.55142,0,0,0,.3682-.1299.62411.62411,0,0,0,.4951-.8086,9.355,9.355,0,0,1-.2617-1.6875,12.71351,12.71351,0,0,0-.3487-1.7637A4.43536,4.43536,0,0,0,43.28161,22.2148Z" fill="#fff"/>
          <path d="M43.74351,21.162a2.80529,2.80529,0,0,0-3.7187-.2939,2.99353,2.99353,0,0,0-.4786,3.4912,2.12426,2.12426,0,0,0-.4814-.0644,3.50706,3.50706,0,0,0-1.6113.539,1.86415,1.86415,0,0,0-.8702,2.7539,4.47455,4.47455,0,0,0,3.1397,1.6133,29.75765,29.75765,0,0,0,3.76271.2256.48462.48462,0,0,0,.76559.0771,3.20457,3.20457,0,0,0,.7139-1.9726,13.7359,13.7359,0,0,0,.0508-2.2578A6.07952,6.07952,0,0,0,43.74351,21.162Zm.1484,4.6807a11.07877,11.07877,0,0,1-.081,1.6397,5.17553,5.17553,0,0,1-.167.7324c-.7705-.1553-1.6895.0703-2.4229-.0137a9.08828,9.08828,0,0,1-2.8271-.5967,2.29793,2.29793,0,0,1-.94819-.8164c-.21781-.3262.05459-.6728.29189-.8906a4.84561,4.84561,0,0,1,1.1348-.749,1.70527,1.70527,0,0,1,1.4541.1084.27741.27741,0,0,0,.2334-.503c-.0547-.0273-.1123-.0556-.1699-.083a.30665.30665,0,0,0-.0479-.2939c-.6923-.9346-.7578-2.6006.4942-3.1182a2.282,2.282,0,0,1,2.708,1.4551A9.34769,9.34769,0,0,1,43.89191,25.8427Z" fill="#1d1d1b"/>
        </g>
        <g>
          <path d="M59.92511,22.8583a3.9002,3.9002,0,0,0,.1768-.4023,1.63891,1.63891,0,0,0-1.9678-2.1904,1.71868,1.71868,0,0,0-.2265.0644,2.27086,2.27086,0,0,0-1.083.7686,3.36388,3.36388,0,0,0-.46589.5791,4.734,4.734,0,0,0-.23341.416,3.31286,3.31286,0,0,0-.7871-.8955,3.219,3.219,0,0,0-.3486-.2442.28163.28163,0,0,1-.0234-.0254,1.47333,1.47333,0,0,0-1.2764-.3945,1.97224,1.97224,0,0,0-.87309.2783.9088.9088,0,0,0-.22751.167c-.01949.0157-.04.0313-.0596.0479a1.61346,1.61346,0,0,0-.4267,1.3017c-.0176.9024.916,1.7022,1.4394,2.3379a8.3537,8.3537,0,0,1,.9991,1.4766,10.8788,10.8788,0,0,0,.7207,1.2637.55759.55759,0,0,0,.332.2089.62472.62472,0,0,0,.9414-.1152,9.3328,9.3328,0,0,1,1.15921-1.2549,12.6269,12.6269,0,0,0,1.165-1.3681C59.13611,24.5048,59.93881,23.538,59.92511,22.8583Z" fill="#fff"/>
          <path d="M61.03651,22.5663a2.8053,2.8053,0,0,0-2.0811-3.0966,2.99615,2.99615,0,0,0-3.0322,1.7949,2.11983,2.11983,0,0,0-.249-.418,3.52135,3.52135,0,0,0-1.4239-.9267,1.8655,1.8655,0,0,0-2.6982,1.0302,4.47531,4.47531,0,0,0,.6885,3.4619,29.52391,29.52391,0,0,0,2.16111,3.0879.48441.48441,0,0,0,.416.6485,3.21434,3.21434,0,0,0,1.99029-.666,14.13436,14.13436,0,0,0,1.7978-1.3633A6.07292,6.07292,0,0,0,61.03651,22.5663Zm-3.5752,3.0245a10.98142,10.98142,0,0,1-1.334.955,5.12581,5.12581,0,0,1-.6768.3262c-.3584-.7002-1.1054-1.2793-1.4961-1.9072a9.09623,9.09623,0,0,1-1.289-2.586,2.27279,2.27279,0,0,1,.0498-1.249c.1191-.375.56051-.376.8789-.3252a4.83882,4.83882,0,0,1,1.293.4229,1.705,1.705,0,0,1,.8183,1.2051.27719.27719,0,0,0,.5391-.128c-.0127-.0595-.0254-.123-.041-.1855a.30066.30066,0,0,0,.20021-.2198c.30269-1.123,1.56639-2.2109,2.75089-1.5498a2.2828,2.2828,0,0,1,.543,3.0254A9.32192,9.32192,0,0,1,57.46131,25.5908Z" fill="#1d1d1b"/>
        </g>
        <path d="M32.50721,65.8339q-13.49565-.00435-26.9932,0c-2.2129.0029-4.539.3643-5.3008-2.6181-.7099-2.7862.3721-4.5635,2.96-5.5147,2.7197-1,3.0674-2.6016,2.4277-5.4365-1.3877-6.1641,1.1123-9.0537,6.5215-8.3399,3.9356.5225,5.876,3.3614,4.2432,8.4043-1.4805,4.5733,1.6474,5.2559,4.125,6.085,2.8535.9561,5.2519-1.1826,7.28611-2.9404.80269-.6914-.39261-2.1709-.62211-3.2998-.5791-2.8819-.624-5.8028,2.1709-7.5245a6.04343,6.04343,0,0,1,6.7207.1485c2.6387,1.8027,3.1241,4.501,2.375,7.459-.415,1.6338-1.6318,3.1484.8028,4.4765,2.9883,1.627,5.6142,2.709,8.8926.4258,2.07611-1.4473,1.3769-2.709.999-4.4873-1.1231-5.3242.2695-8.1123,4.0176-8.6855,5.664-.8662,8.3369,2.0664,6.8164,8.3789-.7266,3.0117-.04689,4.3965,2.5449,5.3564,2.65921.9854,3.5586,2.874,2.832,5.5586-.7109,2.6191-2.8047,2.5752-4.9443,2.5674C51.09121,65.8193,41.79921,65.8368,32.50721,65.8339Zm11.9433-3.3008c-4.25579-7.0263-17.2509-7.206-22.3222-1.5361-.503.5625-.4727,2.0527-1.5.375-3.2002-5.2266-8.5401-4.5996-13.293-4.0869-2.2305.2451-6.1445,1.2295-5.7422,4.9355.4258,3.8975,3.9483,2.1817,6.0947,2.2032,14.92.1445,29.84091.083,44.7627.083q4.42832,0,8.8594-.0332c1.2481-.0108,2.3984-.2735,2.67481-1.7491a2.93129,2.93129,0,0,0-.65821-2.8613C59.35091,55.8242,47.056,55.499,44.45051,62.5331Zm-7.2793-12.1562c-.1259-3.2998-1.3427-5.0957-4.583-4.9873-3.0244.1006-4.2402,1.8965-4.0986,4.5947.1406,2.7412.8242,5.5479,4.3135,5.5918C36.388,55.6181,36.63221,52.5956,37.17121,50.3769Zm17.4063-4.9561c-3.50779-.0097-4.3213,2.0606-4.1631,4.9561.1484,2.7314.98731,5.3066,4.0732,5.3037,3.6895-.0049,4.2374-3.0156,4.2666-5.9922C58.78161,46.8437,57.45931,45.2548,54.57751,45.4208ZM9.98472,45.3896c-2.33891-.1299-3.31251,1.9472-3.17771,4.8262.1318,2.8203.9053,5.6201,4.34671,5.4599,3.39449-.1504,3.91889-3.0137,4.01069-5.8135C15.25721,47.0263,14.02481,45.3847,9.98472,45.3896Z" fill="#1d1d1b" fill-rule="evenodd"/>
        <path d="M6.97691,28.9345c1.0781,2.9248.6133,5.1279.6924,7.2676.1025,2.7226-1.9678,2.5508-3.709,2.4961-1.6582-.0537-3.84959.4111-3.84959-2.3692.00189-5.163-.25591-10.3574.206-15.4824a6.20165,6.20165,0,0,1,6.20609-5.8398c8.8096-.4981,17.63091-.7901,26.4395-1.2979,4.1152-.2392,4.3007,2.1846,4.4453,5.334.1689,3.7227-1.709,4.0684-4.6455,3.8525-3.2325-.2382-6.5088.0518-9.7246-.2851-2.1446-.2236-3.0215.2744-2.96779,2.4492.37789,14.8906-2.86721,12.2725,11.872,12.4912,9.15039.1377,18.30669-.1406,27.45509.0615,3.5645.0762,5.0117-.8691,4.876-4.667-.2598-7.374-.2832-14.7636-.0195-22.1376.1318-3.6895-1.295-4.3926-4.6338-4.3458-12.80279.1739-25.6094.0694-38.6475.0694.7901-2.0098,2.1758-1.3174,3.1602-1.3242,12.5469-.0547,25.0957.0576,37.6406-.0938,2.9707-.0361,3.8223.9619,3.7783,3.7949-.1269,8.5586-.15039,17.1221.0117,25.6817.0577,3.0263-.87109,4.2051-3.99509,4.1767q-19.478-.183-38.956-.0214c-3.084.0253-4.21-1.0137-4.01661-4.0938.2177-3.5273.14061-7.0811.0332-10.6162-.0694-2.2568.7783-3.2246,3.083-3.1631,3.3926.0938,6.79-.0283,10.1845-.0029,1.8633.0107,3.1778-.4151,3.1065-2.6846-.0752-2.3301-1.7451-1.9756-3.1602-1.9902-7.8222-.0576-15.6435-.1407-23.4658-.0938-4.1875.0205-6.6474,2.3545-6.8174,6.4912-.164,3.9795-.0488,7.9717-.0556,11.9551-.0039,1.4317.1709,2.6582,2.0615,2.7119,1.957.0576,2.54591-.9599,2.5898-2.7314C6.19272,32.9296,5.83731,31.2753,6.97691,28.9345Z" fill="#1d1d1b" fill-rule="evenodd"/>
        <path d="M11.97981,11.7636a5.64536,5.64536,0,0,1-5.6504-5.959C6.38511,2.5912,9.181-.3487,12.225.0336c3.2304.4043,5.373,2.2012,5.4238,5.7818A5.595,5.595,0,0,1,11.97981,11.7636Zm4.3487-5.4424c-.0401-3.0986-1.6485-4.8369-4.3037-4.8188A4.08376,4.08376,0,0,0,7.682,6.0175a4.0287,4.0287,0,0,0,4.0781,4.3115C14.52961,10.4872,16.056,8.8359,16.32851,6.3212Z" fill="#1d1d1b" fill-rule="evenodd"/>
        <path d="M44.45051,62.5331c2.6055-7.0341,14.9004-6.7089,18.876-2.6699a2.93129,2.93129,0,0,1,.65821,2.8613c-.27641,1.4756-1.42671,1.7383-2.67481,1.7491q-4.42815.0381-8.8594.0332c-14.92179,0-29.8427.0615-44.7627-.083-2.1464-.0215-5.6689,1.6943-6.0947-2.2032-.4023-3.706,3.5117-4.6904,5.7422-4.9355,4.7529-.5127,10.0928-1.1397,13.293,4.0869,1.0273,1.6777.997.1875,1.5-.375C27.19961,55.3271,40.19472,55.5068,44.45051,62.5331Z" fill="none" fill-rule="evenodd"/>
        <path d="M37.17121,50.3769c-.539,2.2187-.7832,5.2412-4.3681,5.1992-3.4893-.0439-4.1729-2.8506-4.3135-5.5918-.1416-2.6982,1.0742-4.4941,4.0986-4.5947C35.82851,45.2812,37.04531,47.0771,37.17121,50.3769Z" fill="none" fill-rule="evenodd"/>
        <path d="M54.57751,45.4208c2.8818-.166,4.2041,1.4229,4.1767,4.2676-.0292,2.9766-.5771,5.9873-4.2666,5.9922-3.08589.0029-3.9248-2.5723-4.0732-5.3037C50.25621,47.4814,51.06972,45.4111,54.57751,45.4208Z" fill="none" fill-rule="evenodd"/>
        <path d="M9.98472,45.3896c4.04009-.0049,5.27249,1.6367,5.17969,4.4726-.0918,2.7998-.6162,5.6631-4.01069,5.8135-3.44141.1602-4.21491-2.6396-4.34671-5.4599C6.67221,47.3368,7.64581,45.2597,9.98472,45.3896Z" fill="none" fill-rule="evenodd"/>
        <path d="M16.32851,6.3212c-.2725,2.5147-1.7989,4.166-4.5684,4.0078A4.0287,4.0287,0,0,1,7.682,6.0175a4.08376,4.08376,0,0,1,4.3428-4.5151C14.68,1.4843,16.28841,3.2226,16.32851,6.3212Z" fill="none" fill-rule="evenodd"/>
      </g>
    </g>
  </g>
</svg>
