<svg xmlns="http://www.w3.org/2000/svg" viewBox="0 0 7.94274 17.5">
  <title>Recurso 36</title>
  <g id="5e97692c-dc9d-4741-850f-bfccde1da5d3" data-name="Capa 2">
    <g id="d2641ee5-912b-4c16-9292-ef1618b04d6e" data-name="Layer 6">
      <g>
        <path d="M4.375,17.5H2.1875a.7299.7299,0,0,1-.72917-.72917V8.38542a.36458.36458,0,1,1,.72917,0v8.38542H4.375V8.38542a.36458.36458,0,1,1,.72917,0v8.38542A.7299.7299,0,0,1,4.375,17.5Z" fill="#b9007f"/>
        <path d="M1.82292,5.46875" fill="#b9007f"/>
        <path d="M1.82292,8.75H.72917A.7299.7299,0,0,1,0,8.02083V5.83333a.7299.7299,0,0,1,.72917-.72917H1.82292a.36458.36458,0,1,1,0,.72917H.72917v2.1875H1.82292a.36458.36458,0,0,1,0,.72917Z" fill="#b9007f"/>
        <path d="M4.81436,8.23444" fill="#b9007f"/>
        <path d="M6.5625,8.75H4.73958a.36458.36458,0,0,1,0-.72917H6.5625a.138.138,0,0,0,.09917-.07707l.52748-2.11043H4.73958a.36458.36458,0,1,1,0-.72917H7.29167a.63541.63541,0,0,1,.62967.80715l-.55223,2.209A.85111.85111,0,0,1,6.5625,8.75Z" fill="#b9007f"/>
        <path d="M4.73958,5.8376A.3646.3646,0,0,1,4.375,5.473V3.60489a.35892.35892,0,0,1,.01247-.09454.70652.70652,0,0,1,.7167-.59369H6.5625V.72917H4.73958a.36458.36458,0,0,1,0-.72917h2.1875a.36462.36462,0,0,1,.36458.36458V3.28125a.36462.36462,0,0,1-.36458.36458H5.10417V5.473A.3646.3646,0,0,1,4.73958,5.8376Z" fill="#b9007f"/>
        <path d="M1.82292,5.46875" fill="#b9007f"/>
        <path d="M1.82292,5.83333a.36462.36462,0,0,1-.36458-.36458V3.28125a.36458.36458,0,0,1,.72917,0v2.1875A.36462.36462,0,0,1,1.82292,5.83333Z" fill="#b9007f"/>
        <path d="M1.82292,3.64583a.36462.36462,0,0,1-.36458-.36458A3.21361,3.21361,0,0,1,4.73958,0a.36458.36458,0,1,1,0,.72917A2.47119,2.47119,0,0,0,2.1875,3.28125.36462.36462,0,0,1,1.82292,3.64583Z" fill="#b9007f"/>
      </g>
    </g>
  </g>
</svg>
