<svg xmlns="http://www.w3.org/2000/svg" viewBox="0 0 109.06701 104.97489">
  <title>Recurso 11</title>
  <g id="Capa_2" data-name="Capa 2">
    <g id="Editar">
      <g>
        <path d="M99.03476,56.18421A4.92878,4.92878,0,0,0,99.013,59.9187c.25042.46817,1.067.41373,1.08877-.18509s.07621-1.18676.11977-1.7747c.06533-.74037.32663-1.37185.43551-2.09044.1742-1.12144-.23953-2.27553,0-3.40786.11977-.5335-.65326-.59882-.86013-.18509C99.18719,53.50583,99.4376,54.91034,99.03476,56.18421Zm-.84924-16.12472c.0871,1.644.10888,3.299.07621,4.943a3.776,3.776,0,0,0,1.459,3.14655.399.399,0,0,0,.6206-.28308,5.53571,5.53571,0,0,0-.27219-1.52428,9.71658,9.71658,0,0,1-.27219-2.428,14.13756,14.13756,0,0,0-1.067-4.02846C98.61014,39.55865,98.17463,39.76552,98.18552,40.05949ZM97.075,66.72352c-.43551,1.361-1.13232,3.11389-.969,4.54018a.34522.34522,0,0,0,.56616.20687,6.89635,6.89635,0,0,0,1.65493-3.6365,18.89589,18.89589,0,0,1,1.51339-4.19177c.196-.37018-.392-.773-.675-.46817A9.69529,9.69529,0,0,0,97.075,66.72352ZM92.9703,28.35518c-.21775-.196-.50084.06533-.46817.30486h-.02178a5.38055,5.38055,0,0,0,1.03433,2.14488A23.74075,23.74075,0,0,1,95.137,34.04946c.38107.871.7948,2.3082,1.99245,2.27553a.43585.43585,0,0,0,.35929-.7077c-.773-.969-1.11055-2.55862-1.67671-3.68005A11.95572,11.95572,0,0,0,92.9703,28.35518Zm-1.04522,49.648c-.871,1.3283-2.3082,2.35175-2.07956,4.0829a.35983.35983,0,0,0,.577.21775c2.44974-2.04689,3.1901-5.25877,5.30232-7.51253.27219-.294,0-.83835-.41373-.63149C93.73244,74.94376,92.86142,76.57692,91.92507,78.00321ZM84.8045,19.57967c.33752,1.361,1.263,1.97068,2.134,2.99412a8.36283,8.36283,0,0,0,3.50585,2.83081.26671.26671,0,0,0,.32663-.35929,14.842,14.842,0,0,0-2.58039-3.25543c-.89279-.93634-2.06867-1.44807-2.93969-2.41707C85.09847,19.18772,84.73918,19.32926,84.8045,19.57967ZM80.67805,90.30634a.3101.3101,0,0,0,.22864.47906c1.58961.07621,2.85258-1.18676,3.85425-2.29731a14.69327,14.69327,0,0,0,2.3953-3.48407c.18509-.40285-.40285-.63149-.64238-.32663A34.537,34.537,0,0,1,83.596,87.54085C82.63784,88.46631,81.38576,89.16313,80.67805,90.30634ZM75.256,11.46832c-.18509-.28308-.56616.02178-.46817.294.35929,1.02345,2.04689,1.63316,2.88525,2.19932,1.28475.88191,2.50418,1.89446,3.84337,2.67838a.30071.30071,0,0,0,.46817-.294c-.27219-1.35008-1.29564-2.01423-2.428-2.70016A17.86333,17.86333,0,0,0,77.771,12.64419C77.20487,12.372,75.59349,11.99093,75.256,11.46832Zm-6.07535,84.075c1.28475.69681,2.64572-.21775,3.91958-.65326,1.62227-.55527,3.21188-.969,4.268-2.38441.27219-.34841-.21775-.72948-.54439-.48995-1.263.94723-3.397,1.21943-4.91036,1.69849a8.516,8.516,0,0,0-2.76548,1.361A.29752.29752,0,0,0,69.18062,95.54333ZM64.01983,6.83015c-.35929-.0871-.69681.48995-.31574.71859,1.23031.71859,2.73282.51172,3.94136,1.20854a5.268,5.268,0,0,0,1.7747.50084,5.87918,5.87918,0,0,0,2.29731.20687.329.329,0,0,0,.18509-.5335c-.84924-1.04522-2.72193-1.11055-3.89781-1.55694A19.30818,19.30818,0,0,0,64.01983,6.83015Zm-9.5812,91.10848a.2631.2631,0,0,0,.15243.45728,15.99037,15.99037,0,0,0,5.21522-.47906,14.11246,14.11246,0,0,0,4.22444-1.18676.45319.45319,0,0,0-.392-.81658,8.309,8.309,0,0,1-1.18676.098c-1.03433.15243-2.09044.392-3.12478.55527C57.47631,96.86075,55.98469,96.741,54.43864,97.93863ZM53.16477,5.17521c-.60971-.14154-.95812.76214-.33752.92546a10.07637,10.07637,0,0,0,3.42963,0,8.83876,8.83876,0,0,1,1.938.11976c.20687.03266,1.03433-.11976,1.18676-.01089a.20219.20219,0,0,0,.294-.25042c-.03266-.06533-.06533-.14154-.098-.20687a.25257.25257,0,0,0-.20687-.15243c-.95812.03266-1.81825-.46817-2.78726-.43551A15.60888,15.60888,0,0,1,53.16477,5.17521ZM41.6129,8.27822a.35028.35028,0,0,0,.41373.38107c.58794-.15243,1.067-.50084,1.63316-.7077a20.60608,20.60608,0,0,1,2.53684-.64238c1.09966-.26131,2.526-.28308,3.44052-.9799a.35012.35012,0,0,0-.28308-.60971c-.72948.16332-1.50251.098-2.25376.20687-.94723.14154-1.89446.34841-2.81992.55527C43.16984,6.73216,41.83065,7.01524,41.6129,8.27822ZM40.60034,95.3909c-.196-.07621-.43551.15243-.32663.34841.7948,1.42629,3.26632,1.66582,4.7035,1.82914a20.52966,20.52966,0,0,0,2.95057.01089,2.73016,2.73016,0,0,0,1.938-.45728c.35929-.30486.0871-1.00167-.41373-.871a5.7098,5.7098,0,0,1-1.66582-.04355c-.82747-.05444-1.644,0-2.46063-.10888-.82747-.10888-1.66582-.27219-2.49329-.4464A14.72437,14.72437,0,0,1,40.60034,95.3909Zm-.5335-47.38338c.01089,1.69849.14154,3.70183.30486,5.38942.05444.59882,0,1.02345.51172,1.459,1.31741,1.09966,4.83415.23953,6.43465.20687.06533,1.361-.098,6.51086-.11976,6.89193-.13065,2.60217-.04355,5.21522-.18509,7.81739-.11976,2.17755-1.1541,6.39109,1.58961,7.33833a12.16539,12.16539,0,0,0,4.21355.15243c1.39363-.05444,3.68005.6206,4.95391-.22864,1.18676-.7948.78392-2.54773.84924-3.75627.13065-2.4824-.20687-4.95391-.22864-7.43632a71.18044,71.18044,0,0,0-.37018-7.469c-.0871-.7948-.47906-2.134-.07621-2.86347.48995-.871,2.31909-.68593,3.32076-.76214,1.13232-.0871,3.0159.0871,3.93047-.74037,1.05611-.94723.84924-3.27721.871-4.52929.01089-1.17587.15243-3.26632-.773-4.20266-1.00167-1.02345-2.83081-.7077-4.072-.63149-.5335.03266-2.37352.28308-2.8417-.06533-.34841-.26131-.28308-1.56783-.294-1.9489a15.01169,15.01169,0,0,1,.06533-3.35342c.15243-.871-.03266-.871.60971-1.54606.82747-.871,2.34086-.95812,3.4623-1.08877,1.55694-.196,3.005.31574,3.85425-1.09966.871-1.459.40285-4.09378.40285-5.68339,0-1.09966.25042-2.49329-1.02345-2.95057a9.04516,9.04516,0,0,0-3.65828-.18509,34.53912,34.53912,0,0,0-4.30065.27219,14.088,14.088,0,0,0-7.03347,2.53684c-4.47486,3.52762-2.46063,9.8425-3.07034,14.61133-.01089.16332.196,1.03433.14154,1.09966a15.73817,15.73817,0,0,1-1.80736.11976c-1.19765.1742-2.41707.28308-3.60384.4464C40.49146,46.026,40.056,46.4288,40.06684,48.00752Zm-8.2529,44.18239a.30731.30731,0,0,0-.26131.50084,6.06144,6.06144,0,0,0,3.79982,2.07956,13.44406,13.44406,0,0,0,3.95224.50084.31432.31432,0,0,0-.02178-.6206c-.30486-.02178-.48995-.22864-.773-.31574-.30486-.10888-.60971-.03266-.91457-.16332A6.29939,6.29939,0,0,0,36.01661,93.54a7.68974,7.68974,0,0,1-2.28642-.78392A4.2571,4.2571,0,0,0,31.81394,92.18991ZM30.57274,13.9725a.34481.34481,0,0,0,.33752.52261c1.30653-.05444,2.46063-1.19765,3.52762-1.89446,1.38274-.90368,2.97235-1.42629,4.32243-2.38441.25042-.23953.10888-.78392-.30486-.675a16.7748,16.7748,0,0,0-4.63817,1.97068C32.71762,12.18691,31.29133,12.85106,30.57274,13.9725Zm-6.1189,72.70823c-.25042-.33752-.773-.03266-.71859.33752C24.06188,89.31555,27.35,90.339,28.798,91.798a.73609.73609,0,0,0,1.27386-.59882c-.098-.99078-1.40452-1.55694-2.15577-2.01423C26.77293,88.4772,25.24865,87.79127,24.45384,86.68072ZM20.458,22.06208c-.04355.20687.20687.32663.37018.26131,1.33919-.59882,2.33-1.91624,3.495-2.79815,1.39363-1.067,2.75459-2.18843,4.17-3.24454.33752-.26131-.03266-.7077-.38107-.58794a20.17789,20.17789,0,0,0-4.85593,3.09211C22.05854,19.65589,20.78468,20.55957,20.458,22.06208Zm-4.17,54.73259c-.1742-.16332-.52261-.11976-.52261.16332a2.84962,2.84962,0,0,0,.64238,1.8618,31.3612,31.3612,0,0,0,1.75292,2.91791c.871,1.11055,2.27553,3.11389,3.83248,3.11389a.38728.38728,0,0,0,.32663-.6206A26.12293,26.12293,0,0,0,19.489,80.95378a17.65831,17.65831,0,0,1-1.28475-1.81825c-.51172-.7077-1.18676-1.25209-1.66582-1.97068C16.49491,77.00154,16.47314,76.96887,16.288,76.79467Zm-4.09378-45.1514a.411.411,0,0,0,.45728.32663,1.608,1.608,0,0,1,.22864-.01089.64486.64486,0,0,0,.47906-.40285,20.45084,20.45084,0,0,1,2.51506-3.397,17.20227,17.20227,0,0,1,1.52428-1.67671,11.70865,11.70865,0,0,0,.93634-1.28475c.25042-.32663-.18509-.88191-.54439-.64238a17.4437,17.4437,0,0,0-3.48407,3.397C13.32659,29.10643,12.03095,29.99923,12.19426,31.64327ZM10.99661,67.73608a8.05126,8.05126,0,0,0,2.3953,6.53264c.28308.25042.6206-.098.59882-.392A7.31957,7.31957,0,0,0,12.902,71.02418a13.31723,13.31723,0,0,1-1.23031-3.30987A.34238.34238,0,0,0,10.99661,67.73608ZM7.63231,56.685c-.13065,1.20854-.86013,2.29731-.68593,3.5494a4.4042,4.4042,0,0,0,1.63316,3.02679.33361.33361,0,0,0,.52261-.23953c.13065-1.165-.83835-2.12311-.88191-3.27721-.03266-1.05611.42462-2.02512.196-3.09211A.398.398,0,0,0,7.63231,56.685ZM7.18591,39.1558a4.06265,4.06265,0,0,0,.04355,3.85425c.14154.21775.45728.098.5335-.098a8.24965,8.24965,0,0,0,.45728-1.61138c.06533-.33752.01089-.69681.07621-1.03433A4.327,4.327,0,0,1,8.83,39.18847c.66415-1.23031,1.1541-2.5695,1.78559-3.82159.196-.392-.40285-.773-.69681-.47906A17.29214,17.29214,0,0,0,7.18591,39.1558Zm-.21775,6.68506a6.59527,6.59527,0,0,0-.6206,3.22277,11.02063,11.02063,0,0,1,.23953,3.778c-.06533.31574.38107.34841.50084.11976.55527-1.11055,1.165-1.6876.83835-3.0159a6.737,6.737,0,0,1-.10888-3.79982A.45132.45132,0,0,0,6.96815,45.84087ZM3.9087,51.30651c-1.067-10.21269,4.05023-20.0443,10.41955-27.6766C21.53593,15.00683,31.19334,6.48174,42.48391,3.96668A49.22839,49.22839,0,0,1,74.43939,7.98425a62.08411,62.08411,0,0,1,10.9095,7.21856c1.00167.99078,1.938,1.938,2.07956,2.06867a56.1745,56.1745,0,0,1,5.89026,5.71606,56.38367,56.38367,0,0,1,8.74284,14.36091c4.51841,10.84417,2.97235,23.81145-1.70937,34.4161-9.309,21.13307-32.57607,33.25111-55.04834,29.288C33.62131,99.00563,25.314,93.54,17.88854,84.26365,10.63732,75.20506,5.12813,62.891,3.9087,51.30651Z" fill="#3b5a9a"/>
        <path d="M99.013,59.9187a4.92878,4.92878,0,0,1,.02178-3.73449c.40285-1.27386.15243-2.67838.76214-3.90869.20687-.41373.9799-.34841.86013.18509-.23953,1.13232.1742,2.28642,0,3.40786-.10888.71859-.37018,1.35008-.43551,2.09044-.04355.58794-.098,1.17587-.11977,1.7747S99.2634,60.38687,99.013,59.9187Z"/>
        <path d="M98.26173,45.00251c.03266-1.644.01089-3.299-.07621-4.943-.01089-.294.42462-.50084.54439-.1742a14.13756,14.13756,0,0,1,1.067,4.02846,9.71658,9.71658,0,0,0,.27219,2.428,5.53571,5.53571,0,0,1,.27219,1.52428.399.399,0,0,1-.6206.28308A3.776,3.776,0,0,1,98.26173,45.00251Z"/>
        <path d="M96.106,71.26371c-.16332-1.42629.5335-3.17922.969-4.54018a9.69529,9.69529,0,0,1,2.09044-3.5494c.28308-.30486.871.098.675.46817a18.89589,18.89589,0,0,0-1.51339,4.19177,6.89635,6.89635,0,0,1-1.65493,3.6365A.34522.34522,0,0,1,96.106,71.26371Z"/>
        <path d="M93.51468,30.80492A5.38055,5.38055,0,0,1,92.48035,28.66h.02178c-.03266-.23953.25042-.50084.46817-.30486a11.95572,11.95572,0,0,1,2.8417,3.58206c.56616,1.12144.90368,2.711,1.67671,3.68005a.43585.43585,0,0,1-.35929.7077c-1.19765.03266-1.61138-1.40452-1.99245-2.27553A23.74075,23.74075,0,0,0,93.51468,30.80492Z"/>
        <path d="M89.84552,82.0861c-.22864-1.73115,1.20854-2.75459,2.07956-4.0829.93634-1.42629,1.80736-3.05945,3.38608-3.84337.41373-.20687.68593.33752.41373.63149-2.11222,2.25376-2.85258,5.46564-5.30232,7.51253A.35983.35983,0,0,1,89.84552,82.0861Z"/>
        <path d="M86.9385,22.5738c-.871-1.02345-1.79647-1.63316-2.134-2.99412-.06533-.25042.294-.392.4464-.20687.871.969,2.04689,1.48073,2.93969,2.41707A14.842,14.842,0,0,1,90.771,25.04531a.26671.26671,0,0,1-.32663.35929A8.36283,8.36283,0,0,1,86.9385,22.5738Z"/>
        <path d="M80.9067,90.7854a.3101.3101,0,0,1-.22864-.47906c.7077-1.14321,1.95979-1.84,2.91791-2.76548a34.537,34.537,0,0,0,2.91791-2.86347c.23953-.30486.82747-.07621.64238.32663a14.69327,14.69327,0,0,1-2.3953,3.48407C83.75928,89.59863,82.4963,90.86161,80.9067,90.7854Z"/>
        <path d="M74.78779,11.76229c-.098-.27219.28308-.577.46817-.294.33752.52261,1.9489.90368,2.51506,1.17587a17.86333,17.86333,0,0,1,1.78559,1.00167c1.13232.68593,2.15577,1.35008,2.428,2.70016a.30071.30071,0,0,1-.46817.294c-1.33919-.78392-2.55862-1.79647-3.84337-2.67838C76.83469,13.39545,75.14709,12.78573,74.78779,11.76229Z"/>
        <path d="M73.1002,94.89007c-1.27386.43551-2.63483,1.35008-3.91958.65326a.29752.29752,0,0,1-.03266-.46817,8.516,8.516,0,0,1,2.76548-1.361c1.51339-.47906,3.64739-.75125,4.91036-1.69849.32663-.23953.81658.14154.54439.48995C76.31208,93.92106,74.72247,94.3348,73.1002,94.89007Z"/>
        <path d="M63.70409,7.54874c-.38107-.22864-.04355-.80569.31574-.71859a19.30818,19.30818,0,0,1,3.98491.54439c1.17587.4464,3.04856.51172,3.89781,1.55694a.329.329,0,0,1-.18509.5335,5.87918,5.87918,0,0,1-2.29731-.20687,5.268,5.268,0,0,1-1.7747-.50084C66.43691,8.06046,64.9344,8.26733,63.70409,7.54874Z"/>
        <path d="M54.59106,98.39592a.2631.2631,0,0,1-.15243-.45728c1.54606-1.19765,3.03768-1.07788,4.88859-1.37185,1.03433-.16332,2.09044-.40285,3.12478-.55527a8.309,8.309,0,0,0,1.18676-.098.45319.45319,0,0,1,.392.81658,14.11246,14.11246,0,0,1-4.22444,1.18676A15.99037,15.99037,0,0,1,54.59106,98.39592Z"/>
        <path d="M52.82725,6.10067c-.6206-.16332-.27219-1.067.33752-.92546a15.60888,15.60888,0,0,0,3.41875-.01089c.969-.03266,1.82914.46817,2.78726.43551a.25257.25257,0,0,1,.20687.15243c.03266.06533.06533.14154.098.20687a.20219.20219,0,0,1-.294.25042c-.15243-.10888-.9799.04355-1.18676.01089a8.83876,8.83876,0,0,0-1.938-.11976A10.07637,10.07637,0,0,1,52.82725,6.10067Z"/>
        <path d="M42.02663,8.65929a.35028.35028,0,0,1-.41373-.38107c.21775-1.263,1.55694-1.54606,2.66749-1.79647.92546-.20687,1.87269-.41373,2.81992-.55527.75125-.10888,1.52428-.04355,2.25376-.20687a.35012.35012,0,0,1,.28308.60971c-.91457.69681-2.34086.71859-3.44052.9799a20.60608,20.60608,0,0,0-2.53684.64238C43.09363,8.15845,42.61457,8.50686,42.02663,8.65929Z"/>
        <path d="M42.12462,47.13651c-1.11055.66415-.68593,1.03433-.60971,2.09044.10888,1.49162-.58794,4.38775,1.25209,4.747,1.39363.27219,3.24454-.21775,4.7035-.11976a.58851.58851,0,0,1,.56616.59882c.577.871.33752,2.25376.35929,3.22277.05444,2.3953-.06533,4.7906-.02178,7.1859.03266,2.04689,0,4.072-.05444,6.1189a14.67265,14.67265,0,0,0,.01089,3.16833c.35929,1.63316,1.13232,1.63316,2.6566,1.69849,1.08877.04355,2.16666-.04355,3.26632.02178,1.35008.0871,2.34086.31574,2.93969-1.25209a9.69488,9.69488,0,0,0,.13065-3.27721c-.15243-4.27888-.11976-8.62308-.60971-12.88018-.294-2.62394-.7948-4.40953,2.2211-4.81237,1.88358-.25042,3.85425.20687,4.99747-1.43718,1.19765-1.72026,1.50251-5.36765-.95812-6.35843-1.61138-.65326-5.06279,1.3283-6.0318-.84924-.56616-1.25209-.21775-3.60384-.13065-4.93214.06533-.84924-.07621-2.33.46817-3.09211.81658-1.165,3.50585-1.43718,4.7035-1.57872.69681-.0871,2.06867.21775,2.62394-.13065.48995-.30486.34841-.43551.52261-1.11055a14.51373,14.51373,0,0,0,.10888-3.44052c0-1.19765.33752-2.07956-.94723-2.62394-.13065-.05444-.28308-.098-.42462-.14154-5.041.16332-11.46477-.72948-14.24114,4.24621-1.27386,2.29731-1.1541,5.30232-1.1541,7.86094,0,1.81825.74037,4.27888.20687,5.99914a.691.691,0,0,1-.63149.47906c-1.4154.06533-2.81992.294-4.23533.45728A6.13811,6.13811,0,0,0,42.12462,47.13651Zm-2.05778.871c-.01089-1.57872.42462-1.98157,2.05778-2.19932,1.18676-.16332,2.40619-.27219,3.60384-.4464a15.73817,15.73817,0,0,0,1.80736-.11976c.05444-.06533-.15243-.93634-.14154-1.09966.60971-4.76882-1.40452-11.0837,3.07034-14.61133a14.088,14.088,0,0,1,7.03347-2.53684,34.53912,34.53912,0,0,1,4.30065-.27219,9.04516,9.04516,0,0,1,3.65828.18509c1.27386.45728,1.02345,1.85091,1.02345,2.95057,0,1.58961.46817,4.22444-.40285,5.68339-.84924,1.4154-2.29731.90368-3.85425,1.09966-1.12144.13065-2.63483.21775-3.4623,1.08877-.64238.675-.45728.675-.60971,1.54606A15.01169,15.01169,0,0,0,58.086,42.629c.01089.38107-.05444,1.6876.294,1.9489.46817.34841,2.3082.098,2.8417.06533,1.2412-.07621,3.07034-.392,4.072.63149.92546.93634.78392,3.02679.773,4.20266-.02178,1.25209.18509,3.58206-.871,4.52929-.91457.82747-2.79815.65326-3.93047.74037-1.00167.07621-2.83081-.10888-3.32076.76214-.40285.72948-.01089,2.06867.07621,2.86347a71.18044,71.18044,0,0,1,.37018,7.469c.02178,2.4824.35929,4.95391.22864,7.43632-.06533,1.20854.33752,2.96146-.84924,3.75627-1.27386.84924-3.56029.1742-4.95391.22864a12.16539,12.16539,0,0,1-4.21355-.15243c-2.74371-.94723-1.70937-5.16078-1.58961-7.33833.14154-2.60217.05444-5.21522.18509-7.81739.02178-.38107.18509-5.531.11976-6.89193-1.6005.03266-5.11723.89279-6.43465-.20687-.51172-.43551-.45728-.86013-.51172-1.459C40.20838,51.70935,40.07773,49.706,40.06684,48.00752Z"/>
        <path d="M40.27371,95.73931c-.10888-.196.13065-.42462.32663-.34841a14.72437,14.72437,0,0,0,2.232.26131c.82747.1742,1.66582.33752,2.49329.4464.81658.10888,1.63316.05444,2.46063.10888a5.7098,5.7098,0,0,0,1.66582.04355c.50084-.13065.773.56616.41373.871a2.73016,2.73016,0,0,1-1.938.45728,20.52966,20.52966,0,0,1-2.95057-.01089C43.54,97.40513,41.06851,97.1656,40.27371,95.73931Z"/>
        <path d="M31.55264,92.69075a.30731.30731,0,0,1,.26131-.50084,4.2571,4.2571,0,0,1,1.91624.56616,7.68974,7.68974,0,0,0,2.28642.78392,6.29939,6.29939,0,0,1,1.57872.63149c.30486.13065.60971.05444.91457.16332.28308.0871.46817.294.773.31574a.31432.31432,0,0,1,.02178.6206,13.44406,13.44406,0,0,1-3.95224-.50084A6.06144,6.06144,0,0,1,31.55264,92.69075Z"/>
        <path d="M30.91026,14.49511a.34481.34481,0,0,1-.33752-.52261c.71859-1.12144,2.14488-1.78559,3.24454-2.46063a16.7748,16.7748,0,0,1,4.63817-1.97068c.41373-.10888.55527.43551.30486.675-1.35008.95812-2.93969,1.48073-4.32243,2.38441C33.37089,13.29746,32.21679,14.44067,30.91026,14.49511Z"/>
        <path d="M28.798,91.798c-1.44807-1.459-4.73616-2.4824-5.06279-4.77971-.05444-.37018.46817-.675.71859-.33752.7948,1.11055,2.31909,1.79647,3.4623,2.50418.75125.45728,2.05778,1.02345,2.15577,2.01423A.73609.73609,0,0,1,28.798,91.798Z"/>
        <path d="M20.82823,22.32338c-.16332.06533-.41373-.05444-.37018-.26131.32663-1.50251,1.6005-2.40619,2.79815-3.27721a20.17789,20.17789,0,0,1,4.85593-3.09211c.34841-.11976.71859.32663.38107.58794-1.4154,1.05611-2.77637,2.17755-4.17,3.24454C23.1582,20.40714,22.16742,21.72456,20.82823,22.32338Z"/>
        <path d="M16.40781,78.81979a2.84962,2.84962,0,0,1-.64238-1.8618c0-.28308.34841-.32663.52261-.16332.18509.1742.20687.20687.25042.37018.47906.71859,1.1541,1.263,1.66582,1.97068A17.65831,17.65831,0,0,0,19.489,80.95378,26.12293,26.12293,0,0,1,22.31985,84.231a.38728.38728,0,0,1-.32663.6206c-1.55694,0-2.96146-2.00334-3.83248-3.11389A31.3612,31.3612,0,0,1,16.40781,78.81979Z"/>
        <path d="M12.19426,31.64327c-.16332-1.644,1.13232-2.53684,2.11222-3.69094a17.4437,17.4437,0,0,1,3.48407-3.397c.35929-.23953.7948.31574.54439.64238a11.70865,11.70865,0,0,1-.93634,1.28475,17.20227,17.20227,0,0,0-1.52428,1.67671,20.45084,20.45084,0,0,0-2.51506,3.397.64486.64486,0,0,1-.47906.40285,1.608,1.608,0,0,0-.22864.01089A.411.411,0,0,1,12.19426,31.64327Z"/>
        <path d="M13.39191,74.26872a8.05126,8.05126,0,0,1-2.3953-6.53264.34238.34238,0,0,1,.675-.02178A13.31723,13.31723,0,0,0,12.902,71.02418a7.31957,7.31957,0,0,1,1.08877,2.85258C14.01251,74.17073,13.675,74.51914,13.39191,74.26872Z"/>
        <path d="M6.94638,60.23444c-.1742-1.25209.55527-2.34086.68593-3.5494a.398.398,0,0,1,.78392-.03266c.22864,1.067-.22864,2.036-.196,3.09211.04355,1.1541,1.01256,2.11222.88191,3.27721a.33361.33361,0,0,1-.52261.23953A4.4042,4.4042,0,0,1,6.94638,60.23444Z"/>
        <path d="M7.22946,43.01006a4.06265,4.06265,0,0,1-.04355-3.85425,17.29214,17.29214,0,0,1,2.73282-4.268c.294-.294.89279.0871.69681.47906C9.98405,36.619,9.49411,37.95815,8.83,39.18847a4.327,4.327,0,0,0-.5335,1.07788c-.06533.33752-.01089.69681-.07621,1.03433A8.24965,8.24965,0,0,1,7.763,42.91207C7.68674,43.108,7.371,43.22781,7.22946,43.01006Z"/>
        <path d="M6.34755,49.06363a6.59527,6.59527,0,0,1,.6206-3.22277.45132.45132,0,0,1,.84924.30486,6.737,6.737,0,0,0,.10888,3.79982c.32663,1.3283-.28308,1.90535-.83835,3.0159-.11976.22864-.56616.196-.50084-.11976A11.02063,11.02063,0,0,0,6.34755,49.06363Z"/>
        <path d="M14.32826,23.62991C7.95894,31.2622,2.84171,41.09382,3.9087,51.30651,5.12813,62.891,10.63732,75.20506,17.88854,84.26365,25.314,93.54,33.62131,99.00563,45.30383,101.05252c22.47226,3.96313,45.73933-8.15491,55.04834-29.288,4.68172-10.60464,6.22778-23.57192,1.70937-34.4161A56.38367,56.38367,0,0,0,93.3187,22.98753a56.1745,56.1745,0,0,0-5.89026-5.71606c-.14154-.13065-1.07788-1.07788-2.07956-2.06867a62.08411,62.08411,0,0,0-10.9095-7.21856A49.22839,49.22839,0,0,0,42.48391,3.96668C31.19334,6.48174,21.53593,15.00683,14.32826,23.62991ZM11.443,82.31475C4.63818,72.21094-1.57871,57.32742.35931,44.94807,3.71272,23.4557,24.98734.90723,47.27451.058,57.705-.334,68.74511,1.20119,77.8908,6.50352A70.65376,70.65376,0,0,1,92.91586,18.02273c1.21943,1.1541,2.26465,2.19932,2.91791,2.809a41.85625,41.85625,0,0,1,11.29057,17.54013c4.14822,12.48822,1.23031,26.9689-4.75794,38.45544a54.71673,54.71673,0,0,1-27.91613,25.22686c-10.50665,4.22444-22.87511,3.201-33.77372,1.08877C28.417,100.75855,18.31316,92.50566,11.443,82.31475Z"/>
      </g>
    </g>
  </g>
</svg>
