<svg xmlns="http://www.w3.org/2000/svg" viewBox="0 0 45.3334 68">
  <title>Recurso 2</title>
  <g id="Capa_2" data-name="Capa 2">
    <g id="Editar">
      <path d="M9.0665,31.7331H4.5337V27.2003H9.0665Zm9.0665-4.5328H13.6002v4.5328H18.133Zm-4.5328-4.5337H9.0665v4.5337h4.5337Zm9.0665,0H18.133v4.5337h4.5337ZM18.133,18.133H13.6002v4.5336H18.133Zm9.0674,0H22.6667v4.5336h4.5337Zm-4.5337-4.5329H18.133V18.133h4.5337Zm9.0665,0H27.2004V18.133h4.5328ZM27.2004,9.0665H22.6667v4.5336h4.5337Zm9.0665,0H31.7332v4.5336h4.5337ZM31.7332,4.5337H27.2004V9.0665h4.5328Zm9.0665,0H36.2669V9.0665h4.5328ZM36.2669,0H31.7332V4.5337h4.5337Zm9.0665,0H40.7997V4.5337h4.5337ZM40.7997,68h4.5337V63.4663H40.7997Zm-9.0665,0h4.5337V63.4663H31.7332Zm4.5337-4.5337h4.5328V58.9335H36.2669Zm-9.0665,0h4.5328V58.9335H27.2004Zm4.5328-4.5328h4.5337V54.3998H31.7332Zm-9.0665,0h4.5337V54.3998H22.6667Zm4.5337-4.5337h4.5328V49.867H27.2004Zm-9.0674,0h4.5337V49.867H18.133Zm4.5337-4.5328h4.5337V45.3333H22.6667Zm-9.0665,0H18.133V45.3333H13.6002Zm4.5328-4.5337h4.5337V40.7996H18.133Zm-9.0665,0h4.5337V40.7996H9.0665Zm4.5337-4.5337H18.133V36.2668H13.6002Zm-9.0665,0H9.0665V36.2668H4.5337Zm0-9.0665H0v4.5337H4.5337Zm9.0665,0H9.0665v4.5337h4.5337Zm0,0" fill="#ffec00"/>
    </g>
  </g>
</svg>
