<svg xmlns="http://www.w3.org/2000/svg" viewBox="0 0 45.3334 68">
  <title>Recurso 3</title>
  <g id="Capa_2" data-name="Capa 2">
    <g id="Editar">
      <path d="M36.2669,36.2668h4.5328v4.5328H36.2669Zm-9.0665,4.5328h4.5328V36.2668H27.2004Zm4.5328,4.5337h4.5337V40.7996H31.7332Zm-9.0665,0h4.5337V40.7996H22.6667Zm4.5337,4.5337h4.5328V45.3333H27.2004Zm-9.0674,0h4.5337V45.3333H18.133Zm4.5337,4.5328h4.5337V49.867H22.6667Zm-9.0665,0H18.133V49.867H13.6002Zm4.5328,4.5337h4.5337V54.3998H18.133Zm-9.0665,0h4.5337V54.3998H9.0665Zm4.5337,4.5328H18.133V58.9335H13.6002Zm-9.0665,0H9.0665V58.9335H4.5337ZM9.0665,68h4.5337V63.4663H9.0665ZM0,68H4.5337V63.4663H0ZM4.5337,0H0V4.5337H4.5337Zm9.0665,0H9.0665V4.5337h4.5337ZM9.0665,4.5337H4.5337V9.0665H9.0665Zm9.0665,0H13.6002V9.0665H18.133ZM13.6002,9.0665H9.0665v4.5337h4.5337Zm9.0665,0H18.133v4.5337h4.5337ZM18.133,13.6002H13.6002V18.133H18.133Zm9.0674,0H22.6667V18.133h4.5337ZM22.6667,18.133H18.133v4.5336h4.5337Zm9.0665,0H27.2004v4.5336h4.5328Zm-4.5328,4.5336H22.6667v4.5337h4.5337Zm9.0665,0H31.7332v4.5337h4.5337Zm-4.5337,4.5337H27.2004v4.5328h4.5328Zm9.0665,0H36.2669v4.5328h4.5328Zm0,9.0665h4.5337V31.7331H40.7997Zm-9.0665,0h4.5337V31.7331H31.7332Zm0,0" fill="#ffec00"/>
    </g>
  </g>
</svg>
