<svg xmlns="http://www.w3.org/2000/svg" viewBox="0 0 206.34026 189.41556">
  <title>Recurso 2</title>
  <g id="Capa_2" data-name="Capa 2">
    <g id="Editar">
      <g>
        <g>
          <g>
            <path d="M130.84018,137.9366l.54269.27515c-.09811-.13246-.16752-.22623-.22709-.30653-.09086-.03253-.183-.06513-.27509-.09746C130.86559,137.85043,130.85515,137.89377,130.84018,137.9366Z" fill="#fff"/>
            <path d="M166.068,158.34655c1.158-4.31371-.80525-12.69643-1.45881-15.18292-.99386-7.5775-2.42852-15.752-1.78792-23.6166l-2.23118.72912c7.44582-3.66742,16.658-4.94791,24.39092-6.97975,3.86578-1.016,7.73184-2.03146,11.00193-2.60572,2.23123-.729,4.90464-.86107,6.25206-2.78337-2.20876-2.98247-5.76567-4.04344-8.72553-5.546-6.36261-3.60139-12.72527-7.20269-19.2419-9.76622-4.44054-2.254-8.284-4.94972-13.47605-5.72248a3.84245,3.84245,0,0,1-.89637-.26034l1.05131-.77851c.9283-6.23,3.49134-12.74658,5.45836-18.82207.90587-2.51867,5.10431-9.32284-.088-10.09617-6.07468-1.96663-13.36577.66193-18.86616,1.9644-5.5015,1.30316-10.406,2.16441-15.90741,3.46761l.15518-1.03841a15.51394,15.51394,0,0,1-.26439-5.34659c.17645-4.74945.95059-9.94158.68518-15.28766.33251-5.78855,1.26095-12.01841,1.59253-17.80641-.13271-2.673,2.27636-8.15159.50914-10.53769-2.2316.72859-4.927,4.57257-6.71662,5.898C123.77,21.9179,121.0746,25.762,117.78307,30.04723c-3.13734,3.24721-5.83285,7.09115-8.97032,10.33841-1.08144.8009-5.45529,3.23529-6.3857,4.45919l.57528-1.07941C101.699,38.264,99.35774,32.60877,97.016,26.953c-.28691-1.63527-1.5897-7.13615-4.108-8.04238-2.07725-.309-3.13734,3.24721-3.88909,4.72807-3.60158,6.36208-7.20338,12.72416-9.7661,19.24118a18.68382,18.68382,0,0,1-.72717,3.23954c-1.12184.48031-2.33064-1.042-3.29366-1.18515a99.0983,99.0983,0,0,0-12.12827-7.6446c-3.40191-2.09947-8.12913-5.98849-11.84094-6.01068-2.673.13275-1.50278,2.96063-1.215,4.59521,2.03147,7.73252,4.218,14.42666,5.80778,21.56285.56705,3.22772,1.56516,7.03758,2.56756,10.85494-3.89738,1.83709-8.51943,2.69544-12.75291,4.07856A42.91694,42.91694,0,0,1,35.11,75.57261c-1.19362.884-6.53994,1.14874-7.29091,2.62865-3.13573,4.0823,19.56778,9.12664,23.50941,13.07179a20.49348,20.49348,0,0,0-4.90927,4.55912q-6.26407,4.63934-12.527,9.27776c-.59695.442-1.34769,1.92217-1.94441,2.36421q-.894.6621-1.7896,1.3254l-.75111,1.47973,2.51823.90633c1.48044.751,2.51893.90556,3.99858,1.65729,3.115.46433,5.63411,1.36984,7.71017,1.67927,3.115.46406,7.86473.64167,9.63186,3.02772l.59681-.442c-3.13756,3.247-3.0271,9.63194-3.04957,13.34317-1.061,3.557-1.52516,6.67213-3.028,9.63249-.751,1.4799-2.40791,5.47821-1.52409,6.67153,1.19265-.88335,2.98234-2.20871,4.175-3.09216q3.57961-2.6511,7.15834-5.30151L68.332,130.409l.59668-.442c-.75115,1.47959-1.5387,12.375-1.25211,14.00981-.75074,1.48012,15.42-10.92589,15.11-8.8488.44181.5965,6.86559,27.11806,7.46156,26.67665,2.67318-.13231,8.27708-14.91256,14.55712-23.30744,4.41829,5.96565,8.68179,12.96845,14.88967,17.60869.44172.59646,1.61186,3.42443,3.6885,3.73425,2.67309-.13235,2.85051-4.88244,3.15953-6.959,1.77386-4.93042,2.56535-10.00781,4.29723-14.94459l-.93744-.47559c.34074.11038.65063.23171.978.34675.02262-.06368.0377-.12852.06063-.19216l.21445.28962c5.35568,1.92493,9.006,4.49735,13.39334,8.10677,1.76713,2.38606,4.72713,3.88875,6.49443,6.27512,3.40238,2.09825,6.05318,5.67744,9.45509,7.77669a7.33069,7.33069,0,0,0,2.14134.82166ZM78.28553,46.712a3.0452,3.0452,0,0,1-.84477,1.2046ZM51.43735,91.3827a2.27162,2.27162,0,0,1,.35066.47336Z" fill="#ffe900"/>
          </g>
          <g>
            <path d="M106.653,137.54407c3.02169,5.00678,5.927,10.05795,9.92367,14.372,1.65551,1.787,3.51394,3.29267,4.99327,5.1736,1.01491,1.29044,1.9743,2.81541,3.75782,3.11694,2.97905.50365,4.38031-2.34124,4.96871-4.77542,1.49408-6.18093,2.86564-12.41516,4.832-18.49393l-3.00429.47621a2.99223,2.99223,0,0,0,1.31206.816,1.4253,1.4253,0,0,0,1.88712-1.54054,2.76771,2.76771,0,0,0-.46782-1.47553,1.7645,1.7645,0,0,0-3.00429.47621c-1.65157,4.70255-2.86163,9.6306-4.14406,14.44318-.31517,1.18275-.45831,2.29956-.67414,3.50637-.214,1.19675-.00386,1.97124-1.32413,2.01273-1.44476.0454-.94-.7175-1.81745-1.48795-5.96379-5.23632-10.74523-11.48588-15.95437-17.49132-.56393-.65013-1.7496.10013-1.28412.8714Z"/>
            <path d="M70.49681,128.38472c-7.6616,4.98031-15.00361,10.44892-22.4641,15.72362l2.27437.93417c-.65739-2.01507,1.10981-4.49025,1.88552-6.317a50.10591,50.10591,0,0,0,2.12339-6.7404c1.40906-5.25584.1709-10.613,3.43821-15.40848.98991-1.45289-1.23572-3.11418-2.43282-1.87128-4.26512,4.4283-2.86444,10.47245-4.10859,15.93318-.82432,3.618-2.43882,6.79676-3.53409,10.29291-.51237,1.6355-.98575,3.276-.36649,4.93188a1.58148,1.58148,0,0,0,2.594.68939c7.22985-5.54627,14.533-11.022,21.53628-16.85163.69887-.58175-.16747-1.82223-.94564-1.3164Z"/>
            <path d="M56.38493,115.7634c-2.44363-3.58458-7.43068-3.23306-11.25509-4.05515a74.34285,74.34285,0,0,1-12.73862-4.1572l.82336,2.22489c1.76689-2.88328,5.66281-5.55147,8.31433-7.50627,4.76034-3.50951,9.42063-6.79064,13.37575-11.20745a1.5037,1.5037,0,0,0-1.70159-2.43157c-2.84141,1.36039-4.61193,3.71243-7.001,5.7006-2.72386,2.2668-5.74623,4.24393-8.57664,6.37512-2.7635,2.08081-5.73847,4.63643-7.09594,7.83539a1.50532,1.50532,0,0,0,.99071,1.86171c3.18828.9631,6.10166,2.291,9.37611,2.97059,4.482.93023,10.664.81593,14.49146,3.48831.73638.51415,1.45359-.42937.99713-1.099Z"/>
            <path d="M55.20469,90.29843c-1.11291-2.75724-4.79868-3.9593-7.30966-5.01821-4.24447-1.79-8.70406-3.19378-12.81213-5.29031a8.1031,8.1031,0,0,1-2.2932-1.29211c-.99748-1.1408-1.34062-.19133.02182-1.41217,1.06928-.95815,6.47855-1.60594,7.92628-1.96588,3.35992-.83536,6.4745-2.16918,9.76063-3.2082,3.95061-1.24913,7.93466-2.09279,11.7208-3.84367,1.966-.90917.74838-4.06405-1.22416-3.14538-8.02633,3.7381-17.21374,5.78362-25.68036,8.22349-2.59243.74707-8.46323,1.73686-6.35862,5.83874,1.88518,3.67423,8.82375,5.23942,12.33828,6.53693,3.64375,1.34522,9.68213,2.521,12.42767,5.49652a.91136.91136,0,0,0,1.48265-.91973Z"/>
            <path d="M61.83731,66.92949a148.7492,148.7492,0,0,0-4.11094-19.118c-.825-3.05013-1.70226-6.08585-2.53726-9.13322-.61786-2.2549-3.08762-8.2895,1.44453-6.34541C61.911,34.59656,67.638,38.80351,72.37651,41.99923c2.68049,1.80777,6.08906,5.44794,9.57283,4.26623a1.69466,1.69466,0,0,0-.80529-3.24947c-2.39758.371-6.33864-3.58067-8.15133-4.73315-3.16323-2.01112-6.48019-3.73847-9.62161-5.781-2.61234-1.69855-7.78825-5.61746-11.17011-3.66611-3.00268,1.73256-.994,6.18958-.31033,8.62568,1.68311,5.99774,3.5214,11.9549,4.9572,18.01867a83.35594,83.35594,0,0,0,3.42057,12.0772c.38854.96707,1.68256.2333,1.56888-.62777Z"/>
            <path d="M80.3381,47.31543c2.79918-1.78578,3.08062-5.45524,4.34533-8.2908,2.34033-5.24716,5.34914-10.1393,7.99813-15.224.63706-1.22284,1.37554-4.45591,3.35338-3.397,1.09592.58674,1.5277,4.41468,1.85,5.44539,1.78665,5.7139,4.47644,11.02916,5.94679,16.88267.54182,2.157,3.99767,1.63294,3.43854-.5366-1.72037-6.67539-4.72381-12.86347-6.67222-19.43861-.77417-2.61252-2.57946-7.4679-6.15214-6.73021-3.56148.73538-5.65017,7.74057-7.14925,10.42835a119.18256,119.18256,0,0,0-5.65084,11.18376c-1.20352,2.8175-1.13826,6.06433-2.39872,8.72715a.78957.78957,0,0,0,1.091.95Z"/>
            <path d="M109.22721,43.93261c1.63552-3.17509,5.64982-6.18546,7.98786-8.96768,2.38967-2.84366,4.78633-5.63928,7.01182-8.61443a76.85706,76.85706,0,0,1,6.9111-8.32306c1.90218-1.91068,3.78947-4.49724,6.22529-5.69914l-1.89322-.70577c1.40494,2.95405-.65007,8.10935-.9405,11.39727-.4049,4.58377-1.11018,9.13621-1.54792,13.71682-.43348,4.536-.44928,9.10924-.83613,13.66052-.2863,3.36824-.72427,6.67758.01624,10.00854a2.12442,2.12442,0,0,0,4.1707-.797c-.55791-4.58774.09785-9.1753.26956-13.77872.168-4.50522.08936-8.94537.46889-13.44879.38641-4.585.45178-9.28093,1.15864-13.82057.43567-2.79794,1.184-5.48339-.16049-8.12548a1.45529,1.45529,0,0,0-1.89322-.70577c-5.709,2.6326-10.72414,9.66355-14.46194,14.46719-2.663,3.42235-5.5405,6.6452-8.30537,9.98776-2.33216,2.81944-5.66294,5.259-6.60328,8.93874-.36928,1.44507,1.76872,2.0778,2.422.80963Z"/>
            <path d="M134.10454,62.26336a136.03118,136.03118,0,0,0,16.37036-3.16c5.13947-1.277,10.47193-3.41925,15.86123-2.66916,5.74285.7993,1.92589,6.19234.622,9.54189-2.25367,5.78962-4.57209,11.78635-5.58567,17.93975-.45539,2.76469,3.74589,4.04223,4.24515,1.2316a131.62507,131.62507,0,0,1,6.28207-21.99979c1.07255-2.943,1.9386-6.38867-1.15586-8.31612-4.0493-2.52219-10.81833-1.18019-15.10489-.24488-7.2447,1.58077-14.853,2.88358-21.86818,5.28394-1.22335.41859-1.11933,2.56782.33375,2.39275Z"/>
            <path d="M162.55546,84.69263l-.87612-.28271-.60167,1.77905c7.53326,2.20435,14.523,6.09226,21.55445,9.56255,3.77216,1.8617,7.42457,3.938,11.13564,5.9142,3.4697,1.84769,7.24489,3.047,9.91865,6.0625l-.02572-2.22028c-2.48231,2.48993-7.62853,2.68746-10.94961,3.46732-3.95246.92812-7.87231,1.97633-11.8374,2.85374-6.10536,1.351-13.13577,2.42346-18.50543,5.80159-1.4342.90227-.56633,3.39293,1.17486,2.8381,7.66912-2.44376,15.2119-4.54291,23.027-6.50617,4.14652-1.04166,8.2994-2.034,12.45129-3.04287,2.6321-.63957,4.94945-1.2703,6.88526-3.21714a1.60741,1.60741,0,0,0-.02572-2.22028c-2.71865-3.13576-6.35735-4.4284-9.91309-6.3681-4.79267-2.61445-9.43327-5.4148-14.42708-7.64866-4.32313-1.93385-8.536-4.47415-12.99217-6.058-2.13632-.75931-5.41162-2.06768-7.58138-1.04606a.95158.95158,0,0,0,.35194,1.84457l.92142-.02777c.81166-.02446,1.20536-1.19549.31484-1.48558Z"/>
            <path d="M164.2726,117.90617c-1.58515,8.34217-.65061,17.17258.9697,25.46386.68722,3.51659,2.84914,9.32078,1.29832,12.79238-1.37825,3.0853-5.01263-1.346-6.6243-2.77284-2.7655-2.44843-5.57037-4.848-8.35351-7.276-5.30871-4.6312-11.38128-10.79934-18.81-11.56227a1.644,1.644,0,0,0-1.01915,3.07732c4.29576,2.67985,8.94144,4.31,12.85123,7.72184,3.91354,3.41514,7.74445,6.97508,11.56794,10.46806,3.09312,2.82574,9.653,9.47207,13.62084,4.01988,2.72022-3.73787,1.29794-10.06189.514-14.19863a224.12347,224.12347,0,0,1-3.7706-27.34529c-.0756-1.17658-1.97963-1.78233-2.24452-.38833Z"/>
            <path d="M70.87291,128.3969c-1.79215,4.51534-.55323,9.63384-1.59314,14.191a.96313.96313,0,0,0,.73664,1.11233c1.4328.39373,3.88528-1.91354,4.93363-2.60844,2.98588-1.97919,6.70014-3.76944,9.409-6.05781.22307-.18844-.0053-1.71719.23673.06289a37.171,37.171,0,0,0,1.05318,4.00714c1.03259,4.02668,2.04061,8.05928,3.103,12.07829.57054,2.1583,1.49341,11.98585,5.30468,10.05513,2.79852-1.41768,4.66354-6.75529,5.998-9.26676,2.55572-4.80994,5.994-9.51778,8.06144-14.53092.32126-.779-.739-1.31909-1.30425-.83335-4.4694,3.84057-6.9677,10.7558-9.70779,15.85665a43.32421,43.32421,0,0,1-4.04115,6.54564c-.03812.04816,1.11305,1.47875.42284.27245a10.42259,10.42259,0,0,1-.65484-2.09986c-2.22516-7.4585-3.45647-15.37631-6.11974-22.6867-1.67991-4.61117-7.5601,1.20631-10.12206,2.96454-1.57727,1.08246-3.13084,2.20312-4.72009,3.26777-.32821.21987-1.51822.74811-1.69436,1.09717q1.00209,1.83757.9907.79963l-.047-.375c.65463-1.173.02987-4.6286.11131-6.0513.13325-2.32773.07143-5.03684.85207-7.26465.278-.79349-.89131-1.33578-1.20881-.53583Z"/>
          </g>
        </g>
        <g>
          <path d="M130.73339,130.19742a1.072,1.072,0,0,1-.00731-.19862l.03339-.22744a.79614.79614,0,0,1,1.317-.386c-.65269-.67309-.28436-2.1593.03722-3.303q-3.4198-.8462-6.83439-1.713c-1.70223-.43406-2.58784-1.04275-3.215.75858a22.78677,22.78677,0,0,0-.65357,2.70412C124.52377,128.60121,127.63475,129.379,130.73339,130.19742Z" fill="#fff"/>
          <path d="M91.2013,161.886c3.5398,1.35615,7.07445,2.12972,10.58542.22027,2.69776-1.467,4.77829-4.78573,5.89837-7.495,2.16767-5.24306,2.19518-13.35589-3.4374-16.31217a.42162.42162,0,0,1-.08278-.01312c-6.91165-2.58605-13.16516,1.23965-16.73028,7.21035C83.79441,151.59251,83.67652,159.00339,91.2013,161.886Z" fill="#fff"/>
          <path d="M116.44408,147.27168a20.98614,20.98614,0,0,1-.7613,10.12523c-3.59394,10.57239-14.87467,16.9267-25.67272,13.36169-10.55323-3.48407-15.22652-15.29043-11.7447-25.50792a20.4246,20.4246,0,0,1,3.13187-5.79036c-9.88287-.61007-20.872-2.11859-29.88585-6.21941-1.28671,5.20626-2.65207,10.395-3.96775,15.58837-1.1082,4.3736-2.249,8.74037-3.32474,13.12195-.90323,3.67894-.263,6.4254,3.36231,7.80406a43.74347,43.74347,0,0,0,6.25773,1.52246q25.76922,5.61963,51.54846,11.19289,6.80926,1.47429,13.61844,2.94868c1.66063.35953,3.79,1.23325,5.48351,1.17608,1.02617-.03448,5.47969-2.06014,6.165-3.0458a13.11979,13.11979,0,0,0,.85823-3.28913c2.05982-8.06871,4.04027-16.15851,6.04366-24.24134.26894-1.0848.57653-2.18178.89344-3.28569A111.0065,111.0065,0,0,1,116.44408,147.27168Z" fill="#fff"/>
          <path d="M120.72829,113.79271c1.01073-7.1265,3.75588-14.325,5.57456-21.27781.76258-2.91552,2.02816-4.1731-1.79186-6.17087-1.30751-.68368-3.34645-.72788-4.77173-1.03787q-5.24883-1.14211-10.49509-2.29546c-3.81565-.83641-7.63552-1.65682-11.44772-2.51q-.95383-.20924-1.90793-.41842-1.92276-1.33453-1.82527.51934c-.86267,1.07051-.88124,4.10606-1.203,5.492a161.54786,161.54786,0,0,1-6.04295,20.4828,3.20488,3.20488,0,0,1,.83463.40064q1.53558.43713,3.09943.76185c1.2638.309,2.52715.62126,3.79212.92516q4.27048,1.02584,8.56814,1.92872C108.94749,111.8139,114.91612,112.503,120.72829,113.79271Zm-30.013-9.39125c-.3603-.13928-.37789-.72335.07411-.72794.41345-.00425.82653.00842,1.23969.02206-.15783-2.95567.77842-5.946,1.43094-8.82045.79566-3.50385,1.67889-6.99124,2.71881-10.43085a.8717.8717,0,0,1,.43542-.54165.689.689,0,0,1,.78187-.948c8.28938,1.59988,16.74437,3.39531,24.86906,5.6834a.86962.86962,0,0,1,.46124.309.93477.93477,0,0,1,1.18343,1.13219c-1.70712,6.10279-2.98042,12.918-5.77909,18.63313a.70682.70682,0,0,1-.699.96565,96.4687,96.4687,0,0,1-12.61734-2.04457C100.12259,106.74283,95.17918,106.12847,90.7153,104.40146Z" fill="#fff"/>
          <path d="M101.62185,112.61706c-.46746-.09982-.97312-.194-1.49595-.2868a37.81237,37.81237,0,0,1-2.68374,9.47571q1.808.45658,3.616.91277a38.98409,38.98409,0,0,1,.81665-4.78323,16.18224,16.18224,0,0,1,1.54658-4.93305Q102.51981,112.80935,101.62185,112.61706Z" fill="#fff"/>
          <path d="M131.75823,187.07777c-1.49373,1.98182-3.64056,2.45662-5.99078,2.31443-4.98435-.30148-10.26652-2.133-15.13279-3.2067q-17.00734-3.75212-34.0145-7.50363-8.74708-1.92873-17.4983-3.83787c-4.31618-.94543-9.07869-1.42968-13.16583-3.16649-8.08593-3.43588-3.48329-12.34063-1.86419-18.70608,2.85744-11.23443,5.41537-22.6015,8.92761-33.65185a.77182.77182,0,0,1,.76284-.56746c3.96329-8.89768,16.16316-3.8879,23.01262-2.15872q9.567,2.4152,19.13368,4.83044a38.21474,38.21474,0,0,1,2.5585-9.37179c-4.49237-.73449-10.04762-1.55312-12.99486-4.09286a.73136.73136,0,0,1-.231-.69481.78456.78456,0,0,1-.30828-.92859c1.42886-5.10849,2.91444-10.204,4.2307-15.34312q1.04618-4.08518,1.943-8.20676c.26158-1.20641.23637-3.53033,1.052-4.52271,1.23167-1.49906,2.48795-.9206,4.27635-.53739,5.09285,1.09152,10.17506,2.23542,15.2622,3.35281,5.00363,1.09945,10.58779,1.69961,15.40663,3.42752,1.974.70762,2.69366,1.59015,2.65,3.68628-.0927,4.46135-2.47937,9.73487-3.64551,14.01419-1.17406,4.30786-2.06484,8.84634-3.9133,12.919a.74739.74739,0,0,1-.41943.41693.78405.78405,0,0,1-.651.26334,104.83284,104.83284,0,0,1-16.16363-2.472,21.71714,21.71714,0,0,1-1.22194,4.63809c-.50015,1.68207-.90462,3.393-1.41625,5.07116q6.25556,1.579,12.511,3.15842,2.55967.64631,5.1255,1.27639c.10585-2.07422.10634-5.50959,2.45277-5.76159,1.471-.15787,3.284.635,4.727.97816q3.26018.77535,6.51251,1.58208a1.08371,1.08371,0,0,1,.78675,1.28473c-.26407,1.25779-.31728,4.18206-1.59323,5.20313a19.14636,19.14636,0,0,1,7.46312,3.39552c6.35888,5.37065,1.20785,15.94242-.39767,22.43q-2.07746,8.39475-4.14292,16.79233C134.77422,177.528,134.40588,183.56439,131.75823,187.07777Z" fill="#42afc4"/>
          <path d="M117.17817,107.99853c.68386-5.93,2.90922-11.94313,4.61123-17.66926a160.12854,160.12854,0,0,1-23.88671-5.74975.89221.89221,0,0,1-.01128.27644c-.83034,3.49533-1.71674,6.97687-2.524,10.47769-.64246,2.78639-.98321,5.80953-2.16548,8.42522,3.41836.23971,6.81944.97822,10.18621,1.55631C107.95923,106.09993,112.73318,106.651,117.17817,107.99853Z" fill="#fff"/>
          <path d="M132.05379,133.02385c-8.06077-2.30461-16.29033-4.12777-24.41835-6.18213q-12.84407-3.24658-25.68808-6.49289c-6.61285-1.67155-22.71045-8.736-26.45787-.24562a.84839.84839,0,0,1-1.11627.501c-.659,3.34795-1.40988,6.67726-2.20621,9.99715a.46449.46449,0,0,1,.40644-.1451c10.19649,1.29237,20.53308,3.04753,30.54971,5.355.77751.17919.4725,1.27873-.2835,1.17929-10.18558-1.33908-20.4789-3.29929-30.47821-5.65241a.405.405,0,0,1-.30747-.258c-.121.501-.25385.99929-.3768,1.5,10.36058,1.7389,20.32986,4.40915,30.84941,5.51628l.00291.0007c4.89781-5.41713,12.48515-8.29752,19.68369-6.12335,6.41364.94024,10.932,5.4697,13.09076,11.08182a157.658,157.658,0,0,1,23.39358,5.53811.56458.56458,0,0,1-.26375,1.09716,154.95417,154.95417,0,0,1-22.72964-5.508,21.60325,21.60325,0,0,1,.57832,2.26851c7.51578,1.36658,15.19773,2.89268,22.57278,4.8747a52.03185,52.03185,0,0,0,1.8587-8.14135C141.47781,136.72477,137.5025,134.58177,132.05379,133.02385ZM72.80855,129.5622a99.93569,99.93569,0,0,1-11.80441-2.04274.68058.68058,0,0,1-.51751-.62515.4578.4578,0,0,1-.39493-.39424c-.39969-2.25846-.0302-6.38459,2.37752-7.5172a.936.936,0,0,1,.81007.04006c1.529-.39929,3.3458.08611,4.85772.35271a17.75141,17.75141,0,0,1,5.90838,1.686.76554.76554,0,0,1,.35766.56833.8646.8646,0,0,1,1.00206.793,13.56272,13.56272,0,0,1-.68231,2.92446,9.04673,9.04673,0,0,1-.69329,2.82992c-.0203.03247-.055.04956-.08078.07725A1.05951,1.05951,0,0,1,72.80855,129.5622Z" fill="#fff"/>
          <path d="M90.52546,168.61459c9.21064,3.12415,18.86266-1.86848,22.5637-10.66781,4.38644-10.42839-1.10267-21.314-11.79392-24.43075a.80445.80445,0,0,1-.55521-.47822c-8.68174-.63545-17.39061,4.23664-20.371,12.71856C77.1871,154.81189,81.11388,165.42255,90.52546,168.61459Zm12.20235-32.187a.75391.75391,0,0,1,.91266-.32768c8.00913,2.26508,8.58064,12.73475,5.91935,19.24074-1.5239,3.725-4.43869,7.51065-8.15236,9.27676-3.33984,1.58825-7.54313.41791-10.81495-.82309C73.66469,157.37293,88.69373,130.874,102.72781,136.42762Z" fill="#fff"/>
          <path d="M73.566,122.49031a41.53511,41.53511,0,0,1-5.4735-1.11718c-1.51875-.29667-3.346-.28735-4.78474-.92919-.39277.705-.94314,1.31984-1.30689,2.06371a8.27922,8.27922,0,0,0-.76664,3.59463A103.49864,103.49864,0,0,1,72.8,127.58171a6.82313,6.82313,0,0,1,.07107-2.475A8.1551,8.1551,0,0,1,73.566,122.49031Z" fill="#fff"/>
          <path d="M117.43174,109.678a.70682.70682,0,0,0,.699-.96565c2.79867-5.71516,4.072-12.53033,5.77909-18.63313a.93477.93477,0,0,0-1.18343-1.13219.86962.86962,0,0,0-.46124-.309c-8.12469-2.28809-16.57968-4.08352-24.86906-5.6834a.689.689,0,0,0-.78187.948.8717.8717,0,0,0-.43542.54165c-1.03992,3.43961-1.92315,6.927-2.71881,10.43085-.65252,2.87443-1.58876,5.86477-1.43094,8.82045-.41316-.01364-.82625-.02631-1.23969-.02206-.452.00458-.43441.58866-.07411.72794,4.46388,1.727,9.40729,2.34137,14.09911,3.232A96.4687,96.4687,0,0,0,117.43174,109.678Zm-24.22979-5.91911c1.18228-2.61569,1.523-5.63883,2.16548-8.42522.80724-3.50082,1.69365-6.98236,2.524-10.47769a.89221.89221,0,0,0,.01128-.27644,160.12854,160.12854,0,0,0,23.88671,5.74975c-1.702,5.72612-3.92737,11.73924-4.61123,17.66926-4.445-1.34758-9.21894-1.8986-13.79-2.68334C100.02139,104.7371,96.62031,103.9986,93.20195,103.75889Z" fill="#1d1d1b"/>
          <path d="M74.72281,125.34747a13.56272,13.56272,0,0,0,.68231-2.92446.8646.8646,0,0,0-1.00206-.793.76554.76554,0,0,0-.35766-.56833,17.75141,17.75141,0,0,0-5.90838-1.686c-1.51192-.2666-3.32873-.752-4.85772-.35271a.936.936,0,0,0-.81007-.04006c-2.40772,1.13261-2.77721,5.25874-2.37752,7.5172a.4578.4578,0,0,0,.39493.39424.68058.68058,0,0,0,.51751.62515,99.93569,99.93569,0,0,0,11.80441,2.04274,1.05951,1.05951,0,0,0,1.14018-1.30756c.0258-.02769.06048-.04478.08078-.07725A9.04673,9.04673,0,0,0,74.72281,125.34747Zm-13.48859.75481a8.27922,8.27922,0,0,1,.76664-3.59463c.36375-.74387.91413-1.3587,1.30689-2.06371,1.43872.64184,3.266.63252,4.78474.92919a41.53511,41.53511,0,0,0,5.4735,1.11718,8.1551,8.1551,0,0,0-.69487,2.61636,6.82313,6.82313,0,0,0-.07107,2.475A103.49864,103.49864,0,0,0,61.23421,126.10228Z" fill="#1d1d1b"/>
          <path d="M140.32824,134.15994a19.14636,19.14636,0,0,0-7.46312-3.39552c1.276-1.02106,1.32916-3.94534,1.59323-5.20313a1.08371,1.08371,0,0,0-.78675-1.28473q-3.2542-.80141-6.51251-1.58208c-1.443-.34312-3.25606-1.136-4.727-.97816-2.34643.252-2.34692,3.68737-2.45277,5.76159q-2.56444-.63352-5.1255-1.27639-6.25547-1.57939-12.511-3.15842c.51163-1.67812.9161-3.38909,1.41625-5.07116a21.71714,21.71714,0,0,0,1.22194-4.63809,104.83284,104.83284,0,0,0,16.16363,2.472.78405.78405,0,0,0,.651-.26334.74739.74739,0,0,0,.41943-.41693c1.84846-4.07267,2.73924-8.61115,3.9133-12.919,1.16613-4.27932,3.5528-9.55285,3.64551-14.01419.0437-2.09613-.676-2.97866-2.65-3.68628-4.81884-1.72791-10.403-2.32807-15.40663-3.42752-5.08714-1.11739-10.16934-2.26129-15.2622-3.35281-1.7884-.38322-3.04468-.96168-4.27635.53739-.81558.99238-.79038,3.3163-1.052,4.52271q-.89432,4.12131-1.943,8.20676c-1.31626,5.13908-2.80183,10.23463-4.2307,15.34312a.78456.78456,0,0,0,.30828.92859.73136.73136,0,0,0,.231.69481c2.94724,2.53974,8.50249,3.35837,12.99486,4.09286a38.21474,38.21474,0,0,0-2.5585,9.37179q-9.56679-2.41505-19.13368-4.83044c-6.84946-1.72918-19.04933-6.739-23.01262,2.15872a.77182.77182,0,0,0-.76284.56746c-3.51223,11.05034-6.07017,22.41741-8.92761,33.65185-1.6191,6.36545-6.22174,15.27019,1.86419,18.70608,4.08714,1.73682,8.84965,2.22106,13.16583,3.16649q8.74972,1.91656,17.4983,3.83787,17.00758,3.74992,34.0145,7.50363c4.86627,1.07365,10.14844,2.90522,15.13279,3.2067,2.35022.1422,4.497-.33261,5.99078-2.31443,2.64765-3.51338,3.016-9.54982,4.02942-13.69554q2.05387-8.40042,4.14292-16.79233C141.53609,150.10236,146.68711,139.53059,140.32824,134.15994Zm-18.26389-9.032c.62712-1.80133,1.51274-1.19264,3.215-.75858q3.414.87,6.83439,1.713c-.32158,1.14371-.6899,2.62992-.03722,3.303a.79614.79614,0,0,0-1.317.386l-.03339.22744a1.072,1.072,0,0,0,.00731.19862c-3.09864-.8184-6.20962-1.59621-9.32262-2.36533A22.78677,22.78677,0,0,1,122.06434,125.128ZM94.54351,108.66414c-1.265-.3039-2.52831-.61614-3.79212-.92516q-1.56382-.32433-3.09943-.76185a3.20488,3.20488,0,0,0-.83463-.40064,161.54786,161.54786,0,0,0,6.04295-20.4828c.32176-1.386.34032-4.42153,1.203-5.492q-.09763-1.854,1.82527-.51934.9541.20893,1.90793.41842c3.81219.85315,7.63206,1.67356,11.44772,2.51q5.24689,1.15059,10.49509,2.29546c1.42528.31,3.46422.35419,4.77173,1.03787,3.82,1.99777,2.55444,3.25535,1.79186,6.17087-1.81868,6.9528-4.56383,14.15131-5.57456,21.27781-5.81217-1.28974-11.7808-1.97881-17.61664-3.19985Q98.81275,109.69342,94.54351,108.66414Zm7.33132,9.27136a38.98409,38.98409,0,0,0-.81665,4.78323q-1.808-.45611-3.616-.91277a37.81237,37.81237,0,0,0,2.68374-9.47571c.52282.09279,1.02849.187,1.49595.2868q.89618.19171,1.79955.38539A16.18224,16.18224,0,0,0,101.87483,117.9355Zm35.68137,38.08361c-2.00339,8.08284-3.98385,16.17263-6.04366,24.24134a13.11979,13.11979,0,0,1-.85823,3.28913c-.68528.98566-5.1388,3.01132-6.165,3.0458-1.69351.05717-3.82287-.81655-5.48351-1.17608q-6.80911-1.47453-13.61844-2.94868-25.77751-5.58123-51.54846-11.19289a43.74347,43.74347,0,0,1-6.25773-1.52246c-3.62535-1.37866-4.26554-4.12513-3.36231-7.80406,1.07578-4.38158,2.21655-8.74835,3.32474-13.12195,1.31568-5.19333,2.681-10.38212,3.96775-15.58837,9.01389,4.10083,20.003,5.60934,29.88585,6.21941a20.4246,20.4246,0,0,0-3.13187,5.79036c-3.48182,10.21749,1.19147,22.02386,11.7447,25.50792,10.798,3.565,22.07878-2.7893,25.67272-13.36169a20.98614,20.98614,0,0,0,.7613-10.12523,111.0065,111.0065,0,0,0,22.00555,5.46175C138.13272,153.83733,137.82514,154.93431,137.5562,156.01912ZM80.369,145.75637c2.98042-8.48192,11.68929-13.354,20.371-12.71856a.80445.80445,0,0,0,.55521.47822c10.69125,3.11675,16.18035,14.00236,11.79392,24.43075-3.701,8.79933-13.35306,13.792-22.5637,10.66781C81.11388,165.42255,77.1871,154.81189,80.369,145.75637Zm58.48625,5.56968c-7.37505-1.982-15.057-3.50812-22.57278-4.8747a21.60325,21.60325,0,0,0-.57832-2.26851,154.95417,154.95417,0,0,0,22.72964,5.508.56458.56458,0,0,0,.26375-1.09716,157.658,157.658,0,0,0-23.39358-5.53811c-2.15875-5.61212-6.67712-10.14158-13.09076-11.08182-7.19854-2.17417-14.78588.70622-19.68369,6.12335l-.00291-.0007c-10.51955-1.10713-20.48883-3.77738-30.84941-5.51628.123-.50076.2558-.99907.3768-1.5a.405.405,0,0,0,.30747.258c9.99931,2.35311,20.29263,4.31332,30.47821,5.65241.756.09944,1.061-1.00011.2835-1.17929-10.01663-2.30744-20.35322-4.0626-30.54971-5.355a.46449.46449,0,0,0-.40644.1451c.79632-3.31989,1.5472-6.6492,2.20621-9.99715a.84839.84839,0,0,0,1.11627-.501c3.74742-8.49038,19.845-1.42592,26.45787.24562q12.84407,3.24658,25.68808,6.49289c8.128,2.05437,16.35758,3.87752,24.41835,6.18213,5.44871,1.55792,9.424,3.70093,8.66016,10.16086A52.03185,52.03185,0,0,1,138.85525,151.32606Z" fill="#1d1d1b"/>
          <path d="M90.59251,163.79435c3.27181,1.241,7.47511,2.41134,10.81495.82309,3.71367-1.76611,6.62846-5.55174,8.15236-9.27676,2.66129-6.506,2.08978-16.97566-5.91935-19.24074a.75391.75391,0,0,0-.91266.32768C88.69373,130.874,73.66469,157.37293,90.59251,163.79435Zm-3.15788-18.298c3.56512-5.9707,9.81863-9.79641,16.73028-7.21035a.42162.42162,0,0,0,.08278.01312c5.63258,2.95628,5.60507,11.0691,3.4374,16.31217-1.12008,2.70924-3.20062,6.028-5.89837,7.495-3.511,1.90944-7.04562,1.13588-10.58542-.22027C83.67652,159.00339,83.79441,151.59251,87.43463,145.49636Z" fill="#1d1d1b"/>
        </g>
        <g>
          <path d="M18.75882,36.25111a12.74973,12.74973,0,0,0-8.58489,5.6514c-2.28811,3.5879-4.62551,8.2568-4.96291,12.5449-.4033,5.1182,3.1758,8.8564,8.1587,9.4951,10.0136,1.2852,12.2519-12.1152,12.4228-19.3887a7.543,7.543,0,0,0-.4492-2.8027,2.80175,2.80175,0,0,0,.7383-2.4668C25.46682,35.68471,21.54982,35.66421,18.75882,36.25111Z" fill="#66c7ab"/>
          <path d="M36.98342,14.16221A16.49,16.49,0,0,0,26.815,7.337c-5.7437-1.0586-17.93509,2.1065-19.93309-5.664-.77831-3.0303-5.33011-1.5752-4.61281,1.4297a9.9776,9.9776,0,0,0,1.8823,3.958,1.97974,1.97974,0,0,0,.1577,2.4355c3.6084,4.6358,7.1607,9.2988,10.3653,14.2276,1.5883,2.4433,3.5249,4.5761,5.0126,7.1191.6207,1.0605,1.6656,2.0664,2.2046,3.2187a15.07578,15.07578,0,0,1-2.7099.1368c-1.9829.0332-3.5371-.1221-5.4033.6963a22.16387,22.16387,0,0,0-10.04349,9.33c-4.32081,7.294-6.27781,18.7871,1.91649,24.1983,8.0693,5.3281,17.3496.5068,21.1689-7.4707a35.3812,35.3812,0,0,0,2.97861-12.4082c.32369-3.9834-.22611-8.0176-2.35841-11.2491a4.969,4.969,0,0,0,.3427-4.1953,9.85541,9.85541,0,0,0-1.5219-2.875q-.40725-.4878-.8218-.9677c-.1675-.1954-1.0093-1.2481-.6387-.6758a55.38518,55.38518,0,0,0-5.0986-6.8135c-1.9932-2.2383-3.6011-4.9277-5.4302-7.3086q-1.20045-1.563-2.4018-3.125a47.77806,47.77806,0,0,0,8.9326.8965c4.1406.124,7.3637.3652,10.4765,3.4092a20.5224,20.5224,0,0,1,3.6104,5.2939c.98921,1.9024,1.4809,4.5674,3.6318,5.5039a1.74762,1.74762,0,0,0,2.3028-.7129C42.83793,22.39371,38.91412,16.80291,36.98342,14.16221Zm-13.2812,29.7637a24.62144,24.62144,0,0,1-.3491,7.5908c-.6475,4.2188-2.0308,9.2383-5.7261,11.7959-4.146,2.8692-9.9902,1.628-11.7793-3.3447-1.6885-4.6895.5601-10.8887,3.2998-14.7676a16.87774,16.87774,0,0,1,5.4233-4.8056c1.9204-1.1133,3.9322-.5723,6.0445-.5206a13.36419,13.36419,0,0,0,2.0932-.1113A35.13089,35.13089,0,0,1,23.70222,43.92591Z" fill="#463131"/>
        </g>
      </g>
    </g>
  </g>
</svg>
