<svg xmlns="http://www.w3.org/2000/svg" viewBox="0 0 22.5108 20.92078">
  <title>gift</title>
  <g id="f5c9a8b1-5d11-4941-9b7d-f91ca938e350" data-name="Capa 2">
    <g id="6d4ca1c7-37eb-4be5-9f3a-79244cb33365" data-name="Layer 6">
      <g>
        <path d="M10.19961,4.06727l-.10131.10157-.1019-.10157a1.5939,1.5939,0,0,0-2.20119-.00033,1.55568,1.55568,0,0,0,0,2.20178l2.071,2.071a.3282.3282,0,0,0,.46426,0l2.07092-2.071a1.55786,1.55786,0,0,0,0-2.20145A1.59406,1.59406,0,0,0,10.19961,4.06727ZM12.20075,5.1678a.89435.89435,0,0,1-.26354.63673L10.0983,7.64337,8.25947,5.80421A.89994.89994,0,0,1,9.53215,4.53146l.33406.33373a.3282.3282,0,0,0,.46426,0l.33339-.3334a.922.922,0,0,1,1.27334-.00033A.894.894,0,0,1,12.20075,5.1678Z" fill="#f46819"/>
        <path d="M22.003,15.90368c-1.2046-.6606-3.5444-2.0136-3.7212-2.1406l-.1094-.1318c-.7207-.877-2.6377-3.207-7.5483-1.5518a6.21282,6.21282,0,0,1-2.54979.3755c-.18951-.021-.38231-.0571-.56981-.0923-.0459-.0088-.0914-.0171-.1363-.0254A24.66173,24.66173,0,0,0,4.46,10.30118a4.87612,4.87612,0,0,0-1.8843-.2676,1.8482,1.8482,0,0,0-1.8999-.143,1.51191,1.51191,0,0,0-.6474.9702,2.34627,2.34627,0,0,0,.497,1.7466c.1192.1748,2.962,4.2963,6.7496,6.0966a6.68668,6.68668,0,0,0,3.0952.4937l4.8232-.6729a3.12275,3.12275,0,0,1,1.37991.1607l2.63089,2.0298a.98832.98832,0,0,0,.6025.2055,1.00965,1.00965,0,0,0,.2051-.0214.983.983,0,0,0,.6626-.4952l1.7168-3.167A.98662.98662,0,0,0,22.003,15.90368ZM5.8023,12.39938a2.65963,2.65963,0,0,0-.61791.2808l-1.8277-1.6137a2.50161,2.50161,0,0,1,.7024.1507A14.51511,14.51511,0,0,1,5.8023,12.39938ZM19.815,19.92328l-2.6108-2.0132a2.97259,2.97259,0,0,0-1.7041-.396,4.25748,4.25748,0,0,0-.4307.0186l-4.8047.6713a5.64127,5.64127,0,0,1-2.5601-.4033c-3.54629-1.685-6.2402-5.5913-6.353-5.7568a1.39038,1.39038,0,0,1-.3408-.9956.50425.50425,0,0,1,.2261-.3296c.1588-.1078.49.0015.7352.1258l2.6731,2.3601a1.15048,1.15048,0,0,0-.1793.5195c-.0474.7431.6069,1.3833,1.751,1.7133a29.44029,29.44029,0,0,0,6.0546.709h.0083a.5.5,0,0,0,.0083-1,29.04087,29.04087,0,0,1-5.7939-.6699c-.79689-.2295-1.0381-.563-1.0303-.6885.0078-.1206.2783-.4087,1.0645-.5298a2.98775,2.98775,0,0,1,.79291.0874c.21149.0396.42919.0796.64259.1036a7.25078,7.25078,0,0,0,3.003-.4307c4.2373-1.4258,5.7197.3794,6.4326,1.2476l.1196.144c.24221.2856,3.9653,2.3501,3.99321,2.3501Z" fill="#f46819"/>
        <path d="M15.11745,3.1991,10.34409.07317a.45192.45192,0,0,0-.49307,0L5.078,3.1991a.4507.4507,0,0,0-.20342.37656v.88551a.44971.44971,0,0,0,.45.45H5.6862V9.57039a.44985.44985,0,0,0,.45.45h7.92742a.44975.44975,0,0,0,.45-.45V4.91119H14.871a.44971.44971,0,0,0,.45-.45V3.57567A.4508.4508,0,0,0,15.11745,3.1991Zm-.69649.81207h-.35734a.44978.44978,0,0,0-.45.45V9.12039H11.93V9.117h-.675v.00341H9.77762V9.117h-.675v.00341H6.58621V4.46118a.44971.44971,0,0,0-.45-.45H5.77458V3.81869l4.323-2.831,4.32341,2.831Z" fill="#f46819"/>
      </g>
    </g>
  </g>
</svg>
