<svg xmlns="http://www.w3.org/2000/svg" viewBox="0 0 77.1045 47.31908">
  <title>Recurso 3</title>
  <g id="Capa_2" data-name="Capa 2">
    <g id="Editar">
      <g>
        <path d="M0,20.322q8.8902-4.7577,17.77932-9.5146C24.2608,7.34448,30.7554,3.905,37.2124.39528a2.46434,2.46434,0,0,1,2.6802.0019Q55.02595,8.55493,70.209,16.62478q3.4512,1.84425,6.8955,3.6972v.1504c-2.082,1.1553-4.1533,2.3321-6.2539,3.4571a1.31418,1.31418,0,0,0-.7959,1.3583c.044,1.9063.0215,3.8145.0088,5.7208a1.13625,1.13625,0,0,0,.4297.9687,2.08339,2.08339,0,0,1,.2363,3.0615,2.0572,2.0572,0,0,1-2.9599.0332,2.03236,2.03236,0,0,1,.1718-3.1103,1.09893,1.09893,0,0,0,.4034-.9112c-.0088-1.6787-.0176-3.3603.0019-5.041.0088-.58-.1738-.5674-.5908-.3066q-2.71287,1.69035-5.4443,3.3525a.921.921,0,0,0-.5205.9092c.0791,1.8506-.1241,3.708.1211,5.5576a1.43608,1.43608,0,0,1-.75,1.3076,10.00542,10.00542,0,0,1-3.7793,1.6084A62.49325,62.49325,0,0,1,45.8741,40.117c-3.3565.2207-6.7129.3447-10.0723.2314a72.941,72.941,0,0,1-16.0889-1.9121,11.67211,11.67211,0,0,1-3.41258-1.3477,1.98685,1.98685,0,0,1-1.04682-2.1054c.1733-1.7139.0434-3.4571.0561-5.1885.0049-.4473-.3174-.5869-.6186-.7627q-5.91945-3.438-11.8394-6.8809C1.8985,21.59738.9497,21.033,0,20.47238Zm39.5738,18.0498c1.3198-.0439,3.6538.002,5.9858-.1298a79.23945,79.23945,0,0,0,9.417-.9688,13.00979,13.00979,0,0,0,3.5342-.999c.26852-.1328.5683-.2979.584-.6328.01752-.3848-.31548-.545-.5996-.6973a6.839,6.839,0,0,0-1.63188-.5693,66.205,66.205,0,0,0-14.10452-1.4932,121.21061,121.21061,0,0,0-17.3564.5928,29.36992,29.36992,0,0,0-6.2564,1.2373c-.4619.1621-1.1005.3066-1.1128.876-.0122.6162.6485.7705,1.1294.9384a23.885,23.885,0,0,0,4.8413,1.0586A109.25442,109.25442,0,0,0,39.5738,38.37178ZM16.0655,24.67068a21.34711,21.34711,0,0,1,8.9707-4.2579,62.25581,62.25581,0,0,1,20.6386-1.0615c5.5118.5537,10.85552,1.666,15.3389,5.2637.2168-.9463.1768-1.1406-.4385-1.7471a13.53967,13.53967,0,0,0-2.8906-2.1484,29.65618,29.65618,0,0,0-10.0508-3.2149,63.04186,63.04186,0,0,0-13.58048-.4892,41.373,41.373,0,0,0-10.26472,1.8223,18.74928,18.74928,0,0,0-7.1992,3.9531A1.72922,1.72922,0,0,0,16.0655,24.67068Z" fill="#1d1d1b" fill-rule="evenodd"/>
        <path d="M66.7657,47.31908a3.89488,3.89488,0,0,1,.0234-1.5371q.331-4.45755.6357-8.917c.0577-.8604.042-.873.8536-.6045a3.68765,3.68765,0,0,0,2.288-.123c.5206-.1563.7276-.0489.7237.5293-.0176,2.6074-.0049,5.2148-.0137,7.8203,0,.249.084.6552-.3789.5361-1.5664-.3975-2.4844.5713-3.4023,1.5615C67.27932,46.81908,67.169,47.15408,66.7657,47.31908Z" fill="#1d1d1b" fill-rule="evenodd"/>
        <path d="M39.5738,38.37178a109.25442,109.25442,0,0,1-15.5699-.7871,23.885,23.885,0,0,1-4.8413-1.0586c-.4809-.1679-1.1416-.3222-1.1294-.9384.0123-.5694.6509-.7139,1.1128-.876a29.36992,29.36992,0,0,1,6.2564-1.2373,121.21061,121.21061,0,0,1,17.3564-.5928,66.205,66.205,0,0,1,14.10452,1.4932,6.839,6.839,0,0,1,1.63188.5693c.28412.1523.61712.3125.5996.6973-.0157.3349-.31548.5-.584.6328a13.00979,13.00979,0,0,1-3.5342.999,79.23945,79.23945,0,0,1-9.417.9688C43.2276,38.37378,40.8936,38.32788,39.5738,38.37178Z" fill="none" fill-rule="evenodd"/>
        <path d="M16.0655,24.67068a1.72922,1.72922,0,0,1,.5239-1.8799,18.74928,18.74928,0,0,1,7.1992-3.9531,41.373,41.373,0,0,1,10.26472-1.8223,63.04186,63.04186,0,0,1,13.58048.4892,29.65618,29.65618,0,0,1,10.0508,3.2149,13.53967,13.53967,0,0,1,2.8906,2.1484c.6153.6065.6553.8008.4385,1.7471-4.48338-3.5977-9.8271-4.71-15.3389-5.2637a62.25581,62.25581,0,0,0-20.6386,1.0615A21.34711,21.34711,0,0,0,16.0655,24.67068Z" fill="none" fill-rule="evenodd"/>
      </g>
    </g>
  </g>
</svg>
