<svg xmlns="http://www.w3.org/2000/svg" viewBox="0 0 36.35453 21.15622">
  <title>gorro</title>
  <g id="8f06ea99-e156-43ce-ad95-04df38af7fb5" data-name="Capa 2">
    <g id="1d6556a8-de3c-45f5-85cd-b59905f499f5" data-name="Layer 6">
      <g>
        <g>
          <path d="M18.29982,19.96384a.65208.65208,0,0,1-.12988-.01367,25.815,25.815,0,0,1-5.57812-1.90625c-3.12988-1.43164-4.30469-2.6958-4.33594-4.66309-.00684-.76953-.01465-1.04932-.02148-1.32959-.00781-.28467-.01562-.56934-.02344-1.34766a.65051.65051,0,0,1,.64453-.65625h.00586a.65031.65031,0,0,1,.65039.64355c.00684.76563.01465,1.04541.02148,1.32568.00781.28467.01563.56934.02344,1.34766.01465.98633.2998,1.999,3.57617,3.498a26.0676,26.0676,0,0,0,4.49707,1.63184L17.51857,13.831a.65006.65006,0,0,1,.63379-.66553.64183.64183,0,0,1,.665.63428l.13184,5.498a.65115.65115,0,0,1-.64941.666Z" fill="#f46819"/>
          <path d="M18.2881,19.96384a.6508.6508,0,0,1-.64941-.63477l-.13086-5.498a.65006.65006,0,0,1,.63379-.66553h.01563a.64888.64888,0,0,1,.64941.63428l.1123,4.68848a26.10374,26.10374,0,0,0,4.4873-1.72461,16.42633,16.42633,0,0,0,1.64648-.895.64988.64988,0,0,1,.69531,1.09814,17.3296,17.3296,0,0,1-1.77832.96875,25.82842,25.82842,0,0,1-5.54,2.0127A.69874.69874,0,0,1,18.2881,19.96384Z" fill="#f46819"/>
        </g>
        <path d="M18.2422,14.71091a.65609.65609,0,0,1-.22656-.04053L.42385,8.13327A.65.65,0,0,1,.41213,6.91892L17.87306.04489A.65441.65441,0,0,1,18.33791.0405L35.93068,6.57956a.65.65,0,0,1,.01172,1.21436L18.48049,14.666A.659.659,0,0,1,18.2422,14.71091ZM2.46974,7.50632l15.76562,5.85889L33.88478,7.20652,18.11818,1.34568Z" fill="#f46819"/>
        <path d="M28.88869,16.36277a.65061.65061,0,0,1-.65039-.645l-.03809-5.41016-8.416-3.33984a.65.65,0,1,1,.48047-1.208L29.08693,9.2612a.651.651,0,0,1,.41016.59912l.042,5.84766a.65071.65071,0,0,1-.64551.65479Z" fill="#f46819"/>
        <path d="M18.14455,7.19675c-1.46582,0-2.53223-.665-2.543-1.58984-.00781-.93506,1.06641-1.623,2.55469-1.63672a3.24455,3.24455,0,0,1,2.18457.70117,1.2525,1.2525,0,0,1,.40039.88525h0A1.46271,1.46271,0,0,1,19.832,6.82907a3.761,3.761,0,0,1-1.64453.36719Zm-1.20117-1.603a2.12855,2.12855,0,0,0,1.23145.30273,2.099,2.099,0,0,0,1.22559-.32568A2.12719,2.12719,0,0,0,18.169,5.27,2.1004,2.1004,0,0,0,16.94338,5.59372Zm2.50879-.0791Z" fill="#f46819"/>
        <path d="M30.51955,21.15622H27.47267a.65017.65017,0,0,1-.65039-.65039V17.39157a2.1873,2.1873,0,1,1,4.34766,0v3.11426A.65017.65017,0,0,1,30.51955,21.15622Zm-2.39648-1.30078h1.74609V17.39157a1.04069,1.04069,0,0,0-.873-1.12988,1.04069,1.04069,0,0,0-.873,1.12988Z" fill="#f46819"/>
      </g>
    </g>
  </g>
</svg>
