<svg xmlns="http://www.w3.org/2000/svg" viewBox="0 0 337.91602 83.29492">
  <title>Recurso 7</title>
  <g id="Capa_2" data-name="Capa 2">
    <g id="Editar">
      <path d="M54.90527,11.51172l4.41211,1.76514V15.9248Q37.25391,36.81274,37.25293,51.228v8.82568q0,4.41284,15.00391,4.41309,17.65283-4.70654,17.65234-18.53418l-.88281-.88281q-3.82617,1.76514-14.12109,1.76514h-.88281l-.88281.88281q-9.70752-1.35278-9.708-4.41309V40.63721l2.64746-2.64795H57.55273q12.88623,0,18.53418-3.53027,5.29541,0,5.2959,5.29541v.88281q-2.707,2.94287-7.06152,18.53418Q63.73047,73.29248,46.96191,73.29248q-19.4165-2.29468-19.417-19.417,0-17.65137,22.06445-40.59863Z" fill="#f39b00"/>
      <path d="M114.56738,17.45459q6.76611,0,8.82617,9.7085-1.29492,7.94312-7.94336,22.94678a81.58235,81.58235,0,0,0,28.24219,5.29541l2.64746,4.41309q0,3.47241-7.94238,6.17822-34.834-7.06055-39.7168-10.59131H96.916Q98.91553,73.176,101.3291,77.47021q-1.7666,5.29541-3.53125,5.29541H94.26758q-4.64795,0-9.708-47.65967,1.23633-6.178,3.53027-6.17773h1.76563l5.29492,5.29541q8.6499-13.70874,13.23926-15.00391ZM97.79785,48.34473v.88281q15.00439-5.17676,15.00391-19.417v-4.4126h-3.53027Q97.79883,33.22388,97.79785,48.34473Z" fill="#f39b00"/>
      <path d="M165.22754,26.81006q10.59082,5.23755,10.59082,12.356l.88281,2.64795-1.76562,8.82568q0,10.533,4.41309,23.82959-1.29492,3.53027-2.64746,3.53027h-2.64844q-2.94141-1.53076-6.17773-11.47363-10.88525,8.82568-16.76855,8.82617-6.70752,0-8.82617-12.35645,0-21.8877,19.417-35.30322ZM151.10645,62.99561v2.64795h5.29492q9.709-6.76538,9.709-12.35645v-16.769h-1.76562Q151.10547,45.93335,151.10645,62.99561Z" fill="#f39b00"/>
      <path d="M200.35449,20.3374H203.002a8.91593,8.91593,0,0,1,4.41309,5.2959q-.23584,2.354-9.709,9.708-6.17725,9.17944-6.17773,15.00391v7.061q0,6.178,7.94336,6.17773l7.06055-.88232q0,1.76514,2.64746,1.76514v2.64746a14.31566,14.31566,0,0,1-12.35547,6.17822q-15.88623,0-15.88672-19.417v-.88232Q180.9375,34.1062,200.35449,20.3374Z" fill="#f39b00"/>
      <path d="M220.3584,16.04248h.88281l3.53027,3.53027v2.64746a8.91208,8.91208,0,0,1-5.29492,4.41309q-4.002-1.70581-4.41309-3.53027V21.33789Q215.06348,16.04248,220.3584,16.04248ZM222.124,35.459h.88281q3.53027,1.17773,3.53027,7.94336V56.64111q1.35205,9.70825,4.41309,9.7085h6.17773v2.64746q-2.001,3.2959-7.06055,6.17822h-1.76562q-9.12012,0-12.35547-19.417l-.88281-11.47314Q215.06348,35.45874,222.124,35.459Z" fill="#f39b00"/>
      <path d="M262.13477,26.81006q10.59082,5.23755,10.59082,12.356l.88281,2.64795-1.76562,8.82568q0,10.533,4.41309,23.82959-1.29492,3.53027-2.64746,3.53027H270.96q-2.94141-1.53076-6.17773-11.47363-10.88525,8.82568-16.76855,8.82617-6.70752,0-8.82617-12.35645,0-21.8877,19.417-35.30322ZM248.01367,62.99561v2.64795h5.29492q9.709-6.76538,9.709-12.35645v-16.769H261.252Q248.0127,45.93335,248.01367,62.99561Z" fill="#f39b00"/>
      <path d="M302.14551,22.33838q7.94238,1.76514,7.94238,4.4126v3.53027q-17.71-1.29346-22.06445,12.35645,0,5.29541,14.12207,12.356,4.41211,5.35474,4.41211,7.94336-4.708,14.12109-19.416,14.12109-5.53125,0-7.94336-4.41309a7.99254,7.99254,0,0,1,7.44336-3.26514q4.38135.50024,8.44336-4.67773l.88184-2.64795q-17.65137-10.53149-17.65137-20.29932V38.22461Q290.19971,22.33838,302.14551,22.33838Z" fill="#f39b00"/>
      <path d="M325.56055,71.82129h1.76465q4.7666,0,6.17773,3.53076v4.4126l-4.41211,3.53027q-3.2959,0-7.06055-5.29541Q322.03027,73.23364,325.56055,71.82129Zm6.17773-66.19336q5.29541,2.0603,5.29492,12.356V33.87061l.88281,18.53418q-1.76514,5.29541-3.53027,5.29541-7.94238,0-7.94336-10.59082V32.10547l-.88184-23.82959A9.94412,9.94412,0,0,1,331.73828,5.62793Z" fill="#f39b00"/>
      <path d="M6.17773,77.667Q.88232,75.60669.88281,65.311V49.42432L0,30.89014q1.76514-5.29541,3.53027-5.29541,7.94238,0,7.94336,10.59082V51.18945L12.35547,75.019A9.94412,9.94412,0,0,1,6.17773,77.667Zm6.17773-66.19336H10.59082q-4.7666,0-6.17773-3.53076V3.53027L8.8252,0q3.2959,0,7.06055,5.29541Q15.88574,10.06128,12.35547,11.47363Z" fill="#f39b00"/>
    </g>
  </g>
</svg>
