<svg xmlns="http://www.w3.org/2000/svg" viewBox="0 0 49.52116 67.92761">
  <title>Recurso 3</title>
  <g id="Capa_2" data-name="Capa 2">
    <g id="Editar">
      <g>
        <g>
          <path d="M20.43858,6.51084a3.67441,3.67441,0,0,0,.3662-.3027,1.76513,1.76513,0,0,0-.8184-3.0645,1.89513,1.89513,0,0,0-.2509-.0488,2.46661,2.46661,0,0,0-1.416.209,3.73935,3.73935,0,0,0-.7305.3291,4.9592,4.9592,0,0,0-.4268.2871,3.54368,3.54368,0,0,0-.3193-1.2442,3.79017,3.79017,0,0,0-.2149-.4072c-.0048-.0117-.0058-.0234-.0107-.0351a1.592,1.592,0,0,0-1.03418-1.0039,2.11311,2.11311,0,0,0-.97462-.1582.97342.97342,0,0,0-.2988.0468.45848.45848,0,0,1-.0791.0176,1.74814,1.74814,0,0,0-1.0488,1.0449c-.4561.8594.0507,2.083.2421,2.9463a9.24532,9.24532,0,0,1,.2393,1.9082,11.68465,11.68465,0,0,0,.0732,1.5674.607.607,0,0,0,.2168.3613.673.673,0,0,0,.96.3487,10.41583,10.41583,0,0,1,1.7285-.6397,13.4601,13.4601,0,0,0,1.7871-.7441C18.8761,7.70424,20.12018,7.168,20.43858,6.51084Z" fill="#fff"/>
          <path d="M21.64948,6.77164a3.02312,3.02312,0,0,0-.4863-3.9903,3.22716,3.22716,0,0,0-3.79.2432,2.40663,2.40663,0,0,0-.0352-.5235,3.77806,3.77806,0,0,0-.915-1.5849A2.00717,2.00717,0,0,0,13.32918.587c-.957.8974-1.0693,2.4414-1.0312,3.6621a31.80586,31.80586,0,0,0,.5683,4.0215.52225.52225,0,0,0,.0821.8261,3.46423,3.46423,0,0,0,2.2373.3331,15.53851,15.53851,0,0,0,2.3935-.4307C19.09188,8.627,20.72568,8.11244,21.64948,6.77164Zm-4.9121,1.1591a11.86734,11.86734,0,0,1-1.748.2686,5.34513,5.34513,0,0,1-.8096-.0205c-.0019-.8457-.4355-1.7715-.5059-2.5635a9.72354,9.72354,0,0,1,.0264-3.1113,2.47007,2.47007,0,0,1,.6563-1.1778c.2988-.2998.7236-.0869,1.0039.1192a5.18692,5.18692,0,0,1,1.0371,1.0361,1.83821,1.83821,0,0,1,.1953,1.5576.29873.29873,0,0,0,.5801.1416c.0175-.0664.03512-.1308.0517-.1992a.33035.33035,0,0,0,.2989-.1123c.8408-.9307,2.5849-1.3584,3.4003-.1465.7081,1.0518-.0127,2.5703-.957,3.1729A10.04314,10.04314,0,0,1,16.73738,7.93074Z" fill="#1d1d1b"/>
        </g>
        <g>
          <path d="M9.05288,13.45814a4.88157,4.88157,0,0,0-.2647-.502,2.117,2.117,0,0,0-3.7959.2324,2.24177,2.24177,0,0,0-.11618.2813,2.94349,2.94349,0,0,0-.09182,1.7119,4.4751,4.4751,0,0,0,.2109.9356,5.996,5.996,0,0,0,.2344.5712,4.256,4.256,0,0,0-1.5371.0762,4.02483,4.02483,0,0,0-.5273.1572c-.0137.002-.0293.002-.044.003a1.90445,1.90445,0,0,0-1.4238.9756,2.52037,2.52037,0,0,0-.419,1.1064,1.26246,1.26246,0,0,0-.0146.3623c.0019.0332,0,.0654.0019.0986a2.07923,2.07923,0,0,0,.9737,1.4766c.9004.7422,2.458.4385,3.5195.4199a10.96612,10.96612,0,0,1,2.2959.1748,14.01167,14.01167,0,0,0,1.8574.2852.71843.71843,0,0,0,.4756-.168.80684.80684,0,0,0,.6397-1.0439,12.13585,12.13585,0,0,1-.3389-2.1797,16.35018,16.35018,0,0,0-.4492-2.2764C10.0831,15.57824,9.7491,13.98934,9.05288,13.45814Z" fill="#fff"/>
          <path d="M9.64858,12.09874c-1.1797-1.2236-3.5049-1.5996-4.8018-.3799a3.86655,3.86655,0,0,0-.6172,4.5078,2.70214,2.70214,0,0,0-.6221-.083,4.52427,4.52427,0,0,0-2.08.6953,2.40738,2.40738,0,0,0-1.1241,3.5557c.8262,1.3369,2.6133,1.835,4.05372,2.083a38.35228,38.35228,0,0,0,4.85838.292.62609.62609,0,0,0,.9883.0996,4.13876,4.13876,0,0,0,.9229-2.5478,17.81138,17.81138,0,0,0,.06442-2.9141C11.215,15.544,11.0021,13.501,9.64858,12.09874Zm.1914,6.043a14.33712,14.33712,0,0,1-.1045,2.1172,6.73445,6.73445,0,0,1-.2149.9453c-.9951-.2002-2.1816.0908-3.1289-.0176a11.71724,11.71724,0,0,1-3.6494-.7705,2.95616,2.95616,0,0,1-1.2246-1.0537c-.2813-.4209.0703-.8682.3769-1.1494a6.21881,6.21881,0,0,1,1.4649-.9678,2.20073,2.20073,0,0,1,1.8769.1396.35778.35778,0,0,0,.3018-.6484c-.0703-.0361-.1445-.0723-.2197-.1074a.39523.39523,0,0,0-.0615-.3799c-.8936-1.2061-.9786-3.3574.6386-4.0264,1.4024-.5791,3.0156.6289,3.4961,1.8789A12.07448,12.07448,0,0,1,9.84,18.14174Z" fill="#1d1d1b"/>
        </g>
        <g>
          <path d="M44.49227,36.87314a18.70351,18.70351,0,0,0,.3701-2.1133c.7354-6.9013-5.8379-11.041-11.8916-8.0918a8.70426,8.70426,0,0,0-.9951.5723,11.10527,11.10527,0,0,0-4.2383,4.9092,16.80079,16.80079,0,0,0-1.5351,3.2861,21.93586,21.93586,0,0,0-.6231,2.2481,16.12036,16.12036,0,0,0-4.7744-3.3291,15.33632,15.33632,0,0,0-1.9375-.752,1.35741,1.35741,0,0,1-.1396-.0898c-2.0957-1.3047-4.2442-1.1534-6.5137-.3789a9.54038,9.54038,0,0,0-3.8145,2.3359,4.72922,4.72922,0,0,0-.8847,1.0518c-.0713.1044-.1514.1962-.22168.2998-1.459,2.1308-1.03032,4.3623-.50592,6.6689.9737,4.3037,6.335,7.0029,9.5518,9.4004a41.73755,41.73755,0,0,1,6.4639,5.8398,52.52285,52.52285,0,0,0,4.8916,5.1514,2.72057,2.72057,0,0,0,1.8134.5996,3.05024,3.05024,0,0,0,4.32722-1.6406,45.81808,45.81808,0,0,1,4.03318-7.3037,61.51081,61.51081,0,0,0,3.92382-7.8447C42.6661,45.60164,45.34287,40.07534,44.49227,36.87314Z" fill="#fff"/>
          <path d="M49.42,34.18764c-.6963-6.3897-6.7802-12.8955-13.4814-12.25-6.4453.6123-10.98148,6.0332-12.2803,12.0507a10.04738,10.04738,0,0,0-1.6699-1.6884c-2.2656-1.7705-5.06928-2.2373-7.8291-2.7344-5.9043-1.0645-10.9346,1.8828-11.5908,8.0303-.624,5.9101,3.5654,11.5371,7.3017,15.6113,4.1924,4.5752,9.1602,8.1436,13.8526,12.1191a2.36755,2.36755,0,0,0,2.7246,2.587c3.458-.3428,6.2978-3.1124,8.6592-5.4815a67.40749,67.40749,0,0,0,6.93552-8.5664C46.13,48.11824,50.22077,41.51574,49.42,34.18764ZM36.003,52.70224a54.51346,54.51346,0,0,1-5.21188,6.0879,24.84951,24.84951,0,0,1-2.83492,2.3311c-2.5098-2.9024-6.7305-4.7774-9.3125-7.295-3.3731-3.2763-6.9268-6.5283-9.1309-10.75a11.18729,11.18729,0,0,1-1.22168-5.9863c.13278-1.9131,2.21878-2.4355,3.78808-2.5654a23.562,23.562,0,0,1,6.6221.4951c2.6299.5732,4.0234,2.5566,5.2881,4.7607a1.35307,1.35307,0,0,0,2.4052-1.2373c-.1298-.2714-.2666-.5507-.4101-.831a1.4838,1.4838,0,0,0,.6934-1.2774c.1201-5.6767,4.8466-12.3046,11.2314-10.5615,5.5352,1.5127,7.5605,8.8594,6.1064,13.71C42.55287,44.44444,38.97177,48.70224,36.003,52.70224Z" fill="#1d1d1b"/>
        </g>
        <g>
          <path d="M30.5411,14.28914a5.12077,5.12077,0,0,0,.22848-.5195,2.11665,2.11665,0,0,0-2.541-2.8291,2.232,2.232,0,0,0-.292.084,2.93108,2.93108,0,0,0-1.3984.9922,4.29271,4.29271,0,0,0-.6016.748,5.64988,5.64988,0,0,0-.3007.5371,4.27133,4.27133,0,0,0-1.0166-1.1562,4.04014,4.04014,0,0,0-.45018-.3155.31089.31089,0,0,1-.03032-.0332,1.90519,1.90519,0,0,0-1.6484-.5097,2.5547,2.5547,0,0,0-1.127.3594,1.20537,1.20537,0,0,0-.2939.2158c-.02538.0205-.0508.04-.0762.0615a2.08009,2.08009,0,0,0-.5508,1.6807c-.02338,1.166,1.18262,2.1982,1.8584,3.0185a10.85289,10.85289,0,0,1,1.2891,1.9072,14.23275,14.23275,0,0,0,.9306,1.6319.72689.72689,0,0,0,.4287.2695.8076.8076,0,0,0,1.2159-.1484,12.10508,12.10508,0,0,1,1.496-1.6211,16.1779,16.1779,0,0,0,1.50492-1.7656C29.52258,16.41514,30.55868,15.16614,30.5411,14.28914Z" fill="#fff"/>
          <path d="M31.97667,13.91124a3.62218,3.62218,0,0,0-2.6875-3.998,3.86834,3.86834,0,0,0-3.91508,2.3183,2.68241,2.68241,0,0,0-.32122-.54,4.54142,4.54142,0,0,0-1.8379-1.1973,2.41,2.41,0,0,0-3.4844,1.3301c-.5322,1.4785.18652,3.1865.8887,4.4707a38.24615,38.24615,0,0,0,2.791,3.9863.62519.62519,0,0,0,.5371.8369,4.14558,4.14558,0,0,0,2.5693-.8593,18.0912,18.0912,0,0,0,2.3213-1.7608C30.2521,17.28034,31.71887,15.84284,31.97667,13.91124Zm-4.6162,3.9053a14.11664,14.11664,0,0,1-1.7227,1.2334,6.72871,6.72871,0,0,1-.874.4209c-.4619-.9043-1.4268-1.6524-1.93068-2.4629a11.71668,11.71668,0,0,1-1.665-3.3379,2.9429,2.9429,0,0,1,.06438-1.6133c.1543-.4834.7237-.4853,1.1348-.4199a6.24892,6.24892,0,0,1,1.6689.5459,2.20527,2.20527,0,0,1,1.0577,1.5566.3576.3576,0,0,0,.6953-.166c-.0166-.0771-.0332-.1582-.0528-.2392a.39.39,0,0,0,.2588-.2833c.3907-1.4501,2.0215-2.8544,3.5518-2.0019,1.3252.7393,1.3818,2.7529.7002,3.9062A12.029,12.029,0,0,1,27.36048,17.81654Z" fill="#1d1d1b"/>
        </g>
      </g>
    </g>
  </g>
</svg>
