<svg xmlns="http://www.w3.org/2000/svg" viewBox="0 0 53.56271 51.37742">
  <title>Recurso 16</title>
  <g id="Capa_2" data-name="Capa 2">
    <g id="Editar">
      <g>
        <path d="M9.67337,36.17912A22.804,22.804,0,0,1,7.64217,34.601c-6.2207-5.5254-3.7403-14.5117,4.0097-16.7715a11.238,11.238,0,0,1,1.3516-.2988,13.32882,13.32882,0,0,1,7.7207.9375,19.50032,19.50032,0,0,1,4.0117,1.6797,26.8701,26.8701,0,0,1,2.3633,1.4882,19.29418,19.29418,0,0,1,1.5547-6.8027,18.13819,18.13819,0,0,1,1.1133-2.2324c.0175-.0664.03121-.1328.0488-.1973.8047-2.8418,2.832-4.4492,5.4746-5.5937a11.39962,11.39962,0,0,1,5.2695-.9981,5.42462,5.42462,0,0,1,1.6289.2168c.1465.0274.291.0508.4375.0859,3.0137.7149,4.4375,3.0372,5.836,5.504,2.6054,4.6054.0312,11.3222-.8907,16.0527a49.91835,49.91835,0,0,0-1.02139,10.3926,62.60061,62.60061,0,0,1-.18361,8.5156,3.27833,3.27833,0,0,1-1.1211,2,3.661,3.661,0,0,1-5.166,2.0332c-2.9551-1.5313-6.3028-2.2598-9.4747-3.2285a73.19167,73.19167,0,0,1-9.8085-3.7852C18.33357,42.44672,11.50147,39.71232,9.67337,36.17912Z" fill="#e04654"/>
        <path d="M25.56007,49.27482a80.65576,80.65576,0,0,0,13.0625,2c4.0039.1992,8.7617.3652,12.1035-2.123a2.83988,2.83988,0,0,0,.3301-4.4961c.957-7.3106,2.4766-14.4864,2.5059-21.9239.02731-6.6347-.7949-15.0058-6.1192-19.7422-5.541-4.9257-12.3808-3.4746-16.7578,2.2286-2.0449,2.664-4.1601,5.3457-4.7402,8.7422a12.45449,12.45449,0,0,0-.125,2.8476c-6.0039-4.293-14.3984-5.4375-20.6172-.7832-6.4629,4.834-6.6094,15.5176-2.0684,21.75C8.33747,44.91742,17.29057,47.474,25.56007,49.27482Zm-13.2715-11.0762c-5.2109-3.1328-9.3476-11.2812-5.65619-17.0918,4.25779-6.7031,13.80269-4.6289,18.49019.3067a1.77036,1.77036,0,0,0,1.6446.5722c.0996.3633.205.7227.3085,1.0743a1.62153,1.62153,0,0,0,3.129-.8457c-.65629-2.9786-1.0176-5.8614.8476-8.4922a28.51859,28.51859,0,0,1,5.4746-5.7832c1.5-1.1524,3.77351-2.3731,5.4356-.7793a13.32759,13.32759,0,0,1,3.7422,6.2968c1.457,5.5215.9238,11.2715.5781,16.9043-.2617,4.3125-2.4903,9.3907-2.377,13.9864a30.23566,30.23566,0,0,1-4.3945.2129,63.87329,63.87329,0,0,1-9.5313-1.1934C24.107,42.21432,17.49957,41.33142,12.28857,38.19862Z" fill="#463131"/>
      </g>
    </g>
  </g>
</svg>
