<svg xmlns="http://www.w3.org/2000/svg" viewBox="0 0 83.26014 76.25139">
  <title>Recurso 5</title>
  <g id="Capa_2" data-name="Capa 2">
    <g id="Editar">
      <g>
        <path d="M82.50881,33.0471q-2.90475-2.3994-5.7949-4.8194c1.8984-.0537,3.5693-2.8506,1.7519-4.2627q-1.67565-1.30365-3.3505-2.6054a3.04217,3.04217,0,0,0,.2529-3.9014,27.63109,27.63109,0,0,0-9.0615-7.1924,2.611,2.611,0,0,0-2-.1758A105.60784,105.60784,0,0,0,53.751,4.7502a2.53963,2.53963,0,0,0-3.4268,1.0371c-.3154-.1816-.6279-.3672-.9433-.5469a2.30018,2.30018,0,0,0-2.4561.1182,78.16345,78.16345,0,0,0-6.79-4.2236,2.51733,2.51733,0,0,0-3.6035,1.9882c-.7666-.4218-1.5283-.8515-2.29889-1.2675-2.17091-1.1729-4.70111,1.582-3.12981,3.4511q-1.40625-.67965-2.82719-1.3369c-2.05171-.9463-4.36621,1.2549-3.18941,3.1162-1.2325-.5918-2.4707-1.1738-3.7198-1.7344-1.7187-.7734-3.8759.9766-3.2802,2.5567a2.29693,2.29693,0,0,0-3.128,2.3027c-.0341-.0176-.0683-.0351-.1035-.0527a2.214,2.214,0,0,0-2.6709,3.4609c.0176.0196.0352.0401.0537.0596l-.2607-.1436a2.18286,2.18286,0,0,0-3.0879,2.6582c-.4014-.0664-.8066-.1289-1.2197-.1787-1.7061-.206-2.4932,1.9893-1.6768,3.2334-1.789.0528-3.3515,2.0772-1.6621,3.627.2871.2617.5742.5254.8604.7871-1.542-.0117-2.91409,1.499-2.2373,2.9141-1.96879-.5782-3.9786,1.957-2.2071,3.5546q1.2906,1.1631,2.5811,2.3272a2.20759,2.20759,0,0,0-.7071,3.3887c.2022.2412.4112.4726.61531.7099a1.74831,1.74831,0,0,0-.21391,2.3799l-.0303.0303c.9395.7627,1.8936,1.5,2.8536,2.2275a1.90236,1.90236,0,0,0-.211,1.6612c-1.27439.2646-2.2441,2.0009-.9961,2.9707q.83506.6504,1.666,1.3046c-1.0498.2715-1.81829,1.6543-.7724,2.4747q2.4462,1.91895,4.9023,3.8261c-.9219.0274-1.8574.9356-1.164,1.8633a20.90873,20.90873,0,0,0,7.9189,6.6465.95885.95885,0,0,0,1.2754-1.3232c2.04,1.1943,4.0654,2.415,6.06351,3.6865a1.60834,1.60834,0,0,0,2.31829-1.1348c1.5655,1.1719,3.13771,2.333,4.7266,3.4688.0078-.0137.0166-.0274.0244-.042,1.4912.705,3.2422-.9034,2.4688-2.2178q.6108.38385,1.2207.7676a1.88681,1.88681,0,0,0,2.8877-1.418q1.62885,1.09275,3.2558,2.1846c1.9072,1.2763,3.55471-.9658,2.8662-2.6797.4737.2431.93651.498,1.4199.7295a2.37074,2.37074,0,0,0,1.294.2344c.4551.2656.915.5214,1.3691.789a2.18013,2.18013,0,0,0,2.877-.791c.4306.2441.85351.5039,1.2803.7559.1845.166.36521.3378.5498.5058a2.03438,2.03438,0,0,0,.4297,3.2676q4.7094,2.9853,9.4062,5.9902c2.35251,1.5098,4.5459-2.2549,2.18851-3.7451-.69921-.4424-1.39361-.8896-2.09181-1.333a1.96539,1.96539,0,0,0-.6944-1.6074c-.25-.2344-.5039-.4639-.75579-.6973a2.31709,2.31709,0,0,0,1.51949-3.0508,2.373,2.373,0,0,0,2.3701-2.6015c1.8125.0156,3.3809-1.836,2.2881-3.4961,2.0615.4785,3.8574-2.5781,2.1348-4.0166.1689.0498.3369.0986.5049.1494,2.3222.6826,3.624-1.833,2.7119-3.5723a2.44426,2.44426,0,0,0,1.0859-3.6396c2.3535,1.166,5.1533-2.0342,2.9356-3.918-.1123-.0947-.21779-.1963-.3301-.292l.0156.0059c2.2813.9531,4.3731-2.6885,2.4492-4.208-.18549-.1475-.3681-.2979-.5537-.4444a3.41357,3.41357,0,0,0,.4766-.5586,2.514,2.514,0,0,0,2.8105-.7783C83.20511,36.0656,83.86042,34.1633,82.50881,33.0471Z" fill="#f6f6f6"/>
        <path d="M81.417,30.4777C78.53231,15.3557,65.26761,3.9631,50.55371.965,35.377-2.1268,14.46291,2.0685,5.24421,15.6125c-7.4512,10.9473-6.792,26.8096.8955,37.4531,9.539,13.208,28.8896,18.8486,44.0029,12.8799a.96229.96229,0,0,0,.0557.1973A16.05139,16.05139,0,0,0,69.85451,75.51a1.41957,1.41957,0,0,0,.335-2.5625c-3.74509-2.1231-5.2617-4.9092-6.6192-8.4493C76.65631,59.1037,84.05761,44.3195,81.417,30.4777ZM61.94731,61.6613A1.17656,1.17656,0,0,0,60.46,62.7844c-.211,4.0849,2.334,7.9707,5.5058,10.6318a13.7861,13.7861,0,0,1-13.6455-8.167.96468.96468,0,0,0-1.0488-.5586.91214.91214,0,0,0-1.1426-.7724c-12.80949,2.3613-26.872,1.1406-36.9941-7.8594a30.66586,30.66586,0,0,1-8.0879-33.4121c5.3369-14.1153,22.46-19.7149,36.4063-19.5469,14.2197.1719,27.9697,7.4922,34.2539,20.582C82.39851,37.6164,76.78811,55.8225,61.94731,61.6613Z" fill="#1d1d1b"/>
        <g>
          <path d="M55.51421,36.2648c.32321-.5752.7148-.9316.5893-1.4209a17.50939,17.50939,0,0,0,.5713-1.8945,25.25834,25.25834,0,0,0,3.2202-3.2471c1.7696-2.2724-1.0117-5.2461-3.2021-3.1845-.0479.0468-.0723.1064-.1201.1513a9.34491,9.34491,0,0,0-1.9029-3.7812c-2.9121-3.3604-8.4443-.5039-10.85049,2.6308a1.9484,1.9484,0,0,0-.60751.2959,39.0178,39.0178,0,0,0-6.47949,6.21,14.59535,14.59535,0,0,0-.98381,1.2871,2.50465,2.50465,0,0,0-1.7037-1.2871c.2334-.3164.4258-.583.5328-.7607a1.99012,1.99012,0,0,0-.6128-2.8467,7.12929,7.12929,0,0,0,.4057-.9541,2.02606,2.02606,0,0,0-1.4453-2.6084,2.01693,2.01693,0,0,0,.1768-.9571,14.98614,14.98614,0,0,0,1.3164-1.6875,1.98446,1.98446,0,0,0,.1347-1.915,2.46053,2.46053,0,0,0-3.9975-1.6924,11.64489,11.64489,0,0,0-2.125,2.4444,16.903,16.903,0,0,0-2.88329,3.665,2.21658,2.21658,0,0,0,.50239,2.7891,6.72748,6.72748,0,0,0-.2959,1.0097,2.27316,2.27316,0,0,0,.6118,2.168,4.74875,4.74875,0,0,0,.754.5049,6.63088,6.63088,0,0,0-.3648.876,2.21054,2.21054,0,0,0,.7749,2.2998,4.424,4.424,0,0,0-.0723,2.9795,2.39294,2.39294,0,0,0,2.5088,1.6572,3.89843,3.89843,0,0,0,.7437,2.8174,2.502,2.502,0,0,0,2.1841,1.1015,2.27992,2.27992,0,0,0,2.6767,1.2119.04621.04621,0,0,0,.0152-.0087c-.1612.2958-.3223.5917-.4859.8828a2.30321,2.30321,0,0,0,1.4448,3.331,5.03021,5.03021,0,0,0,3.4727-.5312,2.2713,2.2713,0,0,0,2.30081,2.0058c2.82619-.3242,4.01169-2.3086,5.97649-4.1435a54.82227,54.82227,0,0,0,5.7857-6.6309c.3135-.1875.2534-.6562.478-1.0615Zm-3.3794-5.0683c-1.439,1.206-2.9502,2.3291-4.479,3.4502,1.55661-1.6973,3.16261-3.3477,4.789-4.9756.0259.3808.0347.7695.0259,1.1592C52.357,30.9523,52.24811,31.0744,52.13481,31.1965Z" fill="#ff4c78"/>
          <path d="M40.92042,29.1437c.98729-5.9707,7.43359-8.1543,12.78759-6.8691,6.71441,1.6123,6.044,8.9805,3.166,13.5391-5.2397,8.2998-19.4907,16.8642-29.5688,14.9804-2.0327-.3799-2.8999,2.7266-.8574,3.1094,7.4638,1.3945,15.229-2.1055,21.499-5.8379,6.2148-3.7012,13.1235-9.5742,14.3213-17.1133,2.3696-14.9209-22.187-16.4082-24.4566-2.666-.3359,2.0342,2.771,2.9063,3.10891.8574Z" fill="#36363e"/>
          <path d="M38.02831,31.7355c4.4654-6.8877-2.25-19.749-11.0376-15.7373-5.6279,2.5694-5.3129,11.6651-4.3701,16.4844,1.7613,9.0108,8.4077,16.9443,14.3755,23.5781,1.3936,1.5479,3.6675-.7402,2.2798-2.2822-7.0132-7.7949-16.2671-18.9473-13.5806-30.2637,2.5552-10.7656,14.2388-.6425,9.5484,6.5918-1.13529,1.751,1.65671,3.3653,2.7846,1.6289Z" fill="#36363e"/>
        </g>
      </g>
    </g>
  </g>
</svg>
