<svg xmlns="http://www.w3.org/2000/svg" viewBox="0 0 23.49355 24.76925">
  <title>Recurso 24</title>
  <g id="Capa_2" data-name="Capa 2">
    <g id="Editar">
      <g>
        <path d="M2.851,6.37538a10.36592,10.36592,0,0,1,.1699-1.0996,4.15747,4.15747,0,0,1,7.1924-2.0078,5.12789,5.12789,0,0,1,.3965.4492,5.76479,5.76479,0,0,1,1.2685,3.1192,8.4765,8.4765,0,0,1,.2071,1.873c-.00388.377-.0215.791-.0664,1.2071a8.33908,8.33908,0,0,1,2.9013-.8399,7.31108,7.31108,0,0,1,1.0791-.0488c.0284-.0078.0577-.0176.086-.0235a3.73808,3.73808,0,0,1,3.2676.8965,4.95605,4.95605,0,0,1,1.4843,1.7832,2.39828,2.39828,0,0,1,.2608.6641c.0195.0605.042.1191.0595.1836a4.10156,4.10156,0,0,1-.8574,3.3652c-1.1953,1.9551-4.2803,2.3926-6.26367,3.0371a21.54556,21.54556,0,0,0-4.14842,1.7969,27.26856,27.26856,0,0,1-3.2617,1.7207,1.42192,1.42192,0,0,1-.9922-.0039,1.58764,1.58764,0,0,1-1.8574-1.5293,23.87578,23.87578,0,0,0-.7676-4.2656,31.90747,31.90747,0,0,1-.6289-4.5059C2.30021,10.97108,1.89891,7.811,2.851,6.37538Z" fill="#dc4654"/>
        <path d="M1.23381,15.14108a34.68141,34.68141,0,0,0,1.9883,5.3652c.7656,1.5566,1.7021,3.3926,3.3477,4.1348a1.228,1.228,0,0,0,1.7695-.8204,74.90953,74.90953,0,0,0,8.82622-3.6562c2.51747-1.3848,5.51167-3.4551,6.18747-6.4668.7001-3.1328-1.2872-5.416-4.3653-5.875a8.85,8.85,0,0,0-4.3066.043,5.396,5.396,0,0,0-1.1035.5527c.3623-3.1758-.9688-6.5937-4.03708-7.9707C6.353-.982,2.27871,1.20938.87254,4.23678-.73689,7.70748.17811,11.63318,1.23381,15.14108Zm1.4024-7.3516c.0908-2.6289,2.3066-5.9082,5.2812-5.7324,3.4326.2051,4.6524,4.2519,3.7705,7.0644a.76615.76615,0,0,0,.1279.7422c-.1162.1153-.2304.2285-.3418.3418a.70277.70277,0,0,0,.9786,1.0078,4.32533,4.32533,0,0,1,3.3925-1.4629,12.22792,12.22792,0,0,1,3.3399.8555c.751.3242,1.6914.9297,1.43753,1.8926a5.77707,5.77707,0,0,1-1.59673,2.7402,23.01656,23.01656,0,0,1-6.27727,3.7715c-1.68852.8086-4.07822,1.0313-5.794,2.041a13.45894,13.45894,0,0,1-1.00582-1.6191,27.68711,27.68711,0,0,1-1.5508-3.8594C3.601,13.10788,2.54631,10.42228,2.63621,7.78948Z" fill="#463131"/>
      </g>
    </g>
  </g>
</svg>
