<svg xmlns="http://www.w3.org/2000/svg" viewBox="0 0 106.94457 106.4552">
  <title>Recurso 9</title>
  <g id="Capa_2" data-name="Capa 2">
    <g id="Editar">
      <g>
        <path d="M44.91548,53.738A10.76828,10.76828,0,0,1,47.387,46.3343c.01089-.01089.02178,0,.02178-.01089,2.18843-1.938,4.03935-2.711,6.91371-2.35175a8.25951,8.25951,0,0,1,7.01169,5.93381c1.58961,4.8777-1.938,12.37934-7.28389,12.95639A8.05746,8.05746,0,0,1,48.748,61.38114C45.96071,59.60644,44.92637,56.96072,44.91548,53.738Z" fill="#a53f92"/>
        <path d="M71.88438,41.20618a4.98562,4.98562,0,0,0,1.7747-3.17922c.22864-1.17587.6206-2.79815-.38107-3.73449A6.01936,6.01936,0,0,0,69.21689,32.888a3.24113,3.24113,0,0,0-1.9489.66415,1.67588,1.67588,0,0,0-.30486.38107,4.37928,4.37928,0,0,0-1.78559,4.99747,4.774,4.774,0,0,0,2.41707,2.79815A5.388,5.388,0,0,0,71.88438,41.20618ZM37.37029,52.63829c-.78392,7.05525,5.16078,14.65488,12.07449,16.12472,3.93047.83835,7.54519.93634,11.30146-.76214,3.24454-1.459,5.0519-4.23533,6.402-7.3601,2.907-6.68506,2.428-14.69843-2.91791-19.96809-3.12478-3.08123-7.28389-3.94136-11.60631-3.53851a15.64835,15.64835,0,0,0-4.366,1.01256,7.94879,7.94879,0,0,0-1.99245,1.25209,11.02117,11.02117,0,0,0-1.91624.81658A15.07965,15.07965,0,0,0,40.58217,43.645,17.60246,17.60246,0,0,0,37.37029,52.63829ZM31.02275,64.83254c-.02178-6.5-.33752-13.087-.02178-19.587.26131-5.19344.01089-12.17248,5.60718-14.33913a45.30887,45.30887,0,0,1,4.77971-.30486c3.03768-.098,6.0318.16332,9.05859.196,5.84671.06533,11.7043-.1742,17.54013.20687,2.99412.20687,6.80483.37018,7.32744,3.974a59.14223,59.14223,0,0,1,.45728,8.44887c.01089,5.237.294,10.4631.294,15.711a41.60284,41.60284,0,0,1-.76214,8.37266c-.60971,2.907-1.21943,6.38021-4.39864,7.469-4.30065,1.46984-9.505,1.03433-13.99073,1.33919-2.21021.15243-4.42042.02178-6.64151.11976a45.65911,45.65911,0,0,1-9.603-.1742A16.88744,16.88744,0,0,1,34.64836,74.392C30.82677,72.19265,31.03363,68.63236,31.02275,64.83254Z" fill="#a53f92"/>
        <path d="M98.23267,55.71952a8.15119,8.15119,0,0,0,.05444,3.08123.30513.30513,0,0,0,.43551.1742c1.17587-.88191.92546-2.49329,1.07788-3.83248.18509-1.70937.48995-3.32076-.33752-4.8777-.20687-.392-.76214-.10888-.675.28308C99.10369,52.09391,98.43954,54.15169,98.23267,55.71952ZM96.839,38.21206c-.28308-.32663-.75125.098-.577.4464a35.90913,35.90913,0,0,1,1.361,3.85425c.41373,1.263.51172,2.68927,1.25209,3.82159a.311.311,0,0,0,.5335,0c.75125-1.40452.13065-3.09211-.4464-4.464A15.14283,15.14283,0,0,0,96.839,38.21206ZM95.4563,68.3275c-.5335,1.79647-1.27386,3.09211-.84924,4.99747a.273.273,0,0,0,.48995.06533,16.302,16.302,0,0,0,1.7747-4.93214,13.9983,13.9983,0,0,0,.71859-4.32243.44661.44661,0,0,0-.89279,0,8.28729,8.28729,0,0,1-.41373,1.12144C95.97891,66.25884,95.75027,67.31495,95.4563,68.3275ZM90.4915,26.21378c.04355,1.7747,1.1541,3.24454,2.04689,4.7035.82747,1.35008,1.13232,3.09211,2.79815,3.62561a.36112.36112,0,0,0,.4464-.43551c-.81658-3.08123-3.40786-5.12812-4.54018-7.99159C91.09033,25.73472,90.48061,25.7565,90.4915,26.21378ZM87.60625,82.85173A18.39178,18.39178,0,0,1,86.41949,84.768a.25233.25233,0,0,0,.1742.43551c1.62227-.10888,2.88525-2.24287,3.65828-3.47318a21.34366,21.34366,0,0,0,1.263-2.66749,2.76506,2.76506,0,0,0,.41373-1.9489.50626.50626,0,0,0-.969,0,6.06616,6.06616,0,0,1-.75125,1.50251c-.40285.7077-.69681,1.48073-1.13232,2.16666C88.61881,81.50165,88.10709,82.17669,87.60625,82.85173Zm-5.4112-64.79285a9.59,9.59,0,0,0,2.31909,3.397c1.04522.969,2.33,2.35175,3.70183,2.81992a.35063.35063,0,0,0,.42462-.43551,6.90111,6.90111,0,0,0-2.59128-3.04856,18.70438,18.70438,0,0,1-3.14655-3.14655C82.65234,17.31851,82.04263,17.67781,82.19505,18.05888ZM81.10628,89.86342a4.3356,4.3356,0,0,0-1.3283,1.48073c-.11976.21775.07621.55527.34841.45728a6.03711,6.03711,0,0,0,3.48407-2.55862,13.11876,13.11876,0,0,0,2.14488-3.35342.31043.31043,0,0,0-.56616-.23953c-.15243.26131-.42462.33752-.6206.55527-.22864.22864-.28308.5335-.54439.75125a6.54352,6.54352,0,0,0-1.23031,1.165A8.0066,8.0066,0,0,1,81.10628,89.86342ZM73.13647,12.14684c-.43551-.33752-.82747.33752-.54439.69681.86013,1.07788,2.24287,1.44807,3.22277,2.35175a4.99933,4.99933,0,0,0,3.36431,1.62227c.5335-.03266.83835-.7948.294-1.07788-.52261-.27219-1.03433-.577-1.54606-.86013-.64238-.37018-1.11055-.88191-1.70937-1.28475C75.28135,12.96342,74.051,12.84366,73.13647,12.14684ZM71.66662,95.66658c-.42462.07621-.35929.68593,0,.7948,2.19932.68593,4.54018-1.85091,6.4782-2.54773a.73654.73654,0,0,0,0-1.40452c-.94723-.33752-2.01423.59882-2.74371,1.08877C74.26879,94.33828,73.00581,95.42705,71.66662,95.66658ZM60.94222,8.543c-.34841-.03266-.34841.4464-.07621.55527q2.28642.94723,4.50752,2.04689a3.8065,3.8065,0,0,0,3.4623.02178.4024.4024,0,0,0,0-.68593,5.04979,5.04979,0,0,0-1.49162-.40285,9.80581,9.80581,0,0,1-2.3082-.7948A14.08259,14.08259,0,0,0,60.94222,8.543Zm-1.263,90.23747a.63741.63741,0,0,0-.4464.06533.30683.30683,0,0,0-.06533.55527,2.94884,2.94884,0,0,0,1.95979.20687,32.14148,32.14148,0,0,0,3.38608-.34841c1.37185-.32663,3.78893-.74037,4.44219-2.14488a.382.382,0,0,0-.42462-.55527,25.21513,25.21513,0,0,0-4.17,1.165,18.38509,18.38509,0,0,1-2.18843.38107C61.3124,98.26875,60.52848,98.64982,59.67924,98.78047Zm-10.62642.38107a.34175.34175,0,0,0-.26131.6206,7.98768,7.98768,0,0,0,6.92459.60971c.34841-.15243.1742-.59882-.0871-.7077a7.38113,7.38113,0,0,0-3.04856-.22864A13.22047,13.22047,0,0,1,49.05282,99.16154ZM48.05115,8.837c-.27219.11976-.15243.47906.07621.55527V9.414a5.45979,5.45979,0,0,0,2.37352-.02178,23.553,23.553,0,0,1,3.61472-.0871c.969.02178,2.43885.26131,2.91791-.83835a.43348.43348,0,0,0-.48995-.6206c-1.20854.28308-2.78726-.098-4.05023-.05444A11.84427,11.84427,0,0,0,48.05115,8.837ZM37.66426,97.39773a.39456.39456,0,0,0-.30486.71859c1.03433.64238,1.70937,1.75292,2.91791,2.134a4.43439,4.43439,0,0,0,3.44052-.18509.341.341,0,0,0,0-.577c-.99078-.6206-2.27553-.14154-3.34253-.59882C39.4063,98.46473,38.73126,97.63726,37.66426,97.39773ZM36.64081,11.99441a.2593.2593,0,0,0,0,.50084c1.37185.27219,2.3082-.30486,3.60384-.66415a8.30138,8.30138,0,0,0,4.06112-1.95979.27341.27341,0,0,0-.18509-.45728,15.35493,15.35493,0,0,0-4.05023.95812C38.851,10.775,37.882,11.62423,36.64081,11.99441ZM27.898,93.46726a.45461.45461,0,0,0-.64238.64238,6.567,6.567,0,0,0,2.6566,1.92713,10.96156,10.96156,0,0,1,3.52762,1.39363c.25042.196.47906-.196.31574-.40285-.773-.969-1.03433-1.76381-2.37352-2.04689A6.79749,6.79749,0,0,1,27.898,93.46726ZM25.23048,17.67781c-.33752.04355-.21775.52261.06533.55527,1.07788.10888,2.35175-1.165,3.22277-1.67671,1.33919-.7948,2.77637-1.459,4.06112-2.34086a.30129.30129,0,0,0-.07621-.54439c-1.3283-.33752-2.37352.31574-3.47318,1.04522a17.78418,17.78418,0,0,0-1.66582,1.18676C26.87452,16.306,25.84019,17.5907,25.23048,17.67781ZM23.40134,65.64912c-.30486,6.31488.577,13.34835,6.95726,16.1465,7.13146,3.11389,15.77631,2.3953,23.37595,2.40619,7.13146.02178,14.84.03266,21.82989-1.6005,2.711-.63149,5.03013-3.65828,5.96647-6.206,1.33919-3.68005,1.04522-8.438,1.04522-12.28135.01089-9.28723.56616-18.52-.02178-27.79636-.196-3.11389.05444-7.20767-2.53684-9.39611-3.44052-2.89613-6.89193-2.63483-11.06193-2.81992-4.7035-.21775-9.38522.07621-14.05605-.35929a66.82681,66.82681,0,0,0-11.051-.04355,48.18751,48.18751,0,0,0-7.88271.43551c-3.61472.56616-7.39277,1.99245-9.41788,5.21522-1.8618,2.96146-2.27553,6.60885-2.29731,10.04937C24.21792,48.1961,23.84774,56.89539,23.40134,65.64912ZM18.59985,86.77131a17.0814,17.0814,0,0,0,2.711,4.28976,4.0317,4.0317,0,0,0,3.50585,1.6005c.25042-.03266.27219-.37018.14154-.52261a8.711,8.711,0,0,0-1.27386-1.09966c-.28308-.20687-.6206-.30486-.89279-.51172a3.99276,3.99276,0,0,1-.76214-.94723c-.82747-1.12144-1.82914-2.134-2.68927-3.23365C19.068,85.99828,18.4692,86.37935,18.59985,86.77131Zm-2.35175-60.895c-.23953.28308.14154.83835.52261.58794,1.165-.80569,1.61138-2.25376,2.76548-3.04856A5.2889,5.2889,0,0,0,20.74473,22.022a5.5844,5.5844,0,0,0,1.1541-1.99245.3184.3184,0,0,0-.392-.392c-1.30653.32663-2.16666,1.98157-3.07034,2.86347A18.49173,18.49173,0,0,0,16.2481,25.87626ZM12.60072,75.2521a17.593,17.593,0,0,0,1.6005,4.59462c.6206,1.38274.88191,2.93969,2.43885,3.48407A.40809.40809,0,0,0,17.13,83.0586a1.29766,1.29766,0,0,1,.0871-.21775.61433.61433,0,0,0-.16332-.59882,20.72355,20.72355,0,0,1-2.00334-3.7236,20.63374,20.63374,0,0,1-.871-2.09044,10.76767,10.76767,0,0,0-.76214-1.39363C13.2322,74.66416,12.54628,74.81659,12.60072,75.2521ZM10.1292,34.98929c-.38107.48995.27219,1.19765.69681.69681a10.15147,10.15147,0,0,0,1.459-3.103,9.21669,9.21669,0,0,1,.93634-1.69849c.10888-.1742.32663-.99078.48995-1.07788.18509-.0871.0871-.37018-.098-.37018h-.22864a.24444.24444,0,0,0-.22864.13065c-.38107.86013-1.18676,1.43718-1.57872,2.31909A15.24477,15.24477,0,0,1,10.1292,34.98929ZM8.986,62.14328a19.9745,19.9745,0,0,0,.72948,5.70517c.28308,1.44807.54439,2.99412,1.76381,3.93047.1742.11976.392-.05444.40285-.22864.03266-1.459-.74037-2.91791-1.04522-4.3442-.37018-1.73115-.80569-3.42963-1.165-5.16078C9.58482,61.63155,9.01865,61.77309,8.986,62.14328ZM7.821,50.15589A16.958,16.958,0,0,0,7.625,55.186c.15243,1.29564.14154,2.87436.84924,3.98491a.34357.34357,0,0,0,.6206-.07621c.50084-1.20854-.04355-2.73282-.21775-3.9958-.22864-1.644-.02178-3.299-.30486-4.93214-.01089-.01089-.01089,0-.01089,0C8.45249,49.84015,7.89722,49.74216,7.821,50.15589Zm-.294-6.5653c-.25042,1.11055-.55527,2.43885.48995,3.17922a.36312.36312,0,0,0,.52261-.21775A13.91764,13.91764,0,0,0,8.594,44.76647a20.98778,20.98778,0,0,1,.50084-2.5695c.22864-1.09966.81658-2.40619.577-3.52762a.35323.35323,0,0,0-.675,0c-.15243.74037-.55527,1.40452-.773,2.134C7.95166,41.7179,7.7339,42.65425,7.527,43.59059Zm2.76548,34.39432c-4.73616-10.19091-8.34-22.55937-5.80316-33.839A49.24834,49.24834,0,0,1,21.72463,16.93744a62.17361,62.17361,0,0,1,11.18169-6.80483c1.31741-.48995,2.58039-.92546,2.75459-1.00167A56.77254,56.77254,0,0,1,43.34765,6.2457,56.15463,56.15463,0,0,1,60.06031,4.43833c11.72608.5335,22.7989,7.4472,30.40942,16.20093,15.1666,17.42036,16.22271,43.62711,3.07034,62.28868-6.8266,9.69008-15.30814,14.88352-26.86,17.649-11.27968,2.711-24.78046,2.44974-35.77706-1.37185C21.21291,95.819,14.48429,87,10.29252,77.98492Z" fill="#a53f92"/>
        <path d="M98.28711,58.80074a8.15119,8.15119,0,0,1-.05444-3.08123c.20687-1.56783.871-3.62561.55527-5.17167-.0871-.392.46817-.675.675-.28308.82747,1.55694.52261,3.16833.33752,4.8777-.15243,1.33919.098,2.95057-1.07788,3.83248A.30513.30513,0,0,1,98.28711,58.80074Z"/>
        <path d="M96.262,38.65845c-.1742-.34841.294-.773.577-.4464a15.14283,15.14283,0,0,1,2.12311,3.65828c.577,1.37185,1.19765,3.05945.4464,4.464a.311.311,0,0,1-.5335,0c-.74037-1.13232-.83835-2.55862-1.25209-3.82159A35.90913,35.90913,0,0,0,96.262,38.65845Z"/>
        <path d="M94.60706,73.325c-.42462-1.90535.31574-3.201.84924-4.99747.294-1.01256.52261-2.06867.82747-3.07034a8.28729,8.28729,0,0,0,.41373-1.12144.44661.44661,0,0,1,.89279,0,13.9983,13.9983,0,0,1-.71859,4.32243A16.302,16.302,0,0,1,95.097,73.3903.273.273,0,0,1,94.60706,73.325Z"/>
        <path d="M92.53839,30.91728c-.89279-1.459-2.00334-2.9288-2.04689-4.7035-.01089-.45728.59882-.47906.75125-.098,1.13232,2.86347,3.7236,4.91036,4.54018,7.99159a.36112.36112,0,0,1-.4464.43551C93.67072,34.00939,93.36586,32.26736,92.53839,30.91728Z"/>
        <path d="M86.41949,84.768a18.39178,18.39178,0,0,0,1.18676-1.91624c.50084-.675,1.01256-1.35008,1.46984-2.06867.43551-.68593.72948-1.459,1.13232-2.16666a6.06616,6.06616,0,0,0,.75125-1.50251.50626.50626,0,0,1,.969,0,2.76506,2.76506,0,0,1-.41373,1.9489,21.34366,21.34366,0,0,1-1.263,2.66749c-.773,1.23031-2.036,3.36431-3.65828,3.47318A.25233.25233,0,0,1,86.41949,84.768Z"/>
        <path d="M84.51414,21.45585a9.59,9.59,0,0,1-2.31909-3.397c-.15243-.38107.45728-.74037.7077-.41373a18.70438,18.70438,0,0,0,3.14655,3.14655,6.90111,6.90111,0,0,1,2.59128,3.04856.35063.35063,0,0,1-.42462.43551C86.84411,23.8076,85.55936,22.42485,84.51414,21.45585Z"/>
        <path d="M79.778,91.34415a4.3356,4.3356,0,0,1,1.3283-1.48073,8.0066,8.0066,0,0,0,1.6876-1.742,6.54352,6.54352,0,0,1,1.23031-1.165c.26131-.21775.31574-.52261.54439-.75125.196-.21775.46817-.294.6206-.55527a.31043.31043,0,0,1,.56616.23953,13.11876,13.11876,0,0,1-2.14488,3.35342,6.03711,6.03711,0,0,1-3.48407,2.55862C79.85419,91.89943,79.65821,91.56191,79.778,91.34415Z"/>
        <path d="M72.59208,12.84366c-.28308-.35929.10888-1.03433.54439-.69681.91457.69681,2.14488.81658,3.08123,1.44807.59882.40285,1.067.91457,1.70937,1.28475.51172.28308,1.02345.58794,1.54606.86013.54439.28308.23953,1.04522-.294,1.07788a4.99933,4.99933,0,0,1-3.36431-1.62227C74.835,14.29172,73.45221,13.92154,72.59208,12.84366Z"/>
        <path d="M71.66662,96.46139c-.35929-.10888-.42462-.71859,0-.7948,1.33919-.23953,2.60217-1.3283,3.73449-2.06867.72948-.48995,1.79647-1.42629,2.74371-1.08877a.73654.73654,0,0,1,0,1.40452C76.20681,94.61047,73.86595,97.14731,71.66662,96.46139Z"/>
        <path d="M66.201,36.03451a2.99723,2.99723,0,0,0,.1742,3.33164,2.852,2.852,0,0,0,2.54773,1.65493,3.58521,3.58521,0,0,0,3.35342-1.52428,7.38485,7.38485,0,0,0,.75125-3.78893A2.88328,2.88328,0,0,0,70.63229,34.14a5.31536,5.31536,0,0,0-2.83081.196A6.07841,6.07841,0,0,0,66.201,36.03451ZM73.65908,38.027a4.98562,4.98562,0,0,1-1.7747,3.17922,5.388,5.388,0,0,1-4.28976.52261,4.774,4.774,0,0,1-2.41707-2.79815,4.37928,4.37928,0,0,1,1.78559-4.99747,1.67588,1.67588,0,0,1,.30486-.38107,3.24113,3.24113,0,0,1,1.9489-.66415A6.01936,6.01936,0,0,1,73.278,34.29248C74.27968,35.22882,73.88772,36.85109,73.65908,38.027Z"/>
        <path d="M60.866,9.09828c-.27219-.10888-.27219-.58794.07621-.55527a14.08259,14.08259,0,0,1,4.09378.74037,9.80581,9.80581,0,0,0,2.3082.7948,5.04979,5.04979,0,0,1,1.49162.40285.4024.4024,0,0,1,0,.68593,3.8065,3.8065,0,0,1-3.4623-.02178Q63.15242,10.051,60.866,9.09828Z"/>
        <path d="M59.23284,98.8458a.63741.63741,0,0,1,.4464-.06533c.84924-.13065,1.63316-.51172,2.49329-.675a18.38509,18.38509,0,0,0,2.18843-.38107,25.21513,25.21513,0,0,1,4.17-1.165.382.382,0,0,1,.42462.55527c-.65326,1.40452-3.07034,1.81825-4.44219,2.14488a32.14148,32.14148,0,0,1-3.38608.34841,2.94884,2.94884,0,0,1-1.95979-.20687A.30683.30683,0,0,1,59.23284,98.8458Z"/>
        <path d="M48.79151,99.78214a.34175.34175,0,0,1,.26131-.6206,13.22047,13.22047,0,0,0,3.52762.294,7.38113,7.38113,0,0,1,3.04856.22864c.26131.10888.43551.55527.0871.7077A7.98768,7.98768,0,0,1,48.79151,99.78214Z"/>
        <path d="M48.12736,9.39225c-.22864-.07621-.34841-.43551-.07621-.55527a11.84427,11.84427,0,0,1,4.44219-1.04522c1.263-.04355,2.8417.33752,4.05023.05444a.43348.43348,0,0,1,.48995.6206c-.47906,1.09966-1.9489.86013-2.91791.83835a23.553,23.553,0,0,0-3.61472.0871,5.45979,5.45979,0,0,1-2.37352.02178Z"/>
        <path d="M47.387,46.3343A10.76828,10.76828,0,0,0,44.91548,53.738c.01089,3.22277,1.04522,5.86848,3.83248,7.64318a8.05746,8.05746,0,0,0,5.30232,1.48073c5.34587-.577,8.8735-8.07869,7.28389-12.95639a8.25951,8.25951,0,0,0-7.01169-5.93381c-2.87436-.35929-4.72527.41373-6.91371,2.35175C47.40877,46.3343,47.39789,46.32341,47.387,46.3343ZM43.97914,56.56876c-.94723-4.99747.66415-9.88605,4.71438-12.29224,1.63316-1.459,3.33164-1.92713,6.06446-1.57872a8.75288,8.75288,0,0,1,6.96814,5.22611c2.4824,5.06279.28308,12.46645-4.6164,15.35169C52.12316,66.22617,44.98081,61.882,43.97914,56.56876Z"/>
        <path d="M40.86525,44.7338a16.226,16.226,0,0,0-1.9489,11.96561c2.44974,9.02592,14.60044,15.43879,22.89689,9.17835,6.38021-4.83415,8.07869-16.29892,2.9288-22.592-3.35342-4.0829-8.07869-5.4112-13.27214-4.58373-2.41707.38107-4.33331,1.58961-6.6524,2.21021h-.02178A12.90873,12.90873,0,0,0,40.86525,44.7338ZM49.44478,68.763c-6.91371-1.46984-12.8584-9.06947-12.07449-16.12472A17.60246,17.60246,0,0,1,40.58217,43.645a15.07965,15.07965,0,0,1,3.76715-3.42963,11.02117,11.02117,0,0,1,1.91624-.81658A7.94879,7.94879,0,0,1,48.258,38.14673a15.64835,15.64835,0,0,1,4.366-1.01256c4.32243-.40285,8.48154.45728,11.60631,3.53851,5.34587,5.26966,5.82493,13.283,2.91791,19.96809-1.35008,3.12478-3.15744,5.90115-6.402,7.3601C56.99,69.69936,53.37525,69.60137,49.44478,68.763Z"/>
        <path d="M36.64081,12.49525a.2593.2593,0,0,1,0-.50084c1.2412-.37018,2.21021-1.21943,3.42963-1.62227A15.35493,15.35493,0,0,1,44.12068,9.414a.27341.27341,0,0,1,.18509.45728,8.30138,8.30138,0,0,1-4.06112,1.95979C38.949,12.19039,38.01267,12.76744,36.64081,12.49525Z"/>
        <path d="M37.3594,98.11632a.39456.39456,0,0,1,.30486-.71859c1.067.23953,1.742,1.067,2.711,1.49162,1.067.45728,2.35175-.02178,3.34253.59882a.341.341,0,0,1,0,.577,4.43439,4.43439,0,0,1-3.44052.18509C39.06878,99.86924,38.39374,98.7587,37.3594,98.11632Z"/>
        <path d="M31.001,45.24553c-.31574,6.5,0,13.087.02178,19.587.01089,3.79982-.196,7.3601,3.62561,9.55942a16.88744,16.88744,0,0,0,6.02091,1.87269,45.65911,45.65911,0,0,0,9.603.1742c2.2211-.098,4.4313.03266,6.64151-.11976,4.48574-.30486,9.69008.13065,13.99073-1.33919,3.17922-1.08877,3.78893-4.562,4.39864-7.469a41.60284,41.60284,0,0,0,.76214-8.37266c0-5.24788-.28308-10.474-.294-15.711A59.14223,59.14223,0,0,0,75.314,34.9784c-.52261-3.60384-4.33331-3.76715-7.32744-3.974-5.83582-.38107-11.69342-.14154-17.54013-.20687-3.02679-.03266-6.02091-.294-9.05859-.196a45.30887,45.30887,0,0,0-4.77971.30486C31.01186,33.07305,31.26228,40.05208,31.001,45.24553Zm-.95812,16.09206c.02178-7.21856-.41373-14.60044.38107-21.77545.23953-2.134.33752-5.10634,1.78559-6.85927a6.64367,6.64367,0,0,1,2.02512-1.54606v-.01089c.33752-1.52428,3.96313-1.57872,5.03013-1.63316,4.12645-.21775,8.17668.10888,12.30313.13065,4.38775.02178,8.77551.10888,13.16326.14154,2.78726.02178,5.92292-.11976,8.54686.94723a5.06769,5.06769,0,0,1,3.24454,4.17,56.88524,56.88524,0,0,1,.37018,9.53765c-.01089,6.5.71859,13.09793-.0871,19.587a29.96546,29.96546,0,0,1-2.09044,9.06947C73.64819,75.459,71.97148,75.89447,69.5,76.4062c-5.37854,1.09966-11.38856,1.165-16.86509,1.09966-6.06446-.06533-12.27047,1.00167-17.85587-1.8618-2.25376-1.1541-3.98491-2.70016-4.55107-5.19344C29.58557,67.56536,30.04285,64.25549,30.04285,61.33758Z"/>
        <path d="M27.25559,94.10964a.45461.45461,0,0,1,.64238-.64238A6.79749,6.79749,0,0,0,31.382,94.98065c1.33919.28308,1.6005,1.07788,2.37352,2.04689.16332.20687-.06533.59882-.31574.40285a10.96156,10.96156,0,0,0-3.52762-1.39363A6.567,6.567,0,0,1,27.25559,94.10964Z"/>
        <path d="M25.2958,18.23308c-.28308-.03266-.40285-.51172-.06533-.55527.60971-.0871,1.644-1.37185,2.134-1.7747a17.78418,17.78418,0,0,1,1.66582-1.18676c1.09966-.72948,2.14488-1.38274,3.47318-1.04522a.30129.30129,0,0,1,.07621.54439c-1.28475.88191-2.72193,1.54606-4.06112,2.34086C27.64755,17.06809,26.37369,18.342,25.2958,18.23308Z"/>
        <path d="M25.40468,50.54785c-.26131,6.66329-1.08877,13.41368-.5335,20.05519.33752,4.05023,1.23031,7.76295,5.237,9.72274,2.95057,1.44807,5.79227,1.73115,8.98237,2.17755,7.077,1.00167,14.48067.5335,21.623.31574,3.42963-.10888,6.98992-.23953,10.38689-.68593a35.30719,35.30719,0,0,0,3.84337-.6206c2.11222-.52261,2.83081-1.63316,4.05023-3.27721,2.59128-3.51674,2.49329-8.80817,2.50418-13.07616,0-3.60384.11976-7.19679.196-10.78974a153.8456,153.8456,0,0,0-.577-21.721c-.74037-5.97736-5.139-7.29478-10.376-7.175-3.12478.07621-6.24955-.577-9.38522-.392a67.67237,67.67237,0,0,1-6.979-.098.27808.27808,0,0,1-.37018.196c-1.48073-.55527-3.82159-.01089-5.38942-.11976-1.6005-.10888-3.1901-.0871-4.80149-.13065-1.3283,0-2.6566,0-3.974-.02178a.26.26,0,0,1-.098-.02178,22.90627,22.90627,0,0,0-6.53264,1.02345C22.74808,29.45833,25.73131,41.97921,25.40468,50.54785ZM30.3586,81.79562c-6.38021-2.79815-7.26211-9.83162-6.95726-16.1465.4464-8.75373.81658-17.453.84924-26.25031.02178-3.44052.43551-7.08791,2.29731-10.04937,2.02512-3.22277,5.80316-4.64906,9.41788-5.21522a48.18751,48.18751,0,0,1,7.88271-.43551,66.82681,66.82681,0,0,1,11.051.04355c4.67083.43551,9.35256.14154,14.05605.35929,4.17.18509,7.62141-.07621,11.06193,2.81992,2.59128,2.18843,2.34086,6.28222,2.53684,9.39611.58794,9.27634.03266,18.50913.02178,27.79636,0,3.84337.294,8.6013-1.04522,12.28135-.93634,2.54773-3.25543,5.57452-5.96647,6.206-6.98992,1.63316-14.69843,1.62227-21.82989,1.6005C46.13491,84.19092,37.49006,84.90951,30.3586,81.79562Z"/>
        <path d="M21.3109,91.06107a17.0814,17.0814,0,0,1-2.711-4.28976c-.13065-.392.46817-.773.74037-.42462.86013,1.09966,1.8618,2.11222,2.68927,3.23365a3.99276,3.99276,0,0,0,.76214.94723c.27219.20687.60971.30486.89279.51172A8.711,8.711,0,0,1,24.95828,92.139c.13065.15243.10888.48995-.14154.52261A4.0317,4.0317,0,0,1,21.3109,91.06107Z"/>
        <path d="M16.77071,26.4642c-.38107.25042-.76214-.30486-.52261-.58794a18.49173,18.49173,0,0,1,2.18843-3.37519c.90368-.88191,1.76381-2.53684,3.07034-2.86347a.3184.3184,0,0,1,.392.392,5.5844,5.5844,0,0,1-1.1541,1.99245,5.2889,5.2889,0,0,1-1.20854,1.39363C18.3821,24.21044,17.9357,25.65851,16.77071,26.4642Z"/>
        <path d="M14.20121,79.84672a17.593,17.593,0,0,1-1.6005-4.59462c-.05444-.43551.63149-.58794.81658-.21775a10.76767,10.76767,0,0,1,.76214,1.39363,20.63374,20.63374,0,0,0,.871,2.09044A20.72355,20.72355,0,0,0,17.0538,82.242a.61433.61433,0,0,1,.16332.59882,1.29766,1.29766,0,0,0-.0871.21775.40809.40809,0,0,1-.48995.27219C15.08312,82.7864,14.82181,81.22946,14.20121,79.84672Z"/>
        <path d="M10.826,35.6861c-.42462.50084-1.07788-.20687-.69681-.69681a15.24477,15.24477,0,0,0,1.44807-3.103c.392-.88191,1.19765-1.459,1.57872-2.31909a.24444.24444,0,0,1,.22864-.13065h.22864c.18509,0,.28308.28308.098.37018-.16332.0871-.38107.90368-.48995,1.07788A9.21669,9.21669,0,0,0,12.285,32.5831,10.15147,10.15147,0,0,1,10.826,35.6861Z"/>
        <path d="M9.71547,67.84844A19.9745,19.9745,0,0,1,8.986,62.14328c.03266-.37018.59882-.51172.68593-.098.35929,1.73115.7948,3.42963,1.165,5.16078.30486,1.42629,1.07788,2.88525,1.04522,4.3442-.01089.1742-.22864.34841-.40285.22864C10.25986,70.84257,9.99855,69.29651,9.71547,67.84844Z"/>
        <path d="M7.625,55.186a16.958,16.958,0,0,1,.196-5.03013c.07621-.41373.63149-.31574.74037.01089,0,0,0-.01089.01089,0,.28308,1.63316.07621,3.28809.30486,4.93214.1742,1.263.71859,2.78726.21775,3.9958a.34357.34357,0,0,1-.6206.07621C7.76657,58.06038,7.77745,56.48166,7.625,55.186Z"/>
        <path d="M8.017,46.76981c-1.04522-.74037-.74037-2.06867-.48995-3.17922.20687-.93634.42462-1.87269.69681-2.78726.21775-.72948.6206-1.39363.773-2.134a.35323.35323,0,0,1,.675,0c.23953,1.12144-.34841,2.428-.577,3.52762a20.98778,20.98778,0,0,0-.50084,2.5695,13.91764,13.91764,0,0,1-.05444,1.78559A.36312.36312,0,0,1,8.017,46.76981Z"/>
        <path d="M4.48936,44.14587c-2.53684,11.27968,1.067,23.64814,5.80316,33.839C14.48429,87,21.21291,95.819,30.903,99.20509c10.9966,3.82159,24.49738,4.0829,35.77706,1.37185,11.55188-2.76548,20.03341-7.95893,26.86-17.649,13.15237-18.66156,12.09626-44.86832-3.07034-62.28868C82.85921,11.88554,71.78639,4.97183,60.06031,4.43833A56.15463,56.15463,0,0,0,43.34765,6.2457a56.77254,56.77254,0,0,0-7.68673,2.88525c-.1742.07621-1.43718.51172-2.75459,1.00167a62.17361,62.17361,0,0,0-11.18169,6.80483A49.24834,49.24834,0,0,0,4.48936,44.14587ZM23.64087,99.70593C5.62168,87.52256-5.72333,58.67009,2.99774,38.14673c4.072-9.603,10.16914-18.94464,18.85754-24.96555a70.57526,70.57526,0,0,1,16.82154-8.6884c1.56783-.6206,2.95057-1.11055,3.78893-1.44807A41.84181,41.84181,0,0,1,63.14154.301c13.06527,1.56783,24.922,10.36511,32.76116,20.67579a54.61026,54.61026,0,0,1,10.95305,35.99482c-.65326,11.30146-6.83749,22.06942-13.3919,31.03-7.371,10.07115-19.15151,15.7001-31.29132,17.57279C50.1307,107.43621,34.01687,106.72851,23.64087,99.70593Z"/>
      </g>
    </g>
  </g>
</svg>
