<svg xmlns="http://www.w3.org/2000/svg" viewBox="0 0 63.41732 54.23856">
  <title>involucrate_4.1Recurso 5</title>
  <g id="Capa_2" data-name="Capa 2">
    <g id="Editar">
      <g>
        <g>
          <path d="M16.49,33.30715c.3955-.5117.7207-.9844,1.0948-1.4151a29.70341,29.70341,0,0,1,12.8056-8.8281,9.6231,9.6231,0,0,1,6.3682-.3799c.4033-.1992.7451-.3662,1.0889-.5332a4.84786,4.84786,0,0,0,2.3925-2.6084,39.03821,39.03821,0,0,0,2.0254-5.5771,11.93876,11.93876,0,0,0,.3262-4.1836,6.54482,6.54482,0,0,0-4.7305-5.9082,26.89338,26.89338,0,0,0-3.5527-.7891,1.81876,1.81876,0,0,0-.7617-.0351c-2.8633.708-5.4903,1.7519-6.8291,4.7011a33.45131,33.45131,0,0,0-2.3467,8.0821,5.60991,5.60991,0,0,0,.2383,2.8242,6.443,6.443,0,0,1,.289,2.0703,3.44105,3.44105,0,0,1-.4267,1.4346,1.32771,1.32771,0,0,1-1.4561.6982,1.50453,1.50453,0,0,1-1.4511-1.0635,11.01385,11.01385,0,0,1-.42-2.2568,3.05548,3.05548,0,0,0-1.2441-2.2754,4.80175,4.80175,0,0,0-.7861-.5469c-4.1065-2.2148-8.2676-2.5283-12.4356-.2168A6.26647,6.26647,0,0,0,3.37875,21.4a5.5444,5.5444,0,0,0,.6748,3.5166,12.07274,12.07274,0,0,0,2.6768,3.2304,22.82275,22.82275,0,0,0,6.0381,3.667A14.03844,14.03844,0,0,0,16.49,33.30715Z" fill="#ff0070" fill-rule="evenodd"/>
          <path d="M37.35145,26.41455c-1.3594,3.502-4.1817,5.7442-6.8829,8.084-.9648.8369-1.9941,1.5977-2.9892,2.3984a14.04317,14.04317,0,0,1-4.3096,2.4571,3.84107,3.84107,0,0,0-.6719.3886,7.343,7.343,0,0,0,.7559,5.375,17.01524,17.01524,0,0,0,1.3262,2.1094c1.7734,2.5215,4.3926,3.3965,7.2949,3.6182a2.53527,2.53527,0,0,0,2.7695-1.628,20.73246,20.73246,0,0,0,1.7725-10.4609,7.89589,7.89589,0,0,0-1.0957-3.2353,8.49592,8.49592,0,0,1-.8447-1.7139,1.77168,1.77168,0,0,1,1.0898-2.0195,1.4949,1.4949,0,0,1,1.8877.4648,12.04358,12.04358,0,0,1,1.168,1.9766,7.81232,7.81232,0,0,0,5.6767,4.4238,12.03361,12.03361,0,0,0,4.5557.4316,11.38241,11.38241,0,0,0,1.3193-.2304,1.49452,1.49452,0,0,0,1.0547-1.0235,4.65109,4.65109,0,0,0,.1231-2.8301,7.15084,7.15084,0,0,0-3.8868-4.746,45.49061,45.49061,0,0,0-4.8418-1.8184c-.9658-.3281-1.9785-.5166-2.9677-.7734A3.791,3.791,0,0,1,37.35145,26.41455Z" fill="#ff0070" fill-rule="evenodd"/>
          <path d="M35.05645,24.88135a11.8621,11.8621,0,0,0-4.167.9531,28.18538,28.18538,0,0,0-10.3525,7.4219,10.78642,10.78642,0,0,0-1.0449,1.3691,1.13507,1.13507,0,0,0,.8711,1.8262,3.2821,3.2821,0,0,0,2.2217-.3877,29.97319,29.97319,0,0,0,3.4052-2.1299c2.1426-1.7168,4.2149-3.5224,6.2559-5.3574A12.18943,12.18943,0,0,0,35.05645,24.88135Z" fill="#ff8345" fill-rule="evenodd"/>
        </g>
        <path d="M48.44515,19.49075a44.78489,44.78489,0,0,1,11.082.5215,13.74834,13.74834,0,0,1,2.8418,1.0683,1.74117,1.74117,0,0,1,1.0469,1.6807,1.44659,1.44659,0,0,1-.4668.9785.77106.77106,0,0,1-1.0605-.0459,2.79517,2.79517,0,0,0-2.252-.79c-1.1474-.0967-2.289-.2393-3.4375-.3379a57.5062,57.5062,0,0,0-12.2461.2959,8.3004,8.3004,0,0,0-3.7412,1.6035,5.32384,5.32384,0,0,0,1.8565.6992c1.3525.3838,2.7109.749,4.0712,1.1084a12.14558,12.14558,0,0,1,6.4278,3.9541,8.92607,8.92607,0,0,1,2.0459,8.043,4.80157,4.80157,0,0,1-3.8096,3.8623,13.13258,13.13258,0,0,1-5.3242.1992,17.38376,17.38376,0,0,1-5.335-1.5869,5.73816,5.73816,0,0,0-.3515,2.1465,25.19756,25.19756,0,0,1-2.0733,7.7451,5.658,5.658,0,0,1-4.4863,3.4834,8.80886,8.80886,0,0,1-2.4814.0557c-3.9981-.5342-7.3184-2.2139-9.4483-5.8077-.1943-.33-.4326-.6347-.6162-.9707a11.55,11.55,0,0,1-1.7734-6.9375c.0332-.3037.0117-.6142.0156-.9472-.4424-.1641-.793-.3067-1.1524-.4258-2.1025-.6973-2.1093-.7031-2.5878-2.7656-1.9083-.7676-3.8438-1.4395-5.6817-2.3116a19.44818,19.44818,0,0,1-7.7695-6.372A9.555,9.555,0,0,1,.14825,23.772a9.33928,9.33928,0,0,1,1.5215-6.9443,6.77426,6.77426,0,0,1,1.3809-1.8096,16.76866,16.76866,0,0,1,6.539-3.0556c3.751-.8233,7.2237.0713,10.6055,1.6132.3242.1495.6426.3125,1.085.5284.1953-.6895.3525-1.2325.5029-1.7774a27.10525,27.10525,0,0,1,2.709-6.9472,8.65779,8.65779,0,0,1,2.8906-3.0157,20.56663,20.56663,0,0,1,3.2168-1.6933,7.90243,7.90243,0,0,1,3.7461-.6328,16.27251,16.27251,0,0,1,5.1914,1.3007,9.53686,9.53686,0,0,1,5.7441,7.1778,13.06421,13.06421,0,0,1-.2421,6.0781c-.3096,1.0215-.5782,2.0566-.9434,3.3613.3984-.3496.5938-.4961.7578-.6718a18.03281,18.03281,0,0,0,3.002-4.4336c1.4697-2.9805,2.8779-5.9922,4.3164-8.9883a7.6276,7.6276,0,0,1,.6426-1.1709,1.05066,1.05066,0,0,1,1.5292-.2119.91792.91792,0,0,1,.2696,1.4707,3.98518,3.98518,0,0,0-.7403,1.5254c-.2822.9814-.5351,1.9726-.8867,2.9277a36.7,36.7,0,0,1-5.3652,10.125c-.1856.2383-.3399.501-.6748.998C47.68535,19.50925,48.06625,19.51805,48.44515,19.49075Zm-30.8603,12.4013a29.70341,29.70341,0,0,1,12.8056-8.8281,9.6231,9.6231,0,0,1,6.3682-.3799c.4033-.1992.7451-.3662,1.0889-.5332a4.84786,4.84786,0,0,0,2.3925-2.6084,39.03821,39.03821,0,0,0,2.0254-5.5771,11.93876,11.93876,0,0,0,.3262-4.1836,6.54482,6.54482,0,0,0-4.7305-5.9082,26.89338,26.89338,0,0,0-3.5527-.7891,1.81876,1.81876,0,0,0-.7617-.0351c-2.8633.708-5.4903,1.7519-6.8291,4.7011a33.45131,33.45131,0,0,0-2.3467,8.0821,5.60991,5.60991,0,0,0,.2383,2.8242,6.443,6.443,0,0,1,.289,2.0703,3.44105,3.44105,0,0,1-.4267,1.4346,1.32771,1.32771,0,0,1-1.4561.6982,1.50453,1.50453,0,0,1-1.4511-1.0635,11.01385,11.01385,0,0,1-.42-2.2568,3.05548,3.05548,0,0,0-1.2441-2.2754,4.80175,4.80175,0,0,0-.7861-.5469c-4.1065-2.2148-8.2676-2.5283-12.4356-.2168A6.26647,6.26647,0,0,0,3.37875,21.4a5.5444,5.5444,0,0,0,.6748,3.5166,12.07274,12.07274,0,0,0,2.6768,3.2304,22.82275,22.82275,0,0,0,6.0381,3.667,14.03844,14.03844,0,0,0,3.7216,1.4932C16.88555,32.79545,17.21075,32.32275,17.58485,31.89205Zm12.8837,2.6065c-.9648.8369-1.9941,1.5977-2.9892,2.3984a14.04317,14.04317,0,0,1-4.3096,2.4571,3.84107,3.84107,0,0,0-.6719.3886,7.343,7.343,0,0,0,.7559,5.375,17.01524,17.01524,0,0,0,1.3262,2.1094c1.7734,2.5215,4.3926,3.3965,7.2949,3.6182a2.53527,2.53527,0,0,0,2.7695-1.628,20.73246,20.73246,0,0,0,1.7725-10.4609,7.89589,7.89589,0,0,0-1.0957-3.2353,8.49592,8.49592,0,0,1-.8447-1.7139,1.77168,1.77168,0,0,1,1.0898-2.0195,1.4949,1.4949,0,0,1,1.8877.4648,12.04358,12.04358,0,0,1,1.168,1.9766,7.81232,7.81232,0,0,0,5.6767,4.4238,12.03361,12.03361,0,0,0,4.5557.4316,11.38241,11.38241,0,0,0,1.3193-.2304,1.49452,1.49452,0,0,0,1.0547-1.0235,4.65109,4.65109,0,0,0,.1231-2.8301,7.15084,7.15084,0,0,0-3.8868-4.746,45.49061,45.49061,0,0,0-4.8418-1.8184c-.9658-.3281-1.9785-.5166-2.9677-.7734a3.791,3.791,0,0,1-2.3037-1.2481C35.992,29.91655,33.16975,32.15875,30.46855,34.49855Zm.4209-8.6641a28.18538,28.18538,0,0,0-10.3525,7.4219,10.78642,10.78642,0,0,0-1.0449,1.3691,1.13507,1.13507,0,0,0,.8711,1.8262,3.2821,3.2821,0,0,0,2.2217-.3877,29.97319,29.97319,0,0,0,3.4052-2.1299c2.1426-1.7168,4.2149-3.5224,6.2559-5.3574a12.18943,12.18943,0,0,0,2.8105-3.6953A11.8621,11.8621,0,0,0,30.88945,25.83445Z" fill="#4f2400" fill-rule="evenodd"/>
      </g>
    </g>
  </g>
</svg>
