<svg xmlns="http://www.w3.org/2000/svg" viewBox="0 0 77.51142 80.23436">
  <title>involucrate_4.1Recurso 3</title>
  <g id="Capa_2" data-name="Capa 2">
    <g id="Editar">
      <g>
        <path d="M25.52279,31.36451c-.3574-.3037-.688-.5859-1.0205-.8671-.9556-.8067-1.9311-1.5918-2.8623-2.4258a5.34813,5.34813,0,0,1-1.6435-2.5918,8.83429,8.83429,0,0,1-.1773-2.5166,7.91075,7.91075,0,0,1,1.3145-3.6631,47.34686,47.34686,0,0,1,2.934-4.3379,28.78634,28.78634,0,0,1,2.4351-2.792,3.58258,3.58258,0,0,1,4.1719-1.0146,27.92623,27.92623,0,0,1,2.58541,1.1211c.83159.4355,1.60349.9843,2.49119,1.54.0645-.2012.2119-.4199.1851-.6143-.2715-1.9795,1.0845-2.915,2.4126-3.9179,1.53511-1.1582,3.208-.8848,4.82811-.4502a46.01437,46.01437,0,0,1,4.70169,1.6787,11.046,11.046,0,0,1,3.8008,2.4951,3.2117,3.2117,0,0,1,.9184,3.1103,8.756,8.756,0,0,1-1.0752,2.9415,1.13488,1.13488,0,0,0-.0991.2783c1.5005-.1416,2.998-.2442,4.481-.4522.3046-.0429.6479-.4316.811-.7451a3.8357,3.8357,0,0,0,.5498-3.2402,16.00969,16.00969,0,0,0-1.4277-2.5615,14.80792,14.80792,0,0,1-2.1006-3.8291,4.45443,4.45443,0,0,1,.2451-3.087,12.43124,12.43124,0,0,1,4.3101-4.9394c.3789-.2754.9082-.7871,1.5019-.2442a12.19379,12.19379,0,0,0,.0625,6.0586c1.4087-1.9873,2.6758-4.0029,5.2505-4.5136-.3267.8691-.6768,1.6328-.9019,2.4326A7.41962,7.41962,0,0,0,64.639,9.847a22.10082,22.10082,0,0,1,2.22511,5.2148,5.72508,5.72508,0,0,1-.12791,3.4229,10.485,10.485,0,0,1-1.043,2.0468,9.85209,9.85209,0,0,1-1.3716,1.3448c.7466.7363,1.4893,1.4589,2.2203,2.1923a7.76377,7.76377,0,0,1,2.2334,3.8038,4.31063,4.31063,0,0,1-.4649,3.1464c-.59229.9952-1.2265,1.9659-1.8594,2.9746,2.001.4336,4.0406.8301,6.0542,1.3311,1.1226.2793,2.2027.7314,3.3013,1.1064.0703.0245.1333.0713.2031.0967,1.4654.5401,1.4683.5401,1.4742,2.0889.0048,1.25.0678,2.5039-.0142,3.748-.1343,2.0411-.3647,4.0762-.5547,6.1143-.0405.4346-.08979.8682-.1206,1.3027-.1177,1.67-.2358,3.3389-.3418,5.0098-.0542.8564-.0767,1.7158-.1245,2.5732-.1113,1.9961-.2036,3.9952-.3525,5.9893-.11039,1.4736-.2915,2.9424-.46339,4.4102a.59556.59556,0,0,1-.29641.4013c-2.0181.9053-4.0381,1.8067-6.0708,2.6787-1.3062.5616-2.6221,1.1026-3.9536,1.6016-1.6284.6103-3.2896,1.1357-4.9146,1.7549-1.6738.6377-3.3154,1.3594-4.9809,2.0176-1.6133.6377-3.2202,1.2988-4.8648,1.8466-2.0576.6846-4.1562,1.2461-6.227,1.8926a8.58179,8.58179,0,0,1-3.94189.0947,52.06319,52.06319,0,0,1-5.36041-1.0449c-1.8911-.5019-3.7387-1.1777-5.5859-1.832-1.4751-.5215-2.9209-1.127-4.3804-1.6934-1.2202-.4746-2.4575-.9101-3.6577-1.4316-.9917-.4307-1.9409-.9609-2.9077-1.4473-1.2305-.6211-2.4536-1.2549-3.6914-1.8594a2.18289,2.18289,0,0,1-1.10349-2.125c-.104-1.9433-.17731-3.8886-.23641-5.8339-.0571-1.877-.0488-3.7559-.1269-5.6309-.1192-2.8769-.2876-5.7519-.438-8.6797-2.0391-.0303-4.1729.6826-6.3984-.3564a15.22687,15.22687,0,0,1,1.6469-1.7188c.9956-.7607,2.0811-1.4033,3.1245-2.1025a6.25625,6.25625,0,0,0,.5108-.4385c-2.12549-.4033-4.1436-.793-6.1646-1.1689a9.71412,9.71412,0,0,1-5.2866-2.6993.59984.59984,0,0,1,.1148-.9873,9.19472,9.19472,0,0,1,3.5463-1.3027c1.5191-.1133,3.0225-.4268,4.5372-.6201.7353-.0938,1.47941-.1289,2.2207-.1602,1.2612-.0527,2.53071-.0117,3.7812-.1504a4.72433,4.72433,0,0,0,1.5708-.7207c1.2192-.666,2.4028-1.4013,3.6436-2.0234,1.18311-.5938,2.4228-1.0742,3.6333-1.6143C23.98279,32.08521,24.70349,31.74341,25.52279,31.36451Zm5.1104,45.0684c3.3154.8467,6.71191,1.7295,10.1181,2.5742a13.851,13.851,0,0,0,2.09281.2774c.40239.0371.61129-.1436.61079-.6133-.0019-1.2842.0406-2.5684.0855-3.8526.1128-3.2343.2202-6.4697.3628-9.7021.084-1.9092.2368-3.8154.3472-5.7236.125-2.1582.2314-4.3174.3579-6.4756.041-.7051.1523-1.4063.17381-2.1114.03079-.9912.00779-1.9843.00779-2.9824q-6.126-1.70655-12.3716-3.4453c-.05119.4961-.11519,1.0166-.15819,1.5391-.12451,1.5224-.23391,3.0459-.36231,4.5683-.1421,1.6914-.3071,3.3809-.4453,5.0723-.1045,1.2764-.1777,2.5547-.27439,3.8311-.14261,1.8857-.30031,3.7705-.44041,5.6562-.1128,1.5225-.2735,3.0459-.2974,4.5713C30.4051,71.82941,30.04769,74.053,30.63319,76.43291Zm13.7173,2.4111c.5244-.1621.9882-.2734,1.4277-.4463q5.73555-2.2689,11.4658-4.5527a.59351.59351,0,0,0,.4336-.6377c.0034-1.1494.0498-2.2988.08351-3.4482.06489-2.2022.12349-4.4043.20209-6.6065.0723-2.0283.1695-4.0566.2515-6.0849.0908-2.2383.17141-4.4766.2676-6.7149.05081-1.1845.1396-2.3672.1851-3.5508.0273-.7197.0048-1.4404.0048-2.2832q-6.86863,1.64655-13.3935,3.212c-.1382,4.3486-.2627,8.5644-.4112,12.7793-.059,1.6816-.1801,3.3603-.2568,5.0419-.0962,2.1036-.209,4.2081-.2519,6.3125-.043,2.0957-.0088,4.1914-.0083,6.2872Zm-14.9356-3.122a1.6132,1.6132,0,0,0,.0537-.2364c.0874-3.3925.1636-6.7871.2647-10.1797.0351-1.165.1152-2.33.206-3.4921.1309-1.6729.2925-3.3428.4365-5.0147.128-1.4844.2417-2.9697.3746-4.4531.1938-2.167.4438-4.3291.581-6.499a2.61729,2.61729,0,0,1,1.63871-2.5225c1.88769-.8447,3.71779-1.8174,5.59279-2.6924,1.4545-.6777,2.9345-1.3037,4.415-1.9238.7778-.3262,1.5806-.5918,2.2603-.8438a23.28332,23.28332,0,0,1-2.4356-1.7451,1.597,1.597,0,0,0-1.9546-.3545,1.167,1.167,0,0,1-.1626.0557,4.99094,4.99094,0,0,1-3.19629.2275.59171.59171,0,0,0-.45651.1416c-.3301.2608-.6411.5469-.9453.8379a46.20689,46.20689,0,0,1-5.7354,4.5576,41.8574,41.8574,0,0,1-6.9687,3.879.56257.56257,0,0,0-.41209.581c-.08111,4.6406-.20461,9.2813-.26371,13.9219-.02929,2.2637.0405,4.5283.0903,6.792.0445,2.0117.1382,4.0215.1748,6.0332a.58569.58569,0,0,0,.45361.6084c1.27689.5146,2.54889,1.0439,3.83059,1.5469C27.96319,75.22491,28.68539,75.46221,29.41489,75.722Zm29.4395-2.6016a2.25249,2.25249,0,0,0,.2978-.0654c2.1987-.7783,4.3902-1.5811,6.5991-2.3291.6211-.21.899-.4082.8843-1.1875-.084-4.3907.0054-8.7793.3223-13.1641.1416-1.9687.122-3.9482.17921-5.9219.02539-.8808.04779-1.7627.09079-2.6425q.16995-3.46875.3623-6.9375a.62427.62427,0,0,0-.4302-.7002c-1.978-.8711-3.9428-1.7725-5.9277-2.6289a1.482,1.482,0,0,0-.919-.0186c-1.727.4902-3.4335,1.0527-5.1679,1.5146-.9746.2598-1.9888.3711-3.1206.5733.3369.1592.5454.251.748.3535,2.1138,1.0723,4.2315,2.1377,6.3369,3.2266a.91352.91352,0,0,1,.4302,1.3086,2.05093,2.05093,0,0,0-.1499.7148c-.0386,3.1875-.0405,6.375-.1011,9.5615-.0561,2.9698-.1694,5.9366-.2622,8.9053-.0527,1.6855-.1338,3.3691-.166,5.0557C58.83239,70.19271,58.85439,71.64871,58.85439,73.12041Zm-36.6011-53.6592a18.86111,18.86111,0,0,1,2.3169.7119c2.624,1.1953,4.4765,3.3301,6.2617,5.4717,1.4634,1.7569,2.6948,3.7061,4.0449,5.5596.4571.6269.9614,1.2187,1.42631,1.8047.67139-.7608,1.24949-1.5293,1.94239-2.1758a6.24734,6.24734,0,0,1,4.3579-2.1113c.4775.0058.7051-.2325.646-.7227-.0322-.2656-.0498-.5332-.0728-.7988a16.26447,16.26447,0,0,0-1.4018-5.5821,14.85044,14.85044,0,0,0-3.3931-4.3046,25.60175,25.60175,0,0,0-7.001-4.8145,5.99808,5.99808,0,0,0-2.9199-.4394.72216.72216,0,0,0-.438.2207c-1.1763,1.2539-2.4048,2.4648-3.4868,3.7959C23.6771,17.13211,23.00079,18.33721,22.25329,19.46121ZM67.63319,70.139c.7837-.3155,1.4145-.584,2.0551-.8252,1.5557-.587,3.1187-1.1534,4.669-1.752a.63211.63211,0,0,0,.3442-.4385c.0855-1.4902.125-2.9834.2017-4.4736.0776-1.5078.1641-3.0156.2808-4.5195.1269-1.6368.2983-3.2686.4409-4.9034.1313-1.5029.2485-3.0058.3755-4.5087.143-1.6934.2929-3.3858.434-5.0791.086-1.0293.168-2.0586.2393-3.0889.0532-.7695.08641-1.541.1255-2.249-2.8779.9052-5.708,1.7949-8.5943,2.7031.0357.666.1138,1.4287.1109,2.1914-.0073,1.958-.0415,3.917-.0811,5.874-.05859,2.9512-.1313,5.9024-.1967,8.8526-.0313,1.4004-.0547,2.7998-.08889,4.2002q-.0345,1.4091-.09131,2.8183C67.78889,66.63991,67.71179,68.33921,67.63319,70.139ZM7.87289,47.87821a1.97781,1.97781,0,0,0,.334.043c1.2163-.1065,2.44821-.127,3.644-.3467a43.63154,43.63154,0,0,0,5.2383-1.2197,62.829,62.829,0,0,0,6.8916-2.5176,52.61591,52.61591,0,0,0,12.2232-7.751c.2207-.1845.3296-.3467.1479-.626-.0903-.1386-.0732-.3505-.1709-.4785a.90139.90139,0,0,0-.4653-.3672c-1.1787-.2089-2.3682-.3593-3.5459-.5742a2.13731,2.13731,0,0,0-1.36869.1797c-1.35051.627-2.70211,1.2676-4.102,1.7666a25.47864,25.47864,0,0,1-6.79441,1.5235c-1.53859.1064-3.0645.3955-4.60359.5-2.13671.1455-4.28511.1328-6.41991.3007-1.99309.1563-3.977.4395-5.9595.71a2.1847,2.1847,0,0,0-1.7148.9824,30.64573,30.64573,0,0,0,3.041,1.2539c1.9175.5694,3.8535,1.1055,5.815,1.4844a9.79979,9.79979,0,0,0,3.7353.4307A42.59578,42.59578,0,0,1,7.87289,47.87821Zm5.9136.6973a7.16554,7.16554,0,0,0-.0918,1.1494c.0957,1.5049.2812,3.0059.3393,4.5127.105,2.7168.106,5.4375.2193,8.1543.0976,2.3281.2842,4.6533.457,6.9775a.70469.70469,0,0,0,.3613.4727c1.0372.4883,2.0904.9424,3.1387,1.4053,1.2373.5478,2.4751,1.0937,3.7759,1.6679,0-.2461-.002-.4316,0-.6181.0601-5.2725.1113-10.5459.1846-15.8194.0341-2.4531.11131-4.9043.1718-7.3574.00351-.1328.0479-.2646.0484-.3965.0044-.8486.0024-1.6972.0024-2.4541C19.54529,47.03251,16.71279,47.79131,13.78649,48.57551Zm36.4282-27.1992a4.87951,4.87951,0,0,1,3.7153,2.7304,9.82354,9.82354,0,0,1,.9595,6.7744,9.98845,9.98845,0,0,1-4.1435,6.8145c-.3394.2422-.7056.4473-1.0591.6689.0127.0547.0254.1084.0381.1622a33.06328,33.06328,0,0,0,3.70411-.2745,31.86082,31.86082,0,0,0,7.73629-2.2509,12.28986,12.28986,0,0,0,5.271-4.376,5.01194,5.01194,0,0,0,1.0752-2.4346,5.31,5.31,0,0,0-1.7241-4.0654,17.03221,17.03221,0,0,0-8.4722-4.9942c-1.4541-.3339-2.9443-.8164-4.4097.0206a.27657.27657,0,0,1-.1689.0205C51.67219,20.00321,51.09119,20.81571,50.21469,21.37631Zm-8.9897-2.3262c.0595-.0274.1186-.0557.1782-.083.2842-2.0264.5967-4.041-.603-5.9502a7.73881,7.73881,0,0,1-.583-1.6533A6.69757,6.69757,0,0,1,42.3671,15.261a7.48485,7.48485,0,0,1-.30381,3.792,1.40222,1.40222,0,0,0,.1221,1.458,13.22891,13.22891,0,0,1,2.0723,5.7158c.0537.6934.0957,1.3877.1543,2.251.2505-.6797.4336-1.2129.64211-1.7363a12.42983,12.42983,0,0,1,4.60789-6.2686,1.64,1.64,0,0,0,.5517-.6298,16.32618,16.32618,0,0,0,1.5669-4.7666.97225.97225,0,0,0-.18649-.6612,6.85332,6.85332,0,0,0-.75291-.7051,9.54241,9.54241,0,0,0-2.6978-1.5673c-2.0224-.9483-3.9726-2.1065-6.2612-2.2881a6.78219,6.78219,0,0,0-2.37309.164,3.85213,3.85213,0,0,0-2.42481,2.5606,2.21264,2.21264,0,0,0,.5689,2.8916C38.93439,16.55691,40.04239,17.84791,41.225,19.05011Zm16.5605.0283c.1953.0693.4981.1758.7993.2852a13.70291,13.70291,0,0,1,4.0318,1.747.80958.80958,0,0,0,1.2578-.0849c.42771-.4854.7793-1.0381,1.1758-1.5518a5.24819,5.24819,0,0,0,.666-5.0332,36.11911,36.11911,0,0,0-2.16409-4.8633,6.63888,6.63888,0,0,1-.46781-4.9492c.0713-.249.1504-.4961.2261-.7431-.04-.0254-.0796-.0518-.1191-.0772a18.73657,18.73657,0,0,0-1.2764,1.5176c-.59179.8672-1.104,1.7881-1.67279,2.6719a.60889.60889,0,0,1-.44831.2548.56324.56324,0,0,1-.397-.3007,9.86468,9.86468,0,0,1-.913-4.2823c.02631-.7461.0927-1.4902.1464-2.3125-.6406.5821-1.2407,1.1094-1.8193,1.6592a7.09967,7.09967,0,0,0-1.8569,2.5117,5.47384,5.47384,0,0,0,.6562,5.0332c.5957.9795,1.2613,1.919,1.81591,2.92a5.87415,5.87415,0,0,1,.95759,3.3125A13.5295,13.5295,0,0,1,57.78549,19.07841Zm-24.1943,24.8692c.9565.2705,1.9214.5751,2.9023.8125,2.4375.5908,4.8882,1.1279,7.3213,1.7373a4.93191,4.93191,0,0,0,2.6416,0c1.3931-.3985,2.8071-.7237,4.2139-1.0733,2.4922-.6191,4.9853-1.2334,7.5512-1.8682-.1865-.1093-.31-.1914-.4423-.2578-3.3716-1.6738-6.6577-3.539-10.2974-4.6132a1.419,1.419,0,0,0-.71969-.1075,30.0988,30.0988,0,0,0-3.32131,1.0743C40.15319,41.04331,36.89439,42.50131,33.59119,43.94761Zm9.0117-9.5127a6.481,6.481,0,0,0,1.2646.0664,9.6,9.6,0,0,0,5.5264-3.0323c1.2393-1.3056,2.45121-2.6396,3.7383-3.8955a1.23349,1.23349,0,0,0,.39891-1.5351,7.01321,7.01321,0,0,0-2.22651-3.4649,1.966,1.966,0,0,0-3.0347.5586,25.23848,25.23848,0,0,0-2.1309,4.3633,23.85021,23.85021,0,0,1-2.9428,6.0684C43.02769,33.78841,42.87929,34.02861,42.60289,34.43491Zm-6.96479-.7686c-.30911-.3818-.57041-.708-.83551-1.0303a14.87,14.87,0,0,0-3.0342-3.3193c-1.685-1.1182-3.352-2.2734-4.9492-3.5127a5.77788,5.77788,0,0,1-2.3213-3.4356,1.84312,1.84312,0,0,0-1.5757-1.6064,9.64555,9.64555,0,0,1-.9404-.2529c-.3271-.1358-.481-.0596-.6133.2597-.21239.5127-.50239.9942-.7002,1.5108a3.00462,3.00462,0,0,0,.27881,2.8926,11.36422,11.36422,0,0,0,1.09959,1.3193,21.85124,21.85124,0,0,0,8.5757,5.8682A17.77462,17.77462,0,0,0,35.6381,33.66631Zm40.19479,3.7568c-.21779-.0771-.3775-.1406-.5415-.1894q-4.56015-1.34475-9.124-2.6758a.70424.70424,0,0,0-.5284.0615c-1.146.7823-2.2763,1.5869-3.42089,2.3916.19089.0645.38969.1309.58839.1992a11.92339,11.92339,0,0,1,4.2979,1.9786,2.62576,2.62576,0,0,0,2.9863.5576A30.13974,30.13974,0,0,0,75.83289,37.42311Zm-58.6084-1.1914a17.04354,17.04354,0,0,0,6.5835-.5527c2.062-.541,4.0703-1.2861,6.102-1.9424-.0083-.0596-.0166-.1201-.0244-.1807-1.0742-.497-2.1582-.9746-3.2173-1.5029a.89592.89592,0,0,0-.9038.0029c-1.457.7295-2.9238,1.4375-4.3877,2.1524C20.04089,34.86061,18.704,35.511,17.22449,36.23171Zm26.2212-5.8789a1.69866,1.69866,0,0,0-1.89459-.3574,9.58166,9.58166,0,0,0-4.24071,3.7188,8.21362,8.21362,0,0,0-.5215,1.2724,15.44278,15.44278,0,0,0,4.6685-.3193.51712.51712,0,0,0,.3115-.2832C42.326,33.07061,42.8671,31.75131,43.44569,30.35281Zm8.9077,3.5781a9.11167,9.11167,0,0,1-1.4629.3917c-.8081.0742-1.6255.0439-2.438.0781a4.77666,4.77666,0,0,0-1.4429.1455,7.16844,7.16844,0,0,1-3.1298.5976c-.314-.0254-.6314-.0039-1.0401-.0039a2.92327,2.92327,0,0,0,.2031.2735,6.59354,6.59354,0,0,0,3.2237,1.7539,5.63133,5.63133,0,0,0,2.5498.1357A5.37009,5.37009,0,0,0,52.35339,33.93091Zm1.5098-5.5761c-1.688,1.7529-3.3375,3.4668-5.0367,5.2324a4.81306,4.81306,0,0,1,.647.0039,5.99491,5.99491,0,0,0,3.3267-.8623,1.05419,1.05419,0,0,0,.39991-.4512A6.41908,6.41908,0,0,0,53.86319,28.35481Zm-28.7056-6.4942a13.42361,13.42361,0,0,0,5.6362,5.6446C29.48329,25.05011,27.29719,23.47591,25.15759,21.86061Z"/>
        <path d="M30.63319,76.43291c-.5855-2.3799-.22809-4.6035-.1929-6.8164.0239-1.5254.1846-3.0488.2974-4.5713.1401-1.8857.2978-3.7705.44041-5.6562.09669-1.2764.16989-2.5547.27439-3.8311.1382-1.6914.3032-3.3809.4453-5.0723.1284-1.5224.2378-3.0459.36231-4.5683.043-.5225.107-1.043.15819-1.5391q6.2586,1.74315,12.3716,3.4453c0,.9981.023,1.9912-.00779,2.9824-.02151.7051-.13281,1.4063-.17381,2.1114-.1265,2.1582-.2329,4.3174-.3579,6.4756-.1104,1.9082-.2632,3.8144-.3472,5.7236-.1426,3.2324-.25,6.4678-.3628,9.7021-.0449,1.2842-.0874,2.5684-.0855,3.8526.0005.4697-.2084.6504-.61079.6133a13.851,13.851,0,0,1-2.09281-.2774C37.3451,78.16241,33.94859,77.27961,30.63319,76.43291Z" fill="#fff"/>
        <path d="M44.35049,78.844v-.6923c-.0005-2.0958-.0347-4.1915.0083-6.2872.0429-2.1044.1557-4.2089.2519-6.3125.0767-1.6816.1978-3.3603.2568-5.0419.1485-4.2149.273-8.4307.4112-12.7793q6.52215-1.5645,13.3935-3.212c0,.8428.0225,1.5635-.0048,2.2832-.0455,1.1836-.13429,2.3663-.1851,3.5508-.09619,2.2383-.1768,4.4766-.2676,6.7149-.082,2.0283-.1792,4.0566-.2515,6.0849-.0786,2.2022-.1372,4.4043-.20209,6.6065-.03371,1.1494-.08011,2.2988-.08351,3.4482a.59351.59351,0,0,1-.4336.6377q-5.7348,2.27205-11.4658,4.5527C45.33869,78.57061,44.87489,78.68191,44.35049,78.844Z" fill="#fff"/>
        <path d="M29.41489,75.722c-.7295-.2598-1.4517-.4971-2.1582-.7744-1.2817-.503-2.5537-1.0323-3.83059-1.5469a.58569.58569,0,0,1-.45361-.6084c-.0366-2.0117-.1303-4.0215-.1748-6.0332-.0498-2.2637-.11959-4.5283-.0903-6.792.0591-4.6406.1826-9.2813.26371-13.9219a.56257.56257,0,0,1,.41209-.581,41.8574,41.8574,0,0,0,6.9687-3.879,46.20689,46.20689,0,0,0,5.7354-4.5576c.3042-.291.6152-.5771.9453-.8379a.59171.59171,0,0,1,.45651-.1416,4.99094,4.99094,0,0,0,3.19629-.2275,1.167,1.167,0,0,0,.1626-.0557,1.597,1.597,0,0,1,1.9546.3545,23.28332,23.28332,0,0,0,2.4356,1.7451c-.6797.252-1.4825.5176-2.2603.8438-1.4805.6201-2.9605,1.2461-4.415,1.9238-1.875.875-3.7051,1.8477-5.59279,2.6924a2.61729,2.61729,0,0,0-1.63871,2.5225c-.1372,2.1699-.3872,4.332-.581,6.499-.1329,1.4834-.2466,2.9687-.3746,4.4531-.144,1.6719-.3056,3.3418-.4365,5.0147-.0908,1.1621-.1709,2.3271-.206,3.4921-.1011,3.3926-.1773,6.7872-.2647,10.1797A1.6132,1.6132,0,0,1,29.41489,75.722Z" fill="#fff"/>
        <path d="M58.85439,73.12041c0-1.4717-.022-2.9277.0063-4.3818.0322-1.6866.1133-3.3702.166-5.0557.0928-2.9687.2061-5.9355.2622-8.9053.0606-3.1865.0625-6.374.1011-9.5615a2.05093,2.05093,0,0,1,.1499-.7148.91352.91352,0,0,0-.4302-1.3086c-2.1054-1.0889-4.2231-2.1543-6.3369-3.2266-.2026-.1025-.4111-.1943-.748-.3535,1.1318-.2022,2.146-.3135,3.1206-.5733,1.7344-.4619,3.4409-1.0244,5.1679-1.5146a1.482,1.482,0,0,1,.919.0186c1.9849.8564,3.9497,1.7578,5.9277,2.6289a.62427.62427,0,0,1,.4302.7002q-.19635,3.46875-.3623,6.9375c-.043.8798-.0654,1.7617-.09079,2.6425-.05721,1.9737-.03761,3.9532-.17921,5.9219-.3169,4.3848-.4063,8.7734-.3223,13.1641.0147.7793-.2632.9775-.8843,1.1875-2.2089.748-4.4004,1.5508-6.5991,2.3291A2.25249,2.25249,0,0,1,58.85439,73.12041Z" fill="#fff"/>
        <path d="M22.25329,19.46121c.7475-1.124,1.42381-2.3291,2.2827-3.3847,1.082-1.3311,2.3105-2.542,3.4868-3.7959a.72216.72216,0,0,1,.438-.2207,5.99808,5.99808,0,0,1,2.9199.4394,25.60175,25.60175,0,0,1,7.001,4.8145,14.85044,14.85044,0,0,1,3.3931,4.3046,16.26447,16.26447,0,0,1,1.4018,5.5821c.023.2656.0406.5332.0728.7988.0591.4902-.1685.7285-.646.7227a6.24734,6.24734,0,0,0-4.3579,2.1113c-.6929.6465-1.271,1.415-1.94239,2.1758-.46491-.586-.96921-1.1778-1.42631-1.8047-1.3501-1.8535-2.5815-3.8027-4.0449-5.5596-1.7852-2.1416-3.6377-4.2764-6.2617-5.4717A18.86111,18.86111,0,0,0,22.25329,19.46121Z" fill="#fff"/>
        <path d="M67.63319,70.139c.0786-1.7998.1557-3.4991.2246-5.1983q.05715-1.4091.09131-2.8183c.03419-1.4004.05759-2.7998.08889-4.2002.0654-2.9502.13811-5.9014.1967-8.8526.0396-1.957.0738-3.916.0811-5.874.0029-.7627-.0752-1.5254-.1109-2.1914,2.8863-.9082,5.7164-1.7979,8.5943-2.7031-.03909.708-.0723,1.4795-.1255,2.249-.0713,1.0303-.1533,2.0596-.2393,3.0889-.1411,1.6933-.291,3.3857-.434,5.0791-.127,1.5029-.2442,3.0058-.3755,4.5087-.1426,1.6348-.314,3.2666-.4409,4.9034-.1167,1.5039-.2032,3.0117-.2808,4.5195-.0767,1.4902-.1162,2.9834-.2017,4.4736a.63211.63211,0,0,1-.3442.4385c-1.5503.5986-3.1133,1.165-4.669,1.752C69.04769,69.555,68.41689,69.82351,67.63319,70.139Z" fill="#fff"/>
        <path d="M7.87289,47.87821a42.59578,42.59578,0,0,0,5.9253-4.706,9.79979,9.79979,0,0,1-3.7353-.4307c-1.9615-.3789-3.8975-.915-5.815-1.4844a30.64573,30.64573,0,0,1-3.041-1.2539,2.1847,2.1847,0,0,1,1.7148-.9824c1.9825-.2705,3.96641-.5537,5.9595-.71,2.1348-.1679,4.2832-.1552,6.41991-.3007,1.53909-.1045,3.065-.3936,4.60359-.5a25.47864,25.47864,0,0,0,6.79441-1.5235c1.39989-.499,2.75149-1.1396,4.102-1.7666a2.13731,2.13731,0,0,1,1.36869-.1797c1.1777.2149,2.3672.3653,3.5459.5742a.90139.90139,0,0,1,.4653.3672c.0977.128.0806.3399.1709.4785.1817.2793.0728.4415-.1479.626a52.61591,52.61591,0,0,1-12.2232,7.751,62.829,62.829,0,0,1-6.8916,2.5176,43.63154,43.63154,0,0,1-5.2383,1.2197c-1.19579.2197-2.4277.2402-3.644.3467A1.97781,1.97781,0,0,1,7.87289,47.87821Z" fill="#fff"/>
        <path d="M13.78649,48.57551c2.9263-.7842,5.7588-1.543,8.6069-2.3057,0,.7569.002,1.6055-.0024,2.4541-.0005.1319-.04489.2637-.0484.3965-.06049,2.4531-.1377,4.9043-.1718,7.3574-.0733,5.2735-.1245,10.5469-.1846,15.8194-.002.1865,0,.372,0,.6181-1.3008-.5742-2.5386-1.1201-3.7759-1.6679-1.0483-.4629-2.1015-.917-3.1387-1.4053a.70469.70469,0,0,1-.3613-.4727c-.1728-2.3242-.3594-4.6494-.457-6.9775-.1133-2.7168-.1143-5.4375-.2193-8.1543-.0581-1.5068-.2436-3.0078-.3393-4.5127A7.16554,7.16554,0,0,1,13.78649,48.57551Z" fill="#fff"/>
        <path d="M50.21469,21.37631c.8765-.5606,1.4575-1.3731,2.522-1.2041a.27657.27657,0,0,0,.1689-.0205c1.4654-.837,2.9556-.3545,4.4097-.0206a17.03221,17.03221,0,0,1,8.4722,4.9942,5.31,5.31,0,0,1,1.7241,4.0654,5.01194,5.01194,0,0,1-1.0752,2.4346,12.28986,12.28986,0,0,1-5.271,4.376,31.86082,31.86082,0,0,1-7.73629,2.2509,33.06328,33.06328,0,0,1-3.70411.2745c-.0127-.0538-.0254-.1075-.0381-.1622.3535-.2216.7197-.4267,1.0591-.6689a9.98845,9.98845,0,0,0,4.1435-6.8145,9.82354,9.82354,0,0,0-.9595-6.7744A4.87951,4.87951,0,0,0,50.21469,21.37631Z" fill="#fff"/>
        <path d="M41.225,19.05011c-1.1826-1.2022-2.2906-2.4932-3.5718-3.5791a2.21264,2.21264,0,0,1-.5689-2.8916,3.85213,3.85213,0,0,1,2.42481-2.5606,6.78219,6.78219,0,0,1,2.37309-.164c2.2886.1816,4.2388,1.3398,6.2612,2.2881a9.54241,9.54241,0,0,1,2.6978,1.5673,6.85332,6.85332,0,0,1,.75291.7051.97225.97225,0,0,1,.18649.6612,16.32618,16.32618,0,0,1-1.5669,4.7666,1.64,1.64,0,0,1-.5517.6298,12.42983,12.42983,0,0,0-4.60789,6.2686c-.20851.5234-.39161,1.0566-.64211,1.7363-.0586-.8633-.1006-1.5576-.1543-2.251a13.22891,13.22891,0,0,0-2.0723-5.7158,1.40222,1.40222,0,0,1-.1221-1.458,7.48485,7.48485,0,0,0,.30381-3.792,6.69757,6.69757,0,0,0-2.14991-3.8974,7.73881,7.73881,0,0,0,.583,1.6533c1.1997,1.9092.8872,3.9238.603,5.9502C41.34359,18.99441,41.28449,19.02271,41.225,19.05011Z" fill="#fff"/>
        <path d="M57.78549,19.07841a13.5295,13.5295,0,0,0,.5982-2.2851,5.87415,5.87415,0,0,0-.95759-3.3125c-.55461-1.001-1.22021-1.9405-1.81591-2.92a5.47384,5.47384,0,0,1-.6562-5.0332,7.09967,7.09967,0,0,1,1.8569-2.5117c.5786-.5498,1.1787-1.0771,1.8193-1.6592-.0537.8223-.12009,1.5664-.1464,2.3125a9.86468,9.86468,0,0,0,.913,4.2823.56324.56324,0,0,0,.397.3007.60889.60889,0,0,0,.44831-.2548c.56879-.8838,1.081-1.8047,1.67279-2.6719a18.73657,18.73657,0,0,1,1.2764-1.5176c.0395.0254.0791.0518.1191.0772-.0757.247-.1548.4941-.2261.7431a6.63888,6.63888,0,0,0,.46781,4.9492,36.11911,36.11911,0,0,1,2.16409,4.8633,5.24819,5.24819,0,0,1-.666,5.0332c-.3965.5137-.74809,1.0664-1.1758,1.5518a.80958.80958,0,0,1-1.2578.0849,13.70291,13.70291,0,0,0-4.0318-1.747C58.28359,19.25421,57.98079,19.14771,57.78549,19.07841Z" fill="#fff"/>
        <path d="M33.59119,43.94761c3.3032-1.4463,6.562-2.9043,9.8496-4.2959a30.0988,30.0988,0,0,1,3.32131-1.0743,1.419,1.419,0,0,1,.71969.1075c3.6397,1.0742,6.9258,2.9394,10.2974,4.6132.1323.0664.2558.1485.4423.2578-2.5659.6348-5.059,1.2491-7.5512,1.8682-1.4068.3496-2.8208.6748-4.2139,1.0733a4.93191,4.93191,0,0,1-2.6416,0c-2.4331-.6094-4.8838-1.1465-7.3213-1.7373C35.51259,44.52271,34.54769,44.21811,33.59119,43.94761Z" fill="#fff"/>
        <path d="M42.60289,34.43491c.2764-.4063.4248-.6465.5933-.8711a23.85021,23.85021,0,0,0,2.9428-6.0684,25.23848,25.23848,0,0,1,2.1309-4.3633,1.966,1.966,0,0,1,3.0347-.5586,7.01321,7.01321,0,0,1,2.22651,3.4649,1.23349,1.23349,0,0,1-.39891,1.5351c-1.28709,1.2559-2.499,2.5899-3.7383,3.8955a9.6,9.6,0,0,1-5.5264,3.0323A6.481,6.481,0,0,1,42.60289,34.43491Z" fill="#fff"/>
        <path d="M35.6381,33.66631a17.77462,17.77462,0,0,1-5.01571-1.3066,21.85124,21.85124,0,0,1-8.5757-5.8682,11.36422,11.36422,0,0,1-1.09959-1.3193,3.00462,3.00462,0,0,1-.27881-2.8926c.19781-.5166.48781-.9981.7002-1.5108.1323-.3193.2862-.3955.6133-.2597a9.64555,9.64555,0,0,0,.9404.2529,1.84312,1.84312,0,0,1,1.5757,1.6064,5.77788,5.77788,0,0,0,2.3213,3.4356c1.5972,1.2393,3.2642,2.3945,4.9492,3.5127a14.87,14.87,0,0,1,3.0342,3.3193C35.06769,32.95831,35.329,33.28451,35.6381,33.66631Z" fill="#fff"/>
        <path d="M75.83289,37.42311a30.13974,30.13974,0,0,1-5.7422,2.3233,2.62576,2.62576,0,0,1-2.9863-.5576,11.92339,11.92339,0,0,0-4.2979-1.9786c-.1987-.0683-.3975-.1347-.58839-.1992,1.14459-.8047,2.27489-1.6093,3.42089-2.3916a.70424.70424,0,0,1,.5284-.0615q4.56585,1.3242,9.124,2.6758C75.45539,37.28251,75.6151,37.346,75.83289,37.42311Z" fill="#fff"/>
        <path d="M17.22449,36.23171c1.4795-.7207,2.8164-1.3711,4.1523-2.0234,1.4639-.7149,2.9307-1.4229,4.3877-2.1524a.89592.89592,0,0,1,.9038-.0029c1.0591.5283,2.1431,1.0059,3.2173,1.5029.0078.0606.0161.1211.0244.1807-2.0317.6563-4.04,1.4014-6.102,1.9424A17.04354,17.04354,0,0,1,17.22449,36.23171Z" fill="#fff"/>
        <path d="M43.44569,30.35281c-.57859,1.3985-1.1197,2.7178-1.6768,4.0313a.51712.51712,0,0,1-.3115.2832,15.44278,15.44278,0,0,1-4.6685.3193,8.21362,8.21362,0,0,1,.5215-1.2724,9.58166,9.58166,0,0,1,4.24071-3.7188A1.69866,1.69866,0,0,1,43.44569,30.35281Z" fill="#fff"/>
        <path d="M52.35339,33.93091a5.37009,5.37009,0,0,1-3.5371,3.3721,5.63133,5.63133,0,0,1-2.5498-.1357,6.59354,6.59354,0,0,1-3.2237-1.7539,2.92327,2.92327,0,0,1-.2031-.2735c.4087,0,.7261-.0215,1.0401.0039a7.16844,7.16844,0,0,0,3.1298-.5976,4.77666,4.77666,0,0,1,1.4429-.1455c.8125-.0342,1.6299-.0039,2.438-.0781A9.11167,9.11167,0,0,0,52.35339,33.93091Z" fill="#fff"/>
        <path d="M53.86319,28.35481a6.41908,6.41908,0,0,1-.66309,3.9228,1.05419,1.05419,0,0,1-.39991.4512,5.99491,5.99491,0,0,1-3.3267.8623,4.81306,4.81306,0,0,0-.647-.0039C50.52569,31.82161,52.17519,30.10771,53.86319,28.35481Z" fill="#fff"/>
        <path d="M25.15759,21.86061c2.1396,1.6153,4.3257,3.1895,5.6362,5.6446A13.42361,13.42361,0,0,1,25.15759,21.86061Z" fill="#fff"/>
      </g>
    </g>
  </g>
</svg>
