<svg xmlns="http://www.w3.org/2000/svg" viewBox="0 0 126.60318 177.73852">
  <title>involucrate_4.1Recurso 12</title>
  <g id="Capa_2" data-name="Capa 2">
    <g id="Editar">
      <g>
        <g>
          <g>
            <g>
              <path d="M119.39792,165.82135v3.2129c-.2188.2324-.4297.4512-.6348.6738a2.807,2.807,0,0,1-2.583,1.0469,2.08032,2.08032,0,0,0-.6133,0,2.88367,2.88367,0,0,1-2.5947-1.0215c-.3672-.3691-.752-.6933-.6895-1.2891a1.01764,1.01764,0,0,0-.1113-.4414,1.31186,1.31186,0,0,0-2.5176.1329,1.837,1.837,0,0,0-.0664.6074,4.16183,4.16183,0,0,1-.4062,2.082,2.19244,2.19244,0,0,0-.1836.8926,4.41223,4.41223,0,0,1-.8516,2.2676,2.11172,2.11172,0,0,1-1.7617,1.0586c-.7129.0371-1.4297.0078-2.1152.0078a3.832,3.832,0,0,1-1.1748-2.9551c-.0655-1.5332-.0147-3.0703-.0284-4.6055a3.02308,3.02308,0,0,1,.3975-1.459c.4053-.7695.7627-1.5625,1.1465-2.3437a1.29121,1.29121,0,0,0-.2559-1.6777,1.70228,1.70228,0,0,0-1.8545-.3575,4.54021,4.54021,0,0,0-.8847.6016c-.7783.5781-1.543,1.1777-2.334,1.7402a1.86587,1.86587,0,0,1-.8262.3535c-1.0156.1114-2.0351.2012-3.0547.2325-.6093.0195-.9023-.2461-.9179-.7969-.0264-.918-.0118-1.8399.0332-2.7578a2.46225,2.46225,0,0,1,.7978-1.6172c.6143-.6172,1.1807-1.2891,1.8467-1.8457a6.53387,6.53387,0,0,1,2.9355-1.5547c1.2022-.2305,2.3946-.5098,3.5918-.7715.1495-.0332.2989-.0742.4454-.1191.6318-.1895.8652-.4453.8398-.916a.95562.95562,0,0,0-.9023-.8985,15.319,15.319,0,0,0-2.2725-.2597c-1.7188-.0567-2.1318-.0547-2.9219-2.0899a14.74028,14.74028,0,0,1-.6865-2.6719,3.10863,3.10863,0,0,1,3.5059-3.8339,6.41636,6.41636,0,0,1,2.7695.83,2.93494,2.93494,0,0,1,1.0644,1.0586,29.95223,29.95223,0,0,1,1.5166,3.1778,5.23824,5.23824,0,0,1,.1299,1.3632,1.339,1.339,0,0,0,2.2305,1.0098,3.17593,3.17593,0,0,0,.793-.916,7.341,7.341,0,0,1,2.6132-2.3184,4.27283,4.27283,0,0,1,2.0704-.5039c1.1738-.0586,2.3535-.0176,3.5312-.0312a1.333,1.333,0,0,1,1.1455.6308,13.25569,13.25569,0,0,1,2.2002,4.6934,8.28424,8.28424,0,0,1-.0088,2.8906c-.0869.7774-.7568,1.1895-1.4131,1.5059-.6425.3125-1.3134.5644-1.9707.8515a3.73714,3.73714,0,0,0-.8213.4043,2.34614,2.34614,0,0,1-1.6806.6055,1.39937,1.39937,0,0,0-.5908.1367.57089.57089,0,0,0-.2979.7617,2.50794,2.50794,0,0,1,.375,1.127,2.059,2.059,0,0,0,1.1543,1.543A11.56131,11.56131,0,0,1,119.39792,165.82135Zm-5.418-5.7969c0-.082-.0117-.289,0-.4922a2.68848,2.68848,0,0,0-.8447-2.0605,5.50222,5.50222,0,0,0-5.2842-1.7656,1.4417,1.4417,0,0,0-1.293,1.2988c-.0537.2383-.0537.5566-.208.6914-.9267.8086-.8926,1.9141-.9414,2.9766a2.83727,2.83727,0,0,0,1.9844,2.9589,8.31646,8.31646,0,0,0,3.6221.4278,3.11359,3.11359,0,0,0,2.5634-1.6953A3.46777,3.46777,0,0,0,113.97992,160.02445Z" fill="#ff6052" fill-rule="evenodd"/>
              <path d="M108.01412,160.99125a6.83656,6.83656,0,0,1-.2617-2.5019c.9677-.8008,1.4004-.8711,2.3134-.3731a5.46682,5.46682,0,0,1,.6465.4082,1.9988,1.9988,0,0,1,.6807,2.4317.97118.97118,0,0,1-.8516.5547A4.38841,4.38841,0,0,1,108.01412,160.99125Z" fill="#ffbd52" fill-rule="evenodd"/>
            </g>
            <g>
              <path d="M118.58932,161.05765c.8769.9336,1.6426,1.8223,2.4883,2.627a3.17808,3.17808,0,0,1,1.0322,2.4609c-.0068.9746-.0264,1.9473.0049,2.9219a2.35334,2.35334,0,0,1-.7315,1.793c-.4648.4746-.9638.9179-1.4365,1.3847a3.78826,3.78826,0,0,1-2.7832,1.0918c-.5117,0-1.0234.002-1.5371.002a5.39768,5.39768,0,0,1-3.7998-.9102c-.3486.793-.6651,1.6016-1.0498,2.375a4.86751,4.86751,0,0,1-4.6543,2.9121c-.6641.002-1.332-.0293-1.9932.0157a2.062,2.062,0,0,1-1.8847-.8282,9.51023,9.51023,0,0,1-1.2745-2.0781,7.99872,7.99872,0,0,1-.6289-3.4473c.0586-1.125.0284-2.2539.0196-3.3828-.002-.3945-.0567-.789-.0879-1.1836-1.1983.1328-2.3106.2676-3.4268.375-.5088.0489-1.0254.0176-1.5322.0723-1.4873.1641-2.3906-.7383-3.1992-1.7637a1.76561,1.76561,0,0,1-.3164-1.0058c-.0196-1.2266-.0391-2.459.0566-3.6817a4.90323,4.90323,0,0,1,1.6758-3.3535c.4961-.4453.9502-.9336,1.4219-1.4062a5.94829,5.94829,0,0,1,2.0761-1.545,3.04762,3.04762,0,0,0,.5801-.4062c-.1182-.2363-.2109-.457-.333-.6602a15.04655,15.04655,0,0,1-1.7031-5.3906,4.72908,4.72908,0,0,1,1.9326-4.7285,6.276,6.276,0,0,1,5.6367-1.2578,6.82448,6.82448,0,0,1,4.0918,2.2422,17.079,17.079,0,0,1,1.127,1.8242c.2949.5215.5449,1.0703.8652,1.7031.499-.3105.9463-.543,1.3418-.8437a7.16527,7.16527,0,0,1,4.5977-1.4453c1.2822.0156,2.5625.0214,3.8437.0019a2.596,2.596,0,0,1,2.1475.9981,11.309,11.309,0,0,1,.9131,1.2343,15.95628,15.95628,0,0,1,2.4189,5.9239,9.42821,9.42821,0,0,1-.1641,3.3593,3.90731,3.90731,0,0,1-1.4433,2.2969,6.55551,6.55551,0,0,1-2.3018,1.1953C119.94082,160.73345,119.29242,160.88,118.58932,161.05765Zm.8086,4.7637a11.56131,11.56131,0,0,0-2.8926-2.5527,2.059,2.059,0,0,1-1.1543-1.543,2.50794,2.50794,0,0,0-.375-1.127.57089.57089,0,0,1,.2979-.7617,1.39937,1.39937,0,0,1,.5908-.1367,2.34614,2.34614,0,0,0,1.6806-.6055,3.73714,3.73714,0,0,1,.8213-.4043c.6573-.2871,1.3282-.539,1.9707-.8515.6563-.3164,1.3262-.7285,1.4131-1.5059a8.28424,8.28424,0,0,0,.0088-2.8906,13.25569,13.25569,0,0,0-2.2002-4.6934,1.333,1.333,0,0,0-1.1455-.6308c-1.1777.0136-2.3574-.0274-3.5312.0312a4.27283,4.27283,0,0,0-2.0704.5039,7.341,7.341,0,0,0-2.6132,2.3184,3.17593,3.17593,0,0,1-.793.916,1.339,1.339,0,0,1-2.2305-1.0098,5.23824,5.23824,0,0,0-.1299-1.3632,29.95223,29.95223,0,0,0-1.5166-3.1778,2.93494,2.93494,0,0,0-1.0644-1.0586,6.41636,6.41636,0,0,0-2.7695-.83,3.10863,3.10863,0,0,0-3.5059,3.8339,14.74028,14.74028,0,0,0,.6865,2.6719c.7901,2.0352,1.2031,2.0332,2.9219,2.0899a15.319,15.319,0,0,1,2.2725.2597.95562.95562,0,0,1,.9023.8985c.0254.4707-.208.7265-.8398.916-.1465.0449-.2959.0859-.4454.1191-1.1972.2617-2.3896.541-3.5918.7715a6.53387,6.53387,0,0,0-2.9355,1.5547c-.666.5566-1.2324,1.2285-1.8467,1.8457a2.46225,2.46225,0,0,0-.7978,1.6172c-.045.9179-.0596,1.8398-.0332,2.7578.0156.5508.3086.8164.9179.7969,1.0196-.0313,2.0391-.1211,3.0547-.2325a1.86587,1.86587,0,0,0,.8262-.3535c.791-.5625,1.5557-1.1621,2.334-1.7402a4.54021,4.54021,0,0,1,.8847-.6016,1.70228,1.70228,0,0,1,1.8545.3575,1.29121,1.29121,0,0,1,.2559,1.6777c-.3838.7812-.7412,1.5742-1.1465,2.3437a3.02308,3.02308,0,0,0-.3975,1.459c.0137,1.5352-.0371,3.0723.0284,4.6055a3.832,3.832,0,0,0,1.1748,2.9551c.6855,0,1.4023.0293,2.1152-.0078a2.11172,2.11172,0,0,0,1.7617-1.0586,4.41223,4.41223,0,0,0,.8516-2.2676,2.19244,2.19244,0,0,1,.1836-.8926,4.16183,4.16183,0,0,0,.4062-2.082,1.837,1.837,0,0,1,.0664-.6074,1.31186,1.31186,0,0,1,2.5176-.1329,1.01764,1.01764,0,0,1,.1113.4414c-.0625.5958.3223.92.6895,1.2891a2.88367,2.88367,0,0,0,2.5947,1.0215,2.08032,2.08032,0,0,1,.6133,0,2.807,2.807,0,0,0,2.583-1.0469c.2051-.2226.416-.4414.6348-.6738Z" fill="#4f2400" fill-rule="evenodd"/>
              <path d="M113.97992,160.02445a3.46777,3.46777,0,0,1-.4014,2.3399,3.11359,3.11359,0,0,1-2.5634,1.6953,8.31646,8.31646,0,0,1-3.6221-.4278,2.83727,2.83727,0,0,1-1.9844-2.9589c.0488-1.0625.0147-2.168.9414-2.9766.1543-.1348.1543-.4531.208-.6914a1.4417,1.4417,0,0,1,1.293-1.2988,5.50222,5.50222,0,0,1,5.2842,1.7656,2.68848,2.68848,0,0,1,.8447,2.0605C113.96822,159.73545,113.97992,159.94245,113.97992,160.02445Zm-5.9658.9668a4.38841,4.38841,0,0,0,2.5273.5196.97118.97118,0,0,0,.8516-.5547,1.9988,1.9988,0,0,0-.6807-2.4317,5.46682,5.46682,0,0,0-.6465-.4082c-.913-.498-1.3457-.4277-2.3134.3731A6.83656,6.83656,0,0,0,108.01412,160.99125Z" fill="#4f2400" fill-rule="evenodd"/>
            </g>
          </g>
          <g>
            <g>
              <path d="M48.099,57.78225a2.712,2.712,0,0,0,.5293-1.7089,22.06036,22.06036,0,0,0-1.9765-8.4122,21.74552,21.74552,0,0,0-2.1768-5.041,2.424,2.424,0,0,0-1.0957-1.0254c-.2178-.3496-.4394-.6953-.6611-1.039a26.19852,26.19852,0,0,0-1.5801-4.9981,2.76543,2.76543,0,0,0-3.4707-1.6484A2.73016,2.73016,0,0,0,36.017,37.38a21.3635,21.3635,0,0,1,1.0098,2.8477,2.49381,2.49381,0,0,0,.0928,1.5585c.1669.4415.3535.8731.5488,1.3028.1572.9121.2822,1.834.3857,2.7656.0508.4512.0957.9023.1387,1.3535a2.5254,2.5254,0,0,0-.0879.5391,25.30118,25.30118,0,0,0,.294,5.0058c-.0284.8575-.0899,1.7168-.1963,2.5801-.7051,5.752-2.6485,11.2676-3.3203,17.0274a2.6958,2.6958,0,0,0-.377.7109,2.86066,2.86066,0,0,0-.5996.8125q-.3663.7353-.7334,1.4688a2.739,2.739,0,0,0,3.3799,3.6953c3.4355-1.2559,7.1767-2.1368,9.4306-5.0489a2.94627,2.94627,0,0,0,.5713-.7812c.0645-.125.124-.2539.1836-.3809.0635-.1152.125-.2324.1836-.3535a3.157,3.157,0,0,0,.1514-.3789A24.12825,24.12825,0,0,0,48.099,57.78225Z" fill="#333"/>
              <path d="M59.04442,42.962a21.61756,21.61756,0,0,0-2.087-3.6445,2.52716,2.52716,0,0,0-3.1367-.9141,2.61766,2.61766,0,0,0-2.9365-.8222,2.72557,2.72557,0,0,0-1.6494,3.4707,17.28239,17.28239,0,0,0,3.2178,4.457,12.41274,12.41274,0,0,1,2.9716,4.1152,13.86,13.86,0,0,1,.4024,5.3711c-.4385,3.3711-1.3311,6.6641-1.9346,10.0059a2.73536,2.73536,0,0,0,4.7705,2.2051,4.621,4.621,0,0,0,.9707-2.9532,2.59707,2.59707,0,0,0,1.0791-1.6113,35.74618,35.74618,0,0,0,.7559-8.9316C61.78852,49.80575,61.35882,46.01475,59.04442,42.962Z" fill="#333"/>
              <path d="M36.46432,62.17685a37.63435,37.63435,0,0,0,1.6123-11.8907c-.0068-3.0332-.2315-6.7558-1.7041-9.6113a8.47566,8.47566,0,0,0-1.4414-4.4258,9.24013,9.24013,0,0,0-1.3975-1.8379,9.67254,9.67254,0,0,0-4.4922-2.5468,9.16221,9.16221,0,0,0-6.5713-2.2168,14.26785,14.26785,0,0,0-4.247.7578c-.0567.0078-.1133.0117-.17.0215-3.3818.58-5.8603,2.705-7.8193,5.3144l-.0117.0078a16.852,16.852,0,0,0-1.6231,1.4766c-.2685.2637-.5156.5273-.7363.7871-.0976.1133-.1924.2305-.2851.3496a33.59374,33.59374,0,0,0-2.7217,3.8125,17.02081,17.02081,0,0,0-1.9131,4.2832,11.65952,11.65952,0,0,0-.7031,1.3477,19.56075,19.56075,0,0,0-.834,11.4785q-.0015.703.0547,1.4023c-.4551,2.0332.3261,4.17,1.6924,6.168a32.15765,32.15765,0,0,0,2.3427,4.1563c2.8672,4.3671,7.1172,8.5859,12.1524,10.3027a12.26552,12.26552,0,0,0,8.2676.041,6.96911,6.96911,0,0,0,2.5195-.8223c3.0625-1.6757,4.9531-5.3769,6.3711-8.416a2.60647,2.60647,0,0,0-.5713-2.9453,20.08586,20.08586,0,0,0,2.1279-6.4258C36.39792,62.55575,36.43112,62.36625,36.46432,62.17685ZM22.05612,54.589c.0019.1523.0058.3047.0117.4551a3.95274,3.95274,0,0,0-.7754.3847C21.56392,55.15145,21.81982,54.87015,22.05612,54.589Z" fill="#f9e603"/>
              <path d="M54.76412,54.45415c-.2578-.9941-.5596-1.9726-.8858-2.9453-.5-5.3262-1.5927-11.3047-4.998-15.4961a2.76292,2.76292,0,0,0-3.7832-.668,2.84038,2.84038,0,0,0-1.044,3.0957,3.54778,3.54778,0,0,0,.042,1.5098c.9551,4.0156,2.918,8.2188,4.4043,12.459.0352.3769.0674.7519.0967,1.1289a70.92627,70.92627,0,0,1-.5771,16.6035,2.74794,2.74794,0,0,0,1.539,2.9414,2.78673,2.78673,0,0,0,3.6035-1.334C56.474,66.43855,56.28852,60.31155,54.76412,54.45415Z" fill="#f9e603"/>
              <path d="M64.95552,48.10845c-.4941-3.1328-1.4678-6.168-2.0068-9.291a2.775,2.775,0,0,0-2.9317-2.4863,2.72753,2.72753,0,0,0-2.4863,2.9316c.5176,2.9902,1.3867,5.9004,1.9375,8.8809a19.48084,19.48084,0,0,1-.4356,9.1484,2.71975,2.71975,0,0,0,2.2032,3.1465,2.775,2.775,0,0,0,3.1474-2.2031A23.2823,23.2823,0,0,0,64.95552,48.10845Z" fill="#f9e603"/>
              <path d="M67.18792,15.64755c.4766-1.7168-.7139-3.9336-2.7646-3.5469a31.26641,31.26641,0,0,0-7.6172,2.3594,9.71473,9.71473,0,0,0,.6015-2.4844,2.7473,2.7473,0,0,0-4.2334-2.6973c-.2421.1446-.4873.2832-.7334.42-.124.0683-.2509.1347-.3769.2011.0117-.0078-.4336.2207-.4766.2422-.7549.375-1.5254.7168-2.3086,1.0313a3.04638,3.04638,0,0,0-.2949-.6797c.0801-.25.1582-.5039.2324-.7578.2071-.3809.42-.7598.6426-1.1348a2.12679,2.12679,0,0,0,.2627-1.2832,16.30989,16.30989,0,0,0,1.9395-2.7559c1.2324-2.3144-1.9639-5.1132-4.0264-3.3593a29.802,29.802,0,0,0-5.4902,6.5175,23.03806,23.03806,0,0,0-5.0079,6.8418c-.2421-1.1289-.5058-2.2519-.7714-3.3574a64.95357,64.95357,0,0,0-2.6026-8.6875,2.75472,2.75472,0,0,0-4.1181-1.3144,7.34375,7.34375,0,0,0-3.1153,5.3066,25.65424,25.65424,0,0,0-1.1777-2.4375,2.7231,2.7231,0,0,0-4.3203-.1738,6.13746,6.13746,0,0,0-.9815,3.791c0,.0234.0039.0449.0039.0683a3.0907,3.0907,0,0,0-2.2451-.2812c-4.1084,1.0156-4.3418,5.4238-2.9101,8.668a27.53594,27.53594,0,0,0,4.2441,6.5547c.0859.1367.1719.2734.2578.4062,1.5889,2.457,3.958,5.5039,6.8965,6.5625a12.61213,12.61213,0,0,0,5.5361,2.6484,4.37094,4.37094,0,0,0,3.5245-.8339,7.69293,7.69293,0,0,0,6.0224,4.2168c4.7764.7988,9.7217-1.9258,13.501-4.5293a43.69841,43.69841,0,0,0,7.8428-6.9864,17.597,17.597,0,0,0,4.1972-7.0664A2.256,2.256,0,0,0,67.18792,15.64755Zm-21.4062,14.3418c.0869-.0957.1728-.1895.2597-.2852.042.0567.0879.1094.1348.1641C46.04632,29.91115,45.91352,29.95025,45.78172,29.98935Z" fill="#7d4e24"/>
            </g>
            <g>
              <path d="M71.37642,34.68265a42.268,42.268,0,0,0-12.7109,1.8946.59864.59864,0,0,0-.4434.5625,24.516,24.516,0,0,1-10.7637-.793c4.0215-1.1934,7.8633-3.8613,11.0088-6.2149,4.1572-3.1093,9.1953-7.496,10.4326-12.7656.8242-3.5078-2.0625-5.3281-5.1836-5.3672a14.34185,14.34185,0,0,0-6.5605,1.6778,8.45792,8.45792,0,0,0,1.9609-4.8301.68906.68906,0,0,0-.5654-.6211c-2.8447-.7285-5.5322.3652-7.8672,2.125a20.28541,20.28541,0,0,0,2.3945-5.2422c.4561-1.668.3077-3.541-1.1728-4.6289-1.3711-1.0078-3.0762-.2344-4.3389.5566-3.5107,2.1954-6.6006,6.1329-8.6758,9.6778a27.14477,27.14477,0,0,0-1.8877,3.9433,28.0555,28.0555,0,0,0-1.1679-7.5371c-.7559-2.3828-2.626-6.6015-5.6914-6.5215-2.5352.0684-2.9463,3.4336-2.8653,6.2911a14.50076,14.50076,0,0,0-4.1601-5.0176.69519.69519,0,0,0-.8321-.0332c-2.2226,1.8301-2.3603,4.1308-1.791,6.4804a4.83093,4.83093,0,0,0-3.1679-1.4101c-2.5782-.0684-3.4532,3.2949-3.5586,5.2598-.4688,8.7441,7.1953,12.9863,13.2383,17.6777a22.1934,22.1934,0,0,0-7.6778.1543C5.70262,32.78815-2.36578,50.11435.61862,62.962c3.2871,14.1485,19.7793,18.9746,32.5879,16.5215a48.46285,48.46285,0,0,0,22.0742-10.3808,26.927,26.927,0,0,0,7.1308-9.086c1.5508-3.3945,2.1817-7.1758,2.961-10.8008,1.0449-4.8593,2.3408-10.082,6.4551-13.2851A.69329.69329,0,0,0,71.37642,34.68265Zm-6.6563,1.8946a2.7393,2.7393,0,0,0-.7168.3203c-.0918.0547-.1816.1133-.2705.1718a.66856.66856,0,0,0-.1474-.2949C63.96232,36.70415,64.34032,36.63585,64.72012,36.57725Zm-.9707,3.5996c-.0742.0918-.1504.1836-.2304.2715-.0469-.086-.0967-.1719-.1465-.2559A.73081.73081,0,0,0,63.74942,40.17685Zm-.7851-1.2578a2.85783,2.85783,0,0,0-.0996.4921c-.1426-.1992-.293-.3925-.4532-.5781A1.42513,1.42513,0,0,0,62.96432,38.91905Zm-.9981-1.3614c-.0273.2149-.0332.4395-.041.6524a.62135.62135,0,0,0,.0098.123,7.02446,7.02446,0,0,0-.6231-.5371C61.53262,37.72175,61.74942,37.63775,61.96622,37.55765ZM39.40962,12.587a33.33608,33.33608,0,0,1,7.1191-9.0039c.96-.8711,2.8418-2.6426,4.2989-2.1426,1.9209.6563.914,3.5762.4238,4.8223-1.3945,3.543-3.8955,6.4336-5.8848,9.6289v.002h0c-.0312.0507-.0644.0996-.0957.1504-.4101.6679.6885,1.3378,1.1543.7265,2.5176-3.3086,6.6397-8.0195,11.2735-7.3125-.502,3.5821-4.5469,6.2363-6.7618,8.7578-.5937.6778.4395,1.4825,1.0596.875,3.0098-2.9492,6.958-5.3691,11.2412-5.7011a4.9751,4.9751,0,0,1,3.7207.9629c1.1739,1.0371.6387,2.9238.1406,4.1406-1.873,4.5703-6.3476,8.2676-10.2265,11.1094-3.4248,2.5097-7.7539,5.3691-12.1475,5.9121-2.9424-.9786-5.8701-2.1836-8.8213-3.252q.003-.93165.0157-1.8613a15.778,15.778,0,0,0,.4502-2.4766,68.5501,68.5501,0,0,0,.5595-7.1855q.0264-.6768.0508-1.3575A27.54874,27.54874,0,0,1,39.40962,12.587Zm-9.791,17.6094c-5.1719-4.4395-12.0547-7.3848-14.0723-14.4492-.5898-2.0664-.9443-5.6192.9844-7.1582,2.3945-1.9121,5.2783,3.7988,5.9668,5.1875.3828.7734,1.6211.3847,1.2949-.461-1.1455-2.9765-3.7793-7.291-1.0732-10.0214,2.33,1.875,3.5713,4.5839,4.8847,7.2324.3233.6504,1.4307.5469,1.333-.2871-.1211-1.0254-1.0595-9.127,1.7657-8.2071,2.8047.9121,4.0039,5.5977,4.4765,8.0547a41.46513,41.46513,0,0,1,.4385,9.25,56.11344,56.11344,0,0,0-1.0596,10.8535,2.14352,2.14352,0,0,1-.3359.5606.60607.60607,0,0,0-.1065.6777.58041.58041,0,0,0-.2353.1289c-1.3633-.455-2.7334-.8593-4.1133-1.1836A.71323.71323,0,0,0,29.61862,30.19635Zm2.3808,46.9355a1.69482,1.69482,0,0,1-.25.3106c-.6162-.3145-1.0879.459-.8105.9824a35.311,35.311,0,0,1-7.0791.1973c-7.0908-.5352-14.4453-3.3223-18.8311-9.1485-4.5449-6.0351-4.2636-14.3144-2.0293-21.1835,2.2842-7.0196,7.1602-13.8086,14.336-16.3243,5.8691-2.0586,11.3886-.916,16.9121.9805.0801.0586.1767.1289.1767.1953v.4258a.64983.64983,0,0,0,.8789.5801c1.085,1.7656,1.46,4.4258,1.754,6.0879a36.76513,36.76513,0,0,1,.7431,6.4297,76.87513,76.87513,0,0,1-1.1338,10.8417c-.6552,4.4258-1.4463,8.8418-2.498,13.1915a40.65753,40.65753,0,0,1-1.4531,4.9218A7.75478,7.75478,0,0,1,31.99942,77.13185Zm.7754,1.0215c2.7012-3.3496,4.8565-17.8515,5.0899-19.3437a83.7114,83.7114,0,0,0,1.3203-12.4278,39.24546,39.24546,0,0,0-1.0938-8.1269,17.33719,17.33719,0,0,0-1.4199-4.4551c1.4551.543,2.9072,1.1133,4.3633,1.668a.75613.75613,0,0,0,.0352.1308,151.22443,151.22443,0,0,1,5.8486,17.8965c1.4814,6.2051,2.2744,13.1524-.2549,19.1953a.65047.65047,0,0,0,.0137.5645A46.49778,46.49778,0,0,1,32.77482,78.15335Zm21.3184-10.5703a.57669.57669,0,0,0,.0625.6875,41.13239,41.13239,0,0,1-5.9004,4.1035c2.0469-5.6172,1.5312-11.7734.3555-17.5429a124.71472,124.71472,0,0,0-5.8848-18.7305c.0625.0215.124.0449.1865.0664a.71272.71272,0,0,0,.7178.8145,13.13705,13.13705,0,0,0,1.3242-.0997,44.18408,44.18408,0,0,0,4.4492,1.254.68518.68518,0,0,0,.1075.4121,44.91836,44.91836,0,0,1,5.5078,14.5195C55.97112,57.74325,56.433,63.23345,54.09322,67.58305Zm3.1514-2.3086q-.56115.63585-1.1592,1.2324c1.6015-4.2539,1.1386-9.2011.3037-13.5527a46.01752,46.01752,0,0,0-5.3379-14.5,24.68248,24.68248,0,0,0,3.9277.3418c.0284.0117.0537.0254.084.0352,4.5264,1.373,5.0459,7.248,5.0654,11.1992a41.94643,41.94643,0,0,1-2.3212,13.8379.69233.69233,0,0,0,.0839.6406C57.68112,64.76475,57.46722,65.02055,57.24462,65.27445Zm5.5546-10.8008a25.707,25.707,0,0,1-2.8564,7.1094,44.86073,44.86073,0,0,0,1.5469-12.4355c-.0625-3.7442-.8692-8.2032-3.8955-10.5059.6416-.0781,1.2861-.1875,1.9345-.332l.0098.0039c3.1426,1.5019,3.8838,5.3808,4.7461,8.4277a.66434.66434,0,0,0,.1523.2774C63.84122,49.52835,63.38812,52.08115,62.79922,54.47365Zm2.2881-9.9335c-.1562-.5391-.3232-1.0801-.5058-1.6133a3.26171,3.26171,0,0,0,1.333-.834C65.60492,42.88975,65.33242,43.70805,65.08732,44.54015Zm1.8457-4.7071a.65839.65839,0,0,0-.3828.0098q.5406-.68265,1.1348-1.3125C67.41552,38.95225,67.16642,39.38775,66.933,39.83305Zm.795-3.2597a.68415.68415,0,0,0-.5401.2128c-.0771.0801-.1533.1622-.2295.2442a.68515.68515,0,0,0-1.1631-.2442c-.0732.0704-.1513.1329-.2265.1993a.68983.68983,0,0,0-.5557-.4493c1.0469-.1543,2.0986-.2675,3.1553-.3476C68.019,36.31545,67.87252,36.44245,67.728,36.57335Z" fill="#4f2400"/>
              <path d="M23.58342,55.06545c-1.8926-.0253-2.8095,3.1954-3.4062,4.5196-1.3145,2.916-4.2666,7.6113-7.8887,5.4394-.7588-.4531-1.3281.7989-.5742,1.25,4.6953,2.8125,8.3164-2.998,9.9746-6.6992a19.13187,19.13187,0,0,1,1.2139-2.457c.6826-1.0781,1.0752-.4356,1.5517.5019,1.6055,3.1524.6309,8.7344-3.9765,7.8164a.68757.68757,0,0,0-.2383,1.3536c3.3076.6582,5.8301-1.75,6.3838-4.8907C26.92722,60.16705,26.103,55.09865,23.58342,55.06545Z"/>
              <path d="M10.05222,44.38c-2.6709.6719-3.2207,4.4727-2.9141,6.6914.1201.877,1.4902.7656,1.3692-.1133-.2442-1.7695-.0196-4.0918,1.6523-5.1406,1.9473-1.2246,2.4805,2.8926,2.5498,3.8613a.68776.68776,0,0,0,1.3701-.1133C13.92332,47.36625,13.05022,43.62605,10.05222,44.38Z"/>
              <path d="M27.03072,41.91315a5.27594,5.27594,0,0,0-5.2568.3105c-2.4073,1.5918-3.1358,4.9805-3.4854,7.6231-.1152.8769,1.2383,1.1191,1.3545.2383.4619-3.4981,2.249-8.9317,6.8135-6.9239,2.414,1.0625,4.708,4.4473,2.6582,6.8321-.5772.6699.4824,1.5469,1.0595.875C32.87832,47.72365,30.19672,43.44245,27.03072,41.91315Z"/>
            </g>
          </g>
          <g>
            <path d="M119.68212,131.58505c.7431-1.3457.1377-2.2461-1.3125-3.0547a2.36815,2.36815,0,0,0-2.9737.7969,2.46158,2.46158,0,0,0,.2178,2.9648,2.32286,2.32286,0,0,0,3.04.3809A7.12847,7.12847,0,0,0,119.68212,131.58505Z" fill="#4f2400" fill-rule="evenodd"/>
            <path d="M118.13422,99.37015a2.2599,2.2599,0,0,0-1.0332-2.955,2.20715,2.20715,0,0,0-2.9453,1.0234,2.2403,2.2403,0,0,0,1.0137,2.957A2.28631,2.28631,0,0,0,118.13422,99.37015Z" fill="#4f2400" fill-rule="evenodd"/>
            <path d="M111.00532,89.75105a2.19533,2.19533,0,1,0-3.0078.8183A2.191,2.191,0,0,0,111.00532,89.75105Z" fill="#4f2400" fill-rule="evenodd"/>
            <path d="M89.974,91.97565a2.08975,2.08975,0,0,0-.7841-2.8906A2.13117,2.13117,0,0,0,87.1,92.79985,2.07076,2.07076,0,0,0,89.974,91.97565Z" fill="#4f2400" fill-rule="evenodd"/>
            <path d="M78.95942,31.55765a2.113,2.113,0,1,0,.8252,2.8731A2.11628,2.11628,0,0,0,78.95942,31.55765Z" fill="#4f2400" fill-rule="evenodd"/>
            <path d="M97.78852,46.55185a1.98035,1.98035,0,0,0,.2832,2.3027,2.02951,2.02951,0,0,0,3.5098-1.7051,3.79954,3.79954,0,0,0-.4698-1.1367,1.56453,1.56453,0,0,0-2.1503-.5976A2.744,2.744,0,0,0,97.78852,46.55185Z" fill="#4f2400" fill-rule="evenodd"/>
            <path d="M87.12742,80.546a1.95694,1.95694,0,0,0,.831,2.7305,1.88558,1.88558,0,0,0,2.7031-.8242,2.00794,2.00794,0,1,0-3.5341-1.9063Z" fill="#4f2400" fill-rule="evenodd"/>
            <path d="M100.21042,94.26275a1.63845,1.63845,0,0,0-1.2207-2.5957,2.88313,2.88313,0,0,0-2.1446,1.0898,1.70485,1.70485,0,0,0,.1465,2.0508,1.58757,1.58757,0,0,0,1.9844.4434A9.23609,9.23609,0,0,0,100.21042,94.26275Z" fill="#4f2400" fill-rule="evenodd"/>
            <path d="M91.44482,36.66315a1.73524,1.73524,0,0,0-2.375.752,1.79,1.79,0,0,0,.6992,2.4101,1.76206,1.76206,0,0,0,2.4687-.8086A1.7183,1.7183,0,0,0,91.44482,36.66315Z" fill="#4f2400" fill-rule="evenodd"/>
            <path d="M96.67912,79.11235a1.77611,1.77611,0,1,0,2.3672-.8105A1.75877,1.75877,0,0,0,96.67912,79.11235Z" fill="#4f2400" fill-rule="evenodd"/>
            <path d="M109.20652,82.42875a1.73854,1.73854,0,0,0,1.6679-3.0508,1.73984,1.73984,0,1,0-1.6679,3.0508Z" fill="#4f2400" fill-rule="evenodd"/>
            <path d="M108.03072,69.26275a1.64866,1.64866,0,0,0,.3691,2.2129,1.698,1.698,0,0,0,2.2725-.0957,1.72618,1.72618,0,0,0,.1533-2.2695,2.83193,2.83193,0,0,0-.3877-.3926,1.3583,1.3583,0,0,0-2.0674.0957A4.92248,4.92248,0,0,0,108.03072,69.26275Z" fill="#4f2400" fill-rule="evenodd"/>
            <path d="M118.24462,107.60455a1.74169,1.74169,0,1,0,2.2734-.791A1.81185,1.81185,0,0,0,118.24462,107.60455Z" fill="#4f2400" fill-rule="evenodd"/>
            <path d="M122.10492,117.37015a1.66627,1.66627,0,0,0-2.2803.6094,1.70772,1.70772,0,1,0,2.9248,1.7637A1.66748,1.66748,0,0,0,122.10492,117.37015Z" fill="#4f2400" fill-rule="evenodd"/>
            <path d="M114.642,140.13775a1.67624,1.67624,0,0,0-.5566-2.3105,1.73094,1.73094,0,0,0-2.3164.5683,1.69,1.69,0,0,0,.5849,2.3028A1.63156,1.63156,0,0,0,114.642,140.13775Z" fill="#4f2400" fill-rule="evenodd"/>
            <path d="M106.71432,57.86625a1.59615,1.59615,0,0,0-1.9951.2266,1.41335,1.41335,0,0,0-.0987,1.6719,3.82265,3.82265,0,0,0,.795.9355,1.47946,1.47946,0,0,0,2-.0996,1.53048,1.53048,0,0,0,.0615-2.123A5.63369,5.63369,0,0,0,106.71432,57.86625Z" fill="#4f2400" fill-rule="evenodd"/>
          </g>
        </g>
        <g>
          <path d="M76.09512,28.39755a5.72669,5.72669,0,0,1,.1329-.6133,2.3398,2.3398,0,0,1,4.1103-.875,2.51,2.51,0,0,1,.2061.2676,3.22424,3.22424,0,0,1,.6035,1.7949,4.69384,4.69384,0,0,1,.0508,1.0586c-.0157.2109-.0391.4433-.0801.6758a4.67691,4.67691,0,0,1,1.6601-.3692,4.21463,4.21463,0,0,1,.6075.0098c.0156-.002.0332-.0078.0488-.0098a2.102,2.102,0,0,1,1.8027.6192,2.77775,2.77775,0,0,1,.7725,1.0527,1.30865,1.30865,0,0,1,.123.3828c.0088.0352.0186.0684.0264.1055a2.30208,2.30208,0,0,1-.5996,1.8594c-.7402,1.0546-2.4873,1.1933-3.6231,1.4863a12.15108,12.15108,0,0,0-2.3945.8633,15.21594,15.21594,0,0,1-1.8916.8515.79627.79627,0,0,1-.5566-.0371.89245.89245,0,0,1-.9893-.9238,13.45016,13.45016,0,0,0-.2822-2.4219,17.77824,17.77824,0,0,1-.1944-2.5547C75.62352,30.95805,75.50922,29.16905,76.09512,28.39755Z" fill="#dc4654"/>
          <path d="M74.87832,33.26275a19.6386,19.6386,0,0,0,.9288,3.084,4.57185,4.57185,0,0,0,1.7353,2.4394.691.691,0,0,0,1.0225-.3984,41.97034,41.97034,0,0,0,5.0849-1.7461c1.4629-.6875,3.2178-1.7461,3.7022-3.414a2.66044,2.66044,0,0,0-2.2451-3.4532,4.98919,4.98919,0,0,0-2.42-.125,3.07753,3.07753,0,0,0-.6406.2696,4.27171,4.27171,0,0,0-1.9873-4.6172c-1.7392-.9141-4.1055.1718-5.001,1.8242C74.03262,29.01865,74.40862,31.255,74.87832,33.26275Zm1.0469-4.0801c.1426-1.4726,1.502-3.2363,3.166-3.0332,1.9209.2344,2.4649,2.5508,1.8702,4.0996a.42544.42544,0,0,0,.0459.42c-.0694.0625-.1387.1211-.2032.1816a.395.395,0,0,0,.5137.5996,2.43653,2.43653,0,0,1,1.9561-.7031,6.94926,6.94926,0,0,1,1.8466.5976c.4092.211.916.5821.7403,1.1153a3.27743,3.27743,0,0,1-.9922,1.4824,13.02755,13.02755,0,0,1-3.6582,1.8984c-.9766.3946-2.3272.4356-3.3262.9414a7.551,7.551,0,0,1-.5078-.9453,15.68776,15.68776,0,0,1-.7363-2.2207A13.28443,13.28443,0,0,1,75.92522,29.18265Z" fill="#463131"/>
        </g>
        <g>
          <path d="M95.65962,46.93075a5.75872,5.75872,0,0,1-.2324-.5821,2.33948,2.33948,0,0,1,2.9101-3.0312,2.15779,2.15779,0,0,1,.3213.1055,3.24387,3.24387,0,0,1,1.5078,1.1464,4.874,4.874,0,0,1,.6358.8477c.1054.1836.2158.3906.3125.6035a4.68478,4.68478,0,0,1,1.166-1.2363,4.44635,4.44635,0,0,1,.5078-.332c.0127-.0118.0254-.0254.0361-.0352a2.10516,2.10516,0,0,1,1.8389-.5019,2.81406,2.81406,0,0,1,1.2305.4394,1.29829,1.29829,0,0,1,.3164.2481c.0273.0234.0547.0449.082.0722a2.30115,2.30115,0,0,1,.5469,1.875c-.0195,1.2891-1.3887,2.3828-2.1651,3.2637a12.15337,12.15337,0,0,0-1.497,2.0586,15.33368,15.33368,0,0,1-1.0869,1.7676.8129.8129,0,0,1-.4825.2812.89306.89306,0,0,1-1.3369-.209,13.42763,13.42763,0,0,0-1.5928-1.8476,17.80114,17.80114,0,0,1-1.5947-2.0039C96.70842,49.31545,95.60882,47.89755,95.65962,46.93075Z" fill="#dc4654"/>
          <path d="M97.38422,51.63975a19.653,19.653,0,0,0,2.5,2.0312,4.562,4.562,0,0,0,2.8047,1.0449.69168.69168,0,0,0,.623-.9043,42.08672,42.08672,0,0,0,3.2295-4.2968c.8242-1.3926,1.6826-3.252,1.1475-4.9043a2.65989,2.65989,0,0,0-3.7969-1.5977,4.99475,4.99475,0,0,0-2.0742,1.2539,3.169,3.169,0,0,0-.377.582,4.27366,4.27366,0,0,0-4.2363-2.705c-1.9531.2187-3.3008,2.4472-3.1152,4.3144C94.30222,48.60265,95.86862,50.24125,97.38422,51.63975Zm-1.4238-3.9629c-.7071-1.3008-.5733-3.5235.9189-4.2891,1.7217-.8848,3.4697.7285,3.8487,2.3438a.42516.42516,0,0,0,.2734.3222c-.0234.0899-.0449.1778-.0664.2637a.39516.39516,0,0,0,.7617.209,2.43762,2.43762,0,0,1,1.2246-1.6797,7.0177,7.0177,0,0,1,1.8633-.543c.457-.0547,1.0859-.0312,1.2383.5078a3.26182,3.26182,0,0,1,.0117,1.7852,13.04591,13.04591,0,0,1-1.9629,3.623c-.5879.875-1.6816,1.6661-2.2236,2.6465a7.59739,7.59739,0,0,1-.9512-.498,15.42689,15.42689,0,0,1-1.8545-1.4239A13.34088,13.34088,0,0,1,95.96042,47.67685Z" fill="#463131"/>
        </g>
        <g>
          <path d="M114.40962,106.53225a5.363,5.363,0,0,1-.2324-.58,2.33909,2.33909,0,0,1,2.9101-3.0313,2.46,2.46,0,0,1,.3203.1035,3.25308,3.25308,0,0,1,1.5079,1.1485,4.75139,4.75139,0,0,1,.6357.8476c.1055.1836.2158.3887.3135.6035a4.65234,4.65234,0,0,1,1.165-1.2363,4.3812,4.3812,0,0,1,.5088-.332c.0117-.0117.0234-.0254.0352-.0371a2.11158,2.11158,0,0,1,1.8398-.5,2.79529,2.79529,0,0,1,1.2295.4394,1.34286,1.34286,0,0,1,.3174.2481c.0263.0234.0537.0449.0801.0722a2.29826,2.29826,0,0,1,.5478,1.875c-.0195,1.2891-1.3896,2.3828-2.165,3.2637a12.045,12.045,0,0,0-1.4961,2.0586,15.34144,15.34144,0,0,1-1.0879,1.7676.8156.8156,0,0,1-.4824.2812.89562.89562,0,0,1-1.3379-.209,13.434,13.434,0,0,0-1.5918-1.8476,17.78174,17.78174,0,0,1-1.5948-2.0039C115.45652,108.91905,114.35782,107.50105,114.40962,106.53225Z" fill="#dc4654"/>
          <path d="M116.13322,111.24325a19.64444,19.64444,0,0,0,2.4991,2.0312,4.565,4.565,0,0,0,2.8066,1.0449.69155.69155,0,0,0,.6221-.9042,42.27572,42.27572,0,0,0,3.2295-4.2969c.8242-1.3926,1.6816-3.252,1.1464-4.9043a2.6582,2.6582,0,0,0-3.7949-1.5977,4.98949,4.98949,0,0,0-2.0742,1.2539,3.11929,3.11929,0,0,0-.3779.5821,4.27169,4.27169,0,0,0-4.2354-2.7051c-1.9541.2187-3.3027,2.4472-3.1162,4.3144C113.05222,108.20415,114.61862,109.84475,116.13322,111.24325Zm-1.4228-3.9629c-.709-1.3008-.5742-3.5235.9179-4.2891,1.7207-.8847,3.4707.7285,3.8487,2.3438a.42625.42625,0,0,0,.2744.3222c-.0234.0899-.0469.1778-.0684.2637a.39536.39536,0,0,0,.7627.207,2.437,2.437,0,0,1,1.2246-1.6777,7.02141,7.02141,0,0,1,1.8633-.543c.458-.0546,1.086-.0312,1.2383.5079a3.2511,3.2511,0,0,1,.0107,1.7851,12.99243,12.99243,0,0,1-1.9619,3.6231c-.5869.875-1.6806,1.666-2.2236,2.6464a7.47452,7.47452,0,0,1-.9512-.498,15.58749,15.58749,0,0,1-1.8554-1.4238A13.33524,13.33524,0,0,1,114.71042,107.28035Z" fill="#463131"/>
        </g>
        <g>
          <path d="M104.41642,68.52445a5.795,5.795,0,0,1-.2324-.582,2.3382,2.3382,0,0,1,2.9102-3.0293,2.469,2.469,0,0,1,.3213.1035,3.25333,3.25333,0,0,1,1.5078,1.1485,4.7196,4.7196,0,0,1,.6347.8476c.1055.1836.2168.3887.3135.6035a4.69136,4.69136,0,0,1,1.165-1.2383,4.12173,4.12173,0,0,1,.5088-.33c.0127-.0137.0245-.0254.0362-.0371a2.10955,2.10955,0,0,1,1.8388-.5,2.76192,2.76192,0,0,1,1.2295.4394,1.31557,1.31557,0,0,1,.3174.2461c.0264.0234.0537.0469.0811.0723a2.29921,2.29921,0,0,1,.5468,1.875c-.0195,1.291-1.3886,2.3847-2.164,3.2656a12.11423,12.11423,0,0,0-1.4971,2.0566,15.151,15.151,0,0,1-1.0869,1.7676.80919.80919,0,0,1-.4824.2813.89278.89278,0,0,1-1.3379-.209,13.41307,13.41307,0,0,0-1.5928-1.8457,17.98389,17.98389,0,0,1-1.5947-2.0059C105.46432,70.90925,104.36472,69.49325,104.41642,68.52445Z" fill="#dc4654"/>
          <path d="M106.14012,73.23545a19.63138,19.63138,0,0,0,2.5,2.0293,4.56723,4.56723,0,0,0,2.8056,1.0468.69225.69225,0,0,0,.6221-.9043,42.298,42.298,0,0,0,3.2305-4.2988c.8242-1.3906,1.6816-3.25,1.1465-4.9043a2.65848,2.65848,0,0,0-3.7959-1.5957,4.96915,4.96915,0,0,0-2.0743,1.2539,3.043,3.043,0,0,0-.3779.582,4.26653,4.26653,0,0,0-4.2353-2.705c-1.9541.2187-3.3018,2.4453-3.1163,4.3144C103.059,70.19635,104.62542,71.837,106.14012,73.23545Zm-1.4229-3.9649c-.708-1.2988-.5732-3.5215.919-4.2871,1.7207-.8848,3.4697.7266,3.8476,2.3438a.42981.42981,0,0,0,.2744.3222c-.0234.0879-.0459.1778-.0674.2637a.39491.39491,0,0,0,.7618.207,2.4407,2.4407,0,0,1,1.2246-1.6797,6.95351,6.95351,0,0,1,1.8633-.541c.458-.0566,1.0859-.0332,1.2382.5059a3.25229,3.25229,0,0,1,.0118,1.7851,13.03031,13.03031,0,0,1-1.9629,3.625c-.587.8731-1.6807,1.6661-2.2227,2.6446a7.22583,7.22583,0,0,1-.9512-.4961,15.5233,15.5233,0,0,1-1.8554-1.4258A13.26871,13.26871,0,0,1,104.71722,69.27055Z" fill="#463131"/>
        </g>
        <g>
          <path d="M95.55612,78.46585a4.34127,4.34127,0,0,1-.168-.4179,1.67792,1.67792,0,0,1,2.0879-2.1739,1.77244,1.77244,0,0,1,.2305.0743,2.3216,2.3216,0,0,1,1.082.8222,3.49114,3.49114,0,0,1,.4561.6094,4.73083,4.73083,0,0,1,.2236.4336,3.36925,3.36925,0,0,1,.8369-.8887,2.83256,2.83256,0,0,1,.3643-.2363l.0254-.0274a1.511,1.511,0,0,1,1.3203-.3593,1.99709,1.99709,0,0,1,.8828.3164.89515.89515,0,0,1,.2265.1777.66573.66573,0,0,1,.0586.0508,1.65431,1.65431,0,0,1,.3926,1.3457c-.0146.9238-.9961,1.709-1.5527,2.3418a8.54945,8.54945,0,0,0-1.0742,1.4746,10.94584,10.94584,0,0,1-.7803,1.2695.58388.58388,0,0,1-.3467.2012.63968.63968,0,0,1-.959-.1504,9.55192,9.55192,0,0,0-1.1426-1.3242,13.0634,13.0634,0,0,1-1.1445-1.4375C96.30712,80.17485,95.519,79.15925,95.55612,78.46585Z" fill="#dc4654"/>
          <path d="M96.79242,81.84475a14.09238,14.09238,0,0,0,1.793,1.4551,3.28126,3.28126,0,0,0,2.0127.75.49568.49568,0,0,0,.4463-.6484,30.22882,30.22882,0,0,0,2.3164-3.0821,4.56776,4.56776,0,0,0,.8232-3.5175,1.90585,1.90585,0,0,0-2.7226-1.1465,3.5709,3.5709,0,0,0-1.4883.8984,2.26717,2.26717,0,0,0-.2705.418,3.06256,3.06256,0,0,0-3.0391-1.9395,2.86952,2.86952,0,0,0-2.2344,3.0938A6.22261,6.22261,0,0,0,96.79242,81.84475Zm-1.0215-2.8437a2.33823,2.33823,0,0,1,.6602-3.0781c1.2344-.6328,2.4883.5234,2.7597,1.6816a.30811.30811,0,0,0,.1973.2324c-.0176.0625-.0332.127-.0488.1895a.28349.28349,0,0,0,.5469.1484,1.7436,1.7436,0,0,1,.8789-1.2051,4.95546,4.95546,0,0,1,1.3359-.3886c.3281-.0391.7793-.0235.8887.3632a2.33267,2.33267,0,0,1,.0078,1.2813,9.3547,9.3547,0,0,1-1.4082,2.5996c-.4209.627-1.2051,1.1953-1.5957,1.8984a5.6008,5.6008,0,0,1-.6817-.3574,11.22875,11.22875,0,0,1-1.33-1.0215A9.59775,9.59775,0,0,1,95.77092,79.00105Z" fill="#463131"/>
        </g>
        <g>
          <path d="M83.60492,90.45415a4.16877,4.16877,0,0,1-.168-.418,1.67827,1.67827,0,0,1,2.0879-2.1738,1.757,1.757,0,0,1,.2305.0742,2.33187,2.33187,0,0,1,1.082.8243,3.40175,3.40175,0,0,1,.4561.6074,4.69316,4.69316,0,0,1,.2236.4336,3.37087,3.37087,0,0,1,.8369-.8887,3.07133,3.07133,0,0,1,.3643-.2363l.0254-.0274a1.5103,1.5103,0,0,1,1.3203-.3574,1.99492,1.99492,0,0,1,.8828.3145.94227.94227,0,0,1,.2266.1777c.0195.0156.039.0332.0586.0508a1.66121,1.66121,0,0,1,.3925,1.3457c-.0146.9258-.997,1.709-1.5527,2.3418a8.56765,8.56765,0,0,0-1.0742,1.4765,11.0933,11.0933,0,0,1-.7803,1.2676.58409.58409,0,0,1-.3467.2012.6396.6396,0,0,1-.959-.1504,9.66876,9.66876,0,0,0-1.1425-1.3242,13.06429,13.06429,0,0,1-1.1446-1.4375C84.35592,92.16515,83.56782,91.14755,83.60492,90.45415Z" fill="#dc4654"/>
          <path d="M84.84122,93.83305a13.92867,13.92867,0,0,0,1.793,1.4551,3.28373,3.28373,0,0,0,2.0127.752.49739.49739,0,0,0,.4463-.6504,30.23987,30.23987,0,0,0,2.3164-3.0821,4.56817,4.56817,0,0,0,.8232-3.5175,1.907,1.907,0,0,0-2.7226-1.1465,3.5544,3.5544,0,0,0-1.4883.9004,2.14278,2.14278,0,0,0-.2705.4179,3.06147,3.06147,0,0,0-3.0391-1.9414,2.86944,2.86944,0,0,0-2.2343,3.0938A6.21651,6.21651,0,0,0,84.84122,93.83305Zm-1.0214-2.8437a2.336,2.336,0,0,1,.6591-3.0762c1.2354-.6348,2.4893.5215,2.7608,1.6816a.30894.30894,0,0,0,.1963.2305c-.0166.0625-.0323.127-.0479.1895a.28349.28349,0,0,0,.5469.1484,1.75158,1.75158,0,0,1,.8789-1.2051,5.0261,5.0261,0,0,1,1.3359-.3887c.3282-.039.7793-.0234.8887.3633a2.33174,2.33174,0,0,1,.0078,1.2813,9.32813,9.32813,0,0,1-1.4082,2.5996c-.4209.6269-1.2051,1.1953-1.5957,1.8984a5.59222,5.59222,0,0,1-.6816-.3574,11.0213,11.0213,0,0,1-1.3301-1.0215A9.55985,9.55985,0,0,1,83.81982,90.98935Z" fill="#463131"/>
        </g>
        <g>
          <path d="M105.103,88.12405a3.93291,3.93291,0,0,1-.167-.4179,1.67756,1.67756,0,0,1,2.0869-2.1739,2.13943,2.13943,0,0,1,.2314.0762,2.31975,2.31975,0,0,1,1.0811.8223,3.48165,3.48165,0,0,1,.456.6094c.0762.1308.1553.2792.2246.4316a3.37572,3.37572,0,0,1,.837-.8867,3.07567,3.07567,0,0,1,.3642-.2383c.0088-.0078.0166-.0176.0254-.0254a1.50859,1.50859,0,0,1,1.3193-.3594,2.02017,2.02017,0,0,1,.8829.3145.97074.97074,0,0,1,.2265.1777c.0195.0176.0391.0332.0586.0527a1.65066,1.65066,0,0,1,.3926,1.3438c-.0137.9258-.9961,1.7109-1.5527,2.3418a8.69307,8.69307,0,0,0-1.0743,1.4766,10.80574,10.80574,0,0,1-.7793,1.2695.58679.58679,0,0,1-.3466.2012.64216.64216,0,0,1-.96-.1504,9.47872,9.47872,0,0,0-1.1416-1.3242,12.77446,12.77446,0,0,1-1.1445-1.4395C105.85492,89.83505,105.06582,88.81935,105.103,88.12405Z" fill="#dc4654"/>
          <path d="M106.33932,91.503a14.00749,14.00749,0,0,0,1.793,1.4571,3.28173,3.28173,0,0,0,2.0136.75.49564.49564,0,0,0,.4453-.6485,30.3,30.3,0,0,0,2.3174-3.082,4.57939,4.57939,0,0,0,.8233-3.5195,1.90832,1.90832,0,0,0-2.7227-1.1465,3.5817,3.5817,0,0,0-1.4883.9004,2.33474,2.33474,0,0,0-.2715.4179,3.06357,3.06357,0,0,0-3.038-1.9414,2.87363,2.87363,0,0,0-2.2354,3.0957A6.21177,6.21177,0,0,0,106.33932,91.503Zm-1.0215-2.8437a2.33828,2.33828,0,0,1,.6602-3.0762c1.2343-.6347,2.4882.5235,2.7607,1.6817a.3021.3021,0,0,0,.1963.2304c-.0166.0645-.0332.1289-.0488.1914a.28348.28348,0,0,0,.5468.1485,1.74988,1.74988,0,0,1,.8789-1.2051,4.97,4.97,0,0,1,1.337-.3887c.3271-.041.7783-.0234.8876.3633a2.33162,2.33162,0,0,1,.0088,1.2813,9.34158,9.34158,0,0,1-1.4082,2.5976c-.4209.6289-1.206,1.1973-1.5957,1.8984a5.25931,5.25931,0,0,1-.6816-.3554,10.97734,10.97734,0,0,1-1.3311-1.0235A9.54688,9.54688,0,0,1,105.31782,88.65925Z" fill="#463131"/>
        </g>
        <g>
          <path d="M113.49752,130.38a4.13487,4.13487,0,0,1-.167-.418,1.6771,1.6771,0,0,1,2.0869-2.1738,1.77626,1.77626,0,0,1,.2315.0742,2.32018,2.32018,0,0,1,1.081.8223,3.48741,3.48741,0,0,1,.4561.6094,4.7427,4.7427,0,0,1,.2246.4336,3.35313,3.35313,0,0,1,.8369-.8887,2.83143,2.83143,0,0,1,.3642-.2363.34218.34218,0,0,1,.0254-.0274,1.50879,1.50879,0,0,1,1.3194-.3594,1.99831,1.99831,0,0,1,.8828.3164.87828.87828,0,0,1,.2265.1778.64945.64945,0,0,1,.0586.0508,1.654,1.654,0,0,1,.3926,1.3457c-.0137.9238-.9961,1.7089-1.5527,2.3418a8.59869,8.59869,0,0,0-1.0742,1.4746,10.82435,10.82435,0,0,1-.7793,1.2695.58734.58734,0,0,1-.3467.2012.64075.64075,0,0,1-.96-.1504,9.53883,9.53883,0,0,0-1.1416-1.3242,12.93467,12.93467,0,0,1-1.1445-1.4375C114.24942,132.089,113.46042,131.07335,113.49752,130.38Z" fill="#dc4654"/>
          <path d="M114.73382,133.75885a14.17151,14.17151,0,0,0,1.793,1.4551,3.27036,3.27036,0,0,0,2.0137.75.49569.49569,0,0,0,.4453-.6485,30.08964,30.08964,0,0,0,2.3173-3.082,4.574,4.574,0,0,0,.8233-3.5176,1.9063,1.9063,0,0,0-2.7227-1.1465,3.5589,3.5589,0,0,0-1.4882.8985,2.32114,2.32114,0,0,0-.2715.418,3.062,3.062,0,0,0-3.0381-1.9395,2.87028,2.87028,0,0,0-2.2354,3.0938A6.22261,6.22261,0,0,0,114.73382,133.75885Zm-1.0215-2.8437a2.34046,2.34046,0,0,1,.6602-3.0782c1.2344-.6328,2.4883.5235,2.7607,1.6817a.30522.30522,0,0,0,.1963.2324c-.0166.0625-.0332.1269-.0488.1894a.28351.28351,0,0,0,.5469.1485,1.7493,1.7493,0,0,1,.8789-1.2051,4.96832,4.96832,0,0,1,1.3369-.3887c.3271-.039.7783-.0234.8877.3633a2.33269,2.33269,0,0,1,.0088,1.2813,9.35778,9.35778,0,0,1-1.4092,2.5996c-.4199.6269-1.2051,1.1953-1.5947,1.8984a5.52829,5.52829,0,0,1-.6817-.3574,11.15832,11.15832,0,0,1-1.331-1.0215A9.61854,9.61854,0,0,1,113.71232,130.91515Z" fill="#463131"/>
        </g>
      </g>
    </g>
  </g>
</svg>
