<svg xmlns="http://www.w3.org/2000/svg" viewBox="0 0 79.01571 90.76236">
  <title>involucrate_4.1Recurso 9</title>
  <g id="Capa_2" data-name="Capa 2">
    <g id="Editar">
      <g>
        <g>
          <g>
            <path d="M43.09194,33.06306v4.4316c-.3008.3204-.5918.6211-.874.9317a3.87466,3.87466,0,0,1-3.5635,1.4414,2.92259,2.92259,0,0,0-.8457.0019,3.97435,3.97435,0,0,1-3.5781-1.4101c-.5059-.5098-1.0371-.9551-.9512-1.7774a1.39124,1.39124,0,0,0-.1543-.6074,1.80775,1.80775,0,0,0-3.4707.1817,2.50479,2.50479,0,0,0-.0918.8359,5.75163,5.75163,0,0,1-.5605,2.873,3.03894,3.03894,0,0,0-.2539,1.2305,6.07513,6.07513,0,0,1-1.1739,3.127,2.90624,2.90624,0,0,1-2.4296,1.459c-.9825.0546-1.9707.0117-2.918.0117a5.28051,5.28051,0,0,1-1.6191-4.0742c-.0909-2.1133-.0196-4.2344-.0391-6.3516a4.15533,4.15533,0,0,1,.5478-2.0117c.5596-1.0606,1.0528-2.1563,1.5811-3.2344a1.77947,1.77947,0,0,0-.3525-2.3125,2.3465,2.3465,0,0,0-2.5577-.4922,6.17587,6.17587,0,0,0-1.2207.8281c-1.0732.7989-2.1269,1.625-3.21769,2.4004a2.58707,2.58707,0,0,1-1.13971.4883c-1.4004.1543-2.8066.2774-4.2129.3203-.8418.0274-1.2451-.3398-1.2666-1.0996-.0361-1.2656-.0166-2.5371.0459-3.8047a3.39147,3.39147,0,0,1,1.1006-2.2285c.8467-.8516,1.6279-1.7793,2.5459-2.5449a9.00471,9.00471,0,0,1,4.04881-2.1445c1.65819-.3184,3.30369-.7051,4.95409-1.0645.2061-.0449.4112-.1016.6143-.1641.8711-.2597,1.1934-.6132,1.1582-1.2636a1.3181,1.3181,0,0,0-1.2441-1.2383,21.15929,21.15929,0,0,0-3.1348-.3594c-2.3701-.0762-2.9395-.0742-4.0293-2.8808a20.33981,20.33981,0,0,1-.9473-3.6856c-.5888-3.1836,1.5606-5.5117,4.836-5.2871a8.87688,8.87688,0,0,1,3.8193,1.1426A4.05331,4.05331,0,0,1,23.965,6.194a41.66819,41.66819,0,0,1,2.09181,4.3808,7.26568,7.26568,0,0,1,.17969,1.8789,1.84648,1.84648,0,0,0,3.0761,1.3946,4.35849,4.35849,0,0,0,1.0928-1.2637,10.13516,10.13516,0,0,1,3.6045-3.1973,5.90093,5.90093,0,0,1,2.8545-.6953c1.6201-.082,3.2471-.0234,4.8711-.041a1.83131,1.83131,0,0,1,1.5791.8672,18.269,18.269,0,0,1,3.03421,6.4746,11.38991,11.38991,0,0,1-.01181,3.9863c-.1201,1.0723-1.0439,1.6387-1.94819,2.0781-.88671.4297-1.81251.7774-2.71781,1.1719a5.25156,5.25156,0,0,0-1.1338.5567,3.22808,3.22808,0,0,1-2.3183.8359,1.94511,1.94511,0,0,0-.8145.1895.78834.78834,0,0,0-.4111,1.0507,3.47624,3.47624,0,0,1,.51851,1.5547,2.84216,2.84216,0,0,0,1.59179,2.1289A15.92013,15.92013,0,0,1,43.09194,33.06306Zm-7.4726-7.9941c0-.1133-.0157-.3985.0019-.6797a3.71031,3.71031,0,0,0-1.166-2.8399,7.58379,7.58379,0,0,0-7.2871-2.4355,1.99186,1.99186,0,0,0-1.7842,1.793c-.0732.3261-.0732.7656-.28609.9511-1.27931,1.1172-1.23151,2.6407-1.29881,4.1055a3.918,3.918,0,0,0,2.7373,4.082,11.466,11.466,0,0,0,4.9951.5899,4.28935,4.28935,0,0,0,3.5351-2.3379A4.78114,4.78114,0,0,0,35.61934,25.069Z" fill="#ff6052" fill-rule="evenodd"/>
            <path d="M27.39274,26.40286a9.42777,9.42777,0,0,1-.3613-3.4511c1.334-1.1035,1.9316-1.2012,3.19141-.5137a7.27585,7.27585,0,0,1,.89059.5625,2.75675,2.75675,0,0,1,.9395,3.3535,1.3427,1.3427,0,0,1-1.1748.7656A6.041,6.041,0,0,1,27.39274,26.40286Z" fill="#ffbd52" fill-rule="evenodd"/>
          </g>
          <g>
            <path d="M41.97674,26.49276c1.2109,1.2891,2.2656,2.5156,3.4316,3.625a4.38217,4.38217,0,0,1,1.4239,3.3945c-.0088,1.3418-.0352,2.6856.0078,4.0274a3.24407,3.24407,0,0,1-1.0098,2.4726c-.6406.6563-1.3281,1.2676-1.98139,1.9121a5.21459,5.21459,0,0,1-3.837,1.5039c-.707,0-1.413.002-2.12011.002-2.8974,0-2.8974,0-5.2412-1.2539-.4804,1.0957-.9179,2.209-1.4472,3.2754a6.71677,6.71677,0,0,1-6.42,4.0176c-.916.0019-1.8359-.0411-2.748.0214a2.8471,2.8471,0,0,1-2.5996-1.1425,13.11577,13.11577,0,0,1-1.7578-2.8672,11.0242,11.0242,0,0,1-.8682-4.7539c.08111-1.5508.04-3.1094.0283-4.6641-.0039-.5449-.0781-1.0898-.1211-1.6328-1.6533.1836-3.1875.3672-4.7265.5176-.7012.0664-1.4141.0234-2.1133.0996-2.0508.2246-3.2969-1.0196-4.4121-2.4336a2.43358,2.43358,0,0,1-.4356-1.3867c-.0283-1.6914-.0547-3.3926.0782-5.0782a6.77373,6.77373,0,0,1,2.3105-4.625c.6836-.6132,1.3105-1.2871,1.96-1.9375a8.18657,8.18657,0,0,1,2.8642-2.1308,4.36705,4.36705,0,0,0,.8008-.5606c-.1641-.3261-.291-.6308-.46-.9121a20.76146,20.76146,0,0,1-2.3486-7.4336,6.52125,6.52125,0,0,1,2.6641-6.5215A8.65463,8.65463,0,0,1,20.674.29546c2.13081.5528,4.2441,1.2129,5.6425,3.0899a23.64117,23.64117,0,0,1,1.5537,2.5156c.4073.7207.753,1.4766,1.1934,2.3496.6885-.4277,1.3057-.748,1.8506-1.1641a9.8861,9.8861,0,0,1,6.3418-1.9921c1.7676.0214,3.5342.0293,5.30081.0019a3.57757,3.57757,0,0,1,2.96089,1.377,15.88571,15.88571,0,0,1,1.2598,1.7011,22.01987,22.01987,0,0,1,3.3359,8.17,13.029,13.029,0,0,1-.22659,4.6328,5.38542,5.38542,0,0,1-1.99021,3.1679,9.00268,9.00268,0,0,1-3.17479,1.6485C43.84194,26.04746,42.94644,26.24866,41.97674,26.49276Zm1.1152,6.5703a15.92013,15.92013,0,0,0-3.9883-3.5176,2.84216,2.84216,0,0,1-1.59179-2.1289,3.47624,3.47624,0,0,0-.51851-1.5547.78834.78834,0,0,1,.4111-1.0507,1.94511,1.94511,0,0,1,.8145-.1895,3.22808,3.22808,0,0,0,2.3183-.8359,5.25156,5.25156,0,0,1,1.1338-.5567c.9053-.3945,1.8311-.7422,2.71781-1.1719.90429-.4394,1.82809-1.0058,1.94819-2.0781a11.38991,11.38991,0,0,0,.01181-3.9863,18.269,18.269,0,0,0-3.03421-6.4746,1.83131,1.83131,0,0,0-1.5791-.8672c-1.624.0176-3.251-.041-4.8711.041a5.90093,5.90093,0,0,0-2.8545.6953,10.13516,10.13516,0,0,0-3.6045,3.1973,4.35849,4.35849,0,0,1-1.0928,1.2637,1.84648,1.84648,0,0,1-3.0761-1.3946,7.26568,7.26568,0,0,0-.17969-1.8789A41.66819,41.66819,0,0,0,23.965,6.194a4.05331,4.05331,0,0,0-1.4678-1.4629,8.87688,8.87688,0,0,0-3.8193-1.1426c-3.2754-.2246-5.4248,2.1035-4.836,5.2871a20.33981,20.33981,0,0,0,.9473,3.6856c1.0898,2.8066,1.6592,2.8046,4.0293,2.8808a21.15929,21.15929,0,0,1,3.1348.3594,1.3181,1.3181,0,0,1,1.2441,1.2383c.0352.6504-.2871,1.0039-1.1582,1.2636-.2031.0625-.4082.1192-.6143.1641-1.6504.3594-3.2959.7461-4.95409,1.0645a9.00471,9.00471,0,0,0-4.04881,2.1445c-.918.7656-1.69919,1.6933-2.5459,2.5449a3.39147,3.39147,0,0,0-1.1006,2.2285c-.0625,1.2676-.082,2.5391-.0459,3.8047.0215.7598.4248,1.127,1.2666,1.0996,1.4063-.0429,2.8125-.166,4.2129-.3203a2.58707,2.58707,0,0,0,1.13971-.4883c1.09079-.7754,2.14449-1.6015,3.21769-2.4004a6.17587,6.17587,0,0,1,1.2207-.8281,2.3465,2.3465,0,0,1,2.5577.4922,1.77947,1.77947,0,0,1,.3525,2.3125c-.5283,1.0781-1.0215,2.1738-1.5811,3.2344a4.15533,4.15533,0,0,0-.5478,2.0117c.0195,2.1172-.0518,4.2383.0391,6.3516a5.28051,5.28051,0,0,0,1.6191,4.0742c.9473,0,1.9355.0429,2.918-.0117a2.90624,2.90624,0,0,0,2.4296-1.459,6.07513,6.07513,0,0,0,1.1739-3.127,3.03894,3.03894,0,0,1,.2539-1.2305,5.75163,5.75163,0,0,0,.5605-2.873,2.50479,2.50479,0,0,1,.0918-.8359,1.80775,1.80775,0,0,1,3.4707-.1817,1.39124,1.39124,0,0,1,.1543.6074c-.0859.8223.4453,1.2676.9512,1.7774a3.97435,3.97435,0,0,0,3.5781,1.4101,2.92259,2.92259,0,0,1,.8457-.0019,3.87466,3.87466,0,0,0,3.5635-1.4414c.2822-.3106.5732-.6113.874-.9317Z" fill="#4f2400" fill-rule="evenodd"/>
            <path d="M35.61934,25.069a4.78114,4.78114,0,0,1-.5528,3.2285,4.28935,4.28935,0,0,1-3.5351,2.3379,11.466,11.466,0,0,1-4.9951-.5899,3.918,3.918,0,0,1-2.7373-4.082c.0673-1.4648.0195-2.9883,1.29881-4.1055.21289-.1855.21289-.625.28609-.9511a1.99186,1.99186,0,0,1,1.7842-1.793,7.58379,7.58379,0,0,1,7.2871,2.4355,3.71031,3.71031,0,0,1,1.166,2.8399C35.60364,24.67046,35.61934,24.95566,35.61934,25.069Zm-8.2266,1.3339a6.041,6.041,0,0,0,3.4854.7168,1.3427,1.3427,0,0,0,1.1748-.7656,2.75675,2.75675,0,0,0-.9395-3.3535,7.27585,7.27585,0,0,0-.89059-.5625c-1.25981-.6875-1.85741-.5898-3.19141.5137A9.42777,9.42777,0,0,0,27.39274,26.40286Z" fill="#4f2400" fill-rule="evenodd"/>
          </g>
        </g>
        <g>
          <path d="M6.08414,81.20366a14.28477,14.28477,0,0,1-1.2773-.9922c-3.9141-3.4746-2.3516-9.1269,2.5234-10.5488a6.65921,6.65921,0,0,1,.8477-.1875,8.3768,8.3768,0,0,1,4.8574.5879,12.33047,12.33047,0,0,1,2.5234,1.0566,16.71906,16.71906,0,0,1,1.4864.9375,12.12773,12.12773,0,0,1,.9785-4.2793,11.18108,11.18108,0,0,1,.70021-1.4042c.01169-.0411.01849-.084.03019-.125a5.43382,5.43382,0,0,1,3.4434-3.5176,7.18237,7.18237,0,0,1,3.31441-.6289,3.42526,3.42526,0,0,1,1.02539.1367c.0928.0176.1817.0332.2754.0547,1.8955.4492,2.7901,1.9101,3.67,3.4629,1.6406,2.8945.0214,7.1211-.5606,10.0957a31.47244,31.47244,0,0,0-.6416,6.5371,39.20988,39.20988,0,0,1-.1152,5.3554,2.05886,2.05886,0,0,1-.7061,1.2579,2.30286,2.30286,0,0,1-3.25,1.2793,34.92884,34.92884,0,0,0-5.959-2.0313,45.97654,45.97654,0,0,1-6.1689-2.3809C11.53144,85.14506,7.23454,83.42636,6.08414,81.20366Z" fill="#dc4654"/>
          <path d="M16.07634,89.44006a50.63262,50.63262,0,0,0,8.2168,1.2578c2.5186.125,5.51171.2304,7.6133-1.336a1.78384,1.78384,0,0,0,.207-2.8261c.6035-4.5977,1.5586-9.1114,1.5781-13.7891.0176-4.1738-.5-9.4395-3.8496-12.4199-3.4843-3.0977-7.78709-2.1856-10.541,1.4023-1.28609,1.6758-2.6162,3.3633-2.9824,5.5a7.87323,7.87323,0,0,0-.0772,1.791c-3.7763-2.7011-9.0576-3.4199-12.9687-.4922-4.0654,3.0391-4.1572,9.7598-1.3018,13.6797C5.24434,86.69976,10.87514,88.30716,16.07634,89.44006Zm-8.3477-6.9668c-3.2763-1.9688-5.8789-7.0938-3.5566-10.75,2.6787-4.2168,8.6816-2.9121,11.6309.1933a1.10983,1.10983,0,0,0,1.0332.3594c.0625.2285.1289.4551.1953.6758a1.01918,1.01918,0,0,0,1.9668-.5313c-.4121-1.875-.6406-3.6875.5351-5.3418a17.91229,17.91229,0,0,1,3.4414-3.6386c.9434-.7247,2.375-1.4922,3.42-.4883a8.399,8.399,0,0,1,2.3545,3.959c.915,3.4746.5791,7.0898.3623,10.6328-.1641,2.7129-1.5664,5.9082-1.4942,8.7968a19.1668,19.1668,0,0,1-2.7656.1348,40.19131,40.19131,0,0,1-5.9941-.75C15.16324,84.99866,11.007,84.444,7.72864,82.47326Z" fill="#463131"/>
        </g>
        <g>
          <path d="M58.37324,48.68216a10.35068,10.35068,0,0,1,.1699-1.1015,4.15705,4.15705,0,0,1,7.1924-2.0059,4.86075,4.86075,0,0,1,.3965.4473,5.7711,5.7711,0,0,1,1.2685,3.1211,8.47225,8.47225,0,0,1,.2071,1.8711c-.004.3769-.0215.791-.0665,1.207a8.33788,8.33788,0,0,1,2.9014-.8398,7.59447,7.59447,0,0,1,1.0791-.0489l.086-.0234a3.74318,3.74318,0,0,1,3.2675.8965,4.95366,4.95366,0,0,1,1.4844,1.7832,2.40514,2.40514,0,0,1,.2607.666c.01961.0605.042.1172.05961.1816a4.10038,4.10038,0,0,1-.85741,3.3653c-1.1953,1.9551-4.2803,2.3926-6.2637,3.039a21.42005,21.42005,0,0,0-4.1484,1.7969,27.56863,27.56863,0,0,1-3.2617,1.7207,1.42264,1.42264,0,0,1-.9922-.0058,1.58628,1.58628,0,0,1-1.8574-1.5274,23.84381,23.84381,0,0,0-.7676-4.2656,31.91811,31.91811,0,0,1-.6289-4.5078C57.82244,53.27786,57.421,50.11776,58.37324,48.68216Z" fill="#dc4654"/>
          <path d="M56.756,57.44786a34.65983,34.65983,0,0,0,1.9883,5.3633c.7656,1.5566,1.7021,3.3945,3.3476,4.1367a1.22888,1.22888,0,0,0,1.7696-.8223,74.94,74.94,0,0,0,8.8261-3.6562c2.5176-1.3848,5.5117-3.4551,6.1875-6.4668.7002-3.1329-1.2871-5.4161-4.3652-5.875a8.87428,8.87428,0,0,0-4.3066.0429,5.50341,5.50341,0,0,0-1.1036.5528c.3623-3.1758-.9687-6.5918-4.0371-7.9688-3.1875-1.4316-7.2617.7598-8.6679,3.7871C54.78534,50.01226,55.70034,53.93806,56.756,57.44786Zm1.4023-7.3516c.0909-2.6309,2.3067-5.9082,5.2813-5.7324,3.4326.2031,4.6523,4.2519,3.7705,7.0625a.77071.77071,0,0,0,.1279.7441c-.11619.1133-.2304.2285-.3418.3418a.702.702,0,0,0,.9785,1.0059,4.32394,4.32394,0,0,1,3.3926-1.461,12.29426,12.29426,0,0,1,3.3399.8536c.7509.3261,1.6914.9296,1.4375,1.8945a5.79579,5.79579,0,0,1-1.5967,2.7402,23.11435,23.11435,0,0,1-6.2774,3.7715c-1.6884.8067-4.0781,1.0293-5.7939,2.0391a13.47568,13.47568,0,0,1-1.00589-1.6192,27.662,27.662,0,0,1-1.55071-3.8574C59.12324,55.41266,58.06854,52.72716,58.15834,50.09626Z" fill="#463131"/>
        </g>
      </g>
    </g>
  </g>
</svg>
