<svg xmlns="http://www.w3.org/2000/svg" viewBox="0 0 115.72749 139.65509">
  <title>involucrate_4.1Recurso 11</title>
  <g id="Capa_2" data-name="Capa 2">
    <g id="Editar">
      <g>
        <path d="M56.54478,39.56611v7.6993c0,1.4538-1.456,1.4538-1.456,0v-7.5847a44.34537,44.34537,0,0,0-8.8709,1.8518c-11.2801,3.4594-22.5392,9.4842-29.0709,19.6331a46.57333,46.57333,0,0,0-6.367,18.0841h9.41851c1.45379,0,1.45379,2.9076,0,2.9076H10.73188c-.0433,0-.0762-1.0209-.1167-1.0265a34.45751,34.45751,0,0,0,.5886,10.5595c3.9754,20.2223,23.859,33.4813,43.8753,31.9296-.724-.3407-.31559-1.6004.5866-1.4189.0482.0085.095.0155.14181.0238l.71769-6.716c.1049-.9805,1.6551-.9889,1.5488,0q-.3717,3.4815-.7444,6.9659c25.431,3.8407,42.36-22.345,40.3093-45.4469C95.62778,54.39911,78.35149,38.42941,56.54478,39.56611Zm-35.7696,57.2077q-1.9524,1.26315-3.9041,2.5306c-.8407.5432-1.6151-.7975-.7814-1.3379q1.95045-1.2633,3.9027-2.5292C20.83318,94.894,21.60758,96.23321,20.77518,96.77381Zm28.2547-20.693c.8211-.5725,1.5935.7709.7814,1.3365a5.10384,5.10384,0,0,0-2.1675,4.5417c.0531.9972-1.4957.9902-1.5488,0A6.68015,6.68015,0,0,1,49.02988,76.08081Zm-25.1983-12.7701a3.96028,3.96028,0,0,1-4.182-1.5364c-.5977-.7974.7465-1.5682,1.3366-.7806a2.35031,2.35031,0,0,0,2.4327.824A.77494.77494,0,0,1,23.83158,63.31071Zm10.061-10.8249a7.37225,7.37225,0,0,0-2.4196-3.5081c-.7744-.6298.3289-1.7193,1.0934-1.0949a8.80919,8.80919,0,0,1,2.8205,4.191C35.69128,53.02771,34.19558,53.43141,33.89258,52.48581Zm4.6267,60.829q-.96675,2.2602-1.9307,4.5179c-.3925.9132-1.7254.1243-1.3379-.7821q.96465-2.2584,1.9293-4.5165C37.57249,111.62071,38.90538,112.40981,38.51928,113.31481Zm2.60321-34.3807c-.15991.9817-1.652.5627-1.49291-.412a9.98375,9.98375,0,0,1,4.8566-7.0122.77433.77433,0,0,1,.7807,1.3365A8.51438,8.51438,0,0,0,41.12249,78.93411Zm49.18019,23.4482q-2.3286-1.8516-4.6534-3.7007c-.7794-.6216.3227-1.7109,1.0949-1.0951q2.32635,1.8498,4.6519,3.701C92.17749,101.90751,91.07349,102.99551,90.30268,102.38231Zm6.2419-19.8074q-5.167.61995-10.334,1.2318c-.9887.1187-.9768-1.4301,0-1.5474q5.16615-.61605,10.334-1.2304C97.53208,80.91021,97.52218,82.459,96.54458,82.57491Zm-11.1495-18.1023a3.30345,3.30345,0,0,0,2.1751-3.1605.77487.77487,0,0,1,1.5488,0,4.88411,4.88411,0,0,1-3.3119,4.652C84.86308,66.29641,84.46078,64.80071,85.39508,64.47261Zm-10.1495-12.1781q1.43595-1.82475,2.8685-3.645c.6145-.7836,1.7052.3197,1.095,1.0948q-1.43295,1.8225-2.8665,3.6437C75.726,54.17141,74.63738,53.06961,75.24558,52.29451Zm-2.0642,56.9129q1.94925,1.6005,3.8957,3.1981c.7695.6341-.3323,1.7234-1.097,1.095q-1.945-1.6005-3.8921-3.1982C71.31628,109.66831,72.41818,108.579,73.18138,109.20741Zm-7.60989-20.3312a13.85961,13.85961,0,0,0,.51329-6.0597c-.1362-.9762,1.356-1.3938,1.4923-.4106a15.64236,15.64236,0,0,1-.5119,6.8809C66.77258,90.23921,65.27688,89.83,65.57149,88.87621Zm-2.98371-5.6785c-.1124-.9916,1.4378-.9803,1.5495,0a6.75365,6.75365,0,0,1-3.30779,6.5514.77556.77556,0,0,1-.78281-1.338A5.24585,5.24585,0,0,0,62.58778,83.19771Zm-3.136-24.6704a15.35377,15.35377,0,0,0-2.50129-1.12q.22214,9.8166.44549,19.6344.1791,1.85175.4057,3.7037c2.0775,1.2024,2.5244,4.8978.2396,6.2342a3.54207,3.54207,0,0,1-3.3476.0531,71.863,71.863,0,0,0-6.633,9.2942,1.98345,1.98345,0,0,1,.9594,1.2695c.76741-.5419,1.808.507,1.0467,1.1186q-2.2614,1.8204-4.5235,3.6394a.7849.7849,0,0,1-1.3232-.546,29.78876,29.78876,0,0,1,1.0007-6.5806.77036.77036,0,0,1,1.4992.3267,73.83671,73.83671,0,0,1,6.8306-9.5608c-.0384-.0615-.0866-.1104-.1237-.1773a2.75556,2.75556,0,0,1-.312-1.4092,3.68122,3.68122,0,0,1,2.8084-3.9956q-.03975-1.722-.0795-3.4467a161.45169,161.45169,0,0,1-.66829-20.045c-.22771-.0503-.45321-.1061-.68791-.148a.86664.86664,0,0,1-.0494.6453.99679.99679,0,0,1-1.898-.5322,6.22815,6.22815,0,0,1,1.2011-2.4496q.82515-1.4412,1.64721-2.8797a.78373.78373,0,0,1,1.416.1843,11.96731,11.96731,0,0,0,3.58649,5.5709C61.06758,57.91151,60.19478,58.94491,59.45178,58.52731Z" fill="#fff"/>
        <path d="M30.21318,36.19341a53.22139,53.22139,0,0,1,9.4535-4.0415c.0027-.0281-.007-.049-.00219-.0768.87639-4.9719-10.94071-10.2886-14.54871-11.2314-6.0158-1.5682-12.905-.5292-17.6345,3.7038-9.9289,8.8877-6.3257,23.3128,1.0251,32.371A59.47958,59.47958,0,0,1,30.21318,36.19341Zm-23.4169.4163c.1543-.9819,1.6473-.5629,1.4943.4119a11.60206,11.60206,0,0,0,1.1564,7.1463c.45251.8868-.8854,1.6689-1.3379.7806A13.41519,13.41519,0,0,1,6.79628,36.60971Zm.6019,14.5117a13.30693,13.30693,0,0,1-2.9718-8.216c0-1.4538,1.5488-1.4538,1.5488,0a10.11218,10.11218,0,0,0,2.5179,6.8893C9.10349,50.56981,8.01268,51.90491,7.39818,51.12141Z" fill="#fff"/>
        <path d="M79.02118,36.48821c-18.30769-9.3208-40.1723-6.2245-56.0638,6.4242-17.846,14.2086-25.222,36.9741-15.2002,58.0148,4.4152,9.2704,10.9916,19.4542,20.2027,24.4944,8.672,4.7456,18.95561,5.1896,28.645,5.4718a.86206.86206,0,0,1,.9308-1.0755c26.018,3.5082,45.9149-18.7224,47.9386-43.2419C107.16,66.14841,97.59549,45.94291,79.02118,36.48821Zm-15.20869,92.1915h-10.176v-1.4538h10.176C65.267,127.22591,65.267,128.67971,63.81249,128.67971Zm32.663-31.3264c-5.721,16.7366-21.16851,29.1394-39.113,26.6885a.84105.84105,0,0,1-.71791.9803c-19.8863,2.3155-40.2756-9.8793-46.0727-29.3921-4.94239-16.6472,1.2331-35.713,15.1144-46.1371a57.18175,57.18175,0,0,1,29.5541-11.4937c.0085,0,.0182-.0027.0266-.0027a39.214,39.214,0,0,1,27.279,7.8039C97.96418,57.674,102.626,79.36141,96.47549,97.35331Zm.93009-37.5579c.2912.9567-1.2045,1.3632-1.4923.4107a20.47007,20.47007,0,0,0-5.7971-9.2049c-.7346-.6773.366-1.7694,1.097-1.0948A22.03435,22.03435,0,0,1,97.40558,59.79541Z" fill="#fff"/>
        <path d="M30.48768,21.23761c.0111-.0126.0111-.0279.023-.0432,12.5663-15.2072,41.853-20.3663,52.0906-.1131a29.27872,29.27872,0,0,1,4.1429-1.648c-5.1603-10.593-15.953-17.9139-27.9152-17.8844-11.9281.0279-26.6082,7.1335-32.7474,17.5213a.70226.70226,0,0,1-.44909.3407,25.27827,25.27827,0,0,1,3.763,1.3184C29.728,20.87741,30.10008,21.05181,30.48768,21.23761Zm37.8672-16.7309A32.21825,32.21825,0,0,1,77.72168,9.85c.7729.6299-.329,1.7206-1.0935,1.095a29.93441,29.93441,0,0,0-8.6839-4.9452C67.01558,5.659,67.41778,4.16471,68.35488,4.50671Z" fill="#fff"/>
        <path d="M107.697,24.92461c-7.559-6.6141-17.0898-6.4634-25.0127-2.3407a.84656.84656,0,0,1-.38879.2095,29.97416,29.97416,0,0,0-10.07141,8.9241.775.775,0,0,1-.29959.25,51.04155,51.04155,0,0,1,16.25879,8.5288,47.98183,47.98183,0,0,1,13.5538,17.0297c4.14641,3.5711,11.6899-12.6165,12.162-15.0619A18.39915,18.39915,0,0,0,107.697,24.92461Zm1.9244,15.756c-.06.9916-1.611.9943-1.5495,0a14.48314,14.48314,0,0,0-2.539-9.2564c-.5621-.8281.7807-1.6005,1.3379-.7807A15.88877,15.88877,0,0,1,109.62138,40.68061Zm.9517-4.9452a16.10758,16.10758,0,0,0-4.1924-8.7369c-.6801-.7276.4119-1.8253,1.0934-1.095a17.51834,17.51834,0,0,1,4.5933,9.4213C112.21418,36.301,110.72118,36.71731,110.57308,35.73541Z" fill="#fff"/>
        <path d="M20.02868,121.49031c-3.03119,3.0571-7.2711,8.2578-7.2425,12.7324q-.9177,3.071,4.043,2.9021a20.48767,20.48767,0,0,0,1.3247-1.8658c.6564-.9692,1.2799-1.9608,1.9182-2.9411q2.30325-3.5298,4.6051-7.0584c.0119-.0167.0279-.0237.0385-.039a31.34038,31.34038,0,0,1-2.7395-2.007C21.315,122.66751,20.667,122.08661,20.02868,121.49031Zm.7661,6.2719a9.08366,9.08366,0,0,0-4.1066,4.7288c-.3491.9245-1.8448.5223-1.4923-.412a10.73546,10.73546,0,0,1,4.8183-5.6534A.77439.77439,0,0,1,20.79478,127.76221Z" fill="#fff"/>
        <path d="M94.50428,116.92761a.77787.77787,0,0,1,.1095.1397,24.73043,24.73043,0,0,0,4.569,6.5471c1.6619,1.6787,7.4603,6.9745,8.8793,1.3518.7743-3.0668-2.9964-6.135-4.8642-8.1475q-2.35155-2.53275-4.7003-5.0653A48.08472,48.08472,0,0,1,94.50428,116.92761Z" fill="#fff"/>
        <path d="M88.25318,19.01571a.61431.61431,0,0,0-.0161-.0657A32.99548,32.99548,0,0,0,58.829,0c-12.4519-.0083-27.6653,7.4255-34.0833,18.2895a.70156.70156,0,0,0,.18581.951,21.15745,21.15745,0,0,0-15.21981,1.8226c-14.1815,8.0317-10.9589,26.3462-2.2408,37.0258a.75706.75706,0,0,0,.2345.1928c-5.4828,9.5622-7.9708,20.6369-5.506,31.6992a65.39778,65.39778,0,0,0,16.7156,30.4312c-3.57449,3.6506-11.1432,13.2603-6.5897,18.0534,1.7171,1.8072,3.9691,1.4189,5.5995-.2485,3.254-3.324,5.5529-8.2859,8.0834-12.1671,9.4135,5.6031,21.0092,6.1185,31.7998,6.4257a.73642.73642,0,0,0,.7046-1.0096c13.5466,1.3686,26.0167-4.0334,34.8981-13.3527,2.0642,3.9607,9.7921,14.9378,14.8211,9.9994,1.9293-1.8923,1.7353-4.8098.5321-7.0289-2.1688-3.9942-6.3091-7.3739-9.3968-10.6725a49.331,49.331,0,0,0,4.6268-9.5749,57.2867,57.2867,0,0,0-1.4126-41.471c3.844.0906,8.57421-6.7748,10.0001-9.2216,4.1764-7.1616,4.4055-15.9754-.5873-22.792C105.882,19.00741,96.77438,16.911,88.25318,19.01571Zm-62.1716.0545c6.1392-10.3878,20.8193-17.4934,32.7474-17.5213,11.9622-.0295,22.7549,7.2914,27.9152,17.8844a29.27872,29.27872,0,0,0-4.1429,1.648c-10.2376-20.2532-39.5243-15.0941-52.0906.1131-.0119.0153-.0119.0306-.023.0432-.3876-.1858-.7597-.3602-1.09219-.5083a25.27827,25.27827,0,0,0-3.763-1.3184A.70226.70226,0,0,0,26.08158,19.07021Zm44.7662,12.583a53.48109,53.48109,0,0,0-29.6359.0028c-.0482-3.9662-5.3048-7.5847-9.3087-9.7047,12.0746-14.1668,39.5381-19.3383,49.3287-.1494a31.0035,31.0035,0,0,0-10.3443,9.135A.61342.61342,0,0,0,70.84778,31.65321Zm-63.3665-7.1057c4.7295-4.233,11.6187-5.272,17.6345-3.7038,3.608.9428,15.4251,6.2595,14.54871,11.2314-.00481.0278.00489.0487.00219.0768a53.22139,53.22139,0,0,0-9.4535,4.0415,59.47958,59.47958,0,0,0-21.7068,20.7251C1.15558,47.86031-2.44762,33.43521,7.48128,24.54751Zm17.1959,100.712q-2.301,3.5298-4.6051,7.0584c-.6383.9803-1.2618,1.9719-1.9182,2.9411a20.48767,20.48767,0,0,1-1.3247,1.8658q-4.96275.16755-4.043-2.9021c-.0286-4.4746,4.21131-9.6753,7.2425-12.7324.6383.5963,1.2863,1.1772,1.9475,1.7232a31.34038,31.34038,0,0,0,2.7395,2.007C24.70508,125.23581,24.68908,125.24281,24.67718,125.25951Zm78.5207-8.4408c1.8678,2.0125,5.6385,5.0807,4.8642,8.1475-1.419,5.6227-7.2174.3269-8.8793-1.3518a24.73043,24.73043,0,0,1-4.569-6.5471.77787.77787,0,0,0-.1095-.1397,48.08472,48.08472,0,0,0,3.9933-5.1742Q100.84808,114.28586,103.19788,116.81871Zm2.2764-30.2427c-2.0237,24.5195-21.9206,46.7501-47.9386,43.2419a.86206.86206,0,0,0-.9308,1.0755c-9.68939-.2822-19.973-.7262-28.645-5.4718-9.2111-5.0402-15.7875-15.224-20.2027-24.4944-10.0218-21.0407-2.6458-43.8062,15.2002-58.0148,15.8915-12.6487,37.75611-15.745,56.0638-6.4242C97.59549,45.94291,107.16,66.14841,105.47428,86.576Zm8.4248-44.1119c-.4721,2.4454-8.01559,18.633-12.162,15.0619a47.98183,47.98183,0,0,0-13.5538-17.0297,51.04155,51.04155,0,0,0-16.25879-8.5288.775.775,0,0,0,.29959-.25,29.97416,29.97416,0,0,1,10.07141-8.9241.84656.84656,0,0,0,.38879-.2095c7.9229-4.1227,17.4537-4.2734,25.0127,2.3407A18.39915,18.39915,0,0,1,113.89908,42.46411Z"/>
        <path d="M82.546,45.80041a39.214,39.214,0,0,0-27.279-7.8039c-.0084,0-.0181.0027-.0266.0027a57.18175,57.18175,0,0,0-29.5541,11.4937C11.805,59.917,5.62949,78.98281,10.57188,95.63c5.7971,19.5128,26.1864,31.7076,46.0727,29.3921a.84105.84105,0,0,0,.71791-.9803c17.94449,2.4509,33.392-9.9519,39.113-26.6885C102.626,79.36141,97.96418,57.674,82.546,45.80041Zm15.0929,31.2274c2.0507,23.1019-14.8783,49.2876-40.3093,45.4469q.37425-3.4836.7444-6.9659c.1063-.9889-1.4439-.9805-1.5488,0l-.71769,6.716c-.04681-.0083-.09361-.0153-.14181-.0238-.90219-.1815-1.3106,1.0782-.5866,1.4189-20.0163,1.5517-39.8999-11.7073-43.8753-31.9296a34.45751,34.45751,0,0,1-.5886-10.5595c.0405.0056.0734,1.0265.1167,1.0265h9.46661c1.45379,0,1.45379-2.9076,0-2.9076H10.78a46.57333,46.57333,0,0,1,6.367-18.0841c6.5317-10.1489,17.7908-16.1737,29.0709-19.6331a44.34537,44.34537,0,0,1,8.8709-1.8518v7.5847c0,1.4538,1.456,1.4538,1.456,0v-7.6993C78.35149,38.42941,95.62778,54.39911,97.63888,77.02781Z"/>
        <path d="M86.21058,83.80671q5.16615-.6159,10.334-1.2318c.9776-.1159.9875-1.6647,0-1.546q-5.167.61365-10.334,1.2304C85.23378,82.37661,85.22188,83.92541,86.21058,83.80671Z"/>
        <path d="M85.80708,65.96411a4.88411,4.88411,0,0,0,3.3119-4.652.77487.77487,0,0,0-1.5488,0,3.30345,3.30345,0,0,1-2.1751,3.1605C84.46078,64.80071,84.86308,66.29641,85.80708,65.96411Z"/>
        <path d="M76.34258,53.388q1.43086-1.82055,2.8665-3.6437c.6102-.7751-.4805-1.8784-1.095-1.0948q-1.43385,1.82025-2.8685,3.645C74.63738,53.06961,75.726,54.17141,76.34258,53.388Z"/>
        <path d="M23.41888,61.81771a2.35031,2.35031,0,0,1-2.4327-.824c-.5901-.7876-1.9343-.0168-1.3366.7806a3.96028,3.96028,0,0,0,4.182,1.5364A.77494.77494,0,0,0,23.41888,61.81771Z"/>
        <path d="M35.38688,52.07381a8.80919,8.80919,0,0,0-2.8205-4.191c-.7645-.6244-1.8678.4651-1.0934,1.0949a7.37225,7.37225,0,0,1,2.4196,3.5081C34.19558,53.43141,35.69128,53.02771,35.38688,52.07381Z"/>
        <path d="M19.99238,95.43731q-1.95015,1.2651-3.9027,2.5292c-.8337.5404-.0593,1.8811.7814,1.3379q1.9515-1.26525,3.9041-2.5306C21.60758,96.23321,20.83318,94.894,19.99238,95.43731Z"/>
        <path d="M37.18,112.53411q-.9624,2.2581-1.9293,4.5165c-.3875.9064.9454,1.6953,1.3379.7821q.96465-2.2584,1.9307-4.5179C38.90538,112.40981,37.57249,111.62071,37.18,112.53411Z"/>
        <path d="M75.98008,113.50051c.7647.6284,1.8665-.4609,1.097-1.095q-1.95015-1.59615-3.8957-3.1981c-.7632-.6284-1.8651.4609-1.0934,1.0949Q74.03183,111.90281,75.98008,113.50051Z"/>
        <path d="M86.74418,97.58651c-.7722-.6158-1.8743.4735-1.0949,1.0951q2.3262,1.84965,4.6534,3.7007c.77081.6132,1.87481-.4748,1.0934-1.0948Q89.07288,99.43771,86.74418,97.58651Z"/>
        <path d="M55.38849,51.55571q-.82231,1.437-1.64721,2.8797a6.22815,6.22815,0,0,0-1.2011,2.4496.99679.99679,0,0,0,1.898.5322.86664.86664,0,0,0,.0494-.6453c.2347.0419.4602.0977.68791.148a161.45169,161.45169,0,0,0,.66829,20.045q.0396,1.72395.0795,3.4467a3.68122,3.68122,0,0,0-2.8084,3.9956,2.75556,2.75556,0,0,0,.312,1.4092c.0371.0669.0853.1158.1237.1773a73.83671,73.83671,0,0,0-6.8306,9.5608.77036.77036,0,0,0-1.4992-.3267,29.78876,29.78876,0,0,0-1.0007,6.5806.7849.7849,0,0,0,1.3232.546q2.26035-1.82025,4.5235-3.6394c.7613-.6116-.27929-1.6605-1.0467-1.1186a1.98345,1.98345,0,0,0-.9594-1.2695,71.863,71.863,0,0,1,6.633-9.2942,3.54207,3.54207,0,0,0,3.3476-.0531c2.2848-1.3364,1.8379-5.0318-.2396-6.2342q-.2271-1.8519-.4057-3.7037-.2241-9.8166-.44549-19.6344a15.35377,15.35377,0,0,1,2.50129,1.12c.743.4176,1.6158-.6158.9392-1.2164A11.96731,11.96731,0,0,1,56.80449,51.74.78373.78373,0,0,0,55.38849,51.55571Z"/>
        <path d="M8.49308,49.79471a10.11218,10.11218,0,0,1-2.5179-6.8893c0-1.4538-1.5488-1.4538-1.5488,0a13.30693,13.30693,0,0,0,2.9718,8.216C8.01268,51.90491,9.10349,50.56981,8.49308,49.79471Z"/>
        <path d="M9.447,44.16791a11.60206,11.60206,0,0,1-1.1564-7.1463c.153-.9748-1.34-1.3938-1.4943-.4119a13.41519,13.41519,0,0,0,1.3128,8.3388C8.56158,45.83681,9.89949,45.05471,9.447,44.16791Z"/>
        <path d="M67.94428,5.99981a29.93441,29.93441,0,0,1,8.6839,4.9452c.7645.6256,1.8664-.4651,1.0935-1.095a32.21825,32.21825,0,0,0-9.3668-5.3433C67.41778,4.16471,67.01558,5.659,67.94428,5.99981Z"/>
        <path d="M106.38068,26.99851a16.10758,16.10758,0,0,1,4.1924,8.7369c.1481.9819,1.6411.5656,1.4943-.4106a17.51834,17.51834,0,0,0-4.5933-9.4213C106.79258,25.17321,105.70058,26.27091,106.38068,26.99851Z"/>
        <path d="M105.53288,31.42421a14.48314,14.48314,0,0,1,2.539,9.2564c-.0615.9943,1.4895.9916,1.5495,0a15.88877,15.88877,0,0,0-2.7506-10.0371C106.31358,29.82371,104.97078,30.59611,105.53288,31.42421Z"/>
        <path d="M63.81249,127.22591h-10.176v1.4538h10.176C65.267,128.67971,65.267,127.22591,63.81249,127.22591Z"/>
        <path d="M90.11618,51.00121a20.47007,20.47007,0,0,1,5.7971,9.2049c.2878.9525,1.7835.546,1.4923-.4107a22.03435,22.03435,0,0,0-6.1924-9.889C90.48218,49.23181,89.38158,50.32391,90.11618,51.00121Z"/>
        <path d="M20.01418,126.42561a10.73546,10.73546,0,0,0-4.8183,5.6534c-.3525.9343,1.1432,1.3365,1.4923.412a9.08366,9.08366,0,0,1,4.1066-4.7288A.77439.77439,0,0,0,20.01418,126.42561Z"/>
        <path d="M60.04668,88.41111a.77556.77556,0,0,0,.78281,1.338,6.75365,6.75365,0,0,0,3.30779-6.5514c-.1117-.9803-1.6619-.9916-1.5495,0A5.24585,5.24585,0,0,1,60.04668,88.41111Z"/>
        <path d="M67.06518,89.28681a15.64236,15.64236,0,0,0,.5119-6.8809c-.1363-.9832-1.6285-.5656-1.4923.4106a13.85961,13.85961,0,0,1-.51329,6.0597C65.27688,89.83,66.77258,90.23921,67.06518,89.28681Z"/>
        <path d="M47.64378,81.959a5.10384,5.10384,0,0,1,2.1675-4.5417c.8121-.5656.0397-1.909-.7814-1.3365A6.68015,6.68015,0,0,0,46.095,81.959C46.14808,82.94921,47.69688,82.95621,47.64378,81.959Z"/>
        <path d="M44.48618,71.50991a9.98375,9.98375,0,0,0-4.8566,7.0122c-.15909.9747,1.333,1.3937,1.49291.412a8.51438,8.51438,0,0,1,4.14439-6.0877A.77433.77433,0,0,0,44.48618,71.50991Z"/>
      </g>
    </g>
  </g>
</svg>
