<svg xmlns="http://www.w3.org/2000/svg" viewBox="0 0 24.3705 22.18033">
  <title>Recurso 4</title>
  <g id="fa0865ba-863f-4b4b-8551-b61195e401fe" data-name="Capa 2">
    <g id="7903e3ab-42da-45fb-9b69-9a3153d00286" data-name="Layer 6">
      <g>
        <path d="M20.86337,12.77668l1.4815-1.47922c2.55289-2.5493,1.29076-5.99383-.766-8.2048a9.46972,9.46972,0,0,0-2.25435-1.81032C18.28.69644,15.00465-.1609,12.86281,1.92388L8.41755,6.34721c-1.19983,1.19412,1.828,2.34944,3.36061.83915l1.1197-1.10361c1.65442-1.50022,3.7332,1.50609,6.32432-.53851" fill="none" stroke="#f46819" stroke-linecap="round" stroke-linejoin="round" stroke-width="1.2"/>
        <path d="M3.56011,12.07695l-1.479-1.47677c-4.92868-4.92146,3.6078-13.37135,8.61032-8.502L11.688,3.09" fill="none" stroke="#f46819" stroke-linecap="round" stroke-linejoin="round" stroke-width="1.2"/>
        <path d="M15.26378,7.1543l5.72406,6.00048c1.16854,1.225-.56659,3.55718-2.06587,2.01071l-2.68322-2.76637" fill="none" stroke="#f46819" stroke-linecap="round" stroke-linejoin="round" stroke-width="1.2"/>
        <path d="M13.90067,14.26328l2.94917,3.03005c1.18088,1.2129,3.57142-.5804,2.07213-2.12785L16.03928,12.191" fill="none" stroke="#f46819" stroke-linecap="round" stroke-linejoin="round" stroke-width="1.2"/>
        <path d="M13.0045,17.61155l1.47316,1.48529c1.19224,1.20172,3.507-.51351,2.01982-2.07515" fill="none" stroke="#f46819" stroke-linecap="round" stroke-linejoin="round" stroke-width="1.2"/>
        <path d="M7.0713,10.8593l.15742.15723A1.37608,1.37608,0,0,1,7.22854,12.953l-2.0384,2.03954a1.37619,1.37619,0,0,1-1.93631,0l-.15742-.15744a1.37446,1.37446,0,0,1-.00018-1.93648L5.13483,10.8593a1.37414,1.37414,0,0,1,1.93648,0Zm3.42919.93312.15738.1574a1.37458,1.37458,0,0,1-.00016,1.93631L7.41055,17.13349a1.37635,1.37635,0,0,1-1.93629,0l-.1574-.15744a1.37461,1.37461,0,0,1,0-1.93631L8.564,11.79262a1.37308,1.37308,0,0,1,1.9365-.0002Zm1.3271,3.03421.15742.15744a1.37412,1.37412,0,0,1,0,1.93648L9.75887,19.14667a1.37481,1.37481,0,0,1-1.93648,0L7.665,18.98925a1.374,1.374,0,0,1,0-1.93627L9.8913,14.82663a1.37313,1.37313,0,0,1,1.93629,0Zm1.43129,2.895.15744.1574a1.37568,1.37568,0,0,1,0,1.93631l-1.36709,1.36689a1.37632,1.37632,0,0,1-1.93631,0L9.95571,21.025a1.37479,1.37479,0,0,1-.00022-1.93646l1.36693-1.36717a1.37377,1.37377,0,0,1,1.93648.00024Z" fill="none" stroke="#f46819" stroke-miterlimit="22.92558" stroke-width="1.2"/>
      </g>
    </g>
  </g>
</svg>
