<svg xmlns="http://www.w3.org/2000/svg" viewBox="0 0 209.73779 220.52945">
  <title>involucrate_4.1Recurso 6</title>
  <g id="Capa_2" data-name="Capa 2">
    <g id="Editar">
      <g>
        <g>
          <g>
            <path d="M146.78242,80.5694a20.05151,20.05151,0,0,1,.4219-2.1866c1.82671-6.9677,9.7363-8.5742,14.519-3.4775a9.49268,9.49268,0,0,1,.7598.9248,11.53379,11.53379,0,0,1,2.3042,6.3271,17.0216,17.0216,0,0,1,.2759,3.7549,23.77609,23.77609,0,0,1-.22319,2.4092,16.68868,16.68868,0,0,1,5.86039-1.4668,15.46356,15.46356,0,0,1,2.1602-.0166c.0581-.0107.1142-.0283.1718-.04,2.5083-.4912,4.5435.4414,6.4639,2.0341a9.87475,9.87475,0,0,1,2.835,3.6758,4.70514,4.70514,0,0,1,.4726,1.3438c.0357.124.0733.2431.1055.3711.6279,2.6064-.607,4.6152-1.96239,6.6611-2.53271,3.8184-8.72761,4.4639-12.74121,5.6055a43.2598,43.2598,0,0,0-8.4224,3.2861,54.12491,54.12491,0,0,1-6.645,3.1963,2.846,2.846,0,0,1-1.9839-.082,3.16917,3.16917,0,0,1-3.5947-3.1914,47.941,47.941,0,0,0-1.2217-8.5782,63.49639,63.49639,0,0,1-.9229-9.0556C145.33912,89.7119,144.77272,83.3672,146.78242,80.5694Z" fill="#dc4654"/>
            <path d="M142.90112,97.9658a69.99794,69.99794,0,0,0,3.5766,10.8682c1.4165,3.168,3.1534,6.9072,6.38431,8.5098a2.4581,2.4581,0,0,0,3.59909-1.5069c6.0191-2.1259,12.1543-3.7666,17.9068-6.6582,5.1323-2.58,11.272-6.498,12.8403-12.4648,1.6314-6.207-2.1704-10.918-8.2891-12.0615-2.8583-.5332-5.7563-1.1153-8.6069-.2325a10.93649,10.93649,0,0,0-2.2466,1.0215c.96-6.3183-1.4472-13.247-7.4775-16.2226-6.2647-3.0938-14.5689.9814-17.6006,6.9297C139.51392,82.9629,141.05,90.8779,142.90112,97.9658Zm3.3481-14.5869c.376-5.248,5.0445-11.6357,10.9766-11.0644,6.84421.6592,8.9844,8.8398,7.01221,14.3935a1.52732,1.52732,0,0,0,.20259,1.4932c-.2422.2197-.4785.4414-.7085.6601a1.403,1.403,0,0,0,1.87891,2.0821c2.042-1.6739,4.126-3.083,6.88769-2.6719a24.6204,24.6204,0,0,1,6.6099,1.957c1.478.7061,3.311,1.9834,2.73241,3.8907a11.55991,11.55991,0,0,1-3.39261,5.3574c-3.6923,3.2881-8.3398,5.1308-12.8227,7.0713-3.4321,1.4883-8.2261,1.7588-11.728,3.6494a26.34387,26.34387,0,0,1-1.88869-3.3096,55.34778,55.34778,0,0,1-2.81451-7.8262C147.78242,94.0781,145.87372,88.6309,146.24922,83.3789Z" fill="#463131"/>
          </g>
          <g>
            <path d="M195.81172,48.919a8.90463,8.90463,0,0,1,.5664-.7793,3.59811,3.59811,0,0,1,6.3321,1.2988,3.823,3.823,0,0,1,.1289.5029,4.99742,4.99742,0,0,1-.2578,2.9043,7.33067,7.33067,0,0,1-.5801,1.5235c-.1529.289-.3286.5996-.5293.9023a7.2536,7.2536,0,0,1,2.5679.501,6.73284,6.73284,0,0,1,.8491.3887c.0254.0058.0512.0097.0752.0175a3.23582,3.23582,0,0,1,2.1616,1.9825,4.28215,4.28215,0,0,1,.438,1.9609,2.05187,2.05187,0,0,1-.0625.6152c-.0083.0537-.0147.1074-.0269.1641a3.53992,3.53992,0,0,1-1.9907,2.2519c-1.6938,1.0323-4.2412.1495-6.0239-.1377a18.51,18.51,0,0,0-3.9068-.2568,23.85644,23.85644,0,0,1-3.1914.0352,1.23441,1.23441,0,0,1-.7622-.3975,1.37162,1.37162,0,0,1-.8257-1.9111,20.81017,20.81017,0,0,0,1.0948-3.5879,27.27686,27.27686,0,0,1,1.2998-3.7207C193.56952,52.2412,194.51092,49.6475,195.81172,48.919Z" fill="#dc4654"/>
            <path d="M191.09882,55.0313a30.04833,30.04833,0,0,0-.5903,4.917c-.0254,1.5009-.0312,3.2861.9414,4.5097a1.06552,1.06552,0,0,0,1.6885.0664,64.766,64.766,0,0,0,8.2432.6748c2.4868-.0703,5.6123-.4804,7.3227-2.5322,1.7778-2.1357,1.1523-4.6797-1.0381-6.251a7.65557,7.65557,0,0,0-3.333-1.6689,4.64613,4.64613,0,0,0-1.0679-.0117,6.57668,6.57668,0,0,0,.043-7.7354c-1.8887-2.3613-5.8935-2.2871-8.1728-.5107C192.52222,48.5254,191.67452,51.9102,191.09882,55.0313Zm3.9893-5.1075c1.10991-1.9892,4.1123-3.6386,6.334-2.3261,2.5635,1.5146,1.90091,5.1152.1094,6.9306a.664.664,0,0,0-.1949.6231q-.2028.063-.3994.1279a.60847.60847,0,0,0,.3555,1.1631,3.75218,3.75218,0,0,1,3.1919.2148,10.66035,10.66035,0,0,1,2.2329,1.9795c.4492.5489.9341,1.3868.3584,2.0274a4.99833,4.99833,0,0,1-2.314,1.4785,19.92824,19.92824,0,0,1-6.3252.4209c-1.6191-.0449-3.5488-.8184-5.269-.7197a11.60524,11.60524,0,0,1-.1338-1.6455,23.936,23.936,0,0,1,.332-3.585C193.72732,54.3994,193.97772,51.9141,195.08812,49.9238Z" fill="#463131"/>
          </g>
          <g>
            <path d="M156.094,12.1338a8.84652,8.84652,0,0,1-.189-.9453,3.59836,3.59836,0,0,1,5.251-3.7705,3.95968,3.95968,0,0,1,.45549.2451A5.00054,5.00054,0,0,1,163.571,9.8223a7.333,7.333,0,0,1,.72609,1.4599c.1084.3086.2178.6485.3037,1.002a7.23341,7.23341,0,0,1,2.1103-1.5479,6.59034,6.59034,0,0,1,.8614-.3593c.02151-.0157.042-.0313.0634-.045a3.23869,3.23869,0,0,1,2.9234-.2421,4.275,4.275,0,0,1,1.7378,1.0078,2.03088,2.03088,0,0,1,.4096.4629c.0347.0429.0689.083.1026.1308a3.54568,3.54568,0,0,1,.3042,2.9903c-.3897,1.9453-2.7666,3.2177-4.18749,4.333a18.65372,18.65372,0,0,0-2.83841,2.6963,23.61517,23.61517,0,0,1-2.1387,2.3691,1.23271,1.23271,0,0,1-.809.291,1.37219,1.37219,0,0,1-1.9644-.6904,20.80641,20.80641,0,0,0-1.8936-3.2373,27.3022,27.3022,0,0,1-1.853-3.4795C157.01342,16.0352,155.74782,13.585,156.094,12.1338Z" fill="#dc4654"/>
            <path d="M157.38792,19.7432a30.18457,30.18457,0,0,0,3.2129,3.7676c1.0864,1.038,2.394,2.2539,3.9521,2.3671a1.064,1.064,0,0,0,1.1949-1.1943,64.57068,64.57068,0,0,0,6.0869-5.5996c1.6357-1.875,3.4536-4.4502,3.1059-7.0986-.3632-2.7559-2.6567-4.0196-5.2968-3.4766a7.63854,7.63854,0,0,0-3.4873,1.3164,4.72571,4.72571,0,0,0-.7334.7764,6.57762,6.57762,0,0,0-5.6539-5.2783c-3.017-.2139-5.67819,2.7802-5.9199,5.6601C153.57342,14.2842,155.48562,17.2031,157.38792,19.7432Zm-1.0464-6.3965c-.709-2.165.1157-5.4893,2.5864-6.2305,2.85211-.8574,5.0479,2.0713,5.168,4.6201a.66157.66157,0,0,0,.3257.5655c-.062.1269-.1201.2549-.1768.3799a.60769.60769,0,0,0,1.0948.5263,3.75016,3.75016,0,0,1,2.3232-2.1972,10.61656,10.61656,0,0,1,2.9688-.2989c.708.042,1.6528.2539,1.7329,1.1123a5.01613,5.01613,0,0,1-.4829,2.7032,19.99693,19.99693,0,0,1-3.98,4.9336c-1.1324,1.1582-3.0103,2.0517-4.1035,3.3818a11.422,11.422,0,0,1-1.2994-1.0166,23.93415,23.93415,0,0,1-2.4096-2.6758C158.70722,17.3828,157.05052,15.5127,156.34152,13.3467Z" fill="#463131"/>
          </g>
        </g>
        <g>
          <g>
            <path d="M27.20272,18.7735l.0008.0007A7.82425,7.82425,0,0,1,29.116,16.7025a.808.808,0,0,1-.41791-.1758c-3.7443-3.005-7.9688-4.2526-12.3383-1.2988a12.83909,12.83909,0,0,0-4.6527,6.1325,45.869,45.869,0,0,1-1.3714,7.5177C15.21412,23.6338,19.96052,16.7149,27.20272,18.7735Z" fill="#fff"/>
            <path d="M119.31512,14.4055c-2.7826-1.0347-5.0302-.3596-7.4557.7645a8.67625,8.67625,0,0,1,.7623,2.4259c5.6818,2.9988,11.2969,5.0106,17.6027,5.2548a27.54162,27.54162,0,0,1-5.521-4.5107A16.32679,16.32679,0,0,0,119.31512,14.4055Z" fill="#fff"/>
            <path d="M27.87362,27.8212a7.78124,7.78124,0,0,1-1.6462-3.5262c-3.0229,4.4189-7.9636,7.8602-12.6946,9.9884a28.00368,28.00368,0,0,1-4.3257,1.5281,18.31094,18.31094,0,0,0,8.3395-.6584C21.91382,33.7343,24.70172,30.8318,27.87362,27.8212Z" fill="#fff"/>
            <path d="M101.87292,68.7722c8.20311-9.4465,9.6555-22.0107,5.66411-33.5972-.02491-.0718-.03251-.1373-.05011-.2065-16.7995-1.1317-34.5458-4.351-46.5045-16.9407-5.996,11.0057-15.9723,20.2038-28.2519,23.369.32651,4.1972-.277,8.4289.848,12.6649a31.93979,31.93979,0,0,0,7.7559,13.9002c7.8437,8.175,19.27661,12.0509,30.412,12.4848C83.109,80.8894,94.25262,77.5475,101.87292,68.7722Z" fill="#ffdbba"/>
            <path d="M59.26512,14.4937c.0154-.0313.04091-.055.05891-.0844a8.84306,8.84306,0,0,1-.94011-1.664c-2.7376,4.7496-6.83189,9.1087-10.5138,12.8312a70.027,70.027,0,0,1-15.9935,12.5058c-.0072.0448-.0162.0891-.0232.1339a.83242.83242,0,0,1,.3607.2279C43.72412,33.5738,53.58712,25.8874,59.26512,14.4937Z" fill="#fff"/>
            <path d="M131.97222,24.5477c-6.73919.3705-13.7227-1.1446-19.26719-5.0767a6.64051,6.64051,0,0,1-.60811,2.5212c5.961,5.9232,13.2892,5.8471,20.4489,3.057C132.342,24.8913,132.15822,24.7188,131.97222,24.5477Z" fill="#fff"/>
            <path d="M24.23912,113.8991c-2.6086-1.8313-6.7596-1.1366-7.3075,2.6455-.3858,2.6639,2.7989,3.0848,4.7869,2.6013,2.2732-.5525,2.9421-2.4674,2.4576-4.5421A1.07432,1.07432,0,0,1,24.23912,113.8991Z" fill="#fff"/>
            <path d="M130.98632,97.1082c-1.8534.0621-2.2187,1.8346-3.7167,2.3492-.0201.0069-.04359.0027-.0643.0076a3.21638,3.21638,0,0,0,2.0445,4.3052,3.86281,3.86281,0,0,0,4.676-2.3767C134.56642,99.4626,133.12492,97.0366,130.98632,97.1082Z" fill="#fff"/>
            <path d="M118.40812,6.4328a15.75608,15.75608,0,0,1,8.9656,7.227,43.29851,43.29851,0,0,0-1.188-4.533c-1.6226-4.772-6.6888-7.8751-11.6639-6.093-3.39479,1.2161-4.578,3.7863-5.6179,6.6034C110.77662,6.7001,114.99972,5.5188,118.40812,6.4328Z" fill="#fff"/>
            <path d="M117.08052,42.7942a1.87664,1.87664,0,0,0-.3618-.0584l-.0031-.0001c-.8172-.0508-1.4645.418-2.3519-.0305-.0068-.0034-.0119-.0101-.0185-.0137-.1749.0007-.3499.0149-.5248.0221a37.17148,37.17148,0,0,1,.311,4.6645c1.9135.3857,4.0254-.1414,4.385-2.407A1.87066,1.87066,0,0,0,117.08052,42.7942Z" fill="#fff"/>
            <path d="M54.33612,210.5595c-1.8765-.4384-6.493-.133-5.3008,2.7772.7454,1.8194,3.4815,1.4339,5.1843,1.333a29.93926,29.93926,0,0,0,5.3565-.5597A9.43343,9.43343,0,0,0,54.33612,210.5595Z" fill="#fff"/>
            <path d="M103.57572,211.769a4.62409,4.62409,0,0,0-2.9949.9113c-.5811.5627-.7197,1.276-1.3505,1.813a1.68174,1.68174,0,0,1-.22829.1575c.01769.2648.03939.5295.05569.7944a1.53138,1.53138,0,0,1-.01.2397,17.06347,17.06347,0,0,0,5.4371.8672c1.6681-.1446,4.4428-1.2149,3.8881-3.4181C107.91842,211.3291,104.99862,211.6736,103.57572,211.769Z" fill="#fff"/>
            <path d="M109.942,12.7978c-.00561.0112-.01581.0169-.022.0277a6.85209,6.85209,0,0,1,.709.6011c2.94519-2.3294,7.36389-2.3356,10.61449-.5334,2.7754,1.5388,4.6438,4.0998,6.7929,6.332C125.25292,12.1173,114.99972,2.8583,109.942,12.7978Z" fill="#fff"/>
            <path d="M25.40942,50.3143a2.71475,2.71475,0,0,0,2.1101,1.5079,2.8274,2.8274,0,0,0,1.0817-.0914,25.52509,25.52509,0,0,1-.4614-4.6229C26.58222,47.3165,24.831,48.7414,25.40942,50.3143Z" fill="#fff"/>
            <path d="M26.09862,22.2655a7.66778,7.66778,0,0,1,.5185-2.3342c-8.9248.273-11.766,9.8213-18.6565,13.7011a8.99056,8.99056,0,0,1-.7398.8108c3.0513.1454,8.5825-3.5805,10.3813-4.7383C20.863,27.6064,23.35172,24.907,26.09862,22.2655Z" fill="#fff"/>
            <path d="M16.70922,13.0354c3.8713-2.032,11.0742-2.0972,13.1111,2.6255a.815.815,0,0,1,.0503.5348,8.54358,8.54358,0,0,1,1.5607-.7423c-1.047-5.2273-5.5531-9.4412-11.2186-7.6102-4.087,1.3208-6.4133,4.848-7.5872,8.73A12.06739,12.06739,0,0,1,16.70922,13.0354Z" fill="#fff"/>
            <path d="M33.04852,34.9493a.69467.69467,0,0,1-.0383.062,117.7284,117.7284,0,0,0,13.1794-11.1154,125.07234,125.07234,0,0,0,9.0318-11.0303C46.75952,18.8629,36.79242,25.0378,33.04852,34.9493Z" fill="#fff"/>
            <path d="M88.97892,14.0267a54.87123,54.87123,0,0,1,12.6596,6.0893,32.68525,32.68525,0,0,0-7.4826-7.124c-7.6087-5.2454-17.2633-6.9666-26.3524-6.0661a55.44274,55.44274,0,0,0-7.6426,1.2995c.0905.1288.1957.2434.2902.3685C70.09592,9.9755,79.70482,10.7387,88.97892,14.0267Z" fill="#fff"/>
            <path d="M85.89182,15.997c-7.8765-2.6342-16.1975-4.1074-24.2841-6.0535,5.1314,5.3194,14.0265,6.913,20.6967,9.1058,6.5797,2.1629,13.385,4.0635,19.9829,6.3589a39.65584,39.65584,0,0,0-5.5925-4.4733A53.13411,53.13411,0,0,0,85.89182,15.997Z" fill="#fff"/>
            <path d="M41.45852,20.8466c4.5804-4.2857,9.792-8.8008,15.4152-11.6848a37.0408,37.0408,0,0,0-15.6795,9.2791,33.52786,33.52786,0,0,0-6.5159,9.9473A46.316,46.316,0,0,1,41.45852,20.8466Z" fill="#fff"/>
            <path d="M60.38582,11.7146a12.3347,12.3347,0,0,0,.7695,2.0747,1.27666,1.27666,0,0,1,.5901.3847c11.201,13.1856,28.79261,15.0627,44.9981,16.5119-.0178-.061-.0342-.1231-.05149-.1843-9.86221-2.8905-19.54171-7.0642-29.18421-10.5568C71.62242,17.8132,65.102,15.9373,60.38582,11.7146Z" fill="#fff"/>
            <path d="M110.77682,152.2718q-.70065-2.6889-1.4015-5.3779a2.481,2.481,0,0,0,.8079-2.5873,274.525,274.525,0,0,0-15.1659-43.4496,2.09515,2.09515,0,0,0-2.7526-1.1979q-2.96295-7.29345-5.2285-14.8282a2.58255,2.58255,0,0,0-3.0878-1.7533,100.68406,100.68406,0,0,1-13.6686,1.3956c-1.60679-.5414-3.1952-1.1436-4.7572-1.8232a2.49219,2.49219,0,0,0-3.3772,3.3773c.7618,1.692-1.4498,4.6517-1.8727,6.2985a6.43938,6.43938,0,0,0,.3197,4.5554c-.0715.3561-.1406.7125-.2135,1.0685a3.13563,3.13563,0,0,0-.9972.8719,5.98871,5.98871,0,0,0-.5683,6.3039c-.0867.3789-.1718.758-.2595,1.1367l-6.6086,18.6666a2.27369,2.27369,0,0,0,1.5263,2.8441c-.0562.2535-.1147.5073-.1704.7608-.2057.9371-.4034,1.8757-.6075,2.8132a2.04973,2.04973,0,0,0-.4929.6961c-.0789.1784-.1424.3546-.216.5324l-.0074-.0032-.0081.0414a20.688,20.688,0,0,0-1.6348,8.2787q-.504,2.55315-1.008,5.1058a2.2407,2.2407,0,0,0,.0328,1.0319c-.17629.8493-.35629,1.6979-.5312,2.5475a2.10493,2.10493,0,0,0-2.34109,2.9618q.462.9171.957,1.8117a1.71354,1.71354,0,0,0-.77451,2.4693c.1657.3036.3416.6001.5111.9011-.2172,1.0853-.4383,2.1698-.6531,3.2556a2.35364,2.35364,0,0,0-.7049,2.9613l.0906.1566c-.1525.7801-.299,1.5615-.4501,2.3419a2.211,2.211,0,0,0-1.4996,2.9426,1.99339,1.99339,0,0,0-1.3388,2.4023,5.93163,5.93163,0,0,0,2.10131,3.3587,2.00492,2.00492,0,0,0,2.60809-.0108c.0315.0309.0626.0585.0942.0902a2.022,2.022,0,0,0,3.3204-.7468c.1042.0002.2082-.0023.31231-.0025.64019.4194,1.27859.8414,1.92349,1.2534a2.20907,2.20907,0,0,0,3.2683-1.3899c3.0727-.1519,6.1367-.4214,9.195-.7734,1.2546.8035,2.5434,1.5619,3.8704,2.2647a2.06543,2.06543,0,0,0,2.8037-2.8037l-.1833-.3145q.75811-.1107,1.5159-.2252a2.52948,2.52948,0,0,0,2.3708-.3668q.77745-.123,1.555-.2479a2.627,2.627,0,0,0,1.71171.2896q7.95044-1.25175,15.75659-3.1409c4.4125-.657,8.8352-1.2121,13.2775-1.5488.8103.2275,1.6194.4786,2.4252.7808a2.6689,2.6689,0,0,0,2.9283-1.0696c.2816-.0089.5627-.0218.8445-.0286a2.60017,2.60017,0,0,1,.3004.0222c-.2724-.7857-.53049-1.5776-.7799-2.3731A48.48756,48.48756,0,0,0,110.77682,152.2718Z" fill="#fff"/>
            <path d="M32.954,23.642c.00039-.0914.00929-.1814.01159-.2725.2732-.5111.5637-1.0144.865-1.5125.0639.0224.1217.0521.1868.0731a1.54828,1.54828,0,0,0,1.7391-.7077c.4956-1.0404,1.1326-2.0632.7464-3.1625.0599-.0735.1159-.1492.1763-.2223-.0899.005-.17819.0033-.267.004-.0195-.041-.0283-.0811-.0508-.1223a1.03462,1.03462,0,0,0-1.1357-.4622,1.87331,1.87331,0,0,0-.9422.4684,4.75585,4.75585,0,0,0-1.1407.1188c-.0383-.0429-.0782-.0789-.116-.1248a1.62133,1.62133,0,0,0-2.6869.7095,10.21109,10.21109,0,0,0-.3226,1.4164,4.46665,4.46665,0,0,0-.2947.4595c-.0099.0179-.0169.0361-.02659.0541a1.4076,1.4076,0,0,0-1.43781,1.7577,7.71973,7.71973,0,0,0,1.5287,3.1275A9.261,9.261,0,0,0,31.196,27.2758c.29539-.7911.62569-1.57.98419-2.3378A1.4199,1.4199,0,0,0,32.954,23.642Z" fill="#fff"/>
            <path d="M103.08572,16.6545a.44821.44821,0,0,0,.11631.0323c.07369.09.24289.2109.43089.4041.3554.3654.7276.7129,1.0966,1.0644q.74326.70815,1.4866,1.4162c.2138.32.43091.6378.6337.9655.1846.298.3754.6148.5681.9418.6864-.4185,1.5255-.4767,2.087-1.2735a2.99178,2.99178,0,0,0,.2547-.4413,1.78666,1.78666,0,0,0,1.9486-1.6981c.15-1.3835-.9145-3.0928-2.4784-2.7482-.8874-.6874-1.7695-1.382-2.6539-2.0718a1.85823,1.85823,0,0,0-3.0092,1.0818,5.93173,5.93173,0,0,0-1.0469.6099c.0661.0697.1276.1436.1931.2138A1.07592,1.07592,0,0,0,103.08572,16.6545Z" fill="#fff"/>
          </g>
          <g>
            <path d="M113.94,166.5143a48.61079,48.61079,0,0,0-3.16321-13.3947q-.70065-2.6889-1.4015-5.378a2.4809,2.4809,0,0,0,.8079-2.5872,274.51355,274.51355,0,0,0-15.1659-43.4497,2.09512,2.09512,0,0,0-2.7526-1.1979q-2.96295-7.29345-5.2285-14.8282a2.58264,2.58264,0,0,0-3.0878-1.7533,100.68424,100.68424,0,0,1-13.6685,1.3956c-1.60689-.5414-3.1952-1.1436-4.7573-1.8232a2.49219,2.49219,0,0,0-3.3772,3.3773c.7618,1.692-1.4498,4.6517-1.8727,6.2986a6.09649,6.09649,0,0,0,.7495,5.2609c.01481.0198.0324.0343.0474.0538-.0328.0189-.0681.0342-.1.0545a3.031,3.031,0,0,0-1.5879,1.1265,5.99477,5.99477,0,0,0-.4881,6.481l-6.9482,19.6262c-.5926,1.6739,1.0583,3.1134,2.5814,3.0094q-.54855,1.4949-1.0627,3.002a1.77671,1.77671,0,0,0-1.2633,1.1028c-.07879.1784-.1424.3546-.216.5324l-.0073-.0031-.0082.0413a20.68605,20.68605,0,0,0-1.6347,8.2787q-.50415,2.55315-1.0082,5.1058a2.162,2.162,0,0,0,.329,1.689,1.54085,1.54085,0,0,0-.136,2.0791c.4253.5544.83961,1.1157,1.2555,1.6762-.3886-.437-.7826-.8683-1.16389-1.3136-1.53871-1.7963-4.09081.4912-3.124,2.4105q.462.9171.957,1.8118a1.71334,1.71334,0,0,0-.77451,2.4692q1.2075,2.21235,2.5508,4.3304c-.1188-.0846-.2366-.1703-.3554-.2546-1.8828-1.3371-4.0935,1.2265-3.0423,3.0422l1.822,3.1474q-.32865-.20355-.6575-.4072a2.14945,2.14945,0,0,0-3.0237,2.7009,1.99346,1.99346,0,0,0-1.3387,2.4023,5.93163,5.93163,0,0,0,2.10131,3.3587,2.00491,2.00491,0,0,0,2.60809-.0108c.0315.0309.0626.0585.0943.0902a2.03528,2.03528,0,0,0,3.3838-.9114c.7236.4726,1.4439.9502,2.1723,1.4155,1.92751,1.2309,4.1771-1.1821,3.0733-3.0733q-.66119-1.13295-1.3225-2.2658,2.2248,1.5333,4.4554,3.0589c1.5182,1.0328,3.2309-.5566,3.1-2.0611a54.09948,54.09948,0,0,0,7.0275,4.4427,2.06536,2.06536,0,0,0,2.8036-2.8037q-.7779-1.33575-1.55579-2.6718,1.13174.89655,2.26309,1.7933c1.2408.982,3.436.4097,3.6163-1.1225a2.63663,2.63663,0,0,0,2.64661,1.1362,198.161,198.161,0,0,0,20.78869-4.4256,2.412,2.412,0,0,0,.33-.1261q.48435-.10455.9686-.2088a2.08794,2.08794,0,0,0,1.3534-.9787,31.41772,31.41772,0,0,1,8.0187,1.8303A2.68893,2.68893,0,0,0,113.94,166.5143Zm-9.53021-14.5304c.2187.9325.4661,1.8513.7356,2.7598-.2989-.2884-.6031-.5715-.9007-.8609q-.1989-.3525-.4061-.6991A2.77725,2.77725,0,0,0,104.40982,151.9839Zm-41.8004-26.8c.0151.4184.0335.8363.053,1.254q-.29085.799-.5816,1.5978Q62.33732,126.60845,62.60942,125.1839Zm24.9399,18.2949a2.585,2.585,0,0,0,.0506.3707c-.5092-.8237-1.0216-1.6453-1.5188-2.4761C86.57262,142.0739,87.06432,142.7739,87.54932,143.4788Zm-9.2825-21.0253c.0133-.2603.0323-.52.0427-.7802a2.30087,2.30087,0,0,0-2.1238-2.3623c.1126-.6193.2179-1.2397.3339-1.8585a2.26826,2.26826,0,0,0,.0237-.6005c.2669.1956.5291.3963.798.5898a2.23734,2.23734,0,0,0,.9649.407q1.0863,3.85215,2.3983,7.629C79.90232,124.4619,79.08272,123.459,78.26682,122.4535Zm-2.871,32.3656a2.569,2.569,0,0,1,.8843-.3771q1.2588,1.185,2.5175,2.3699-2.1162-.861-4.2328-1.7214A1.24579,1.24579,0,0,1,75.39582,154.8191Zm14.2878-8.1913c.6847,1.0248,1.358,2.0571,2.0295,3.0908-.1545-.0616-.3103-.1202-.46509-.181q-1.33531-2.0079-2.625-4.0432C88.97372,145.8751,89.33112,146.2491,89.68362,146.6278Zm3.9141-4.3795q-2.3127-4.4151-4.2894-8.9822,2.5155,4.749,5.031,9.498C94.09672,142.5874,93.84572,142.4196,93.59772,142.2483ZM68.03042,113.527a2.32856,2.32856,0,0,0-.6749.5124q.0918-2.01885.2226-4.0282Q67.76517,111.77115,68.03042,113.527Zm-7.1299,36.4838q-.84465-.70875-1.6891-1.4174l.1178-.3205Q60.12572,149.13345,60.90052,150.0108Zm22.6647-38.6692a2.348,2.348,0,0,0,.7264-1.6784c.0711.0279.1399.0597.2111.0873a2.35832,2.35832,0,0,0,.3491.0961q.9636,3.91335,2.0489,7.7907Zm-.39619,52.607q-1.47661.3537-2.94141.7362-.832-1.21305-1.6979-2.3989C80.064,162.8749,81.61222,163.4244,83.169,163.9486Zm10.84159-1.9336q-1.8966-.45195-3.773-.9694-.91635-.8754-1.83259-1.7509-.11836-.2091-.23691-.4178,3.0669,1.4517,6.02791,3.1209C94.13422,162.0038,94.07242,162.0088,94.01062,162.015Zm-38.4231-19.9869a1.85641,1.85641,0,0,0-.253,1.9388c-.0518.4156-.099.8321-.149,1.2483l-.1307-.1097a16.30318,16.30318,0,0,1-.34979-2.2302q.71729-2.9112,1.56739-5.7795Q55.90927,139.5588,55.58752,142.0281ZM89.493,104.6307a2.7717,2.7717,0,0,0,.96719.0544q.70455,3.4482,1.4672,6.8821Q90.67507,108.1124,89.493,104.6307ZM67.91582,89.6474q-.2001,1.4616-.3525,2.9222c-.5576-.1753-1.1176-.3451-1.6846-.4984a28.37353,28.37353,0,0,0,.93831-2.8197C67.18312,89.3847,67.54862,89.5207,67.91582,89.6474Zm39.455,72.7323a2.76826,2.76826,0,0,0,.5539-.2551c.04231.2084.0915.415.1306.624-.2451-.0582-.49029-.1155-.7359-.1683C107.34012,162.5141,107.35532,162.4471,107.37082,162.3797Z" fill="#de7799"/>
            <path d="M36.36142,18.567a1.03448,1.03448,0,0,0-1.1357-.4622,2.16642,2.16642,0,0,0-1.4876,1.1408,3.99085,3.99085,0,0,1-.7113-.6784,1.6213,1.6213,0,0,0-2.6869.7095,10.62,10.62,0,0,0-.4084,1.9507,1.41574,1.41574,0,0,0-1.6733,1.737c.4052,1.4261,1.0281,3.0402,2.3741,3.8148a.74684.74684,0,0,0,1.1149-.6398c-.0047-.065-.0216-.1279-.0287-.1923a1.45673,1.45673,0,0,0,1.2354-1.4574,17.21084,17.21084,0,0,1,.1514-2.0691,8.13138,8.13138,0,0,0,.9121.3573,1.54847,1.54847,0,0,0,1.7391-.7078C36.303,20.9229,37.03552,19.7979,36.36142,18.567Z" fill="#de7799"/>
            <path d="M109.22982,16.1654c-.8874-.6873-1.7695-1.382-2.6539-2.0718-1.27989-.998-3.2473-.0463-2.9966,1.4449-.0181.0013-.03629-.0022-.0542,0a1.04276,1.04276,0,0,0-.4395,1.9638.45855.45855,0,0,0,.1163.0323c.0738.0899.24311.2108.4309.404.3555.3654.7277.7129,1.0967,1.0645l2.2134,2.1087a1.49524,1.49524,0,0,0,2.5169-.5496,1.78126,1.78126,0,0,0,2.2484-1.6486C111.85822,17.5302,110.79372,15.8208,109.22982,16.1654Z" fill="#de7799"/>
            <path d="M59.93762,63.8469c-1.8652-2.5884-5.7368-3.4931-8.0672-.92a5.56636,5.56636,0,0,0-1.3035,4.5316,4.28037,4.28037,0,0,0,2.1749,3.0864,4.74616,4.74616,0,0,0,4.3493.9701A5.02653,5.02653,0,0,0,59.93762,63.8469Z" fill="#e8b8cc"/>
            <path d="M99.36172,60.9737c-.9929-3.6548-5.70669-4.1866-8.0364-1.6764A3.68177,3.68177,0,0,0,89.49,63.132a5.16531,5.16531,0,0,0,3.64929,4.1044A5.07144,5.07144,0,0,0,99.36172,60.9737Z" fill="#e8b8cc"/>
            <path d="M136.85452,24.3902c-6.50649-2.0371-5.5193-11.3109-7.6108-16.4363a12.599,12.599,0,0,0-8.7913-7.6183,11.88092,11.88092,0,0,0-10.9372,2.8331c-2.2239,2.129-4.2494,5.9162-3.4789,9.0975a5.36509,5.36509,0,0,0-4.8401,2.192,37.79932,37.79932,0,0,0-4.1298-3.4023c-8.7822-6.2537-20.0038-8.0215-30.5445-6.8057-10.3622,1.1952-21.1128,5.0382-28.3932,12.7862-.1082.1152-.2113.2338-.31769.3502a1.15267,1.15267,0,0,0-.17251-.3028A4.60208,4.60208,0,0,0,33.667,15.841c.24009-8.1347-9.01521-12.9846-16.24271-9.5016a15.91774,15.91774,0,0,0-8.0728,10.2181c-1.5348,5.3821.29951,17.0803-7.6594,17.7332C.156,34.4165-.764,36.6034.84182,37.4304c9.1299,4.7026,24.09721,3.1282,28.8479-7.2256a6.65147,6.65147,0,0,0,.71031.3563,31.169,31.169,0,0,0-.72141,3.1424,1.3209,1.3209,0,0,0-.5563.6559,15.94294,15.94294,0,0,0-.668,10.231c-.0738.3745-.1406.752-.1871,1.1376-3.3327-.6438-6.9054,2.4016-5.8361,6.0849a5.49692,5.49692,0,0,0,3.9988,3.6086,6.24292,6.24292,0,0,0,2.82411-.0441,41.15384,41.15384,0,0,0,3.45119,8.5555c4.7061,8.5922,12.663,14.711,21.7252,18.1761a53.31756,53.31756,0,0,0,6.353,1.9728c-.4072,1.02-.7965,2.0486-1.1763,3.0817a.90114.90114,0,0,0-.2456.2338,84.782,84.782,0,0,1-15.1329,16.5192,62.5779,62.5779,0,0,1-9.3797,6.2185c-2.7047,1.4662-5.99089,2.3869-8.6483,3.9853a6.49961,6.49961,0,0,0-6.849-3.0012,7.201,7.201,0,0,0-5.2455,8.3619c.9371,3.7343,6.1908,4.2681,9.2201,3.085a6.21913,6.21913,0,0,0,3.8732-5.6011c3.0513-.5204,6.215-2.3216,8.8029-3.7001a63.33762,63.33762,0,0,0,9.5768-6.3553,54.24133,54.24133,0,0,0,11.5648-12.4161c-3.4672,11.2755-5.763,23.0501-8.2862,34.4241-3.5,15.7767-6.6692,31.6289-9.603,47.5203a2.23825,2.23825,0,0,0,2.11431,2.7757,112.40667,112.40667,0,0,0,23.15769-.1851,167.72478,167.72478,0,0,0-2.7488,16.884c-.6378,4.7932-1.5344,9.8004-1.8385,14.7082a11.8487,11.8487,0,0,0-8.6647-2.701c-3.64969.3969-7.2511,3.6797-6.088,7.6331,1.2384,4.2094,6.6078,4.077,10.066,3.5791,1.2419-.1788,7.7457-1.7227,7.9107-4.0859a1.82189,1.82189,0,0,0,.0948-.2859c1.363-5.9326,1.6032-12.2893,2.2963-18.3364.6721-5.864,1.5227-11.778,1.7087-17.689,8.6274-.985,17.2266-2.5279,25.8436-3.822A171.61947,171.61947,0,0,0,95.809,216.7325a1.53961,1.53961,0,0,0,1.99409,1.119c3.0572,2.0688,6.95991,3.6487,10.5661,1.9755a5.97805,5.97805,0,0,0,3.208-7.7664c-1.7583-3.8793-9.2687-3.9868-12.9911-1.7261-.472-5.1051-1.0746-10.2035-1.4565-15.3141-.50959-6.8207-.89059-13.6561-1.6931-20.4493a183.00455,183.00455,0,0,1,18.8876-1.8899,2.22175,2.22175,0,0,0,2.0473-1.3969,1.14458,1.14458,0,0,0,1.6277-1.1207c-.3117-7.5052-2.4659-15.053-4.444-22.2599q-3.138-11.43315-7.0917-22.6262-3.67635-10.46415-8.03239-20.6698c-1.33261-3.117-2.67191-6.2965-4.08241-9.4476.8922.6602,1.8027,1.2621,2.702,1.8153a37.006,37.006,0,0,0,26.7782,7.1837c.0758.004.1517.0094.2274.0132a1.7018,1.7018,0,0,0,.8112-.1475c.0409-.0065.0821-.0093.123-.0159a5.19523,5.19523,0,0,0,1.7425,2.1573,6.41785,6.41785,0,0,0,9.1567-2.0081,6.02633,6.02633,0,0,0-3.167-8.6174c-2.0219-.6419-6.88159.6772-6.7952,3.2845a4.37655,4.37655,0,0,0-1.1631,1.9335,1.85008,1.85008,0,0,0-.7081-.1667c-7.27319-.2791-14.60619-1.3774-21.2949-4.3794a33.71227,33.71227,0,0,1-8.4522-5.2107c-2.5575-2.2386-4.04509-4.9116-5.7723-7.7195a37.07519,37.07519,0,0,0,19.8169-15.0267,36.69157,36.69157,0,0,0,5.7058-17.6542,5.5436,5.5436,0,0,0,7.3629-3.3079c1.1843-3.5065-1.7785-7.2698-5.3188-6.7791a10.25758,10.25758,0,0,0-2.859-.2132,33.95719,33.95719,0,0,0-1.6458-5.3087,2.28281,2.28281,0,0,0-.8321-2.8664,15.74394,15.74394,0,0,0-1.7828-6.861,4.50586,4.50586,0,0,0,1.3396-.5068c5.6657,9.3737,18.8028,6.4398,26.9282,2.6708C138.625,26.792,138.11142,24.7836,136.85452,24.3902ZM27.51952,52.6698a2.71458,2.71458,0,0,1-2.1101-1.5078c-.5785-1.5728,1.1727-2.9978,2.7304-3.2064a25.54209,25.54209,0,0,0,.4613,4.6229A2.82473,2.82473,0,0,1,27.51952,52.6698Zm-5.801,67.3239c-1.9881.4833-5.1728.0625-4.7869-2.6014.5479-3.7821,4.6989-4.4768,7.3076-2.6454a1.07224,1.07224,0,0,0-.063.7047C24.66062,117.5262,23.99162,119.4411,21.71852,119.9937Zm32.5011,95.5237c-1.7029.1009-4.4388.4864-5.1843-1.333-1.19229-2.9102,3.4243-3.2156,5.3008-2.7771a9.43334,9.43334,0,0,1,5.2401,3.5504A29.9402,29.9402,0,0,1,54.21962,215.5174Zm45.0107-.1764c.6308-.5369.7694-1.2503,1.3505-1.813a4.62439,4.62439,0,0,1,2.995-.9113c1.4227-.0954,4.3426-.4399,4.7971,1.365.5546,2.2032-2.22,3.2735-3.8881,3.4181a17.06068,17.06068,0,0,1-5.4371-.8672,1.53086,1.53086,0,0,0,.01-.2397c-.0164-.2649-.038-.5295-.05569-.7944A1.68174,1.68174,0,0,0,99.23032,215.341Zm27.9749-115.0282c.0209-.005.0444-.0008.0644-.0077,1.498-.5146,1.8632-2.2871,3.7166-2.3492,2.1387-.0716,3.5802,2.3544,2.9396,4.2853a3.86288,3.86288,0,0,1-4.6761,2.3767A3.21652,3.21652,0,0,1,127.20522,100.3128Zm-12.86-56.7736c.0066.0036.0117.0103.0185.0137.8874.4485,1.5347-.0203,2.3519.0305l.0031.0001a1.94764,1.94764,0,0,1,1.7977,2.2353c-.3596,2.2656-2.4715,2.7927-4.3849,2.407a37.19046,37.19046,0,0,0-.3111-4.6645C113.99532,43.5542,114.17032,43.54,114.34522,43.5392Zm.1766-39.6577c4.9751-1.7821,10.0413,1.321,11.6638,6.0931a43.198,43.198,0,0,1,1.188,4.5329,15.75568,15.75568,0,0,0-8.9654-7.227c-3.4085-.914-7.6316.2673-9.5044,3.2044C109.94382,7.6679,111.12692,5.0976,114.52182,3.8815ZM102.28742,26.256c-6.598-2.2954-13.4032-4.1961-19.983-6.359-6.6702-2.1927-15.5653-3.7864-20.6968-9.1058,8.0866,1.9461,16.4077,3.4193,24.2842,6.0535a53.13658,53.13658,0,0,1,10.803,4.9379A39.66168,39.66168,0,0,1,102.28742,26.256Zm4.40461,5.0933c.01739.0612.03369.1233.05149.1843-16.20549-1.4492-33.7971-3.3263-44.9981-16.5119a1.27723,1.27723,0,0,0-.5902-.3847,12.34946,12.34946,0,0,1-.7694-2.0748c4.71621,4.2228,11.2367,6.0987,17.1219,8.2304C87.15022,24.2851,96.82982,28.4588,106.692,31.3493ZM67.80362,7.7736c9.0891-.9005,18.7436.8207,26.3522,6.0661a32.69013,32.69013,0,0,1,7.4828,7.124,54.8697,54.8697,0,0,0-12.6597-6.0893c-9.2741-3.288-18.883-4.0512-28.5278-5.4328-.0945-.1251-.1997-.2397-.2902-.3684A55.44194,55.44194,0,0,1,67.80362,7.7736Zm-26.6094,11.515a37.04055,37.04055,0,0,1,15.6796-9.2791c-5.6232,2.884-10.8349,7.3991-15.4152,11.6849a46.30728,46.30728,0,0,0-6.7803,7.5415A33.52786,33.52786,0,0,1,41.19422,19.2886Zm14.0272-5.5753a125.07349,125.07349,0,0,1-9.0319,11.0303A117.71839,117.71839,0,0,1,33.01022,35.859a.69467.69467,0,0,0,.0383-.062C36.79242,25.8855,46.75942,19.7106,55.22142,13.7133ZM20.21272,8.6909c5.6654-1.831,10.1716,2.383,11.2186,7.6102a8.55374,8.55374,0,0,0-1.5608.7422.81468.81468,0,0,0-.0502-.5347c-2.0369-4.7227-9.2397-4.6576-13.1111-2.6255a12.06739,12.06739,0,0,0-4.0837,3.5378C13.79932,13.5389,16.12572,10.0117,20.21272,8.6909ZM7.96062,34.4801c6.89041-3.8798,9.7318-13.4281,18.6565-13.7011a7.67088,7.67088,0,0,0-.5186,2.3342c-2.7468,2.6415-5.2354,5.3409-8.4964,7.4394-1.7988,1.1578-7.3299,4.8837-10.3813,4.7383A8.99056,8.99056,0,0,0,7.96062,34.4801Zm9.586,1.5207a18.31094,18.31094,0,0,1-8.3395.6584,27.9996,27.9996,0,0,0,4.3257-1.5281c4.731-2.1282,9.6716-5.5695,12.6946-9.9884a7.78228,7.78228,0,0,0,1.6462,3.5262C24.70162,31.6795,21.91382,34.5819,17.54662,36.0008Zm9.6576-16.3787-.0016-.0009c-7.2421-2.0586-11.9885,4.8604-16.8669,10.1046a45.87988,45.87988,0,0,0,1.3715-7.5177,12.83766,12.83766,0,0,1,4.6526-6.1325c4.3695-2.9538,8.594-1.7062,12.3383,1.2988a.8084.8084,0,0,0,.41791.1758A7.80934,7.80934,0,0,0,27.20422,19.6221Zm2.5184,1.5305a5.2741,5.2741,0,0,1,3.2988-2.4358c1.3005-.3468,2.4205.0368,3.6578-.0314A32.87243,32.87243,0,0,0,31.196,28.1235C29.48872,26.2319,28.35192,23.6182,29.72262,21.1526Zm2.4916,18.1392a.83425.83425,0,0,0-.3608-.2279c.007-.0447.0161-.0891.0233-.1339a70.02858,70.02858,0,0,0,15.9934-12.5058c3.68191-3.7225,7.7762-8.0816,10.5138-12.8312a8.82886,8.82886,0,0,0,.94011,1.664c-.018.0294-.04341.0531-.05891.0843C53.58712,26.7351,43.72412,34.4215,32.21422,39.2918Zm61.4343,64.9046q4.68976,10.967,8.6659,22.2251,3.706,10.52745,6.7312,21.2784c1.8895,6.7107,3.2867,13.7091,5.5789,20.3197a2.60017,2.60017,0,0,0-.3004-.0222c-23.652.564-46.6213,8.8795-70.3566,7.0668q4.3062-22.91565,9.3338-45.6828c3.2554-14.8245,7.6279-29.7466,9.4632-44.8532a51.45164,51.45164,0,0,0,21.8578-.1455C87.34822,91.0962,90.79722,97.5284,93.64852,104.1964Zm8.2244-34.5765c-7.6204,8.7753-18.7638,12.1172-30.1266,11.6745C60.611,80.8605,49.178,76.9846,41.33432,68.8096a31.94124,31.94124,0,0,1-7.7559-13.9002c-1.1249-4.236-.52139-8.4676-.8479-12.6649,12.2796-3.1652,22.2559-12.3633,28.2518-23.3689,11.9588,12.5896,29.7051,15.8089,46.5046,16.9406.0175.0692.0252.1347.05.2065C111.52842,47.6092,110.07592,60.1734,101.87292,69.6199Zm7.6319-48.5669c-.5614.7968-1.4005.855-2.0869,1.2735-.1927-.3269-.3835-.6438-.568-.9418a34.651,34.651,0,0,0-4.3301-5.5994c2.2616-1.6567,5.337-1.5578,6.9107,1.2644A3.73276,3.73276,0,0,1,109.50482,21.053Zm.41521-7.3798c.00609-.0108.01639-.0165.02209-.0277,5.0576-9.9395,15.3107-.6805,18.0943,6.4274-2.1491-2.2322-4.0175-4.7931-6.7929-6.332-3.2506-1.8022-7.6693-1.7959-10.61449.5334A6.85209,6.85209,0,0,0,109.92,13.6732Zm9.39509,1.58a16.32679,16.32679,0,0,1,5.3883,3.9345,27.54226,27.54226,0,0,0,5.521,4.5107c-6.3059-.2441-11.9209-2.256-17.6027-5.2548a8.67265,8.67265,0,0,0-.7623-2.4259C114.28492,14.8936,116.53252,14.2185,119.31512,15.2532ZM112.097,22.8399a6.64421,6.64421,0,0,0,.60809-2.5212c5.5444,3.9321,12.52791,5.4472,19.2671,5.0767.1859.1711.36981.3437.5735.5015C125.38612,28.687,118.05792,28.7631,112.097,22.8399Z" fill="#3c3c3b"/>
            <path d="M53.24962,44.1579a5.98055,5.98055,0,0,0-5.0858,7.3125.9573.9573,0,0,0,1.87121-.2533c.125-1.9082,1.55459-4.0367,3.60459-4.1593,2.2366-.1338,3.3108,1.6835,3.8157,3.5519a1.449,1.449,0,0,0,2.8329-.3834C60.41832,46.6724,56.63862,43.7517,53.24962,44.1579Z" fill="#3c3c3b"/>
            <path d="M90.42672,42.2118c-3.425-.1009-6.2779,3.4459-5.0463,6.7286.3442.9174,1.8631.8694,1.8192-.2462-.0683-1.7392,1.2519-3.9904,3.2466-3.7533,2.2071.2624,2.2221,2.405,2.6362,4.0473a1.15324,1.15324,0,0,0,2.0797.2718C97.34032,46.326,93.35152,42.298,90.42672,42.2118Z" fill="#3c3c3b"/>
            <path d="M92.10912,63.8051c-2.4015,1.3243-4.2752,3.4136-6.6653,4.7996a25.764,25.764,0,0,1-7.939,2.993c-6.5653,1.2911-13.2195-.3522-19.0846-3.3316-.6304-.3202-1.4103.5305-.8017,1.039a24.39327,24.39327,0,0,0,18.9162,5.4409c5.81-.7444,14.2828-3.8873,16.8598-9.6555A.9478.9478,0,0,0,92.10912,63.8051Z" fill="#3c3c3b"/>
          </g>
        </g>
      </g>
    </g>
  </g>
</svg>
