<svg xmlns="http://www.w3.org/2000/svg" viewBox="0 0 168.06154 114.95004">
  <title>involucrate_4.1Recurso 7</title>
  <g id="Capa_2" data-name="Capa 2">
    <g id="Editar">
      <g>
        <g>
          <g>
            <g>
              <path d="M85.07839,35.68237a13.82223,13.82223,0,0,1,.5751,1.789c.1983.6954.9288,1.1924,1.0167,1.8653a6.46651,6.46651,0,0,0,1.0468,3.3906,3.57586,3.57586,0,0,0,3.8477,1.5654c2.3603-.4345,5.248-.584,7.3262-1.8877a4.05141,4.05141,0,0,0,.6015-.4668c2.2442,1.8194,6.3194,1.0118,6-2.6015-.0029-.0381-.0068-.084-.0097-.124.4033.0097.8007.0175,1.1875.04a32.411,32.411,0,0,0,7.2597-.2061c3.0264-.4843,3.2715-4.3496,1.6514-6.2548a67.61187,67.61187,0,0,1-7.4981-11.0528c-.917-1.6513-1.6025-3.4336-2.4541-5.123a37.87944,37.87944,0,0,1-2.8681-5.8496,2.60635,2.60635,0,0,0-1.5088-1.7461,9.72717,9.72717,0,0,0-1.6104-4.1172,2.04664,2.04664,0,0,0-3.4863,0c-1.3203,2.3027-.7881,5.3193-.8467,7.9062a66.02469,66.02469,0,0,0,.7481,9.2627c.3564,2.9834.3242,5.9922.7744,8.9912.1826,1.2188.3935,2.4414.5957,3.667-1.7783-1.0439-3.7686-1.8134-5.2803-3.2461-.956-.9052-1.8682-1.8574-2.7773-2.8115a11.211,11.211,0,0,0-2.4004-3.1064,3.28011,3.28011,0,0,0-1.5069-.7549,5.392,5.392,0,0,1-1.2607-2.1484c-.6055-2.2042-3.7461-1.6534-3.8633.5234a8.88488,8.88488,0,0,0,1.6699,5.4639C82.52559,31.05147,84.13109,33.41767,85.07839,35.68237Z" fill="#ff8b47"/>
              <path d="M93.44159,77.57107a5.4777,5.4777,0,0,0-2.7236-6.0098c-1.4102-.9385-2.5615-2.2324-3.9228-3.2852a13.12583,13.12583,0,0,0,.6894-1.1328,2.31657,2.31657,0,0,0,.0313-2.1328,3.93422,3.93422,0,0,0,.4736-.5889c1.4863-2.2978.8154-5.0439.0088-7.4843-.9795-2.9639-.7823-5.042,1.0049-7.6094a3.23521,3.23521,0,0,0-1.1631-4.4365c-1.9414-.9209-3.8438-.4795-5.8565-.0127-1.542.3564-5.6084-.4912-7.9258-.9209a58.13611,58.13611,0,0,1-6.1044-1.4248c-3.8868-1.9561-8.0469-3.4942-11.0606-6.7432-1.9902-2.0293-4.6435-.8086-5.5254,1.1836a1.2992,1.2992,0,0,0-1.1728,2.1728,57.37427,57.37427,0,0,0,7.8711,7.7208c2.9804,2.5126,5.3271,5.8242,8.5175,8.0478,3.3506,2.335,6.9512,4.2754,10.2998,6.6221a55.93116,55.93116,0,0,0,4.9678,3.5342,23.09339,23.09339,0,0,1-6.2353,4.2529c-4.9756,2.4219-9.6787,6.5703-13.5801,10.4463-1.7695,1.7558-1.0596,5.2383,1.5273,5.789,4.1055.875,8.5459-1.2714,12.5254-2.1582,2.4971-.5566,4.9746-1.1992,7.4561-1.8203,2.2119-.5537,4.2646-1.4668,6.5576-1.4668A3.44324,3.44324,0,0,0,93.44159,77.57107Z" fill="#ff8b47"/>
              <path d="M108.52169,82.074a43.6342,43.6342,0,0,0-4.2637-1.6953c-.1562-.0547-.3837-.1182-.6455-.1875a8.92872,8.92872,0,0,0-4.9463-1.8682c-1.0683-1.3994-3.456-2.0654-4.164.4824-1.0869,3.9141-.7569,8.083-1.793,12.0332a28.2664,28.2664,0,0,0-.9062,6.417,34.92563,34.92563,0,0,1-.3252,3.5498,18.58124,18.58124,0,0,0-2.0723,8.1455c.0879,3.125,4.3848,2.96,4.7344,0a12.03337,12.03337,0,0,1,.79-2.9716,3.42318,3.42318,0,0,0,2.4971-1.4776c2.3086-3.5801,4.208-7.3408,6.6846-10.8174a14.47908,14.47908,0,0,1,3.1787-3.4502,6.70991,6.70991,0,0,0,2.79-4.3281C110.29029,84.491,109.99829,82.76337,108.52169,82.074Z" fill="#ff8b47"/>
              <path d="M151.00319,72.18817c-2.6729-1.3642-5.209-2.9209-7.7334-4.5253-1.1289-.7178-2.2442-1.6124-3.3877-2.4434-.0147-.0723-.0244-.1455-.0401-.2168a1.78694,1.78694,0,0,0-2.3076-1.294c-.2422-.1279-.4863-.2519-.7334-.3603a3.1523,3.1523,0,0,0-3.1797,5.4395q.49215.34995.9805.7041a20.35424,20.35424,0,0,1-1.5254,3.0898c-1.5215,2.4482-4.2656,3.7549-5.4678,6.4521a3.88758,3.88758,0,0,0-.3369,1.334,3.113,3.113,0,0,0-4.1914,2.9658c.0039.2159.0156.4307.0215.6456a8.55176,8.55176,0,0,0-4.0654-.6094c-.6885.041-1.3741.1006-2.0635.125a2.205,2.205,0,0,0-.6211.0107c-.0693-.0088-.1279-.0176-.1826-.0234a.03376.03376,0,0,0,.0127-.0508c-1.67-3.1582-5.9473-1.0752-5.7198,1.9199a2.12231,2.12231,0,0,0,.8448,2.5996c.7031.4327,1.0722,1.6543,1.5117,2.3213a21.119,21.119,0,0,0,1.6904,2.291c1.2998,1.4952,2.0186,3.3965,3.6035,4.6934a31.90538,31.90538,0,0,1,8.669,11.1387c1.3574,3.1191,6.2295,1.4297,6.1738-1.6719-.1387-7.8633-3.2246-15.3633-3.4277-23.248a10.011,10.011,0,0,0,4.7031-.0127,33.86749,33.86749,0,0,1,6.7764-.2891c4.75.1084,9.5009.1299,14.2539.1631,2.3564.0176,3.5634-2.1348,3.2256-4.2344C157.93379,75.65207,153.79319,73.61107,151.00319,72.18817Z" fill="#ff8b47"/>
              <path d="M158.81369,42.19207a6.02312,6.02312,0,0,0-.8232.2334c-2.6573.7881-5.1778,2.0694-7.8457,2.8565a34.68142,34.68142,0,0,0-5.0489,1.7812,22.71568,22.71568,0,0,0-3.8164.9805,2.63638,2.63638,0,0,0-4.5859.6514c-1.1817,3.0791-1.0645,6.3369-1.25,9.5761a3.128,3.128,0,0,0,4.6787,2.6866,29.65181,29.65181,0,0,0,3.7988-3.2998,20.18962,20.18962,0,0,1,5.4424-3.4375c2.0498-1.0166,3.9424-2.292,6.0195-3.2813.8594-.4101,1.8311-.4697,2.67-.9346a20.1809,20.1809,0,0,1,1.83-1.0527c.2432-.0752.4873-.1523.7344-.2187C164.88209,47.59547,163.06179,41.34837,158.81369,42.19207Z" fill="#ff8b47"/>
              <path d="M122.17989,38.43527c1.0361.9414,2.0127,1.9326,3.1211,2.8057,2.1025,1.6543,4.6221,4.2597,7.3369,4.7109,2.167.3594,4.2666-.8965,4.2979-3.2734a58.73888,58.73888,0,0,1,.6377-8.3164c.4013-2.5166,1.3467-5.2891,1.3613-7.834.0312-5.6895,1.9687-11.0625,2.1387-16.707a3.1,3.1,0,0,0-5.2539-2.1768,53.03142,53.03142,0,0,0-4.9698,6.1728c-1.4755,2.17-3.8203,4.0948-4.8457,6.4776-1.75,4.0674-5.0625,7.1894-7.2138,10.9824a.56693.56693,0,0,0-.0557.0264,2.57555,2.57555,0,0,0-1.2969,2.9775c-.0967.291-.1884.584-.2656.8867C116.35469,38.33857,120.18869,40.02117,122.17989,38.43527Z" fill="#ff8b47"/>
            </g>
            <path d="M130.72189,42.76537c-9.5664-8.6016-25.9228-8.3125-34.9424.9297a2.31542,2.31542,0,0,0-.8535.1806,16.23264,16.23264,0,0,0-4.709,2.5879c-1.5849,1.3662-2.1738,3.9717-2.9101,5.836-2.0684,5.2324-2.2383,10.6406.4736,15.6396,2.4717,4.5528,6.4209,9.667,11.4365,11.5293a18.50113,18.50113,0,0,0,5.7051,1.1553,24.2393,24.2393,0,0,0,4.1856,1.7998c6.4082,2.0351,14.8046.5801,19.998-3.709C139.78729,69.88747,141.24829,52.22627,130.72189,42.76537Z" fill="#ffaf31"/>
          </g>
          <g>
            <path d="M167.34009,41.32687c-2.2393-3.373-15.9444.9053-17.791,1.3115-3.8868.8516-7.7041,2.9737-11.7774,2.877h-.0107a2.15724,2.15724,0,0,0,.123-.4961c.417-3.2637.3819-6.6299.7168-9.916.3545-3.4932.7988-6.9756,1.1084-10.4746a70.56777,70.56777,0,0,0,.0108-10.3614c-.1534-2.6562-.1211-5.4326-.9659-7.9697a2.07731,2.07731,0,0,0,.2119-2.5918,1.07185,1.07185,0,0,0-1.8281,0c.1475.042.0576.1231-.2724.2442.2861-.2871-.0235-.1602-.4356-.0459a3.29648,3.29648,0,0,0-1.5605,1.4355c-.9082,1.2754-1.918,2.6152-2.7012,3.957a104.05105,104.05105,0,0,1-6.3594,9.167c-2.1084,2.8575-3.666,5.9776-5.5078,9.0039-.9385,1.544-1.9326,2.9805-2.7148,4.6075a11.3514,11.3514,0,0,1-.8575,1.3945c-.4931-.9082-.7578-1.8506-1.2304-2.7988-.8877-1.7852-1.8262-3.5459-2.8428-5.2637-.9912-1.6758-2.2432-3.1748-3.2168-4.8555a36.28394,36.28394,0,0,0-3.4639-4.5722,31.694,31.694,0,0,1-3.2314-5.6641,46.67211,46.67211,0,0,0-2.8311-4.8965,27.78667,27.78667,0,0,1-3.205-4.9512.66253.66253,0,0,0-1.2657,0,3.088,3.088,0,0,0-.0879.7198.91127.91127,0,0,0-.2002.4004c-1.3974,5.8095-.8349,12.3173-.1767,18.1884.335,2.9864.6748,5.9668.9726,8.9571.0938.9365.1983,1.8896.3409,2.8398-.1426-.1191-.2862-.2373-.4239-.3613a52.55469,52.55469,0,0,0-6.1933-4.2373c-2.2627-1.5059-4.4942-2.9893-6.6035-4.7149a27.78588,27.78588,0,0,1-2.9297-2.4091,26.69878,26.69878,0,0,0-1.9258-2.0684.82953.82953,0,0,0-.7305-1.1836c-.1201-.0049-.2412-.0127-.3623-.0225a.91152.91152,0,0,0-1.125.8575c-.0078.0859-.0107.1699-.0156.2558a1.0098,1.0098,0,0,0-.002.7295,7.76582,7.76582,0,0,0,.6358,2.6699c.5928,1.3975,1.0127,2.8545,1.5205,4.2852.9639,2.7148,2.4189,5.1777,3.5361,7.8164,1.1739,2.7803,2.5772,5.4434,3.4912,8.332.1797.5713.3506,1.1563.5313,1.7412a14.10237,14.10237,0,0,0-1.9668-.7978,33.13351,33.13351,0,0,0-6.2275-1.1768,51.90268,51.90268,0,0,1-5.6309-1.2207q-1.50585-.3705-3.0205-.6943a18.9604,18.9604,0,0,1-3.6865-1.3203c-1.9307-.8487-3.8496-1.7149-5.8057-2.5059A52.57683,52.57683,0,0,0,54.177,34.03c-2.7305-.7783-8.5078-1.7548-7.7842,2.75.2188,1.3575,1.5508,2.5069,2.5508,3.3174,1.4707,1.1885,2.957,2.3418,4.3516,3.625,1.5742,1.4473,3.041,2.9434,4.7236,4.2735,1.8857,1.4912,3.8428,2.8906,5.8047,4.2802a119.74555,119.74555,0,0,0,11.4267,7.6934,15.86757,15.86757,0,0,1,4.4795,3.0254c.3838.4375.7735.8769,1.1895,1.2812-.9834.8203-1.9375,1.6797-2.8946,2.5293q-3.9975,3.5523-8.1103,6.9805c-2.5772,2.1455-5.5664,3.9375-7.9404,6.3047a30.15252,30.15252,0,0,1-3.6153,3.2217,11.20676,11.20676,0,0,0-1.7334,1.0859,3.07853,3.07853,0,0,0-.7304,1.999,1.782,1.782,0,0,0,1.3222,1.7344c3.2139.666,6.5703-.3613,9.7012-1.04,1.8174-.3936,3.8242-.2598,5.6836-.5108,2.1494-.291,4.2705-.6621,6.4238-.8906,3.4551-.3662,6.6992-2.2061,10.1582-2.2988a10.62715,10.62715,0,0,0,2.9893-.4541c-.7959,4.2998-1.1143,8.7314-2.0918,12.9716a57.817,57.817,0,0,0-1.1592,8.7481c-.2119,2.7637-.9219,5.1357.2617,7.7998a1.73069,1.73069,0,0,0,2.3653.6211c2.3359-1.3809,3.3759-3.9795,4.9404-6.0635,1.8789-2.5039,3.8652-4.8887,5.9453-7.2265a52.25457,52.25457,0,0,0,5.3555-7.0352,26.05054,26.05054,0,0,0,2.5918-4.127c.2558.3174.5136.6329.7597.9463q1.6245,2.0772,3.211,4.1866c2.1142,2.8085,3.9365,5.873,6.1377,8.6054,2.1933,2.7237,4.6318,5.2383,6.8252,7.9619.8818,1.0957,1.0781,3.5596,2.6406,4.3965a1.60191,1.60191,0,0,0,1.6006,0c.0195-.0117.041-.0244.0605-.0371a1.62109,1.62109,0,0,0,.5654-.6289,3.50418,3.50418,0,0,0,.3897.6084.95932.95932,0,0,0,1.3652,0c1.0479-1.3516.7598-3.0195.627-4.6416a60.54112,60.54112,0,0,0-.8731-6.0488c-.6435-3.5283-1.6162-7.0215-2.1279-10.5703-.251-1.753-.6455-3.5-.9736-5.2412a28.89081,28.89081,0,0,1-.4424-3.1036,9.45745,9.45745,0,0,1-.0166-1.1152c.0058-.1367.0156-.2227.0205-.2734a.76044.76044,0,0,0,.3682-.3672,27.87537,27.87537,0,0,0,5.539.2705c3.4268-.0528,6.8701.1924,10.2998.2402,3.3067.044,6.6104-.081,9.9151-.0488,2.9365.0293,5.5673,1.1826,8.4619,1.3467.4013.1816.8086.3466,1.2256.4892a1.04693,1.04693,0,0,0,1.1738-1.5283c-.0742-.1045-.1523-.207-.2285-.3086a1.69952,1.69952,0,0,0-1.6455-2.1006c-.0821,0-.1602-.0039-.2412-.0068a41.42577,41.42577,0,0,0-5.5547-4.2441c-2.8106-1.8887-5.4541-3.9952-8.0821-6.1231a72.18858,72.18858,0,0,1-6.8623-5.8281,31.83551,31.83551,0,0,0-2.8017-2.7285c-.086-.0703-.1768-.1348-.2656-.2032a7.799,7.799,0,0,0,1.8095-1.1298c1.4756-1.1631,2.9912-2.2364,4.5274-3.3194a50.37463,50.37463,0,0,0,4.8418-3.7597c1.6435-1.4883,3.958-2.4942,5.8506-3.6407a29.4534,29.4534,0,0,0,5.0898-3.5693c1.1484-1.0889,3.8809-1.8418,4.3203-3.4346.0195-.1513.041-.3047.0606-.457l.0019-.0264a1.66405,1.66405,0,0,0,.0752-.2431A1.537,1.537,0,0,0,167.34009,41.32687Zm-48.5879-6.5635a7.12339,7.12339,0,0,0,1.0439-1.3955c.8955-1.3564,1.8448-2.6308,2.7881-3.955,1.6943-2.3819,2.8809-5.1026,4.5879-7.4639,1.8818-2.6026,3.8721-5.1221,5.7119-7.7559.9375-1.3457,1.7119-2.8242,2.7188-4.1162a14.28271,14.28271,0,0,0,.9453-1.4238c.1601,1.6601-.0078,3.3691.0273,5.0381a78.47387,78.47387,0,0,1-.1806,10.9375c-.3946,3.3027-.7569,6.6113-1.1377,9.915-.377,3.2822-.9981,6.9043-.6602,10.2188-.1142-.1377-.2285-.2764-.3467-.4121-3.9707-4.5557-10.1865-7.2042-16.0195-8.67-.0293-.0439-.0605-.0879-.0938-.1308-.0361-.044-.0888-.1143-.1484-.1953C118.24729,35.15017,118.52459,34.96357,118.75219,34.76337ZM96.61349,4.63547c.0098.0176.0205.0352.0322.0537,1.0547,1.794,2.1006,3.5694,2.9737,5.458.9668,2.0879,2.0029,4.1455,3.0049,6.2168a15.28525,15.28525,0,0,0,1.9882,2.5479c.7012.872,1.376,1.7539,1.9893,2.6904a110.08821,110.08821,0,0,1,6.2461,10.6162c.3652.7227.6953,1.71,1.1709,2.6328a40.05131,40.05131,0,0,0-8.419-.1259,14.90006,14.90006,0,0,0-4.9765,1.3144,1.403,1.403,0,0,0-.8145-1.4199,39.13935,39.13935,0,0,1-1.3457-6.3975c-.331-2.8222-.6963-5.6318-1.0742-8.4463-.3994-2.9843-.707-5.9785-.8262-8.9873A46.91936,46.91936,0,0,1,96.61349,4.63547Zm-12.4238,27.6279c-1.2178-2.5263-2.6367-4.9355-3.7129-7.5341-.1367-.3291-.2608-.6709-.3818-1.0157a67.985,67.985,0,0,0,7.9785,5.9971c1.1318.7822,2.3183,1.4824,3.4707,2.2314,1.0976.7129,2.0166,1.8204,3.125,2.46,1.1787.6836,2.0674,2.333,3.3427,2.9424.0166.0234.0303.0498.0469.0732q-.4263.2637-.8447.544a.967.967,0,0,0-.5703.0937,24.22748,24.22748,0,0,0-7.3223,6.3926,44.41718,44.41718,0,0,1-1.6035-4.5273A75.45264,75.45264,0,0,0,84.18969,32.26337Zm-7.1709,24.6827a113.81174,113.81174,0,0,1-10.502-7.0079,79.36421,79.36421,0,0,1-10.0224-7.9394c-1.4131-1.375-2.9366-2.5899-4.4502-3.8457-.3057-.252-1.1192-.7998-1.6865-1.3311,2.3554-.0029,4.8964,1.2139,7.0136,1.8184,3.6123,1.0332,6.8721,3.3144,10.5557,4.0781a98.0537,98.0537,0,0,0,10.5596,1.9932,25.97248,25.97248,0,0,1,5.331.9629c1.2451.3896,2.293,1.0293,3.4619,1.4492a23.33074,23.33074,0,0,0-3.5703,7.7969,18.12728,18.12728,0,0,0-.251,7.0478c-.5517-.5664-1.2607-1.4824-1.5976-1.8574C80.62719,58.738,78.61159,57.81907,77.01879,56.94607Zm14.3584,22.456a2.157,2.157,0,0,1-.292.1201,5.70762,5.70762,0,0,1-1.3311.2305,22.94438,22.94438,0,0,0-3.4961.4307c-1.5605.3671-3.0839.8906-4.6259,1.3261a47.11813,47.11813,0,0,1-5.1885.8545c-1.6084.2735-3.2178.5664-4.8379.7735-1.7178.2187-3.5176.0791-5.2051.4277-1.1113.2285-2.3105.5693-3.5254.8379.7325-.6738,1.4278-1.3877,2.1299-2.0908,2.0918-2.0948,4.7305-3.7666,6.999-5.6729,2.4053-2.0195,4.7549-4.1836,7.0137-6.3652,1.1367-1.0977,2.1885-2.2647,3.2383-3.4444a7.59229,7.59229,0,0,0,.7666-1.0908c.1142.0469.2236.0977.3418.1367q.3588.0498.7158.0948a1.97032,1.97032,0,0,0,.4336.0049,27.00974,27.00974,0,0,0,5.6064,8.9033,30.92041,30.92041,0,0,0,3.3526,3.0869.93126.93126,0,0,0-.082.124A1.983,1.983,0,0,0,91.37719,79.40207Zm16.6758,6.8848c.3828-.5313-.3975.2607-.5196.4131-.3144.3945-.4834.8525-.7588,1.2763-.6562,1.0088-1.289,2.0352-1.9257,3.0576a50.01974,50.01974,0,0,1-5.1787,6.753c-1.8418,2.0752-3.5372,4.2217-5.2461,6.3974a36.91846,36.91846,0,0,0-2.3086,3.2129c-.085.1358-.168.2715-.2539.4092.1328-1.3643.4931-2.7685.5234-4.0185a48.12424,48.12424,0,0,1,1.1816-8.5A78.74257,78.74257,0,0,0,94.635,87.241c.2598-2.6192.6494-5.2754.6709-7.916a37.87971,37.87971,0,0,0,12.9648,5.6347,1.0726,1.0726,0,0,0,.0743.7774c.0322.0595.0673.1181.1005.1777A1.51219,1.51219,0,0,0,108.053,86.28687Zm-2.96-5.8106c-8.0352-2.79-15.5811-8.915-18.0547-17.2842-1.3555-4.5839-.1533-9.3818,2.2451-13.371.2168-.3604.4483-.7071.6856-1.0489a1.37964,1.37964,0,0,0,1.0137-1.3506c2.2324-2.7675,4.9716-5.0898,6.996-8.0341a.8768.8768,0,0,0,.1641-.4942c5.3643-2.7998,11.8848-2.6221,17.8867-1.1504a1.18458,1.18458,0,0,0,1.4258.377,46.67364,46.67364,0,0,1,5.5303,1.9482,24.76247,24.76247,0,0,1,9.0908,6.4551,13.29428,13.29428,0,0,1,.9111,1.1895,1.01984,1.01984,0,0,0,.1963.3046,18.90029,18.90029,0,0,1,2.7813,9.6456,32.49277,32.49277,0,0,1-2.2422,11.7548,21.35417,21.35417,0,0,1-7.0723,9.3702C120.59789,83.45387,111.91329,82.84347,105.093,80.47627Zm25.0967,20.8916c.4512,2.3086.873,4.625,1.1631,6.961.124.9863.1054,2.1601.2148,3.291a7.10184,7.10184,0,0,1-.4424-.7754,12.00968,12.00968,0,0,0-1.4258-2.6826c-2.163-2.5713-4.4296-5.0489-6.5878-7.6201-2.2813-2.7198-4.1797-5.8194-6.377-8.6211a52.90773,52.90773,0,0,0-5.4473-6.4336,31.12222,31.12222,0,0,0,8.6045-.2422,19.8621,19.8621,0,0,0,7.6836-3.0313,1.01927,1.01927,0,0,0,.3623.2764c.1211.0566.2451.1104.3711.1621a6.10076,6.10076,0,0,0-.4648,2.9229,50.92348,50.92348,0,0,0,.8017,7.0058C129.08909,95.41967,129.61839,98.447,130.18969,101.36787Zm14.0576-31.4717c1.1924,1.168,2.5781,2.0186,3.8398,3.087,2.6905,2.2754,5.4532,4.4668,8.3291,6.5039.4141.2929.8262.5976,1.2383.9091-.2842-.0175-.5683-.0322-.8496-.0439-3.1172-.1269-6.2685.1748-9.3877.2178-3.3242.0459-6.6455.1386-9.9678.2324-2.5273.0723-5.5195.8945-8.0009.083q.38085-.293.7568-.5996c4.9414-4.0508,7.2315-9.9922,8.4482-16.0625.7334.7891,1.6709,1.4941,2.2471,2.127C141.99629,67.55347,143.08519,68.75657,144.24729,69.89617Zm14.8086-23.582c-2.4482,1.6914-5.0732,3.1084-7.5498,4.7578a39.26577,39.26577,0,0,0-3.0918,2.6455c-1.1289.9366-2.3291,1.7852-3.4941,2.6758a20.8945,20.8945,0,0,0-2.8028,2.3916,7.19016,7.19016,0,0,1-2.5254,2.086,1.09125,1.09125,0,0,0-.2519.1201c-.085-.0557-.1114-.0645-.0205.0166l-.003.001c-.0439-.0332-.0898-.0684-.1367-.1036-.0039-.0029-.0097-.0029-.0146-.0068a22.70615,22.70615,0,0,0-2.4463-12.9648c.0947.0156.1875.0302.2812.0439a16.02085,16.02085,0,0,0,3.3242.1113c3.504-.2187,6.6836-1.7031,10.0918-2.3047,3.2422-.5722,6.5489-1.957,9.8477-2.0615.8125-.0254,1.6201-.0801,2.4307-.0996C161.48849,44.52607,160.30389,45.45,159.05589,46.31417Z" fill="#463131"/>
            <path d="M104.40649,54.63647a1.84722,1.84722,0,0,0-1.7012-1.8526,2.06881,2.06881,0,0,0-.7725-.0556,1.9055,1.9055,0,0,0-.3574.0576l-.0019.001a1.69707,1.69707,0,0,0-.8672.5166c-.0518.0547-.1016.1094-.1485.1689v.002a1.92066,1.92066,0,0,0-.3242.6523,1.84984,1.84984,0,0,0-.0625.4317c-.0009.0253-.0068.0537-.0068.0781a1.92867,1.92867,0,0,0,.3447,1.0937,1.763,1.763,0,0,0,.9053.71,1.44693,1.44693,0,0,0,.6572.1152,1.96739,1.96739,0,0,0,.6338-.0654,1.847,1.847,0,0,0,1.7012-1.8535Z" fill="#463131"/>
            <path d="M123.175,53.28787c-.0205-.1553-.042-.3106-.0634-.4668a1.75181,1.75181,0,0,0-1.6895-1.2852,1.76489,1.76489,0,0,0-1.1201.4043,1.96592,1.96592,0,0,0-.2979.1387,1.92044,1.92044,0,0,0,1.9375,3.3164h.001c.124-.0528.2393-.1104.2617-.1211a1.89315,1.89315,0,0,0,.7188-.6992A1.93342,1.93342,0,0,0,123.175,53.28787Z" fill="#463131"/>
            <path d="M122.39089,63.67847a.76248.76248,0,0,0-1.0606,0c-1.2353,1.1533-1.2314,3.2881-2.1709,4.7109a8.35739,8.35739,0,0,1-4.7627,3.2031c-1.8291.4883-3.7373-.5058-5.0742-1.7109-.5137-.4619-.7891-1.1562-1.2607-1.6777a7.7916,7.7916,0,0,1-1.5069-1.8409.9229.9229,0,0,0-1.8037.2452,5.116,5.116,0,0,0,.7705,2.6504,12.695,12.695,0,0,0,1.4795,2.3779,8.495,8.495,0,0,0,6.9551,3.1514,11.16677,11.16677,0,0,0,7.1426-3.8467C122.634,69.22537,124.46509,65.64037,122.39089,63.67847Z" fill="#463131"/>
          </g>
        </g>
        <g>
          <path d="M91.67209,66.08277c-2.3193-3.2344-6.0488-3.7705-9.7588-3.6914a21.49173,21.49173,0,0,0-5.1426.6328c-.6591.1777-1.3496.4463-2.0537.6992a18.14269,18.14269,0,0,0-1.3554-7.9229c-1.2413-3.207-3.1475-7.7861-6.9932-8.4209-3.9199-.6494-8.4893,1.6934-11.5635,3.8926a47.22011,47.22011,0,0,0-5.1396,4.1992,10.614,10.614,0,0,0-1.3848,1.5547,7.1311,7.1311,0,0,0-1.0156-1.6425c-1.3975-1.6612-3.4248-4.1739-5.4834-5.0499a14.92465,14.92465,0,0,0-13.2569,1.2706,12.2667,12.2667,0,0,0-6.2314,11.1865c.0117.2558.0273.5215.0469.792a6.74763,6.74763,0,0,0-6.7178-.3604c-2.3799,1.127-4.2793,3.2022-6.5693,4.5401-2.3623,1.3808-5.0596,3.1826-5.1328,6.207-.129,5.5,4.6904,8.4307,9.3603,9.79a17.00574,17.00574,0,0,0,4.7979.6299,9.96237,9.96237,0,0,0-.6348,3.8457c.1103,3.0176,2.2295,5.6602,4.2099,7.7217,1.3448,1.3994,1.8624,3.5771,3.4678,5.04,3.6309,3.3096,9.5635-.1543,13.0547-2.082a17.652,17.652,0,0,0,3.6983-2.6885,14.67161,14.67161,0,0,0,2.7822,3.0147c3.4551,2.8252,7.8965,1.6904,11.6777.3437,3.4883-1.2402,7.0586-2.5361,9.4307-5.542a10.63308,10.63308,0,0,0,1.4697-2.6093,22.92021,22.92021,0,0,0,3.6055,2.7939,13.797,13.797,0,0,0,13.4912.0332c4.2529-2.2734,6.1709-6.2969,4.5127-10.959a7.73684,7.73684,0,0,0-3.499-3.9267,12.30758,12.30758,0,0,0,4.1767-3.2471C91.69359,73.47627,94.03639,69.37957,91.67209,66.08277Z" fill="#fff"/>
          <path d="M90.85179,78.33567c6.0547-2.0879,9.0254-10.6543,5.8965-16.0811-1.7119-2.9677-5.4698-4.8691-8.6826-5.5761-3.1504-.6934-6.4668-.0674-9.6739.0664a1.8451,1.8451,0,0,0,.0313-.1865,8.21465,8.21465,0,0,0,.3056-1.9747,13.21893,13.21893,0,0,0-.7343-2.6376,12.726,12.726,0,0,0-2.3135-3.6739c-2.0537-2.3037-4.5527-2.8447-7.3857-3.6426a11.37356,11.37356,0,0,0-8.9122.7139A19.49649,19.49649,0,0,0,54.008,50.24c-3.1367-2.4902-6.9785-3.8428-10.8642-5.0352a24.23132,24.23132,0,0,0-7.6895-.9453c-2.2461.0459-5.2666.4112-7.1797,1.6992a21.701,21.701,0,0,0-5.6171,5.6221c-1.4268,2.0352-2.1983,4.3506-3.4444,6.4492a5.97113,5.97113,0,0,0-.7842,3.5557c-7.1347-.5977-14.2236,3.7061-17.4472,10.1699a9.44365,9.44365,0,0,0,2.6709,11.6983c2.1894,1.5576,4.8017,1.583,7.3847,1.6054a26.57864,26.57864,0,0,0,4.4395-.3554c-.3057.7578-.6074,1.5166-.8633,2.291a19.72024,19.72024,0,0,0-.9141,6.5986,11.64868,11.64868,0,0,0,6.1954,9.8145c6.2197,3.3095,13.5976-.2998,18.7421-4.3721,2.3321,5.0332,9.5206,5.8975,14.8028,5.2158,5.4004-.6963,12.1396-4.4306,14.9521-9.6806a15.46587,15.46587,0,0,0,18.2676,3.5585c3.8399-1.8701,6.9756-4.8964,6.9619-9.4511a11.73561,11.73561,0,0,0-1.6972-5.9434,11,11,0,0,0-1.5791-1.8418c-.7256-.7637-1.6211-1.1006-2.3428-1.7851-.7481-.711-1.8965.2353-1.5625,1.1269a14.4163,14.4163,0,0,0,1.3115,3.0967,8.279,8.279,0,0,1,1.4316,4.165c.1905,3.3457-2.6464,5.3828-5.3193,6.6153-5.8223,2.6855-11.5898-.6446-14.5391-5.7862-.9335-1.6289-3.8154-.915-3.9697.919-.4209,5.0488-6.9219,9.374-11.5332,10.2344-3.6924.6875-11.1035,1.0947-11.3506-4.1485-.1211-2.5254-3.4375-2.5683-4.3545-.7109-4.6445,1.5947-9.5732,5.7275-14.6894,4.6426-3.1192-.6631-4.6055-3.9756-4.6963-6.8067-.1113-3.5078,1.7246-6.8164,2.791-10.0693a2.48794,2.48794,0,0,0-3.1113-3.3184c-3.2451.7774-7.9199,1.7227-11.1758.6055-2.9014-.9941-2.6113-4.7334-1.5811-6.96,2.2383-4.8388,8.6426-10.3105,14.1846-8.2841a3.012,3.012,0,0,0,1.2852.5732,1.22281,1.22281,0,0,0,.4033.0508,4.55,4.55,0,0,0,1.3525-.1114,2.09168,2.09168,0,0,0-.0791-4.1562,5.27461,5.27461,0,0,1,.4151-.915c.7207-1.3663,1.375-2.8038,2.1552-4.1592,1.7764-3.0801,4.3624-5.8594,7.9581-6.4746a19.36975,19.36975,0,0,1,10.1435,1.2666c3.167,1.1836,6.5068,2.2002,8.79,4.8457a2.53043,2.53043,0,0,0,3.9454.1181,27.253,27.253,0,0,1,4.2373-4.8828A6.75773,6.75773,0,0,1,66.759,49.366c1.917.4277,3.9151.7441,5.2862,2.2822a9.50684,9.50684,0,0,1,1.5595,2.7109c.3662.8594.9795,1.7344,1.2764,2.5459a1.6666,1.6666,0,0,0,.8047.9073,2.2196,2.2196,0,0,0,2.0097,2.9267c2.3584.0576,4.7071-.1914,7.0645-.1914a11.057,11.057,0,0,1,7.6318,3.2139c4.2217,3.8379-1.9248,9.1699-3.3662,12.624A1.45645,1.45645,0,0,0,90.85179,78.33567Z" fill="#463131"/>
        </g>
      </g>
    </g>
  </g>
</svg>
