<svg xmlns="http://www.w3.org/2000/svg" viewBox="0 0 164.19851 153.27465">
  <title>involucrate_4.1Recurso 10</title>
  <g id="Capa_2" data-name="Capa 2">
    <g id="Editar">
      <g>
        <g>
          <path d="M138.58663,47.7705c.3408-.5507.669-1.0205.9404-1.5215a29.69709,29.69709,0,0,0,3.7735-15.0898,9.62017,9.62017,0,0,0-1.878-6.0967c.045-.4482.0821-.8261.1163-1.206a4.84988,4.84988,0,0,1,1.6035-3.1563,38.9384,38.9384,0,0,1,4.5127-3.8535,11.95259,11.95259,0,0,1,3.8017-1.7734,6.54646,6.54646,0,0,1,7.1934,2.3564,26.88032,26.88032,0,0,1,1.9853,3.0508,1.79365,1.79365,0,0,1,.2998.7012c.3418,2.9297.2862,5.7558-2.0058,8.0439a33.47473,33.47473,0,0,1-6.7442,5.0332,5.61085,5.61085,0,0,1-2.7285.7686,6.403,6.403,0,0,0-2.04.456,3.43893,3.43893,0,0,0-1.1944.9024,1.32961,1.32961,0,0,0-.1425,1.6084,1.50463,1.50463,0,0,0,1.5058.9853,11.03668,11.03668,0,0,0,2.2598-.3984,3.06038,3.06038,0,0,1,2.5684.3662,4.919,4.919,0,0,1,.7871.5439c3.5146,3.0684,5.2695,6.8545,4.5673,11.5684a6.26473,6.26473,0,0,1-3.4306,4.8096,5.52968,5.52968,0,0,1-3.5293.6015,12.04786,12.04786,0,0,1-3.9658-1.372,22.84073,22.84073,0,0,1-5.5518-4.3672A14.061,14.061,0,0,1,138.58663,47.7705Z" fill="#ff0070" fill-rule="evenodd"/>
          <path d="M137.72143,25.8164c-2.8018,2.502-3.9121,5.9326-5.1553,9.2823-.4453,1.1972-.7959,2.4277-1.1973,3.6406a14.06687,14.06687,0,0,0-.789,4.8984,3.7647,3.7647,0,0,1-.127.7647,7.34641,7.34641,0,0,1-5.2988,1.1787,16.99812,16.99812,0,0,1-2.4414-.501c-2.9824-.7764-4.7207-2.9228-5.9473-5.5625a2.53706,2.53706,0,0,1,.5528-3.165,20.72913,20.72913,0,0,1,9.1738-5.3291,7.89529,7.89529,0,0,1,3.4131-.1094,8.53324,8.53324,0,0,0,1.9023.1885,1.77178,1.77178,0,0,0,1.5088-1.7295,1.49342,1.49342,0,0,0-1.0986-1.6035,11.81688,11.81688,0,0,0-2.2608-.3995,7.81925,7.81925,0,0,1-6.1347-3.7636,12.07239,12.07239,0,0,1-2.002-4.1153,11.60961,11.60961,0,0,1-.2471-1.3164,1.49565,1.49565,0,0,1,.5879-1.3466,4.64629,4.64629,0,0,1,2.6084-1.1084,7.14479,7.14479,0,0,1,5.8067,1.9746,45.53511,45.53511,0,0,1,3.4023,3.8955c.6465.79,1.1777,1.6709,1.7656,2.5078A3.78985,3.78985,0,0,0,137.72143,25.8164Z" fill="#ff0070" fill-rule="evenodd"/>
          <path d="M139.96163,27.4268a11.85926,11.85926,0,0,1,.5703,4.2373,28.19946,28.19946,0,0,1-3.3174,12.2988,10.48991,10.48991,0,0,1-.916,1.458,1.13474,1.13474,0,0,1-2.0156-.1738,3.2908,3.2908,0,0,1-.417-2.2158,30.28224,30.28224,0,0,1,.7998-3.9365c.8565-2.6094,1.8203-5.1827,2.8213-7.7374A12.224,12.224,0,0,1,139.96163,27.4268Z" fill="#ff8345" fill-rule="evenodd"/>
        </g>
        <path d="M140.80443,14.4151c.3476-.4883.54-.7246.6992-.9825a36.695,36.695,0,0,1,7.5977-8.5781c.7705-.6631,1.6103-1.248,2.4306-1.8564a3.98879,3.98879,0,0,0,1.169-1.2285.91727.91727,0,0,1,1.4707-.2637,1.05038,1.05038,0,0,1,.3379,1.5068,7.54857,7.54857,0,0,1-.8702,1.0117c-2.3017,2.3995-4.6279,4.7754-6.9023,7.1963a18.057,18.057,0,0,0-3.0986,4.3662c-.1075.2159-.1758.4502-.3623.9463,1.0927-.7998,1.9677-1.414,2.8164-2.0634a13.05371,13.05371,0,0,1,5.6064-2.3594,9.53613,9.53613,0,0,1,8.7363,2.8603,16.31794,16.31794,0,0,1,3.0411,4.4043,7.93439,7.93439,0,0,1,.7216,3.7305,20.62091,20.62091,0,0,1-.458,3.6064,8.6345,8.6345,0,0,1-1.8086,3.7647,27.1119,27.1119,0,0,1-5.5556,4.9756c-.4571.332-.9102.6699-1.4873,1.0937.3574.3389.6211.5801.8759.8311,2.6299,2.625,4.6866,5.5635,5.2315,9.3642a16.76971,16.76971,0,0,1-.5674,7.1963,6.75075,6.75075,0,0,1-1.21,1.9278,9.33875,9.33875,0,0,1-5.9687,3.8623,9.54607,9.54607,0,0,1-4.1768-.1338,19.42229,19.42229,0,0,1-8.6923-5.0391c-1.462-1.415-2.7715-2.9912-4.1592-4.5088-2.0996.2764-2.1075.2715-3.4971-1.4531-.2393-.2939-.4941-.5732-.8047-.9297-.3105.1201-.6084.21-.8808.3477a11.53356,11.53356,0,0,1-7.1182.7724c-.3799-.0527-.7481-.1689-1.125-.2363-4.1133-.7324-6.8506-3.2529-8.7539-6.8086a8.74337,8.74337,0,0,1-.8194-2.3428,5.65829,5.65829,0,0,1,1.6885-5.4238,25.19782,25.19782,0,0,1,6.5244-4.6592,5.74161,5.74161,0,0,0,1.8868-1.083,17.39514,17.39514,0,0,1-3.3584-4.4385,13.10825,13.10825,0,0,1-1.6807-5.0546,4.80139,4.80139,0,0,1,2.2793-4.9239,8.92722,8.92722,0,0,1,8.249-.9062,12.13856,12.13856,0,0,1,5.958,4.6318c.8145,1.1484,1.6338,2.291,2.4678,3.4238a5.3501,5.3501,0,0,0,1.3057,1.4932,8.29369,8.29369,0,0,0,.1875-4.0664,57.41,57.41,0,0,0-4.0196-11.5713c-.4951-1.042-1.0293-2.0596-1.5224-3.1006-.3555-.7431-.6084-1.5234-1.5303-1.831a.77.77,0,0,1-.4141-.9766,1.44825,1.44825,0,0,1,.752-.7822,1.74256,1.74256,0,0,1,1.9414.3926,13.671,13.671,0,0,1,1.9971,2.2851,44.76357,44.76357,0,0,1,4.3769,10.1943C140.41863,13.3623,140.56123,13.7168,140.80443,14.4151Zm-2.2178,33.3554a14.061,14.061,0,0,0,2.7041,2.961,22.84073,22.84073,0,0,0,5.5518,4.3672,12.04786,12.04786,0,0,0,3.9658,1.372,5.52968,5.52968,0,0,0,3.5293-.6015,6.26473,6.26473,0,0,0,3.4306-4.8096c.7022-4.7139-1.0527-8.5-4.5673-11.5684a4.919,4.919,0,0,0-.7871-.5439,3.06038,3.06038,0,0,0-2.5684-.3662,11.03668,11.03668,0,0,1-2.2598.3984,1.50463,1.50463,0,0,1-1.5058-.9853,1.32961,1.32961,0,0,1,.1425-1.6084,3.43893,3.43893,0,0,1,1.1944-.9024,6.403,6.403,0,0,1,2.04-.456,5.61085,5.61085,0,0,0,2.7285-.7686,33.47473,33.47473,0,0,0,6.7442-5.0332c2.292-2.2881,2.3476-5.1142,2.0058-8.0439a1.79365,1.79365,0,0,0-.2998-.7012,26.88032,26.88032,0,0,0-1.9853-3.0508,6.54646,6.54646,0,0,0-7.1934-2.3564,11.95259,11.95259,0,0,0-3.8017,1.7734,38.9384,38.9384,0,0,0-4.5127,3.8535,4.84988,4.84988,0,0,0-1.6035,3.1563c-.0342.3799-.0713.7578-.1163,1.206a9.62017,9.62017,0,0,1,1.878,6.0967A29.69709,29.69709,0,0,1,139.527,46.249C139.25563,46.75,138.92743,47.2198,138.58663,47.7705Zm-.8652-21.9541a3.78985,3.78985,0,0,1-1.9776-1.7187c-.5879-.8369-1.1191-1.7178-1.7656-2.5078a45.53511,45.53511,0,0,0-3.4023-3.8955,7.14479,7.14479,0,0,0-5.8067-1.9746,4.64629,4.64629,0,0,0-2.6084,1.1084,1.49565,1.49565,0,0,0-.5879,1.3466,11.60961,11.60961,0,0,0,.2471,1.3164,12.07239,12.07239,0,0,0,2.002,4.1153,7.81925,7.81925,0,0,0,6.1347,3.7636,11.81688,11.81688,0,0,1,2.2608.3995,1.49342,1.49342,0,0,1,1.0986,1.6035,1.77178,1.77178,0,0,1-1.5088,1.7295,8.53324,8.53324,0,0,1-1.9023-.1885,7.89529,7.89529,0,0,0-3.4131.1094,20.72913,20.72913,0,0,0-9.1738,5.3291,2.53706,2.53706,0,0,0-.5528,3.165c1.2266,2.6397,2.9649,4.7861,5.9473,5.5625a16.99812,16.99812,0,0,0,2.4414.501,7.34641,7.34641,0,0,0,5.2988-1.1787,3.7647,3.7647,0,0,0,.127-.7647,14.06687,14.06687,0,0,1,.789-4.8984c.4014-1.2129.752-2.4434,1.1973-3.6406C133.80933,31.749,134.91963,28.3184,137.72143,25.8164Zm2.2402,1.6104a12.224,12.224,0,0,0-2.4746,3.9306c-1.001,2.5547-1.9648,5.128-2.8213,7.7374a30.28224,30.28224,0,0,0-.7998,3.9365,3.2908,3.2908,0,0,0,.417,2.2158,1.13474,1.13474,0,0,0,2.0156.1738,10.48991,10.48991,0,0,0,.916-1.458,28.19946,28.19946,0,0,0,3.3174-12.2988A11.85926,11.85926,0,0,0,139.96163,27.4268Z" fill="#4f2400" fill-rule="evenodd"/>
        <g>
          <path d="M132.027,74.627c-.3447,2.0898-1.7695,2.5459-4.0302,2.1826a3.26456,3.26456,0,0,1-2.5362-3.4053,3.39769,3.39769,0,0,1,2.7696-3.0224,3.203,3.203,0,0,1,3.6162,2.1865A9.71672,9.71672,0,0,1,132.027,74.627Z" fill="#4f2400" fill-rule="evenodd"/>
          <path d="M102.81613,108.166a3.11721,3.11721,0,0,1-3.6445,2.3164,3.04477,3.04477,0,0,1-2.3125-3.6259,3.08975,3.08975,0,0,1,3.624-2.334A3.15271,3.15271,0,0,1,102.81613,108.166Z" fill="#4f2400" fill-rule="evenodd"/>
          <path d="M86.87963,112.4844a3.02873,3.02873,0,1,1-2.5576-3.457A3.024,3.024,0,0,1,86.87963,112.4844Z" fill="#4f2400" fill-rule="evenodd"/>
          <path d="M66.01923,92.0996a2.88432,2.88432,0,0,1-3.3203,2.458A2.93941,2.93941,0,0,1,63.611,88.75,2.85813,2.85813,0,0,1,66.01923,92.0996Z" fill="#4f2400" fill-rule="evenodd"/>
          <path d="M2.44993,148.0742a2.91412,2.91412,0,1,1,3.3506-2.4062A2.92,2.92,0,0,1,2.44993,148.0742Z" fill="#4f2400" fill-rule="evenodd"/>
          <path d="M35.64723,147.9395a2.73392,2.73392,0,0,1,2.2753-2.25,2.79938,2.79938,0,0,1,2.3409,4.8457,5.282,5.282,0,0,1-1.4795.8291,2.16347,2.16347,0,0,1-2.8399-1.1914A3.79917,3.79917,0,0,1,35.64723,147.9395Z" fill="#4f2400" fill-rule="evenodd"/>
          <path d="M53.16773,102.0362a2.69957,2.69957,0,0,1,3.2324-2.2452,2.59921,2.59921,0,0,1,2.2217,3.2022,2.769,2.769,0,1,1-5.4541-.957Z" fill="#4f2400" fill-rule="evenodd"/>
          <path d="M79.05143,98.376c-.3701,2.166-2.5029,2.6826-3.54,1.7647a3.976,3.976,0,0,1-1.3896-3.0127,2.35415,2.35415,0,0,1,1.913-2.0957,2.19423,2.19423,0,0,1,2.5274,1.2148A12.58358,12.58358,0,0,1,79.05143,98.376Z" fill="#4f2400" fill-rule="evenodd"/>
          <path d="M20.32883,153.2207a2.39725,2.39725,0,0,1-1.9287-2.8457,2.47014,2.47014,0,0,1,2.8164-2.0097,2.43137,2.43137,0,0,1,1.9824,2.9834A2.373,2.373,0,0,1,20.32883,153.2207Z" fill="#4f2400" fill-rule="evenodd"/>
          <path d="M62.279,111.753a2.4495,2.4495,0,1,1,1.8691,2.8994A2.42512,2.42512,0,0,1,62.279,111.753Z" fill="#4f2400" fill-rule="evenodd"/>
          <path d="M78.67063,118.8701a2.39746,2.39746,0,0,1-.7998,4.7276,2.39925,2.39925,0,1,1,.7998-4.7276Z" fill="#4f2400" fill-rule="evenodd"/>
          <path d="M66.14423,132.1153a2.2747,2.2747,0,0,1,2.293-2.0782,2.33965,2.33965,0,0,1,2.3769,2.0469,2.37882,2.37882,0,0,1-1.7753,2.5859,3.8967,3.8967,0,0,1-.754.0928,1.87349,1.87349,0,0,1-2.1562-1.8681A7.10385,7.10385,0,0,1,66.14423,132.1153Z" fill="#4f2400" fill-rule="evenodd"/>
          <path d="M109.97533,99.3506a2.40219,2.40219,0,1,1,1.7851,2.7959A2.49912,2.49912,0,0,1,109.97533,99.3506Z" fill="#4f2400" fill-rule="evenodd"/>
          <path d="M122.50073,92.0811a2.30136,2.30136,0,0,1-1.9483-2.6104,2.35649,2.35649,0,1,1,4.6758.5908A2.30212,2.30212,0,0,1,122.50073,92.0811Z" fill="#4f2400" fill-rule="evenodd"/>
          <path d="M133.88643,61.0615a2.31345,2.31345,0,0,1-2.5781,2.0235,2.38584,2.38584,0,0,1-2.0225-2.5938,2.33108,2.33108,0,0,1,2.6026-1.9931A2.25087,2.25087,0,0,1,133.88643,61.0615Z" fill="#4f2400" fill-rule="evenodd"/>
          <path d="M54.97923,143.3233a2.19619,2.19619,0,0,1-1.9649-1.9512,1.95109,1.95109,0,0,1,1.3223-1.8936,5.36057,5.36057,0,0,1,1.6582-.333,2.042,2.042,0,0,1,2.0801,1.8174,2.10952,2.10952,0,0,1-1.7471,2.3506A7.45622,7.45622,0,0,1,54.97923,143.3233Z" fill="#4f2400" fill-rule="evenodd"/>
        </g>
      </g>
    </g>
  </g>
</svg>
