<svg xmlns="http://www.w3.org/2000/svg" viewBox="0 0 21.06258 21.0625">
  <title>Recurso 7</title>
  <g id="111bcfd8-3791-4d77-b6a5-bd34f82339cf" data-name="Capa 2">
    <g id="916fbe55-fe52-43dd-b9b0-02a62f5da4f3" data-name="Layer 6">
      <path d="M.76514,14.47075q.05756.1422.11919.28232l.02992.06827q.06339.14154.13053.281c.02035.04221.04167.08387.06258.12578.02364.04725.04743.09441.07176.14126q.04415.08526.08965.16967l.02077.03752a10.54577,10.54577,0,0,0,3.07008,3.48576c.00868.0063.01814.01091.02716.01655a10.47361,10.47361,0,0,0,6.14446,1.98359c.12322,0,.24577-.00291.368-.00713l.09487-.00361c.11779-.00513.23526-.01156.352-.02054.026-.002.05189-.00476.07787-.00693q.13729-.01159.27354-.02671c.04509-.005.09016-.01.13514-.01549.10108-.01251.2018-.02608.302-.04145.05723-.00872.11412-.01876.17113-.02842q.07761-.01322.15486-.02747.34312-.0635.68027-.14967l.04516-.01174a10.43714,10.43714,0,0,0,3.00614-1.31523l.01927-.0123c.16574-.10661.33-.21636.49067-.33279.01012-.00733.01883-.01595.02824-.02393a10.52953,10.52953,0,0,0,4.30456-7.74749l.002-.03088q.01053-.15312.01653-.30744l.00307-.08087c.00363-.11334.00611-.227.00611-.34116,0-.10874-.00219-.217-.00548-.32493l-.00295-.077q-.00516-.13721-.01383-.27353l-.00321-.05023A10.5353,10.5353,0,0,0,16.40617,1.795c-.01119-.009-.02184-.01864-.034-.02674a10.41148,10.41148,0,0,0-1.04776-.61291l-.0049-.00253q-.09792-.04993-.19676-.09791c-.03716-.01808-.07465-.03564-.11205-.05329-.04309-.02023-.086-.04084-.12932-.06047A10.51794,10.51794,0,0,0,2.89705,3.28429c-.00843.00775-.01735.01481-.02529.02324A10.54853,10.54853,0,0,0,1.69244,4.81206l-.04165.06407q-.04779.075-.09419.15074-.03843.06244-.07591.12558c-.02393.04019-.04807.08024-.07146.12074q-.07319.1265-.14305.25513L1.2431,5.572q-.06581.12281-.12837.24757l-.02454.04931A10.52,10.52,0,0,0,.75664,14.45l.00082.00258ZM2.074,6.05189q.04913-.09261.10051-.184c.014-.02493.02767-.05.04186-.0748q.057-.09989.11667-.19834c.029-.04791.05862-.09533.08838-.14269.02018-.03215.04027-.06435.06083-.09628q.04763-.07376.09658-.14658l.0376-.05552q.12337-.181.25457-.35619l.12685,1.1067-1.328,1.00929q.16767-.41006.37321-.803ZM3.53555,6.7,5.89769,8.13426v5.20288L4.07935,14.90172l-2.50568-.99625A9.57595,9.57595,0,0,1,1.17852,8.4913Zm7.81871.66772L13.745,10.55532l-2.406,3.8318-4.48231-1.1982V8.25839Zm-.13851,7.97907,1.2962,2.80841-2.16218,1.946a9.516,9.516,0,0,1-5.26431-1.70238l-.401-2.75269L6.498,14.08567Zm3.67643,3.70429-.02758.01393q-.18965.09669-.384.18518l-.02986.01349q-.19892.08962-.40251.17044l-.0156.00624q-.3217.12687-.6543.23083l-.02711.00818q-.19119.05905-.38576.11008-.0585.01535-.11723.02986-.13844.03454-.2785.06494c-.0582.01262-.11646.025-.17494.03654-.05244.01038-.10487.02074-.15759.03026q-.14518.02611-.29147.04773l-.0576.00809,1.36626-1.22962,1.75666.211C14.97148,19.00935,14.93206,19.03062,14.89218,19.05112ZM2.2571,15.33956l-.04289-.0739c-.01791-.03133-.03533-.063-.05289-.0945l1.57608.62665.24935,1.71205A9.63753,9.63753,0,0,1,2.2571,15.33956Zm14.02873,2.836-2.86718-.34448-1.31747-2.85446,2.51357-4.003,3.63609-.53209,1.41155,2.96407A9.60843,9.60843,0,0,1,16.28583,18.1756ZM20.0675,9.70479l.00105.01187q.01651.1922.02491.38487l.00195.05077c.005.12626.00817.25259.00817.379,0,.10361-.0022.20712-.00557.31057l-.00278.07311c-.00377.09407-.00862.1881-.01517.282l-.00164.02565q-.02451.33786-.07279.67332l-.91181-1.91473.86882-1.08422Q20.03231,9.29881,20.0675,9.70479Zm-.38685-1.98963L18.27546,9.46874l-3.73654.54681L12.09449,6.75639l1.35216-3.83118,2.52893-.26254A9.61182,9.61182,0,0,1,19.68065,7.71516Zm-5.38377-5.9838.07806.03421q.0622.02722.124.0553l.054.02525-1.26525.13136-.723-.79829A9.57934,9.57934,0,0,1,14.29688,1.73136ZM10.53125.959c.18639,0,.3714.00595.5552.01651l1.4617,1.614-1.35244,3.832L6.46677,7.358,3.955,5.83288,3.723,3.80962A9.543,9.543,0,0,1,10.53125.959Z" fill="#f46819"/>
    </g>
  </g>
</svg>
