<svg xmlns="http://www.w3.org/2000/svg" viewBox="0 0 93.94261 56.19379">
  <title>Recurso 22</title>
  <g id="Capa_2" data-name="Capa 2">
    <g id="Editar">
      <g>
        <path d="M8.74208,44.24643a2.77,2.77,0,0,0,.3369.0068c.293-.0273.3467.1368.3183.376-.0878.7383-.1884,1.4766-.2597,2.2168-.03318.334-.2334.377-.5039.4111-1.2754.1612-2.5479.3409-3.82228.5098q-1.97764.2622-3.956.5176c-.045.0058-.08892.0137-.13482.0185-.7705.087-.7666.0782-.6846-.6982.1406-1.3447.3613-2.6807.4219-4.0332a28.12715,28.12715,0,0,0,.3896-2.8135c.2588-2.039.4873-4.082.7364-6.122.0752-.6202.0869-.6172.68652-.6954q3.9975-.51705,7.99508-1.038c.5225-.0684.54692-.0586.4932.4804-.07128.6973-.1856,1.3887-.253,2.086-.02828.2949-.1816.3711-.4345.4033-.8516.1084-1.7012.2314-2.55278.3447-.73822.0977-1.47652.208-2.21772.2813-.336.0341-.4688.1689-.4922.5039-.042.6084-.128,1.2129-.1885,1.8203-.0381.3906-.0068.4238.39942.3711.85158-.1084,1.70118-.2285,2.55178-.3418.15622-.0205.3144-.0352.4726-.041.4414-.0166.4668-.0079.42.4531-.0723.7187-.1817,1.4336-.2647,2.1504-.0322.2929-.2158.3506-.4639.3808-1.0097.1289-2.0136.291-3.0254.3936-.39638.04-.5459.1806-.5771.5732-.0459.585-.1514,1.1641-.2324,1.7461-.0313.2227-.0401.418.28712.376,1.47748-.1963,2.95508-.3867,4.43258-.582A.46823.46823,0,0,0,8.74208,44.24643Z" fill="#fff" fill-rule="evenodd"/>
        <path d="M68.2499,29.70643a15.92723,15.92723,0,0,0,.2685-1.9639c.1026-.9316.0928-.9297,1.0127-1.0449.583-.0742,1.1631-.1641,1.7471-.2344.5371-.0635.5986-.0439.5273.5117-.2265,1.7481-.4228,3.499-.6328,5.25-.1699,1.4141-.3447,2.8272-.5146,4.2412-.0947.7783-.0957.7578-.8887.8897a13.66356,13.66356,0,0,0-2.3428.499c-.1748-.165-.0986-.3232-.08-.4736q.2196-1.749.4394-3.4981a.67979.67979,0,0,0-.0976-.5791c-.6817-.8056-1.3565-1.6152-2.10163-2.5029a22.71571,22.71571,0,0,0-.3359,2.4219q-.3384,2.6586-.6348,5.3203a1.09714,1.09714,0,0,1-.5498.8574,4.34012,4.34012,0,0,1-2.4815.9629c-.3203-.002-.4043-.083-.3671-.377.1855-1.4814.3642-2.9619.5449-4.4433q.44535-3.63285.8896-7.2666c.0713-.5948.0088-.7364.7383-.7842a18.45364,18.45364,0,0,0,2.0811-.2822.71744.71744,0,0,1,.76273.291c.5048.6103,1.0205,1.2119,1.538,1.8096A.94392.94392,0,0,0,68.2499,29.70643Z" fill="#fff" fill-rule="evenodd"/>
        <path d="M24.245,31.85583a5.99606,5.99606,0,0,1,.0957-1.4219c.0586-.416-.0078-.4746-.4355-.4424-.2481.0196-.4932.0703-.7403.0987a3.31912,3.31912,0,0,1-3.8261-2.5889,9.15389,9.15389,0,0,1,.58-6.0322,8.11273,8.11273,0,0,1,1.8653-2.7237,4.3645,4.3645,0,0,1,2.5888-1.2177q2.12115-.2637,4.2403-.5293c.4365-.0538.4423-.0508.3877.416-.06448.5615-.1573,1.1201-.2041,1.6836-.02838.3398-.19238.4619-.5108.498-.9199.1055-1.8369.2568-2.7588.3379a2.50972,2.50972,0,0,0-1.71678.8574,5.52844,5.52844,0,0,0-1.14062,5.6953,1.23166,1.23166,0,0,0,1.544.9707.5359.5359,0,0,0,.5351-.5586c.1318-1.1464.2774-2.29.417-3.4355.0078-.0674.0107-.1348.0176-.2031.0908-.9141.0908-.9112,1.0234-1.0283.60452-.0762,1.208-.1768,1.81452-.2432.39938-.043.42578-.0078.38078.4033-.13378,1.2139-.2754,2.4277-.415,3.6406a10.61189,10.61189,0,0,0,.0937,2.6387c.0264.1943.0528.3486-.125.4775C26.75478,30.02373,25.55458,30.90073,24.245,31.85583Z" fill="#fff" fill-rule="evenodd"/>
        <path d="M40.41878,31.304c-.0576.4717-.1328.9414-.165,1.4141-.02638.3701-.2022.4863-.5557.5263-1.3701.1583-2.7343.3604-4.1035.5176-.3535.041-.5205.1494-.541.5274-.0273.4951-.1231.9863-.1807,1.4804-.0498.4239-.0049.4668.4424.4063.7832-.1045,1.5664-.2207,2.3506-.3242.72752-.0948.7432-.0801.6768.6279-.045.4951-.1289.9873-.1641,1.4834-.0293.3984-.2334.5293-.6084.5654-.8096.0772-1.6152.1953-2.42378.295-.65922.081-.66412.0869-.73152.7216-.039.3828-.0967.7627-.1279,1.1465-.0459.5879-.0205.6113.583.5352.7852-.1006,1.56742-.2149,2.3525-.3194.5372-.0713,1.0752-.1494,1.6143-.1972.4287-.0381.4687.0185.416.458-.0683.5605-.1787,1.1181-.2099,1.6816-.02148.3906-.2266.501-.5479.543q-1.0767.1392-2.1514.2812-2.55465.33255-5.1103.667c-.0664.0088-.1348.0088-.2022.0205-.3095.0518-.3994-.0722-.3554-.3789.09572-.6709.1631-1.3457.2441-2.0195q.59475-4.87935,1.1885-9.7598c.07712-.6289.0732-.6289.6738-.709l6.9902-.9228c.0674-.0088.1348-.0147.2022-.0195.5322-.0459.5322-.0459.4707.4814-.0107.0899-.0195.1807-.0293.2705Z" fill="#fff" fill-rule="evenodd"/>
        <path d="M13.63068,46.69563c-.6757.0117-1.3369.1504-2.0058.2276-.1563.0175-.31348.0244-.4697.0478-.2989.0449-.418-.0801-.3799-.376q.142-1.103.2802-2.207c1.209-.167,2.419-.3291,3.628-.5029.6582-.0948.6572-.1035.3906-.6807q-1.37985-2.9883-2.7598-5.9775a2.49229,2.49229,0,0,1,.5254-2.752,1.85467,1.85467,0,0,1,1.09572-.4853q2.32031-.3033,4.64068-.6055c.4482-.0576.8974-.1045,1.3466-.1543.2754-.0312.3575.0908.3184.3604-.0859.6035-.166,1.2099-.2188,1.8173a.43839.43839,0,0,1-.4472.4727c-.8985.1064-1.793.2353-2.6895.3584-.3554.0478-.7099.1016-1.041.1494-.0967.3018.0693.4883.1572.6875.8477,1.9004,1.7354,3.7852,2.5469,5.7002.7012,1.6562.2422,2.6934-.9834,3.3555-.1953.1963-.4785-.0118-.6797.1494l.003-.001c-.3047.1865-.6651-.0303-.9727.1328l-.0576-.0137-.0547.0215c-.3076.1758-.665-.0322-.9746.128l-.05958-.0108-.05372.0254c-.2646.1533-.5762-.0273-.8418.1211Z" fill="#fff" fill-rule="evenodd"/>
        <path d="M77.2811,28.36753c-.8369.1084-1.6621.2148-2.4882.3223-.4024.0537-.8067.1035-1.2081.166-.2851.0449-.3691-.084-.3349-.3428.0849-.6494.1748-1.2998.2471-1.9502.0322-.2842.1835-.3623.4462-.3955,2.3311-.3008,4.6612-.6172,6.9922-.9209.4649-.0605.5284-.0039.4795.4609a6.55537,6.55537,0,0,1-.9551,3.0616c-1.4443,2.1894-2.7919,4.4423-4.1777,6.6718a.41562.41562,0,0,0-.1094.3584,9.12818,9.12818,0,0,0,1.8301-.1689c.6289-.0586,1.2559-.1484,1.8838-.2275.2852-.0372.4199.0322.3682.3671-.0938.6016-.1387,1.212-.2178,1.8174a.47213.47213,0,0,1-.7754.3653.94922.94922,0,0,1-.2002-.1807c-.5527-.6279-.71-.499-1.3262-.1191a.56307.56307,0,0,0-.1132.0742,3.45483,3.45483,0,0,1-2.2715.9052c-.7198.0743-1.4356.1797-2.1504.2872a.52539.52539,0,0,1-.5879-.3077,2.14668,2.14668,0,0,1,.0566-2.4238c.6494-1.1152,1.335-2.207,2.0078-3.3076q1.25835-2.05365,2.5196-4.1065A.43539.43539,0,0,0,77.2811,28.36753Z" fill="#fff" fill-rule="evenodd"/>
        <path d="M7.244,29.31573q1.78425-.23,3.56742-.4599c.35938-.0449.72268-.0664,1.07718-.1367.3466-.0704.38282.0781.3447.3632-.08988.6729-.1856,1.3467-.2305,2.0225-.02538.376-.18938.5-.5361.5439-1.6387.2022-3.2754.4219-4.9121.6348-1.0098.1309-2.0186.2637-3.0283.3906-.5225.0655-.5606.0371-.4991-.4824q.34725-2.96625.7119-5.9277c.2842-2.336.57432-4.6709.8565-7.0069.0664-.5556-.0283-.6064.6767-.6923.83112-.0996,1.6612-.2051,2.4883-.3321.3194-.0488.3926.0303.3516.3506-.2246,1.751-.4297,3.5039-.6426,5.2549-.2041,1.6836-.4131,3.3672-.6123,5.0518C6.8104,29.29133,6.8544,29.32653,7.244,29.31573Z" fill="#fff" fill-rule="evenodd"/>
        <path d="M63.40318,48.16243a.92887.92887,0,0,0,.6533-.123,6.106,6.106,0,0,1,1.4932-.4317c.32233-.0439.67973-.0273.92383-.3183a.18223.18223,0,0,1,.1201-.0596c1.0371-.0498,2.0049-.5195,3.0518-.5029.1279.0019.2588-.0977.4219.0351-.2696.4063-.3701.9649-1.0118,1.0205a11.524,11.524,0,0,1-2.9296,1.3057c-1,.4219-2.01763.79-3.05183,1.1162a10.407,10.407,0,0,1-1.7715.4609c-.6191.0811-.7724-.0009-.9746-.5712-.4385-1.2354-.6191-1.0684.5283-1.9034,1.8047-1.3144,3.5459-2.7158,5.334-4.0537a46.97752,46.97752,0,0,0,4.5576-3.8418,2.04585,2.04585,0,0,0,.4356-.5166c.1435-.2871.082-.4082-.2481-.4326a6.87746,6.87746,0,0,0-2.3457.2891,16.44673,16.44673,0,0,0-4.90523,2.2636c-.417.2823-.4668.2666-.669-.206-.332-.7725-.3076-.8574.3818-1.335a15.32073,15.32073,0,0,1,5.89953-2.4638,9.13832,9.13832,0,0,1,1.2089-.1436,1.88137,1.88137,0,0,1,1.7393,2.6992,3.34291,3.34291,0,0,1-.6562.9434,27.54942,27.54942,0,0,1-3.3028,2.916c-1.4648,1.1377-2.95213,2.2461-4.42283,3.376C63.69128,47.81483,63.46178,47.90753,63.40318,48.16243Z" fill="#fff" fill-rule="evenodd"/>
        <path d="M78.5565,39.61943a1.90291,1.90291,0,0,1,1.294,2.1504,5.096,5.096,0,0,1-.5547,1.5957,25.55472,25.55472,0,0,1-3.2979,4.961,29.339,29.339,0,0,1-2.3632,2.5244A6.31536,6.31536,0,0,1,71.6845,52.18a1.16235,1.16235,0,0,1-1.4825-.4141,2.75282,2.75282,0,0,1-.4882-2.957,19.78631,19.78631,0,0,1,2.8115-5.1602c.3711-.5058.7246-1.0224,1.1308-1.5048a36.1718,36.1718,0,0,1,2.7608-2.8985,9.47465,9.47465,0,0,1,1.5429-1.2138c.4317-.2686.5254-.2383.8565.1396a1.41428,1.41428,0,0,1,.2598.5449.49744.49744,0,0,1-.21.6455,2.20857,2.20857,0,0,0-.2979.2686c-.8964.8584-1.8955,1.5986-2.7578,2.5a24.11226,24.11226,0,0,0-4.3877,6.3203,6.42977,6.42977,0,0,0-.4902,1.334c-.042.1865-.2295.4189-.0215.5596.1758.1171.3887-.0596.5586-.1602a12.14659,12.14659,0,0,0,2-1.7148,26.076,26.076,0,0,0,4.669-5.9414c.2294-.3907.3613-.8282.5537-1.2383a1.12278,1.12278,0,0,0-.0801-.9785C78.5126,40.08823,78.3534,39.86753,78.5565,39.61943Z" fill="#fff" fill-rule="evenodd"/>
        <path d="M13.38948,33.19273c.1768-1.4785.3487-2.957.5274-4.4346.3789-3.1191.7724-6.2373,1.1299-9.3584.0722-.6318.1982-.6289.6943-.6845.6738-.0743,1.3437-.1856,2.0166-.2608.4746-.0537.5166-.001.459.4649-.333,2.6923-.6817,5.3828-.9951,8.0771a11.12832,11.12832,0,0,0,.04882,3.0459c.03708.2275.09078.4268-.14842.5996-1.2071.8682-2.4053,1.7471-3.6065,2.624Z" fill="#fff" fill-rule="evenodd"/>
        <path d="M89.9647,40.05893c-1.0976.249-2.1943.5078-3.2949.7451a11.58289,11.58289,0,0,1-2.8848.3672,1.22779,1.22779,0,0,1-1.0791-1.4043c.0362-.1426.1436-.1601.2588-.1523,2.2578.1494,4.3682-.5918,6.5215-1.0752.9688-.2178,1.9297-.4717,2.8985-.6895.5703-.1279.8115.0938.8837.6846a1.36829,1.36829,0,0,1-.6064,1.3965q-1.645,1.1952-3.2549,2.4433a74.61721,74.61721,0,0,0-7.1142,6.0743c-.503.5-1.1456.7958-1.6514,1.2822a.364.364,0,0,1-.4404.0683c-.2081-.125-.1153-.3164-.0889-.4892a.97689.97689,0,0,1,.2471-.4776,30.242,30.242,0,0,1,2.4931-2.7255c.6592-.5987,1.3565-1.1612,2-1.7823a31.45845,31.45845,0,0,1,2.9297-2.4082c.75-.5674,1.4785-1.1611,2.2168-1.7431C89.9882,40.13513,89.9764,40.097,89.9647,40.05893Z" fill="#fff" fill-rule="evenodd"/>
        <path d="M50.02918,23.06573c.69822-.0839,1.3945-.1611,2.0879-.2529.2627-.0351.3965.0303.3467.3164-.0079.0449-.0196.0889-.0245.1328-.1308,1.0703-.1308,1.0664-1.2246,1.1895-1.1006.123-2.1982.2617-3.2988.3808-.5312.0577-.5391.044-.4697-.4765q.42184-3.1905.8545-6.3799c.0859-.6309.09472-.6377.6826-.708q1.91595-.2271,3.834-.4365c.4804-.0537.498-.0254.4375.4599-.1299,1.0313-.1309,1.0293-1.168,1.1348-.5391.0547-1.0771.123-1.6162.1767a.41352.41352,0,0,0-.4375.4092c-.1348,1.1153-.3613,1.1797.9316.9668.22172-.0361.4502-.039.6729-.0703.3213-.043.38382.0947.34082.3916-.18952,1.2998.04978,1.0791-1.25982,1.252-.0439.0058-.0898.0029-.1347.0068-.9151.0781-1.168.373-1.0752,1.2832C49.54578,23.21223,49.83578,23.03743,50.02918,23.06573Z" fill="#fff" fill-rule="evenodd"/>
        <path d="M62.19418,23.056q-1.52925.2841-3.0595.5654c-.2149.1191-.4766-.042-.6846.1172l.0088-.0039a2.04013,2.04013,0,0,0-.7383-.002c-.4531.0293-.4854-.0009-.4268-.4336.2227-1.6533.4532-3.3076.6797-4.9629.0772-.5576.1651-1.1152.2168-1.6757.0293-.333.1729-.4903.5039-.502.2471-.0098.4951-.0332.7403-.0635.6855-.0869.7558-.2324.6347.6748-.1933,1.4317-.3945,2.8614-.59177,4.292-.02443.1787-.041.3584-.07033.5371-.0508.3057.07233.4082.375.3682.5586-.0752,1.1201-.1357,1.6797-.1953a2.03069,2.03069,0,0,1,.8809-.0137C62.29378,22.18393,62.244,22.62043,62.19418,23.056Z" fill="#fff" fill-rule="evenodd"/>
        <path d="M77.9608,50.58823c-.8467-.4678-.75-1.1123-.4638-1.8594a13.92528,13.92528,0,0,1,1.3349-2.4287c.6143-.9697,1.1231-2.001,1.7295-2.9707.4512-.7226.8525-1.4746,1.3252-2.1846.1338-.2011.2383-.4228.3477-.622.2226-.002.2295.1533.2675.2744a1.63605,1.63605,0,0,0,.253.4746c.1201.1621.4218.168.4238.3975.001.2509-.1992.4462-.3252.6562-.9443,1.5674-1.9102,3.1211-2.8398,4.6963-.6202,1.0488-1.1914,2.1269-1.7852,3.1934C78.1532,50.34993,78.1317,50.52183,77.9608,50.58823Z" fill="#fff" fill-rule="evenodd"/>
        <path d="M54.87978,48.28553c-.3448.1474-.6026.1943-.7989-.1524-.0771-.1367-.2666-.1592-.4296-.1601-.3301-.002-.6124.1709-.626.4004-.0196.3476.2666.3798.499.4414.2178.0566.4512.0556.665.122a.9242.9242,0,0,1,.4639,1.4717,1.80438,1.80438,0,0,1-2.1699.2959.80085.80085,0,0,1-.252-.3096c-.0566-.1445-.25288-.3379-.0078-.4629.1856-.0957.3906-.1835.58792.0831a.77981.77981,0,0,0,.99218.3007.46082.46082,0,0,0,.34282-.4521c-.00882-.2139-.16122-.3106-.35062-.3555-.2627-.0644-.5283-.1162-.7891-.1875a.81446.81446,0,0,1-.6797-.7451.935.935,0,0,1,.46-.916A1.31891,1.31891,0,0,1,54.87978,48.28553Z" fill="#fff" fill-rule="evenodd"/>
        <path d="M33.51648,52.346a8.67266,8.67266,0,0,0,1.4043-.0771c.1592.0078.3887-.1123.4297.166.0361.2422-.1524.3066-.3408.3271-.585.0635-1.1709.1094-1.7559.1739-.2979.0341-.3467-.1231-.3213-.3633.0938-.8994.1885-1.7989.2773-2.6983a.32882.32882,0,0,1,.3467-.332c.586-.0498,1.17092-.1143,1.75692-.165.12588-.0108.28608-.044.31828.1513.0303.1944-.0625.2979-.2558.3174-.3594.0371-.7188.0772-1.0782.1133-.5312.0518-.6152.1592-.583.6758.01272.2148.1104.2724.3008.2519.3594-.039.7188-.0781,1.0801-.1074.1064-.0098.2353-.0176.2549.1426.0185.1533-.0293.2715-.2002.293-.3135.039-.62888.0742-.9424.1074-.4961.0527-.6348-.0352-.6357.6201A3.26129,3.26129,0,0,1,33.51648,52.346Z" fill="#fff" fill-rule="evenodd"/>
        <path d="M38.3964,52.345c.08-.7822.14548-1.5224.23338-2.2597.039-.333-.0782-.4649-.4082-.4092a1.16181,1.16181,0,0,1-.20218.0117c-.14842-.0019-.33982.0645-.35062-.1836-.0068-.1885.01662-.3652.2657-.3906.7402-.0762,1.4804-.1582,2.2207-.2324.1523-.0157.2685.0381.2656.2187-.002.1328.0117.2813-.1533.336a2.1298,2.1298,0,0,1-.3272.08c-.5508.0996-.5508.0987-.6094.6563-.0546.539-.1132,1.0771-.166,1.6162C39.10728,52.37923,39.11018,52.37923,38.3964,52.345Z" fill="#fff" fill-rule="evenodd"/>
        <path d="M83.7723,39.22883c-.2382,0-.3271.003-.416,0-.207-.0097-.289-.1172-.2031-.3086.1553-.3466.3145-.6914.4893-1.0293.1054-.205.2754-.2011.4492-.0742a1.51758,1.51758,0,0,1,.5478,1.0401.228.228,0,0,1-.2197.2773C84.1552,39.17513,83.8905,39.21223,83.7723,39.22883Z" fill="#fff" fill-rule="evenodd"/>
        <path d="M43.76748,26.57453c.1464.2149.3877.1035.5791.1641a14.49825,14.49825,0,0,1-2.4463.375,3.97915,3.97915,0,0,1-1.6016.0859A25.00081,25.00081,0,0,1,43.76748,26.57453Z" fill="#fff" fill-rule="evenodd"/>
        <path d="M55.78988,50.64c-.1816.0175-.3271-.0118-.3242-.2764.0039-.3604.084-.4512.4873-.4873.1758-.0166.3135-.0166.3018.2285C56.23428,50.50423,56.14148,50.62733,55.78988,50.64Z" fill="#fff" fill-rule="evenodd"/>
        <path d="M45.55358,26.59023c.29982-.2325.6406-.129.9697-.1202A1.66909,1.66909,0,0,1,45.55358,26.59023Z" fill="#fff" fill-rule="evenodd"/>
        <path d="M44.6024,26.723c.24808-.2383.54788-.126.83208-.1192A1.36724,1.36724,0,0,1,44.6024,26.723Z" fill="#fff" fill-rule="evenodd"/>
        <path d="M47.31818,25.90073c-.1953.2344-.4541.1377-.6943.1328A1.06981,1.06981,0,0,1,47.31818,25.90073Z" fill="#fff" fill-rule="evenodd"/>
        <path d="M44.33188,26.45933c-.1533.1914-.3584.1338-.5556.1152A.63783.63783,0,0,1,44.33188,26.45933Z" fill="#fff" fill-rule="evenodd"/>
        <path d="M45.01258,26.33143c-.1563.1787-.3584.1308-.5547.1162A.62647.62647,0,0,1,45.01258,26.33143Z" fill="#fff" fill-rule="evenodd"/>
        <path d="M45.82508,26.18393c-.1553.1904-.3613.1445-.5625.1191A.67526.67526,0,0,1,45.82508,26.18393Z" fill="#fff" fill-rule="evenodd"/>
        <path d="M46.50568,26.04913c-.15228.1973-.36028.1368-.5585.1231A.68478.68478,0,0,1,46.50568,26.04913Z" fill="#fff" fill-rule="evenodd"/>
        <path d="M79.5682,9.71223c.5655,0,1.1299.0127,1.6934-.0039a.66137.66137,0,0,1,.6494.3809,17.80551,17.80551,0,0,0,2.1055,2.8193.44749.44749,0,0,1,.0771.5957c-.54,1.0449-1.0722,2.0928-1.5849,3.1504a.77825.77825,0,0,1-.6621.4902,11.22712,11.22712,0,0,1-3.0381-.0722.64646.64646,0,0,1-.3887-.25,17.55942,17.55942,0,0,1-2.3799-3.8535.56455.56455,0,0,1,.0147-.5196q.56685-1.23195,1.1259-2.4668a.62916.62916,0,0,1,.6944-.4023c.5625.0332,1.1289.0088,1.6933.0088Z" fill="#fff" fill-rule="evenodd"/>
        <path d="M79.8134,9.22983c-.6543-.0342-1.3086-.0791-1.9629-.0986a.70971.70971,0,0,1-.6514-.3975,17.26768,17.26768,0,0,1-.8184-1.6357.77185.77185,0,0,1,.0079-.711,12.83266,12.83266,0,0,1,2.5-3.4375.72625.72625,0,0,1,.3916-.2539,11.17,11.17,0,0,1,3.0976-.1924.90253.90253,0,0,1,.7324.5069,23.571,23.571,0,0,1,1.1768,2.5166.64313.64313,0,0,1-.0908.7451c-.7285.8623-1.4395,1.7412-2.1416,2.625a.82671.82671,0,0,1-.7491.3535c-.496-.0244-.9941-.0059-1.4912-.0059Z" fill="#fff" fill-rule="evenodd"/>
        <path d="M84.7264,19.387a.83118.83118,0,0,1-.623-.2636,9.89494,9.89494,0,0,1-1.2676-1.4131.57683.57683,0,0,1-.04-.6866c.5928-1.1455,1.168-2.2998,1.7431-3.455a.70324.70324,0,0,1,.5684-.417,23.51338,23.51338,0,0,0,2.8545-.5977.469.469,0,0,1,.5381.1377c.6806.6953,1.3428,1.4072,1.9746,2.1475a.681.681,0,0,1,.1475.8017c-.1338.2871-.2491.583-.3545.8819a3.62616,3.62616,0,0,1-2.625,2.3261A16.05419,16.05419,0,0,1,84.7264,19.387Z" fill="#fff" fill-rule="evenodd"/>
        <path d="M92.7889,10.23863a12.5507,12.5507,0,0,1-.3496,3.3652,2.465,2.465,0,0,1-1.3408,1.1328c-.1592.0078-.2422-.1074-.3252-.2109-.5801-.7275-1.2422-1.3789-1.8808-2.0508a.8536.8536,0,0,1-.2588-.7334,33.77268,33.77268,0,0,0,.1543-3.458.59637.59637,0,0,1,.2929-.5683c.6045-.3555,1.21-.712,1.8096-1.0743.2002-.1211.3262-.0625.4522.1133.4228.5879.8554,1.168,1.2832,1.752a.96865.96865,0,0,1,.1621.5791C92.7919,9.46913,92.7889,9.85383,92.7889,10.23863Z" fill="#fff" fill-rule="evenodd"/>
        <path d="M85.0995,1.63123c.0996.0263.165.041.2295.0605a12.96685,12.96685,0,0,1,4.0752,1.9434,4.93087,4.93087,0,0,1,1.4638,2.1572.32554.32554,0,0,1-.1591.4551q-.90825.5259-1.8116,1.0615a.447.447,0,0,1-.5029.0186,15.24679,15.24679,0,0,0-3.3271-1.4961.5196.5196,0,0,1-.3496-.376,18.06949,18.06949,0,0,0-1.2539-2.7002c-.0782-.1377-.1983-.2988-.0079-.4121A8.87274,8.87274,0,0,1,85.0995,1.63123Z" fill="#fff" fill-rule="evenodd"/>
        <path d="M78.16,17.90273c-.0107.1777-.0195.3359-.0312.4931-.0566.7334-.0693.7178-.7549.5508a4.33247,4.33247,0,0,1-2.3877-1.8857,10.90778,10.90778,0,0,1-1.5146-2.9336,2.51308,2.51308,0,0,1,.2539-1.6924c.039-.1231.1738-.128.2861-.0645a8.00312,8.00312,0,0,0,1.3564.6074c.1915.0635.2637.2354.3467.3946a18.13285,18.13285,0,0,0,2.3457,3.707C78.2929,17.34213,78.1366,17.64,78.16,17.90273Z" fill="#fff" fill-rule="evenodd"/>
        <path d="M73.9618,6.74253a1.14717,1.14717,0,0,1,.2041-.6025,9.97005,9.97005,0,0,1,3.96-4.0801c.1298-.0752.2724-.2451.4179-.1113a.48174.48174,0,0,1,.0557.623,1.867,1.867,0,0,1-.2695.3027,12.53456,12.53456,0,0,0-2.2198,3.1446,1.06289,1.06289,0,0,1-.5156.5058c-.3828.1963-.7578.4063-1.1269.624-.3633.2139-.4551.1758-.4971-.2363C73.9667,6.86753,73.9657,6.82263,73.9618,6.74253Z" fill="#fff" fill-rule="evenodd"/>
        <path d="M82.0399,20.74153a19.57491,19.57491,0,0,1,2.0557-.8545,9.59068,9.59068,0,0,1,1.6758-.1963,8.90341,8.90341,0,0,0,3.1133-.8964c.08-.0401.1621-.0801.2431-.1202.1104-.0517.2236-.0703.3067.0371.122.1543-.004.2452-.1104.3272a10.17905,10.17905,0,0,1-2.7861,1.5303,10.65893,10.65893,0,0,1-2.3741.5517A3.91845,3.91845,0,0,1,82.0399,20.74153Z" fill="#fff" fill-rule="evenodd"/>
        <path d="M73.121,12.68493c-.3135-1.5078-.1631-4.294.501-5.0733.2168.1407.1669.334.1181.5371a8.68646,8.68646,0,0,0-.2715,3.5401A1.58739,1.58739,0,0,1,73.121,12.68493Z" fill="#fff" fill-rule="evenodd"/>
        <path d="M77.7704,19.55993a1.23687,1.23687,0,0,1,.7969.0303c.9804.415,1.9609.832,3.0449,1.291A6.40812,6.40812,0,0,1,77.7704,19.55993Z" fill="#fff" fill-rule="evenodd"/>
        <path d="M89.5966,3.14093a27.106,27.106,0,0,0-4.5909-2.124A7.94561,7.94561,0,0,1,89.5966,3.14093Z" fill="#fff" fill-rule="evenodd"/>
        <path d="M60.50178,27.90663c-1.0986.1445-2.1933.3212-3.2968.4179a4.313,4.313,0,0,0-2.6641,1.209,9.00043,9.00043,0,0,0-2.7168,5.2705c-.1846,1.1826-.2725,2.3819-.4443,3.5664a8.681,8.681,0,0,1-.292,1.8565,26.42255,26.42255,0,0,1-3.0889-4.2461c-.1094-.2305-.0078-.3252.1621-.4317a5.23747,5.23747,0,0,0,1.5938-1.5507,4.112,4.112,0,0,0,.7099-3.0899,1.78492,1.78492,0,0,0-1.9277-1.4424c-1.9277.2461-3.8545.5069-5.7803.7666-.6035.0811-.6172.0889-.6904.6758-.2012,1.6152-.3887,3.2324-.584,4.8496-.3037,2.5117-.6182,5.0244-.9072,7.5391a6.55441,6.55441,0,0,0-.1465,1.7109c.0937-.0137.1465-.0058.1777-.0283,1.1914-.8623,2.3789-1.7285,3.5723-2.5869a.5.5,0,0,0,.2041-.5752,12.42646,12.42646,0,0,1-.0439-3.3145c.0449-.4365.1259-.8711.1953-1.331.3232.1221.4131.3672.5547.5615a21.12551,21.12551,0,0,0,3.5927,4.0488.73394.73394,0,0,0,.66992.2051c.42-.0849.85058-.1221,1.27738-.1709.2207-.0254.331.041.2949.3047-.06928.5039-.1035,1.0127-.166,1.6602,1.3594-.9913,2.6143-1.9063,3.8682-2.8194a.405.405,0,0,0,.1338-.4834,8.64814,8.64814,0,0,1-.128-2.4316c.043-1.1563-.19328-1.1768,1.1563-1.2891.999-.082.997-.1074.872.8926-.0107.0889-.0312.1777-.042.2666-.1113.9209-.2187,1.8408-.3339,2.7607-.0371.295.042.4102.3701.3575.7588-.1192,1.5224-.2061,2.2861-.3028.5586-.0722.5527-.0713.624-.6611q.37369-3.063.7549-6.124c.2305-1.8614.4639-3.7237.6895-5.585C61.07018,27.86163,61.03308,27.83623,60.50178,27.90663Zm-13.8086,5.83a3.22383,3.22383,0,0,1-1.8203,1.8233c-.0507-.0352-.10248-.0694-.1533-.1045q.1539-1.333.3057-2.667a.23918.23918,0,0,1,.03612-.127c.34668-.3857.83588-.2275,1.25778-.2998.2969-.0507.3887.2578.4297.5088A1.741,1.741,0,0,1,46.69318,33.73663Zm10.709-2.5097c-.0742.8271-.1797,1.6523-.2763,2.4775a.31545.31545,0,0,1-.31447.2979,14.27213,14.27213,0,0,1-1.73143.1445,5.2238,5.2238,0,0,1,1.9736-3.0732C57.28308,30.91243,57.42568,30.972,57.40218,31.22693Z" fill="#fff" fill-rule="evenodd"/>
        <path d="M18.26358,51.72693c-.0518.4951-.0928.9912-.15918,1.4843a1.58709,1.58709,0,0,1-2.17582,1.3663.85317.85317,0,0,1-.66018-.8418,19.523,19.523,0,0,1,.18558-2.0918.33082.33082,0,0,1,.3437-.3399c.3262-.0263.419.0381.3848.3633-.0547.5166-.1289,1.0313-.1914,1.5469-.0635.5176.0391.7373.375.8183a.72612.72612,0,0,0,.9609-.5966c.1143-.6211.1612-1.254.2393-1.8809.0156-.1309-.0195-.2842.1016-.3779a.51827.51827,0,0,1,.5126-.084c.1446.0576.1114.2295.1026.3633-.0068.0908-.0186.1797-.0274.2705Z" fill="#fff" fill-rule="evenodd"/>
        <path d="M19.97548,50.89683c-.1182,1.0488-.2266,2.0117-.336,2.9756-.0205.1758-.0068.3584-.2588.4082-.3378.0664-.4716-.0098-.4404-.3565.07812-.9004.1768-1.7988.2774-2.6972C19.2694,50.762,19.61608,50.92613,19.97548,50.89683Z" fill="#fff" fill-rule="evenodd"/>
        <g>
          <path d="M9.3114,52.52373c.38178-.0195.76168-.0898,1.14258-.1171.2539-.0176.3633-.127.35842-.3809-.00492-.3027-.21-.2246-.38092-.2139-.2256.0137-.45208.0215-.6758.0518-.4658.0625-1.0644-.0635-1.36228.2363-.30072.3028-.19332.8955-.21582,1.3682a7.65354,7.65354,0,0,0-.1787,1.6621c-.0498.2422.1406.2471.2988.2353.6045-.0459,1.208-.0957,1.8116-.1552a.65738.65738,0,0,0,.3125-.1123.38717.38717,0,0,0,.1152-.4278c-.0322-.1357-.1797-.0947-.2852-.1015a6.40881,6.40881,0,0,0-1.0029.1191c-.2187.0205-.4687.0742-.5176-.2588a.37157.37157,0,0,0,.0137-.123c.1299-.1094.10642-.2686.1328-.4121.1553-.0284.30962-.0655.4658-.0821.2696-.0293.5391-.0556.8096-.0654.2441-.0078.3857-.0967.376-.3603-.01078-.2989-.2197-.2188-.3906-.2081-.3155.0206-.6309.044-.9454.0674-.2041.0147-.2871-.0801-.2714-.2802C8.94128,52.71713,9.00478,52.53743,9.3114,52.52373Z" fill="#fff" fill-rule="evenodd"/>
          <path d="M2.62778,52.63313c-.4697.0362-.93938.0879-1.4082.1426-.5781.0693-.5781.0732-.6191.6367-.0088.1123-.0157.2246-.0235.3369a6.2475,6.2475,0,0,0-.1113,2.1963c.0068.2871.2842.2676.47172.2207a6.20637,6.20637,0,0,1,1.27338-.1113,1.29946,1.29946,0,0,0,.26862-.0215.2945.2945,0,0,0,.26658-.3301c-.01858-.1777-.1631-.1923-.3018-.1884-.292.0078-.5859.0029-.876.038-.5459.0664-.5429.0762-.5585-.4492-.003-.0888-.0167-.1787-.0254-.2676a.53962.53962,0,0,1,.0263-.1113c.1836-.0322.3897.0254.544-.1308a5.42427,5.42427,0,0,0,1.0039-.1065.24676.24676,0,0,0,.1963-.3008c-.0166-.1513-.1348-.166-.2461-.1572-.3135.0254-.626.0654-.9385.0928-.417.0371-.4531-.0176-.4453-.4346.0049-.3174.1504-.4355.4502-.4521.3584-.0205.7158-.0694,1.0732-.1026.211-.0195.4278-.041.3985-.331C3.01748,52.50713,2.78408,52.62043,2.62778,52.63313Z" fill="#fff" fill-rule="evenodd"/>
          <path d="M5.53408,55.21523c-.1563.0136-.3145.0273-.5098.0459-.0508,0-.1416-.002-.2314,0-.6446.0156-.6358.0166-.5586-.6553.0703-.625.12112-1.2539.1767-1.8809.0108-.1113.0195-.2451-.1113-.2822a.34817.34817,0,0,0-.419.1289.96567.96567,0,0,0-.0947.3877q-.1113,1.10745-.206,2.2168a2.51516,2.51516,0,0,0,.0068.4033.21446.21446,0,0,0,.2207.21,10.5871,10.5871,0,0,0,1.8076-.1768c.126-.0146.1338-.1631.1182-.2793C5.71668,55.21523,5.62778,55.20733,5.53408,55.21523Z" fill="#fff" fill-rule="evenodd"/>
        </g>
        <path d="M91.0868,23.90363c-1.0313.1328-2.0596.291-3.0928.3975a4.69082,4.69082,0,0,0-3.0049,1.4043,8.82648,8.82648,0,0,0-2.498,4.9463c-.3584,2.5049-.6367,5.0215-.9356,7.5342a5.11683,5.11683,0,0,0-.1103,1.5312c.6523-.4473,1.3096-.7969,1.584-1.5557a3.67716,3.67716,0,0,1,.2363-.4873c.2275-.4238.418-.4941.8799-.3349a.90663.90663,0,0,0,1.2041-.9795,14.18965,14.18965,0,0,1-.0918-2.9776.47376.47376,0,0,1,.4795-.5341c.3828-.0381.7607-.1094,1.1435-.1436.4834-.0439.5215.0029.4649.4639q-.20955,1.71525-.416,3.4316c-.0537.4473-.0274.4854.4023.4375.6504-.0732,1.2979-.1826,1.9483-.2578.8603-.0996.8505-.0937.9541-.9668.2597-2.1758.5312-4.3516.7959-6.5273.1962-1.6153.3974-3.2305.582-4.8477C91.6766,23.87533,91.622,23.83433,91.0868,23.90363Zm-3.083,3.7881c-.0733.625-.1524,1.2481-.2158,1.874-.0264.2579-.1153.4092-.4024.4356-.4463.04-.8916.1084-1.3359.1728-.1924.0284-.332-.0156-.2842-.2343.2285-1.0489,1.3106-2.7354,2.2149-2.9385A1.09957,1.09957,0,0,1,88.0038,27.69173Z" fill="#fff" fill-rule="evenodd"/>
        <path d="M38.454,15.74443c-1.1211.1407-2.2412.2872-3.3633.4327a3.69047,3.69047,0,0,0-1.69728.6416,8.16978,8.16978,0,0,0-3.32422,5.6269c-.3877,2.4551-.625,4.9336-.92578,7.4024-.05272.4384-.09082.8789-.13472,1.3095.0722.0196.1025.0371.1152.0293,1.1943-.8525,2.3877-1.7099,3.584-2.5595a.49736.49736,0,0,0,.1738-.5938,12.95995,12.95995,0,0,1-.0928-3.0439c.0069-.2627.1016-.4287.3819-.4639.4707-.0586.9414-.125,1.4121-.1895.2119-.0293.291.0821.2793.2725-.01078.1807-.0342.3604-.0557.54-.124,1.0332-.24308,2.0665-.3779,3.0977-.0391.3047.0557.418.3643.375q1.04145-.14655,2.0849-.2705c.71-.085.7031-.0811.7852-.8213.1172-1.0566.2422-2.1113.3691-3.167q.4863-4.04.9776-8.0801C39.08088,15.68683,39.05748,15.66833,38.454,15.74443Zm-2.93558,3.5137c-.07422.6319-.163,1.3028-.22852,1.9766-.0293.3183-.14548.4863-.4892.5117-.4278.0313-.8496.1152-1.2735.1709-.25878.0332-.334-.1025-.25578-.3252a5.1913,5.1913,0,0,1,1.76848-2.6631c.1211-.0879.2344-.2353.418-.1543C35.53208,18.80793,35.54188,18.91933,35.5184,19.25813Z" fill="#fff" fill-rule="evenodd"/>
        <path d="M30.22448,33.57363a1.82368,1.82368,0,0,0-1.9658-1.4639q-2.85791.36915-5.7168.7344c-.6406.082-.6494.0752-.72948.7353-.15332,1.2568-.292,2.5147-.44532,3.7705-.2979,2.4453-.6055,4.8887-.9024,7.335-.1172.9619-.2187,1.9248-.3281,2.8887.04882.0302.0967.0615.1445.0917q1.8546-1.352,3.708-2.7031a.404.404,0,0,0,.1534-.4687,13.86505,13.86505,0,0,1,.0761-4.3877c.0469-.3379.1797-.4658.501-.5039a7.44726,7.44726,0,0,0,1.8945-.5117A5.60711,5.60711,0,0,0,29.7704,36.263,4.217,4.217,0,0,0,30.22448,33.57363Zm-4.0049,3.2861a3.1083,3.1083,0,0,1-1.7158,1.3428,13.73024,13.73024,0,0,1,.1924-2.1495c.1035-.9726.1767-1.0117,1.15522-1.0439.43848-.0156.60358.1211.668.5645A1.89126,1.89126,0,0,1,26.21958,36.85973Z" fill="#fff" fill-rule="evenodd"/>
        <path d="M46.94418,20.23863c-.04-1.541-.9179-2.7481-2.8095-2.4111-.53328.0947-1.0762.1279-1.61428.1865-.62212.0674-.625.0664-.709.6592-.14452,1.0263-.29,2.0546-.42972,3.083-.15228,1.1406-.3066,2.2802-.4424,3.4228-.0537.4522-.0146.4776.4258.4307.7627-.082,1.5235-.1817,2.2862-.2598a2.73018,2.73018,0,0,0,1.8212-.9375,5.81019,5.81019,0,0,0,1.4717-3.9023C46.94418,20.41933,46.94718,20.32843,46.94418,20.23863Zm-2.959,3.2187a1.95949,1.95949,0,0,1-.50878.3301c-.36712.1641-.50192.0645-.456-.334.07128-.6064.16208-1.209.24318-1.8134q.12-.87165.2392-1.7432a.52641.52641,0,0,1,.8594-.4209,1.06971,1.06971,0,0,1,.4766.6377,3.37692,3.37692,0,0,1,.1767,1.0683A3.12622,3.12622,0,0,1,43.98518,23.45733Z" fill="#fff" fill-rule="evenodd"/>
        <path d="M68.7997,15.02183c-.7197.0684-1.4385.1494-2.1553.2471a2.34907,2.34907,0,0,0-1.31053.663,5.20417,5.20417,0,0,0-1.6123,2.9942c-.2129,1.3154-.3487,2.6435-.5186,3.9668q1.06935-.1977,2.1397-.3975a9.73308,9.73308,0,0,1-.0459-1.8086c.01563-.3271.1621-.4629.49413-.5.8828-.0966.8574-.1142.7549.7442-.0528.4482-.2881.8965-.0615,1.3593h0q.8994-.1626,1.7978-.3261c.0127-.1348.0195-.2705.0381-.4033q.41595-3.05865.8359-6.1163C69.2138,15.01983,69.1942,14.98473,68.7997,15.02183Zm-1.918,3.2773c-.0195.2647-.2314.3213-.4404.3028-.2549-.0235-.5811.2343-.7441-.0283-.14463-.2315.1074-.4991.2265-.7305a2.4152,2.4152,0,0,1,1.0733-1.0967A5.83139,5.83139,0,0,1,66.8817,18.29913Z" fill="#fff" fill-rule="evenodd"/>
        <path d="M47.73428,49.39683a1.19012,1.19012,0,0,0-1.292-1.1836c-.3575.001-.71488.083-1.0743.0977-.2792.0087-.39058.1289-.4169.4003-.09568.9805-.2071,1.959-.3135,2.9434a.80665.80665,0,0,0,.2236.0586c.3574-.0293.7158-.0654,1.0733-.1035A1.84584,1.84584,0,0,0,47.73428,49.39683Zm-1.958,1.6426c-.2715.0097-.3672-.084-.3331-.3506.0547-.4258.0918-.8535.1426-1.2803.0655-.542.0889-.5596.6231-.5605.5468-.002.7744.207.8281.7578A1.23959,1.23959,0,0,1,45.77628,51.03943Z" fill="#fff" fill-rule="evenodd"/>
        <path d="M27.08878,51.24643a1.26032,1.26032,0,0,0-1.19238-1.0156,2.28465,2.28465,0,0,0-1.40142.4023c-.0918.127-.1943.2481-.2754.3828a2.088,2.088,0,0,0-.1377,2.0723c.2979.6377.9004.6816,1.5039.6885A1.98053,1.98053,0,0,0,27.08878,51.24643Zm-1.0665,1.6484a.84191.84191,0,0,1-.873.2256.73973.73973,0,0,1-.5215-.7197,1.83983,1.83983,0,0,1,.0889-.8672,1.0094,1.0094,0,0,1,1.1113-.6904c.4219.1006.5977.3984.5899,1.0068A1.3049,1.3049,0,0,1,26.02228,52.89483Z" fill="#fff" fill-rule="evenodd"/>
        <path d="M51.38368,48.40273a1.17058,1.17058,0,0,0-.9932-.6104,1.87661,1.87661,0,0,0-2.0283,2.3008,1.28967,1.28967,0,0,0,1.4277,1.2226,1.65488,1.65488,0,0,0,1.5489-.9033A2.0927,2.0927,0,0,0,51.38368,48.40273Zm-.9678,2.0937a.80857.80857,0,0,1-.8848.1543.75245.75245,0,0,1-.455-.6992,1.89115,1.89115,0,0,1,.0888-.8682,1.03157,1.03157,0,0,1,1.1192-.6855c.4131.1006.5957.417.5859,1.0127A1.288,1.288,0,0,1,50.41588,50.49643Z" fill="#fff" fill-rule="evenodd"/>
        <path d="M44.05748,49.90363a1.32232,1.32232,0,0,0-1.502-1.3564,1.59227,1.59227,0,0,0-1.4892.8799,2.02849,2.02849,0,0,0-.0186,2.0634,1.12391,1.12391,0,0,0,.8164.543A1.85338,1.85338,0,0,0,44.05748,49.90363Zm-1.1074,1.2803a.88085.88085,0,0,1-.8643.249.77245.77245,0,0,1-.5605-.6875,1.596,1.596,0,0,1,.1338-.9853.99807.99807,0,0,1,1.0859-.6133c.3906.0762.6191.4512.60942,1.0693A1.47322,1.47322,0,0,1,42.95008,51.18393Z" fill="#fff" fill-rule="evenodd"/>
        <path d="M32.18928,50.42613a.96239.96239,0,0,0-.8935-.627c-.4278-.0029-.8565.0352-1.2842.0733-.1504.0137-.3271.0429-.3496.2519-.1025.9659-.2061,1.9326-.3027,2.8985-.0157.1533.0439.2666.2314.2451.1123-.0127.2256-.0186.3643-.0303.2861-.039.6005-.0596.915-.1045A1.93748,1.93748,0,0,0,32.18928,50.42613Zm-.7314,1.8164c-.3106.4873-.8389.4551-1.3223.5137-.1386.0166-.1943-.0977-.1806-.2217.0752-.668.1279-1.3399.2451-2.001.07132-.4072.4775-.2012.6689-.2832a.6834.6834,0,0,1,.7676.3945A1.61409,1.61409,0,0,1,31.45788,52.24253Z" fill="#fff" fill-rule="evenodd"/>
        <path d="M91.2177,44.92413a1.4558,1.4558,0,0,0-1.5391,1.4473,1.5086,1.5086,0,0,0,3.0166.0566A1.44288,1.44288,0,0,0,91.2177,44.92413Zm-.042,2.669a1.11757,1.11757,0,0,1-1.086-1.2158,1.09721,1.09721,0,0,1,1.1416-1.1504,1.13146,1.13146,0,0,1,1.0674,1.1709A1.15919,1.15919,0,0,1,91.1757,47.59313Z" fill="#fff" fill-rule="evenodd"/>
        <path d="M13.92178,51.62433a1.654,1.654,0,0,0-1.6866.0596,1.83421,1.83421,0,0,0-.9189,1.7051,1.40967,1.40967,0,0,0,1.91312,1.5127c.29288-.0713.541-.1787.79778.1006.1075.1171.4385-.1475.3448-.2305-.3877-.3496-.0332-.6055.06642-.8945a1.949,1.949,0,0,0,.14738-.7657A1.45041,1.45041,0,0,0,13.92178,51.62433Zm-.17,2.0352c-.06438.1738-.0713.1709-.3535.1279-.2295-.0127-.4638-.0058-.3603.3369.082.2705-.1075.2686-.2491.2686a.67723.67723,0,0,1-.6611-.4893,1.47513,1.47513,0,0,1,.26662-1.5234.84242.84242,0,0,1,.91408-.2891.782.782,0,0,1,.5488.7041A1.56123,1.56123,0,0,1,13.75178,53.65953Z" fill="#fff" fill-rule="evenodd"/>
        <path d="M23.38948,51.23963a.87643.87643,0,0,0-.9638-.5869c-.4278.0117-.8545.0859-1.28128.1181-.23442.0186-.29.1514-.31152.3565-.082.832-.1758,1.6621-.2686,2.5127,0,.0263-.00088.0722,0,.1162.0039.1679-.08688.3886.21.3994.2354.0068.4697.0049.4775-.3252a.89221.89221,0,0,1,.0118-.1358c.1396-.8261-.0235-.7959.873-.8681a1.55593,1.55593,0,0,0,.9356-.3477A1.1464,1.1464,0,0,0,23.38948,51.23963Zm-1.0556.9863a2.43869,2.43869,0,0,1-.876.0391l.0303-.3702c.042-.5771.165-.6933.7177-.6748.2686.0088.4854.0869.5254.3975A.50738.50738,0,0,1,22.33388,52.22593Z" fill="#fff" fill-rule="evenodd"/>
        <path d="M91.7889,46.24353c.1905-.1563.0411-.4854-.2197-.5948a1.66019,1.66019,0,0,0-.7304-.0537c-.0967.003-.1934.0518-.1924.1465a3.46407,3.46407,0,0,0,.0927,1.4883c.2901-.1777.0694-.5127.2823-.6631.3642.0879.2949.5703.7509.6123C91.5751,46.84113,91.4052,46.55893,91.7889,46.24353Zm-.6337.0332c-.1729-.001-.2373-.0918-.2207-.252.0175-.1894.1621-.1855.2949-.1787.1386.0088.2685.043.2851.2285C91.4696,46.25713,91.3212,46.27773,91.1552,46.27673Z" fill="#fff" fill-rule="evenodd"/>
        <path d="M91.40321,3.8519A10.49792,10.49792,0,0,0,80.43842.36069C78.26258.88119,76.118,1.5394,73.95893,2.13608Q66.07807,4.31723,58.1952,6.49838,51.0658,8.4686,43.93348,10.433c-.18951.05273-.377.11523-.56549.17285.01367.043.0274.08594.0401.12891q2.55615-.51123,5.11133-1.02344c1.707-.34375,3.412-.69336,5.12006-1.03516,1.70709-.34375,3.4151-.67969,5.12213-1.02344q2.59424-.52148,5.18646-1.0498c1.70715-.34668,3.41022-.71484,5.12115-1.03809,1.68561-.31738,3.35345-.74219,5.15326-.98828-.27435.48535-.48138.85938-.69818,1.22754-.25.42578-.30859,1.01563-.71582,1.28223a4.93835,4.93835,0,0,1-1.41406.44531q-10.418,2.811-20.83893,5.61816c-.4892.13184-.97162.28809-1.458.43262a.36074.36074,0,0,0,.2901.05859c1.751-.34961,3.501-.707,5.25189-1.05371q7.08838-1.40771,14.17584-2.80859c1.043-.20605,2.08887-.39258,3.12787-.61328.31842-.06738.41315.01367.39075.32324-.03131.45117-.049.9043-.06061,1.35645-.0166.66406-.01562.66211-.64941.80176Q59.79667,14.2601,47.97157,16.87729a9.34434,9.34434,0,0,0-1.74908.45313,4.93074,4.93074,0,0,0,.875-.02246c2.01862-.24707,4.03418-.50977,6.05469-.74707,2.58209-.30469,5.168-.58594,7.75-.88672q5.66162-.66064,11.31842-1.33594c.52441-.0625.52441-.05664.71393.43848a10.92547,10.92547,0,0,0,3.90326,5.09766c.11523.083.31354.11328.27344.31934-.082.12012-.20209.1084-.31152.12891-1.73236.32422-3.46967.63672-5.19922.98047-1.10645.21875-2.19049.54688-3.31836.66113-.6123-.26855-1.17578.10059-1.76373.13965a9.391,9.391,0,0,1-1.18359.22363,4.83752,4.83752,0,0,0-2.13184.56543,2.75071,2.75071,0,0,1-1.00879.16309.46676.46676,0,0,0-.44629-.08594c-.84082.168-1.7002.23926-2.52832.47852-.21967.10156-.4707.10352-.6875.21387-.02435.02344-.04779.04883-.07318.07227a.34094.34094,0,0,1-.23047.12012c-1.53125.28027-3.0625.55859-4.59283.8457q-3.15958.59473-6.31738,1.2002c-.206.18262-.48041-.00391-.69434.13281a.19532.19532,0,0,0-.11816.01563c-.164.14355-.39062,0-.55853.12207a.34468.34468,0,0,0-.12207.0127c-.1651.14453-.39062.00488-.5625.11816-.083.01074-.167.01953-.25.0293-.168.125-.38873-.01074-.55469.11621a.2897.2897,0,0,0-.126.01172c-.165.1377-.38568.00391-.5556.11523h-.00879c.09961.37988.3623.19434.5791.16406.0849-.00488.1709-.00977.25586-.01562.25873-.16406.56934.02051.832-.11914H45.495l.05859-.01367c.30658-.17383.65918.02148.9707-.12012.98828-.11133,1.97748-.21,2.96478-.335,3.0733-.38672,6.14459-.78906,9.21777-1.17285,3.43359-.42871,6.86823-.83984,10.30182-1.2666,3.54492-.43945,7.08984-.89258,10.63385-1.334,1.7724-.2207,3.5625-.33984,5.31537-.66211a10.64484,10.64484,0,0,0,8.46777-7.19531,11.21111,11.21111,0,0,0,.5166-3.94531A9.78787,9.78787,0,0,0,91.40321,3.8519ZM82.93049,21.23862a10.16577,10.16577,0,1,1,10.166-10.16553A10.16569,10.16569,0,0,1,82.93049,21.23862Z" fill="#fff"/>
      </g>
    </g>
  </g>
</svg>
