<svg xmlns="http://www.w3.org/2000/svg" viewBox="0 0 394.30114 152.6666">
  <title>Recurso 1</title>
  <g id="Capa_2" data-name="Capa 2">
    <g id="Layer_1" data-name="Layer 1">
      <g>
        <path d="M40.224,76.4106s18.729,10.066,28.36,22.927c0,0,14.331-17.785,27.782-22.927,0,0-22.695,24.299-20.694,39.903,1.999,15.604,4.363,22.12,16.538,36.353,0,0-11.994-2.742-23.08-18.69,0,0-9.632,14.918-24.717,18.69,0,0,15.516-11.384,17.086-35.493,1.569-24.113-21.275-40.763-21.275-40.763" fill="#7faf48"/>
        <path d="M111.66787,73.2802s.692,7.927.786,14.852c0,0,7.023-2.768,12.906-1.473,0,0-11.507,3.164-14.711,9.292-3.198,6.123-4.014,9.042-3.392,17.06,0,0-3.42-3.809-3.24-12.196,0,0-7.008,3.146-13.107.971,0,0,7.606-.269,14.144-8.64a31.58017,31.58017,0,0,0,6.614-19.866" fill="#f5c12f"/>
        <path d="M120.73907,81.5937a3.24266,3.24266,0,1,1-.835-4.507,3.24176,3.24176,0,0,1,.835,4.507" fill="#f5c12f"/>
        <path d="M75.94666,73.3006a7.6515,7.6515,0,1,1-7.651-7.652,7.64976,7.64976,0,0,1,7.651,7.652" fill="#7faf48"/>
        <path d="M89.54,57.2261c4.762,4.194,8.677,6.975,13.483,7.132,3.77.121,6.22-3.117,6.266-7.41a.186.186,0,0,1,.171-.187.19655.19655,0,0,1,.208.161c2.49,12.818-.691,23.148-10.002,32.508a.18892.18892,0,0,1-.255.007.206.206,0,0,1-.039-.039.19895.19895,0,0,1-.005-.216c4.784-7.416,4.882-14.02.311-20.791-2.667-3.946-6.589-7.535-10.386-10.876a.20143.20143,0,0,1-.022-.272.18776.18776,0,0,1,.27-.017" fill="#c5347c"/>
        <path d="M99.13607,54.1987a3.71266,3.71266,0,1,0,5.052,1.064,3.6559,3.6559,0,0,0-5.052-1.064" fill="#c5347c"/>
        <path d="M44.80617,57.2261c-4.764,4.194-8.677,6.975-13.481,7.132-3.774.121-6.22-3.117-6.269-7.41a.1911.1911,0,0,0-.176-.187.19581.19581,0,0,0-.204.161c-2.492,12.818.692,23.148,10.002,32.508a.18763.18763,0,0,0,.254.007.17011.17011,0,0,0,.041-.039.19889.19889,0,0,0,.002-.216c-4.784-7.416-4.879-14.02-.309-20.791,2.664-3.946,6.589-7.535,10.383-10.876a.19207.19207,0,0,0,.024-.272.18441.18441,0,0,0-.267-.017" fill="#1b8cc2"/>
        <path d="M35.209,54.1987a3.71291,3.71291,0,1,1-5.054,1.064,3.65531,3.65531,0,0,1,5.054-1.064" fill="#1b8cc2"/>
        <path d="M115.14457,52.34261c5.532,3.105,9.939,5.011,14.672,4.155,3.712-.667,5.438-7.79,4.585-11.999a.1916.1916,0,0,1,.135-.219.198.198,0,0,1,.234.115c5.111,12.014,4.933,27.689-2.217,38.787a.188.188,0,0,1-.25.062.3627.3627,0,0,1-.045-.031.20694.20694,0,0,1-.046-.212,19.60615,19.60615,0,0,0-4.823-21.859c-3.433-3.3-8.019-5.991-12.426-8.465a.19676.19676,0,0,1-.081-.263.18937.18937,0,0,1,.262-.071" fill="#1b8cc2"/>
        <path d="M123.89187,47.37621a3.71436,3.71436,0,1,0,5.162-.014,3.6542,3.6542,0,0,0-5.162.014" fill="#1b8cc2"/>
        <path d="M23.58477,50.15331c-5.657,2.874-10.14,4.594-14.833,3.546-3.678-.824-5.113-8.011-4.086-12.181a.18647.18647,0,0,0-.125-.223.19474.19474,0,0,0-.236.102c-5.605,11.794-6.077,27.463.609,38.847a.1813.1813,0,0,0,.243.073.1418.1418,0,0,0,.045-.03.19815.19815,0,0,0,.059-.209,19.58585,19.58585,0,0,1,5.727-21.638c3.565-3.156,8.26-5.658,12.764-7.945a.19638.19638,0,0,0,.091-.258.18639.18639,0,0,0-.258-.084" fill="#c5347c"/>
        <path d="M15.05087,44.8293a3.71412,3.71412,0,1,1-5.159-.23,3.6543,3.6543,0,0,1,5.159.23" fill="#c5347c"/>
        <path d="M20.38247,77.3049s.855,7.915,2.102,14.727c0,0-7.427-1.359-12.946,1.05,0,0,11.899.879,16.227,6.271,4.321,5.392,5.686,8.096,6.629,16.085,0,0,2.617-4.402.821-12.595,0,0,7.481,1.733,13.045-1.582,0,0-7.513,1.205-15.546-5.742a31.569,31.569,0,0,1-10.332-18.214" fill="#793983"/>
        <path d="M13.089,87.21651a3.24191,3.24191,0,1,0-.052-4.584,3.2434,3.2434,0,0,0,.052,4.584" fill="#793983"/>
        <path d="M87.86047,0s-6.403,6.095-12.352,10.972c0,0,7.272,4.181,10.219,10.184,0,0-10.719-7.796-18.254-6.333-7.538,1.467-10.635,2.778-17.169,8.874,0,0,.942-5.611,8.346-11.264,0,0-7.586-3.905-9.921-10.71,0,0,5.5,6.418,17.301,6.296A35.0656,35.0656,0,0,0,87.86047,0" fill="#d14e2f"/>
        <path d="M43.46357,32.766a26.54331,26.54331,0,0,0-9.24,11.395c-3.144-8.58,4.922-15.448,14.755-13.612" fill="#7faf48" fill-rule="evenodd"/>
        <path d="M48.97877,30.54919c-6.275,4.13-5.099,13.452-13.199,13.705a29.24922,29.24922,0,0,1,6.351-9.41,21.69213,21.69213,0,0,1,5.366-3.679" fill="#7faf48" fill-rule="evenodd"/>
        <path d="M95.61437,30.92351a26.56213,26.56213,0,0,1,9.24,11.396c3.144-8.582-4.922-15.45-14.758-13.613" fill="#7faf48" fill-rule="evenodd"/>
        <path d="M90.09657,28.70641c6.28,4.127,5.103,13.453,13.203,13.704a29.30221,29.30221,0,0,0-6.353-9.41,21.846,21.846,0,0,0-5.365-3.68" fill="#7faf48" fill-rule="evenodd"/>
        <path d="M83.36207,62.86591a26.54719,26.54719,0,0,1,9.239,11.395c3.145-8.582-4.923-15.449-14.755-13.613" fill="#7faf48" fill-rule="evenodd"/>
        <path d="M77.84707,60.64821c6.275,4.13,5.098,13.452,13.198,13.704a29.27549,29.27549,0,0,0-6.35-9.408,21.68443,21.68443,0,0,0-5.367-3.68" fill="#7faf48" fill-rule="evenodd"/>
        <path d="M53.29167,62.86591a26.53178,26.53178,0,0,0-9.241,11.395c-3.144-8.582,4.921-15.449,14.753-13.613" fill="#7faf48" fill-rule="evenodd"/>
        <path d="M58.80317,60.64821c-6.273,4.13-5.098,13.452-13.197,13.704a29.28149,29.28149,0,0,1,6.353-9.408,21.63534,21.63534,0,0,1,5.365-3.68" fill="#7faf48" fill-rule="evenodd"/>
        <path d="M89.57087,21.3175s7.85,1.322,14.574,2.974c0,0-.914-7.494,1.82-12.86,0,0,.168,11.934,5.293,16.572,5.122,4.639,7.74,6.16,15.66,7.577,0,0-4.553,2.35-12.621.068,0,0,1.282,7.575-2.356,12.93,0,0,1.65-7.431-4.807-15.862a31.57335,31.57335,0,0,0-17.563-11.399" fill="#793983"/>
        <path d="M99.90028,14.6275a3.24241,3.24241,0,1,1-4.573-.323,3.23987,3.23987,0,0,1,4.573.323" fill="#793983"/>
        <path d="M111.63847,18.87131a27.49107,27.49107,0,0,0,10.304,11.115c-9.233,1.961-15.078-7.289-11.764-17.078" fill="#7faf48" fill-rule="evenodd"/>
        <path d="M110.17817,12.9081c3.307,7.019,13.014,7.176,12.086,15.5-5.758-3.723-9.647-7.678-11.672-13.895" fill="#7faf48" fill-rule="evenodd"/>
        <path d="M119.96807,97.2005a27.0036,27.0036,0,0,0-8.037,12.579c-4.16-8.315,3.207-16.185,13.357-15.452" fill="#7faf48" fill-rule="evenodd"/>
        <path d="M125.28806,94.3273c-5.869,4.894-3.615,14.186-11.776,15.367,2.121-6.413,4.924-11.1,10.348-14.573" fill="#7faf48" fill-rule="evenodd"/>
        <path d="M16.64887,101.12111a27.03257,27.03257,0,0,1,8.04,12.577c4.156-8.316-3.211-16.182-13.363-15.452" fill="#7faf48" fill-rule="evenodd"/>
        <path d="M11.32627,98.2459c5.875,4.896,3.619,14.186,11.778,15.369-2.123-6.415-4.925-11.101-10.35-14.575" fill="#7faf48" fill-rule="evenodd"/>
        <path d="M45.58217,23.67441a29.06677,29.06677,0,0,0-13.155.418s.597-7.525-2.362-12.769c0,0,.338,11.927-4.586,16.78-4.923,4.851-7.472,6.484-15.325,8.233,0,0,4.647,2.157,12.611-.466,0,0-.958,7.62,2.905,12.817,0,0-1.918-7.926,4.175-16.628a19.75988,19.75988,0,0,1,15.737-8.385" fill="#f5c12f"/>
        <path d="M36.25947,14.258a3.24234,3.24234,0,1,0,4.557-.517,3.2427,3.2427,0,0,0-4.557.517" fill="#f5c12f"/>
        <path d="M22.96967,18.8571a29.88245,29.88245,0,0,1-10.707,12.578c10.148,1.711,16.086-8.632,12.027-19.139" fill="#7faf48" fill-rule="evenodd"/>
        <path d="M24.28957,12.2961c-3.277,7.797-13.84,8.418-12.45,17.437,6.1-4.32,10.154-8.805,12.068-15.668" fill="#7faf48" fill-rule="evenodd"/>
        <path d="M79.97727,23.30659s7.961,8.619,6.423,19.96c-1.546,11.34-16.911,15.998-16.911,15.998s10.09-7.221,11.473-12.318c0,0,1.047-2.296-1.725-3.998-2.79-1.71-6.764,1.229-9.039,4.976a14.57708,14.57708,0,0,1,6.441-9.355c3.504-2.26,6.202-6.705,3.338-15.263" fill="#c5347c"/>
        <path d="M56.61157,23.30659s-7.958,8.619-6.419,19.96c1.542,11.34,16.91,15.998,16.91,15.998s-10.093-7.221-11.476-12.318c0,0-1.046-2.296,1.728-3.998,2.79-1.71,6.761,1.229,9.037,4.976a14.57805,14.57805,0,0,0-6.44-9.355c-3.505-2.26-6.202-6.705-3.34-15.263" fill="#c5347c"/>
        <path d="M58.54917,31.5542a2.70786,2.70786,0,1,0,2.706-2.622,2.66414,2.66414,0,0,0-2.706,2.622" fill="#c5347c"/>
        <path d="M72.63,31.5542a2.70837,2.70837,0,1,0,2.705-2.622,2.6639,2.6639,0,0,0-2.705,2.622" fill="#c5347c"/>
        <path d="M172.05728,78.89059a2.43088,2.43088,0,0,1,.763,1.656,2.26364,2.26364,0,0,1-.663,1.619,2.18522,2.18522,0,0,1-1.655.694,5.66358,5.66358,0,0,1-1.057.068c-.972.045-1.945.068-2.914.068h-2.978q-2.121,0-4.271-.068c-1.434-.041-2.924-.154-4.468-.33a2.61517,2.61517,0,0,1-1.522-.727,2.06078,2.06078,0,0,1-.595-1.526q0-3.639.033-7.276.03-3.645.099-7.483.129-6.42.161-13.007.03749-6.585-.293-13.402a2.40321,2.40321,0,0,1,.661-1.788,2.618,2.618,0,0,1,1.72-.663c1.238.041,2.461.055,3.675.032q1.824-.03149,3.672-.032,3.70649-.13651,7.548,0a2.1846,2.1846,0,0,1,1.655.695,2.24,2.24,0,0,1-.099,3.274,2.27767,2.27767,0,0,1-1.621.665q-3.708-.132-7.413,0h-5.033q.201,5.826.198,11.351,0,5.5275-.132,10.956l8.868-.198a2.0802,2.0802,0,0,1,1.69.626,2.22684,2.22684,0,0,1,.694,1.623,2.04678,2.04678,0,0,1-.595,1.621,2.4285,2.4285,0,0,1-1.654.763l-9.069.198q-.066,2.5185-.099,4.996-.033,2.4855-.031,4.867,3.17251.2685,6.088.232,2.91149-.033,5.89-.099h1.126a2.04215,2.04215,0,0,1,1.621.595" fill="#793983"/>
        <path d="M184.73458,82.996a9.9119,9.9119,0,0,1-3.641-.727,9.59132,9.59132,0,0,1-4.104-3.18,11.49274,11.49274,0,0,1-2.185-5.626,2.133,2.133,0,0,1,.465-1.688,2.32156,2.32156,0,0,1,1.588-.894,1.996,1.996,0,0,1,1.656.496,2.45867,2.45867,0,0,1,.857,1.555,5.88432,5.88432,0,0,0,1.491,3.608,6.668,6.668,0,0,0,2.02,1.425,4.84552,4.84552,0,0,0,2.283.361,3.32286,3.32286,0,0,0,1.887-.693,3.17184,3.17184,0,0,0,.993-3.242,24.43123,24.43123,0,0,0-2.517-6.884q-1.983-3.84-4.17-7.814-2.382-4.17-4.335-8.007a20.40308,20.40308,0,0,1-2.282-7.02,7.35928,7.35928,0,0,1,.429-3.769,6.51927,6.51927,0,0,1,2.217-2.85,7.52655,7.52655,0,0,1,3.773-1.388,7.77875,7.77875,0,0,1,4.104.73,11.04425,11.04425,0,0,1,4.899,4.37,16.24684,16.24684,0,0,1,1.654,3.605,22.03228,22.03228,0,0,1,.927,4.402,2.10252,2.10252,0,0,1-.495,1.689,2.42562,2.42562,0,0,1-1.558.893,2.106,2.106,0,0,1-1.687-.495,2.416,2.416,0,0,1-.895-1.559,16.61922,16.61922,0,0,0-.858-3.903,11.69712,11.69712,0,0,0-1.291-2.586,6.27867,6.27867,0,0,0-1.39-1.49,7.27359,7.27359,0,0,0-1.159-.693,3.029,3.029,0,0,0-3.244.137,2.43666,2.43666,0,0,0-.857,2.381,19.838,19.838,0,0,0,2.116,5.989q1.785,3.54449,3.904,7.249,2.382,4.236,4.535,8.408a26.687,26.687,0,0,1,2.747,7.809,8.76554,8.76554,0,0,1-.333,4.436,7.71992,7.71992,0,0,1-2.317,3.245,7.82669,7.82669,0,0,1-4.3,1.652,4.31465,4.31465,0,0,1-.927.068" fill="#793983"/>
        <path d="M197.775,89.41492h-.135a2.36994,2.36994,0,0,1-1.587-.762,2.05893,2.05893,0,0,1-.598-1.619q.13348-4.371.234-10.227.099-5.859.132-12.281.033-6.42-.066-13.04-.099-6.615-.3-12.509a2.14894,2.14894,0,0,1,.598-1.688,2.34822,2.34822,0,0,1,1.587-.762,13.85181,13.85181,0,0,1,6.091,1.057,15.81019,15.81019,0,0,1,4.833,3.245,18.42756,18.42756,0,0,1,3.179,4.7,18.9925,18.9925,0,0,1,1.652,5.693,18.14224,18.14224,0,0,1-.133,6.189,16.935,16.935,0,0,1-2.116,5.53,14.839,14.839,0,0,1-4.505,4.797,18.22329,18.22329,0,0,1-6.35,2.678c0,.886-.013,2.108-.036,3.675-.024,1.568-.041,3.179-.066,4.835-.022,1.652-.044,3.244-.064,4.765-.027,1.519-.055,2.68-.103,3.475a2.25515,2.25515,0,0,1-2.247,2.249m2.381-48.124q.4005,13.04551.198,24.295a11.50365,11.50365,0,0,0,4.47-2.351,12.25179,12.25179,0,0,0,2.747-3.44,11.59451,11.59451,0,0,0,1.255-3.972,15.00907,15.00907,0,0,0,0-4.007,16.15845,16.15845,0,0,0-.925-3.506,13.20914,13.20914,0,0,0-1.751-3.177,11.22023,11.22023,0,0,0-2.584-2.485,8.49777,8.49777,0,0,0-3.41-1.357" fill="#793983"/>
        <path d="M228.35388,82.86411a5.93024,5.93024,0,0,1-1.055-.068,9.77228,9.77228,0,0,1-4.703-1.82,13.33838,13.33838,0,0,1-3.772-4.337,21.12576,21.12576,0,0,1-2.516-6.485,25.14754,25.14754,0,0,1-.728-4.203q-.198-2.2215-.264-4.602a54.06457,54.06457,0,0,1,.759-9.233,32.14506,32.14506,0,0,1,2.285-7.776,17.35269,17.35269,0,0,1,3.707-5.595,7.10378,7.10378,0,0,1,4.567-2.154,6.141,6.141,0,0,1,3.907.993,10.64906,10.64906,0,0,1,2.978,3.245q2.58147,4.03949,3.774,11.98a2.24966,2.24966,0,0,1-.532,1.858,2.069,2.069,0,0,1-1.654.79l-14.895.595c-.088.883-.154,1.753-.198,2.615-.044.859-.066,1.756-.066,2.682a39.03514,39.03514,0,0,0,.762,7.347,18.15714,18.15714,0,0,0,2.084,5.626q2.184,3.57749,5.034,3.905a4.74513,4.74513,0,0,0,4.002-1.487,9.63567,9.63567,0,0,0,2.551-4.865,2.22346,2.22346,0,0,1,1.024-1.456,2.06152,2.06152,0,0,1,1.753-.265,2.22174,2.22174,0,0,1,1.459,1.026,2.06415,2.06415,0,0,1,.264,1.751,14.87624,14.87624,0,0,1-1.657,4.307,12.82666,12.82666,0,0,1-2.646,3.242,9.32324,9.32324,0,0,1-6.224,2.384m-1.322-41.705h-.066a4.45728,4.45728,0,0,0-1.987,1.228,11.5902,11.5902,0,0,0-2.383,3.803,18.03666,18.03666,0,0,0-.928,2.449q-.393,1.326-.724,2.783l11.317-.467a27.67994,27.67994,0,0,0-1.326-4.932,16.9262,16.9262,0,0,0-1.323-2.747,11.71328,11.71328,0,0,0-1.091-1.354,2.01153,2.01153,0,0,0-1.489-.763" fill="#793983"/>
        <path d="M244.30587,82.996h-.132a2.30438,2.30438,0,0,1-1.555-.727,2.24,2.24,0,0,1-.63-1.592q0-2.9775.068-5.921.066-2.94749.132-5.793.26248-7.284.298-14.696a128.06356,128.06356,0,0,0-.828-15.027,2.09152,2.09152,0,0,1,.497-1.72,2.45249,2.45249,0,0,1,1.555-.861,2.09018,2.09018,0,0,1,1.69.498,2.39577,2.39577,0,0,1,.89,1.551c.09.755.158,1.488.201,2.22.043.727.109,1.469.198,2.218a11.98974,11.98974,0,0,1,1.16-1.687,9.57825,9.57825,0,0,1,1.357-1.359,12.16577,12.16577,0,0,1,8.406-2.848,2.2136,2.2136,0,0,1,1.621.698,1.99184,1.99184,0,0,1,.628,1.621,2.38454,2.38454,0,0,1-2.315,2.32,7.74206,7.74206,0,0,0-5.229,1.55,10.7516,10.7516,0,0,0-3.111,5.4,40.45334,40.45334,0,0,0-1.525,9.196q-.32849,5.30251-.594,11.652-.132,2.71651-.231,5.463-.102,2.745-.298,5.656a2.37772,2.37772,0,0,1-.695,1.556,2.10438,2.10438,0,0,1-1.558.632" fill="#793983"/>
        <path d="M280.118,41.891a21.99492,21.99492,0,0,1,1.756,9.529q-.03749,5.763-.498,13.304-.264,3.642-.465,7.646-.198,4.008-.264,8.373a2.37526,2.37526,0,0,1-2.317,2.317,2.37868,2.37868,0,0,1-1.523-.594,15.55643,15.55643,0,0,1-3.768.462,11.422,11.422,0,0,1-1.56-.101c-.506-.064-1.002-.139-1.491-.229a10.2278,10.2278,0,0,1-5.89-3.842,10.62873,10.62873,0,0,1-1.754-3.144,13.8319,13.8319,0,0,1-.762-3.669,13.29634,13.29634,0,0,1,.399-3.743,11.086,11.086,0,0,1,1.456-3.344,11.30621,11.30621,0,0,1,5.959-4.568,13.92777,13.92777,0,0,1,3.606-.727,17.87372,17.87372,0,0,1,4.007.201q.33-5.364.195-9.402a17.0868,17.0868,0,0,0-1.255-6.487,4.39592,4.39592,0,0,0-3.245-2.451,6.59962,6.59962,0,0,0-3.674.435,12.8312,12.8312,0,0,0-3.87,2.479,2.27763,2.27763,0,0,1-1.657.63,2.4071,2.4071,0,0,1-1.655-.763,2.12807,2.12807,0,0,1-.594-1.651,2.29176,2.29176,0,0,1,.793-1.589,15.713,15.713,0,0,1,5.758-3.577,12.163,12.163,0,0,1,5.827-.529,9.54976,9.54976,0,0,1,3.839,1.789,8.91508,8.91508,0,0,1,2.647,3.245M267.739,75.912q2.715,3.51,8.342,1.985.132-3.63748.297-7.016.16653-3.37351.364-6.419v-.071a12.65837,12.65837,0,0,0-5.69.202,6.53064,6.53064,0,0,0-3.71,2.781,6.98232,6.98232,0,0,0-1.123,4.335,7.32692,7.32692,0,0,0,1.52,4.203" fill="#793983"/>
        <path d="M304.34438,82.996h-.064a2.43723,2.43723,0,0,1-1.659-.764,2.13487,2.13487,0,0,1-.594-1.685q.132-3.50851.132-6.324c0-1.877-.02-4.002-.066-6.388q-.066-3.576-.265-7.28-.33-4.36949-.759-7.746a39.52051,39.52051,0,0,0-1.159-5.889,12.36438,12.36438,0,0,0-1.588-3.939q-.79353-1.0245-1.128-1.09a.47018.47018,0,0,0-.165.031.923.923,0,0,0-.295.23,6.016,6.016,0,0,0-1.029,1.358,15.36239,15.36239,0,0,0-1.324,3.308,57.5347,57.5347,0,0,0-1.39,6.091q-.693,3.8055-1.222,9.633-.33151,3.37651-.496,6.484-.16951,3.11549-.266,5.531-.1035,2.41651-.168,5.327a2.27962,2.27962,0,0,1-.659,1.619,2.10851,2.10851,0,0,1-1.59.698h-.066a2.18788,2.18788,0,0,1-1.591-.661,2.41963,2.41963,0,0,1-.724-1.59l-1.06-40.91a2.00533,2.00533,0,0,1,.628-1.619,2.481,2.481,0,0,1,1.621-.762,2.29007,2.29007,0,0,1,1.624.663,2.35144,2.35144,0,0,1,.759,1.588l.199,6.619q1.45651-4.833,3.641-6.821a5.314,5.314,0,0,1,2.185-1.256,4.58149,4.58149,0,0,1,1.853-.13,5.92153,5.92153,0,0,1,2.152.661,6.29508,6.29508,0,0,1,2.348,2.317,20.16082,20.16082,0,0,1,2.251,5.427,51.89872,51.89872,0,0,1,1.225,6.354q.49649,3.645.826,8.207.26852,3.843.33,7.45.066,3.6045.035,6.451c-.024,1.9-.054,3.444-.099,4.637q-.066,1.785-.066,1.919a2.42514,2.42514,0,0,1-.729,1.588,2.17035,2.17035,0,0,1-1.588.663" fill="#793983"/>
        <path d="M319.04116,82.9277c-1.284,0-2.561-.03-3.841-.097-1.282-.068-2.582-.142-3.904-.233a2.15325,2.15325,0,0,1-1.788-1.19,2.24655,2.24655,0,0,1-.135-2.119q1.458-3.1125,2.716-5.926,1.25551-2.811,2.414-5.495,1.15649-2.6805,2.254-5.362,1.09053-2.679,2.216-5.458,1.45651-3.642,3.011-7.447,1.55548-3.81,3.476-8.241-2.58.12749-5.298.132a45.90394,45.90394,0,0,1-5.491-.333,2.20737,2.20737,0,0,1-1.557-.793,2.09309,2.09309,0,0,1-.496-1.719,2.43987,2.43987,0,0,1,.861-1.556,1.99155,1.99155,0,0,1,1.654-.5,58.51333,58.51333,0,0,0,7.085.233q3.50551-.099,6.749-.233a2.12493,2.12493,0,0,1,2.055.993,2.7121,2.7121,0,0,1,.397,1.124,1.9936,1.9936,0,0,1-.201,1.128q-2.448,5.5605-4.335,10.13-1.88548,4.566-3.606,8.803-1.986,4.764-3.941,9.431-1.95149,4.66651-4.337,9.963,2.9805.13351,5.859.1c1.921-.022,3.782-.077,5.593-.167,1.016-.04,2.02-.077,3.011-.1.994-.022,1.957-.031,2.882-.031a2.28243,2.28243,0,0,1,1.623.661,2.19155,2.19155,0,0,1,.694,1.656,2.3716,2.3716,0,0,1-2.317,2.316c-.882,0-1.8.014-2.747.033q-1.42351.036-2.948.097-1.78349.069-3.705.136-1.923.063-3.903.064" fill="#793983"/>
        <path d="M355.446,41.891a21.99534,21.99534,0,0,1,1.756,9.529q-.033,5.763-.498,13.304-.264,3.642-.465,7.646-.198,4.008-.264,8.373a2.37526,2.37526,0,0,1-2.317,2.317,2.38073,2.38073,0,0,1-1.523-.594,15.56217,15.56217,0,0,1-3.768.462,11.422,11.422,0,0,1-1.56-.101c-.509-.064-1.004-.139-1.489-.229a10.22929,10.22929,0,0,1-5.892-3.842,10.58329,10.58329,0,0,1-1.754-3.144,13.48236,13.48236,0,0,1-.76-3.669,13.04507,13.04507,0,0,1,.399-3.743,10.98314,10.98314,0,0,1,1.454-3.344,11.29907,11.29907,0,0,1,5.956-4.568,13.991,13.991,0,0,1,3.611-.727,17.8586,17.8586,0,0,1,4.004.201q.33-5.364.198-9.402a17.03682,17.03682,0,0,0-1.262-6.487,4.38086,4.38086,0,0,0-3.24-2.451,6.60107,6.60107,0,0,0-3.675.435,12.82665,12.82665,0,0,0-3.872,2.479,2.26924,2.26924,0,0,1-1.654.63,2.39734,2.39734,0,0,1-1.654-.763,2.13259,2.13259,0,0,1-.595-1.651,2.28631,2.28631,0,0,1,.795-1.589,15.68133,15.68133,0,0,1,5.756-3.577,12.1599,12.1599,0,0,1,5.826-.529,9.54982,9.54982,0,0,1,3.839,1.789,8.91718,8.91718,0,0,1,2.648,3.245m-12.377,34.021q2.71349,3.51,8.337,1.985.13353-3.63748.3-7.016.165-3.37351.363-6.419v-.071a12.66667,12.66667,0,0,0-5.691.202,6.54034,6.54034,0,0,0-3.71,2.781,7.01568,7.01568,0,0,0-1.124,4.335,7.30352,7.30352,0,0,0,1.525,4.203" fill="#793983"/>
        <path d="M148.06316,142.4618a3.43678,3.43678,0,0,1-.494-.035,3.59809,3.59809,0,0,0-.5-.033,10.1049,10.1049,0,0,1-4.667-1.886,13.20973,13.20973,0,0,1-3.672-4.202,14.807,14.807,0,0,1-1.456-2.946,33.08792,33.08792,0,0,1-1.058-3.475,28.68628,28.68628,0,0,1-.665-4.105c-.132-1.458-.223-2.956-.262-4.502a52.64372,52.64372,0,0,1,.793-9.368,34.66882,34.66882,0,0,1,2.315-7.84,18.15294,18.15294,0,0,1,3.809-5.694,7.50461,7.50461,0,0,1,4.599-2.251,5.4721,5.4721,0,0,1,3.641.927,6.214,6.214,0,0,1,1.555,1.192,15.1554,15.1554,0,0,1,1.357,1.652q2.382,3.6405,3.575,10.659a2.31459,2.31459,0,0,1-.432,1.723,2.39107,2.39107,0,0,1-1.486.994,2.30786,2.30786,0,0,1-1.723-.435,2.12326,2.12326,0,0,1-.927-1.486,24.56369,24.56369,0,0,0-2.448-8.175q-1.5195-2.55-2.779-2.419a3.89031,3.89031,0,0,0-2.02,1.226,12.75846,12.75846,0,0,0-2.483,3.94,31.19454,31.19454,0,0,0-2.02,6.984,47.8411,47.8411,0,0,0-.694,8.303,31.44859,31.44859,0,0,0,.958,8.146,19.95417,19.95417,0,0,0,1.822,4.564q1.986,3.50851,4.899,3.842a4.55466,4.55466,0,0,0,3.873-1.456,9.63671,9.63671,0,0,0,2.48-4.767,2.44472,2.44472,0,0,1,2.848-1.722,2.3981,2.3981,0,0,1,1.421,1.059,2.23645,2.23645,0,0,1,.299,1.723,17.08993,17.08993,0,0,1-1.689,4.237,12.34979,12.34979,0,0,1-2.612,3.243,9.26091,9.26091,0,0,1-6.157,2.383" fill="#793983"/>
        <path d="M174.27638,142.46181a9.89106,9.89106,0,0,1-7.285-3.377,20.951,20.951,0,0,1-4.63-8.405,40.49665,40.49665,0,0,1-1.456-12.708q.327-9.7995,3.969-15.827a14.324,14.324,0,0,1,4.04-4.366,8.98222,8.98222,0,0,1,5.097-1.654,9.42,9.42,0,0,1,6.75,3.112,19.52311,19.52311,0,0,1,4.57,8.605,43.36411,43.36411,0,0,1,1.322,12.707q-.066,2.5845-.298,4.899a28.88953,28.88953,0,0,1-.762,4.369,25.09967,25.09967,0,0,1-2.515,6.753,13.14863,13.14863,0,0,1-3.97,4.401,8.602,8.602,0,0,1-4.832,1.491m-.265-41.705a4.61938,4.61938,0,0,0-2.747.994,9.68794,9.68794,0,0,0-2.484,2.846,27.54785,27.54785,0,0,0-2.053,4.965,30.6803,30.6803,0,0,0-1.188,8.54,35.94443,35.94443,0,0,0,1.057,10.522,16.06968,16.06968,0,0,0,3.708,7.217,5.41927,5.41927,0,0,0,3.972,1.984,4.31277,4.31277,0,0,0,2.647-1.024,9.32482,9.32482,0,0,0,2.417-3.176,23.49027,23.49027,0,0,0,1.819-5.394,45.44014,45.44014,0,0,0-.198-18.669,15.45555,15.45555,0,0,0-3.507-7.079,4.65764,4.65764,0,0,0-3.443-1.726" fill="#793983"/>
        <path d="M208.69647,142.5263h-.068a2.40439,2.40439,0,0,1-1.653-.763,2.12154,2.12154,0,0,1-.596-1.684c.088-2.34.132-4.444.132-6.324q0-2.811-.064-6.386-.069-3.576-.267-7.285-.33-4.365-.762-7.741a39.30555,39.30555,0,0,0-1.157-5.892,12.36088,12.36088,0,0,0-1.59-3.939c-.526-.684-.905-1.047-1.123-1.092a.5536.5536,0,0,0-.167.033,1.05156,1.05156,0,0,0-.298.229,6.023,6.023,0,0,0-1.024,1.36,15.13187,15.13187,0,0,0-1.324,3.31,56.45872,56.45872,0,0,0-1.392,6.088q-.69447,3.81-1.225,9.631-.33,3.3765-.498,6.489-.162,3.108-.264,5.527-.096,2.415-.165,5.329a2.2778,2.2778,0,0,1-.661,1.621,2.11092,2.11092,0,0,1-1.588.696h-.066a2.17107,2.17107,0,0,1-1.589-.663,2.39816,2.39816,0,0,1-.729-1.589l-1.059-40.907a2.01077,2.01077,0,0,1,.63-1.623,2.50158,2.50158,0,0,1,1.621-.763,2.28319,2.28319,0,0,1,1.621.663,2.37569,2.37569,0,0,1,.762,1.588l.199,6.624q1.45651-4.8345,3.641-6.819a5.33579,5.33579,0,0,1,2.183-1.26,4.667,4.667,0,0,1,1.855-.133,6.09908,6.09908,0,0,1,2.149.661,6.30632,6.30632,0,0,1,2.351,2.32,20.07094,20.07094,0,0,1,2.251,5.429,51.2898,51.2898,0,0,1,1.224,6.353q.49649,3.642.827,8.208.267,3.8385.332,7.445.066,3.615.033,6.456-.033,2.84549-.097,4.633c-.048,1.19-.07,1.835-.07,1.921a2.42767,2.42767,0,0,1-.727,1.588,2.1608,2.1608,0,0,1-1.588.661" fill="#793983"/>
        <path d="M232.58956,120.6835a2.14374,2.14374,0,0,1-.592,1.687,2.3671,2.3671,0,0,1-1.589.76c-.929.044-1.81.081-2.65.102-.836.021-1.632.056-2.385.097,0,2.077.011,4.048.037,5.924.02,1.875.042,3.567.064,5.065q.033,2.253.066,3.773c.022,1.018.033,1.656.033,1.921v.198a2.37722,2.37722,0,0,1-2.315,2.316,2.26126,2.26126,0,0,1-1.855-.926,2.09876,2.09876,0,0,1-.396-.861,5.70646,5.70646,0,0,1-.066-.927v-.595a4.71415,4.71415,0,0,0-.066-.729v-2.02c0-.771-.024-1.666-.069-2.68q0-2.313-.032-4.966-.03-2.646-.034-5.425-1.38748-.066-2.777-.1c-.925-.024-1.877-.077-2.846-.167a2.64359,2.64359,0,0,1-1.593-.826,1.95774,1.95774,0,0,1-.529-1.687,2.19813,2.19813,0,0,1,.796-1.558,2.23944,2.23944,0,0,1,1.654-.564q1.32449.135,2.615.17c.861.022,1.733.053,2.616.099q0-2.979-.035-6.588-.033-3.609-.031-6.785v-4.004c0-.95.009-1.663.031-2.152.025-.483.047-.804.069-.961a1.31573,1.31573,0,0,1,.096-.361,2.39323,2.39323,0,0,1,1.062-1.423,2.05274,2.05274,0,0,1,1.721-.234,2.34939,2.34939,0,0,1,1.39.993,2.37487,2.37487,0,0,1,.328,1.658c0,.261-.011,1.002-.031,2.214-.022,1.212-.033,2.74-.033,4.568q0,2.748.033,6.121.03,3.381.031,6.889,1.12949-.07051,2.319-.102c.796-.022,1.63-.056,2.516-.102a2.15656,2.15656,0,0,1,1.687.597,2.35262,2.35262,0,0,1,.76,1.591" fill="#793983"/>
        <path d="M236.69534,107.37861a2.1785,2.1785,0,0,1,1.654.694,2.28047,2.28047,0,0,1,.661,1.624c-.086,3.219-.141,6.203-.163,8.931q-.036,4.11-.101,8.014-.063,3.17849-.132,6.485-.066,3.3105-.13,7.084a2.11547,2.11547,0,0,1-.699,1.588,2.27394,2.27394,0,0,1-1.621.663,2.19362,2.19362,0,0,1-1.654-.698,2.27857,2.27857,0,0,1-.663-1.619q.069-3.774.134-7.119.063-3.3375.133-6.518.0645-3.9015.132-7.975.066-4.07251.134-8.905a2.22052,2.22052,0,0,1,.694-1.621,1.9982,1.9982,0,0,1,1.621-.628m.132-6.489a2.14539,2.14539,0,0,1-2.185-2.184,2.22219,2.22219,0,0,1,.628-1.587,2.15728,2.15728,0,0,1,3.11,0,2.21556,2.21556,0,0,1,.63,1.587,2.14852,2.14852,0,0,1-2.183,2.184" fill="#793983"/>
        <path d="M261.51647,115.9848q.132,2.775.299,6.785.16653,4.005.132,8.073-.03149,4.074-.363,7.547a16.20626,16.20626,0,0,1-1.192,5.261,8.71252,8.71252,0,0,1-2.647,3.377,8.96649,8.96649,0,0,1-3.974,1.723,9.12281,9.12281,0,0,1-1.916.194,11.27433,11.27433,0,0,1-3.908-.657,17.02733,17.02733,0,0,1-5.888-3.642,2.33959,2.33959,0,0,1-.798-1.624,2.19948,2.19948,0,0,1,.595-1.685,2.43142,2.43142,0,0,1,1.656-.763,2.28607,2.28607,0,0,1,1.657.628,12.53373,12.53373,0,0,0,3.939,2.584,6.86277,6.86277,0,0,0,3.804.46,4.61213,4.61213,0,0,0,3.31-2.579c.133-.31.276-.672.43-1.093a10.64279,10.64279,0,0,0,.43-1.854,30.55055,30.55055,0,0,0,.297-3.245q.102-2.01149.099-5.326v-1.888a3.06912,3.06912,0,0,0-.031-.528,5.93488,5.93488,0,0,1-.068-.628c-.02-.309-.053-1.062-.097-2.251-.441.046-.859.079-1.26.098-.396.025-.793.033-1.189.033a13.24392,13.24392,0,0,1-4.899-.861,12.026,12.026,0,0,1-5.959-4.896,16.09361,16.09361,0,0,1-2.381-9.4,18.11291,18.11291,0,0,1,.925-4.868,13.17662,13.17662,0,0,1,2.254-4.137,9.83517,9.83517,0,0,1,2.612-2.477,11.94995,11.94995,0,0,1,9.697-1.56,2.383,2.383,0,0,1,1.522-.597,2.26785,2.26785,0,0,1,1.623.668,2.17936,2.17936,0,0,1,.696,1.651q.063,3.771.231,8.206.16049,4.44.362,9.271m-13.633.727q2.90849,4.566,9.199,3.442l-.199-3.97q-.135-3.97649-.297-7.715-.165-3.73951-.231-7.112-5.09848-1.329-7.944,2.315a10.67361,10.67361,0,0,0-1.557,2.981,12.04336,12.04336,0,0,0-.628,3.405,13.45907,13.45907,0,0,0,.333,3.509,9.29234,9.29234,0,0,0,1.324,3.145" fill="#793983"/>
        <path d="M278.53024,142.46181a9.88161,9.88161,0,0,1-7.282-3.377,20.96584,20.96584,0,0,1-4.633-8.405,40.4684,40.4684,0,0,1-1.455-12.708q.33-9.7995,3.969-15.827a14.32783,14.32783,0,0,1,4.037-4.366,9.0031,9.0031,0,0,1,5.1-1.654,9.42077,9.42077,0,0,1,6.752,3.112,19.50839,19.50839,0,0,1,4.565,8.605,43.25709,43.25709,0,0,1,1.325,12.707q-.063,2.5845-.298,4.899a29.01585,29.01585,0,0,1-.762,4.369,25.0656,25.0656,0,0,1-2.516,6.753,13.09836,13.09836,0,0,1-3.971,4.401,8.594,8.594,0,0,1-4.831,1.491m-.264-41.705a4.62158,4.62158,0,0,0-2.747.994,9.65115,9.65115,0,0,0-2.48,2.846,27.00132,27.00132,0,0,0-2.058,4.965,30.86352,30.86352,0,0,0-1.189,8.54,35.97865,35.97865,0,0,0,1.057,10.522,16.10077,16.10077,0,0,0,3.71,7.217,5.414,5.414,0,0,0,3.971,1.984,4.30363,4.30363,0,0,0,2.646-1.024,9.21463,9.21463,0,0,0,2.418-3.176,23.29883,23.29883,0,0,0,1.82-5.394,45.44014,45.44014,0,0,0-.198-18.669,15.43623,15.43623,0,0,0-3.507-7.079,4.65927,4.65927,0,0,0-3.443-1.726" fill="#793983"/>
        <path d="M333.23565,141.76871a2.10856,2.10856,0,0,1-1.489.958h-.398a2.27533,2.27533,0,0,1-1.454-.531,2.11072,2.11072,0,0,1-.793-1.39c0-.042-.091-.595-.265-1.654q-.264-1.59-.795-4.304-1.19247.132-2.416.233-1.23.099-2.348.099-1.527,0-3.047-.099-1.52248-.102-2.978-.233c-.222,1.411-.398,2.583-.531,3.509-.132.926-.198,1.502-.198,1.722a2.27977,2.27977,0,0,1-.663,1.621,2.19076,2.19076,0,0,1-1.654.694,2.379,2.379,0,0,1-2.318-2.315,26.69911,26.69911,0,0,1,.333-3.011q.33-2.283.828-5.43.495-3.1455,1.123-6.751.62851-3.609,1.291-6.985.261-1.455.598-3.144c.217-1.123.451-2.282.693-3.474q.36749-1.7895.729-3.577.3615-1.7865.76-3.375.66151-2.844,1.192-4.632a11.78944,11.78944,0,0,1,.861-1.987,2.33924,2.33924,0,0,1,1.985-1.256,3.39767,3.39767,0,0,1,1.227.131q.82649.198,1.489,1.524a8.97055,8.97055,0,0,1,.595,1.657,46.32122,46.32122,0,0,1,1.258,4.896q.66,2.5815,1.389,6.221.72752,3.64049,1.655,8.207.726,3.906,1.392,7.648.66151,3.738,1.187,6.683.53549,2.94751,1.194,6.589a2.425,2.425,0,0,1-.432,1.756m-15.256-11.552c1.544.174,3.086.284,4.637.331a27.58754,27.58754,0,0,0,4.63-.267q-.33-1.986-.76-4.169-.4335-2.184-.826-4.501-.86554-4.302-1.555-7.778-.70047-3.4755-1.293-6.192a2.24368,2.24368,0,0,1-.165-.66,6.51346,6.51346,0,0,0-.1-.663q-.531,2.3175-1.226,5.726c-.463,2.276-1.001,4.996-1.622,8.177q-.528,2.7765-.958,5.296-.432,2.514-.762,4.7" fill="#793983"/>
        <path d="M338.63247,142.3935a2.94,2.94,0,0,1-2.914-2.912,2.86814,2.86814,0,0,1,.861-2.114,2.87341,2.87341,0,0,1,4.104,0,2.872,2.872,0,0,1,.861,2.114,2.94007,2.94007,0,0,1-2.912,2.912" fill="#793983"/>
        <path d="M356.43966,142.4618a3.50519,3.50519,0,0,1-.498-.035,3.52491,3.52491,0,0,0-.495-.033,10.08705,10.08705,0,0,1-4.668-1.886,13.142,13.142,0,0,1-3.674-4.202,14.59484,14.59484,0,0,1-1.456-2.946,33.81276,33.81276,0,0,1-1.06-3.475,28.28674,28.28674,0,0,1-.658-4.105c-.135-1.458-.223-2.956-.269-4.502a53.30626,53.30626,0,0,1,.793-9.368,34.51542,34.51542,0,0,1,2.318-7.84,18.11544,18.11544,0,0,1,3.806-5.694,7.51459,7.51459,0,0,1,4.599-2.251,5.48169,5.48169,0,0,1,3.643.927,6.23671,6.23671,0,0,1,1.556,1.192,15.64427,15.64427,0,0,1,1.359,1.652q2.379,3.6405,3.573,10.659a2.3266,2.3266,0,0,1-.43,1.723,2.40444,2.40444,0,0,1-1.491.994,2.30171,2.30171,0,0,1-1.72-.435,2.12847,2.12847,0,0,1-.926-1.486,24.72735,24.72735,0,0,0-2.449-8.175q-1.527-2.55-2.782-2.419a3.89764,3.89764,0,0,0-2.02,1.226,12.7594,12.7594,0,0,0-2.481,3.94,30.93638,30.93638,0,0,0-2.017,6.984,47.54055,47.54055,0,0,0-.698,8.303,31.24976,31.24976,0,0,0,.962,8.146,19.78152,19.78152,0,0,0,1.82,4.564q1.98148,3.50851,4.899,3.842a4.55177,4.55177,0,0,0,3.872-1.456,9.67985,9.67985,0,0,0,2.483-4.767,2.43935,2.43935,0,0,1,2.845-1.722,2.40833,2.40833,0,0,1,1.423,1.059,2.25839,2.25839,0,0,1,.3,1.723,17.32445,17.32445,0,0,1-1.689,4.237,12.34787,12.34787,0,0,1-2.618,3.243,9.23906,9.23906,0,0,1-6.152,2.383" fill="#793983"/>
        <path d="M371.99136,142.3935a2.9401,2.9401,0,0,1-2.91-2.912,2.85667,2.85667,0,0,1,.861-2.114,2.87341,2.87341,0,0,1,4.104,0,2.8819,2.8819,0,0,1,.859,2.114,2.93649,2.93649,0,0,1-2.914,2.912" fill="#793983"/>
        <path d="M293.92648,142.52831a1.387,1.387,0,0,1-1.077-.456,1.41779,1.41779,0,0,1-.394-1.035,1.37382,1.37382,0,0,1,.476-.996,1.263,1.263,0,0,0,.456-.848,4.02293,4.02293,0,0,0,0-.809,3.34575,3.34575,0,0,0-.476-1.326,1.92757,1.92757,0,0,0-.601-.663,1.43516,1.43516,0,0,1-.766-.847,1.34383,1.34383,0,0,1,.103-1.1,1.478,1.478,0,0,1,.849-.725,1.34654,1.34654,0,0,1,1.098.104,4.3921,4.3921,0,0,1,1.72,1.637,6.38055,6.38055,0,0,1,.932,2.506,4.73955,4.73955,0,0,1-.166,2.34,4.278,4.278,0,0,1-1.201,1.846,1.30027,1.30027,0,0,1-.953.372" fill="#793983"/>
        <path d="M394.30114,136.8863a5.33194,5.33194,0,1,1-5.314-5.188,5.21266,5.21266,0,0,1,5.314,5.188m-9.332,0a4.01919,4.01919,0,0,0,4.049,4.143,3.9713,3.9713,0,0,0,3.954-4.111,4.00455,4.00455,0,1,0-8.003-.032m3.196,2.72h-1.202v-5.187a10.49052,10.49052,0,0,1,1.993-.158,3.22841,3.22841,0,0,1,1.803.38,1.43185,1.43185,0,0,1,.505,1.138,1.32541,1.32541,0,0,1-1.075,1.201v.064a1.52826,1.52826,0,0,1,.948,1.266,3.98692,3.98692,0,0,0,.38,1.296h-1.297a4.445,4.445,0,0,1-.411-1.265c-.094-.57-.411-.822-1.075-.822h-.569Zm.031-2.941h.569c.665,0,1.202-.222,1.202-.76,0-.474-.347-.791-1.107-.791a2.84917,2.84917,0,0,0-.664.064Z" fill="#793983"/>
        <path d="M168.86218,6.52611a2.50035,2.50035,0,0,1,2.207-.836c.104,0,.209.003.318.009.109.007.234.015.372.027v1.49c-.17-.011-.294-.019-.372-.022-.076-.003-.148-.005-.215-.005q-.753,0-.901.386a7.62489,7.62489,0,0,0-.146,1.968h1.634v1.29h-1.634v8.394h-1.617v-8.394h-1.355v-1.29h1.355v-1.527a2.89478,2.89478,0,0,1,.354-1.49" fill="#231f20"/>
        <path d="M186.06728,9.4968v6.46a2.79306,2.79306,0,0,0,.229,1.217,1.5984,1.5984,0,0,0,1.584.873,2.239,2.239,0,0,0,2.266-1.527,6.21254,6.21254,0,0,0,.327-2.244V9.4968h1.635v9.73h-1.544l.018-1.435a3.27017,3.27017,0,0,1-.776.935,3.37046,3.37046,0,0,1-2.228.764,2.86157,2.86157,0,0,1-2.782-1.39,4.21384,4.21384,0,0,1-.401-1.99V9.4968Z" fill="#231f20"/>
        <path d="M205.94418,9.4968h1.554v1.381a4.36729,4.36729,0,0,1,1.463-1.227,3.90018,3.90018,0,0,1,1.716-.372,2.83058,2.83058,0,0,1,2.798,1.445,5.12,5.12,0,0,1,.401,2.262v6.241h-1.663v-6.132a3.33066,3.33066,0,0,0-.263-1.436,1.59944,1.59944,0,0,0-1.581-.908,3.20815,3.20815,0,0,0-.954.118,2.45,2.45,0,0,0-1.182.8,2.40744,2.40744,0,0,0-.531.994,6.76294,6.76294,0,0,0-.122,1.468v5.096h-1.636Z" fill="#231f20"/>
        <path d="M232.80126,9.79651a4.3705,4.3705,0,0,1,.987.954v-4.915h1.572v13.392h-1.472v-1.354a3.535,3.535,0,0,1-1.348,1.299,3.84841,3.84841,0,0,1-1.784.4,3.60292,3.60292,0,0,1-2.805-1.368,5.35889,5.35889,0,0,1-1.186-3.638,6.30638,6.30638,0,0,1,1.081-3.684,3.539,3.539,0,0,1,3.091-1.559,3.44627,3.44627,0,0,1,1.864.473m-3.65,7.296a2.31094,2.31094,0,0,0,2.115,1.054,2.22233,2.22233,0,0,0,1.858-.977,4.63211,4.63211,0,0,0,.728-2.803,4.162,4.162,0,0,0-.751-2.73,2.3326,2.3326,0,0,0-1.852-.886,2.44166,2.44166,0,0,0-1.994.946,4.34054,4.34054,0,0,0-.763,2.779,4.85192,4.85192,0,0,0,.659,2.617" fill="#231f20"/>
        <path d="M254.18307,13.33861a.88509.88509,0,0,0,.754-.472,1.42154,1.42154,0,0,0,.11-.629,1.33685,1.33685,0,0,0-.594-1.217,3.17729,3.17729,0,0,0-1.7-.379,2.15243,2.15243,0,0,0-1.814.694,2.29512,2.29512,0,0,0-.389,1.142h-1.527a2.82266,2.82266,0,0,1,1.166-2.511,4.769,4.769,0,0,1,2.6-.706,5.29712,5.29712,0,0,1,2.786.654,2.21939,2.21939,0,0,1,1.061,2.035v5.607a.72138.72138,0,0,0,.105.408.503.503,0,0,0,.44.154c.074,0,.155-.005.246-.013.09-.009.188-.023.291-.041v1.209a4.59174,4.59174,0,0,1-.582.135,4.07154,4.07154,0,0,1-.544.028,1.34646,1.34646,0,0,1-1.227-.6,2.29359,2.29359,0,0,1-.282-.899,4.16037,4.16037,0,0,1-1.436,1.135,4.4277,4.4277,0,0,1-2.062.482,3.06865,3.06865,0,0,1-2.212-.821,2.72971,2.72971,0,0,1-.859-2.056,2.64681,2.64681,0,0,1,.845-2.096,4.02859,4.02859,0,0,1,2.217-.917Zm-3.443,4.418a1.93,1.93,0,0,0,1.227.408,3.7464,3.7464,0,0,0,1.671-.399,2.24591,2.24591,0,0,0,1.363-2.168v-1.316a2.75652,2.75652,0,0,1-.771.32,6.44628,6.44628,0,0,1-.925.181l-.988.127a3.828,3.828,0,0,0-1.336.372,1.44711,1.44711,0,0,0-.759,1.36,1.34386,1.34386,0,0,0,.518,1.115" fill="#231f20"/>
        <path d="M276.90807,10.0144a3.83159,3.83159,0,0,1,1.24,2.753h-1.59a2.92386,2.92386,0,0,0-.663-1.494,2.09354,2.09354,0,0,0-1.663-.595,2.29565,2.29565,0,0,0-2.234,1.524,6.04557,6.04557,0,0,0-.437,2.441,4.58379,4.58379,0,0,0,.618,2.459,2.40034,2.40034,0,0,0,3.557.379,3.40513,3.40513,0,0,0,.822-1.697h1.59a4.26881,4.26881,0,0,1-1.362,2.83,4.25858,4.25858,0,0,1-2.79.894,3.72354,3.72354,0,0,1-3.043-1.394,5.33317,5.33317,0,0,1-1.136-3.484,5.8736,5.8736,0,0,1,1.244-3.989,4.02533,4.02533,0,0,1,3.171-1.426,4.24728,4.24728,0,0,1,2.676.799" fill="#231f20"/>
        <path d="M290.94827,5.881h1.663V7.735h-1.663Zm0,3.662h1.663v9.685h-1.663Z" fill="#231f20"/>
        <path d="M313.29525,10.4688a4.90736,4.90736,0,0,1,1.29,3.684,6.34959,6.34959,0,0,1-1.137,3.886,4.10335,4.10335,0,0,1-3.527,1.534,3.96966,3.96966,0,0,1-3.166-1.357,5.37614,5.37614,0,0,1-1.173-3.645,5.82614,5.82614,0,0,1,1.235-3.903,4.13769,4.13769,0,0,1,3.32-1.452,4.35842,4.35842,0,0,1,3.158,1.253m-1.015,6.466a6.1827,6.1827,0,0,0,.597-2.736,4.9218,4.9218,0,0,0-.431-2.214,2.42248,2.42248,0,0,0-2.354-1.343,2.31535,2.31535,0,0,0-2.156,1.143,5.34675,5.34675,0,0,0-.674,2.759,4.64814,4.64814,0,0,0,.674,2.586,2.36679,2.36679,0,0,0,2.138,1.035,2.2274,2.2274,0,0,0,2.206-1.23m-.212-11.354-2.426,2.626h-1.253l1.662-2.626Z" fill="#231f20"/>
        <path d="M327.75768,9.4968h1.554v1.381a4.36729,4.36729,0,0,1,1.463-1.227,3.90018,3.90018,0,0,1,1.716-.372,2.83058,2.83058,0,0,1,2.798,1.445,5.12,5.12,0,0,1,.401,2.262v6.241h-1.663v-6.132a3.33067,3.33067,0,0,0-.263-1.436,1.59944,1.59944,0,0,0-1.581-.908,3.20815,3.20815,0,0,0-.954.118,2.45,2.45,0,0,0-1.182.8,2.40744,2.40744,0,0,0-.531.994,6.76293,6.76293,0,0,0-.122,1.468v5.096h-1.636Z" fill="#231f20"/>
      </g>
    </g>
  </g>
</svg>
