<svg xmlns="http://www.w3.org/2000/svg" viewBox="0 0 17.49096 13.54474">
  <title>Recurso 38</title>
  <g id="65a014f6-9be5-46ab-b6b0-e307f5171d85" data-name="Capa 2">
    <g id="4b28170e-0f1e-4985-8160-5f1f60c50006" data-name="Layer 6">
      <g>
        <path d="M17.11585,13.54474H.39188a.37519.37519,0,0,1-.37511-.37511V.37541A.37525.37525,0,0,1,.39188,0H2.0994a.37541.37541,0,0,1,0,.75082H.767V12.79453H16.74075V.75082H15.32035a.37541.37541,0,0,1,0-.75082h1.7955A.37525.37525,0,0,1,17.491.37541V13.16963A.37519.37519,0,0,1,17.11585,13.54474Z" fill="#b9007f"/>
        <g>
          <path d="M.45908,13.06517a.36917.36917,0,0,1-.21871-.07087.37411.37411,0,0,1-.08492-.52356L5.15156,5.5435A.37523.37523,0,1,1,5.76,5.98275L.76393,12.90938A.37392.37392,0,0,1,.45908,13.06517Z" fill="#b9007f"/>
          <path d="M17.048,13.06517a.37392.37392,0,0,1-.30485-.15578L11.74707,5.98275a.37523.37523,0,1,1,.60848-.43925l4.99612,6.92724a.37411.37411,0,0,1-.08492.52356A.36917.36917,0,0,1,17.048,13.06517Z" fill="#b9007f"/>
        </g>
        <path d="M8.74439,8.36688a1.32361,1.32361,0,0,1-.8724-.31676L.15362,1.27316A.37963.37963,0,0,1,.0015.93471V.37541A.37525.37525,0,0,1,.3766,0H17.114a.37525.37525,0,0,1,.37511.37541V.93929a.37748.37748,0,0,1-.05132.22115.38254.38254,0,0,1-.11363.12249l-7.708,6.76687A1.32,1.32,0,0,1,8.74439,8.36688ZM.75171.8,8.36684,7.48593a.60352.60352,0,0,0,.75388,0L16.73891.79817V.75082H.75171Z" fill="#b9007f"/>
      </g>
    </g>
  </g>
</svg>
