<svg xmlns="http://www.w3.org/2000/svg" viewBox="0 0 20.11517 20.99651">
  <title>manos</title>
  <g id="4b3fb8e7-18ec-4f3d-9b85-fdd976bb47c5" data-name="Capa 2">
    <g id="35288a65-539b-4a1e-99a2-9f3e73619839" data-name="Layer 6">
      <g>
        <path d="M16.58989,7.49088v1.833a.43938.43938,0,1,0,.87875,0V7.93026h.98006a.4392.4392,0,0,0,.43938-.43938V5.93417a.43729.43729,0,0,0-.19913-.36732L10.29792.0721a.43645.43645,0,0,0-.48058,0L1.4263,5.56685a.43729.43729,0,0,0-.19913.36732V7.49088c0,.01116.00563.02056.00641.03155a.42523.42523,0,0,0,.02074.103.42063.42063,0,0,0,.02294.05967.40759.40759,0,0,0,.01775.046c.00923.01468.0254.02047.036.03374a.4252.4252,0,0,0,.0768.07179.41651.41651,0,0,0,.07988.05387.43658.43658,0,0,0,.07258.01828.43529.43529,0,0,0,.10536.02654c.00606,0,.0116-.00483.01766-.0051h.97093V9.32387a.43938.43938,0,1,0,.87875,0v-1.833a.43332.43332,0,0,0-.36855-.42514l6.89311-4.36942,6.89847,4.36995A.43323.43323,0,0,0,16.58989,7.49088ZM9.82252,1.80562,2.10593,6.69719V6.17187L10.05758.96456l7.95174,5.20731v.52057L10.29275,1.80474A.43912.43912,0,0,0,9.82252,1.80562Z" fill="#f46819"/>
        <path d="M3.1302,12.46954a1.48379,1.48379,0,1,0-1.80654,0A2.22544,2.22544,0,0,0,0,14.49946v1.54467a2.24536,2.24536,0,0,0,.70625,1.62622V19.8689a1.12839,1.12839,0,0,0,1.52068,1.05723,1.12764,1.12764,0,0,0,1.5198-1.05723V17.67114a2.20464,2.20464,0,0,0,.70713-1.627V14.49946A2.22544,2.22544,0,0,0,3.1302,12.46954Zm-.90327-1.77429a.60542.60542,0,1,1-.605.60493A.60539.60539,0,0,1,2.22693,10.69525Zm1.34818,5.34888a1.33853,1.33853,0,0,1-.53375,1.07357l-.17338.13216v2.619a.25862.25862,0,0,1-.38964.2051l-.25141-.17593-.25141.17593a.25837.25837,0,0,1-.39052-.2051V17.25065l-.1725-.13216a1.34363,1.34363,0,0,1-.53375-1.07436V14.49946a1.34818,1.34818,0,0,1,2.69636,0Z" fill="#f46819"/>
        <path d="M8.35078,12.46963a1.48363,1.48363,0,1,0-1.8061-.00009,2.22535,2.22535,0,0,0-1.32446,2.02992v1.54467a2.24564,2.24564,0,0,0,.707,1.62622V19.8689A1.12839,1.12839,0,0,0,7.448,20.92612,1.1269,1.1269,0,0,0,8.96688,19.8689V17.672A2.20766,2.20766,0,0,0,9.674,16.04413V14.49946A2.2255,2.2255,0,0,0,8.35078,12.46963ZM7.448,10.69525a.60542.60542,0,1,1-.605.60493A.60521.60521,0,0,1,7.448,10.69525Zm1.3473,5.34888A1.33853,1.33853,0,0,1,8.2615,17.1177l-.17338.13216v2.619a.25668.25668,0,0,1-.38876.2051L7.448,19.89807l-.25141.17593a.25839.25839,0,0,1-.39052-.2051V17.25065l-.1724-.13216A1.36163,1.36163,0,0,1,6.099,16.04413V14.49946a1.34814,1.34814,0,0,1,2.69628,0Z" fill="#f46819"/>
        <path d="M13.57137,12.46954a1.48371,1.48371,0,1,0-1.80655,0,2.22536,2.22536,0,0,0-1.32357,2.02992v1.54467a2.245,2.245,0,0,0,.70624,1.62622V19.8689a1.12831,1.12831,0,0,0,1.52059,1.05723,1.12764,1.12764,0,0,0,1.5198-1.05723V17.67114a2.20431,2.20431,0,0,0,.70713-1.627V14.49946A2.22545,2.22545,0,0,0,13.57137,12.46954Zm-.90328-1.77429a.60542.60542,0,1,1-.60493.60493A.60539.60539,0,0,1,12.66809,10.69525Zm1.34818,5.34888a1.33853,1.33853,0,0,1-.53375,1.07357l-.17338.13216v2.619a.25838.25838,0,0,1-.38955.2051l-.2515-.17593-.2514.17593a.258.258,0,0,1-.39044-.2051V17.25065l-.1725-.13216A1.34337,1.34337,0,0,1,11.32,16.04413V14.49946a1.34813,1.34813,0,0,1,2.69627,0Z" fill="#f46819"/>
        <path d="M18.792,12.46963a1.48359,1.48359,0,1,0-1.8062-.00009,2.22549,2.22549,0,0,0-1.32446,2.02992v1.54467a2.24573,2.24573,0,0,0,.70713,1.62622V19.8689a1.12831,1.12831,0,0,0,1.52059,1.05723,1.127,1.127,0,0,0,1.519-1.05723V17.672a2.20791,2.20791,0,0,0,.707-1.62789V14.49946A2.22542,2.22542,0,0,0,18.792,12.46963Zm-.90293-1.77438a.60542.60542,0,1,1-.60493.60493A.60516.60516,0,0,1,17.88911,10.69525Zm1.3473,5.34888a1.33828,1.33828,0,0,1-.53375,1.07357l-.17329.13216v2.619a.25653.25653,0,0,1-.38876.2051l-.2515-.17593-.25141.17593a.25815.25815,0,0,1-.39043-.2051V17.25065l-.1725-.13216a1.36164,1.36164,0,0,1-.53463-1.07436V14.49946a1.34814,1.34814,0,0,1,2.69628,0Z" fill="#f46819"/>
      </g>
    </g>
  </g>
</svg>
