<svg xmlns="http://www.w3.org/2000/svg" viewBox="0 0 17.57864 25.47879">
  <title>Recurso 3</title>
  <g id="Capa_2" data-name="Capa 2">
    <g id="Editar">
      <path d="M8.81492,25.47879c-.754-1.21419-1.45379-2.309-2.12171-3.42282-1.898-3.16514-3.85826-6.29608-5.654-9.5185A8.4887,8.4887,0,0,1,3.50674,1.66155a8.8647,8.8647,0,0,1,13.2076,3.50773,7.75828,7.75828,0,0,1-.29292,7.64514c-1.93377,3.26293-3.93086,6.48829-5.8931,9.73441C9.96545,23.48,9.42891,24.427,8.81492,25.47879ZM5.68957,8.57137A3.03512,3.03512,0,0,0,8.752,11.80955,3.335,3.335,0,0,0,12.0789,8.54122a3.22532,3.22532,0,0,0-3.23244-3.2429A2.94743,2.94743,0,0,0,5.68957,8.57137Z" fill="#92253f"/>
    </g>
  </g>
</svg>
