<svg xmlns="http://www.w3.org/2000/svg" viewBox="0 0 363.029 352.447"><title>mariposa</title><g id="Capa_2" data-name="Capa 2"><g id="Objects"><path d="M215.206,88.648c-10.5-6.966-37.581-8.187-54.745-.811,1.648-2.9,3.138-5.906,4.913-8.623A106.8,106.8,0,0,0,176.682,56.18c5.3-15.694,2.154-34.775-12.881-43.717-16.6-9.877-34.975,1.627-41.825,17.72-6.355,14.935-6.566,30.987-2.983,46.631a31.392,31.392,0,0,0,1.186,3.932,37.726,37.726,0,0,0,.172,6.7c1.127,9.068,7.094,13.517,14.106,14.508a14.137,14.137,0,0,0,8.172,16c18.9,8.922,42.738,15.69,62.943,8.155C221.366,120.221,232.574,100.174,215.206,88.648Z" fill="#e74707"/><path d="M136.327,138c-1.54-8.05-7.749-20.25-15.908-23.351a18.271,18.271,0,0,0-17.1,2.257c-.973-7.718-4.982-14.828-13.341-20.073-17.561-11.014-42.524-1-56.079,12-.085.083-.17.172-.255.255a75.023,75.023,0,0,0-13.4,7.317C7.011,125.419-1.422,144.622,6.5,159.585c6.062,11.459,17.2,13.971,28.45,12.571,13.6,4.116,32.544-1.243,43.084-8.109a58.361,58.361,0,0,0,14.344-13.755c.022.731.045,1.468.071,2.188a31.057,31.057,0,0,0,.816,5.869,15.874,15.874,0,0,0-2.437,2.329c-16.214,19.186,19.348,41.924,36.319,29.7C143.151,178.845,139.513,154.661,136.327,138Zm-18.564.508c.231-3.269,3.249-1.189,0,0Z" fill="#e74707"/><path d="M143.441,112.514c-5.963-7.712-12-15.877-18.641-22.976-4.906-5.243-9.8-11.773-15.756-15.847-3.62-2.475-9.258-1.956-11.736,1.976-8.607,13.67,10.422,29.781,17.854,40.075,5.74,7.95,12.03,15.723,18.359,23.21,4.992,5.9,11.513,11.055,19.517,8.56C169.6,142.352,147.963,118.361,143.441,112.514Z" fill="#ffb31d"/><path d="M362.675,347.334c-5.239-10.462-12.92-19.539-19.7-29.024-6.9-9.661-11.489-20.778-17.679-30.9-11-17.986-25-30.088-44.335-38.5-18.75-8.154-38.625-11.664-58.048-17.568-11.263-3.424-19.682-8.346-27.205-17.469-1.631-1.98-3.16-4.037-4.7-6.087-.965-1.282-3.387-3.468-3.745-5.034-.864-3.782-4.046-10.078-1.9-13.838,2.487-4.366-3.975-8.927-6.366-4.534a15.734,15.734,0,0,0-1.745,9.232c.23,3.784.7,9.441,2.313,12.9,2.171,4.67,5.922,9.215,8.837,13.461a51.282,51.282,0,0,0,11.388,12.237c8.7,6.541,19.326,9.919,29.719,12.612,10.795,2.8,21.3,5.926,31.9,9.341,10.337,3.324,20.509,7.35,29.737,13.118,9.454,5.906,15.943,13.794,22.154,22.88,6.946,10.165,11.387,21.786,18.224,32,7.241,10.811,15.554,21.537,25.849,29.589C360.189,353.958,364.255,350.486,362.675,347.334Z"/><path d="M225.395,93.54c-5.321-11.578-19.643-15.89-31.2-17.4a79.486,79.486,0,0,0-13.582-.6c7.174-10.536,11.675-22.8,11.5-35.755-.248-18.139-11.73-35.266-29.862-39.246-9.426-2.07-19.343,2.124-27.433,6.543A66.059,66.059,0,0,0,112.26,27.653a69.551,69.551,0,0,0-10.906,28.455,25.843,25.843,0,0,0,.628,11.267,17.479,17.479,0,0,0-2.093-.255,10.886,10.886,0,0,0-6.9,1.834,31.636,31.636,0,0,0-2.736-2.837c-1.715-3.239-3.144-6.783-4.367-9.618a42.59,42.59,0,0,1-3.34-15.029A39.571,39.571,0,0,1,85.2,25.333C86.9,20.8,91.38,16.919,90.64,11.85a3.7,3.7,0,0,0-3.254-3.056C80.631,8.221,77,16.118,74.855,21.412a48.029,48.029,0,0,0-2.939,20.265,41.844,41.844,0,0,0,3.778,15.989A50.926,50.926,0,0,0,60.711,54.7c-9.4-.364-25.359,1.485-26.608,13.2-.382,3.577,3.577,5.073,6.209,3.3a35.567,35.567,0,0,1,20.408-5.95c8.542.1,19.566,3.5,25.474,10.089a4.657,4.657,0,0,0,2.243,1.426,14.8,14.8,0,0,0-.117,3.459c.618,7.127,5.27,14.241,8.933,20.141,4.25,6.846,8.98,13.358,13.68,19.9,2.188,3.047,1.451,2.61,4.027,5.311,4.721,4.94,9.4,9.919,14.328,14.654a103.306,103.306,0,0,0,12.442,10.257,3.7,3.7,0,0,0-.322.637c-1.458,3.884-1.781,7.712-2.708,11.742-.946,4.116-3.339,8.072-5.37,11.757-3.9,7.064-9.385,16.2-17.712,18.477-8.235,2.253-13.421-6.157-15.846-12.643-1.952-5.221.454-9.493-.4-14.619-.547-3.293-2.134-8.591-.19-11.644,4.7-7.4-5.223-14.052-10.864-7.734-13.237,14.822-31.532,29.9-52.8,26.908-15.8-2.218-24.425-22.366-20.773-36.54,4.06-15.764,15.537-27.24,30.249-33.5,14.816-6.309,31.841-5.374,47.428-3.359a.644.644,0,0,0,.435-1.158C60.025,73.143,3.561,98.726.165,139.928c-1.783,21.639,11.019,42.249,32.448,47.309,11.6,2.737,25.322-1.186,35.625-6.418a82.6,82.6,0,0,0,17.555-12.174c-.215,5.212-.952,10.517,1.205,15.443,4.835,11.053,11.154,20.989,24.189,22.579,13.093,1.6,23.82-9.559,30.2-19.524,5.3-8.272,12.041-20.547,9.885-30.906a76.412,76.412,0,0,0,11.416,4.813c5.662,1.841,8.946-6.8,3.276-8.645-.172-.057-.34-.122-.512-.179,0-.048.012-.094.011-.142-.1-5.623-2.729-10.874-5.356-15.836a4.7,4.7,0,0,0,1.008.8,45.284,45.284,0,0,0,10,4.578c5.284,1.585,9.525.809,14.839-.1a58.956,58.956,0,0,0,23.9-9.624C222.224,123.674,232.248,108.453,225.395,93.54Zm-86.427,41.024c-6-5.7-12.944-12.006-17.463-18.9-6.605-10.078-14.455-19.195-19.8-30.091a26.721,26.721,0,0,1-2.354-6.44,4.545,4.545,0,0,1-.106-1.23c.068-.024.13-.046.224-.083,2.964-1.143,8.1,4.074,9.9,5.858,3.2,3.167,5.63,6.652,8.952,9.768,8.87,8.325,15.2,17.762,21.966,27.735,3.741,5.513,7.338,11.11,10.592,16.924,1.654,2.955,2.891,6.163,4.259,9.28A95.207,95.207,0,0,1,138.968,134.563Zm63.734-13.64a38.618,38.618,0,0,1-16.764,7.16c-4.026.667-7.778,1.581-11.851.975-3.192-.473-6.368-.787-9.586-.984a5.458,5.458,0,0,0-5.46,6.161c-3.473-6.567-7.675-12.724-11.66-18.981-3.716-5.828-6.973-11.795-11.211-17.288-2.178-2.82-4.588-5.463-7.027-8.061-2-2.127-5.858-4.475-7.264-6.938-.387-.678-.822-1.359-1.279-2.039a3.93,3.93,0,0,0-1.521-3.568c-14.34-11.694-4.27-33.573,4.644-45.54,7.756-10.408,24.685-22.784,38.4-18.809C174.3,16.541,180.019,31.189,179,42.767c-1.418,16.067-11.081,30.075-23.247,40.016-5.76,4.709.59,15.417,7.157,11.267,7.219-4.56,16.463-5.417,24.808-5.182,8.26.229,18.846,1.692,24.665,8.235C219.87,105.52,209.166,116.145,202.7,120.924Z"/></g></g></svg>