<svg xmlns="http://www.w3.org/2000/svg" viewBox="0 0 287.64775 253.33854">
  <title>Recurso 3</title>
  <g id="Capa_2" data-name="Capa 2">
    <g id="Editar">
      <path d="M173.26255,242.07558c1.5566-1.1114,2.84281-2.7598,4.9629-2.7911,1.0791-.0166,1.209-.6503,1.417-1.4414,1.7031-6.4873,5.9365-9.2265,12.459-8.0234a1.44547,1.44547,0,0,0,1.8115-.8613c5.1191-8.3262,14.666-8.6201,20.418-.5586a8.02359,8.02359,0,0,1,.98041,5.0508c-.04.8047-.42871,1.7529,1.12989,2.0136,5.7705.9649,8.3037,4.1543,8.1787,9.9336-.0068.3106.0088.6201.0147.9307-1.8868,5.1064-5.5264,7.1103-10.9639,7.001-11.0059-.2246-22.0215-.2012-33.0273.0058-3.7715.0723-6.4795-1.0459-8.293-4.3174l.0205.042a6.41287,6.41287,0,0,1-.0244-5.1084l.0254-.0224C173.38945,243.65758,172.53405,242.48568,173.26255,242.07558Z" fill="#fff"/>
      <path d="M214.13315,211.05988c2.2261-1.5908,4.0684-3.9511,7.1021-3.9961,1.5429-.0234,1.7299-.9287,2.0278-2.0634,2.4375-9.2832,8.4956-13.2012,17.8296-11.4795,1.32471.2461,1.8681-.0557,2.5923-1.2324,7.3256-11.917,20.9863-12.3379,29.2192-.7999,1.3989,1.962,1.5327,4.6739,1.4028,7.2286-.05859,1.1494-.6133,2.5068,1.6172,2.8808,8.2578,1.3799,11.8828,5.9444,11.7041,14.2158-.0097.4415.0127.8858.0195,1.3301-2.6987,7.3076-7.9082,10.1768-15.68839,10.0176-15.75-.3184-31.51371-.2861-47.26521.0117-5.3974.1016-9.2724-1.499-11.8662-6.1806l.0279.0595c-.85649-2.4316-1.2017-4.8662-.0352-7.3095l.0366-.0323C214.31475,213.32358,213.09065,211.64688,214.13315,211.05988Z" fill="#fff"/>
      <g>
        <g>
          <path d="M80.19766,131.00428a5.76424,5.76424,0,0,0-.5367-.8623,2.66616,2.66616,0,0,0-2.9775-1.1143c-.0547-.0986-.1069-.1973-.1685-.2939a2.14863,2.14863,0,0,0-2.3549-.9746,4.31239,4.31239,0,0,1,.4951-1.959,1.45522,1.45522,0,0,0-2.5113-1.4678,12.53588,12.53588,0,0,0-1.5044,5.3525c-.2993,2.377-.958,4.7159-.5419,7.1075a2.43935,2.43935,0,0,0,3.3955,1.5478c.0117.1231.0229.2442.0405.3623.335,2.3633,3.4707,2.1221,4.5454.5957a3.96849,3.96849,0,0,0,.2622-.4287,2.9668,2.9668,0,0,0,.6587.0215c1.2617,1,3.18651.2148,3.81251-1.3193C83.64876,135.52578,81.79676,132.23178,80.19766,131.00428Z" fill="#af6240"/>
          <path d="M121.73326,127.474c-.1387-.4775-.3022-.9502-.4443-1.4277-.0469-.1602-.0782-.2813-.0972-.377,1.0552-1.9014-1.3042-4.6777-3.3457-3.2295-1.72269,1.2227-1.6699,2.7539-1.4609,4.3174a4.14937,4.14937,0,0,0-.354.4658c-.066.1035-.1182.2188-.1763.3291a3.47413,3.47413,0,0,0-.875.128,3.52491,3.52491,0,0,0-1.72949,1.1181,1.454,1.454,0,0,0-2.148,1.3321c.00589,1.0556-.10151,2.1074-.10741,3.165a2.30689,2.30689,0,0,0,3.8985,1.6152,3.67929,3.67929,0,0,0,.6508-.7578c1.4615,1.8809,4.8736,1.3692,4.8648-1.4892-.001-.2315.0058-.461.0122-.6915a2.42211,2.42211,0,0,0,1.4809-1.7558A5.06609,5.06609,0,0,0,121.73326,127.474Z" fill="#af6240"/>
          <g>
            <path d="M89.36066,91.90948c-.1689.5889.3111-.2548,0,0Z" fill="#ea5860"/>
            <path d="M89.35586,91.91438l.0048-.0049c.0162-.0566.03671-.123.0664-.208C89.40266,91.77278,89.37926,91.84308,89.35586,91.91438Z" fill="#ea5860"/>
            <path d="M88.995,92.29918c3.31641-3.9658-1.8061-9.2617-5.7168-5.7168-1.522,1.377-2.0722,3.6309-2.50579,5.5596-.09481.4209-.18611.8486-.272,1.2773a19.74431,19.74431,0,0,0-9.12261-.7334,3.26647,3.26647,0,0,0-2.4492,1.8408,2.39089,2.39089,0,0,0-.4595,2.3291,3.733,3.733,0,0,0,1.9429,3.2149c.5449.2715,1.103.5029,1.6665.7168a14.52841,14.52841,0,0,0,9.7363,1.1767,4.57028,4.57028,0,0,0,1.149-.4463,3.95486,3.95486,0,0,0,1.1982.1973,4.22554,4.22554,0,0,0,4.1831-4.1826c.0039-.4209.0454-.8389.0884-1.2559.0063-.0654.02591-.2216.0435-.3642.06-.4033.12641-.8076.1977-1.209.1255-.708.28471-1.4082.4692-2.1035.0616-.2315.1363-.459.212-.6856A3.1287,3.1287,0,0,0,88.995,92.29918Z" fill="#8eb994"/>
          </g>
          <g>
            <path d="M114.35776,138.66048a6.0136,6.0136,0,0,0-1.9892-3.0332,5.19178,5.19178,0,0,0-3.6695-1.4424,4.83675,4.83675,0,0,0-2.4668.75c-1.2363-3.4209-6.5122-3.497-7.956-.2334h-.0015a2.21831,2.21831,0,0,0-4.2046.0987c-.1543.6347-.1284.6445-.1963.832a4.47215,4.47215,0,0,0-1.5322-1.4482,3.91591,3.91591,0,0,0-4.0942.1416,6.17629,6.17629,0,0,0-2.1773,2.9062,5.096,5.096,0,0,0-.2734,2.9356,3.52377,3.52377,0,0,0,.334.8291,4.47569,4.47569,0,0,0,1.1333,3.0556,4.25193,4.25193,0,0,0,4.0131,1.1592,4.08011,4.08011,0,0,0,.9473-.2637c-.1045,1.0166-.2104,2.0332-.3359,3.0498-.2974,2.4034-1.0337,5.3643-.5489,7.7383a6.16,6.16,0,0,0,1.3653,3.1748,4.07871,4.07871,0,0,0,1.6396,1.0821c.2476.0117,2.5254.5097,1.3242.2705,2.2564.4521,4.5879,1.0244,6.8477.1914a5.67842,5.67842,0,0,0,2.3804-1.6172,4.73428,4.73428,0,0,0,1.95851-.0811c2.05949-.5664,3.00879-2.2724,3.24019-4.2558.3145-2.6963-.7158-5.6582-1.3335-8.2725-.23-.9726-.4873-1.9355-.7085-2.9072.1831.0791.3687.1572.561.2304a4.91965,4.91965,0,0,0,3.82081-.2695C114.23616,142.48668,114.67806,140.39388,114.35776,138.66048Z" fill="#2a97c7"/>
            <path d="M94.68786,160.11268c-.1148-.0323-.229-.0772-.3433-.1201C94.27766,159.98958,94.35586,160.02188,94.68786,160.11268Z" fill="#ea5860"/>
          </g>
          <path d="M119.06476,162.41248c-.4008-2.9844-2.0551-5.8867-5.4697-5.7852a4.07226,4.07226,0,0,0-2.9668,1.4024,4.56382,4.56382,0,0,0-1.0361.7861,4.44965,4.44965,0,0,0-.2974.332,4.31343,4.31343,0,0,0-.62839.1358,4.11461,4.11461,0,0,0-3.35841-.5244,3.72263,3.72263,0,0,0-1.1592.539,4.68284,4.68284,0,0,0-2.3095.1416,3.9158,3.9158,0,0,0-.379.1358c-.1523-.0557-.3076-.1075-.476-.1524a4.06119,4.06119,0,0,0-2.835.3516,4.33238,4.33238,0,0,0-3.8208.207c-.0444.0254-.0815.0547-.123.082-1.6148-.8271-3.6905-.6005-4.5679,1.1465a3.04409,3.04409,0,0,0-2.7969.6436c-1.9585,1.6387-1.9179,4.4892-.7788,6.582,1.2901,2.3682,4.7993,2.502,6.7847,1.084a.24812.24812,0,0,0,.02681-.0225c.07379.0557.13919.1133.21539.1651a3.58355,3.58355,0,0,0,4.4008-.5664c.2027-.2442.379-.4785.5406-.7149a4.17317,4.17317,0,0,0,2.0761.0723,3.19834,3.19834,0,0,0,3.9898-.1006,4.0449,4.0449,0,0,0,2.7715-.5439,3.80539,3.80539,0,0,0,2.8237.1054,3.95183,3.95183,0,0,0,5.4517-1.6084.13576.13576,0,0,1,.0346-.0049C117.04966,166.07748,119.369,164.68878,119.06476,162.41248Z" fill="#c82452"/>
          <path d="M103.33486,181.19078a48.65741,48.65741,0,0,0-4.85449-2.1689c-1.58211-.4375-2.70321,2.0009-1.14261,2.7128,1.7324.7911,3.1035,2.6094,5.04,2.9248A1.8003,1.8003,0,0,0,103.33486,181.19078Z" fill="#c82452"/>
          <path d="M116.89736,182.63118a14.55889,14.55889,0,0,0-3.90431-2.3115,4.9794,4.9794,0,0,0-4.0669.1357,1.10673,1.10673,0,0,0-.2222,1.7227,16.94541,16.94541,0,0,0,2.5396,1.2695,13.55936,13.55936,0,0,1,2.936,1.9034C116.00866,187.059,118.78456,184.19668,116.89736,182.63118Z" fill="#c82452"/>
          <path d="M114.23866,111.33918c-.0567.0313-.1094.0664-.1641.0977a17.2199,17.2199,0,0,0-2.0434-3.4824,17.80876,17.80876,0,0,0-12.6397-7.4082c-5.644-.5938-10.9336,3.5547-13.5723,8.1923a15.32388,15.32388,0,0,0-1.4194,3.4131,5.11592,5.11592,0,0,0-3.7729,1.1621c-1.7564-.8154-4.10749-.4912-4.4947,1.875-.00879.0538-.0117.1084-.02.1622a7.20619,7.20619,0,0,0-4.5605.7294c-3.6866,1.7452-2.649,6.501,0,8.4815a6.32075,6.32075,0,0,0,1.7295.9277,4.41356,4.41356,0,0,0,2.3925,1.4326,7.50965,7.50965,0,0,0,2.8325.0274,18.33491,18.33491,0,0,0,1.8775,1.6787,14.19491,14.19491,0,0,0,2.49271,1.585,11.544,11.544,0,0,0,4.21289,2.4082,15.46027,15.46027,0,0,0,5.9526.4277,13.797,13.797,0,0,0,4.332,1.7734,3.069,3.069,0,0,0,1.5757,2.2774,3.88943,3.88943,0,0,0,1.7769.4941,4.13018,4.13018,0,0,0,1.9057-.5146,4.24089,4.24089,0,0,0,1.3579-1.0957,14.6475,14.6475,0,0,0,1.1338-1.5577c.06251-.0966.12551-.1923.189-.288.0806-.0821.1504-.1748.2222-.2637,4.0815-.0615,7.4316-3.2891,8.8696-7.0772a15.46926,15.46926,0,0,0,.9599-4.4472,6.69633,6.69633,0,0,0,2.3067-2.8574c.3828-.8663.7143-1.7364,1.0185-2.6299a7.73972,7.73972,0,0,0,.3238-1.7178,2.70778,2.70778,0,0,0,.0302-.3496C119.35286,112.142,116.828,109.89878,114.23866,111.33918Z" fill="#f8bd93"/>
          <path d="M113.89386,101.223a22.55332,22.55332,0,0,0-1.9077-2.2099c-.0215-.0381-.0405-.0772-.0639-.1143a11.46632,11.46632,0,0,0-6.5625-4.5322c-1.1495-1.9199-3.604-2.5674-5.7076-2.6533-3.3027-.1358-8.9624,1.6054-10,5.3125a2.60778,2.60778,0,0,0-.7495.3203,8.80758,8.80758,0,0,0-2.48429,2.582,2.3265,2.3265,0,0,0-1.24271.834c-.3042.3916-.5938.789-.8765,1.1894a3.28724,3.28724,0,0,0-3.1157.5147,10.58465,10.58465,0,0,0-1.5352,1.6123.8713.8713,0,0,0-.5512-.1885c-3.13869.2041-6.3955,4.6621-7.1563,8.6846a15.659,15.659,0,0,0-1.855,3.6113c-.917,2.7988,2.9698,4.0449,4.4815,1.8887.0102-.0147.021-.0322.0312-.0488a1.55709,1.55709,0,0,0,.37891-.2442,4.29379,4.29379,0,0,0,1.12849-1.75,5.98648,5.98648,0,0,0,.6254-.6904,2.4219,2.4219,0,0,0,2.5777.5498,3.04142,3.04142,0,0,0,3.9512-1.0264c.874-1.2011,1.7319-2.4228,2.5415-3.6709a2.98717,2.98717,0,0,0,.75871-.1797,3.17311,3.17311,0,0,0,1.92489,2.7647,3.69251,3.69251,0,0,0,3.9799.9619,3.04167,3.04167,0,0,0,2.9278-.9131c.227-.2734.4409-.5537.6479-.8369a4.0337,4.0337,0,0,0,3.8018-.2344,2.95165,2.95165,0,0,0,3.2348-1.708,13.17206,13.17206,0,0,0-.0258-9.1523c.0039-.0352.0078-.0713.0112-.1065a7.022,7.022,0,0,0,4.50051,2.5723c.31149.3701.60789.7344.88379,1.0635.7358.874,1.5337,1.7021,2.2895,2.5605.4649.5274,1.4893,1.2754,1.72071,1.918.92729,2.5752,4.88669,2.2715,4.89649-.6621C117.36166,106.54818,115.47936,103.31378,113.89386,101.223Z" fill="#af6240"/>
          <path d="M90.71426,119.78258a5.02025,5.02025,0,0,0-3.83989-1.6006,5.2512,5.2512,0,0,0-4.10891,2.4063,5.40491,5.40491,0,0,0-.6416,4.1767,5.08159,5.08159,0,0,0,2.3521,3.2529c2.2529,1.4161,5.9565.6055,7.1557-1.8212a5.07837,5.07837,0,0,0,.5313-2.4229c.0166-.1152.0337-.2285.0459-.3447A5.24482,5.24482,0,0,0,90.71426,119.78258Z" fill="#eb662b"/>
          <path d="M116.32846,117.86068l-.0083-.0107c-1.6025-1.8926-4.478-1.8985-6.4932-.6319a5.73325,5.73325,0,0,0-2.45059,6.3663,5.5515,5.5515,0,0,0,5.05119,3.8671,6.29011,6.29011,0,0,0,5.4234-2.6836A4.82518,4.82518,0,0,0,116.32846,117.86068Z" fill="#eb662b"/>
          <g>
            <path d="M98.64536,109.16248c.35839-1.2696.81249-3.4004-.65871-4.1533-.6128-.3106-1.0434.663-.4341.9746.9195.4707.13281,2.7334-.0756,3.4101a16.0731,16.0731,0,0,1-1.5865,3.6924,10.78879,10.78879,0,0,1-3.0737,2.6611c-1.0278.6954-2.9815,1.876-3.9043.4561-.3745-.5781-1.2373.0469-.8643.6221,1.0425,1.6054,2.9556,1.1582,4.3936.3828a15.11634,15.11634,0,0,0,2.5283-1.7578,9.053,9.053,0,0,0,1.6987-1.6221A15.93731,15.93731,0,0,0,98.64536,109.16248Z" fill="#4d2811"/>
            <path d="M89.39826,110.13808c.7178-1.8868,1.982-4.1065,1.3013-6.168-.2163-.6543-1.21-.2686-.9956.3818.56641,1.7129-.7007,3.7793-1.2778,5.3516a12.90191,12.90191,0,0,1-3.4649,5.3428,23.26688,23.26688,0,0,1-3.31489,2.4248c-.89991.5488-2.59821,1.6396-3.68561,1.0537-.60539-.3252-1.0346.6504-.434.9746,1.2617.6777,2.90861-.1445,4.0263-.7549a22.83285,22.83285,0,0,0,4.0298-2.832A14.04476,14.04476,0,0,0,89.39826,110.13808Z" fill="#4d2811"/>
            <path d="M117.18686,183.10188c-1.0981-2.7256-5.0654-3.0341-7.686-2.8642a30.25976,30.25976,0,0,1-.5982-5.5518c-.0049-1.8525-.4189-3.6865-.3388-5.543a4.43219,4.43219,0,0,0,1.3281-.1875c1.6977-.5039,2.4438-2.1044,2.7886-3.7001,1.3711.7509,2.9267,1.8486,4.4716,1.3808,2.3155-.7012,2.8819-3.8076,2.7217-5.8828a9.56927,9.56927,0,0,0-1.0932-3.5537c-.3619-.708-.7867-1.9297-1.7701-1.8955-.9858.0351-1.82319.7217-2.8349.7861a6.10553,6.10553,0,0,1-1.8828-.3916,1.58315,1.58315,0,0,0-.0987-.3721c-.0161-.0322-.0332-.0615-.0493-.0927a.58231.58231,0,0,0-.1328-.17,5.48785,5.48785,0,0,0-.126-.6396,24.7477,24.7477,0,0,1-.4726-2.6748c-.2769-1.9766-.6729-3.9356-.9873-5.9033q-.2139-1.3521-.46979-2.6934a4.29136,4.29136,0,0,0,2.73879-.2607,3.289,3.289,0,0,0,1.6089-1.3252.4945.4945,0,0,0,.2812.2968l.16411.0752a.86179.86179,0,0,0,.105.0342c3.72309,1.4112,6.78559-2.5644,8.749-5.209a36.48621,36.48621,0,0,0,2.28179-3.1826,40.69159,40.69159,0,0,0,2.0224-4.1426c.1245-.2793.30181-.6425.4776-1.0468a.51981.51981,0,0,0,.24021-.0869c1.46829-.9717,3.83349-1.3829,4.45209-3.2657.212-.6455-.7592-1.0859-.97309-.4336a3.85721,3.85721,0,0,1-2.35651,1.9746.44519.44519,0,0,0,.00251-.6132c-.29251-.3496,1.78029-2.7422,2.03269-3.2539.3037-.6163-.6689-1.0489-.9736-.4336-.3399.6884-1.6573,1.9589-2.0489,3.0673a1.33478,1.33478,0,0,0-.1167-.165c-.018-.0205-.0356-.0342-.0532-.0517.2822-.793.5371-1.5987.8399-2.3829a3.69592,3.69592,0,0,0,.373-1.622c-.0605-.3496-.522-.666-.8398-.3731a.96884.96884,0,0,0-.23339.3076.46128.46128,0,0,0-.00641.4395,7.76612,7.76612,0,0,1-.4214,1.1865c-.227.5283-.4033,1.0772-.5796,1.624a8.63679,8.63679,0,0,1,.128-2.6308c.1372-.6748-.917-.833-1.0537-.1602a8.26225,8.26225,0,0,0,.4819,5.1358.55112.55112,0,0,0,.46.3261c-.0889.2696-.1929.5196-.2476.6748-.2383.667-.5391,1.3125-.8291,1.958-.4937,1.1016-1.0063,2.1954-1.5903,3.252a27.333,27.333,0,0,1-2.1714,3.0576c-1.69139,2.2871-4.5435,6.459-7.8809,4.9678a.52268.52268,0,0,0-.3296-.0371,5.43062,5.43062,0,0,0,.45411-1.9551c.05329-1.5107-1.00341-2.8379-2.01851-3.8457a5.686,5.686,0,0,0-3.3828-1.7646,14.24909,14.24909,0,0,0,2.25-1.3956,15.31772,15.31772,0,0,0,4.0756-5.3007c-.0034.0156-.0097.0302-.0122.0468a11.6612,11.6612,0,0,0,.7261,5.2461.53233.53233,0,0,0,.9937-.3808,10.58472,10.58472,0,0,1-.667-4.7051.54251.54251,0,0,0-.92089-.4434,14.228,14.228,0,0,0,1.40179-5.0507c2.9073-.752,3.9898-4.7422,3.8765-7.376a3.31607,3.31607,0,0,0-2.0718-3.1631,3.64089,3.64089,0,0,0-.8564-.2324l.00191-.0069a10.10525,10.10525,0,0,0-1.04731-5.0986,29.56605,29.56605,0,0,0-2.8164-4.9111,21.94977,21.94977,0,0,0-9.0596-7.7305,18.414,18.414,0,0,0-11.2046-.9258,21.67217,21.67217,0,0,0-4.2739,1.5196c1.0385-2.3633,1.5161-5.0547.0996-7.1885a4.901,4.901,0,0,0-4.877-1.8965c-1.9717.4355-3.0156,2.7617-3.727,4.4072a12.917,12.917,0,0,0-.9702,4.2022c-.0293.3515-.0503.7119-.0562,1.0761a14.8,14.8,0,0,0-3.7266-2.1914c-2.81-1.2265-6.3823-1.6133-9.10979.0117-3.36921,2.0049-2.17141,6.9043.10839,9.254a10.35132,10.35132,0,0,0,7.1738,2.8242,15.07307,15.07307,0,0,0-2.8115,3.7275,33.681,33.681,0,0,0-2.8521,6.25,43.71211,43.71211,0,0,0-1.5424,5.5967c-.17.8789-.6929,3.1279.538,3.5449.6441.2188,1.0835-.751.4336-.9726-.5156-.1729.188-2.9522.2964-3.4239a47.558,47.558,0,0,1,1.4156-4.8066,34.6708,34.6708,0,0,1,2.6835-5.7549,12.65376,12.65376,0,0,1,3.2261-3.915c.1441-.1084.2915-.2139.4404-.3145a13.51766,13.51766,0,0,0,1.7813-.3056c.4458-.1084.4185-.5879.1528-.8467.0235-.0127.0469-.0254.0679-.0391a.48412.48412,0,0,0,.3237.0537,12.0869,12.0869,0,0,0,5.416-2.0312,16.51715,16.51715,0,0,0,3.7569-4.1534c.3208-.4628.6474-.9765.9585-1.5214.3398-.1885.686-.3594,1.0293-.5215a21.66565,21.66565,0,0,1,4.6992-1.6446,17.46106,17.46106,0,0,1,10.3755,1.0665,20.81621,20.81621,0,0,1,8.1968,7.0312,31.74016,31.74016,0,0,1,2.6352,4.4356,9.31235,9.31235,0,0,1,1.2124,5.0322.55721.55721,0,0,0,.0103.1865,1.95649,1.95649,0,0,0-1.5694,1.2959c-.0029.0117-.0048.0234-.0078.0332-.0327-.0713-.0639-.1445-.0971-.2158a15.15742,15.15742,0,0,0-4.8316-5.6494,40.12358,40.12358,0,0,0-7.6465-3.8633.51919.51919,0,0,0-.7256.3896.58236.58236,0,0,0,.1822.8262c.6308.3652.8257,1.4775,1.0498,2.1133a9.12352,9.12352,0,0,1,.5425,2.1357,7.44655,7.44655,0,0,1-.7974,3.8506c-.9898,2.083-3.0684,4.2217-5.543,3.1934-.6328-.2637-1.0683.707-.4341.9717,3.0142,1.2539,5.5166-1.0039,6.856-3.544a8.58384,8.58384,0,0,0,.9517-4.831,12.12205,12.12205,0,0,0-.773-2.7071c-.0947-.2715-.1909-.54-.3057-.7988a36.8071,36.8071,0,0,1,5.4761,2.75,14.28759,14.28759,0,0,1,4.8838,5.3008,16.3739,16.3739,0,0,1,.625,13.875,14.2564,14.2564,0,0,1-4.6333,5.8369,15.32066,15.32066,0,0,1-5.3691,2.208.49352.49352,0,0,0-.2305.0498q-.52815.1143-1.0547.207a35.03783,35.03783,0,0,1-14.8804-.8642,22.73623,22.73623,0,0,1-5.6108-2.3985,33.34307,33.34307,0,0,1-4.45069-3.5302,9.06217,9.06217,0,0,1-2.98481-3.9961c-.59719-1.8262.1831-3.7188-.1685-5.5655-.1274-.6699-1.188-.5595-1.0586.1163a12.82872,12.82872,0,0,1-.0566,3.1806,7.48061,7.48061,0,0,0,.455,3.126,6.25393,6.25393,0,0,0,.4751.999.53769.53769,0,0,0-.1723.1387c-1.4712,1.748-4.0469-.9287-4.835-2.1494a2.7048,2.7048,0,0,1-.3174-2.7647c.6817-1.5166,2.2486-2.2324,3.5044-.9355.479.4931,1.1485-.335.6778-.8223-1.39409-1.4394-3.2212-1.1416-4.4888.2832a3.70452,3.70452,0,0,0-.5576,4.2988c1.0342,2.0899,4.61331,5.2881,6.7851,2.8252a18.199,18.199,0,0,0,2.645,2.5831,28.78771,28.78771,0,0,0,5.6695,4.0371,21.26413,21.26413,0,0,0,2.0879.9082,5.88988,5.88988,0,0,0-1.9824,2.0849,9.61386,9.61386,0,0,0-1.7203,5.2315,6.56235,6.56235,0,0,0,2.16751,3.9638c-.01071.0196-.02241.0352-.03221.0567a75.97616,75.97616,0,0,0-3.0737,7.6445c-.4512,1.3984-.8623,2.7715-1.4507,4.1231-.5601,1.2871-1.15139,2.5576-1.6089,3.8867-1.332.3701-2.1973,1.4687-3.3911,2.1035-.1099.0537-.2227.1103-.3448.1689-.6147.2881-.2573,1.2657.38041.9932a3.81046,3.81046,0,0,0,.44879-.2275,1.48268,1.48268,0,0,1,.4741-.1446.49606.49606,0,0,0,.4565-.5117c.31061-.2441.6182-.4951.93561-.7178-.667,1.5469-.62161,3.2979-1.26661,4.8633a.53361.53361,0,0,0,.97361.4356l.542-1.2168a.47989.47989,0,0,0-.05321-.5118,16.41445,16.41445,0,0,1,.7519-3.0703.51886.51886,0,0,0,.04931.0694,5.647,5.647,0,0,0,.23929,1.2461,8.38541,8.38541,0,0,1,.2876,2.1074.53131.53131,0,0,0,.0024.2236,8.9795,8.9795,0,0,1-.0761,1.211c-.0801.5781.8066.8789,1.0131.2978a2.8322,2.8322,0,0,0,.0664-1.8428v-.0009c-.0273-.3623-.0678-.7286-.1069-1.0948a5.48476,5.48476,0,0,0-.1909-1.2812c-.0308-.0879-.0601-.1817-.0864-.2803a21.95293,21.95293,0,0,0,2.3491,1.9063c.6147.3076,1.0459-.667.4341-.9727-1.09569-.5498-1.7735-1.5859-2.8345-2.1426a.57288.57288,0,0,0-.3623-.7138.42685.42685,0,0,0,.1997-.2305c.8921-2.6983,2.2217-5.1992,3.043-7.9277a65.83492,65.83492,0,0,1,3.0796-7.754,4.25009,4.25009,0,0,0,3.9453.8165c-.2959,1.9306-.5542,3.8652-.7613,5.7949-.13419,1.2383.0259,2.4892-.09219,3.7158a7.25089,7.25089,0,0,0,.16649,2.54c-1.7027-.955-3.2129.9112-4.231,2.1143a5.2496,5.2496,0,0,0-1.3227,2.8037,4.65154,4.65154,0,0,0,1.0869,3.0313,6.74333,6.74333,0,0,0,5.561,3.2695,6.28942,6.28942,0,0,0,2.894-1.0361,7.29987,7.29987,0,0,0,1.733-1.5752q.1398,2.76855.517,5.5185c.23,1.6494.7017,3.2568.9317,4.8994a12.91056,12.91056,0,0,0,.24361,1.5205.53833.53833,0,0,0-.62641.2715c-1.3604,2.5576,2.0591,4.4043,3.935,5.2559a8.05072,8.05072,0,0,0,3.6709,1.1299c1.41751-.083,1.7207-1.6768,1.3111-2.7725a5.2727,5.2727,0,0,0-2.9473-2.6982,5.7,5.7,0,0,0-2.4951-.8789,11.901,11.901,0,0,1-1.2515.0478c-.3486-.0146-.3149.002-.4863-.4316a13.799,13.799,0,0,1-.41939-2.3233c-.19581-.9726-.44831-1.9277-.61671-2.9072a55.072,55.072,0,0,1-.6749-6.1104,5.14265,5.14265,0,0,0,1.92,2.0108,4.01558,4.01558,0,0,0,3.4028.1797,6.50475,6.50475,0,0,0,3.36281-2.4073,5.80865,5.80865,0,0,0,2.67719,1.7891c-.07519,1.8486.3643,3.6484.3384,5.4902a27.83363,27.83363,0,0,0,.4761,5.2217.52848.52848,0,0,0-.186.0967c-3.18169,2.5801,4.0546,5.3096,5.7031,5.7324a3.987,3.987,0,0,0,1.9267.1309A1.78578,1.78578,0,0,0,117.18686,183.10188Zm12.103-56.3174c-.1391.0616-.2768.1231-.413.1866.0258-.1104.0468-.2188.0634-.3272A.51508.51508,0,0,0,129.28986,126.78448ZM88.56776,94.183a7.613,7.613,0,0,0-3.1939,3.1572.5535.5535,0,0,0,.4302.7568,12.0633,12.0633,0,0,1-1.5972,1.5254,9.71149,9.71149,0,0,1-3.9736,1.7832.56214.56214,0,0,0-.8262-.3154c-.94969.5879-1.9384,1.1035-2.8774,1.7012a10.33025,10.33025,0,0,1-7.46529-2.0674c-2.292-1.9727-3.57231-6.332-.48691-8.1709,2.2456-1.335,5.4068-.8037,7.6997.1377a14.07268,14.07268,0,0,1,3.2471,1.8408,5.76128,5.76128,0,0,1,1.1914,1.1768,6.03039,6.03039,0,0,0,.4385,1.5195.51084.51084,0,0,0,.1216.249,2.83826,2.83826,0,0,0,1.7998,1.4414c.6587.1875.8125-.8662.1601-1.0537a1.68679,1.68679,0,0,1-1.0258-.8711,3.209,3.209,0,0,0-.4629-1.6816c-.0181-.1524-.0318-.2979-.043-.4375a14.69294,14.69294,0,0,1,.2969-3.915,11.42026,11.42026,0,0,1,1.8613-4.2315,3.03663,3.03663,0,0,1,2.6094-1.4678,4.17031,4.17031,0,0,1,2.5395,1.1328c1.2569,1.1299,1.09131,3.3047.7544,4.7881A11.49807,11.49807,0,0,1,88.56776,94.183Zm29.0869,25.9892a19.11034,19.11034,0,0,0-1.4531-7.6464.4579.4579,0,0,0,.6992-.2422c.3779-1.0957,1.7495-.7432,2.5312-.3213.9317.5039,1.0117,1.7392.982,2.6748C120.35486,116.45448,119.58336,119.41348,117.65466,120.17218Zm-19.9238,59.9903a4.43054,4.43054,0,0,0,1.601.0703,5.07778,5.07778,0,0,1,2.3257.7656c1.1123.4951,2.396,1.3545,2.523,2.6865.1455,1.5205-2.34619.3291-2.9209.0664-1.3872-.6279-5.188-2.0859-4.1958-4.1377A1.24006,1.24006,0,0,0,97.73086,180.16248Zm10.78851-46.3242a.4861.4861,0,0,0,.56789.538c2.1099-.3369,4.3315,2.0342,4.93311,3.8653a3.507,3.507,0,0,1-1.25681,3.4072c-.3628.2861-2.166.9238-2.4478.4307a.43078.43078,0,0,0-.60839-.1826,51.0953,51.0953,0,0,0-2.18111-7.6758l-.00589-.0098C107.85876,134.09608,108.19076,133.97108,108.51936,133.83828Zm-9.54681,1.6386a30.50119,30.50119,0,0,0,5.4707-.4853c-.6148,1.3594-1.3301,2.5459-3.0201,2.8291-1.25779.209-3.2207-.9326-2.4526-2.3408Zm-14.8531,5.1729a7.74348,7.74348,0,0,1,1.1836-3.8906c.5152-1.0108,1.7075-3.0547,3.1255-2.4834a.5068.5068,0,0,0,.5615-.1084c.8838.2441,1.7788.4462,2.6748.6162.21151.041.4234.0781.6363.1152a.52825.52825,0,0,0-.1831.3027c-.7129,3.1788-1.34569,6.4053-1.875,9.6455C88.00376,146.86848,84.38516,142.93878,84.11946,140.64978Zm6.1294,14.9844c.0591-.6075-.06-1.2666-.0449-1.8809a28.98774,28.98774,0,0,1,.3481-3.4248q.364-2.53275.7632-5.0625c.044-.0527.0899-.1016.1319-.1582a.51728.51728,0,0,0-.003-.6445c.49521-3.0508,1.0518-6.0889,1.7271-9.1016a.48157.48157,0,0,0-.0318-.3272,39.39553,39.39553,0,0,0,4.6758.4297c-.605,1.7784,1.272,3.1563,2.9473,3.4053,2.7446.4082,4.02981-2.0605,4.9619-4.1484.0576-.0127.1157-.0244.1724-.041.20551-.0498.4096-.1045.6128-.1602a.47645.47645,0,0,0,.0219.0811,56.48455,56.48455,0,0,1,2.7354,10.7431c.3091,1.8496.6348,3.6973.938,5.5508.1499.9121.2607,1.8271.3667,2.7461.0776.6611.5923,1.376.372,2.0508l-.00629.0361a3.66911,3.66911,0,0,0-.50831.1973.55061.55061,0,0,0-.2783.6992,24.69186,24.69186,0,0,1-4.4292,1.0195,79.317,79.317,0,0,1-11.2549,1.1446,14.73371,14.73371,0,0,1-3.3384-.1954c-.1553-.0361-.5937-.0703-.6714-.2431a4.87,4.87,0,0,1-.2656-1.2188A6.66,6.66,0,0,1,90.24886,155.63418Zm14.5508,9.7929a2.43525,2.43525,0,0,0-.1411-.2138.53274.53274,0,0,0-.8657.6201c.9467,1.2754-1.85349,2.4726-2.7032,2.7851-2.5068.92-3.8637-1.3076-4.8286-3.2715a.54182.54182,0,0,0-.8076-.2412,10.35347,10.35347,0,0,0-1.6074,1.4942,6.31443,6.31443,0,0,1-2.1973,1.5332,4.43118,4.43118,0,0,1-4.7612-1.1397c-1.2754-1.167-2.5205-2.9424-1.771-4.6875a7.595,7.595,0,0,1,1.5801-2.0781c.4702-.499,1.3403-1.5283,2.11471-1.0185a.5793.5793,0,0,0,.81639-.2041,1.58734,1.58734,0,0,0,.9209.5361,15.20257,15.20257,0,0,0,3.708.3056,71.38682,71.38682,0,0,0,12.503-1.2919c1.0083-.1709,4.15771-.5899,5.2041-1.8106.5537.0674,1.0957.3027,1.684.4258a4.25218,4.25218,0,0,0,2.0645-.3164,9.25014,9.25014,0,0,1,1.2529-.4854c.2867-.0566.5406.6944.6411.8789a10.23132,10.23132,0,0,1,1.1436,3.1133c.2808,1.5967-.001,4.8555-2.0088,5.2842-1.4058.2979-3.0415-1.126-4.24069-1.6777a.53877.53877,0,0,0-.74371.4072c-.2104,1.415-.6005,2.8721-2.021,3.5049C107.642,168.80988,105.88216,167.02968,104.79966,165.42708Zm10.2798,19.2451a7.22447,7.22447,0,0,1-1.6494-.3515c-.7188-.2197-5.6118-2.125-4.8775-3.4131a.5346.5346,0,0,0,.5752.4268c2.2271-.2032,5.4761-.1465,6.9131,1.8808C116.65266,184.08038,116.00766,184.726,115.07946,184.67218Z" fill="#4d2811"/>
            <path d="M70.63316,138.87238c.249-.6377-.7222-1.0742-.9731-.4336-.1343.3428-.2413.6963-.39069,1.0342a4.56666,4.56666,0,0,1-.12061-.5986c-.1489-.916-.0776-1.8633-.2402-2.7764a12.11433,12.11433,0,0,1,.02-2.1318c.0132-.9902.0415-1.9795.1021-2.9678a16.282,16.282,0,0,1,1.1352-5.4551.53273.53273,0,0,0-.9726-.4336,18.92644,18.92644,0,0,0-1.2657,6.6651,50.94005,50.94005,0,0,0-.0107,5.2207c.0601,1.0224-.06149,2.7793.7534,3.5605C69.73126,141.57258,70.37246,139.53848,70.63316,138.87238Z" fill="#4d2811"/>
            <path d="M76.12046,138.98768c.1065-.3545.0864-.7315.1914-1.0811a.59139.59139,0,0,0-.4297-.7363c-.0171-.2285-.0307-.4522-.0493-.667-.08149-1.0186-.12549-2.0381-.1689-3.0566-.0367-.877-.0664-1.753-.1202-2.628-.0249-.4013.0044-.9492-.31439-1.247-.50341-.4688-1.17631.3564-.67771.8222-.233-.2168-.1329-.2197-.1001.1084.0322.3242.04681.6494.0639.9766.04591.8887.0762,1.7754.1157,2.664a17.17156,17.17156,0,0,0,.5064,4.8184C75.27916,139.36358,75.98326,139.44568,76.12046,138.98768Z" fill="#4d2811"/>
            <path d="M82.27676,136.77478a13.227,13.227,0,0,0-.7808-3.2725,6.49083,6.49083,0,0,0-1.6997-3.0576c-.5391-.4258-1.2158.3965-.6768.8223a5.68589,5.68589,0,0,1,1.38091,2.6172,11.5526,11.5526,0,0,1,.71729,3.0078C81.26256,137.57648,82.32116,137.45938,82.27676,136.77478Z" fill="#4d2811"/>
            <path d="M123.32166,132.348c-.0239-2.1435-1.09229-4.0859-1.8814-6.0234-.6924-1.7012-.4946-3.6934-1.7934-5.1563-.4527-.5097-1.3218.1084-.8672.6192,1.2168,1.3711,1.03471,3.3086,1.6655,4.9199a32.04261,32.04261,0,0,1,1.6206,4.2275.58805.58805,0,0,0-.46139.8614c.20069.3554.55659.5673.75589.9209C122.65076,133.23378,123.328,132.81778,123.32166,132.348Z" fill="#4d2811"/>
            <path d="M107.205,124.86848c-2.7827,6.0078-13.12259,6.0567-15.48-.3222a.53259.53259,0,0,0-.99459.3798c2.68359,7.2637,14.28019,7.2129,17.44719.376A.53272.53272,0,0,0,107.205,124.86848Z" fill="#4d2811"/>
            <path d="M93.81236,120.52088a1.23554,1.23554,0,0,1,.03519-.4844,4.86448,4.86448,0,0,0,.0527-.8174.532.532,0,0,0-.58689-.4707.54134.54134,0,0,0-.47071.5869,5.1961,5.1961,0,0,0-.0254,1.5655C93.02716,121.558,94.02036,121.17318,93.81236,120.52088Z" fill="#000100"/>
            <path d="M108.25226,118.21718a4.95689,4.95689,0,0,1-.1538-1.4102c-.0307-.6846-1.0893-.5684-1.0595.1152a5.80513,5.80513,0,0,0,.2192,1.6739C107.48666,119.24448,108.47936,118.86458,108.25226,118.21718Z" fill="#000100"/>
          </g>
        </g>
        <g>
          <path d="M127.43976,110.33628a8.60219,8.60219,0,0,1,.1407-.9121,3.44574,3.44574,0,0,1,5.9614-1.6631,4.25237,4.25237,0,0,1,.3286.3721,4.775,4.775,0,0,1,1.0503,2.5849,6.94535,6.94535,0,0,1,.1719,1.5518c-.0034.3125-.0181.6562-.0552,1.001a6.90457,6.90457,0,0,1,2.4053-.6963,6.15188,6.15188,0,0,1,.8935-.041c.0244-.0059.0489-.0137.0713-.0186a3.0974,3.0974,0,0,1,2.708.7422,4.10774,4.10774,0,0,1,1.23,1.4785,1.98434,1.98434,0,0,1,.2173.5498c.0161.0508.0337.0987.0483.1524a3.39647,3.39647,0,0,1-.7104,2.789c-.9907,1.6201-3.54639,1.9825-5.1909,2.5166a17.86117,17.86117,0,0,0-3.438,1.4893,22.44026,22.44026,0,0,1-2.7036,1.4258,1.17448,1.17448,0,0,1-.8223-.003,1.31515,1.31515,0,0,1-1.5391-1.2675,19.69033,19.69033,0,0,0-.6362-3.5352,26.39212,26.39212,0,0,1-.521-3.7334C126.98326,114.14488,126.65126,111.52578,127.43976,110.33628Z" fill="#e83f71"/>
          <path d="M126.09946,117.6a28.78332,28.78332,0,0,0,1.6475,4.4472c.6347,1.2901,1.4116,2.8116,2.77441,3.4268a1.01821,1.01821,0,0,0,1.46679-.6807,61.94266,61.94266,0,0,0,7.3144-3.0293c2.0865-1.1484,4.5679-2.8642,5.128-5.3593.581-2.5967-1.0664-4.4893-3.6177-4.8692a7.342,7.342,0,0,0-3.5689.0352,4.52417,4.52417,0,0,0-.9145.458,6.295,6.295,0,0,0-3.3462-6.6055c-2.6416-1.1846-6.0181.6319-7.1836,3.1406C124.46616,111.43978,125.22546,114.69368,126.09946,117.6Zm1.1621-6.0918c.0762-2.1787,1.9116-4.8965,4.377-4.751,2.8457.1699,3.8554,3.5234,3.1255,5.8545a.63651.63651,0,0,0,.1049.6152c-.0952.0957-.1909.1895-.2832.2832a.58238.58238,0,0,0,.8111.835,3.58747,3.58747,0,0,1,2.81151-1.2119,10.11375,10.11375,0,0,1,2.76809.709c.623.2685,1.4018.7705,1.1914,1.5683a4.79036,4.79036,0,0,1-1.3228,2.2705,19.06283,19.06283,0,0,1-5.2021,3.126c-1.3999.6699-3.3799.8545-4.8028,1.6914a11.28977,11.28977,0,0,1-.8335-1.3418,22.9799,22.9799,0,0,1-1.2851-3.1982C128.06136,115.91538,127.18686,113.68978,127.26156,111.50818Z" fill="#463130"/>
        </g>
        <g>
          <path d="M56.89876,103.72888c.9888.123,2.8618,5.8525,3.315,6.6299,2.6269,4.5127,4.8349,5.1631,7.2954,9.7744,5.3301,9.9961,7.94921,20.9521,12.1889,31.4023,2.0235,4.9922,4.24131,9.8252,6.1104,14.8594a23.217,23.217,0,0,1,.5054,2.7744c.2461.9463.9956,1.7393.5581,2.792" fill="none" stroke="#3a2621" stroke-linecap="round" stroke-linejoin="round" stroke-width="1.3156"/>
          <path d="M75.09016,174.78548c-3.65279-4.5742-9.7241-12.3515-13.7715-16.6367-4.851-5.1367-9.4594-9.2148-14.5849-14.1025-5.1392-4.9004-12.77539-9.0147-17.7363-14.0743-7.0245-7.163-10.9356-16.041-19.1934-22.038a54.59582,54.59582,0,0,1-5.2559-4.9336,22.25868,22.25868,0,0,1-3.747-4.0078" fill="none" stroke="#3a2621" stroke-linecap="round" stroke-linejoin="round" stroke-width="1.3156"/>
          <path d="M117.38606,78.10188c.9258,1.0166.5635,2.3487.523,3.5869-.2002,5.8985,1.0078,11.8213,1.374,17.6924.3369,5.3623.3115,10.7559.7207,16.1084.4482,5.8535.9971,10.2608,1.0503,13.5948.0825,5.0332.6108,10.0087.9058,15.0312.0976,1.6445.8437,6.4971.2226,8.041" fill="none" stroke="#3a2621" stroke-linecap="round" stroke-linejoin="round" stroke-width="1.3156"/>
          <path d="M158.00615,54.00328c.0455-.2607-.102,1.8652-.0429,1.6074-.4663,3.5127-2.1138,7.2002-3.065,10.583-1.9965,7.1074-11.6987,34.4737-13.2314,41.2364-1.16649,5.1396-2.6958,10.4306-3.3701,15.6572-.4258,3.289-.9737,6.4736-1.6026,9.7363a46.89086,46.89086,0,0,1-1.3173,6.5479q-.471.95205-.9327,1.9111c-.3081.9004-.313,1.8555-.6504,2.7412-.3046.794-.8393,1.3867-1.104,2.1973-.0922.0049-.186.0117-.2783.0185" fill="none" stroke="#3a2621" stroke-linecap="round" stroke-linejoin="round" stroke-width="1.3156"/>
          <path d="M58.96906,6.41828c1.3824-.0205-.6054.6495.7266.0098a14.407,14.407,0,0,1,6.5664-1.7285c5.0874.0693,10.669-1.1543,15.9839.5791,2.2817.7432,7.1543.5732,9.4336,1.2178,2.4004.6796,4.7627,1.3388,7.2441,1.915a70.47324,70.47324,0,0,1,7.2325,2.6406c2.5766.9151,5.5341.6221,7.9873,1.9258,4.5263,2.4043,8.9404,4.9912,13.4975,7.2881,1.9566.9873,3.04541,2.4912,4.9995,3.3799,3.042,1.3838,3.1895,3.3672,5.7427,5.4092,2.9146,2.331,4.9355,2.8525,7.6797,5.4345,2.2256,2.0928,5.2432,6.4795,7.1499,8.8184,2.1113,2.5879,5.7895,7.7598,6.1499,11.2285-2.1528.5986-5.0454-3.3555-7.2222-3.4902a26.83212,26.83212,0,0,0-8.2495.8584c-4.8633,1.3125-11.0185,2.0937-14.3755,5.8642-3.1982,3.5918-5.0268,5.2393-7.6308,8.8633-1.9112,2.6592-3.34129,7.8408-4.2154,10.9844-1.7983-4.877-5.1098-8.6113-7.3745-14.0479-2.4892-5.9795-2.7783-9.8906-4.9053-13.6357-2.2465-3.9629-4.0019-8.2119-6.8647-11.7578a77.50017,77.50017,0,0,0-8.6118-8.6436c-2.8408-2.5332-6.0967-4.6875-8.6553-7.5303-2.9111-3.2373-4.9595-6.8378-8.5801-9.458-2.3984-1.7382-6.1357-3.0224-8.6406-4.6015-1.9228-1.2139-3.2808.6826-4.7007-1.8809" fill="#b6b84e"/>
          <path d="M58.10776,8.10288c-.2056-.1211-.8769,1.5606-1.081,1.4395-.5782,1.0468-.8936,2.1836-1.3931,5.0703-.3809,2.1875-1.3848,4.0947-1.94,6.2734-.9985,3.9092-1.0307,8.3379-1.225,12.3418-.44829,9.0264-.5928,16.4502-1.1397,25.4258-.3398,5.5683-.5752,8.2002.353,13.0908.7735,4.0772,1.1558,8.5479,1.6866,12.6221.4467,3.4228,1.8095,7.2627,2.2417,10.6904.2719,2.1582,1.0166,7.501,2.5107,9.2774-3.1904-4.9717-9.4443-10.0049-15.8735-10.962-2.462-.3662-5.2466-.5498-7.74609-.8173-3.08011-.3301-6.46491-.0762-9.56691-.0938-5.4024-.0312-10.3472-.8389-15.3135,1.9766-2.7647,1.5683-6.0679,3.0771-8.0669,5.4824.4175-2.5625-.7349-.5537-1.1211-5.5313-.3457-4.4511-.0073-.3105.2905-4.7617.5674-8.4883,1.3111-3.791,2.4263-11.7793A97.63352,97.63352,0,0,1,8.391,59.06378c1.7217-4.3984,1.7549-6.8847,4.9097-11.124,2.8833-3.873,3.9248-8.2568,8.0849-11.0791,1.8697-1.2695,5.84481-7.6953,7.8247-8.8056,1.7627-.9854,5.9712-6.4151,7.8082-7.3536,3.2036-1.6377,5.5571-6.1152,9.0151-7.2695,1.7749-.5928,4.6333-3.2725,6.3955-3.5059.7485-.0986,1.63531-2.0615,5.293-2.7968" fill="#fbbe14"/>
          <path d="M58.95836,7.14588a24.28784,24.28784,0,0,1,4.36229.2226c2.1973.4278,3.6235,1.8086,5.4243,2.8731,1.8862,1.1172,3.6426,1.3437,5.4361,2.9267,1.52831,1.3506,3.1938,2.8291,4.644,4.2227,2.4297,2.333,4.6797,5.293,7.5,7.5693,1.3848,1.1182,2.981,1.9151,4.29931,3.0899.98539.8769,1.97559,1.957,2.95949,2.8779.9477.8867.8262,1.3125,1.4956,2.1299,2.603,3.1748,4.9336,7.1543,7.2461,10.5332,2.3257,3.3955,3.0727,8.6543,4.92481,12.1816,2.39839,4.5723,4.08449,5.9658,5.42479,10.9776.4731,1.7675,2.6255,4.625,3.0649,6.3408a7.39412,7.39412,0,0,0,2.4112,3.959c-4.3941-.5948-6.6617-1.5537-10.4307-2.1289-3.4829-.5303-8.2393-1.1328-11.6909-.3994-9.65629,2.0507-12.5889,3.8281-18.4234,5.3867a25.79234,25.79234,0,0,0-8.291,3.9463c-1.0996.8515-2.0927,1.8027-3.1855,2.6201a10.90756,10.90756,0,0,0-2.94239,2.6279c-1.45851,2.0518-1.84371,4.043-3.42681,5.9727-1.7714,2.1552-1.601,4.5888-2.2251,6.9482a49.68081,49.68081,0,0,1-4.0034-15.7168c-.2783-5.2588-1.0102-10.0322-1.2495-15.2812-.2339-5.1563-.624-8.5889-.541-13.7998.0825-5.0938.1387-10.1895.2075-15.2832.105-7.7901,1.2154-14.2452,2.4732-21.7735a76.625,76.625,0,0,1,2.0556-8.6953c.5982-1.9687-.0444-4.2363,2.48051-4.3281" fill="#4b8fad"/>
          <path d="M57.869,7.13028a33.84329,33.84329,0,0,1-1.7099,5.5976c-1.9942,6.2529-2.272,13.1553-3.11669,19.6397-1.34571,10.3261-1.24561,21.0781-1.231,31.4892.00779,8.5606,1.71189,17.167,2.60449,25.6524a45.416,45.416,0,0,0,1.8037,8.6093c.4575,1.4385.6533,2.959,1.168,4.3604" fill="none" stroke="#3a2621" stroke-linecap="round" stroke-linejoin="round" stroke-width="1.3156"/>
          <g>
            <path d="M59.65516,6.30508c-1.4986-3.9639-1.999-6.9717-4.1631-5.0538-.9014.7989.5019,5.6231,1.7305,6.3731" fill="#ffd213"/>
            <path d="M59.65516,6.30508c-1.4986-3.9639-1.999-6.9717-4.1631-5.0538-.9014.7989.5019,5.6231,1.7305,6.3731" fill="none" stroke="#3a2621" stroke-linecap="round" stroke-linejoin="round" stroke-width="1.3156"/>
          </g>
          <path d="M94.38606,7.88318c-1.4731-.4346-3.95069.2685-5.2251,1.0752a16.90963,16.90963,0,0,0-4.1689,4.5029,32.93087,32.93087,0,0,0-2.0903,3.3945c-.2691.4678-.2832.9014-.5118,1.3721-.20359.4229-.5957.5244-.747.9961-.4507-.5459-.8199-1.2988-1.3233-1.8877-.6094-.7139-1.4267-1.3486-1.1958-2.3408a6.911,6.911,0,0,1,.919-1.5166,24.23721,24.23721,0,0,1,1.7573-2.3135c.8359-.9726,1.65821-1.8809,2.5293-2.79a10.96406,10.96406,0,0,1,2.5264-2.253,2.32091,2.32091,0,0,1,2.0297-.1298c.8379.1884,1.4991.5732,2.3721.7304q1.34775.24465,2.6939.499" fill="#9f9f1c"/>
          <path d="M77.27426,6.24838c-.1894-.79-2.5898,2.7549-2.8325,3.2061a28.60992,28.60992,0,0,0-1.4932,2.9609c-.2373-.3027-.3989-.9414-.7065-1.2734-.3516-.3741-1.0982-.2539-1.2739-.7383.5317-1.0264,1.4179-1.8193,1.8671-2.9141.2808-.6914.3624-1.7978,1.1338-2.0605.7447-.2539,2.4815.9687,2.9244.1758" fill="#9f9f1c"/>
          <path d="M106.93446,11.69858a7.27521,7.27521,0,0,0-2.378,1.4668c-1.2939.9463-2.642,1.8272-3.913,2.8047a36.62392,36.62392,0,0,0-5.7354,5.96,12.2571,12.2571,0,0,0-1.2651,2.0781c-.37059.6465-1.01959,1.2451-1.32859,1.9072-.23591.5127-.40821,1.0732-.63241,1.5781a7.34981,7.34981,0,0,0-.6079,1.1963c-.4038-2.1689-3.2471-2.4609-1.6362-4.9424.5723-.8798,1.0268-1.7216,1.5361-2.6298a16.80136,16.80136,0,0,1,2.5493-2.71,18.24778,18.24778,0,0,0,1.5005-2.1816,6.85589,6.85589,0,0,1,2.0791-1.6026c1.6929-1.1865,3.315-2.4639,5.0059-3.6191.7007-.4795.8765-1.1055,1.8862-.8057.6177.1836.7212.4736,1.2295.8574a3.06769,3.06769,0,0,0,1.4268.5801" fill="#9f9f1c"/>
          <path d="M148.90515,39.37238a19.11077,19.11077,0,0,0-5.0757-.1523c-3.062.3535-5.9194,1.6416-8.7876,2.6797a39.87746,39.87746,0,0,0-3.7031,2.0888,14.55065,14.55065,0,0,0-3.3609,2.1778c-2.292,1.9599-4.1259,4.3974-6.39349,6.3525a44.32654,44.32654,0,0,0-4.232,4.8496,41.77626,41.77626,0,0,0-3.15231,3.833,15.18439,15.18439,0,0,0-2.0591,4.793c-.374-.2051-.1645-1.9228-.3794-2.4199a6.56829,6.56829,0,0,1-.4726-1.2578,4.50655,4.50655,0,0,0-.37359-1.168c.98439-.7109,1.58159-2.3945,2.18359-3.4082,1.4668-2.4668,3.0171-4.7822,4.6411-7.1504a44.98357,44.98357,0,0,1,5.5972-6.7871,30.44991,30.44991,0,0,1,3.2549-2.543,23.81591,23.81591,0,0,1,3.4106-2.5869,71.74225,71.74225,0,0,1,10.7212-3.9609c.7163-.2227,1.48341-.377,2.2056-.5742a2.73558,2.73558,0,0,1,1.6797-.1358,7.15592,7.15592,0,0,1,1.4438,1.7442c.437.6074.7114,1.5927,1.4214,1.9101" fill="#9f9f1c"/>
          <path d="M136.21126,28.29818a17.78052,17.78052,0,0,0-9.9663,2.8115,55.0593,55.0593,0,0,0-12.8164,10.9356,35.1317,35.1317,0,0,0-5.0898,8.3701c-.2832.6436-.5562,1.3418-.7998,1.9697-.1763.4502-.1851,1.2657-.5738,1.6153a5.16458,5.16458,0,0,1-.4614-1.3692c-.3018-.8369-.5976-1.6718-.8672-2.5136a13.76147,13.76147,0,0,0-.8887-1.9493c-.2534-.5019-.7441-1.0986-.7348-1.6123a6.9194,6.9194,0,0,1,.6997-1.5361,13.8028,13.8028,0,0,1,1.2475-1.8516c1.14511-1.5664,2.0933-3.2324,3.2208-4.8086a26.74613,26.74613,0,0,1,7.5932-7.4218c2.5938-1.625,5.5899-2.6221,8.3223-4.0059a9.697,9.697,0,0,1,4.3559-1.3906,6.40361,6.40361,0,0,0,1.961-.2705c.5615-.1602,1.3218-.9385,1.9521-.6621.94781.416,1.3443,3.2959,2.856,2.9619" fill="#9f9f1c"/>
          <path d="M126.22156,19.59608c-3.0933-.5508-6.0034-.8692-8.8106,1.0293a35.86308,35.86308,0,0,0-6.2544,4.9043c-1.6093,1.7031-3.5366,3.1953-4.8984,5.1279-1.4951,2.1191-3.25679,3.9932-4.3975,6.3115-.5136,1.044-1.1709,1.9678-1.6547,2.9893-.4429-.4463-.4527-1.0811-.80859-1.5957-.34571-.4991-1.07911-.8467-1.32331-1.4297a1.023,1.023,0,0,1-.1059-.8057c-.0342-.1494-.335-.8398-.3306-.9433.0425-.7139.6235-.8975,1.0264-1.4883,3.0122-4.4238,6.2993-8.8457,11.0131-11.5391,1.6211-.9258,3.1138-2.2617,4.8272-2.9931q.5097-.15975,1.0156-.3331c.543-.2998.83451-.873,1.3443-1.1962.6464-.4131,1.4091-.586,2.0717-.9873.8897-.5362,1.5708-.7999,2.4258-.1397,1.2998,1.001,2.4278,3.2022,4.2901,3.2656" fill="#9f9f1c"/>
          <path d="M58.95836,7.14588c6.90619.0937,13.73829,4.4082,17.44089,7.6963,3.6226,3.2197,7.2534,6.4502,10.6948,9.8642a155.46646,155.46646,0,0,1,10.4141,12.0342,48.74235,48.74235,0,0,1,7.6338,12.8672c1.69241,4.2959,3.0493,9.0625,5.3765,13.0586,1.8061,3.0967,2.8325,6.5019,4.3418,9.7558.788,1.6993,2.582,3.7735,2.686,5.667-.1182-.0986-.23289-.1963-.3521-.2929" fill="none" stroke="#3a2621" stroke-linecap="round" stroke-linejoin="round" stroke-width="1.3156"/>
          <path d="M89.23036,44.38418c.13129-.0264.26219-.0518.39249-.0782.1319-2.2256,4.5484-4.8525,5.9019-2.3291.7144,1.336-.21239,3.7881-1.062,4.8028a7.49743,7.49743,0,0,1-6.27539,2.4912c-3.66061-.4629-4.84771-6.3125-3.66891-9.3916,1.5605-4.0723,4.9838,2.541,4.71191,4.5049" fill="#89b8cf"/>
          <path d="M75.85976,29.66538c1.2275,1.4492,1.2104-.7627,1.57961-1.4629a11.61192,11.61192,0,0,1,1.872-2.3994c2.896.6377-2.83841,13.6152-5.438,4.9453-.34131-1.1396-1.31-4.8965.583-5.4189,1.94729-.5362,2.60009,2.9599,2.37309,4.3486" fill="#89b8cf"/>
          <path d="M63.329,60.51208c1.4136-.4531,1.4429-1.7129,1.9365-2.8809a6.43839,6.43839,0,0,1,3.024-3.2568c2.9472,1.4648.02091,8.0078-1.6045,9.4443-3.1407,2.7735-5.9927-1.4707-6.64459-4.4277-.29681-1.3477-1.60061-5.4766.55859-5.7774,1.7158-.2382,3.4395,3.6114,3.7261,4.9737" fill="#89b8cf"/>
          <path d="M61.19326,39.16048c-.27789-1.2334,2.65911-4.7666,3.9462-4.3945,1.7745.5117,1.46491,7.7012-.0732,8.8379-1.5293,1.1328-3.4443.1924-4.9141-.5615-1.98579-1.0196-2.4877-1.7012-2.3696-3.9639.0469-.9033-.0049-2.0449.9873-2.419a2.05263,2.05263,0,0,1,2.4361,1.5313" fill="#89b8cf"/>
          <path d="M81.19566,65.11358c2.1724-.1386,2.377-4.2001,5.2046-3.3242,1.1235,2.2373-.1304,5.9209-1.7407,7.5928-2.378,2.4658-4.72019-.5811-5.9478-2.8359-.71239-1.3047-1.8916-5.5772-.2759-6.7803,1.46-1.0879,3.0201,2.9883,3.2647,3.9014" fill="#89b8cf"/>
          <path d="M103.95786,66.389c1.2432.2998,2.10251-1.207,3.3101-1.3789,2.8086,3.709-5.7901,11.2452-7.1641,4.3496a8.32406,8.32406,0,0,1,.0527-3.0878c.1407-.7061.92481-4.4307,1.5503-4.75,2.0821-1.0547,2.1968,3.8046,2.251,4.8671" fill="#89b8cf"/>
          <path d="M59.703,77.90948c1.4131-1.122,1.9473-4.5068,3.96341-4.747,2.94779-.3555.88279,6.581-.22661,7.7011-4.8593,4.8985-8.3686-5.9521-7.9882-9.289,1.7822-.2705,3.7959,2.2588,3.7983,3.9053" fill="#89b8cf"/>
          <path d="M63.89636,18.35968c.03219-1.624.07419-4.5019,2.47309-3.8759,3.3223.8681,1.0572,7.3154-1.5215,7.8076-1.8584.3555-2.97359-.0332-3.9028-1.5166-.71679-1.1485-2.0249-3.0498-1.9243-4.4551.2729-3.873,3.5674-.6699,4.4043,1.0635" fill="#89b8cf"/>
          <path d="M44.223,14.37628c-1.0253-.2519-1.226.6661-1.6225,1.4415a23.74083,23.74083,0,0,0-2.2578,5.7031c-1.1001,5.0429-2.4937,9.9316-3.4292,15.0449-1.0166,5.5605-1.20609,11.2285-2.0655,16.8213-.769,4.9971-.1772,10.3154-.4907,15.375-.4516,7.2637.6348,14.6123,1.7822,21.6582.2544,1.5615.4268,2.5781-1.2656,2.4033-.7363-.0742-.914-.3271-1.70549-.1338a9.93535,9.93535,0,0,1-2.19051-.1094c-.3764-1.4658.1148-1.833-.04049-3.3339-.22121-2.1221-.77541-4.2588-1.14791-6.3594A92.64233,92.64233,0,0,1,28.91536,69.64c-.08051-2.8799.48979-5.7265.39849-8.6064-.0957-2.9268.14551-5.6934.2588-8.6065.1811-4.7656.8789-9.4922.9892-14.2119a20.14073,20.14073,0,0,1,.9063-5.1377c.3828-1.4004.1377-2.709.3657-4.082.2153-1.293.8296-2.4082,1.00051-3.7549.18109-1.4619,6.28019-7.7197,6.91649-8.4609.74851-.8741,3.3344-1.3975,3.9917-2.3653" fill="#fff" opacity="0.56"/>
          <path d="M23.96226,32.86558a93.173,93.173,0,0,0-1.145,13.1162c-.0625,4.501-.8555,7.9844-.544,12.4697.5044,7.2989,1.1704,14.4405,1.9253,21.7012.2334,2.2568-.312,4.6524-.021,6.8701.1685,1.2813.982,4.7168.6695,6.0889-1.6275-.207-4.1626-1.5391-4.3638.2607-1.2021-1.5507-.9243-3.7636-1.2554-5.7216-.7939-4.7149-1.1992-9.5147-1.5288-14.333-.1572-2.2891-.0395-4.5713.0088-6.8653.06351-2.8974-.3472-5.6474-.41749-8.5273A50.45251,50.45251,0,0,1,18.31,48.73668c.354-2.2744.374-4.6729.7837-6.9248" fill="#fff" opacity="0.56"/>
          <path d="M55.54236,9.03448c-3.70511,7.8282-5.23631,16.293-6.92781,24.8331a158.889,158.889,0,0,0-2.5883,28.8349c-.1001,7.2949-.62889,14.5156-.7334,21.8174a49.41027,49.41027,0,0,0,.3847,5.8213,10.46556,10.46556,0,0,1-.1596,3.3066,5.61487,5.61487,0,0,0-2.1187-.8398c-.623-.127-2.1577.2178-2.645-.0762-.8887-.5381-.3608-3.4463-.3481-4.4111q.0636-4.43565.1191-8.8682c.0395-2.8701.0884-5.7383.11911-8.6064a88.19849,88.19849,0,0,1,.91949-9.7188c.5971-5.0537.0947-10.2529.6377-15.3125.5146-4.8183.7944-9.5156,1.7163-14.2959.455-2.3662.6089-4.6533.9502-7.0117.2881-1.9795,1.0942-3.8428,1.3349-5.834a7.9078,7.9078,0,0,1,.7979-2.8633c.3901-.8964.416-2.25,1.0942-2.9004.272-.2626,1.2461-.29,1.5806-.4199a6.888,6.888,0,0,0,1.8784-1.1943c.9126-.7344,1.939-.6143,2.7632-1.3076" fill="#fff" opacity="0.56"/>
          <path d="M10.81236,55.68008c.00829,2.6894.19139,5.3115.39009,7.9882.2217,3,.8433,6.086.8272,9.0909a28.69427,28.69427,0,0,0,.4888,5.8574c.3256,1.6367.06,3.1709.2656,4.7959.1601,1.2724.40331,2.2441.4614,3.5342.0308.6699.2363,1.2441.2935,1.9052.0576.668-.1333,1.377-.0572,2.041.1797,1.5704,1.2408,2.6788-.3042,3.3907a6.54116,6.54116,0,0,0-1.7539,1.0654c-.71629.6504-.9155,1.4824-1.3774.2314a16.36083,16.36083,0,0,1-.2891-4.749c.0601-2.289-.2524-4.5244-.2041-6.8144a97.25828,97.25828,0,0,0-.4585-13.419c-.2163-1.8066-.28019-3.5742-.4155-5.3691" fill="#fff" opacity="0.56"/>
          <path d="M157.96565,54.51008c.1529-1.0986-1.23729-1.9599-2.0962-2.4199-2.813-1.499-7.4482-1.3144-10.521-.9844-2.811.2979-5.49309,1.6387-8.0757,2.708-2.9716,1.2334-6.2382,2.6563-8.6425,4.8584-1.835,1.6817-3.2935,3.8018-5.0357,5.584a16.71625,16.71625,0,0,0-4.1714,7.3506,35.30356,35.30356,0,0,0-1.2861,4.3555,8.425,8.425,0,0,0-.3852,3.2539c-.6919-1.6875-3.0249-2.3311-4.5274-2.9141q-1.9995-.7968-4.0132-1.5605a29.03367,29.03367,0,0,0-6.4375-.6631,25.94617,25.94617,0,0,0-10.71239,1.5879c-4.20851,1.541-8.41261,2.6699-12.71191,3.9248-4.0395,1.1797-8.4868,2.6416-11.9214,5.1445-2.7969,2.0371-4.5215,4.4463-6.478,7.2285a19.06606,19.06606,0,0,0-3.0332,6.4864c-.4141,1.5537-.4077,3.9941-1.3809,5.3349-.895-1.8418-.7798-2.9443-2.604-4.3847a30.39621,30.39621,0,0,0-10.7334-5.1895c-6.727-1.7373-12.582-2.8203-19.456-2.3408-4.22319.293-10.023.5693-13.8477,2.5771-1.91649,1.002-7.7407,3.666-8.914,5.4063" fill="none" stroke="#3a2621" stroke-linecap="round" stroke-linejoin="round" stroke-width="1.3156"/>
          <path d="M157.96715,54.431c.248-2.4179-1.6519-4.3701-2.7217-6.4179a52.20927,52.20927,0,0,0-10.0532-12.9346c-1.6358-1.627-3.40189-3.085-5.0982-4.6445-2.4155-2.2207-4.3945-4.711-7.1958-6.4932a160.82256,160.82256,0,0,0-15.7548-9.3613c-4.6763-2.2705-10.0098-2.9151-14.82909-4.8672a79.92121,79.92121,0,0,0-12.06011-3.5938c-4.1382-.957-8.3853-.8818-12.6001-.9629-2.9375-.0546-5.82079.2071-8.7524.295-2.5567.0761-5.3697-.0049-7.8399.7578-1.5298.4726-2.9053,1.3203-4.3848,1.9082" fill="none" stroke="#3a2621" stroke-linecap="round" stroke-linejoin="round" stroke-width="1.3156"/>
          <path d="M55.33046,8.14978c-1.7906-.3584-4.62309,2.1748-6.0264,3.0625-1.4292.9043-2.8374,1.1435-4.15769,2.2832a6.06032,6.06032,0,0,1-2.126,1.4482,14.718,14.718,0,0,0-3.55471,2.7569c-3.6821,3.4521-7.36129,6.7509-10.8462,10.4228-1.5102,1.5889-3.2148,2.9102-4.5825,4.6367-1.7627,2.2256-3.2842,4.6182-5.0649,6.8379-6.9834,8.7061-10.7349,19.668-13.68169,30.2891A73.45343,73.45343,0,0,0,3.37826,77.6c-.5058,3.1045-1.5996,6.0576-2.0962,9.1445a44.17352,44.17352,0,0,0-.2348,13.1397" fill="none" stroke="#3a2621" stroke-linecap="round" stroke-linejoin="round" stroke-width="1.3156"/>
        </g>
        <g>
          <path d="M80.51746,204.807c-.1128-2.334-3.0488-9.2168-3.753-11.4199-1.3906-4.3584-1.8017-9.5108-3.875-13.6289a13.20823,13.20823,0,0,1-1.7846-4.4072,19.88974,19.88974,0,0,0-.4741-3.7344c-.38139-1.1514-1.0093-2.0635-1.3985-3.208-.2505-.7354-1.0976-1.8086-.9262-2.6065,1.4296.8311,4.4638-.4775,5.9697-.8662,3.6831-.9551,7.4663-1.3252,11.15961-2.2412,4.02249-.9961,7.45069-3.0107,11.25739-4.4561,3.3471-1.2744,6.8725-1.6152,10.0444-3.4111a21.75782,21.75782,0,0,1,5.6196-2.4726c1.9024-.4746,3.9004-.4698,5.74561-1.1368a25.33333,25.33333,0,0,1,4.98639-1.6523,7.596,7.596,0,0,0,3.24361-.7744,26.1341,26.1341,0,0,1,4.01029-2.2236c1.1801-.4893,2.1626-1.3438,3.2988-1.7842.0147,1.164-.2314,2.6748-.0874,4.0986.2559,2.543.2798,5.1924.7832,7.6982a77.00548,77.00548,0,0,0,1.85111,7.4961,6.0156,6.0156,0,0,1,.89209,2.1192c.2685,1.1152.208,2.3164.478,3.456,1.4224,6.0078,2.1665,6.1153,3.2656,12.169.1582.8769.3394,3.6289,1.211,3.6758a16.72565,16.72565,0,0,0,2.9687-1.1934c1.562-.7656,3.2339-1.7656,4.7593-2.6475,3.2544-1.8808,6.105-2.3759,8.3725-3.6162,2.1133-1.1562,3.5489-2.6611,5.8477-3.5674a24.464,24.464,0,0,0,4.3394-2.1689c1.3032-.8213,2.7641-1.4072,4.0732-2.1953.5293-.3223,1.5913-1.5508,2.2759-1.2774.7109.2823.68161,2.3633.8037,2.92.5215,2.3701,2.1294,10.5088,2.7065,12.8847.6787,2.8047,2.2408,5.4727,3.4409,8.0762,1.4747,3.1982,2.4786,6.6182,3.7217,9.9102.5591,1.4892,3.3877,4.6406,1.9439,6.1865-.6548.6982-3.14409,1.3681-4.1065,1.5576-.3261-.0166-.6508-.0342-.977-.0518a20.71049,20.71049,0,0,0-8.93259,1.5665,49.26544,49.26544,0,0,0-14.06111,6.541,22.12885,22.12885,0,0,1-10.3076,3.4863c-7.5395,1.4463-13.4932,3.6602-20.84029,6.0332-6.88231,2.2227-15.41021,3.4443-22.24071,5.9033-9.212,3.3135-17.30129,8.7051-26.2837,12.459a33.90847,33.90847,0,0,0-9.4463,5.5547c-1.4141-2.1934-1.5816-5.4824-2.1895-7.9795-.7407-3.042-1.5141-6.0586-2.4756-9.0391-1.4599-4.5254-1.1123-4.2216-2.8256-8.6582-.6377-1.6513-1.8799-2.8603-2.5274-4.5078a26.41772,26.41772,0,0,0-2.314-5.1972c-1.1928-1.8194-2.0839-3.9883-3.374-5.7041.791-.8907,2.959-.7452,3.9932-.9161,4.1518-.6914,8.2988-1.7968,12.3672-2.7295,3.9677-.9111,5.6567-.0546,9.3242-2.1543" fill="#f7a918"/>
          <path d="M82.44616,169.642a22.42931,22.42931,0,0,0,1.1831,4.1787,30.01222,30.01222,0,0,1,1.4468,3.9033c1.0742,3.2568,2.5327,6.2861,3.5088,9.5889.7241,2.4531,1.498,4.9336,2.33,7.3466a18.81158,18.81158,0,0,1,1.3379,4.5713c3.2364-.5566,6.0601-2.373,9.0425-3.5722,3.6919-1.4825,7.78811-1.3418,11.54-2.6739,2.9507-1.0546,5.9888-2.1191,8.9625-3.0683,3.0341-.9688,5.7177-2.7041,8.8701-3.5381,2.2881-.6035,2.8652-.4238,2.3789-3.0625a74.22263,74.22263,0,0,0-3.4302-10.9561,99.06831,99.06831,0,0,0-4.749-10.5439,15.31426,15.31426,0,0,1-1.5401-4.1397c-.1118-.6992.0362-1.4726-.1215-2.1103-3.4317,1.5361-6.9732,2.4443-10.3907,4.0469a98.82472,98.82472,0,0,1-14.4306,5.0439c-1.7725.5254-3.5869.8184-5.3711,1.3086-1.8301.5039-3.2447,1.4766-4.9898,2.1358-1.4282.539-4.0366.9355-5.48239,1.4628" fill="#f9d8b4"/>
          <path d="M108.92706,161.81288c.5254.5127.2422,1.1152.4371,1.7363.1635.5195.49021,1.0342.6733,1.5527a9.29612,9.29612,0,0,0,1.002,2.1621,18.87615,18.87615,0,0,0,3.017,4.0196,14.08577,14.08577,0,0,0,1.835,1.4404,7.898,7.898,0,0,1,1.5576,1.002c.2705.2617.4131.0888.6641.415.19821.2598.2148.8213.43021,1.1269.47459.6739,1.06779,1.0196,1.48779,1.7188a3.20747,3.20747,0,0,1,.6401,2.2637c-.0108,1.3125.0015,2.6289.0015,3.9424a17.35193,17.35193,0,0,1,.0073,2.9882c-.1851.9942-.8164,1.7901-1.11769,2.8164-.25831.8809-.47071.876-1.00931,1.627-.4262.5967-.7895,1.0088.25831.9326.90579-.0635,2.18949-1.2754,2.98149-1.6875a21.60442,21.60442,0,0,1,2.5503-.8027,32.1082,32.1082,0,0,0,4.4043-1.5293c1.2753-.6992,3.0097-1.0342,4.1391-2.002a1.36612,1.36612,0,0,0,.5581-1.6367,11.74884,11.74884,0,0,0-1.0058-3.0156,23.74437,23.74437,0,0,1-2.1328-5.2608c-.6255-2.1318-1.0254-4.2343-1.65869-6.3769a37.12211,37.12211,0,0,0-2.19291-4.9795c-.665-1.4307-1.2129-2.8291-1.8257-4.2695a5.75961,5.75961,0,0,1-.6523-2.1807c-.0669-.958-.0362-1.3916-1.0747-1.3818-.6426.0058-1.439.2793-2.1553.291-1.0293.0156-.8853.1924-1.6236.6455a21.06835,21.06835,0,0,1-3.5869,1.4453c-2.0078.7568-4.1347,2.9834-6.6089,2.6338" fill="#ae79a2"/>
          <path d="M93.65756,166.17418c1.57081.2559,2.6665,3.4287,3.2901,4.6133.3671.7031.5786,1.3779.8876,2.1025a7.3204,7.3204,0,0,1,.4454,2.6729c.2046,2.1787.75,4.4629-.9268,6.1845.31151.2412.8223.376,1.1978.6006a1.63517,1.63517,0,0,1,1.0214,1.5733,19.9915,19.9915,0,0,1,.522,4.2441c-.0185.4033-.3061.8955-.2236,1.209-.0025-.0078.70991.5762.7222.5859.4238.4033.82471.7803,1.2856,1.1573,1.03711.8437,1.9409,1.7548,2.9355,2.6328.35061.3105,1.1543.7588,1.2085,1.207-1.3921.7119-3.2104.5312-4.6518,1.2529-1.2173.6133-2.3115,1.293-3.5347,1.8907-.9458.4628-1.9497.8095-2.9482,1.2041a5.29144,5.29144,0,0,1-2.48.5263,23.94433,23.94433,0,0,1-.3618-2.3857c-.2759-1.5039-.7661-2.8653-1.1646-4.3369a20.41757,20.41757,0,0,0-1.0942-2.7002c-.5274-1.2461-.7695-2.5801-1.2735-3.8291a19.298,19.298,0,0,1-1.2504-3.0078,12.35366,12.35366,0,0,0-.2828-1.9034,12.9058,12.9058,0,0,0-.7783-1.625c-.5625-1.0234-1.0449-1.9843-1.5444-3.0371-.4839-1.0215-1.3418-1.7802-1.7593-2.831a23.37745,23.37745,0,0,1-1.3437-3.8809c-.1421-.6885-.2393-.7432.4897-.9844.4268-.1396.9033-.0459,1.3687-.2168.5068-.1865.94141-.3994,1.4755-.5566.7818-.2266,1.5572-.4951,2.3218-.7314a21.05872,21.05872,0,0,1,2.5332-.3594,11.0315,11.0315,0,0,0,2.4004-.4795c.4663-.209.71-.6885,1.2564-.792" fill="#ae79a2"/>
          <path d="M82.44616,169.642a22.42931,22.42931,0,0,0,1.1831,4.1787,30.01222,30.01222,0,0,1,1.4468,3.9033c1.0742,3.2568,2.5327,6.2861,3.5088,9.5889.7241,2.4531,1.498,4.9336,2.33,7.3466a18.81158,18.81158,0,0,1,1.3379,4.5713c3.2364-.5566,6.0601-2.373,9.0425-3.5722,3.6919-1.4825,7.78811-1.3418,11.54-2.6739,2.9507-1.0546,5.9888-2.1191,8.9625-3.0683,3.0341-.9688,5.7177-2.7041,8.8701-3.5381,2.2881-.6035,2.8652-.4238,2.3789-3.0625a74.22263,74.22263,0,0,0-3.4302-10.9561,99.06831,99.06831,0,0,0-4.749-10.5439,15.31426,15.31426,0,0,1-1.5401-4.1397c-.1118-.6992.0362-1.4726-.1215-2.1103-3.4317,1.5361-6.9732,2.4443-10.3907,4.0469a98.82472,98.82472,0,0,1-14.4306,5.0439c-1.7725.5254-3.5869.8184-5.3711,1.3086-1.8301.5039-3.2447,1.4766-4.9898,2.1358-1.4282.539-4.0366.9355-5.48239,1.4628" fill="none" stroke="#3a2621" stroke-linecap="round" stroke-linejoin="round" stroke-width="1.3156"/>
          <path d="M98.15806,181.25918a7.43712,7.43712,0,0,1,1.6064,3.7841,5.01641,5.01641,0,0,1-1.268,3.3848,8.98212,8.98212,0,0,1-4.4028,2.4717,23.51143,23.51143,0,0,0-3.6045.8623c-.1021-.086-.2027-.168-.3042-.2539" fill="none" stroke="#3a2621" stroke-linecap="round" stroke-linejoin="round" stroke-width="1.3156"/>
          <path d="M99.31136,187.25228c.76559,1.9844,4.47759,6.8311,6.80419,7.1934" fill="none" stroke="#3a2621" stroke-linecap="round" stroke-linejoin="round" stroke-width="1.3156"/>
          <path d="M111.00376,205.74838c.8565,1.25.9019,2.9531,1.6699,4.2871a26.93921,26.93921,0,0,0,2.0845,3.3223,2.35362,2.35362,0,0,0,3.30221-.2598c-.61911-1.5625-2.309-2.8008-3.187-4.2558a10.27813,10.27813,0,0,1-1.65381-4.1241,9.13351,9.13351,0,0,0-2.2353.8135" fill="#fff"/>
          <path d="M111.00376,205.74838c.8565,1.25.9019,2.9531,1.6699,4.2871a26.93921,26.93921,0,0,0,2.0845,3.3223,2.35362,2.35362,0,0,0,3.30221-.2598c-.61911-1.5625-2.309-2.8008-3.187-4.2558a10.27813,10.27813,0,0,1-1.65381-4.1241,9.13351,9.13351,0,0,0-2.2353.8135" fill="none" stroke="#3a2621" stroke-linecap="round" stroke-linejoin="round" stroke-width="1.3156"/>
          <path d="M122.42276,202.16538q-.59775-.5244-.06739.6299a14.295,14.295,0,0,0,1.61329,4.2539,12.82011,12.82011,0,0,1,1.7446,3.5801c.7456-.419,2.6699-1.5733,2.6128-2.5528-.0454-.7685-1.6992-2.6416-2.0283-3.4101-.48639-1.1299-.7671-4.5322-3.6583-2.9092" fill="#fff"/>
          <path d="M122.42276,202.16538q-.59775-.5244-.06739.6299a14.295,14.295,0,0,0,1.61329,4.2539,12.82011,12.82011,0,0,1,1.7446,3.5801c.7456-.419,2.6699-1.5733,2.6128-2.5528-.0454-.7685-1.6992-2.6416-2.0283-3.4101-.48639-1.1299-.7671-4.5322-3.6583-2.9092" fill="none" stroke="#3a2621" stroke-linecap="round" stroke-linejoin="round" stroke-width="1.3156"/>
          <path d="M143.75716,196.79628c-.2129,1.3935-3.3823,4.5371-4.6631,4.2099-1.1298-.2881-2.2426-4.1582-2.187-5.1797,1.3975-.3427,3.1734.6573,4.65431.6104.90429-.0293,1.39849-.626,2.20659-.1533" fill="#fff" opacity="0.59"/>
          <path d="M126.61416,152.848c1.1533.0313,3.24121.959,3.6201,2.125-.58689.3662-1.2984.6221-1.9126.9649a12.13965,12.13965,0,0,1-2.6446,1.2558,7.06774,7.06774,0,0,1,.0225-2.3711c.1191-.6132.5542-1.1279.6724-1.7314" fill="#fff" opacity="0.59"/>
          <path d="M107.47346,197.42708a9.63338,9.63338,0,0,1,.7202,4.3233c-.92329.2256-3.3115.0507-3.8564-.8653.98-.4482,1.2603-1.1718,1.80811-2.0215a19.51566,19.51566,0,0,0,1.32809-1.6777" fill="#fff" opacity="0.59"/>
          <path d="M128.55256,214.87338c-.1723-.8301-2.4331-1.1494-3.1357-1.3808a2.38731,2.38731,0,0,0,.21,1.4052q.28845.70605.5161,1.4336c.0752.2656.144,1.5977.459,1.7598.7202.3691,1.9213-2.1865,2.1923-2.7334" fill="#fff" opacity="0.59"/>
          <path d="M153.02325,196.45738c.0669.0068.1343.0156.2007.0195a7.25553,7.25553,0,0,1-.251,4.0616c-.5024.7783-1.53459-.1309-1.9721-.626-.47949-.5459-.7998-.8887-.4229-1.5108a7.33589,7.33589,0,0,1,2.2032-2.1845" fill="#fff" opacity="0.59"/>
          <path d="M144.54286,214.63028c-.7847.0488-1.3277,1.413-1.7012,1.9521a7.15952,7.15952,0,0,0-1.38529,2.0918c.83349.5322,3.07619-1.083,3.59919-1.6807.9599-1.0957-.01319-1.8291-.5127-2.8466" fill="#fff" opacity="0.59"/>
          <path d="M149.38855,184.82948c.665.3154.7842,1.0439.9726,1.6767a10.33717,10.33717,0,0,1,.7271,2.4336c-1.3906.2324-2.8911-.1025-4.3003.0303a5.44533,5.44533,0,0,0,2.35841-3.4141" fill="#fff" opacity="0.59"/>
          <path d="M92.69416,216.32648c-.6074-.2666-2.73779-1.3886-3.3632-.9355-.6768.4873.5752,3.8281.7397,4.5342,1.4722.2568,1.67871-3.0889,2.86571-3.3574" fill="#fff" opacity="0.59"/>
          <path d="M86.39486,191.61358c.0064,1.0586.3452,3.3116-.56349,4.0879a8.16,8.16,0,0,1-1.68111-1.1943,12.54344,12.54344,0,0,1-1.4956-.96c.5029-.5742,1.5522-.7041,2.2378-.9648.5893-.2227,1.14791-.5469,1.7451-.7266" fill="#fff" opacity="0.59"/>
          <path d="M72.827,176.10678c.0699-.6611.7779.0371.9883.1904.4419.3174,2.5269,1.7647,2.5933,2.2735.0742.5498-.0308.4931-.6753.4072a16.20425,16.20425,0,0,0-1.646-.4014c-.5376-.0712-1.3008.1075-1.7588-.2656.08991-.8223,1.4551-1.1543,1.2261-1.9609" fill="#fff" opacity="0.59"/>
          <path d="M77.91536,169.32458c.00829,1.2627.30419,2.9961-.29681,4.1601a4.04176,4.04176,0,0,1-.897-2.7246c.1821-1.1084.8003-1.1699,1.6787-1.1963" fill="#fff" opacity="0.59"/>
          <path d="M92.93636,162.78158c-.51121-.4629-1.832-.4951-2.19721.1895a3.53843,3.53843,0,0,0,.9331,2.6289,7.09774,7.09774,0,0,1,1.5068-2.8184" fill="#fff" opacity="0.59"/>
          <path d="M105.29236,158.17808c-.00341-.0645-.00641-.1309-.01031-.1973a5.02034,5.02034,0,0,1,2.0425,1.9297c-.2353.4951-1.7661,1.0987-2.2119.6699-.4258-.4091.1128-2.1103.6645-2.1591" fill="#fff" opacity="0.59"/>
          <path d="M133.15616,171.264c.8916.1426,1.8027,1.835,1.6977,2.6836a6.44,6.44,0,0,1-2.3809-1.0449,12.92385,12.92385,0,0,0,1.4097-1.3994" fill="#fff" opacity="0.59"/>
          <path d="M139.455,183.13318c-.0762-.8301-.7388-2.4033-1.7363-2.5508.0908,1.207-.3721,2.96.333,4.0156.479-.0635,1.13671-1.9424,1.1621-2.4326" fill="#fff" opacity="0.59"/>
          <path d="M111.35046,221.89878c.8301.2695,1.3515,2.832,1.46291,3.667a8.53341,8.53341,0,0,1-2.17431-.3213c.4682-.8193,1.4985-2.1289,1.4389-3.1035" fill="#f1ac2a"/>
          <path d="M105.29236,209.059c-1.11871-.3711-2.68951-1.543-3.874-1.1553-.022,1.541,1.36519,3.1562.937,4.7168.14159-.6201.66449-1.0674.95359-1.6143.4111-.7832.5776-1.6562,1.0146-2.4326" fill="#fff" opacity="0.59"/>
          <path d="M101.65956,222.86758c.0566.2871,1.1216,1.4765.6982,2.0947-.2256.3301-1.7539.1123-2.10839.0537a4.7523,4.7523,0,0,0,1.65189-2.1484" fill="#f1ac2a"/>
          <path d="M85.66786,206.87728c.49851,1.4766-.2022,3.4649-.793,4.8731a8.02666,8.02666,0,0,1-.9023-1.4825,5.73649,5.73649,0,0,1-.9488-1.8935,7.73792,7.73792,0,0,0,3.3711-1.0117" fill="#fff" opacity="0.59"/>
          <path d="M160.77675,202.03258c-.021-.1797.0468-.2725.2055-.2783a11.12069,11.12069,0,0,1-.4907,2.9492c-.4209-.083-2.4175-1.8506-2.1284-2.1494.25-.2578,1.3354.0127,1.6914-.0752a2.7928,2.7928,0,0,0,1.4487-.9317" fill="#f1ac2a"/>
          <path d="M170.70936,179.74058c.25189,1.1641-.88771,1.915-1.01471,3.0137-.226-.6035-.5044-1.1944-.7002-1.8076-.1992-.628-.1352-1.3135-.3789-1.917.76081-.0938,1.542.5088,2.3364.4697" fill="#fff" opacity="0.59"/>
          <path d="M173.13265,191.37048c-.0058.0742-.0122.1455-.0185.2197a4.66818,4.66818,0,0,1-2.837-1.3994c.3814-.0879.7178.0674,1.09921-.1172a2.58509,2.58509,0,0,0,1.08929-1.626c.4878.459.7041,1.9922.90871,2.6817" fill="#fff" opacity="0.59"/>
          <path d="M172.164,173.19958a5.60485,5.60485,0,0,1,1.8676,3.0683,5.3823,5.3823,0,0,1-2.2553.0635,9.67758,9.67758,0,0,1,.644-1.1894c.2046-.4756.2559-.9844.4692-1.458" fill="#f1ac2a"/>
          <path d="M177.85625,191.723c-.021-.0742-.0434-.1465-.06589-.2217a19.19842,19.19842,0,0,0-.46141,3.8282c-.0859.8818-.352,1.8877-.3545,2.7822,1.3457-.4883,2.7891-1.4414,2.9741-3.0059.1992-1.6718-1.5151-1.33-1.7885-2.4746" fill="#fff" opacity="0.59"/>
          <path d="M181.12775,206.15078c-.02239.0595-.04539.1191-.0678.1777-.8457-.2715-1.3184-1.1172-2.0801-1.4131a9.82916,9.82916,0,0,0,.2524,4.1309c.625-.1475,1.5664-1.3223,1.8955-1.9268" fill="#f1ac2a"/>
          <path d="M72.476,228.01208a3.025,3.025,0,0,0-2.66359-.4951,6.90173,6.90173,0,0,0,.55859,4.3388c.3437-.375.6069-1.165,1.0073-1.6582.4024-.4961.8604-2.0371,1.3687-2.1855" fill="#fff" opacity="0.59"/>
          <path d="M68.70836,238.37438a3.83269,3.83269,0,0,1,2.09369,1.9668c-.7192.6621-1.6645.3252-2.50969.5068a3.56061,3.56061,0,0,0,.65819-2.7148" fill="#f1ac2a"/>
          <path d="M75.00766,242.25128c-.061,1.586-.9785,2.9024-.9956,4.5274.5278-.5283,1.9204-.5947,2.6709-.6651a4.09221,4.09221,0,0,0-.9487-3.3789" fill="#fff" opacity="0.59"/>
          <path d="M75.73426,206.39288a2.51814,2.51814,0,0,1,.4004,1.0577,18.68991,18.68991,0,0,0,1.4912,3.3076c.5,1.0547.9736,2.1133,1.4341,3.1816.4487,1.044,1.1606,1.9307,1.5327,3.0039.6426,1.8516,1.6172,3.5313,2.1748,5.4385a39.21362,39.21362,0,0,0,1.7495,5.8438c1.1406,2.413,1.7529,5.0996,2.6597,7.5976.24171.669.6958,1.2705.873,1.96a19.27869,19.27869,0,0,0,.47171,1.9814c.227.6211.11279,1.6885.51409,2.1201a34.09511,34.09511,0,0,1-6.9472,2.834,14.81986,14.81986,0,0,0-2.48389,1.0899c-.627.3574-.44431,1.1816-1.20411.8027.4248-1.7432-.3052-2.9395-.7271-4.6035a63.35918,63.35918,0,0,1-1.455-6.7832c-.1172-.8906-.9429-1.7383-1.2037-2.6045a22.517,22.517,0,0,1-.5385-3.1875,20.59993,20.59993,0,0,0-.6734-2.876c-.29-.9082-.4184-1.8506-.7089-2.7539a42.59368,42.59368,0,0,0-2.3936-5.1406c-.8384-1.7481-1.8232-3.5801-2.4883-5.4092-.5019-1.3809-1.0825-2.7666-1.5073-4.1748-.187-.6172-.2153-1.1279-.8286-1.4775a10.60481,10.60481,0,0,0,3.0268-.2139c.4859-.1152.8091-.4473,1.3208-.5235a11.95435,11.95435,0,0,1,1.5743.0186c1.0341-.0029,1.9609.2236,2.979.2461a5.75089,5.75089,0,0,0,.9697.0127c.3252-.0518.3198-.2832.7138-.2588" fill="#adbd14"/>
          <path d="M163.80505,174.53358c1.3491.958,1.6504,3.375,2.1797,4.8037.70161,1.8955,1.0293,3.9687,1.8081,5.8144a14.3655,14.3655,0,0,1,.7177,2.3838c.1919.7598.8086,1.2031,1.0352,1.9805a18.81685,18.81685,0,0,0,.4287,2.4726c.3496.8272.75591,1.711,1.10791,2.5606a22.21864,22.21864,0,0,0,1.69879,3.3232c.7861,1.2276.9096,2.2745,1.6538,3.5284.957,1.6123,1.4726,3.5273,2.3623,5.2031.6079,1.1445,1.2505,2.3174,1.7876,3.4814-2.0572.5-4.604.2481-6.3306,1.6075-.79789.6279-.89889.4804-1.9165.6279a2.40037,2.40037,0,0,0-1.8799,1.0781c-.6323-.2852-.6977-.7627-.9394-1.4102-.3799-1.0175-.773-1.9306-1.1973-2.9277-.5689-1.3408-.5195-2.9609-.9717-4.3721-.353-1.0976-.3183-2.2099-.7114-3.2519-.2544-.6787-.8169-1.1846-1.125-1.8291-.3311-.6875-.4761-1.46-.7813-2.1611a21.02588,21.02588,0,0,1-1.4082-2.9346,21.58052,21.58052,0,0,0-.4985-2.5235c-.61669-1.6152-1.1558-3.1445-1.8276-4.7089-.7168-1.668-1.3658-3.9746-2.461-5.4239a9.38556,9.38556,0,0,1-1.1094-1.5078c-.2412-.4844-.0478-.9131-.5903-1.3994.8579-.2373,1.8389.1231,2.7153-.0371,1.0669-.1973,1.147-.8291,1.8824-1.4902.3383-.3057.7715-.3809,1.1084-.6885.2724-.2471.5146-.8623.79051-1.0469.71729-.4795,1.80569-.1494,2.47169-.79" fill="#adbd14"/>
          <path d="M80.51746,204.807c-.1128-2.334-3.0488-9.2168-3.753-11.4199-1.3906-4.3584-1.8017-9.5108-3.875-13.6289a13.20823,13.20823,0,0,1-1.7846-4.4072,19.88974,19.88974,0,0,0-.4741-3.7344c-.38139-1.1514-1.0093-2.0635-1.3985-3.208-.2505-.7354-1.0976-1.8086-.9262-2.6065,1.4296.8311,4.4638-.4775,5.9697-.8662,3.6831-.9551,7.4663-1.3252,11.15961-2.2412,4.02249-.9961,7.45069-3.0107,11.25739-4.4561,3.3471-1.2744,6.8725-1.6152,10.0444-3.4111a21.75782,21.75782,0,0,1,5.6196-2.4726c1.9024-.4746,3.9004-.4698,5.74561-1.1368a25.33333,25.33333,0,0,1,4.98639-1.6523,7.596,7.596,0,0,0,3.24361-.7744,26.1341,26.1341,0,0,1,4.01029-2.2236c1.1801-.4893,2.1626-1.3438,3.2988-1.7842.0147,1.164-.2314,2.6748-.0874,4.0986.2559,2.543.2798,5.1924.7832,7.6982a77.00548,77.00548,0,0,0,1.85111,7.4961,6.0156,6.0156,0,0,1,.89209,2.1192c.2685,1.1152.208,2.3164.478,3.456,1.4224,6.0078,2.1665,6.1153,3.2656,12.169.1582.8769.3394,3.6289,1.211,3.6758a16.72565,16.72565,0,0,0,2.9687-1.1934c1.562-.7656,3.2339-1.7656,4.7593-2.6475,3.2544-1.8808,6.105-2.3759,8.3725-3.6162,2.1133-1.1562,3.5489-2.6611,5.8477-3.5674a24.464,24.464,0,0,0,4.3394-2.1689c1.3032-.8213,2.7641-1.4072,4.0732-2.1953.5293-.3223,1.5913-1.5508,2.2759-1.2774.7109.2823.68161,2.3633.8037,2.92.5215,2.3701,2.1294,10.5088,2.7065,12.8847.6787,2.8047,2.2408,5.4727,3.4409,8.0762,1.4747,3.1982,2.4786,6.6182,3.7217,9.9102.5591,1.4892,3.3877,4.6406,1.9439,6.1865-.6548.6982-3.14409,1.3681-4.1065,1.5576-.3261-.0166-.6508-.0342-.977-.0518a20.71049,20.71049,0,0,0-8.93259,1.5665,49.26544,49.26544,0,0,0-14.06111,6.541,22.12885,22.12885,0,0,1-10.3076,3.4863c-7.5395,1.4463-14.4287,3.9453-21.7759,6.3184-6.8833,2.2236-14.4746,3.1591-21.3051,5.6181-9.212,3.3135-17.30129,8.7051-26.2837,12.459a33.90847,33.90847,0,0,0-9.4463,5.5547c-1.4141-2.1934-1.5816-5.4824-2.1895-7.9795-.7407-3.042-1.5141-6.0586-2.4756-9.0391-1.4599-4.5254-1.1123-4.2216-2.8256-8.6582-.6377-1.6513-1.8799-2.8603-2.5274-4.5078a26.41772,26.41772,0,0,0-2.314-5.1972c-1.1928-1.8194-2.0839-3.9883-3.374-5.7041.791-.8907,2.959-.7452,3.9932-.9161,4.1518-.6914,8.2988-1.7968,12.3672-2.7295,3.9677-.9111,5.6567-.0546,9.3242-2.1543" fill="none" stroke="#3a2621" stroke-linecap="round" stroke-linejoin="round" stroke-width="1.3156"/>
          <path d="M112.31826,193.26888c.8344.9727.7475,1.6817,1.1953,2.8203.75681,1.9239,1.977,3.5411,2.6733,5.5098a86.9881,86.9881,0,0,0,4.4473,10.1602c1.8774,3.7246,5.0063,12.7207,7.0327,16.2675" fill="none" stroke="#3a2621" stroke-linecap="round" stroke-linejoin="round" stroke-width="1.3156"/>
          <path d="M78.15806,212.20738c-.6943-.1348-1.5605.377-2.2256.541-1.2705.3086-2.355.9463-3.5757,1.3496a16.3448,16.3448,0,0,1-2.3857.5449" fill="none" stroke="#626722" stroke-linecap="round" stroke-linejoin="round" stroke-width="1.491"/>
          <path d="M80.58046,218.02278c-.0103.0655-.02009.1319-.0298.1983-.7495-.0264-1.0581.4043-1.625.833-.939.7119-2.1499.8369-3.207,1.331-.9224.4297-2.3038,1.3477-3.3765,1.2705" fill="none" stroke="#626722" stroke-linecap="round" stroke-linejoin="round" stroke-width="1.491"/>
          <path d="M83.851,226.68488a32.58663,32.58663,0,0,0-4.9829,2.0098c-.6905.4189-1.4126.7822-2.128,1.1572a9.60768,9.60768,0,0,0-1.7324.7696" fill="none" stroke="#626722" stroke-linecap="round" stroke-linejoin="round" stroke-width="1.491"/>
          <path d="M88.09116,235.71028c-.7876.2412-1.4683.3252-1.6567.4551a16.443,16.443,0,0,1-4.4727,2.2188c-1.7471.5507-2.5239.9013-4.2886,1.3818" fill="none" stroke="#626722" stroke-linecap="round" stroke-linejoin="round" stroke-width="1.491"/>
          <path d="M66.89246,208.87728c.916,2.9961,4.50291,10.2041,5.518,13.1826.9078,2.6563,1.73691,5.3448,2.60991,8.003a68.6729,68.6729,0,0,1,3.64839,15.7851" fill="none" stroke="#3a2621" stroke-linecap="round" stroke-linejoin="round" stroke-width="1.3156"/>
          <path d="M76.57406,207.00228c1.1421,2.4903.5601,2.1309,1.5811,4.6778,1.1006,2.7402,2.1274,5.5175,3.2866,8.2353,1.0093,2.3662,1.6709,4.6084,2.5,7.0381.6968,2.0439,1.7471,3.9121,2.2993,6,.4522,1.7158.874,3.4482,1.2525,5.1816.2573,1.1846.3847,2.3633.5927,3.5254" fill="none" stroke="#3a2621" stroke-linecap="round" stroke-linejoin="round" stroke-width="1.3156"/>
          <path d="M166.71225,182.16538c-.0093.0469-.0181.0938-.0278.1426-.563.0615-1.1143.7051-1.6436.9463-.895.4062-1.7949.7802-2.6489,1.2724-.5967.3428-1.1152.7608-1.6768,1.1348a6.65488,6.65488,0,0,0-1.2715.8643" fill="none" stroke="#626722" stroke-linecap="round" stroke-linejoin="round" stroke-width="1.491"/>
          <path d="M169.25665,191.432c-.042.5293-1.1298,1.0703-1.4868,1.4053a9.00311,9.00311,0,0,1-1.47949,1c-.48631.3076-.852.7949-1.35791,1.0635-.3633.1953-.7558.2959-1.1323.4873-.294.1523-.7383.456-1.0859.4043" fill="none" stroke="#626722" stroke-linecap="round" stroke-linejoin="round" stroke-width="1.491"/>
          <path d="M172.70836,198.51788c-.63531.7676-1.69531.7657-2.55321,1.1221-.9282.3838-1.8081.9824-2.7193,1.4268a9.32638,9.32638,0,0,1-1.6367.6875c-.1875.0488-.3569.0029-.5405.0664-.2227.0742-.2905.2812-.5454.332" fill="none" stroke="#626722" stroke-linecap="round" stroke-linejoin="round" stroke-width="1.491"/>
          <path d="M175.25225,204.33438c-.7973-.0977-1.5473.8417-2.1811,1.2705-1.062.7207-2.1812,1.1748-3.2817,1.8173a5.01913,5.01913,0,0,0-.7188.5489,1.47415,1.47415,0,0,1-.7324.3545c-.4024.1298-.812.0957-1.232.2187-.0107.0498-.0205.1006-.0307.1504" fill="none" stroke="#626722" stroke-linecap="round" stroke-linejoin="round" stroke-width="1.491"/>
          <path d="M155.09655,179.32258c4.1089,5.5332,7.5512,18.0303,9.8135,24.4776.9531,2.7177,2.2988,6.7402,3.0566,9.5097" fill="none" stroke="#3a2621" stroke-linecap="round" stroke-linejoin="round" stroke-width="1.3156"/>
          <path d="M163.39385,174.556c2.232,2.5313,4.3438,13.2432,5.8052,16.2256a86.10344,86.10344,0,0,1,4.8955,10.9356c.3433,1.041.9463,1.9404,1.3282,2.9648.45161,1.2158.5361,2.5801,1.0234,3.7666.2466.5986.6235,1.043.8223,1.666" fill="none" stroke="#3a2621" stroke-linecap="round" stroke-linejoin="round" stroke-width="1.3156"/>
          <path d="M102.74936,163.99448c.05619,1.3145,1.09429,2.9688,1.45359,4.2539.5567,1.9922,1.2569,3.9365,1.8355,5.918.4887,1.6767.8281,3.3437,1.35591,5.0176.40529,1.2861,1.03669,2.4306,1.46049,3.708a38.59812,38.59812,0,0,0,1.8813,5.4482c.57621,1.1299,2.3897,3.6777,2.189,5.0908" fill="none" stroke="#3a2621" stroke-linecap="round" stroke-linejoin="round" stroke-width="1.3156"/>
          <path d="M121.76846,160.35878c1.2304-.0225-.6456,2.1718-1.6104.9853-.793-.9746.8311-1.8193,1.6104-1.7119" fill="#fff"/>
          <path d="M114.74106,168.83918c1.7232-.1738.3994,2.4229-.9888,1.628a1.00967,1.00967,0,0,1-.0268-1.6621,2.90753,2.90753,0,0,1,1.7432-.209" fill="#fff"/>
          <path d="M112.80356,162.29818c.251.2471.7417.7666.6167,1.1729-.2627.8564-1.3677.4492-1.79389.1133-1.47711-1.1573.91989-1.0372,1.66159-1.045" fill="#fff"/>
          <path d="M124.434,168.83918a4.91016,4.91016,0,0,1,.7016,1.1309c-.6411.665-2.0737.9863-2.2539-.2236a1.25886,1.25886,0,0,1,2.0362-.9073" fill="#fff"/>
          <path d="M124.67666,181.43688c1.7094-.1865.9502,3.1142-.7622,2.376a1.177,1.177,0,0,1-.4468-1.793,3.07112,3.07112,0,0,1,2.17771-.583" fill="#fff"/>
          <path d="M130.73276,181.43688c1.3858.2959-.3559,2.1367-1.2495,1.2392-.7173-.7197.8843-1.9921,1.4917-1.2392" fill="#fff"/>
          <path d="M122.73716,186.76888c.8911.6651-.5664,2.9834-1.6694,1.8682a1.62488,1.62488,0,0,1,.9428-2.5967" fill="#fff"/>
          <path d="M127.82556,174.41048a.33913.33913,0,0,1,.416.2246c-.165.6153-1.5903,1.1621-1.8911.5215-.4107-.8789,1.4014-1.6191,1.959-.9873" fill="#fff"/>
          <path d="M121.04186,177.80308a.6655.6655,0,0,0,.4477-.0244c.2305-1.1983-.0566-2.2891-1.5688-2.1318-.207.5312-.708,1.416.1514,1.6718" fill="#fff"/>
          <path d="M109.46376,161.29238a16.15653,16.15653,0,0,0,4.622,10.3173,6.06721,6.06721,0,0,0,5.4331,1.8047,42.48686,42.48686,0,0,0,5.4849-.9091c.958-.2217,2.9561-1.001,3.9697-1.25" fill="none" stroke="#3a2621" stroke-linecap="round" stroke-linejoin="round" stroke-width="1.3156"/>
          <path d="M118.63026,173.66248c-.0874,3.1787,2.7475,4.3965,4.8379,4.2636a14.59822,14.59822,0,0,0,2.3974-.2871c.5947-.1504,1.2222-.6552,1.84381-.8007a10.27012,10.27012,0,0,0,3.19189-1.2725" fill="none" stroke="#3a2621" stroke-linecap="round" stroke-linejoin="round" stroke-width="1.3156"/>
          <path d="M120.76356,177.65368c-.2744,1.1172.1967,2.2246.3164,3.3281a10.57756,10.57756,0,0,1-.5069,4.6475,19.99122,19.99122,0,0,1-1.2241,2.0879,20.81739,20.81739,0,0,1-1.6733,3.1464" fill="none" stroke="#3a2621" stroke-linecap="round" stroke-linejoin="round" stroke-width="1.3156"/>
          <path d="M93.90616,170.05108c1.289.835-.188,2.3047-1.2286,1.4698-1.0708-.8623.2217-2.083,1.2286-1.9551" fill="#fff"/>
          <path d="M90.02916,181.68008c.0684.0029.13621.0058.2051.0097.5024,1.3135-1.1763,2.5459-1.6382.7793-.3203-1.2285.6548-1.6074,1.67631-1.5166" fill="#fff"/>
          <path d="M86.88026,172.473c2.0786.7656-.1221,2.9248-1.3931,1.7188-1.2607-1.1963,1.3897-1.2461,2.1191-1.2334" fill="#fff"/>
          <path d="M94.87486,177.80308c.5537.2783,1.4219.7285,1.1597,1.4697a1.53857,1.53857,0,0,1-1.86619.5147,1.2894,1.2894,0,0,1,.00479-1.7237,1.79943,1.79943,0,0,1,1.42921-.2607" fill="#fff"/>
          <path d="M99.72006,191.61358c.6587.084-.3633,1.6084-1.4868.7002-1.6563-1.3369,1.5122-2.499,1.9717-.9433" fill="#fff"/>
          <path d="M93.664,195.73278c1.3838-.2637.6967,2.1465-.4493,1.6982a1.44366,1.44366,0,0,1-.5-1.667,1.33,1.33,0,0,1,1.4331-.5156" fill="#fff"/>
          <path d="M95.35976,185.31378a1.66864,1.66864,0,0,1,.7089.0186c.14071.5781.2198,1.8799-.2431,2.25-.6265.499-1.5005-.0332-2.1411-.1309.04591-.4775.6098-.7783.895-1.1552.3721-.4942.5244-1.0684,1.02291-1.4649" fill="#fff"/>
          <path d="M94.26106,166.183c.2334,1.4951,1.4888,2.4482,2.2412,3.6767a24.23086,24.23086,0,0,1,2.2886,5.1094c.7564,2.5069.0034,4.4004-1.1733,6.5274a24.79415,24.79415,0,0,1-1.4585,2.3017,11.29686,11.29686,0,0,1-2.0889,2.2022,14.82606,14.82606,0,0,1-4.5459,2.4629" fill="none" stroke="#3a2621" stroke-linecap="round" stroke-linejoin="round" stroke-width="1.3156"/>
          <path d="M118.49006,175.88118q.452-.0336.0791-.0332c-1.7939.3155-3.6513,1.8223-5.2959,2.5811-2.12889.9824-4.7866.9775-7.04289,1.4912a15.44594,15.44594,0,0,0-4.40681,1.6699c-.7739.4551-2.313.3467-2.8203,1.0488" fill="none" stroke="#3a2621" stroke-linecap="round" stroke-linejoin="round" stroke-width="1.3156"/>
          <g>
            <path d="M151.59705,209.66738c-1.68069,1.417-2.1236,2.4023-2.5533,4.7353-.8022,4.3438,2.3399,8.917,5.2979,11.8106,6.6211,6.4736,18.0649-.459,19.0986-8.6631.4204-3.334-1.3657-7.0762-3.498-9.5596-2.1997-2.5605-4.9566-2.9541-8.1387-2.6562-2.3428.2158-4.70119.5937-6.5337,2.0585a15.87013,15.87013,0,0,1-3.2744,1.9834" fill="#a87a3e"/>
            <path d="M151.59705,209.66738c-1.68069,1.417-2.1236,2.4023-2.5533,4.7353-.8022,4.3438,2.3399,8.917,5.2979,11.8106,6.6211,6.4736,18.0649-.459,19.0986-8.6631.4204-3.334-1.3657-7.0762-3.498-9.5596-2.1997-2.5605-4.9566-2.9541-8.1387-2.6562-2.3428.2158-4.70119.5937-6.5337,2.0585a15.87013,15.87013,0,0,1-3.2744,1.9834" fill="none" stroke="#3a2621" stroke-linecap="round" stroke-linejoin="round" stroke-width="1.3156"/>
            <path d="M157.71715,213.77578a2.52358,2.52358,0,0,0-.979,1.8164c-.3076,1.665.8974,3.4179,2.03121,4.5293,2.53909,2.4804,6.92629-.1768,7.32179-3.3223a5.10465,5.10465,0,0,0-1.34079-3.6641,3.30778,3.30778,0,0,0-3.12011-1.0195,4.55036,4.55036,0,0,0-2.50489.7891,6.05967,6.05967,0,0,1-1.25591.7607" fill="#c8a984"/>
            <path d="M157.71715,213.77578a2.52358,2.52358,0,0,0-.979,1.8164c-.3076,1.665.8974,3.4179,2.03121,4.5293,2.53909,2.4804,6.92629-.1768,7.32179-3.3223a5.10465,5.10465,0,0,0-1.34079-3.6641,3.30778,3.30778,0,0,0-3.12011-1.0195,4.55036,4.55036,0,0,0-2.50489.7891,6.05967,6.05967,0,0,1-1.25591.7607" fill="none" stroke="#3a2621" stroke-linecap="round" stroke-linejoin="round" stroke-width="1.3156"/>
            <path d="M161.50325,205.90948c-.0014,2.2022.2422,3.6094.2422,5.8135" fill="none" stroke="#3a2621" stroke-linecap="round" stroke-linejoin="round" stroke-width="1.3156"/>
            <path d="M156.41485,215.11458a34.40126,34.40126,0,0,0-3.16649-2.8056c-.40381-.3184-1.39691-1.5293-1.92141-1.5547" fill="none" stroke="#3a2621" stroke-linecap="round" stroke-linejoin="round" stroke-width="1.3156"/>
            <path d="M157.38465,218.266a4.69207,4.69207,0,0,1-1.2788,2.0088,18.17516,18.17516,0,0,1-1.62749,1.8779,1.30707,1.30707,0,0,1-.50441.2842c-.144.1816-.1465.4844-.2783.625-.3496.376-.8555.2998-1.1572.7754" fill="none" stroke="#3a2621" stroke-linecap="round" stroke-linejoin="round" stroke-width="1.3156"/>
            <path d="M161.74545,221.89978c.0654.832.25491,1.5849.2476,2.4365a23.05562,23.05562,0,0,0-.0049,2.4238,20.5148,20.5148,0,0,1-.001,2.1651" fill="none" stroke="#3a2621" stroke-linecap="round" stroke-linejoin="round" stroke-width="1.3156"/>
            <path d="M170.46765,223.83728c-1.8706-1.1279-3.3379-3.2022-5.3306-4.1192" fill="none" stroke="#3a2621" stroke-linecap="round" stroke-linejoin="round" stroke-width="1.3156"/>
            <path d="M171.43636,210.51108a47.79719,47.79719,0,0,1-5.57221,4.1192" fill="none" stroke="#3a2621" stroke-linecap="round" stroke-linejoin="round" stroke-width="1.3156"/>
          </g>
          <g>
            <path d="M88.97736,230.33438c-2.33691,1.4072-3.75971,5.0634-4.24851,7.5322-.9258,4.6748,1.1924,8.8994,4.8159,11.8252,2.1172,1.708,4.6714,3.1279,7.4927,2.4365a29.27148,29.27148,0,0,0,6.6851-2.7197c3.40281-1.9356,6.3173-6.6455,5.6875-10.6055-1.1353-7.1475-6.3824-10.2393-13.1001-10.8418a7.25222,7.25222,0,0,0-3.605.2676c-.5454.209-1.2818.6924-1.8145.8379a4.51958,4.51958,0,0,0-2.2749,1.5605" fill="#a87a3e"/>
            <path d="M88.97736,230.33438c-2.33691,1.4072-3.75971,5.0634-4.24851,7.5322-.9258,4.6748,1.1924,8.8994,4.8159,11.8252,2.1172,1.708,4.6714,3.1279,7.4927,2.4365a29.27148,29.27148,0,0,0,6.6851-2.7197c3.40281-1.9356,6.3173-6.6455,5.6875-10.6055-1.1353-7.1475-6.3824-10.2393-13.1001-10.8418a7.25222,7.25222,0,0,0-3.605.2676c-.5454.209-1.2818.6924-1.8145.8379a4.51958,4.51958,0,0,0-2.2749,1.5605" fill="none" stroke="#3a2621" stroke-linecap="round" stroke-linejoin="round" stroke-width="1.3156"/>
            <path d="M93.54036,235.74448a5.10374,5.10374,0,0,0,.23439,7.9961,3.621,3.621,0,0,0,3.0952,1.0068,12.24752,12.24752,0,0,0,2.7612-1.125,4.76782,4.76782,0,0,0,2.3487-4.3798c-.4688-2.9532-2.6362-4.2315-5.4112-4.4795a2.95229,2.95229,0,0,0-1.4882.1123c-.22609.082-.5303.2841-.7505.3447a1.8679,1.8679,0,0,0-.9395.6435" fill="#c8a984"/>
            <path d="M93.54036,235.74448a5.10374,5.10374,0,0,0,.23439,7.9961,3.621,3.621,0,0,0,3.0952,1.0068,12.24752,12.24752,0,0,0,2.7612-1.125,4.76782,4.76782,0,0,0,2.3487-4.3798c-.4688-2.9532-2.6362-4.2315-5.4112-4.4795a2.95229,2.95229,0,0,0-1.4882.1123c-.22609.082-.5303.2841-.7505.3447a1.8679,1.8679,0,0,0-.9395.6435" fill="none" stroke="#3a2621" stroke-linecap="round" stroke-linejoin="round" stroke-width="1.3156"/>
            <path d="M95.35976,227.95538c-.0118,1.6426-.25439,3.2627-.2481,4.8995a6.50845,6.50845,0,0,1-.04829,1.1045c-.042.2587-.25251.4042-.18851.7812" fill="none" stroke="#3a2621" stroke-linecap="round" stroke-linejoin="round" stroke-width="1.3156"/>
            <path d="M91.72546,239.58528c-.4346-.1084-.8189-.3496-1.2476-.4902a8.82782,8.82782,0,0,0-2.374-.2236,8.64587,8.64587,0,0,1-1.9551-.4375,3.02433,3.02433,0,0,0-1.2075-.3008" fill="none" stroke="#3a2621" stroke-linecap="round" stroke-linejoin="round" stroke-width="1.3156"/>
            <path d="M93.90616,243.94758c-1.023,1.2207-1.481,3.1387-1.9424,4.6289a17.72482,17.72482,0,0,0-1.0118,2.3487c-.0654.0166-.1313.0322-.1958.0488" fill="none" stroke="#3a2621" stroke-linecap="round" stroke-linejoin="round" stroke-width="1.3156"/>
            <path d="M98.99356,243.94758c.0654.003.13081.0078.19581.0118a18.16964,18.16964,0,0,0,1.45209,4.8632c.3008.5938.4028,1.0625.77491,1.666" fill="none" stroke="#3a2621" stroke-linecap="round" stroke-linejoin="round" stroke-width="1.3156"/>
            <path d="M108.92706,242.97788c-.0786-1.3076-5.4643-.8721-6.7426-1.2529-.0137-.0664-.0274-.1348-.041-.2002" fill="none" stroke="#3a2621" stroke-linecap="round" stroke-linejoin="round" stroke-width="1.3156"/>
            <path d="M104.32356,230.37828c.0323.8682-1.0923,2.1074-1.47119,2.8828a16.1062,16.1062,0,0,1-1.15181,1.7334c-.1489.2266-.313.5283-.4653.7754-.1958.3193-.3794.4258-.3438.8682-.0674.0127-.1348.0273-.2017.04" fill="none" stroke="#3a2621" stroke-linecap="round" stroke-linejoin="round" stroke-width="1.3156"/>
          </g>
          <path d="M65.80066,213.17708a7.0072,7.0072,0,0,0-1.2691,2.4424,4.12924,4.12924,0,0,1-.896-2.6533,8.574,8.574,0,0,1,2.1651-.0322" fill="#fff" opacity="0.59"/>
          <path d="M63.62,220.20348c.9951.4805,2.4986,1.3203,2.4248,2.6387a2.62746,2.62746,0,0,1-1.8808.2187,9.587,9.587,0,0,1-.0591-2.8574" fill="#fff" opacity="0.59"/>
        </g>
      </g>
    </g>
  </g>
</svg>
