<svg xmlns="http://www.w3.org/2000/svg" viewBox="0 0 115.82396 70.25168">
  <title>Recurso 2</title>
  <g id="Capa_2" data-name="Capa 2">
    <g id="Editar">
      <g>
        <path d="M1.43916,58.98862c1.5566-1.1113,2.8418-2.7597,4.9629-2.791,1.0781-.0166,1.209-.6504,1.416-1.4414,1.7031-6.4873,5.9375-9.2266,12.459-8.0234a1.447,1.447,0,0,0,1.8125-.8614c5.1191-8.3261,14.666-8.6201,20.4179-.5586a8.029,8.029,0,0,1,.9805,5.0508c-.041.8047-.4297,1.7529,1.1289,2.0137,5.7715.9648,8.3047,4.1543,8.1797,9.9336-.0078.3105.0078.6201.0137.9306-1.8867,5.1065-5.5254,7.1104-10.9629,7.001-11.0059-.2246-22.0215-.2011-33.0274.0059-3.7714.0722-6.4804-1.0459-8.2929-4.3174l.0195.042a6.417,6.417,0,0,1-.0234-5.1084l.0254-.0225C1.56606,60.57062.71066,59.39882,1.43916,58.98862Z" fill="#fff"/>
        <path d="M42.30926,27.973c2.2256-1.5908,4.0684-3.9512,7.1025-3.9961,1.543-.0234,1.7295-.9287,2.0274-2.0635,2.4375-9.2832,8.4961-13.2012,17.8301-11.4795,1.3242.2461,1.8672-.0556,2.5918-1.2324,7.3261-11.917,20.9863-12.3379,29.2187-.7998,1.3994,1.9619,1.5332,4.6738,1.4033,7.2285-.0586,1.1494-.6133,2.5069,1.6172,2.8809,8.2578,1.3799,11.8828,5.9443,11.7041,14.2158-.0097.4414.0127.8857.0196,1.3301-2.6993,7.3076-7.9083,10.1767-15.6885,10.0176-15.75-.3184-31.5137-.2862-47.2647.0117-5.3984.1015-9.2734-1.4991-11.8672-6.1807l.0284.0596c-.8565-2.4317-1.2022-4.8662-.0352-7.3096l.0361-.0322C42.49086,30.23672,41.26726,28.55992,42.30926,27.973Z" fill="#fff"/>
      </g>
    </g>
  </g>
</svg>
