<svg xmlns="http://www.w3.org/2000/svg" viewBox="0 0 64.17466 37.4389">
  <title>Recurso 2</title>
  <g id="Capa_2" data-name="Capa 2">
    <g id="Editar">
      <path d="M1.74876,23.75263c1.8914-1.3512,3.45471-3.3545,6.0315-3.393,1.3106-.0196,1.4688-.7894,1.7214-1.7516,2.06981-7.8823,7.2143-11.2114,15.14-9.7482a1.7584,1.7584,0,0,0,2.2013-1.047c6.2206-10.119,17.8211-10.4755,24.8111-.6788,1.1888,1.6661,1.3018,3.9684,1.1921,6.1379-.0494.9765-.5215,2.1294,1.3729,2.446,7.0116,1.1718,10.09041,5.0479,9.9383,12.071-.0081.3767.0109.7539.0173,1.1308-2.29219,6.2048-6.7157,8.6411-13.3228,8.5067-13.3737-.2721-26.7599-.2442-40.1343.0086-4.5828.0867-7.8734-1.2712-10.0765-5.247l.0242.0503a7.79165,7.79165,0,0,1-.02979-6.2069l.031-.0275C1.90336,25.675.86406,24.25123,1.74876,23.75263Z" fill="#42afc4"/>
    </g>
  </g>
</svg>
