<svg xmlns="http://www.w3.org/2000/svg" viewBox="0 0 49.52119 67.92745">
  <title>Recurso 4</title>
  <g id="Capa_2" data-name="Capa 2">
    <g id="Editar">
      <g>
        <g>
          <path d="M20.43848,6.51068a3.663,3.663,0,0,0,.3662-.3027,1.76548,1.76548,0,0,0-.8183-3.0649,1.96505,1.96505,0,0,0-.251-.0484,2.47526,2.47526,0,0,0-1.416.2085,3.7739,3.7739,0,0,0-.7305.3296,4.94271,4.94271,0,0,0-.4267.2871,3.54321,3.54321,0,0,0-.31938-1.2441,3.80316,3.80316,0,0,0-.21482-.4077c-.0049-.0118-.0059-.023-.0108-.0347A1.59,1.59,0,0,0,15.58308,1.23a2.10711,2.10711,0,0,0-.9747-.1582.98626.98626,0,0,0-.2988.0459.51148.51148,0,0,1-.0791.0185,1.74814,1.74814,0,0,0-1.0488,1.0445c-.4561.8593.0508,2.083.2422,2.9463a9.24434,9.24434,0,0,1,.2392,1.9082,11.684,11.684,0,0,0,.0733,1.5673.60682.60682,0,0,0,.2168.3614.673.673,0,0,0,.9599.3486,10.4076,10.4076,0,0,1,1.7286-.6396,13.48124,13.48124,0,0,0,1.78712-.7442C18.876,7.70408,20.12018,7.168,20.43848,6.51068Z" fill="#fff"/>
          <path d="M21.64948,6.77148a3.02316,3.02316,0,0,0-.4864-3.9903,3.22806,3.22806,0,0,0-3.79.2427,2.39248,2.39248,0,0,0-.0352-.5224,3.77909,3.77909,0,0,0-.915-1.5855,2.00783,2.00783,0,0,0-3.0937-.3296c-.9571.898-1.06938,2.4419-1.0313,3.6626a31.78792,31.78792,0,0,0,.5684,4.0215.52239.52239,0,0,0,.082.8262,3.46429,3.46429,0,0,0,2.2373.333,15.52777,15.52777,0,0,0,2.3936-.4307C19.0918,8.627,20.72558,8.11228,21.64948,6.77148Zm-4.9121,1.1592a11.87051,11.87051,0,0,1-1.7481.2685,5.31932,5.31932,0,0,1-.8096-.0205c-.00188-.8457-.4355-1.7715-.5058-2.5635a9.72524,9.72524,0,0,1,.0263-3.1113,2.47059,2.47059,0,0,1,.6563-1.1777c.2988-.2998.7236-.0869,1.0039.1191a5.18754,5.18754,0,0,1,1.0371,1.0357,1.839,1.839,0,0,1,.19532,1.5581.29872.29872,0,0,0,.58008.1416c.0176-.0664.0352-.1309.0518-.1993a.33.33,0,0,0,.2988-.1123c.8408-.9301,2.5849-1.3584,3.4004-.1464.708,1.0517-.0127,2.5703-.95708,3.1728A10.04632,10.04632,0,0,1,16.73738,7.93068Z" fill="#1d1d1b"/>
        </g>
        <g>
          <path d="M9.0528,13.458a4.88,4.88,0,0,0-.26472-.5019,2.11694,2.11694,0,0,0-3.7959.2324,2.25251,2.25251,0,0,0-.1162.2812,2.94449,2.94449,0,0,0-.0918,1.7119,4.475,4.475,0,0,0,.211.9356,5.98039,5.98039,0,0,0,.2343.5713,4.25607,4.25607,0,0,0-1.5371.0761,4.01463,4.01463,0,0,0-.5273.1573c-.0137.0019-.02928.0019-.044.0029a1.90445,1.90445,0,0,0-1.4238.9756,2.51943,2.51943,0,0,0-.4189,1.1064,1.25826,1.25826,0,0,0-.0147.3623c.002.0332,0,.0655.002.0987a2.07862,2.07862,0,0,0,.9736,1.4765c.9004.7422,2.458.4385,3.51952.42a10.95888,10.95888,0,0,1,2.29588.1748,14.0104,14.0104,0,0,0,1.8575.2851.71824.71824,0,0,0,.4755-.168.80668.80668,0,0,0,.6397-1.0439,12.14477,12.14477,0,0,1-.3389-2.1797,16.33563,16.33563,0,0,0-.4492-2.2764C10.08308,15.57808,9.74908,13.98928,9.0528,13.458Z" fill="#fff"/>
          <path d="M9.64848,12.09858c-1.17968-1.2236-3.5049-1.5996-4.8018-.3799a3.86668,3.86668,0,0,0-.6172,4.5079,2.69513,2.69513,0,0,0-.622-.083,4.52311,4.52311,0,0,0-2.0801.6953,2.40731,2.40731,0,0,0-1.124,3.5556c.8261,1.3369,2.6133,1.835,4.0537,2.083a38.31578,38.31578,0,0,0,4.8584.292.6261.6261,0,0,0,.98832.0996,4.13879,4.13879,0,0,0,.92278-2.5478,17.82,17.82,0,0,0,.0645-2.9141C11.21488,15.54388,11.002,13.501,9.64848,12.09858Zm.1914,6.043a14.33712,14.33712,0,0,1-.1045,2.1172,6.731,6.731,0,0,1-.2148.9453c-.9952-.2002-2.1817.0908-3.1289-.0176a11.71516,11.71516,0,0,1-3.6495-.7705,2.95739,2.95739,0,0,1-1.2246-1.0537c-.2812-.4209.0703-.8682.377-1.1494a6.22181,6.22181,0,0,1,1.4648-.9678,2.201,2.201,0,0,1,1.877.1397.3578.3578,0,0,0,.3017-.6485c-.07028-.0361-.1445-.0722-.2197-.1074a.39523.39523,0,0,0-.0615-.3799c-.8936-1.206-.9785-3.3574.6387-4.0263,1.4023-.5791,3.0156.6289,3.4961,1.8789A12.07613,12.07613,0,0,1,9.83988,18.14158Z" fill="#1d1d1b"/>
        </g>
        <g>
          <path d="M44.49218,36.873a18.68008,18.68008,0,0,0,.3702-2.1132c.7353-6.9014-5.8379-11.0411-11.89157-8.0918a8.6929,8.6929,0,0,0-.99522.5722,11.105,11.105,0,0,0-4.2382,4.9092,16.80143,16.80143,0,0,0-1.5352,3.2861,21.93718,21.93718,0,0,0-.623,2.2481,16.12207,16.12207,0,0,0-4.7745-3.3291,15.33042,15.33042,0,0,0-1.9375-.752,1.36833,1.36833,0,0,1-.1396-.0898c-2.0957-1.3047-4.2442-1.1533-6.5137-.3789a9.54,9.54,0,0,0-3.8144,2.3359,4.73152,4.73152,0,0,0-.8848,1.0518c-.0713.1045-.1514.1963-.2217.2998-1.459,2.1308-1.0303,4.3623-.5058,6.6689.97362,4.3037,6.3349,7.003,9.5517,9.4004a41.73428,41.73428,0,0,1,6.46392,5.8399,52.54172,52.54172,0,0,0,4.89158,5.1513,2.7201,2.7201,0,0,0,1.8135.5996,3.05013,3.05013,0,0,0,4.3271-1.6406,45.82854,45.82854,0,0,1,4.0332-7.3037,61.49475,61.49475,0,0,0,3.9238-7.8447C42.66608,45.60158,45.3428,40.07518,44.49218,36.873Z" fill="#fff"/>
          <path d="M49.42,34.18748c-.6963-6.3896-6.78033-12.8955-13.48152-12.25-6.4453.6123-10.9814,6.0332-12.2802,12.0508a10.04484,10.04484,0,0,0-1.67-1.6885c-2.2656-1.7705-5.0693-2.2373-7.8291-2.7344-5.9043-1.0644-10.9345,1.8828-11.5908,8.0303-.624,5.9102,3.56542,11.5371,7.3018,15.6113,4.1924,4.5752,9.1601,8.1436,13.8525,12.1192a2.36748,2.36748,0,0,0,2.7246,2.5869c3.458-.3428,6.2979-3.1123,8.6592-5.4815a67.39865,67.39865,0,0,0,6.9355-8.5664C46.12988,48.11818,50.2208,41.51558,49.42,34.18748ZM36.003,52.70208a54.52346,54.52346,0,0,1-5.2119,6.0879,24.84663,24.84663,0,0,1-2.835,2.3311c-2.5098-2.9024-6.7305-4.7774-9.3125-7.2949-3.373-3.2764-6.92678-6.5283-9.1309-10.75a11.18758,11.18758,0,0,1-1.2216-5.9864c.1328-1.913,2.21872-2.4355,3.7881-2.5654a23.5614,23.5614,0,0,1,6.622.4951c2.6299.5733,4.0235,2.5567,5.2881,4.7608a1.35312,1.35312,0,0,0,2.4053-1.2373c-.1299-.2715-.2666-.5508-.4102-.8311a1.4837,1.4837,0,0,0,.69342-1.2773c.12008-5.6768,4.84668-12.3047,11.23137-10.5616,5.5352,1.5127,7.56063,8.8594,6.1065,13.71C42.5528,44.44428,38.97168,48.70208,36.003,52.70208Z" fill="#1d1d1b"/>
        </g>
        <g>
          <path d="M30.54108,14.28908a5.14021,5.14021,0,0,0,.2285-.5196,2.11667,2.11667,0,0,0-2.541-2.8291,2.22666,2.22666,0,0,0-.292.084,2.93085,2.93085,0,0,0-1.3985.9922,4.2931,4.2931,0,0,0-.6015.748,5.642,5.642,0,0,0-.30078.5372,4.26924,4.26924,0,0,0-1.01662-1.1563,4.01932,4.01932,0,0,0-.4502-.3154.34644.34644,0,0,1-.0303-.0332,1.90486,1.90486,0,0,0-1.6484-.5098,2.55639,2.55639,0,0,0-1.127.3594,1.20758,1.20758,0,0,0-.2939.2158c-.0254.0205-.0508.04-.0762.0615a2.08043,2.08043,0,0,0-.5508,1.6807c-.0234,1.166,1.1827,2.1982,1.85842,3.0185a10.84983,10.84983,0,0,1,1.28908,1.9073,14.23218,14.23218,0,0,0,.9307,1.6318.72582.72582,0,0,0,.4287.2695.80743.80743,0,0,0,1.2158-.1484,12.11142,12.11142,0,0,1,1.4961-1.6211,16.18372,16.18372,0,0,0,1.5049-1.7656C29.52248,16.415,30.55858,15.166,30.54108,14.28908Z" fill="#fff"/>
          <path d="M31.97658,13.91108a3.62228,3.62228,0,0,0-2.6875-3.998,3.86831,3.86831,0,0,0-3.915,2.3183,2.68559,2.68559,0,0,0-.32128-.54,4.54149,4.54149,0,0,0-1.83792-1.1973,2.41,2.41,0,0,0-3.4844,1.3301c-.5322,1.4785.1865,3.1865.8887,4.4707a38.237,38.237,0,0,0,2.791,3.9863.6254.6254,0,0,0,.5371.837,4.14612,4.14612,0,0,0,2.5694-.8594,18.0885,18.0885,0,0,0,2.3212-1.7608C30.252,17.28028,31.7188,15.84278,31.97658,13.91108Zm-4.6162,3.9053a14.09511,14.09511,0,0,1-1.7227,1.2334,6.70957,6.70957,0,0,1-.874.4209c-.46188-.9043-1.4267-1.6523-1.9306-2.4629a11.71739,11.71739,0,0,1-1.6651-3.3379,2.94315,2.94315,0,0,1,.0645-1.6133c.15432-.4834.7236-.4853,1.1347-.4199a6.25457,6.25457,0,0,1,1.669.5459,2.20516,2.20516,0,0,1,1.05762,1.5567.3576.3576,0,0,0,.69528-.1661c-.0166-.0771-.0332-.1582-.0527-.2392a.39.39,0,0,0,.2588-.2832c.39062-1.4502,2.0215-2.8545,3.5517-2.002,1.3252.7393,1.38192,2.753.7002,3.9063A12.025,12.025,0,0,1,27.36038,17.81638Z" fill="#1d1d1b"/>
        </g>
      </g>
    </g>
  </g>
</svg>
