<svg xmlns="http://www.w3.org/2000/svg" viewBox="0 0 180.96787 262.37017">
  <title>Recurso 1</title>
  <g id="Capa_2" data-name="Capa 2">
    <g id="Editar">
      <g>
        <path d="M85.16715,83.72941c-.105-1.476-.2721-2.9361-.4792-4.3854,1.2308.4116,2.8023-.3723,2.3206-1.9293-.3084-.9769-.5712-1.9596-.8416-2.9409q.8331,1.8234,1.6723,3.6432c1.00921,2.1799,4.27121.9396,3.8869-1.3309-.4533-2.7005-.9333-5.3947-1.4239-8.0881q1.34385,2.2413,2.6909,4.4808c1.3284,2.2067,4.8697.5346,3.635-1.8006a55.48267,55.48267,0,0,1-4.5201-11.3951c1.5601,2.7727,3.1259,5.5415,4.7291,8.29a2.05639,2.05639,0,0,0,3.6831-1.8241c-1.6082-4.4968-3.8503-9.3448-5.59779-14.2431,2.03749,4.2923,3.92939,8.6801,6.94519,12.4348,1.5246,1.8988,4.1979-.2394,3.3697-2.2787q-1.5537-3.821-2.91189-7.6993a2.18369,2.18369,0,0,0,3.51589-2.1269c-.3242-2.004-.6617-4.006-.9978-6.0088a2.298,2.298,0,0,0,3.2912-1.8519l.0595-4.467a2.33954,2.33954,0,0,0-3.7179-1.8572,21.83356,21.83356,0,0,0-2.0161-1.7955,2.00444,2.00444,0,0,0-2.9481.6673c-1.2921-2.5878-2.6756-5.1369-4.1706-7.6512-1.2416-2.0914-4.6657-1.1516-4.1586,1.426.7439,3.7793,1.6411,7.5093,2.6593,11.2012a30.77645,30.77645,0,0,0-2.0711-2.7865c-1.0561-1.2568-3.5735-.5426-3.5052,1.2258a35.53818,35.53818,0,0,0,.9352,6.6013c-1.2581-.5843-3.0626-.0815-2.9683,1.6204a61.59786,61.59786,0,0,0,.9314,7.7321,1.95151,1.95151,0,0,0-2.8036,2.101c.2431,1.5568.5153,3.1094.7737,4.6632q-.9573-1.9773-1.87989-3.9707c-.95161-2.0608-3.742-.7983-3.53821,1.212.2141,2.0819.5339,4.1339.9055,6.1746-1.1662-.1525-2.52129.8364-2.1115,2.1433.5166,1.6539.9528,3.2963,1.3239,4.9405a2.15634,2.15634,0,0,0-2.9601,2.1946,88.62206,88.62206,0,0,0,2.1003,10.5181c.3196,1.2075,2.2464,1.2038,2.2723-.1632.0101-.5421.00381-1.0848.0044-1.6273.1507.2298.2882.4622.4433.6914C82.97215,87.34411,85.28946,85.40911,85.16715,83.72941Z" fill="#009fe3"/>
        <path d="M150.47135,86.19241q-.76933-12.84435-1.6881-25.7091c.9288,5.5326,1.7076,11.0981,2.5067,16.6579.36851,2.5757,4.76651,2.3257,4.6037-.3305q-.67425-11.02185-1.2719-22.0454c.3038,1.7013.6198,3.3993.8832,5.1114.3982,2.5954,4.7254,2.3535,4.6437-.3343q-.28978-9.5202-.566-19.0417.6714,2.1075,1.3441,4.2143c.8845,2.7681,4.99371,2.0659,4.50371-.9137a105.55566,105.55566,0,0,1-1.23721-11.4394c.1798.516.3648,1.0295.5401,1.5493.9459,2.7841,5.0438,2.1269,4.5809-.9288a93.47052,93.47052,0,0,1-1.0156-11.3013c.1539.3881.3185.7654.4566,1.1744.7085,2.0794,4.2023,2.3453,4.2093-.3032q.01215-3.2064.0215-6.4102c1.239.8415,3.2969.4755,3.25941-1.4088q-.08072-4.04685-.15571-8.0957c-.0481-2.5769-4.058-2.8302-4.0237-.2273q.00945.6582.01641,1.3176c-1.25231-.7781-3.18661-.3209-3.21011,1.5115q-.0285,2.436-.05689,4.8709c-.30151-.3964-.61551-.7915-.94921-1.1859a2.11185,2.11185,0,0,0-3.6451,1.2746q-.13215,2.4426-.1786,4.8632c-.01709-.0361-.031-.0727-.04809-.1088-.97381-2.1825-4.32771-1.3721-4.45551.9111-.0982,1.7652-.1457,3.5273-.161,5.2868-.1259-.4019-.2589-.8021-.3848-1.2042-.7118-2.2762-4.5823-2.4864-4.5266.3255.0652,3.2766.1666,6.5532.2552,9.8299-.5098-1.8159-1.013-3.6338-1.5722-5.4401-.7193-2.3282-4.8272-2.5543-4.6633.3355q.3516,6.161.7276,12.3189c-.7421-2.6074-1.5443-5.2015-2.4478-7.7709l-.0019-.0215-.0044.0025c-.064-.181-.1166-.3653-.1812-.5458-.7496-2.1021-4.213-1.2651-4.2023.8592.0064,1.2486.0424,2.5049.0659,3.7597-.0373-.2335-.076-.4678-.119-.6983a.93878.93878,0,0,0-1.8002-.1032c-1.0301,3.0765-2.0533,6.1474-3.0113,9.2416-.4198-1.1935-.8516-2.3832-1.31319-3.5717a1.40629,1.40629,0,0,0-2.57571.1906q-1.419,1.7145-2.8384,3.4338a.56787.56787,0,0,0-.3927.8041c1.4786,2.6066,3.219,1.6405,4.443-.1115.49381,1.4297.9491,2.8745,1.33981,4.3498.347,1.3151,2.38319,1.6356,2.79029.1577.8428-3.0589,1.5741-6.1366,2.2782-9.2246.0279.209.0494.4172.0766.6256-1.3562,5.1103-1.4386,10.3047,1.0662,15.396a1.62124,1.62124,0,0,0,1.3335.9403c.0721.7274.1468,1.4518.2254,2.1787q.0798,5.235.1362,10.4694a37.76178,37.76178,0,0,1-.8796-5.6161c-.1854-2.2763-3.5717-1.778-3.8046.2741a69.65686,69.65686,0,0,0-.537,9.7052,1.86079,1.86079,0,0,0,3.0563,1.3492,39.048,39.048,0,0,0,2.4188,4.9735,2.05059,2.05059,0,0,0,2.9106.5877c.2247,1.1409.4355,2.2894.6749,3.4228C148.21085,87.755,150.56315,87.69671,150.47135,86.19241Z" fill="#009fe3"/>
        <path d="M136.503,40.34041c.1671-1.9039.3863-3.8034.5761-5.7068.8484,2.1928,4.1917,1.4817,4.5519-.8686.2805-1.8228.5458-3.6464.8238-5.4692a2.55592,2.55592,0,0,0,4.6892-.2844c.1722-.5964.3027-1.2043.4546-1.8065a2.45854,2.45854,0,0,0,4.42581.801,39.89859,39.89859,0,0,0,3.50269-8.7826,2.37054,2.37054,0,0,0,4.2378-.4794q.7617-2.5413,1.6488-5.0209c.1094.2665.2234.5325.3158.8085.6915,1.6475,3.5034,1.9324,4.3422.2445q.7857-1.57575,1.5666-3.1469c1.28911-2.5922-2.0281-5.0747-3.7307-3.4248-.3685-.5293-.7553-1.058-1.1796-1.593-1.222-1.5379-3.5153-.7408-4.1452.8744-.4667,1.1954-.8846,2.4003-1.3037,3.6053-.3121-.5199-.64269-1.0385-1.0106-1.5601-1.2365-1.7641-3.9383-.4098-4.0909,1.4296a36.43137,36.43137,0,0,1-1.2885,7.0813c-.3704-1.6482-.7712-3.2906-1.2315-4.9311-.6926-2.4605-4.4391-2.4256-4.6038.3312-.017.297-.0461.5889-.069.8832-.0721-.4419-.1469-.8825-.219-1.3246-.4907-2.9511-4.553-2.3091-4.9349.356-.1494,1.0459-.2887,2.0938-.4369,3.1404-.0145-.2261-.0367-.4508-.05-.6781a2.28328,2.28328,0,0,0-4.5493-.3242,2.17024,2.17024,0,0,0-3.2197,1.1751c-.2982,1.0435-.56859,2.0825-.844,3.1216-.0652-.7959-.1393-1.5912-.2013-2.3871-.1855-2.3877-3.85029-2.3363-4.4796-.252-.2793.927-.5225,1.8634-.7643,2.7973q-.28858-.83-.6135-1.6576c-.8631-2.2097-3.7357-1.0295-4.0465.8276q-.32685,1.95165-.6541,3.9016c-.3084-1.2746-.6268-2.5454-.9207-3.8225-.4514-1.9546-3.5058-2.3521-4.07-.2292-.3703,1.3967-.6851,2.7903-.9572,4.1865-.0665-.3191-.13939-.6363-.2058-.9567-.4997-2.3775-3.8225-1.9976-4.103.2963q-.2145,1.7391-.428,3.4812c-.3071-1.2119-.623-2.4213-.92559-3.635-.45221-1.8014-3.54581-2.3959-3.97061-.2242-.2806,1.4329-.5205,2.8682-.7687,4.3024q-.5262-1.38-1.1232-2.7518a1.99677,1.99677,0,0,0-3.6541.2697c-.1418.5471-.245,1.0777-.3413,1.6077-.2398-.3476-.4704-.7003-.716-1.0441a1.70911,1.70911,0,0,0-2.8886.6097,5.32691,5.32691,0,0,0,.309,4.0991,1.16016,1.16016,0,0,0,1.7698.5635q.7644,1.2681,1.536,2.5346a1.87835,1.87835,0,0,0,3.0126.4305c.283.9745.5502,1.9552.789,2.9493a2.00359,2.00359,0,0,0,3.9464-.2829c.1331-1.0031.30271-1.9989.4534-2.9987.4229,1.6481.856,3.293,1.2745,4.9418a2.04342,2.04342,0,0,0,4.025-.2881c.1052-.8098.20781-1.6164.3116-2.4269.19.8751.3818,1.7488.56921,2.6245.48,2.2357,4.09659,2.1192,4.09659-.295a68.6433,68.6433,0,0,1,.3876-7.0782q.46155,1.91355.93,3.8256a2.10131,2.10131,0,0,0,4.13781-.2976q.31243-1.8132.63059-3.6243c.0437.7395.0709,1.4854.067,2.2471a2.22531,2.22531,0,0,0,4.1733,1.1341q.13967,1.6542.2818,3.3082c.18031,2.1275,2.6301,2.2231,3.873,1.0245.1292,1.3885.2767,2.7777.4597,4.1668C132.28625,43.348,136.28015,42.87121,136.503,40.34041Z" fill="#bccf00"/>
        <path d="M144.67846,83.48871a7.20083,7.20083,0,0,0-1.31631.0735q-.512-1.0002-1.0219-2.0028a3.19684,3.19684,0,0,0-2.6923-1.5897c-.7586-2.0174-1.6101-4.0017-2.5726-5.9696a2.95391,2.95391,0,0,0-4.5093-.7958c-.2368-.5788-.4533-1.1613-.7061-1.7382-.9719-2.2312-4.9576-1.5803-4.8177.9859.0127.2451.02921.4882.0424.732-1.403-.9795-3.76219-.3173-3.7768,1.7229-.0038.4976-.00439.9965-.0082,1.4948-.6541-1.7425-1.2954-3.4893-1.9698-5.2249-.8845-2.278-4.8279-1.486-4.7297.9688.0354.8452.0386,1.6906.06331,2.5364q-.56417-1.5633-1.129-3.1265c-.98641-2.7195-4.61141-1.0644-4.59611,1.3518-.549-1.8249-1.1087-3.6457-1.6456-5.4724-.6078-2.0756-4.0187-2.177-4.0251.2906-.005,2.0305.0305,4.0655.0793,6.1012-.0894-.2464-.1717-.4952-.2629-.7402-.6984-1.8938-1.1111-3.0063-2.7327-4.265a1.89171,1.89171,0,0,0-2.9005,1.4772c.2159,3.821.25461,7.586.1292,11.3507a59.67049,59.67049,0,0,0-2.5327-6.1798,1.61283,1.61283,0,0,0-3.0303.6206q-.5271,4.42665-.9947,8.8555c-.6092-1.1822-1.2126-2.3674-1.7913-3.5673a1.70733,1.70733,0,0,0-3.2102.6572,15.26428,15.26428,0,0,1-.6211,3.6002c-.2932-.5983-.5838-1.1961-.8965-1.7874a1.8229,1.8229,0,0,0-3.3299.2456q-.7539,2.39445-1.50689,4.7874c-.59,1.8774,2.05969,2.6244,2.83979.9174l.4261-.9345c.2932.5793.5857,1.1587.8845,1.7387a1.79861,1.79861,0,0,0,3.0981.1747,19.84153,19.84153,0,0,0,1.7038-3.823q1.0305,1.77975,2.0465,3.5711a1.46531,1.46531,0,0,0,2.7511-.5636q.5451-3.8379,1.0377-7.6815a47.81766,47.81766,0,0,1,2.444,9.5538c.233,1.5937,2.9106,1.847,3.2451.1824a73.37912,73.37912,0,0,0,1.389-11.8111c.007.0196.0134.0437.0197.0639.8111,2.5067,1.6304,5.0096,2.4004,7.5302.6097,1.9958,3.935,2.1408,3.9224-.2816-.0057-1.1063-.0171-2.2155-.02719-3.3242.56669,2.0464,1.14039,4.0914,1.70129,6.1379a2.292,2.292,0,0,0,4.5144-.3255c.052-.6775.0639-1.3543.0988-2.0318.2603.7529.5294,1.5025.7857,2.2566.8587,2.5174,4.9831,2.8036,5.0546-.364.019-.9099.0165-1.8185.019-2.7265.4838,1.3424.9839,2.6784,1.4557,4.0245.8148,2.3242,4.629,1.3828,4.6253-.9473-.002-.6762-.0077-1.3511-.0083-2.028a2.71145,2.71145,0,0,0,4.203.7737,2.76722,2.76722,0,0,0,4.8854.3381,3.45894,3.45894,0,0,0,2.6088.5414,3.07,3.07,0,0,0,4.9987-.3976C148.20455,89.04041,148.40085,83.63191,144.67846,83.48871Z" fill="#bccf00"/>
        <path d="M20.69715,142.45611c.1829-1.2518.3374-2.5036.4792-3.7566.6636,1.671,3.661,1.8349,4.053-.1627.6053-3.0791,1.0535-6.1614,1.4138-9.2525a2.28924,2.28924,0,0,0,4.3606-.7572c.2216-1.8761.3786-3.7471.50271-5.6188.03489.1361.076.2692.11029.4059.7863,2.7702,5.1456,1.9393,4.4251-.8966-.554-1.9526-.9997-3.913-1.3986-5.8789,1.03321,2.2946,4.7601,1.5405,4.2067-1.1834-.4641-2.2845-.8662-4.5663-1.184-6.8553a2.26291,2.26291,0,0,0,2.9848-2.4674c-.102-.7839-.2489-1.5317-.41729-2.2642-.48321-2.5903-.89481-5.1805-1.17271-7.7829,1.4911,1.2055,4.2049.2635,3.6978-2.1129a66.15142,66.15142,0,0,1-1.3582-9.619,1.96619,1.96619,0,0,0,1.57211-2.4737,69.85512,69.85512,0,0,1-1.16621-7.3119,2.42076,2.42076,0,0,0,2.4858-2.5207c-.1552-1.8056-.83459-4.755-.56159-6.5436.24879-1.6222,1.17379-2.441,1.65249-3.8744a19.07979,19.07979,0,0,0,.5274-1.8938,2.18441,2.18441,0,0,0,3.6826-1.4202,34.29887,34.29887,0,0,0,.0138-4.9317,1.88174,1.88174,0,0,0,1.9363-.9701q1.9032-3.5634,3.8085-7.128.61155.5127,1.2227,1.0244c1.3479,1.1269,3.6437-.2008,3.6305-1.8483-.00829-.6933-.00829-1.3854-.0107-2.0792.2108-.0128.4228-.0266.6343-.0406a2.15083,2.15083,0,0,0,1.9603-.9972,13.94913,13.94913,0,0,0,1.0612-2.4136q.3183.0579.637.1145a2.17464,2.17464,0,0,0,2.12361-.4494,43.74584,43.74584,0,0,1,12.44039-8.3415c2.5839-1.1624.6217-5.0944-1.9513-3.9363a47.43035,47.43035,0,0,0-8.1597,4.6176c-2.4871,1.7729-3.5108,3.4388-6.5791,3.3444a2.243,2.243,0,0,0-2.2954,2.0502c-.3317,1.9711-.7876,1.5039-2.5085,1.8597a2.21823,2.21823,0,0,0-1.626,1.4872l-.0146-.0126a2.3552,2.3552,0,0,0-3.2532.7022q-1.95075,3.8721-3.9021,7.748a8.52389,8.52389,0,0,0-1.58549-.164,2.21429,2.21429,0,0,0-2.26361,2.6137c.1165.7041.2014,1.3999.26661,2.0946-.05641-.0374-.09811-.076-.15451-.114A2.19355,2.19355,0,0,0,41.722,54.7c.718,3.6926-1.7031,5.7238-2.3914,8.825a8.40908,8.40908,0,0,0-.145,2.1294,2.04882,2.04882,0,0,0-1.7083,1.8672,75.1504,75.1504,0,0,0,.1715,8.0848,2.08325,2.08325,0,0,0-.5989,1.4424c-.1146,2.2737-.1406,4.536-.0633,6.7907a2.34729,2.34729,0,0,0-3.0285,2.0464c.01141,2.9632.1779,5.8966.4452,8.8169a2.07633,2.07633,0,0,0-1.7235,1.9253c.0285,2.1579.119,4.3037.2425,6.4451a.13909.13909,0,0,0-.0121-.0221c-1.0839-1.602-4.25169-1.64-4.1985.8598.0235,1.0972.0773,2.1876.1451,3.2735a2.02461,2.02461,0,0,0-1.7755,2.0413q.112,2.36385.1285,4.7208c-.9642-1.8704-4.3206-1.7373-4.2688.7674q.1113,5.4459-.2981,10.8416-.5985-2.24025-1.2227-4.4902c-.6224-2.2554-4.3599-2.3231-4.33269.3114.01079.9814.01009,1.9559.01389,2.9328a1.72827,1.72827,0,0,0-.1938-.0841c-.08609-.2963-.1563-.5877-.2583-.8865a1.74894,1.74894,0,0,0-3.3476-.188,27.76913,27.76913,0,0,0-.9098,2.7815,1.612,1.612,0,0,0-.4502.8965c-.2501-.1836-.4837-.3685-.7718-.5508a1.72993,1.72993,0,0,0-2.3661.5109c-.9644,1.6558-1.8305,3.3362-2.70429,5.0426a1.1697,1.1697,0,0,0,1.96469,1.2669c.6478-.7686,1.2917-1.536,1.92231-2.3091a1.25546,1.25546,0,0,0,.29889-.0615c.0506.2407.1342.4926.2076.727a3.19755,3.19755,0,0,0,2.1256,2.3698,1.64,1.64,0,0,0,2.0445-1.1155,1.70277,1.70277,0,0,0,.238-.2743,1.51356,1.51356,0,0,0,.1526-.0228q.63915,5.17815,1.2785,10.358C16.65875,145.418,20.36025,144.77091,20.69715,142.45611Z" fill="#fec700"/>
        <path d="M110.01395,202.82781a2.13442,2.13442,0,0,0,.0139-1.1068,2.72435,2.72435,0,0,0,2.8087-3.0006c-.1696-1.0663-.3888-2.1179-.6198-3.1658a1.12376,1.12376,0,0,0,.6204-1.4316c-.7503-2.2396-1.4999-4.5049-2.2616-6.7749a2.01032,2.01032,0,0,0,2.2142-2.7054q-1.6716-4.27965-3.33229-8.5585c.30769.5489.60769,1.101.92689,1.6462,1.3006,2.2218,4.8209.5381,3.61911-1.7938q-1.134-2.20065-2.33061-4.3442-1.84258-3.6357-3.3628-7.3865c.4476.6288.8979,1.2563,1.3373,1.8919,1.35811,1.9565,4.5006-.2703,3.4356-2.3217a53.36493,53.36493,0,0,1-4.4937-11.7674c1.3601,1.1187,3.7636.0765,3.2887-1.8673q-.981-4.02885-1.96849-8.0564c.05249.0209.10449.0412.15509.0639a2.05783,2.05783,0,0,0,2.665-1.8278,37.20974,37.20974,0,0,0-.2038-6.0949c.0734.0114.1475.0209.2196.0336a2.172,2.172,0,0,0,2.2636-2.0224q.1008-1.489.2051-2.9809a2.30617,2.30617,0,0,0,2.848-1.4893,14.10906,14.10906,0,0,0,.6681-4.2954,4.97911,4.97911,0,0,0,3.0569-2.8454c.2456.0855.49641.1582.7408.2463a2.26964,2.26964,0,0,0,2.834-1.4494,26.82877,26.82877,0,0,0,.8434-5.2532c4.0509-.3787,6.0271-5.684,10.3839-7.3036,2.898-1.0783.7357-5.3515-2.1294-4.2993-2.423.8897-3.48229,1.2297-5.2052,3.0791-1.08009,1.1601-2.5327,4.3366-4.6373,3.4977-1.8216-.725-3.1386,1.1043-3.0239,2.701a16.50968,16.50968,0,0,1-.0723,3.9541c-.4039-.1373-.8135-.2583-1.2157-.4008a2.27364,2.27364,0,0,0-2.7041,3.1348q-.30795.249-.6174.5003a2.3477,2.3477,0,0,0-2.9892,2.6688,8.52007,8.52007,0,0,1,.13481,2.394c-.25451-.0153-.52931-.0222-.86051-.0177a2.30507,2.30507,0,0,0-2.3901,2.135q-.0474,1.758-.09439,3.5191c-.20761-.024-.41531-.0449-.62241-.0703a2.11662,2.11662,0,0,0-2.1729,2.5106,37.65127,37.65127,0,0,1,.6084,5.0608c-.316-.121-.63509-.24-.9523-.3609a2.01389,2.01389,0,0,0-2.575,2.2996q.59432,2.4999,1.2143,4.9938a2.06246,2.06246,0,0,0-2.834,2.2034,47.106,47.106,0,0,0,.65591,5.0698c-.10321-.1443-.20641-.2899-.31081-.4344-1.231-1.712-4.0966-.1177-3.6198,1.8147.3418,1.3847.7268,2.7511,1.1314,4.1093-1.2543-.1064-2.6859.9782-2.23,2.3516q.61832,1.8558,1.2499,3.7096c-1.56969-.4774-3.5762.5351-2.9721,2.5043.4806,1.5689,1.0175,3.1347,1.5785,4.6993a2.42848,2.42848,0,0,0-2.1578,2.8118c.7755,3.0088,1.448,6.0316,2.083,9.0645a1.99407,1.99407,0,0,0-2.5225,1.8487q-.091,2.57685-.1741,5.1484a2.281,2.281,0,0,0-2.64469,1.8817,24.68073,24.68073,0,0,0-.02461,9.0601,1.15729,1.15729,0,0,0,2.2192.1259c.4058-1.4303.6901-2.8828.9611-4.3398a2.01377,2.01377,0,0,0,3.2811-1.3789c.0784-1.6209.1747-3.2406.2658-4.8609.1179.2084.2356.4223.3571.649a2.06746,2.06746,0,0,0,3.8605-1.3226c-.0538-.487-.1311-.97-.19-1.4569a88.229,88.229,0,0,1,3.00181,9.3132,4.21285,4.21285,0,0,0-.35761.2482,4.29028,4.29028,0,0,0-1.4006,2.7054,3.815,3.815,0,0,0,.12721,1.5291c.03549.1331.06459.2482.09.3496a1.83987,1.83987,0,0,0-.24131,1.2404c.0197.1405.0399.2817.0595.4236a1.93664,1.93664,0,0,0,1.7761,1.5373h.5344A2.13712,2.13712,0,0,0,110.01395,202.82781Z" fill="#fec700"/>
        <path d="M42.428,128.28521a3.62662,3.62662,0,0,0,1.3126-1.0776,2.07145,2.07145,0,0,0,.1171-2.0883c-.915-1.7133-2.4288-1.8335-4.1985-1.9925a2.37647,2.37647,0,0,0-1.5114.352c-.0595-.0412-.11329-.0886-.1728-.1298-2.0059-1.3834-4.5987.6028-4.19349,2.8632a7.59888,7.59888,0,0,1-.48191,4.1111c-.9477,2.527,2.7872,4.2258,4.2251,2.0053a10.83332,10.83332,0,0,0,.7257-1.3385,2.72431,2.72431,0,0,0,4.1776-2.7049Z" fill="#e30613"/>
        <path d="M61.195,97.66211a4.26355,4.26355,0,0,0,1.3696-.0031,2.65973,2.65973,0,0,0,2.0635-3.1126c-.5015-1.809-1.7647-2.2744-2.653-3.7718-1.20559-2.0255-5.1287-2.4738-5.6973.421-.0525.2685-.10629.5375-.1588.8067a2.98364,2.98364,0,0,0-4.5133,1.5221c-.067.1722-.112.3508-.1709.5256a4.61433,4.61433,0,0,0-2.4054.5748c-1.3316.7358-1.4215,3.043.2545,3.4641.8718.2178,1.628.4742,1.9577,1.3492.727,1.9286,3.6655,1.9236,4.74691.3793,1.56269,1.2233,4.50689,1.2119,5.01279-1.2232C61.06446,98.28331,61.13035,97.97311,61.195,97.66211Z" fill="#f70629"/>
        <path d="M73.31305,116.94081c.197-1.0207.3268-2.0527.43441-3.0892a3.07485,3.07485,0,0,0,2.54979-.7408,6.2376,6.2376,0,0,0,1.40121-1.8685,4.59249,4.59249,0,0,0,.21839-.6496,3.18783,3.18783,0,0,0,2.886-3.6844,4.07763,4.07763,0,0,0-4.8906-3.1539,4.58593,4.58593,0,0,0-2.3446,1.3645c-.264-.1912-.5186-.3944-.8035-.5653a3.16772,3.16772,0,0,0-4.6208,1.655,2.82136,2.82136,0,0,0-.82189-.3293,1.90055,1.90055,0,0,0-2.08681.7453,2.00539,2.00539,0,0,0-.3325,1.8412,1.61378,1.61378,0,0,0,.9719,1.1321c.378.9144.5686,2.1971.82,2.9373.4647,1.3709.96741,2.7283,1.3936,4.1106C68.77775,118.894,72.74075,119.90461,73.31305,116.94081Z" fill="#f70629"/>
        <path d="M54.99065,139.83541a22.71465,22.71465,0,0,0-.0431-2.5839,3.28675,3.28675,0,0,0,1.0662-1.4595,5.60473,5.60473,0,0,0,.1761-4.4663,2.627,2.627,0,0,0-3.45839-1.1657,3.74073,3.74073,0,0,0-.99911.6641c-.1286-.0164-.2477-.0518-.3806-.06a3.17228,3.17228,0,0,0-1.1992.1373,2.31606,2.31606,0,0,0-3.6167,2.7112c.8713,2.2066,1.8761,4.3936,2.6328,6.6419a2.99882,2.99882,0,0,0,3.0937,2.3262A2.94445,2.94445,0,0,0,54.99065,139.83541Z" fill="#e30613"/>
        <path d="M31.611,165.19431c-.0063-.3495-.0278-.6991-.0348-1.0492a4.05629,4.05629,0,0,0,.5655-.0462,2.43589,2.43589,0,0,0,1.8741-2.8264c-.2951-1.8672-2.0845-2.9208-2.9329-4.5335-1.0877-2.0584-4.534-2.009-5.3572.0272a2.31745,2.31745,0,0,0-2.5978,2.4339c.0709,2.0091.1348,8.2072,2.8175,9.01a1.13938,1.13938,0,0,0,2.0465-.5509l.0005-.0013A2.70643,2.70643,0,0,0,31.611,165.19431Z" fill="#e30613"/>
        <path d="M49.02805,166.455a9.91036,9.91036,0,0,0,.3185-3.7015,7.794,7.794,0,0,0-.2926-1.4373c-.1094-.3242-.2196-.651-.3323-.9752-.0134-.0424-.02019-.0619-.0317-.0993a2.64373,2.64373,0,0,0-2.0401-2.3883c-.0538-.0158-.1083-.0311-.16139-.0481a3.19306,3.19306,0,0,0-3.78441,1.7912,3.30831,3.30831,0,0,0-2.3371.8776c-.1829-.1603-.3672-.3217-.5583-.4731-1.5159-1.1959-3.4483.8485-2.6973,2.4086,1.1313,2.3421,3.2082,4.2492,4.2067,6.6305,1.0561,2.5175,4.4568,1.6323,5.1122-.5368A2.96916,2.96916,0,0,0,49.02805,166.455Z" fill="#e30613"/>
        <path d="M31.70285,198.56031a4.389,4.389,0,0,0,3.8388-1.9236,2.27123,2.27123,0,0,0-1.1929-3.3419c.23371.1039.0741.0228-.0614-.0437a7.644,7.644,0,0,0-.9175-.4052c-.4217-.1387-.87-.1938-1.2967-.3141-.0323-.0082-.2431-.0778-.3488-.1076-.0931-.0563-.2818-.1571-.3134-.1754-.0356-.0215-.05449-.0298-.0747-.0412l-.0096-.0101a5.4483,5.4483,0,0,1-.47619-.5805,2.92828,2.92828,0,0,0-3.167-.808,3.088,3.088,0,0,0-2.00961,2.6175,9.78478,9.78478,0,0,0,.0202,3.3526,9.89823,9.89823,0,0,0,.4083,1.5348,7.752,7.752,0,0,0,.8048,1.5563A2.5568,2.5568,0,0,0,31.70285,198.56031Z" fill="#e30613"/>
        <path d="M48.01315,193.94191a9.20821,9.20821,0,0,0-.1894-5.311,3.30778,3.30778,0,0,0-2.9176-2.5244,3.136,3.136,0,0,0-2.4491,1.0067c-.0392-.0183-.0765-.0367-.1158-.0538a3.57581,3.57581,0,0,0-3.5211.1247,2.64436,2.64436,0,0,0-.901.5293,2.75114,2.75114,0,0,0-.26969,3.7566,12.451,12.451,0,0,0,1.16819,3.1329,3.268,3.268,0,0,0,5.5662.1096A2.15439,2.15439,0,0,0,48.01315,193.94191Z" fill="#e30613"/>
        <path d="M45.13655,226.83931c-1.1979-1.3918-2.7485-1.631-4.4574-1.9641a4.55222,4.55222,0,0,0-1.3258-.0506,18.0152,18.0152,0,0,0-1.1816-1.8286c-1.2985-1.7653-4.4175-.5597-4.4239,1.5449-.0075,2.3883.2317,5.3136,1.6108,7.3523a1.40339,1.40339,0,0,0,.5326.4761c.6286,2.7632,4.7455,2.472,5.6541-.0075.1082-.2951.2083-.5901.3103-.884a5.08132,5.08132,0,0,0,2.4724-.4507A2.70924,2.70924,0,0,0,45.13655,226.83931Z" fill="#e30613"/>
        <path d="M54.84505,231.11951a3.063,3.063,0,0,0,2.5231-3.0506,14.62813,14.62813,0,0,0-1.01369-5.04,2.61064,2.61064,0,0,0-3.62431-1.0511c-.1849-.0899-.3665-.1823-.5572-.2634a2.72349,2.72349,0,0,0-.7768-.2025,2.94588,2.94588,0,0,0-3.4368-.2052,2.60178,2.60178,0,0,0-1.1151,2.8327.65166.65166,0,0,0-.067.0064c.3367,1.4955.7737,3.0087,1.12121,4.5284a20.62722,20.62722,0,0,0,.45909,2.4693,3.3388,3.3388,0,0,0,3.8996,2.5858A3.39071,3.39071,0,0,0,54.84505,231.11951Z" fill="#e30613"/>
        <path d="M138.28535,64.78761c2.2952.8946,5.3516-.1203,5.363-3.2666a10.11121,10.11121,0,0,0-2.3441-6.8774,3.40263,3.40263,0,0,0-2.8181-1.2961c-.1861-.4932-.3869-.9877-.6111-1.4891a3.58845,3.58845,0,0,0-4.1599-1.9927,3.6724,3.6724,0,0,0-1.8545-1.2732c.0279-.6787.0406-1.3569.0804-2.0376.1805-3.1645-2.9182-4.3663-5.154-3.4386.0463-2.9031.1355-5.8043.3198-8.7048.2938-4.6342-6.2056-4.6956-6.9927-.3951-.0291.1588-.0595.3159-.0892.4742-1.2974-2.4649-5.9524-1.7121-6.0588,1.5032-.0596,1.8311-.1786,3.6534-.3109,5.4737-1.5113-.7801-3.6261-.4236-4.063,1.5658-1.8064,8.24-3.1652,16.6972-1.6209,25.0746.2368,1.2815,2.4149,1.5645,2.6859.1507.207-1.0776.3976-2.156.5831-3.2368a3.58768,3.58768,0,0,0,3.3653,1.0714c.756,2.8974,5.5915,3.7135,6.369.2716l-.0013-.0006a3.57032,3.57032,0,0,0,4.1365.9181,3.56439,3.56439,0,0,0,4.1314,2.4889,3.79225,3.79225,0,0,0,5.7257-1.776c.3742-.8529.7028-1.7114,1.0112-2.5732A4.1201,4.1201,0,0,0,138.28535,64.78761Z" fill="#f70629"/>
        <path d="M111.77215,148.06021c2.3997-21.8834,24.94431-34.5429,35.3908-52.8028q1.1883-1.0068,2.3611-2.0236a.68126.68126,0,0,0,.197-.7401,1.814,1.814,0,0,0,1.1625-1.1968q15.0267-44.37315,29.9962-88.7653A1.9277,1.9277,0,0,0,178.67815.066q-22.44525,6.5952-45.127,12.3373-11.07585,2.8026-22.2044,5.3882c-6.6457,1.545-15.4594,2.1338-21.2547,5.7826a.98918.98918,0,0,0-.2362.2122,1.63612,1.63612,0,0,0-.361.0893c-3.854-1.5734-9.49739.6737-13.13239,1.8913a60.9799,60.9799,0,0,0-14.57931,7.2054,63.90344,63.90344,0,0,0-22.16069,25.4874c-5.83091,12.3093-6.03341,26.0257-9.83941,38.9213-4.6335,15.6955-14.85659,26.2815-28.5242,34.5918a1.39411,1.39411,0,0,0-.5248,1.9451,1.1684,1.1684,0,0,0,.3242,2.2457,77.13565,77.13565,0,0,0,14.7096-1.0896c-.3419,4.6025-.68939,9.2043-1.0092,13.8067a1.6239,1.6239,0,0,0,2.6745,1.2905,87.31092,87.31092,0,0,0,14.6007-19.1653,21.88762,21.88762,0,0,0-.1285,3.5799,1.46486,1.46486,0,0,0,2.0806,1.3727c2.0711-.8814,4.1454-1.7564,6.21451-2.6492a103.82382,103.82382,0,0,0-7.358,28.4095c-2.27821-3.3716-4.66011-6.6798-7.06931-9.9508-.8921-1.2119-2.4762-.2095-2.6903.9416a85.7654,85.7654,0,0,0-1.4272,17.2151c.0184,1.0339,1.1695,2.161,2.2326,1.4753q4.2891-2.7696,8.5775-5.5371a101.68411,101.68411,0,0,0,2.1103,26.4378,1.5568,1.5568,0,0,0-.5534.4788c-.0646.0879-.1241.1785-.1874.2664a92.11855,92.11855,0,0,0-9.367-3.8255,1.58929,1.58929,0,0,0-2.0312,1.8146,55.94007,55.94007,0,0,0,4.98241,12.9622,1.58731,1.58731,0,0,0,2.727.1545c1.74749-2.6758,3.54009-5.3294,5.23239-8.0419.9385,4.2176,2.0255,8.4325,3.1823,12.6786a160.87467,160.87467,0,0,1,3.77,16.5933c-.0545-.0025-.1102,0-.16469.0026-2.10721-1.9287-4.32771-3.7358-6.52981-5.577a1.43891,1.43891,0,0,0-2.1394.765,41.08342,41.08342,0,0,0-.3971,16.6217,1.47916,1.47916,0,0,0,2.4168.803,40.63008,40.63008,0,0,0,7.27-9.3912l.005.0025c1.3233,10.7006.532,21.3845-5.3413,31.1745a1.68413,1.68413,0,0,0,2.8296,1.8236c6.3146-9.7761,7.51-20.2993,6.4647-31.1137a22.94387,22.94387,0,0,0,8.497,5.8555,1.40356,1.40356,0,0,0,1.8241-1.2512,127.36431,127.36431,0,0,0-1.8425-17.683,1.43179,1.43179,0,0,0-2.3363-.7744,46.25206,46.25206,0,0,0-7.0257,7.2808c-1.5739-9.3481-4.3725-18.8328-6.6026-28.1734,2.9081,1.1612,6.18351,1.8052,9.1049,2.6859.9853.2976,2.2491-.5958,1.9128-1.7076a61.90549,61.90549,0,0,0-5.7111-13.2673,1.5361,1.5361,0,0,0-2.3535-.4547,20.67963,20.67963,0,0,0-4.71259,4.5968,79.59481,79.59481,0,0,1-1.58291-15.3942c.0151-1.6974.0791-3.3855.1823-5.0659.7079.5098,1.4474.9897,2.15461,1.5006q2.70209,1.9566,5.40469,3.9123a1.47313,1.47313,0,0,0,2.1857-.7788,39.74337,39.74337,0,0,0,.6123-17.2024,1.53408,1.53408,0,0,0-2.5048-.8327c-2.4282,2.2003-4.8266,4.4228-7.17689,6.6984a99.39972,99.39972,0,0,1,7.08249-25.8769,71.94762,71.94762,0,0,0,5.0287,9.6723,1.46557,1.46557,0,0,0,2.6706-.1983,111.04783,111.04783,0,0,1,5.5796-14.4399c.4558-.9662-.6548-1.8432-1.5286-1.7114-3.1094.4691-6.2297.9104-9.3347,1.4214a107.67508,107.67508,0,0,1,16.7941-24.6479,1.50863,1.50863,0,0,0,.4641.3026c.5965,3.0057,1.2398,6.005,1.895,8.9955.4186,1.9102.5959,4.9304,3.0589,5.2102,2.44081.2761,4.7043-2.7618,6.1943-4.2649a61.50144,61.50144,0,0,0,7.4289-8.9688,1.45959,1.45959,0,0,0-1.4975-2.1939,35.96687,35.96687,0,0,1-15.3226-1.4443l-.0039-.0145q3.84765-4.00515,8.104-7.6443a1.74016,1.74016,0,0,0,1.03961.3439q35.55673.1167,70.99689-2.8151-.71233,1.4085-1.512,2.7619c-17.343,10.81-34.3137,25.7445-42.1055,44.7229-3.9213,9.5501-4.6208,19.7897-5.4199,29.9639-.9352,11.9004-2.8562,21.8925-9.1613,32.1472a1.39633,1.39633,0,0,0,1.2062,2.0685c-.0829.1362-.183.2603-.257.4046a.56723.56723,0,0,0,.4274.8269l-.0007.0115c3.6381.2734,7.1573-3.3229,9.65191-5.672a33.74232,33.74232,0,0,0,6.75529-8.3761,65.91642,65.91642,0,0,1-3.3349,16.649,1.65913,1.65913,0,0,0,2.2921,1.9767C126.223,196.16051,109.62895,167.59021,111.77215,148.06021Zm-87.0056,19.1077a85.33616,85.33616,0,0,1,.8148-10.6246c1.7463,2.2402,3.5217,4.4632,5.342,6.6451Q27.8443,165.17816,24.76655,167.16791Zm11.0891,56.4257c1.5203,1.1803,3.0519,2.3378,4.6165,3.447a70.07968,70.07968,0,0,1-4.8919,6.5837A40.80826,40.80826,0,0,1,35.85565,223.59361Zm11.31981,2.5492c-.02281-.0342-.05011-.0608-.07471-.0924a63.40865,63.40865,0,0,1,5.6991-5.6277c.5939,4.0903,1.05161,8.1882,1.3309,12.3114A20.1205,20.1205,0,0,1,47.17546,226.14281Zm-.69141-31.4677a39.61128,39.61128,0,0,0-7.9817-2.2015c-.0715-.3267-.147-.6541-.2173-.9783a22.84,22.84,0,0,1,4.4627-5.0957A56.95019,56.95019,0,0,1,46.48405,194.67511Zm-17.4564,5.4699a55.32091,55.32091,0,0,1-2.7037-6.9648c2.0459.6711,4.09351,1.267,6.1696,1.7728C31.31405,196.66571,30.16985,198.40441,29.02765,200.145Zm14.8155-42.3144a38.5624,38.5624,0,0,1-.3445,10.8785,41.75506,41.75506,0,0,0-6.8211-5.0097C39.10825,161.79231,41.48905,159.82821,43.84315,157.83061Zm9.7102-26.8519a94.94026,94.94026,0,0,0-3.7547,9.1834q-2.29185-3.7989-4.41319-7.7018C48.11505,132.01961,50.83455,131.49861,53.55335,130.97871Zm24.0843-24.0862c-1.1865,1.443-2.3984,2.8656-3.6787,4.2295-.6674.7103-3.9991,4.8025-4.8387,4.7316-.5812-.0494-2.0051-5.8878-3.0081-10.1173A37.63269,37.63269,0,0,0,77.63765,106.89251Zm34.46-85.397q11.13285-2.5635,22.2127-5.3452,17.8554-4.48095,35.5472-9.5766c-5.9062,5.5041-11.64709,11.2108-17.4196,16.8403-7.0927,6.918-14.7287,13.5497-21.4473,20.847.8377-6.6768-2.2965-13.5624-10.5693-12.4848-3.5952.4667-6.6578,3.0538-9.0215,6.086a1.29369,1.29369,0,0,0-.6641-.7516,111.551,111.551,0,0,1-17.5899-11.7161C99.33246,25.38891,106.34035,22.82011,112.09765,21.49551Zm-3.2956,29.6081a27.04273,27.04273,0,0,1,4.3771-9.7692c3.2576-4.5442,10.1496-9.3955,14.0867-2.6326,2.6554,4.5606-.3046,9.1854-2.96639,12.8386a1.46015,1.46015,0,0,0,1.17829,2.2523,1.04764,1.04764,0,0,0,1.3626-.0406c4.5498-3.6609,12.2207-2.4921,13.4364,4.0314,1.0916,5.8605-4.2106,9.9964-9.34429,10.9905-6.79381,1.3144-16.55411-.7085-21.67511-5.2837a1.50593,1.50593,0,0,0-.4876-.2882.94393.94393,0,0,0-.2488-.8085c.0158-.0026.031-.0057.045-.0089C106.92215,60.92081,108.33795,53.16391,108.802,51.10361ZM87.35546,77.98771a129.96587,129.96587,0,0,0-9.26821,9.4755c-.06079.0676-.12279.1335-.1862.2012q3.52935-14.6907,7.0168-29.3896c2.3775-10.0902,5.7681-20.581,6.6354-31.006a73.38471,73.38471,0,0,0,17.5666,12.3479,1.54172,1.54172,0,0,0,.9093.1634,34.65632,34.65632,0,0,0-2.056,3.5831,29.21919,29.21919,0,0,0-2.4529,19.5097,1.5466,1.5466,0,0,0,.9328,1.0782A98.66514,98.66514,0,0,0,87.35546,77.98771Zm-69.11441,66.6769q.3543-5.65305.70341-11.3103a1.53844,1.53844,0,0,0-1.82161-1.5779,125.49064,125.49064,0,0,1-12.5462,1.7679c10.1814-4.9495,18.8203-14.2412,24.0629-24.0553,6.1397-11.495,6.866-24.4769,9.8216-36.9293a60.3258,60.3258,0,0,1,19.8992-32.6606,62.7792,62.7792,0,0,1,15.8437-9.7393,66.23724,66.23724,0,0,1,8.3932-2.8879c-19.1482,10.0103-36.74579,24.1976-40.2465,46.7257-1.9869,12.7944-1.4461,25.5989-5.3477,38.1051A86.933,86.933,0,0,1,18.24105,144.66461Zm22.4255-14.6889c-1.95909.813-3.9086,1.6545-5.8574,2.4941a19.05357,19.05357,0,0,1,2.758-8.8422,46.35791,46.35791,0,0,1,3.9066,6.2494A1.4623,1.4623,0,0,0,40.66655,129.97571Zm2.1223-2.4187a29.2298,29.2298,0,0,0-4.22639-7.334,1.23442,1.23442,0,0,0-1.19851-.4533,109.3386,109.3386,0,0,0,7.0021-32.3946c.9802-13.893,2.9728-26.7664,12.676-37.489,8.69341-9.6064,20.0422-15.455,31.1372-21.7094-3.5704,9.5335-5.2014,20.1182-7.5346,29.9057-2.7138,11.3899-5.3661,22.7964-8.03619,34.1978a84.37356,84.37356,0,0,0-8.475,6.7142A46.958,46.958,0,0,0,61.687,86.00171a1.46389,1.46389,0,0,0-2.3699-.7869,77.60544,77.60544,0,0,0-13.9582,14.2253,1.50449,1.50449,0,0,0,1.1689,2.2952c4.3048.4388,8.5293,1.2018,12.7665,1.9773A95.99487,95.99487,0,0,0,42.78885,127.557Zm19.0261-26.3897a89.50793,89.50793,0,0,0-12.3841-2.1223,74.32633,74.32633,0,0,1,10.1199-10.3042,59.40355,59.40355,0,0,1,2.4579,12.2378C61.94405,101.04071,61.88005,101.10471,61.815,101.16731Zm17.43351-10.2578a1.31247,1.31247,0,0,0-.88711-.8188q.8823-.17175,1.7665-.3438.73891-.82155,1.4772-1.6443c1.3543-1.1707,2.54341-2.7169,3.8123-3.9996q3.4971-3.5361,7.2365-6.8205c4.6664-4.0826,9.6101-7.8918,14.52861-11.675,3.40569,5.2098,11.27469,6.1981,17.03779,6.7204a23.72664,23.72664,0,0,0,10.7879-1.3373c1.4854,3.1647,3.14431,6.2728,4.826,9.3279,1.5151,2.746,2.9296,5.7662,4.9596,8.1798Q112.0786,90.96866,79.24846,90.90951ZM137.24385,69.894a13.5672,13.5672,0,0,0,4.70061-4.5739c5.63319-9.1233-3.90661-19.1906-12.35111-16.1199.1798-.3892.3425-.792.4913-1.1992a1.37754,1.37754,0,0,0,1.6222-.1975c8.11461-6.6577,15.4124-14.607,22.8984-21.9645,6.8838-6.766,13.81821-13.5706,20.32021-20.7177.38169-.1116.76229-.2172,1.14339-.3286q-14.06655,41.5218-28.1778,83.0287C145.99735,81.66521,141.22775,75.23221,137.24385,69.894Zm-30.768,119.1732a.6297.6297,0,0,0-.4243-.4673c.1298-1.2074-1.6202-1.7374-2.4009-.7459-2.65619,3.3767-4.78619,6.9306-7.9906,9.8743a37.91415,37.91415,0,0,1-3.9471,2.8897c10.8157-14.2424,6.5602-36.6989,10.95751-52.994,5.432-20.1239,21.01159-33.0526,36.42289-45.6829-10.0382,12.8229-24.1066,22.9889-29.1257,38.8922-3.0588,9.6931-1.1555,19.5787.72,29.2953,2.1021,10.884,3.9301,25.2138-4.4435,33.6407A31.88456,31.88456,0,0,0,106.47585,189.06721Z" fill="#1d1d1b"/>
      </g>
    </g>
  </g>
</svg>
