<svg xmlns="http://www.w3.org/2000/svg" viewBox="0 0 279.87798 222.8897">
  <title>Recurso 8</title>
  <g id="Capa_2" data-name="Capa 2">
    <g id="Editar">
      <g>
        <path d="M195.81738,159.709c-2.583-3.6025-6.73729-4.2002-10.8691-4.1132a23.88647,23.88647,0,0,0-5.7266.706c-.7343.1982-1.5039.4971-2.288.7783a20.18914,20.18914,0,0,0-1.5088-8.8232c-1.3829-3.5723-3.5059-8.6719-7.7891-9.3799-4.3652-.7217-9.4541,1.8867-12.8779,4.3359a52.36673,52.36673,0,0,0-5.7246,4.6778,11.66842,11.66842,0,0,0-1.542,1.7314,7.91228,7.91228,0,0,0-1.1319-1.8291c-1.5566-1.8506-3.8134-4.6494-6.1064-5.625-4.7715-2.0273-10.376-1.1992-14.7647,1.4141a13.66482,13.66482,0,0,0-6.9404,12.4599c.0127.2852.0303.5811.0527.8819a7.51681,7.51681,0,0,0-7.4824-.4024c-2.6504,1.2559-4.7656,3.5664-7.3164,5.0576-2.6308,1.5381-5.6348,3.545-5.7158,6.9131-.1445,6.125,5.2236,9.3887,10.4248,10.9024a18.9223,18.9223,0,0,0,5.3437.7012,11.11166,11.11166,0,0,0-.708,4.2841c.1231,3.3604,2.4834,6.3037,4.6895,8.5987,1.49711,1.5586,2.0732,3.9843,3.8613,5.6132,4.044,3.6875,10.6514-.1699,14.5401-2.3183a19.62381,19.62381,0,0,0,4.1191-2.9942,16.27782,16.27782,0,0,0,3.0977,3.3575c3.8486,3.1465,8.79491,1.8828,13.0058.3838,3.8858-1.3809,7.8623-2.8243,10.5039-6.1719a11.84563,11.84563,0,0,0,1.6367-2.9072,25.50462,25.50462,0,0,0,4.0157,3.1113,15.36074,15.36074,0,0,0,15.0254.0371c4.7363-2.5313,6.873-7.0117,5.0253-12.2051a8.60639,8.60639,0,0,0-3.8964-4.373,13.70443,13.70443,0,0,0,4.6523-3.6162C195.84088,167.9415,198.45028,163.3799,195.81738,159.709Z" fill="#fff"/>
        <path d="M194.90338,173.3536c6.7441-2.3243,10.05271-11.8643,6.5674-17.9092-1.9063-3.3057-6.0918-5.4219-9.67-6.21-3.5088-.7734-7.2021-.0761-10.7744.0742a1.73937,1.73937,0,0,0,.0352-.208,9.20917,9.20917,0,0,0,.3408-2.2002,14.74329,14.74329,0,0,0-.8184-2.9365,14.15715,14.15715,0,0,0-2.5761-4.0918c-2.2871-2.5654-5.0713-3.1689-8.2256-4.0566-3.336-.9365-6.8555-.9756-9.9268.7949a21.72083,21.72083,0,0,0-5.9853,5.4521c-3.4942-2.7734-7.7725-4.2792-12.1006-5.6074a26.98229,26.98229,0,0,0-8.56349-1.0517c-2.50191.0507-5.86621.458-7.99611,1.8925a24.15153,24.15153,0,0,0-6.2558,6.2608c-1.5889,2.2656-2.4483,4.8457-3.836,7.1836a6.64318,6.64318,0,0,0-.874,3.9599c-7.9463-.6669-15.8408,4.127-19.4316,11.3252-2.1827,4.377-1.0498,10.1621,2.97551,13.0293,2.43849,1.7344,5.34769,1.7637,8.22469,1.7871a29.4844,29.4844,0,0,0,4.94431-.3945c-.34081.8438-.67681,1.6895-.96191,2.5518a21.9799,21.9799,0,0,0-1.0186,7.3486,12.97353,12.97353,0,0,0,6.9004,10.9297c6.9268,3.6855,15.1436-.334,20.874-4.8682,2.5967,5.6045,10.6026,6.5684,16.4864,5.8086,6.0136-.7763,13.5195-4.9345,16.6523-10.7822a17.22451,17.22451,0,0,0,20.3447,3.9648c4.2764-2.0839,7.7696-5.455,7.7539-10.5273a13.06789,13.06789,0,0,0-1.8906-6.6191,12.16877,12.16877,0,0,0-1.7588-2.0508c-.8076-.8516-1.8047-1.2266-2.6084-1.9883-.834-.793-2.1123.2627-1.7402,1.2559a16.07565,16.07565,0,0,0,1.46,3.4482,9.21876,9.21876,0,0,1,1.5947,4.6387c.2119,3.7256-2.9473,5.9951-5.9238,7.3672-6.4854,2.9912-12.9083-.7178-16.1924-6.4434-1.0401-1.8154-4.25-1.0205-4.4219,1.0225-.46879,5.623-7.709,10.4394-12.8447,11.3984-4.1123.7656-12.3662,1.2187-12.6416-4.6211-.1348-2.8115-3.8282-2.8594-4.8496-.791-5.17289,1.7754-10.6622,6.3789-16.3604,5.1699-3.4736-.7373-5.1289-4.4277-5.22949-7.5791-.125-3.9072,1.91989-7.5928,3.10839-11.2158a2.77135,2.77135,0,0,0-3.4658-3.6953c-3.6143.8662-8.8203,1.9179-12.4463.6738-3.2314-1.1074-2.9082-5.2715-1.7617-7.752,2.4931-5.3877,9.626-11.4824,15.7978-9.2246a3.36874,3.36874,0,0,0,1.4317.6377,1.29824,1.29824,0,0,0,.4492.0557,5.07813,5.07813,0,0,0,1.5059-.1231,2.32953,2.32953,0,0,0-.0879-4.6289,6.00489,6.00489,0,0,1,.4619-1.0195c.8037-1.5215,1.5322-3.123,2.4013-4.6318,1.9786-3.4307,4.85751-6.5264,8.8633-7.2119a21.5701,21.5701,0,0,1,11.2969,1.4121c3.52731,1.3183,7.2461,2.4502,9.7891,5.3965a2.818,2.818,0,0,0,4.3945.1308c1.5059-1.8799,2.7949-3.9463,4.71871-5.4375,2.27639-1.7656,4.30079-1.9658,7.03319-1.3564,2.13481.4756,4.3594.8271,5.88681,2.54a10.61728,10.61728,0,0,1,1.73729,3.0205c.4072.957,1.0908,1.9307,1.4209,2.836a1.857,1.857,0,0,0,.8965,1.0087,2.4718,2.4718,0,0,0,2.2382,3.2598c2.627.0645,5.2422-.2129,7.8682-.2129a12.312,12.312,0,0,1,8.5,3.5801c4.7012,4.2734-2.1436,10.2129-3.749,14.0596A1.62071,1.62071,0,0,0,194.90338,173.3536Z" fill="#0087cb"/>
      </g>
      <g>
        <g>
          <path d="M19.60018,179.3536c-2.3614-.1719-5.8379-1.1875-8.0665-.4678-5.7314,1.8535-7.5498,8.8779-8.0341,13.9062-.43749,4.5528.1836,7.9717,5.081,9.9873,3.2979,1.3545,8.2774.4415,11.2559-1.2089-2.1826,4.5586-4.2959,10.0732.30961,13.6093,5.92769,4.5537,11.87589-.9433,13.64059-6.6816-1.18459,3.6728,2.0576,5.9092,5.3359,6.0215,4.084.1347,3.1348-2.3653,5.0664-5.1699-1.7011,7.6084,10.0703,11.0556,15.5586,9.9423,4.8916-.9873,5.8457-5.0683,7.64651-9.2539.92579-2.1552,3.27929-6.3476-.28221-7.6279,5.1689,4.7441,15.5771-3.9951,15.5996-10.0859.0195-5.2979-8.1162-10.0811-11.5352-4.9922,2.46881-3.6465,4.0537-5.0117,4.376-9.7578.2832-4.169-.6103-7.1114-4.2285-9.6582-9.2598-6.5186-17.7608,5.1474-18.207,13.5683.956-4.458-.3262-10.581-4.8389-12.6299-2.6699-1.2119-7.5176-.955-9.5615,1.3448-1.94729,2.1953-1.4522,5.8935-1.5948,8.6552-2.2578-4.1211-2.9482-10.1367-8.4853-11.5302-5.0186-1.2608-14.8779,10.1855-10.3613,14.2558" fill="#fff"/>
          <path d="M57.42438,221.0098c-4.2168,0-9.5205-1.6006-12.5108-4.6523a8.89312,8.89312,0,0,1-1.5019-2.0137c-.7344.9941-1.9522,1.7637-4.3379,1.6807a7.85188,7.85188,0,0,1-5.9365-2.7666,11.94828,11.94828,0,0,1-5.959,4.7197,8.3901,8.3901,0,0,1-7.95019-1.6045c-4.42581-3.3975-3.62211-8.3232-2.22661-12.0811a14.71267,14.71267,0,0,1-8.9941-.1211c-6.0166-2.4746-6.4424-7.0009-6.0078-11.5244.456-4.7256,2.2392-12.9843,9.0693-15.1924a11.11508,11.11508,0,0,1,4.709-.1533,11.727,11.727,0,0,1,1.1758-3.1328c2.5205-4.7265,8.0967-9.3008,12.0488-8.3047,3.832.9639,5.6719,3.7344,6.9951,6.6446a7.23373,7.23373,0,0,1,1.5928-3.3086c2.4795-2.793,8.0176-3.211,11.3096-1.7159a9.9215,9.9215,0,0,1,5.0869,5.7725,17.30072,17.30072,0,0,1,7.3369-7.6748,10.20317,10.20317,0,0,1,10.8672,1.1035c3.7529,2.6426,5.207,5.9307,4.8633,10.9932a13.7072,13.7072,0,0,1-1.6016,5.9844,8.0299,8.0299,0,0,1,2.0342.3544c3.2744,1.004,6.7451,4.2588,6.7304,8.3135-.0175,4.7295-4.8789,10.0274-9.4101,12.0078a10.13261,10.13261,0,0,1-4.28709.9405,13.28575,13.28575,0,0,1-1.44341,4.6836c-.1084.2402-.2099.4648-.2969.6709-.2392.5527-.4619,1.1015-.6796,1.6435-1.4873,3.6758-3.0254,7.4766-8.0538,8.4922A13.30789,13.30789,0,0,1,57.42438,221.0098ZM44.189,207.8458a1.50436,1.50436,0,0,1,1.4707,1.8349A4.692,4.692,0,0,0,47.063,214.25c2.8438,2.9014,8.8868,4.2735,12.3858,3.5655,3.2812-.6621,4.3154-2.8535,5.8594-6.6699.2265-.5606.45891-1.1309.7041-1.7032.0947-.2197.2041-.4638.3203-.7207.5547-1.2256,1.47951-3.2685,1.0888-4.249a6.66208,6.66208,0,0,1-1.3271-.9541,1.50523,1.50523,0,0,1,1.5273-2.5254,4.64644,4.64644,0,0,1,1.7139,1.041,5.95,5.95,0,0,0,4.2647-.4551c3.9687-1.7353,7.5947-6.1503,7.6044-9.2607.0098-2.209-2.0566-4.6406-4.5996-5.4228a3.446,3.446,0,0,0-4.1582,1.2451c-.0078.0127-.0166.0234-.0234.0351a1.50645,1.50645,0,0,1-2.498-1.6845l.0029-.003h0l.0029-.0019a.335.335,0,0,1,.0264-.0391c.4092-.6045.7959-1.1465,1.1553-1.6523,1.74021-2.4473,2.69821-3.795,2.9375-7.3213.2734-4.0332-.7002-6.2901-3.5938-8.3272a7.28645,7.28645,0,0,0-7.8174-.8564c-3.9785,1.9326-6.8525,6.9131-7.7422,11.2119a14.96222,14.96222,0,0,1-.3095,2.2969,1.50481,1.50481,0,0,1-2.9746-.3926,16.71217,16.71217,0,0,1,.288-2.2813c.1573-3.6328-1.2129-7.5224-4.2461-8.8984-2.1806-.9922-6.2978-.7314-7.8115.9736-1.166,1.3116-1.1748,3.6163-1.1806,5.8428-.003.6563-.0069,1.294-.0372,1.8877a1.50507,1.50507,0,0,1-2.8232.6465,33.883,33.883,0,0,1-1.6221-3.6152c-1.3076-3.2549-2.5459-6.3301-5.91109-7.1768-2.15041-.542-6.60641,2.9522-8.65821,6.7998a9.52468,9.52468,0,0,0-.8486,2.1621c.3369.0479.6552.083.9472.1045a1.5054,1.5054,0,0,1-.10839,3.0068h-.00191a1.50655,1.50655,0,0,1-2.33109,1.8409,4.841,4.841,0,0,1-1.45411-2.3535,9.6127,9.6127,0,0,0-3.8193-.0274c-5.1924,1.6807-6.6123,8.626-6.9951,12.6172-.4063,4.2041.1367,6.7959,4.1543,8.4502,2.8037,1.1523,7.3506.3096,9.955-1.1318a1.50591,1.50591,0,0,1,2.087,1.9687c-2.4942,5.2061-3.4717,9.1982-.13379,11.7617a5.47994,5.47994,0,0,0,5.20109,1.1231c2.5684-.8184,4.9883-3.6016,6.0498-6.9453.0127-.043.0264-.086.04011-.127a1.50572,1.50572,0,0,1,2.873.9023c-.01171.0391-.02241.0752-.03511.1124a2.5139,2.5139,0,0,0,.2773,2.2949,4.799,4.799,0,0,0,3.7061,1.6699c1.7324.0566,1.8105-.1807,2.3926-1.7148a12.30266,12.30266,0,0,1,1.3828-2.8038A1.50433,1.50433,0,0,1,44.189,207.8458Z" fill="#005eaa"/>
        </g>
        <g opacity="0.57">
          <path d="M57.42628,222.8897c-4.6367,0-10.4326-1.7197-13.8564-5.2148-.1856-.1875-.3594-.376-.5244-.5713a7.78937,7.78937,0,0,1-4.0362.8017,10.26567,10.26567,0,0,1-5.6865-1.873,13.03816,13.03816,0,0,1-5.5732,3.7383,10.37372,10.37372,0,0,1-9.668-1.9053c-4.1699-3.2012-4.5234-7.4434-3.7441-11.1553a14.65948,14.65948,0,0,1-7.045-.7978c-7.2129-2.9678-7.6181-8.7442-7.165-13.4454.8613-8.9541,4.542-14.9218,10.3633-16.8056a10.66116,10.66116,0,0,1,3.916-.3887,14.55444,14.55444,0,0,1,.8867-1.9892c2.4277-4.5557,8.60261-10.6465,14.1699-9.2452a10.93315,10.93315,0,0,1,6.34871,4.3633c.11619-.1543.24019-.3037.372-.4521,3.09669-3.4883,9.59669-3.9493,13.49519-2.1797a10.94282,10.94282,0,0,1,4.416,3.7012,17.49456,17.49456,0,0,1,6.4052-5.5821,12.1767,12.1767,0,0,1,12.7754,1.2559c5.5118,3.8838,5.918,8.8056,5.6563,12.6601a17.59419,17.59419,0,0,1-.8184,4.4356c4.5742,1.4394,8.001,5.7656,7.9854,10.0957-.0196,5.6416-5.4854,11.5176-10.53709,13.7265a12.96393,12.96393,0,0,1-3.40341.9874,19.94867,19.94867,0,0,1-1.3671,3.6904c-.1026.2256-.2002.4394-.2832.6338-.2325.542-.4502,1.0791-.6631,1.6084-1.5176,3.749-3.4043,8.415-9.4258,9.6308A15.20012,15.20012,0,0,1,57.42628,222.8897ZM44.191,205.9629a3.38715,3.38715,0,0,1,3.3047,4.128,2.80091,2.80091,0,0,0,.9121,2.8408c2.3574,2.4043,7.7607,3.6299,10.6679,3.0391,2.2481-.4522,2.9776-1.7999,4.4873-5.5313.2315-.5732.4678-1.1562.7198-1.7402.0976-.2295.2129-.4844.3359-.7539a16.948,16.948,0,0,0,.9443-2.4297,8.57023,8.57023,0,0,1-.7402-.6094,3.38824,3.38824,0,0,1,3.4365-5.6855,6.739,6.739,0,0,1,2.003,1.1132,4.71661,4.71661,0,0,0,2.5849-.4785c3.4776-1.5224,6.4678-5.4209,6.4766-7.5439.0039-1.3653-1.55469-3.0879-3.2734-3.6162-1.32229-.4043-1.7911.1337-2.0176.4609-.0176.0244-.0342.0498-.0518.0762a3.38773,3.38773,0,0,1-5.6162-3.7901.46665.46665,0,0,1,.0391-.0586c.415-.6132.8076-1.166,1.1757-1.6806,1.68951-2.377,2.3887-3.3604,2.5928-6.3574.2295-3.3887-.4502-5.0059-2.7988-6.6602a5.39538,5.39538,0,0,0-5.9121-.7022c-3.3213,1.6124-5.8828,5.9786-6.7002,9.7803a16.50959,16.50959,0,0,1-.332,2.4317,3.38813,3.38813,0,0,1-6.6963-.8907,18.53306,18.53306,0,0,1,.2929-2.3984c.0909-2.8857-.9267-5.957-3.1484-6.9648-1.6191-.7374-4.77539-.4512-5.626.5087-.6953.7803-.7011,2.8985-.708,4.5997-.0019.6875-.0058,1.3544-.0381,1.9775a3.38841,3.38841,0,0,1-6.3545,1.4551,35.03318,35.03318,0,0,1-1.71679-3.8194c-1.35541-3.372-2.30561-5.4687-4.624-6.0537-.79391-.0664-3.46481,1.418-5.63771,4.4278a13.17267,13.17267,0,0,0-.876,1.3837,3.38671,3.38671,0,0,1,.3291,5.6475,3.38334,3.38334,0,0,1-5.6162,2.0293,6.70713,6.70713,0,0,1-1.54-2.0195,5.52207,5.52207,0,0,0-1.8955.0332c-4.3233,1.3974-5.42869,8.1621-5.7022,11.0039-.415,4.3252.4229,5.4707,2.9991,6.5293,2.1816.8974,6.1386.1738,8.3261-1.0371a3.38891,3.38891,0,0,1,4.69731,4.4277c-2.92381,6.1025-2.46581,8.0898-.68551,9.4561a3.5431,3.5431,0,0,0,3.4824.8242c1.9492-.6221,3.9668-3.0166,4.82711-5.7188.01369-.0468.02829-.0927.043-.1396a3.38886,3.38886,0,0,1,6.46479,2.0351c-.0127.0371-.0234.0733-.0351.1084-.1319.4493-.0322.5928.0176.6612a3.07143,3.07143,0,0,0,2.2304.8711c.1514.0058.2754.0039.375,0,.0635-.1582.1328-.3438.1914-.5a14.2262,14.2262,0,0,1,1.5938-3.2041A3.38827,3.38827,0,0,1,44.191,205.9629Z" fill="#0087cb"/>
        </g>
      </g>
      <g>
        <polygon points="278.603 7.733 279.878 0 266.091 5.379 251.565 7.085 238.475 15.716 224.586 20.385 209.869 21.155 196.128 26.475 180.639 23.815 167.659 33.509 165.697 31.09 166.603 30.259 165.514 26.728 167.985 29.402 173.571 41.981 185.693 44.961 199.252 49.72 190.154 63.131 189.977 76.189 194.963 77.023 207.543 69.21 207.259 76.813 212.319 86.509 218.962 88.211 225.28 76.497 229.676 63.32 238.216 52.809 246.165 41.724 253.649 30.723 266.862 26.24 274.701 16.9 279.256 5.89 278.603 7.733" fill="#bccf00"/>
        <path d="M276.83109,6.6885a.62.62,0,0,0-.70751-.7969q-57.12823,11.32185-113.96,24.0694l-.3423-.2324c-.603-.4131-1.227.372-.8813.8779a.60961.60961,0,0,0,.7124.7705c.0825-.0176.1655-.0371.2466-.0527q14.46166,9.90225,28.9204,19.8076a97.08639,97.08639,0,0,0-2.2065,25.0342.64339.64339,0,0,0,1.05221.5273q6.35008-5.61615,12.80709-11.1103,3.29595,10.2699,6.5884,20.5253c.1421.4522.8638.7852,1.1504.2364a190.75633,190.75633,0,0,1,31.3218-44.2442,196.02587,196.02587,0,0,1,19.0556-17.4453c6.2588-5.042,12.5005-9.9619,16.5699-17.0303a.65921.65921,0,0,0-.32719-.9365M184.05378,44.959q-3.8496-2.6337-7.6963-5.2734-6.38085-4.36965-12.7578-8.7393,54.63795-12.24015,109.5571-23.1591a254.15284,254.15284,0,0,1-57.4844,30.83c-4.4624,1.71-8.9497,3.3887-13.2431,5.5059-2.7251,1.3437-8.543,6.4414-11.53319,5.5225-2.26421-.6963-4.87461-3.3379-6.84231-4.6866m7.895,6.9346a.64892.64892,0,0,0,.7202-.0723c12.1094-9.789,28.39111-13.4179,42.2964-19.9843A246.74639,246.74639,0,0,0,267.316,13.3672a948.49628,948.49628,0,0,0-77.4727,61.4864,95.83927,95.83927,0,0,1,2.1055-22.96m65.09031-25.9932A188.30166,188.30166,0,0,0,238.253,43.7598a191.778,191.778,0,0,0-28.42189,40.6211q-3.15827-9.829-6.30811-19.6562c-.0034-.0079-.0088-.0127-.0122-.0196q33.892-28.85445,70.3838-54.4414c-4.5913,6.2012-10.895,10.709-16.85549,15.6367"/>
        <path d="M179.99858,61.0762c.6294,12.2949-4.8906,23.5391-13.4922,32.1065-8.5439,8.5127-21.9272,16.8545-34.5059,14.8867a18.75216,18.75216,0,0,1-7.0795-2.8311c.7133-.498,1.415-1.0127,2.09711-1.5508,9.58349-7.539,16.08249-26.5253,2.18749-33.7441-5.3662-2.7851-11.518-.4951-14.8789,4.2871-4.1045,5.8447-3.1445,14.1074-.4609,20.3028a26.51966,26.51966,0,0,0,8.5947,10.8964c-18.7378,12.1739-46.6343,10.4512-62.5649-5.1601q-.5406.49365-1.064,1.001c16.209,15.791,45.2588,17.4521,64.71,4.8925a21.15346,21.15346,0,0,0,6.7343,2.8584c9.0498,2.0625,18.5577-1.6728,26.18021-6.3457,14.37989-8.8164,25.70309-24.0508,24.811-41.497-.04151-.8096-1.30661-.9151-1.26851-.1026m-62.8232,11.8194c7.6425-6.9825,17.0175.1709,18.48871,8.8193,1.31109,7.6992-2.56881,15.0351-8.24461,19.9932a42.93425,42.93425,0,0,1-3.5747,2.7959c-9.9102-7.1104-16.4165-22.7012-6.6694-31.6084"/>
        <path d="M185.62988,42.626q-4.4508-3.0996-8.9047-6.1972a.63508.63508,0,0,0-.7124,1.0507q4.4553,3.0996,8.9057,6.1993a.63565.63565,0,0,0,.7114-1.0528"/>
        <path d="M191.25488,43l-8.6259-5.9531a.63543.63543,0,0,0-.7105,1.0528q4.311,2.97645,8.625,5.9511A.63481.63481,0,0,0,191.25488,43"/>
        <path d="M219.67678,45.2618a22.80655,22.80655,0,0,0-7.602,5.1211c-.5713.5781.2607,1.539.8359.9531a21.94817,21.94817,0,0,1,7.3311-4.9346c.7548-.3125.1889-1.4531-.565-1.1396"/>
        <path d="M221.61818,41.2334a30.20907,30.20907,0,0,0-8.3803,4.9073c-.629.5234.207,1.4736.8398.9531a28.99663,28.99663,0,0,1,8.1055-4.7217c.7607-.2939.1958-1.4316-.565-1.1387"/>
        <path d="M256.02009,11.8721q-5.13722,1.30965-10.27441,2.6182c-.78959.2031-.5533,1.4531.2407,1.2471q5.13795-1.3125,10.2744-2.6202c.7881-.1992.5537-1.4463-.24069-1.2451"/>
        <path d="M258.41018,13.0694a28.103,28.103,0,0,0-8.7983,2.8017.63567.63567,0,0,0,.5659,1.1377,27.01112,27.01112,0,0,1,8.4731-2.6943c.812-.1162.5684-1.3652-.2407-1.2451"/>
      </g>
    </g>
  </g>
</svg>
