<svg xmlns="http://www.w3.org/2000/svg" viewBox="0 0 56 56">
  <title>Recurso 1</title>
  <g id="Capa_2" data-name="Capa 2">
    <g id="Editar">
      <g>
        <circle cx="28" cy="28" r="28" fill="#3234a8"/>
        <g>
          <path d="M10.27085,27.35107q3.13872.00374,6.27745.00742c1.07434.001,2.14868-.00221,3.223.00221.43312.00178.66441.15319.76546.47655a.65741.65741,0,0,1-.46015.85411,1.77733,1.77733,0,0,1-.4431.04522q-3.81151.00385-7.623.00185H11.661V40.4497H43.97146V28.73829H43.635q-3.68538.00011-7.37076-.00021c-.46457-.00014-.74485-.1743-.8335-.51064a.64766.64766,0,0,1,.493-.83229,2.04118,2.04118,0,0,1,.44467-.03509q4.316-.00289,8.632-.00178c.12131,0,.24263-.00471.36394-.0072V41.81452c-.11183.00335-.22365.00963-.33548.00963q-17.2113.00075-34.42256.00007c-.11183,0-.22365-.00635-.33548-.0097Z" fill="#fff"/>
          <path d="M26.81822,34.99962v-.4645q-.00021-10.704.001-21.40794a3.08775,3.08775,0,0,1,.03138-.47341.75708.75708,0,0,1,.79827-.66783.78269.78269,0,0,1,.78835.71882c.014.14841.01455.2984.01455.44767q.00043,10.746-.0005,21.492v.32749l.06247.03509c.26831-.262.53938-.5212.8044-.78643q1.12744-1.12851,2.25152-2.26037a.87116.87116,0,0,1,1.049-.19812.75233.75233,0,0,1,.3971.8713,1.16223,1.16223,0,0,1-.29176.495q-2.21722,2.23765-4.45284,4.45719a.87761.87761,0,0,1-1.30113.00407c-.95724-.9414-1.90021-1.89743-2.84817-2.84824-.553-.55464-1.11591-1.09994-1.65309-1.66956a.80262.80262,0,0,1,.18022-1.32232.85372.85372,0,0,1,1.01957.2156q1.44,1.4319,2.87478,2.86907c.0649.06476.13337.12588.20018.18871Z" fill="#fff"/>
        </g>
      </g>
    </g>
  </g>
</svg>
