<svg xmlns="http://www.w3.org/2000/svg" viewBox="0 0 79.0158 90.76233">
  <title>Recurso 15</title>
  <g id="Capa_2" data-name="Capa 2">
    <g id="Editar">
      <g>
        <g>
          <g>
            <path d="M43.092,33.063v4.4317c-.3008.3203-.5918.6211-.8741.9316a3.87458,3.87458,0,0,1-3.5634,1.4414,2.91905,2.91905,0,0,0-.8457.002,3.97451,3.97451,0,0,1-3.5782-1.4102c-.5058-.5098-1.0371-.9551-.9511-1.7773a1.39442,1.39442,0,0,0-.1543-.6075,1.80775,1.80775,0,0,0-3.4707.1817,2.50507,2.50507,0,0,0-.0918.8359,5.75229,5.75229,0,0,1-.5606,2.8731,3.03979,3.03979,0,0,0-.2539,1.2304,6.07523,6.07523,0,0,1-1.1738,3.127,2.90641,2.90641,0,0,1-2.4297,1.459c-.9824.0547-1.9707.0117-2.918.0117a5.28051,5.28051,0,0,1-1.6191-4.0742c-.0908-2.1133-.0195-4.2344-.0391-6.3516a4.15653,4.15653,0,0,1,.5479-2.0117c.5596-1.0606,1.0527-2.1563,1.581-3.2344a1.77936,1.77936,0,0,0-.3525-2.3125,2.34656,2.34656,0,0,0-2.5576-.4922,6.17209,6.17209,0,0,0-1.2207.8282c-1.0733.7988-2.127,1.625-3.2178,2.4003a2.58616,2.58616,0,0,1-1.1396.4883c-1.4004.1543-2.8067.2774-4.2129.3203-.8418.0274-1.2451-.3398-1.2666-1.0996-.0362-1.2656-.0166-2.5371.0459-3.8047a3.391,3.391,0,0,1,1.1006-2.2285c.8466-.8515,1.6279-1.7793,2.5458-2.5449a9.00506,9.00506,0,0,1,4.0489-2.1445c1.6582-.3184,3.3037-.7051,4.9541-1.0645.206-.0449.4111-.1015.6142-.164.8711-.2598,1.1934-.6133,1.1582-1.2637a1.31825,1.31825,0,0,0-1.2441-1.2383,21.15623,21.15623,0,0,0-3.1348-.3594c-2.3701-.0761-2.9394-.0742-4.0293-2.8808a20.33957,20.33957,0,0,1-.9472-3.6856c-.5889-3.1836,1.5605-5.5117,4.8359-5.2871a8.87784,8.87784,0,0,1,3.8193,1.1426,4.05258,4.05258,0,0,1,1.4678,1.4629,41.66709,41.66709,0,0,1,2.0918,4.3808,7.26108,7.26108,0,0,1,.1797,1.8789,1.84655,1.84655,0,0,0,3.0762,1.3946,4.35817,4.35817,0,0,0,1.0927-1.2637,10.13516,10.13516,0,0,1,3.6045-3.1973,5.9009,5.9009,0,0,1,2.8545-.6953c1.6201-.082,3.2471-.0234,4.8711-.041a1.83129,1.83129,0,0,1,1.5791.8672,18.2662,18.2662,0,0,1,3.0342,6.4746,11.39212,11.39212,0,0,1-.0117,3.9863c-.1201,1.0723-1.044,1.6387-1.9483,2.0782-.8867.4297-1.8125.7773-2.7177,1.1718a5.2493,5.2493,0,0,0-1.1338.5567,3.22833,3.22833,0,0,1-2.3184.8359,1.94585,1.94585,0,0,0-.8144.1895.78846.78846,0,0,0-.4112,1.0508,3.47549,3.47549,0,0,1,.5186,1.5546,2.84218,2.84218,0,0,0,1.5918,2.1289A15.92014,15.92014,0,0,1,43.092,33.063Zm-7.4727-7.9941c0-.1133-.0156-.3985.002-.6797a3.71031,3.71031,0,0,0-1.166-2.8398,7.5838,7.5838,0,0,0-7.2872-2.4356,1.99186,1.99186,0,0,0-1.7841,1.793c-.0733.3261-.0733.7656-.2862.9511-1.2793,1.1172-1.2314,2.6407-1.2988,4.1055a3.9179,3.9179,0,0,0,2.7373,4.082,11.466,11.466,0,0,0,4.9951.5899,4.28951,4.28951,0,0,0,3.5352-2.3379A4.78112,4.78112,0,0,0,35.61932,25.06891Z" fill="#ff6052" fill-rule="evenodd"/>
            <path d="M27.39282,26.40291a9.42813,9.42813,0,0,1-.3614-3.4512c1.334-1.1035,1.9317-1.2012,3.1914-.5137a7.28429,7.28429,0,0,1,.8907.5625,2.75671,2.75671,0,0,1,.9394,3.3535,1.34267,1.34267,0,0,1-1.1748.7657A6.0422,6.0422,0,0,1,27.39282,26.40291Z" fill="#ffbd52" fill-rule="evenodd"/>
          </g>
          <g>
            <path d="M41.97672,26.49271c1.211,1.2891,2.2657,2.5156,3.4317,3.625a4.38222,4.38222,0,0,1,1.4238,3.3945c-.0088,1.3418-.0352,2.6856.0078,4.0274a3.24384,3.24384,0,0,1-1.0097,2.4726c-.6407.6563-1.3282,1.2676-1.9815,1.9122a5.21513,5.21513,0,0,1-3.8369,1.5039c-.707,0-1.4131.0019-2.1201.0019-2.8975,0-2.8975,0-5.2412-1.2539-.4805,1.0957-.918,2.209-1.4473,3.2754a6.71654,6.71654,0,0,1-6.4199,4.0176c-.916.0019-1.836-.041-2.7481.0215a2.84749,2.84749,0,0,1-2.5996-1.1426,13.12306,13.12306,0,0,1-1.7578-2.8672,11.02413,11.02413,0,0,1-.8682-4.7539c.0811-1.5508.0401-3.1094.0284-4.6641-.0039-.5449-.0782-1.0898-.1211-1.6328-1.6533.1836-3.1875.3672-4.7266.5176-.7012.0664-1.4141.0234-2.1133.0996-2.0508.2246-3.2968-1.0195-4.4121-2.4336a2.43346,2.43346,0,0,1-.4355-1.3867c-.0283-1.6914-.0547-3.3926.0781-5.0781a6.77414,6.77414,0,0,1,2.3105-4.625c.6836-.6133,1.3106-1.2871,1.96-1.9375a8.186,8.186,0,0,1,2.8643-2.1309,4.35718,4.35718,0,0,0,.8007-.5605c-.164-.3262-.291-.6309-.4599-.9122a20.75977,20.75977,0,0,1-2.3487-7.4335,6.52155,6.52155,0,0,1,2.6641-6.5215A8.65481,8.65481,0,0,1,20.674.29541c2.1309.5528,4.2441,1.2129,5.6426,3.0899a23.65746,23.65746,0,0,1,1.5537,2.5156c.4072.7207.7529,1.4766,1.1934,2.3496.6884-.4277,1.3056-.748,1.8505-1.164a9.88619,9.88619,0,0,1,6.3418-1.9922c1.7676.0215,3.5342.0293,5.3008.0019a3.578,3.578,0,0,1,2.961,1.377,15.876,15.876,0,0,1,1.2597,1.7012,22.01959,22.01959,0,0,1,3.336,8.1699,13.03347,13.03347,0,0,1-.2266,4.6328,5.38591,5.38591,0,0,1-1.9902,3.168,9.00084,9.00084,0,0,1-3.1748,1.6484C43.842,26.04741,42.94652,26.24861,41.97672,26.49271ZM43.092,33.063a15.92014,15.92014,0,0,0-3.9883-3.5176,2.84218,2.84218,0,0,1-1.5918-2.1289,3.47549,3.47549,0,0,0-.5186-1.5546.78846.78846,0,0,1,.4112-1.0508,1.94585,1.94585,0,0,1,.8144-.1895,3.22833,3.22833,0,0,0,2.3184-.8359,5.2493,5.2493,0,0,1,1.1338-.5567c.9052-.3945,1.831-.7421,2.7177-1.1718.9043-.4395,1.8282-1.0059,1.9483-2.0782a11.39212,11.39212,0,0,0,.0117-3.9863,18.2662,18.2662,0,0,0-3.0342-6.4746,1.83129,1.83129,0,0,0-1.5791-.8672c-1.624.0176-3.251-.041-4.8711.041a5.9009,5.9009,0,0,0-2.8545.6953,10.13516,10.13516,0,0,0-3.6045,3.1973,4.35817,4.35817,0,0,1-1.0927,1.2637,1.84655,1.84655,0,0,1-3.0762-1.3946,7.26108,7.26108,0,0,0-.1797-1.8789,41.66709,41.66709,0,0,0-2.0918-4.3808,4.05258,4.05258,0,0,0-1.4678-1.4629,8.87784,8.87784,0,0,0-3.8193-1.1426c-3.2754-.2246-5.4248,2.1035-4.8359,5.2871a20.33957,20.33957,0,0,0,.9472,3.6856c1.0899,2.8066,1.6592,2.8047,4.0293,2.8808a21.15623,21.15623,0,0,1,3.1348.3594,1.31825,1.31825,0,0,1,1.2441,1.2383c.0352.6504-.2871,1.0039-1.1582,1.2637-.2031.0625-.4082.1191-.6142.164-1.6504.3594-3.2959.7461-4.9541,1.0645a9.00506,9.00506,0,0,0-4.0489,2.1445c-.9179.7656-1.6992,1.6934-2.5458,2.5449a3.391,3.391,0,0,0-1.1006,2.2285c-.0625,1.2676-.0821,2.5391-.0459,3.8047.0215.7598.4248,1.127,1.2666,1.0996,1.4062-.0429,2.8125-.166,4.2129-.3203a2.58616,2.58616,0,0,0,1.1396-.4883c1.0908-.7753,2.1445-1.6015,3.2178-2.4003a6.17209,6.17209,0,0,1,1.2207-.8282,2.34656,2.34656,0,0,1,2.5576.4922,1.77936,1.77936,0,0,1,.3525,2.3125c-.5283,1.0781-1.0214,2.1738-1.581,3.2344a4.15653,4.15653,0,0,0-.5479,2.0117c.0196,2.1172-.0517,4.2383.0391,6.3516a5.28051,5.28051,0,0,0,1.6191,4.0742c.9473,0,1.9356.043,2.918-.0117a2.90641,2.90641,0,0,0,2.4297-1.459,6.07523,6.07523,0,0,0,1.1738-3.127,3.03979,3.03979,0,0,1,.2539-1.2304,5.75229,5.75229,0,0,0,.5606-2.8731,2.50507,2.50507,0,0,1,.0918-.8359,1.80775,1.80775,0,0,1,3.4707-.1817,1.39442,1.39442,0,0,1,.1543.6075c-.086.8222.4453,1.2675.9511,1.7773a3.97451,3.97451,0,0,0,3.5782,1.4102,2.91905,2.91905,0,0,1,.8457-.002,3.87458,3.87458,0,0,0,3.5634-1.4414c.2823-.3105.5733-.6113.8741-.9316Z" fill="#4f2400" fill-rule="evenodd"/>
            <path d="M35.61932,25.06891a4.78112,4.78112,0,0,1-.5527,3.2285,4.28951,4.28951,0,0,1-3.5352,2.3379,11.466,11.466,0,0,1-4.9951-.5899,3.9179,3.9179,0,0,1-2.7373-4.082c.0674-1.4648.0195-2.9883,1.2988-4.1055.2129-.1855.2129-.625.2862-.9511a1.99186,1.99186,0,0,1,1.7841-1.793,7.5838,7.5838,0,0,1,7.2872,2.4356,3.71031,3.71031,0,0,1,1.166,2.8398C35.60372,24.67041,35.61932,24.95561,35.61932,25.06891Zm-8.2265,1.334a6.0422,6.0422,0,0,0,3.4853.7168,1.34267,1.34267,0,0,0,1.1748-.7657,2.75671,2.75671,0,0,0-.9394-3.3535,7.28429,7.28429,0,0,0-.8907-.5625c-1.2597-.6875-1.8574-.5898-3.1914.5137A9.42813,9.42813,0,0,0,27.39282,26.40291Z" fill="#4f2400" fill-rule="evenodd"/>
          </g>
        </g>
        <g>
          <path d="M6.08422,81.20361a14.30479,14.30479,0,0,1-1.2774-.9921c-3.914-3.4746-2.3515-9.127,2.5235-10.5489a6.6788,6.6788,0,0,1,.8476-.1875,8.37671,8.37671,0,0,1,4.8574.5879,12.32594,12.32594,0,0,1,2.5235,1.0567,16.67216,16.67216,0,0,1,1.4863.9375,12.1289,12.1289,0,0,1,.9785-4.2793,11.20952,11.20952,0,0,1,.7002-1.4043c.0117-.041.0186-.084.0303-.125a5.43367,5.43367,0,0,1,3.4433-3.5176,7.18253,7.18253,0,0,1,3.3145-.6289,3.42613,3.42613,0,0,1,1.0254.1367c.0928.0176.1816.0332.2754.0547,1.8955.4492,2.79,1.9101,3.6699,3.4629,1.6406,2.8945.0215,7.1211-.5606,10.0957a31.47311,31.47311,0,0,0-.6416,6.5371,39.19655,39.19655,0,0,1-.1152,5.3555,2.05827,2.05827,0,0,1-.706,1.2578,2.30289,2.30289,0,0,1-3.25,1.2793,34.93181,34.93181,0,0,0-5.959-2.0313,45.99083,45.99083,0,0,1-6.169-2.3808C11.53142,85.14511,7.23452,83.42631,6.08422,81.20361Z" fill="#dc4654"/>
          <path d="M16.07632,89.44a50.625,50.625,0,0,0,8.2168,1.2578c2.5186.125,5.5118.2305,7.6133-1.3359a1.78389,1.78389,0,0,0,.2071-2.8262c.6035-4.5977,1.5585-9.1113,1.5781-13.7891.0176-4.1738-.5-9.4394-3.8496-12.4199-3.4844-3.0977-7.7871-2.1856-10.541,1.4023-1.2862,1.6758-2.6163,3.3633-2.9825,5.5a7.87387,7.87387,0,0,0-.0771,1.7911c-3.7764-2.7012-9.0576-3.42-12.9688-.4922-4.0654,3.039-4.1572,9.7597-1.3017,13.6797C5.24432,86.69971,10.87522,88.30721,16.07632,89.44Zm-8.3476-6.9668c-3.2764-1.9688-5.8789-7.0938-3.5567-10.75,2.6788-4.2168,8.6817-2.9121,11.6309.1933a1.10983,1.10983,0,0,0,1.0332.3594c.0625.2285.1289.4551.1953.6758a1.01918,1.01918,0,0,0,1.9668-.5313c-.4121-1.875-.6406-3.6875.5352-5.3418a17.90954,17.90954,0,0,1,3.4414-3.6386c.9433-.7246,2.375-1.4922,3.4199-.4883a8.399,8.399,0,0,1,2.3545,3.959c.915,3.4746.5791,7.0898.3623,10.6328-.1641,2.7129-1.5664,5.9082-1.4941,8.7969a19.18318,19.18318,0,0,1-2.7657.1347,40.19131,40.19131,0,0,1-5.9941-.75C15.16332,84.99861,11.007,84.44391,7.72872,82.47321Z" fill="#463131"/>
        </g>
        <g>
          <path d="M58.37322,48.68221a10.39988,10.39988,0,0,1,.1699-1.1016,4.15706,4.15706,0,0,1,7.1924-2.0059,4.846,4.846,0,0,1,.3965.4473,5.77117,5.77117,0,0,1,1.2686,3.1211,8.4779,8.4779,0,0,1,.207,1.8711c-.0039.3769-.0215.791-.0664,1.207a8.34094,8.34094,0,0,1,2.9014-.8398,7.59386,7.59386,0,0,1,1.0791-.0488l.0859-.0235a3.74346,3.74346,0,0,1,3.2676.8965,4.9542,4.9542,0,0,1,1.4843,1.7832,2.40976,2.40976,0,0,1,.2608.666c.0195.0606.042.1172.0596.1817a4.10028,4.10028,0,0,1-.8575,3.3652c-1.1953,1.9551-4.2802,2.3926-6.2636,3.0391a21.42933,21.42933,0,0,0-4.1485,1.7968,27.53829,27.53829,0,0,1-3.2617,1.7207,1.42208,1.42208,0,0,1-.9922-.0058,1.58628,1.58628,0,0,1-1.8574-1.5274,23.83493,23.83493,0,0,0-.7676-4.2656,31.93178,31.93178,0,0,1-.6289-4.5078C57.82242,53.27791,57.42112,50.11771,58.37322,48.68221Z" fill="#dc4654"/>
          <path d="M56.756,57.44781a34.65983,34.65983,0,0,0,1.9883,5.3633c.7656,1.5566,1.7022,3.3945,3.3477,4.1367a1.22876,1.22876,0,0,0,1.7695-.8223,74.91736,74.91736,0,0,0,8.8262-3.6562c2.5176-1.3848,5.5117-3.4551,6.1875-6.4668.7002-3.1328-1.2871-5.416-4.3653-5.875a8.87429,8.87429,0,0,0-4.3066.0429,5.50528,5.50528,0,0,0-1.1035.5528c.3623-3.1758-.9688-6.5918-4.0371-7.9688-3.1875-1.4316-7.2617.7598-8.668,3.7871C54.78532,50.01221,55.70042,53.938,56.756,57.44781Zm1.4024-7.3516c.0908-2.6308,2.3066-5.9082,5.2812-5.7324,3.4326.2031,4.6524,4.252,3.7705,7.0625a.77048.77048,0,0,0,.128.7441c-.1162.1133-.2305.2286-.3418.3418a.702.702,0,0,0,.9785,1.0059,4.32338,4.32338,0,0,1,3.3926-1.4609,12.29339,12.29339,0,0,1,3.3398.8535c.751.3262,1.6914.9297,1.4375,1.8945a5.795,5.795,0,0,1-1.5967,2.7402,23.1124,23.1124,0,0,1-6.2773,3.7715c-1.6885.8067-4.0781,1.0293-5.794,2.0391a13.46191,13.46191,0,0,1-1.0058-1.6191,27.66367,27.66367,0,0,1-1.5508-3.8575C59.12322,55.41261,58.06852,52.72711,58.15842,50.09621Z" fill="#463131"/>
        </g>
      </g>
    </g>
  </g>
</svg>
