<?xml version="1.0" encoding="utf-8"?>
<!-- Generator: Adobe Illustrator 21.1.0, SVG Export Plug-In . SVG Version: 6.00 Build 0)  -->
<svg version="1.1" id="Capa_1" xmlns="http://www.w3.org/2000/svg" xmlns:xlink="http://www.w3.org/1999/xlink" x="0px" y="0px"
	 viewBox="0 0 68.00155 82.06105" style="enable-background:new 0 0 68.00155 82.06105;" xml:space="preserve">
<style type="text/css">
	.st0{fill:#FFFFFF;}
	.st1{fill:#F7DF00;}
	.st2{fill:#FC4CB5;}
	.st3{fill:#06B2ED;}
</style>
<path class="st0" d="M33.2256,23.2486v4.5247c0,0.8542-0.85419,0.8542-0.85419,0v-4.4578
	c-1.77052,0.18429-3.51759,0.54895-5.214,1.0883C20.5297,26.4368,13.9132,29.9771,10.0762,35.94
	c-1.97077,3.24448-3.24497,6.8635-3.7416,10.627h5.5346c0.85421,0,0.85421,1.7085,0,1.7085H6.3065
	c-0.02609,0-0.0448-0.5994-0.0685-0.603c-0.2045,2.07347-0.08814,4.16608,0.345,6.2041
	c2.3369,11.883,14.0199,19.6734,25.7813,18.762c-0.4253-0.2005-0.1853-0.9394,0.3452-0.8334
	c0.0283,0.0056,0.0556,0.0083,0.0838,0.0137l0.42111-3.9457c0.06169-0.5771,0.97209-0.5815,0.90989,0
	c-0.1453,1.364-0.29087,2.72816-0.4367,4.0925c14.9436,2.2567,24.8907-13.1296,23.68481-26.7041
	C56.1915,31.9651,46.0395,22.581,33.2256,23.2486z M12.2077,56.864c-0.76467,0.4957-1.52937,0.9913-2.2941,1.4868
	c-0.4936,0.3197-0.9493-0.4682-0.4595-0.7855c0.76467-0.4955,1.52937-0.99104,2.2941-1.4866
	C12.2416,55.759,12.6975,56.5467,12.2077,56.864z M28.8096,44.7043c0.4826-0.3351,0.937,0.4536,0.4595,0.7857
	c-0.86383,0.60407-1.34723,1.61721-1.2733,2.6687c0.0315,0.586-0.8787,0.5825-0.9099,0
	C27.01542,46.78474,27.66939,45.47415,28.8096,44.7043z M14.0039,37.2008c-0.92673,0.23257-1.90145-0.12496-2.458-0.9016
	c-0.3516-0.4693,0.439-0.9223,0.7858-0.4593c0.3385,0.43083,0.89975,0.62072,1.4303,0.4839
	c0.24445-0.05855,0.49009,0.09215,0.54864,0.33661C14.36639,36.89317,14.23233,37.12934,14.0039,37.2008z M19.9159,30.8403
	c-0.26078-0.81224-0.75573-1.52933-1.4227-2.0612c-0.4543-0.3706,0.1933-1.0102,0.6434-0.6434
	c0.78094,0.64155,1.35692,1.49775,1.65681,2.4629C20.9719,31.1586,20.0931,31.3959,19.9159,30.8403z M22.634,66.5837
	c-0.3782,0.88467-0.75637,1.76944-1.1345,2.6543c-0.2297,0.5372-1.0133,0.0732-0.7859-0.459
	c0.3782-0.88499,0.7563-1.76981,1.1343-2.6544C22.0775,65.5872,22.8613,66.0512,22.634,66.5837z M24.164,46.3813
	c-0.0947,0.5771-0.9715,0.3306-0.8775-0.2419c0.28693-1.73122,1.33411-3.24295,2.854-4.1201
	c0.22126-0.1194,0.49741-0.03683,0.61681,0.18443c0.11366,0.21061,0.04483,0.47326-0.15751,0.60107
	C25.2873,43.56567,24.39126,44.88132,24.164,46.3813z M53.0615,60.1596c-0.9112-0.7249-1.8224-1.44983-2.7336-2.1748
	c-0.4582-0.3646,0.19-1.0041,0.6436-0.6432c0.9112,0.7249,1.82236,1.44983,2.7335,2.1748
	C54.1631,59.8812,53.515,60.5206,53.0615,60.1596z M56.7297,48.5218l-6.0716,0.7233c-0.5812,0.0692-0.5744-0.8411,0-0.9096
	c2.0239-0.2411,4.04777-0.48217,6.0716-0.7232C57.3108,47.543,57.3039,48.4534,56.7297,48.5218z M50.1786,37.8838
	c0.77864-0.28286,1.29197-1.02869,1.2781-1.857c0.00883-0.25132,0.21971-0.4479,0.47103-0.43907
	c0.23893,0.00839,0.43068,0.20014,0.43907,0.43907c0.00644,1.23498-0.77725,2.33584-1.9463,2.734
	C49.866,38.9556,49.6297,38.0765,50.1786,37.8838z M44.2151,30.7277c0.5616-0.7139,1.12323-1.4278,1.6849-2.1417
	c0.3619-0.4601,1.0016,0.1879,0.6436,0.6432c-0.5618,0.7139-1.12344,1.4278-1.6849,2.1417
	C44.4966,31.831,43.857,31.1828,44.2151,30.7277z M43.0022,64.1702c0.7626,0.6265,1.5252,1.253,2.2878,1.8795
	c0.453,0.3721-0.19459,1.0122-0.64359,0.6432c-0.76251-0.6265-1.52509-1.253-2.28771-1.8795
	C41.9057,64.4411,42.5533,63.8011,43.0022,64.1702z M38.5297,52.2235c0.36333-1.14985,0.46648-2.36609,0.302-3.5607
	c-0.0807-0.5734,0.7963-0.819,0.8776-0.2417c0.20161,1.35364,0.09843,2.73522-0.302,4.0439
	C39.2355,53.024,38.35742,52.7841,38.5297,52.2235z M36.7776,48.8859c-0.0667-0.5816,0.8441-0.575,0.91,0
	c0.1671,1.55424-0.59419,3.0617-1.94419,3.8498c-0.22114,0.11961-0.49738,0.0373-0.61699-0.18385
	c-0.11397-0.21072-0.04512-0.47371,0.15747-0.60155C36.35212,51.32158,36.94041,50.11467,36.7776,48.8859z M34.93442,34.3904
	c-0.46945-0.26299-0.96148-0.48346-1.47021-0.6588c0.0873,3.8458,0.17443,7.69157,0.2614,11.5373
	c0.0709,0.7258,0.15033,1.45144,0.2383,2.1769c1.03825,0.65919,1.34554,2.03524,0.68634,3.07348
	c-0.14469,0.22789-0.32961,0.42758-0.54575,0.58932c-0.60847,0.33977-1.34679,0.35168-1.9659,0.0317
	c-1.44203,1.71417-2.74538,3.54036-3.8977,5.4613c0.28371,0.15905,0.48804,0.42944,0.5636,0.7458
	c0.4504-0.3181,1.06291,0.2978,0.6157,0.6576c-0.8865,0.7128-1.773,1.42566-2.6595,2.1386
	c-0.18541,0.17458-0.47724,0.16579-0.65181-0.01962c-0.07727-0.08207-0.12181-0.18961-0.12519-0.30228
	c0.05142-1.30648,0.24864-2.60312,0.588-3.8658c0.07456-0.23845,0.3283-0.3713,0.56675-0.29674
	c0.20887,0.06532,0.34103,0.27079,0.31385,0.48794c1.18694-1.97599,2.52938-3.85429,4.01459-5.6171
	c-0.0228-0.0359-0.0519-0.0659-0.0723-0.1039c-0.134-0.25489-0.19749-0.54095-0.1839-0.8286
	c-0.1228-1.08713,0.58522-2.09486,1.6496-2.3479c-0.0152-0.6749-0.03047-1.34986-0.0458-2.0249
	c-0.37501-3.91426-0.50606-7.84806-0.3924-11.7786c-0.1345-0.0294-0.2672-0.0624-0.4042-0.0864
	c0.03931,0.12523,0.02871,0.26081-0.0296,0.3784c-0.13283,0.2949-0.47958,0.42628-0.77448,0.29345
	c-0.23398-0.10539-0.37209-0.35085-0.34072-0.60555c0.12553-0.52623,0.36652-1.01797,0.7055-1.4396
	c0.3229-0.5644,0.6456-1.1287,0.9681-1.6929c0.13432-0.21607,0.41837-0.28234,0.63445-0.14802
	c0.09467,0.05885,0.16478,0.15002,0.19735,0.25662c0.38062,1.26777,1.11099,2.40252,2.1073,3.274
	C35.8835,34.0296,35.3713,34.6353,34.93442,34.3904z"/>
<path class="st1" d="M17.7536,21.267c1.77073-0.96876,3.6309-1.76419,5.5546-2.3752c-0.00107-0.01488-0.00133-0.0298-0.00079-0.0447
	c0.51519-2.9221-6.42891-6.0459-8.54871-6.5988c-3.60131-1.02825-7.47804-0.21447-10.3619,2.1751
	c-5.8349,5.2231-3.7173,13.6998,0.60161,19.0218C8.13937,28.36232,12.53087,24.16947,17.7536,21.267z M3.9943,21.5119
	c0.09011-0.5775,0.96711-0.3308,0.8777,0.2419c-0.22697,1.43629,0.01115,2.90753,0.6796,4.1989
	c0.2656,0.5212-0.52,0.9809-0.7858,0.4591C3.9874,24.90429,3.7168,23.18566,3.9943,21.5119z M4.3473,30.0393
	c-1.10908-1.3671-1.72424-3.06853-1.74589-4.8288c-0.00061-0.8543,0.90939-0.8543,0.91029,0
	c-0.03111,1.48721,0.49672,2.93199,1.4792,4.0489C5.3492,29.7149,4.7093,30.4989,4.3473,30.0393z"/>
<path class="st2" d="M46.4339,21.4401c-10.7583-5.4767-23.60649-3.6577-32.9436,3.7756
	C3.0039,33.5639-1.3308,46.9413,4.5582,59.3043C7.153,64.7521,11.0173,70.7365,16.4296,73.698
	c5.09481,2.7876,11.13781,3.049,16.83181,3.215c-0.07122-0.27057,0.0904-0.54765,0.36097-0.61886
	c0.06041-0.01591,0.12325-0.02049,0.18533-0.01354C49.0965,78.3427,60.7878,65.28,61.977,50.872
	C62.9677,38.869,57.3478,26.9962,46.4339,21.4401z"/>
<path class="st3" d="M56.6896,57.2045c-3.362,9.8347-12.4391,17.1223-22.9831,15.6822
	c0.04805,0.26836-0.13055,0.52488-0.39891,0.57293c-0.00767,0.00137-0.01537,0.00256-0.02309,0.00357
	C21.59942,74.823,9.6183,67.6579,6.2132,56.1924c-2.85356-10.00252,0.66205-20.73515,8.8805-27.1109
	c5.03638-3.84299,11.0565-6.18402,17.366-6.7531c0.0053,0,0.0103-0.0015,0.0158-0.0013
	c5.72812-0.52631,11.44592,1.10928,16.0292,4.5852C57.5643,33.8891,60.3035,46.6329,56.6896,57.2045z"/>
<path class="st0" d="M57.236,35.1356c0.1709,0.5623-0.7078,0.8005-0.87759,0.2417c-0.62672-2.07703-1.80325-3.94602-3.40511-5.4092
	c-0.4315-0.3979,0.2137-1.0394,0.6436-0.6432C55.30984,30.89977,56.56691,32.90699,57.236,35.1356z"/>
<path class="st1" d="M17.9148,12.4796c0.0061-0.0083,0.007-0.0173,0.01361-0.0255C25.3123,3.5176,42.5207,0.4858,48.5371,12.3878
	c0.78576-0.38429,1.59956-0.70835,2.4344-0.9694c-3.02342-6.33847-9.38204-10.41188-16.404-10.5086
	c-7.0084,0.0169-15.6347,4.1914-19.2416,10.2957c-0.05636,0.10038-0.15173,0.17299-0.26349,0.2006
	c0.7563,0.19921,1.49558,0.45816,2.21089,0.7744C17.4681,12.2671,17.6869,12.3697,17.9148,12.4796z M40.1663,2.6485
	c1.99794,0.72973,3.85857,1.79103,5.5037,3.1393c0.4539,0.3706-0.1937,1.0104-0.64359,0.6432
	c-1.52578-1.24764-3.25049-2.22984-5.102-2.9055C39.3779,3.3253,39.6155,2.4466,40.1663,2.6485z"/>
<path class="st1" d="M63.283,14.6453c-4.4417-3.8867-10.0419-3.7981-14.6972-1.3753c-0.06424,0.06002-0.14276,0.1026-0.2281,0.1237
	c-2.3451,1.27612-4.36899,3.06928-5.91829,5.2436c-0.04538,0.06294-0.10583,0.11349-0.17581,0.147
	c3.46125,1.07911,6.6981,2.77702,9.5534,5.0113c3.38605,2.68178,6.11084,6.10551,7.9642,10.0071
	c2.4363,2.0969,6.8694-7.4143,7.1464-8.8506C67.66733,21.11011,66.27345,17.16826,63.283,14.6453z M64.414,23.9039
	c-0.036,0.5825-0.9463,0.5845-0.91,0c0.13489-1.93002-0.39154-3.84843-1.49258-5.4393c-0.33032-0.4857,0.45868-0.9406,0.78608-0.459
	C63.98323,19.73447,64.55263,21.81208,64.414,23.9039z M64.9732,20.9984c-0.27476-1.92383-1.13508-3.71644-2.4641-5.1343
	c-0.3993-0.428,0.2431-1.072,0.6436-0.6432c1.44361,1.52636,2.38521,3.45815,2.6982,5.5356
	C65.93742,21.33,65.0605,21.5753,64.9732,20.9984z"/>
<path class="st1" d="M11.7686,71.3876C9.9877,73.1839,7.4965,76.24,7.5138,78.8691c-0.36039,1.2025,0.43151,1.77073,2.3757,1.7047
	c0.2796-0.35032,0.53922-0.71613,0.7776-1.0957c0.3865-0.5688,0.752-1.1523,1.1276-1.7282
	c0.902-1.3825,1.80407-2.76497,2.7062-4.1474c0.0064-0.01,0.0159-0.014,0.0228-0.0233
	c-0.55782-0.36349-1.09545-0.75708-1.6105-1.179C12.52542,72.0788,12.1447,71.7384,11.7686,71.3876z"/>
<path class="st1" d="M55.5303,68.7064c0.02493,0.02473,0.04667,0.05247,0.0647,0.0826
	c0.68118,1.41876,1.58792,2.71769,2.6849,3.8462c0.9767,0.9867,4.3841,4.099,5.2174,0.7955
	c0.4548-1.8028-1.7604-3.6062-2.85788-4.7888c-0.92071-0.9919-1.84125-1.98373-2.76161-2.9755
	C57.16529,66.7319,56.38097,67.74758,55.5303,68.7064z"/>
<path d="M51.8579,11.1736c-0.0052-0.0131-0.00349-0.0257-0.0098-0.039C48.69194,4.42317,41.98333,0.10054,34.5675,0
	c-7.3156-0.0048-16.2559,4.3633-20.0274,10.7465c-0.11827,0.18582-0.06987,0.43176,0.11,0.5589
	c-3.01016-0.77339-6.20084-0.39122-8.9432,1.0712C-2.6262,17.0958-0.7333,27.8577,4.39,34.1331
	c0.03778,0.04655,0.0848,0.08476,0.1381,0.1122c-3.38106,5.58194-4.53627,12.23234-3.23568,18.6275
	c1.60308,6.7366,4.99708,12.9147,9.823,17.8808c-2.101,2.1457-6.54862,7.7922-3.87242,10.6086
	c0.80633,0.87466,2.16904,0.93006,3.0437,0.12373c0.08952-0.08253,0.17188-0.17249,0.2462-0.26894
	c1.9118-1.9533,3.2629-4.869,4.7502-7.1498c5.5316,3.2915,12.34431,3.5943,18.6854,3.7757
	c0.23938,0.00639,0.43861-0.18248,0.445-0.42186c0.00157-0.05898-0.00891-0.11765-0.0308-0.17244
	c7.68475,0.72525,15.26791-2.17616,20.5059-7.8458c1.2131,2.3273,5.7539,8.7776,8.7091,5.8767
	c1.01472-1.15253,1.14198-2.83828,0.3118-4.1301c-1.2743-2.3475-3.70608-4.3332-5.521-6.2718
	c1.10639-1.77169,2.01773-3.65794,2.7181-5.6258c2.7786-7.94145,2.48256-16.63555-0.8298-24.3696
	c2.2589,0.0542,5.0384-3.9803,5.8762-5.4175c2.58981-4.12695,2.45414-9.40407-0.3443-13.3925
	C62.66747,11.64652,57.07643,9.68331,51.8579,11.1736z M15.3259,11.2055C18.9328,5.1012,27.5591,0.9267,34.5675,0.9098
	c7.02196,0.09672,13.38058,4.17013,16.404,10.5086c-0.83484,0.26105-1.64864,0.58512-2.4344,0.9694
	c-6.0164-11.902-23.2248-8.8702-30.60869,0.0663c-0.00661,0.0082-0.00751,0.0172-0.01361,0.0255
	c-0.2279-0.1099-0.4467-0.2125-0.6415-0.2991c-0.71531-0.31624-1.45459-0.57519-2.21089-0.7744
	C15.17417,11.37849,15.26954,11.30588,15.3259,11.2055z M41.6307,18.5991c-5.68901-1.63959-11.72544-1.63893-17.4141,0.0019
	c-0.0285-2.331-3.1174-4.4563-5.4701-5.7024c7.09491-8.3251,23.2328-11.364,28.9854-0.0886
	c-2.40326,1.31069-4.48073,3.14546-6.0784,5.3683C41.55647,18.29918,41.5473,18.46845,41.6307,18.5991z M4.3968,14.4234
	c2.88386-2.38958,6.76059-3.20335,10.3619-2.1751c2.1198,0.5529,9.0639,3.6767,8.54871,6.5988
	c-0.00054,0.0149-0.00028,0.02983,0.00079,0.0447c-1.9237,0.61102-3.78387,1.40644-5.5546,2.3752
	c-5.22273,2.90248-9.61423,7.09533-12.75518,12.1782C0.6795,28.1232-1.4381,19.6465,4.3968,14.4234z M14.5009,73.6025
	c-0.9022,1.3826-1.80427,2.76506-2.7062,4.1474c-0.3756,0.5759-0.7411,1.1594-1.1276,1.7282
	c-0.23838,0.37957-0.498,0.74538-0.7776,1.0957c-1.9442,0.0661-2.7361-0.50213-2.3757-1.7047
	c-0.0173-2.6291,2.4739-5.6852,4.2548-7.4815c0.3761,0.3508,0.75681,0.6912,1.1446,1.0126
	c0.51505,0.42192,1.05268,0.81551,1.6105,1.179C14.5168,73.5885,14.5073,73.5925,14.5009,73.6025z M60.63941,68.6419
	c1.09748,1.1826,3.31268,2.986,2.85788,4.7888c-0.8333,3.3035-4.2407,0.1912-5.2174-0.7955
	c-1.09698-1.12851-2.00371-2.42744-2.68489-3.8462c-0.01804-0.03013-0.03977-0.05788-0.0647-0.0826
	c0.85067-0.95882,1.63499-1.9745,2.3475-3.04C58.7982,66.6583,59.71874,67.65014,60.63941,68.6419z M61.977,50.872
	C60.7878,65.28,49.0965,78.3427,33.8077,76.2806c-0.27805-0.03114-0.52869,0.16903-0.55983,0.44707
	c-0.00695,0.06208-0.00236,0.12492,0.01354,0.18533c-5.694-0.166-11.737-0.4274-16.83181-3.215
	C11.0173,70.7365,7.153,64.7521,4.5582,59.3043c-5.889-12.363-1.5543-25.7404,8.9321-34.0886
	c9.33711-7.4333,22.1853-9.2523,32.9436-3.7756C57.3478,26.9962,62.9677,38.869,61.977,50.872z M66.9276,24.9521
	c-0.277,1.4363-4.7101,10.9475-7.1464,8.8506c-1.85336-3.90159-4.57815-7.32532-7.9642-10.0071
	c-2.8553-2.23428-6.09214-3.93219-9.5534-5.0113c0.06998-0.03351,0.13044-0.08406,0.17581-0.147
	c1.5493-2.17432,3.57318-3.96748,5.91829-5.2436c0.08534-0.0211,0.16386-0.06368,0.2281-0.1237
	c4.6553-2.4228,10.2555-2.5114,14.6972,1.3753C66.27345,17.16826,67.66733,21.11011,66.9276,24.9521z"/>
<path d="M48.5047,26.9123c-4.58327-3.47592-10.30107-5.11151-16.0292-4.5852c-0.0055-0.0002-0.0105,0.0013-0.0158,0.0013
	c-6.3095,0.56908-12.32962,2.91012-17.366,6.7531C6.87525,35.45725,3.35964,46.18988,6.2132,56.1924
	C9.6183,67.6579,21.59942,74.823,33.2845,73.4632c0.27034-0.0353,0.46088-0.28307,0.42557-0.55341
	c-0.00101-0.00772-0.0022-0.01542-0.00357-0.02309c10.544,1.4401,19.6211-5.8475,22.9831-15.6822
	C60.3035,46.6329,57.5643,33.8891,48.5047,26.9123z M57.37241,45.2616C58.5783,58.8361,48.6312,74.2224,33.6876,71.9657
	c0.14581-1.3641,0.29138-2.72826,0.4367-4.0925c0.0622-0.5815-0.8482-0.5771-0.90989,0l-0.42111,3.9457
	c-0.0282-0.0054-0.0555-0.0081-0.0838-0.0137c-0.5305-0.106-0.7705,0.6329-0.3452,0.8334
	C20.6029,73.55,8.9199,65.7596,6.583,53.8766c-0.43314-2.03802-0.5495-4.13063-0.345-6.2041
	c0.0237,0.0036,0.04241,0.603,0.0685,0.603h5.5627c0.85421,0,0.85421-1.7085,0-1.7085H6.3346
	c0.49663-3.7635,1.77083-7.38251,3.7416-10.627c3.837-5.9629,10.4535-9.5032,17.08121-11.5362
	c1.69641-0.53935,3.44348-0.90401,5.214-1.0883v4.4578c0,0.8542,0.85419,0.8542,0.85419,0v-4.5247
	c12.8139-0.6676,22.9659,8.7165,24.14682,22.013H57.37241z"/>
<path d="M50.6581,49.2451l6.0716-0.7233c0.5742-0.0684,0.5811-0.9788,0-0.9095c-2.0239,0.2411-4.04777,0.48217-6.0716,0.7232
	C50.0837,48.404,50.0769,49.3143,50.6581,49.2451z"/>
<path class="st0" d="M50.4205,38.7608c1.16905-0.39816,1.95274-1.49902,1.9463-2.734
	c-0.00883-0.25132-0.21971-0.4479-0.47103-0.43907c-0.23893,0.00839-0.43068,0.20014-0.43907,0.43907
	c0.01387,0.82831-0.49946,1.57414-1.2781,1.857C49.6297,38.0765,49.866,38.9556,50.4205,38.7608z"/>
<path class="st0" d="M44.8587,31.3709c0.5615-0.7139,1.12313-1.4278,1.6849-2.1417c0.358-0.4553-0.2817-1.1033-0.6436-0.6432
	c-0.56159,0.7139-1.12322,1.4278-1.6849,2.1417C43.857,31.1828,44.4966,31.831,44.8587,31.3709z"/>
<path class="st0" d="M13.762,36.3238c-0.53055,0.13682-1.0918-0.05307-1.4303-0.4839c-0.3468-0.463-1.1374-0.01-0.7858,0.4593
	c0.55655,0.77664,1.53127,1.13417,2.458,0.9016c0.2399-0.07505,0.37354-0.33036,0.2985-0.57027
	C14.23094,36.4021,13.99476,36.26805,13.762,36.3238z"/>
<path class="st0" d="M20.79342,30.5986c-0.29989-0.96515-0.87587-1.82135-1.65681-2.4629
	c-0.4501-0.3668-1.0977,0.2728-0.6434,0.6434c0.66697,0.53187,1.16192,1.24896,1.4227,2.0612
	C20.0931,31.3959,20.9719,31.1586,20.79342,30.5986z"/>
<path class="st0" d="M11.7482,56.0787c-0.76467,0.4956-1.52937,0.99113-2.2941,1.4866c-0.4898,0.3173-0.0341,1.1052,0.4595,0.7855
	c0.76467-0.4956,1.52937-0.9912,2.2941-1.4868C12.6975,56.5467,12.2416,55.759,11.7482,56.0787z"/>
<path class="st0" d="M21.8479,66.1246c-0.3781,0.8847-0.7562,1.7695-1.1343,2.6544c-0.2274,0.5322,0.5562,0.9962,0.7859,0.459
	c0.378-0.8847,0.75617-1.76946,1.1345-2.6543C22.8613,66.0512,22.0775,65.5872,21.8479,66.1246z"/>
<path class="st0" d="M44.64642,66.6929c0.449,0.369,1.09659-0.2711,0.64359-0.6432c-0.76266-0.6265-1.52527-1.253-2.2878-1.8795
	c-0.4489-0.3691-1.0965,0.2709-0.6435,0.6432C43.1213,65.4399,43.88388,66.0664,44.64642,66.6929z"/>
<path class="st0" d="M50.9715,57.3416c-0.4536-0.3609-1.1018,0.2786-0.6436,0.6432c0.9112,0.7249,1.8224,1.44983,2.7336,2.1748
	c0.4535,0.361,1.1016-0.2784,0.6435-0.6432C52.7939,58.7915,51.88273,58.06657,50.9715,57.3416z"/>
<path d="M32.5467,30.2935c-0.3226,0.5641-0.6453,1.1284-0.9681,1.6929c-0.33898,0.42163-0.57997,0.91337-0.7055,1.4396
	c-0.03954,0.32101,0.18864,0.61329,0.50965,0.65282c0.2547,0.03137,0.50015-0.10674,0.60555-0.34072
	c0.05831-0.11759,0.06891-0.25317,0.0296-0.3784c0.137,0.024,0.2697,0.057,0.4042,0.0864
	c-0.11366,3.93054,0.01739,7.86434,0.3924,11.7786c0.0153,0.6749,0.03057,1.34986,0.0458,2.0249
	c-1.06438,0.25304-1.7724,1.26077-1.6496,2.3479c-0.01359,0.28765,0.0499,0.57371,0.1839,0.8286
	c0.0204,0.038,0.0495,0.068,0.0723,0.1039c-1.48521,1.76281-2.82766,3.64111-4.0146,5.6171
	c0.03103-0.2479-0.14477-0.47401-0.39266-0.50505c-0.21715-0.02718-0.42262,0.10498-0.48794,0.31385
	c-0.33936,1.26268-0.53658,2.55932-0.588,3.8658c0.00763,0.25455,0.22017,0.45472,0.47472,0.44709
	c0.11268-0.00338,0.22021-0.04791,0.30228-0.12519c0.8864-0.7129,1.7729-1.42577,2.6595-2.1386
	c0.44721-0.3598-0.1653-0.9757-0.6157-0.6576c-0.07556-0.31636-0.27989-0.58675-0.5636-0.7458
	c1.15232-1.92094,2.45567-3.74713,3.8977-5.4613c0.61911,0.31998,1.35743,0.30807,1.9659-0.0317
	c0.98466-0.73684,1.18556-2.13239,0.44872-3.11705c-0.16174-0.21613-0.36142-0.40105-0.58932-0.54575
	c-0.0882-0.7258-0.16763-1.45143-0.2383-2.1769c-0.08718-3.8458-0.17432-7.69157-0.2614-11.5373
	c0.50873,0.17533,1.00076,0.39581,1.47021,0.6588c0.43689,0.2449,0.94909-0.3608,0.55139-0.7143
	c-0.99631-0.87148-1.72668-2.00623-2.1073-3.274c-0.07434-0.24332-0.33185-0.3803-0.57517-0.30596
	C32.69673,30.12871,32.60555,30.19883,32.5467,30.2935z"/>
<path d="M4.9909,29.2594c-0.98248-1.11691-1.51031-2.56169-1.4792-4.0489c-0.0009-0.8543-0.9109-0.8543-0.91029,0
	c0.02164,1.76027,0.63681,3.4617,1.74589,4.8288C4.7093,30.4989,5.3492,29.7149,4.9909,29.2594z"/>
<path d="M5.5516,25.9527c-0.66845-1.29137-0.90657-2.76261-0.6796-4.1989c0.08941-0.5727-0.78759-0.8194-0.8777-0.2419
	c-0.2775,1.67376-0.0069,3.39239,0.7715,4.8999C5.0316,26.9336,5.8172,26.4739,5.5516,25.9527z"/>
<path d="M39.92442,3.5255c1.85151,0.67566,3.57623,1.65786,5.102,2.9055c0.44989,0.3672,1.09749-0.2726,0.64359-0.6432
	c-1.64513-1.34827-3.50576-2.40957-5.5037-3.1393C39.6155,2.4466,39.3779,3.3253,39.92442,3.5255z"/>
<path d="M62.5091,15.8641c1.32902,1.41786,2.18935,3.21047,2.4641,5.1343c0.0873,0.5769,0.96422,0.3316,0.8777-0.2419
	c-0.31299-2.07745-1.25459-4.00924-2.6982-5.5356C62.7522,14.7921,62.1098,15.4361,62.5091,15.8641z"/>
<path d="M62.01142,18.4646c1.10104,1.59087,1.62747,3.50928,1.49258,5.4393c-0.0363,0.5845,0.874,0.5825,0.91,0
	c0.13863-2.09182-0.43077-4.16943-1.6165-5.8983C62.4701,17.524,61.6811,17.9789,62.01142,18.4646z"/>
<path d="M52.9533,29.9681c1.60186,1.46318,2.77839,3.33217,3.40511,5.4092c0.16979,0.5588,1.04849,0.3206,0.87759-0.2417
	c-0.66909-2.22861-1.92616-4.23583-3.6391-5.8107C53.167,28.9287,52.5218,29.5702,52.9533,29.9681z"/>
<path d="M35.2839,51.9503c-0.21262,0.13417-0.27622,0.41531-0.14204,0.62793c0.12785,0.2026,0.39084,0.27144,0.60155,0.15747
	c1.35-0.7881,2.11129-2.29556,1.94419-3.8498c-0.0659-0.575-0.9767-0.5816-0.91,0
	C36.94042,50.11467,36.35212,51.32158,35.2839,51.9503z"/>
<path d="M39.4073,52.465c0.40043-1.30868,0.50361-2.69026,0.302-4.0439c-0.0813-0.5773-0.9583-0.3317-0.8776,0.2417
	c0.16448,1.19461,0.06133,2.41085-0.302,3.5607C38.35742,52.7841,39.2355,53.024,39.4073,52.465z"/>
<path d="M27.9958,48.1587c-0.07393-1.05149,0.40947-2.06463,1.2733-2.6687c0.4775-0.3321,0.0231-1.1208-0.4595-0.7857
	c-1.14021,0.76985-1.79417,2.08043-1.7237,3.4544C27.1171,48.7412,28.0273,48.7447,27.9958,48.1587z"/>
<path d="M26.1405,42.0193c-1.51989,0.87714-2.56707,2.38887-2.854,4.1201c-0.094,0.5725,0.7828,0.819,0.8775,0.2419
	c0.22726-1.49998,1.1233-2.81563,2.4358-3.5765c0.21257-0.13426,0.27605-0.41542,0.14179-0.62798
	C26.61378,41.97446,26.35112,41.90563,26.1405,42.0193z"/>
</svg>
