<svg xmlns="http://www.w3.org/2000/svg" viewBox="0 0 53.56287 51.37762">
  <title>Recurso 3</title>
  <g id="Capa_2" data-name="Capa 2">
    <g id="Editar">
      <g>
        <path d="M43.89025,36.17917a22.81367,22.81367,0,0,0,2.0313-1.5772c6.2207-5.5263,3.7392-14.5117-4.0108-16.7715a10.88141,10.88141,0,0,0-1.3505-.2988,13.31983,13.31983,0,0,0-7.7208.9365,19.59551,19.59551,0,0,0-4.0117,1.6797,26.75794,26.75794,0,0,0-2.3633,1.4893,19.30492,19.30492,0,0,0-1.5556-6.8037,18.13752,18.13752,0,0,0-1.1123-2.2325c-.0186-.0654-.0313-.1328-.0488-.1972C22.942,9.563,20.91565,7.95457,18.273,6.81a11.4097,11.4097,0,0,0-5.2695-.997,5.42805,5.42805,0,0,0-1.6299.2158c-.1465.0283-.29.0508-.4375.0859-3.0127.7158-4.4365,3.0381-5.8349,5.5049-2.6065,4.6045-.0323,11.3223.8906,16.0527a49.91831,49.91831,0,0,1,1.0205,10.3926,62.55419,62.55419,0,0,0,.1846,8.5147,3.27276,3.27276,0,0,0,1.1211,2,3.65937,3.65937,0,0,0,5.166,2.0332c2.9541-1.5313,6.3027-2.2588,9.4746-3.2285a73.25772,73.25772,0,0,0,9.8076-3.7842C35.23015,42.44677,42.06115,39.71337,43.89025,36.17917Z" fill="#e04654"/>
        <path d="M50.42935,37.77487c4.54-6.2324,4.3935-16.9151-2.0684-21.75-6.2197-4.6543-14.6132-3.5088-20.6181.7832a12.51212,12.51212,0,0,0-.1241-2.8467c-.581-3.3975-2.6953-6.0781-4.7402-8.7432-4.3779-5.7031-11.2178-7.1543-16.7578-2.2285C.79555,7.726-.02675,16.09807.00065,22.73287c.0293,7.4365,1.5488,14.6133,2.5068,21.9238a2.83888,2.83888,0,0,0,.3301,4.4951c3.3418,2.4893,8.0996,2.3223,12.1035,2.1231a80.70788,80.70788,0,0,0,13.0625-1.999C36.273,47.47507,45.22625,44.91747,50.42935,37.77487Zm-26.8457,5.5928a63.88933,63.88933,0,0,1-9.5313,1.1933,30.36288,30.36288,0,0,1-4.3955-.2139c.1143-4.5947-2.1142-9.6738-2.3769-13.9863-.3447-5.6328-.878-11.3818.5781-16.9043a13.34575,13.34575,0,0,1,3.7422-6.2959c1.6621-1.5937,3.9365-.374,5.4365.7793a28.46411,28.46411,0,0,1,5.4736,5.7832c1.8663,2.6299,1.5049,5.5127.8487,8.4912a1.6211,1.6211,0,0,0,3.1279.8467c.1045-.3516.209-.7109.3086-1.0752a1.76876,1.76876,0,0,0,1.6445-.5723c4.6885-4.9355,14.2325-7.0097,18.4903-.3056,3.6914,5.8096-.4453,13.959-5.6553,17.0908C36.06315,41.33247,29.45665,42.21527,23.58365,43.36767Z" fill="#463131"/>
      </g>
    </g>
  </g>
</svg>
