<svg xmlns="http://www.w3.org/2000/svg" viewBox="0 0 133.3878 80.07796">
  <title>Recurso 13</title>
  <g id="Capa_2" data-name="Capa 2">
    <g id="Editar">
      <g>
        <path d="M1.0745,77.12245s-3.8096-13.8531,5.7221-30.8677c0,0,3.5376-5.3876,14.186-1.5639l7.9861,2.3133L35.8813,60.029s-4.4743,4.6506-7.5308,4.2311c-3.0554-.4186-1.7097-.6445-1.7097-.6445s.5168,5.4267-7.1868,6.0199c0,0-1.3045.0244-1.4787-.3463-.1752-.3716-1.0547,5.9398-8.603,4.5548C9.3723,73.844,5.6718,83.89065,1.0745,77.12245Z" fill="#fff800"/>
        <path d="M91.9334,22.22985s6.692-13.4248,9.2078-15.8909,6.7342-8.0389,17.8932-4.1185,13.8579,5.3029,13.9285,8.9805c.0716,3.6784-10.4725,4.5223-10.4725,4.5223l.7881,1.1968s-7.9973,4.4108-11.3852,4.216c0,0,2.3697.5468-1.2772,3.1941-3.6468,2.6475-5.947,1.9084-5.947,1.9084s1.5567,6.082-9.1106,5.5118Z" fill="#fff800"/>
        <g>
          <path d="M60.5132,38.52785c5.4857-.5511,9.3697-9.8616,12.2278-14.2272q4.6479-7.1019,9.2943-14.2043c.7017-.9056.4501-2.5337-2.9979-.9573q-1.5102.6012-3.0138,1.2166-5.5191,2.2503-10.9749,4.648c-13.2154,5.8081-26.377,13.1704-38.9903,20.317,5.5563.6065,10.8302,1.4841,16.4736,1.928C48.2125,37.69505,54.8296,39.09765,60.5132,38.52785Zm-16.4895-7.101q4.042.753,8.0842,1.506c.8324.1553.4309,1.4092-.3928,1.2564q-4.04145-.7539-8.0841-1.5061C42.7985,32.52785,43.2,31.274,44.0237,31.42685Zm-6.0288,1.8404q5.0331.8286,10.0648,1.657c.8266.1356.7748,1.4512-.061,1.3137q-5.03145-.82725-10.0637-1.6561C37.1084,34.44625,37.1595,33.12925,37.9949,33.26725Z" fill="#fff"/>
          <path d="M49.4688,39.07425q-12.29085-.9006-24.5648-2.0262l4.8918,9.7001a.662.662,0,0,1,.2413.4796q2.625,5.202,5.2486,10.4057c.1642.3246.3262.6814.4891,1.0371a.71273.71273,0,0,1,.498,1.0076.31784.31784,0,0,1-.0197.0317,22.545,22.545,0,0,0,1.9198,3.6478,13.80483,13.80483,0,0,0,2.8948,2.9188Q45.1141,52.6272,49.4688,39.07425Z" fill="#fff"/>
          <path d="M83.3355,10.51125Q73.7757,25.122,64.2157,39.733a.66718.66718,0,0,1-.5886.3075q-6.4152-.3972-12.8273-.8684a.40909.40909,0,0,1-.0087.0812q-4.4523,13.8261-8.5701,27.7536a4.71111,4.71111,0,0,0,1.9014.5998c3.1337.161,8.3597-3.2103,11.2309-4.4129q10.34325-4.3353,20.5231-9.046,5.3316-2.46945,10.6138-5.0387c1.6005-.7781,3.2022-1.5555,4.7921-2.3563,3.0581-1.5374,3.1219-1.1778,4.3877-4.5881a.6298.6298,0,0,1-.7569-.1136,123.31953,123.31953,0,0,0-20.6795-16.4163.65835.65835,0,0,1,.6992-1.1148,124.904,124.904,0,0,1,20.9421,16.6316.57581.57581,0,0,1,.0963.1443c.9026-2.7023.5584-3.693-.3306-6.4748-.3054-.954-.6285-1.9015-.9507-2.8501a1.82039,1.82039,0,0,1-.6176-.6928.68165.68165,0,0,1,.1202-.7676c-.4174-1.1914-.8437-2.3783-1.2907-3.5592q-1.8774-4.97265-4.0864-9.8176c-.5775-1.2659-1.7272-4.8145-2.7596-5.7528C85.4887,10.66905,84.7462,8.35175,83.3355,10.51125Zm4.1939,34.9649a40.36933,40.36933,0,0,1-8.2781,4.7224c-.777.3256-1.3914-.8368-.6118-1.1658a38.90318,38.90318,0,0,0,7.9906-4.5174C87.3059,44.01775,88.2094,44.97545,87.5294,45.47615Zm-.7142-4.1678c.6533-.5368,1.5526.4239.8988.9612a22.91956,22.91956,0,0,1-6.3335,3.717c-.7821.3029-1.3996-.8601-.6114-1.1662A21.80665,21.80665,0,0,0,86.8152,41.30835Z" fill="#fff"/>
          <path d="M132.0628,7.35075c-.0273-.0285-.0468-.0581-.076-.0864a.61949.61949,0,0,0-.5111-.1887c-6.8633-3.2886-16.4877-8.7938-23.9694-6.5549-7.7073,2.3065-12.1561,13.944-15.6213,20.3626-.3398-.8086-.682-1.6164-1.0352-2.4196-2.2839-5.1937-3.9356-12.737-10.8815-11.0527-3.925.9513-7.8328,3.11-11.5544,4.7023q-7.9689,3.4083-15.7987,7.1349c-9.7869,4.6563-19.6814,10.6608-29.1079,16.007a.61472.61472,0,0,0-.3189.437c-.2509.5111-.2369,1.178.2674,1.2263a.12964.12964,0,0,0,.0155.0006.61915.61915,0,0,0,.0639.3392c1.3897,2.7553,2.7156,5.6257,4.0438,8.5202-4.7075-1.9386-10.3509-4.0029-15.2472-3.3898-4.6846.5859-7.4086,4.4464-9.0309,8.5744C1.0342,56.72825.2631,63.55505.1329,69.70035c-.0501,2.3551-.6795,6.9406,1.3194,8.8809a1.75551,1.75551,0,0,0,1.1416,1.2696c1.4015.6047,3.1862-.0935,4.2982-.976A8.866,8.866,0,0,0,9.6323,74.388c8.1937,1.7487,10.447-7.9022,10.7987-13.9924a.65837.65837,0,0,0-1.3146-.0599c-.2945,5.0908-1.7924,14.376-9.1423,12.7862a71.51758,71.51758,0,0,0,1.0169-9.0805c.0863-.8441-1.2298-.8998-1.3146-.0599-.2565,2.5385-.5605,5.0744-.9875,7.5899a17.60646,17.60646,0,0,1-.9146,3.8475,5.42365,5.42365,0,0,1-2.2072,2.7879,2.35549,2.35549,0,0,1-1.7358.5162.52838.52838,0,0,0-.4489-.5797,1.89455,1.89455,0,0,1-.542-.2149.70913.70913,0,0,0-.7132-.6436c-3.1544-4.2928,1.2278-22.553,2.1444-25.1126,2.4797-6.9219,7.1692-9.3874,14.2565-7.805a61.90156,61.90156,0,0,1,9.8642,3.1844c1.9392,4.224,3.9207,8.4643,6.1426,12.476a8.22349,8.22349,0,0,1-6.7792,3.6215.65263.65263,0,0,0-.259.0558,20.46955,20.46955,0,0,0-.1237-7.3004c-.13-.8382-1.4153-.5534-1.2865.2795.7184,4.6484.2623,13.1469-6.5803,12.1801-.8401-.1186-.893,1.1962-.0611,1.3137a7.055,7.055,0,0,0,7.008-3.6886,8.94458,8.94458,0,0,0,.7598-1.7525.56014.56014,0,0,0,.4809.2272,9.62579,9.62579,0,0,0,7.5381-3.6867c.8093,1.4072,1.6514,2.7842,2.5376,4.1141a8.13214,8.13214,0,0,0,2.8753,2.8058.70615.70615,0,0,0,.8813.3644c2.7858.8857,5.8934-.6829,9.5041-2.1589q14.8284-6.0642,29.3285-12.8976c4.4818-2.1133,9.1284-4.113,13.4468-6.5407,2.0181-1.135,4.1398-2.2436,4.7471-4.6653.712-2.8442-.9377-6.6973-2.1866-9.765a10.37281,10.37281,0,0,0,3.3412-.2,8.95324,8.95324,0,0,0,5.7129-4.1937c.4327-.7263-.681-1.4281-1.1151-.6976a7.49459,7.49459,0,0,1-3.8845,3.2907c-.7655.2884-3.3627.9235-4.6024.4203-.0848-.2222-.1645-.4395-.2371-.6478q-1.5039-4.31865-3.2498-8.5489a.555.555,0,0,0,.6318-.3038c3.396-6.2651,8.2707-18.2724,15.7534-19.7939,7.1976-1.4641,15.9036,3.4119,22.5212,6.5473,3.974,4.2904-3.163,6.0661-5.0895,6.339a21.99228,21.99228,0,0,1-5.4636.0123,25.16838,25.16838,0,0,1-9.7246-3.2375c-.736-.4135-1.4393.6997-.6982,1.1157a27.66191,27.66191,0,0,0,12.2716,3.6427c-5.0083,3.2369-11.2541,6.3679-16.7082,2.2482-.6747-.5094-1.371.6085-.6985,1.1163a10.35066,10.35066,0,0,0,6.8604,2.1397,9.30206,9.30206,0,0,1-12.0002,2.4487c-.7319-.4211-1.4353.6922-.6982,1.1156a10.65624,10.65624,0,0,0,13.949-3.0365.54335.54335,0,0,0,.0263-.6415c3.7196-.5228,7.4127-2.5872,10.5745-4.6767a.67375.67375,0,0,0,.2933-.7186,18.9991,18.9991,0,0,0,4.097-.5824c3.2223-.8375,6.2099-3.9396,4.8011-6.9668a.73137.73137,0,0,0-.2945-1.0583C132.518,7.56755,132.2869,7.45685,132.0628,7.35075Zm-67.0141,7.6529q5.45505-2.39925,10.9749-4.648,1.5033-.616,3.0138-1.2166c3.448-1.5764,3.6996.0517,2.9979.9573q-4.6479,7.102-9.2943,14.2043c-2.8581,4.3656-6.7421,13.6761-12.2278,14.2272-5.6836.5698-12.3007-.8328-17.9812-1.2792-5.6434-.4439-10.9173-1.3215-16.4736-1.928C38.6717,28.17405,51.8333,20.81175,65.0487,15.00365Zm-26.8758,48.354a22.545,22.545,0,0,1-1.9198-3.6478.31784.31784,0,0,0,.0197-.0317.71273.71273,0,0,0-.498-1.0076c-.1629-.3557-.3249-.7125-.4891-1.0371q-2.62425-5.20275-5.2486-10.4057a.662.662,0,0,0-.2413-.4796l-4.8918-9.7001q12.2724,1.13415,24.5648,2.0262-4.36125,13.55115-8.4011,27.2022A13.80483,13.80483,0,0,1,38.1729,63.35765Zm50.6425-46.2239q2.20695,4.83855,4.0864,9.8176c.447,1.1809.8733,2.3678,1.2907,3.5592a.68165.68165,0,0,0-.1202.7676,1.82039,1.82039,0,0,0,.6176.6928c.3222.9486.6453,1.8961.9507,2.8501.889,2.7818,1.2332,3.7725.3306,6.4748a.57581.57581,0,0,0-.0963-.1443A124.904,124.904,0,0,0,74.9328,24.52a.65835.65835,0,0,0-.6992,1.1148,123.31953,123.31953,0,0,1,20.6795,16.4163.6298.6298,0,0,0,.7569.1136c-1.2658,3.4103-1.3296,3.0507-4.3877,4.5881-1.5899.8008-3.1916,1.5782-4.7921,2.3563q-5.28255,2.56965-10.6138,5.0387Q65.70055,58.86,55.3533,63.19375c-2.8712,1.2026-8.0972,4.5739-11.2309,4.4129a4.71111,4.71111,0,0,1-1.9014-.5998q4.12485-13.9251,8.5701-27.7536a.40909.40909,0,0,0,.0087-.0812q6.41175.46245,12.8273.8684a.66718.66718,0,0,0,.5886-.3075q9.5598-14.6109,19.1198-29.2217c1.4107-2.1595,2.1532.1578,2.7203.8697C87.0882,12.31925,88.2379,15.86785,88.8154,17.13375Z"/>
          <path d="M18.4857,48.95665c.7254.4337,1.4276-.6805.6974-1.1171a9.24383,9.24383,0,0,0-7.1423-1.0265c-.8192.2142-.5411,1.5013.279,1.286A7.9172,7.9172,0,0,1,18.4857,48.95665Z"/>
          <path d="M21.3994,53.22545c.8217.1938,1.219-1.0615.3923-1.2558q-3.4137-.8028-6.83-1.6067c-.821-.1924-1.2189,1.0616-.3927,1.2564Q17.98495,52.4226,21.3994,53.22545Z"/>
          <path d="M48.0597,34.92425q-5.0331-.8286-10.0648-1.657c-.8354-.138-.8865,1.179-.0599,1.3146q5.03085.82815,10.0637,1.6561C48.8345,36.37545,48.8863,35.05985,48.0597,34.92425Z"/>
          <path d="M51.7151,34.18925c.8237.1528,1.2252-1.1011.3928-1.2564q-4.0428-.75225-8.0842-1.506c-.8237-.1529-1.2252,1.101-.3927,1.2563Q47.673,33.43615,51.7151,34.18925Z"/>
          <path d="M86.6301,44.51535a38.90318,38.90318,0,0,1-7.9906,4.5174c-.7796.329-.1652,1.4914.6118,1.1658a40.36933,40.36933,0,0,0,8.2781-4.7224C88.2094,44.97545,87.3059,44.01775,86.6301,44.51535Z"/>
          <path d="M80.7691,44.82035c-.7882.3061-.1707,1.4691.6114,1.1662a22.91956,22.91956,0,0,0,6.3335-3.717c.6538-.5373-.2455-1.498-.8988-.9612A21.80665,21.80665,0,0,1,80.7691,44.82035Z"/>
          <path d="M118.0137,9.66955a.6587.6587,0,0,0-.6985,1.1161,14.30957,14.30957,0,0,0,9.646,2.045c.8393-.1157.5541-1.4005-.2794-1.2855A12.8956,12.8956,0,0,1,118.0137,9.66955Z"/>
          <path d="M130.1224,10.70335c.8423-.0832.554-1.3686-.2789-1.286a11.78032,11.78032,0,0,1-7.1692-1.6094c-.7273-.429-1.4291.6846-.6974,1.1171A13.26917,13.26917,0,0,0,130.1224,10.70335Z"/>
        </g>
      </g>
    </g>
  </g>
</svg>
