<?xml version="1.0" encoding="utf-8"?>
<!-- Generator: Adobe Illustrator 21.1.0, SVG Export Plug-In . SVG Version: 6.00 Build 0)  -->
<svg version="1.1" id="Capa_1" xmlns="http://www.w3.org/2000/svg" xmlns:xlink="http://www.w3.org/1999/xlink" x="0px" y="0px"
	 viewBox="0 0 91.6061 66.82301" style="enable-background:new 0 0 91.6061 66.82301;" xml:space="preserve">
<style type="text/css">
	.st0{fill:#AED142;}
	.st1{fill:#FFFFFF;}
	.st2{fill:#A58138;}
	.st3{fill:#A6DB61;}
	.st4{fill:#FCFCFC;}
</style>
<path class="st0" d="M61.59355,22.98308l19.3094,5.0233c-0.0636-0.1107-0.13609-0.2337-0.2328-0.3885
	c-0.7394-1.1808-0.6114-1.3775-2.1359-2.0773c-2.78253-1.08116-5.6222-2.00908-8.50625-2.77958
	c-3.8981-1.2829-7.792-2.57893-11.6817-3.8881c1.55687,0.84169,2.71958,2.26271,3.2364,3.9554
	C61.5986,22.87829,61.60232,22.93136,61.59355,22.98308z"/>
<path class="st1" d="M46.77625,30.53648c-0.2589-0.011-0.5176-0.0198-0.7743-0.0104c-4.3445,0.1559-9.05009,4.8358-3.6449,8.0795
	c0.44166,0.25743,0.90363,0.4783,1.3813,0.6604C44.70775,36.34178,45.72038,33.43195,46.77625,30.53648z"/>
<path class="st2" d="M57.47435,19.19718c-0.19025-0.08366-0.27666-0.30572-0.193-0.49597
	c0.02559-0.05818,0.06549-0.10894,0.116-0.14753c-1.4486-0.4872-2.89706-0.97437-4.3454-1.4615
	c-1.9902-0.674-3.97869-1.3525-5.9655-2.0355c-0.00625,0.15853-0.13984,0.28198-0.29837,0.27573
	c-0.00709-0.00028-0.01417-0.00082-0.02122-0.00163c-2.36032-0.18225-4.6973,0.57354-6.50391,2.1034l20.5832,5.3546
	C60.28578,21.16555,59.05901,19.85881,57.47435,19.19718z"/>
<path class="st1" d="M46.82465,40.96888c-0.872-0.3165-1.7822-0.5473-2.6486-0.8507c-0.822,2.4976-1.6131,5.0055-2.3733,7.5237
	c0.89037,0.3951,1.81861,0.69863,2.7704,0.9059c0.6369-2.1784,1.28077-4.35484,1.9316-6.5293
	C46.60975,41.66808,46.71895,41.319,46.82465,40.96888z"/>
<path class="st1" d="M61.56625,39.571c-0.06273-3.48833-1.013-6.90319-2.7612-9.9225c-2.1751-3.5567-5.3628-5.0339-9.5028-4.9987
	c-4.0549,0.0346-8.4312,0.1969-11.83439,2.6494c-3.11477,2.32072-5.09293,5.85886-5.43871,9.7277
	c-0.6435,6.3537,2.7771,14.493,9.3438,16.1784c0.2593,0.0551,0.519,0.1093,0.7784,0.1646
	c0.40512,0.07134,0.81421,0.11793,1.225,0.1395c0.11861,0.00334,0.2257,0.07188,0.2784,0.1782
	c1.24,0.2658,2.4786,0.5376,3.7174,0.8075c0.03762-0.19085,0.22234-0.31547,0.4134-0.2789
	C56.47815,55.86288,61.82145,47.24348,61.56625,39.571z M54.69155,32.7751c-0.0565,0.0803-0.113,0.1606-0.1695,0.2409
	c-0.07901,0.13145-0.23526,0.19503-0.3836,0.1561l-0.2262-0.0834c-0.4073-0.1506-0.2301-0.8067,0.1808-0.655
	c-1.12819-0.4166-2.33-0.8589-3.5561-1.2161c-0.9266,2.9546-1.8406,5.91306-2.742,8.8754c-0.0526,0.1738-0.1035,0.3478-0.156,0.5216
	c1.68443,0.50093,3.04253,1.75264,3.67891,3.3907c0.64097,2.11148-0.55112,4.34277-2.66259,4.98374
	c-0.02327,0.00706-0.04662,0.01392-0.07001,0.02056c-1.19571,0.40382-2.47492,0.49467-3.7157,0.2639
	c-0.4255,1.2657-0.7336,2.5582-0.3791,3.2355c0.2025,0.3871-0.384,0.7301-0.5868,0.3426c-0.5964-1.1394,0.0736-2.272,0.4171-3.4507
	c0.0212-0.073,0.0434-0.1459,0.0647-0.2191c-0.95346-0.2055-1.8844-0.50423-2.7794-0.8919
	c-0.2137,0.7108-0.4375,1.4182-0.6465,2.1305c-0.05636,0.17912-0.24726,0.27863-0.42638,0.22227
	c-0.17014-0.05354-0.26998-0.22944-0.22873-0.40297c0.2185-0.745,0.45241-1.4851,0.6762-2.2284
	c-0.7152-0.3327-1.3937-0.6949-2.0094-1.0559c-0.1587-0.10026-0.20608-0.3102-0.10582-0.4689
	c0.09551-0.15118,0.29184-0.2025,0.44912-0.1174c0.558,0.3272,1.1896,0.6692,1.86431,0.9892
	c0.759-2.50333,1.54636-4.9974,2.36209-7.4822c-2.332-0.948-4.8185-2.7246-4.295-5.5617c0.5574-3.0204,4.0486-4.379,6.756-4.4676
	c0.3412-0.0112,0.6811-0.0041,1.01991,0.0176c0.342-0.9368,0.67519-1.8767,1.02589-2.8105
	c0.1523-0.4061,0.80911-0.2291,0.6554,0.1805c-0.3376,0.8986-0.6577,1.8028-0.9872,2.7043
	c0.79834,0.10017,1.58786,0.26114,2.3617,0.4815c0.3257-1.0372,0.6466-2.0758,0.9756-3.1119
	c0.1319-0.4159,0.7878-0.2371,0.6554,0.1806c-0.3304,1.0406-0.6546,2.0835-0.9819,3.1253
	c0.24611,0.07733,0.49087,0.1578,0.7343,0.2414c1.0041,0.3461,2.6071,0.618,3.2305,1.5767
	c0.06379,0.10549,0.06409,0.23748-0.00001,0.34278C54.69155,32.77508,54.69155,32.7751,54.69155,32.7751z"/>
<path class="st1" d="M45.90465,46.41528c-0.151,0.5114-0.4889,1.332-0.8131,2.2224c1.29002,0.25094,2.62661,0.07767,3.81-0.4939
	c3.1652-1.6748,1.6172-5.2762-0.79269-6.6074c-0.21131-0.1168-0.43-0.219-0.65131-0.3152
	C46.93596,42.95138,46.41832,44.68274,45.90465,46.41528z"/>
<path class="st3" d="M89.48686,31.32c0.03082-0.12057,0.08097-0.23536,0.14849-0.3399c-0.7082-0.1843-1.41647-0.36853-2.1248-0.5527
	l-0.0006,0.0009c-0.1188,0.15942-0.34435,0.19235-0.50378,0.07355c-0.07822-0.05828-0.12943-0.14581-0.14192-0.24255l-4.6817-1.218
	c-0.05117,0.1608-0.22301,0.24967-0.3838,0.1985c-0.05556-0.01768-0.1049-0.05089-0.1422-0.0957
	c-0.0954-0.1164-0.1692-0.212-0.2353-0.3009c-15.5251-4.03861-31.05003-8.07735-46.5748-12.1162
	c-4.55859-1.1858-9.11696-2.37157-13.6751-3.5573c-1.06671-0.38072-2.16499-0.66643-3.282-0.8538
	c-1.8832-0.125-1.9722,0.0108-2.45049,1.9011c-0.59371,2.3457-1.19757,4.68877-1.8116,7.0292
	c-2.346,8.941-4.8408,17.841-7.4844,26.7c24.93169,6.0043,49.86332,12.00864,74.79489,18.013
	c1.6844-5.7054,3.36857-11.41096,5.0525-17.1167l2.53761-8.5969c0.4228-1.43267,0.8457-2.8655,1.26869-4.2985
	c0.2116-0.7164,0.42303-1.43283,0.63431-2.1493c0.51808-0.72367,0.39238-1.72409-0.28861-2.2971
	C90.03855,31.92588,89.38315,31.74458,89.48686,31.32z"/>
<path class="st1" d="M86.41286,38.6752c-1.82111,6.2955-3.64214,12.59096-5.46311,18.8864
	c0.13784,0.13825,0.1375,0.36206-0.00074,0.4999c-0.08263,0.08239-0.20061,0.11869-0.31526,0.097
	c-2.52119-0.47311-5.02398,0.90722-5.969,3.292c-0.1492,0.3853-0.7454,0.2398-0.6641-0.1279
	c-10.6509-2.5904-21.33714-5.02514-32.0587-7.3042c-0.186-0.0346-0.3705-0.0726-0.5524-0.1167
	c-9.161-1.9456-18.34507-3.78013-27.5522-5.5036c-0.15548-0.02139-0.26418-0.16478-0.24279-0.32026
	c0.00193-0.01402,0.0049-0.02787,0.00889-0.04144c-0.08447-0.07893-0.12078-0.19672-0.0954-0.3095
	c0.52318-2.59692-0.86101-5.20175-3.306-6.2214c-0.18511-0.07636-0.27328-0.28833-0.19691-0.47345
	c0.03453-0.08371,0.09914-0.15147,0.18111-0.18995c-0.01395-0.06915-0.00595-0.14093,0.0229-0.2053
	c2.9696-6.4864,5.8536-13.0582,6.0974-20.2953c0.00014-0.00543,0.00184-0.01071,0.0049-0.0152
	c-0.1112-0.0547-0.2237-0.0954-0.3346-0.1514c-0.391-0.1972-0.0464-0.7828,0.343-0.5865
	c1.74914,0.92555,3.9174,0.2579,4.84295-1.49124c0.3188-0.60249,0.45914-1.28341,0.40454-1.96286
	c-0.0204-0.3699,0.4593-0.4214,0.6231-0.1668c0.04039-0.17725,0.21681-0.28819,0.39406-0.24781
	c0.00443,0.00101,0.00885,0.00211,0.01324,0.00331c19.7096,4.9741,39.41927,9.94813,59.12901,14.9221
	c0.17912,0.0561,0.27885,0.24678,0.22275,0.4259c-0.05342,0.17057-0.22984,0.27061-0.40364,0.2289
	c-19.7096-4.97394-39.41917-9.9479-59.1287-14.9219c-0.06821-0.01685-0.12855-0.05664-0.1709-0.1127
	c0.09136,2.33714-1.72921,4.30583-4.06635,4.39718c-0.40556,0.01585-0.81129-0.02668-1.20474-0.12628
	c-0.2926,7.2779-3.1878,13.9096-6.1789,20.4436c-0.0098,0.01612-0.02102,0.03135-0.0335,0.0455
	c2.53194,1.22106,3.93358,3.9855,3.4222,6.7496c8.0185,1.4986,16.0193,3.08427,24.0024,4.757
	c-3.9737-2.5222-6.3648-7.5086-6.823-12.1913c-0.6221-6.3582,2.5682-13.0314,8.8338-15.2472
	c3.90377-1.26199,8.04894-1.59164,12.1031-0.9625c2.48417,0.45566,4.70084,1.84206,6.1977,3.8763
	c6.5337,8.462,4.204,27.087-8.2296,27.1208c8.0205,1.76867,16.02201,3.62256,24.00451,5.5617
	c1.13541-2.22531,3.5229-3.52277,6.00779-3.2649c1.8239-6.3058,3.64793-12.61153,5.4721-18.9172
	c-3.04076-1.1017-4.67796-4.39948-3.7173-7.4877c0.1366-0.4141,0.7925-0.2356,0.65541,0.1805
	c-0.89425,2.82445,0.67049,5.83905,3.49494,6.73329c0.09444,0.0299,0.1897,0.05718,0.28565,0.08181
	c0.1787,0.05481,0.27913,0.24411,0.22432,0.42281c-0.03934,0.12824-0.1507,0.22115-0.28392,0.23687L86.41286,38.6752z"/>
<path class="st2" d="M52.3964,24.12274c-4.0542-0.62915-8.19934-0.2995-12.10309,0.96246
	c-6.26563,2.21582-9.45593,8.88904-8.8338,15.24719c0.45819,4.68274,2.84925,9.66913,6.823,12.19135
	c-0.03729-0.00781-0.07477-0.01501-0.11206-0.02283c0.02484,0.01837,0.04919,0.03705,0.07349,0.05591
	c0.83527,0.17413,1.53412,0.53308,2.08826,1.02527c0.23895,0.01624,0.47809,0.03021,0.71716,0.07385
	c1.76093,0.32153,3.43311,0.86334,5.21875,1.12933c0.68579,0.10217,1.35205,0.24878,2.03058,0.38434
	c0.62579,0.07983,0.77722,0.12598,0.45422,0.13855c0.69189,0.03931,0.76563,0.03021,0.22137-0.02722
	c0.63196-0.2265,1.28625-0.27649,1.92352-0.18781c11.95941-0.5647,14.13415-18.75623,7.69629-27.09412
	C57.0972,25.96478,54.88053,24.57837,52.3964,24.12274z"/>
<path class="st1" d="M79.54965,33.6863c0.0341-0.4336,0.7137-0.4357,0.6797,0c-0.14572,1.59853,0.44765,3.17593,1.6108,4.2821
	c0.31471,0.305-0.1662,0.7846-0.4806,0.4803c-1.2903-1.23352-1.95528-2.98329-1.80991-4.76242
	C79.54964,33.68628,79.54964,33.6863,79.54965,33.6863z"/>
<path class="st1" d="M80.83305,40.5266c-1.46316-0.94884-2.37395-2.54955-2.44219-4.2921c-0.02031-0.4376,0.65939-0.4352,0.67929,0
	c0.06089,1.5032,0.84555,2.88397,2.1058,3.7056c0.3642,0.23977,0.0233,0.8279-0.34295,0.58648L80.83305,40.5266z"/>
<path class="st1" d="M65.51965,43.59261c-0.07299,1.14753-0.35545,2.272-0.8334,3.3178c-0.1803,0.3979-0.7661,0.0522-0.5868-0.3429
	c0.42577-0.93832,0.67672-1.94647,0.7405-2.9749c0.02819-0.43473,0.70779-0.43642,0.6797-0.00003
	C65.51966,43.59258,65.51966,43.59261,65.51965,43.59261z"/>
<path class="st1" d="M62.79586,43.8824c-0.04791-0.4345,0.63219-0.4298,0.67939,0c0.19983,1.78542-0.39557,3.56839-1.6281,4.8755
	c-0.2979,0.3218-0.7771-0.1598-0.4806-0.4803c1.10484-1.18051,1.62846-2.79066,1.42931-4.39522V43.8824z"/>
<path class="st1" d="M31.72445,27.99268c-0.3011,0.3185-0.7809-0.1626-0.4807-0.4803c1.05308-1.11904,2.32589-2.00858,3.7387-2.6129
	c0.3979-0.1706,0.7439,0.4149,0.3429,0.5865C33.96469,26.06368,32.73859,26.91721,31.72445,27.99268z"/>
<path class="st1" d="M35.03225,28.01508c-1.19438,0.64645-2.13149,1.68226-2.6555,2.9352
	c-0.1657,0.3987-0.8227,0.2227-0.6553-0.1805c0.57619-1.42155,1.62422-2.60139,2.9679-3.3412
	C35.07315,27.21728,35.41555,27.80408,35.03225,28.01508z"/>
<path class="st1" d="M21.94155,48.05208c0.4302,0.0777,0.2469,0.7321-0.1809,0.6549c-1.73824-0.31372-3.44843-0.76678-5.114-1.3548
	c-0.4104-0.1448-0.2326-0.8008,0.1806-0.655C18.49291,47.28528,20.2032,47.73838,21.94155,48.05208z"/>
<path class="st1" d="M19.08535,21.01838c1.11844,0.15992,2.22258-0.37221,2.7943-1.3467
	c0.10054-0.15859,0.31061-0.20565,0.4692-0.10511c0.15055,0.09545,0.20183,0.29096,0.1175,0.44801
	c-0.73312,1.23288-2.14647,1.891-3.5619,1.6586C18.47286,21.60828,18.65725,20.954,19.08535,21.01838z"/>
<path class="st1" d="M19.51305,46.66288c-0.1791-0.05613-0.27878-0.24683-0.22264-0.42593
	c0.05342-0.17043,0.22964-0.27042,0.40335-0.22887c1.2213,0.3058,2.44257,0.6117,3.6638,0.9177
	c0.17915,0.0561,0.27891,0.2468,0.22281,0.42595c-0.05337,0.17046-0.22957,0.27053-0.40331,0.22905
	C21.95568,47.27478,20.73435,46.96881,19.51305,46.66288z"/>
<path class="st1" d="M21.51025,22.79048c-0.39439,0.1839-0.739-0.4018-0.343-0.5864c1.31971-0.60025,2.34776-1.69903,2.859-3.0557
	c0.1524-0.4063,0.8088-0.2291,0.6554,0.1807C24.12367,20.85676,22.9834,22.1013,21.51025,22.79048z"/>
<path class="st3" d="M7.14275,42.09018c0.2192-0.7558,0.4306-1.5138,0.6479-2.27c-0.02732-0.03585-0.04724-0.07678-0.0586-0.1204
	c-0.40474-1.61845-1.42097-3.01706-2.8352-3.902c-0.07599-0.04567-0.12965-0.1208-0.1482-0.2075
	c-0.13924-0.0632-0.20493-0.22411-0.1497-0.3667c2.723-8.1807,5.44603-16.3613,8.1691-24.5418
	c0.0645-0.18375,0.26575-0.28042,0.4495-0.21592c0.04094,0.01437,0.07888,0.03618,0.1119,0.06432
	c-0.00561-0.1633,0.12223-0.30023,0.28553-0.30584c0.01304-0.00045,0.02609-0.00003,0.03907,0.00124
	c2.69488,0.12359,4.97971-1.96085,5.10331-4.65574c0.00268-0.05852,0.00431-0.11708,0.00489-0.17566
	c-0.00643-0.16081,0.11247-0.29926,0.2724-0.3172c-0.0589-0.2332,0.109-0.5182,0.396-0.4155
	c20.3625,7.2852,40.83347,14.25627,61.4129,20.9132c0.14515,0.04389,0.24572,0.176,0.2494,0.3276
	c0.3008,0.7961,0.60187,1.5922,0.9032,2.3883l5.2506,1.366c0.6565-0.8731,1.6705-2.2985,1.3984-3.0721
	c-0.4096-1.166-2.8786-1.4961-3.8827-1.8417l-7.4612-2.5686c-4.9744-1.7123-9.94863-3.42463-14.9227-5.137
	c-9.9485-3.42479-19.89694-6.84959-29.84531-10.2744L17.61086,1.626l-2.132-0.734c-1.28047,0.4931-2.21904,1.60784-2.4868,2.9536
	c-0.433,1.0003-0.7328,2.1283-1.0873,3.1589c-0.84589,2.4569-1.69166,4.9137-2.5373,7.3704
	c-1.7518,5.0892-3.5036,10.17833-5.2554,15.2674c-0.8456,2.4569-1.6913,4.91373-2.5371,7.3705l-0.5437,1.5794
	c-0.05857,0.80952,0.5432,1.51631,1.3517,1.5876c1.2361,0.9675,3.2591,1.3792,4.7512,1.9052L7.14275,42.09018z"/>
<path class="st0" d="M13.65405,10.905c-0.08512-0.00403-0.16534-0.041-0.2237-0.1031
	c-0.00041,0.02032-0.00279,0.04054-0.0071,0.0604c-2.70639,8.1312-5.41286,16.26223-8.1194,24.3931
	c1.27709,0.81706,2.26111,2.01924,2.8097,3.4326c2.5962-9.0798,5.0463-18.1995,7.3503-27.3591
	c0.05237-0.1791,0.23762-0.28413,0.4182-0.2371l23.6008,6.1395c0.01696-0.03322,0.03941-0.06335,0.06639-0.0891
	c1.72971-1.56662,3.96634-2.45698,6.2995-2.5077c-8.8231-3.0256-17.62606-6.10913-26.40889-9.2506l0.00219,0.0066
	c-0.02829,3.0761-2.5449,5.54683-5.62099,5.51854C13.76536,10.90853,13.70969,10.90718,13.65405,10.905z"/>
<path d="M90.39555,30.504c-0.03605-0.02804-0.07746-0.04839-0.12169-0.0598l-2.34881-0.6111
	c0.77219-1.16542,1.28976-2.48067,1.5189-3.8598c0.04393-0.18007-0.06005-0.36318-0.2372-0.4177
	c-20.4296-7.0329-40.85936-14.06583-61.2893-21.0988c-2.6648-0.9173-5.32953-1.83463-7.9942-2.752
	c-1.4958-0.5149-4.1346-2.1538-5.71939-1.5873c-0.6991,0.25-0.8279,0.8433-1.1424,1.4418c-1.1551,2.1997-1.7307,5.028-2.5371,7.3704
	L0.01375,39.46448c-0.04053,0.1484,0.02328,0.30557,0.1558,0.3837c2.19697,1.10826,4.46291,2.07415,6.7838,2.8917
	c-0.4897,1.6826-0.9723,3.3674-1.4722,5.047l-0.0321-0.0077c-0.425-0.1024-0.6064,0.5523-0.1809,0.6549
	c25.4373,6.1261,50.87437,12.25213,76.3112,18.3781c0.425,0.1024,0.6064-0.5524,0.1808-0.6551
	c-0.0536-0.0127-0.107-0.0258-0.1605-0.0386c2.58067-8.7431,5.16133-17.48633,7.742-26.2297
	c0.6333-2.1451,1.3326-4.2851,1.9031-6.4476c0.1795-0.6794,0.6734-1.8681,0.0716-2.5515
	C91.0918,30.61715,90.74731,30.47286,90.39555,30.504z M2.383,40.17978c-0.8085-0.07129-1.41027-0.77808-1.3517-1.5876
	l0.5437-1.5794c0.8457-2.4569,1.6914-4.91373,2.5371-7.3705c1.75181-5.089,3.50361-10.17813,5.2554-15.2674
	c0.8459-2.4567,1.69167-4.9135,2.5373-7.3704c0.3545-1.0306,0.6543-2.1586,1.0873-3.1589
	c0.26776-1.34574,1.20631-2.46047,2.48676-2.95358l2.132,0.734l14.92239,5.1368c9.9485,3.425,19.89694,6.8498,29.8453,10.2744
	c4.97411,1.7122,9.94833,3.42453,14.9227,5.137l7.4612,2.5686c1.0041,0.3456,3.4731,0.6757,3.8827,1.8417
	c0.2721,0.7736-0.7419,2.199-1.3984,3.0721l-5.2506-1.366c-0.3012-0.7961-0.60226-1.5922-0.9032-2.3883
	c-0.00368-0.1516-0.10425-0.28371-0.2494-0.3276c-20.5771-6.65631-41.04806-13.62738-61.4129-20.91322
	c-0.287-0.1027-0.4549,0.1823-0.396,0.4155c-0.15993,0.01794-0.27883,0.15639-0.2724,0.3172
	c-0.02658,2.69759-2.23495,4.86287-4.93253,4.83629c-0.05858-0.00058-0.11714-0.00221-0.17567-0.00489
	c-0.16262-0.01597-0.30739,0.10291-0.32336,0.26553c-0.00127,0.01298-0.00169,0.02603-0.00124,0.03907
	c-0.14823-0.1263-0.37078-0.10853-0.49708,0.0397c-0.02814,0.03303-0.04995,0.07096-0.06432,0.1119
	c-2.72319,8.1805-5.44621,16.3611-8.16905,24.5418c-0.05523,0.14259,0.01046,0.3035,0.1497,0.3667
	c0.01855,0.0867,0.07221,0.16183,0.1482,0.2075c1.41423,0.88495,2.43046,2.28355,2.8352,3.902
	c0.01136,0.04362,0.03128,0.08455,0.0586,0.1204c-0.2173,0.7562-0.4287,1.5142-0.6479,2.27l-0.0086-0.0052
	C5.64205,41.559,3.61905,41.14728,2.383,40.17978z M19.4399,5.38388c8.78259,3.1412,17.58556,6.22473,26.40889,9.2506
	c-2.33316,0.05072-4.56979,0.94108-6.2995,2.5077c-0.02699,0.02575-0.04943,0.05588-0.06639,0.0891l-23.6008-6.1395
	c-0.18058-0.04703-0.36583,0.058-0.4182,0.2371c-2.29261,9.162-4.74271,18.2817-7.3503,27.3591
	c-0.54859-1.41336-1.53261-2.61554-2.8097-3.4326c2.70629-8.1311,5.41276-16.26213,8.1194-24.3931
	c0.00431-0.01986,0.00669-0.04008,0.0071-0.0604c0.05836,0.0621,0.13858,0.09907,0.2237,0.1031
	c3.07348,0.12091,5.66304-2.27261,5.78396-5.34609c0.00216-0.05488,0.00351-0.10979,0.00404-0.16471L19.4399,5.38388z
	 M46.7669,15.33078c0.15763,0.01797,0.29999-0.09524,0.31797-0.25288c0.0008-0.00705,0.00135-0.01413,0.00163-0.02122
	c1.9877,0.6805,3.9762,1.359,5.9655,2.0355c1.4473,0.4903,2.89576,0.97747,4.3454,1.4615
	c-0.16514,0.12619-0.19672,0.36236-0.07053,0.5275c0.03859,0.0505,0.08935,0.09041,0.14753,0.116
	c1.58466,0.66163,2.81143,1.96837,3.3718,3.5916l-20.5832-5.3546c1.8066-1.52985,4.14357-2.28564,6.50387-2.1034L46.7669,15.33078z
	 M58.34639,18.87288c3.8906,1.3062,7.7845,2.60223,11.6817,3.8881c2.88403,0.77051,5.72369,1.69843,8.5062,2.7796
	c1.5245,0.6998,1.3965,0.8965,2.1359,2.0773c0.09671,0.1548,0.1692,0.2778,0.2328,0.3885l-19.3094-5.0233
	c0.00879-0.05172,0.00509-0.1048-0.0108-0.1548c-0.51683-1.6927-1.67956-3.11372-3.23645-3.9554H58.34639z M90.4309,33.79778
	c-0.21151,0.7166-0.42294,1.43303-0.63431,2.1493c-0.42281,1.433-0.8457,2.86583-1.26869,4.2985l-2.53761,8.5969
	c-1.6841,5.7055-3.36827,11.41107-5.0525,17.1167c-24.9316-6.0043-49.86323-12.00863-74.79489-18.013
	c2.63729-8.8596,5.13209-17.7596,7.4844-26.7c0.6142-2.3404,1.21807-4.68347,1.8116-7.0292
	c0.4783-1.8903,0.5673-2.0261,2.4505-1.9011c1.11701,0.18737,2.21529,0.47308,3.282,0.8538
	c4.5583,1.1858,9.11667,2.37157,13.6751,3.5573c15.5249,4.03867,31.04984,8.0774,46.5748,12.1162
	c0.0661,0.0889,0.1399,0.1845,0.2353,0.3009c0.10795,0.1297,0.3006,0.14734,0.4303,0.0394
	c0.04482-0.0373,0.07803-0.08664,0.0957-0.1422l4.6817,1.218c0.02541,0.19715,0.20584,0.33637,0.40299,0.31096
	c0.09665-0.01246,0.18411-0.06357,0.24241-0.14166l0.0009-0.0012c0.7084,0.184,1.41667,0.36823,2.1248,0.5527
	c-0.06752,0.10454-0.11767,0.21933-0.14849,0.3399c-0.10371,0.4246,0.55169,0.6059,0.65539,0.1807
	c0.68098,0.57303,0.80666,1.57344,0.28857,2.2971L90.4309,33.79778z"/>
<path d="M86.47245,38.01548c-2.86963-0.73649-4.59888-3.65982-3.8624-6.52946c0.02463-0.09595,0.05191-0.1912,0.08181-0.28564
	c0.13709-0.4161-0.51881-0.5946-0.65541-0.1805c-0.96066,3.08822,0.67654,6.386,3.7173,7.4877
	c-1.82389,6.3056-3.64793,12.61134-5.4721,18.9172c-2.48489-0.25787-4.87238,1.03959-6.00779,3.2649
	c-7.98133-1.9419-15.98284-3.7958-24.00451-5.5617c12.4336-0.0338,14.7633-18.6588,8.2296-27.1208
	c-1.49686-2.03424-3.71353-3.42064-6.1977-3.8763c-4.05416-0.62914-8.19933-0.29949-12.1031,0.9625
	c-6.2656,2.2158-9.4559,8.889-8.8338,15.2472c0.4582,4.6827,2.8493,9.6691,6.823,12.1913
	c-7.9833-1.67-15.9841-3.25567-24.0024-4.757c0.51138-2.7641-0.89026-5.52854-3.4222-6.7496
	c0.01248-0.01415,0.02369-0.02938,0.0335-0.0455c2.9911-6.534,5.8863-13.1657,6.1789-20.4436
	c2.2674,0.57401,4.57081-0.79876,5.14482-3.06616c0.09961-0.39346,0.14213-0.79919,0.12628-1.20474
	c0.04235,0.05606,0.10269,0.09585,0.1709,0.1127c19.7096,4.9739,39.41917,9.94786,59.12872,14.9219
	c0.18252,0.0438,0.36599-0.06864,0.40979-0.25116c0.04172-0.17381-0.05833-0.35022-0.2289-0.40364
	c-19.70984-4.9741-39.41951-9.94813-59.12901-14.92208c-0.17542-0.0477-0.35629,0.05584-0.40399,0.23126
	c-0.00119,0.00439-0.0023,0.0088-0.00331,0.01324c-0.1638-0.2546-0.6435-0.2031-0.6231,0.1668
	c0.15851,1.97256-1.31207,3.70013-3.28463,3.85864c-0.67945,0.0546-1.36037-0.08574-1.96286-0.40454
	c-0.3894-0.1963-0.734,0.3893-0.343,0.5865c0.1109,0.056,0.2234,0.0967,0.3355,0.1426
	c-0.00293,0.00773-0.00488,0.01579-0.0058,0.024c-0.2438,7.2371-3.1278,13.8089-6.0974,20.2953
	c-0.02884,0.06437-0.03685,0.13615-0.0229,0.2053c-0.18127,0.08509-0.25924,0.30102-0.17415,0.48229
	c0.03848,0.08197,0.10624,0.14658,0.18995,0.18111c2.44499,1.01965,3.82918,3.62449,3.306,6.2214
	c-0.02538,0.11279,0.01093,0.23058,0.0954,0.3095c-0.04428,0.15057,0.04189,0.30853,0.19247,0.35281
	c0.01357,0.00399,0.02742,0.00697,0.04143,0.00889c9.20751,1.7194,18.39157,3.55393,27.5522,5.5036
	c0.1819,0.0441,0.3664,0.0821,0.5524,0.1167c10.71991,2.2822,21.40614,4.71693,32.0587,7.3042
	c-0.0813,0.3677,0.5149,0.5132,0.6641,0.1279c0.94502-2.38478,3.44781-3.76511,5.969-3.292
	c0.19182,0.03628,0.37673-0.08982,0.41301-0.28164c0.02168-0.11466-0.01462-0.23263-0.09701-0.31526
	c1.8208-6.2956,3.64184-12.59106,5.46311-18.8864c0.18563-0.02185,0.31841-0.19005,0.29656-0.37568
	C86.69374,38.16622,86.60078,38.05479,86.47245,38.01548z M47.78555,54.21618c-0.19106-0.03657-0.37577,0.08805-0.4134,0.2789
	c-1.2388-0.2699-2.4774-0.5417-3.7174-0.8075c-0.0527-0.10632-0.15979-0.17486-0.2784-0.1782
	c-0.41079-0.02157-0.81988-0.06816-1.225-0.1395c-0.2594-0.0553-0.5191-0.1095-0.7784-0.1646
	c-6.5667-1.6854-9.9873-9.8247-9.3438-16.1784c0.34578-3.86884,2.32394-7.40698,5.43871-9.7277
	c3.40319-2.4525,7.77949-2.6148,11.83439-2.6494c4.14-0.0352,7.3277,1.442,9.5028,4.9987
	c1.7482,3.01931,2.69847,6.43417,2.7612,9.9225C61.82145,47.24348,56.47815,55.86288,47.78555,54.21618z"/>
<path class="st4" d="M51.461,30.85558c-0.243-0.0839-0.48776-0.16437-0.7343-0.2414c0.3273-1.0418,0.6515-2.0847,0.9819-3.1253
	c0.1324-0.4177-0.5235-0.5965-0.6554-0.1806c-0.329,1.0361-0.6499,2.0747-0.9756,3.1119
	c-0.77383-0.22036-1.56336-0.38133-2.3617-0.4815c0.3295-0.9015,0.6496-1.8057,0.9872-2.7043
	c0.15371-0.4096-0.5031-0.5866-0.6554-0.1805c-0.3507,0.9338-0.68389,1.8737-1.02589,2.8105
	c-0.33881-0.0217-0.67871-0.0288-1.01991-0.0176c-2.7074,0.0886-6.1986,1.4472-6.756,4.4676
	c-0.5235,2.8371,1.963,4.6137,4.295,5.5617c-0.8183,2.4838-1.60566,4.97787-2.36209,7.4822
	c-0.67471-0.32-1.30631-0.662-1.86431-0.9892c-0.1651-0.08934-0.37136-0.02792-0.4607,0.13718
	c-0.0851,0.15728-0.03378,0.3536,0.1174,0.44912c0.6157,0.361,1.2942,0.7232,2.0094,1.0559
	c-0.22379,0.7433-0.4577,1.4834-0.6762,2.2284c-0.04343,0.18269,0.06945,0.36599,0.25214,0.40942
	c0.17352,0.04126,0.34943-0.05859,0.40297-0.22873c0.209-0.7123,0.4328-1.4197,0.6465-2.1305
	c0.895,0.38766,1.82594,0.6864,2.7794,0.8919c-0.0213,0.0732-0.0435,0.1461-0.0647,0.2191
	c-0.3435,1.1787-1.0135,2.3113-0.4171,3.4507c0.2028,0.3875,0.7893,0.0445,0.5868-0.3426
	c-0.3545-0.6773-0.0464-1.9698,0.3791-3.2355c1.24078,0.23077,2.51999,0.13992,3.7157-0.2639
	c2.12283-0.6023,3.35546-2.81145,2.75317-4.93428c-0.00664-0.0234-0.01349-0.04674-0.02056-0.07001
	c-0.63638-1.63806-1.99448-2.88977-3.67891-3.3907c0.0525-0.1738,0.1034-0.3478,0.156-0.5216
	c0.8973-2.9637,1.8113-5.92216,2.742-8.8754c1.2261,0.3572,2.42791,0.7995,3.5561,1.2161c-0.4109-0.1517-0.5881,0.5044-0.1808,0.655
	l0.2262,0.0834c0.14834,0.03893,0.30458-0.02465,0.3836-0.1561c0.0566-0.0803,0.1131-0.1606,0.1695-0.2409
	c0.06365-0.1054,0.06365-0.2374,0-0.3428C54.06815,31.47358,52.46515,31.20168,51.461,30.85558z M42.357,38.60558
	c-5.40519-3.2437-0.6996-7.9236,3.6449-8.0795c0.2567-0.0094,0.5154-0.0006,0.7743,0.0104
	c-1.0511,2.8969-2.06373,5.80673-3.0379,8.7295C43.26063,39.08388,42.79866,38.86301,42.357,38.60558z M44.5731,48.54778
	c-0.95179-0.20727-1.88003-0.5108-2.7704-0.9059c0.7626-2.5172,1.5537-5.0251,2.3733-7.5237
	c0.8664,0.3034,1.7766,0.5342,2.6486,0.8507c-0.1057,0.3501-0.2149,0.6992-0.3199,1.0496
	c-0.65286,2.1738-1.29671,4.35023-1.93155,6.5293H44.5731z M48.10881,41.53638c2.40989,1.3312,3.95789,4.9326,0.79269,6.6074
	c-1.1834,0.57158-2.51998,0.74484-3.81,0.4939c0.3242-0.8904,0.6621-1.711,0.8131-2.2224
	c0.5116-1.733,1.02923-3.46437,1.5529-5.1941c0.22137,0.0962,0.44006,0.1984,0.65137,0.3152H48.10881z M47.0054,40.37548
	c-0.8691-0.3083-1.772-0.5703-2.6303-0.8716c0.9891-2.9861,2.0232-5.957,3.1023-8.9127
	c0.81227,0.08775,1.61676,0.23671,2.4066,0.4456c-0.97437,3.1083-1.93388,6.2212-2.87855,9.33871L47.0054,40.37548z"/>
<path d="M16.64665,47.35218c1.66557,0.58802,3.37576,1.04108,5.114,1.3548c0.4278,0.0772,0.6111-0.5772,0.1809-0.6549
	c-1.73835-0.3137-3.44864-0.7668-5.1143-1.3549C16.41405,46.55138,16.23625,47.20738,16.64665,47.35218z"/>
<path d="M23.35755,46.92578c-1.2213-0.306-2.44257-0.6119-3.6638-0.9177c-0.18254-0.04366-0.36591,0.06892-0.40958,0.25146
	c-0.04155,0.1737,0.05845,0.34993,0.22888,0.40334c1.2215,0.3059,2.44283,0.61187,3.664,0.9179
	c0.1826,0.04359,0.36596-0.0691,0.40955-0.25169C23.62807,47.15535,23.52801,46.97916,23.35755,46.92578z"/>
<path d="M34.68935,27.42858c-1.34368,0.73981-2.3917,1.91965-2.9679,3.3412c-0.1674,0.4032,0.4896,0.5792,0.6553,0.1805
	c0.52401-1.25294,1.46112-2.28875,2.6555-2.9352C35.41555,27.80408,35.07315,27.21728,34.68935,27.42858z"/>
<path d="M34.98245,24.89948c-1.41281,0.60432-2.68562,1.49386-3.7387,2.6129c-0.3002,0.3177,0.1796,0.7988,0.4807,0.4803
	c1.01414-1.07547,2.24024-1.929,3.6009-2.5067C35.72635,25.31438,35.38035,24.72888,34.98245,24.89948z"/>
<path d="M61.84715,48.75788c1.23253-1.30711,1.82793-3.09008,1.6281-4.8755c-0.0472-0.4298-0.7273-0.4345-0.67939,0
	c0.19914,1.60455-0.32447,3.21469-1.42931,4.3952C61.07,48.59808,61.54925,49.07968,61.84715,48.75788z"/>
<path d="M64.83995,43.59258c-0.06378,1.02843-0.31473,2.03658-0.7405,2.9749c-0.1793,0.3951,0.4065,0.7408,0.5868,0.3429
	c0.47795-1.0458,0.76041-2.17027,0.8334-3.3178C65.54775,43.15618,64.86815,43.15788,64.83995,43.59258z"/>
<path d="M81.84015,37.96838c-1.16315-1.10617-1.75652-2.68357-1.6108-4.2821c0.034-0.4357-0.6456-0.4336-0.6797,0
	c-0.14537,1.77912,0.51961,3.52888,1.8099,4.7624C81.67395,38.753,82.15486,38.27338,81.84015,37.96838z"/>
<path d="M79.07015,36.23448c-0.0199-0.4352-0.6996-0.4376-0.67929,0c0.06824,1.74255,0.97903,3.34325,2.44219,4.2921
	c0.3662,0.2414,0.7071-0.3467,0.3429-0.5865C79.9157,39.11845,79.13104,37.73768,79.07015,36.23448z"/>
<path d="M22.46635,20.01458c0.08884-0.16543,0.02674-0.37156-0.13869-0.4604c-0.15705-0.08433-0.35256-0.03306-0.44801,0.1175
	c-0.57172,0.97449-1.67586,1.50662-2.7943,1.3467c-0.4281-0.0644-0.61249,0.5899-0.1809,0.6548
	C20.31988,21.90559,21.73323,21.24746,22.46635,20.01458z"/>
<path d="M24.02625,19.14838c-0.51124,1.35667-1.53929,2.45545-2.859,3.0557c-0.396,0.1846-0.05139,0.7703,0.343,0.5864
	c1.47315-0.68918,2.61342-1.93372,3.1714-3.4614C24.83505,18.91928,24.17865,18.74208,24.02625,19.14838z"/>
</svg>
