<svg xmlns="http://www.w3.org/2000/svg" viewBox="0 0 126.60377 177.73852">
  <title>Recurso 18</title>
  <g id="Capa_2" data-name="Capa 2">
    <g id="Editar">
      <g>
        <g>
          <g>
            <g>
              <path d="M119.39669,165.82135v3.2129c-.2168.2324-.4278.4512-.6328.6738a2.80977,2.80977,0,0,1-2.584,1.0469,2.08031,2.08031,0,0,0-.6133,0,2.88261,2.88261,0,0,1-2.5947-1.0215c-.3662-.3691-.752-.6933-.6895-1.2891a1.00535,1.00535,0,0,0-.1123-.4414,1.31052,1.31052,0,0,0-2.5156.1329,1.78072,1.78072,0,0,0-.0664.6074,4.17448,4.17448,0,0,1-.4072,2.082,2.19341,2.19341,0,0,0-.1846.8926,4.40228,4.40228,0,0,1-.8506,2.2676,2.11307,2.11307,0,0,1-1.7617,1.0586c-.7119.0371-1.4287.0078-2.1162.0078a3.83153,3.83153,0,0,1-1.1739-2.9551c-.0664-1.5332-.0136-3.0703-.0283-4.6055a3.022,3.022,0,0,1,.3975-1.459c.4062-.7695.7637-1.5625,1.1465-2.3437a1.29121,1.29121,0,0,0-.2559-1.6777,1.70263,1.70263,0,0,0-1.8545-.3575,4.5468,4.5468,0,0,0-.8857.6016c-.7774.5781-1.541,1.1777-2.3321,1.7402a1.87964,1.87964,0,0,1-.8261.3535c-1.0157.1114-2.0352.2012-3.0547.2325-.6113.0195-.9033-.2461-.919-.7969-.0263-.918-.0127-1.8399.0332-2.7578a2.46237,2.46237,0,0,1,.7979-1.6172c.6142-.6172,1.1807-1.2891,1.8457-1.8457a6.54425,6.54425,0,0,1,2.9355-1.5547c1.2032-.2305,2.3965-.5098,3.5928-.7715.1494-.0332.2979-.0742.4453-.1191.6319-.1895.8653-.4453.8399-.916a.9563.9563,0,0,0-.9014-.8985,15.36,15.36,0,0,0-2.2734-.2597c-1.7188-.0567-2.1309-.0547-2.9219-2.0899a14.74269,14.74269,0,0,1-.6875-2.6719,3.11047,3.11047,0,0,1,3.5078-3.8339,6.41257,6.41257,0,0,1,2.7686.83,2.92727,2.92727,0,0,1,1.0644,1.0586,30.14891,30.14891,0,0,1,1.5166,3.1778,5.242,5.242,0,0,1,.1309,1.3632,1.33871,1.33871,0,0,0,2.2304,1.0098,3.15463,3.15463,0,0,0,.792-.916,7.33684,7.33684,0,0,1,2.6143-2.3184,4.2635,4.2635,0,0,1,2.0693-.5039c1.1748-.0586,2.3545-.0176,3.5323-.0312a1.33141,1.33141,0,0,1,1.1445.6308,13.223,13.223,0,0,1,2.2002,4.6934,8.23874,8.23874,0,0,1-.0088,2.8906c-.0869.7774-.7568,1.1895-1.4121,1.5059-.6436.3125-1.3145.5644-1.9707.8515a3.74251,3.74251,0,0,0-.8223.4043,2.347,2.347,0,0,1-1.6816.6055,1.39579,1.39579,0,0,0-.5899.1367.57293.57293,0,0,0-.2988.7617,2.53509,2.53509,0,0,1,.377,1.127,2.05217,2.05217,0,0,0,1.1543,1.543A11.53534,11.53534,0,0,1,119.39669,165.82135Zm-5.418-5.7969c0-.082-.0117-.289.002-.4922a2.69287,2.69287,0,0,0-.8457-2.0605,5.5013,5.5013,0,0,0-5.2832-1.7656,1.44444,1.44444,0,0,0-1.295,1.2988c-.0527.2383-.0527.5566-.207.6914-.9277.8086-.8926,1.9141-.9414,2.9766a2.83836,2.83836,0,0,0,1.9844,2.9589,8.31761,8.31761,0,0,0,3.622.4278,3.11361,3.11361,0,0,0,2.5635-1.6953A3.46242,3.46242,0,0,0,113.97869,160.02445Z" fill="#ff6052" fill-rule="evenodd"/>
              <path d="M108.01389,160.99125a6.83661,6.83661,0,0,1-.2618-2.5019c.9668-.8008,1.4004-.8711,2.3145-.3731a5.525,5.525,0,0,1,.6445.4082,1.99794,1.99794,0,0,1,.6817,2.4317.97118.97118,0,0,1-.8516.5547A4.38828,4.38828,0,0,1,108.01389,160.99125Z" fill="#ffbd52" fill-rule="evenodd"/>
            </g>
            <g>
              <path d="M118.58809,161.05765c.8789.9336,1.6435,1.8223,2.4883,2.627a3.17254,3.17254,0,0,1,1.0332,2.4609c-.0069.9746-.0254,1.9473.0058,2.9219a2.3609,2.3609,0,0,1-.7324,1.793c-.4648.4746-.9629.9179-1.4375,1.3847a3.7839,3.7839,0,0,1-2.7812,1.0918c-.5127,0-1.0254.002-1.5372.002a5.39893,5.39893,0,0,1-3.8007-.9102c-.3487.793-.6661,1.6016-1.0489,2.375a4.87,4.87,0,0,1-4.6562,2.9121c-.6641.002-1.3301-.0293-1.9922.0157a2.06217,2.06217,0,0,1-1.8848-.8282,9.51364,9.51364,0,0,1-1.2744-2.0781,7.99794,7.99794,0,0,1-.6299-3.4473c.0586-1.125.0293-2.2539.0215-3.3828-.0039-.3945-.0566-.789-.0879-1.1836-1.1992.1328-2.3125.2676-3.4277.375-.5078.0489-1.0254.0176-1.5322.0723-1.4873.1641-2.3907-.7383-3.1993-1.7637a1.75879,1.75879,0,0,1-.3154-1.0058c-.0215-1.2266-.04-2.459.0567-3.6817a4.90576,4.90576,0,0,1,1.6748-3.3535c.4951-.4453.9502-.9336,1.4209-1.4062a5.96109,5.96109,0,0,1,2.0771-1.545,3.08406,3.08406,0,0,0,.5811-.4062c-.1192-.2363-.211-.457-.334-.6602a15.08612,15.08612,0,0,1-1.7031-5.3906,4.73009,4.73009,0,0,1,1.9316-4.7285,6.28057,6.28057,0,0,1,5.6387-1.2578,6.8248,6.8248,0,0,1,4.0908,2.2422,17.071,17.071,0,0,1,1.126,1.8242c.2959.5215.5468,1.0703.8652,1.7031.5-.3105.9473-.543,1.3428-.8437a7.16611,7.16611,0,0,1,4.5986-1.4453c1.2813.0156,2.5625.0214,3.8438.0019a2.59519,2.59519,0,0,1,2.1464.9981,11.54873,11.54873,0,0,1,.9131,1.2343,15.93974,15.93974,0,0,1,2.419,5.9239,9.47441,9.47441,0,0,1-.1641,3.3593,3.90731,3.90731,0,0,1-1.4433,2.2969,6.565,6.565,0,0,1-2.3018,1.1953C119.94159,160.73345,119.29119,160.88,118.58809,161.05765Zm.8086,4.7637a11.53534,11.53534,0,0,0-2.8906-2.5527,2.05217,2.05217,0,0,1-1.1543-1.543,2.53509,2.53509,0,0,0-.377-1.127.57293.57293,0,0,1,.2988-.7617,1.39579,1.39579,0,0,1,.5899-.1367,2.347,2.347,0,0,0,1.6816-.6055,3.74251,3.74251,0,0,1,.8223-.4043c.6562-.2871,1.3271-.539,1.9707-.8515.6553-.3164,1.3252-.7285,1.4121-1.5059a8.23874,8.23874,0,0,0,.0088-2.8906,13.223,13.223,0,0,0-2.2002-4.6934,1.33141,1.33141,0,0,0-1.1445-.6308c-1.1778.0136-2.3575-.0274-3.5323.0312a4.2635,4.2635,0,0,0-2.0693.5039,7.33684,7.33684,0,0,0-2.6143,2.3184,3.15463,3.15463,0,0,1-.792.916,1.33871,1.33871,0,0,1-2.2304-1.0098,5.242,5.242,0,0,0-.1309-1.3632,30.14891,30.14891,0,0,0-1.5166-3.1778,2.92727,2.92727,0,0,0-1.0644-1.0586,6.41257,6.41257,0,0,0-2.7686-.83,3.11047,3.11047,0,0,0-3.5078,3.8339,14.74269,14.74269,0,0,0,.6875,2.6719c.791,2.0352,1.2031,2.0332,2.9219,2.0899a15.36,15.36,0,0,1,2.2734.2597.9563.9563,0,0,1,.9014.8985c.0254.4707-.208.7265-.8399.916-.1474.0449-.2959.0859-.4453.1191-1.1963.2617-2.3896.541-3.5928.7715a6.54425,6.54425,0,0,0-2.9355,1.5547c-.665.5566-1.2315,1.2285-1.8457,1.8457a2.46237,2.46237,0,0,0-.7979,1.6172c-.0459.9179-.0595,1.8398-.0332,2.7578.0157.5508.3077.8164.919.7969,1.0195-.0313,2.039-.1211,3.0547-.2325a1.87964,1.87964,0,0,0,.8261-.3535c.7911-.5625,1.5547-1.1621,2.3321-1.7402a4.5468,4.5468,0,0,1,.8857-.6016,1.70263,1.70263,0,0,1,1.8545.3575,1.29121,1.29121,0,0,1,.2559,1.6777c-.3828.7812-.7403,1.5742-1.1465,2.3437a3.022,3.022,0,0,0-.3975,1.459c.0147,1.5352-.0381,3.0723.0283,4.6055a3.83153,3.83153,0,0,0,1.1739,2.9551c.6875,0,1.4043.0293,2.1162-.0078a2.11307,2.11307,0,0,0,1.7617-1.0586,4.40228,4.40228,0,0,0,.8506-2.2676,2.19341,2.19341,0,0,1,.1846-.8926,4.17448,4.17448,0,0,0,.4072-2.082,1.78072,1.78072,0,0,1,.0664-.6074,1.31052,1.31052,0,0,1,2.5156-.1329,1.00535,1.00535,0,0,1,.1123.4414c-.0625.5958.3233.92.6895,1.2891a2.88261,2.88261,0,0,0,2.5947,1.0215,2.08031,2.08031,0,0,1,.6133,0,2.80977,2.80977,0,0,0,2.584-1.0469c.205-.2226.416-.4414.6328-.6738Z" fill="#4f2400" fill-rule="evenodd"/>
              <path d="M113.97869,160.02445a3.46242,3.46242,0,0,1-.4004,2.3399,3.11361,3.11361,0,0,1-2.5635,1.6953,8.31761,8.31761,0,0,1-3.622-.4278,2.83836,2.83836,0,0,1-1.9844-2.9589c.0488-1.0625.0137-2.168.9414-2.9766.1543-.1348.1543-.4531.207-.6914a1.44444,1.44444,0,0,1,1.295-1.2988,5.5013,5.5013,0,0,1,5.2832,1.7656,2.69287,2.69287,0,0,1,.8457,2.0605C113.967,159.73545,113.97869,159.94245,113.97869,160.02445Zm-5.9648.9668a4.38828,4.38828,0,0,0,2.5273.5196.97118.97118,0,0,0,.8516-.5547,1.99794,1.99794,0,0,0-.6817-2.4317,5.525,5.525,0,0,0-.6445-.4082c-.9141-.498-1.3477-.4277-2.3145.3731A6.83661,6.83661,0,0,0,108.01389,160.99125Z" fill="#4f2400" fill-rule="evenodd"/>
            </g>
          </g>
          <g>
            <g>
              <path d="M48.09879,57.78225a2.71906,2.71906,0,0,0,.5303-1.7089,22.0645,22.0645,0,0,0-1.9785-8.4122,21.74187,21.74187,0,0,0-2.1758-5.041,2.41911,2.41911,0,0,0-1.0957-1.0254q-.3282-.5244-.6621-1.039a26.26372,26.26372,0,0,0-1.5781-4.9981,2.76769,2.76769,0,0,0-3.47273-1.6484A2.7291,2.7291,0,0,0,36.01779,37.38a21.50816,21.50816,0,0,1,1.00967,2.8477,2.5003,2.5003,0,0,0,.0918,1.5585c.166.4415.35353.8731.5489,1.3028.1582.9121.2812,1.834.3857,2.7656q.0747.6768.1387,1.3535a2.5254,2.5254,0,0,0-.0879.5391,25.30108,25.30108,0,0,0,.2939,5.0058c-.0293.8575-.08977,1.7168-.1953,2.5801-.707,5.752-2.6484,11.2676-3.3222,17.0274a2.74821,2.74821,0,0,0-.376.7109,2.84171,2.84171,0,0,0-.5987.8125q-.36915.7353-.7343,1.4688A2.73868,2.73868,0,0,0,36.551,79.048c3.43553-1.2559,7.17773-2.1368,9.43163-5.0489a2.97058,2.97058,0,0,0,.5713-.7812c.0635-.125.124-.2539.1846-.3809.0625-.1152.124-.2324.1816-.3535a3.16736,3.16736,0,0,0,.1524-.3789A24.13613,24.13613,0,0,0,48.09879,57.78225Z" fill="#333"/>
              <path d="M59.04509,42.962a21.68382,21.68382,0,0,0-2.0879-3.6445,2.5269,2.5269,0,0,0-3.1367-.9141,2.61766,2.61766,0,0,0-2.9365-.8222,2.72474,2.72474,0,0,0-1.6494,3.4707,17.308,17.308,0,0,0,3.2177,4.457,12.39895,12.39895,0,0,1,2.9717,4.1152,13.87924,13.87924,0,0,1,.4024,5.3711c-.4375,3.3711-1.3311,6.6641-1.9346,10.0059a2.7353,2.7353,0,0,0,4.7705,2.2051,4.621,4.621,0,0,0,.9707-2.9532,2.59579,2.59579,0,0,0,1.0781-1.6113,35.6569,35.6569,0,0,0,.7578-8.9316C61.78929,49.80575,61.35859,46.01475,59.04509,42.962Z" fill="#333"/>
              <path d="M36.46306,62.17685a37.58365,37.58365,0,0,0,1.6133-11.8907c-.0059-3.0332-.2315-6.7558-1.7041-9.6113a8.47757,8.47757,0,0,0-1.4424-4.4258,9.23463,9.23463,0,0,0-1.3965-1.8379,9.67242,9.67242,0,0,0-4.4922-2.5468,9.16236,9.16236,0,0,0-6.5713-2.2168,14.26833,14.26833,0,0,0-4.24708.7578c-.05662.0078-.11322.0117-.16992.0215-3.3818.58-5.8613,2.705-7.8183,5.3144l-.01178.0078a16.87969,16.87969,0,0,0-1.625,1.4766c-.26752.2637-.51462.5273-.73432.7871-.09868.1133-.1934.2305-.2871.3496a33.82446,33.82446,0,0,0-2.7207,3.8125,16.943,16.943,0,0,0-1.9121,4.2832,11.848,11.848,0,0,0-.7051,1.3477,19.57692,19.57692,0,0,0-.834,11.4785q0,.703.0547,1.4023c-.4541,2.0332.3261,4.17,1.6933,6.168a32.39037,32.39037,0,0,0,2.3418,4.1563c2.8672,4.3671,7.1172,8.5859,12.1543,10.3027a12.26264,12.26264,0,0,0,8.2666.041,6.953,6.953,0,0,0,2.51862-.8223c3.06247-1.6757,4.95507-5.3769,6.37107-8.416a2.60127,2.60127,0,0,0-.5703-2.9453,20.13689,20.13689,0,0,0,2.1289-6.4258Q36.41476,62.46105,36.46306,62.17685ZM22.05586,54.589c.00092.1523.0058.3047.0107.4551a3.98042,3.98042,0,0,0-.7754.3847C21.56366,55.15145,21.81946,54.87015,22.05586,54.589Z" fill="#f9e603"/>
              <path d="M54.76389,54.45415c-.2578-.9941-.5596-1.9726-.8868-2.9453-.498-5.3262-1.5918-11.3047-4.997-15.4961a2.76292,2.76292,0,0,0-3.7832-.668,2.84038,2.84038,0,0,0-1.044,3.0957,3.54618,3.54618,0,0,0,.042,1.5098c.9561,4.0156,2.918,8.2188,4.4043,12.459.0342.3769.0674.7519.0967,1.1289a70.824,70.824,0,0,1-.5781,16.6035,2.74918,2.74918,0,0,0,1.541,2.9414,2.78673,2.78673,0,0,0,3.6035-1.334C56.47479,66.43855,56.28929,60.31155,54.76389,54.45415Z" fill="#f9e603"/>
              <path d="M64.95529,48.10845c-.4942-3.1328-1.4678-6.168-2.0078-9.291a2.77286,2.77286,0,0,0-2.9307-2.4863,2.72619,2.72619,0,0,0-2.4854,2.9316c.5166,2.9902,1.3858,5.9004,1.9366,8.8809a19.46806,19.46806,0,0,1-.4366,9.1484,2.72113,2.72113,0,0,0,2.2041,3.1465,2.77454,2.77454,0,0,0,3.1475-2.2031A23.26861,23.26861,0,0,0,64.95529,48.10845Z" fill="#f9e603"/>
              <path d="M67.18769,15.64755c.4766-1.7168-.7129-3.9336-2.7647-3.5469a31.2485,31.2485,0,0,0-7.6162,2.3594,9.70862,9.70862,0,0,0,.6006-2.4844,2.74744,2.74744,0,0,0-4.2334-2.6973c-.2422.1446-.4873.2832-.7324.42-.125.0683-.252.1347-.3779.2011.0127-.0078-.4346.2207-.4756.2422-.7559.375-1.5274.7168-2.3096,1.0313a3.1878,3.1878,0,0,0-.2939-.6797c.08-.25.1572-.5039.2324-.7578.206-.3809.418-.7598.6406-1.1348a2.12023,2.12023,0,0,0,.2637-1.2832,16.30363,16.30363,0,0,0,1.9394-2.7559c1.2325-2.3144-1.9629-5.1132-4.0273-3.3593a29.8563,29.8563,0,0,0-5.4893,6.5175,23.07745,23.07745,0,0,0-5.00883,6.8418c-.2412-1.1289-.5039-2.2519-.7714-3.3574a64.96419,64.96419,0,0,0-2.6016-8.6875,2.755,2.755,0,0,0-4.1182-1.3144,7.344,7.344,0,0,0-3.1152,5.3066,24.97945,24.97945,0,0,0-1.1787-2.4375,2.722,2.722,0,0,0-4.3193-.1738,6.137,6.137,0,0,0-.9815,3.791c0,.0234.0039.0449.0039.0683a3.08938,3.08938,0,0,0-2.2451-.2812c-4.10838,1.0156-4.3428,5.4238-2.9092,8.668a27.47629,27.47629,0,0,0,4.2442,6.5547c.0859.1367.1709.2734.2578.4062,1.5879,2.457,3.957,5.5039,6.8965,6.5625a12.60308,12.60308,0,0,0,5.5351,2.6484,4.374,4.374,0,0,0,3.5254-.8339,7.85125,7.85125,0,0,0,.4775.8281,8.34009,8.34009,0,0,0,5.544,3.3887c4.7754.7988,9.7217-1.9258,13.501-4.5293a43.69779,43.69779,0,0,0,7.8427-6.9864,17.57565,17.57565,0,0,0,4.1973-7.0664A2.26889,2.26889,0,0,0,67.18769,15.64755Zm-21.4063,14.3418c.086-.0957.1739-.1895.2598-.2852.043.0567.0879.1094.1348.1641C46.04509,29.91115,45.91329,29.95025,45.78139,29.98935Z" fill="#7d4e24"/>
            </g>
            <g>
              <path d="M71.37519,34.68265a42.26213,42.26213,0,0,0-12.71,1.8946.60193.60193,0,0,0-.4443.5625,24.5137,24.5137,0,0,1-10.7627-.793c4.0225-1.1934,7.8633-3.8613,11.0088-6.2149,4.1572-3.1093,9.1953-7.496,10.4336-12.7656.8232-3.5078-2.0645-5.3281-5.1846-5.3672a14.35187,14.35187,0,0,0-6.5615,1.6778,8.46022,8.46022,0,0,0,1.9629-4.8301.69221.69221,0,0,0-.5664-.6211c-2.8438-.7285-5.5323.3652-7.8672,2.125a20.25549,20.25549,0,0,0,2.3945-5.2422c.457-1.668.3076-3.541-1.1738-4.6289-1.3701-1.0078-3.0742-.2344-4.3379.5566-3.5107,2.1954-6.6016,6.1329-8.6758,9.6778a27.13194,27.13194,0,0,0-1.88773,3.9433,28.09022,28.09022,0,0,0-1.167-7.5371c-.7558-2.3828-2.6269-6.6015-5.69327-6.5215-2.53422.0684-2.94532,3.4336-2.86532,6.2911a14.46892,14.46892,0,0,0-4.1601-5.0176.69519.69519,0,0,0-.8321-.0332c-2.2207,1.8301-2.3593,4.1308-1.79,6.4804a4.83085,4.83085,0,0,0-3.167-1.4101c-2.5791-.0684-3.4531,3.2949-3.5586,5.2598-.4707,8.7441,7.1953,12.9863,13.2383,17.6777a22.20432,22.20432,0,0,0-7.6797.1543C5.70136,32.78815-2.365,50.11435.61836,62.962c3.2871,14.1485,19.7793,18.9746,32.5869,16.5215a48.46636,48.46636,0,0,0,22.07523-10.3808,26.93943,26.93943,0,0,0,7.1308-9.086c1.5518-3.3945,2.1826-7.1758,2.961-10.8008,1.0459-4.8593,2.3408-10.082,6.4541-13.2851A.69275.69275,0,0,0,71.37519,34.68265Zm-6.6563,1.8946a2.71263,2.71263,0,0,0-.7148.3203c-.0928.0547-.1826.1133-.2715.1718a.66856.66856,0,0,0-.1474-.2949C63.96309,36.70415,64.34,36.63585,64.71889,36.57725Zm-.9697,3.5996c-.0742.0918-.1494.1836-.2305.2715-.0468-.086-.0966-.1719-.1455-.2559A.72779.72779,0,0,0,63.74919,40.17685Zm-.7851-1.2578a2.76545,2.76545,0,0,0-.0987.4921c-.1435-.1992-.2929-.3925-.4531-.5781A1.42276,1.42276,0,0,0,62.96409,38.91905Zm-.9971-1.3614a6.38268,6.38268,0,0,0-.041.6524.55513.55513,0,0,0,.0088.123,7.01077,7.01077,0,0,0-.6221-.5371C61.53239,37.72175,61.74919,37.63775,61.967,37.55765ZM39.40936,12.587a33.33666,33.33666,0,0,1,7.11913-9.0039c.96-.8711,2.8428-2.6426,4.2998-2.1426,1.9199.6563.9131,3.5762.4219,4.8223-1.3936,3.543-3.8945,6.4336-5.8838,9.6289l-.001.002h0c-.0312.0507-.0635.0996-.0947.1504-.4111.6679.6885,1.3378,1.1543.7265,2.5176-3.3086,6.6396-8.0195,11.2725-7.3125-.501,3.5821-4.545,6.2363-6.7598,8.7578-.5957.6778.4394,1.4825,1.0586.875,3.0098-2.9492,6.958-5.3691,11.2412-5.7011a4.97155,4.97155,0,0,1,3.7197.9629c1.1758,1.0371.6387,2.9238.1416,4.1406-1.872,4.5703-6.3476,8.2676-10.2265,11.1094-3.4248,2.5097-7.7549,5.3691-12.1475,5.9121-2.9414-.9786-5.87113-2.1836-8.82133-3.252q.003-.93165.0166-1.8613a15.86424,15.86424,0,0,0,.4492-2.4766,69.09605,69.09605,0,0,0,.5606-7.1855q.0264-.6768.0488-1.3575A27.5854,27.5854,0,0,1,39.40936,12.587Zm-9.791,17.6094c-5.1719-4.4395-12.0547-7.3848-14.0713-14.4492-.5918-2.0664-.94528-5.6192.9834-7.1582,2.3955-1.9121,5.27832,3.7988,5.9668,5.1875.3828.7734,1.6201.3847,1.2949-.461-1.1455-2.9765-3.7793-7.291-1.0733-10.0214,2.3301,1.875,3.5704,4.5839,4.8848,7.2324.3242.6504,1.4316.5469,1.333-.2871-.1201-1.0254-1.0596-9.127,1.7656-8.2071,2.8038.9121,4.0049,5.5977,4.4766,8.0547a41.52921,41.52921,0,0,1,.4385,9.25,56.18256,56.18256,0,0,0-1.06057,10.8535,2.11107,2.11107,0,0,1-.334.5606.60464.60464,0,0,0-.10743.6777.57032.57032,0,0,0-.2343.1289c-1.36327-.455-2.7344-.8593-4.11527-1.1836A.68766.68766,0,0,0,29.61836,30.19635Zm2.3818,46.9355a1.83029,1.83029,0,0,1-.25.3106c-.6172-.3145-1.0899.459-.8106.9824a35.32178,35.32178,0,0,1-7.08.1973c-7.0909-.5352-14.4453-3.3223-18.8311-9.1485-4.5449-6.0351-4.26268-14.3144-2.0283-21.1835,2.2832-7.0196,7.1592-13.8086,14.335-16.3243,5.8681-2.0586,11.38862-.916,16.9121.9805.081.0586.1767.1289.1767.1953v.4258a.64954.64954,0,0,0,.8789.5801c1.086,1.7656,1.46,4.4258,1.75393,6.0879A36.66038,36.66038,0,0,1,37.8,46.66515a76.90471,76.90471,0,0,1-1.1338,10.8417c-.6562,4.4258-1.4463,8.8418-2.498,13.1915a40.63546,40.63546,0,0,1-1.4532,4.9218A7.86775,7.86775,0,0,1,32.00016,77.13185Zm.7754,1.0215c2.70023-3.3496,4.8555-17.8515,5.0879-19.3437a83.33,83.33,0,0,0,1.32033-12.4278A39.18517,39.18517,0,0,0,38.091,38.255a17.412,17.412,0,0,0-1.4189-4.4551c1.4531.543,2.90623,1.1133,4.36233,1.668a.85161.85161,0,0,0,.0342.1308,150.86349,150.86349,0,0,1,5.8496,17.8965c1.4804,6.2051,2.2754,13.1524-.2539,19.1953a.64764.64764,0,0,0,.0126.5645A46.51089,46.51089,0,0,1,32.77556,78.15335ZM54.092,67.58305a.57687.57687,0,0,0,.0644.6875,41.23771,41.23771,0,0,1-5.9003,4.1035c2.0468-5.6172,1.5302-11.7734.3554-17.5429a124.83716,124.83716,0,0,0-5.8867-18.7305c.0625.0215.125.0449.1875.0664a.71213.71213,0,0,0,.7178.8145,13.11511,13.11511,0,0,0,1.3242-.0997,44.12064,44.12064,0,0,0,4.4502,1.254.6845.6845,0,0,0,.1064.4121,44.89085,44.89085,0,0,1,5.5078,14.5195C55.97089,57.74325,56.43379,63.23345,54.092,67.58305Zm3.1523-2.3086c-.373.4239-.7607.834-1.1582,1.2324,1.6006-4.2539,1.1387-9.2011.3028-13.5527a46.02,46.02,0,0,0-5.3379-14.5,24.68248,24.68248,0,0,0,3.9277.3418.84839.84839,0,0,0,.084.0352c4.5254,1.373,5.0459,7.248,5.0654,11.1992a41.92066,41.92066,0,0,1-2.3213,13.8379.69263.69263,0,0,0,.084.6406C57.68089,64.76475,57.467,65.02055,57.24429,65.27445Zm5.5547-10.8008a25.707,25.707,0,0,1-2.8564,7.1094,44.89925,44.89925,0,0,0,1.5478-12.4355c-.0635-3.7442-.8701-8.2032-3.8965-10.5059.6416-.0781,1.2872-.1875,1.9346-.332l.0088.0039c3.1436,1.5019,3.8848,5.3808,4.748,8.4277a.65243.65243,0,0,0,.1504.2774C63.84,49.52835,63.38889,52.08115,62.799,54.47365Zm2.2891-9.9335c-.1563-.5391-.3242-1.0801-.5078-1.6133a3.2463,3.2463,0,0,0,1.334-.834C65.60469,42.88975,65.33219,43.70805,65.08809,44.54015Zm1.8447-4.7071a.65476.65476,0,0,0-.3818.0098q.53895-.68265,1.1338-1.3125C67.41519,38.95225,67.16619,39.38775,66.93279,39.83305Zm.7959-3.2597a.68484.68484,0,0,0-.541.2128c-.0781.0801-.1524.1622-.2285.2442a.686.686,0,0,0-1.1641-.2442c-.0723.0704-.1514.1329-.2265.1993a.68722.68722,0,0,0-.5557-.4493c1.0459-.1543,2.0986-.2675,3.1553-.3476C68.01969,36.31545,67.87129,36.44245,67.72869,36.57335Z" fill="#4f2400"/>
              <path d="M23.58216,55.06545c-1.8906-.0253-2.8086,3.1954-3.4062,4.5196-1.3135,2.916-4.2657,7.6113-7.8877,5.4394-.7588-.4531-1.3272.7989-.5742,1.25,4.6943,2.8125,8.3173-2.998,9.9736-6.6992a19.02369,19.02369,0,0,1,1.2148-2.457c.6817-1.0781,1.0752-.4356,1.5528.5019,1.6054,3.1524.6308,8.7344-3.9766,7.8164a.68766.68766,0,0,0-.2393,1.3536c3.3077.6582,5.8301-1.75,6.3838-4.8907C26.92786,60.16705,26.10266,55.09865,23.58216,55.06545Z"/>
              <path d="M10.051,44.38c-2.6699.6719-3.2188,4.4727-2.9131,6.6914.1201.877,1.4902.7656,1.3691-.1133-.2431-1.7695-.0185-4.0918,1.6524-5.1406,1.9472-1.2246,2.48142,2.8926,2.5498,3.8613a.68776.68776,0,0,0,1.3701-.1133C13.924,47.36625,13.049,43.62605,10.051,44.38Z"/>
              <path d="M27.03046,41.91315a5.27628,5.27628,0,0,0-5.2569.3105c-2.4072,1.5918-3.1357,4.9805-3.4843,7.6231-.1153.8769,1.2363,1.1191,1.35352.2383.46088-3.4981,2.249-8.9317,6.81338-6.9239,2.4131,1.0625,4.7081,4.4473,2.6592,6.8321-.5781.6699.4805,1.5469,1.0586.875C32.87706,47.72365,30.19746,43.44245,27.03046,41.91315Z"/>
            </g>
          </g>
          <g>
            <path d="M119.68179,131.58505c.7432-1.3457.1377-2.2461-1.3125-3.0547a2.368,2.368,0,0,0-2.9736.7969,2.46158,2.46158,0,0,0,.2178,2.9648,2.32154,2.32154,0,0,0,3.039.3809A7.03232,7.03232,0,0,0,119.68179,131.58505Z" fill="#4f2400" fill-rule="evenodd"/>
            <path d="M118.133,99.37015a2.259,2.259,0,0,0-1.0332-2.955,2.205,2.205,0,0,0-2.9434,1.0234,2.23955,2.23955,0,0,0,1.0118,2.957A2.28565,2.28565,0,0,0,118.133,99.37015Z" fill="#4f2400" fill-rule="evenodd"/>
            <path d="M111.00509,89.75105a2.19538,2.19538,0,1,0-3.0088.8183A2.19217,2.19217,0,0,0,111.00509,89.75105Z" fill="#4f2400" fill-rule="evenodd"/>
            <path d="M89.97479,91.97565a2.09008,2.09008,0,0,0-.7852-2.8906,2.13115,2.13115,0,0,0-2.0898,3.7148A2.07188,2.07188,0,0,0,89.97479,91.97565Z" fill="#4f2400" fill-rule="evenodd"/>
            <path d="M78.95919,31.55765a2.113,2.113,0,1,0,.8252,2.8731A2.11628,2.11628,0,0,0,78.95919,31.55765Z" fill="#4f2400" fill-rule="evenodd"/>
            <path d="M97.78729,46.55185a1.98513,1.98513,0,0,0,.2832,2.3027,2.02951,2.02951,0,0,0,3.5098-1.7051,3.77386,3.77386,0,0,0-.4688-1.1367,1.56462,1.56462,0,0,0-2.1504-.5976A2.75111,2.75111,0,0,0,97.78729,46.55185Z" fill="#4f2400" fill-rule="evenodd"/>
            <path d="M87.12709,80.546a1.95812,1.95812,0,0,0,.8301,2.7305,1.88664,1.88664,0,0,0,2.7041-.8242,2.008,2.008,0,1,0-3.5342-1.9063Z" fill="#4f2400" fill-rule="evenodd"/>
            <path d="M100.21109,94.26275a1.63932,1.63932,0,0,0-1.2207-2.5957,2.8855,2.8855,0,0,0-2.1465,1.0898,1.7105,1.7105,0,0,0,.1465,2.0508,1.58917,1.58917,0,0,0,1.9854.4434A9.25742,9.25742,0,0,0,100.21109,94.26275Z" fill="#4f2400" fill-rule="evenodd"/>
            <path d="M91.44449,36.66315a1.73654,1.73654,0,0,0-2.3759.752,1.7927,1.7927,0,0,0,.6992,2.4101,1.76159,1.76159,0,0,0,2.4687-.8086A1.7163,1.7163,0,0,0,91.44449,36.66315Z" fill="#4f2400" fill-rule="evenodd"/>
            <path d="M96.67889,79.11235a1.77611,1.77611,0,1,0,2.3672-.8105A1.75846,1.75846,0,0,0,96.67889,79.11235Z" fill="#4f2400" fill-rule="evenodd"/>
            <path d="M109.20529,82.42875a1.739,1.739,0,0,0,1.6699-3.0508,1.7403,1.7403,0,1,0-1.6699,3.0508Z" fill="#4f2400" fill-rule="evenodd"/>
            <path d="M108.03139,69.26275a1.64666,1.64666,0,0,0,.3692,2.2129,1.69673,1.69673,0,0,0,2.2715-.0957,1.72406,1.72406,0,0,0,.1523-2.2695,2.7701,2.7701,0,0,0-.3867-.3926,1.35721,1.35721,0,0,0-2.0664.0957A4.74573,4.74573,0,0,0,108.03139,69.26275Z" fill="#4f2400" fill-rule="evenodd"/>
            <path d="M118.24429,107.60455a1.74174,1.74174,0,1,0,2.2735-.791A1.81033,1.81033,0,0,0,118.24429,107.60455Z" fill="#4f2400" fill-rule="evenodd"/>
            <path d="M122.10569,117.37015a1.66694,1.66694,0,0,0-2.2813.6094,1.70815,1.70815,0,1,0,2.9258,1.7637A1.66982,1.66982,0,0,0,122.10569,117.37015Z" fill="#4f2400" fill-rule="evenodd"/>
            <path d="M114.64279,140.13775a1.67914,1.67914,0,0,0-.5576-2.3105,1.72984,1.72984,0,0,0-2.3155.5683,1.688,1.688,0,0,0,.584,2.3028A1.63272,1.63272,0,0,0,114.64279,140.13775Z" fill="#4f2400" fill-rule="evenodd"/>
            <path d="M106.71409,57.86625a1.5965,1.5965,0,0,0-1.9952.2266,1.41319,1.41319,0,0,0-.0976,1.6719,3.83431,3.83431,0,0,0,.793.9355,1.47934,1.47934,0,0,0,2-.0996,1.52956,1.52956,0,0,0,.0625-2.123A5.63369,5.63369,0,0,0,106.71409,57.86625Z" fill="#4f2400" fill-rule="evenodd"/>
          </g>
        </g>
        <g>
          <path d="M76.09389,28.39755a5.72745,5.72745,0,0,1,.1348-.6133,2.339,2.339,0,0,1,4.1094-.875,2.64356,2.64356,0,0,1,.207.2676,3.24592,3.24592,0,0,1,.6035,1.7949,4.80728,4.80728,0,0,1,.0508,1.0586c-.0156.2109-.04.4433-.0801.6758a4.67218,4.67218,0,0,1,1.6582-.3692,4.21031,4.21031,0,0,1,.6075.0098c.0175-.002.0341-.0078.0488-.0098a2.10689,2.10689,0,0,1,1.8047.6192,2.78665,2.78665,0,0,1,.7715,1.0527,1.33909,1.33909,0,0,1,.123.3828c.0098.0352.0195.0684.0273.1055a2.30516,2.30516,0,0,1-.5996,1.8594c-.7402,1.0546-2.4882,1.1933-3.625,1.4863a12.11025,12.11025,0,0,0-2.3925.8633,15.30233,15.30233,0,0,1-1.8926.8515.79589.79589,0,0,1-.5567-.0371.89366.89366,0,0,1-.9902-.9238,13.45764,13.45764,0,0,0-.2812-2.4219,17.924,17.924,0,0,1-.1954-2.5547C75.62319,30.95805,75.509,29.16905,76.09389,28.39755Z" fill="#dc4654"/>
          <path d="M74.87709,33.26275a19.85663,19.85663,0,0,0,.9297,3.084,4.57254,4.57254,0,0,0,1.7354,2.4394.69095.69095,0,0,0,1.0224-.3984,41.91861,41.91861,0,0,0,5.085-1.7461c1.4629-.6875,3.2178-1.7461,3.7022-3.414a2.66047,2.66047,0,0,0-2.2461-3.4532,4.98919,4.98919,0,0,0-2.42-.125,3.05944,3.05944,0,0,0-.6386.2696,4.27376,4.27376,0,0,0-1.9883-4.6172c-1.7402-.9141-4.1055.1718-5,1.8242C74.03239,29.01865,74.40839,31.255,74.87709,33.26275Zm1.0469-4.0801c.1436-1.4726,1.502-3.2363,3.167-3.0332,1.9209.2344,2.4639,2.5508,1.8701,4.0996a.42593.42593,0,0,0,.0459.42c-.0693.0625-.1377.1211-.2041.1816a.395.395,0,0,0,.5137.5996,2.44091,2.44091,0,0,1,1.957-.7031,6.91994,6.91994,0,0,1,1.8457.5976c.4102.211.918.5821.7412,1.1153a3.26264,3.26264,0,0,1-.9931,1.4824,13.014,13.014,0,0,1-3.6582,1.8984c-.9766.3946-2.3262.4356-3.3242.9414a7.429,7.429,0,0,1-.5088-.9453,15.44548,15.44548,0,0,1-.7354-2.2207A13.31435,13.31435,0,0,1,75.924,29.18265Z" fill="#463131"/>
        </g>
        <g>
          <path d="M95.66029,46.93075a5.57686,5.57686,0,0,1-.2324-.5821,2.33913,2.33913,0,0,1,2.9102-3.0312,2.18779,2.18779,0,0,1,.3203.1055,3.24877,3.24877,0,0,1,1.5078,1.1464,4.82326,4.82326,0,0,1,.6357.8477c.1055.1836.2159.3906.3135.6035a4.65118,4.65118,0,0,1,1.1651-1.2363,4.36426,4.36426,0,0,1,.5088-.332c.0117-.0118.0234-.0254.0351-.0352a2.1071,2.1071,0,0,1,1.8399-.5019,2.81865,2.81865,0,0,1,1.2294.4394,1.34084,1.34084,0,0,1,.3174.2481c.0264.0234.0537.0449.0801.0722a2.29832,2.29832,0,0,1,.5479,1.875c-.0196,1.2891-1.3897,2.3828-2.1651,3.2637a12.045,12.045,0,0,0-1.4961,2.0586,15.31367,15.31367,0,0,1-1.0879,1.7676.8156.8156,0,0,1-.4824.2812.89421.89421,0,0,1-1.3379-.209,13.42029,13.42029,0,0,0-1.5918-1.8476,17.80114,17.80114,0,0,1-1.5947-2.0039C96.70719,49.31545,95.60859,47.89755,95.66029,46.93075Z" fill="#dc4654"/>
          <path d="M97.384,51.63975a19.6365,19.6365,0,0,0,2.499,2.0312,4.56525,4.56525,0,0,0,2.8066,1.0449.69163.69163,0,0,0,.6221-.9043,42.2338,42.2338,0,0,0,3.2295-4.2968c.8242-1.3926,1.6816-3.252,1.1465-4.9043a2.65822,2.65822,0,0,0-3.7949-1.5977,4.98845,4.98845,0,0,0-2.0742,1.2539,3.1172,3.1172,0,0,0-.378.582,4.27161,4.27161,0,0,0-4.2353-2.705c-1.9541.2187-3.3028,2.4472-3.1162,4.3144C94.30289,48.60265,95.86929,50.24125,97.384,51.63975Zm-1.4229-3.9629c-.709-1.3008-.5742-3.5235.918-4.2891,1.7207-.8848,3.4707.7285,3.8486,2.3438a.4266.4266,0,0,0,.2744.3222c-.0234.0899-.0468.1778-.0683.2637a.39566.39566,0,0,0,.7627.209,2.44049,2.44049,0,0,1,1.2246-1.6797,7.01662,7.01662,0,0,1,1.8633-.543c.458-.0547,1.0859-.0312,1.2383.5078a3.26277,3.26277,0,0,1,.0117,1.7852,12.99422,12.99422,0,0,1-1.9629,3.623c-.5869.875-1.6807,1.6661-2.2237,2.6465a7.4666,7.4666,0,0,1-.9511-.498,15.58128,15.58128,0,0,1-1.8555-1.4239A13.333,13.333,0,0,1,95.96109,47.67685Z" fill="#463131"/>
        </g>
        <g>
          <path d="M114.40839,106.53225a5.55375,5.55375,0,0,1-.2324-.58,2.33952,2.33952,0,0,1,2.9101-3.0313,2.426,2.426,0,0,1,.3213.1035,3.24842,3.24842,0,0,1,1.5078,1.1485,4.79572,4.79572,0,0,1,.6358.8476c.1054.1836.2158.3887.3125.6035a4.68631,4.68631,0,0,1,1.166-1.2363,4.44635,4.44635,0,0,1,.5078-.332c.0127-.0117.0254-.0254.0361-.0371a2.10983,2.10983,0,0,1,1.8389-.5,2.79041,2.79041,0,0,1,1.2305.4394,1.31757,1.31757,0,0,1,.3164.2481c.0273.0234.0547.0449.082.0722a2.30115,2.30115,0,0,1,.5469,1.875c-.0195,1.2891-1.3887,2.3828-2.1651,3.2637a12.15337,12.15337,0,0,0-1.497,2.0586,15.33368,15.33368,0,0,1-1.0869,1.7676.8129.8129,0,0,1-.4825.2812.89446.89446,0,0,1-1.3369-.209,13.49642,13.49642,0,0,0-1.5928-1.8476,17.79216,17.79216,0,0,1-1.5947-2.0039C115.45719,108.91905,114.35759,107.50105,114.40839,106.53225Z" fill="#dc4654"/>
          <path d="M116.133,111.24325a19.653,19.653,0,0,0,2.5,2.0312,4.562,4.562,0,0,0,2.8047,1.0449.69159.69159,0,0,0,.623-.9042,42.099,42.099,0,0,0,3.2295-4.2969c.8242-1.3926,1.6826-3.252,1.1475-4.9043a2.65989,2.65989,0,0,0-3.7969-1.5977,4.99579,4.99579,0,0,0-2.0742,1.2539,3.16645,3.16645,0,0,0-.377.5821,4.27361,4.27361,0,0,0-4.2363-2.7051c-1.9531.2187-3.3008,2.4472-3.1152,4.3144C113.051,108.20415,114.61739,109.84475,116.133,111.24325Zm-1.4238-3.9629c-.7071-1.3008-.5733-3.5235.9189-4.2891,1.7217-.8847,3.4697.7285,3.8487,2.3438a.425.425,0,0,0,.2734.3222c-.0234.0899-.0449.1778-.0664.2637a.39486.39486,0,0,0,.7617.207,2.43418,2.43418,0,0,1,1.2246-1.6777,7.01059,7.01059,0,0,1,1.8633-.543c.457-.0546,1.0859-.0312,1.2383.5079a3.27,3.27,0,0,1,.0117,1.7851,13.07321,13.07321,0,0,1-1.9629,3.6231c-.5879.875-1.6816,1.666-2.2236,2.6464a7.59739,7.59739,0,0,1-.9512-.498,15.42608,15.42608,0,0,1-1.8545-1.4238A13.34308,13.34308,0,0,1,114.70919,107.28035Z" fill="#463131"/>
        </g>
        <g>
          <path d="M104.41619,68.52445a5.54473,5.54473,0,0,1-.2324-.582,2.33817,2.33817,0,0,1,2.9101-3.0293,2.40334,2.40334,0,0,1,.3204.1035,3.24842,3.24842,0,0,1,1.5078,1.1485,4.69164,4.69164,0,0,1,.6367.8476c.1055.1836.2148.3887.3125.6035a4.66268,4.66268,0,0,1,1.166-1.2383,4.18642,4.18642,0,0,1,.5078-.33c.0117-.0137.0244-.0254.0352-.0371a2.11158,2.11158,0,0,1,1.8398-.5,2.77476,2.77476,0,0,1,1.2305.4394,1.32984,1.32984,0,0,1,.3164.2461c.0273.0234.0547.0469.081.0723a2.303,2.303,0,0,1,.5479,1.875c-.0195,1.291-1.3897,2.3847-2.166,3.2656a12.21313,12.21313,0,0,0-1.4961,2.0566,15.17211,15.17211,0,0,1-1.0879,1.7676.80058.80058,0,0,1-.4824.2813.892.892,0,0,1-1.3369-.209,13.35185,13.35185,0,0,0-1.5928-1.8457,18.0919,18.0919,0,0,1-1.5938-2.0059C105.46409,70.90925,104.36539,69.49325,104.41619,68.52445Z" fill="#dc4654"/>
          <path d="M106.14079,73.23545a19.62892,19.62892,0,0,0,2.499,2.0293,4.56529,4.56529,0,0,0,2.8057,1.0468.6918.6918,0,0,0,.6221-.9043,41.99488,41.99488,0,0,0,3.2295-4.2988c.8242-1.3906,1.6826-3.25,1.1474-4.9043a2.65817,2.65817,0,0,0-3.7959-1.5957,4.975,4.975,0,0,0-2.0742,1.2539,2.98721,2.98721,0,0,0-.3769.582,4.2688,4.2688,0,0,0-4.2364-2.705c-1.9531.2187-3.3017,2.4453-3.1152,4.3144C103.05879,70.19635,104.62519,71.837,106.14079,73.23545Zm-1.4238-3.9649c-.708-1.2988-.5733-3.5215.918-4.2871,1.7216-.8848,3.4707.7266,3.8496,2.3438a.42854.42854,0,0,0,.2734.3222c-.0234.0879-.0459.1778-.0674.2637a.39535.39535,0,0,0,.7627.207,2.435,2.435,0,0,1,1.2246-1.6797,6.93344,6.93344,0,0,1,1.8633-.541c.457-.0566,1.0859-.0332,1.2383.5059a3.26074,3.26074,0,0,1,.0107,1.7851,13.05056,13.05056,0,0,1-1.9619,3.625c-.5879.8731-1.6816,1.6661-2.2246,2.6446a7.34687,7.34687,0,0,1-.9512-.4961,15.52188,15.52188,0,0,1-1.8545-1.4258A13.2683,13.2683,0,0,1,104.717,69.27055Z" fill="#463131"/>
        </g>
        <g>
          <path d="M95.55589,78.46585a4.30372,4.30372,0,0,1-.167-.4179,1.67769,1.67769,0,0,1,2.0879-2.1739,1.82158,1.82158,0,0,1,.2304.0743,2.32928,2.32928,0,0,1,1.0811.8222,3.48537,3.48537,0,0,1,.456.6094c.0762.1309.1543.2793.2246.4336a3.33564,3.33564,0,0,1,.836-.8887,2.84268,2.84268,0,0,1,.3652-.2363.23011.23011,0,0,1,.0254-.0274,1.50824,1.50824,0,0,1,1.3193-.3593,1.989,1.989,0,0,1,.8819.3164.86135.86135,0,0,1,.2265.1777.56573.56573,0,0,1,.0596.0508,1.6537,1.6537,0,0,1,.3916,1.3457c-.0137.9238-.9961,1.709-1.5527,2.3418a8.70585,8.70585,0,0,0-1.0733,1.4746,10.80939,10.80939,0,0,1-.7802,1.2695.58434.58434,0,0,1-.3457.2012.64067.64067,0,0,1-.96-.1504,9.61241,9.61241,0,0,0-1.1416-1.3242,12.81984,12.81984,0,0,1-1.1445-1.4375C96.30679,80.17485,95.51869,79.15925,95.55589,78.46585Z" fill="#dc4654"/>
          <path d="M96.79219,81.84475a14.15571,14.15571,0,0,0,1.793,1.4551,3.279,3.279,0,0,0,2.0126.75.49563.49563,0,0,0,.4463-.6484,30.09182,30.09182,0,0,0,2.3174-3.0821,4.57134,4.57134,0,0,0,.8223-3.5175,1.906,1.906,0,0,0-2.7227-1.1465,3.57153,3.57153,0,0,0-1.4883.8984,2.27756,2.27756,0,0,0-.2705.418,3.062,3.062,0,0,0-3.038-1.9395,2.87015,2.87015,0,0,0-2.2364,3.0938A6.22825,6.22825,0,0,0,96.79219,81.84475Zm-1.0215-2.8437a2.34,2.34,0,0,1,.6592-3.0781c1.2353-.6328,2.4892.5234,2.7617,1.6816a.30416.30416,0,0,0,.1953.2324c-.0156.0625-.0322.127-.0478.1895a.28344.28344,0,0,0,.5468.1484,1.74844,1.74844,0,0,1,.878-1.2051,4.98914,4.98914,0,0,1,1.3379-.3886c.3281-.0391.7783-.0235.8876.3632a2.3497,2.3497,0,0,1,.0088,1.2813,9.37809,9.37809,0,0,1-1.4082,2.5996c-.4218.627-1.207,1.1953-1.5957,1.8984a5.39435,5.39435,0,0,1-.6816-.3574,11.08744,11.08744,0,0,1-1.3311-1.0215A9.59733,9.59733,0,0,1,95.77069,79.00105Z" fill="#463131"/>
        </g>
        <g>
          <path d="M83.60469,90.45415a4.13487,4.13487,0,0,1-.167-.418,1.6775,1.6775,0,0,1,2.0869-2.1738,1.77626,1.77626,0,0,1,.2315.0742,2.335,2.335,0,0,1,1.081.8243,3.45519,3.45519,0,0,1,.4561.6074c.0761.1308.1543.2793.2246.4336a3.3353,3.3353,0,0,1,.8359-.8887,3.07437,3.07437,0,0,1,.3652-.2363.2307.2307,0,0,1,.0254-.0274,1.50775,1.50775,0,0,1,1.3194-.3574,1.98646,1.98646,0,0,1,.8818.3145.90483.90483,0,0,1,.2266.1777.728.728,0,0,1,.0586.0508,1.6508,1.6508,0,0,1,.3925,1.3457c-.0136.9258-.9961,1.709-1.5527,2.3418a8.66935,8.66935,0,0,0-1.0732,1.4765,10.95367,10.95367,0,0,1-.7803,1.2676.58484.58484,0,0,1-.3457.2012.64067.64067,0,0,1-.96-.1504,9.72455,9.72455,0,0,0-1.1416-1.3242,12.83123,12.83123,0,0,1-1.1445-1.4375C84.35569,92.16515,83.56759,91.14755,83.60469,90.45415Z" fill="#dc4654"/>
          <path d="M84.841,93.83305a13.98118,13.98118,0,0,0,1.792,1.4551,3.28648,3.28648,0,0,0,2.0137.752.49788.49788,0,0,0,.4463-.6504,30.10184,30.10184,0,0,0,2.3173-3.0821,4.56723,4.56723,0,0,0,.8223-3.5175,1.907,1.907,0,0,0-2.7226-1.1465,3.54821,3.54821,0,0,0-1.4883.9004,2.14278,2.14278,0,0,0-.2705.4179,3.061,3.061,0,0,0-3.0381-1.9414,2.87,2.87,0,0,0-2.2363,3.0938A6.2226,6.2226,0,0,0,84.841,93.83305Zm-1.0215-2.8437a2.3372,2.3372,0,0,1,.6592-3.0762c1.2354-.6348,2.4893.5215,2.7617,1.6816a.30268.30268,0,0,0,.1953.2305c-.0156.0625-.0322.127-.0478.1895a.283.283,0,0,0,.5459.1484,1.76025,1.76025,0,0,1,.8789-1.2051,5.05949,5.05949,0,0,1,1.3379-.3887c.3271-.039.7783-.0234.8877.3633a2.35066,2.35066,0,0,1,.0088,1.2813,9.357,9.357,0,0,1-1.4092,2.5996c-.4209.6269-1.2061,1.1953-1.5947,1.8984a5.38877,5.38877,0,0,1-.6817-.3574,10.88327,10.88327,0,0,1-1.331-1.0215A9.56214,9.56214,0,0,1,83.81949,90.98935Z" fill="#463131"/>
        </g>
        <g>
          <path d="M105.10269,88.12405a4.20534,4.20534,0,0,1-.167-.4179,1.67833,1.67833,0,0,1,2.0879-2.1739,2.12361,2.12361,0,0,1,.2305.0762,2.33114,2.33114,0,0,1,1.082.8223,3.47488,3.47488,0,0,1,.4551.6094c.0762.1308.1553.2792.2246.4316a3.37221,3.37221,0,0,1,.836-.8867,3.08805,3.08805,0,0,1,.3652-.2383l.0254-.0254a1.51135,1.51135,0,0,1,1.3203-.3594,2.01112,2.01112,0,0,1,.8818.3145.9713.9713,0,0,1,.2266.1777.77211.77211,0,0,1,.0586.0527,1.65066,1.65066,0,0,1,.3926,1.3438c-.0147.9258-.9971,1.7109-1.5528,2.3418a8.68688,8.68688,0,0,0-1.0732,1.4766,10.97029,10.97029,0,0,1-.7813,1.2695.5816.5816,0,0,1-.3457.2012.64092.64092,0,0,1-.959-.1504,9.68181,9.68181,0,0,0-1.1425-1.3242,12.78663,12.78663,0,0,1-1.1446-1.4395C105.85369,89.83505,105.06659,88.81935,105.10269,88.12405Z" fill="#dc4654"/>
          <path d="M106.34,91.503a13.943,13.943,0,0,0,1.792,1.4571,3.2837,3.2837,0,0,0,2.0127.75.49639.49639,0,0,0,.4473-.6485,30.43891,30.43891,0,0,0,2.3164-3.082,4.57053,4.57053,0,0,0,.8223-3.5195,1.90832,1.90832,0,0,0-2.7227-1.1465,3.60071,3.60071,0,0,0-1.4883.9004,2.2213,2.2213,0,0,0-.2695.4179,3.06414,3.06414,0,0,0-3.0391-1.9414,2.87275,2.87275,0,0,0-2.2353,3.0957A6.21313,6.21313,0,0,0,106.34,91.503Zm-1.0214-2.8437a2.33591,2.33591,0,0,1,.6591-3.0762c1.2354-.6347,2.4893.5235,2.7608,1.6817a.30284.30284,0,0,0,.1953.2304c-.0156.0645-.0313.1289-.0469.1914a.283.283,0,0,0,.5459.1485,1.74673,1.74673,0,0,1,.8789-1.2051,4.97042,4.97042,0,0,1,1.3369-.3887c.3282-.041.7793-.0234.8887.3633a2.35051,2.35051,0,0,1,.0078,1.2813,9.34158,9.34158,0,0,1-1.4082,2.5976c-.4219.6289-1.206,1.1973-1.5957,1.8984a5.19547,5.19547,0,0,1-.6816-.3554,10.95925,10.95925,0,0,1-1.3301-1.0235A9.50951,9.50951,0,0,1,105.31859,88.65925Z" fill="#463131"/>
        </g>
        <g>
          <path d="M113.49729,130.38a4.11153,4.11153,0,0,1-.167-.418,1.67787,1.67787,0,0,1,2.0879-2.1738,1.76046,1.76046,0,0,1,.2304.0742,2.332,2.332,0,0,1,1.0821.8223,3.47413,3.47413,0,0,1,.455.6094,4.69307,4.69307,0,0,1,.2246.4336,3.35161,3.35161,0,0,1,.836-.8887,2.84268,2.84268,0,0,1,.3652-.2363.22265.22265,0,0,1,.0254-.0274,1.51143,1.51143,0,0,1,1.3203-.3594,1.99022,1.99022,0,0,1,.8819.3164.87828.87828,0,0,1,.2265.1778.46351.46351,0,0,1,.0586.0508,1.65778,1.65778,0,0,1,.3926,1.3457c-.0147.9238-.9971,1.7089-1.5527,2.3418a8.59371,8.59371,0,0,0-1.0733,1.4746,10.96106,10.96106,0,0,1-.7812,1.2695.58189.58189,0,0,1-.3457.2012.63951.63951,0,0,1-.959-.1504,9.68254,9.68254,0,0,0-1.1426-1.3242,12.93467,12.93467,0,0,1-1.1445-1.4375C114.24819,132.089,113.46109,131.07335,113.49729,130.38Z" fill="#dc4654"/>
          <path d="M114.73359,133.75885a14.16443,14.16443,0,0,0,1.793,1.4551,3.272,3.272,0,0,0,2.0127.75.49638.49638,0,0,0,.4472-.6485,30.22756,30.22756,0,0,0,2.3164-3.082,4.56556,4.56556,0,0,0,.8223-3.5176,1.906,1.906,0,0,0-2.7227-1.1465,3.577,3.577,0,0,0-1.4882.8985,2.21435,2.21435,0,0,0-.2696.418,3.0623,3.0623,0,0,0-3.039-1.9395,2.86939,2.86939,0,0,0-2.2354,3.0938A6.22673,6.22673,0,0,0,114.73359,133.75885Zm-1.0205-2.8437a2.3389,2.3389,0,0,1,.6582-3.0782c1.2363-.6328,2.4902.5235,2.7617,1.6817a.306.306,0,0,0,.1953.2324c-.0156.0625-.0312.1269-.0469.1894a.283.283,0,0,0,.5459.1485,1.747,1.747,0,0,1,.8789-1.2051,4.97,4.97,0,0,1,1.337-.3887c.3281-.039.7793-.0234.8877.3633a2.34116,2.34116,0,0,1,.0087,1.2813,9.37809,9.37809,0,0,1-1.4082,2.5996c-.4218.6269-1.206,1.1953-1.5957,1.8984a5.46339,5.46339,0,0,1-.6816-.3574,11.14881,11.14881,0,0,1-1.3301-1.0215A9.58019,9.58019,0,0,1,113.71309,130.91515Z" fill="#463131"/>
        </g>
      </g>
    </g>
  </g>
</svg>
