<svg xmlns="http://www.w3.org/2000/svg" viewBox="0 0 59.1847 59.1843">
  <title>s_web</title>
  <g id="Capa_2" data-name="Capa 2">
    <g id="Editar">
      <g>
        <circle cx="29.59267" cy="29.59217" r="29.59225" fill="#fff"/>
        <g>
          <path d="M39.41,34.5924c2.5013,0,5.0031.0041,7.5049-.0016a5.32069,5.32069,0,0,0,5.2711-4.3745,5.37613,5.37613,0,0,0-4.386-6.326,5.52769,5.52769,0,0,0-.9088-.071q-9.04167.0048-18.0831.0032c-.3508,0-.3443-.0024-.1998.315a11.67657,11.67657,0,0,1,.0183,10.1131c-.1554.3451-.1628.3418.2035.3418q3.185,0,6.3701-.0016a.53622.53622,0,0,1,.52022.4487c.01168.0857-.03722.093-.09352.0955-.1011.004-.2031.0049-.3039.0049-2.2713,0-4.54258.0032-6.8131-.0057a.5656.5656,0,0,0-.5474.3051,11.33629,11.33629,0,0,1-8.8196,5.4172A11.29416,11.29416,0,0,1,8.9832,36.5994,11.27036,11.27036,0,0,1,6.362,28.667,11.60435,11.60435,0,0,1,16.83242,17.5814,11.376,11.376,0,0,1,27.9511,22.9659a.6004.6004,0,0,0,.5707.3182q9.13785-.0123,18.2768-.0049a5.65669,5.65669,0,0,1,5.2409,2.9713,5.90173,5.90173,0,0,1-4.9015,8.8747c-2.0841.0653-4.17058.0171-6.2575.0114a4.07323,4.07323,0,0,1-1.1756-.3818c-.1032-.0326-.2028-.0799-.3044-.1208C39.4042,34.6202,39.4071,34.6063,39.41,34.5924ZM18.037,18.3149A10.89821,10.89821,0,1,0,28.9476,29.4208,10.88789,10.88789,0,0,0,18.037,18.3149Z" fill="#b9007e" fill-rule="evenodd"/>
          <path d="M35.755,33.89c.3459.0816,9.29242,3.4935,10.0438,3.8263-.0151.1126-.12238.1248-.1958.1664-.782.434-1.5631.8697-2.3508,1.2899-.2215.1175-.20278.1909-.0314.3402.8973.7808,1.7887,1.5697,2.6804,2.3578.259.2292.2557.2586.0318.509-.1591.1795-.3284.3516-.472.5434-.1627.2162-.3055.2072-.4988.0342-.8664-.775-1.7399-1.5419-2.61-2.312a1.05957,1.05957,0,0,1-.1031-.0914c-.1359-.1419-.2085-.1232-.2811.0669-.3153.8158-.6441,1.6284-.968,2.441-.04.1028-.0823.2048-.1501.368C39.1403,40.2307,37.4568,37.0759,35.755,33.89Z" fill="#b9007e" fill-rule="evenodd"/>
          <path d="M39.29942,29.956q.27477-1.0536.54868-2.1048c.0301-.1159.0538-.235.0914-.3484.0624-.1991.0277-.5107.19292-.5784a2.212,2.212,0,0,1,.78928-.04c.1672-.0008.1423.1509.1672.2447q.3513,1.3071.6898,2.6189a.3584.3584,0,0,0,.1131.2179c.1705-.5744.3369-1.1341.5005-1.6954.115-.3973.2304-.7963.3386-1.1976.0346-.1338.0917-.2008.2439-.1926.20962.0131.4201.0025.6645.0025-.1644.5637-.3198,1.1005-.4773,1.6365-.2725.9277-.5507,1.8537-.815,2.7837a.26336.26336,0,0,1-.3014.2341c-.6887-.0016-.6887.005-.8645-.6673q-.2985-1.15035-.5979-2.2974c-.0213-.0791-.0507-.1558-.0882-.2758a5.23459,5.23459,0,0,0-.2717.9268c-.1868.6943-.3618,1.3918-.53188,2.0902a.24077.24077,0,0,1-.27662.2235c-.7407.0041-.7342.0082-.9492-.6959-.37318-1.223-.7538-2.4451-1.1299-3.668-.0266-.0873-.0482-.1762-.0792-.2904.3202,0,.6225.009.9227-.0025.1763-.0057.1824.1183.2158.2317q.391,1.3242.7836,2.6483c.018.0611.0429.119.0633.1803A.4521.4521,0,0,1,39.29942,29.956Z" fill="#b9007e" fill-rule="evenodd"/>
          <path d="M43.8978,26.9031a.62138.62138,0,0,1,.0808-.0171c.3133.0017.6805-.0987.9256.0318.25622.1363.2244.5532.3178.8469.206.6502.3932,1.3045.58742,1.9572a.49324.49324,0,0,0,.12358.2512c.1717-.651.3385-1.2767.5013-1.9025.0837-.3214.1734-.6412.2395-.966.0363-.1818.1297-.2708.2998-.2186.2492.0784.6237-.2243.7457.213.2468.877.4699,1.7622.7003,2.6441a.32529.32529,0,0,0,.1155.2162c.15832-.5344.3137-1.0573.4658-1.5819.1237-.4234.2481-.8493.3619-1.276.0415-.155.1004-.2243.279-.2243.6445.0032.6429-.005.4573.6233-.3724,1.262-.7465,2.5258-1.108,3.7919a.27758.27758,0,0,1-.3213.2448c-.685-.0073-.6796-.0016-.8473-.6584-.2146-.8452-.4394-1.6895-.6617-2.5437-.104.0595-.10238.1444-.1219.2227-.2314.9015-.4708,1.8021-.6919,2.7062a.29618.29618,0,0,1-.3528.2732c-.678-.0089-.6771,0-.8775-.6526q-.5622-1.83315-1.1299-3.6688C43.9578,27.1202,43.9322,27.0223,43.8978,26.9031Z" fill="#b9007e" fill-rule="evenodd"/>
          <path d="M33.8092,28.3423q-.2961,1.15035-.5923,2.2974c-.0281.1077-.0473.2178-.0836.3222-.0645.1869-.0184.4838-.19988.5401a2.81331,2.81331,0,0,1-.82322.0262c-.0852,0-.0999-.0743-.1191-.133-.4613-1.4963-.9215-2.9909-1.3885-4.5133.3316,0,.6355.0074.9386-.0016.155-.0041.17422.0971.2064.2056q.372,1.27395.7485,2.5479a.86034.86034,0,0,0,.1567.3165c.1109-.4079.2247-.8166.3304-1.2262.1403-.5343.279-1.0703.4054-1.6096a.25593.25593,0,0,1,.297-.2374c.6906.0032.6906-.0033.8697.6681q.3084,1.16265.6192,2.326a.70757.70757,0,0,0,.051.1028,6.81015,6.81015,0,0,0,.31092-.975q.279-.92625.53258-1.8617a.28753.28753,0,0,1,.3341-.2602c.6005.0106.603.0016.4337.5743-.3765,1.2825-.7587,2.5618-1.1296,3.845-.0489.1665-.1105.2391-.2965.2407-.7.0041-.6984.0106-.8705-.6632q-.29925-1.16265-.605-2.3244c-.0174-.0701-.0452-.137-.0693-.2056C33.8468,28.3439,33.828,28.3423,33.8092,28.3423Z" fill="#b9007e" fill-rule="evenodd"/>
          <path d="M15.0743,29.5954v-.0056c-.7094,0-1.42-.0017-2.1302,0-.4304.0015-.5751.1354-.547.5653a11.47461,11.47461,0,0,0,1.0398,3.8997.40583.40583,0,0,0,.5764.2211,11.62188,11.62188,0,0,1,3.23112-.6943c.39858-.0335.49928-.146.48948-.5482-.0233-.9594-.0138-1.9181.00252-2.8775.00728-.4332-.12612-.5589-.55932-.5605Zm3.3673,1.9996h.0106c0,.5083-.0065,1.0158.0017,1.5216.00452.3198.0987.4218.39652.4577.26388.0334.53068.0555.79618.0856a10.34466,10.34466,0,0,1,2.4647.598c.3182.1184.5046.0653.625-.2015a11.48982,11.48982,0,0,0,1.038-3.8442c.0388-.4944-.0982-.6241-.59988-.6224q-2.07378.0036-4.149.0056c-.46512,0-.58862.1265-.58582.5898C18.4433,30.656,18.4416,31.1259,18.4416,31.595Zm-3.3588-2.8807v-.0032c.7188-.0009,1.4384.0016,2.1571-.0025.3778-.0016.5099-.1264.4973-.5009q-.03735-1.2177-.0033-2.4336c.0122-.4324-.1362-.5834-.57348-.594a7.99663,7.99663,0,0,1-1.04432-.1004,12.75955,12.75955,0,0,1-2.2631-.6118c-.3472-.124-.4781-.08-.6021.2251a11.51656,11.51656,0,0,0-.8522,3.4136c-.0395.4944.08572.6061.58172.6061Q14.031,28.7151,15.0828,28.7143Zm6.0104-.0041v.0041c.7183,0,1.4366.0017,2.1558-.0016.4169-.0016.545-.1362.5287-.5556-.0086-.1917-.0355-.385-.0621-.5759a12.20837,12.20837,0,0,0-.777-2.8678c-.1154-.292-.2603-.354-.5678-.2635-.0878.0253-.17338.0596-.2611.089a10.25171,10.25171,0,0,1-3.1231.642c-.4144.0098-.5589.1738-.5441.5956.0281.8003.0314,1.6032-.0029,2.4042-.0171.4064.1146.5279.523.5287Q20.0279,28.712,21.0932,28.7102Zm2.5853,5.7338a.69874.69874,0,0,0,.343.6559c.2914.2096.592.4104.898.5956a.49612.49612,0,0,0,.7525-.1306c.2227-.27.4316-.5523.6343-.8395a9.94218,9.94218,0,0,0,1.6448-4.5262c.0709-.5295.013-.6013-.5115-.6079a15.8184,15.8184,0,0,1-1.8247-.026c-.6066-.08-.9594.1705-.9802.7799a9.62418,9.62418,0,0,1-.6351,2.9607A4.33518,4.33518,0,0,0,23.6785,34.444ZM9.5992,29.5922c-.3941,0-.6621-.0024-.9285.0008-.4388.004-.5168.093-.4556.536.0376.2741.0987.5441.14032.8183a9.47845,9.47845,0,0,0,2.04368,4.5018c.3419.4324.5254.4609.9827.1705.195-.124.3907-.2447.5792-.3786.5765-.4054.6613-.6208.4316-1.2898a12.51579,12.51579,0,0,1-.8705-3.7276.66417.66417,0,0,0-.8342-.6641C10.2821,29.6126,9.87742,29.5783,9.5992,29.5922Zm.0318-.8714v-.0179c.2949,0,.5907.0082.8852-.0008.6416-.0171.8456-.1778.95822-.8003a14.365,14.365,0,0,1,.97688-3.5889.3898.3898,0,0,0-.1387-.5589c-.4658-.2276-.8749-.5482-1.3379-.7767a.52737.52737,0,0,0-.7914.1828,9.82049,9.82049,0,0,0-.7991,1.2597,10.555,10.555,0,0,0-1.1544,3.668c-.064.4976.0934.651.5719.6363C9.0779,28.7127,9.35442,28.7208,9.631,28.7208Zm16.87242-.0244v.0179c.26758,0,.53518-.0098.80278.0017.567.0252.7061-.0979.63222-.6707a10.30817,10.30817,0,0,0-1.90572-4.8297c-.2946-.4023-.47728-.4381-.9167-.1926-.37.2073-.7232.4439-1.09558.6446-.35252.1884-.42552.3353-.26932.7081.1432.3418.2766.6837.3941,1.0345.2831.8501.39122,1.741.59022,2.6099a.70918.70918,0,0,0,.8.6738C25.8581,28.7111,26.1807,28.6964,26.50342,28.6964ZM17.7355,21.7887H17.729c0-.6926-.0033-1.3845.0025-2.0747.0016-.2064-.0669-.2301-.22108-.115-.32392.2439-.65632.4773-.97252.7318a11.35388,11.35388,0,0,0-2.465,2.7795c-.1963.3092-.1689.4365.1154.5377a11.53508,11.53508,0,0,0,2.98312.66c.45028.0334.56248-.0775.56338-.5278C17.7372,23.1177,17.7355,22.4519,17.7355,21.7887Zm.72292-.0171H18.4457c0,.6452.0054,1.2906-.0016,1.9367-.0049.5442.1016.6462.6522.5948a11.5873,11.5873,0,0,0,2.7943-.6274c.3859-.1371.4214-.2309.2027-.5776a11.797,11.797,0,0,0-3.4204-3.4893c-.0509-.0351-.099-.1061-.1652-.0817-.0909.036-.0477.1298-.0477.1967C18.4563,20.4058,18.45842,21.0879,18.45842,21.7716ZM17.7372,36.6623h-.0115c0-.2856-.0008-.5711.0009-.8567.0016-.2872.0106-.5719.00982-.8583-.00252-.4046-.12292-.5254-.52052-.4748a13.25451,13.25451,0,0,0-2.6438.5482c-.4026.1355-.4565.2873-.2174.6283a11.83721,11.83721,0,0,0,2.9382,2.9361c.09352.0645.1983.1681.3223.1094.1387-.0678.1196-.2178.12122-.3451C17.7392,37.7881,17.7372,37.226,17.7372,36.6623Zm.7085-.018v1.6063c0,.1534-.04528.3468.1098.4276.15292.0791.2925-.0637.41492-.1501A12.14239,12.14239,0,0,0,21.8066,35.675c.2566-.3614.19982-.518-.2313-.664a13.57925,13.57925,0,0,0-2.5928-.5369c-.427-.0562-.5409.0694-.5368.5091C18.4502,35.5372,18.4457,36.0912,18.4457,36.6443ZM24.7815,21.982c-.0016-.1419-.03708-.2088-.2329-.372a10.1384,10.1384,0,0,0-3.4465-1.9343c-.20968-.0661-.4193-.1387-.6314-.195a.22391.22391,0,0,0-.2677.0913c-.0371.0865.0849.1232.1436.1746a14.31127,14.31127,0,0,1,1.4767,1.4914c.38712.4593.7057.9684,1.08712,1.4301.23988.2897.40708.3492.69388.2219a4.642,4.642,0,0,0,1.0472-.6632A.28936.28936,0,0,0,24.7815,21.982Zm-11.9855.9668a.4617.4617,0,0,0,.3659-.1689,4.60542,4.60542,0,0,0,.3468-.4291,13.34918,13.34918,0,0,1,2.3064-2.596c.0595-.0514.2056-.0906.1464-.1958-.0563-.1012-.1913-.1036-.3027-.0702-.2019.0596-.4022.1289-.6033.1942a10.13614,10.13614,0,0,0-3.4024,1.9009c-.3806.3157-.36268.5107.0529.7913.24442.1632.4998.3117.7519.4635A.76517.76517,0,0,0,12.796,22.9488Zm7.4507,15.8575a8.58582,8.58582,0,0,0,4.1338-1.9613c.2008-.1697.1735-.3402-.0416-.5025a9.24047,9.24047,0,0,0-1.0483-.6112c-.2684-.1517-.3786-.1304-.54818.1314a12.55881,12.55881,0,0,1-.93822,1.263C21.3138,37.7098,20.77042,38.2434,20.2467,38.8063Zm-4.3015.0163a.30248.30248,0,0,0-.0277-.071,16.35882,16.35882,0,0,1-2.545-2.977.28331.28331,0,0,0-.41208-.0881c-.33812.1893-.68122.3679-1.00722.5752-.3793.2398-.3866.4201-.0379.6959a9.37946,9.37946,0,0,0,3.2075,1.6904A3.36386,3.36386,0,0,0,15.9452,38.8226Z" fill="#b9007e" fill-rule="evenodd"/>
          <path d="M15.0743,29.5954h2.1028c.4332.0016.5666.1273.55932.5605-.01632.9594-.02582,1.9181-.00252,2.8775.0098.4022-.0909.5147-.48948.5482a11.62188,11.62188,0,0,0-3.23112.6943.40583.40583,0,0,1-.5764-.2211,11.47461,11.47461,0,0,1-1.0398-3.8997c-.0281-.4299.1166-.5638.547-.5653.7102-.0017,1.4208,0,2.1302,0Z" fill="#b9007e" fill-rule="evenodd"/>
          <path d="M18.4416,31.595c0-.4691.0017-.939-.002-1.4098-.0028-.4633.1207-.5898.58582-.5898q2.07372-.0024,4.149-.0056c.50168-.0017.63868.128.59988.6224a11.48982,11.48982,0,0,1-1.038,3.8442c-.1204.2668-.3068.3199-.625.2015a10.34466,10.34466,0,0,0-2.4647-.598c-.2655-.0301-.5323-.0522-.79618-.0856-.29782-.0359-.392-.1379-.39652-.4577-.0082-.5058-.0017-1.0133-.0017-1.5216Z" fill="#b9007e" fill-rule="evenodd"/>
          <path d="M15.0828,28.7143q-1.053,0-2.10238-.0016c-.496,0-.62122-.1117-.58172-.6061a11.51656,11.51656,0,0,1,.8522-3.4136c.124-.3051.2549-.3491.6021-.2251a12.75955,12.75955,0,0,0,2.2631.6118,7.99663,7.99663,0,0,0,1.04432.1004c.43728.0106.58568.1616.57348.594q-.0336,1.21635.0033,2.4336c.0126.3745-.1195.4993-.4973.5009-.7187.0041-1.4383.0016-2.1571.0016Z" fill="#b9007e" fill-rule="evenodd"/>
          <path d="M21.0932,28.7102q-1.0653,0-2.1306-.0008c-.4084-.0008-.5401-.1223-.523-.5287.0343-.801.031-1.6039.0029-2.4042-.0148-.4218.1297-.5858.5441-.5956a10.25171,10.25171,0,0,0,3.1231-.642c.08772-.0294.1733-.0637.2611-.089.3075-.0905.4524-.0285.5678.2635a12.20837,12.20837,0,0,1,.777,2.8678c.0266.1909.0535.3842.0621.5759.0163.4194-.1118.554-.5287.5556-.7192.0033-1.4375.0016-2.1558.0016Z" fill="#b9007e" fill-rule="evenodd"/>
          <path d="M23.6785,34.444a4.33518,4.33518,0,0,1,.3211-1.1381,9.62418,9.62418,0,0,0,.6351-2.9607c.0208-.6094.3736-.8599.9802-.7799a15.8184,15.8184,0,0,0,1.8247.026c.5245.0066.5824.0784.5115.6079a9.94218,9.94218,0,0,1-1.6448,4.5262c-.2027.2872-.4116.5695-.6343.8395a.49612.49612,0,0,1-.7525.1306c-.306-.1852-.6066-.386-.898-.5956A.69874.69874,0,0,1,23.6785,34.444Z" fill="#b9007e" fill-rule="evenodd"/>
          <path d="M9.5992,29.5922c.27822-.0139.6829.0204,1.0887-.0327a.66417.66417,0,0,1,.8342.6641,12.51579,12.51579,0,0,0,.8705,3.7276c.2297.669.1449.8844-.4316,1.2898-.1885.1339-.3842.2546-.5792.3786-.4573.2904-.6408.2619-.9827-.1705a9.47845,9.47845,0,0,1-2.04368-4.5018c-.04162-.2742-.10272-.5442-.14032-.8183-.0612-.443.0168-.532.4556-.536C8.9371,29.5898,9.2051,29.5922,9.5992,29.5922Z" fill="#b9007e" fill-rule="evenodd"/>
          <path d="M9.631,28.7208c-.27658,0-.5531-.0081-.8293.0033-.4785.0147-.6359-.1387-.5719-.6363a10.555,10.555,0,0,1,1.1544-3.668,9.82049,9.82049,0,0,1,.7991-1.2597.52737.52737,0,0,1,.7914-.1828c.463.2285.8721.5491,1.3379.7767a.3898.3898,0,0,1,.1387.5589,14.365,14.365,0,0,0-.97688,3.5889c-.11262.6225-.31662.7832-.95822.8003-.2945.009-.5903.0008-.8852.0008Z" fill="#b9007e" fill-rule="evenodd"/>
          <path d="M26.50342,28.6964c-.32272,0-.64532.0147-.968-.0025a.70918.70918,0,0,1-.8-.6738c-.199-.8689-.30712-1.7598-.59022-2.6099-.1175-.3508-.2509-.6927-.3941-1.0345-.1562-.3728-.0832-.5197.26932-.7081.37238-.2007.72558-.4373,1.09558-.6446.43942-.2455.6221-.2097.9167.1926a10.30817,10.30817,0,0,1,1.90572,4.8297c.07388.5728-.06522.6959-.63222.6707-.2676-.0115-.5352-.0017-.80278-.0017Z" fill="#b9007e" fill-rule="evenodd"/>
          <path d="M17.7355,21.7887c0,.6632.0017,1.329-.0007,1.9915-.0009.4503-.1131.5612-.56338.5278a11.53508,11.53508,0,0,1-2.98312-.66c-.2843-.1012-.3117-.2285-.1154-.5377a11.35388,11.35388,0,0,1,2.465-2.7795c.3162-.2545.6486-.4879.97252-.7318.15418-.1151.22268-.0914.22108.115-.0058.6902-.0025,1.3821-.0025,2.0747Z" fill="#b9007e" fill-rule="evenodd"/>
          <path d="M18.45842,21.7716c0-.6837-.00212-1.3658.00158-2.0478,0-.0669-.0432-.1607.0477-.1967.0662-.0244.1143.0466.1652.0817a11.797,11.797,0,0,1,3.4204,3.4893c.2187.3467.1832.4405-.2027.5776a11.5873,11.5873,0,0,1-2.7943.6274c-.5506.0514-.6571-.0506-.6522-.5948.007-.6461.0016-1.2915.0016-1.9367Z" fill="#b9007e" fill-rule="evenodd"/>
          <path d="M17.7372,36.6623c0,.5637.002,1.1258-.00078,1.6871-.00162.1273.01748.2773-.12122.3451-.124.0587-.22878-.0449-.3223-.1094a11.83721,11.83721,0,0,1-2.9382-2.9361c-.2391-.341-.1852-.4928.2174-.6283a13.25451,13.25451,0,0,1,2.6438-.5482c.3976-.0506.518.0702.52052.4748.00078.2864-.00822.5711-.00982.8583-.0017.2856-.0009.5711-.0009.8567Z" fill="#b9007e" fill-rule="evenodd"/>
          <path d="M18.4457,36.6443c0-.5531.0045-1.1071,0-1.6611-.0041-.4397.1098-.5653.5368-.5091a13.57925,13.57925,0,0,1,2.5928.5369c.43112.146.4879.3026.2313.664a12.14239,12.14239,0,0,1-2.83618,2.8531c-.12242.0864-.262.2292-.41492.1501-.15508-.0808-.1098-.2742-.1098-.4276Z" fill="#b9007e" fill-rule="evenodd"/>
          <path d="M24.7815,21.982a.28936.28936,0,0,1-.13.2448,4.642,4.642,0,0,1-1.0472.6632c-.2868.1273-.454.0678-.69388-.2219-.38142-.4617-.7-.9708-1.08712-1.4301a14.31127,14.31127,0,0,0-1.4767-1.4914c-.0587-.0514-.1807-.0881-.1436-.1746a.22391.22391,0,0,1,.2677-.0913c.2121.0563.42172.1289.6314.195A10.1384,10.1384,0,0,1,24.5486,21.61C24.74442,21.7732,24.7799,21.8401,24.7815,21.982Z" fill="#b9007e" fill-rule="evenodd"/>
          <path d="M12.796,22.9488a.76517.76517,0,0,1-.3381-.1101c-.2521-.1518-.50748-.3003-.7519-.4635-.41558-.2806-.4335-.4756-.0529-.7913a10.13614,10.13614,0,0,1,3.4024-1.9009c.2011-.0653.4014-.1346.6033-.1942.1114-.0334.2464-.031.3027.0702.0592.1052-.0869.1444-.1464.1958a13.34918,13.34918,0,0,0-2.3064,2.596,4.60542,4.60542,0,0,1-.3468.4291A.4617.4617,0,0,1,12.796,22.9488Z" fill="#b9007e" fill-rule="evenodd"/>
          <path d="M20.2467,38.8063c.52372-.5629,1.0671-1.0965,1.5575-1.6806a12.55881,12.55881,0,0,0,.93822-1.263c.16958-.2618.27978-.2831.54818-.1314a9.24047,9.24047,0,0,1,1.0483.6112c.2151.1623.2424.3328.0416.5025A8.58582,8.58582,0,0,1,20.2467,38.8063Z" fill="#b9007e" fill-rule="evenodd"/>
          <path d="M15.9452,38.8226a3.36386,3.36386,0,0,1-.8224-.1746,9.37946,9.37946,0,0,1-3.2075-1.6904c-.3487-.2758-.3414-.4561.0379-.6959.326-.2073.6691-.3859,1.00722-.5752a.28331.28331,0,0,1,.41208.0881,16.35882,16.35882,0,0,0,2.545,2.977A.30248.30248,0,0,1,15.9452,38.8226Z" fill="#b9007e" fill-rule="evenodd"/>
        </g>
      </g>
    </g>
  </g>
</svg>
