<svg xmlns="http://www.w3.org/2000/svg" viewBox="0 0 24.42625 23.46903">
  <title>Recurso 11</title>
  <g id="Capa_2" data-name="Capa 2">
    <g id="Editar">
      <g>
        <polygon points="12.366 22.348 8.806 15.468 1.121 14.499 6.565 8.987 5.111 1.38 12.034 4.855 18.821 1.12 17.657 8.778 23.305 14.079 15.662 15.337 12.366 22.348" fill="#facb07"/>
        <path d="M11.89334,23.36437a1.12722,1.12722,0,0,1-.5234-.5019L8.08184,16.507l-7.1006-.8965a1.12031,1.12031,0,0,1-.6577-1.8984l5.0293-5.0918L4.01054,1.59a1.1184,1.1184,0,0,1,.4243-1.1045A1.10087,1.10087,0,0,1,5.61406.37807l6.39648,3.209L18.28106.13877a1.12028,1.12028,0,0,1,1.64848,1.1504l-1.0757,7.0752,5.2187,4.8965a1.12238,1.12238,0,0,1-.5854,1.9248l-7.0615,1.1621-3.0459,6.4775a1.11987,1.11987,0,0,1-1.4864.5391Zm-2.6137-8.9121a1.11662,1.11662,0,0,1,.52342.5l2.51508,4.8613,2.3301-4.9531a1.121,1.121,0,0,1,.832-.6289l5.4019-.8897-3.9917-3.7451a1.12442,1.12442,0,0,1-.3413-.9873l.8223-5.4121-4.7959,2.6377a1.13166,1.13166,0,0,1-1.04348.0205l-4.894-2.4551,1.02778,5.378a1.12081,1.12081,0,0,1-.3027.998l-3.8477,3.8936,5.43162.6865A1.05226,1.05226,0,0,1,9.27964,14.45227Z" fill="#2b1012"/>
      </g>
    </g>
  </g>
</svg>
