<svg xmlns="http://www.w3.org/2000/svg" viewBox="0 0 170.79587 205.96886">
  <title>Recurso 6</title>
  <g id="Capa_2" data-name="Capa 2">
    <g id="Editar">
      <g>
        <g>
          <path d="M106.96382,27.48543c-2.2666-.165-5.6036-1.1387-7.7432-.4492-5.5,1.7783-7.2471,8.5215-7.7119,13.3477-.4199,4.3701.1767,7.6513,4.8779,9.5869,3.1651,1.3008,7.9453.4238,10.8047-1.1592-2.0957,4.376-4.124,9.668.2959,13.0615,5.6904,4.3731,11.3994-.9033,13.0938-6.414-1.1377,3.5273,1.9755,5.6738,5.122,5.7812,3.9199.1289,3.0078-2.2686,4.8633-4.9609-1.6338,7.3017,9.666,10.6113,14.9346,9.5429,4.6953-.9482,5.6113-4.8672,7.3398-8.8828.8887-2.0683,3.1475-6.0937-.2705-7.3232,4.96191,4.5537,14.9512-3.834,14.9727-9.6807.0185-5.0849-7.7901-9.6758-11.0723-4.793,2.3711-3.498,3.8916-4.8095,4.2002-9.3642.2725-4.0039-.5859-6.8272-4.0586-9.2725-8.8877-6.2558-17.0488,4.9424-17.4766,13.0244.918-4.2793-.3134-10.1552-4.64449-12.123-2.56351-1.1631-7.21581-.918-9.17681,1.291-1.8701,2.1065-1.3945,5.6572-1.53119,8.3086-2.168-3.957-2.83011-9.7305-8.14551-11.0674-4.8174-1.2119-14.2813,9.7754-9.9443,13.6836" fill="#fff"/>
          <path d="M143.27042,67.46983c-4.0469,0-9.1387-1.5352-12.0088-4.4648a8.57351,8.57351,0,0,1-1.4424-1.9327c-.70409.9541-1.874,1.6924-4.16309,1.6133a7.54068,7.54068,0,0,1-5.69821-2.6562,11.47218,11.47218,0,0,1-5.7197,4.5312,8.05367,8.05367,0,0,1-7.6309-1.541c-4.249-3.2617-3.4785-7.9893-2.1367-11.5947a14.11281,14.11281,0,0,1-8.6348-.1192c-5.7754-2.374-6.1836-6.7187-5.7666-11.0605.4375-4.5371,2.1494-12.4629,8.7061-14.584a10.69123,10.69123,0,0,1,4.5195-.1475,11.22548,11.22548,0,0,1,1.1299-3.0058c2.4189-4.5381,7.7705-8.9278,11.5645-7.9707,3.6777.9248,5.4433,3.582,6.7138,6.3779a6.94483,6.94483,0,0,1,1.5293-3.1758c2.3799-2.6826,7.6953-3.082,10.8565-1.6474a9.53171,9.53171,0,0,1,4.8828,5.539,16.61123,16.61123,0,0,1,7.041-7.3672,9.80037,9.80037,0,0,1,10.4326,1.0606c3.6025,2.5371,4.999,5.6924,4.668,10.5508a13.16477,13.16477,0,0,1-1.53809,5.7461,7.6038,7.6038,0,0,1,1.95409.3408c3.1416.9639,6.4726,4.0879,6.46,7.9785-.0166,4.54-4.6846,9.626-9.0332,11.5273a9.73083,9.73083,0,0,1-4.1153.9014,12.76518,12.76518,0,0,1-1.3847,4.4971c-.1045.2304-.2012.4453-.2862.6435-.2285.5313-.4414,1.0577-.6513,1.5772-1.4278,3.5283-2.9053,7.1758-7.7315,8.1523A12.86978,12.86978,0,0,1,143.27042,67.46983Zm-12.7041-12.6357a1.44571,1.44571,0,0,1,1.4111,1.7607,4.5017,4.5017,0,0,0,1.34871,4.3867c2.72949,2.7852,8.52929,4.1026,11.88769,3.4238,3.1504-.6367,4.1416-2.7392,5.624-6.4033.2178-.5371.4404-1.0859.6767-1.6338.0899-.2119.1954-.4453.3077-.6923.5322-1.1768,1.41891-3.1387,1.04491-4.0792a6.43489,6.43489,0,0,1-1.27441-.916,1.44495,1.44495,0,0,1,1.4668-2.4238,4.47318,4.47318,0,0,1,1.6445.999,5.71809,5.71809,0,0,0,4.0928-.4375c3.8105-1.665,7.291-5.9023,7.3008-8.8886.0078-2.1202-1.9747-4.4551-4.417-5.2041a3.30511,3.30511,0,0,0-3.9893,1.1933l-.0244.0342a1.44528,1.44528,0,0,1-2.3965-1.6162l.0029-.0049h.002c.00881-.0127.0156-.0254.0254-.0381.3926-.5801.7636-1.1006,1.10941-1.5859,1.66989-2.3496,2.58979-3.6416,2.81929-7.0283.26271-3.8702-.6719-6.0362-3.4492-7.9922a6.99226,6.99226,0,0,0-7.5039-.8213c-3.8194,1.8554-6.57819,6.6338-7.4327,10.7617a14.4427,14.4427,0,0,1-.2949,2.2061,1.44527,1.44527,0,0,1-2.8564-.3799,15.93339,15.93339,0,0,1,.2763-2.1875c.1504-3.4883-1.164-7.2207-4.0751-8.543-2.0948-.9502-6.0459-.7012-7.4991.9346-1.1191,1.2607-1.1269,3.4717-1.1328,5.6084-.0029.6299-.0058,1.2422-.0361,1.8125a1.44451,1.44451,0,0,1-2.71.6211,32.45945,32.45945,0,0,1-1.5556-3.4698c-1.2559-3.125-2.4444-6.0771-5.67579-6.8896-2.06351-.5205-6.33991,2.834-8.30961,6.5264a9.125,9.125,0,0,0-.81439,2.0771c.32319.044.62889.0791.90909.0986a1.44579,1.44579,0,0,1-.1045,2.8877h-.0019a1.44557,1.44557,0,0,1-2.2373,1.7657,4.65881,4.65881,0,0,1-1.3965-2.2579,9.13355,9.13355,0,0,0-3.665-.0253c-4.9844,1.6113-6.3477,8.2783-6.71589,12.1093-.38861,4.0362.13189,6.5244,3.98829,8.1114,2.6904,1.1054,7.05571.2959,9.55571-1.086a1.44521,1.44521,0,0,1,2.00289,1.8887c-2.3935,4.998-3.332,8.8301-.12689,11.29a5.26133,5.26133,0,0,0,4.99119,1.0791c2.46581-.7871,4.789-3.459,5.8086-6.6689.0117-.0401.0244-.0811.0371-.1211a1.44565,1.44565,0,0,1,2.7578.8682c-.01169.0351-.0215.0712-.0332.1054a2.41656,2.41656,0,0,0,.2656,2.2041,4.6039,4.6039,0,0,0,3.5576,1.6016c1.6631.0566,1.73831-.1719,2.2959-1.6445a11.8663,11.8663,0,0,1,1.3281-2.6924A1.44569,1.44569,0,0,1,130.56632,54.83413Z" fill="#005eaa"/>
        </g>
        <g opacity="0.57">
          <path d="M143.27242,69.27453c-4.4512,0-10.0137-1.6504-13.3008-5.0049-.1768-.1807-.3448-.3623-.5039-.5479a7.49363,7.49363,0,0,1-3.8721.7696,9.86379,9.86379,0,0,1-5.46-1.7988,12.49986,12.49986,0,0,1-5.3496,3.5878,9.95613,9.95613,0,0,1-9.2802-1.8281c-4.003-3.0722-4.3409-7.1445-3.5928-10.708a14.06412,14.06412,0,0,1-6.7627-.7656c-6.9238-2.8486-7.3125-8.3936-6.8789-12.9063.8271-8.5957,4.3603-14.3242,9.9482-16.1298a10.23586,10.23586,0,0,1,3.7588-.3741,14.17365,14.17365,0,0,1,.8516-1.9111c2.331-4.3721,8.2568-10.2188,13.6015-8.8721a10.49261,10.49261,0,0,1,6.0938,4.1865q.16695-.2196.3564-.4326c2.9727-3.3486,9.2129-3.791,12.9541-2.0918a10.49529,10.49529,0,0,1,4.23931,3.5518,16.79215,16.79215,0,0,1,6.14839-5.3594,11.687,11.687,0,0,1,12.2617,1.207c5.292,3.7266,5.6827,8.4522,5.4307,12.1514a16.91738,16.91738,0,0,1-.7861,4.2598c4.3906,1.3799,7.6806,5.5322,7.666,9.6885-.0195,5.415-5.2666,11.0566-10.1162,13.1767a12.47312,12.47312,0,0,1-3.2656.9483,19.31078,19.31078,0,0,1-1.3125,3.54c-.0987.2187-.19139.4228-.2715.6103-.2237.5196-.4326,1.0362-.6367,1.542-1.4571,3.5997-3.2686,8.0801-9.0479,9.2452A14.55318,14.55318,0,0,1,143.27242,69.27453Zm-12.7041-16.2481a3.255,3.255,0,0,1,3.17181,3.9629,2.6878,2.6878,0,0,0,.876,2.7266c2.26169,2.3086,7.44919,3.4844,10.23929,2.918,2.1582-.4356,2.8584-1.7266,4.3076-5.3096.2226-.5498.4492-1.1094.6904-1.6699.09471-.2207.2051-.4649.3233-.7246a16.41817,16.41817,0,0,0,.9062-2.3321,8.39433,8.39433,0,0,1-.7119-.5849,3.25212,3.25212,0,0,1,3.2998-5.4561,6.40092,6.40092,0,0,1,1.9228,1.0684,4.53547,4.53547,0,0,0,2.48151-.461c3.33789-1.4619,6.208-5.2031,6.21579-7.2412.0039-1.3095-1.4922-2.9638-3.1416-3.4707-1.2695-.3887-1.7187.1289-1.9375.4434-.0156.0234-.0322.0469-.0488.0722a3.25185,3.25185,0,0,1-5.3906-3.6386c.01171-.0186.0234-.0371.0361-.0557.4004-.5889.7764-1.1191,1.1289-1.6143,1.6221-2.2812,2.2949-3.2246,2.4902-6.1005.2188-3.253-.4326-4.8057-2.68749-6.3946a5.17918,5.17918,0,0,0-5.67381-.6738c-3.1885,1.5498-5.6475,5.7402-6.4316,9.3897a15.82387,15.82387,0,0,1-.3194,2.332,3.25219,3.25219,0,0,1-6.4277-.8535,18.06832,18.06832,0,0,1,.2812-2.3028c.0879-2.7695-.8896-5.7187-3.0214-6.6855-1.5547-.707-4.585-.4336-5.4014.4873-.667.75-.6738,2.7842-.6787,4.416-.002.6602-.0049,1.3008-.03619,1.8984a3.25246,3.25246,0,0,1-6.10051,1.3965,33.9459,33.9459,0,0,1-1.64749-3.665c-1.30181-3.2383-2.21291-5.251-4.43851-5.8106-.7627-.0644-3.3252,1.3594-5.4111,4.25a12.42975,12.42975,0,0,0-.8408,1.3262,3.2536,3.2536,0,0,1,.31541,5.4229,3.25064,3.25064,0,0,1-5.39161,1.9482,6.44325,6.44325,0,0,1-1.4775-1.9394,5.29246,5.29246,0,0,0-1.8194.0312c-4.1513,1.3428-5.2109,7.834-5.4736,10.5625-.3984,4.1523.4062,5.251,2.8779,6.2686,2.0947.8593,5.8926.165,7.99321-.9961a3.25186,3.25186,0,0,1,4.50779,4.25c-2.8066,5.8584-2.3672,7.7646-.6572,9.0771a3.40246,3.40246,0,0,0,3.3427.7901c1.8702-.5967,3.80771-2.8956,4.6338-5.4893.0127-.0439.0264-.0889.0401-.1328a3.25312,3.25312,0,0,1,6.206,1.9531c-.0117.0342-.0224.0684-.03319.1035-.12691.4317-.03121.5684.01659.6358a2.9412,2.9412,0,0,0,2.1406.8349c.1456.0059.2647.0039.3594,0,.0615-.1513.1289-.3301.1856-.4795a13.549,13.549,0,0,1,1.5293-3.0761A3.2527,3.2527,0,0,1,130.56832,53.02643Z" fill="#0087cb"/>
        </g>
      </g>
      <g>
        <g>
          <path d="M48.09022,16.54993c-2.3359-.1699-5.7754-1.1748-7.9814-.4629-5.6709,1.833-7.47169,8.7842-7.9502,13.7607-.4336,4.5049.1816,7.8887,5.0293,9.8828,3.2617,1.3409,8.1904.4375,11.1387-1.1953-2.1612,4.5108-4.252,9.9678.3046,13.4668,5.8672,4.5069,11.752-.9336,13.4981-6.6133-1.1719,3.6358,2.0361,5.8487,5.2812,5.96,4.0411.1338,3.10061-2.3389,5.0137-5.1143-1.6836,7.5274,9.96491,10.9395,15.3965,9.837,4.8398-.9766,5.7852-5.0157,7.56741-9.1582.915-2.1309,3.24309-6.2813-.28031-7.5469,5.1152,4.6933,15.4141-3.9531,15.4375-9.9815.0176-5.2431-8.03219-9.9756-11.416-4.9404,2.4433-3.6084,4.0117-4.96,4.3301-9.6553.2812-4.1259-.6035-7.0371-4.1836-9.5576-9.1631-6.4512-17.5762,5.0938-18.0176,13.4268.9463-4.4112-.3223-10.4698-4.78909-12.4971-2.64061-1.2002-7.43751-.9473-9.45991,1.3301-1.9287,2.1709-1.4375,5.832-1.57909,8.5644-2.23441-4.0781-2.917-10.0302-8.39651-11.4091-4.9668-1.2491-14.7227,10.0791-10.252,14.1064" fill="#fff"/>
          <path d="M85.52192,57.76963c-4.1729,0-9.4219-1.582-12.3809-4.6025a8.79566,8.79566,0,0,1-1.4863-1.9922c-.72659.9843-1.93359,1.7441-4.293,1.6631a7.773,7.773,0,0,1-5.875-2.7373,11.81914,11.81914,0,0,1-5.8955,4.6699,8.30614,8.30614,0,0,1-7.8682-1.5869c-4.37889-3.3623-3.58489-8.2373-2.2021-11.9551a14.54881,14.54881,0,0,1-8.9014-.1211c-5.9531-2.4483-6.375-6.9277-5.9453-11.4033.4512-4.6768,2.2158-12.8487,8.9766-15.0342a10.97145,10.97145,0,0,1,4.6582-.1514,11.61662,11.61662,0,0,1,1.164-3.1006c2.4942-4.6767,8.0118-9.2031,11.9229-8.2168,3.792.9532,5.6123,3.6934,6.9219,6.5743a7.16067,7.16067,0,0,1,1.5761-3.2735c2.4541-2.7646,7.9346-3.1777,11.1924-1.6992a9.82337,9.82337,0,0,1,5.0332,5.7129A17.1277,17.1277,0,0,1,89.37932,2.92a10.10181,10.10181,0,0,1,10.7549,1.0918c3.7138,2.6162,5.1533,5.8701,4.8115,10.8789a13.55621,13.55621,0,0,1-1.585,5.9219,8.00238,8.00238,0,0,1,2.0147.3515c3.2383.9942,6.6728,4.2149,6.6601,8.2266-.0175,4.6807-4.83,9.9228-9.3125,11.8838a10.02036,10.02036,0,0,1-4.2431.9287,13.205,13.205,0,0,1-1.42679,4.6367c-.10841.2363-.207.459-.29491.6621-.2363.5469-.457,1.0908-.6729,1.627-1.4716,3.6377-2.9941,7.3984-7.9697,8.4043A13.19255,13.19255,0,0,1,85.52192,57.76963Zm-13.0977-13.0254a1.4897,1.4897,0,0,1,1.4551,1.8164,4.63993,4.63993,0,0,0,1.3887,4.5215c2.8144,2.8721,8.7949,4.2295,12.2568,3.5293,3.2471-.6563,4.2686-2.8242,5.7978-6.5996.2237-.5567.4532-1.1211.6973-1.6865.0928-.2168.20221-.459.3164-.7149.54881-1.2119,1.4629-3.2334,1.0781-4.2041A6.60631,6.60631,0,0,1,94.1,40.463a1.49044,1.49044,0,0,1,1.5127-2.5,4.62609,4.62609,0,0,1,1.6953,1.0302,5.87984,5.87984,0,0,0,4.2197-.4502c3.9278-1.7168,7.5157-6.0859,7.52541-9.164.00979-2.1856-2.03421-4.5918-4.55271-5.3662a3.409,3.409,0,0,0-4.11329,1.2324c-.00781.0127-.01561.0224-.02341.0351a1.49063,1.49063,0,0,1-2.4717-1.6669l.0029-.004h0l.002-.0009c.0088-.0147.0166-.0264.0263-.0401.4053-.5967.7881-1.1328,1.1436-1.6347,1.7217-2.4209,2.6699-3.7549,2.9072-7.2452.2695-3.9902-.6924-6.2226-3.5556-8.2392a7.2118,7.2118,0,0,0-7.7364-.8477c-3.9375,1.9121-6.7822,6.8409-7.6631,11.0948a14.81485,14.81485,0,0,1-.3046,2.2744,1.48858,1.48858,0,0,1-2.9424-.3907,16.051,16.051,0,0,1,.2841-2.2558c.1553-3.5947-1.2011-7.4453-4.2021-8.8067-2.1592-.9814-6.2324-.7236-7.7305.9639-1.1552,1.2988-1.1621,3.5781-1.1689,5.7822-.001.6495-.0049,1.2793-.0361,1.8672a1.49015,1.49015,0,0,1-2.795.6407,33.46667,33.46667,0,0,1-1.6035-3.5782c-1.2939-3.2207-2.5195-6.2646-5.8506-7.1025-2.1269-.5361-6.5361,2.9228-8.5674,6.7295a9.45029,9.45029,0,0,0-.83979,2.1396c.334.0479.64839.083.93749.1026a1.49022,1.49022,0,0,1-.1064,2.9765h-.003a1.49067,1.49067,0,0,1-2.3066,1.8213,4.79878,4.79878,0,0,1-1.43949-2.3291,9.4799,9.4799,0,0,0-3.77831-.0263c-5.13869,1.663-6.5439,8.5351-6.9228,12.4853-.4004,4.1602.1347,6.7246,4.1103,8.3613,2.7744,1.1407,7.2744.3067,9.8516-1.1201a1.49021,1.49021,0,0,1,2.0644,1.9492c-2.4658,5.1514-3.4345,9.1016-.1299,11.6377a5.41779,5.41779,0,0,0,5.1456,1.1123c2.5419-.8095,4.9365-3.5654,5.9873-6.874.0117-.042.0263-.084.039-.125a1.49,1.49,0,0,1,2.84281.8936c-.01271.0381-.02151.0742-.03421.1103a2.489,2.489,0,0,0,.2735,2.2715,4.74806,4.74806,0,0,0,3.6679,1.6523c1.7149.0567,1.792-.1787,2.3672-1.6972a12.25977,12.25977,0,0,1,1.3691-2.7735A1.48763,1.48763,0,0,1,72.42422,44.74423Z" fill="#005eaa"/>
        </g>
        <g opacity="0.57">
          <path d="M85.52282,59.63193c-4.5878,0-10.3232-1.7012-13.7128-5.1611-.1817-.1856-.3545-.3721-.5186-.5645a7.69472,7.69472,0,0,1-3.9922.793,10.15867,10.15867,0,0,1-5.6269-1.8526,12.91,12.91,0,0,1-5.5157,3.6983,10.26315,10.26315,0,0,1-9.5683-1.8858c-4.127-3.1669-4.4756-7.3652-3.7041-11.039a14.49209,14.49209,0,0,1-6.9717-.7891c-7.1377-2.9375-7.5391-8.6533-7.0918-13.3047.8535-8.8613,4.4951-14.7666,10.2568-16.6298a10.53991,10.53991,0,0,1,3.8741-.3848,14.33283,14.33283,0,0,1,.8789-1.9697c2.4023-4.5069,8.5117-10.5352,14.0214-9.1485a10.82461,10.82461,0,0,1,6.2823,4.3174q.1713-.22845.3681-.4463c3.0645-3.4521,9.4971-3.9082,13.3536-2.1572a10.80854,10.80854,0,0,1,4.371,3.6641,17.29664,17.29664,0,0,1,6.3379-5.5254,12.04785,12.04785,0,0,1,12.6416,1.2431c5.4551,3.8428,5.8575,8.7139,5.59771,12.5283a17.38788,17.38788,0,0,1-.80961,4.3897c4.5264,1.4228,7.918,5.7041,7.9024,9.9893-.0196,5.582-5.4287,11.3974-10.42779,13.583a12.783,12.783,0,0,1-3.36721.9775,19.87948,19.87948,0,0,1-1.3525,3.6514c-.1025.2246-.1982.4355-.28029.6279-.23041.5361-.44631,1.0674-.65621,1.5918-1.502,3.709-3.3692,8.3271-9.3281,9.5293A15.0394,15.0394,0,0,1,85.52282,59.63193Zm-13.0966-16.751a3.354,3.354,0,0,1,3.2705,4.0869,2.76647,2.76647,0,0,0,.9023,2.8096c2.33111,2.3809,7.6797,3.5918,10.5557,3.0078,2.2265-.4482,2.9472-1.7812,4.44141-5.4736.22849-.5674.46289-1.1445.71089-1.7227.0977-.2255.2119-.4795.334-.7461a17.31811,17.31811,0,0,0,.9356-2.4043,8.29534,8.29534,0,0,1-.7344-.6025,3.35331,3.35331,0,0,1,3.4004-5.6269,6.69107,6.69107,0,0,1,1.9824,1.1025,4.66561,4.66561,0,0,0,2.5586-.4736c3.4414-1.5069,6.4004-5.3643,6.4082-7.4649.0039-1.3515-1.5391-3.0566-3.2383-3.5781-1.3096-.4014-1.77339.1318-1.998.4551-.0166.0244-.0332.0498-.0508.0752a3.3525,3.3525,0,0,1-5.55759-3.751c.01269-.0195.02439-.0391.038-.0576.41219-.6065.80079-1.1533,1.16409-1.6631,1.67191-2.3516,2.3652-3.3252,2.5664-6.2891.2266-3.3554-.4453-4.9551-2.77049-6.5928a5.33489,5.33489,0,0,0-5.84861-.6943c-3.2871,1.5957-5.8223,5.916-6.6309,9.6777a16.25428,16.25428,0,0,1-.3291,2.4063,3.353,3.353,0,0,1-6.6269-.8809,18.45826,18.45826,0,0,1,.291-2.373c.0888-2.8565-.918-5.8955-3.1162-6.8936-1.6035-.7285-4.7266-.4463-5.5684.5049-.6865.7715-.6934,2.8672-.6992,4.5508-.002.6797-.0059,1.3398-.0371,1.957a3.35336,3.35336,0,0,1-6.2891,1.4405,35.07585,35.07585,0,0,1-1.6992-3.7803c-1.3418-3.3369-2.28129-5.4121-4.5752-5.9893-.78609-.0664-3.4287,1.4024-5.57909,4.3809a13.05187,13.05187,0,0,0-.86721,1.3682,3.35183,3.35183,0,0,1,.32621,5.5898,3.34779,3.34779,0,0,1-5.55761,2.0078,6.62745,6.62745,0,0,1-1.52439-1.999,5.47606,5.47606,0,0,0-1.875.0332c-4.27931,1.3838-5.37311,8.0771-5.64361,10.8896-.4102,4.2793.4189,5.4131,2.9668,6.461,2.1592.8877,6.0762.1719,8.2402-1.0264a3.35311,3.35311,0,0,1,4.6475,4.3828c-2.8926,6.0381-2.4395,8.0039-.6777,9.3565a3.51089,3.51089,0,0,0,3.4472.8154c1.9278-.6162,3.9248-2.9854,4.7764-5.6592.0127-.0459.0283-.0918.042-.1377a3.3535,3.3535,0,0,1,6.3974,2.0137c-.0127.0361-.0224.0713-.0341.1064-.1309.4463-.0323.587.0156.6543a3.04184,3.04184,0,0,0,2.209.8623c.1494.0059.2724.0049.3701,0,.0635-.1552.1328-.3398.1904-.4951a14.04714,14.04714,0,0,1,1.5762-3.1699A3.35534,3.35534,0,0,1,72.42622,42.88093Z" fill="#0087cb"/>
        </g>
      </g>
      <g>
        <g>
          <g>
            <path d="M44.69982,114.52243a15.80916,15.80916,0,0,1,.6631,2.0645c.2285.8027,1.0713,1.3769,1.1719,2.1523a7.47926,7.47926,0,0,0,1.208,3.9111,4.12515,4.12515,0,0,0,4.4384,1.8057c2.7237-.501,6.0557-.6729,8.4541-2.1768a4.66449,4.66449,0,0,0,.6934-.54c2.5879,2.0996,7.29,1.167,6.9219-3-.0039-.0449-.0078-.0957-.0127-.1436.4648.0118.9258.0206,1.3701.0479a37.48565,37.48565,0,0,0,8.376-.2383c3.4902-.5605,3.7734-5.0195,1.9053-7.2168a77.88378,77.88378,0,0,1-8.6504-12.751c-1.0577-1.9043-1.8496-3.9619-2.8321-5.9101-1.09269-2.1651-2.625-4.4404-3.3086-6.749a3.00369,3.00369,0,0,0-1.7412-2.0137,11.22213,11.22213,0,0,0-1.8564-4.75,2.36183,2.36183,0,0,0-4.02249,0c-1.52341,2.6572-.90821,6.1367-.97651,9.1211a76.2342,76.2342,0,0,0,.8623,10.6855c.4121,3.4414.375,6.9141.8935,10.3731.211,1.4062.4541,2.8164.6875,4.2295-2.05079-1.2032-4.3476-2.0918-6.09079-3.7432-1.10251-1.0449-2.15531-2.1435-3.20411-3.2441a12.9219,12.9219,0,0,0-2.7695-3.583,3.78907,3.78907,0,0,0-1.7373-.8721,6.18535,6.18535,0,0,1-1.45409-2.4766c-.70021-2.5439-4.32231-1.9092-4.459.6035a10.25209,10.25209,0,0,0,1.92769,6.3018C41.75552,109.18163,43.606,111.91113,44.69982,114.52243Z" fill="#ff8b47"/>
            <path d="M54.34822,162.84663c.4727-3.1338-.5127-5.1836-3.1435-6.9336-1.625-1.082-2.9541-2.5752-4.5254-3.789a14.3761,14.3761,0,0,0,.7959-1.3067,2.67359,2.67359,0,0,0,.0361-2.4609,4.36166,4.36166,0,0,0,.5469-.6777c1.71391-2.6524.9404-5.8194.0098-8.6348-1.12989-3.4199-.9024-5.8174,1.15911-8.7793a3.733,3.733,0,0,0-1.34181-5.1182c-2.24019-1.0625-4.4345-.5517-6.7558-.0146-1.7793.4121-6.4707-.5664-9.1436-1.0615a66.98615,66.98615,0,0,1-7.042-1.6436c-4.4843-2.2578-9.2832-4.0303-12.7607-7.7793-2.2949-2.3418-5.3564-.9326-6.374,1.3643a1.49944,1.49944,0,0,0-1.3526,2.5078,66.16294,66.16294,0,0,0,9.0791,8.9072c3.4395,2.8984,6.1465,6.7188,9.8272,9.2832,3.86621,2.6953,8.0195,4.9326,11.8828,7.6397a64.44618,64.44618,0,0,0,5.7305,4.0771,26.64821,26.64821,0,0,1-7.1934,4.9072c-5.7402,2.794-11.165,7.5791-15.668,12.0508-2.039,2.0264-1.22069,6.041,1.7637,6.6768,4.7363,1.0097,9.8594-1.4659,14.4502-2.4883,2.8799-.6416,5.7383-1.3838,8.6006-2.0996,2.5527-.6397,4.9199-1.6944,7.5654-1.6944C52.11,165.77923,54.08752,164.57713,54.34822,162.84663Z" fill="#ff8b47"/>
            <path d="M71.74372,168.04293a49.83709,49.83709,0,0,0-4.9179-1.957c-.17969-.0625-.4424-.1358-.7451-.2168a10.30643,10.30643,0,0,0-5.7061-2.1543c-1.2314-1.6152-3.9873-2.3838-4.8047.5557-1.2519,4.5166-.8721,9.3251-2.0674,13.8837a32.62582,32.62582,0,0,0-1.0459,7.4034,39.88517,39.88517,0,0,1-.375,4.0947c-1.3261,2.9863-2.4863,5.9892-2.3896,9.3955.1006,3.6055,5.0586,3.416,5.4609,0a13.87375,13.87375,0,0,1,.9121-3.4268,3.95785,3.95785,0,0,0,2.8799-1.7041c2.6641-4.1308,4.8545-8.4707,7.711-12.4804a16.72637,16.72637,0,0,1,3.6689-3.9805,7.73756,7.73756,0,0,0,3.2178-4.9932C73.78482,170.83,73.44882,168.83693,71.74372,168.04293Z" fill="#ff8b47"/>
            <path d="M120.75252,156.63763c-3.084-1.5742-6.0088-3.3711-8.9209-5.2207-1.3017-.8281-2.5898-1.8593-3.9082-2.8193-.0185-.083-.02829-.167-.0468-.25a2.06189,2.06189,0,0,0-2.6612-1.4922c-.27929-.1465-.5615-.29-.8467-.415-4.2714-1.8623-7.539,3.5263-3.6689,6.2744.3799.2695.7559.542,1.1328.8115a23.6635,23.6635,0,0,1-1.7607,3.5664c-1.7559,2.8242-4.9209,4.3301-6.3076,7.4434a4.48518,4.48518,0,0,0-.3897,1.5381c-2.1553-.628-4.8662.5058-4.834,3.4199.0039.249.0166.498.0244.7461a9.86927,9.86927,0,0,0-4.6904-.7031c-.7949.0478-1.584.1162-2.3809.1435a2.54664,2.54664,0,0,0-.7158.0137c-.081-.0117-.1484-.0205-.2109-.0274a.03934.03934,0,0,0,.0146-.0595c-1.9257-3.6436-6.8603-1.2403-6.5986,2.2158a2.44885,2.44885,0,0,0,.9746,2.999c.81151.5,1.2373,1.9092,1.7442,2.6777a24.48872,24.48872,0,0,0,1.9492,2.6416c1.5,1.7266,2.32811,3.92,4.1572,5.417a36.80008,36.80008,0,0,1,10.002,12.8487c1.5664,3.5986,7.1855,1.6494,7.122-1.9278-.16109-9.0722-3.7207-17.7246-3.95509-26.8203a11.56876,11.56876,0,0,0,5.42579-.0146,39.078,39.078,0,0,1,7.8174-.334c5.4805.126,10.9609.1494,16.4434.1894,2.7197.0206,4.1113-2.4638,3.7226-4.8877C128.74772,160.63473,123.97232,158.27833,120.75252,156.63763Z" fill="#ff8b47"/>
            <path d="M129.76332,122.03223a6.996,6.996,0,0,0-.94919.2695c-3.06551.9102-5.97371,2.3877-9.05181,3.2959a39.737,39.737,0,0,0-5.82319,2.0557,26.20616,26.20616,0,0,0-4.40431,1.1298,3.04135,3.04135,0,0,0-5.2901.751c-1.3633,3.5528-1.2275,7.3115-1.4424,11.0489-.1504,2.6103,3.2032,4.621,5.3975,3.0986a34.14069,34.14069,0,0,0,4.3828-3.8076,23.29515,23.29515,0,0,1,6.2783-3.9649c2.3643-1.1738,4.5489-2.6426,6.9434-3.7851.9922-.4737,2.1133-.542,3.081-1.0791a23.05805,23.05805,0,0,1,2.1124-1.2119c.2802-.0889.5605-.1768.8457-.254C136.76432,128.26563,134.66462,121.05953,129.76332,122.03223Z" fill="#ff8b47"/>
            <path d="M87.50162,117.70013c1.1943,1.085,2.3212,2.2295,3.5996,3.2364,2.4257,1.9082,5.333,4.914,8.4648,5.4336,2.5.415,4.9219-1.0332,4.957-3.7754a67.95119,67.95119,0,0,1,.7354-9.5957c.4639-2.9024,1.55471-6.1016,1.5713-9.0371.0371-6.5616,2.2715-12.7608,2.4678-19.2745a3.57641,3.57641,0,0,0-6.0606-2.5107,61.2654,61.2654,0,0,0-5.7334,7.1211c-1.7021,2.5039-4.4062,4.7256-5.5908,7.4746-2.0195,4.6904-5.8399,8.292-8.3223,12.668-.0205.0117-.0429.0195-.0644.0302a2.97245,2.97245,0,0,0-1.4951,3.4366c-.1133.3359-.21679.6728-.3077,1.0234C80.78092,117.58783,85.20472,119.52833,87.50162,117.70013Z" fill="#ff8b47"/>
          </g>
          <path d="M97.357,122.69433c-11.0381-9.9219-29.9062-9.5899-40.3125,1.0713a2.71248,2.71248,0,0,0-.9843.209,18.70183,18.70183,0,0,0-5.4317,2.9863c-1.8291,1.5762-2.5088,4.582-3.35839,6.7324-2.38571,6.0361-2.582,12.2764.54689,18.042,2.8506,5.2539,7.4072,11.1533,13.1933,13.3008a21.40777,21.40777,0,0,0,6.5821,1.334,27.83429,27.83429,0,0,0,4.8281,2.0742c7.39361,2.3496,17.0801.6709,23.0703-4.2783C107.81313,153.98433,109.49962,133.60833,97.357,122.69433Z" fill="#ffaf31"/>
        </g>
        <g>
          <path d="M139.59922,121.03613c-2.584-3.8916-18.3935,1.0439-20.5244,1.5117-4.4824.9824-8.88669,3.4297-13.5869,3.3184h-.0127a2.47784,2.47784,0,0,0,.1435-.5723c.4805-3.7647.4395-7.6475.8262-11.4375.40921-4.0313.9219-8.0498,1.2783-12.085a81.38153,81.38153,0,0,0,.0127-11.9531c-.1767-3.0635-.1396-6.2676-1.1132-9.1943a2.39853,2.39853,0,0,0,.2441-2.9903,1.23686,1.23686,0,0,0-2.1094,0c.1699.0498.0664.1436-.3144.2803.33-.3291-.0274-.1826-.503-.0518a3.78929,3.78929,0,0,0-1.7988,1.6563c-1.0488,1.4707-2.2139,3.0176-3.1172,4.5654a120.797,120.797,0,0,1-7.33489,10.5762c-2.43361,3.2949-4.23151,6.8955-6.35551,10.3867-1.082,1.7793-2.22849,3.4385-3.1318,5.3154a13.30037,13.30037,0,0,1-.9883,1.6075c-.56939-1.0489-.875-2.1348-1.42-3.2295-1.0253-2.0596-2.10639-4.0899-3.2792-6.0703-1.1436-1.9346-2.5889-3.6621-3.712-5.6026a41.77522,41.77522,0,0,0-3.9961-5.2734,36.50714,36.50714,0,0,1-3.7275-6.5352,54.08139,54.08139,0,0,0-3.26659-5.6494c-1.28031-1.8818-2.83011-3.581-3.69731-5.7109a.76337.76337,0,0,0-1.4589,0,3.55619,3.55619,0,0,0-.1026.8291,1.07713,1.07713,0,0,0-.2314.4629c-1.6114,6.7011-.9619,14.209-.2032,20.9834.3868,3.4443.77741,6.8828,1.1221,10.333.1084,1.081.2285,2.1797.3936,3.2754-.1651-.1367-.3311-.2725-.49029-.416a60.67462,60.67462,0,0,0-7.14351-4.8887c-2.6104-1.7373-5.1846-3.4492-7.6182-5.4395a31.97988,31.97988,0,0,1-3.3799-2.7793,30.71681,30.71681,0,0,0-2.2216-2.3857.95748.95748,0,0,0-.84279-1.3652c-.13971-.0049-.27831-.0147-.419-.0254a1.05073,1.05073,0,0,0-1.29781.9892c-.0088.0977-.0117.1944-.0166.294a1.15783,1.15783,0,0,0-.0029.8418,8.98536,8.98536,0,0,0,.7334,3.0791c.6855,1.6113,1.16791,3.2949,1.75391,4.9453,1.11229,3.1318,2.791,5.9717,4.08,9.0156,1.35449,3.209,2.97269,6.2803,4.02739,9.6123.207.6602.4053,1.335.6133,2.0088a16.53929,16.53929,0,0,0-2.2696-.9209,38.243,38.243,0,0,0-7.1845-1.3555,60.50232,60.50232,0,0,1-6.4952-1.4082q-1.7373-.42915-3.4853-.8027a21.82372,21.82372,0,0,1-4.252-1.5225c-2.2275-.9804-4.4414-1.9795-6.6982-2.8916a60.39229,60.39229,0,0,0-5.9746-1.7509c-3.1504-.8975-9.8145-2.0235-8.9785,3.1728.2509,1.5654,1.789,2.8936,2.9414,3.8272,1.6963,1.372,3.4111,2.7011,5.0195,4.1826,1.8164,1.6689,3.5088,3.3945,5.4492,4.9297,2.1758,1.7216,4.4336,3.3349,6.6973,4.9365,4.34281,3.0732,8.50981,6.3183,13.1826,8.8769,1.78221.9746,3.8115,1.9434,5.167,3.4903.4434.5039.8926,1.0117,1.373,1.4785-1.1347.9463-2.2363,1.9365-3.33979,2.916q-4.61131,4.1001-9.35641,8.0537c-2.9727,2.4746-6.4209,4.542-9.1612,7.2744a34.6683,34.6683,0,0,1-4.1699,3.7149,13.08138,13.08138,0,0,0-1.999,1.2529,3.54467,3.54467,0,0,0-.8428,2.3057,2.05469,2.05469,0,0,0,1.5244,2.0019c3.708.7676,7.5801-.416,11.1924-1.1992,2.0967-.4541,4.4121-.2988,6.5566-.5898,2.4795-.336,4.9258-.7618,7.4112-1.0284,3.9853-.4218,7.7275-2.5449,11.71871-2.6513a12.23935,12.23935,0,0,0,3.44829-.5244c-.919,4.9609-1.2862,10.0732-2.4121,14.9658a66.4696,66.4696,0,0,0-1.3379,10.0927c-.2461,3.1885-1.0645,5.9229.30171,8.9981a1.99924,1.99924,0,0,0,2.72949.7158c2.6924-1.5918,3.8936-4.5898,5.6983-6.9951,2.1679-2.8887,4.4589-5.6397,6.8584-8.3369a60.14818,60.14818,0,0,0,6.1787-8.1162c.832-1.3272,2.3213-3.0323,2.9902-4.7598.29491.3643.5928.7285.876,1.0908q1.875,2.395,3.7041,4.8311c2.4404,3.2392,4.542,6.7744,7.081,9.9267,2.5303,3.1407,5.34281,6.042,7.8741,9.1846,1.0175,1.2647,1.2421,4.1084,3.0449,5.0723a1.84588,1.84588,0,0,0,1.8467,0l.0713-.044a1.86037,1.86037,0,0,0,.6523-.7256,3.96369,3.96369,0,0,0,.4492.7022,1.10553,1.10553,0,0,0,1.5742,0c1.209-1.5586.876-3.4834.7237-5.3535a70.09947,70.09947,0,0,0-1.0069-6.9795c-.7431-4.0703-1.8652-8.1006-2.4541-12.1934-.291-2.0234-.7441-4.0381-1.125-6.0469a33.536,33.536,0,0,1-.5088-3.581,10.46312,10.46312,0,0,1-.0185-1.2852c.0058-.1591.0156-.2568.0224-.3154a.88728.88728,0,0,0,.4249-.4238,32.12893,32.12893,0,0,0,6.3896.3105c3.9531-.0605,7.92581.2237,11.88281.2774,3.81449.0527,7.626-.0918,11.43749-.0547,3.3877.0332,6.4238,1.3642,9.7627,1.5537.4619.209.9326.3984,1.4141.5625a1.20616,1.20616,0,0,0,1.3525-1.7617c-.083-.1211-.17479-.2393-.2627-.3565a1.96165,1.96165,0,0,0-1.8984-2.4238c-.0938,0-.1856-.0039-.2783-.0068a47.8,47.8,0,0,0-6.4082-4.8965c-3.24219-2.1787-6.292-4.6094-9.3223-7.0625a83.19775,83.19775,0,0,1-7.917-6.7256,36.71116,36.71116,0,0,0-3.2334-3.1484c-.0986-.0811-.2041-.1534-.3057-.2325a9.0654,9.0654,0,0,0,2.0879-1.3047c1.7022-1.3398,3.4502-2.5791,5.2227-3.83a57.92833,57.92833,0,0,0,5.5849-4.335c1.8955-1.7178,4.5674-2.8779,6.751-4.2002a34.02144,34.02144,0,0,0,5.8701-4.1191c1.3262-1.2559,4.47761-2.124,4.9844-3.961.0234-.1757.0479-.3525.0713-.5283a.15489.15489,0,0,1,.002-.0303,2.17292,2.17292,0,0,0,.08591-.2812A1.77034,1.77034,0,0,0,139.59922,121.03613Zm-56.0527-7.5733a8.18383,8.18383,0,0,0,1.2051-1.6103c1.0332-1.5645,2.1279-3.0352,3.2168-4.5625,1.9531-2.7471,3.3222-5.8848,5.2919-8.6104,2.1709-3.0009,4.46781-5.9091,6.5889-8.9463,1.083-1.5527,1.9756-3.2587,3.1377-4.749a16.639,16.639,0,0,0,1.0908-1.6435c.1846,1.915-.0097,3.8886.0303,5.8125a90.52787,90.52787,0,0,1-.208,12.6181c-.4551,3.8106-.874,7.627-1.3125,11.4395-.4346,3.7861-1.15139,7.9638-.7617,11.7871-.1309-.1592-.26369-.3184-.3994-.4756-4.5811-5.2549-11.753-8.3096-18.4805-10.0019-.0342-.0508-.0703-.1016-.1084-.1504-.041-.0518-.1016-.1329-.1719-.2246C82.96442,113.90913,83.28382,113.69233,83.54652,113.46283ZM58.00842,78.706c.01071.0195.0225.041.0351.0625,1.2178,2.0693,2.4239,4.1172,3.4317,6.2959,1.1152,2.4092,2.3105,4.7822,3.4658,7.1709a17.59809,17.59809,0,0,0,2.293,2.9414c.8105,1.0059,1.5879,2.0215,2.2949,3.1025a126.80231,126.80231,0,0,1,7.207,12.2491c.4209.832.8018,1.9716,1.3496,3.0351a46.40746,46.40746,0,0,0-9.7119-.1455,17.18374,17.18374,0,0,0-5.7412,1.5186,1.61889,1.61889,0,0,0-.9394-1.6397,45.19366,45.19366,0,0,1-1.5528-7.3799c-.3818-3.2558-.8027-6.4961-1.2383-9.7431-.4619-3.4444-.8173-6.8975-.955-10.3692A54.16308,54.16308,0,0,1,58.00842,78.706Zm-14.334,31.873c-1.40429-2.915-3.041-5.6933-4.2832-8.6933-.1582-.3779-.3008-.7725-.4404-1.1709a78.15879,78.15879,0,0,0,9.2051,6.9189c1.3037.9024,2.6738,1.711,4.0019,2.5743,1.2676.8232,2.3272,2.0996,3.6065,2.8388,1.3584.7881,2.3847,2.6924,3.8554,3.3945.0196.0264.0362.0557.0557.085-.3291.2022-.65329.4102-.9756.627a1.1153,1.1153,0,0,0-.6572.1074,27.92334,27.92334,0,0,0-8.4483,7.375,51.50007,51.50007,0,0,1-1.8496-5.2227A87.18788,87.18788,0,0,0,43.67442,110.579Zm-8.2734,28.4737a131.43177,131.43177,0,0,1-12.1162-8.084,91.68863,91.68863,0,0,1-11.5606-9.1582c-1.6308-1.5859-3.3887-2.9883-5.1338-4.4365-.3525-.292-1.291-.9219-1.9453-1.5352,2.7158-.0058,5.6484,1.3994,8.08989,2.0967,4.1689,1.1914,7.9287,3.8242,12.1777,4.7031a112.21377,112.21377,0,0,0,12.1816,2.3008,29.96237,29.96237,0,0,1,6.1504,1.1113c1.4365.4483,2.6455,1.1875,3.9932,1.6709a26.984,26.984,0,0,0-4.1192,8.9971,20.939,20.939,0,0,0-.289,8.1299c-.6358-.6553-1.4541-1.711-1.8428-2.1436C39.56413,141.122,37.23892,140.06153,35.401,139.05273Zm16.5644,25.9082a2.732,2.732,0,0,1-.3349.1367,6.59089,6.59089,0,0,1-1.5371.2666,26.74268,26.74268,0,0,0-4.0332.4961c-1.7999.4248-3.5586,1.0283-5.336,1.5312a54.75608,54.75608,0,0,1-5.9853.9864c-1.8565.3134-3.712.6523-5.5821.8906-1.9814.2529-4.0566.0928-6.0049.4922-1.2822.2666-2.665.6592-4.0673.9678.8457-.7754,1.6484-1.5997,2.457-2.4112,2.4141-2.4179,5.458-4.3447,8.0752-6.5449,2.7754-2.3311,5.48531-4.8271,8.0908-7.3428,1.3106-1.2656,2.5254-2.6123,3.7373-3.9736a8.869,8.869,0,0,0,.8838-1.2588c.1309.0547.2578.1123.3926.1592.2764.0371.5517.0742.8271.1084a2.26117,2.26117,0,0,0,.5.0058,31.1681,31.1681,0,0,0,6.4678,10.2706,35.54689,35.54689,0,0,0,3.8672,3.5605,1.26022,1.26022,0,0,0-.0947.1436A2.28811,2.28811,0,0,0,51.96542,164.96093Zm19.2393,7.9414c.44041-.6123-.46.3008-.59959.4775-.36231.4551-.55861.9834-.876,1.4717-.75681,1.1641-1.48631,2.3477-2.22171,3.5273a57.53608,57.53608,0,0,1-5.9736,7.7901c-2.125,2.3945-4.0811,4.8701-6.0528,7.3818a42.046,42.046,0,0,0-2.663,3.7061c-.0977.1562-.1944.3135-.293.4707.1533-1.5742.5684-3.1924.6035-4.6358a55.6763,55.6763,0,0,1,1.3633-9.8056,91.01442,91.01442,0,0,0,1.2324-9.2832c.2998-3.0215.75-6.086.7744-9.1319a43.75461,43.75461,0,0,0,14.9561,6.501,1.23694,1.23694,0,0,0,.0859.8965c.0371.0684.0781.1367.1162.2041A1.76644,1.76644,0,0,0,71.20472,172.90233Zm-3.4151-6.7031c-9.27049-3.2198-17.9746-10.2862-20.83-19.9405-1.56349-5.2881-.1748-10.8232,2.5908-15.4238.25-.417.5176-.8174.791-1.2119a1.58913,1.58913,0,0,0,1.1699-1.5576c2.5762-3.1924,5.7354-5.8711,8.0703-9.2676a1.0104,1.0104,0,0,0,.18951-.5703c6.18849-3.2295,13.70989-3.0254,20.63569-1.3281a1.36514,1.36514,0,0,0,1.6436.4355,53.86328,53.86328,0,0,1,6.3808,2.249,28.54358,28.54358,0,0,1,10.4864,7.4453,15.90009,15.90009,0,0,1,1.0517,1.3721,1.15159,1.15159,0,0,0,.2266.3516,21.81125,21.81125,0,0,1,3.209,11.1269,37.5109,37.5109,0,0,1-2.5869,13.5615,24.65338,24.65338,0,0,1-8.1582,10.8086C85.67642,169.63573,75.65782,168.93063,67.78962,166.19923Zm28.9522,24.1005c.5205,2.6641,1.0068,5.335,1.3408,8.0303.1436,1.1397.1221,2.4932.2481,3.7969a8.03244,8.03244,0,0,1-.5098-.8936,13.81512,13.81512,0,0,0-1.6455-3.0957c-2.4942-2.9648-5.1094-5.8232-7.5996-8.791-2.6319-3.1367-4.8223-6.7119-7.3555-9.9453a61.14247,61.14247,0,0,0-6.2851-7.4209,35.83548,35.83548,0,0,0,9.9257-.2803,22.90585,22.90585,0,0,0,8.8643-3.4961,1.19457,1.19457,0,0,0,.418.3174c.1406.0674.2832.128.4277.1885a7.03871,7.03871,0,0,0-.5352,3.3701,58.74652,58.74652,0,0,0,.9248,8.083C95.47232,183.43843,96.08262,186.92963,96.74182,190.29973Zm16.2178-36.3066c1.3759,1.3477,2.9736,2.3301,4.4287,3.5615,3.1035,2.626,6.291,5.1524,9.6094,7.503q.71625.5082,1.4287,1.0488c-.3282-.0205-.65629-.0371-.9805-.0508-3.5967-.1455-7.2324.2031-10.8301.252-3.8349.0527-7.667.1611-11.499.2685-2.915.0811-6.3682,1.0313-9.2305.0947.293-.2255.585-.455.874-.6923,5.7002-4.6709,8.34281-11.5254,9.7452-18.5303.84661.9111,1.9277,1.7246,2.5927,2.4551C110.36292,151.29193,111.61782,152.67873,112.95962,153.99313Zm17.083-27.2041c-2.8242,1.9492-5.8526,3.5859-8.71,5.4883a45.64092,45.64092,0,0,0-3.5664,3.0527c-1.3027,1.0791-2.6865,2.0576-4.0303,3.086a24.19618,24.19618,0,0,0-3.2343,2.7607,8.28119,8.28119,0,0,1-2.9141,2.4043,1.28942,1.28942,0,0,0-.29.1396c-.0977-.0644-.128-.0742-.0235.0176l-.00389.0039c-.04981-.04-.10351-.081-.15721-.1211-.0039-.0029-.01079-.0039-.0156-.0078a26.21623,26.21623,0,0,0-2.8233-14.957c.1094.0185.2168.0351.3242.0498a18.37221,18.37221,0,0,0,3.835.1299c4.043-.2529,7.71091-1.9658,11.6426-2.6582,3.7412-.6602,7.5547-2.2578,11.36131-2.3789.93559-.0303,1.86819-.0938,2.80369-.1143C132.84822,124.72553,131.483,125.79193,130.04262,126.789Z" fill="#463131"/>
          <path d="M66.99772,136.38963a2.13025,2.13025,0,0,0-1.9629-2.1377,2.37406,2.37406,0,0,0-.8916-.0635,2.34891,2.34891,0,0,0-.4122.0654l-.00089.002a1.96618,1.96618,0,0,0-1.002.5947c-.05961.0625-.11721.128-.17091.1963v.002a2.19527,2.19527,0,0,0-.374.7529,2.04541,2.04541,0,0,0-.0723.4971c-.0019.0283-.00679.0605-.00679.0908a2.23286,2.23286,0,0,0,.39649,1.2617,2.04233,2.04233,0,0,0,1.0439.8193,1.67227,1.67227,0,0,0,.7588.1329,2.2688,2.2688,0,0,0,.7315-.0752,2.13418,2.13418,0,0,0,1.9629-2.1387Z" fill="#463131"/>
          <path d="M88.65,134.83393c-.0244-.1797-.0488-.3584-.0742-.5381a2.011,2.011,0,0,0-.5186-.8916,2.02078,2.02078,0,0,0-2.7226-.125,2.33956,2.33956,0,0,0-.3438.1592,2.2161,2.2161,0,1,0,2.2354,3.8272l.00191-.001c.14159-.0606.27539-.1279.30179-.1387a2.18837,2.18837,0,0,0,.8291-.8086A2.23029,2.23029,0,0,0,88.65,134.83393Z" fill="#463131"/>
          <path d="M87.74472,146.82033a.87961.87961,0,0,0-1.22359,0c-1.42481,1.33-1.42091,3.7919-2.50391,5.4355a9.64241,9.64241,0,0,1-5.49509,3.6953c-2.11041.5625-4.31161-.584-5.85361-1.9736-.5927-.5352-.9101-1.335-1.4541-1.9356a9.01915,9.01915,0,0,1-1.7382-2.125,1.065,1.065,0,0,0-2.08109.2832,5.90274,5.90274,0,0,0,.88869,3.0567,14.62818,14.62818,0,0,0,1.706,2.7451,9.80126,9.80126,0,0,0,8.0245,3.6338,12.883,12.883,0,0,0,8.2402-4.4365C88.025,153.21973,90.13832,149.08493,87.74472,146.82033Z" fill="#463131"/>
        </g>
      </g>
    </g>
  </g>
</svg>
