<svg xmlns="http://www.w3.org/2000/svg" viewBox="0 0 68.82588 112.33198">
  <title>Recurso 17</title>
  <g id="Capa_2" data-name="Capa 2">
    <g id="Editar">
      <g>
        <g>
          <path d="M5.87051,75.257a20.04243,20.04243,0,0,1,.42189-2.1875c1.8267-6.9668,9.7363-8.5742,14.519-3.4766a9.50833,9.50833,0,0,1,.7598.9238,11.53747,11.53747,0,0,1,2.3042,6.3282,17.013,17.013,0,0,1,.2759,3.7539,23.81347,23.81347,0,0,1-.2232,2.4101,16.66931,16.66931,0,0,1,5.86041-1.4668,15.6002,15.6002,0,0,1,2.16009-.0175c.0582-.0098.1143-.0274.17191-.0391,2.50829-.4922,4.54349.4414,6.46389,2.0332a9.88768,9.88768,0,0,1,2.8349,3.6758,4.70622,4.70622,0,0,1,.4727,1.3437c.0356.125.0732.2442.10551.3711.62789,2.6074-.607,4.6153-1.96241,6.6621-2.5327,3.8184-8.72759,4.4629-12.7412,5.6055a43.32016,43.32016,0,0,0-8.42239,3.2852,54.13874,54.13874,0,0,1-6.645,3.1972,2.85159,2.85159,0,0,1-1.98391-.082,3.16966,3.16966,0,0,1-3.5947-3.1914,47.92582,47.92582,0,0,0-1.2217-8.5781,63.51272,63.51272,0,0,1-.9229-9.0567C4.4272,84.39962,3.8608,78.05392,5.87051,75.257Z" fill="#dc4654"/>
          <path d="M1.9892,92.65352a69.9933,69.9933,0,0,0,3.5766,10.8672c1.4165,3.1679,3.1534,6.9082,6.3843,8.5097a2.45781,2.45781,0,0,0,3.5991-1.5058c6.0191-2.127,12.15431-3.7676,17.9068-6.6582,5.1323-2.5801,11.2719-6.4981,12.8403-12.4649,1.6313-6.207-2.1704-10.918-8.2891-12.0625-2.8584-.5332-5.7563-1.1152-8.6069-.2324a11.0386,11.0386,0,0,0-2.2466,1.0215c.96-6.3184-1.44719-13.2461-7.4775-16.2227-6.26469-3.0937-14.5689.9824-17.6006,6.9297C-1.398,77.64962.1381,85.56562,1.9892,92.65352Zm3.3481-14.5879c.376-5.2481,5.0445-11.6348,10.9766-11.0645,6.8442.6602,8.9844,8.8399,7.0122,14.3946a1.52547,1.52547,0,0,0,.2026,1.4921q-.36329.331-.7085.6602a1.40294,1.40294,0,0,0,1.8789,2.082c2.042-1.6738,4.126-3.082,6.8877-2.6718a24.68919,24.68919,0,0,1,6.6099,1.957c1.478.707,3.311,1.9844,2.7324,3.8906a11.55963,11.55963,0,0,1-3.39259,5.3574c-3.69231,3.2891-8.33981,5.1309-12.82271,7.0723-3.4321,1.4883-8.2261,1.7578-11.728,3.6484a26.25545,26.25545,0,0,1-1.8887-3.3086,55.33986,55.33986,0,0,1-2.8145-7.8261C6.87051,88.76482,4.9618,83.31752,5.3373,78.06562Z" fill="#463131"/>
        </g>
        <g>
          <path d="M54.8998,43.60662a8.773,8.773,0,0,1,.5664-.7793,3.5976,3.5976,0,0,1,6.3321,1.2988,3.80647,3.80647,0,0,1,.1289.502,4.9962,4.9962,0,0,1-.2579,2.9043,7.30254,7.30254,0,0,1-.58,1.5234c-.1529.2891-.3286.5996-.5293.9024a7.25363,7.25363,0,0,1,2.5678.5019,6.58949,6.58949,0,0,1,.8492.3887c.0254.0058.0512.0097.0752.0176a3.23317,3.23317,0,0,1,2.1616,1.9824,4.28215,4.28215,0,0,1,.438,1.9609,2.0579,2.0579,0,0,1-.0625.6152c-.0083.0528-.0147.1075-.0269.1641a3.543,3.543,0,0,1-1.9907,2.252c-1.6939,1.0312-4.24119.1484-6.0239-.1387a18.43668,18.43668,0,0,0-3.9068-.2559,24.161,24.161,0,0,1-3.1914.0352,1.23612,1.23612,0,0,1-.7622-.3984,1.37044,1.37044,0,0,1-.8257-1.9102,20.8378,20.8378,0,0,0,1.09481-3.5879,27.18859,27.18859,0,0,1,1.29979-3.7207C52.6576,46.92892,53.599,44.33512,54.8998,43.60662Z" fill="#dc4654"/>
          <path d="M50.1869,49.71792a30.06038,30.06038,0,0,0-.5903,4.918c-.0254,1.5-.0313,3.2851.9414,4.5098a1.06677,1.06677,0,0,0,1.68851.0664,64.60058,64.60058,0,0,0,8.24309.6738c2.48691-.0703,5.6123-.4805,7.3228-2.5313,1.7778-2.1367,1.1523-4.6797-1.0381-6.2519a7.65287,7.65287,0,0,0-3.333-1.668,4.64613,4.64613,0,0,0-1.0679-.0117,6.57823,6.57823,0,0,0,.043-7.7363c-1.8887-2.3614-5.8936-2.2871-8.17289-.5098C51.6103,43.21212,50.7626,46.59682,50.1869,49.71792Zm3.9893-5.1074c1.1098-1.9883,4.11231-3.6387,6.334-2.3262,2.5634,1.5156,1.9008,5.1153.10931,6.9317a.66328.66328,0,0,0-.19481.623c-.13519.041-.2685.084-.3994.127a.60891.60891,0,0,0,.3555,1.164,3.7483,3.7483,0,0,1,3.1919.2149,10.65,10.65,0,0,1,2.2329,1.9785c.4492.5488.9341,1.3867.3584,2.0273a4.9818,4.9818,0,0,1-2.314,1.4785,19.92587,19.92587,0,0,1-6.3252.4219c-1.6191-.0449-3.5488-.8183-5.269-.7207a11.5913,11.5913,0,0,1-.1338-1.6445,23.9361,23.9361,0,0,1,.332-3.586C52.8153,49.08712,53.0658,46.60072,54.1762,44.61052Z" fill="#463131"/>
        </g>
        <g>
          <path d="M15.182,6.82142a8.88812,8.88812,0,0,1-.1889-.9453,3.59885,3.59885,0,0,1,5.251-3.7715,4.136,4.136,0,0,1,.4555.2461,4.99932,4.99932,0,0,1,1.9595,2.1582,7.31889,7.31889,0,0,1,.7261,1.461c.1084.3086.2177.6484.3037,1.0019A7.25455,7.25455,0,0,1,25.7992,5.423a6.71624,6.71624,0,0,1,.8614-.3594c.0214-.0156.042-.0312.0634-.0449a3.24178,3.24178,0,0,1,2.9234-.2422,4.28733,4.28733,0,0,1,1.7378,1.0078,2.07391,2.07391,0,0,1,.4096.4629c.03471.043.0689.084.1026.1309a3.54587,3.54587,0,0,1,.3042,2.9902c-.3897,1.9453-2.7666,3.2188-4.1875,4.334a18.69712,18.69712,0,0,0-2.8384,2.6953,23.48563,23.48563,0,0,1-2.1387,2.3691,1.22815,1.22815,0,0,1-.8091.2911,1.37234,1.37234,0,0,1-1.9643-.6895A20.867,20.867,0,0,0,18.37,15.13a27.2228,27.2228,0,0,1-1.853-3.4785C16.10151,10.72182,14.8359,8.27262,15.182,6.82142Z" fill="#dc4654"/>
          <path d="M16.476,14.43082a30.178,30.178,0,0,0,3.2129,3.7676c1.0864,1.0371,2.394,2.2539,3.9521,2.3672a1.0643,1.0643,0,0,0,1.1949-1.1953,64.59752,64.59752,0,0,0,6.0869-5.5996c1.63571-1.875,3.4536-4.4493,3.1059-7.0977-.3633-2.7559-2.6567-4.0195-5.2969-3.4766a7.61908,7.61908,0,0,0-3.48729,1.3164,4.73073,4.73073,0,0,0-.73341.7754A6.57657,6.57657,0,0,0,18.8573.01092c-3.0171-.2149-5.6782,2.7793-5.9199,5.6601C12.66151,8.97182,14.5736,11.88982,16.476,14.43082Zm-1.0464-6.3965c-.709-2.166.1157-5.4902,2.5864-6.2304,2.8521-.8575,5.0479,2.0703,5.168,4.6191a.66328.66328,0,0,0,.3257.5664c-.062.127-.1201.2539-.1768.3789a.60788.60788,0,0,0,1.0947.5274,3.74785,3.74785,0,0,1,2.3233-2.1973,10.61612,10.61612,0,0,1,2.9687-.2988c.708.041,1.65291.2539,1.733,1.1113a5.01434,5.01434,0,0,1-.483,2.7031,19.974,19.974,0,0,1-3.9799,4.9336c-1.1324,1.1582-3.0103,2.0527-4.1036,3.3828a11.31462,11.31462,0,0,1-1.2993-1.0176,23.93316,23.93316,0,0,1-2.4096-2.6757C17.7953,12.06952,16.1386,10.20032,15.4296,8.03432Z" fill="#463131"/>
        </g>
      </g>
    </g>
  </g>
</svg>
