<svg xmlns="http://www.w3.org/2000/svg" viewBox="0 0 19.42849 15.38817">
  <title>Recurso 37</title>
  <g id="6f7a62e0-b212-4dc5-9d85-25cd7be368f1" data-name="Capa 2">
    <g id="34c371fd-015a-48d3-88fd-01989a1dc1cc" data-name="Layer 6">
      <path d="M12.957.8099a4.17339,4.17339,0,0,1,2.84969,1.08989,7.5845,7.5845,0,0,0,2.31819-.84392,3.52551,3.52551,0,0,1-1.60555,1.92352,7.60757,7.60757,0,0,0,2.0983-.54887A7.2615,7.2615,0,0,1,16.79529,4.231c.00555.1487.00948.29938.00948.44885a10.00791,10.00791,0,0,1-10.327,9.8984A10.54071,10.54071,0,0,1,.81,13.01146a7.36126,7.36126,0,0,0,.87.04981,7.56887,7.56887,0,0,0,4.5391-1.4897A3.635,3.635,0,0,1,2.80627,9.1573a3.83827,3.83827,0,0,0,1.649-.05933,3.48111,3.48111,0,0,1-2.871-3.418V5.63531a3.77331,3.77331,0,0,0,1.6554.43581A3.43468,3.43468,0,0,1,1.61434,3.17673,3.32123,3.32123,0,0,1,2.10866,1.4296a10.441,10.441,0,0,0,7.47185,3.641,3.28776,3.28776,0,0,1-.09569-.79213A3.4036,3.4036,0,0,1,12.957.8099m5.66062,1.62062h.002M12.957,0A4.23314,4.23314,0,0,0,8.67617,4.17181,9.56462,9.56462,0,0,1,2.72366.90264.80989.80989,0,0,0,2.10874.6197q-.03171,0-.06358.00251a.80987.80987,0,0,0-.62634.383A4.147,4.147,0,0,0,1.19157,4.927l-.02495.01442a.80985.80985,0,0,0-.39224.69388V5.68A4.25957,4.25957,0,0,0,2.10032,8.76032a.81.81,0,0,0-.06188.65469,4.31857,4.31857,0,0,0,2.043,2.4093A6.85508,6.85508,0,0,1,1.68,12.25137a6.58638,6.58638,0,0,1-.77431-.04414A.8099.8099,0,0,0,.3879,13.70268a11.3579,11.3579,0,0,0,6.08983,1.68549A10.81251,10.81251,0,0,0,17.61467,4.67987l-.00008-.04394a8.0163,8.0163,0,0,0,1.64722-1.71372A.80981.80981,0,0,0,18.77,1.63455q.06791-.15769.12274-.32121a.8099.8099,0,0,0-1.167-.96221,6.69119,6.69119,0,0,1-1.69035.66983A5.09707,5.09707,0,0,0,12.957,0Z" fill="#b9007f"/>
    </g>
  </g>
</svg>
