<svg xmlns="http://www.w3.org/2000/svg" viewBox="0 0 106.8894 104.3831">
  <title>Recurso 10</title>
  <g id="Capa_2" data-name="Capa 2">
    <g id="Editar">
      <g>
        <path d="M98.82143,55.13882c0,1.3283-.35929,2.711-.03266,4.01757a.31876.31876,0,0,0,.51172.1742c1.1541-1.08877,1.11055-2.88525,1.00167-4.366a14.56392,14.56392,0,0,0-.83835-4.14822c-.16332-.40285-.74037-.15243-.68593.23953A31.91442,31.91442,0,0,1,98.82143,55.13882ZM97.29715,37.41361c-.52261,1.6876.05444,3.45141.43551,5.11723.34841,1.54606.0871,3.28809,1.49162,4.33331a.36272.36272,0,0,0,.55527-.28308c.21775-3.16833-1.57872-5.93381-1.73115-9.015C98.02663,37.16319,97.43869,36.9781,97.29715,37.41361ZM95.174,67.8448a8.46582,8.46582,0,0,0-.93634,2.9288.29718.29718,0,0,0,.35929.30486c1.39363-.4464,1.67671-2.05778,2.24287-3.27721C97.56934,66.2443,98.375,64.818,98.092,63.076c-.07621-.43551-.68593-.34841-.74037.04355C97.1665,64.69825,95.87086,66.41851,95.174,67.8448ZM92.06016,27.03761a9.61985,9.61985,0,0,0,1.11055,3.96313c.675,1.25209,1.44807,2.97235,2.60217,3.84337a.341.341,0,0,0,.5335-.26131,6.92171,6.92171,0,0,0-1.46984-3.7236,18.34861,18.34861,0,0,1-1.97068-3.98491A.42665.42665,0,0,0,92.06016,27.03761Zm-5.95559,56.3222a.25749.25749,0,0,0,.42462.21775,16.1981,16.1981,0,0,0,3.27721-4.09378,14.15648,14.15648,0,0,0,2.06867-3.876.4479.4479,0,0,0-.84924-.28308,8.4516,8.4516,0,0,1-.76214.93634c-.60971.84924-1.1541,1.76381-1.76381,2.63483C87.43287,80.431,86.30055,81.4109,86.10457,83.35981Zm-.72948-64.8364c-.30486-.4464-.89279.06533-.74037.48995.46817,1.29564,1.65493,2.09044,2.29731,3.26632a4.934,4.934,0,0,0,2.67838,2.60217c.51172.14154,1.03433-.47906.60971-.91457-.40285-.42462-.7948-.88191-1.18676-1.31741-.48995-.55527-.76214-1.18676-1.20854-1.76381C87.1389,19.98236,86.01747,19.48152,85.37509,18.5234ZM74.7269,11.70769c1.2412,1.07788,2.44974,2.21021,3.61472,3.37519a3.76006,3.76006,0,0,0,3.27721,1.13232.39933.39933,0,0,0,.21775-.64238,5.00929,5.00929,0,0,0-1.28475-.86013,10.427,10.427,0,0,1-1.938-1.49162,14.334,14.334,0,0,0-3.6365-2.02512C74.65068,11.06531,74.49825,11.51171,74.7269,11.70769Zm-.05444,79.86146a.26049.26049,0,0,0,.03266.47906c1.56783.41373,3.44052-1.19765,4.57284-2.12311A20.94991,20.94991,0,0,0,81.32486,87.802a2.786,2.786,0,0,0,1.02345-1.70937.51244.51244,0,0,0-.92546-.31574,5.52478,5.52478,0,0,1-1.18676,1.17587c-.60971.55527-1.13232,1.18676-1.7747,1.69849-.66415.5335-1.361,1.01256-2.05778,1.49162A16.01866,16.01866,0,0,1,74.67246,91.56915Zm-8.40532,4.10467c-.18509.1742-.098.55527.18509.54439a6.03159,6.03159,0,0,0,4.12645-1.30653,12.96517,12.96517,0,0,0,3.103-2.49329c.21775-.28308-.196-.64238-.45728-.41373-.22864.20687-.51172.196-.76214.33752-.294.15243-.4464.41373-.76214.54439a6.50635,6.50635,0,0,0-1.54606.69681,7.64307,7.64307,0,0,1-2.15577,1.11055A4.41728,4.41728,0,0,0,66.26713,95.67382ZM62.67419,7.3526c-.294.02178-.30486.40285-.10888.54439,0,.01089,0,.01089-.01089.02178a5.25759,5.25759,0,0,0,2.25376.74037A24.04976,24.04976,0,0,1,68.27048,9.737c.90368.33752,2.2211,1.02345,3.02679.14154A.43809.43809,0,0,0,71.036,9.1273c-1.2412-.10888-2.61305-.9799-3.8107-1.33919A11.7,11.7,0,0,0,62.67419,7.3526ZM57.19766,97.16544c-.42462-.05444-.55527.5335-.25042.75125,1.87269,1.361,4.88859-.294,6.94637-.33752a.73374.73374,0,0,0,.45728-1.3283c-.78392-.6206-2.10133-.07621-2.95057.15243C60.09379,96.74082,58.54774,97.36142,57.19766,97.16544Zm-6.34754-90.477c-.23953-.01089-.392.33752-.16332.46817,1.20854.69681,2.29731.4464,3.6365.5335A8.46644,8.46644,0,0,0,58.79816,7.124a.27487.27487,0,0,0-.03266-.48995,15.12292,15.12292,0,0,0-4.14822-.392C53.33252,6.24205,52.14576,6.732,50.85012,6.68845Zm-6.44553,89.508c-.22864.01089-.43551.294-.23953.48995a2.82229,2.82229,0,0,0,1.78559.82747,29.8397,29.8397,0,0,0,3.32076.76214c1.40452.13065,3.83248.51172,4.89948-.60971a.37362.37362,0,0,0-.21775-.65326,24.0572,24.0572,0,0,0-4.33331-.23953,19.18449,19.18449,0,0,1-2.19932-.33752c-.86013-.11976-1.72026-.02178-2.5695-.16332A.66114.66114,0,0,0,44.40458,96.19644ZM38.22035,8.40871c-.33752-.06533-.37018.42462-.10888.54439.9799.4464,2.59128-.34841,3.58206-.55527,1.52428-.31574,3.103-.48995,4.59462-.91457a.305.305,0,0,0,.10888-.54439c-1.1541-.74037-2.35175-.45728-3.62561-.11976a20.2877,20.2877,0,0,0-1.95979.58794C40.2237,7.63568,38.83007,8.51759,38.22035,8.40871ZM34.66007,93.22409a.34091.34091,0,0,0-.4464.50084A8.04986,8.04986,0,0,0,40.583,96.534c.37018-.03266.35929-.52261.14154-.7077a7.23821,7.23821,0,0,0-2.809-1.18676A13.72375,13.72375,0,0,1,34.66007,93.22409Zm-7.567-79.93768c-.32663.20687-.14154.84924.294.72948,1.37185-.38107,2.25376-1.61138,3.60384-2.00334a5.29214,5.29214,0,0,0,1.58961-.92546,5.72069,5.72069,0,0,0,1.742-1.52428.31948.31948,0,0,0-.25042-.48995c-1.35008-.11976-2.68927,1.17587-3.82159,1.72026A18.28612,18.28612,0,0,0,27.0931,13.28641ZM24.44738,87.9a.39878.39878,0,0,0-.52261.58794c.773.93634,1.05611,2.21021,2.06867,2.96146a4.45586,4.45586,0,0,0,3.32076.91457.33014.33014,0,0,0,.18509-.54439c-.74037-.89279-2.10133-.86013-2.96146-1.63316C25.743,89.46782,25.37284,88.477,24.44738,87.9ZM23.42394,69.56506c-.47906.07621-.54439.71859-.26131,1.02345,1.51339,1.644,4.32243,2.78726,6.36932,3.58206a34.07,34.07,0,0,0,9.87517,2.01423c6.70684.5335,13.50078-.47906,19.32571-3.93047,5.35676-3.15744,10.59376-7.58874,13.381-13.23947,1.6005-3.23365,3.34253-6.24955,4.10467-9.83162A42.44694,42.44694,0,0,0,77.02421,44.36c.11976-1.2412-.05444-2.86347.07621-4.23533a.50169.50169,0,0,0,.22864-.34841c.13065-1.6876-.18509-1.54606,1.62227-2.66749a31.43657,31.43657,0,0,0,4.35509-2.88525.54471.54471,0,0,0-.23953-.89279c-1.65493-.65326-3.47318-.43551-5.21522-.38107a15.8293,15.8293,0,0,1,3.35342-5.041.5776.5776,0,0,0-.40285-.9799c-2.5695.10888-5.22611,1.4154-7.53431,2.61305-1.40452-3.64739-8.2529-4.27888-11.3559-3.7236a12.69437,12.69437,0,0,0-10.58287,9.62475,18.4188,18.4188,0,0,0-.50084,2.76548c-.03266.37018.25042,1.97068.02178,2.24287-.30486.392-2.64572.46817-2.77637.46817a16.3963,16.3963,0,0,1-9.39611-3.47318,52.7201,52.7201,0,0,1-5.61807-4.40953c-1.29564-1.27386-3.33164-4.06112-5.237-4.35509a.47619.47619,0,0,0-.5335.21775c-1.29564,2.60217-2.5695,5.60718-2.134,8.57953.37018,2.53684,1.85091,4.44219,3.35342,6.38021a12.06026,12.06026,0,0,0-2.95057.41373.549.549,0,0,0-.392.51172,13.27982,13.27982,0,0,0,2.37352,6.46731,11.13766,11.13766,0,0,0,4.28976,3.47318,2.90358,2.90358,0,0,0-1.742.969c-.59882.93634.294,2.5695.68593,3.41875,1.31741,2.83081,4.38775,4.19177,7.43632,4.30065A22.09282,22.09282,0,0,1,32.36276,67.442C29.34686,68.80292,26.62493,69.07511,23.42394,69.56506ZM18.36114,19.96058c-.51172.34841-.10888,1.21943.4464.89279a10.45232,10.45232,0,0,0,2.37352-2.47151,8.57119,8.57119,0,0,1,1.42629-1.31741c.16332-.13065.63149-.82747.81658-.86013a.19869.19869,0,0,0,.02178-.38107A1.72815,1.72815,0,0,0,23.228,15.747a.23354.23354,0,0,0-.25042.04355c-.64238.7077-1.58961.9799-2.24287,1.69849A15.02228,15.02228,0,0,1,18.36114,19.96058Zm-1.90535,61.091a.45553.45553,0,0,0-.81658.40285,6.66384,6.66384,0,0,0,1.89446,2.67838,11.14579,11.14579,0,0,1,2.89613,2.44974c.1742.26131.51172-.03266.42462-.28308-.41373-1.165-.40285-2.00334-1.58961-2.70016A6.613,6.613,0,0,1,16.45579,81.05161ZM13.14592,27.27714c-.58794.969-1.30653,2.134-.55527,3.16833a.35939.35939,0,0,0,.56616-.04355,14.51885,14.51885,0,0,0,.6206-1.66582,22.28968,22.28968,0,0,1,1.29564-2.27553c.577-.969,1.54606-2.01423,1.67671-3.15744a.34791.34791,0,0,0-.63149-.21775c-.392.65326-.9799,1.1541-1.4154,1.7747C14.14759,25.63309,13.64676,26.46056,13.14592,27.27714ZM9.7925,71.73172a17.36206,17.36206,0,0,0,1.18676,4.93214,4.0586,4.0586,0,0,0,2.809,2.63483c.25042.05444.38107-.26131.30486-.45728a8.3673,8.3673,0,0,0-.86013-1.43718c-.196-.28308-.48995-.48995-.68593-.773a3.86705,3.86705,0,0,1-.40285-1.14321c-.43551-1.3283-1.05611-2.60217-1.51339-3.93047C10.47843,71.14378,9.7925,71.3071,9.7925,71.73172Zm-.27219-33.4362c-.27219,1.263-.78392,2.75459-.47906,4.03935a.3506.3506,0,0,0,.6206.13065c.86013-.99078.83835-2.60217,1.067-3.85425.31574-1.63316,1.04522-3.14655,1.29564-4.77971H12.0136c.01089-.33752-.48995-.60971-.69681-.23953A17.01026,17.01026,0,0,0,9.52031,38.29551ZM7.80005,58.89509A17.28328,17.28328,0,0,0,7.8436,63.751c.14154,1.51339-.10888,3.07034,1.19765,4.09378a.39972.39972,0,0,0,.54439-.10888c.05444-.05444.098-.11976.15243-.1742a.63078.63078,0,0,0,.04355-.6206,20.48733,20.48733,0,0,1-.7077-4.17,19.77669,19.77669,0,0,1-.15243-2.26465,12.24034,12.24034,0,0,0-.27219-1.55694C8.584,58.53579,7.88715,58.47047,7.80005,58.89509Zm-.35929-7.948c-.196,1.46984-.43551,3.0159.41373,4.28976a.261.261,0,0,0,.4464-.0871c.50084-1.37185.23953-2.99412.41373-4.45308.196-1.742.33752-3.50585.54439-5.24788.05444-.42462-.52261-.46817-.68593-.14154A20.59855,20.59855,0,0,0,7.44076,50.947ZM4.7406,60.746c-1.21943-11.17081-.66415-24.0401,5.34587-33.91526A49.22435,49.22435,0,0,1,35.13913,6.57957,62.79152,62.79152,0,0,1,47.91043,3.7161c1.40452-.03266,2.74371-.04355,2.9288-.05444a55.88741,55.88741,0,0,1,8.20934-.28308A56.6301,56.6301,0,0,1,75.45637,7.026c10.94216,4.268,19.21683,14.3718,23.61548,25.09621,8.77551,21.36172,1.37185,46.53414-17.06107,59.99137-9.5812,6.98992-19.28216,9.18924-31.10623,8.11136-11.55188-1.05611-24.25785-5.629-33.44709-12.78219C9.357,81.13871,5.81848,70.62117,4.7406,60.746Z" fill="#58abef"/>
        <path d="M98.78877,59.15639c-.32663-1.30653.03266-2.68927.03266-4.01757a31.91442,31.91442,0,0,0-.04355-4.0829c-.05444-.392.52261-.64238.68593-.23953a14.56392,14.56392,0,0,1,.83835,4.14822c.10888,1.48073.15243,3.27721-1.00167,4.366A.31876.31876,0,0,1,98.78877,59.15639Z"/>
        <path d="M97.73266,42.53084c-.38107-1.66582-.95812-3.42963-.43551-5.11723.14154-.43551.72948-.25042.75125.15243.15243,3.08123,1.9489,5.84671,1.73115,9.015a.36272.36272,0,0,1-.55527.28308C97.81976,45.81893,98.08107,44.0769,97.73266,42.53084Z"/>
        <path d="M94.2377,70.7736a8.46582,8.46582,0,0,1,.93634-2.9288c.69681-1.42629,1.99245-3.14655,2.17755-4.72527.05444-.392.66415-.47906.74037-.04355.28308,1.742-.52261,3.16833-1.25209,4.72527-.56616,1.21943-.84924,2.83081-2.24287,3.27721A.29718.29718,0,0,1,94.2377,70.7736Z"/>
        <path d="M93.1707,31.00074a9.61985,9.61985,0,0,1-1.11055-3.96313.42665.42665,0,0,1,.80569-.16332,18.34861,18.34861,0,0,0,1.97068,3.98491,6.92171,6.92171,0,0,1,1.46984,3.7236.341.341,0,0,1-.5335.26131C94.61877,33.97309,93.84574,32.25283,93.1707,31.00074Z"/>
        <path d="M86.52919,83.57756a.25749.25749,0,0,1-.42462-.21775c.196-1.9489,1.3283-2.9288,2.3953-4.464.60971-.871,1.1541-1.78559,1.76381-2.63483a8.4516,8.4516,0,0,0,.76214-.93634.4479.4479,0,0,1,.84924.28308,14.15648,14.15648,0,0,1-2.06867,3.876A16.1981,16.1981,0,0,1,86.52919,83.57756Z"/>
        <path d="M84.63473,19.01335c-.15243-.42462.43551-.93634.74037-.48995.64238.95812,1.76381,1.459,2.44974,2.36264.4464.577.71859,1.20854,1.20854,1.76381.392.43551.78392.89279,1.18676,1.31741.42462.43551-.098,1.05611-.60971.91457A4.934,4.934,0,0,1,86.932,22.27967C86.28966,21.1038,85.1029,20.309,84.63473,19.01335Z"/>
        <path d="M74.70512,92.04821a.26049.26049,0,0,1-.03266-.47906,16.01866,16.01866,0,0,0,1.73115-1.42629c.69681-.47906,1.39363-.95812,2.05778-1.49162.64238-.51172,1.165-1.14321,1.7747-1.69849a5.52478,5.52478,0,0,0,1.18676-1.17587.51244.51244,0,0,1,.92546.31574A2.786,2.786,0,0,1,81.32486,87.802,20.94991,20.94991,0,0,1,79.278,89.92511C78.14564,90.85056,76.273,92.46195,74.70512,92.04821Z"/>
        <path d="M78.34162,15.08288c-1.165-1.165-2.37352-2.29731-3.61472-3.37519-.22864-.196-.07621-.64238.25042-.51172a14.334,14.334,0,0,1,3.6365,2.02512,10.427,10.427,0,0,0,1.938,1.49162,5.00929,5.00929,0,0,1,1.28475.86013.39933.39933,0,0,1-.21775.64238A3.76006,3.76006,0,0,1,78.34162,15.08288Z"/>
        <path d="M66.45223,96.21821c-.28308.01089-.37018-.37018-.18509-.54439a4.41728,4.41728,0,0,1,1.73115-.9799,7.64307,7.64307,0,0,0,2.15577-1.11055,6.50635,6.50635,0,0,1,1.54606-.69681c.31574-.13065.46817-.392.76214-.54439.25042-.14154.5335-.13065.76214-.33752.26131-.22864.675.13065.45728.41373a12.96517,12.96517,0,0,1-3.103,2.49329A6.03159,6.03159,0,0,1,66.45223,96.21821Z"/>
        <path d="M62.56531,7.897c-.196-.14154-.18509-.52261.10888-.54439a11.7,11.7,0,0,1,4.55107.43551c1.19765.35929,2.5695,1.23031,3.8107,1.33919a.43809.43809,0,0,1,.26131.75125c-.80569.88191-2.12311.196-3.02679-.14154a24.04976,24.04976,0,0,0-3.4623-1.07788,5.25759,5.25759,0,0,1-2.25376-.74037C62.56531,7.90787,62.56531,7.90787,62.56531,7.897Z"/>
        <path d="M56.94724,97.9167c-.30486-.21775-.1742-.80569.25042-.75125,1.35008.196,2.89613-.42462,4.20266-.76214.84924-.22864,2.16666-.773,2.95057-.15243a.73374.73374,0,0,1-.45728,1.3283C61.83583,97.62273,58.81993,99.27766,56.94724,97.9167Z"/>
        <path d="M50.6868,7.15662c-.22864-.13065-.07621-.47906.16332-.46817,1.29564.04355,2.4824-.4464,3.76715-.4464a15.12292,15.12292,0,0,1,4.14822.392.27487.27487,0,0,1,.03266.48995,8.46644,8.46644,0,0,1-4.47486.56616C52.98411,7.603,51.89534,7.85343,50.6868,7.15662Z"/>
        <path d="M44.16505,96.68638c-.196-.196.01089-.47906.23953-.48995a.66114.66114,0,0,1,.4464.07621c.84924.14154,1.70937.04355,2.5695.16332a19.18449,19.18449,0,0,0,2.19932.33752,24.0572,24.0572,0,0,1,4.33331.23953.37362.37362,0,0,1,.21775.65326c-1.067,1.12144-3.495.74037-4.89948.60971a29.8397,29.8397,0,0,1-3.32076-.76214A2.82229,2.82229,0,0,1,44.16505,96.68638Z"/>
        <path d="M38.11148,8.95309c-.26131-.11976-.22864-.60971.10888-.54439.60971.10888,2.00334-.773,2.59128-1.00167a20.2877,20.2877,0,0,1,1.95979-.58794c1.27386-.33752,2.47151-.6206,3.62561.11976a.305.305,0,0,1-.10888.54439c-1.49162.42462-3.07034.59882-4.59462.91457C40.70276,8.60469,39.09137,9.39949,38.11148,8.95309Z"/>
        <path d="M34.21367,93.72492a.34091.34091,0,0,1,.4464-.50084,13.72375,13.72375,0,0,0,3.25543,1.4154,7.23821,7.23821,0,0,1,2.809,1.18676c.21775.18509.22864.675-.14154.7077A8.04986,8.04986,0,0,1,34.21367,93.72492Z"/>
        <path d="M27.38707,14.01589c-.43551.11976-.6206-.52261-.294-.72948a18.28612,18.28612,0,0,1,3.15744-2.49329c1.13232-.54439,2.47151-1.84,3.82159-1.72026a.31948.31948,0,0,1,.25042.48995,5.72069,5.72069,0,0,1-1.742,1.52428,5.29214,5.29214,0,0,1-1.58961.92546C29.64083,12.4045,28.75892,13.63482,27.38707,14.01589Z"/>
        <path d="M24.93733,70.57762a21.11223,21.11223,0,0,0,6.6524,3.09211,36.80863,36.80863,0,0,0,10.278,1.459,30.67043,30.67043,0,0,0,17.747-4.86681A35.58061,35.58061,0,0,0,72.21183,56.2276a34.83342,34.83342,0,0,0,3.24454-9.71185,33.38447,33.38447,0,0,0,.51172-4.8777,12.11687,12.11687,0,0,1,.11976-2.81992c-.15243-.60971-.06533-1.02345.675-1.63316,1.51339-1.23031,3.38608-1.97068,4.98658-3.103a28.12355,28.12355,0,0,0-4.58373-.06533.54143.54143,0,0,1-.51172-.675,13.03928,13.03928,0,0,1,2.78726-5.041,34.49171,34.49171,0,0,0-3.86514,1.33919,9.7335,9.7335,0,0,1-2.134.675.44361.44361,0,0,1-.86013.02178c-.65326-2.26465-4.49663-3.17922-6.51086-3.4623a13.16581,13.16581,0,0,0-8.732,1.8618c-4.7906,2.96146-4.97569,7.42543-5.45475,12.44467-.02178.22864-.15243.50084-.40285.5335-7.175,1.11055-12.42289-2.24287-17.747-6.61974-1.263-1.04522-2.36264-2.28642-3.56029-3.40786-.23953-.21775-1.55694-1.742-1.90535-1.742-.6206-.01089-.45728.47906-.75125.88191-3.53851,4.88859-.34841,9.37433,2.58039,13.23947.26131.34841-.06533.76214-.40285.84924,0,.02178-3.37519.42462-3.34253.38107-.20687.26131.80569,2.87436.88191,3.09211,1.27386,3.33164,3.84337,4.747,7.00081,6.02091a.64509.64509,0,0,1-.16332,1.263c-1.62227.11976-2.97235.14154-2.70016,1.91624a5.51541,5.51541,0,0,0,2.61305,3.495A10.24861,10.24861,0,0,0,39.87529,62.107c.55527-.07621.80569.72948.4464,1.067a27.52817,27.52817,0,0,1-6.63062,5.09546A26.29136,26.29136,0,0,1,24.93733,70.57762Zm-1.7747.01089c-.28308-.30486-.21775-.94723.26131-1.02345,3.201-.48995,5.92292-.76214,8.93882-2.12311a22.09282,22.09282,0,0,0,5.84671-4.02846c-3.04856-.10888-6.1189-1.46984-7.43632-4.30065-.392-.84924-1.28475-2.4824-.68593-3.41875a2.90358,2.90358,0,0,1,1.742-.969,11.13766,11.13766,0,0,1-4.28976-3.47318A13.27982,13.27982,0,0,1,25.166,44.7846a.549.549,0,0,1,.392-.51172,12.06026,12.06026,0,0,1,2.95057-.41373c-1.50251-1.938-2.98324-3.84337-3.35342-6.38021-.43551-2.97235.83835-5.97736,2.134-8.57953a.47619.47619,0,0,1,.5335-.21775c1.90535.294,3.94136,3.08123,5.237,4.35509a52.7201,52.7201,0,0,0,5.61807,4.40953,16.3963,16.3963,0,0,0,9.39611,3.47318c.13065,0,2.47151-.07621,2.77637-.46817.22864-.27219-.05444-1.87269-.02178-2.24287a18.4188,18.4188,0,0,1,.50084-2.76548A12.69437,12.69437,0,0,1,61.912,25.81818c3.103-.55527,9.95138.07621,11.3559,3.7236,2.3082-1.19765,4.9648-2.50418,7.53431-2.61305a.5776.5776,0,0,1,.40285.9799,15.8293,15.8293,0,0,0-3.35342,5.041c1.742-.05444,3.56029-.27219,5.21522.38107a.54471.54471,0,0,1,.23953.89279,31.43657,31.43657,0,0,1-4.35509,2.88525c-1.80736,1.12144-1.49162.9799-1.62227,2.66749a.50169.50169,0,0,1-.22864.34841c-.13065,1.37185.04355,2.99412-.07621,4.23533a42.44694,42.44694,0,0,1-.80569,4.82326c-.76214,3.58206-2.50418,6.598-4.10467,9.83162-2.78726,5.65073-8.02425,10.082-13.381,13.23947C52.9079,75.70574,46.114,76.7183,39.40712,76.1848A34.07,34.07,0,0,1,29.532,74.17057C27.48506,73.37576,24.676,72.23255,23.16263,70.58851Z"/>
        <path d="M23.92477,88.48793A.39878.39878,0,0,1,24.44738,87.9c.92546.577,1.29564,1.56783,2.09044,2.28642.86013.773,2.2211.74037,2.96146,1.63316a.33014.33014,0,0,1-.18509.54439,4.45586,4.45586,0,0,1-3.32076-.91457C24.98088,90.69813,24.6978,89.42427,23.92477,88.48793Z"/>
        <path d="M18.80754,20.85338c-.55527.32663-.95812-.54439-.4464-.89279a15.02228,15.02228,0,0,0,2.37352-2.47151c.65326-.71859,1.6005-.99078,2.24287-1.69849A.23354.23354,0,0,1,23.228,15.747a1.72815,1.72815,0,0,1,.21775.07621.19869.19869,0,0,1-.02178.38107c-.18509.03266-.65326.72948-.81658.86013a8.57119,8.57119,0,0,0-1.42629,1.31741A10.45232,10.45232,0,0,1,18.80754,20.85338Z"/>
        <path d="M15.63921,81.45446a.45553.45553,0,0,1,.81658-.40285,6.613,6.613,0,0,0,2.809,2.54773c1.18676.69681,1.17587,1.53517,1.58961,2.70016.0871.25042-.25042.54439-.42462.28308a11.14579,11.14579,0,0,0-2.89613-2.44974A6.66384,6.66384,0,0,1,15.63921,81.45446Z"/>
        <path d="M12.59065,30.44546c-.75125-1.03433-.03266-2.19932.55527-3.16833.50084-.81658,1.00167-1.644,1.55694-2.41707.43551-.6206,1.02345-1.12144,1.4154-1.7747a.34791.34791,0,0,1,.63149.21775c-.13065,1.14321-1.09966,2.18843-1.67671,3.15744a22.28968,22.28968,0,0,0-1.29564,2.27553,14.51885,14.51885,0,0,1-.6206,1.66582A.35939.35939,0,0,1,12.59065,30.44546Z"/>
        <path d="M10.97927,76.66386A17.36206,17.36206,0,0,1,9.7925,71.73172c0-.42462.68593-.58794.83835-.1742.45728,1.3283,1.07788,2.60217,1.51339,3.93047a3.86705,3.86705,0,0,0,.40285,1.14321c.196.28308.48995.48995.68593.773a8.3673,8.3673,0,0,1,.86013,1.43718c.07621.196-.05444.51172-.30486.45728A4.0586,4.0586,0,0,1,10.97927,76.66386Z"/>
        <path d="M9.04125,42.33486c-.30486-1.28475.20687-2.77637.47906-4.03935a17.01026,17.01026,0,0,1,1.79647-4.7035c.20687-.37018.7077-.098.69681.23953h.01089c-.25042,1.63316-.9799,3.14655-1.29564,4.77971-.22864,1.25209-.20687,2.86347-1.067,3.85425A.3506.3506,0,0,1,9.04125,42.33486Z"/>
        <path d="M7.8436,63.751a17.28328,17.28328,0,0,1-.04355-4.85593c.0871-.42462.78392-.35929.84924.05444a12.24034,12.24034,0,0,1,.27219,1.55694,19.77669,19.77669,0,0,0,.15243,2.26465,20.48733,20.48733,0,0,0,.7077,4.17.63078.63078,0,0,1-.04355.6206c-.05444.05444-.098.11976-.15243.1742a.39972.39972,0,0,1-.54439.10888C7.73472,66.82135,7.98514,65.26441,7.8436,63.751Z"/>
        <path d="M7.85449,55.23681c-.84924-1.27386-.60971-2.81992-.41373-4.28976a20.59855,20.59855,0,0,1,1.13232-5.63984c.16332-.32663.74037-.28308.68593.14154-.20687,1.742-.34841,3.50585-.54439,5.24788-.1742,1.459.0871,3.08123-.41373,4.45308A.261.261,0,0,1,7.85449,55.23681Z"/>
        <path d="M10.08647,26.83074C4.07645,36.70591,3.52117,49.5752,4.7406,60.746,5.81848,70.62117,9.357,81.13871,17.45746,87.4427c9.18924,7.15324,21.89522,11.72608,33.44709,12.78219,11.82407,1.07788,21.525-1.12144,31.10623-8.11136,18.43292-13.45723,25.83657-38.62965,17.06107-59.99137C94.67321,21.39776,86.39854,11.294,75.45637,7.026a56.6301,56.6301,0,0,0-16.4078-3.64739,55.88741,55.88741,0,0,0-8.20934.28308c-.18509.01089-1.52428.02178-2.9288.05444a62.79152,62.79152,0,0,0-12.7713,2.86347A49.22435,49.22435,0,0,0,10.08647,26.83074ZM10.424,85.60268c-13.17415-17.33326-14.66577-48.28706.1742-64.93439,6.94637-7.79561,15.711-14.68754,25.86923-17.59456A70.27166,70.27166,0,0,1,55.18343.232C56.871.14492,58.34087.12315,59.23366.06871A41.859,41.859,0,0,1,79.70259,4.09717c11.87851,5.6725,20.28383,17.81232,24.41028,30.09367a54.753,54.753,0,0,1-1.165,37.6062C98.70167,82.29281,89.39266,90.50216,80.30141,96.89325c-10.21269,7.175-23.16908,8.732-35.27623,6.61974C33.0378,101.41166,18.00185,95.57583,10.424,85.60268Z"/>
      </g>
    </g>
  </g>
</svg>
