<svg xmlns="http://www.w3.org/2000/svg" viewBox="0 0 17.80149 17.96034">
  <title>Recurso 39</title>
  <g id="aa6154d1-949b-46d6-97f6-a277dbbbec37" data-name="Capa 2">
    <g id="8461bcee-cbb6-4a2f-9d49-596f470a3f49" data-name="Layer 6">
      <g>
        <path d="M8.90075,17.96034A8.98052,8.98052,0,0,1,8.90075,0a8.98052,8.98052,0,0,1,0,17.96034Zm0-17.15111a8.17133,8.17133,0,0,0,0,16.34188,8.17133,8.17133,0,0,0,0-16.34188Z" fill="#b9007f"/>
        <path d="M8.90075,17.96034c-2.98325,0-5.32006-3.9446-5.32006-8.98056C3.58069,3.94421,5.9175,0,8.90075,0c2.98167,0,5.3169,3.94421,5.3169,8.97977C14.21765,14.01573,11.88241,17.96034,8.90075,17.96034Zm0-17.15111c-2.487,0-4.51083,3.66525-4.51083,8.17054,0,4.50569,2.02387,8.17133,4.51083,8.17133,2.48538,0,4.50767-3.66564,4.50767-8.17133C13.40841,4.47448,11.38613.80923,8.90075.80923Z" fill="#b9007f"/>
        <path d="M8.90075,17.96034a.40438.40438,0,0,1-.40462-.40462V.40462A.40438.40438,0,0,1,8.90075,0a8.98052,8.98052,0,0,1,0,17.96034ZM9.30536.8195V17.14083a8.17526,8.17526,0,0,0,0-16.32133Z" fill="#b9007f"/>
        <path d="M16.8429,12.40715H.95622A.40521.40521,0,0,1,.57689,12.144,8.96155,8.96155,0,0,1,.57768,5.81516.40465.40465,0,0,1,.957,5.552H16.8429a.403.403,0,0,1,.37854.26276,8.92373,8.92373,0,0,1,0,6.32962A.403.403,0,0,1,16.8429,12.40715ZM1.2423,11.59792H16.55762a8.10389,8.10389,0,0,0,0-5.23669H1.2423a8.13188,8.13188,0,0,0,0,5.23669Z" fill="#b9007f"/>
      </g>
    </g>
  </g>
</svg>
