<svg xmlns="http://www.w3.org/2000/svg" viewBox="0 0 109.06701 104.9749">
  <title>Recurso 8</title>
  <g id="Capa_2" data-name="Capa 2">
    <g id="Editar">
      <g>
        <path d="M48.18908,43.61978c.03266-.66415.05444-1.33919.04355-2.01423a5.927,5.927,0,0,0-.0871-.90368c.01089-.04355.01089-.07621.02178-.11976a.25624.25624,0,0,0-.02178-.0871c.05444-.0871.20687-.03266.6206.11976a18.6093,18.6093,0,0,1,3.005,2.18843c.95812.69681,1.92713,1.39363,2.88525,2.10133,2.24287,1.67671,4.62728,3.36431,6.78305,5.17167.68593.577,1.37185.675.76214,1.56783-.40285.56616-3.16833,2.02512-3.68005,2.36264-2.4824,1.57872-5.26966,2.46063-7.82827,3.876-.4464.23953-2.40619,1.75292-2.64572,1.63316a21.31813,21.31813,0,0,0,0-2.78726c-.02178-2.8417.10888-5.6725.0871-8.536-.01089-.76214-.06533-1.56783-.11976-2.38441C48.102,45.07874,48.16731,44.36015,48.18908,43.61978Z" fill="#e62d28"/>
        <path d="M99.03476,56.18422a4.92878,4.92878,0,0,0-.02178,3.73449.57685.57685,0,0,0,1.08877-.196c.02178-.58794.07621-1.17587.11977-1.76381.06533-.74037.32663-1.37185.43551-2.09044.1742-1.12144-.23953-2.27553,0-3.40786.11977-.5335-.65326-.59882-.86013-.18509C99.18719,53.49495,99.4376,54.91035,99.03476,56.18422ZM98.18552,40.0595c.0871,1.644.10888,3.299.07621,4.943a3.78975,3.78975,0,0,0,1.459,3.14655.40311.40311,0,0,0,.6206-.294,5.45939,5.45939,0,0,0-.27219-1.51339,9.71658,9.71658,0,0,1-.27219-2.428,14.13756,14.13756,0,0,0-1.067-4.02846C98.61014,39.55866,98.17463,39.76553,98.18552,40.0595ZM96.106,71.26372a.349.349,0,0,0,.56616.20687,6.89233,6.89233,0,0,0,1.65493-3.64739,19.008,19.008,0,0,1,1.51339-4.18089c.196-.37018-.392-.773-.675-.46817a9.60742,9.60742,0,0,0-2.09044,3.5494C96.63946,68.07361,95.94264,69.82654,96.106,71.26372ZM92.9703,28.35519c-.21775-.196-.50084.06533-.46817.30486h-.02178a5.45107,5.45107,0,0,0,1.03433,2.14488A23.61288,23.61288,0,0,1,95.137,34.03858c.38107.88191.7948,2.31909,1.99245,2.28642a.43585.43585,0,0,0,.35929-.7077c-.773-.969-1.11055-2.5695-1.67671-3.69094A12.04774,12.04774,0,0,0,92.9703,28.35519ZM89.84552,82.08611a.35265.35265,0,0,0,.577.20687c2.44974-2.04689,3.1901-5.25877,5.30232-7.50164.27219-.294,0-.84924-.41373-.64238-1.57872.7948-2.44974,2.428-3.38608,3.85425C91.05406,79.33152,89.61688,80.355,89.84552,82.08611Zm-5.041-62.50643c.33752,1.361,1.263,1.95979,2.134,2.98324a8.28083,8.28083,0,0,0,3.50585,2.83081.2588.2588,0,0,0,.32663-.34841,14.842,14.842,0,0,0-2.58039-3.25543c-.89279-.93634-2.06867-1.459-2.93969-2.41707C85.09847,19.18773,84.73918,19.31838,84.8045,19.57968ZM80.67805,90.29546a.31694.31694,0,0,0,.22864.48995c1.58961.07621,2.85258-1.19765,3.85425-2.3082a14.6315,14.6315,0,0,0,2.3953-3.47318c.18509-.40285-.40285-.64238-.64238-.33752A33.07106,33.07106,0,0,1,83.596,87.54086C82.63784,88.45543,81.38576,89.15225,80.67805,90.29546ZM75.256,11.45744c-.18509-.28308-.56616.03266-.46817.30486.35929,1.02345,2.04689,1.63316,2.88525,2.19932,1.28475.88191,2.50418,1.89446,3.84337,2.67838a.30543.30543,0,0,0,.46817-.294c-.27219-1.35008-1.29564-2.01423-2.428-2.70016A17.86333,17.86333,0,0,0,77.771,12.6442C77.20487,12.372,75.59349,11.98005,75.256,11.45744Zm-6.07535,84.0859c1.28475.69681,2.64572-.21775,3.91958-.65326,1.62227-.55527,3.21188-.969,4.268-2.38441.27219-.34841-.21775-.72948-.54439-.48995-1.263.94723-3.397,1.21943-4.91036,1.69849a8.516,8.516,0,0,0-2.76548,1.361A.29752.29752,0,0,0,69.18062,95.54334ZM64.01983,6.83016c-.35929-.098-.69681.48995-.31574.71859,1.23031.71859,2.73282.51172,3.94136,1.20854a5.268,5.268,0,0,0,1.7747.50084,5.67506,5.67506,0,0,0,2.29731.196.32.32,0,0,0,.18509-.52261c-.84924-1.04522-2.72193-1.11055-3.89781-1.55694A18.59594,18.59594,0,0,0,64.01983,6.83016Zm-9.5812,91.10848a.2631.2631,0,0,0,.15243.45728,15.99037,15.99037,0,0,0,5.21522-.47906,14.13008,14.13008,0,0,0,4.22444-1.19765.44814.44814,0,0,0-.392-.80569,8.309,8.309,0,0,1-1.18676.098c-1.03433.15243-2.09044.392-3.12478.55527C57.47631,96.86076,55.98469,96.7301,54.43864,97.93864ZM53.16477,5.16434c-.60971-.13065-.95812.76214-.33752.93634a10.66069,10.66069,0,0,0,3.42963,0,8.83876,8.83876,0,0,1,1.938.11976c.20687.02178,1.03433-.11976,1.18676-.01089a.20219.20219,0,0,0,.294-.25042c-.03266-.06533-.06533-.14154-.098-.20687a.25257.25257,0,0,0-.20687-.15243c-.95812.03266-1.81825-.46817-2.78726-.4464A14.36769,14.36769,0,0,1,53.16477,5.16434ZM41.6129,8.26734a.36232.36232,0,0,0,.41373.392c.58794-.15243,1.067-.50084,1.63316-.7077a22.81928,22.81928,0,0,1,2.53684-.65326c1.09966-.25042,2.526-.27219,3.44052-.9799a.34359.34359,0,0,0-.28308-.59882c-.72948.16332-1.50251.0871-2.25376.20687-.94723.14154-1.89446.34841-2.81992.55527C43.16984,6.73217,41.83065,7.01525,41.6129,8.26734ZM40.60034,95.39091c-.196-.07621-.43551.15243-.32663.34841.7948,1.42629,3.26632,1.65493,4.7035,1.82914a24.25342,24.25342,0,0,0,2.95057.01089,2.73016,2.73016,0,0,0,1.938-.45728.50888.50888,0,0,0-.41373-.88191,5.04469,5.04469,0,0,1-1.66582-.04355c-.82747-.05444-1.644.01089-2.46063-.098-.82747-.10888-1.66582-.28308-2.49329-.4464A16.256,16.256,0,0,1,40.60034,95.39091ZM31.81394,92.179c-.25042-.01089-.45728.31574-.26131.51172a6.04734,6.04734,0,0,0,3.79982,2.06867c1.37185.20687,2.526.69681,3.95224.51172a.31432.31432,0,0,0-.02178-.6206c-.30486-.02178-.48995-.22864-.773-.32663-.30486-.098-.60971-.02178-.91457-.16332a6.27766,6.27766,0,0,0-1.57872-.6206,8.00964,8.00964,0,0,1-2.28642-.78392A4.41168,4.41168,0,0,0,31.81394,92.179Zm-1.2412-78.20653a.34481.34481,0,0,0,.33752.52261c1.30653-.06533,2.46063-1.19765,3.52762-1.90535,1.38274-.90368,2.98324-1.4154,4.33331-2.37352l-.01089-.01089c.25042-.22864.10888-.773-.30486-.66415a16.7748,16.7748,0,0,0-4.63817,1.97068C32.71762,12.18692,31.29133,12.85107,30.57274,13.97251ZM24.3994,41.17c-.22864,3.71271-.01089,7.40365.02178,11.11637.03266,3.64739-.28308,7.19679.05444,10.83329.23953,2.53684.7077,5.30232,2.58039,7.1859,2.14488,2.16666,5.18256,1.938,8.01337,2.11222,7.68673.43551,15.40613.18509,23.09286.51172,4.10467.16332,8.19846-.15243,12.30313-.14154,2.83081.01089,6.23867,0,8.89527-1.165,6.23867-2.75459,4.99747-9.45055,5.31321-15.04684a85.83809,85.83809,0,0,0-.098-10.18c-.18509-3.38608,0-6.91371-.56616-10.278-.40285-2.43885-1.43718-4.97569-4.00668-5.56363-3.96313-.91457-8.36177-.43551-12.40112-.56616-6.696-.22864-13.48989-.01089-20.21851.38107a79.47083,79.47083,0,0,0-16.02673.28308C25.06355,31.58885,24.726,35.79151,24.3994,41.17Zm.05444,45.51069c-.25042-.34841-.773-.03266-.71859.33752C24.06188,89.30468,27.35,90.339,28.798,91.798a.73764.73764,0,0,0,1.27386-.59882c-.098-.99078-1.40452-1.56783-2.15577-2.02512C26.77293,88.47721,25.24865,87.79128,24.45384,86.68073ZM20.458,22.0512c-.04355.20687.20687.33752.37018.26131,1.33919-.58794,2.33-1.90535,3.495-2.78726,1.39363-1.067,2.75459-2.18843,4.17-3.24454.33752-.26131-.03266-.7077-.38107-.58794A20.47431,20.47431,0,0,0,23.25619,18.774C22.05854,19.6559,20.78468,20.54869,20.458,22.0512ZM16.53847,77.16486c-.04355-.16332-.06533-.196-.25042-.37018-.1742-.16332-.52261-.11976-.52261.16332a2.84962,2.84962,0,0,0,.64238,1.8618,31.3612,31.3612,0,0,0,1.75292,2.91791c.871,1.09966,2.27553,3.11389,3.83248,3.11389a.38728.38728,0,0,0,.32663-.6206A26.22136,26.22136,0,0,0,19.489,80.9429a16.55032,16.55032,0,0,1-1.28475-1.81825C17.69256,78.42784,17.01753,77.87256,16.53847,77.16486Zm-4.3442-45.52158a.40314.40314,0,0,0,.45728.31574,1.608,1.608,0,0,0,.22864-.01089.61106.61106,0,0,0,.47906-.392,20.00953,20.00953,0,0,1,2.51506-3.397A17.20227,17.20227,0,0,1,17.3986,26.4825a11.70865,11.70865,0,0,0,.93634-1.28475c.25042-.32663-.18509-.88191-.54439-.64238a17.4437,17.4437,0,0,0-3.48407,3.397C13.32659,29.10644,12.03095,29.99924,12.19426,31.64328ZM10.99661,67.73609a8.05126,8.05126,0,0,0,2.3953,6.53264c.28308.23953.6206-.10888.59882-.392A7.31957,7.31957,0,0,0,12.902,71.02419a13.31723,13.31723,0,0,1-1.23031-3.30987A.34238.34238,0,0,0,10.99661,67.73609Zm-3.36431-11.051c-.13065,1.20854-.86013,2.29731-.68593,3.5494a4.4042,4.4042,0,0,0,1.63316,3.02679.33753.33753,0,0,0,.52261-.23953c.13065-1.165-.83835-2.12311-.88191-3.27721-.03266-1.067.42462-2.02512.196-3.09211A.39719.39719,0,0,0,7.63231,56.68505Zm-.4464-17.52924a4.06265,4.06265,0,0,0,.04355,3.85425c.14154.21775.45728.098.5335-.098a8.24966,8.24966,0,0,0,.45728-1.61138c.06533-.33752.01089-.69681.07621-1.03433A4.39813,4.39813,0,0,1,8.83,39.17759c.66415-1.23031,1.1541-2.55862,1.78559-3.8107.196-.392-.40285-.773-.69681-.47906A17.29214,17.29214,0,0,0,7.18591,39.15581Zm-.21775,6.68506a6.59527,6.59527,0,0,0-.6206,3.22277,11.00343,11.00343,0,0,1,.23953,3.778c-.06533.31574.38107.34841.50084.10888.55527-1.09966,1.165-1.67671.83835-3.005a6.737,6.737,0,0,1-.10888-3.79982A.45132.45132,0,0,0,6.96815,45.84088ZM3.9087,51.30652c-1.067-10.21269,4.05023-20.05519,10.41955-27.6766C21.53593,14.996,31.19334,6.47086,42.48391,3.96669A49.22457,49.22457,0,0,1,74.43939,7.97337a62.69885,62.69885,0,0,1,10.9095,7.21856c1.00167,1.00167,1.938,1.9489,2.07956,2.07956a55.10192,55.10192,0,0,1,5.89026,5.71606,56.3217,56.3217,0,0,1,8.74284,14.35c4.51841,10.84417,2.97235,23.81145-1.70937,34.427-9.309,21.13307-32.57607,33.24022-55.04834,29.288C33.62131,99.00564,25.314,93.54,17.88854,84.26366,10.63732,75.20507,5.12813,62.89106,3.9087,51.30652Z" fill="#e62d28"/>
        <path d="M99.013,59.91871a4.92878,4.92878,0,0,1,.02178-3.73449c.40285-1.27386.15243-2.68927.76214-3.90869.20687-.41373.9799-.34841.86013.18509-.23953,1.13232.1742,2.28642,0,3.40786-.10888.71859-.37018,1.35008-.43551,2.09044-.04355.58794-.098,1.17587-.11977,1.76381A.57685.57685,0,0,1,99.013,59.91871Z"/>
        <path d="M98.26173,45.00252c.03266-1.644.01089-3.299-.07621-4.943-.01089-.294.42462-.50084.54439-.1742a14.13756,14.13756,0,0,1,1.067,4.02846,9.71658,9.71658,0,0,0,.27219,2.428,5.45939,5.45939,0,0,1,.27219,1.51339.40311.40311,0,0,1-.6206.294A3.78975,3.78975,0,0,1,98.26173,45.00252Z"/>
        <path d="M96.67212,71.47058a.349.349,0,0,1-.56616-.20687c-.16332-1.43718.5335-3.1901.969-4.54018a9.60742,9.60742,0,0,1,2.09044-3.5494c.28308-.30486.871.098.675.46817a19.008,19.008,0,0,0-1.51339,4.18089A6.89233,6.89233,0,0,1,96.67212,71.47058Z"/>
        <path d="M93.51468,30.80493A5.45107,5.45107,0,0,1,92.48035,28.66h.02178c-.03266-.23953.25042-.50084.46817-.30486a12.04774,12.04774,0,0,1,2.8417,3.57117c.56616,1.12144.90368,2.72193,1.67671,3.69094a.43585.43585,0,0,1-.35929.7077c-1.19765.03266-1.61138-1.40452-1.99245-2.28642A23.61288,23.61288,0,0,0,93.51468,30.80493Z"/>
        <path d="M89.84552,82.08611c-.22864-1.73115,1.20854-2.75459,2.07956-4.0829.93634-1.42629,1.80736-3.05945,3.38608-3.85425.41373-.20687.68593.34841.41373.64238-2.11222,2.24287-2.85258,5.45475-5.30232,7.50164A.35265.35265,0,0,1,89.84552,82.08611Z"/>
        <path d="M86.9385,22.56292c-.871-1.02345-1.79647-1.62227-2.134-2.98324-.06533-.26131.294-.392.4464-.20687.871.95812,2.04689,1.48073,2.93969,2.41707A14.842,14.842,0,0,1,90.771,25.04532a.2588.2588,0,0,1-.32663.34841A8.28083,8.28083,0,0,1,86.9385,22.56292Z"/>
        <path d="M80.9067,90.78541a.31694.31694,0,0,1-.22864-.48995c.7077-1.14321,1.95979-1.84,2.91791-2.75459a33.07106,33.07106,0,0,0,2.91791-2.87436c.23953-.30486.82747-.06533.64238.33752a14.6315,14.6315,0,0,1-2.3953,3.47318C83.75928,89.58776,82.4963,90.86162,80.9067,90.78541Z"/>
        <path d="M74.78779,11.7623c-.098-.27219.28308-.58794.46817-.30486.33752.52261,1.9489.91457,2.51506,1.18676a17.86333,17.86333,0,0,1,1.78559,1.00167c1.13232.68593,2.15577,1.35008,2.428,2.70016a.30543.30543,0,0,1-.46817.294c-1.33919-.78392-2.55862-1.79647-3.84337-2.67838C76.83469,13.39546,75.14709,12.78574,74.78779,11.7623Z"/>
        <path d="M73.1002,94.89008c-1.27386.43551-2.63483,1.35008-3.91958.65326a.29752.29752,0,0,1-.03266-.46817,8.516,8.516,0,0,1,2.76548-1.361c1.51339-.47906,3.64739-.75125,4.91036-1.69849.32663-.23953.81658.14154.54439.48995C76.31208,93.92107,74.72247,94.33481,73.1002,94.89008Z"/>
        <path d="M63.70409,7.54875c-.38107-.22864-.04355-.81658.31574-.71859a18.59594,18.59594,0,0,1,3.98491.54439c1.17587.4464,3.04856.51172,3.89781,1.55694a.32.32,0,0,1-.18509.52261,5.67506,5.67506,0,0,1-2.29731-.196,5.268,5.268,0,0,1-1.7747-.50084C66.43691,8.06047,64.9344,8.26734,63.70409,7.54875Z"/>
        <path d="M54.59106,98.39593a.2631.2631,0,0,1-.15243-.45728c1.54606-1.20854,3.03768-1.07788,4.88859-1.37185,1.03433-.16332,2.09044-.40285,3.12478-.55527a8.309,8.309,0,0,0,1.18676-.098.44814.44814,0,0,1,.392.80569,14.13008,14.13008,0,0,1-4.22444,1.19765A15.99037,15.99037,0,0,1,54.59106,98.39593Z"/>
        <path d="M52.82725,6.10068c-.6206-.1742-.27219-1.067.33752-.93634a14.36769,14.36769,0,0,0,3.41875-.01089c.969-.02178,1.82914.47906,2.78726.4464a.25257.25257,0,0,1,.20687.15243c.03266.06533.06533.14154.098.20687a.20219.20219,0,0,1-.294.25042c-.15243-.10888-.9799.03266-1.18676.01089a8.83876,8.83876,0,0,0-1.938-.11976A10.66069,10.66069,0,0,1,52.82725,6.10068Z"/>
        <path d="M48.13464,48.19263c.02178,2.86347-.10888,5.69428-.0871,8.536a21.31813,21.31813,0,0,1,0,2.78726c.23953.11976,2.19932-1.39363,2.64572-1.63316,2.55862-1.4154,5.34587-2.29731,7.82827-3.876.51172-.33752,3.27721-1.79647,3.68005-2.36264.60971-.89279-.07621-.99078-.76214-1.56783-2.15577-1.80736-4.54018-3.495-6.78305-5.17167-.95812-.7077-1.92713-1.40452-2.88525-2.10133a18.6093,18.6093,0,0,0-3.005-2.18843c-.41373-.15243-.56616-.20687-.6206-.11976a.25624.25624,0,0,1,.02178.0871c-.01089.04355-.01089.07621-.02178.11976a5.927,5.927,0,0,1,.0871.90368c.01089.675-.01089,1.35008-.04355,2.01423-.02178.74037-.0871,1.459-.1742,2.18843C48.06932,46.62479,48.12376,47.43049,48.13464,48.19263ZM47.12208,60.33244c-.7948-3.0159-.0871-6.63062-.04355-9.73363a.61068.61068,0,0,1-.01089-.7948c-.03266-2.036-.21775-4.28976-.04355-6.41287v-.27219a10.703,10.703,0,0,1,.02178-3.38608c.32663-.93634.72948-1.165,1.6876-.88191,1.70937.51172,3.62561,2.50418,5.06279,3.56029,2.51506,1.85091,4.8777,3.88692,7.38188,5.74872.90368.675,3.42963,1.56783,3.12478,3.02679-.27219,1.35008-3.05945,2.4824-3.9958,3.103-2.70016,1.7747-5.56363,2.85258-8.40532,4.33331-1.2412.65326-2.93969,2.41707-4.37687,2.12311A.55609.55609,0,0,1,47.12208,60.33244Z"/>
        <path d="M42.02663,8.6593a.36232.36232,0,0,1-.41373-.392c.21775-1.25209,1.55694-1.53517,2.66749-1.78559.92546-.20687,1.87269-.41373,2.81992-.55527.75125-.11976,1.52428-.04355,2.25376-.20687a.34359.34359,0,0,1,.28308.59882c-.91457.7077-2.34086.72948-3.44052.9799a22.81928,22.81928,0,0,0-2.53684.65326C43.09363,8.15846,42.61457,8.50687,42.02663,8.6593Z"/>
        <path d="M40.27371,95.73932c-.10888-.196.13065-.42462.32663-.34841a16.256,16.256,0,0,0,2.232.26131c.82747.16332,1.66582.33752,2.49329.4464.81658.10888,1.63316.04355,2.46063.098a5.04469,5.04469,0,0,0,1.66582.04355.50888.50888,0,0,1,.41373.88191,2.73016,2.73016,0,0,1-1.938.45728,24.25342,24.25342,0,0,1-2.95057-.01089C43.54,97.39426,41.06851,97.16561,40.27371,95.73932Z"/>
        <path d="M31.55264,92.69076c-.196-.196.01089-.52261.26131-.51172a4.41168,4.41168,0,0,1,1.91624.577,8.00964,8.00964,0,0,0,2.28642.78392,6.27766,6.27766,0,0,1,1.57872.6206c.30486.14154.60971.06533.91457.16332.28308.098.46817.30486.773.32663a.31432.31432,0,0,1,.02178.6206c-1.42629.18509-2.58039-.30486-3.95224-.51172A6.04734,6.04734,0,0,1,31.55264,92.69076Z"/>
        <path d="M30.91026,14.49512a.34481.34481,0,0,1-.33752-.52261c.71859-1.12144,2.14488-1.78559,3.24454-2.46063A16.7748,16.7748,0,0,1,38.45546,9.5412c.41373-.10888.55527.43551.30486.66415l.01089.01089c-1.35008.95812-2.95057,1.46984-4.33331,2.37352C33.37089,13.29747,32.21679,14.42979,30.91026,14.49512Z"/>
        <path d="M25.36841,48.443c.23953,5.73783-.83835,12.33579.88191,17.87764,1.4154,4.55107,5.12812,4.75794,9.31989,4.88859,2.96146.10888,5.92292.098,8.88438.196,6.61974.22864,13.479.6206,20.08785.26131,5.20433-.27219,13.66409,1.18676,17.26793-3.57117,2.02512-2.66749,1.742-6.72861,1.73115-9.95138-.01089-2.67838.28308-5.335.0871-8.01337-.20687-2.87436-.41373-5.74872-.58794-8.634-.16332-2.86347.38107-8.15491-3.005-9.5812-1.6876-.7077-4.15911-.38107-5.9447-.46817-1.57872-.06533-3.12478-.11976-4.7035-.11976-3.02679,0-6.04269-.03266-9.06948,0-6.29311.07621-12.412.577-18.69422.13065a.29839.29839,0,0,1-.196-.0871,61.43846,61.43846,0,0,0-9.73363.60971c-2.89613.45728-5.22611,1.78559-5.86848,4.71438C25.02,40.38613,25.20509,44.67589,25.36841,48.443Zm-.94723,3.84337c-.03266-3.71271-.25042-7.40365-.02178-11.11637.32663-5.37854.66415-9.5812,6.95726-10.51754a79.47083,79.47083,0,0,1,16.02673-.28308c6.72861-.392,13.52255-.60971,20.21851-.38107,4.03935.13065,8.438-.34841,12.40112.56616,2.5695.58794,3.60384,3.12478,4.00668,5.56363.56616,3.36431.38107,6.89193.56616,10.278a85.83809,85.83809,0,0,1,.098,10.18c-.31574,5.59629.92546,12.29224-5.31321,15.04684-2.6566,1.165-6.06446,1.17587-8.89527,1.165-4.10467-.01089-8.19846.30486-12.30313.14154-7.68673-.32663-15.40613-.07621-23.09286-.51172-2.83081-.1742-5.86848.05444-8.01337-2.11222-1.87269-1.88358-2.34086-4.64906-2.58039-7.1859C24.1381,59.4832,24.45384,55.9338,24.42118,52.28641Z"/>
        <path d="M28.798,91.798c-1.44807-1.459-4.73616-2.49329-5.06279-4.77971-.05444-.37018.46817-.68593.71859-.33752.7948,1.11055,2.31909,1.79647,3.4623,2.49329.75125.45728,2.05778,1.03433,2.15577,2.02512A.73764.73764,0,0,1,28.798,91.798Z"/>
        <path d="M20.82823,22.3125c-.16332.07621-.41373-.05444-.37018-.26131.32663-1.50251,1.6005-2.3953,2.79815-3.27721a20.47431,20.47431,0,0,1,4.85593-3.08123c.34841-.11976.71859.32663.38107.58794-1.4154,1.05611-2.77637,2.17755-4.17,3.24454C23.1582,20.40715,22.16742,21.72457,20.82823,22.3125Z"/>
        <path d="M16.40781,78.8198a2.84962,2.84962,0,0,1-.64238-1.8618c0-.28308.34841-.32663.52261-.16332.18509.1742.20687.20687.25042.37018.47906.7077,1.1541,1.263,1.66582,1.95979A16.55032,16.55032,0,0,0,19.489,80.9429,26.22136,26.22136,0,0,1,22.31985,84.231a.38728.38728,0,0,1-.32663.6206c-1.55694,0-2.96146-2.01423-3.83248-3.11389A31.3612,31.3612,0,0,1,16.40781,78.8198Z"/>
        <path d="M12.65155,31.959a.40314.40314,0,0,1-.45728-.31574c-.16332-1.644,1.13232-2.53684,2.11222-3.69094a17.4437,17.4437,0,0,1,3.48407-3.397c.35929-.23953.7948.31574.54439.64238a11.70865,11.70865,0,0,1-.93634,1.28475,17.20227,17.20227,0,0,0-1.52428,1.67671,20.00953,20.00953,0,0,0-2.51506,3.397.61106.61106,0,0,1-.47906.392A1.608,1.608,0,0,1,12.65155,31.959Z"/>
        <path d="M13.39191,74.26873a8.05126,8.05126,0,0,1-2.3953-6.53264.34238.34238,0,0,1,.675-.02178A13.31723,13.31723,0,0,0,12.902,71.02419a7.31957,7.31957,0,0,1,1.08877,2.85258C14.01251,74.15985,13.675,74.50826,13.39191,74.26873Z"/>
        <path d="M6.94638,60.23445c-.1742-1.25209.55527-2.34086.68593-3.5494a.39719.39719,0,0,1,.78392-.03266c.22864,1.067-.22864,2.02512-.196,3.09211.04355,1.1541,1.01256,2.11222.88191,3.27721a.33753.33753,0,0,1-.52261.23953A4.4042,4.4042,0,0,1,6.94638,60.23445Z"/>
        <path d="M7.22946,43.01007a4.06265,4.06265,0,0,1-.04355-3.85425,17.29214,17.29214,0,0,1,2.73282-4.268c.294-.294.89279.0871.69681.47906C9.98405,36.619,9.49411,37.94728,8.83,39.17759a4.39813,4.39813,0,0,0-.5335,1.08877c-.06533.33752-.01089.69681-.07621,1.03433A8.24966,8.24966,0,0,1,7.763,42.91208C7.68674,43.10806,7.371,43.22782,7.22946,43.01007Z"/>
        <path d="M6.34755,49.06364a6.59527,6.59527,0,0,1,.6206-3.22277.45132.45132,0,0,1,.84924.30486,6.737,6.737,0,0,0,.10888,3.79982c.32663,1.3283-.28308,1.90535-.83835,3.005-.11976.23953-.56616.20687-.50084-.10888A11.00343,11.00343,0,0,0,6.34755,49.06364Z"/>
        <path d="M14.32826,23.62992C7.95894,31.25133,2.84171,41.09383,3.9087,51.30652c1.21943,11.58454,6.72861,23.89856,13.97984,32.95714C25.314,93.54,33.62131,99.00564,45.30383,101.05253c22.47226,3.95224,45.73933-8.15491,55.04834-29.288,4.68172-10.61553,6.22778-23.58281,1.70937-34.427a56.3217,56.3217,0,0,0-8.74284-14.35,55.10192,55.10192,0,0,0-5.89026-5.71606c-.14154-.13065-1.07788-1.07788-2.07956-2.07956a62.69885,62.69885,0,0,0-10.9095-7.21856A49.22457,49.22457,0,0,0,42.48391,3.96669C31.19334,6.47086,21.53593,14.996,14.32826,23.62992ZM11.443,82.30387C4.63818,72.21095-1.57871,57.32743.35931,44.94808,3.71272,23.44483,24.98734.90724,47.27451.058,57.705-.334,68.74511,1.2012,77.8908,6.49264A71.37615,71.37615,0,0,1,92.91586,18.01185c1.21943,1.165,2.26465,2.21021,2.91791,2.81992A41.85625,41.85625,0,0,1,107.12434,38.3719c4.14822,12.48822,1.23031,26.9689-4.75794,38.45544A54.76343,54.76343,0,0,1,74.45027,102.0542c-10.50665,4.22444-22.87511,3.201-33.77372,1.08877C28.417,100.75856,18.31316,92.50567,11.443,82.30387Z"/>
      </g>
    </g>
  </g>
</svg>
