<svg xmlns="http://www.w3.org/2000/svg" viewBox="0 0 422.145 431.877"><title>art14</title><g id="Capa_2" data-name="Capa 2"><g id="Objects"><path d="M276.826,291.412c-.095-.337-.2-.677-.321-1.016-.041-.125-.076-.249-.118-.374-.919-2.671-1.819-5.053-2.694-7.279-2.412-16.261-5.744-31.95-12.51-47.521a12.761,12.761,0,0,0-5.783-6.159c-.653-1.413-1.362-2.81-2.138-4.192-4.922-8.775-16.871-11.808-25.454-6.674a25,25,0,0,0-10.451,12.041c-.268-.554-.545-1.1-.861-1.648-4.716-8.128-15.908-9.289-22.545-2.906-5.063,4.869-6.536,11.439-7.353,18.089a84.241,84.241,0,0,0-6.662,14.622A78.477,78.477,0,0,0,175.9,270c-3.546,10.072-7.332,20.419-6.642,31.193a60.608,60.608,0,0,0-5,12.129c-5.169,17.505,15.857,26.211,28.086,16.349a32.42,32.42,0,0,0,4.245-4.215c10.081,5.351,23.4,3.83,34.3,3.615,10.795-.213,23.521.66,33.693-3.382C279.724,319.67,281.157,305.175,276.826,291.412Z" fill="#0090c1"/><path d="M331.49,92.6c-.614-.032-1.226-.058-1.837-.058a63.2,63.2,0,0,0-3.444-5.379C313.368,69.217,293.586,57.61,272.214,52.3,251.308,38.156,224.67,34.19,199.295,37.784A105.486,105.486,0,0,0,161.158,51.31c-1.6.695-3.167,1.457-4.716,2.251a13.838,13.838,0,0,0-2.768-.192c-16.882.538-36.849,16.977-47.047,29.385-1.311,1.6-2.572,3.264-3.8,4.968-9.22-8.971-27.515-6.046-30.773,8.807-4.074,6.118-5.095,14.668-.836,20.375-.053-.208-.1-.416-.157-.623,2.041,6.519,8.627,10.8,15.176,11.866a59.184,59.184,0,0,0,.635,18.235c4.645,23.395,26.652,39.626,47.668,47.789a154.82,154.82,0,0,0,17.321,5.656c17.355,16.834,52.253,17.078,62.815,32.933,14.412,1.937,27.841-9.142,40.528-13.186,19.807-6.314,37.391-9.537,50.889-27.335A112.314,112.314,0,0,0,321,176.184a85.86,85.86,0,0,0,14.555-29.748,11.767,11.767,0,0,1,2.092-.217c3.991.178,7.992-.76,11.9-1.455,8.865-1.57,16.857-9.2,20.915-16.855C384.6,101.264,350.858,77.308,331.49,92.6Z" fill="#ffedc9"/><path d="M251.091,127.768c-5.266.893-11.173,5.686-13.77,7.674-12.581-3.749-26.617-3.255-39.513-3.2a16.411,16.411,0,0,0-6.681,1.464,19.822,19.822,0,0,0-8.292,2.858,10.964,10.964,0,0,0-3.613,15.269,14.979,14.979,0,0,0,9.255,14.862c15.259,6.815,31.733,12.805,48.73,11.508,6.457-.492,11.3-3.089,14.472-6.752a39.919,39.919,0,0,0,6.131-3.218c5.037-3.271,2.632-2.156,7.854-5.9C283.461,149.574,272.509,124.134,251.091,127.768Z" fill="#f08e7e"/><path d="M156.366,103.722c-6.891-12.037-25.066-18.74-36.955-9.567a34.065,34.065,0,0,0-7.45,7.623c-6.565,8.77-6.586,22.323-.021,31.059,4.319,5.746,8.832,9.414,15.649,11.882,6.609,2.394,14.684.568,20.532-2.858C161.569,133.982,163.665,116.47,156.366,103.722Z" fill="#f7bfa7"/><path d="M332.24,118.162c0-.27.016-.543,0-.808-.252-4.762-.949-6.1-2.8-10.388-2.267-5.252-7.794-8.142-12.722-10.162-4.43-1.812-10.086-1.6-14.613-.395-8.084,2.147-15.645,9.379-17.03,17.829a29.2,29.2,0,0,0,.226,12.877c1.087,4.571,3.424,7.6,6.2,11.2,5.137,6.642,15.624,8.869,23.337,6.494,6.113-1.884,9.638-5.727,13.348-10.58,2.738-3.583,3.55-8.144,4.079-12.464A14.783,14.783,0,0,0,332.24,118.162Z" fill="#f7bfa7"/><path d="M291.061,336.675c.189-8.482-6.764-13.666-14.458-14.458-12.45-1.281-24.814,1.189-37.28.575-11.367-.563-22.2-.815-31.454,6.6l-.067.007a35,35,0,0,0-8.5,2.283,12.513,12.513,0,0,0-11.591,1,19.332,19.332,0,0,0-3.784,3.285,10.9,10.9,0,0,0-2.246.565c-.316.118-.593.249-.9.369-3.862-7.99-18-8.708-20.158,1.641q-.932,4.474-1.863,8.943c-1.2,5.737,2.128,11.628,6.813,14.6a11.1,11.1,0,0,0,5.75,4.388,11.6,11.6,0,0,0,4.2,1.759c4.492,6.376,14.738,6.538,21.026.868,6.062.189,11.991-2.86,12.958-9.85.169-1.212.362-1.916.413-2.26a29.387,29.387,0,0,1,3.031-.642c4.017-.8,8.849-.125,12.928-.035,3.368.076,6.84.145,10.287-.026-.743,20.412,22.677,26.453,39.944,16.141a13.786,13.786,0,0,0,6.279-8.47C289.865,357.527,290.846,346.3,291.061,336.675Z" fill="#f5a400"/><path d="M164.706,415.649c-7.694-6.833-20.324-3.033-28.171-9.825-3.361-2.909-9.433-.217-7.9,4.6a30.764,30.764,0,0,0,10.506,14.691c5.847,4.6,17.06,8.608,23.824,4.072C167.322,426.264,169.09,419.539,164.706,415.649Z" fill="#ea4d07"/><path d="M319.25,410.9c-9.026,2.089-18.249,1.849-27.393,3.32-7.579,1.219-7.431,13.752,0,15.1,10.855,1.974,21.88,3.878,32.832,1.3C337.536,427.614,332.085,407.934,319.25,410.9Z" fill="#ea4d07"/><path d="M332.907,409.347c-.76-5.621-5.72-7.607-10.783-8.075-8.038-.748-17.473,1.5-25.2,3.509-3.867,1-7.591,2.306-11.395,3.534-.517.171-4.908,1.12-4.8,1.277-.658-.947-.743-2.634-.977-3.793-1.027-5.1-2.168-10.176-3.126-15.291q-.765-4.02-1.3-8.087c-.141-1.069-.219-2.142-.263-3.225a6.423,6.423,0,0,1,.039-1.313,2.86,2.86,0,0,0,.725-1.988c5.023-.436,10.543-1.831,14.523-4.982,3.382-2.678,2.987-8.181,2.636-11.923-.662-7.133.044-14.6.265-21.758.249-8.184.935-17.074-4.169-24.018a2.635,2.635,0,0,0-1.473-1.062c-.893-15.04-5.469-29.316-9.4-43.894-2.539-9.428-5.319-18.794-8.133-28.141-1.277-4.239-2.4-8.572-3.991-12.695-.028-.067-.056-.125-.083-.189,3.735,1.376,7.355,3.056,11.113,4.455,5.109,1.9,11.309,1.791,16.693,1.859a110.315,110.315,0,0,0,33.746-4.936c19.433-6.1,35.99-18.81,48.691-34.512a109.512,109.512,0,0,0,15.723-26.4c5.164-12.313,10.174-24.68,13.689-37.58a191.053,191.053,0,0,0,4.739-26.444,45.884,45.884,0,0,0,.471-8.451c5.4-4.481,8.369-11.954,10.377-18.464C422.4,73,416.568,71.246,415.409,75c-.118.381-.238.776-.369,1.182a13.89,13.89,0,0,0-1.614-8.272c-1.969-3.389-7.35-.517-5.365,2.888,2.315,3.989.3,10.037-1.8,15.308a3.3,3.3,0,0,0-.663-.254,2.885,2.885,0,0,0-1.969-2.6c-.316-3.742.051-7.8-.058-11.6-.118-3.909-6.208-4.082-6.095-.141.088,3,.767,6.66.247,9.64a50.725,50.725,0,0,1-2.216-8.442c-.695-3.869-6.623-2.431-5.928,1.427,1.191,6.635,3.5,17,10.631,19.632a2.573,2.573,0,0,0,2.641-.376c-1.417,1.965-.3,5.284,2.216,4.973a87.839,87.839,0,0,1-1.362,9.433,187.918,187.918,0,0,1-6.127,28.231c-6.233,20.017-14.431,40.362-27.954,56.609a96.575,96.575,0,0,1-44.972,30.512c-9.781,3.073-20.5,4.255-30.708,4.31-5.684.028-11.545-.284-16.9-2.281-5.252-1.955-10.125-4.456-15.615-5.647a7.161,7.161,0,0,1-.4-1.7c23.286-7.6,46.964-21.5,60.035-42.581,7.457-12.013,11.247-26.1,14.214-39.787.111-.5.215-.993.318-1.489a26.474,26.474,0,0,0,27.707.048c9.945-5.878,13.329-16.333,9.177-26.908-3.576-9.121-13.629-16.324-23.122-17.787a12.543,12.543,0,0,0-11.863,5.291A63.449,63.449,0,0,0,324.4,66.959c-8.394-10.4-21.111-17.875-33.076-23.408a188.367,188.367,0,0,0-17.8-7.166,28.621,28.621,0,0,0,1.764-10.779,3.159,3.159,0,0,0-2.978-3.117c-5.307-.787-9.086,5.559-11.51,9.3-.129.2-.27.413-.406.619-.965-.254-1.934-.5-2.9-.739,2.456-4.742,4.792-9.917,4.663-15.322a3.073,3.073,0,0,0-3.758-3.031c-3.634.977-6.635,3.576-9.292,6.478a22.206,22.206,0,0,0,2.553-10.848A3.1,3.1,0,0,0,247.9,5.917c-7.821,1.32-13.791,8.2-18.826,13.789-2.191,2.431-4.416,4.855-6.641,7.283-.166,0-.339,0-.508,0,2.018-3.742,3.895-7.805,3.562-12.129a3.1,3.1,0,0,0-4.495-2.754c-6.63,3.01-11.222,8.862-16.037,14.123-.143-.007-.289-.014-.436-.023,1.974-3.149,3.888-6.415,3.648-10.194a3.1,3.1,0,0,0-3.761-3.036c-6.725,1.591-11.422,6.224-15.728,11.46l-.092.014c3.387-4.55,6.2-9.414,6.84-15.458a3.062,3.062,0,0,0-3.758-3.031c-9.384,2.588-16.757,10.409-22.921,17.547-1.39,1.607-2.874,3.144-4.377,4.663.517-.88,1.039-1.757,1.521-2.653,3.16-5.834,6.829-16.624,13.879-18.7,3.754-1.1,2.355-7.041-1.427-5.924-7.824,2.3-11.967,10.649-15.5,17.344-4.522,8.583-10.231,16.467-15.924,24.341a188.025,188.025,0,0,0-16.457,11.4c-12.487,9.636-22.554,23.434-29.265,38.451-.058-.081-.1-.164-.166-.243-5.78-7.08-12.609-12.281-21.689-7.479-6.794,3.6-11.432,11.79-13.154,19.011-1.909,7.994.245,15.871,6.732,21.005,5.077,4.012,12.937,5.042,19.221,2.851-1.434,21.017,4.892,40.466,20.825,55.464,16.963,15.975,40.291,25.655,62.092,32.936q6.95,2.323,13.99,4a2.925,2.925,0,0,0-1.009,1.08c-3.174,5.748-12.08,6.536-17.949,6.886-9.174.543-18.461-1.094-27.423-2.842-18.489-3.613-36.137-8.869-53.1-17.182-16.183-7.937-32.337-18.059-45.335-30.634a93.669,93.669,0,0,1-16.1-21.324c-3.373-5.935-6.847-12.782-8.692-19.645a3.088,3.088,0,0,0,1.33-1.72A2.927,2.927,0,0,0,22.613,132c.457-6.03,2.812-12.475,5.386-17.9,1.674-3.511-3.474-6.785-5.157-3.248a77.294,77.294,0,0,0-4.714,12.284,3.425,3.425,0,0,0-.517-.145,31.41,31.41,0,0,1,.706-11.593c1.03-3.784-4.808-5.55-5.833-1.755a38.39,38.39,0,0,0-.79,15.188c-.494-1.279-.882-2.586-1.238-3.784-1.013-3.421-1.715-6.935-2.989-10.275-1.381-3.618-7.325-2.244-5.928,1.424,1.588,4.157,2.376,8.9,3.888,13.228a15.507,15.507,0,0,0-1.648-.252c-3.486-.337-4.174,4.991-.944,5.963l.972.293a3.032,3.032,0,0,0,1.41.1,23.128,23.128,0,0,1,4.726,1.729,15.324,15.324,0,0,0,1.584,1.443,2.312,2.312,0,0,0,.921.441,2.7,2.7,0,0,0,.88,1.983c1.787,7.064,5.344,14.027,8.65,20.276a101.618,101.618,0,0,0,16.642,22.873c14.05,14.6,32.855,25.692,50.972,34.381,19.006,9.114,39.236,14.463,59.984,17.833,8.618,1.4,23.342,3.458,33.778-.337-.023.046-.044.095-.067.141-2.332,4.919-4.492,9.927-6.533,14.98a259.988,259.988,0,0,0-10.476,32.58c-2.71,10.5-3.664,21.64-6.739,31.982-1.974,6.653-4.118,14.119-2.731,21.079a2.674,2.674,0,0,0,.515,1.09c-2.713,6.711-2.092,15.43-1.75,21.965.194,3.772-.252,9.086,2.239,12.219,3.015,3.781,8.971,4.4,13.436,4.915,1.542.173,3.133.332,4.737.473a33.48,33.48,0,0,0-1.487,7.076c-1.117,8.377-3.38,16.381-5.363,24.516a2.782,2.782,0,0,0-3.3,2.05c-.042.15-.081.3-.125.448-4.846-2.212-9.507-4.848-14.59-6.533-5.483-1.819-11.319-1.42-16.792.122-6.653,1.87-19.283,10.765-9.915,17.593,7.964,5.806,20.061,8.6,29.768,7.992,4.241-.265,8.906-1.628,11.967-4.691a16.225,16.225,0,0,0,3.6-6.339,3.043,3.043,0,0,0,3.668-2.068c1.738-8.405,4.6-16.538,6.064-25.006.4-2.334.7-4.709,1-7.062.161-1.32.342-2.636.6-3.948a17.239,17.239,0,0,1,.457-1.807c.023-.037.028-.06.053-.095a2.508,2.508,0,0,0,2.546-1.743c2.615.1,5.206.129,7.7.078,3.8-.072,8.528.187,10.9-3.479,3.618-5.6,3.273-12.932,6.457-18.838,2.685-4.968,11.349-1.653,15.774-1.376,5.861.369,8.2,2.02,8.613,7.782.273,3.846-.062,7.694.8,11.478,2.281,9.977,15.684,8.26,23.265,7.634q5.707-.46,11.39-.926c-1.4,5.538,1.672,15.587,2.281,18.7.822,4.208,1.771,8.389,2.615,12.593.621,3.1,1.646,5.4,3.562,6.588a3.05,3.05,0,0,0,.741,4.34c13.392,9.308,31.472,18.217,46.48,6.785C329.456,421.824,333.766,415.644,332.907,409.347ZM76.163,119.561c-5-3.3-5.074-10.183-3.839-15.352a25.93,25.93,0,0,1,7.722-12.528c6.494-6.058,12.055-.813,16.525,4.654a2.557,2.557,0,0,0,2.571,1.007A106.648,106.648,0,0,0,93,119.826c-.03.185-.051.369-.081.556C88.177,124,80.9,122.689,76.163,119.561Zm87.361,295.312c-1.468,3.961-4.818,5.143-8.7,5.811-7.08,1.21-15.005-1.39-21.52-3.931a29.955,29.955,0,0,1-4.758-2.41c-2.258-1.387-.6-2.488.826-3.767,3.426-3.05,8.347-4.28,12.815-4.576,7.752-.515,14.8,4.035,21.829,7.438C163.864,413.918,163.7,414.4,163.524,414.873ZM342.6,100.19c-2.6-3.174,3.779-4.765,5.321-4.846,3.477-.18,6.884,1.914,9.675,3.728,5.582,3.613,10.1,9.163,10.76,15.982.727,7.5-5.73,13.246-12.157,15.7-6.346,2.422-13.013.984-18.517-2.664a3.142,3.142,0,0,0-.847-.388,100.86,100.86,0,0,0,1.909-22.8C341.278,106.746,344.884,102.981,342.6,100.19Zm-73.764-69.7a33.458,33.458,0,0,1-1.032,4.026c-.522-.164-1.048-.312-1.565-.469A27.835,27.835,0,0,1,268.839,30.491Zm-14.167,6.715c.667.159,1.337.323,2,.492a61.683,61.683,0,0,1-4.633,5.464C252.841,41.138,253.734,39.144,254.672,37.207Zm.494-15.213a47.047,47.047,0,0,1-3.784,8.3c-.963-.2-1.923-.392-2.888-.573A60.6,60.6,0,0,1,255.166,21.994Zm-22.732,3.059c3.53-3.954,7.623-9.125,12.632-11.732-1.277,4.913-4.719,9.421-7.574,13.392-.279.4-.554.792-.826,1.193q-3.141-.353-6.284-.579C231.065,26.567,231.753,25.81,232.434,25.053ZM218.179,21a55.9,55.9,0,0,1-3.176,6c-.954-.028-1.891-.092-2.823-.171A47.049,47.049,0,0,1,218.179,21Zm-17.715.443c-.6,1.071-1.288,2.119-1.962,3.137-.5-.118-1-.217-1.5-.293A30.555,30.555,0,0,1,200.463,21.444Zm-12.337-7.5c-1.766,4.822-5.081,9-8.5,13.156-3.511,1.367-6.979,2.98-10.418,4.4C174.843,25.71,180.741,18,188.126,13.946ZM146.28,197.706c-20.527-10-40.817-24.537-46.662-47.83a70.373,70.373,0,0,1-1.295-26.245,2.7,2.7,0,0,0,.337-2.35c2.749-17.291,10.9-34.092,21.114-47.5a97.982,97.982,0,0,1,22.686-21.051,2.977,2.977,0,0,0,3.744.769A54.1,54.1,0,0,0,158.85,42.851a128.643,128.643,0,0,1,13.426-6.011,27.4,27.4,0,0,0-3.285,7.475,3.081,3.081,0,0,0,4.361,3.564c6.381-2.895,10.862-8.424,15.135-13.784.986-1.235,2.075-2.623,3.246-4.049a14.232,14.232,0,0,1,1.981-.055,3.583,3.583,0,0,0,.328,2.029c-2.152,3.56-4.386,7.055-6.42,10.693a3.07,3.07,0,0,0,4.024,4.305c6.732-3.119,11.434-9.031,16.162-14.915,1.494.088,2.985.245,4.479.427-1.471,3.581-2.659,7.489-3.788,10.945-1.14,3.488,3.488,5.065,5.5,2.5,3.47-4.439,7.286-8.689,11.129-12.893.273,0,.552,0,.822.012,2.454.055,4.887.242,7.313.5-2.553,4.6-4.949,9.32-8.361,13.214a3.051,3.051,0,0,0,4.155,4.465c5.767-4.672,10.1-10.642,14.879-16.247,1.519.254,3.043.524,4.557.829a60.426,60.426,0,0,0-5.074,14.957c-.413,2.4,1.824,5.051,4.361,3.562,6.293-3.705,10.308-9.573,15-14.987,0,0,.007-.016.012-.021.99.293,1.974.589,2.955.894a48.043,48.043,0,0,0-2.47,8.036,3.081,3.081,0,0,0,4.356,3.562c3.668-1.549,5.831-4.973,7.9-8.253q4.966,1.835,9.832,3.906c13.2,5.624,26.511,13.6,35.611,24.877,8.59,10.638,11.815,23.981,11.8,37.41-.016,13.131-3.507,26.6-7.14,39.134-4.2,14.527-10.894,27.5-22.088,37.823-20.4,18.817-49.116,30.2-76.751,31.417C198.926,219.393,171.025,209.764,146.28,197.706Zm76.539,35.69c-6.727,1.468-7.77-4.446-8.553-9.608a128.15,128.15,0,0,0,20.49-.39C235.926,228.994,227.08,232.464,222.819,233.4Zm-60.4,93.968c.12-5.268,2.054-10.769,3.5-15.594,1.466-4.878,1.794-10.4,2.81-15.416,1.12-5.554,2.433-11.065,3.848-16.55a260.763,260.763,0,0,1,10.007-30.775c2.043-5.18,4.328-10.266,6.711-15.3,2-4.227,4.414-7.948,5.945-12.4q6.257,1.226,12.556,1.914a2.469,2.469,0,0,0,.339.621c.713,4.4,1.138,8.585,3.95,12.337,2.7,3.606,8.2,3.756,12.161,3.114,7.429-1.2,18.385-8,16.614-16.684a122.712,122.712,0,0,0,14.336-3.063,17.7,17.7,0,0,0,2.14,5.206,49.887,49.887,0,0,1,5.143,11.268c2.819,9.269,5.589,18.556,8.209,27.88,4.617,16.427,10.266,32.945,10.91,50.1a3.616,3.616,0,0,0-1.069,2.1,2.683,2.683,0,0,0-1.692,1.351c-7.745-1.071-16.467.256-24.041.847-10.559.824-21.014,2.558-31.56,3.5-10.714.951-21.377,2.4-32.021,3.885-8.377,1.166-16.453,3.036-24.812,3.447A3.189,3.189,0,0,0,162.421,327.364Zm87.724,44.31c-4.689.085-9.264.286-10.158-4.968-1.11-6.522,1.034-13.78-4.236-19-3.1-3.077-8.047-3.174-12.124-3.428-4.7-.293-9.382-1.992-14.045-.478-3.738,1.212-6.034,5-7.362,8.465a90.228,90.228,0,0,0-3.049,11.014c-.787,3.214-1.334,4.629-4.7,4.758-5.838.226-11.787-.524-17.644-.7a46.39,46.39,0,0,1-10.8-1.378c-3.158-.845-3.816-1.84-4.047-5.143-.48-6.785-2.38-18.54,1.362-25.463a102.275,102.275,0,0,0,23.425-2.9c10.476-2.368,21.792-3.056,32.465-4.169,9.957-1.037,19.883-2.32,29.844-3.357,5.01-.529,10.035-.879,15.066-1.1,5.157-.231,10.836-1.175,15.9.012a3.1,3.1,0,0,0,3.8-2.041l.046-.159a3.14,3.14,0,0,0,2.639-.268c1.067,3.733.845,8.034.766,11.7-.127,6.131-.314,12.254-.517,18.383-.134,3.9,2.4,13.285-1.6,15.682-5.6,3.354-12.87,2.786-19.112,3.257C260.731,370.8,255.493,371.577,250.145,371.674Zm71.515,48.465c-3.308,2.9-8.1,4.231-12.378,4.672-9.012.935-18.226-4.739-25.643-9.82,7.23-1.161,14.181-4.4,21.435-5.787,3.835-.73,20.135-5.051,21.79.669C327.928,413.569,324.126,417.981,321.66,420.139Z" stroke="#000" stroke-miterlimit="10" stroke-width="1.5"/><path d="M179.989,93.269a3.152,3.152,0,0,0-2.382-1.752,3.406,3.406,0,0,0-.487-.205,3.072,3.072,0,0,0-3.8,2.043c-.053.2-.09.39-.129.584-.055.129-.122.256-.164.386a2.869,2.869,0,0,0,.021,1.81,10.157,10.157,0,0,0,1.281,4.017,3.07,3.07,0,0,0,5.6-.563C180.547,97.542,180.949,95.28,179.989,93.269Z" stroke="#000" stroke-miterlimit="10" stroke-width="1.5"/><path d="M266.073,91.778a4.157,4.157,0,0,0-4.121-3.454,2.89,2.89,0,0,0-3.883,1.9,16.788,16.788,0,0,0-.963,6.1,5.9,5.9,0,0,0,5.651,5.8,3.044,3.044,0,0,0,2.99-2.168A16.72,16.72,0,0,0,266.073,91.778Z" stroke="#000" stroke-miterlimit="10" stroke-width="1.5"/><path d="M283.069,126.6c.162-2.122-1.918-3.283-3.758-3.033-35.15,4.755-71.576,10.2-106.346.408-.972-2.512-5.589-2.161-5.928,1.214-1.618,16.254-2.65,32.529,11.374,43.735,11.127,8.89,28.219,12.06,42,13.819,15.389,1.972,31.357-.035,43.878-9.772C277.683,162.555,281.893,142.593,283.069,126.6Zm-21.82,40.971c-10.554,9.555-25.8,10.582-39.277,9.243-12.367-1.23-26.34-4.529-37.1-10.862-13.4-7.879-13.419-22.12-12.207-35.736,34.06,9.192,69.519,4.5,103.994-.171C275.271,143.5,271.418,158.374,261.248,167.576Z" stroke="#000" stroke-miterlimit="10" stroke-width="1.5"/></g></g></svg>