<svg xmlns="http://www.w3.org/2000/svg" viewBox="0 0 276.785 471.532"><title>art17</title><g id="Capa_2" data-name="Capa 2"><g id="Objects"><path d="M210.79,302.813a16.263,16.263,0,0,0-5.467-10.775l-1.09-.914c-8.268-6.94-20.158-6.555-27.241-.267-.577.083-1.16.13-1.739.2-16.876-5.707-36.89-4.371-54.55-4.085-4.818-7.439-16.658-9.847-23.97-5.036a27.2,27.2,0,0,0-4.224,3.393c-7.087,1.333-13.039,6.837-12.99,16.635.034,6.824-.765,13.595-.731,20.419.086,16.983,18.334,20.092,27.822,11.779a18.923,18.923,0,0,0,10.014.192c5.322-1.438,10.849-1.241,16.357-.966,2.152.135,4.3.231,6.446.267a19.753,19.753,0,0,0,5.608-.679c10.789,1.316,20.754.628,30.61-2.807.259-.009.517-.026.776-.036a17.1,17.1,0,0,0,6.281,5.081c13.035,17.073,39.669,7.241,35.137-15.043A47.576,47.576,0,0,0,210.79,302.813Z" fill="#4a9200"/><path d="M230.01,234.943c-.278-.263-.553-.523-.831-.784a17.055,17.055,0,0,0-9.147-4.452,59.215,59.215,0,0,0-4.079-9.349c-2.713-4.634-7.706-6.749-12.648-6.7-.417-.647-.835-1.295-1.25-1.959-2.893-4.625-7.439-4.978-10.836-2.94a18.546,18.546,0,0,0-7.88.523,14.931,14.931,0,0,0-4.017,1.791c-8.04-5.412-20.308-4.463-23.884,5.8-.382.073-.761.167-1.143.235a22.717,22.717,0,0,1-4.194.372c-3.262-.239-6.536-.622-9.813-1.043l-1.31-.218c-8.228-1.37-18.133-4.63-26.551-4.824-3.611-.94-7.132,1.034-9.386,3.859-3.058-6.555-11.843-10.875-18.233-6.074A59.989,59.989,0,0,0,72.59,222.1a19.554,19.554,0,0,0-4.809,7.239l-.013.028c-3.72,6.083-6.978,12.45-10.012,18.25a14.967,14.967,0,0,0-1.619,9.044c-.023.126-.066.244-.09.37-2.882,15.34,13.742,25.314,25.7,14.964,6.358-5.5,9.354-13.608,11.614-21.485.286-1,.511-2.017.716-3.04a12.949,12.949,0,0,0,4.578,1.536c19.212,2.717,39.407,4.8,58.817,3.732a147.66,147.66,0,0,0,24.265-3.1,25.326,25.326,0,0,0,9.777-5c1.139,5.245,2.844,10.467,5.854,14.789A16.026,16.026,0,0,0,209.66,266a14.91,14.91,0,0,0,19.808-9.463C235.292,251.2,235.995,240.58,230.01,234.943Z" fill="#4a9200"/><path d="M266.231,107.328c-6.64-3.444-13.074-1.852-18.21.229A67.355,67.355,0,0,0,231.1,117.842c-3.987-10.928-11.586-20.169-21.077-27.121a48.958,48.958,0,0,0-13.935-11.2c-12.219-6.4-26.425-7.852-39.985-5.638a51.033,51.033,0,0,0-13.475-13.155c-20.436-13.792-45.66-9.2-65.7,2.8a33.364,33.364,0,0,0,1.323-6.6c.269-3.188-2.444-6.365-5.421-7.121C54.8,45.231,44.727,67.958,41.23,81.82a24.384,24.384,0,0,0-11.939-2.385v.286c-6.256-.265-12.454,2.816-13.46,9.963-.925,6.563-2.771,12.753,1.156,18.93.976,1.536,1.972,3.1,3,4.643-.662,17.729,5.034,36.219,13.6,51.234,8.459,14.834,23.359,26.025,39.806,29.063a54.371,54.371,0,0,0,31.29,10.851,41.186,41.186,0,0,0,16.582-3.207,9.717,9.717,0,0,0-.058,2.777A18.13,18.13,0,0,0,120.72,207c-.011.137-.019.233-.028.333-.13.778-.275,1.553-.427,2.327-.594,3.015-1.141,5.942-1.532,9.012-.224,1.775-1.16,9.07-.132,1.461-.846,6.262-.355,11.853,4.386,16.592,5.194,5.2,14.317,6.865,20.667,2.669,9.638-6.371,15.629-20.893,5.45-29.969-.25-.771-.506-1.545-.8-2.322a62.961,62.961,0,0,0,13.866-1.2,99.5,99.5,0,0,0,46.421-20.425c.286-.231.56-.478.844-.716,12.18-7.589,21.972-18.926,26.147-31.187a18.635,18.635,0,0,0,15.979-5.014c5-4.873,7.561-9.223,12.042-14.227,4.709-5.26,7.683-10.914,7.775-18.02A10.3,10.3,0,0,0,266.231,107.328Z" fill="#ffedc9"/><path d="M73.335,136.425a23.187,23.187,0,0,0-14.36-11.689,32.144,32.144,0,0,0-3.213-1.534c-6.089-2.461-12.627-.173-18.24,2.222-8.07,3.446-12.311,12.131-12.67,20.483-.318,7.429,3.673,14.577,8.544,19.853a26.439,26.439,0,0,0,23.876,7.929c6.779-1.218,14.05-7.044,16.862-13.37C77.75,152.176,77.237,144.371,73.335,136.425Z" fill="#f7bfa7"/><path d="M248.524,147.121c-3.019-18.3-24.464-26.264-39.366-16.823a26.6,26.6,0,0,0-9.589,10.7c-4.115,4.771-5.927,10.08-6.269,16.376-.532,9.79,5.9,20.242,14.272,24.884,11.2,6.209,24.22,2.254,32.969-6.213C248.43,168.407,250.235,157.483,248.524,147.121Z" fill="#f7bfa7"/><path d="M263.27,73.7a33.748,33.748,0,0,0-18.421-24.111c-3.057-14.449-11.811-27.222-26.538-29.909-8.459-1.543-18.056.538-25.854,5.008-.478-.491-.955-.985-1.455-1.451a36.121,36.121,0,0,0-10.448-12.586C170.02,2.7,156.872-.034,144.012,1.994c-4.215.664-6.67,2.493-8.023,4.94A21.048,21.048,0,0,0,119.78,5.1a43.226,43.226,0,0,0-14.546-.043c-18.673,2.863-32.189,15.708-39.2,32.606-9,21.68,17.789,35.249,36.155,36.253a27.369,27.369,0,0,0,21.13,8.723,27.468,27.468,0,0,0,18.408,14.221,34.451,34.451,0,0,0,13.366.763c6.632,1.107,13.819-.25,20.378-3.194a30.837,30.837,0,0,0,5.694,4.059c9.933,5.416,18.592,5.5,25.645,2.229a27.609,27.609,0,0,0,10.9,2.95,35.318,35.318,0,0,0,26.489,3.76C259.3,103.48,266.054,88.133,263.27,73.7Z" fill="#ecc547"/><path d="M202.6,268.41c0-9.535-8.895-20.8-19.417-19.417a228.82,228.82,0,0,1-34.108,2.286c-.521-.051-1.043-.094-1.56-.166-15-2.12-29.407-7.371-44.551-9.326-18.682-2.414-27.079,28.685-9.758,36.024,1.543.654,3.1,1.263,4.658,1.857-.013.032-.026.062-.039.092.15.019.3.051.449.073,2.506.946,5.038,1.8,7.585,2.594,7.373,5.106,16.233,8.208,26.19,9.683,10.038,1.485,20.163,1.459,30.209,2.735,9.072,1.154,18.238.908,26.254-4a18.931,18.931,0,0,0,7.177-7.935A17.717,17.717,0,0,0,202.6,268.41Z" fill="#45b4b7"/><path d="M220.7,358.543c-.818-3.2-1.181-6.48-2.267-9.625a16.934,16.934,0,0,0-8.749-9.749,34.245,34.245,0,0,0-4.29-5.209c-11.063-11.016-32.05-9.444-46.126-7.309a252.567,252.567,0,0,1-39.494,2.6,23.612,23.612,0,0,0-3.325.244c-5.726-5.613-15.545-5.769-20.415,2.325a25.154,25.154,0,0,0-1.282,2.444c-2.961-2.16-8.192-1.654-8.8,2.688l-.2,1.4a6,6,0,0,0,1.545,5.371c-.194,1.37-.62,3.525-1.053,5.5-.355,1.256-.664,2.536-.94,3.842A9.825,9.825,0,0,0,88.135,363.2a14.367,14.367,0,0,0,10.238,7.2c6.572,5.978,20.18,3.709,23.884-6.39.709-1.931,1.346-3.874,1.959-5.833.226.017.455.009.682.03a127.832,127.832,0,0,0,21.09-.273c2.412-.235,17.4-1.726,28-2.075.641,8.771,3.639,16.945,7.566,25.337,3.252,6.95,14.8,10.307,21.062,5.521a29.213,29.213,0,0,0,7.7-7.98C218.808,376.4,225.675,367.847,220.7,358.543Z" fill="#00588f"/><path d="M105.166,420.564c-11.954-1.03-24.7,7.211-34.967,12.356-5.2,2.609-4.382,12.054,1.7,13,11.911,1.844,24.53-2.485,35.879-6.048C118.75,436.422,116.049,421.5,105.166,420.564Z" fill="#00588f"/><path d="M236.02,450.331c-1.393-7.457-9.625-9.668-15.921-11.665-5.012-1.59-12.668-3.051-17.958-2.432-4.53.53-6.884,4.419-4.959,8.642,2.245,4.927,8.05,7.717,12.5,10.4,2.6,1.566,5.818,2.442,8.525,3.889,4.014,2.147,6.689,3.515,11.428,2.406C234.781,460.368,236.9,455.069,236.02,450.331Z" fill="#00588f"/><path d="M246.65,452.679c-.064-8.2-7.717-12.059-14.36-14.644a80.091,80.091,0,0,0-13.757-3.707c-4.405-.855-8.153-.517-12.595-.263-1.981.115-3.824-.058-5.79.214a1.392,1.392,0,0,0,.032-.545c-.124-1.228-.128-2.48-.177-3.709-.22-5.437-.192-10.884-.147-16.325.071-9,2.111-18.255.562-27.2a44.417,44.417,0,0,1,5.258-.374c7.721-.011,13.64-3.275,15.182-11.183,1.739-8.922-2.453-17.691-1.619-26.491.329-3.519.532-7.049.585-10.58a2.257,2.257,0,0,0,1.278-3.025c-.135-.38-.252-.761-.374-1.139a2.393,2.393,0,0,0,.756-2.745l-1.248-3.26a2.277,2.277,0,0,0-1.2-1.316c-.333-2.1-.583-4.215-.812-6.335a150.676,150.676,0,0,0-2.82-17.056c-2.333-10.354-5.209-20.594-7.863-30.877,6.252-5.762,14.12-9.275,21.472-13.49a2.64,2.64,0,0,0,.917,3.686c2.331,1.333,2.931,4.435,3.713,6.777,1.107,3.318,3.053,6.489,4.568,9.64,2.95,6.134,6.115,12.392,8.033,18.936,2.991,10.2,6.117,21.195,6.1,32a2.281,2.281,0,0,0-1.709,1.35c-2.863,6.1-7.01,11.469-10.247,17.357a2.532,2.532,0,0,0-.555.8l-1.006,2.25c-1.3,2.914,3.16,4.893,4.51,2.015a103.985,103.985,0,0,1,6.692-11.454,23.746,23.746,0,0,1,.09,6.284c-.075,1.248-.192,2.551-.382,3.846a1.9,1.9,0,0,0-1.088,2.355,2.766,2.766,0,0,1,.237,1.446c-.128.4-.265.786-.419,1.162-1.207,2.94,3.269,4.95,4.508,2.013.158-.374.291-.737.406-1.1a37.805,37.805,0,0,0,1.711-10.7,26.726,26.726,0,0,0-.282-5.786c1.716,3.842,3.587,7.709,4.263,11.73a2.435,2.435,0,0,0-.643,4.132c.652.526.993,1.526,1.752,2.132,1.359,1.094,3.886.41,4.008-1.534.462-7.262-3.032-13.494-5.619-20.019,5.228,3.739,14.15,11.031,12.022,12.768-2.463,2.008.41,6.027,2.876,4.014,8.939-7.292-10.559-20.786-16.191-23.457l-.041-.011c.284-11.967-3.087-23.993-6.38-35.36-2.186-7.553-6-14.755-9.418-21.808a101.988,101.988,0,0,1-4.275-9.959,11.315,11.315,0,0,0-5.215-6.333,2.416,2.416,0,0,0-.993-.323,45.889,45.889,0,0,0,12.313-10.121,2.5,2.5,0,0,0,.1-3.008c-5.606-8.016-13.522-13.646-21.434-19.193a62.565,62.565,0,0,1-11.749-10.668c-3.149-3.628-6.324-7.215-10.257-10.012q3.673-1.708,7.234-3.636c18.883-10.217,35-25.47,42.793-45.806,13.8-1.077,24.4-15.887,25.906-29.172,1.013-8.937-2.318-18.462-10.64-22.726-7.277-3.73-14.875.263-19.806,6.017-.517-1.075-1.049-2.139-1.6-3.181A25.3,25.3,0,0,0,250.2,95.714c2.81-8.407-.017-16.821-8.589-20.1-2.961-1.13-4.989,3.372-2.013,4.508,6.44,2.463,7.914,8.127,5.835,14.345a19.319,19.319,0,0,1-4.121,7.055c-.192-.316-.385-.622-.579-.936l-.735-1.927c-1.141-2.974-5.752-1.207-4.613,1.769.282.729.56,1.461.844,2.192a.046.046,0,0,0-.017.017c.019.03.037.06.058.09.276.72.551,1.438.825,2.16a21.718,21.718,0,0,1-6.5,2.506A22.771,22.771,0,0,1,208.3,100.23a35.422,35.422,0,0,1-3.459-4.843c.2-.417.391-.838.568-1.261,2.128-5.055,4.369-13.674-.305-18.056a9.8,9.8,0,0,0-2.211-1.513,2.478,2.478,0,0,0-2.912.684c-5.128,5.745-3.865,13.4-.7,19.979-.451.808-.874,1.493-1.218,2-6.07,8.976-20.351,5.382-26.2-1.878a15.811,15.811,0,0,1-3.147-6.655c4.7-4.232,9.614-9.61,11.033-15.891,1.023-4.538-3.316-10.328-8.183-8.751-4.848,1.57-6.576,9.715-7.54,13.913a26.177,26.177,0,0,0-.54,8.7c-1.357,1.085-2.728,2.124-4.068,3.113-8.794,6.472-19.851,10.405-30.822,9.935-8.288-.357-17.09-2.173-21.329-10.084a21.4,21.4,0,0,1-2.276-7.318c.883-.011,1.754-.021,2.6-.034,9.1-.109,18.6-1.592,26.846-5.587,7.155-3.463,14.281-10.253,13.48-18.8-.72-7.7-8.974-14.911-16.14-16.657-8.151-1.989-15.116,2.643-20.72,8.1-6.929,6.758-11.187,17.827-11.251,28.279-3.429-.047-6.839-.19-10.178-.4C79.1,76.564,67.748,73.555,61.723,64.165a16.267,16.267,0,0,1-2.19-5.427c.564-.5,1.143-.97,1.722-1.451,0-.477.021-.959.06-1.438,1.205,1.472,4.446.617,4.463-1.942a3.8,3.8,0,0,0-3.036-4.074,4.927,4.927,0,0,0-3.386.887,34.054,34.054,0,0,1,1.438-6.113c4.4-13.249,15.054-25.47,26.7-32.952C103.191,1.565,131.253,3,139.135,22.345c1.2,2.946,5.814,1.186,4.611-1.769-7.093-17.406-27.339-22.214-44.314-18.8C85.255,4.63,74.064,14.58,65.546,25.816,59.38,33.94,53.837,44.537,54.192,55a24.694,24.694,0,0,0-4.912,6.42,2.491,2.491,0,0,0-.25.912A114.289,114.289,0,0,0,37.709,78.331a24.9,24.9,0,0,0-2.271-6.179C30.107,62.9,19.3,69.244,13.777,74.611,6.853,81.341-.618,92.551.964,102.694c.812,5.19,6.7,8.715,11.32,9.96a28.489,28.489,0,0,0,11.076.748,85.6,85.6,0,0,0-1.177,24.662c1.765,17.693,10.065,33.9,22.476,46.472C56.07,196.1,71.308,204.3,86.772,209.69c-1.323,1.4-3.173,2.485-4.487,3.8a75.769,75.769,0,0,0-6.7,7.925C71.545,226.7,67.445,232,63.7,237.49c-3.421,5.01-6.232,10.486-10.046,15.2-3.564,4.412-6.754,8.956-8.241,14.5a2.456,2.456,0,0,0,1.436,2.624c4.989,2.226,9.954,4.378,14.809,6.771a2.443,2.443,0,0,0-.656.893c-4.38,9.809-8.719,19.633-12.383,29.734-3.049,8.407-5.012,17.349-8.341,25.641-4.128,4.436-8.495,8.642-12.736,12.969a13.221,13.221,0,0,0-4.743,5.158c-1.4,2.568,2.359,4.519,4.158,2.577,1.209-1.307,2.44-2.587,3.681-3.861.021-.013.043-.024.064-.034a2.458,2.458,0,0,0,1.267-1.325c2.327-2.359,4.681-4.688,7.01-7.044.425,2.63-1.305,7.412-1.752,9.2-.857,3.478-2.143,6.969-2.6,10.531a2.479,2.479,0,0,0,4.694,1.38l1.006-2.256a2.233,2.233,0,0,0-.1-2.16c.756-3.158,1.81-6.286,2.521-9.414a47.3,47.3,0,0,0,.976-4.92c2.406,5.5,3.371,11.576,4.679,17.407a2.481,2.481,0,0,0,4.9.1c.47-1.97-.192-3.8-.883-5.643a2.661,2.661,0,0,0-.284-.545,63.758,63.758,0,0,0-4.083-13.721,29.743,29.743,0,0,1,6.835,7.452c1.752,2.673,5.754-.229,4.012-2.88A32.869,32.869,0,0,0,48.2,335.44a2.538,2.538,0,0,0-.7-.466l-1.128-.5a2.39,2.39,0,0,0-1.35-.2c0-.015.009-.028.009-.045,3.186-8.112,5.186-16.793,8.093-25,3.585-10.123,8.005-19.932,12.377-29.736a2.44,2.44,0,0,0,.207-.818c1.722.921,3.423,1.878,5.106,2.9a35.017,35.017,0,0,0,9.264,4.134c-.885,4.9-1.669,9.817-2.137,14.785-.478,5.063-.16,10.114-.314,15.187-.169,5.655-.639,13.823,5.074,16.765.645,6.318-.949,12.71-.41,19.073.692,8.172,3.1,16.334,1.053,24.5a2.435,2.435,0,0,0,1.434,2.624c4.476,1.617,8.845.754,13.364-.31a31.784,31.784,0,0,1,5.16-.705,2.473,2.473,0,0,0,.1.427c2.482,7.277.2,15.593-.175,23.058-.455,9.063.513,18.041,1.1,27.068-9.461-2.936-19.443-1.464-28.946,1.7-5.335,1.775-15.108,6.587-11.249,13.755,4.343,8.063,15.874,9.018,23.827,7.922,8.653-1.194,18.782-5.628,22.047-14.362a2.536,2.536,0,0,0-1.692-3.329,2.659,2.659,0,0,0,1.145-2.329c-.511-10.525-1.961-20.97-1.235-31.518.508-7.452,2.218-15.323.115-22.662a36.494,36.494,0,0,0,4.852-.564c3.254-.654,6.519-1.6,8.125-4.8,1.848-3.683,1.624-7.884,1.763-11.894.128-3.662.442-6.811,4.128-8.294,3.628-1.457,8.093-1.28,11.922-1.141,7.072.259,14.054,1.269,21.143,1.31,4.4.019,9.078-.077,13.212,1.626,4.183,1.726,3.7,6.4,3.852,10.138.286,6.843.237,15.533,4.963,21.041,2.305,2.686,5.141,3.032,8.493,2.854,1.6-.083,3.177-.267,4.737-.479,1.147,7.038-.41,13.815-.513,20.868-.126,8.582-.267,17.188.231,25.76a2.239,2.239,0,0,0-1.912,1.408c-3.388,7.644-3.69,14.212,2.043,20.857,5.393,6.254,14.518,10.05,22.169,12.64,6.213,2.1,13.4,3.2,19.592.513C243.477,466.442,246.7,459.221,246.65,452.679ZM5.746,101.339c-1.113-7.123,4.67-15.266,8.892-20.423C17.7,77.183,25.31,69.233,30.3,73.54c1.762,1.528,2.427,4.344,2.75,6.532a13.169,13.169,0,0,1,.047,3.478c-.113.981-.641,1.256-.145,1.107-1.906.568-1.929,2.572-.942,3.777a95.238,95.238,0,0,0-7.471,19.744C18,109.5,6.883,108.629,5.746,101.339Zm37.3,236.086a2.257,2.257,0,0,0,.718,1.148,2.848,2.848,0,0,0-.372.186,5.294,5.294,0,0,0-.626-1.224A2.1,2.1,0,0,0,43.043,337.425Zm63.2,96.717a2.267,2.267,0,0,0-.746,1.036c-4.683,12.529-26.371,15.471-35.89,7.527-5.057-4.222,6.538-7.931,9.236-8.773,8.974-2.8,18.468-3.735,27.158.12A1.911,1.911,0,0,0,106.245,434.142ZM217.7,228.2c7.373,5.209,14.952,10.268,20.5,17.458-8.721,9.527-21.915,13.24-31.98,21.19-1.795-7.232-3.44-14.507-5.032-21.793a2.085,2.085,0,0,0-.457-2.083q-1.151-5.291-2.282-10.591a94.038,94.038,0,0,1-1.9-13.014,24,24,0,0,0-1.923-8.452,2.28,2.28,0,0,0-1.327-2.79l-.91-.406c1.1-.434,2.183-.889,3.267-1.348a2.061,2.061,0,0,0,.964,1.786C204.639,213.8,209.647,222.515,217.7,228.2Zm48.626-118.4c5.314,4.566,5.365,13.247,3.948,19.464-2.09,9.17-9.414,18.387-18.614,20.4,2.835-11.661.6-24.113-3.985-35.411C251.921,107.885,259.587,104.008,266.321,109.8ZM202.393,80.454c1.325,2.083.793,5.437-.331,8.676A12.044,12.044,0,0,1,202.393,80.454Zm-29.059-11.8a8.86,8.86,0,0,1,1.463,1.673c.692,1.37-.417,3.339-1,4.54a28.8,28.8,0,0,1-5.414,7.4,33.851,33.851,0,0,1,1.547-7.313C170.5,73.188,171.484,69.586,173.334,68.656ZM121.192,47.53c8.27-4.987,20.167,1.737,21.82,10.89.87,4.835-3.549,9.07-7.051,11.661-4.232,3.128-9.587,4.728-14.672,5.794a90.687,90.687,0,0,1-16.526,1.718,39.822,39.822,0,0,1,1.673-9.943C108.9,59.326,113.678,52.066,121.192,47.53ZM53.867,186.211a73.068,73.068,0,0,1-26.656-47.636,76.761,76.761,0,0,1,1.4-26.416,2.344,2.344,0,0,0,.925-3.724A96.919,96.919,0,0,1,35.2,92.9,127.033,127.033,0,0,1,51.391,67.27c1.318-1.639,2.711-3.209,4.164-4.713.132.387.273.773.427,1.156,6.848,17.1,27.4,18.663,44.1,18.637a29.635,29.635,0,0,0,2.224,8.311c7.149,16.212,29.672,15.919,43.942,11.383a60.271,60.271,0,0,0,18.449-10,25.412,25.412,0,0,0,2.5,5.256c4.467,7.162,14.6,10.856,22.737,10.046,5.126-.509,9.172-3.421,12.1-7.309.54.816,1.094,1.6,1.651,2.333,6.478,8.542,17.06,11.742,27.435,9.935a24.748,24.748,0,0,0,7.766-2.711c.077.2.158.406.235.611a2.235,2.235,0,0,0,2.117,1.528c.329.69.634,1.4.942,2.1-.182.335-.352.669-.515,1a2.394,2.394,0,0,0,2.307,3.395,65.761,65.761,0,0,1,2.235,7.373,50.408,50.408,0,0,1,.017,24.359,17.917,17.917,0,0,1-3.113-.6c-3.049-.878-3.76,4.012-.741,4.884a22.484,22.484,0,0,0,2.333.521c-.323.872-.669,1.735-1.049,2.6-4.9,11.059-13.018,20.626-22.267,28.3-15.293,12.687-35.082,20.419-54.366,24.438a150.755,150.755,0,0,1-59.323.237C88.432,206.594,69.218,198.6,53.867,186.211Zm15.605,88.765c-5.824-3.547-12.336-6.074-18.616-8.8,1.831-4.893,5.485-8.909,8.7-12.956,3.9-4.91,6.724-10.943,10.388-16.094,3.589-5.044,7.418-10.018,11.24-14.9a40.406,40.406,0,0,1,6.551-7.042,17.051,17.051,0,0,0,3.965-3.871c.9.278,1.8.553,2.694.814,1.124.329,2.256.639,3.389.938-9.059,18.6-12.024,38.78-15.338,58.943a2.369,2.369,0,0,0-.267,1.628q-.609,3.689-1.254,7.365C76.743,279.837,72.293,276.694,69.473,274.976Zm32.384-59,1.2.538a2.356,2.356,0,0,0,3.252-1.459,155.139,155.139,0,0,0,41.473,2.7c2.534,5.523-.66,12.747-5.126,16.27-7.551,5.97-12.51-4.683-10.031-11.08,1.141-2.953-3.359-4.98-4.51-2.008-3.752,9.681,2.921,23.408,14.6,18.733,8.2-3.284,12.473-14.039,10.055-22.348a149.22,149.22,0,0,0,36.095-8.258,2.292,2.292,0,0,0,.293,2.25c2.44,3.344,2.438,7.711,2.684,11.683.308,4.961,1.679,9.833,2.718,14.68q.532,2.474,1.075,4.942a4.359,4.359,0,0,0-2.045,1.41,2.3,2.3,0,0,0-.581,1.513c-4.391,2.06-9.984,2.013-14.58,1.865-6.732-.218-13.409-1.387-20.145-1.461-9.644-.1-19.282-.382-28.927-.538-5.444-.09-10.913-.086-16.33-.647-4.572-.481-9.39.135-13.764-1.562-2.957-1.141-4.982,3.361-2.01,4.51,4.44,1.718,9.144,1.6,13.83,1.841,5.273.276,10.522.607,15.815.71,10.943.218,21.912.177,32.847.637,11.234.474,26.965,4.638,37.283-1.948,1.472,6.608,3,13.208,4.621,19.78a2.346,2.346,0,0,0-.673.936c-.932,2.254-.329,3.837,1.874,4.891a2.227,2.227,0,0,0,.282.1c.07.278.141.553.216.831a2.449,2.449,0,0,0-1.156.754c-6.591,7.54-16.312,9.867-25.912,10.681-10.166.857-20.483.171-30.6-.88-12.591-1.305-26.017-2.5-38.062-6.6-3.361-1.152-6.984-1.6-10.45-2.348-2.613-.562-8.042-1.331-9.85-3.955C90.6,253.6,93.254,234.108,101.856,215.975ZM84.77,327.667a5.084,5.084,0,0,1-1.964-3.342c-.756-3.722-.282-7.715-.209-11.486a183.415,183.415,0,0,1,2.429-26.6,11.781,11.781,0,0,0,2.53-.4c3.023-.857,1.321-5.326-1.636-4.636.143-.778.278-1.564.417-2.346,4.923,3.023,12.732,3.628,17.212,4.587,5.792,1.243,11.446,3.045,17.289,4.158,7.476,1.427,15.037,2.348,22.6,3.171,11.411,1.241,23.006,1.938,34.475.966,9.912-.836,19.746-3.818,26.809-10.978,2.254,8.563,4.557,17.12,6.444,25.767,1.389,6.365,1.771,12.96,2.773,19.415a2.023,2.023,0,0,0-.267,3.074c.028.034.053.071.079.1a2.322,2.322,0,0,0-.365,1.594,39.627,39.627,0,0,1-6.929-.491c-4.218-.536-8.352-1-12.6-1.175-11.121-.449-22.269-.912-33.386-1.248-11.275-.342-22.558-.239-33.828.143-11.55.393-23.246,1.38-34.8.949a28.126,28.126,0,0,1-5.162-.4A2.65,2.65,0,0,0,84.77,327.667ZM184.931,379.94c-1.9-3.594-2.149-8.063-2.44-12.04-.517-7.031.647-14.2-6.187-18.411-3.288-2.023-7.773-2.2-11.5-2.357-4.326-.175-8.646-.231-12.971-.44-11.153-.543-31.721-5.382-33.507,10.653-.335,3.006-.154,6.046-.47,9.057-.461,4.4-3.277,5.322-7.277,5.8-3.57.434-7.134.009-10.7.69-3.592.684-7.5,2.207-11.217,1.684,1.239-7.4-.442-14.975-1.331-22.346-.744-6.17.679-12.336.417-18.481a87.559,87.559,0,0,0,11.262.111c6.395-.081,12.776-.583,19.169-.778,12.586-.38,25.177-.713,37.774-.5,12.366.212,24.782.919,37.154,1.34,6.929.237,14.791,2.545,21.885,1.62-.019.876-.06,1.7-.06,2.374-.009,3.636-.338,7.283-.686,10.9-.312,3.213.547,6.666,1,9.841a65.357,65.357,0,0,1,.959,13.717c-.263,3.792-1.688,6.957-5.448,8.294-2.132.76-4.8.594-7.012.478a30.282,30.282,0,0,0-7.245.707C192.461,382.585,187.25,384.324,184.931,379.94Zm40.08,85.543c-6.9-1-13.676-4.4-19.68-7.784a21.574,21.574,0,0,1-9.063-9.213c-1.639-3.327-.348-6.89,1.041-10.074,1.94,1.12,4.97.558,7.837.6,3.91.055,7.474-.69,11.381-.032a82.573,82.573,0,0,1,12.469,3.1c3.621,1.218,8.386,2.931,10.965,5.884,2.35,2.694,2.057,6.869.976,10.012C238.505,465.062,231.6,466.442,225.011,465.483Z" stroke="#000" stroke-miterlimit="10" stroke-width="1.5"/><path d="M210.478,152.259c-4.277,3.185-4.309,8.021-7.606,11.742a39.549,39.549,0,0,1-12.736,9.988c-9.674,4.711-20.56,6.64-31.181,7.7-11.661,1.167-23.617,1.352-35.076-1.367-5.711-1.357-11-4.034-16.327-6.407-2.2-.981-3.132-1.472-4.378-3.444a9.285,9.285,0,0,0-3.927-2.965c-2.85-1.431-4.848,3.085-2.013,4.506,1.919.964,2.412,2.323,3.634,3.955,1.175,1.583,4.237,2.26,5.974,3.036a105.345,105.345,0,0,0,16.293,6.2c11.717,3.066,24.414,2.487,36.36,1.4,11.089-1.017,22.252-3.324,32.4-8.005a39.59,39.59,0,0,0,12.356-8.756c1.286-1.346,3.551-3.192,4.265-4.929,1.023-2.5,1.63-5.068,3.26-7.106a2.237,2.237,0,0,0,1.889-1.406l.5-1.13A2.486,2.486,0,0,0,210.478,152.259Z" stroke="#000" stroke-miterlimit="10" stroke-width="1.5"/><path d="M90.436,131.325a13.527,13.527,0,0,1,.976-3.8c1.239-2.927-3.267-4.946-4.51-2.01a22.666,22.666,0,0,0-1.463,10.17c.109,2.523,3.745,2.891,4.707.737l1.006-2.254A2.26,2.26,0,0,0,90.436,131.325Z" stroke="#000" stroke-miterlimit="10" stroke-width="1.5"/><path d="M176.646,142.164c-.126-2.568-1.4-5.35-.412-7.873,1.162-2.957-3.344-4.983-4.506-2.013a11.3,11.3,0,0,0-.69,5.271,14.613,14.613,0,0,0,.378,3.256,3.454,3.454,0,0,1,.237.882c.006.079.015.16.028.237a2.605,2.605,0,0,0,1.286,4.324C175.5,146.794,176.746,144.318,176.646,142.164Z" stroke="#000" stroke-miterlimit="10" stroke-width="1.5"/></g></g></svg>