<svg xmlns="http://www.w3.org/2000/svg" viewBox="0 0 252.46529 224.30871">
  <title>Recurso 7</title>
  <g id="Capa_2" data-name="Capa 2">
    <g id="Editar">
      <g>
        <g>
          <path d="M189.50993,75.25691a20.02319,20.02319,0,0,1,.42181-2.1865c1.82669-6.9678,9.73639-8.5742,14.51909-3.4775a9.49412,9.49412,0,0,1,.7597.9248,11.53389,11.53389,0,0,1,2.30421,6.3271,17.023,17.023,0,0,1,.27589,3.7549,23.80064,23.80064,0,0,1-.2231,2.4092,16.68828,16.68828,0,0,1,5.8603-1.4668,15.46355,15.46355,0,0,1,2.1602-.0166c.0581-.0108.1142-.0283.1719-.0401,2.5083-.4912,4.5434.4414,6.46381,2.0342a9.87239,9.87239,0,0,1,2.835,3.6758,4.7063,4.7063,0,0,1,.47259,1.3437c.0357.1241.0733.2432.1055.3711.62791,2.6065-.6069,4.6153-1.9624,6.6612-2.53269,3.8183-8.7275,4.4638-12.7412,5.6054a43.269,43.269,0,0,0-8.4224,3.2862,54.1249,54.1249,0,0,1-6.645,3.1963,2.84545,2.84545,0,0,1-1.9839-.0821,3.16911,3.16911,0,0,1-3.5947-3.1914,47.94,47.94,0,0,0-1.2217-8.5781,63.51043,63.51043,0,0,1-.92279-9.0557C188.06653,84.39951,187.50013,78.05481,189.50993,75.25691Z" fill="#dc4654"/>
          <path d="M185.62853,92.65341a70.00179,70.00179,0,0,0,3.5767,10.8682c1.41651,3.1679,3.1533,6.9072,6.3843,8.5097a2.45812,2.45812,0,0,0,3.5991-1.5068c6.019-2.126,12.1543-3.7666,17.9067-6.6582,5.1323-2.5801,11.272-6.498,12.8403-12.4648,1.6314-6.2071-2.1704-10.918-8.289-12.0616-2.8584-.5332-5.7564-1.1152-8.607-.2324a10.93812,10.93812,0,0,0-2.2465,1.0215c.9599-6.3184-1.4473-13.2471-7.4776-16.2227-6.2646-3.0937-14.56879.9815-17.6006,6.9297C182.24133,77.65051,183.77743,85.56551,185.62853,92.65341Zm3.34821-14.5869c.37589-5.2481,5.04439-11.6357,10.97649-11.0645,6.8443.6592,8.9844,8.8399,7.0122,14.3936a1.52719,1.52719,0,0,0,.2027,1.4932c-.2422.2197-.4785.4414-.7085.6601a1.403,1.403,0,0,0,1.8789,2.082c2.042-1.6738,4.126-3.083,6.8877-2.6718a24.61971,24.61971,0,0,1,6.6098,1.957c1.4781.7061,3.3111,1.9834,2.7325,3.8906a11.56028,11.56028,0,0,1-3.3926,5.3574c-3.6924,3.2881-8.3399,5.1309-12.8228,7.0713-3.4321,1.4883-8.226,1.7588-11.728,3.6495a26.37866,26.37866,0,0,1-1.8887-3.3096,55.34515,55.34515,0,0,1-2.8144-7.8262C190.50993,88.76571,188.60123,83.31841,188.97674,78.06651Z" fill="#463131"/>
        </g>
        <g>
          <path d="M238.53923,43.60651a8.87839,8.87839,0,0,1,.5664-.7793,3.59808,3.59808,0,0,1,6.332,1.2989,3.7879,3.7879,0,0,1,.1289.5029,4.99593,4.99593,0,0,1-.25779,2.9043,7.33047,7.33047,0,0,1-.58011,1.5234c-.1528.2891-.3286.5996-.5293.9024a7.25574,7.25574,0,0,1,2.5679.5009,6.74052,6.74052,0,0,1,.8491.3887c.02541.0059.0513.0098.0752.0176a3.23542,3.23542,0,0,1,2.1616,1.9824,4.28029,4.28029,0,0,1,.438,1.961,2.04576,2.04576,0,0,1-.0625.6152c-.0083.0537-.0146.1074-.0268.1641a3.54054,3.54054,0,0,1-1.9908,2.2519c-1.6938,1.0322-4.2412.1494-6.0239-.1377a18.509,18.509,0,0,0-3.9067-.2568,23.84006,23.84006,0,0,1-3.1914.0351,1.234,1.234,0,0,1-.7622-.3974,1.37159,1.37159,0,0,1-.8257-1.9112,20.79575,20.79575,0,0,0,1.0947-3.5879,27.29511,27.29511,0,0,1,1.2998-3.7207C236.297,46.92881,237.23843,44.335,238.53923,43.60651Z" fill="#dc4654"/>
          <path d="M233.82633,49.71881a30.04849,30.04849,0,0,0-.5904,4.917c-.0254,1.501-.03119,3.2862.9414,4.5098a1.06558,1.06558,0,0,0,1.6885.0664,64.76747,64.76747,0,0,0,8.2432.6748c2.4868-.0703,5.6123-.4805,7.32271-2.5322,1.77789-2.1358,1.15239-4.6797-1.038-6.251a7.65449,7.65449,0,0,0-3.33311-1.6689,4.63961,4.63961,0,0,0-1.0678-.0118,6.57672,6.57672,0,0,0,.04291-7.7353c-1.88861-2.3613-5.89351-2.2871-8.17281-.5108C235.24963,43.213,234.402,46.59771,233.82633,49.71881Zm3.9892-5.1074c1.1099-1.9892,4.1123-3.6387,6.334-2.3262,2.5635,1.5147,1.9009,5.1153.1094,6.9307a.66366.66366,0,0,0-.1948.6231c-.1353.0419-.2686.0849-.3995.1279a.60847.60847,0,0,0,.3555,1.1631,3.75147,3.75147,0,0,1,3.1919.2148,10.65221,10.65221,0,0,1,2.2329,1.9795c.4492.5488.9341,1.3867.3584,2.0273a4.99692,4.99692,0,0,1-2.3139,1.4786,19.92863,19.92863,0,0,1-6.3252.4209c-1.6192-.045-3.5489-.8184-5.2691-.7198a11.61757,11.61757,0,0,1-.1338-1.6455,23.92169,23.92169,0,0,1,.3321-3.5849C236.45474,49.087,236.70523,46.60161,237.81553,44.61141Z" fill="#463131"/>
        </g>
        <g>
          <path d="M198.82143,6.82141a8.84924,8.84924,0,0,1-.189-.9453,3.59838,3.59838,0,0,1,5.251-3.7705,3.93059,3.93059,0,0,1,.4556.2451,5.00026,5.00026,0,0,1,1.9594,2.1592,7.32976,7.32976,0,0,1,.7261,1.4599c.1084.3086.2178.6485.3037,1.002a7.23188,7.23188,0,0,1,2.1104-1.5479,6.5808,6.5808,0,0,1,.8613-.3594c.0215-.0156.042-.0312.0635-.0449a3.23882,3.23882,0,0,1,2.92331-.2422,4.27614,4.27614,0,0,1,1.73779,1.0078,2.038,2.038,0,0,1,.4097.4629c.0346.043.0688.083.10251.1309a3.54518,3.54518,0,0,1,.30419,2.9902c-.3896,1.9453-2.7666,3.2178-4.1875,4.333a18.67385,18.67385,0,0,0-2.8384,2.6963,23.6057,23.6057,0,0,1-2.1386,2.3692,1.23331,1.23331,0,0,1-.8091.291,1.37219,1.37219,0,0,1-1.9644-.6904,20.81472,20.81472,0,0,0-1.8935-3.2374,27.30837,27.30837,0,0,1-1.8531-3.4794C199.74083,10.72271,198.47523,8.27251,198.82143,6.82141Z" fill="#dc4654"/>
          <path d="M200.11533,14.43081a30.18489,30.18489,0,0,0,3.2129,3.7675c1.0864,1.0381,2.3941,2.2539,3.9522,2.3672a1.06385,1.06385,0,0,0,1.1948-1.1943,64.58517,64.58517,0,0,0,6.0869-5.5996c1.6358-1.875,3.45361-4.4502,3.106-7.0987-.3633-2.7558-2.6568-4.0195-5.2969-3.4765a7.63892,7.63892,0,0,0-3.4873,1.3164,4.7328,4.7328,0,0,0-.7334.7763,6.57785,6.57785,0,0,0-5.65379-5.2783c-3.01711-.2138-5.67821,2.7803-5.91991,5.6602C196.30093,8.97181,198.213,11.89071,200.11533,14.43081Zm-1.0464-6.3965c-.7089-2.1651.11581-5.4893,2.5865-6.2305,2.852-.8574,5.0478,2.0713,5.1679,4.6201a.66161.66161,0,0,0,.3257.5654c-.062.127-.1201.2549-.1767.3799a.60766.60766,0,0,0,1.0947.5264,3.75055,3.75055,0,0,1,2.3232-2.1973,10.61645,10.61645,0,0,1,2.9688-.2988c.708.042,1.6528.2539,1.7329,1.1123a5.01561,5.01561,0,0,1-.4829,2.7031,19.99281,19.99281,0,0,1-3.98,4.9336c-1.13229,1.1582-3.0102,2.0518-4.1035,3.3819a11.44006,11.44006,0,0,1-1.2993-1.0166,23.94387,23.94387,0,0,1-2.4097-2.6758C201.43474,12.07041,199.77793,10.20031,199.06893,8.03431Z" fill="#463131"/>
        </g>
      </g>
      <g>
        <g>
          <g>
            <path d="M47.253,79.05091c8.8716-3.2168,16.9409-7.4551,23.5074-14.1866a8.88352,8.88352,0,0,0,6.9902-.1621c2.4292-.9199,4.7519-2.1289,7.0825-3.2881a16.72281,16.72281,0,0,0,4.2822-3.2167c1.3091-1.3018,2.58841-2.6329,3.9488-4.0215a5.44023,5.44023,0,0,1,1.5444,1.041,35.34289,35.34289,0,0,0,4.2808,2.9551,21.8725,21.8725,0,0,0,6.54341,2.3584,55.67233,55.67233,0,0,0,15.06789.9697,25.69747,25.69747,0,0,0,5.5947-1.0264c1.7188-.4795,3.42341-1.0049,5.2266-1.5381a4.01322,4.01322,0,0,1,.3642.7666c.66461,2.6309,1.34961,5.2588,1.9473,7.9053a11.916,11.916,0,0,1,.0718,4.6787c-.0269.1553-.1182.3262-.0811.4619.4414,1.5518.127,3.1299.16461,4.6934.03809,1.5732-.00251,3.1504-.06161,4.7226a7.23484,7.23484,0,0,1-.3041,1.7569c-.629,2.1328-1.2911,4.2568-1.9546,6.3779a17.05666,17.05666,0,0,1-3.3086,6.4668c-1.3672,1.542-2.5083,3.2949-3.9439,4.7647a66.613,66.613,0,0,1-5.11519,4.5332,34.22356,34.22356,0,0,1-9.73291,5.5127,53.9222,53.9222,0,0,1-7.0825,2.3964,33.75952,33.75952,0,0,1-7.10359.8536,84.2541,84.2541,0,0,1-13.958-1.0498,30.68992,30.68992,0,0,1-8.707-2.6182,64.66292,64.66292,0,0,1-10.27341-5.9541,26.7141,26.7141,0,0,1-5.0899-4.7832c-.103-.126-.3066-.25-.3052-.3711.02451-1.0322-.66449-1.4941-1.43649-1.9365a1.77323,1.77323,0,0,1-.48781-.6446,72.58359,72.58359,0,0,1-4.0283-6.8818,35.21893,35.21893,0,0,1-2.146-4.8877c-.3281-1.1455-.7353-2.2725-1.0044-3.4326C47.51434,81.27251,47.42934,80.24331,47.253,79.05091Zm47.32571,21.7558c.56929,0,.78659-.0049,1.00439,0a17.79807,17.79807,0,0,0,8.66461-1.914c.47989-.2452,1.02189-.3682,1.51849-.5879,1.2866-.5733,2.5776-1.1367,3.835-1.7696a4.80116,4.80116,0,0,0,1.27151-.999,20.42973,20.42973,0,0,0,1.79049-2.1054,3.99342,3.99342,0,0,0,.6089-4.1202c-.147-.3447-.1836-.7353-.3145-1.0879-.0493-.1328-.25389-.3291-.333-.3076-.1787.0508-.4248.1934-.4658.3467a7.84616,7.84616,0,0,1-2.3887,3.9873,1.5141,1.5141,0,0,0-.3222.3662,5.298,5.298,0,0,1-2.772,2.1553c-1.2529.5205-2.5567.9394-3.7598,1.5557-3.6162,1.8525-7.4526,1.7695-11.3169,1.3574a26.51971,26.51971,0,0,1-3.6489-.8281c-3.0571-.7793-3.0342-.8204-5.7285-2.5645a21.27293,21.27293,0,0,0-3.0557-1.5088,3.67076,3.67076,0,0,0-1.2759-.2051.87329.87329,0,0,0-.8589.6299.77829.77829,0,0,0,.1836.9033,14.55651,14.55651,0,0,0,1.6402,1.3291c1.3105.8682,2.6699,1.6641,3.9819,2.5303a6.53125,6.53125,0,0,0,2.0581.9346c1.0552.2588,2.0977.5664,3.1382.876A19.79415,19.79415,0,0,0,94.57874,100.80671ZM75.81314,77.85851c.0058,0-.21139.0029-.4287,0a2.06663,2.06663,0,0,0-1.66069,3.2998,3.5945,3.5945,0,0,0,1.49419,1.456,2.979,2.979,0,0,0,1.0703.2803,2.29705,2.29705,0,0,0,2.2251-1.3691,3.20227,3.20227,0,0,0-.5362-3.042A2.50686,2.50686,0,0,0,75.81314,77.85851Zm34.0537-3.4053a4.64659,4.64659,0,0,0,.2871,1.2363,1.85865,1.85865,0,0,0,1.8252.8418,1.62718,1.62718,0,0,0,1.6431-1.1074,4.2068,4.2068,0,0,0,.0796-2.4092,1.25313,1.25313,0,0,0-1.3174-.9912c-.2163-.0049-.4365.0606-.6494.0391a1.48341,1.48341,0,0,0-1.6079,1.1035A6.97257,6.97257,0,0,0,109.86684,74.45321Z" fill="#ffd7b6" fill-rule="evenodd"/>
            <path d="M125.52553,41.38581c-.4404-.3916-.8623-.8056-1.3247-1.1679a.79175.79175,0,0,0-1.2754.4716,2.63373,2.63373,0,0,0,.2725,2.0459c1.2021,1.8721,1.9936,3.9737,3.35981,5.7627a20.56112,20.56112,0,0,1,2.53809,4.7266,30.975,30.975,0,0,1,.9365,3.1553,4.572,4.572,0,0,1-3.2075,1.3115,10.42226,10.42226,0,0,0-2.8794.4502,15.0355,15.0355,0,0,1-2.7143.5205,54.56641,54.56641,0,0,1-15.73539-.7354,20.59433,20.59433,0,0,1-7.02591-2.915c-1.3218-.8408-2.5635-1.8057-3.8554-2.7246.5502-1.2314,1.06-2.3613,1.5625-3.4951a5.59366,5.59366,0,0,0,.3383-2.878,2.06109,2.06109,0,0,0-1.18749-1.6367.55713.55713,0,0,0-.81251.2686,2.9674,2.9674,0,0,0-.1748.7832,11.09045,11.09045,0,0,1-2.9184,6.418,61.26055,61.26055,0,0,1-4.6685,4.7763,17.52553,17.52553,0,0,1-5.0019,3.3223q-2.302,1.0341-4.6094,2.0566a8.59346,8.59346,0,0,1-3.7354.7842c-.1606-.4805.1778-.6709.3667-.9014a60.0184,60.0184,0,0,0,6.0581-9.2539,9.72293,9.72293,0,0,0,.7803-2.1279c.2554-.9404.3433-1.9326.6465-2.8555a11.73716,11.73716,0,0,0,.166-4.0449,1.48366,1.48366,0,0,0-.0552-.3203.927.927,0,0,0-.7573-.748c-.3916-.0391-.74219.2949-.84719.8183a2.76923,2.76923,0,0,0-.059.4854,25.06976,25.06976,0,0,1-1.36821,6.1845,7.138,7.138,0,0,1-1.0542,2c-1.64259,2.4287-3.28659,4.8565-5.0024,7.2315a17.03509,17.03509,0,0,1-2.2051,2.3896,64.53309,64.53309,0,0,1-5.9268,5.3428,57.01849,57.01849,0,0,1-12.3608,7.169c-1.1089.4423-2.1939.9472-3.3008,1.3935a7.83148,7.83148,0,0,1-1.1445.2637,7.51009,7.51009,0,0,1-.1133-.874c-.0093-1.5206.022-3.043-.0103-4.5645a8.26711,8.26711,0,0,1,1.084-3.8838,4.21043,4.21043,0,0,1,.8609-.9482.89268.89268,0,0,0,.2016-1.044.96341.96341,0,0,0-1.105-.4775,2.044,2.044,0,0,0-1.30709.9082,9.828,9.828,0,0,0-2.02881,4.7373c-.0967.9717-.1201,1.9512-.1978,2.9238-.0346.4141-.12539.8252-.186,1.2178-.4009-.002-.4819-.1816-.4809-.416q.0336-5.05515.0766-10.1094c.0103-1.0322.0542-2.0635.0947-3.0947a51.31427,51.31427,0,0,1,1.0196-7.749,3.54191,3.54191,0,0,1,.4624-1.1924,22.522,22.522,0,0,0,2.3393-5.001,21.19941,21.19941,0,0,1,1.4883-3.251c.5342-1.0068,1.1685-1.958,1.7769-2.9219a4.731,4.731,0,0,1,.6181-.7509,39.81677,39.81677,0,0,1,4.1758-3.8828,20.03,20.03,0,0,0,3.1553-3.5,22.73464,22.73464,0,0,1,2.56251-2.9131,3.03147,3.03147,0,0,0,1.08639-3.0352c-.0337-.2119-.0962-.416-.146-.624a2.57935,2.57935,0,0,1,1.4737-1.2344,31.88724,31.88724,0,0,1,6.9663-2.2168c2.2441-.4023,4.4931-.7773,6.747-1.1064a21.34148,21.34148,0,0,1,3.4063-.2783c3.041.0507,6.0864.1142,9.1201.3271,1.8877.1309,3.7554.5469,5.6333.8262,4.1333.6152,7.9023,2.2793,11.66991,3.9814a72.88218,72.88218,0,0,1,6.98929,3.8272,26.50076,26.50076,0,0,1,4.9809,4.1845,61.5415,61.5415,0,0,1,5.1123,6.336,7.33906,7.33906,0,0,1,.6822,1.4492Z" fill="#ab6140" fill-rule="evenodd"/>
            <path d="M80.64224,116.82331c1.3071-.1806,2.5117.2647,3.8428.2813a3.96658,3.96658,0,0,0,.104.9541,3.86617,3.86617,0,0,0,.71871,1.4209,11.83232,11.83232,0,0,1,1.42529,1.7607,3.24324,3.24324,0,0,0,5.165.4463,13.7267,13.7267,0,0,0,2.461-3.8564,7.30512,7.30512,0,0,1,.9199-.0938,30.81364,30.81364,0,0,0,6.3154-.6123c.3199-.0605.6358-.1465.9571-.1904a.58485.58485,0,0,1,.6816.5371c.044.5947.0239,1.1943.061,1.7891a2.67683,2.67683,0,0,0,.1841,1.2617,3.3,3.3,0,0,1,.43461,2.1875,24.905,24.905,0,0,0,.76269,7.2627c1.0976,4.54,1.8989,9.1377,2.6665,13.7451a52.57976,52.57976,0,0,0,1.5845,6.3076c.7568,2.5488,1.4712,5.1123,2.2441,7.6553a36.27314,36.27314,0,0,1,1.0025,5.6084,5.13714,5.13714,0,0,1-.0142,1.3008,1.89994,1.89994,0,0,1-1.01709,1.5751,7.08535,7.08535,0,0,1-1.77641.7891q-3.9198.7236-7.87059,1.2959a25.39753,25.39753,0,0,1-6.49071-.3799c-3.0225-.3437-6.0034-.9453-8.9922-1.497a40.08282,40.08282,0,0,1-7.8027-2.2793c-3.1148-1.2627-6.1602-2.6983-9.2529-4.0205-1.2461-.5342-2.5293-.9834-3.8086-1.4395a34.26819,34.26819,0,0,1-4.6358-1.9814,18.4386,18.4386,0,0,0-1.8159-.7071c-.24019-.0967-.4634-.2324-.7661-.3867a14.30207,14.30207,0,0,1,1.2207-2.5322q1.1997-1.9395,2.4365-3.8565c1.707-2.6455,3.4102-5.2939,5.1475-7.9199.6577-.9961,1.4541-1.9014,2.1035-2.9023.8843-1.3643,1.76171-2.7442,2.51271-4.1846,1.30709-2.5059,2.75779-4.9219,4.26459-7.3106a23.15463,23.15463,0,0,0,1.9986-3.7246c.5019-1.2558,1.1845-2.4394,1.77781-3.6611C79.81554,118.59481,80.22134,117.714,80.64224,116.82331Z" fill="#adab00" fill-rule="evenodd"/>
            <path d="M46.81214,20.11921c-1.0049.3242-1.8955.5576-2.7427.9024a3.43557,3.43557,0,0,0-1.3379.8818,35.56159,35.56159,0,0,0-2.4213,3.2598,2.66676,2.66676,0,0,0-.2906,1.4052,16.757,16.757,0,0,0,.2212,1.9297c-1.0996.8506-2.2505,1.666-3.3139,2.5821a11.62162,11.62162,0,0,0-3.2266,4.6308,4.17352,4.17352,0,0,0-.2197,1.4356c-.0303,2.166.499,3.3652,2.9946,3.582a1.78411,1.78411,0,0,1,.3848.1445,5.82739,5.82739,0,0,1-.3204.8555,20.09979,20.09979,0,0,0-2.2407,6.9297,5.49354,5.49354,0,0,0-.1216,1.1318,7.82968,7.82968,0,0,1-.5883,3.3213,13.70278,13.70278,0,0,0-.8785,3.2783,15.99452,15.99452,0,0,1-.997,3.086c-.0684.2041-.0947.4258-.1739.6259a7.70593,7.70593,0,0,0-.6596,3.96,3.36336,3.36336,0,0,1-.2124,1.1104c-.12989.58-.249,1.165-.4116,1.7373a2.28107,2.28107,0,0,1-.4312,1.0244,4.399,4.399,0,0,0-1.0112,1.8291,9.40126,9.40126,0,0,1-1.4527,2.5342c-.6987.8984-1.3271,1.8515-2.0034,2.7685a5.49989,5.49989,0,0,1-2.27879,1.793,1.75428,1.75428,0,0,1-2.48291-.8047,8.6923,8.6923,0,0,1-.7983-1.9522c-.6016-2.3652-1.5303-4.6347-1.9546-7.0546a2.14784,2.14784,0,0,0-3.34619-1.2579,4.36439,4.36439,0,0,0-1.166,1.1163,2.2933,2.2933,0,0,1-2.07231,1.0468c-.9233.0118-1.8481-.0273-2.7695.0069a1.55035,1.55035,0,0,1-1.3721-.7227,2.99567,2.99567,0,0,1-.72309-2.1094c.14449-1.456.34659-2.9072.48529-4.3632a13.35227,13.35227,0,0,1,1.57671-4.2442c.63329-1.3808,1.33249-2.7344,2.06049-4.0683a8.29538,8.29538,0,0,1,1.1568-1.5645c.7641-.8467,1.58-1.6465,2.3754-2.4629,1.0332-1.0625.7544-2.1474-.6333-2.5517a26.75359,26.75359,0,0,1-6.624-3.0391,9.44913,9.44913,0,0,1-2.375-2.208,5.71273,5.71273,0,0,1-1.3838-4.0547c.0845-1.4082.0337-2.8262.0127-4.2393A3.31736,3.31736,0,0,1,3.609,30.17a2.95031,2.95031,0,0,0,.456-.8603,13.65482,13.65482,0,0,1,3.1524-4.7022c.8535-.9824,1.7397-1.9385,2.6264-2.8926a10.0494,10.0494,0,0,1,1.0611-1.0078,28.10751,28.10751,0,0,1,5.4297-3.5771q2.8638-1.36965,5.74411-2.7071a12.83985,12.83985,0,0,1,5.22659-1.0761c2.3369-.0401,4.6753.0107,7.0132-.0186a12.99971,12.99971,0,0,1,3.1889.6006,23.12123,23.12123,0,0,1,7.4175,3.2295,8.56454,8.56454,0,0,1,1.3457,1.165A1.87025,1.87025,0,0,1,46.81214,20.11921Z" fill="#ab6140" fill-rule="evenodd"/>
            <path d="M50.33554,10.93081a5.35708,5.35708,0,0,1,2.5791.5693,4.37654,4.37654,0,0,1,1.3316,1.1553c.728.8046,1.373,1.6826,2.1094,2.4795a4.515,4.515,0,0,1,1.32911,3.0615c.02189,1.414.00489,2.8271.00489,4.3388a5.3932,5.3932,0,0,0-.56989.4346,1.75282,1.75282,0,0,0,.14209,2.6885c.3872.2881.8521.4668,1.2632.7256.3101.1963.5908.4394.8936.6699a5.876,5.876,0,0,1-.5015.916q-1.864,2.25735-3.7656,4.4834a7.55217,7.55217,0,0,1-.7134.6641c-1.1289,1.0185-2.271,2.0224-3.3843,3.0586a13.21455,13.21455,0,0,0-2.6802,3.2519,13.80182,13.80182,0,0,1-1.6142,2.0332c-.3501.416-.7315.8047-1.0972,1.2051a9.07063,9.07063,0,0,0-2.1782,4.8203c-.11329.6983-.2974,1.3838-.4038,2.0811a1.31206,1.31206,0,0,1-1.1577,1.2031,12.75315,12.75315,0,0,1-4.0777.0986c-.0219-.1777-.105-.3623-.0454-.4619a1.68437,1.68437,0,0,0-.4311-2.4043,5.39913,5.39913,0,0,1,.5459-2.5996c.5708-1.2305,1.1787-2.4463,1.7739-3.666a1.52184,1.52184,0,0,1,1.66061-1.0322c.918.1289,1.40479-.4522,1.81249-1.1289a1.36358,1.36358,0,0,0-1.1801-2.1807,7.5338,7.5338,0,0,0-1.7486.292,8.67036,8.67036,0,0,1-3.3867.1924.6237.6237,0,0,1-.58109-.7989A8.34633,8.34633,0,0,1,36.898,35.586a12.373,12.373,0,0,1,4.26471-4.1826,3.52327,3.52327,0,0,1,1.24019-.3525c.3721-.0674.75981-.0371,1.1353-.0909a1.82965,1.82965,0,0,0,1.6064-2.0712,1.36581,1.36581,0,0,0-.83689-1.127c-.34181-.1514-.72361-.2295-1.04691-.4121a.78047.78047,0,0,1-.2739-1.1309,18.877,18.877,0,0,1,1.5347-2.1025,3.03931,3.03931,0,0,1,2.3647-.9102c1.1953-.0048,2.3936.0108,3.5899.0039a6.08581,6.08581,0,0,0,1.2959-.0927,1.67764,1.67764,0,0,0,1.3774-1.2412,1.54416,1.54416,0,0,0-.5835-1.5899,10.82792,10.82792,0,0,1-1.21729-1.3047,6.53854,6.53854,0,0,1-1.41551-4.5605c.0469-.9199.0669-1.8418.1353-2.7608A2.85273,2.85273,0,0,1,50.33554,10.93081Z" fill="#adab00" fill-rule="evenodd"/>
            <path d="M136.83074,71.83991a6.49861,6.49861,0,0,1-.08691-.9883c.1977-2.707-.5665-5.2666-1.1734-7.8515-.1709-.7324-.3711-1.46-.55469-2.1817a3.26108,3.26108,0,0,1,.37009-.3876c.7305-.5225.9385-.8897.4805-1.4102a2.30791,2.30791,0,0,1-.1318-2.7344,5.77663,5.77663,0,0,1,5.3974-3.2324,2.76075,2.76075,0,0,1,2.3975,1.6602,9.79437,9.79437,0,0,1,.876,4.2607c-.0069,1.5186-.0152,3.0381.0019,4.5576a8.87419,8.87419,0,0,1-2.478,6.0195,11.64986,11.64986,0,0,1-1.97459,1.6905A3.66048,3.66048,0,0,1,136.83074,71.83991Z" fill="#ffd7b6" fill-rule="evenodd"/>
            <path d="M51.97424,98.71491a51.36822,51.36822,0,0,1-6.0263-.1191,10.52615,10.52615,0,0,1-4.3999-1.5899,5.79191,5.79191,0,0,1-2.648-3.371,2.9988,2.9988,0,0,1,.3501-2.6436,3.93051,3.93051,0,0,0,.2715-.4063c.8174-1.5859,2.1684-2.3076,4.7368-1.2998.4531.1788.8726.4512,1.3325.5977a1.91279,1.91279,0,0,1,1.1499.8359,2.02843,2.02843,0,0,0,1.603,1.0733c1.27691,2.2461,2.50591,4.4062,3.7286,6.5693C52.09094,98.39271,52.048,98.45611,51.97424,98.71491Z" fill="#ffd7b6" fill-rule="evenodd"/>
            <path d="M91.88194,214.254a15.17887,15.17887,0,0,1,2.9395.9678c1.86031.8857,3.7251,1.7617,5.61131,2.5918a5.84866,5.84866,0,0,1,2.49609,2.0205c.4346.6191.1621,1.2343-.5996,1.2666-1.3003.0527-2.6064.0459-3.9058-.0069a2.51231,2.51231,0,0,1-1.2143-.417,10.35866,10.35866,0,0,1-3.4605-3.1416C93.17054,216.55581,92.62314,215.55971,91.88194,214.254Z" fill="#32c4a4" fill-rule="evenodd"/>
            <path d="M28.64124,163.80281a9.399,9.399,0,0,1,.27151,1.4365c.02439,1.625.03949,3.253-.00781,4.877a9.23633,9.23633,0,0,1-.8511,3.4482c-.6328,1.4336-1.2305,2.8829-1.8545,4.3184-.0293.0674-.1782.0811-.353.1533a7.54789,7.54789,0,0,1-.6275-3.7383c.0938-1.5644.33991-3.1201.586-4.6709a11.22967,11.22967,0,0,1,.5737-1.8545c.2124-.6113.4541-1.2119.6851-1.8173A4.06067,4.06067,0,0,1,28.64124,163.80281Z" fill="#32c4a4" fill-rule="evenodd"/>
            <path d="M86.93424,117.55181c1.6421-.289,3.042.2354,4.5742.2266a4.99221,4.99221,0,0,1-1.3472,2.2168.92616.92616,0,0,1-1.51749-.1045C88.10614,119.171,87.58264,118.44151,86.93424,117.55181Z" fill="#fff" fill-rule="evenodd"/>
            <path d="M126.45274,42.12121c-.69671.0986-.73041.0722-.92671-.7354l.0254-.0234c.1465.1279.291.2568.4399.3818.14941.127.3027.2491.4497.377C126.43423,42.12311,126.45274,42.12121,126.45274,42.12121Z" fill="#e7a915" fill-rule="evenodd"/>
            <path d="M126.41074,43.12221c.35309-.0127.42439.2285.45709.5058l.0415-.0351c-.3921.0468-.3443-.3067-.4605-.5088Z" fill="#e7a915" fill-rule="evenodd"/>
            <path d="M126.44883,43.08411a.65423.65423,0,0,1-.0009-.961c.00481-.0019-.0137,0-.0069-.0019q-.00735.49365-.0268.998Z" fill="#e7a915" fill-rule="evenodd"/>
            <path d="M126.86783,43.628a2.12436,2.12436,0,0,1,.2046.208c.0112.0137-.0411.0762-.065.1172-.03369-.1201-.0669-.2383-.0996-.3594Z" fill="#e7a915" fill-rule="evenodd"/>
            <path d="M128.776,73.21491c-3.46629-2.332-8.7959-1.9238-12.0762.5157-3.89109,2.8916-4.9277,7.3671-4.0278,11.9785a8.8322,8.8322,0,0,0,8.9643,7.0293,13.33822,13.33822,0,0,0,9.813-5.6504,6.328,6.328,0,0,0,1.1621-3.8672A9.16707,9.16707,0,0,0,128.776,73.21491Z" fill="#e4a98b" fill-rule="evenodd"/>
            <path d="M73.56064,82.75991c-4.3247-2.5333-9.8193-.4747-13.9145,1.6005-5.333,2.7012-6.6065,9.6455-1.40039,13.2452a7.93622,7.93622,0,0,0,1.627.8613,7.11543,7.11543,0,0,0,1.226.9892c3.97949,2.4707,9.562,1.4971,13.02009-1.4277C78.46544,94.35461,78.735,85.79011,73.56064,82.75991Z" fill="#e4a98b" fill-rule="evenodd"/>
          </g>
          <g>
            <path d="M160.46053,117.52651a3.73077,3.73077,0,0,0-1.1665-.3233c-.7036-.0889-1.4086-.1689-2.1118-.2461-.646-.0732-1.292-.1445-1.93649-.2246l-.12651-.0127c-.1757-.0156-.2739-.0283-.3339-.0976.0615-.0362.1235-.0733.184-.1104a4.35538,4.35538,0,0,1,1.7188-.7217,2.2507,2.2507,0,0,0,1.63961-1.0615,1.64986,1.64986,0,0,0-.13771-1.9687,1.39155,1.39155,0,0,0-1.0664-.5186,1.41125,1.41125,0,0,0-.5654.1201c-.9453.4004-1.87549.835-2.8071,1.2695l-.815.3809a8.74659,8.74659,0,0,1-1.44039.5684l-.02541-.0703a.963.963,0,0,1-.0898-.3223c.0254-.6504-.0069-1.3057-.0381-1.9395a11.86054,11.86054,0,0,1,.1548-3.3632,1.495,1.495,0,0,0-.8252-1.6407,1.38029,1.38029,0,0,0-.6748-.1855,1.58782,1.58782,0,0,0-1.104.5195,2.5226,2.5226,0,0,0-.8423,1.9151c.00681.6962-.01519,1.3935-.03619,2.0898-.01951.6025-.038,1.2041-.038,1.8057a6.80581,6.80581,0,0,1-.39551,2.58,3.79491,3.79491,0,0,1-1.2247,1.8623l-.9077.6748c-1.1567.8604-2.3515,1.75-3.5918,2.5059a15.80288,15.80288,0,0,1-5.8794,2.458,30.28692,30.28692,0,0,1-4.2104.3057,24.90535,24.90535,0,0,1-5.2603-.5489c-.4008-.0878-.7964-.1923-1.1938-.2988-.33639-.0898-.6719-.1777-1.0103-.2578a38.26855,38.26855,0,0,1-9.7446-3.8594c-.9834-.5381-1.9321-1.1914-2.8511-1.8203l-.2763-.1904c-.5733-.3926-1.1245-.8115-1.691-1.2451q-.2541-.192-.5127-.3887a6.59942,6.59942,0,0,1,1.2017-.5352,35.981,35.981,0,0,0,10.542-5.916q.5976-.49365,1.2022-.9804a44.94733,44.94733,0,0,0,3.999-3.5088,59.36157,59.36157,0,0,0,6.0664-7.5127,9.70747,9.70747,0,0,0,1.5224-3.5059l.1324-.584c.5322-2.3613,1.082-4.8047,1.7754-7.1562a26.22033,26.22033,0,0,0,1.32911-9.71.5349.5349,0,0,1-.002-.0976l.13279-.7285c.0195-.004.0381-.0088.0567-.0127a1.12042,1.12042,0,0,1,.2402-.0372h.00831a6.69154,6.69154,0,0,0,.69139.0381,6.56675,6.56675,0,0,0,4.5498-1.9511c.1641-.1514.334-.295.5029-.4405l.355-.3037a13.09012,13.09012,0,0,0,3.4693-5.5947,6.88473,6.88473,0,0,0,.3491-2.1641c.0254-1.2207.021-2.4433.0166-3.664-.0034-.8467-.0069-1.6924,0-2.5391a11.19018,11.19018,0,0,0-1.4268-5.2559,4.51679,4.51679,0,0,0-1.0366-1.3642,6.04909,6.04909,0,0,0-4.0396-1.5166,7.54059,7.54059,0,0,0-2.1884.3408,8.28839,8.28839,0,0,0-4.939,3.8301c-.13869.2441-.29.4785-.4624.748l-.0151.0244a9.45934,9.45934,0,0,1-.9649-3.2695,25.79579,25.79579,0,0,0-2.122-8.418,42.26113,42.26113,0,0,0-7.1207-10.5556,33.25945,33.25945,0,0,0-9.0415-7.2744,66.5338,66.5338,0,0,0-10.34809-4.8399,41.86407,41.86407,0,0,0-5.64451-1.6894A55.48914,55.48914,0,0,0,87.80674,17.711c-.60451-.0068-1.20891-.0185-1.81251-.0302-.9067-.0176-1.8129-.0352-2.7172-.0352a37.51407,37.51407,0,0,0-4.626.2412c-2.6079.3203-5.21729.792-7.74029,1.2461a32.095,32.095,0,0,0-7.15131,2.3809,4.28665,4.28665,0,0,0-2.63969,2.5351c-.02291-.0039-.04291-.0088-.06491-.0137a1.16722,1.16722,0,0,1-.4136-.1269.61985.61985,0,0,1-.12249-.3652c-.022-.461-.01521-.9248-.01031-1.3877l.0195-1.6094c.01081-.792.023-1.584.0161-2.375a7.58911,7.58911,0,0,0-2.1357-5.1729c-.5747-.6386-1.1387-1.334-1.72459-2.1279a6.00718,6.00718,0,0,0-3.50781-2.5234c-.28319-.0655-.5625-.1524-.8399-.2383-.2934-.0899-.5849-.1787-.88229-.249a4.07077,4.07077,0,0,0-.92531-.1094,3.40841,3.40841,0,0,0-3.20069,2.2402,4.89638,4.89638,0,0,0-.34521,1.4981c-.0439.624-.0522,1.2519-.06,1.8779-.003.3018-.0074.6025-.0142.9053-.0059.207-.0205.416-.0337.622l-.0034.0411-.061.0048a4.42035,4.42035,0,0,1-.6719-.3681,25.87143,25.87143,0,0,0-8.8633-3.7989,12.76681,12.76681,0,0,0-2.6216-.3847q-1.9314-.03525-3.8613-.0342c-1.2715,0-2.544.0107-3.81639.0244a14.79266,14.79266,0,0,0-5.66311,1.0967,70.56944,70.56944,0,0,0-7.5161,3.585,23.82239,23.82239,0,0,0-7.4859,6.1025,9.18179,9.18179,0,0,1-.6777.7578l-.2944.3076a16.83829,16.83829,0,0,0-4.0166,5.8067,4.3592,4.3592,0,0,1-.4121.7949c-.0918.1504-.18409.3027-.26709.458a5.1105,5.1105,0,0,0-.64261,2.4609c.0122,1.4453.0088,2.8916.0068,4.3379l-.0024,1.3711a6.436,6.436,0,0,0,.7197,2.9375,12.93232,12.93232,0,0,0,5.7642,5.7901c.852.4365,1.7095.8623,2.6006,1.3046l.959.4756s-.379.4844-.5191.668c-.165.2207-.3369.4346-.5093.6494a11.60777,11.60777,0,0,0-1.1445,1.6045c-.8501,1.5313-1.6655,3.1523-2.4282,4.8193-.1187.2608-.2437.5196-.3706.7784a9.92836,9.92836,0,0,0-1.1587,3.416c-.06689.7363-.1797,1.4844-.2886,2.208-.0737.499-.1489.9971-.2114,1.498a12.97917,12.97917,0,0,0-.0957,1.6592,6.42572,6.42572,0,0,0,2.3716,4.8779,3.383,3.383,0,0,0,2.27.8438l2.11721.0068c.49309,0,.98679-.0029,1.479-.0136a4.967,4.967,0,0,0,3.45749-1.2774.80055.80055,0,0,1,.2168-.126l.4023,1.3789c.3955,1.3633.7827,2.6993,1.2075,4.0254a14.42506,14.42506,0,0,0,1.0835,2.5967,4.75788,4.75788,0,0,0,4.2232,2.5869,5.619,5.619,0,0,0,2.4121-.5683,9.83634,9.83634,0,0,0,4.01611-3.6817c.30669-.4638.63579-.9131.96529-1.3633a14.04112,14.04112,0,0,0,2.2168-3.8164.86757.86757,0,0,1,.19291-.2558,1.52214,1.52214,0,0,0,.27249-.3584c.1064-.211.2246-.416.3432-.6221a4.69681,4.69681,0,0,0,.7329-1.8223,15.48994,15.48994,0,0,1,.4395-2.0273,6.35874,6.35874,0,0,0,.2344-2.3486,2.18183,2.18183,0,0,1,.01951-.8506c.26609-.8457.54689-1.6885.82859-2.5303.2339-.7012.4683-1.4014.6939-2.1055a8.08586,8.08586,0,0,0,.3213-1.4677,8.45818,8.45818,0,0,1,.7626-2.3955c.273.0048.5362.0078.793.0097.6655.0069,1.2935.0137,1.9092.0713.0928.0088.1875.0127.2822.0127a6.62037,6.62037,0,0,0,.97221-.0957,6.10008,6.10008,0,0,1,.90229-.0898,2.33468,2.33468,0,0,1,.5249.0566l.0049.0361a.99776.99776,0,0,1,.0225.2549c-.05859.4424-.1231.8867-.1861,1.3301-.0991.6875-.1982,1.375-.2773,2.0644l-.1069.8868a29.71721,29.71721,0,0,0-.28029,3.1924c-.06791,4.082-.07471,8.2324-.08151,12.2451l-.00049.6328a13.756,13.756,0,0,0,.17569,2.4804c.13431.7325.2569,1.4659.3794,2.2002a50.8754,50.8754,0,0,0,1.2876,6.1231,3.157,3.157,0,0,1,.09431.5947c.00139.0215.00389.0449.00579.0664l-.3901.0049c-.1133,0-.2212-.0039-.3306-.0088-.1323-.0088-.2636-.0117-.393-.0117a4.92121,4.92121,0,0,0-4.0869,2.0312c-.1758.2286-.3379.4678-.5015.7061-.1426.21-.2866.4199-.4385.6231a5.413,5.413,0,0,0-.8931,4.3896,6.3274,6.3274,0,0,0,1.9424,3.8574,8.75413,8.75413,0,0,1,.6577.6865,4.55208,4.55208,0,0,0,1.5757,1.3008l.3697.1592c1.1059.4756,2.25041.9668,3.4052,1.3838a10.88223,10.88223,0,0,0,3.7481.5146h.20211q1.31039-.0072,2.61769-.0058l3.5669.001c.1269.1377.251.2695.3701.3955.2935.3115.5674.6006.81931.9072a29.378,29.378,0,0,0,5.18509,4.7861,62.28294,62.28294,0,0,0,7.94191,4.8741,36.16446,36.16446,0,0,0,6.76369,2.9316c.4004.1201.7978.25,1.2358.3945l.3262.1065c-.1216.1465-.2393.292-.353.4345a13.72861,13.72861,0,0,1-1.1548,1.3135,7.73465,7.73465,0,0,1-4.4761,2.4551c-.7295.081-1.4644.2119-2.1729.3379-.7626.1367-1.5507.2773-2.3276.3535a19.97372,19.97372,0,0,1-2.0078.1104,11.23664,11.23664,0,0,1-2.7622-.3155c-1.7866-.4502-3.7178-.8662-5.9028-1.2754a17.91979,17.91979,0,0,1-3.5621-.9287,18.49961,18.49961,0,0,0-2.353-.7441c-.7012-.1807-1.4043-.3487-2.10839-.5176-1.07321-.2568-2.18161-.5225-3.25631-.8281a14.34461,14.34461,0,0,0-2.9199-.5938,4.5683,4.5683,0,0,1-.6207-.1015c-.061-.0127-.1235-.0254-.1875-.0391a2.65978,2.65978,0,0,0-1.4174-1.7383l-.2061-.8887c-.1655-.7021-.3179-1.3466-.4448-1.996-.0962-.4952-.1519-1.0147-.208-1.5157l-.042-.3916c-.0274-.2402-.0474-.4814-.0669-.7236-.0298-.3555-.0586-.7119-.1108-1.0654a2.06053,2.06053,0,0,0-.87359-1.376,1.4341,1.4341,0,0,0-.85691-.3281,1.11514,1.11514,0,0,0-.4688.1045,1.0551,1.0551,0,0,0-.57029,1.2343,2.67513,2.67513,0,0,0,.06149.3047,1.52117,1.52117,0,0,1,.0567.3125c.0576,1.2461.103,2.4922.1431,3.7383a.9595.9595,0,0,1-.0401.2344,1.142,1.142,0,0,1-.1899.0156,1.461,1.461,0,0,1-.7339-.2256l-.2715-.1572c-.2402-.1406-.4805-.2813-.7236-.4131a2.21474,2.21474,0,0,0-1.0689-.2725,2.78889,2.78889,0,0,0-.87839.1524,1.16729,1.16729,0,0,0-.78371.8008,1.15306,1.15306,0,0,0,.3008,1.082,1.61407,1.61407,0,0,0,.394.3545l.5508.3232c.6485.3809,1.3189.7764,2.0069,1.1143a4.77938,4.77938,0,0,1,1.4921,1.0381c-.082-.002-.164-.002-.2451-.002-.2695,0-.5361.0088-.79979.0166-.25341.0078-.50541.0156-.75391.0156a5.15373,5.15373,0,0,1-1.7993-.2646,6.57024,6.57024,0,0,0-2.0562-.2861l-.30759-.0108a1.344,1.344,0,0,0-1.21771,1.1573,1.19262,1.19262,0,0,0,.6274,1.208,4.359,4.359,0,0,0,.9502.3916c.1943.0615.39311.1093.5918.1591a5.83371,5.83371,0,0,1,.79831.2334,6.14658,6.14658,0,0,0,2.37209.3584l.8188-.0019c1.0694,0,2.1387.0137,3.2085.0488a3.313,3.313,0,0,1,1.169.2334,8.59028,8.59028,0,0,0,2.7632.6475,6.78475,6.78475,0,0,1,1.1025.2187l.2847.0703q1.34175.331,2.67621.6836c.45459.1211.91019.2383,1.36669.3555,1.2032.3086,2.4468.6279,3.7017,1.0449a29.07673,29.07673,0,0,0,3.3989.9805c1.1075.2246,2.2124.4609,3.3174.6982,1.2837.2744,2.5669.5498,3.8545.8047a15.78436,15.78436,0,0,0,2.3013.2354c.22851.0097.4551.0156.6826.0156a29.10784,29.10784,0,0,0,4.9702-.5723l1.0313-.1777a17.17291,17.17291,0,0,0,3.5141-.9141c.2188-.0849.4312-.1875.7056-.3203a1.36848,1.36848,0,0,1-.1192.3584c-.414.7432-.8823,1.5811-1.3964,2.3721-1.76569,2.7099-3.2115,5.1426-4.4195,7.4404a39.4817,39.4817,0,0,1-2.34619,3.8731c-.54541.7998-1.13381,1.5927-1.70361,2.3584-.772,1.038-1.5688,2.1123-2.2749,3.2236q-.95145,1.5-1.9194,2.9902c-2.063,3.1992-4.1978,6.5069-6.0435,9.9239a1.91406,1.91406,0,0,0-.1875,1.7773,2.60366,2.60366,0,0,0,1.62991,1.5859,24.90941,24.90941,0,0,1,3.98389,1.5069q.55816.2505,1.12111.4941c1.20749.5176,2.458.9854,3.668,1.4375.65329.2451,1.30859.4883,1.95849.7422.1142.0439.2309.083.3486.1211a2.15833,2.15833,0,0,1,.9121.4736c-.07419.2491-.148.4981-.22119.7491-.19821.6738-.39751,1.3535-.62941,2.0214-.4634,1.333-.9399,2.6612-1.417,3.9893q-.468,1.30515-.93159,2.6103-.98,2.7672-1.937,5.5401a5.36279,5.36279,0,0,1-2.25981,2.6963,1.47233,1.47233,0,0,1-.832.291,1.57628,1.57628,0,0,1-.84519-.2842c-.72421-.4619-1.483-.8877-2.21681-1.2969-.5328-.2998-1.0674-.5986-1.5914-.9131a12.161,12.161,0,0,1-1.67379-1.2011c-.45361-.3906-.89161-.7998-1.33011-1.209-.58589-.5459-1.1923-1.1123-1.8286-1.626a38.94146,38.94146,0,0,1-6.021-6.0947,30.08594,30.08594,0,0,0-8.1762-7.0488,10.84161,10.84161,0,0,0-5.5122-1.8155,7.74514,7.74514,0,0,0-.9742.0616c-1.1684.1484-2.1811.3691-2.7631,1.5576a1.89026,1.89026,0,0,1-.4224.4843,3.25687,3.25687,0,0,0-.4185.4405l-.2461.3281a8.68755,8.68755,0,0,0-1.0385,1.6084c-.4532,1.002-.8267,2.0537-1.1885,3.0703l-.2139.5986a6.858,6.858,0,0,0-.3174,1.3165c-.2177,1.4531-.4292,2.9072-.61029,4.3652a12.59417,12.59417,0,0,0,.72219,5.7305,3.06711,3.06711,0,0,0,2.955,2.1259c.07181.0039.1411.0059.2105.0059a3.05558,3.05558,0,0,0,2.7798-1.8174,3.97144,3.97144,0,0,0,.1689-.3711s.2827-.6758.4009-.9668c.2519-.6103.5024-1.2197.7812-1.8164a16.07347,16.07347,0,0,0,1.669-7.6885c-.0278-.5898-.0269-1.1816-.0244-1.7783a19.96547,19.96547,0,0,0-.2217-3.6601,8.02524,8.02524,0,0,1,2.4492,1.0488,24.39858,24.39858,0,0,1,5.3638,4.1025c.9707,1.0674,1.8447,2.0332,2.6977,3.042a44.57737,44.57737,0,0,0,4.3077,4.4961l.8745.7822c1.289,1.1524,2.5766,2.3057,3.88571,3.4346a13.62188,13.62188,0,0,0,1.88179,1.3496c.6934.4141,1.396.8086,2.0987,1.2022.7177.4023,1.43451.8047,2.1396,1.2275a4.29025,4.29025,0,0,0,2.2158.6543,4.404,4.404,0,0,0,2.065-.5478,8.5334,8.5334,0,0,0,3.95311-4.2071,28.1669,28.1669,0,0,0,1.14059-3.0859c.4912-1.6192,1.0542-3.2461,1.5987-4.8213.7641-2.2149,1.5556-4.5029,2.166-6.8145a1.987,1.987,0,0,1,.2456-.4843c.0166-.0293.03511-.0577.0522-.086l.6358.2666c.6982.293,1.395.5938,2.0918.8946,1.5249.6591,3.101,1.3408,4.687,1.9199a70.91614,70.91614,0,0,0,13.6797,3.1142l.3921.0577a6.44709,6.44709,0,0,1,2.0717.5224l-.0957,1.0479c-.0786.8613-.1562,1.706-.22749,2.5537-.02881.3418-.04541.6846-.06251,1.0293a15.50821,15.50821,0,0,1-.16649,1.8691,38.6327,38.6327,0,0,0-.52,4.8848c-.08791,2.0625-.27491,4.1152-.42781,5.6748-.1064,1.0859-.2334,2.1689-.3608,3.2549-.1855,1.5879-.3779,3.2295-.5015,4.8535a56.51488,56.51488,0,0,1-1.1328,7.6914,36.23249,36.23249,0,0,0-.8218,4.8516,10.84363,10.84363,0,0,1-.88129,3.6806,3.69842,3.69842,0,0,0,.13719,3.3565,16.68527,16.68527,0,0,0,5.33981,6.8232,7.10272,7.10272,0,0,0,3.69189,1.4981c.6368.0234,1.2745.0322,1.9126.0322.7266,0,1.4517-.0117,2.1773-.0235a3.99265,3.99265,0,0,0,1.1973-.2236,3.86289,3.86289,0,0,0,2.6782-2.9267,3.69017,3.69017,0,0,0-.6846-2.9659,8.67044,8.67044,0,0,0-3.8232-3.1718l-.6421-.2793c-1.208-.5225-2.4575-1.0635-3.6597-1.6465l-.481-.2344a19.78858,19.78858,0,0,0-3.142-1.3213,2.5443,2.5443,0,0,1-.4488-.1963c-.0307-.0156-.06-.0312-.0898-.0459-.0039-.0283-.0093-.0547-.0132-.081a1.20309,1.20309,0,0,1-.0288-.2705,42.30069,42.30069,0,0,1,1.0176-6.7188,47.28849,47.28849,0,0,0,1.0332-7.123c.1972-2.4864.43311-5.0518.70211-7.6231a69.99617,69.99617,0,0,0,.49509-7.3418,19.98056,19.98056,0,0,1,.2588-3.3681,21.899,21.899,0,0,0,.0083-7.2139.73672.73672,0,0,1,.03081-.2109l.00239-.0127c.0059,0,.20561-.0059.20561-.0059a1.07417,1.07417,0,0,1,.17969.0127,13.8345,13.8345,0,0,0,2.4917.208c.5522,0,1.1421-.0254,1.8032-.0771a66.55615,66.55615,0,0,0,8.7119-1.4346,8.14842,8.14842,0,0,0,3.4282-1.7276,4.561,4.561,0,0,0,1.7349-3.5986,24.96871,24.96871,0,0,0-1.0703-7.6406l-.5596-1.8858c-.5776-1.9394-1.1753-3.9414-1.69869-5.9287-.145-.5527-.29641-1.1045-.44781-1.6552-.4155-1.5118-.8447-3.0752-1.1391-4.6426q-.2607-1.3989-.5156-2.7988c-.5342-2.919-1.0874-5.9375-1.7369-8.8838a33.70689,33.70689,0,0,1-1.125-9.7588,3.62314,3.62314,0,0,0-.38959-2.0381,2.6816,2.6816,0,0,1-.26911-.9805c-.0708-.7353-.0913-1.4717-.1132-2.0547.3999.8731.5595.9951,1.6308,1.7295.35451.2422.6948.5186,1.0103.7813a36.61479,36.61479,0,0,0,9.0761,5.2187,42.99227,42.99227,0,0,0,7.1993,2.1778,31.90849,31.90849,0,0,0,4.5283.7539c.52051.0478,1.0854.0693,1.7778.0693.4082,0,.8179-.0068,1.2271-.0146.4048-.0069.8095-.0147,1.2719-.0147h.003a11.73107,11.73107,0,0,0,4.2383-.7217,27.7511,27.7511,0,0,0,6.33741-3.0976l4.21139-3.0244.6474.1318c.6123.125,1.2481.2539,1.8853.375.1846.0342.3696.0752.5537.1172a6.87179,6.87179,0,0,0,1.4815.2187s.4116-.0097.5639-.0097a28.42221,28.42221,0,0,1,4.3472.4433,5.6516,5.6516,0,0,0,.8447.0625c.1734,0,.3477-.0088.52-.0215a2.18883,2.18883,0,0,0,1.9258-1.7353A2.123,2.123,0,0,0,160.46053,117.52651Zm-17.166-62.7022a9.51122,9.51122,0,0,1,.8516,4.1484l-.002.3497c-.0058,1.4042-.0127,2.8085.0025,4.2128a8.61324,8.61324,0,0,1-2.4126,5.8457,11.461,11.461,0,0,1-1.9312,1.6524,3.29,3.29,0,0,1-1.9956.6621h-.00049a4.06114,4.06114,0,0,1-.73821-.0703c-.0069-.0547-.0142-.1104-.022-.1631a2.94754,2.94754,0,0,1-.0425-.5908,22.0619,22.0619,0,0,0-.918-6.8399c-.0879-.3632-.1767-.7265-.2622-1.0898-.1147-.4941-.24309-.9854-.372-1.4736l-.1495-.5791c.0176-.0196.0347-.0401.0508-.0586a1.20259,1.20259,0,0,1,.18361-.1875,1.68213,1.68213,0,0,0,.82669-1.0215.99259.99259,0,0,0-.3008-.7735c-.7173-.8173-.4653-1.5957-.0908-2.456a5.67411,5.67411,0,0,1,4.7036-3.1045,3.66172,3.66172,0,0,1,.4258.0244A2.51977,2.51977,0,0,1,143.29453,54.82431ZM111.901,164.55871a1.64187,1.64187,0,0,1-.876,1.373c-.1406.0703-.28029.1465-.4204.2227a4.655,4.655,0,0,1-1.2857.543c-2.7158.5-5.3603.9365-7.8613,1.2949a10.90418,10.90418,0,0,1-1.54489.1035,26.951,26.951,0,0,1-3.51421-.3125c-.455-.0606-.9101-.1221-1.3657-.1729-2.52-.2871-5.05909-.7627-7.51509-1.2216l-1.45951-.2715a40.00308,40.00308,0,0,1-7.751-2.2657c-1.8779-.7617-3.7632-1.5996-5.5859-2.4101-1.2183-.543-2.437-1.085-3.66259-1.6094-1.15091-.4922-2.34821-.918-3.50441-1.331l-.3198-.1143a33.52349,33.52349,0,0,1-4.6011-1.9648,8.25061,8.25061,0,0,0-1.1953-.4844c-.2163-.0742-.4346-.1494-.646-.2344a4.48005,4.48005,0,0,1-.46239-.2285l-.07371-.0391a13.62092,13.62092,0,0,1,1.1162-2.2744q1.1982-1.935,2.4331-3.8506l.54641-.8457c1.52339-2.3633,3.04679-4.7275,4.59909-7.0732.3164-.4776.6636-.9326,1.0112-1.3897.3701-.4863.7544-.9892,1.0943-1.5146.8569-1.3223,1.7583-2.7354,2.5253-4.2051,1.1319-2.1709,2.4844-4.4883,4.2535-7.292a23.4973,23.4973,0,0,0,2.0195-3.7666c.3306-.8262.75-1.6387,1.1553-2.4248.2085-.4043.4165-.8105.6162-1.2187.2881-.5938.5678-1.1914.85061-1.795l.33979-.7216a4.65025,4.65025,0,0,1,.4785-.0235,10.2362,10.2362,0,0,1,1.5591.1573,13.81778,13.81778,0,0,0,1.3867.1601c.0015.0313.0025.0625.003.0928a2.12134,2.12134,0,0,0,.1025.7002l.0835.2265a3.30391,3.30391,0,0,0,.6968,1.2891,11.67612,11.67612,0,0,1,1.3935,1.7246,3.59484,3.59484,0,0,0,2.9287,1.6318,3.78632,3.78632,0,0,0,2.63091-1.1513,14.06016,14.06016,0,0,0,2.46529-3.8028c.0405-.0058.083-.0107.125-.0166a3.91439,3.91439,0,0,1,.6006-.0546l.4107.0029a31.61857,31.61857,0,0,0,5.96241-.6201c.12149-.0225.24169-.0498.36179-.0762.1928-.043.38721-.085.6357-.1172a.31982.31982,0,0,1,.332.3027c.023.3096.0284.6211.0332.9307.0049.2861.01031.5713.0289.8565.0058.0986.0068.2031.0083.3076a1.934,1.934,0,0,0,.2192,1.0849,3.03167,3.03167,0,0,1,.3896,2.0264,25.19145,25.19145,0,0,0,.7696,7.3379c1.1142,4.6055,1.92671,9.3066,2.664,13.7266a52.58912,52.58912,0,0,0,1.5904,6.3388c.32131,1.0811.6347,2.1641.9477,3.2471.4253,1.4707.8521,2.9433,1.2974,4.4101a28.848,28.848,0,0,1,.86521,4.6094l.12939.959A4.87888,4.87888,0,0,1,111.901,164.55871Zm-24.5-46.8067a5.3885,5.3885,0,0,1,.5688-.0263,12.83131,12.83131,0,0,1,1.7281.1543c.4643.0625.9414.1289,1.4526.1504a4.71587,4.71587,0,0,1-1.1709,1.7783.82386.82386,0,0,1-.5571.2724.75065.75065,0,0,1-.57079-.3457c-.36871-.4931-.72861-.9912-1.12941-1.542Zm7.7754-3.1865c-.4151.0088-.8291.0137-1.2442.0137a87.34509,87.34509,0,0,1-12.6709-1.0596,30.44569,30.44569,0,0,1-8.6338-2.5957,64.38261,64.38261,0,0,1-10.2319-5.9306,26.503,26.503,0,0,1-5.0405-4.7374,1.67229,1.67229,0,0,0-.15239-.1523c-.02781-.0254-.06591-.0605-.08441-.0605-.0054,0-.0088.0029-.0093.0127.0268-1.1583-.7266-1.6875-1.5679-2.169a1.19475,1.19475,0,0,1-.3169-.4199l-.0771-.1319c-.4092-.6845-.836-1.3593-1.2622-2.0341a41.78206,41.78206,0,0,1-2.7525-4.8223c-.2158-.4707-.4458-.9355-.67669-1.4004a20.8739,20.8739,0,0,1-1.45561-3.4512c-.1201-.417-.2505-.833-.38039-1.248-.22171-.709-.45161-1.4414-.62061-2.1709a21.06662,21.06662,0,0,1-.3398-2.1045c-.03759-.2842-.0747-.5781-.1187-.8809,10.0713-3.6728,17.4776-8.1445,23.2798-14.0488a7.77579,7.77579,0,0,0,3.0108.5986,11.30571,11.30571,0,0,0,4.0126-.8271,66.63446,66.63446,0,0,0,6.1607-2.8271l.9443-.4708a16.74375,16.74375,0,0,0,4.3492-3.2656c.9106-.9053,1.8071-1.8252,2.726-2.7685l1.106-1.1309a4.88754,4.88754,0,0,1,1.0971.7568l.2173.1797a35.61651,35.61651,0,0,0,4.3111,2.9766,22.12369,22.12369,0,0,0,6.6201,2.3887,49.47967,49.47967,0,0,0,10.8818,1.0908c1.336,0,2.7285-.0391,4.2569-.1152a26.21522,26.21522,0,0,0,5.6513-1.0352c1.2056-.3369,2.4033-.6953,3.6343-1.0635l1.3936-.416.00921.0156a2.21447,2.21447,0,0,1,.231.5059l.35839,1.4111c.5391,2.1231,1.0972,4.3174,1.5874,6.4863a11.6498,11.6498,0,0,1,.0688,4.5792.98234.98234,0,0,1-.0341.1289.78181.78181,0,0,0-.0406.4462,9.51249,9.51249,0,0,1,.1905,3.1163c-.023.5048-.04639,1.0097-.0347,1.5136.0391,1.6416-.0103,3.2998-.0625,4.7071a6.95679,6.95679,0,0,1-.2944,1.6923c-.628,2.1309-1.2891,4.2539-1.9532,6.375a16.96588,16.96588,0,0,1-3.2539,6.3692c-.5952.6719-1.1543,1.3906-1.6953,2.0859a31.23871,31.23871,0,0,1-2.2412,2.6709,59.63955,59.63955,0,0,1-4.6221,4.1221l-.4736.3935a33.9912,33.9912,0,0,1-9.6602,5.4698l-.291.1133a51.912,51.912,0,0,1-6.7568,2.2734A33.38359,33.38359,0,0,1,95.17644,114.56551Zm-55.7115-23.4277.0777-.1084a2.68531,2.68531,0,0,0,.2095-.3252,2.56961,2.56961,0,0,1,2.41161-1.624,5.616,5.616,0,0,1,2,.4482c.188.0723.37059.1641.55119.2549a5.48314,5.48314,0,0,0,.7984.3467,1.66073,1.66073,0,0,1,1.00441.7226,2.30072,2.30072,0,0,0,1.66649,1.1846l.1494.2627c1.1836,2.081,2.3267,4.0918,3.4648,6.1055-.0048.0156-.0102.0302-.0161.0498-.4233.0019-.8447.0078-1.26559.0136-.50631.0078-1.01121.0147-1.51511.0147a25.78115,25.78115,0,0,1-3.0235-.1455,10.25387,10.25387,0,0,1-4.2915-1.5518,5.52411,5.52411,0,0,1-2.5361-3.2197A2.72168,2.72168,0,0,1,39.46494,91.13781Zm-5.4228-42.5176-.0405.2451a4.10669,4.10669,0,0,0-.083.9405,7.49987,7.49987,0,0,1-.5733,3.2138,14.09891,14.09891,0,0,0-.89259,3.3399,8.42713,8.42713,0,0,1-.623,2.0664c-.126.3213-.25291.6425-.36281.9668-.03219.0976-.0566.1992-.0815.3017a2.0007,2.0007,0,0,1-.0879.3115,8.07982,8.07982,0,0,0-.6753,4.0928,1.75727,1.75727,0,0,1-.1158.6748c-.0341.1133-.0678.2276-.0922.3408l-.0806.3604c-.1006.458-.2012.915-.3276,1.3643l-.0474.1718a1.68769,1.68769,0,0,1-.313.7334,4.40527,4.40527,0,0,0-1.0356,1.8213l-.0396.1084a9.19653,9.19653,0,0,1-1.4141,2.4629c-.4208.541-.8164,1.1016-1.2124,1.6621-.2626.3731-.5258.7461-.7954,1.1123a5.25259,5.25259,0,0,1-2.17279,1.708,2.1689,2.1689,0,0,1-.84821.1983h0a1.4605,1.4605,0,0,1-1.3037-.8877,8.32332,8.32332,0,0,1-.7744-1.8916c-.2383-.9375-.53069-1.8701-.813-2.7735a33.89715,33.89715,0,0,1-1.1372-4.2617,2.223,2.223,0,0,0-2.3012-1.8496,2.58891,2.58891,0,0,0-1.4502.4229,4.50219,4.50219,0,0,0-1.2344,1.1865,2.03254,2.03254,0,0,1-1.8584.9297l-.3687.0029-1.52-.0107c-.2959,0-.5918.0039-.9453.0156a1.28706,1.28706,0,0,1-1.0957-.6192,2.70679,2.70679,0,0,1-.6729-1.9287c.0694-.6914.1504-1.3799.2315-2.0703.0913-.7637.1811-1.5283.2554-2.293a9.60734,9.60734,0,0,1,1.1518-3.3203c.1358-.2802.272-.5605.4014-.8418.5654-1.2334,1.21821-2.5214,2.0517-4.0517a8.00115,8.00115,0,0,1,1.1211-1.5137c.5498-.6094,1.1265-1.1943,1.7032-1.7773l.666-.6787a1.91142,1.91142,0,0,0,.6543-1.7823,1.85369,1.85369,0,0,0-1.3999-1.2011,26.35916,26.35916,0,0,1-6.5611-3.0108A9.06634,9.06634,0,0,1,4.61974,40.463a5.41173,5.41173,0,0,1-1.32711-3.877c.0693-1.1592.0473-2.3379.0263-3.4795l-.0136-.7783a3.08445,3.08445,0,0,1,.5112-2.001,3.2136,3.2136,0,0,0,.4976-.9404,12.2482,12.2482,0,0,1,2.7812-4.2451l.3179-.3633c.8169-.9385,1.6352-1.8252,2.6221-2.8857a9.40334,9.40334,0,0,1,1.0332-.9825,28.353,28.353,0,0,1,5.3779-3.5468c1.9087-.9112,3.8198-1.8184,5.7407-2.7041a12.57786,12.57786,0,0,1,5.1235-1.0518c.7403-.0137,1.48-.0166,2.2207-.0166l3.0499.0068c.58,0,1.1596-.0019,1.8007-.0097a9.0566,9.0566,0,0,1,2.3233.4043c.247.0644.4936.1299.7422.1894a22.9249,22.9249,0,0,1,7.3344,3.1953,8.22373,8.22373,0,0,1,1.3047,1.1289,1.61733,1.61733,0,0,1,.4971,1.4141c-.2544.0811-.50289.1563-.7446.2305-.6538.1992-1.2701.3867-1.8672.6299a3.59453,3.59453,0,0,0-1.4395.956,35.77289,35.77289,0,0,0-2.4385,3.2842,2.76482,2.76482,0,0,0-.3339,1.5488,9.47,9.47,0,0,0,.1396,1.3731c.022.1465.044.2929.0635.4404q-.45044.3471-.9107.6904c-.76459.5762-1.5542,1.1719-2.2963,1.8106a11.8736,11.8736,0,0,0-3.2974,4.7324,4.444,4.444,0,0,0-.2383,1.5273c-.0303,2.1973.4985,3.6065,3.2329,3.8428a.39012.39012,0,0,1,.083.0313l-.0151.0507a3.02938,3.02938,0,0,1-.208.5332A20.30052,20.30052,0,0,0,34.04214,48.62021Zm3.5815-.7432a5.16453,5.16453,0,0,1,.5264-2.3642c.42871-.9238.8784-1.8389,1.32671-2.7529l.44579-.9083c.3066-.625.6684-.9042,1.1733-.9042a1.54013,1.54013,0,0,1,.2173.0156,1.89848,1.89848,0,0,0,2.0703-1.251,1.82853,1.82853,0,0,0,.07231-1.8174,1.57544,1.57544,0,0,0-1.47811-.7588h-.0034a7.6661,7.6661,0,0,0-1.8096.2998,7.68359,7.68359,0,0,1-2.0541.2657,10.27108,10.27108,0,0,1-1.233-.0791.46076.46076,0,0,1-.3374-.1934.30447.30447,0,0,1-.0283-.2666,7.76909,7.76909,0,0,1,.6128-1.4463,12.00736,12.00736,0,0,1,4.1773-4.0928,2.67346,2.67346,0,0,1,.9565-.2832l.1909-.0332a4.15575,4.15575,0,0,1,.5742-.0488,5.202,5.202,0,0,0,.5518-.041,2.08683,2.08683,0,0,0,1.8281-2.3613,1.637,1.637,0,0,0-.9902-1.3321c-.148-.0654-.3042-.1181-.459-.1709a3.32018,3.32018,0,0,1-.5654-.2295.53583.53583,0,0,1-.2666-.3437.51955.51955,0,0,1,.08151-.416l.17039-.2549a16.53884,16.53884,0,0,1,1.3408-1.8194,2.75392,2.75392,0,0,1,2.1724-.8232l2.8838.0068.8135-.0029a5.77887,5.77887,0,0,0,1.24611-.0986,1.92218,1.92218,0,0,0,1.57079-1.4336,1.7817,1.7817,0,0,0-.6612-1.8438,10.75284,10.75284,0,0,1-1.1889-1.2754,6.30439,6.30439,0,0,1-1.3575-4.3837c.0152-.3262.0284-.6495.042-.9756.024-.5938.0474-1.1866.0933-1.7793a1.262,1.262,0,0,1,.1421-.4073c.0132-.0302.0268-.0605.0405-.0898.0352-.0019.0708-.0019.1065-.0019a5.35543,5.35543,0,0,1,2.1923.5585,3.8623,3.8623,0,0,1,1.1656,1.004l.0761.0869c.3418.3769.6656.7714.9883,1.165.3662.4463.7324.8926,1.124,1.3154a4.26611,4.26611,0,0,1,1.2598,2.8907c.0152.9765.0117,1.9521.00831,2.9609l-.00341,1.2402-.03659.0254a3.76725,3.76725,0,0,0-.45361.3545,2.0585,2.0585,0,0,0-.6353,1.6182,1.98314,1.98314,0,0,0,.8023,1.4678,5.468,5.468,0,0,0,.7627.4492c.1757.0908.351.1826.5175.2861a6.92746,6.92746,0,0,1,.5977.4414l.1055.0811c-.0259.0527-.0503.1054-.0757.1562a2.564,2.564,0,0,1-.2979.5225q-1.86179,2.25435-3.76219,4.4785a4.19422,4.19422,0,0,1-.477.4531l-.21291.1875-1.106.9922c-.76409.6855-1.5303,1.3691-2.2807,2.0693a13.61056,13.61056,0,0,0-2.731,3.3155,8.626,8.626,0,0,1-1.126,1.4658c-.1557.1748-.3105.3486-.4595.5273-.2338.2784-.4824.544-.73089.8086l-.36041.3877a9.32766,9.32766,0,0,0-2.2412,4.9541c-.0551.3311-.1245.6602-.1938.9893-.07859.3633-.1553.7275-.2114,1.0937a1.05946,1.05946,0,0,1-.9263.9844c-.2554.0254-.5103.0557-.7661.0859a16.22689,16.22689,0,0,1-1.9043.1504,6.35531,6.35531,0,0,1-1.1587-.0996l-.0034-.0127c-.0093-.041-.023-.1006-.0367-.1006l-.0048.0039A1.93465,1.93465,0,0,0,37.62364,47.877Zm25.5498-22.0273a4.62765,4.62765,0,0,0-.1025-.4551l-.0244-.0976a2.36717,2.36717,0,0,1,1.3003-1.0264,31.45081,31.45081,0,0,1,6.9092-2.2002c2.4296-.4355,4.63371-.7959,6.73971-1.1035a22.1128,22.1128,0,0,1,3.15039-.2774l.2129.001c3.0869.0528,6.1059.1172,9.1059.3262a38.13019,38.13019,0,0,1,3.7774.5224c.6123.1065,1.2241.212,1.83641.3028,4.23049.6289,8.146,2.3984,11.60059,3.9609a65.51128,65.51128,0,0,1,6.3198,3.4317l.6441.3828a25.83647,25.83647,0,0,1,4.8354,4.0517l.0957.0948a39.34186,39.34186,0,0,1,3.7969,4.5957c.4268.5742.85451,1.1484,1.292,1.7129a2.11258,2.11258,0,0,1,.2339.3925c-.1739-.1562-.3516-.3086-.5362-.4521a1.05063,1.05063,0,0,0-1.6899.6221,2.88508,2.88508,0,0,0,.3071,2.2421c.4981.7735.9341,1.6065,1.356,2.4121a23.05849,23.05849,0,0,0,2.0171,3.3663,20.45463,20.45463,0,0,1,2.5029,4.6679,16.38181,16.38181,0,0,1,.6494,2.1006c.0757.2881.1519.5801.2349.8731a4.28273,4.28273,0,0,1-2.9146,1.1347,10.66143,10.66143,0,0,0-2.9497.459,14.543,14.543,0,0,1-2.6665.5108c-1.8628.1689-3.708.2539-5.4873.2539a51.74515,51.74515,0,0,1-10.1738-.9844,20.22118,20.22118,0,0,1-6.9365-2.8789c-.90629-.5762-1.7959-1.2266-2.6548-1.8545-.3379-.2471-.6753-.4942-1.0171-.7393,0,0,1.1455-2.5527,1.477-3.3008a5.9247,5.9247,0,0,0,.3594-3.0078,2.29573,2.29573,0,0,0-1.3179-1.8388.87236.87236,0,0,0-.4296-.1133.78622.78622,0,0,0-.7569.5224,3.22379,3.22379,0,0,0-.1899.8526,10.73174,10.73174,0,0,1-2.857,6.2676,54.33032,54.33032,0,0,1-4.1572,4.2832l-.4936.4726a17.34982,17.34982,0,0,1-4.9283,3.2735q-2.299,1.0326-4.6069,2.0537a8.4441,8.4441,0,0,1-3.4121.7666c.0083-.1162.0845-.1992.2119-.3301.0484-.0488.09571-.0977.1382-.1484a61.00556,61.00556,0,0,0,6.0854-9.295,10.034,10.034,0,0,0,.8023-2.1836c.1123-.4169.19381-.8437.2749-1.2695a12.58161,12.58161,0,0,1,.3686-1.5742,8.23547,8.23547,0,0,0,.2232-3.1553c-.0186-.3262-.0391-.6504-.04589-.9775a1.69823,1.69823,0,0,0-.06061-.3731,1.19064,1.19064,0,0,0-.9843-.9472c-.0093-.001-.08009-.0039-.0894-.0039a1.14245,1.14245,0,0,0-1.04,1.0302,3.06765,3.06765,0,0,0-.0645.5313,17.93021,17.93021,0,0,1-.9687,4.7842c-.1328.4453-.2657.8896-.3887,1.3369a6.86684,6.86684,0,0,1-1.02,1.9238c-1.8242,2.6982-3.3511,4.9443-4.9976,7.2236a16.44618,16.44618,0,0,1-2.1719,2.3516c-.4951.4658-.9838.9395-1.4726,1.4121a42.212,42.212,0,0,1-4.4302,3.9102,55.75429,55.75429,0,0,1-12.3042,7.1367c-.5732.2305-1.1406.4756-1.7085.7226-.5293.2276-1.0576.4561-1.5923.6729a3.5747,3.5747,0,0,1-.6889.1689c-.0464.0088-.0948.0176-.1421.0274-.0039-.0225-.0069-.044-.0117-.0654a3.2579,3.2579,0,0,1-.0586-.501c-.003-.5869-.0005-1.1758.0019-1.7627.0044-.9356.0078-1.8711-.0117-2.8067a8.11081,8.11081,0,0,1,1.0557-3.7627,2.42556,2.42556,0,0,1,.5512-.6289c.0899-.083.1792-.166.2642-.2509a1.14844,1.14844,0,0,0-.854-1.9854,1.71373,1.71373,0,0,0-.2793.0234,2.27854,2.27854,0,0,0-1.4751,1.0137,10.17918,10.17918,0,0,0-2.0757,4.8633c-.0556.5566-.08639,1.1172-.1181,1.6768-.024.4179-.0469.8349-.0806,1.2509-.023.2823-.07369.5616-.1216.833l-.0146.0899a.27023.27023,0,0,1-.0118-.0977l.0152-2.1709q.027-3.96975.0625-7.9375c.0102-.9443.0473-1.8886.084-2.832l.0102-.2549a51.16927,51.16927,0,0,1,1.0151-7.7099,3.27773,3.27773,0,0,1,.4278-1.1036,22.62886,22.62886,0,0,0,2.3657-5.0586,20.72974,20.72974,0,0,1,1.4712-3.2109c.4228-.7969.9214-1.5762,1.4023-2.331l.3648-.5723a4.44,4.44,0,0,1,.5849-.71,39.96623,39.96623,0,0,1,4.148-3.8574,15.07972,15.07972,0,0,0,2.5962-2.7842c.1987-.2539.39841-.5078.6011-.7578l.4692-.5849a17.19291,17.19291,0,0,1,2.063-2.2959A3.29922,3.29922,0,0,0,63.17344,25.84971Z" fill="#463131" fill-rule="evenodd"/>
            <path d="M111.06214,95.71491a20.79073,20.79073,0,0,0,1.8125-2.1318,4.25986,4.25986,0,0,0,.6358-4.374,3.41163,3.41163,0,0,1-.1583-.541,4.51036,4.51036,0,0,0-.1508-.5352.75964.75964,0,0,0-.6299-.4678.05449.05449,0,0,0-.0181.002.94949.94949,0,0,0-.646.5273,7.57013,7.57013,0,0,1-2.30859,3.8584,1.82422,1.82422,0,0,0-.37641.4326,5.10676,5.10676,0,0,1-2.6465,2.0459c-.4243.1768-.8555.3399-1.2847.5039a25.4941,25.4941,0,0,0-2.4936,1.0586,15.36628,15.36628,0,0,1-7.2564,1.5733,36.72878,36.72878,0,0,1-3.9131-.2422,18.117,18.117,0,0,1-2.7568-.5947c-.2852-.0782-.5708-.1553-.85649-.2266a12.15192,12.15192,0,0,1-5.30711-2.3066l-.3447-.2246a19.10967,19.10967,0,0,0-2.7681-1.3868l-.3247-.1416a4.01852,4.01852,0,0,0-1.4228-.2295,1.13756,1.13756,0,0,0-1.0572.795,1.04062,1.04062,0,0,0,.2505,1.1953,15.016,15.016,0,0,0,1.6704,1.3515c.6646.4395,1.3428.8623,2.0191,1.2832.6587.4092,1.3174.8204,1.9638,1.2461a6.6713,6.6713,0,0,0,2.1402.9707c1.018.25,2.0171.545,3.125.8741a21.45819,21.45819,0,0,0,5.9824,1.0537c.2207,0,.438-.0059.63721-.0186h.50979s.8281.0078.997.0078a18.04122,18.04122,0,0,0,8.2798-1.9492,6.329,6.329,0,0,1,.8116-.3213c.23381-.0791.4692-.1601.69381-.2597l.43119-.1924c1.1279-.501,2.2929-1.0176,3.4174-1.583A4.94081,4.94081,0,0,0,111.06214,95.71491Z" fill="#4f2400" fill-rule="evenodd"/>
            <path d="M78.74674,81.63971a3.47806,3.47806,0,0,0-.57911-3.3339,2.49688,2.49688,0,0,0-1.9912-.7159c-.1201,0-.2442.0039-.36669.0088h-.44a2.24617,2.24617,0,0,0-2.02051,1.1924,2.4416,2.4416,0,0,0,.1592,2.5127,3.8127,3.8127,0,0,0,1.6064,1.5498,3.1314,3.1314,0,0,0,1.1665.2998l.0831.002A2.5461,2.5461,0,0,0,78.74674,81.63971Z" fill="#4f2400" fill-rule="evenodd"/>
            <path d="M109.67544,74.88681a2.71916,2.71916,0,0,0,.2505.9277,2.03568,2.03568,0,0,0,1.9809.9776l.0767-.001a1.87665,1.87665,0,0,0,1.8828-1.2773,4.42973,4.42973,0,0,0,.0889-2.5567,1.522,1.522,0,0,0-1.5928-1.1933,2.37528,2.37528,0,0,0-.2993.0234,1.76011,1.76011,0,0,1-.2485.0166c-.0171,0-.0337,0-.0508-.001-.0777-.0068-.1524-.0127-.22509-.0127a1.74735,1.74735,0,0,0-1.65331,1.2783,3.8651,3.8651,0,0,0-.209.9258c-.0196.1358-.0391.2735-.065.4102a.2567.2567,0,0,0,.0015.1055C109.63934,74.63091,109.65684,74.75891,109.67544,74.88681Z" fill="#4f2400" fill-rule="evenodd"/>
          </g>
        </g>
        <path d="M29.59924,170.05381c.3701-2.1826.5391-5.3184-.9336-5.4707-2.0805-.2139-3.2734,3.2881-3.8257,6.3613-.5419,3.0166-1.21819,6.8438.7769,7.708a.8107.8107,0,0,0,.8247-.1513c.6206-.1573,1.3154-.8946,1.7813-2.3125A43.277,43.277,0,0,0,29.59924,170.05381Z" fill="#adab00"/>
        <path d="M98.57044,221.81261c2.0508.875,5.1768,1.6582,6.06931-.2402,1.26179-2.6817-1.726-4.8682-4.59811-6.1407-2.8184-1.25-6.39789-2.8193-8.2822-.3652a1.36864,1.36864,0,0,0-.2578,1.1045,2.87155,2.87155,0,0,0,1.477,2.7431A30.36083,30.36083,0,0,0,98.57044,221.81261Z" fill="#adab00"/>
      </g>
    </g>
  </g>
</svg>
