<svg xmlns="http://www.w3.org/2000/svg" viewBox="0 0 49.97181 47.93149">
  <title>Recurso 12</title>
  <g id="Capa_2" data-name="Capa 2">
    <g id="Editar">
      <g>
        <path d="M9.02342,33.75415a21.59119,21.59119,0,0,1-1.8955-1.4717c-5.8037-5.1553-3.4878-13.539,3.7432-15.6484a10.06917,10.06917,0,0,1,1.2587-.2774,12.42121,12.42121,0,0,1,7.2037.8731,18.18265,18.18265,0,0,1,3.7426,1.5674,25.21346,25.21346,0,0,1,2.20561,1.3886,17.96381,17.96381,0,0,1,1.45119-6.3466A16.6046,16.6046,0,0,1,27.771,11.756c.0171-.0605.0283-.124.0454-.1835.7509-2.6514,2.6411-4.1504,5.1074-5.2188a10.62783,10.62783,0,0,1,4.915-.9316,5.07007,5.07007,0,0,1,1.522.2021c.1367.0264.269.0488.4082.0801,2.811.668,4.13771,2.835,5.4429,5.1367,2.4326,4.294.0312,10.5615-.8311,14.9756a46.64047,46.64047,0,0,0-.95209,9.6953,58.27866,58.27866,0,0,1-.17091,7.9434,3.05345,3.05345,0,0,1-1.0474,1.8662,3.41513,3.41513,0,0,1-4.8198,1.8974c-2.75489-1.4287-5.87989-2.1093-8.83889-3.0127a68.36263,68.36263,0,0,1-9.14991-3.5312C17.10352,39.59985,10.73042,37.05,9.02342,33.75415Z" fill="#dc4654"/>
        <path d="M23.84473,45.96995a75.06519,75.06519,0,0,0,12.18649,1.8662c3.7359.1846,8.1753.3418,11.29251-1.9814a2.647,2.647,0,0,0,.30759-4.1924c.895-6.8203,2.312-13.5156,2.3399-20.4541.0253-6.1904-.7422-14-5.71049-18.4199-5.168-4.5938-11.54931-3.2412-15.63381,2.0791-1.9077,2.4873-3.8804,4.9883-4.4228,8.1572a11.71544,11.71544,0,0,0-.1153,2.6563c-5.602-4.0049-13.4336-5.0723-19.2353-.7295-6.0293,4.5088-6.1655,14.4775-1.9302,20.292C7.77682,41.90555,16.13032,44.29025,23.84473,45.96995Zm-12.38231-10.333c-4.8594-2.9219-8.7188-10.5234-5.2759-15.9443,3.9741-6.2549,12.8774-4.3194,17.2519.2851a1.64836,1.64836,0,0,0,1.5332.5342c.0928.3389.1905.6748.28911,1.0029a1.51184,1.51184,0,0,0,2.917-.79c-.61181-2.7793-.94921-5.4697.793-7.9219a26.55739,26.55739,0,0,1,5.10539-5.3965c1.3999-1.0752,3.522-2.2138,5.0723-.7255a12.45163,12.45163,0,0,1,3.4922,5.873c1.3574,5.1523.8599,10.5156.53811,15.7715-.24471,4.0234-2.32381,8.7617-2.21581,13.0469a28.43188,28.43188,0,0,1-4.1021.2002,59.61521,59.61521,0,0,1-8.89209-1.1123C22.48973,39.382,16.32522,38.55985,11.46242,35.63695Z" fill="#463131"/>
      </g>
    </g>
  </g>
</svg>
