<svg xmlns="http://www.w3.org/2000/svg" viewBox="0 0 195.78546 309.56082">
  <title>Recurso 11</title>
  <g id="Capa_2" data-name="Capa 2">
    <g id="Editar">
      <g>
        <path d="M164.94907,17.41375a22.89293,22.89293,0,0,0,.2891-2.5557c.3897-8.3115-7.7754-12.8105-14.80519-8.8418a10.7918,10.7918,0,0,0-1.15671.7579,13.31549,13.31549,0,0,0-4.7217,6.1806,19.56957,19.56957,0,0,0-1.59959,4.044,26.93081,26.93081,0,0,0-.584,2.7314,19.3039,19.3039,0,0,0-5.95551-3.6367,18.04409,18.04409,0,0,0-2.37549-.7637c-.05961-.0332-.11721-.0703-.17531-.1035-2.5962-1.4062-5.1616-1.0791-7.8272.0127a11.39858,11.39858,0,0,0-4.39349,3.0752,5.4171,5.4171,0,0,0-.98391,1.3174c-.082.124-.1655.2431-.2437.373-1.5918,2.6563-.9238,5.2969-.1347,8.0205,1.4751,5.0811,8.0815,7.9297,12.1118,10.5733a49.95048,49.95048,0,0,1,8.1514,6.5273,62.42532,62.42532,0,0,0,6.2236,5.8145,3.27725,3.27725,0,0,0,2.2143.5947,3.6605,3.6605,0,0,0,5.063-2.2783c.9668-3.1836,2.78421-6.0889,4.3057-9.0362a73.07824,73.07824,0,0,0,4.1396-9.663C163.38757,27.99,166.20107,21.19015,164.94907,17.41375Z" fill="#dc4654"/>
        <path d="M170.65807,13.84735c-1.2905-7.6016-9.04-14.957-17.0127-13.708-7.6748,1.2012-12.7168,8.0088-13.8379,15.3037a12.4691,12.4691,0,0,0-2.125-1.8994c-2.8369-1.9561-6.2324-2.3154-9.5683-2.7129-7.13919-.8496-12.9541,3.0332-13.2979,10.4385-.3281,7.1191,5.0899,13.5537,9.8575,18.1679,5.34321,5.1719,11.541,9.0967,17.4428,13.5166a2.83884,2.83884,0,0,0,3.4478,2.9024c4.1157-.6533,7.3183-4.1758,9.97261-7.1797a80.78688,80.78688,0,0,0,7.691-10.7461C167.71427,30.75365,172.13657,22.56025,170.65807,13.84735Zm-14.7456,23.1201a63.82954,63.82954,0,0,1-5.8022,7.6553,30.06335,30.06335,0,0,1-3.2227,2.9971c-3.209-3.2901-8.4004-5.2422-11.6704-8.0655-4.2724-3.6875-8.7598-7.3203-11.6958-12.2197a13.34146,13.34146,0,0,1-1.8926-7.0752c.0196-2.3027,2.481-3.0781,4.3545-3.3467a28.463,28.463,0,0,1,7.9615.1201c3.186.502,4.9965,2.7735,6.6704,5.3233a1.62115,1.62115,0,0,0,2.7905-1.6475c-.17869-.3203-.3628-.6465-.5542-.9717a1.76714,1.76714,0,0,0,.7393-1.5771c-.25879-6.8027,4.9218-15.082,12.6933-13.4473,6.7368,1.4151,9.6802,10.0664,8.2832,15.9825C163.17077,26.615,159.18937,31.95965,155.91247,36.96745Z" fill="#463131"/>
      </g>
      <g>
        <path d="M189.915,107.35025a14.15073,14.15073,0,0,0,1.23289-.957c3.7754-3.3545,2.2695-8.8076-2.4346-10.1797a6.52169,6.52169,0,0,0-.81929-.1807,8.081,8.081,0,0,0-4.68611.5684,11.76543,11.76543,0,0,0-2.4345,1.0195,16.31606,16.31606,0,0,0-1.4346.9034,11.70324,11.70324,0,0,0-.9439-4.1289,10.95333,10.95333,0,0,0-.6752-1.3555c-.0113-.0401-.0191-.0811-.0293-.1201a5.24624,5.24624,0,0,0-3.3233-3.3946,6.92015,6.92015,0,0,0-3.1977-.6054,3.31442,3.31442,0,0,0-.9893.1308c-.0889.0176-.1763.0313-.2656.0528-1.8286.4345-2.6924,1.8437-3.54149,3.3408-1.58161,2.7949-.01961,6.8721.54049,9.7431a30.28075,30.28075,0,0,1,.6191,6.3067,38.04092,38.04092,0,0,0,.1123,5.168,1.99267,1.99267,0,0,0,.6802,1.2148,2.223,2.223,0,0,0,3.1358,1.2344,33.66557,33.66557,0,0,1,5.7505-1.961,44.32281,44.32281,0,0,0,5.9521-2.2968C184.65907,111.154,188.80457,109.49485,189.915,107.35025Z" fill="#dc4654"/>
        <path d="M193.88367,108.31905c2.7554-3.7822,2.6665-10.2666-1.2554-13.2002-3.7749-2.8252-8.8691-2.1309-12.5136.4746a7.60223,7.60223,0,0,0-.0752-1.7285c-.353-2.0615-1.6358-3.6885-2.877-5.3067-2.6567-3.4599-6.8081-4.3418-10.1709-1.3515-3.2319,2.874-3.7309,7.956-3.7143,11.9824.018,4.5137.9399,8.8691,1.5215,13.3057a1.72324,1.72324,0,0,0,.2006,2.7285c2.0279,1.5107,4.91561,1.4092,7.3457,1.289a49.10125,49.10125,0,0,0,7.9278-1.2138C185.29187,114.20575,190.72547,112.654,193.88367,108.31905Zm-16.2929,3.3935a38.69273,38.69273,0,0,1-5.7852.7246,18.38837,18.38837,0,0,1-2.6675-.1298c.0693-2.7891-1.2832-5.8711-1.4429-8.4893-.2089-3.418-.5327-6.9072.3511-10.2588a8.09954,8.09954,0,0,1,2.271-3.8213c1.0088-.9677,2.38971-.2275,3.2998.4727a17.28617,17.28617,0,0,1,3.3218,3.5097c1.1328,1.5967.9136,3.3458.51511,5.1543a.98392.98392,0,0,0,1.89849.5137c.0634-.2139.1269-.4316.18751-.6523a1.07582,1.07582,0,0,0,.998-.3477c2.84569-2.9961,8.63769-4.2539,11.22219-.1855,2.2402,3.5263-.2705,8.4716-3.4321,10.373C185.16447,110.47725,181.15467,111.01335,177.59077,111.71255Z" fill="#463131"/>
      </g>
      <g>
        <g>
          <path d="M134.01407,159.49285c-1.33009.5498-2.6592,1.1035-3.9927,1.6416q-8.2785,3.356-16.561,6.6992c-.42239.17-.8638.293-.9409.8711-.3028,2.2373-.793,4.4649-.8853,6.71a2.59271,2.59271,0,0,1-1.7407,2.5264,15.19646,15.19646,0,0,1-4.6568,1.1083c-7.0688.8008-14.1054.2686-21.1318-.5019-4.3594-.4746-8.6714-1.2568-12.9653-2.1611a81.4938,81.4938,0,0,1-14.5532-4.294,13.04641,13.04641,0,0,1-4.584-2.7754,1.87487,1.87487,0,0,1-.7266-1.8281c.6587-2.3428.7393-4.7783,1.1831-7.1543a1.20067,1.20067,0,0,0-.5044-1.2705q-3.22185-2.6514-6.4111-5.335c-.4907-.415-.7241-.4648-.8193.2862-.2852,2.1738-.608,4.3437-.9297,6.5107a1.43642,1.43642,0,0,0,.3525,1.252,2.64956,2.64956,0,0,1-.3525,4.0468,2.6832,2.6832,0,0,1-3.81639-.5879,2.72007,2.72007,0,0,1,.87109-3.9121,1.48061,1.48061,0,0,0,.7338-1.1699c.3355-2.4658.6592-4.9336,1.0684-7.3867a1.71576,1.71576,0,0,0-.77729-1.9023c-2.50491-1.8399-4.96241-3.7442-7.43751-5.6202.0087-.0654.01851-.1318.0273-.1943q4.7937-1.752,9.5889-3.501,21.0798-7.6626,42.1518-15.3554a3.21758,3.21758,0,0,1,3.4619.4921c7.6905,5.7276,15.4419,11.3682,23.1724,17.0381q10.6026,7.78425,21.2036,15.5742C134.03307,159.362,134.02387,159.42845,134.01407,159.49285ZM99.852,177.15785a31.15525,31.15525,0,0,0,6.44769-.4726c.6524-.1279,1.5347-.2061,1.6319-1.0029.0898-.7383-.7085-1.043-1.2744-1.337a38.21566,38.21566,0,0,0-7.8511-2.7529,157.77165,157.77165,0,0,0-22.3062-3.9736,86.41823,86.41823,0,0,0-18.4912-.6777,8.80319,8.80319,0,0,0-2.2129.4345c-.3955.1436-.8554.2871-.90379.7891-.041.4355.31539.7031.63769.9248a16.99689,16.99689,0,0,0,4.3794,1.9424,103.19949,103.19949,0,0,0,11.9834,2.9922c2.9868.6005,6.0103.9726,7.7066,1.2734A142.40171,142.40171,0,0,0,99.852,177.15785Z" fill="#463131" fill-rule="evenodd"/>
          <path d="M42.82807,181.82875a5.09358,5.09358,0,0,0,.25391-1.9902q.39539-5.81835.82659-11.6328c.084-1.1221.107-1.1367-.9912-.9395a4.79372,4.79372,0,0,1-2.9316-.582c-.6436-.2969-.9307-.1963-1.0323.5508-.4594,3.3701-.958,6.7344-1.4282,10.1025-.0454.3203-.229.8311.3911.7608,2.0962-.2237,3.10261,1.1982,4.105,2.6455C42.25677,181.08755,42.33777,181.54165,42.82807,181.82875Z" fill="#463131" fill-rule="evenodd"/>
        </g>
        <g>
          <path d="M105.017,256.12865c-.03561-.128-.07621-.2569-.12211-.3858-.0156-.0478-.0288-.0957-.0444-.1426-.3496-1.0166-.6924-1.9218-1.0249-2.7695a70.11925,70.11925,0,0,0-4.7588-18.0762,4.857,4.857,0,0,0-2.1997-2.3427c-.2485-.5372-.518-1.0684-.813-1.5948a7.13041,7.13041,0,0,0-9.6826-2.539,9.5076,9.5076,0,0,0-3.9751,4.581c-.102-.2109-.2075-.4199-.3276-.6269a5.51936,5.51936,0,0,0-8.5762-1.1055c-1.9253,1.8516-2.4858,4.3506-2.7969,6.8809a32.09513,32.09513,0,0,0-2.5341,5.5615,29.81765,29.81765,0,0,0-1.5357,4.4131c-1.3491,3.831-2.7891,7.7675-2.5264,11.8652a23.02083,23.02083,0,0,0-1.9013,4.6143c-1.9663,6.6582,6.0322,9.9707,10.6836,6.2187a12.37813,12.37813,0,0,0,1.6147-1.6035c3.835,2.0351,8.8999,1.457,13.0493,1.375,4.106-.0801,8.9473.251,12.8164-1.2861C106.11907,266.87765,106.66447,261.364,105.017,256.12865Z" fill="#0090c1"/>
          <path d="M125.81047,180.50265c-.2334-.0127-.4663-.0225-.6988-.0225a24.072,24.072,0,0,0-1.31-2.0459c-4.8843-6.8262-12.4092-11.2422-20.5391-13.2607-7.9521-5.3809-18.0854-6.8897-27.7378-5.5225a40.1297,40.1297,0,0,0-14.50679,5.1445c-.60841.2647-1.20461.5547-1.79391.8565a5.27785,5.27785,0,0,0-1.0533-.0733c-6.42179.2051-14.0166,6.4581-17.8965,11.1778-.4985.6074-.978,1.2422-1.4467,1.8906-3.5074-3.4131-10.4668-2.2998-11.70559,3.3496-1.55031,2.3272-1.93851,5.5801-.31841,7.751-.02-.0791-.039-.1582-.0595-.2373a7.15579,7.15579,0,0,0,5.77291,4.5137,22.50717,22.50717,0,0,0,.24169,6.9365c1.7666,8.8994,10.1377,15.0732,18.13231,18.1787a59.059,59.059,0,0,0,6.58889,2.1504c6.60211,6.4043,19.877,6.4971,23.89411,12.5283,5.48239.7363,10.59029-3.4775,15.41689-5.0166,7.5342-2.4014,14.2232-3.627,19.3575-10.3975a42.70359,42.70359,0,0,0,5.6728-6.1064,32.65855,32.65855,0,0,0,5.5366-11.3164,4.50217,4.50217,0,0,1,.7959-.082,20.88619,20.88619,0,0,0,4.5284-.5538c3.372-.5966,6.4121-3.498,7.956-6.4111C146.01207,183.79755,133.17817,174.68525,125.81047,180.50265Z" fill="#ffd7b6"/>
          <path d="M95.22747,193.87955c-2.003.3399-4.25,2.1631-5.2378,2.9199-4.7862-1.4267-10.125-1.2382-15.0303-1.2177a6.25008,6.25008,0,0,0-2.5415.5566,7.546,7.546,0,0,0-3.1543,1.0869,4.171,4.171,0,0,0-1.374,5.8086,5.69682,5.69682,0,0,0,3.5205,5.6533c5.8042,2.5928,12.0708,4.8711,18.5366,4.378a7.85383,7.85383,0,0,0,5.5049-2.5694,15.20038,15.20038,0,0,0,2.3325-1.2236c1.916-1.2441,1.001-.8203,2.9873-2.2441C107.54087,202.17445,103.37487,192.49775,95.22747,193.87955Z" fill="#f08e7e"/>
          <path d="M59.19477,184.73305c-2.6211-4.5781-9.5347-7.1289-14.0572-3.6386a12.93453,12.93453,0,0,0-2.8335,2.8994,10.25207,10.25207,0,0,0-.0083,11.8144,12.17172,12.17172,0,0,0,5.95321,4.5196,9.70169,9.70169,0,0,0,7.81-1.0869C61.17417,196.24385,61.97157,189.58275,59.19477,184.73305Z" fill="#f7bfa7"/>
          <path d="M126.09607,190.22625c.001-.1025.00591-.206.001-.3076a8.89908,8.89908,0,0,0-1.0664-3.9512c-.8623-1.998-2.9644-3.0976-4.8394-3.8662a9.201,9.201,0,0,0-5.5586-.1494,9.03528,9.03528,0,0,0-6.478,6.7812,11.10859,11.10859,0,0,0,.086,4.8985,10.78365,10.78365,0,0,0,2.3579,4.2588c1.9541,2.5263,5.9433,3.374,8.8769,2.4697,2.3257-.7158,3.66651-2.1777,5.0777-4.0234a9.53472,9.53472,0,0,0,1.5517-4.7413A5.62774,5.62774,0,0,0,126.09607,190.22625Z" fill="#f7bfa7"/>
          <path d="M110.43157,273.34635c.0722-3.2265-2.5728-5.1982-5.4995-5.5-4.7359-.4873-9.439.4522-14.1812.2188-4.3237-.2139-8.4434-.3096-11.9648,2.5097l-.0254.003a13.31228,13.31228,0,0,0-3.2324.8681,4.761,4.761,0,0,0-4.4092.3789,7.38032,7.38032,0,0,0-1.439,1.25,4.16714,4.16714,0,0,0-.8545.2149c-.12059.0449-.22559.0957-.3418.1406-1.4692-3.0391-6.8476-3.3125-7.668.625q-.35369,1.7022-.7084,3.4014a5.53021,5.53021,0,0,0,2.5913,5.5556,4.2226,4.2226,0,0,0,2.1875,1.669,4.40054,4.40054,0,0,0,1.5991.6689c1.709,2.4258,5.6059,2.4873,7.998.3301,2.3062.0723,4.5611-1.0879,4.9292-3.7461.064-.4619.1377-.7295.1573-.8603a11.288,11.288,0,0,1,1.1528-.2442,23.781,23.781,0,0,1,4.9175-.0127c1.2812.0283,2.602.0547,3.9131-.0097-.2828,7.7636,8.6259,10.0625,15.1943,6.1396a5.24376,5.24376,0,0,0,2.3887-3.2217C109.977,281.27805,110.35,277.00945,110.43157,273.34635Z" fill="#f5a400"/>
          <path d="M62.36757,303.38735c-2.9268-2.5996-7.731-1.1543-10.7158-3.7373-1.27879-1.1064-3.5884-.083-3.0059,1.7491a11.70042,11.70042,0,0,0,3.9966,5.5888c2.2241,1.75,6.4893,3.2744,9.062,1.5489C63.36267,307.42545,64.03507,304.86685,62.36757,303.38735Z" fill="#ea4d07"/>
          <path d="M121.15467,301.58275c-3.4336.7949-6.9419.7031-10.4199,1.2626-2.88279.4639-2.8267,5.2315,0,5.7452,4.1289.7509,8.3227,1.4756,12.4888.4961C128.11027,307.93915,126.037,300.45285,121.15467,301.58275Z" fill="#ea4d07"/>
          <g>
            <path d="M126.35,300.99c-.289-2.1377-2.17621-2.8936-4.102-3.0713-3.05761-.2852-6.64651.5703-9.58641,1.335-1.4712.3818-2.8877.8769-4.3345,1.3437-.1968.0654-1.8672.4268-1.8257.4863a4.22135,4.22135,0,0,1-.3716-1.4433c-.3906-1.9405-.8247-3.8701-1.189-5.8164q-.29145-1.5294-.4946-3.0762c-.05319-.4072-.083-.8154-.1001-1.2266a2.43368,2.43368,0,0,1,.0152-.5,1.08888,1.08888,0,0,0,.2758-.7558,10.48873,10.48873,0,0,0,5.5245-1.8955c1.2861-1.0186,1.1362-3.1114,1.00241-4.5352a67.95648,67.95648,0,0,1,.10109-8.2764c.0947-3.1132.35591-6.4951-1.586-9.1367a.9991.9991,0,0,0-.56-.4033c-.3399-5.7217-2.0806-11.1523-3.5767-16.6973-.9663-3.5859-2.02339-7.1484-3.0937-10.705-.4859-1.6114-.91169-3.2598-1.5186-4.8282-.0102-.0254-.021-.0478-.0312-.0722,1.4209.5234,2.7973,1.1621,4.227,1.6953a19.44782,19.44782,0,0,0,6.35011.706,41.97055,41.97055,0,0,0,12.83639-1.8769,39.36653,39.36653,0,0,0,18.522-13.128,41.68867,41.68867,0,0,0,5.981-10.0449,116.047,116.047,0,0,0,5.2075-14.2949,72.67844,72.67844,0,0,0,1.8027-10.0586,17.4584,17.4584,0,0,0,.1792-3.2148c2.0547-1.7051,3.1831-4.5479,3.9473-7.0235a1.15976,1.15976,0,0,0-2.2193-.6699c-.0449.1455-.0903.2949-.1406.4502a5.27981,5.27981,0,0,0-.6138-3.1465c-.749-1.289-2.7959-.1963-2.041,1.0987.8809,1.5175.1143,3.8183-.6836,5.8222a1.23067,1.23067,0,0,0-.2524-.0957,1.09774,1.09774,0,0,0-.749-.9902c-.1201-1.4238.0195-2.9668-.022-4.4121-.04439-1.4864-2.3613-1.5518-2.31839-.0528a19.44764,19.44764,0,0,1,.09429,3.667,19.31866,19.31866,0,0,1-.84329-3.2119c-.26411-1.4717-2.519-.9238-2.25491.543.4532,2.5234,1.3321,6.4668,4.044,7.4678a.97674.97674,0,0,0,1.0044-.1436c-.5391.748-.1157,2.0107.8432,1.8916a33.50842,33.50842,0,0,1-.518,3.5889,71.59237,71.59237,0,0,1-2.3306,10.7383c-2.37109,7.6142-5.4893,15.3535-10.6338,21.5332a36.74588,36.74588,0,0,1-17.1069,11.6074,40.24226,40.24226,0,0,1-11.6812,1.6386,18.134,18.134,0,0,1-6.4297-.8671,43.72745,43.72745,0,0,0-5.9394-2.1485,2.71963,2.71963,0,0,1-.1528-.6474c8.8579-2.8897,17.86471-8.1787,22.8369-16.1973,2.8364-4.5703,4.2783-9.9277,5.4067-15.1348.042-.1884.0815-.3779.12111-.5664a10.07141,10.07141,0,0,0,10.53959.0186,7.95785,7.95785,0,0,0,3.4907-10.2363,11.84251,11.84251,0,0,0-8.7959-6.7657,4.7703,4.7703,0,0,0-4.5127,2.0127,24.1333,24.1333,0,0,0-4.979-10.5185c-3.1929-3.9561-8.0303-6.7989-12.5821-8.9043a71.64462,71.64462,0,0,0-6.7719-2.7256,10.89383,10.89383,0,0,0,.6709-4.1006,1.2027,1.2027,0,0,0-1.1328-1.1855c-2.0191-.2989-3.4566,2.1152-4.3785,3.539-.04929.0781-.103.1582-.1547.2363-.3667-.0976-.7359-.1914-1.1031-.2812a12.383,12.383,0,0,0,1.774-5.8281,1.16909,1.16909,0,0,0-1.4297-1.1534,7.75891,7.75891,0,0,0-3.5342,2.4639,8.45241,8.45241,0,0,0,.9712-4.126,1.18088,1.18088,0,0,0-1.4317-1.1543c-2.97509.503-5.2456,3.1211-7.16109,5.2452-.83351.9248-1.67971,1.8466-2.52641,2.7705-.063-.001-.1289-.001-.1933-.001a8.54657,8.54657,0,0,0,1.355-4.6133,1.1795,1.1795,0,0,0-1.7095-1.0478c-2.522,1.1455-4.2686,3.3711-6.1006,5.372-.05419-.0019-.1099-.0049-.166-.0078a6.63823,6.63823,0,0,0,1.3877-3.8789,1.17759,1.17759,0,0,0-1.4307-1.1543c-2.5581.6055-4.34519,2.3672-5.9829,4.3594l-.0352.0049a11.85374,11.85374,0,0,0,2.6021-5.8799,1.165,1.165,0,0,0-1.4297-1.1533c-3.5693.9843-6.374,3.9599-8.7187,6.6748-.52879.6113-1.0933,1.1963-1.6651,1.7744.1968-.335.395-.669.5786-1.0088,1.2022-2.2197,2.59771-6.3242,5.2793-7.1152,1.4278-.42.896-2.6778-.5424-2.253-2.9761.875-4.5523,4.0508-5.8951,6.5967a78.55532,78.55532,0,0,1-6.0576,9.2598,71.376,71.376,0,0,0-6.2602,4.3379,38.24685,38.24685,0,0,0-11.1319,14.6259c-.0219-.0302-.0385-.0625-.0635-.0918-2.1987-2.6933-4.7963-4.6718-8.25-2.8457-2.5844,1.3702-4.3486,4.4854-5.0034,7.2315a7.58776,7.58776,0,0,0,2.5606,7.9902,8.03256,8.03256,0,0,0,7.311,1.085c-.5449,7.9941,1.86091,15.3926,7.92191,21.0986,6.45259,6.0762,15.32619,9.7578,23.61959,12.5274q2.6433.8847,5.3213,1.5205a1.10988,1.10988,0,0,0-.3838.4111c-1.2075,2.1865-4.5952,2.4863-6.8276,2.6191a42.02185,42.02185,0,0,1-10.4312-1.081,80.22855,80.22855,0,0,1-20.1972-6.5361,67.85461,67.85461,0,0,1-17.2452-11.6524,35.65144,35.65144,0,0,1-6.125-8.1113,33.14765,33.14765,0,0,1-3.3061-7.4727,1.179,1.179,0,0,0,.5059-.6543,1.11479,1.11479,0,0,0,.7006-.9843,20.28768,20.28768,0,0,1,2.0489-6.8086c.6367-1.336-1.3218-2.5811-1.9619-1.2354a29.36246,29.36246,0,0,0-1.793,4.6729,1.29634,1.29634,0,0,0-.1968-.0557,11.9525,11.9525,0,0,1,.2686-4.4102c.3916-1.4394-1.82909-2.1113-2.2188-.667a14.58987,14.58987,0,0,0-.30029,5.7774c-.188-.4873-.3354-.9844-.4707-1.4395-.3857-1.3017-.6528-2.6386-1.1372-3.9091-.5254-1.376-2.7866-.8536-2.2554.542.6045,1.582.9038,3.3847,1.479,5.0312a6.29557,6.29557,0,0,0-.6269-.0957c-1.3262-.1279-1.5879,1.8994-.3594,2.2686l.3696.1123a1.15332,1.15332,0,0,0,.5367.0371,8.793,8.793,0,0,1,1.7978.6582,5.90315,5.90315,0,0,0,.6021.5488.88917.88917,0,0,0,.3505.168,1.026,1.026,0,0,0,.3345.7539,35.984,35.984,0,0,0,3.2905,7.7129,38.66245,38.66245,0,0,0,6.3306,8.7002c5.34431,5.5556,12.4976,9.7724,19.3892,13.0781a83.16816,83.16816,0,0,0,22.8174,6.7842c3.2783.5312,8.8789,1.3144,12.8491-.1289-.0088.0175-.0166.0361-.02539.0537-.88721,1.8711-1.709,3.7763-2.48541,5.6982a98.91066,98.91066,0,0,0-3.9848,12.3936c-1.03079,3.9951-1.3936,8.2314-2.5635,12.165-.7505,2.5313-1.5664,5.3711-1.0386,8.0186a1.01911,1.01911,0,0,0,.1958.415c-1.0317,2.5527-.7954,5.8691-.66549,8.3555.07369,1.4345-.09571,3.456.85159,4.6474,1.1469,1.4385,3.4126,1.6748,5.1108,1.8701.5864.0655,1.1919.126,1.8018.1797a12.73964,12.73964,0,0,0-.5655,2.6914,88.99144,88.99144,0,0,1-2.04,9.3262,1.058,1.058,0,0,0-1.2564.7793c-.0156.0576-.0307.1133-.04729.1709a55.93207,55.93207,0,0,0-5.54981-2.4853,10.872,10.872,0,0,0-6.3877.0468c-2.5308.711-7.335,4.0938-3.77149,6.6914a18.59347,18.59347,0,0,0,11.32319,3.0411,7.11981,7.11981,0,0,0,4.55281-1.7852,6.16393,6.16393,0,0,0,1.36959-2.4111,1.15817,1.15817,0,0,0,1.3955-.7862c.6611-3.1972,1.7485-6.291,2.3066-9.5127.1519-.8877.2662-1.791.3814-2.6865.0615-.5019.12991-1.0019.2266-1.501a6.4389,6.4389,0,0,1,.1738-.6875c.0088-.0146.0107-.0234.02-.0361a.95487.95487,0,0,0,.9688-.6631c.9951.0381,1.9799.0488,2.92871.0303,1.44529-.0274,3.24359.0703,4.14449-1.3242,1.376-2.1309,1.2451-4.919,2.45651-7.1651,1.021-1.8896,4.31689-.6289,6-.5234,2.22949.1406,3.12019.7685,3.27639,2.96a28.21441,28.21441,0,0,0,.3057,4.3662c.8676,3.7959,5.9658,3.1416,8.8501,2.9043q2.17-.1758,4.3325-.3526c-.5332,2.1065.6357,5.9297.8677,7.1133.3125,1.6006.6733,3.1914.99461,4.79a3.58063,3.58063,0,0,0,1.35549,2.5059,1.16046,1.16046,0,0,0,.2817,1.6514c5.0942,3.541,11.9717,6.9297,17.6802,2.581C125.037,305.737,126.67667,303.38545,126.35,300.99ZM28.68647,190.75845c-1.9019-1.2548-1.9302-3.874-1.46-5.8398a9.86408,9.86408,0,0,1,2.937-4.7656c2.4702-2.3047,4.5859-.3096,6.2856,1.7705a.97443.97443,0,0,0,.9786.3828,40.58411,40.58411,0,0,0-2.3379,8.5527c-.0113.0703-.0191.1406-.0303.2119C33.25627,192.446,30.48767,191.948,28.68647,190.75845Zm33.2314,112.334c-.5586,1.5069-1.8325,1.957-3.3076,2.21-2.6934.4599-5.708-.5283-8.1861-1.4951a11.4517,11.4517,0,0,1-1.81-.917c-.8589-.5274-.2285-.9463.3144-1.4326a8.17647,8.17647,0,0,1,4.8746-1.7403c2.9487-.1963,5.6289,1.5342,8.3037,2.8291C62.04727,302.72915,61.98667,302.91275,61.91787,303.09245ZM130.038,183.38935c-.99071-1.207,1.43749-1.8125,2.02389-1.8428a6.61872,6.61872,0,0,1,3.6807,1.418,8.43452,8.43452,0,0,1,4.0928,6.0791c.2768,2.8525-2.1797,5.0391-4.624,5.9736a7.68055,7.68055,0,0,1-7.044-1.0136,1.17221,1.17221,0,0,0-.3223-.1475,38.37235,38.37235,0,0,0,.7266-8.6719C129.53407,185.88345,130.90567,184.45185,130.038,183.38935Zm-28.05911-26.5127a12.762,12.762,0,0,1-.3925,1.5322c-.1988-.0625-.399-.1191-.5953-.1787A10.58376,10.58376,0,0,1,101.97887,156.87665Zm-5.3891,2.5547c.2539.0605.5083.123.76021.1865a23.392,23.392,0,0,1-1.76221,2.0791C95.89347,160.92645,96.23327,160.16865,96.58977,159.43135Zm.188-5.7871a17.895,17.895,0,0,1-1.4395,3.1572c-.3662-.0742-.7314-.1494-1.0986-.2178A23.10646,23.10646,0,0,1,96.77777,153.64425Zm-8.647,1.164c1.3423-1.5048,2.8994-3.4716,4.8047-4.4629a16.46735,16.46735,0,0,1-2.8809,5.0938c-.1064.1514-.2109.3018-.3144.4541q-1.1946-.1347-2.39019-.2207C87.60977,155.38345,87.87147,155.09635,88.13077,154.80825Zm-5.4229-1.542a21.37753,21.37753,0,0,1-1.208,2.2852c-.3628-.0107-.7192-.0352-1.0742-.0654A17.92176,17.92176,0,0,1,82.70787,153.26625Zm-6.7387.169c-.2266.4072-.4898.8066-.7466,1.1934-.1904-.044-.3818-.0821-.5708-.1114A11.66955,11.66955,0,0,1,75.96917,153.43525Zm-4.6929-2.8525a17.87953,17.87953,0,0,1-3.2339,5.0048c-1.3359.5205-2.6548,1.1338-3.96339,1.6719C66.22357,155.05825,68.46717,152.12565,71.27627,150.58275Zm-15.918,69.9013c-7.8086-3.8037-15.52629-9.334-17.75-18.1943a26.77353,26.77353,0,0,1-.4926-9.9834,1.02512,1.02512,0,0,0,.1284-.8936,41.4088,41.4088,0,0,1,8.0312-18.0703,37.27489,37.27489,0,0,1,8.6299-8.0078,1.13278,1.13278,0,0,0,1.4243.292,20.548,20.548,0,0,0,4.8101-4.0479,48.87366,48.87366,0,0,1,5.10741-2.2871,10.42567,10.42567,0,0,0-1.24951,2.8438,1.17173,1.17173,0,0,0,1.6587,1.3555c2.4272-1.1016,4.13181-3.2041,5.7573-5.2432.375-.4697.7896-.9971,1.2344-1.54a5.40736,5.40736,0,0,1,.7534-.0215,1.36091,1.36091,0,0,0,.125.7715c-.8184,1.3544-1.6685,2.6835-2.4424,4.0683a1.16805,1.16805,0,0,0,1.5308,1.6377c2.5605-1.1865,4.3496-3.4355,6.1479-5.6738.5679.0332,1.1353.0928,1.7036.1621-.5595,1.3623-1.0117,2.8486-1.4409,4.1631-.4341,1.3271,1.32671,1.9267,2.0908.9521,1.31991-1.6885,2.7715-3.3056,4.2334-4.9043.1036,0,.21.001.31251.0049.93359.0205,1.85889.0918,2.78229.1885a28.21012,28.21012,0,0,1-3.1807,5.0264,1.16067,1.16067,0,0,0,1.5806,1.6982,45.28721,45.28721,0,0,0,5.6596-6.1807c.5777.0967,1.1573.1992,1.7334.3155a22.97264,22.97264,0,0,0-1.9301,5.6894c-.1573.9131.6938,1.9219,1.6587,1.3555,2.394-1.4092,3.9208-3.6416,5.7045-5.7012l.0044-.0078c.3765.1113.7505.2236,1.1241.3398a18.2951,18.2951,0,0,0-.94,3.0567,1.1717,1.1717,0,0,0,1.65721,1.3545,7.20926,7.20926,0,0,0,3.00689-3.1387c1.2593.4648,2.5088.9609,3.7397,1.4863,5.023,2.1387,10.085,5.1739,13.54641,9.4619,3.26759,4.0469,4.49419,9.1221,4.48979,14.2305-.0059,4.9951-1.334,10.1192-2.7159,14.8858a30.3859,30.3859,0,0,1-8.4023,14.3877,47.18753,47.18753,0,0,1-29.1953,11.9511C75.38417,228.73305,64.77087,225.071,55.35827,220.48405Zm29.1148,13.5762c-2.55909.5586-2.9556-1.6914-3.2534-3.6553a48.78689,48.78689,0,0,0,7.7944-.1484C89.45887,232.38545,86.09417,233.70575,84.47307,234.06025Zm-22.9746,35.7451a23.35312,23.35312,0,0,1,1.332-5.9326c.5576-1.8555.6821-3.9561,1.0688-5.8643.4258-2.1123.9253-4.209,1.4639-6.2949a99.19409,99.19409,0,0,1,3.8067-11.707c.7768-1.9707,1.6464-3.9043,2.5527-5.8184a46.32064,46.32064,0,0,0,2.2612-4.7168q2.38035.46725,4.7759.7285a.96388.96388,0,0,0,.1294.2364,9.83177,9.83177,0,0,0,1.5024,4.6924c1.0264,1.372,3.1192,1.4287,4.626,1.1845,2.8257-.456,6.9937-3.041,6.3198-6.3457a46.71893,46.71893,0,0,0,5.4536-1.166,6.72131,6.72131,0,0,0,.814,1.9805,19.0079,19.0079,0,0,1,1.9566,4.2861c1.0722,3.5264,2.1259,7.0586,3.12251,10.6055,1.75639,6.249,3.90479,12.5322,4.14989,19.0566a1.37208,1.37208,0,0,0-.4062.7979,1.02259,1.02259,0,0,0-.6441.5136c-2.9458-.4072-6.2637.0977-9.145.3223-4.01659.3135-7.9937.9736-12.0049,1.332-4.0752.3623-8.1313.9141-12.1806,1.4785-3.1866.4434-6.2583,1.1543-9.438,1.3106A1.21278,1.21278,0,0,0,61.49847,269.80535Zm33.3691,16.8545c-1.7837.0322-3.5239.1084-3.8638-1.8896-.4223-2.4805.3936-5.2422-1.6113-7.2266-1.1792-1.1699-3.06149-1.207-4.6123-1.3037-1.7876-.1113-3.5684-.7578-5.3423-.1817a5.0705,5.0705,0,0,0-2.8003,3.2198,34.27827,34.27827,0,0,0-1.1601,4.1894c-.2993,1.2227-.5078,1.7608-1.7896,1.8106-2.2212.0859-4.48389-.1993-6.71189-.2666a17.59764,17.59764,0,0,1-4.10941-.5245c-1.20159-.3212-1.45159-.6992-1.5395-1.956-.1826-2.5811-.9053-7.0527.518-9.6865a38.90049,38.90049,0,0,0,8.9107-1.1016,107.24145,107.24145,0,0,1,12.3491-1.5859c3.7876-.3946,7.5635-.8828,11.3525-1.2774,1.9058-.2002,3.8174-.334,5.731-.4179,1.9614-.087,4.1221-.4463,6.0483.0048a1.17928,1.17928,0,0,0,1.4458-.7763l.0176-.0606a1.195,1.195,0,0,0,1.0034-.1015,15.38177,15.38177,0,0,1,.29151,4.4482c-.04831,2.333-.11911,4.6611-.19671,6.9932-.0508,1.4824.9145,5.0537-.6084,5.9648-2.1314,1.2754-4.8955,1.0606-7.27,1.2393C98.89487,286.32585,96.90227,286.62275,94.86757,286.65985Zm27.2041,18.4355a8.5798,8.5798,0,0,1-4.709,1.7774c-3.4282.3555-6.9326-1.8027-9.7544-3.7354,2.7505-.4414,5.3946-1.6757,8.1538-2.2011,1.4585-.2774,7.6592-1.9219,8.2886.2539C124.45547,302.59635,123.00917,304.27415,122.07167,305.09535Z" fill="#463131"/>
            <path d="M68.18107,180.75655a1.20044,1.20044,0,0,0-.9063-.666,1.42671,1.42671,0,0,0-.1855-.0782,1.16894,1.16894,0,0,0-1.4434.7774c-.0205.0742-.0346.1484-.0493.2217-.021.0498-.0464.0976-.0625.1474a1.08854,1.08854,0,0,0,.0078.6875,3.8597,3.8597,0,0,0,.4878,1.5283,1.16788,1.16788,0,0,0,2.1304-.2138A3.33207,3.33207,0,0,0,68.18107,180.75655Z"/>
            <path d="M100.92667,180.19015a1.58192,1.58192,0,0,0-1.5674-1.3145,1.0994,1.0994,0,0,0-1.477.7227,6.3908,6.3908,0,0,0-.36629,2.3213,2.24544,2.24544,0,0,0,2.14989,2.208,1.159,1.159,0,0,0,1.1373-.8252A6.3529,6.3529,0,0,0,100.92667,180.19015Z"/>
            <path d="M107.39147,193.43715a1.174,1.174,0,0,0-1.4297-1.1533c-13.3701,1.8086-27.2265,3.8789-40.4531.1553a1.20673,1.20673,0,0,0-2.2549.4619c-.6157,6.1826-1.0083,12.374,4.3267,16.6367,4.2324,3.3809,10.7344,4.5869,15.9751,5.2559,5.8535.75,11.9277-.0127,16.69041-3.7168C105.34317,207.113,106.94477,199.51925,107.39147,193.43715Zm-8.2998,15.585c-4.0151,3.6348-9.8144,4.0254-14.9409,3.5166-4.7041-.4678-10.0195-1.7226-14.1142-4.1318-5.0977-2.9971-5.1045-8.4141-4.64359-13.5938,12.95609,3.4971,26.44429,1.7129,39.55809-.0644C104.42517,199.864,102.95987,205.52215,99.09167,209.02215Z"/>
          </g>
        </g>
      </g>
    </g>
  </g>
</svg>
