<svg xmlns="http://www.w3.org/2000/svg" viewBox="0 0 126.60354 140.95047">
  <title>Recurso 1</title>
  <g id="Capa_2" data-name="Capa 2">
    <g id="Editar">
      <g>
        <g>
          <g>
            <path d="M78.50455,57.78152a2.71581,2.71581,0,0,1-.5298-1.7089,22.06738,22.06738,0,0,1,1.9776-8.4122,21.7137,21.7137,0,0,1,2.1762-5.04,2.42363,2.42363,0,0,1,1.09571-1.0264q.32744-.5229.66159-1.038a26.18621,26.18621,0,0,1,1.5791-4.9981,2.76707,2.76707,0,0,1,3.4717-1.6494,2.73033,2.73033,0,0,1,1.6494,3.4717,21.3705,21.3705,0,0,0-1.0097,2.8467,2.49668,2.49668,0,0,1-.0923,1.5585c-.1665.4415-.3535.8741-.54879,1.3038-.15781.9111-.28181,1.8339-.38581,2.7646q-.07545.6783-.1387,1.3535a2.53484,2.53484,0,0,1,.0879.5391,25.30354,25.30354,0,0,1-.2939,5.0068c.0288.8574.0898,1.7158.1958,2.5791.706,5.7529,2.6484,11.2686,3.3213,17.0283a2.70408,2.70408,0,0,1,.37641.71,2.84363,2.84363,0,0,1,.59919.8135q.36765.7338.7339,1.4687a2.73885,2.73885,0,0,1-3.3794,3.6953c-3.4356-1.2558-7.1773-2.1367-9.4312-5.0498a2.92707,2.92707,0,0,1-.5713-.7812c-.0639-.125-.124-.2529-.1841-.3799-.063-.1152-.1245-.2334-.1826-.3545a3.14993,3.14993,0,0,1-.1518-.3779A24.13609,24.13609,0,0,1,78.50455,57.78152Z" fill="#333"/>
            <path d="M67.55875,42.96222a21.6565,21.6565,0,0,1,2.0874-3.6455,2.52542,2.52542,0,0,1,3.1367-.9131,2.61652,2.61652,0,0,1,2.9365-.8232,2.72559,2.72559,0,0,1,1.6495,3.4707,17.29892,17.29892,0,0,1-3.2178,4.457,12.41614,12.41614,0,0,0-2.9717,4.1152,13.86912,13.86912,0,0,0-.4023,5.3711c.4379,3.3721,1.331,6.6641,1.9345,10.0069a2.73505,2.73505,0,0,1-4.7705,2.2041,4.61824,4.61824,0,0,1-.9707-2.9522,2.599,2.599,0,0,1-1.0786-1.6123,35.70383,35.70383,0,0,1-.7568-8.9316C64.81465,49.805,65.24475,46.01492,67.55875,42.96222Z" fill="#333"/>
            <path d="M90.24034,62.74442a20.1098,20.1098,0,0,0,2.1285,6.4268,2.60164,2.60164,0,0,0-.5708,2.9443c1.4169,3.0391,3.3085,6.7412,6.371,8.416a6.98225,6.98225,0,0,0,2.5191.8233,12.27014,12.27014,0,0,0,8.26711-.041c5.03609-1.7168,9.28609-5.9366,12.15329-10.3037a32.27388,32.27388,0,0,0,2.3423-4.1563c1.3667-1.9971,2.14741-4.1348,1.6929-6.168q.0564-.6987.0546-1.4023a19.56571,19.56571,0,0,0-.8339-11.4775,11.68685,11.68685,0,0,0-.7041-1.3477,16.95568,16.95568,0,0,0-1.9126-4.2832,33.62886,33.62886,0,0,0-2.7212-3.8125c-.09329-.1191-.188-.2363-.2862-.3506-.2202-.2588-.4672-.5225-.7353-.7871a16.86016,16.86016,0,0,0-1.624-1.4766l-.01179-.0078c-1.958-2.6094-4.437-4.7334-7.81881-5.3135-.0566-.0097-.1133-.0136-.1699-.0224a14.26849,14.26849,0,0,0-4.2471-.7578,9.16351,9.16351,0,0,0-6.5713,2.2177,9.67359,9.67359,0,0,0-4.4922,2.5469,9.18016,9.18016,0,0,0-1.3969,1.8379,8.46989,8.46989,0,0,0-1.4419,4.4248c-1.4727,2.8555-1.6978,6.5791-1.7041,9.6123a37.6,37.6,0,0,0,1.6128,11.8897Q90.18889,62.46172,90.24034,62.74442Zm15.0713-7.3164a3.96228,3.96228,0,0,0-.77539-.3838c.00539-.1513.00979-.3027.01129-.455C104.78384,54.86942,105.03974,55.15072,105.31164,55.428Z" fill="#f9e603"/>
            <path d="M71.83955,54.45342c.2578-.9941.5595-1.9726.8862-2.9443.499-5.3262,1.5923-11.3047,4.99751-15.4971a2.76187,2.76187,0,0,1,3.78329-.667,2.83925,2.83925,0,0,1,1.0439,3.0957,3.54618,3.54618,0,0,1-.042,1.5098c-.9556,4.0146-2.918,8.2187-4.4043,12.459q-.05205.56385-.0967,1.1279a70.88649,70.88649,0,0,0,.5777,16.6045,2.74806,2.74806,0,0,1-1.5401,2.9404,2.78488,2.78488,0,0,1-3.6035-1.334C70.129,66.43782,70.31465,60.31182,71.83955,54.45342Z" fill="#f9e603"/>
            <path d="M61.64815,48.10872c.49411-3.1328,1.4677-6.168,2.0073-9.292a2.77247,2.77247,0,0,1,2.9311-2.4854,2.72617,2.72617,0,0,1,2.4859,2.9307c-.5171,2.9902-1.3863,5.9004-1.937,8.8818a19.47008,19.47008,0,0,0,.436,9.1475,2.72137,2.72137,0,0,1-2.2036,3.1475,2.77474,2.77474,0,0,1-3.1475-2.2041A23.271,23.271,0,0,1,61.64815,48.10872Z" fill="#f9e603"/>
            <path d="M59.28285,17.11552a17.58093,17.58093,0,0,0,4.1973,7.0664,43.66051,43.66051,0,0,0,7.8428,6.9864c3.77931,2.6035,8.7251,5.3281,13.5009,4.5302a8.34226,8.34226,0,0,0,5.544-3.3896,8.09831,8.09831,0,0,0,.478-.8272,4.37552,4.37552,0,0,0,3.5249.833,12.60763,12.60763,0,0,0,5.5357-2.6484c2.9389-1.0576,5.3081-4.1055,6.8964-6.5615.0865-.1328.1719-.2696.2578-.4063a27.52345,27.52345,0,0,0,4.2442-6.5547c1.4326-3.2451,1.1987-7.6523-2.9097-8.6689a3.0952,3.0952,0,0,0-2.2451.2822c0-.0234.0039-.0459.0039-.0693a6.13489,6.13489,0,0,0-.9814-3.7901,2.72214,2.72214,0,0,0-4.3199.1739,25.21254,25.21254,0,0,0-1.1782,2.4375,7.346,7.346,0,0,0-3.11519-5.3076A2.75548,2.75548,0,0,0,92.441,2.51592a64.95113,64.95113,0,0,0-2.602,8.6875c-.2666,1.1065-.52979,2.2285-.7715,3.3584A23.05726,23.05726,0,0,0,84.05925,7.72a29.8365,29.8365,0,0,0-5.48981-6.5185c-2.0634-1.7539-5.25919,1.0459-4.0268,3.3603a16.3438,16.3438,0,0,0,1.9394,2.7559,2.12035,2.12035,0,0,0,.26321,1.2822c.22269.376.43509.7539.64159,1.1357q.112.38085.23241.7579a3.10769,3.10769,0,0,0-.29441.6787q-1.174-.47025-2.3091-1.0313c-.042-.0205-.4883-.25-.476-.2412-.126-.0674-.253-.1338-.37749-.2021-.24561-.1368-.49071-.2754-.73291-.419a2.74716,2.74716,0,0,0-4.2334,2.6973,9.718,9.718,0,0,0,.6011,2.4843,31.26466,31.26466,0,0,0-7.6167-2.3603c-2.0513-.3867-3.2412,1.8311-2.7647,3.5478A2.25972,2.25972,0,0,0,59.28285,17.11552Zm21.1445,12.752c.04691-.0537.0923-.1074.1348-.1641.0864.0957.1734.1904.2598.2861C80.69,29.94952,80.55775,29.91142,80.42735,29.86752Z" fill="#7d4e24"/>
          </g>
          <g>
            <path d="M54.77655,35.931c4.11371,3.2021,5.4091,8.4257,6.4546,13.2851.7788,3.624,1.4096,7.4053,2.9609,10.8008a26.93972,26.93972,0,0,0,7.1309,9.085,48.46366,48.46366,0,0,0,22.0747,10.3808c12.8081,2.4531,29.3003-2.3721,32.5874-16.5215,2.9839-12.8476-5.0835-30.1728-18.7105-32.9599a22.199,22.199,0,0,0-7.6787-.1553c6.043-4.6914,13.708-8.9326,13.2383-17.6768-.1055-1.9648-.98-5.3291-3.5586-5.2607a4.83211,4.83211,0,0,0-3.1675,1.4111c.5693-2.3496.43121-4.6513-1.7905-6.4804a.69354.69354,0,0,0-.832.0332,14.46808,14.46808,0,0,0-4.1602,5.0175c.0806-2.8584-.3306-6.2236-2.8652-6.291-3.066-.081-4.9366,4.1377-5.6924,6.5205a28.076,28.076,0,0,0-1.16749,7.5381,27.03648,27.03648,0,0,0-1.88771-3.9433c-2.0747-3.5459-5.165-7.4825-8.6758-9.6788-1.2632-.791-2.9677-1.5634-4.3384-.5556-1.4809,1.0879-1.6298,2.9599-1.1733,4.6279a20.27882,20.27882,0,0,0,2.3945,5.2432c-2.3349-1.7598-5.0229-2.8535-7.8672-2.125a.6888.6888,0,0,0-.5659.6201,8.45658,8.45658,0,0,0,1.9619,4.8301,14.3467,14.3467,0,0,0-6.561-1.6778c-3.1206.0391-6.0078,1.8594-5.18409,5.3672,1.23779,5.2696,6.27589,9.6572,10.43309,12.7666,3.1455,2.3526,6.9868,5.0205,11.0088,6.2139a24.5,24.5,0,0,1-10.7632.793.59836.59836,0,0,0-.4438-.5616,42.205,42.205,0,0,0-12.7105-1.8945A.693.693,0,0,0,54.77655,35.931Zm8.24171.8427a.673.673,0,0,0-.14751.2949c-.0889-.0585-.1787-.1171-.271-.1709a2.76189,2.76189,0,0,0-.7158-.3212C62.26335,36.636,62.64075,36.70442,63.01825,36.77372Zm.21239,3.419c-.0493.084-.0991.1689-.146.2549-.0806-.0879-.1563-.1797-.2305-.2715A.71942.71942,0,0,0,63.23065,40.19272Zm.9609-1.3594c-.1601.1846-.31.3779-.4531.5771a2.81752,2.81752,0,0,0-.0991-.4912A1.45992,1.45992,0,0,0,64.19155,38.83332Zm1.0996-1.0371a6.97545,6.97545,0,0,0-.6225.5361.58332.58332,0,0,0,.0092-.123c-.0068-.2129-.0131-.4366-.041-.6524C64.85415,37.638,65.07095,37.721,65.29115,37.79622Zm24.333-18.4141c.0157.4531.0323.9063.0498,1.3565a68.85135,68.85135,0,0,0,.5601,7.1865,15.81867,15.81867,0,0,0,.4497,2.4756q.01245.93015.0161,1.8613c-2.9507,1.0693-5.8794,2.2744-8.8213,3.2529-4.393-.5439-8.7226-3.4023-12.1474-5.9121-3.87889-2.8418-8.354-6.54-10.2266-11.1103-.4976-1.2168-1.0337-3.1035.1411-4.1406a4.97787,4.97787,0,0,1,3.7202-.9629c4.2832.333,8.2315,2.7519,11.2412,5.7011.6197.6084,1.6538-.1972,1.0591-.875-2.2148-2.5215-6.2593-5.1748-6.7607-8.7578,4.6333-.706,8.7553,4.0039,11.2729,7.3125.4658.6113,1.565-.0586,1.1543-.7265-.0312-.0498-.0639-.0997-.0952-.1504h0l-.0005-.001c-1.9892-3.1953-4.4902-6.0859-5.8843-9.6289-.4907-1.2471-1.4975-4.167.4229-4.8233,1.457-.499,3.3393,1.2715,4.2993,2.1426a33.33837,33.33837,0,0,1,7.1192,9.0039A27.55873,27.55873,0,0,1,89.62414,19.38212Zm7.2129,10.9912c-1.3804.3243-2.751.7286-4.1142,1.1836a.57571.57571,0,0,0-.2349-.1289.60378.60378,0,0,0-.1069-.6767,2.14779,2.14779,0,0,1-.335-.5616,56.13385,56.13385,0,0,0-1.0601-10.8525,41.51293,41.51293,0,0,1,.4385-9.251c.4722-2.457,1.6724-7.1426,4.4766-8.0547,2.82521-.9189,1.88621,7.1817,1.7656,8.2071-.0981.8349,1.0093.9384,1.333.2871,1.314-2.6475,2.5547-5.3574,4.8848-7.2324,2.706,2.7304.0722,7.0449-1.0733,10.0214-.3256.8457.91211,1.2344,1.295.461.6884-1.3887,3.5717-7.0987,5.9668-5.1875,1.9287,1.539,1.5747,5.0928.9838,7.1592-2.017,7.0634-8.8999,10.0087-14.0717,14.4482A.6986.6986,0,0,0,96.837,30.37332Zm-2.9487,45.2471a40.62156,40.62156,0,0,1-1.45309-4.9219c-1.05181-4.3496-1.84231-8.7666-2.49811-13.1924a76.87509,76.87509,0,0,1-1.1338-10.8408,36.69919,36.69919,0,0,1,.7432-6.4297c.2939-1.663.6684-4.3232,1.7539-6.0879a.65013.65013,0,0,0,.8789-.581v-.4248c0-.0674.0962-.1367.1768-.1963,5.5234-1.8955,11.0434-3.0391,16.91211-.9805,7.17579,2.5166,12.05169,9.3047,14.33539,16.3243,2.2344,6.8691,2.5161,15.1484-2.0288,21.1845-4.3857,5.8252-11.7402,8.6133-18.831,9.1485a35.46534,35.46534,0,0,1-7.07959-.1973c.27829-.5244-.19391-1.2969-.81061-.9834a1.69775,1.69775,0,0,1-.25-.3106A7.83,7.83,0,0,1,93.88834,75.62042Zm-13.9619-2.3652a.65193.65193,0,0,0,.0132-.5655c-2.5293-6.042-1.73539-12.9892-.25439-19.1953a151.00568,151.00568,0,0,1,5.84909-17.8965.82162.82162,0,0,0,.0347-.1308c1.456-.5537,2.9086-1.125,4.3627-1.668a17.40307,17.40307,0,0,0-1.4194,4.4551,39.22724,39.22724,0,0,0-1.0933,8.1279,83.48583,83.48583,0,0,0,1.3204,12.4268c.2329,1.4931,2.3881,15.9941,5.08881,19.3437A46.50288,46.50288,0,0,1,79.92645,73.25522Zm-8.3418-20.1875a44.895,44.895,0,0,1,5.5078-14.5196.6882.6882,0,0,0,.1069-.4121,44.39238,44.39238,0,0,0,4.4497-1.2549c.4409.0547.8828.0899,1.32421.1006a.71315.71315,0,0,0,.71779-.8144l.187-.0674a124.76648,124.76648,0,0,0-5.8857,18.7314c-1.1753,5.7686-1.6914,11.9258.3555,17.542a41.17706,41.17706,0,0,1-5.9004-4.1035.57649.57649,0,0,0,.0634-.6875C70.17,63.23272,70.63245,57.74252,71.58465,53.06772Zm-2.8721,11.4404a.69218.69218,0,0,0,.084-.6406,41.929,41.929,0,0,1-2.32129-13.8379c.01949-3.9502.53959-9.8252,5.06539-11.1992a.72175.72175,0,0,0,.084-.0352,24.68248,24.68248,0,0,0,3.9277-.3418,46.01387,46.01387,0,0,0-5.3378,14.501c-.8355,4.3516-1.2979,9.2988.3032,13.5527q-.597-.5991-1.1587-1.2334C69.13635,65.02082,68.92255,64.76492,68.71255,64.50812Zm-6.5454-17.4902a.661.661,0,0,0,.1514-.2764c.8628-3.0469,1.604-6.9268,4.747-8.4277l.0093-.0049c.648.1455,1.293.2539,1.9346.333-3.0264,2.3027-3.833,6.7617-3.896,10.5049a44.88746,44.88746,0,0,0,1.5473,12.4365,25.735,25.735,0,0,1-2.8564-7.1094C63.21495,52.08042,62.76285,49.52762,62.16715,47.01792Zm-1.478-4.9258a3.24369,3.24369,0,0,0,1.3335.834c-.1831.5332-.3506,1.0742-.5069,1.6142C61.27115,43.70832,60.99865,42.88992,60.68915,42.09212Zm-1.7705-3.5625q.5946.62985,1.1342,1.3125a.65617.65617,0,0,0-.3823-.0088C59.43715,39.387,59.18815,38.95242,58.91865,38.52962Zm-.48339-2.3408c1.05659.0791,2.10879.1923,3.15519.3476a.68717.68717,0,0,0-.5556.4483c-.0752-.0664-.1538-.1289-.22659-.1983a.68544.68544,0,0,0-1.16361.2432c-.0761-.0811-.1513-.1631-.229-.2432a.68537.68537,0,0,0-.5405-.2138C58.73155,36.44172,58.58415,36.31472,58.43525,36.18882Z" fill="#4f2400"/>
            <path d="M103.02064,55.06572c1.89161-.0254,2.8091,3.1944,3.4063,4.5186,1.3139,2.916,4.2661,7.6113,7.8881,5.4404.7588-.4541,1.3277.7979.5743,1.249-4.6949,2.8135-8.3169-2.997-9.9742-6.6992a19.13354,19.13354,0,0,0-1.2143-2.457c-.6821-1.0772-1.0752-.4356-1.5523.5019-1.6054,3.1533-.6308,8.7344,3.9766,7.8174a.68756.68756,0,0,1,.2388,1.3535c-3.3076.6573-5.8301-1.7509-6.3838-4.8916C99.67594,60.16632,100.50064,55.09892,103.02064,55.06572Z"/>
            <path d="M116.55194,44.37922c2.6704.6719,3.2197,4.4727,2.9135,6.6914-.1201.877-1.49019.7656-1.3691-.1123.2436-1.7705.019-4.0928-1.6523-5.1416-1.9473-1.2236-2.481,2.8926-2.5499,3.8613a.68773.68773,0,0,1-1.3701-.1123C112.67984,47.36552,113.55384,43.62532,116.55194,44.37922Z"/>
            <path d="M99.57294,41.91242a5.276,5.276,0,0,1,5.2568.3105c2.4072,1.5918,3.1357,4.9805,3.4849,7.6231.1152.8769-1.2373,1.1191-1.354.2383-.4615-3.4981-2.2491-8.9317-6.8135-6.9239-2.4136,1.0625-4.708,4.4483-2.6587,6.8321.5776.6709-.4815,1.5478-1.0591.875C93.72574,47.72292,96.40644,43.44172,99.57294,41.91242Z"/>
          </g>
        </g>
        <g>
          <path d="M6.92155,131.58432c-.7432-1.3457-.1377-2.2461,1.3125-3.0547a2.36732,2.36732,0,0,1,2.9736.7978,2.46167,2.46167,0,0,1-.2178,2.9649,2.3232,2.3232,0,0,1-3.0395.3808A7.13038,7.13038,0,0,1,6.92155,131.58432Z" fill="#4f2400" fill-rule="evenodd"/>
          <path d="M8.46985,99.36942a2.2582,2.2582,0,0,1,1.0332-2.9541,2.20582,2.20582,0,0,1,2.9444,1.0225,2.23968,2.23968,0,0,1-1.0127,2.957A2.28512,2.28512,0,0,1,8.46985,99.36942Z" fill="#4f2400" fill-rule="evenodd"/>
          <path d="M15.59825,89.75132a2.19562,2.19562,0,1,1,3.00829.8173A2.19127,2.19127,0,0,1,15.59825,89.75132Z" fill="#4f2400" fill-rule="evenodd"/>
          <path d="M36.629,91.97492a2.09016,2.09016,0,0,1,.7847-2.8906,2.13159,2.13159,0,0,1,2.0898,3.7158A2.07247,2.07247,0,0,1,36.629,91.97492Z" fill="#4f2400" fill-rule="evenodd"/>
          <path d="M47.64415,31.55692A2.113,2.113,0,1,1,46.819,34.43,2.11628,2.11628,0,0,1,47.64415,31.55692Z" fill="#4f2400" fill-rule="evenodd"/>
          <path d="M28.81555,46.552a1.98292,1.98292,0,0,1-.2832,2.3028,2.0299,2.0299,0,0,1-3.5097-1.7061,3.78512,3.78512,0,0,1,.4692-1.1367,1.56632,1.56632,0,0,1,2.15041-.5976A2.74984,2.74984,0,0,1,28.81555,46.552Z" fill="#4f2400" fill-rule="evenodd"/>
          <path d="M39.47625,80.54522a1.95728,1.95728,0,0,1-.83061,2.7305,1.88543,1.88543,0,0,1-2.7036-.8242,2.008,2.008,0,1,1,3.53421-1.9063Z" fill="#4f2400" fill-rule="evenodd"/>
          <path d="M26.39275,94.262a1.63811,1.63811,0,0,1,1.2207-2.5947,2.88312,2.88312,0,0,1,2.1455,1.0888,1.70894,1.70894,0,0,1-.1465,2.0518,1.58847,1.58847,0,0,1-1.9849.4434A9.16842,9.16842,0,0,1,26.39275,94.262Z" fill="#4f2400" fill-rule="evenodd"/>
          <path d="M35.15885,36.66242a1.73721,1.73721,0,0,1,2.3755.7529,1.79034,1.79034,0,0,1-.6992,2.4092,1.7623,1.7623,0,0,1-2.4688-.8076A1.71873,1.71873,0,0,1,35.15885,36.66242Z" fill="#4f2400" fill-rule="evenodd"/>
          <path d="M29.92445,79.11162a1.77611,1.77611,0,1,1-2.36719-.8105A1.75935,1.75935,0,0,1,29.92445,79.11162Z" fill="#4f2400" fill-rule="evenodd"/>
          <path d="M17.39765,82.428a1.7388,1.7388,0,0,1-1.669-3.0508,1.74009,1.74009,0,1,1,1.669,3.0508Z" fill="#4f2400" fill-rule="evenodd"/>
          <path d="M18.57245,69.262a1.64767,1.64767,0,0,1-.36919,2.2129,1.69614,1.69614,0,0,1-2.27191-.0957,1.72513,1.72513,0,0,1-.1529-2.2695,2.79387,2.79387,0,0,1,.3872-.3916,1.35839,1.35839,0,0,1,2.0669.0947A4.81684,4.81684,0,0,1,18.57245,69.262Z" fill="#4f2400" fill-rule="evenodd"/>
          <path d="M8.359,107.60382a1.81238,1.81238,0,0,1-.7124,2.3018,1.73278,1.73278,0,1,1,.7124-2.3018Z" fill="#4f2400" fill-rule="evenodd"/>
          <path d="M4.49815,117.37042a1.6664,1.6664,0,0,1,2.2808.6094,1.70793,1.70793,0,1,1-2.9253,1.7637A1.66847,1.66847,0,0,1,4.49815,117.37042Z" fill="#4f2400" fill-rule="evenodd"/>
          <path d="M11.961,140.137a1.67681,1.67681,0,0,1,.55721-2.3096,1.72921,1.72921,0,0,1,2.31589.5674,1.69014,1.69014,0,0,1-.5845,2.3037A1.63313,1.63313,0,0,1,11.961,140.137Z" fill="#4f2400" fill-rule="evenodd"/>
          <path d="M19.88935,57.86652a1.59368,1.59368,0,0,1,1.9951.2266,1.4129,1.4129,0,0,1,.0981,1.6718,3.82489,3.82489,0,0,1-.7939.9346,1.47845,1.47845,0,0,1-2-.0996,1.52881,1.52881,0,0,1-.062-2.1221A5.54293,5.54293,0,0,1,19.88935,57.86652Z" fill="#4f2400" fill-rule="evenodd"/>
        </g>
        <g>
          <path d="M50.50895,28.39682a5.6541,5.6541,0,0,0-.1338-.6123,2.33943,2.33943,0,0,0-4.10989-.875,2.56982,2.56982,0,0,0-.20651.2666,3.23911,3.23911,0,0,0-.60349,1.7959,4.74981,4.74981,0,0,0-.05081,1.0586c.0156.2109.0396.4433.0801.6757a4.6786,4.6786,0,0,0-1.6592-.3701,4.212,4.212,0,0,0-.6074.0108c-.0166-.003-.03369-.0078-.0489-.0108a2.10745,2.10745,0,0,0-1.8037.6192,2.78566,2.78566,0,0,0-.7719,1.0537,1.3148,1.3148,0,0,0-.1231.3818c-.0093.0352-.019.0684-.0268.1055a2.3017,2.3017,0,0,0,.5996,1.8594c.7402,1.0556,2.4878,1.1933,3.624,1.4863a12.0743,12.0743,0,0,1,2.3935.8642,15.24822,15.24822,0,0,0,1.8921.8516.79649.79649,0,0,0,.5567-.0381.89223.89223,0,0,0,.9897-.9228,13.45063,13.45063,0,0,1,.2818-2.4229,17.82584,17.82584,0,0,0,.1948-2.5537C50.98015,30.95832,51.09435,29.16922,50.50895,28.39682Z" fill="#dc4654"/>
          <path d="M51.545,27.12532c-.895-1.6514-3.2607-2.7383-5.0005-1.8233a4.27174,4.27174,0,0,0-1.9878,4.6172,3.07607,3.07607,0,0,0-.6396-.2705,4.989,4.989,0,0,0-2.41989.126,2.65917,2.65917,0,0,0-2.24561,3.4522c.4843,1.6679,2.2392,2.7265,3.7021,3.415a42.11585,42.11585,0,0,0,5.085,1.7451.69095.69095,0,0,0,1.0224.3984,4.56879,4.56879,0,0,0,1.7354-2.4394,19.70383,19.70383,0,0,0,.9292-3.084C52.19495,31.25522,52.57095,29.01792,51.545,27.12532Zm-1.582,6.4912a15.5852,15.5852,0,0,1-.73579,2.2207,7.51709,7.51709,0,0,1-.50831.9453c-.9986-.5068-2.34869-.5478-3.3252-.9424a12.9906,12.9906,0,0,1-3.6582-1.8974,3.26773,3.26773,0,0,1-.9927-1.4834c-.1763-.5323.331-.9043.7407-1.1153a6.96878,6.96878,0,0,1,1.8462-.5966,2.4379,2.4379,0,0,1,1.95651.7021.395.395,0,0,0,.51369-.5996c-.0654-.0596-.1343-.1191-.2036-.1807a.428.428,0,0,0,.04591-.4209c-.59421-1.5488-.05081-3.8652,1.87009-4.0996,1.6646-.2031,3.0234,1.5606,3.1665,3.0342A13.30623,13.30623,0,0,1,49.963,33.61652Z" fill="#463131"/>
        </g>
        <g>
          <path d="M30.94355,46.93a5.68915,5.68915,0,0,0,.2324-.5821,2.33874,2.33874,0,0,0-2.9102-3.0302,2.30028,2.30028,0,0,0-.3208.1045,3.24814,3.24814,0,0,0-1.5078,1.1474,4.77484,4.77484,0,0,0-.6357.8477c-.1055.1826-.2158.3896-.313.6035a4.67276,4.67276,0,0,0-1.1655-1.2373,4.41778,4.41778,0,0,0-.5083-.332l-.0357-.0352a2.10282,2.10282,0,0,0-1.8393-.501,2.79254,2.79254,0,0,0-1.23.4395,1.31655,1.31655,0,0,0-.3169.2471c-.0269.0234-.0542.0449-.0811.0722a2.30033,2.30033,0,0,0-.5473,1.875c.0195,1.2891,1.3891,2.3838,2.165,3.2647a12.094,12.094,0,0,1,1.4966,2.0576,15.23873,15.23873,0,0,0,1.0874,1.7676.80915.80915,0,0,0,.4824.2812.89293.89293,0,0,0,1.3374-.209,13.42935,13.42935,0,0,1,1.5923-1.8467,17.88006,17.88006,0,0,0,1.5947-2.0048C29.89565,49.31472,30.99475,47.89772,30.94355,46.93Z" fill="#dc4654"/>
          <path d="M32.51435,46.45832c.186-1.8682-1.16209-4.0957-3.1158-4.3145a4.27022,4.27022,0,0,0-4.2358,2.7051,3.11988,3.11988,0,0,0-.3774-.583A4.99254,4.99254,0,0,0,22.711,43.012a2.65969,2.65969,0,0,0-3.7959,1.5977c-.5351,1.6523.3228,3.5127,1.147,4.9043a42.21327,42.21327,0,0,0,3.2295,4.2978.692.692,0,0,0,.62261.9043,4.57075,4.57075,0,0,0,2.80559-1.0459,19.63432,19.63432,0,0,0,2.4995-2.0303C30.73455,50.24152,32.30095,48.60192,32.51435,46.45832Zm-4.9527,4.4853a15.5033,15.5033,0,0,1-1.855,1.4249,7.52687,7.52687,0,0,1-.9511.497c-.5425-.9795-1.63629-1.7715-2.2237-2.6465a13.01712,13.01712,0,0,1-1.9628-3.623,3.261,3.261,0,0,1,.0117-1.7852c.1523-.539.7807-.5625,1.2383-.5068a6.97825,6.97825,0,0,1,1.86321.542,2.43906,2.43906,0,0,1,1.22459,1.6797.39526.39526,0,0,0,.7622-.208c-.0214-.0869-.0439-.1748-.0673-.2647a.42449.42449,0,0,0,.2739-.3213c.3784-1.6162,2.1274-3.2285,3.84861-2.3437,1.49219.7656,1.62649,2.9873.91849,4.2881A13.33716,13.33716,0,0,1,27.56165,50.94362Z" fill="#463131"/>
        </g>
        <g>
          <path d="M12.19445,106.53252a5.57,5.57,0,0,0,.2325-.581,2.3388,2.3388,0,0,0-2.9102-3.0303,2.43271,2.43271,0,0,0-.3208.1035,3.24464,3.24464,0,0,0-1.5078,1.1484,4.74454,4.74454,0,0,0-.6358.8477c-.1054.1826-.2158.3887-.3129.6035a4.67311,4.67311,0,0,0-1.1656-1.2373,4.40053,4.40053,0,0,0-.5083-.332c-.0122-.0117-.0244-.0244-.0356-.0362a2.10547,2.10547,0,0,0-1.8394-.5,2.78149,2.78149,0,0,0-1.2299.4395,1.3244,1.3244,0,0,0-.3169.2471c-.0269.0234-.0542.0449-.0811.0722a2.30072,2.30072,0,0,0-.54739,1.875c.01959,1.2891,1.38919,2.3838,2.16509,3.2647a12.094,12.094,0,0,1,1.4966,2.0576,15.225,15.225,0,0,0,1.0874,1.7676.80915.80915,0,0,0,.4824.2812.89363.89363,0,0,0,1.3374-.209,13.51819,13.51819,0,0,1,1.5923-1.8476,17.79216,17.79216,0,0,0,1.5947-2.0039C11.14665,108.91832,12.24575,107.50132,12.19445,106.53252Z" fill="#dc4654"/>
          <path d="M13.76525,106.06182c.18609-1.8682-1.16211-4.0967-3.11571-4.3154a4.27217,4.27217,0,0,0-4.2358,2.706,3.11557,3.11557,0,0,0-.37749-.583,4.99266,4.99266,0,0,0-2.07421-1.2539,2.65969,2.65969,0,0,0-3.7959,1.5977c-.5351,1.6523.3228,3.5127,1.147,4.9043a42.18747,42.18747,0,0,0,3.2295,4.2978.69086.69086,0,0,0,.6225.9033,4.56366,4.56366,0,0,0,2.8057-1.0449,19.63355,19.63355,0,0,0,2.4995-2.0302C11.98555,109.845,13.55195,108.20442,13.76525,106.06182Zm-4.95261,4.4854a15.50253,15.50253,0,0,1-1.855,1.4248,7.5269,7.5269,0,0,1-.9511.497c-.5425-.9795-1.63629-1.7714-2.2237-2.6464a13.0187,13.0187,0,0,1-1.9624-3.6231,3.26247,3.26247,0,0,1,.0112-1.7851c.1524-.5391.7808-.5625,1.2383-.5069a6.97619,6.97619,0,0,1,1.86331.542,2.43744,2.43744,0,0,1,1.22459,1.6787.39511.39511,0,0,0,.7622-.207c-.0215-.0869-.0439-.1748-.0674-.2647a.42432.42432,0,0,0,.274-.3222c.3784-1.6153,2.1274-3.2276,3.84861-2.3438,1.49219.7666,1.62649,2.9883.91849,4.2891A13.33936,13.33936,0,0,1,8.81265,110.54722Z" fill="#463131"/>
        </g>
        <g>
          <path d="M22.18715,68.52472a5.65115,5.65115,0,0,0,.2324-.582,2.33873,2.33873,0,0,0-2.9101-3.0303,2.43271,2.43271,0,0,0-.3208.1035,3.25041,3.25041,0,0,0-1.5078,1.1485,4.7392,4.7392,0,0,0-.6358.8476c-.1054.1836-.21579.3897-.313.6035a4.67276,4.67276,0,0,0-1.1655-1.2373,4.27433,4.27433,0,0,0-.50829-.331l-.03561-.0371a2.11084,2.11084,0,0,0-1.83939-.5,2.79279,2.79279,0,0,0-1.23.4394,1.32628,1.32628,0,0,0-.31691.2471c-.0268.0234-.0542.0459-.081.0722a2.30074,2.30074,0,0,0-.5474,1.875c.0195,1.2901,1.3892,2.3838,2.1651,3.2647a12.13341,12.13341,0,0,1,1.4965,2.0576,15.25247,15.25247,0,0,0,1.0874,1.7676.80911.80911,0,0,0,.4825.2812.8937.8937,0,0,0,1.3374-.2089,13.38639,13.38639,0,0,1,1.5927-1.8467,17.93556,17.93556,0,0,0,1.5943-2.0049C21.13935,70.90952,22.23845,69.49252,22.18715,68.52472Z" fill="#dc4654"/>
          <path d="M23.75795,68.053c.1861-1.8681-1.1621-4.0957-3.11569-4.3144a4.27005,4.27005,0,0,0-4.23581,2.705,3.08021,3.08021,0,0,0-.3775-.582,4.98226,4.98226,0,0,0-2.0742-1.2539,2.65864,2.65864,0,0,0-3.7959,1.5967c-.5352,1.6533.3227,3.5127,1.147,4.9043a42.1186,42.1186,0,0,0,3.2299,4.2978.69175.69175,0,0,0,.6221.9043,4.56478,4.56478,0,0,0,2.8057-1.0459,19.64055,19.64055,0,0,0,2.4995-2.0302C21.97815,71.83622,23.54455,70.19562,23.75795,68.053Zm-4.9526,4.4854a15.519,15.519,0,0,1-1.855,1.4248,7.39383,7.39383,0,0,1-.9512.497c-.5425-.9794-1.6362-1.7714-2.2236-2.6455a13.03624,13.03624,0,0,1-1.9624-3.624,3.25686,3.25686,0,0,1,.0112-1.7851c.1524-.5391.7808-.5625,1.2383-.5069a6.98249,6.98249,0,0,1,1.8633.542,2.43781,2.43781,0,0,1,1.2246,1.6797.39525.39525,0,0,0,.7622-.208c-.02149-.0859-.0439-.1748-.0674-.2637a.42722.42722,0,0,0,.27391-.3222c.37849-1.6163,2.12749-3.2286,3.84869-2.3438,1.4917.7656,1.6264,2.9883.9184,4.2881A13.30353,13.30353,0,0,1,18.80535,72.53842Z" fill="#463131"/>
        </g>
        <g>
          <path d="M31.04755,78.46512a4.23345,4.23345,0,0,0,.1674-.4179,1.678,1.678,0,0,0-2.0878-2.1739,1.79739,1.79739,0,0,0-.2305.0743,2.32806,2.32806,0,0,0-1.0816.8232,3.448,3.448,0,0,0-.456.6084c-.0757.1318-.15479.2793-.2241.4336a3.36859,3.36859,0,0,0-.8365-.8887,2.94807,2.94807,0,0,0-.3647-.2363.32261.32261,0,0,0-.0254-.0264,1.51,1.51,0,0,0-1.3198-.3594,1.993,1.993,0,0,0-.88229.3155.89636.89636,0,0,0-.22661.1777.61714.61714,0,0,0-.0591.0518,1.65219,1.65219,0,0,0-.3921,1.3447c.0142.9248.9961,1.71,1.55281,2.3418a8.679,8.679,0,0,1,1.07369,1.4756,10.93447,10.93447,0,0,0,.78031,1.2685.57881.57881,0,0,0,.34619.2012.64058.64058,0,0,0,.9594-.1494,9.649,9.649,0,0,1,1.1421-1.3252,12.84309,12.84309,0,0,0,1.1445-1.4375C30.29655,80.17512,31.08465,79.15852,31.04755,78.46512Z" fill="#dc4654"/>
          <path d="M32.17495,78.12632a2.87026,2.87026,0,0,0-2.2353-3.0948A3.06175,3.06175,0,0,0,26.901,76.972a2.21184,2.21184,0,0,0-.2705-.418,3.56326,3.56326,0,0,0-1.48829-.8994,1.90655,1.90655,0,0,0-2.72271,1.1465,4.56819,4.56819,0,0,0,.8228,3.5175,30.17185,30.17185,0,0,0,2.31691,3.0831.496.496,0,0,0,.44629.6484,3.28173,3.28173,0,0,0,2.01271-.751,14.04026,14.04026,0,0,0,1.79289-1.4551A6.22246,6.22246,0,0,0,32.17495,78.12632Zm-3.5532,3.2177a11.16214,11.16214,0,0,1-1.3306,1.0225,5.49145,5.49145,0,0,1-.6816.3564c-.3897-.7031-1.17429-1.2714-1.5957-1.8984a9.35363,9.35363,0,0,1-1.4082-2.5996,2.33751,2.33751,0,0,1,.0083-1.2803c.10931-.3867.56-.4033.8882-.3633a5.00492,5.00492,0,0,1,1.3369.3877,1.75058,1.75058,0,0,1,.8784,1.2051.28348.28348,0,0,0,.5469-.1484c-.0157-.0625-.0318-.126-.0484-.1895a.30623.30623,0,0,0,.19631-.2314c.272-1.1592,1.52589-2.3154,2.76079-1.6817a2.33776,2.33776,0,0,1,.6596,3.0772A9.5795,9.5795,0,0,1,28.62175,81.344Z" fill="#463131"/>
        </g>
        <g>
          <path d="M42.99865,90.45342a4.13835,4.13835,0,0,0,.1675-.418,1.67789,1.67789,0,0,0-2.0874-2.1738,1.76564,1.76564,0,0,0-.2309.0752,2.33019,2.33019,0,0,0-1.08159.8233,3.45729,3.45729,0,0,0-.456.6074c-.07571.1318-.15481.2802-.22421.4336a3.36087,3.36087,0,0,0-.8364-.8877,2.95481,2.95481,0,0,0-.3647-.2373c-.0083-.0088-.0171-.0186-.0254-.0264a1.50949,1.50949,0,0,0-1.3198-.3584,2.00339,2.00339,0,0,0-.8824.3145.92078.92078,0,0,0-.2265.1777c-.0201.0166-.03959.0332-.05859.0517a1.65418,1.65418,0,0,0-.39261,1.3448c.0142.9258.99661,1.7099,1.5527,2.3418a8.654,8.654,0,0,1,1.0738,1.4765,10.937,10.937,0,0,0,.7802,1.2676.57474.57474,0,0,0,.3462.2012.63994.63994,0,0,0,.9595-.1494,9.635,9.635,0,0,1,1.1421-1.3242,12.94478,12.94478,0,0,0,1.1445-1.4385C42.24775,92.16442,43.03575,91.14772,42.99865,90.45342Z" fill="#dc4654"/>
          <path d="M44.12615,90.11452a2.87086,2.87086,0,0,0-2.2354-3.0947,3.06236,3.06236,0,0,0-3.03849,1.9414,2.20693,2.20693,0,0,0-.27061-.4179,3.56943,3.56943,0,0,0-1.4882-.9004,1.907,1.907,0,0,0-2.7227,1.1465,4.568,4.568,0,0,0,.8228,3.5175,30.17148,30.17148,0,0,0,2.3169,3.083.49675.49675,0,0,0,.4462.6495,3.28376,3.28376,0,0,0,2.0132-.751,14.04423,14.04423,0,0,0,1.7925-1.4561A6.21776,6.21776,0,0,0,44.12615,90.11452Zm-3.5532,3.2178a10.96418,10.96418,0,0,1-1.3306,1.0225,5.35416,5.35416,0,0,1-.6817.3564c-.3896-.7021-1.1743-1.2715-1.5952-1.8984a9.33966,9.33966,0,0,1-1.4087-2.5986,2.342,2.342,0,0,1,.0083-1.2813c.1094-.3867.5606-.4033.88821-.3633a5.00475,5.00475,0,0,1,1.33689.3887,1.75167,1.75167,0,0,1,.8789,1.2051.28338.28338,0,0,0,.5464-.1494l-.0478-.1895a.30411.30411,0,0,0,.1958-.2305c.272-1.1591,1.5259-2.3164,2.7612-1.6816a2.33691,2.33691,0,0,1,.6592,3.0762A9.56173,9.56173,0,0,1,40.57295,93.33232Z" fill="#463131"/>
        </g>
        <g>
          <path d="M21.50065,88.12432a4.15873,4.15873,0,0,0,.167-.418,1.67789,1.67789,0,0,0-2.08739-2.1738,1.93076,1.93076,0,0,0-.231.0752,2.328,2.328,0,0,0-1.08151.8233,3.43621,3.43621,0,0,0-.4556.6084,4.78873,4.78873,0,0,0-.2246.4326,3.36238,3.36238,0,0,0-.8364-.8877,3.07623,3.07623,0,0,0-.3648-.2373c-.0083-.0088-.01709-.0186-.0254-.0264a1.50941,1.50941,0,0,0-1.3198-.3584,2.003,2.003,0,0,0-.8823.3145.94757.94757,0,0,0-.22659.1777c-.02.0166-.03951.0332-.05861.0517a1.65243,1.65243,0,0,0-.3925,1.3448c.01411.9258.9965,1.7099,1.5527,2.3418a8.6534,8.6534,0,0,1,1.0737,1.4765,10.95965,10.95965,0,0,0,.7803,1.2686.58461.58461,0,0,0,.3462.2012.64129.64129,0,0,0,.9595-.1495,9.5826,9.5826,0,0,1,1.1421-1.3251,12.78621,12.78621,0,0,0,1.1445-1.4385C20.74915,89.83522,21.53725,88.81862,21.50065,88.12432Z" fill="#dc4654"/>
          <path d="M22.62755,87.78642a2.8718,2.8718,0,0,0-2.23529-3.0957,3.06259,3.06259,0,0,0-3.03861,1.9414,2.20126,2.20126,0,0,0-.2705-.4179,3.56978,3.56978,0,0,0-1.4883-.9004,1.90758,1.90758,0,0,0-2.72259,1.1464,4.57129,4.57129,0,0,0,.82269,3.5186,30.26925,30.26925,0,0,0,2.3169,3.082.49675.49675,0,0,0,.4463.6494,3.28325,3.28325,0,0,0,2.0132-.7509,13.97443,13.97443,0,0,0,1.7925-1.4561A6.21552,6.21552,0,0,0,22.62755,87.78642Zm-3.5532,3.2168a10.96315,10.96315,0,0,1-1.3305,1.0225,5.35416,5.35416,0,0,1-.6817.3564c-.3896-.7021-1.1743-1.2705-1.5957-1.8984a9.34846,9.34846,0,0,1-1.40819-2.5986,2.341,2.341,0,0,1,.00829-1.2813c.1094-.3867.5606-.4033.8882-.3633a5.0068,5.0068,0,0,1,1.3369.3887,1.75167,1.75167,0,0,1,.8789,1.2051.28327.28327,0,0,0,.5464-.1485q-.0234-.09375-.0479-.1904a.30393.30393,0,0,0,.1958-.2305c.272-1.1591,1.5259-2.3164,2.7608-1.6816a2.33675,2.33675,0,0,1,.6597,3.0762A9.54621,9.54621,0,0,1,19.07435,91.00322Z" fill="#463131"/>
        </g>
        <g>
          <path d="M13.10615,130.37922a4.157,4.157,0,0,0,.167-.418,1.67774,1.67774,0,0,0-2.0875-2.1738,1.63139,1.63139,0,0,0-.2309.0752,2.3258,2.3258,0,0,0-1.0816.8223,3.47213,3.47213,0,0,0-.4555.6084,4.82426,4.82426,0,0,0-.2246.4336,3.36859,3.36859,0,0,0-.8365-.8887,2.94762,2.94762,0,0,0-.3647-.2363.25565.25565,0,0,0-.0254-.0264,1.50993,1.50993,0,0,0-1.3198-.3594,1.99293,1.99293,0,0,0-.8823.3154.899.899,0,0,0-.2266.1778.56814.56814,0,0,0-.0586.0517,1.65445,1.65445,0,0,0-.3926,1.3448c.0142.9248.9966,1.7099,1.5528,2.3418a8.65118,8.65118,0,0,1,1.0737,1.4755,10.93657,10.93657,0,0,0,.7803,1.2686.57983.57983,0,0,0,.3462.2012.64054.64054,0,0,0,.9594-.1494,9.67755,9.67755,0,0,1,1.1421-1.3252,12.8554,12.8554,0,0,0,1.1446-1.4375C12.35465,132.08922,13.14275,131.07262,13.10615,130.37922Z" fill="#dc4654"/>
          <path d="M14.233,130.04032a2.87022,2.87022,0,0,0-2.2353-3.0947,3.06167,3.06167,0,0,0-3.0386,1.9404,2.24015,2.24015,0,0,0-.2705-.4179,3.5696,3.5696,0,0,0-1.4883-.8995,1.90673,1.90673,0,0,0-2.7227,1.1465,4.56944,4.56944,0,0,0,.8228,3.5176,30.17148,30.17148,0,0,0,2.3169,3.083.49635.49635,0,0,0,.4463.6485,3.27877,3.27877,0,0,0,2.0132-.751,14.0838,14.0838,0,0,0,1.7929-1.4551A6.22236,6.22236,0,0,0,14.233,130.04032Zm-3.5532,3.2178a11.16257,11.16257,0,0,1-1.33059,1.0225,5.492,5.492,0,0,1-.68161.3564c-.3897-.7031-1.1743-1.2715-1.5952-1.8984a9.35657,9.35657,0,0,1-1.4087-2.5996,2.3328,2.3328,0,0,1,.0088-1.2803c.1089-.3867.56-.4033.88771-.3633a5.00494,5.00494,0,0,1,1.33689.3877,1.75222,1.75222,0,0,1,.8789,1.2051.28324.28324,0,0,0,.5464-.1485c-.0157-.0625-.0318-.1259-.0479-.1894a.30568.30568,0,0,0,.1958-.2315c.272-1.1591,1.52591-2.3154,2.7612-1.6816a2.3382,2.3382,0,0,1,.6592,3.0772A9.58128,9.58128,0,0,1,10.67985,133.25812Z" fill="#463131"/>
        </g>
      </g>
    </g>
  </g>
</svg>
