<svg xmlns="http://www.w3.org/2000/svg" viewBox="0 0 191.93303 110.24307">
  <title>Recurso 9</title>
  <g id="Capa_2" data-name="Capa 2">
    <g id="Editar">
      <g>
        <path d="M1.80478,21.38627S13.73248,5.22807,40.66418.99557c0,0,8.9765-.7695,13.9785,14.2354l4.3603,10.7725L50.66708,44.856s-8.9766-.8975-11.1572-4.6172-.7695-2.4365-.7695-2.4365-5.5157,5.2578-12.8252-2.6934c0,0-1.1543-1.4111-.8975-1.9238s-7.4375,3.9756-12.4395-5.5146C12.57818,27.67047-1.65812,32.28667,1.80478,21.38627Z" fill="#fff800"/>
        <path d="M140.63978,73.771s20.5332-4.25,25.417-3.6172,14.6523.4512,19.9892,16.0997,6.1504,19.8086,2.1709,23.0654-14.0195-7.5977-14.0195-7.5977l-.6338,1.8994s-11.7578-4.9746-14.4717-8.8642c0,0,1.4473,3.0752-4.6133,1.3564s-7.2363-4.8838-7.2363-4.8838-5.3369,6.9659-13.9297-5.246Z" fill="#fff800"/>
        <g>
          <path d="M95.57818,53.33547c5.3467,5.5508,18.9327,1.7725,26.1993,1.1396q11.8197-1.0326,23.6386-2.0644c1.6016-.0117,3.1729-1.6963-1.539-4.1221q-1.9659-1.1397-3.9414-2.2598-7.2423-4.11765-14.5918-8.04c-17.8028-9.5-37.2666-17.5976-56.0196-25.2793,4.1358,6.6279,7.7295,13.1817,12.1192,19.7656C85.86238,39.10207,90.04018,47.58447,95.57818,53.33547ZM89.129,29.08257q2.6661,5.09175,5.3321,10.1836c.5488,1.0478-1.1758,1.6914-1.7198.6543q-2.66445-5.0919-5.332-10.1836C86.86048,28.688,88.58508,28.04447,89.129,29.08257Zm-7.2324-5.0332q3.4395,6.246,6.8779,12.4892c.5655,1.0264-.9248,2.1065-1.4961,1.0694q-3.43935-6.2433-6.8779-12.4883C79.83508,24.09427,81.32628,23.01217,81.89658,24.04937Z" fill="#fff"/>
          <path d="M85.43268,41.67337Q75.8,27.39112,66.42878,12.93307L59.99908,26.691a.92659.92659,0,0,1-.3183.6806q-3.44685,7.37985-6.8965,14.7598c-.2148.4599-.4668.9473-.7168,1.4336a.99682.99682,0,0,1-.6768,1.418c-.0166.0039-.0351.0029-.0517.0058a31.48331,31.48331,0,0,0-2.3486,5.2617,19.29605,19.29605,0,0,0-.7051,5.7022Q66.77893,48.60357,85.43268,41.67337Z" fill="#fff"/>
          <path d="M146.08408,54.19777q-24.315,2.124-48.6299,4.2471a.92981.92981,0,0,1-.8467-.3799q-5.1078-7.39305-10.1318-14.8438a.64394.64394,0,0,1-.0967.0606q-19.0386,7.05765-37.8994,14.5703a6.58415,6.58415,0,0,0,.9844,2.6074c2.5312,3.582,10.7519,6.4102,14.5547,8.5254q13.70205,7.61715,27.6758,14.7305,7.3212,3.7236,14.7089,7.3066c2.2383,1.086,4.4766,2.1738,6.7305,3.2285,4.332,2.0313,3.9922,2.4121,8.833.8555a.88012.88012,0,0,1-.5293-.9297,172.39,172.39,0,0,0,.1641-36.9082.92036.92036,0,0,1,1.8291-.1963,174.60641,174.60641,0,0,1-.1738,37.3838.81071.81071,0,0,1-.0752.2305c3.749-1.3448,4.54-2.5791,6.8281-5.959.7842-1.1602,1.5459-2.334,2.3096-3.5078a2.54425,2.54425,0,0,1,.2275-1.2774.94986.94986,0,0,1,.9473-.5312q1.4223-2.23245,2.7949-4.4942,3.84075-6.3618,7.2549-12.9746c.8916-1.7295,3.7968-6.0586,3.9355-8.0048C147.77158,56.69967,149.67588,53.88137,146.08408,54.19777Zm-34.791,34.8252a56.37536,56.37536,0,0,1-12.3428-5.0137c-1.0293-.5713-.2832-2.251.752-1.6787a54.33278,54.33278,0,0,0,11.8691,4.874C112.70228,87.51807,112.43078,89.33837,111.29308,89.023Zm3.9619-4.3858c1.1543.254.876,2.0723-.2793,1.8184a32.069,32.069,0,0,1-9.5576-3.7461c-1.0088-.5986-.2647-2.2822.7529-1.6797A30.50988,30.50988,0,0,0,115.255,84.63717Z" fill="#fff"/>
          <path d="M191.66908,105.00247c.0078-.0557.0234-.1016.0293-.1582a.86573.86573,0,0,0-.2344-.7246c-2.3184-10.3828-4.5879-25.7149-13.5137-32-9.1953-6.4746-25.8262-1.3047-35.873.4345.5947-1.0712,1.1865-2.1455,1.7636-3.2275,3.7325-6.998,10.5928-15.332,2.7393-21.5088-4.4375-3.4892-10.1865-5.917-15.1523-8.6308q-10.63185-5.80965-21.4932-11.1905c-13.5742-6.7285-28.7227-12.4101-42.7432-18.1474a.86229.86229,0,0,0-.7558.0283c-.7784.166-1.4991.7578-1.1162,1.3535l.0126.0176a.86565.86565,0,0,0-.3173.3633c-1.8262,3.9072-3.834,7.8447-5.8662,11.8066-1.9385-6.8477-4.5479-14.832-9.4532-19.6816C45.003-.90383,38.40728-.561,32.46978,1.22507c-8.2929,2.4922-16.4599,7.545-23.3242,12.7129-2.6308,1.9805-8.2129,5.251-8.6172,9.125a2.4547,2.4547,0,0,0-.4082,2.3516c.5469,2.0625,2.8565,3.4199,4.7871,3.8789a12.39285,12.39285,0,0,0,7.2979-.8672c5.1602,10.5127,17.7109,4.6484,24.7061-.2285a.92075.92075,0,0,0-1.0704-1.4971c-5.8476,4.0772-17.3437,10.4561-21.9492,1.0069,4.0235-1.9024,7.9063-4.8555,10.8555-6.7305,1.0019-.6358-.0742-2.1289-1.0703-1.4961-3.0108,1.9121-6.0596,3.7695-9.1924,5.4746a24.61108,24.61108,0,0,1-5.0176,2.3203,7.58756,7.58756,0,0,1-4.9707-.0156,3.29285,3.29285,0,0,1-2.0674-1.4609.7398.7398,0,0,0,.2491-.9952,2.63684,2.63684,0,0,1-.2325-.7802.99119.99119,0,0,0,.0909-1.3399c1.9902-7.1758,25.8398-18.1426,29.4443-19.3476,9.748-3.2578,16.5098-.2373,20.8965,8.9179a86.45767,86.45767,0,0,1,5.0263,13.5899c-2.9648,5.7812-5.9111,11.623-8.3984,17.5312a11.49529,11.49529,0,0,1-9.8379-4.3183.92737.92737,0,0,0-.2851-.2373,28.58206,28.58206,0,0,0,7.914-6.4453c.8086-.8663-.6152-2.0333-1.4189-1.1709-4.4864,4.8066-14.2178,11.6503-19.0694,3.2968-.5957-1.0254-2.0859.0528-1.4961,1.0684a9.86238,9.86238,0,0,0,10.1094,4.5117,12.50209,12.50209,0,0,0,2.582-.6797.7829.7829,0,0,0,.1661.7246,13.45524,13.45524,0,0,0,10.5654,5.0957c-.8467,2.1055-1.6318,4.2198-2.3272,6.3428a11.37186,11.37186,0,0,0-.5976,5.585.98707.98707,0,0,0,.3613,1.2832c1.4346,3.8261,5.8438,5.8847,10.586,8.5761q19.478,11.0508,39.5175,21.0752c6.1953,3.0987,12.4082,6.4756,18.8076,9.1211,2.9913,1.2364,6.043,2.6104,9.2286,1.1846,3.7402-1.6758,6.5478-6.8184,8.8388-10.8418a14.52071,14.52071,0,0,0,3.1075,3.4981,12.5157,12.5157,0,0,0,9.5449,2.6523.91989.91989,0,0,0-.1973-1.8281,10.48163,10.48163,0,0,1-6.9726-1.4239c-.9786-.5918-3.9209-2.8964-4.4395-4.6933.1709-.2852.3408-.5606.5068-.8213q3.44535-5.38485,6.584-10.958a.77427.77427,0,0,0,.8799.4306c9.8184-1.6826,27.2236-6.705,35.3623.2022,7.8291,6.6426,9.9961,20.4219,12.2705,30.4023-1.2793,8.0733-9.3984,1.7666-11.3633-.1132a30.7378,30.7378,0,0,1-4.7353-5.9922,35.18529,35.18529,0,0,1-4.8477-13.4824c-.1816-1.1661-2.0127-.9766-1.8291.1972a38.67072,38.67072,0,0,0,6.6035,16.6309c-7.8847-2.7051-16.7226-6.8614-16.9101-16.4141-.0235-1.1826-1.8535-.9805-1.8301.1973a14.46955,14.46955,0,0,0,3.5781,9.3867,13.00311,13.00311,0,0,1-13.0615-11.0684c-.1699-1.1679-2.001-.9785-1.8291.1973a14.89761,14.89761,0,0,0,15.3916,12.7012.75958.75958,0,0,0,.7275-.5254c3.7891,3.6348,9.2491,5.9082,14.2774,7.5762a.94347.94347,0,0,0,1.043-.2989,26.55613,26.55613,0,0,0,4.1806,3.9981c3.7051,2.8154,9.6953,3.4179,11.8037-.7461a1.02245,1.02245,0,0,0,.9082-1.2383C191.82428,105.69,191.74618,105.33937,191.66908,105.00247Zm-66.3252-67.0137q7.3506,3.92,14.5918,8.04,1.97595,1.12065,3.9414,2.2598c4.7119,2.4258,3.1406,4.1104,1.539,4.1221q-11.8197,1.03125-23.6386,2.0644c-7.2666.6329-20.8526,4.4112-26.1993-1.1396-5.538-5.751-9.7158-14.2334-14.1347-20.8604-4.3897-6.5839-7.9834-13.1377-12.1192-19.7656C88.07728,20.39117,107.54108,28.48877,125.34388,37.98877Zm-76.3535,12.2617a31.48331,31.48331,0,0,1,2.3486-5.2617c.0166-.0029.0351-.0019.0517-.0058a.99682.99682,0,0,0,.6768-1.418c.25-.4863.502-.9737.7168-1.4336q3.4482-7.37985,6.8965-14.7598a.92659.92659,0,0,0,.3183-.6806l6.4297-13.7579q9.36045,14.4639,19.0039,28.7403-18.6576,6.91995-37.1474,14.2793A19.29605,19.29605,0,0,1,48.99038,50.25047Zm94.5537,15.6914q-3.40875,6.6051-7.2549,12.9746-1.3668,2.2662-2.7949,4.4942a.94986.94986,0,0,0-.9473.5312,2.54425,2.54425,0,0,0-.2275,1.2774c-.7637,1.1738-1.5254,2.3476-2.3096,3.5078-2.2881,3.3799-3.0791,4.6142-6.8281,5.959a.81071.81071,0,0,0,.0752-.2305,174.60641,174.60641,0,0,0,.1738-37.3838.92036.92036,0,0,0-1.8291.1963,172.39,172.39,0,0,1-.1641,36.9082.88012.88012,0,0,0,.5293.9297c-4.8408,1.5566-4.501,1.1758-8.833-.8555-2.2539-1.0547-4.4922-2.1425-6.7305-3.2285q-7.38855-3.583-14.7089-7.3066-13.97175-7.10895-27.6758-14.7305c-3.8028-2.1152-12.0235-4.9434-14.5547-8.5254a6.58415,6.58415,0,0,1-.9844-2.6074q18.8643-7.503,37.8994-14.5703a.64394.64394,0,0,0,.0967-.0606q5.03325,7.44435,10.1318,14.8438a.92981.92981,0,0,0,.8467.3799q24.315-2.12415,48.6299-4.2471c3.5918-.3164,1.6875,2.5019,1.3955,3.7393C147.34088,59.88327,144.43568,64.21237,143.54408,65.94187Z"/>
          <path d="M47.798,16.17337a.92091.92091,0,0,0,1.83-.1983,12.926,12.926,0,0,0-5.0449-8.7353c-.9433-.7139-2.1172.7031-1.1718,1.418A11.072,11.072,0,0,1,47.798,16.17337Z"/>
          <path d="M45.62608,23.065c.4971,1.0693,2.2197.4219,1.7187-.6543q-2.06835-4.44585-4.1377-8.8926c-.498-1.0693-2.2197-.4219-1.7197.6543Q43.55723,18.61957,45.62608,23.065Z"/>
          <path d="M88.77448,36.53857q-3.43935-6.24465-6.8779-12.4892c-.5703-1.0372-2.0615.0449-1.4961,1.0703q3.438,6.24315,6.8779,12.4883C87.84968,38.64507,89.34,37.565,88.77448,36.53857Z"/>
          <path d="M92.74128,39.92047c.544,1.0371,2.2686.3935,1.7198-.6543q-2.6676-5.0919-5.3321-10.1836c-.5439-1.0381-2.2685-.3946-1.7197.6543Q90.07523,34.82862,92.74128,39.92047Z"/>
          <path d="M111.57138,87.20457a54.33278,54.33278,0,0,1-11.8691-4.874c-1.0352-.5723-1.7813,1.1074-.752,1.6787a56.37536,56.37536,0,0,0,12.3428,5.0137C112.43078,89.33837,112.70228,87.51807,111.57138,87.20457Z"/>
          <path d="M106.171,81.02977c-1.0176-.6025-1.7617,1.0811-.7529,1.6797a32.069,32.069,0,0,0,9.5576,3.7461c1.1553.2539,1.4336-1.5644.2793-1.8184A30.50988,30.50988,0,0,1,106.171,81.02977Z"/>
          <path d="M176.97958,91.56987a.92089.92089,0,0,0-1.8301.1972,20.00082,20.00082,0,0,0,6.0899,12.3653c.8525.8232,2.0176-.6006,1.1709-1.418A18.02034,18.02034,0,0,1,176.97958,91.56987Z"/>
          <path d="M186.30868,105.76707c.8193.8545,1.9824-.5732,1.1719-1.4179a16.46349,16.46349,0,0,1-4.4277-9.2666.921.921,0,0,0-1.8301.1982A18.54185,18.54185,0,0,0,186.30868,105.76707Z"/>
        </g>
      </g>
    </g>
  </g>
</svg>
