<svg xmlns="http://www.w3.org/2000/svg" viewBox="0 0 73.08955 77.03651">
  <title>Recurso 8</title>
  <g id="Capa_2" data-name="Capa 2">
    <g id="Editar">
      <g>
        <g>
          <path d="M38.08551,60.59949v4.4317c-.3008.3203-.5918.6211-.874.9307a3.87507,3.87507,0,0,1-3.5635,1.4423,2.92265,2.92265,0,0,0-.8457.001,3.97616,3.97616,0,0,1-3.5781-1.4092c-.5059-.5097-1.0371-.956-.9512-1.7783a1.39228,1.39228,0,0,0-.1543-.6074,1.80815,1.80815,0,0,0-3.4707.1816,2.51094,2.51094,0,0,0-.0918.8369,5.74822,5.74822,0,0,1-.5605,2.8721,3.04168,3.04168,0,0,0-.2539,1.2305,6.07446,6.07446,0,0,1-1.1739,3.1269,2.90456,2.90456,0,0,1-2.4296,1.46c-.9825.0537-1.9707.0117-2.918.0117a5.28257,5.28257,0,0,1-1.6192-4.0752c-.0908-2.1133-.0195-4.2334-.039-6.3506a4.15971,4.15971,0,0,1,.5478-2.0127c.5596-1.0605,1.0528-2.1562,1.5811-3.2334a1.77908,1.77908,0,0,0-.3526-2.3125,2.34678,2.34678,0,0,0-2.5576-.4931,6.17255,6.17255,0,0,0-1.2207.8291c-1.0732.7978-2.1269,1.625-3.2177,2.4004a2.58755,2.58755,0,0,1-1.1397.4873c-1.4004.1543-2.8066.2773-4.2129.3213-.8418.0263-1.2451-.3409-1.2666-1.0996-.0361-1.2666-.0166-2.5381.0459-3.8047a3.38928,3.38928,0,0,1,1.1006-2.2286c.8467-.8515,1.6279-1.7792,2.5459-2.5449a9.00744,9.00744,0,0,1,4.0488-2.1455c1.6582-.3174,3.3037-.7041,4.9541-1.0635.2061-.0449.4112-.1025.6143-.164.8711-.2608,1.1933-.6143,1.1582-1.2637a1.31835,1.31835,0,0,0-1.2442-1.2383,20.87973,20.87973,0,0,0-3.1347-.3593c-2.3701-.0772-2.9395-.0752-4.0293-2.8809a20.34917,20.34917,0,0,1-.9473-3.6865c-.5888-3.1826,1.5606-5.5108,4.836-5.2862a8.85228,8.85228,0,0,1,3.8193,1.1426,4.05221,4.05221,0,0,1,1.4678,1.4619,41.59881,41.59881,0,0,1,2.0918,4.3819,7.26028,7.26028,0,0,1,.1797,1.8789,1.84647,1.84647,0,0,0,3.0761,1.3945,4.37519,4.37519,0,0,0,1.0928-1.2646,10.15231,10.15231,0,0,1,3.6045-3.1973,5.89877,5.89877,0,0,1,2.8545-.6943c1.6201-.0821,3.2471-.0235,4.8711-.042a1.83215,1.83215,0,0,1,1.5791.8681,18.2616,18.2616,0,0,1,3.0342,6.4746,11.38706,11.38706,0,0,1-.0118,3.9854c-.1201,1.0723-1.0439,1.6396-1.9482,2.0781-.8867.4297-1.8125.7783-2.7178,1.1729a5.20564,5.20564,0,0,0-1.1338.5566,3.22775,3.22775,0,0,1-2.3183.835,1.96147,1.96147,0,0,0-.8145.1904.78844.78844,0,0,0-.4111,1.0508,3.47535,3.47535,0,0,1,.5185,1.5547,2.84092,2.84092,0,0,0,1.5918,2.1279A15.92583,15.92583,0,0,1,38.08551,60.59949Zm-7.4726-7.9941c0-.1143-.0157-.3984.0019-.6797a3.71209,3.71209,0,0,0-1.166-2.8408,7.58527,7.58527,0,0,0-7.2871-2.4346,1.991,1.991,0,0,0-1.7842,1.792c-.0732.3272-.0732.7666-.2861.9512-1.2793,1.1172-1.2315,2.6406-1.2988,4.1055a3.91658,3.91658,0,0,0,2.7373,4.082,11.4659,11.4659,0,0,0,4.9951.5898,4.2904,4.2904,0,0,0,3.5351-2.3369A4.78316,4.78316,0,0,0,30.61291,52.60539Z" fill="#ff6052" fill-rule="evenodd"/>
          <path d="M22.38631,53.93939a9.42808,9.42808,0,0,1-.3613-3.4512c1.334-1.1045,1.9316-1.2012,3.1914-.5137a7.379,7.379,0,0,1,.8906.5616,2.75807,2.75807,0,0,1,.9395,3.3545,1.34175,1.34175,0,0,1-1.1748.7646A6.03909,6.03909,0,0,1,22.38631,53.93939Z" fill="#ffbd52" fill-rule="evenodd"/>
        </g>
        <g>
          <path d="M36.97031,54.02919c1.2109,1.2891,2.2656,2.5157,3.4316,3.6241a4.38217,4.38217,0,0,1,1.4239,3.3945c-.0088,1.3428-.0352,2.6865.0078,4.0283a3.24576,3.24576,0,0,1-1.0098,2.4727c-.6406.6562-1.3281,1.2675-1.9814,1.9121a5.223,5.223,0,0,1-3.837,1.5039c-.707,0-1.413.0019-2.1201.0019-2.8974-.0009-2.8974-.0009-5.2412-1.2548-.4805,1.0957-.918,2.2089-1.4473,3.2763a6.71789,6.71789,0,0,1-6.4199,4.0176c-.916.0019-1.8359-.041-2.748.0215a2.84765,2.84765,0,0,1-2.5996-1.1436,13.13009,13.13009,0,0,1-1.7578-2.8662,11.02858,11.02858,0,0,1-.8682-4.7549c.081-1.5507.04-3.1084.0283-4.6631-.0039-.5449-.0781-1.0898-.1211-1.6328-1.6533.1836-3.1875.3672-4.7265.5166-.7012.0674-1.4141.0244-2.1133.1006-2.0508.2246-3.2969-1.0195-4.4121-2.4336a2.43569,2.43569,0,0,1-.4356-1.3867c-.0283-1.6924-.0547-3.3926.0781-5.0781a6.76977,6.76977,0,0,1,2.3106-4.625c.6836-.6133,1.3105-1.2881,1.96-1.9385a8.21133,8.21133,0,0,1,2.8642-2.1309,4.347,4.347,0,0,0,.8008-.5595c-.1641-.3262-.291-.6319-.46-.9121a20.76315,20.76315,0,0,1-2.3486-7.4346,6.52275,6.52275,0,0,1,2.6641-6.5215,8.66014,8.66014,0,0,1,7.7754-1.7324c2.1308.5537,4.2441,1.2129,5.6425,3.0908a23.71953,23.71953,0,0,1,1.5537,2.5147c.4073.7207.753,1.4775,1.1934,2.3505.6885-.4277,1.3057-.748,1.8506-1.164a9.88745,9.88745,0,0,1,6.3418-1.9932c1.7676.0225,3.5342.0303,5.3008.002a3.57561,3.57561,0,0,1,2.9609,1.3779,15.779,15.779,0,0,1,1.2598,1.7002,22.02794,22.02794,0,0,1,3.3359,8.1699,13.03329,13.03329,0,0,1-.2266,4.6338,5.38327,5.38327,0,0,1-1.9902,3.167,9.00315,9.00315,0,0,1-3.1748,1.6494C38.83551,53.58289,37.94,53.78409,36.97031,54.02919Zm1.1152,6.5703a15.92583,15.92583,0,0,0-3.9883-3.5185,2.84092,2.84092,0,0,1-1.5918-2.1279,3.47535,3.47535,0,0,0-.5185-1.5547.78844.78844,0,0,1,.4111-1.0508,1.96147,1.96147,0,0,1,.8145-.1904,3.22775,3.22775,0,0,0,2.3183-.835,5.20564,5.20564,0,0,1,1.1338-.5566c.9053-.3946,1.8311-.7432,2.7178-1.1729.9043-.4385,1.8281-1.0058,1.9482-2.0781a11.38706,11.38706,0,0,0,.0118-3.9854,18.2616,18.2616,0,0,0-3.0342-6.4746,1.83215,1.83215,0,0,0-1.5791-.8681c-1.624.0185-3.251-.0401-4.8711.042a5.89877,5.89877,0,0,0-2.8545.6943,10.15231,10.15231,0,0,0-3.6045,3.1973,4.37519,4.37519,0,0,1-1.0928,1.2646,1.84647,1.84647,0,0,1-3.0761-1.3945,7.26028,7.26028,0,0,0-.1797-1.8789,41.59881,41.59881,0,0,0-2.0918-4.3819,4.05221,4.05221,0,0,0-1.4678-1.4619,8.85228,8.85228,0,0,0-3.8193-1.1426c-3.2754-.2246-5.4248,2.1036-4.836,5.2862a20.34917,20.34917,0,0,0,.9473,3.6865c1.0898,2.8057,1.6592,2.8037,4.0293,2.8809a20.87973,20.87973,0,0,1,3.1347.3593,1.31835,1.31835,0,0,1,1.2442,1.2383c.0351.6494-.2871,1.0029-1.1582,1.2637-.2031.0615-.4082.1191-.6143.164-1.6504.3594-3.2959.7461-4.9541,1.0635a9.00744,9.00744,0,0,0-4.0488,2.1455c-.918.7657-1.6992,1.6934-2.5459,2.5449a3.38928,3.38928,0,0,0-1.1006,2.2286c-.0625,1.2666-.082,2.5381-.0459,3.8047.0215.7587.4248,1.1259,1.2666,1.0996,1.4063-.044,2.8125-.167,4.2129-.3213a2.58755,2.58755,0,0,0,1.1397-.4873c1.0908-.7754,2.1445-1.6026,3.2177-2.4004a6.17255,6.17255,0,0,1,1.2207-.8291,2.34678,2.34678,0,0,1,2.5576.4931,1.77908,1.77908,0,0,1,.3526,2.3125c-.5283,1.0772-1.0215,2.1729-1.5811,3.2334a4.15971,4.15971,0,0,0-.5478,2.0127c.0195,2.1172-.0518,4.2373.039,6.3506a5.28257,5.28257,0,0,0,1.6192,4.0752c.9473,0,1.9355.042,2.918-.0117a2.90456,2.90456,0,0,0,2.4296-1.46,6.07446,6.07446,0,0,0,1.1739-3.1269,3.04168,3.04168,0,0,1,.2539-1.2305,5.74822,5.74822,0,0,0,.5605-2.8721,2.51094,2.51094,0,0,1,.0918-.8369,1.80815,1.80815,0,0,1,3.4707-.1816,1.39228,1.39228,0,0,1,.1543.6074c-.0859.8223.4453,1.2686.9512,1.7783a3.97616,3.97616,0,0,0,3.5781,1.4092,2.92265,2.92265,0,0,1,.8457-.001,3.87507,3.87507,0,0,0,3.5635-1.4423c.2822-.3096.5732-.6104.874-.9307Z" fill="#4f2400" fill-rule="evenodd"/>
          <path d="M30.61291,52.60539a4.78316,4.78316,0,0,1-.5528,3.2285,4.2904,4.2904,0,0,1-3.5351,2.3369,11.4659,11.4659,0,0,1-4.9951-.5898,3.91658,3.91658,0,0,1-2.7373-4.082c.0673-1.4649.0195-2.9883,1.2988-4.1055.2129-.1846.2129-.624.2861-.9512a1.991,1.991,0,0,1,1.7842-1.792,7.58527,7.58527,0,0,1,7.2871,2.4346,3.71209,3.71209,0,0,1,1.166,2.8408C30.59721,52.207,30.61291,52.49109,30.61291,52.60539Zm-8.2266,1.334a6.03909,6.03909,0,0,0,3.4854.7158,1.34175,1.34175,0,0,0,1.1748-.7646,2.75807,2.75807,0,0,0-.9395-3.3545,7.379,7.379,0,0,0-.8906-.5616c-1.2598-.6875-1.8574-.5908-3.1914.5137A9.42808,9.42808,0,0,0,22.38631,53.93939Z" fill="#4f2400" fill-rule="evenodd"/>
        </g>
      </g>
      <g>
        <g>
          <path d="M65.94961,33.06339v4.4317c-.3007.3203-.5918.6211-.874.9306a3.87506,3.87506,0,0,1-3.5634,1.4424,2.91981,2.91981,0,0,0-.8458.001,3.97616,3.97616,0,0,1-3.5781-1.4092c-.5058-.5098-1.0371-.956-.9511-1.7783a1.39244,1.39244,0,0,0-.1544-.6074,1.808,1.808,0,0,0-3.4706.1816,2.50843,2.50843,0,0,0-.0919.8369,5.74627,5.74627,0,0,1-.5605,2.8721,3.04335,3.04335,0,0,0-.2539,1.2305,6.076,6.076,0,0,1-1.1737,3.1269,2.9056,2.9056,0,0,1-2.4298,1.46c-.9824.0537-1.9707.0117-2.918.0117a5.28248,5.28248,0,0,1-1.6191-4.0752c-.0909-2.1133-.0196-4.2334-.0391-6.3506a4.15822,4.15822,0,0,1,.548-2.0127c.5594-1.0605,1.0526-2.1562,1.581-3.2334a1.7793,1.7793,0,0,0-.3526-2.3125,2.34685,2.34685,0,0,0-2.5576-.4931,6.17029,6.17029,0,0,0-1.2208.8291c-1.0732.7978-2.1269,1.625-3.2177,2.4003a2.58476,2.58476,0,0,1-1.1397.4873c-1.4004.1543-2.8066.2774-4.2129.3213-.8417.0264-1.2451-.3408-1.2666-1.0996-.0361-1.2666-.0166-2.5381.0459-3.8047a3.38971,3.38971,0,0,1,1.1006-2.2285c.8467-.8515,1.6279-1.7793,2.5459-2.5449a9.00647,9.00647,0,0,1,4.0488-2.1455c1.6582-.3174,3.3038-.7041,4.9541-1.0635.2061-.0449.4112-.1025.6143-.164.8711-.2608,1.1934-.6143,1.1583-1.2637a1.31835,1.31835,0,0,0-1.2442-1.2383,20.89569,20.89569,0,0,0-3.1348-.3594c-2.37-.0771-2.9395-.0752-4.0293-2.8808a20.35846,20.35846,0,0,1-.9473-3.6866c-.5888-3.1826,1.5606-5.5107,4.836-5.2861a8.85092,8.85092,0,0,1,3.8193,1.1426,4.05143,4.05143,0,0,1,1.4678,1.4619,41.60672,41.60672,0,0,1,2.0918,4.3818,7.25678,7.25678,0,0,1,.1797,1.8789,1.84648,1.84648,0,0,0,3.0761,1.3946,4.37592,4.37592,0,0,0,1.0929-1.2647,10.15183,10.15183,0,0,1,3.6044-3.1972,5.9001,5.9001,0,0,1,2.8546-.6944c1.62-.082,3.247-.0234,4.871-.042a1.83247,1.83247,0,0,1,1.5791.8682,18.25987,18.25987,0,0,1,3.0342,6.4746,11.387,11.387,0,0,1-.0117,3.9854c-.1202,1.0722-1.044,1.6396-1.9483,2.0781-.8867.4297-1.8125.7783-2.7178,1.1728a5.20518,5.20518,0,0,0-1.1337.5567,3.22763,3.22763,0,0,1-2.3184.8349,1.96273,1.96273,0,0,0-.8144.1905.78846.78846,0,0,0-.4112,1.0508,3.47426,3.47426,0,0,1,.5186,1.5546,2.84045,2.84045,0,0,0,1.5918,2.128A15.91971,15.91971,0,0,1,65.94961,33.06339Zm-7.4726-7.9941c0-.1143-.0156-.3985.0019-.6797a3.71174,3.71174,0,0,0-1.166-2.8408,7.58527,7.58527,0,0,0-7.2871-2.4346,1.991,1.991,0,0,0-1.7842,1.792c-.0732.3271-.0732.7666-.2861.9512-1.2793,1.1172-1.2313,2.6406-1.2988,4.1054a3.91663,3.91663,0,0,0,2.7373,4.0821,11.46617,11.46617,0,0,0,4.9952.5898,4.29024,4.29024,0,0,0,3.535-2.3369A4.78316,4.78316,0,0,0,58.477,25.06929Z" fill="#ff6052" fill-rule="evenodd"/>
          <path d="M50.25041,26.40329a9.428,9.428,0,0,1-.3612-3.4512c1.334-1.1045,1.9315-1.2012,3.1913-.5137a7.39187,7.39187,0,0,1,.8907.5615,2.75807,2.75807,0,0,1,.9394,3.3545,1.34185,1.34185,0,0,1-1.1748.7647A6.0399,6.0399,0,0,1,50.25041,26.40329Z" fill="#ffbd52" fill-rule="evenodd"/>
        </g>
        <g>
          <path d="M64.83441,26.49309c1.2109,1.2891,2.2656,2.5156,3.4316,3.624a4.38252,4.38252,0,0,1,1.4239,3.3946c-.0087,1.3427-.0352,2.6865.0078,4.0283a3.24539,3.24539,0,0,1-1.0098,2.4726c-.6406.6563-1.3281,1.2676-1.9814,1.9122a5.22287,5.22287,0,0,1-3.8369,1.5039c-.7071,0-1.4131.0019-2.1202.0019-2.8974-.001-2.8974-.001-5.2412-1.2549-.4804,1.0957-.9179,2.209-1.4472,3.2764a6.71818,6.71818,0,0,1-6.42,4.0176c-.916.0019-1.8358-.041-2.748.0215a2.848,2.848,0,0,1-2.5996-1.1436,13.134,13.134,0,0,1-1.7578-2.8662,11.02858,11.02858,0,0,1-.8682-4.7549c.0811-1.5508.0401-3.1084.0283-4.6631-.0039-.5449-.0781-1.0898-.1211-1.6328-1.6533.1836-3.1874.3672-4.7264.5166-.7013.0674-1.4142.0244-2.1134.1006-2.0508.2246-3.2969-1.0195-4.4121-2.4336a2.43584,2.43584,0,0,1-.4355-1.3867c-.0284-1.6924-.0547-3.3926.0781-5.0781a6.76925,6.76925,0,0,1,2.3105-4.625c.6836-.6133,1.3106-1.2881,1.96-1.9385A8.211,8.211,0,0,1,35.1,17.455a4.34368,4.34368,0,0,0,.8008-.5595c-.1641-.3262-.291-.6319-.4599-.9122a20.76479,20.76479,0,0,1-2.3487-7.4345,6.52286,6.52286,0,0,1,2.6641-6.5215,8.6602,8.6602,0,0,1,7.7754-1.7324c2.1308.5537,4.2441,1.2129,5.6425,3.0908a23.72909,23.72909,0,0,1,1.5538,2.5146c.4072.7207.7529,1.4776,1.1933,2.3506.6885-.4277,1.3057-.748,1.8506-1.164a9.88705,9.88705,0,0,1,6.3418-1.9932c1.7676.0225,3.5342.0303,5.3008.0019a3.576,3.576,0,0,1,2.9609,1.378,15.739,15.739,0,0,1,1.2598,1.7002,22.02812,22.02812,0,0,1,3.336,8.1699,13.0356,13.0356,0,0,1-.2266,4.6338,5.3842,5.3842,0,0,1-1.9903,3.167,9.00145,9.00145,0,0,1-3.1748,1.6494C66.69961,26.04679,65.80421,26.248,64.83441,26.49309Zm1.1152,6.5703a15.91971,15.91971,0,0,0-3.9882-3.5185,2.84045,2.84045,0,0,1-1.5918-2.128,3.47426,3.47426,0,0,0-.5186-1.5546.78846.78846,0,0,1,.4112-1.0508,1.96273,1.96273,0,0,1,.8144-.1905,3.22763,3.22763,0,0,0,2.3184-.8349,5.20518,5.20518,0,0,1,1.1337-.5567c.9053-.3945,1.8311-.7431,2.7178-1.1728.9043-.4385,1.8281-1.0059,1.9483-2.0781a11.387,11.387,0,0,0,.0117-3.9854,18.25987,18.25987,0,0,0-3.0342-6.4746,1.83247,1.83247,0,0,0-1.5791-.8682c-1.624.0186-3.251-.04-4.871.042a5.9001,5.9001,0,0,0-2.8546.6944,10.15183,10.15183,0,0,0-3.6044,3.1972,4.37592,4.37592,0,0,1-1.0929,1.2647,1.84648,1.84648,0,0,1-3.0761-1.3946,7.25678,7.25678,0,0,0-.1797-1.8789,41.60672,41.60672,0,0,0-2.0918-4.3818,4.05143,4.05143,0,0,0-1.4678-1.4619,8.85092,8.85092,0,0,0-3.8193-1.1426c-3.2754-.2246-5.4248,2.1035-4.836,5.2861a20.35846,20.35846,0,0,0,.9473,3.6866c1.0898,2.8056,1.6593,2.8037,4.0293,2.8808a20.89569,20.89569,0,0,1,3.1348.3594,1.31835,1.31835,0,0,1,1.2442,1.2383c.0351.6494-.2872,1.0029-1.1583,1.2637-.2031.0615-.4082.1191-.6143.164-1.6503.3594-3.2959.7461-4.9541,1.0635a9.00647,9.00647,0,0,0-4.0488,2.1455c-.918.7656-1.6992,1.6934-2.5459,2.5449a3.38971,3.38971,0,0,0-1.1006,2.2285c-.0625,1.2666-.082,2.5381-.0459,3.8047.0215.7588.4249,1.126,1.2666,1.0996,1.4063-.0439,2.8125-.167,4.2129-.3213a2.58476,2.58476,0,0,0,1.1397-.4873c1.0908-.7753,2.1445-1.6025,3.2177-2.4003a6.17029,6.17029,0,0,1,1.2208-.8291,2.34685,2.34685,0,0,1,2.5576.4931,1.7793,1.7793,0,0,1,.3526,2.3125c-.5284,1.0772-1.0216,2.1729-1.581,3.2334a4.15822,4.15822,0,0,0-.548,2.0127c.0195,2.1172-.0518,4.2373.0391,6.3506a5.28248,5.28248,0,0,0,1.6191,4.0752c.9473,0,1.9356.042,2.918-.0117a2.9056,2.9056,0,0,0,2.4298-1.46,6.076,6.076,0,0,0,1.1737-3.1269,3.04335,3.04335,0,0,1,.2539-1.2305,5.74627,5.74627,0,0,0,.5605-2.8721,2.50843,2.50843,0,0,1,.0919-.8369,1.808,1.808,0,0,1,3.4706-.1816,1.39244,1.39244,0,0,1,.1544.6074c-.086.8223.4453,1.2685.9511,1.7783a3.97616,3.97616,0,0,0,3.5781,1.4092,2.91981,2.91981,0,0,1,.8458-.001,3.87506,3.87506,0,0,0,3.5634-1.4424c.2822-.3095.5733-.6103.874-.9306Z" fill="#4f2400" fill-rule="evenodd"/>
          <path d="M58.477,25.06929a4.78316,4.78316,0,0,1-.5528,3.2285,4.29024,4.29024,0,0,1-3.535,2.3369,11.46617,11.46617,0,0,1-4.9952-.5898,3.91663,3.91663,0,0,1-2.7373-4.0821c.0675-1.4648.0195-2.9882,1.2988-4.1054.2129-.1846.2129-.6241.2861-.9512a1.991,1.991,0,0,1,1.7842-1.792,7.58527,7.58527,0,0,1,7.2871,2.4346,3.71174,3.71174,0,0,1,1.166,2.8408C58.46141,24.67079,58.477,24.955,58.477,25.06929Zm-8.2266,1.334a6.0399,6.0399,0,0,0,3.4854.7158,1.34185,1.34185,0,0,0,1.1748-.7647,2.75807,2.75807,0,0,0-.9394-3.3545,7.39187,7.39187,0,0,0-.8907-.5615c-1.2598-.6875-1.8573-.5908-3.1913.5137A9.428,9.428,0,0,0,50.25041,26.40329Z" fill="#4f2400" fill-rule="evenodd"/>
        </g>
      </g>
    </g>
  </g>
</svg>
