<svg xmlns="http://www.w3.org/2000/svg" viewBox="0 0 80.17064 65.2149">
  <title>Recurso 2</title>
  <g id="Capa_2" data-name="Capa 2">
    <g id="Editar">
      <g>
        <g>
          <path d="M48.35614,21.6885l4.6211-8.6103a2.22913,2.22913,0,1,0-3.9282-2.1084l-3.7485,6.9843a11.84113,11.84113,0,0,0-1.9424-1.664L45.11695,3.9287a2.66012,2.66012,0,1,0-5.26711-.75l-1.585,11.1358a11.84231,11.84231,0,0,0-2.0376-.1094L34.69844,3.1328a2.66056,2.66056,0,0,0-5.271.7286l1.62551,11.7627a11.74537,11.74537,0,0,0-1.917,1.2919L26.09444,7.1807a2.66215,2.66215,0,1,0-5.082,1.5879L25.34,22.6231a11.73557,11.73557,0,0,0-.4897,3.9863l-4.54539-1.8496a3.00464,3.00464,0,1,0-2.26421,5.5664l8.80521,3.5811a2.99494,2.99494,0,0,0,1.19719.2177,11.81782,11.81782,0,0,0,19.837-11.8437A2.1835,2.1835,0,0,0,48.35614,21.6885Z" fill="#fff"/>
          <g>
            <path d="M36.65014,38.7012h0a12.712,12.712,0,0,1-8.9795-3.75,3.78553,3.78553,0,0,1-1.1406-.2685l-8.8042-3.5831a3.84034,3.84034,0,0,1,2.895-7.1142l3.3906,1.3789a12.5508,12.5508,0,0,1,.4507-2.7471L20.214,9.0176a3.4956,3.4956,0,0,1,3.3335-4.541,3.53217,3.53217,0,0,1,3.3453,2.4541l2.685,8.5947q.2784-.1875.5669-.3613L28.59934,3.9756A3.50545,3.50545,0,0,1,31.58464.0332,3.5803,3.5803,0,0,1,32.06324,0,3.51222,3.51222,0,0,1,35.527,3.0196l1.4283,10.3437c.1982.0039.3969.0147.5961.0293l1.4703-10.332A3.5132,3.5132,0,0,1,42.48454.0567a3.61213,3.61213,0,0,1,.4913.0351,3.50088,3.50088,0,0,1,2.9697,3.9541l-1.686,11.8457c.2861.2139.5639.4424.8325.6817l3.2192-5.999a3.0658,3.0658,0,0,1,5.4033,2.8984L49.09295,22.085a2.8303,2.8303,0,0,1-.26561.4062,12.66165,12.66165,0,0,1-10.4302,16.0909A12.95033,12.95033,0,0,1,36.65014,38.7012Zm-8.6143-5.4111a.83623.83623,0,0,1,.6099.2636,11.03117,11.03117,0,0,0,8.0044,3.4756h0a11.1611,11.1611,0,0,0,1.5176-.1054,11.00909,11.00909,0,0,0,9.3891-12.3975,11.13374,11.13374,0,0,0-.4658-1.9844.8382.8382,0,0,1,.2324-.8857,1.34214,1.34214,0,0,0,.2959-.3633l4.62061-8.6113a1.39321,1.39321,0,0,0-.56831-1.8848,1.359,1.359,0,0,0-.6524-.1641,1.395,1.395,0,0,0-1.2334.7325l-3.7451,6.9785a.83686.83686,0,0,1-1.3472.1767,11.20634,11.20634,0,0,0-1.80659-1.5566.83578.83578,0,0,1-.355-.8066L44.28924,3.8106a1.82773,1.82773,0,0,0-1.5488-2.0635,2.04327,2.04327,0,0,0-.2559-.0176,1.83363,1.83363,0,0,0-1.80659,1.5664l-1.58351,11.128a.83623.83623,0,0,1-.9404.7119,11.03692,11.03692,0,0,0-1.8955-.0957.84209.84209,0,0,1-.8599-.7207L33.86934,3.2481a1.82989,1.82989,0,0,0-1.8061-1.5742,1.77817,1.77817,0,0,0-.2495.0175,1.83105,1.83105,0,0,0-1.5572,2.0547l1.6231,11.75a.83752.83752,0,0,1-.4326.8516,10.91723,10.91723,0,0,0-1.7823,1.2012.83651.83651,0,0,1-1.3315-.3955l-3.0371-9.7237a1.84531,1.84531,0,0,0-1.7486-1.2812,1.8305,1.8305,0,0,0-1.7368,2.3701L26.134,22.3594a.83416.83416,0,0,1,.0024.4912,10.91666,10.91666,0,0,0-.4551,3.7149.83528.83528,0,0,1-1.15039.8154l-4.54151-1.8457a2.1111,2.1111,0,0,0-.8086-.1592,2.1689,2.1689,0,0,0-.8252,4.1758l8.8052,3.581a2.12045,2.12045,0,0,0,.80811.1573h.06689Z" fill="#1d1d1b"/>
            <path d="M28.96554,24.7998a.87592.87592,0,0,1-.2173-.0293.83628.83628,0,0,1-.5908-1.0253,8.8077,8.8077,0,0,1,15.06451-3.5909.83646.83646,0,0,1-1.24521,1.1172,7.13445,7.13445,0,0,0-12.2036,2.9092A.83805.83805,0,0,1,28.96554,24.7998Z" fill="#1d1d1b"/>
          </g>
        </g>
        <g>
          <path d="M78.82684,34.4698a1.9003,1.9003,0,0,0-2.6792-.0948l-4.9301,4.5957a10.07969,10.07969,0,0,0-1.1075-1.872l4.8023-9.4688a2.26189,2.26189,0,0,0-4.0347-2.0459L66.551,34.1133a9.99548,9.99548,0,0,0-1.6099-.6465l1.8022-9.331a2.262,2.262,0,1,0-4.4419-.8584l-1.91449,9.914a9.93243,9.93243,0,0,0-1.897.5137l.21879-8.6689a2.26367,2.26367,0,0,0-4.5259-.1143l-.311,12.3379a9.97661,9.97661,0,0,0-1.48689,3.0742l-3.15181-2.7334a2.55489,2.55489,0,0,0-3.3477,3.8604l6.10651,5.2949a2.53315,2.53315,0,0,0,.90429.5029,10.04813,10.04813,0,0,0,19.2119-4.0986,1.86814,1.86814,0,0,0,.5459-.3477l6.0786-5.664A1.90144,1.90144,0,0,0,78.82684,34.4698Z" fill="#fff"/>
          <g>
            <path d="M62.06324,54.0049h-.0005A10.91656,10.91656,0,0,1,52.277,47.919a3.33114,3.33114,0,0,1-.834-.5313l-6.1054-5.2959a3.39073,3.39073,0,0,1,4.44331-5.123l2.21979,1.9248a10.81876,10.81876,0,0,1,1.041-1.919l.3056-12.0732a3.1189,3.1189,0,0,1,3.0987-3.0215h.0781a3.10393,3.10393,0,0,1,3.021,3.1778l-.189,7.4873c.106-.0284.2119-.0528.3184-.0772l1.8057-9.3486a3.1035,3.1035,0,0,1,3.0439-2.5108,3.19844,3.19844,0,0,1,.5859.0557,3.10519,3.10519,0,0,1,2.4546,3.6299l-1.6635,8.6142c.0903.0352.1801.0694.2695.1065l3.9609-7.8096a3.09824,3.09824,0,0,1,5.52641,2.8027l-4.56841,9.0079c.1289.1904.251.3867.3677.5869l4.1206-3.8389a2.73137,2.73137,0,1,1,3.7246,3.9961l-6.0781,5.666a2.72135,2.72135,0,0,1-.2891.2315,10.89063,10.89063,0,0,1-10.872,10.3476ZM47.56174,37.8155a1.7149,1.7149,0,0,0-1.1279,3.0127l6.1059,5.2949a1.676,1.676,0,0,0,.6016.3369.83415.83415,0,0,1,.5098.4521,9.22289,9.22289,0,0,0,17.625-3.7597.83273.83273,0,0,1,.50581-.7617,1.02132,1.02132,0,0,0,.30079-.1895l6.0791-5.665a1.05911,1.05911,0,0,0,.0527-1.4961,1.06322,1.06322,0,0,0-1.4961-.0528l-4.9267,4.5909a.83642.83642,0,0,1-1.333-.2666,9.28785,9.28785,0,0,0-1.0137-1.7247.834.834,0,0,1-.0752-.8779l4.7964-9.457a1.42692,1.42692,0,0,0-.627-1.916,1.39219,1.39219,0,0,0-.6377-.1524,1.42293,1.42293,0,0,0-1.2778.7783l-4.3232,8.5235a.83577.83577,0,0,1-1.1202.3701,9.11113,9.11113,0,0,0-1.4785-.5869.83573.83573,0,0,1-.582-.96l1.8022-9.331a1.43064,1.43064,0,0,0-1.1289-1.669,1.32374,1.32374,0,0,0-.269-.0273,1.42948,1.42948,0,0,0-1.4014,1.1543l-1.9121,9.9023a.8388.8388,0,0,1-.6831.668,9.16418,9.16418,0,0,0-1.7407.4707.836.836,0,0,1-1.1328-.8037l.2187-8.6582a1.42971,1.42971,0,0,0-1.3901-1.4629H56.446a1.43631,1.43631,0,0,0-1.4268,1.3916l-.3115,12.3242a.83788.83788,0,0,1-.1567.4668,9.14947,9.14947,0,0,0-1.3643,2.8272.83731.83731,0,0,1-1.353.4013l-3.1485-2.7314A1.71426,1.71426,0,0,0,47.56174,37.8155Z" fill="#1d1d1b"/>
            <path d="M68.28734,41.2881a.83833.83833,0,0,1-.7695-.5088,5.94182,5.94182,0,0,0-10.40089-.9824.83633.83633,0,0,1-1.38921-.9316,7.61416,7.61416,0,0,1,13.3291,1.2568.83926.83926,0,0,1-.7695,1.166Z" fill="#1d1d1b"/>
          </g>
        </g>
        <g>
          <path d="M32.465,42.0264a2.562,2.562,0,0,0-3.3086,1.4502l-1.518,3.8877a9.96534,9.96534,0,0,0-2.7456-2.0283l-6.0196-10.7754a2.26329,2.26329,0,0,0-3.9521,2.207l4.2295,7.5723a9.94389,9.94389,0,0,0-1.919.4267l-6.3091-7.8828a2.262,2.262,0,1,0-3.5317,2.8272l5.939,7.4199a10.08654,10.08654,0,0,0-1.1241,1.3223L4.40644,42.917a2.262,2.262,0,1,0-2.6181,3.6895L10.445,52.751a10.13382,10.13382,0,0,0-.1079,2.1719l-6.5034-1.7715a1.89528,1.89528,0,1,0-.9966,3.6572l8.0171,2.1846a1.8578,1.8578,0,0,0,.6445.0537,10.05289,10.05289,0,0,0,18.9111-5.3164,2.52332,2.52332,0,0,0,.5664-.8662l2.94-7.5283A2.56376,2.56376,0,0,0,32.465,42.0264Z" fill="#fff"/>
          <g>
            <path d="M20.37914,65.2149a10.85322,10.85322,0,0,1-8.5147-4.0879,10.97856,10.97856,0,0,1-.8667-1.2568,2.60341,2.60341,0,0,1-.36279-.0694L2.61744,57.6153A2.73631,2.73631,0,0,1,.69995,54.2618a2.73294,2.73294,0,0,1,3.35349-1.918l5.4341,1.4814c.0097-.2324.0278-.4629.0522-.6914L1.30395,47.2881a3.10359,3.10359,0,0,1-.73341-4.3203,3.10636,3.10636,0,0,1,2.5312-1.3018,3.06964,3.06964,0,0,1,1.7886.5694l7.14061,5.0674c.06249-.0743.126-.1475.18949-.2188L6.738,40.2334a3.0983,3.0983,0,0,1,4.83791-3.872l5.94969,7.4336c.1054-.0284.2114-.0547.3178-.0801l-3.6528-6.5391a3.09672,3.09672,0,0,1,2.7002-4.6094,3.10768,3.10768,0,0,1,2.7129,1.586l5.8906,10.5439a10.84473,10.84473,0,0,1,1.814,1.2139l1.0688-2.7363a3.41857,3.41857,0,0,1,3.1656-2.1582,3.39495,3.39495,0,0,1,3.1523,4.625l-2.9395,7.5273a3.33968,3.33968,0,0,1-.4902.8594,10.89713,10.89713,0,0,1-10.8862,11.1875ZM11.49334,58.21a.83639.83639,0,0,1,.7373.4424,9.32483,9.32483,0,0,0,.9405,1.4287,9.22367,9.22367,0,0,0,16.4096-6.3057.83888.83888,0,0,1,.2403-.6377,1.68883,1.68883,0,0,0,.376-.5771l2.9394-7.5293a1.72488,1.72488,0,0,0-.9751-2.2246,1.68132,1.68132,0,0,0-.6186-.1172,1.73423,1.73423,0,0,0-1.6075,1.0918l-1.5156,3.8828a.83634.83634,0,0,1-1.3843.2734,9.13845,9.13845,0,0,0-2.52339-1.8652.84428.84428,0,0,1-.356-.3408L18.14324,34.9698a1.42387,1.42387,0,0,0-2.6167.3066,1.41342,1.41342,0,0,0,.125,1.083l4.2237,7.5625a.83632.83632,0,0,1-.6284,1.2383,9.27127,9.27127,0,0,0-1.7603.3916.8354.8354,0,0,1-.9145-.2705l-6.3018-7.874A1.42372,1.42372,0,0,0,9.153,36.875a1.40085,1.40085,0,0,0-.8862.3106,1.42539,1.42539,0,0,0-.2227,2.0019l5.9385,7.42a.83651.83651,0,0,1-.0679,1.121,9.14838,9.14838,0,0,0-1.0356,1.209.83748.83748,0,0,1-1.1636.1924L3.922,43.5996a1.40762,1.40762,0,0,0-.8203-.2607,1.43311,1.43311,0,0,0-1.1674.5977,1.4328,1.4328,0,0,0,.3374,1.9873l8.6474,6.1377a.83585.83585,0,0,1,.3423.8115,9.31036,9.31036,0,0,0-.0947,1.999.837.837,0,0,1-1.0552.8564L3.61395,53.958a1.07591,1.07591,0,0,0-1.30021.7432,1.06436,1.06436,0,0,0,.7431,1.2998l8.01711,2.1846a1.02213,1.02213,0,0,0,.35449.0263C11.45044,58.211,11.47234,58.21,11.49334,58.21Z" fill="#1d1d1b"/>
            <path d="M13.61834,55.7061a.83674.83674,0,0,1-.833-.7686,7.61586,7.61586,0,0,1,11.2119-7.3183.83705.83705,0,0,1-.79629,1.4726,5.94152,5.94152,0,0,0-8.74811,5.711.83709.83709,0,0,1-.7666.9013C13.66334,55.7051,13.64084,55.7061,13.61834,55.7061Z" fill="#1d1d1b"/>
          </g>
        </g>
      </g>
    </g>
  </g>
</svg>
