<svg xmlns="http://www.w3.org/2000/svg" viewBox="0 0 23.49355 24.76958">
  <title>Recurso 15</title>
  <g id="Capa_2" data-name="Capa 2">
    <g id="Editar">
      <g>
        <path d="M2.851,6.3759a10.38489,10.38489,0,0,1,.1699-1.1006,4.15726,4.15726,0,0,1,7.1924-2.0068,5.1169,5.1169,0,0,1,.3965.4482,5.7681,5.7681,0,0,1,1.2685,3.1201,8.47513,8.47513,0,0,1,.2071,1.8721c-.00388.377-.0215.791-.0664,1.2071a8.33908,8.33908,0,0,1,2.9013-.8399,7.45042,7.45042,0,0,1,1.0791-.0488c.0284-.0078.0577-.0166.086-.0235a3.74076,3.74076,0,0,1,3.2676.8965,4.95605,4.95605,0,0,1,1.4843,1.7832,2.40432,2.40432,0,0,1,.2608.6651c.0195.0605.042.1181.0595.1826a4.10067,4.10067,0,0,1-.8574,3.3652c-1.1953,1.9551-4.2803,2.3926-6.26367,3.0381a21.48373,21.48373,0,0,0-4.14842,1.7969,27.42853,27.42853,0,0,1-3.2617,1.7207,1.422,1.422,0,0,1-.9922-.0049,1.587,1.587,0,0,1-1.8574-1.5283,23.85979,23.85979,0,0,0-.7676-4.2656,31.92133,31.92133,0,0,1-.6289-4.5069C2.30021,10.9716,1.89891,7.8115,2.851,6.3759Z" fill="#dc4654"/>
        <path d="M1.23381,15.1415a34.67118,34.67118,0,0,0,1.9883,5.3643c.7656,1.5576,1.7021,3.3935,3.3477,4.1357a1.22836,1.22836,0,0,0,1.7695-.8213,74.90953,74.90953,0,0,0,8.82622-3.6562c2.51747-1.3848,5.51167-3.4551,6.18747-6.4668.7001-3.1328-1.2872-5.416-4.3653-5.875a8.86092,8.86092,0,0,0-4.3066.043,5.44727,5.44727,0,0,0-1.1035.5527c.3623-3.1758-.9688-6.5928-4.03708-7.9697C6.353-.9825,2.27871,1.2089.87254,4.2363-.73689,7.707.17811,11.6327,1.23381,15.1415ZM2.63621,7.79c.0908-2.6299,2.3066-5.9082,5.2812-5.7324,3.4326.2041,4.6524,4.2519,3.7705,7.0634a.76858.76858,0,0,0,.1279.7432q-.1743.17145-.3418.3418a.70241.70241,0,0,0,.9786,1.0068,4.32442,4.32442,0,0,1,3.3925-1.4619,12.26225,12.26225,0,0,1,3.3399.8545c.751.3252,1.6914.9297,1.43753,1.8936a5.78654,5.78654,0,0,1-1.59673,2.7402,23.0665,23.0665,0,0,1-6.27727,3.7715c-1.68852.8076-4.07822,1.0303-5.794,2.04a13.45894,13.45894,0,0,1-1.00582-1.6191,27.67477,27.67477,0,0,1-1.5508-3.8584C3.601,13.1074,2.54631,10.4218,2.63621,7.79Z" fill="#463131"/>
      </g>
    </g>
  </g>
</svg>
