<svg xmlns="http://www.w3.org/2000/svg" viewBox="0 0 79.0158 90.76279">
  <title>Recurso 13</title>
  <g id="Capa_2" data-name="Capa 2">
    <g id="Editar">
      <g>
        <g>
          <g>
            <path d="M43.092,33.06349v4.4316c-.3008.3203-.5918.6211-.8741.9307a3.87529,3.87529,0,0,1-3.5634,1.4424,2.91912,2.91912,0,0,0-.8457.001,3.97624,3.97624,0,0,1-3.5782-1.4092c-.5058-.5098-1.0371-.9561-.9511-1.7783a1.39408,1.39408,0,0,0-.1543-.6075,1.80813,1.80813,0,0,0-3.4707.1817,2.51066,2.51066,0,0,0-.0918.8369,5.74845,5.74845,0,0,1-.5606,2.8721,3.04331,3.04331,0,0,0-.2539,1.2304,6.0756,6.0756,0,0,1-1.17379,3.127,2.90487,2.90487,0,0,1-2.4297,1.4599c-.9824.0537-1.9707.0118-2.918.0118a5.28275,5.28275,0,0,1-1.6191-4.0752c-.0908-2.1133-.0195-4.2334-.0391-6.3506a4.16026,4.16026,0,0,1,.5479-2.0127c.5596-1.0606,1.0527-2.1563,1.581-3.2334a1.77908,1.77908,0,0,0-.3525-2.3125,2.3467,2.3467,0,0,0-2.5576-.4932,6.18116,6.18116,0,0,0-1.2207.8291c-1.0733.7979-2.127,1.625-3.2178,2.4004a2.58439,2.58439,0,0,1-1.1396.4873c-1.4004.1543-2.8067.2774-4.2129.3213-.8418.0264-1.2451-.3408-1.2666-1.0996-.0362-1.2666-.0166-2.5381.0459-3.8047a3.38881,3.38881,0,0,1,1.1006-2.2285c.8466-.8516,1.6279-1.7793,2.5458-2.5449a9.00681,9.00681,0,0,1,4.0489-2.1455c1.6582-.3174,3.3037-.7041,4.9541-1.0635.206-.0449.4111-.1026.6142-.1641.8711-.2607,1.1934-.6142,1.1582-1.2637a1.3181,1.3181,0,0,0-1.2441-1.2382,20.89263,20.89263,0,0,0-3.1348-.3594c-2.3701-.0772-2.9394-.0752-4.0293-2.8809A20.34681,20.34681,0,0,1,13.842,8.875c-.5889-3.1826,1.5605-5.5107,4.8359-5.2861a8.85049,8.85049,0,0,1,3.8193,1.1426,4.04989,4.04989,0,0,1,1.4678,1.4619,41.5878,41.5878,0,0,1,2.0918,4.3818,7.25635,7.25635,0,0,1,.1797,1.8789,1.84649,1.84649,0,0,0,3.0762,1.3945,4.37358,4.37358,0,0,0,1.09271-1.2646,10.15416,10.15416,0,0,1,3.60449-3.1973,5.8999,5.8999,0,0,1,2.85451-.6943c1.62009-.082,3.24709-.0234,4.87109-.042a1.832,1.832,0,0,1,1.5791.8682,18.25654,18.25654,0,0,1,3.0342,6.4746,11.38645,11.38645,0,0,1-.0117,3.9853c-.1201,1.0723-1.044,1.6397-1.9483,2.0782-.8867.4296-1.8125.7783-2.7177,1.1728a5.20794,5.20794,0,0,0-1.1338.5566,3.22713,3.22713,0,0,1-2.3184.835,1.961,1.961,0,0,0-.8144.1904.78852.78852,0,0,0-.4112,1.0508,3.47582,3.47582,0,0,1,.5186,1.5547,2.84058,2.84058,0,0,0,1.5918,2.1279A15.92426,15.92426,0,0,1,43.092,33.06349Zm-7.4727-7.9942c0-.1142-.0156-.3984.002-.6796a3.7128,3.7128,0,0,0-1.166-2.8409,7.5856,7.5856,0,0,0-7.2872-2.4345,1.99085,1.99085,0,0,0-1.7841,1.792c-.0733.3271-.0733.7666-.2862.9511-1.2793,1.1172-1.2314,2.6407-1.2988,4.1055a3.91651,3.91651,0,0,0,2.7373,4.082,11.466,11.466,0,0,0,4.99511.5899,4.29055,4.29055,0,0,0,3.53519-2.3369A4.78342,4.78342,0,0,0,35.61932,25.06929Z" fill="#ff6052" fill-rule="evenodd"/>
            <path d="M27.39282,26.40329a9.42771,9.42771,0,0,1-.36139-3.4511c1.334-1.1045,1.93169-1.2012,3.19139-.5137a7.38686,7.38686,0,0,1,.8907.5615,2.758,2.758,0,0,1,.9394,3.3545,1.34191,1.34191,0,0,1-1.1748.7647A6.03965,6.03965,0,0,1,27.39282,26.40329Z" fill="#ffbd52" fill-rule="evenodd"/>
          </g>
          <g>
            <path d="M41.97672,26.49319c1.211,1.289,2.26571,2.5156,3.43171,3.624a4.38207,4.38207,0,0,1,1.42379,3.3945c-.00879,1.3428-.0352,2.6866.0078,4.0283a3.24567,3.24567,0,0,1-1.0097,2.4727c-.6407.6563-1.3282,1.2676-1.9815,1.9121a5.22223,5.22223,0,0,1-3.8369,1.5039c-.707,0-1.4131.002-2.1201.002-2.8975-.001-2.8975-.001-5.2412-1.2549-.4805,1.0957-.918,2.209-1.4473,3.2764a6.718,6.718,0,0,1-6.41989,4.0175c-.916.002-1.836-.041-2.7481.0215a2.8479,2.8479,0,0,1-2.5996-1.1435,13.14017,13.14017,0,0,1-1.7578-2.8662,11.02858,11.02858,0,0,1-.8682-4.7549c.0811-1.5508.0401-3.1084.0284-4.6631-.0039-.5449-.0782-1.0899-.1211-1.6328-1.6533.1836-3.1875.3672-4.7266.5166-.7012.0674-1.4141.0244-2.1133.1006-2.0508.2246-3.2968-1.0196-4.4121-2.4336a2.43592,2.43592,0,0,1-.4355-1.3868c-.0283-1.6923-.0547-3.3925.0781-5.0781a6.77049,6.77049,0,0,1,2.3105-4.625c.6836-.6133,1.3106-1.2881,1.96-1.9385a8.21139,8.21139,0,0,1,2.8643-2.1308,4.34985,4.34985,0,0,0,.8007-.5596c-.164-.3262-.291-.6318-.4599-.9121a20.76529,20.76529,0,0,1-2.3487-7.4346,6.5229,6.5229,0,0,1,2.6641-6.5214A8.66,8.66,0,0,1,20.674.29489c2.1309.5537,4.2441,1.2129,5.6426,3.0909a23.74468,23.74468,0,0,1,1.5537,2.5146c.4072.7207.7529,1.4775,1.1934,2.3506.6884-.4277,1.3056-.7481,1.8505-1.1641a9.887,9.887,0,0,1,6.3418-1.9931c1.7676.0224,3.5342.0302,5.3008.0019a3.57606,3.57606,0,0,1,2.961,1.3779,15.78375,15.78375,0,0,1,1.2597,1.7002,22.0269,22.0269,0,0,1,3.336,8.17,13.03711,13.03711,0,0,1-.2266,4.6337,5.383,5.383,0,0,1-1.9902,3.167,9.005,9.005,0,0,1-3.1748,1.6495C43.842,26.04689,42.94652,26.24809,41.97672,26.49319Zm1.1153,6.5703a15.92426,15.92426,0,0,0-3.9883-3.5186,2.84058,2.84058,0,0,1-1.5918-2.1279,3.47582,3.47582,0,0,0-.5186-1.5547.78852.78852,0,0,1,.4112-1.0508,1.961,1.961,0,0,1,.8144-.1904,3.22713,3.22713,0,0,0,2.3184-.835,5.20794,5.20794,0,0,1,1.1338-.5566c.9052-.3945,1.831-.7432,2.7177-1.1728.9043-.4385,1.8282-1.0059,1.9483-2.0782a11.38645,11.38645,0,0,0,.0117-3.9853,18.25654,18.25654,0,0,0-3.0342-6.4746,1.832,1.832,0,0,0-1.5791-.8682c-1.624.0186-3.251-.04-4.87109.042a5.8999,5.8999,0,0,0-2.85451.6943,10.15416,10.15416,0,0,0-3.60449,3.1973,4.37358,4.37358,0,0,1-1.09271,1.2646,1.84649,1.84649,0,0,1-3.0762-1.3945,7.25635,7.25635,0,0,0-.1797-1.8789,41.5878,41.5878,0,0,0-2.0918-4.3818,4.04989,4.04989,0,0,0-1.4678-1.4619,8.85049,8.85049,0,0,0-3.8193-1.1426c-3.2754-.2246-5.4248,2.1035-4.8359,5.2861a20.34681,20.34681,0,0,0,.9472,3.6865c1.0899,2.8057,1.6592,2.8037,4.0293,2.8809a20.89263,20.89263,0,0,1,3.1348.3594,1.3181,1.3181,0,0,1,1.2441,1.2382c.0352.6495-.2871,1.003-1.1582,1.2637-.2031.0615-.4082.1192-.6142.1641-1.6504.3594-3.2959.7461-4.9541,1.0635a9.00681,9.00681,0,0,0-4.0489,2.1455c-.9179.7656-1.6992,1.6933-2.5458,2.5449a3.38881,3.38881,0,0,0-1.1006,2.2285c-.0625,1.2666-.0821,2.5381-.0459,3.8047.0215.7588.4248,1.126,1.2666,1.0996,1.4062-.0439,2.8125-.167,4.2129-.3213a2.58439,2.58439,0,0,0,1.1396-.4873c1.0908-.7754,2.1445-1.6025,3.2178-2.4004a6.18116,6.18116,0,0,1,1.2207-.8291,2.3467,2.3467,0,0,1,2.5576.4932,1.77908,1.77908,0,0,1,.3525,2.3125c-.5283,1.0771-1.0214,2.1728-1.581,3.2334a4.16026,4.16026,0,0,0-.5479,2.0127c.0196,2.1172-.0517,4.2373.0391,6.3506a5.28275,5.28275,0,0,0,1.6191,4.0752c.9473,0,1.9356.0419,2.918-.0118a2.90487,2.90487,0,0,0,2.4297-1.4599,6.0756,6.0756,0,0,0,1.17379-3.127,3.04331,3.04331,0,0,1,.2539-1.2304,5.74845,5.74845,0,0,0,.5606-2.8721,2.51066,2.51066,0,0,1,.0918-.8369,1.80813,1.80813,0,0,1,3.4707-.1817,1.39408,1.39408,0,0,1,.1543.6075c-.086.8222.4453,1.2685.9511,1.7783a3.97624,3.97624,0,0,0,3.5782,1.4092,2.91912,2.91912,0,0,1,.8457-.001,3.87529,3.87529,0,0,0,3.5634-1.4424c.2823-.3096.5733-.6104.8741-.9307Z" fill="#4f2400" fill-rule="evenodd"/>
            <path d="M35.61932,25.06929a4.78342,4.78342,0,0,1-.5527,3.2286,4.29055,4.29055,0,0,1-3.53519,2.3369,11.466,11.466,0,0,1-4.99511-.5899,3.91651,3.91651,0,0,1-2.7373-4.082c.0674-1.4648.0195-2.9883,1.2988-4.1055.2129-.1845.2129-.624.2862-.9511a1.99085,1.99085,0,0,1,1.7841-1.792,7.5856,7.5856,0,0,1,7.2872,2.4345,3.7128,3.7128,0,0,1,1.166,2.8409C35.60372,24.67089,35.61932,24.95509,35.61932,25.06929Zm-8.2265,1.334a6.03965,6.03965,0,0,0,3.4853.7159,1.34191,1.34191,0,0,0,1.1748-.7647A2.758,2.758,0,0,0,31.11352,23a7.38686,7.38686,0,0,0-.8907-.5615c-1.2597-.6875-1.85739-.5908-3.19139.5137A9.42771,9.42771,0,0,0,27.39282,26.40329Z" fill="#4f2400" fill-rule="evenodd"/>
          </g>
        </g>
        <g>
          <path d="M6.08422,81.20409a14.4739,14.4739,0,0,1-1.2774-.9922c-3.914-3.4756-2.3515-9.1279,2.5235-10.5498a6.8381,6.8381,0,0,1,.8476-.1875,8.37767,8.37767,0,0,1,4.8574.5889,12.27586,12.27586,0,0,1,2.5235,1.0566,16.91074,16.91074,0,0,1,1.4863.9366,12.13867,12.13867,0,0,1,.9785-4.2793,11.27107,11.27107,0,0,1,.7002-1.4043c.0117-.0411.0186-.084.0303-.1241a5.435,5.435,0,0,1,3.4433-3.5185,7.18153,7.18153,0,0,1,3.3145-.628,3.39757,3.39757,0,0,1,1.0254.1368c.0928.0175.1816.0322.2754.0537,1.8955.4502,2.79,1.9111,3.6699,3.4629,1.6406,2.8955.0215,7.1211-.5606,10.0966a31.467,31.467,0,0,0-.64159,6.5372,39.19556,39.19556,0,0,1-.11521,5.3554,2.058,2.058,0,0,1-.706,1.2578,2.30276,2.30276,0,0,1-3.25,1.2793,34.93147,34.93147,0,0,0-5.959-2.0312,45.97784,45.97784,0,0,1-6.169-2.3809C11.53143,85.14549,7.23452,83.42679,6.08422,81.20409Z" fill="#dc4654"/>
          <path d="M16.07632,89.44039a50.63616,50.63616,0,0,0,8.2168,1.2579c2.5186.125,5.5118.2304,7.6133-1.336a1.78389,1.78389,0,0,0,.20709-2.8262c.6035-4.5986,1.5585-9.1123,1.5781-13.79.0176-4.1738-.5-9.4394-3.8496-12.4189-3.4844-3.0977-7.7871-2.1856-10.541,1.4013-1.2862,1.6768-2.6163,3.3633-2.9825,5.5a7.87548,7.87548,0,0,0-.0771,1.791c-3.7764-2.7002-9.0576-3.4199-12.9688-.4921-4.0654,3.04-4.1572,9.7607-1.3017,13.6806C5.24432,86.70019,10.87522,88.30759,16.07632,89.44039Zm-8.3476-6.9668c-3.2764-1.9697-5.8789-7.0947-3.5567-10.75,2.6788-4.2168,8.6817-2.9121,11.6309.1924a1.1109,1.1109,0,0,0,1.0332.3604c.0625.2285.1289.4551.1953.6758a1.01931,1.01931,0,0,0,1.9668-.5323c-.4121-1.874-.6406-3.6875.5352-5.3408a17.9125,17.9125,0,0,1,3.4414-3.6387c.9433-.7246,2.375-1.4921,3.4199-.4892a8.3974,8.3974,0,0,1,2.3545,3.9599c.915,3.4737.5791,7.0899.3623,10.6329-.16409,2.7128-1.5664,5.9072-1.49409,8.7968a19.169,19.169,0,0,1-2.7657.1348,40.19131,40.19131,0,0,1-5.9941-.75C15.16332,84.999,11.007,84.44429,7.72872,82.47359Z" fill="#463131"/>
        </g>
        <g>
          <path d="M58.37322,48.68169a10.37692,10.37692,0,0,1,.1699-1.1006,4.15725,4.15725,0,0,1,7.1924-2.0069,4.99084,4.99084,0,0,1,.3965.4483,5.76785,5.76785,0,0,1,1.2686,3.1201,8.48013,8.48013,0,0,1,.207,1.8721c-.0039.3769-.0215.791-.0664,1.207a8.339,8.339,0,0,1,2.9014-.8399,7.47767,7.47767,0,0,1,1.0791-.0488c.0283-.0078.0576-.0166.0859-.0234a3.74048,3.74048,0,0,1,3.2676.8965,4.95331,4.95331,0,0,1,1.4843,1.7832,2.4025,2.4025,0,0,1,.2608.665c.0195.0606.042.1182.0596.1826a4.10132,4.10132,0,0,1-.85749,3.3653c-1.19531,1.955-4.28021,2.3925-6.26361,3.038a21.43347,21.43347,0,0,0-4.1485,1.7979,27.54555,27.54555,0,0,1-3.2617,1.7197,1.422,1.422,0,0,1-.99219-.0049,1.58693,1.58693,0,0,1-1.85741-1.5283,23.8514,23.8514,0,0,0-.76759-4.2656,31.91911,31.91911,0,0,1-.62891-4.5068C57.82243,53.27739,57.42112,50.11719,58.37322,48.68169Z" fill="#dc4654"/>
          <path d="M56.756,57.44729a34.67,34.67,0,0,0,1.9883,5.3642c.7656,1.5567,1.7022,3.3936,3.3477,4.1358a1.22835,1.22835,0,0,0,1.7695-.8213,74.91754,74.91754,0,0,0,8.8262-3.6563c2.5176-1.3847,5.51171-3.455,6.1875-6.4668.70021-3.1328-1.2871-5.416-4.3653-5.875a8.86335,8.86335,0,0,0-4.3066.043,5.45245,5.45245,0,0,0-1.1035.5527c.3623-3.1757-.9688-6.5927-4.0371-7.9697-3.1875-1.4306-7.2617.7608-8.668,3.7881C54.78532,50.01269,55.70043,53.93849,56.756,57.44729Zm1.40241-7.3516c.09079-2.6299,2.30659-5.9082,5.28119-5.7324,3.4326.2041,4.6524,4.2519,3.7705,7.0635a.76811.76811,0,0,0,.128.7431q-.1743.17145-.3418.3418a.70241.70241,0,0,0,.9785,1.0069,4.3243,4.3243,0,0,1,3.39261-1.4619,12.2587,12.2587,0,0,1,3.33979.8544c.751.3252,1.6914.9297,1.4375,1.8936a5.78543,5.78543,0,0,1-1.5967,2.7402,23.06476,23.06476,0,0,1-6.2773,3.7715c-1.6885.8076-4.0781,1.0303-5.794,2.0401a13.46388,13.46388,0,0,1-1.0058-1.6192,27.67477,27.67477,0,0,1-1.5508-3.8584C59.12322,55.41309,58.06852,52.72749,58.15843,50.09569Z" fill="#463131"/>
        </g>
      </g>
    </g>
  </g>
</svg>
