<svg xmlns="http://www.w3.org/2000/svg" viewBox="0 0 63.41732 54.23856">
  <title>Recurso 6</title>
  <g id="Capa_2" data-name="Capa 2">
    <g id="Editar">
      <g>
        <g>
          <path d="M16.49006,33.30715c.3955-.5117.7207-.9844,1.0947-1.415a29.70367,29.70367,0,0,1,12.8057-8.8282,9.6222,9.6222,0,0,1,6.3681-.3798c.4034-.1993.7452-.3662,1.0889-.5332a4.84872,4.84872,0,0,0,2.3926-2.6084,39.056,39.056,0,0,0,2.0254-5.5772,11.93634,11.93634,0,0,0,.3261-4.1836,6.54473,6.54473,0,0,0-4.7304-5.9082,26.87868,26.87868,0,0,0-3.5528-.789,1.8171,1.8171,0,0,0-.7617-.0352c-2.8633.708-5.4902,1.752-6.8291,4.7012a33.45635,33.45635,0,0,0-2.3467,8.082,5.61094,5.61094,0,0,0,.2383,2.8242,6.44312,6.44312,0,0,1,.2891,2.0703,3.44034,3.44034,0,0,1-.4268,1.4346,1.32751,1.32751,0,0,1-1.456.6982,1.50444,1.50444,0,0,1-1.4512-1.0634,11.01583,11.01583,0,0,1-.4199-2.2569,3.05607,3.05607,0,0,0-1.2442-2.2754,4.79265,4.79265,0,0,0-.7861-.5468c-4.1064-2.2149-8.2676-2.5284-12.4355-.2168A6.26591,6.26591,0,0,0,3.37876,21.4a5.5431,5.5431,0,0,0,.6748,3.5166,12.0728,12.0728,0,0,0,2.6767,3.2305,22.82824,22.82824,0,0,0,6.0381,3.6669A14.03778,14.03778,0,0,0,16.49006,33.30715Z" fill="#ff0070" fill-rule="evenodd"/>
          <path d="M37.35136,26.41455c-1.3594,3.502-4.1816,5.7442-6.8828,8.084-.9648.8369-1.9941,1.5977-2.9893,2.3985a14.04241,14.04241,0,0,1-4.3095,2.457,3.83549,3.83549,0,0,0-.6719.3887,7.34248,7.34248,0,0,0,.7559,5.375,17.02077,17.02077,0,0,0,1.3261,2.1093c1.7735,2.5215,4.3926,3.3965,7.2949,3.6182a2.53549,2.53549,0,0,0,2.7696-1.6279,20.73278,20.73278,0,0,0,1.7724-10.461,7.89492,7.89492,0,0,0-1.0957-3.2353,8.49333,8.49333,0,0,1-.8447-1.7139,1.77164,1.77164,0,0,1,1.0899-2.0195,1.49479,1.49479,0,0,1,1.8876.4648,12.04358,12.04358,0,0,1,1.168,1.9766,7.81248,7.81248,0,0,0,5.6768,4.4238,12.03514,12.03514,0,0,0,4.5556.4317,11.40938,11.40938,0,0,0,1.3194-.2305,1.49469,1.49469,0,0,0,1.0547-1.0235,4.65,4.65,0,0,0,.123-2.83,7.15082,7.15082,0,0,0-3.8867-4.7461,45.54216,45.54216,0,0,0-4.8418-1.8184c-.9658-.3281-1.9785-.5166-2.9678-.7734A3.79048,3.79048,0,0,1,37.35136,26.41455Z" fill="#ff0070" fill-rule="evenodd"/>
          <path d="M35.05646,24.88135a11.861,11.861,0,0,0-4.167.9532,28.18315,28.18315,0,0,0-10.3525,7.4218,10.78817,10.78817,0,0,0-1.045,1.3692,1.13506,1.13506,0,0,0,.8711,1.8261,3.2819,3.2819,0,0,0,2.2217-.3877,29.97378,29.97378,0,0,0,3.4053-2.1298c2.1426-1.7168,4.2148-3.5225,6.2558-5.3575A12.18876,12.18876,0,0,0,35.05646,24.88135Z" fill="#ff8345" fill-rule="evenodd"/>
        </g>
        <path d="M48.44516,19.49075a44.79017,44.79017,0,0,1,11.082.5215,13.75049,13.75049,0,0,1,2.8418,1.0683,1.74117,1.74117,0,0,1,1.0469,1.6807,1.447,1.447,0,0,1-.4668.9785.77119.77119,0,0,1-1.0606-.0459,2.795,2.795,0,0,0-2.2519-.79c-1.1475-.0967-2.2891-.2393-3.4375-.3379a57.51244,57.51244,0,0,0-12.2461.2959,8.29993,8.29993,0,0,0-3.7412,1.6035,5.32069,5.32069,0,0,0,1.8564.6992c1.3525.3838,2.7109.7491,4.0713,1.1084a12.14531,12.14531,0,0,1,6.4277,3.9541,8.92579,8.92579,0,0,1,2.0459,8.043,4.80146,4.80146,0,0,1-3.8095,3.8623,13.1313,13.1313,0,0,1-5.3243.1992,17.38317,17.38317,0,0,1-5.3349-1.5869,5.73867,5.73867,0,0,0-.3516,2.1465,25.19385,25.19385,0,0,1-2.0732,7.7451,5.65834,5.65834,0,0,1-4.4864,3.4834,8.80878,8.80878,0,0,1-2.4814.0557c-3.998-.5342-7.3184-2.2139-9.4482-5.8076-.1944-.3301-.4327-.6348-.6163-.9707a11.55089,11.55089,0,0,1-1.7734-6.9375c.0332-.3038.0117-.6143.0156-.9473-.4423-.1641-.7929-.3067-1.1523-.4258-2.1025-.6973-2.1094-.7031-2.5879-2.7656-1.9082-.7676-3.8438-1.4395-5.6816-2.3115a19.44954,19.44954,0,0,1-7.7696-6.3721,9.55354,9.55354,0,0,1-1.5898-3.8652,9.339,9.339,0,0,1,1.5215-6.9444,6.774,6.774,0,0,1,1.3808-1.8096,16.76908,16.76908,0,0,1,6.5391-3.0556c3.751-.8233,7.2236.0713,10.6055,1.6133.3242.1494.6425.3125,1.0849.5283.1953-.6895.3526-1.2324.5029-1.7774a27.11031,27.11031,0,0,1,2.709-6.9472,8.65776,8.65776,0,0,1,2.8907-3.0156,20.54986,20.54986,0,0,1,3.2168-1.6934,7.902,7.902,0,0,1,3.746-.6328,16.27325,16.27325,0,0,1,5.1915,1.3008,9.53675,9.53675,0,0,1,5.7441,7.1777,13.06291,13.06291,0,0,1-.2422,6.0781c-.3096,1.0215-.5781,2.0567-.9434,3.3613.3985-.3496.5938-.496.7579-.6718a18.03145,18.03145,0,0,0,3.0019-4.4336c1.4697-2.9805,2.8779-5.9922,4.3164-8.9883a7.63613,7.63613,0,0,1,.6426-1.1709,1.05077,1.05077,0,0,1,1.5293-.2119.91786.91786,0,0,1,.2695,1.4707,3.9864,3.9864,0,0,0-.7402,1.5254c-.2822.9814-.5352,1.9726-.8867,2.9277a36.7003,36.7003,0,0,1-5.3653,10.125c-.1855.2383-.3398.501-.6748.9981C47.68536,19.50935,48.06626,19.51805,48.44516,19.49075Zm-30.8604,12.4014a29.70367,29.70367,0,0,1,12.8057-8.8282,9.6222,9.6222,0,0,1,6.3681-.3798c.4034-.1993.7452-.3662,1.0889-.5332a4.84872,4.84872,0,0,0,2.3926-2.6084,39.056,39.056,0,0,0,2.0254-5.5772,11.93634,11.93634,0,0,0,.3261-4.1836,6.54473,6.54473,0,0,0-4.7304-5.9082,26.87868,26.87868,0,0,0-3.5528-.789,1.8171,1.8171,0,0,0-.7617-.0352c-2.8633.708-5.4902,1.752-6.8291,4.7012a33.45635,33.45635,0,0,0-2.3467,8.082,5.61094,5.61094,0,0,0,.2383,2.8242,6.44312,6.44312,0,0,1,.2891,2.0703,3.44034,3.44034,0,0,1-.4268,1.4346,1.32751,1.32751,0,0,1-1.456.6982,1.50444,1.50444,0,0,1-1.4512-1.0634,11.01583,11.01583,0,0,1-.4199-2.2569,3.05607,3.05607,0,0,0-1.2442-2.2754,4.79265,4.79265,0,0,0-.7861-.5468c-4.1064-2.2149-8.2676-2.5284-12.4355-.2168A6.26591,6.26591,0,0,0,3.37876,21.4a5.5431,5.5431,0,0,0,.6748,3.5166,12.0728,12.0728,0,0,0,2.6767,3.2305,22.82824,22.82824,0,0,0,6.0381,3.6669,14.03778,14.03778,0,0,0,3.7217,1.4932C16.88556,32.79545,17.21076,32.32275,17.58476,31.89215Zm12.8838,2.6064c-.9648.8369-1.9941,1.5977-2.9893,2.3985a14.04241,14.04241,0,0,1-4.3095,2.457,3.83549,3.83549,0,0,0-.6719.3887,7.34248,7.34248,0,0,0,.7559,5.375,17.02077,17.02077,0,0,0,1.3261,2.1093c1.7735,2.5215,4.3926,3.3965,7.2949,3.6182a2.53549,2.53549,0,0,0,2.7696-1.6279,20.73278,20.73278,0,0,0,1.7724-10.461,7.89492,7.89492,0,0,0-1.0957-3.2353,8.49333,8.49333,0,0,1-.8447-1.7139,1.77164,1.77164,0,0,1,1.0899-2.0195,1.49479,1.49479,0,0,1,1.8876.4648,12.04358,12.04358,0,0,1,1.168,1.9766,7.81248,7.81248,0,0,0,5.6768,4.4238,12.03514,12.03514,0,0,0,4.5556.4317,11.40938,11.40938,0,0,0,1.3194-.2305,1.49469,1.49469,0,0,0,1.0547-1.0235,4.65,4.65,0,0,0,.123-2.83,7.15082,7.15082,0,0,0-3.8867-4.7461,45.54216,45.54216,0,0,0-4.8418-1.8184c-.9658-.3281-1.9785-.5166-2.9678-.7734a3.79048,3.79048,0,0,1-2.3037-1.2481C35.992,29.91655,33.16976,32.15875,30.46856,34.49855Zm.4209-8.664a28.18315,28.18315,0,0,0-10.3525,7.4218,10.78817,10.78817,0,0,0-1.045,1.3692,1.13506,1.13506,0,0,0,.8711,1.8261,3.2819,3.2819,0,0,0,2.2217-.3877,29.97378,29.97378,0,0,0,3.4053-2.1298c2.1426-1.7168,4.2148-3.5225,6.2558-5.3575a12.18876,12.18876,0,0,0,2.8106-3.6953A11.861,11.861,0,0,0,30.88946,25.83455Z" fill="#4f2400" fill-rule="evenodd"/>
      </g>
    </g>
  </g>
</svg>
