<svg xmlns="http://www.w3.org/2000/svg" viewBox="0 0 117.28548 77.15914">
  <title>Recurso 10</title>
  <g id="Capa_2" data-name="Capa 2">
    <g id="Editar">
      <g>
        <g>
          <path d="M30.783,26.7228v3.5821c-.2432.2597-.4786.5019-.70709.7529a3.12914,3.12914,0,0,1-2.87991,1.165,2.394,2.394,0,0,0-.6836.001,3.21168,3.21168,0,0,1-2.8916-1.1386c-.4091-.4122-.8378-.7725-.7695-1.4375a1.11222,1.11222,0,0,0-.124-.4913,1.46176,1.46176,0,0,0-2.8057.1475,2.03989,2.03989,0,0,0-.0742.6768,4.63677,4.63677,0,0,1-.4531,2.3203,2.48215,2.48215,0,0,0-.2051.9951,4.91006,4.91006,0,0,1-.9482,2.5273,2.34824,2.34824,0,0,1-1.9639,1.1797c-.7939.044-1.5928.0098-2.3584.0098a4.26689,4.26689,0,0,1-1.3086-3.294c-.07319-1.708-.0166-3.4218-.03219-5.1328a3.37244,3.37244,0,0,1,.44329-1.6269c.4522-.8574.8506-1.7422,1.2774-2.6133a1.43713,1.43713,0,0,0-.2852-1.8691,1.89451,1.89451,0,0,0-2.0664-.3985,4.99538,4.99538,0,0,0-.9863.6699c-.8682.6446-1.7197,1.3135-2.6016,1.9405a2.07878,2.07878,0,0,1-.9209.3935c-1.1318.125-2.2685.2246-3.4052.2598-.6797.0215-1.0059-.2754-1.0235-.8887-.0293-1.0234-.0137-2.0508.0371-3.0752a2.73836,2.73836,0,0,1,.8897-1.8008c.6845-.6884,1.3154-1.4384,2.05761-2.0576a7.27209,7.27209,0,0,1,3.27249-1.7334c1.3398-.2568,2.6699-.5693,4.0039-.8603.167-.0362.333-.0821.497-.1319.7032-.2109.9639-.497.93561-1.0214a1.06462,1.06462,0,0,0-1.00591-1.001,16.991,16.991,0,0,0-2.5332-.291c-1.916-.0616-2.376-.0606-3.2568-2.3282a16.4635,16.4635,0,0,1-.7656-2.9795,3.4655,3.4655,0,0,1,3.9091-4.2724,7.15143,7.15143,0,0,1,3.0869.9238A3.28481,3.28481,0,0,1,15.324,5.006a33.70485,33.70485,0,0,1,1.6904,3.5411,5.90654,5.90654,0,0,1,.14551,1.5185,1.49276,1.49276,0,0,0,2.48629,1.1279,3.55093,3.55093,0,0,0,.8829-1.0224,8.20664,8.20664,0,0,1,2.913-2.585,4.77253,4.77253,0,0,1,2.3077-.5605c1.3085-.0664,2.624-.0196,3.9365-.0342a1.48186,1.48186,0,0,1,1.2763.7021,14.75383,14.75383,0,0,1,2.4522,5.2325,9.20435,9.20435,0,0,1-.0088,3.2217c-.0977.8662-.8437,1.3251-1.5752,1.6796-.7168.3467-1.4648.6289-2.1963.9483a4.15561,4.15561,0,0,0-.916.4492,2.60828,2.60828,0,0,1-1.874.6748,1.59241,1.59241,0,0,0-.6592.1543.6366.6366,0,0,0-.332.8486,2.82334,2.82334,0,0,1,.4199,1.2569,2.2915,2.2915,0,0,0,1.2861,1.7197A12.90178,12.90178,0,0,1,30.783,26.7228Zm-6.04009-6.4609c0-.0918-.01271-.3223.002-.5488a3.00573,3.00573,0,0,0-.94241-2.2969,6.1312,6.1312,0,0,0-5.89059-1.9668,1.60887,1.60887,0,0,0-1.44141,1.4483c-.05959.2646-.05959.6191-.2315.7685-1.0342.9023-.99509,2.1348-1.0498,3.3184a3.16441,3.16441,0,0,0,2.2129,3.2988,9.25181,9.25181,0,0,0,4.0371.4766,3.46546,3.46546,0,0,0,2.8574-1.8887A3.86317,3.86317,0,0,0,24.74292,20.2619Z" fill="#ff6052" fill-rule="evenodd"/>
          <path d="M18.09352,21.34a7.62533,7.62533,0,0,1-.292-2.789c1.0791-.8926,1.5615-.9707,2.5801-.4151a5.99564,5.99564,0,0,1,.7197.4541,2.22867,2.22867,0,0,1,.7588,2.711,1.085,1.085,0,0,1-.94919.6181A4.88007,4.88007,0,0,1,18.09352,21.34Z" fill="#ffbd52" fill-rule="evenodd"/>
        </g>
        <g>
          <path d="M29.88162,21.4133c.9785,1.042,1.831,2.0332,2.7734,2.9287a3.5426,3.5426,0,0,1,1.1514,2.7441c-.0078,1.085-.0293,2.1709.0059,3.2559a2.62149,2.62149,0,0,1-.8165,1.998c-.5175.5303-1.0732,1.0244-1.6015,1.5459a4.21944,4.21944,0,0,1-3.1006,1.2149c-.5713,0-1.1426.0019-1.7139.0019-2.3418-.0009-2.3418-.0009-4.2363-1.0146-.3887.8857-.7422,1.7861-1.1699,2.6484a5.42767,5.42767,0,0,1-5.1885,3.2471c-.74019.0019-1.4844-.0332-2.2217.0176a2.30051,2.30051,0,0,1-2.1006-.9248A10.58112,10.58112,0,0,1,10.24192,36.76a8.934,8.934,0,0,1-.70211-3.8428c.0654-1.2529.0322-2.5127.0234-3.7686-.0029-.4414-.0634-.8808-.0986-1.3203-1.3359.1485-2.5762.2969-3.8193.418-.56739.0547-1.1436.0195-1.708.081-1.6582.1817-2.6651-.8242-3.5665-1.9668a1.97747,1.97747,0,0,1-.3525-1.1211c-.0225-1.3681-.0439-2.7421.0635-4.1044A5.4724,5.4724,0,0,1,1.949,17.3967c.5527-.4951,1.0595-1.041,1.584-1.5664a6.6387,6.6387,0,0,1,2.3154-1.7227,3.48854,3.48854,0,0,0,.6474-.4521c-.1328-.2637-.2353-.5108-.372-.7373a16.76785,16.76785,0,0,1-1.8975-6.0088,5.27029,5.27029,0,0,1,2.1524-5.2705A6.99911,6.99911,0,0,1,12.66382.2385c1.7217.4472,3.4297.9804,4.5606,2.498a19.14539,19.14539,0,0,1,1.2558,2.0322c.3291.5831.6084,1.1944.9639,1.8995.5566-.3457,1.0557-.6036,1.4961-.9405a7.98631,7.98631,0,0,1,5.126-1.6103c1.42871.0176,2.8564.0234,4.2841.001a2.891,2.891,0,0,1,2.39361,1.1142,12.79109,12.79109,0,0,1,1.01759,1.374,17.78091,17.78091,0,0,1,2.6963,6.6026,10.54568,10.54568,0,0,1-.1827,3.7461,4.35574,4.35574,0,0,1-1.6093,2.5595,7.28047,7.28047,0,0,1-2.5655,1.333C31.38842,21.0519,30.66582,21.215,29.88162,21.4133Zm.9014,5.3095a12.90178,12.90178,0,0,0-3.2237-2.8437,2.2915,2.2915,0,0,1-1.2861-1.7197,2.82334,2.82334,0,0,0-.4199-1.2569.6366.6366,0,0,1,.332-.8486,1.59241,1.59241,0,0,1,.6592-.1543,2.60828,2.60828,0,0,0,1.874-.6748,4.15561,4.15561,0,0,1,.916-.4492c.7315-.3194,1.4795-.6016,2.1963-.9483.7315-.3545,1.4775-.8134,1.5752-1.6796a9.20435,9.20435,0,0,0,.0088-3.2217,14.75383,14.75383,0,0,0-2.4522-5.2325,1.48186,1.48186,0,0,0-1.2763-.7021c-1.3125.0146-2.628-.0322-3.9365.0342a4.77253,4.77253,0,0,0-2.3077.5605,8.20664,8.20664,0,0,0-2.913,2.585,3.55093,3.55093,0,0,1-.8829,1.0224,1.49276,1.49276,0,0,1-2.48629-1.1279,5.90654,5.90654,0,0,0-.14551-1.5185A33.70485,33.70485,0,0,0,15.324,5.006a3.28481,3.28481,0,0,0-1.1866-1.1816,7.15143,7.15143,0,0,0-3.0869-.9238A3.4655,3.4655,0,0,0,7.14142,7.173a16.4635,16.4635,0,0,0,.7656,2.9795c.8808,2.2676,1.3408,2.2666,3.2568,2.3282a16.991,16.991,0,0,1,2.5332.291,1.06462,1.06462,0,0,1,1.00591,1.001c.02829.5244-.23241.8105-.93561,1.0214-.164.0498-.33.0957-.497.1319-1.334.291-2.6641.6035-4.0039.8603a7.27209,7.27209,0,0,0-3.27249,1.7334c-.74221.6192-1.37311,1.3692-2.05761,2.0576a2.73836,2.73836,0,0,0-.8897,1.8008c-.0508,1.0244-.0664,2.0518-.0371,3.0752.0176.6133.3438.9102,1.0235.8887,1.1367-.0352,2.2734-.1348,3.4052-.2598a2.07878,2.07878,0,0,0,.9209-.3935c.8819-.627,1.7334-1.2959,2.6016-1.9405a4.99538,4.99538,0,0,1,.9863-.6699,1.89451,1.89451,0,0,1,2.0664.3985,1.43713,1.43713,0,0,1,.2852,1.8691c-.4268.8711-.8252,1.7559-1.2774,2.6133a3.37244,3.37244,0,0,0-.44329,1.6269c.01559,1.711-.041,3.4248.03219,5.1328a4.26689,4.26689,0,0,0,1.3086,3.294c.7656,0,1.5645.0342,2.3584-.0098a2.34824,2.34824,0,0,0,1.9639-1.1797,4.91006,4.91006,0,0,0,.9482-2.5273,2.48215,2.48215,0,0,1,.2051-.9951,4.63677,4.63677,0,0,0,.4531-2.3203,2.03989,2.03989,0,0,1,.0742-.6768,1.46176,1.46176,0,0,1,2.8057-.1475,1.11222,1.11222,0,0,1,.124.4913c-.0683.665.3604,1.0253.7695,1.4375a3.21168,3.21168,0,0,0,2.8916,1.1386,2.394,2.394,0,0,1,.6836-.001,3.12914,3.12914,0,0,0,2.87991-1.165c.22849-.251.46389-.4932.70709-.7529Z" fill="#4f2400" fill-rule="evenodd"/>
          <path d="M24.74292,20.2619a3.86317,3.86317,0,0,1-.44631,2.6094,3.46546,3.46546,0,0,1-2.8574,1.8887,9.25181,9.25181,0,0,1-4.0371-.4766,3.16441,3.16441,0,0,1-2.2129-3.2988c.05471-1.1836.0156-2.4161,1.0498-3.3184.17191-.1494.17191-.5039.2315-.7685a1.60887,1.60887,0,0,1,1.44141-1.4483,6.1312,6.1312,0,0,1,5.89059,1.9668,3.00573,3.00573,0,0,1,.94241,2.2969C24.73022,19.9396,24.74292,20.1701,24.74292,20.2619ZM18.09352,21.34a4.88007,4.88007,0,0,0,2.81741.5791,1.085,1.085,0,0,0,.94919-.6181,2.22867,2.22867,0,0,0-.7588-2.711,5.99564,5.99564,0,0,0-.7197-.4541c-1.0186-.5556-1.501-.4775-2.5801.4151A7.62533,7.62533,0,0,0,18.09352,21.34Z" fill="#4f2400" fill-rule="evenodd"/>
        </g>
      </g>
      <g>
        <g>
          <path d="M70.35822,56.2277c.3955-.5117.72071-.9844,1.09471-1.415a29.70339,29.70339,0,0,1,12.80569-8.8281,9.62222,9.62222,0,0,1,6.3681-.3799c.4034-.1992.74521-.3662,1.0889-.5332a4.84872,4.84872,0,0,0,2.3926-2.6084,39.056,39.056,0,0,0,2.0254-5.5772,11.93857,11.93857,0,0,0,.3262-4.1836,6.545,6.545,0,0,0-4.7305-5.9082,26.8946,26.8946,0,0,0-3.5528-.789,1.81709,1.81709,0,0,0-.7617-.0352c-2.8633.708-5.4902,1.752-6.8291,4.7012a33.45668,33.45668,0,0,0-2.3467,8.082,5.61094,5.61094,0,0,0,.2383,2.8242,6.44036,6.44036,0,0,1,.2891,2.0703,3.44034,3.44034,0,0,1-.4268,1.4346,1.3277,1.3277,0,0,1-1.456.6983,1.50466,1.50466,0,0,1-1.4512-1.0635,11.01458,11.01458,0,0,1-.4199-2.2569,3.05507,3.05507,0,0,0-1.2442-2.2753,4.7871,4.7871,0,0,0-.7861-.5469c-4.1064-2.2149-8.2676-2.5283-12.4355-.2168a6.26589,6.26589,0,0,0-3.29979,4.8994,5.5437,5.5437,0,0,0,.67479,3.5166,12.07468,12.07468,0,0,0,2.6767,3.2305,22.83131,22.83131,0,0,0,6.0381,3.667A14.03769,14.03769,0,0,0,70.35822,56.2277Z" fill="#ff0070" fill-rule="evenodd"/>
          <path d="M91.21952,49.3351c-1.3594,3.502-4.18159,5.7442-6.8828,8.084-.96479.8369-1.9941,1.5977-2.9893,2.3985a14.04246,14.04246,0,0,1-4.30949,2.457,3.83528,3.83528,0,0,0-.67191.3887,7.34293,7.34293,0,0,0,.75591,5.375A17.02072,17.02072,0,0,0,78.448,70.1476c1.7735,2.5215,4.3926,3.3965,7.295,3.6182a2.53532,2.53532,0,0,0,2.7695-1.6279,20.73286,20.73286,0,0,0,1.77241-10.461,7.895,7.895,0,0,0-1.09571-3.2353,8.49333,8.49333,0,0,1-.8447-1.7139,1.77175,1.77175,0,0,1,1.0899-2.0195,1.495,1.495,0,0,1,1.8877.4648A12.05011,12.05011,0,0,1,92.49,57.1496a7.81248,7.81248,0,0,0,5.6768,4.4238,12.03514,12.03514,0,0,0,4.5556.4317,11.40938,11.40938,0,0,0,1.3194-.2305,1.49474,1.49474,0,0,0,1.0547-1.0234,4.65035,4.65035,0,0,0,.123-2.8301,7.15082,7.15082,0,0,0-3.8867-4.7461,45.54215,45.54215,0,0,0-4.8418-1.8184c-.9658-.3281-1.9785-.5166-2.9678-.7734A3.79,3.79,0,0,1,91.21952,49.3351Z" fill="#ff0070" fill-rule="evenodd"/>
          <path d="M88.92462,47.8019a11.86153,11.86153,0,0,0-4.167.9532,28.18315,28.18315,0,0,0-10.3525,7.4218,10.78817,10.78817,0,0,0-1.045,1.3692,1.13515,1.13515,0,0,0,.8711,1.8262,3.28306,3.28306,0,0,0,2.22171-.3877,29.975,29.975,0,0,0,3.40529-2.1299c2.1426-1.7168,4.2148-3.5225,6.2558-5.3574A12.19049,12.19049,0,0,0,88.92462,47.8019Z" fill="#ff8345" fill-rule="evenodd"/>
        </g>
        <path d="M102.31332,42.4113a44.79017,44.79017,0,0,1,11.082.5215,13.745,13.745,0,0,1,2.8418,1.0684,1.741,1.741,0,0,1,1.0469,1.6806,1.44662,1.44662,0,0,1-.4668.9785.77119.77119,0,0,1-1.0606-.0459,2.795,2.795,0,0,0-2.2519-.79c-1.1475-.0967-2.2891-.2393-3.4375-.3379a57.51259,57.51259,0,0,0-12.2461.2959,8.29991,8.29991,0,0,0-3.74119,1.6035,5.32132,5.32132,0,0,0,1.85639.6992c1.35261.3838,2.711.7491,4.0713,1.1084a12.14531,12.14531,0,0,1,6.4277,3.9541,8.92556,8.92556,0,0,1,2.0459,8.043,4.80146,4.80146,0,0,1-3.8095,3.8623,13.1313,13.1313,0,0,1-5.3243.1992,17.384,17.384,0,0,1-5.3349-1.5869,5.74052,5.74052,0,0,0-.35159,2.1465,25.19407,25.19407,0,0,1-2.07321,7.7451,5.65782,5.65782,0,0,1-4.4863,3.4834,8.8058,8.8058,0,0,1-2.48149.0557c-3.998-.5342-7.31841-2.2139-9.44821-5.8076-.1944-.3301-.4327-.6348-.6162-.9707a11.55079,11.55079,0,0,1-1.7735-6.9375c.0332-.3037.0117-.6143.0156-.9473-.4423-.1641-.7929-.3066-1.1523-.4258-2.1025-.6972-2.10939-.7031-2.5879-2.7656-1.9082-.7676-3.8437-1.4395-5.6816-2.3115a19.44954,19.44954,0,0,1-7.7696-6.3721,9.55354,9.55354,0,0,1-1.5898-3.8652,9.339,9.339,0,0,1,1.52151-6.9444,6.77184,6.77184,0,0,1,1.38079-1.8095,16.7679,16.7679,0,0,1,6.5391-3.0557c3.751-.8232,7.2236.0713,10.6055,1.6133.3242.1494.6425.3125,1.0849.5283.1953-.6895.3526-1.2324.503-1.7773A27.1093,27.1093,0,0,1,78.36012,28.3a8.65776,8.65776,0,0,1,2.8907-3.0156,20.55862,20.55862,0,0,1,3.2168-1.6934,7.90223,7.90223,0,0,1,3.7461-.6328,16.27327,16.27327,0,0,1,5.1914,1.3008,9.53654,9.53654,0,0,1,5.7441,7.1777,13.06291,13.06291,0,0,1-.2422,6.0781c-.3096,1.0215-.57809,2.0567-.9433,3.3614.3984-.3497.5937-.4961.7578-.6719a18.02591,18.02591,0,0,0,3.0019-4.4336c1.4698-2.9805,2.878-5.9922,4.3164-8.9883a7.63613,7.63613,0,0,1,.6426-1.1709,1.05085,1.05085,0,0,1,1.5293-.2119.91788.91788,0,0,1,.2695,1.4707,3.98709,3.98709,0,0,0-.7402,1.5254c-.2822.9814-.5352,1.9726-.8867,2.9277a36.69621,36.69621,0,0,1-5.3653,10.125c-.1855.2383-.3398.501-.6748.9981C101.55352,42.4299,101.93442,42.4387,102.31332,42.4113ZM71.45292,54.8127a29.70339,29.70339,0,0,1,12.80569-8.8281,9.62222,9.62222,0,0,1,6.3681-.3799c.4034-.1992.74521-.3662,1.0889-.5332a4.84872,4.84872,0,0,0,2.3926-2.6084,39.056,39.056,0,0,0,2.0254-5.5772,11.93857,11.93857,0,0,0,.3262-4.1836,6.545,6.545,0,0,0-4.7305-5.9082,26.8946,26.8946,0,0,0-3.5528-.789,1.81709,1.81709,0,0,0-.7617-.0352c-2.8633.708-5.4902,1.752-6.8291,4.7012a33.45668,33.45668,0,0,0-2.3467,8.082,5.61094,5.61094,0,0,0,.2383,2.8242,6.44036,6.44036,0,0,1,.2891,2.0703,3.44034,3.44034,0,0,1-.4268,1.4346,1.3277,1.3277,0,0,1-1.456.6983,1.50466,1.50466,0,0,1-1.4512-1.0635,11.01458,11.01458,0,0,1-.4199-2.2569,3.05507,3.05507,0,0,0-1.2442-2.2753,4.7871,4.7871,0,0,0-.7861-.5469c-4.1064-2.2149-8.2676-2.5283-12.4355-.2168a6.26589,6.26589,0,0,0-3.29979,4.8994,5.5437,5.5437,0,0,0,.67479,3.5166,12.07468,12.07468,0,0,0,2.6767,3.2305,22.83131,22.83131,0,0,0,6.0381,3.667,14.03769,14.03769,0,0,0,3.7217,1.4931C70.75372,55.716,71.07892,55.2433,71.45292,54.8127Zm12.88379,2.6064c-.96479.8369-1.9941,1.5977-2.9893,2.3985a14.04246,14.04246,0,0,1-4.30949,2.457,3.83528,3.83528,0,0,0-.67191.3887,7.34293,7.34293,0,0,0,.75591,5.375A17.02072,17.02072,0,0,0,78.448,70.1476c1.7735,2.5215,4.3926,3.3965,7.295,3.6182a2.53532,2.53532,0,0,0,2.7695-1.6279,20.73286,20.73286,0,0,0,1.77241-10.461,7.895,7.895,0,0,0-1.09571-3.2353,8.49333,8.49333,0,0,1-.8447-1.7139,1.77175,1.77175,0,0,1,1.0899-2.0195,1.495,1.495,0,0,1,1.8877.4648A12.05011,12.05011,0,0,1,92.49,57.1496a7.81248,7.81248,0,0,0,5.6768,4.4238,12.03514,12.03514,0,0,0,4.5556.4317,11.40938,11.40938,0,0,0,1.3194-.2305,1.49474,1.49474,0,0,0,1.0547-1.0234,4.65035,4.65035,0,0,0,.123-2.8301,7.15082,7.15082,0,0,0-3.8867-4.7461,45.54215,45.54215,0,0,0-4.8418-1.8184c-.9658-.3281-1.9785-.5166-2.9678-.7734a3.79,3.79,0,0,1-2.3037-1.2481C89.86012,52.8371,87.03792,55.0793,84.33672,57.4191Zm.4209-8.664a28.18315,28.18315,0,0,0-10.3525,7.4218,10.78817,10.78817,0,0,0-1.045,1.3692,1.13515,1.13515,0,0,0,.8711,1.8262,3.28306,3.28306,0,0,0,2.22171-.3877,29.975,29.975,0,0,0,3.40529-2.1299c2.1426-1.7168,4.2148-3.5225,6.2558-5.3574a12.19049,12.19049,0,0,0,2.8106-3.6954A11.86153,11.86153,0,0,0,84.75762,48.7551Z" fill="#4f2400" fill-rule="evenodd"/>
      </g>
    </g>
  </g>
</svg>
