<svg xmlns="http://www.w3.org/2000/svg" viewBox="0 0 100.33671 94.63467">
  <title>Recurso 14</title>
  <g id="Capa_2" data-name="Capa 2">
    <g id="Editar">
      <g>
        <g>
          <path d="M74.93069,59.84972c2.119-2.7131,3.0255-10.0679,1.3791-14.9007.7539.5109,1.5424.9807,2.2444,1.5203a29.13666,29.13666,0,0,0,6.0382,3.5685c4.1647,1.776,9.4299,1.3225,12.1847-2.586,3.042-4.3149.2967-9.5641-3.945-11.7713a20.47828,20.47828,0,0,0-12.6438-1.7977,8.45162,8.45162,0,0,0-1.0965.2407,10.25972,10.25972,0,0,0-1.8301-.0958,4.281,4.281,0,0,0-4.2515,3.5379,3.86148,3.86148,0,0,0-4.5315,1.8883c-2.8303,4.9616-5.1784,11.314-3.5516,16.9786C66.19779,60.86,71.42229,64.33732,74.93069,59.84972Z" fill="#de634a"/>
          <path d="M63.14879,37.31252c2.2264-.2487,5.6829-1.6839,6.6999-3.8409a4.99619,4.99619,0,0,0-.255-4.7065,7.402,7.402,0,0,0,5.7526-3.2104c3.3715-4.5531,1.1715-11.5669-2.084-15.5347-.0216-.0257-.044-.0512-.0644-.0759a20.58808,20.58808,0,0,0-1.7109-3.8039c-2.1759-3.7993-7.2307-6.503-11.4765-4.6605-3.2501,1.4091-4.1693,4.392-4.0259,7.4872-1.4073,3.6182-.348,8.8932,1.2997,11.9098a15.95483,15.95483,0,0,0,3.4452,4.1998c-.2003-.0084-.4019-.0191-.5973-.0266a8.41488,8.41488,0,0,0-1.6162.0979,4.47448,4.47448,0,0,0-.5835-.7133c-4.8863-4.8227-11.8331,4.3865-8.8609,9.2697C51.87569,38.30872,58.54289,37.829,63.14879,37.31252Zm.2544-5.0691c.886.1323.2555.9106,0,0Z" fill="#de634a"/>
          <path d="M69.94419,39.79012c2.2274-1.4621,4.5796-2.933,6.6544-4.5939a29.13039,29.13039,0,0,0,4.6512-3.9592,2.31323,2.31323,0,0,0-.2908-3.2385c-3.5431-2.6349-8.3355,2.2098-11.2971,4.017-2.2876,1.397-4.5387,2.9466-6.7115,4.5127-1.7148,1.2357-3.2574,2.9028-2.7461,5.1376C61.26119,46.28592,68.25559,40.89862,69.94419,39.79012Z" fill="#ffaa1d"/>
        </g>
        <path d="M1.32549,94.56662a61.38973,61.38973,0,0,0,8.3253-4.7567c2.7775-1.6759,5.9039-2.6918,8.7944-4.1635a25.36271,25.36271,0,0,0,11.4262-11.2671c2.618-4.9363,3.9947-10.2778,6.0133-15.4463a14.33,14.33,0,0,1,5.3343-7.0442c.5756-.4023,1.1682-.7755,1.7595-1.1516.3699-.2363,1.0155-.8507,1.4506-.9148,1.048-.1547,2.8308-.8894,3.8107-.226,1.138.7701,2.5169-.8937,1.3699-1.6383a4.29571,4.29571,0,0,0-2.477-.6709,11.12142,11.12142,0,0,0-3.5663.3578,27.62223,27.62223,0,0,0-3.8542,2.1231,14.0434,14.0434,0,0,0-3.5754,2.8444,22.79925,22.79925,0,0,0-4.0646,7.8319c-.9903,2.882-2.0648,5.678-3.2203,8.4957a36.02184,36.02184,0,0,1-4.2019,7.8254,20.563,20.563,0,0,1-6.7039,5.5533c-2.9168,1.6785-6.1756,2.6425-9.1028,4.2897a34.39305,34.39305,0,0,0-8.6089,6.4179A.98174.98174,0,0,0,1.32549,94.56662Z" fill="#463131"/>
        <path d="M73.38279,62.52252c3.2666-1.2057,4.745-5.0173,5.3998-8.1355a21.57478,21.57478,0,0,0,.4496-3.6877,17.00253,17.00253,0,0,0,9.5003,3.8883c4.9473.3179,9.8576-2.4491,11.3249-7.3064.7633-2.5255-.1707-5.3156-1.2038-7.6137a18.04421,18.04421,0,0,0-5.1261-6.5805,19.02651,19.02651,0,0,0-7.5233-3.5739,7.084,7.084,0,0,0-3.0844-.0667,4.40383,4.40383,0,0,0,.1136-.5647,2.95981,2.95981,0,0,0-.3547-1.9185,8.65561,8.65561,0,0,0,.8322-.6865c.9189-.3989,1.915-.7124,2.714-.9866a11.62994,11.62994,0,0,1,4.1653-.5923,10.81314,10.81314,0,0,1,4.3407,1.0635c1.1983.5597,2.1621,1.8619,3.5586,1.7676a1.01174,1.01174,0,0,0,.9028-.822c.2986-1.8288-1.7769-2.9846-3.174-3.6805a13.12859,13.12859,0,0,0-5.4604-1.23,11.43259,11.43259,0,0,0-4.4371.6929,13.912,13.912,0,0,0,1.1262-4.0214c.2985-2.5535.1317-6.9405-3.0346-7.5276a1.04793,1.04793,0,0,0-1.0299,1.622,9.7137,9.7137,0,0,1,1.1901,5.6857c-.2076,2.3262-1.3682,5.2584-3.2871,6.7288a1.27062,1.27062,0,0,0-.4362.58,4.06357,4.06357,0,0,0-.9398-.1038c-1.9553.0174-3.9916,1.1351-5.6776,2.0085-1.9555,1.0136-3.8301,2.1647-5.7104,3.3071a7.847,7.847,0,0,0-1.5333.9848c-1.4448,1.1818-2.9017,2.3512-4.2954,3.5947a28.2986,28.2986,0,0,0-3.0578,3.1736.97823.97823,0,0,0-.1663-.101,23.90678,23.90678,0,0,0-3.1434-.9851,13.12582,13.12582,0,0,1-3.0896-1.7121c-1.842-1.2119-4.2169-2.9001-4.6616-5.217-.439-2.2914,1.9627-3.527,3.7805-4.0504,1.4637-.4215,2.5773.3238,3.9921.1995.9089-.0794,2.3857-.3998,3.1763.195a1.82443,1.82443,0,0,0,2.3385-2.7981c-3.7592-3.9198-7.4833-9.2247-6.2175-14.9573.938-4.2581,6.6101-6.182,10.3966-4.888a13.73806,13.73806,0,0,1,8.4897,8.9507c1.4054,4.1705.7912,8.7904-.0879,12.9949a.176.176,0,0,0,.3065.1421c7.6869-8.4036,1.9078-24.3306-9.2463-26.1258-5.8601-.9429-11.7459,2.1094-13.5777,7.8423-.9914,3.1038-.212,6.9252.9964,9.8422a22.58136,22.58136,0,0,0,2.9456,5.0419,9.26984,9.26984,0,0,0-4.2323.0018c-3.114,1.0837-5.9568,2.5953-6.6647,6.1144-.7123,3.5333,2.1016,6.6921,4.682,8.642,2.1413,1.6186,5.345,3.7146,8.2126,3.3468a20.966,20.966,0,0,0-1.5521,3.0083c-.6213,1.5047,1.6647,2.5823,2.2857,1.075.0196-.0444.0402-.0898.0589-.1341.0138.0004.0262.0054.0389.0055a9.88493,9.88493,0,0,0,4.428-1.1248,1.2669,1.2669,0,0,0-.239.2572,12.41613,12.41613,0,0,0-1.4595,2.6268,8.17922,8.17922,0,0,0-.2854,4.0462,16.10093,16.10093,0,0,0,2.118,6.7167C65.237,61.02182,69.17289,64.07462,73.38279,62.52252ZM64.02989,38.105a31.90724,31.90724,0,0,1,5.5189-4.3592c2.8857-1.5866,5.5352-3.5333,8.6167-4.7603a7.35291,7.35291,0,0,1,1.8071-.5055,1.20155,1.20155,0,0,1,.3358-.0022c.0059.0185.0108.0361.0185.0618.2489.8328-1.2814,2.1208-1.8054,2.573-.9311.8045-1.9312,1.3936-2.8509,2.2322a42.79956,42.79956,0,0,1-8.0225,5.4003c-1.5805.9031-3.1824,1.7647-4.8353,2.5283-.8405.3883-1.7403.6573-2.6182.9643A26.01848,26.01848,0,0,1,64.02989,38.105Zm2.3705,17.6548a10.54521,10.54521,0,0,1-1.5963-4.7184,10.20625,10.20625,0,0,1-.0161-3.2511c.1971-.8593.3492-1.718.4712-2.5906a1.49244,1.49244,0,0,0-1.5645-1.6183c1.8633-.8075,3.6299-1.8228,5.4182-2.7757,1.6675-.8896,3.362-1.6509,4.9492-2.6893.8137-.5342,1.5844-1.1358,2.3447-1.7446.6217-.5008,1.3437-1.5018,2.044-1.8335.1934-.091.3873-.1948.5833-.3054a1.07121,1.07121,0,0,0,1.0032-.3389c3.4903-3.6608,9.2391-.4544,12.312,2.2282,2.6727,2.3319,5.6863,7.2076,4.3133,10.8613-1.2196,3.2433-5.3303,4.4918-8.464,3.9689-4.3497-.7256-7.9616-3.6544-10.413-7.1798-1.1622-1.6689-4.2132-.1643-3.2216,1.7115a12.15026,12.15026,0,0,1,.8883,6.8709c-.2381,2.2455-.8593,5.0983-2.7659,6.5467C70.23489,60.76422,67.56549,57.62292,66.40039,55.75982Z" fill="#463131"/>
      </g>
    </g>
  </g>
</svg>
