<svg xmlns="http://www.w3.org/2000/svg" viewBox="0 0 153.00853 85.64561">
  <title>Recurso 5</title>
  <g id="Capa_2" data-name="Capa 2">
    <g id="Editar">
      <g>
        <g>
          <path d="M91.67212,22.0255c-2.3193-3.2344-6.0488-3.7705-9.7588-3.6914a21.49173,21.49173,0,0,0-5.1426.6328c-.6591.1777-1.3496.4463-2.0537.6992a18.14269,18.14269,0,0,0-1.3554-7.9229c-1.2413-3.207-3.1475-7.7861-6.9932-8.4209-3.9199-.6494-8.4893,1.6934-11.5635,3.8926a47.22011,47.22011,0,0,0-5.1396,4.1992,10.614,10.614,0,0,0-1.3848,1.5547,7.1311,7.1311,0,0,0-1.0156-1.6425c-1.3975-1.6612-3.4248-4.1739-5.4834-5.0499A14.92465,14.92465,0,0,0,28.52462,7.547a12.2667,12.2667,0,0,0-6.2314,11.1865c.0117.2558.0273.5215.0469.792a6.74763,6.74763,0,0,0-6.7178-.3604c-2.3799,1.127-4.2793,3.2022-6.5693,4.5401-2.3623,1.3808-5.05963,3.1826-5.13283,6.207-.129,5.5,4.69043,8.4307,9.36033,9.79a17.00574,17.00574,0,0,0,4.7979.6299,9.96237,9.96237,0,0,0-.6348,3.8457c.1103,3.0176,2.2295,5.6602,4.2099,7.7217,1.3448,1.3994,1.8624,3.5771,3.4678,5.04,3.6309,3.3096,9.5635-.1543,13.0547-2.082a17.652,17.652,0,0,0,3.6983-2.6885,14.67161,14.67161,0,0,0,2.7822,3.0147c3.4551,2.8252,7.8965,1.6904,11.6777.3437,3.4883-1.2402,7.0586-2.5361,9.4307-5.542a10.63308,10.63308,0,0,0,1.4697-2.6093,22.92021,22.92021,0,0,0,3.6055,2.7939,13.797,13.797,0,0,0,13.4912.0332c4.2529-2.2734,6.1709-6.2969,4.5127-10.959a7.73684,7.73684,0,0,0-3.499-3.9267,12.30758,12.30758,0,0,0,4.1767-3.2471C91.69362,29.419,94.03642,25.3223,91.67212,22.0255Z" fill="#fff"/>
          <path d="M90.85182,34.2784c6.0547-2.0879,9.0254-10.6543,5.8965-16.0811-1.7119-2.9677-5.4698-4.8691-8.6826-5.5761-3.1504-.6934-6.4668-.0674-9.6739.0664a1.8451,1.8451,0,0,0,.0313-.1865,8.21465,8.21465,0,0,0,.3056-1.9747,13.21893,13.21893,0,0,0-.7343-2.6376,12.726,12.726,0,0,0-2.3135-3.6739c-2.0537-2.3037-4.5527-2.8447-7.3857-3.6426a11.37356,11.37356,0,0,0-8.9122.7139,19.49649,19.49649,0,0,0-5.375,4.8965c-3.1367-2.4902-6.9785-3.8428-10.8642-5.0352a24.23132,24.23132,0,0,0-7.6895-.9453c-2.2461.0459-5.2666.4112-7.1797,1.6992a21.701,21.701,0,0,0-5.6171,5.6221c-1.4268,2.0352-2.1983,4.3506-3.4444,6.4492a5.97113,5.97113,0,0,0-.7842,3.5557c-7.1347-.5977-14.2236,3.7061-17.44723,10.1699a9.44365,9.44365,0,0,0,2.6709,11.6983c2.18943,1.5576,4.80173,1.583,7.38473,1.6054a26.57864,26.57864,0,0,0,4.4395-.3554c-.3057.7578-.6074,1.5166-.8633,2.291a19.72024,19.72024,0,0,0-.9141,6.5986,11.64868,11.64868,0,0,0,6.1954,9.8145c6.2197,3.3095,13.5976-.2998,18.7421-4.3721,2.3321,5.0332,9.5206,5.8975,14.8028,5.2158,5.4004-.6963,12.1396-4.4306,14.9521-9.6806a15.46587,15.46587,0,0,0,18.2676,3.5585c3.8399-1.8701,6.9756-4.8964,6.9619-9.4511a11.73561,11.73561,0,0,0-1.6972-5.9434A11,11,0,0,0,90.345,36.836c-.7256-.7637-1.6211-1.1006-2.3428-1.7851-.7481-.711-1.8965.2353-1.5625,1.1269a14.4163,14.4163,0,0,0,1.3115,3.0967,8.279,8.279,0,0,1,1.4316,4.165c.1905,3.3457-2.6464,5.3828-5.3193,6.6153-5.8223,2.6855-11.5898-.6446-14.5391-5.7862-.9335-1.6289-3.8154-.915-3.9697.919-.4209,5.0488-6.9219,9.374-11.5332,10.2344-3.6924.6875-11.1035,1.0947-11.3506-4.1485-.1211-2.5254-3.4375-2.5683-4.3545-.7109-4.6445,1.5947-9.5732,5.7275-14.6894,4.6426-3.1192-.6631-4.6055-3.9756-4.6963-6.8067-.1113-3.5078,1.7246-6.8164,2.791-10.0693a2.48794,2.48794,0,0,0-3.1113-3.3184c-3.2451.7774-7.9199,1.7227-11.1758.6055-2.9014-.9941-2.6113-4.7334-1.5811-6.96,2.2383-4.8388,8.6426-10.3105,14.1846-8.2841a3.012,3.012,0,0,0,1.2852.5732,1.22281,1.22281,0,0,0,.4033.0508,4.55,4.55,0,0,0,1.3525-.1114A2.09168,2.09168,0,0,0,22.8,16.7286a5.27461,5.27461,0,0,1,.4151-.915c.7207-1.3663,1.375-2.8038,2.1552-4.1592,1.7764-3.0801,4.3624-5.8594,7.9581-6.4746a19.36975,19.36975,0,0,1,10.1435,1.2666c3.167,1.1836,6.5068,2.2002,8.79,4.8457a2.53043,2.53043,0,0,0,3.9454.1181,27.253,27.253,0,0,1,4.2373-4.8828A6.75773,6.75773,0,0,1,66.759,5.3087c1.917.4277,3.9151.7441,5.2862,2.2822a9.50684,9.50684,0,0,1,1.5595,2.7109c.3662.8594.9795,1.7344,1.2764,2.5459a1.6666,1.6666,0,0,0,.8047.9073,2.2196,2.2196,0,0,0,2.0097,2.9267c2.3584.0576,4.7071-.1914,7.0645-.1914a11.057,11.057,0,0,1,7.6318,3.2139c4.2217,3.8379-1.9248,9.1699-3.3662,12.624A1.45645,1.45645,0,0,0,90.85182,34.2784Z" fill="#463131"/>
        </g>
        <g>
          <path d="M146.67212,47.0255c-2.3193-3.2344-6.0488-3.7705-9.7588-3.6914a21.49173,21.49173,0,0,0-5.1426.6328c-.6591.1777-1.3496.4463-2.0537.6992a18.14269,18.14269,0,0,0-1.3554-7.9229c-1.2413-3.207-3.1475-7.7861-6.9932-8.4209-3.9199-.6494-8.4893,1.6934-11.5635,3.8926a47.22011,47.22011,0,0,0-5.1396,4.1992,10.614,10.614,0,0,0-1.3848,1.5547,7.1311,7.1311,0,0,0-1.0156-1.6425c-1.3975-1.6612-3.4248-4.1739-5.4834-5.0499a14.92465,14.92465,0,0,0-13.2569,1.2706,12.2667,12.2667,0,0,0-6.2314,11.1865c.0117.2558.0273.5215.0469.792a6.74763,6.74763,0,0,0-6.7178-.3604c-2.3799,1.127-4.2793,3.2022-6.5693,4.5401-2.3623,1.3808-5.0596,3.1826-5.1328,6.207-.129,5.5,4.6904,8.4307,9.3603,9.79a17.00574,17.00574,0,0,0,4.7979.6299,9.96237,9.96237,0,0,0-.6348,3.8457c.1103,3.0176,2.2295,5.6602,4.2099,7.7217,1.3448,1.3994,1.8624,3.5771,3.4678,5.04,3.6309,3.3096,9.5635-.1543,13.0547-2.082a17.652,17.652,0,0,0,3.6983-2.6885,14.67161,14.67161,0,0,0,2.7822,3.0147c3.4551,2.8252,7.8965,1.6904,11.6777.3437,3.4883-1.2402,7.0586-2.5361,9.4307-5.542a10.63308,10.63308,0,0,0,1.4697-2.6093,22.92021,22.92021,0,0,0,3.6055,2.7939,13.797,13.797,0,0,0,13.4912.0332c4.2529-2.2734,6.1709-6.2969,4.5127-10.959a7.73684,7.73684,0,0,0-3.499-3.9267,12.30758,12.30758,0,0,0,4.1767-3.2471C146.69362,54.419,149.03642,50.3223,146.67212,47.0255Z" fill="#fff"/>
          <path d="M145.85182,59.2784c6.0547-2.0879,9.0254-10.6543,5.8965-16.0811-1.7119-2.9677-5.4698-4.8691-8.6826-5.5761-3.1504-.6934-6.4668-.0674-9.6739.0664a1.8451,1.8451,0,0,0,.0313-.1865,8.21465,8.21465,0,0,0,.3056-1.9747,13.21893,13.21893,0,0,0-.7343-2.6376,12.726,12.726,0,0,0-2.3135-3.6739c-2.0537-2.3037-4.5527-2.8447-7.3857-3.6426a11.37356,11.37356,0,0,0-8.9122.7139,19.49649,19.49649,0,0,0-5.375,4.8965c-3.1367-2.4902-6.9785-3.8428-10.8642-5.0352a24.23132,24.23132,0,0,0-7.6895-.9453c-2.2461.0459-5.2666.4112-7.1797,1.6992a21.701,21.701,0,0,0-5.6171,5.6221c-1.4268,2.0352-2.1983,4.3506-3.4444,6.4492a5.97113,5.97113,0,0,0-.7842,3.5557c-7.1347-.5977-14.2236,3.7061-17.4472,10.1699a9.44365,9.44365,0,0,0,2.6709,11.6983c2.1894,1.5576,4.8017,1.583,7.3847,1.6054a26.57864,26.57864,0,0,0,4.4395-.3554c-.3057.7578-.6074,1.5166-.8633,2.291a19.72024,19.72024,0,0,0-.9141,6.5986,11.64868,11.64868,0,0,0,6.1954,9.8145c6.2197,3.3095,13.5976-.2998,18.7421-4.3721,2.3321,5.0332,9.5206,5.8975,14.8028,5.2158,5.4004-.6963,12.1396-4.4306,14.9521-9.6806a15.46587,15.46587,0,0,0,18.2676,3.5585c3.8399-1.8701,6.9756-4.8964,6.9619-9.4511a11.73561,11.73561,0,0,0-1.6972-5.9434,11,11,0,0,0-1.5791-1.8418c-.7256-.7637-1.6211-1.1006-2.3428-1.7851-.7481-.711-1.8965.2353-1.5625,1.1269a14.4163,14.4163,0,0,0,1.3115,3.0967,8.279,8.279,0,0,1,1.4316,4.165c.1905,3.3457-2.6464,5.3828-5.3193,6.6153-5.8223,2.6855-11.5898-.6446-14.5391-5.7862-.9335-1.6289-3.8154-.915-3.9697.919-.4209,5.0488-6.9219,9.374-11.5332,10.2344-3.6924.6875-11.1035,1.0947-11.3506-4.1485-.1211-2.5254-3.4375-2.5683-4.3545-.7109-4.6445,1.5947-9.5732,5.7275-14.6894,4.6426-3.1192-.6631-4.6055-3.9756-4.6963-6.8067-.1113-3.5078,1.7246-6.8164,2.791-10.0693a2.48794,2.48794,0,0,0-3.1113-3.3184c-3.2451.7774-7.9199,1.7227-11.1758.6055-2.9014-.9941-2.6113-4.7334-1.5811-6.96,2.2383-4.8388,8.6426-10.3105,14.1846-8.2841a3.012,3.012,0,0,0,1.2852.5732,1.22281,1.22281,0,0,0,.4033.0508,4.55,4.55,0,0,0,1.3525-.1114A2.09168,2.09168,0,0,0,77.8,41.7286a5.27461,5.27461,0,0,1,.4151-.915c.7207-1.3663,1.375-2.8038,2.1552-4.1592,1.7764-3.0801,4.3624-5.8594,7.9581-6.4746a19.36975,19.36975,0,0,1,10.1435,1.2666c3.167,1.1836,6.5068,2.2002,8.79,4.8457a2.53043,2.53043,0,0,0,3.9454.1181,27.253,27.253,0,0,1,4.2373-4.8828,6.75773,6.75773,0,0,1,6.3144-1.2187c1.917.4277,3.9151.7441,5.2862,2.2822a9.50684,9.50684,0,0,1,1.5595,2.7109c.3662.8594.9795,1.7344,1.2764,2.5459a1.6666,1.6666,0,0,0,.8047.9073,2.2196,2.2196,0,0,0,2.0097,2.9267c2.3584.0576,4.7071-.1914,7.0645-.1914a11.057,11.057,0,0,1,7.6318,3.2139c4.2217,3.8379-1.9248,9.1699-3.3662,12.624A1.45645,1.45645,0,0,0,145.85182,59.2784Z" fill="#463131"/>
        </g>
      </g>
    </g>
  </g>
</svg>
