<svg xmlns="http://www.w3.org/2000/svg" viewBox="0 0 323.935 288.259"><title>mariposa2</title><g id="Capa_2" data-name="Capa 2"><g id="Objects"><path d="M279.85,114.715C270.008,97.9,255.425,84.7,237.3,81.286c-.2-1.337-.384-2.671-.638-3.994C226.4,24.211,155.845-11.669,115.892,24.919c-26,9.863-27.968,42.386-20.883,66.614,4.464,43.909,32.55,90.191,77.244,74.02,1.175-.425,2.355-.927,3.536-1.458a35.861,35.861,0,0,0,18.385,15.862c-12.93,2.825-24.514,14.707-25.016,28.847-.637,18.005,1.8,33.533,17.725,44.432.319.218.69.378,1.033.573,1.346,4.056,2.757,8.1,4.546,12.127,6.748,15.206,29.226,15.717,39.812,5.131a24.543,24.543,0,0,0,6.435-11.248c.03.021.053.042.083.062,8.378-22.15-5.5-54.664-20-71.632a26.588,26.588,0,0,0-6.577-5.57,41.415,41.415,0,0,0,23.877-9.65,54,54,0,0,0,11.106,1.44c12.771.369,25.559-7.259,31.835-18.261.272-.478.549-.956.82-1.435A40.14,40.14,0,0,0,279.85,114.715Z" fill="#9860a4"/><path d="M145.46,173.792a30.44,30.44,0,0,0-9.476-3.6c-5.29-6.778-14.772-10.545-23.486-5.267-9.707,5.878-17.642,14.8-25.163,23.168-8.526,9.494-20.411,24.018-23.085,36.842-3.183,15.236,4.239,33.834,21.137,37.235,18.946,3.811,34.191-1.842,48.39-14.539,10.74-9.6,21.255-25,26.032-38.592C164.406,195.954,156.9,180.5,145.46,173.792Z" fill="#9860a4"/><path d="M241.456,197.828c-6.459-6.557-12.369-7.719-21.314-9.691-12.659-2.79-24.685-8.452-36.423-13.763-20.121-9.11-36.741-8.67-58.038-7.764-2.025.086-2.7,3.413-.5,3.711,33.819,4.579,80.615,71.213,116.277,41.4C245.588,208.264,244.957,201.386,241.456,197.828Z" fill="#e16d3a"/><path d="M316.55,104.519c-8.389-18.179-25.76-32.29-45.7-35.1-15.445-2.179-29.8,3.105-41.548,12.31-.962-14.02-2.267-27.9-7.77-41.143A64.669,64.669,0,0,0,184.687,5.353C153.218-6.562,110.986,1.609,88.9,27.9c-17.931,21.332-15.522,52.827-6.247,77.314,2.828,7.445,7.3,17.9,13.338,26.419-14.985-1.547-29-5.857-41.258-16C39.156,102.76,25.523,78.978,22.37,58.035c6.212-2.837,5.155-14.093-3.141-14.093H14.311a7.417,7.417,0,0,0-7.374,7.368c1.01,26.185,16.207,54.006,34.61,72.244,14.725,14.6,33.689,20.761,53.48,22.766-.254.121-.5.271-.756.392-11.6-.138-23.2-.065-34.634.906-19.153,1.627-36.954,10.194-54.654,16.966C-3.809,167.942,0,182.194,8.9,178.8c17.973-6.873,35.649-15.156,55.068-16.8,3.72-.319,7.474-.493,11.242-.614-24.325,26.173-35.6,72.116-5.3,94.584,27.561,20.431,68.8,9.329,88.267-16.744,6.241,27.018,20.907,54.687,49.713,48.039,21.1-4.868,36.033-27.295,43.094-46.084,5.1-13.586,6.164-28.966,1.8-42.525,21.137-.647,39.871-9.081,54.855-24.591C327.213,153.789,327.81,128.9,316.55,104.519ZM203.976,273.044c-27.124,8.724-34.7-48.514-34.894-64.5-.112-9.514-14.506-9.491-14.737,0-.808,31.885-38.59,49.208-66.416,40.508C46.754,236.182,69.852,178.2,98.215,161.376c8.844.192,17.671.478,26.362.484,15.215,19.135,37.68,31.274,60.931,38.05,11.632,3.386,39.54,13.458,54.254,6.32C246.019,231.674,227.935,265.333,203.976,273.044ZM149.227,165.887c4.522.868,9.022,1.857,13.585,2.438a173.577,173.577,0,0,1,22.023,3.82c14.17,3.649,33.288,7.36,45.35,17.012a.091.091,0,0,1,.011.027,33.68,33.68,0,0,1,2.982,3.354c-1.99.915-13.279.216-15.115-.047-9.7-1.405-19.23-4.1-28.641-6.8C175.123,181.6,160.97,175.2,149.227,165.887Zm100.92,18.087a7.142,7.142,0,0,0-3.537.892c-6.548-10.607-25.931-17.016-34.905-20.145-10.315-3.592-20.925-6.352-31.516-8.939-4.558-1.107-8.9-1.314-13.609-1.712-6.046-.5-12.127-2.081-18.073-3.312-3.944-.809-10.332-.446-14.146-2.209A6.891,6.891,0,0,0,130,142.7c6-5.086-1.016-15.962-8.856-11.772-12.133,6.482-24.384-29.432-26.952-37.146-6.666-19.905-5.964-43.918,8.986-59.794,18.6-19.749,54.873-24.42,78.985-13.777,31.971,14.111,30.914,48.263,33.606,77.775.514,5.724,8.024,10.633,12.576,5.213,22.371-26.651,56.338-24.635,74,5.869C324.427,147.262,288.736,183.974,250.147,183.974Z"/></g></g></svg>