<svg xmlns="http://www.w3.org/2000/svg" viewBox="0 0 469.376 408.353"><title>art2</title><g id="Capa_2" data-name="Capa 2"><g id="Objects"><path d="M88.039,154.945c-3.355-4.594-1.533-5.477-5.373-9.9-5.628-6.484-17.036-15.06-26.772-12.3a9.477,9.477,0,0,0-5.1,3.172,5.683,5.683,0,0,0-4.595,3.757c-4.057,10.55-1.14,23.094,1.754,33.355,1.911,6.775,7.856,23.049,16.051,25.047a10.76,10.76,0,0,0,12.2-4.79c2.856-4.36,10.483-6.01,15.231-7.363-1.157.33,3.814.181,4.751-.173C98.394,184.924,90.732,158.634,88.039,154.945Z" fill="#d67540"/><path d="M133,284.388a19.83,19.83,0,0,0-2.559-3.692c-1.387-3.365-1.8-8.612-2.892-11.338-2.651-6.616-4.581-13.583-6.707-20.39-4.24-13.548-7.742-27.36-14.154-40.036-1.645-3.25-3.371-6.438-4.779-9.8-.807-1.929-.279-4.457-1.084-6.32-1.572-3.626-4.731-7.412-9.321-7.111-10.668.7-21.877,3.319-28.657,12.162a5.466,5.466,0,0,0,0,5.8l.448.624a5.4,5.4,0,0,0,2.124,1.735,9.4,9.4,0,0,0-.81,3.607c-.135,7.478,6.959,14.726,11.386,20.051,5.727,6.9,9.978,14.917,15.8,21.841A178.815,178.815,0,0,1,106.17,271.6a64.481,64.481,0,0,0,8.006,10.283c1.106,1.16,2.794,2.666,4.215,4.242a14.636,14.636,0,0,0,5.451,7.455C129.659,297.863,135.7,289.655,133,284.388Z" fill="#b8a764"/><path d="M63.143,123.379a67.3,67.3,0,0,0-15.583,1.941,4.687,4.687,0,0,0-3.354,4.428c0,2.669,2.1,4.1,4.569,4.32,2.262.2,11.822-4.853,14.368-5.019C69.43,128.639,69.43,123.36,63.143,123.379Z" fill="#edc940"/><path d="M73.936,108.268c0-.188,0-.379,0-.566-.067-2.953-1.754-5.76-2.672-8.475-1.15-3.4-2.807-7.777-6.259-9.391a6.1,6.1,0,0,0-6.421.777,7.915,7.915,0,0,0-2.2-.284,10.634,10.634,0,0,0-2.262.315c-1.726-2.959-6.346-3.111-8.952-.688a9.161,9.161,0,0,0-2.5,4.627,10.291,10.291,0,0,1-1.391,1.325c-1.03.721-.794-.883-1.136-1.873a6.3,6.3,0,0,0-4.751-4.647c-3.061-.924-6.743,1.975-6.538,5.12.289,4.432-3.018,4.31-3.892,2.833-.163-.273-.325-.548-.487-.821-1.677-2.832-5.226-2.589-7.609-.67-4.642,3.735-5,14.051-4.078,19.244,1.4,7.944,6.955,13.538,15.452,13.99,8.521.453,17.6.359,25.538-3.224,3.249-1.47,6.672-1.291,9.8-3.057a7.59,7.59,0,0,0,2.359-2.143c4.056,1.534,9.433-.794,9.226-5.9A21.159,21.159,0,0,0,73.936,108.268Z" fill="#edbb7a"/><path d="M59.839,82c-.623-4.843-6.256-11.123-11.724-11.259-.146-.149-.3-.292-.438-.447-.287-.311-.585-.609-.88-.908a24.784,24.784,0,0,0-4.7-5.535c-.221-.379-.455-.756-.715-1.135-1.675-2.429-3.56-4.737-5.256-7.135a2.425,2.425,0,0,0-3.336-.714c-3.524,2.763-1.434,6.789.735,9.521.974,1.231,1.818,2.5,2.693,3.7.014.077.025.176.041.245s.046.148.065.224a5.212,5.212,0,0,0-2.739.415,15.452,15.452,0,0,0-4.395-7.223c-4.785-4.228-11.618-5.338-17.934-3.541-3.918,1.114-3.918,6.919,0,7.706,4.1.824,8.029-.32,11.595,2.288,2.24,1.641,2.309,4.446,2.067,7.22a9.015,9.015,0,0,0-.19,5.758c.036.14.094.253.137.381a106.109,106.109,0,0,1-2.3,11.538A3.449,3.449,0,0,0,25.1,97.369c5.961,1.39,7.6-5.03,7.359-9.5-.076-1.456.656-2.989,1.163-4.46a14.617,14.617,0,0,0,1.519,3.923,4.3,4.3,0,0,0,3.929,1.924c.357.35.709.68,1.053.968,2.209,1.846,6.349.527,6.182-2.743a8.023,8.023,0,0,0-.954-3.995c3.109.434,6.135,2.115,9.235,2.637C56.941,86.518,60.195,84.772,59.839,82Z" fill="#ff3654"/><path d="M459.68,317.842c-1.724-9.594-4.162-17.785-9.874-25.661-4.184-5.762-9.592-11.32-16.288-13.873a42.077,42.077,0,0,0-9.9-2.359,2.018,2.018,0,0,0-2.728-.533c-.144.085-.3.135-.449.209-3.946-.313-7.939-.366-12.035-.6-3.971-.225-10.168.107-12.289,4.374-4.115-10.8-17.593-16.7-27.194-8.387-3.564,3.084-8.273,8.744-8.831,13.6a2.941,2.941,0,0,0,.588,2.367,58.636,58.636,0,0,0-1,7.392,122.47,122.47,0,0,0,.265,30.54,102.054,102.054,0,0,0,7.782,26.87c3.815,8.736,10.685,15.858,17.076,22.717,3.8,4.082,13.105,6.386,18.439,7,9.756,1.13,19-2.628,28.062-6,6.948-2.587,13.35-4.448,18.669-10s10.1-13.192,11.052-20.957C462.068,336.061,461.184,326.212,459.68,317.842ZM391.394,300.1a18.656,18.656,0,0,1-3.564,2.067,8.276,8.276,0,0,1-7.169,1.322,13.749,13.749,0,0,1-4.345.118c-3.194-.682-5.013-2.2-7.437-4.442-3.837-3.549-1.864-10.27,2.338-12.54a28.015,28.015,0,0,1,5.05-2.2,11.5,11.5,0,0,1,.936-.9c5.652-4.877,12.2.126,15.625,4.813C395.38,291.824,395.131,297.368,391.394,300.1Z" fill="#fff"/><path d="M402.18,355.781a25.22,25.22,0,0,0-1.913-3.87c-8.214-13.975-26.467-4.4-16.878,7.048a9.756,9.756,0,0,0,.913,3.114c1.189,2.433,4.772,5.533,7.576,5.47a5.705,5.705,0,0,0,3.068-.929C400.383,363.027,404.435,361.832,402.18,355.781Z" fill="#ff3654"/><path d="M439.916,349.19a11.342,11.342,0,0,0-2.308-5.663,6.927,6.927,0,0,0-11.518.69c-.177.077-.353.146-.528.228-.238.113-.458.245-.68.377a6.3,6.3,0,0,0-2.9-.649,6.954,6.954,0,0,0-6.765,6.963c.139,4.56,1.915,9.209,6.2,11.254a14.436,14.436,0,0,0,13.384-.651C439.211,359.369,441.671,353.923,439.916,349.19Z" fill="#5cb854"/><path d="M452.933,315.931c-.133-.253-.306-.473-.455-.709-1.321-3.815-5.421-6.32-8.82-7.713a9.491,9.491,0,0,0-12.591,5.718c-1.611,4.654.579,8.926,3.967,11.762.2.261.411.511.627.756a4.309,4.309,0,0,0,.8,4.508c2,2.545,5.719,2.8,8.647,3.112,2.011.217,4.233-1.374,5.18-3.1a11.036,11.036,0,0,0,1.108-3.235A9.486,9.486,0,0,0,452.933,315.931Z" fill="#ffd154"/><path d="M425.076,285.262a21.934,21.934,0,0,0-10.749,1.089c-3.337,1.52-3.912,5.22-3.385,8.417a7.308,7.308,0,0,0,2.923,4.285,9.739,9.739,0,0,0,1.134.9,7.81,7.81,0,0,0,1.291.69,6.048,6.048,0,0,0,4.732,2.394,10.255,10.255,0,0,0,7.129-2.8,4.826,4.826,0,0,0,1.362-2A8.678,8.678,0,0,0,431.249,295C432.592,290.342,429.168,286.447,425.076,285.262Z" fill="#2965c2"/><path d="M224.658,393.1a13.1,13.1,0,0,0-3.668-1.888,4.7,4.7,0,0,0-2.416-2.831c-2.862-1.66-6.931-1.2-10.075-1.182a72.124,72.124,0,0,0-20.216,2.639c-1.919.558-3.363,2.62-2.677,4.541a4.11,4.11,0,0,0-.212.371,5.852,5.852,0,0,0-.5,1.99c-.547,2.185,1.045,4.571,3.274,5.94a3.064,3.064,0,0,0,.456.223,3.939,3.939,0,0,0,1.469,1.394,8.4,8.4,0,0,0,5.216.674c2.933.979,6.852.753,10.574.113,6.887,1.135,14.98-.272,19.068-3.417C227.657,399.579,227.286,395.1,224.658,393.1Z" fill="#4dc0d8"/><path d="M320.893,384.273c-4-2.952-10.858-2.389-15.465-2.367a60.333,60.333,0,0,0-19.117,3.021,16.878,16.878,0,0,0-1.713.69,11.785,11.785,0,0,0-5.421,3.114c-1.7,1.82-1.939,3.31-1.3,4.538-.4,2.851,1.207,5.726,5.785,7.557,2.141.858,3.268-1.861,2.163-3.417a64.561,64.561,0,0,0,7.055,1.207,1.889,1.889,0,0,0,1.953,1.284,53.387,53.387,0,0,0,7.55-.8,50.92,50.92,0,0,0,16.277-2.84C324.453,394.087,326.2,388.193,320.893,384.273Z" fill="#4dc0d8"/><path d="M274.691,246c-3.968-8.042-2.5-20.245-12.487-23.58a5.336,5.336,0,0,0-6.421,2.488c-3.286,5.973-8.85,6.863-15.425,7.063-8.311.251-5.966-8.06-10.46-11.8a21.168,21.168,0,0,0-11-4.933,1.993,1.993,0,0,0-2.095-2.131c-5.821.139-4.356,9.7-4.18,13.4.235,4.923.085,9.881.085,14.815,0,5.676-1.119,10.655,1.579,15.9,4.856,9.458,13.452,7.133,22.744,6.963,5.062-.092,9.994.608,15.024-.35A106.4,106.4,0,0,1,270.871,262C279.26,261.881,276.919,250.517,274.691,246Z" fill="#7fc0d8"/><path d="M315.616,319.769c-3.057-7.832-4.736-16.963-6.669-25.155-2.309-9.767-4.626-19.294-7.618-28.911-3.377-10.848-7.154-22.136-9.077-33.355-.676-3.94-.821-10.7-5.812-11.386-3.994-.548-11.6,3.16-14.441,5.949-4.364,4.281-1.388,9.134,1.335,13.524,2.184,3.522,6.774,7.883,5.922,12.478-.4,2.17-12.88,2.308-14.767,2.486-8.549.8-16.915,2.688-25.526,3.448-4.609.405-9.354.175-13.97.261-2.748.052-7.537,1.079-10.836.662v-22.4c0-3.881,0-7.754.18-11.635.027-.594.212-9.831,1.636-10.5,2.532-1.186.375-4.81-2.133-3.7a2.121,2.121,0,0,0-2.757.859c-2.133,3.134-3.025,7.608-3.637,11.9-1.879,4.977-2.666,10.244-4.364,15.284a73.2,73.2,0,0,0-3.506,17.349c-.366,1.432-.706,2.873-1,4.325-1.845,9.251-1.864,18.814-3.329,28.13-1.66,10.553-.841,21.5-.841,32.121,0,7.664-1.509,17.037,1.042,24.355.533,1.537,1.779,3.593,3.56,4,3.418.773,9.378,1.4,12.59.25,8.258-2.971,18.31-3.26,27.03-4.162,9.471-.979,18.588-.981,28.136-1.069,9.011-.082,18.127.324,27.067-1.091,7.1-1.127,16.525-1.155,21.8-6.8C319.205,333.15,317.256,323.972,315.616,319.769Z" fill="#bde28d"/><path d="M347.6,158.508a10.516,10.516,0,0,0-4.362-6.812,15.324,15.324,0,0,0-13.1-2.321c-.2-.072-.412-.13-.623-.184a163.733,163.733,0,0,0,5.374-25.859c.493-4.217-3.641-7.753-7.613-7.627a95.275,95.275,0,0,1-30.629-3.631c-9.375-2.668-18.864-5.026-27.76-9-9.3-4.145-17.991-9.03-27.629-12.553-12.183-4.44-37.76-13.6-52.263-6.792a1.9,1.9,0,0,0-1.09-.285l-.947.036a2.029,2.029,0,0,0-3.476-.671,57.456,57.456,0,0,0-5.38,6.934c-1.59,2.259-3.083,4.569-4.452,6.937a15.052,15.052,0,0,0-2.1-5.775,18.034,18.034,0,0,0-2.172-6.36,6.046,6.046,0,0,0-8.67-1.5,9.925,9.925,0,0,0-3.117,3.424c-9.053,3.787-9,22.6-5.474,29.322,2.312,4.412,7.737,5.639,12.142,3.768a97.519,97.519,0,0,0-2.32,11.521,113.57,113.57,0,0,0-.55,26.488c.807,7.835,6.673,16.615,11.464,22.5a81.65,81.65,0,0,0,21.65,18.279c4.136,4.6,11.569,7.687,15.908,9.885a112.551,112.551,0,0,0,22.436,8.9,31.8,31.8,0,0,0,.851,3.672c.723,2.527,1.225,5.129,1.935,7.654,1.1,5.063,3.608,10.178,8.871,8.027a8.166,8.166,0,0,0,3.749-3.613,11.214,11.214,0,0,0,4.187-2.831c2.038-2.274,4.617-6.4,3.246-9.464-.056-.129-.124-.221-.184-.337a13.11,13.11,0,0,0,.147-1.544c2.862-.226,5.672-.561,8.443-1.039,9.738.409,19.727-1.225,24.775-8.709.169-.252.339-.537.51-.836.166-.118.327-.243.489-.364a42.77,42.77,0,0,0,11.941-6.811c3.519-2.928,6.882-6.18,10.336-9.21,3.692-3.239,5.046-9.009,6.927-13.416q.594-1.395,1.178-2.813c5.36,4.018,16.852-.988,20.889-4.852a10.664,10.664,0,0,0,.815-.874c3.312-1.765,6.316-4.132,6.594-8.168A4.146,4.146,0,0,0,347.6,158.508Z" fill="#ffe6c9"/><path d="M318.435,163.709c-4.632-8.453-15.5-12.235-23.76-5.876a11.718,11.718,0,0,0-1.531,1.45,17.564,17.564,0,0,0-6.551,18.146C291.418,196.512,328.276,181.692,318.435,163.709Z" fill="#f7bfa7"/><path d="M204.7,144.86c-2.565-5.776-7.414-8.8-12.943-11.512-2.84-1.387-6.114-2.9-9.316-3-5.254-1.637-11.826,3.194-14.833,7.845a10.858,10.858,0,0,0-1.034,10.02c-2.585,12.475,15.974,24.777,28.089,20.507,5.4-1.906,9.191-6.845,10.664-12.319a.045.045,0,0,0,0-.014c.109-.4.217-.805.3-1.213a13.835,13.835,0,0,0,.232-1.431c.015-.124.034-.249.047-.375.015-.185.027-.371.036-.557A16.466,16.466,0,0,0,204.7,144.86Z" fill="#f7bfa7"/><path d="M372.176,70.766c-4.1-3.555-10.163-4.5-15.455-4.545-7.66-.073-15.317-1.562-23.007-.951-8.062.639-15.735,3.445-23.9,3.768-9.8.388-16.554-3.392-24.657-8.061-15.974-9.178-26.209-26.921-26.686-45.7-.072-2.8-4.408-2.6-4.335.2.018.736.058,1.469.1,2.2-2.2-2.176-6.615-2.575-9.567-3.2a59.994,59.994,0,0,0-23.809-.037c-8.637,1.771-16.771,6.4-25.236,8.928-8.571,2.555-14.68,7.928-20.483,14.6-5.232,6.006-8.188,12.525-10.987,19.93-2.866,7.577-.557,12.237,4.882,17.515,3.943,3.832,9.4,4.356,15.036,2.612,3.888-1.2,7.168-3.2,10.707-5.209a14.107,14.107,0,0,0,1.629-1.117c-1.856,2.293-3.77,4.462-5.182,6.285-2.728,3.527-5.158,7.335-6.258,11.641a15.555,15.555,0,0,0,7.355,16.9c7.316,4.1,17.358-2.334,22.915-6.994,4.47-3.753,8.85-7.659,13.215-11.541,2.82-2.513,6.4-6.581,10.092-8.774-1.2,5.992-6.828,12.375-8.2,18.1-1.205,5.029-1.185,9.965,2.114,13.874,9.253,10.977,24.142-.119,30.993-8.337a27.391,27.391,0,0,0,4.265-6.711,23.142,23.142,0,0,1,3.425-5.3c2.475-2.772,1.249-.11,1.544,2.158.761,5.877.164,14.994,2.936,20.348,1.932,3.736,5.459,6.844,10.035,5.422,5.129-1.6,6.342-7.543,8.794-11.675,2.749-4.639,4.563,5.229,5.256,6.386,2.36,3.949,3.818,8.449,5.78,12.641,2.955,6.321,5.489,10.406,12.022,13.2,11.761,5.033,20.57-4.331,19.533-16.233-.047-.555,5.413,3.107,5.825,3.339,2.438,1.365,6.845.906,9.514.924a21.142,21.142,0,0,0,16.921-7.457c8.684-9.946,4.709-21.954-.411-31.793,3.241-2.018,6.909-.548,8.093-5.99C378.017,77.339,375.413,73.573,372.176,70.766Z" fill="#c26f25"/><path d="M353.71,55.62c-3.1-5.252-8.985-8.524-13.4-12.482-5.062-4.53-10.163-9.247-15.051-13.974A55.383,55.383,0,0,0,312.378,19.9a2.069,2.069,0,0,0,.03-.29v-.971c0-2.238-2.72-2.57-3.847-1.208-8.071-.69-15.527-5.009-22.752-8.124C280.28,6.93,274.3,5.876,268.674,3.9c-8.374-2.931-10.956,6.55-11.613,13.261-1.262,12.872,5.542,24,15.3,32.81,1.435,3.365,4.125,5.357,6.247,8.98,2.632,4.5,7.58,7.4,12.238,9.332,5.924,2.455,13.2,2.728,19.58,3.391,2.889.3,5.77.645,8.655.953a84.144,84.144,0,0,0,26.228,1.16C355.52,72.668,358.589,63.9,353.71,55.62Z" fill="#c22f25"/><path d="M272.936,140.563a5,5,0,0,1,4.041-3.29c3.277-.345,4.856,3.866,4.746,6.557a3.252,3.252,0,0,1-1.512,2.7,3.025,3.025,0,0,1-3.7-.364.253.253,0,0,0-.027-.027,3.87,3.87,0,0,1-3.042-2.25,5.366,5.366,0,0,1-.5-1.429A4.08,4.08,0,0,1,272.936,140.563Z"/><path d="M204.461,124.164c0-.012.005-.024.01-.036h.005a2.9,2.9,0,0,1,.669-1.157,2.624,2.624,0,0,1,2.3-1.434,3.08,3.08,0,0,1,.682-.068,4.566,4.566,0,0,1,2.845,1.018,3.905,3.905,0,0,1,1.046,4.145,6.789,6.789,0,0,1-1.822,2.938,3.9,3.9,0,0,1-2.125.974,3.319,3.319,0,0,1-4.321-3.01A7.661,7.661,0,0,1,204.461,124.164Z"/><path d="M217.369,167.715c3.843,3.054,6.328,7.685,10.083,10.963,4.034,3.53,9.169,5.52,14.389,6.619,10.044,2.115,22.127-2.614,25.82-12.829.819-2.262,4.1-2.046,4.189.451.451,12.454-16.32,19.239-26.4,19.122-11.866-.134-30.956-9.152-31.406-22.855A2.006,2.006,0,0,1,217.369,167.715Z"/><path d="M464.56,302.66c-3.8-11.9-13.3-22.876-24.017-28.676-11.947-6.451-27.678-4.007-40.313-.649-1.681.445-3.339.981-4.989,1.542a26.9,26.9,0,0,0-11.2-9.069c-4.874-1.982-12.412,1.5-16.545,4a13.347,13.347,0,0,0-2.118,1.643c-.29.19-.594.393-.909.616a62.959,62.959,0,0,1-15.017-3.336c-7.726-2.882-14.746-7.814-21.35-12.647a209.2,209.2,0,0,1-18.985-16.233c-5.9-5.493-10.861-11.923-16.632-17.481a1.37,1.37,0,0,0-.726-.958c-.231-.11-.462-.221-.7-.329-.054-.026-.107-.042-.162-.063-.006-.03-.012-.058-.018-.086a66.309,66.309,0,0,0,21.35-13.973,92.041,92.041,0,0,0,18.639-27.023c3.784,1.08,8.358.316,12.241-.979,7.394-2.464,14.41-8.773,15.182-17.058.744-7.978-4.629-14.149-12.588-13.59a18.819,18.819,0,0,0-6.256,1.563,90.13,90.13,0,0,0,.675-16.457c7.246,3.119,17.091,1.241,24.305-2.754,13.7-7.6,16.162-26.9,9.427-39.676,2.982-.465,5.891-1.21,8.269-3.441,3.645-3.422,4.386-7.73,2.095-11.968-2.163-4-7.77-6.766-11.751-8.257a41.887,41.887,0,0,0-13.952-2.57,14.619,14.619,0,0,0-.29-6.375c-1.33-5.125-5.928-9.75-9.342-13.454a107.8,107.8,0,0,0-15.917-13.911c-5.3-3.853-10.8-7.524-16.449-10.984.675-.493,1.319-.958,1.9-1.389,3.932-2.923,8.95-4.033,12.638-7.256,1.249-1.093,1.122-3.545-.79-3.674-5.767-.386-11.908,3.011-16.51,6.506-.914.695-1.97,1.485-3.053,2.352q-6.529-3.758-13.221-7.095C287.779,4.651,273.9-1.766,262.459.452A2.02,2.02,0,0,0,260.8,2.334a10.035,10.035,0,0,0-1.383.677,8.542,8.542,0,0,0-3.09,3.035c-3.727,1.622-5.226,5.046-5.608,8.983-2.477-.7-4.975-1.373-7.42-2.11a14.28,14.28,0,0,0-5.194-.472.959.959,0,0,0-.521-.241c-6.831-.807-13.882.261-20.735,1.223-6.074.852-11.835,1.81-17.378,4.576a81.854,81.854,0,0,0-12.007,4.525c-6.3,2.934-11.387,7.429-16.595,11.958-9.139,7.935-14.957,22.146-14.657,33.88a19.368,19.368,0,0,0,1.576,7.14c-4.86.724-8.814,5.638-10.587,10.411-2.517,6.781-4.038,16.178-.859,22.777a13.328,13.328,0,0,0,10.9,7.463,71.113,71.113,0,0,0-5.217,23.811c-.958,27.745,19.555,52.909,41.248,67.954,3,2.088,6.119,4.01,9.321,5.793-1.339.582-2.5,1.315-3.842,1.754a60.917,60.917,0,0,1-13.105,2.636,112.218,112.218,0,0,1-25.837-.675,109.307,109.307,0,0,1-25.957-6.7c-3.655-1.445-12.582-4.329-16.33-8.2a3.184,3.184,0,0,0-1.1-1.488.538.538,0,0,0-.052-.032,4.356,4.356,0,0,1-.5-1.37,1.769,1.769,0,0,0-2.012-1.572,1.709,1.709,0,0,0,.411-2.185c-1.7-2.5-4.3-2.851-7.251-3-.514-.027-1.034-.039-1.553-.045q-1.835-5.209-3.69-10.409c-5.719-15.911-12.793-31.8-22.5-45.626a36.987,36.987,0,0,0-8.695-8.6,3.42,3.42,0,0,0,.924-4.094c.032-.038.059-.078.088-.118a1.46,1.46,0,0,0,.888.159c8.734-1.346,8.115-10.593,7.947-17.183-.094-3.681-2.558-7.818-4.189-10.981-2.264-4.381-5.14-8.035-8.058-11.984-5.5-7.428-12.153-13.5-18.986-19.75-3.343-3.054-7.071-5.63-10.6-8.462-1.95-1.564-3.743-2.995-6.4-3.042a.828.828,0,0,0-.222,1.621c.143.047.279.122.421.181a19.237,19.237,0,0,0,.86,8.635,32.811,32.811,0,0,0-11.931-4.674c-6-1.119-14.088-.994-20.025.87a1.742,1.742,0,0,0-1.2,2.1c.117.254.223.511.322.772a1.441,1.441,0,0,0,.715.763.841.841,0,0,0,.616,1.436c6.385.244,13.367-.028,17.213,5.718,2.663,3.98,1.011,10.325.023,14.684-2.3,10.151-6.957,19.522-7.5,29.989-.437,8.35,3.072,16.5,11.309,19.538,5.641,2.082,11.569,2.063,17.435,1.042a2.743,2.743,0,0,0,1.931,1.884c-2.51,8.1-1.746,17.538-.828,25.4,1.313,11.241,8.176,22.037,13.155,31.947,5.622,11.205,12.232,21.914,18.454,32.821,5.924,10.4,11.591,20.371,18.923,29.928,7.137,9.317,13.244,19.28,19.99,28.912,4.307,6.16,10.733,14.723,19.7,13.019a5.909,5.909,0,0,0,4.985-5.333c.088-.959.151-1.954.2-2.969-.513-2.771-1.1-5.534-1.651-8.313-.744-3.719-2.343-8.48-2.654-12.938q-1.227-3.28-2.383-6.589c-3.031-8.664-5.932-17.354-9.022-25.986-3.275-9.149-6.464-18.319-9.653-27.485.017-.007.032-.016.048-.023a18.265,18.265,0,0,0,4.056-2.74c3.431,2.779,8.259,4.716,11.448,6.276a111.557,111.557,0,0,0,29.273,9.95,118.381,118.381,0,0,0,29.446,1.507,60.979,60.979,0,0,0,13.133-2.359A15.234,15.234,0,0,0,203.2,220.1a116.145,116.145,0,0,0-4.876,12.264c-2.789,9.149-6.968,49.976-7.366,58.38-.577,12.252-1.8,24.627-2.008,36.857-.078,4.761-1.7,11.515.147,16.039,1.326,3.255-.147,7.749,3.294,10.009,3.6,2.367,8.851,2.834,13.056,3.343a98.413,98.413,0,0,0,11.8.591c.577,4.533,1.733,8.972,1.9,13.59a90.5,90.5,0,0,0,2.125,15.336c-3.473-1.039-6.794-2.567-10.584-2.837-5.158-.363-9.649-.772-14.742.267-6.981,1.427-16.845,6.152-16.839,14.553.007,10.294,12.907,9.811,20.4,9.86,9.563.063,19.621-1.248,26.682-8.128,1.844-1.8-.485-4.17-2.543-3.288a62.875,62.875,0,0,1-19.422,4.75,85.344,85.344,0,0,1-10.473-.06,34.488,34.488,0,0,1-6.27-.926c-3.36-.794-1.175-4.17.22-5.77,3.88-4.448,12.062-5.473,17.542-5.127,3.491.223,7.363.311,10.656,1.5,3.267,1.179,6.194,2.422,9.7,2.653a3.3,3.3,0,0,0,3.152-4.145,105.7,105.7,0,0,1-3.795-20.589,78.351,78.351,0,0,0-2.154-11.683q1.328-.021,2.655-.036c12.646-.138,25.365-.366,37.932-1.99,3.38-.434,6.743-.981,10.1-1.567-.553,5.946.172,12.362.645,18.173.4,4.978-1.12,10.863.305,15.635a3.28,3.28,0,0,0,3.945,2.235c4.184-.616,7.7-3.263,11.868-3.975a116.046,116.046,0,0,1,15.161-1.471c4.024-.162,13.53-1.589,16.2,2.331,3.164,4.646-21.548,10.141-24.211,10.308-6.217.4-13.831,1.586-18.316-3.769a2.217,2.217,0,0,0-3.755,1.575c.943,10.058,13.672,9.269,21.077,8.758a62.662,62.662,0,0,0,18.948-4.242c4.43-1.751,10.212-3.947,12.144-8.8,3.975-9.995-8.425-12.562-15.372-12.79a117.289,117.289,0,0,0-14.676.561c-3.664.344-7.306,1.017-10.929,1.641-2.151.368-4.152,1.52-6.222,2.457.051-.94.164-1.886.232-2.79a49.92,49.92,0,0,0-.535-9.624c-.671-5.734-.9-11.361-1.968-17.013l2.463-.445c6.533-1.179,12.975-1.625,19.521-2.463,8.122-1.047,19.495-7.815,21.267-16.543.838-4.148-.544-9.192-1.605-13.148-1.627-6.086-5.663-19.588-6.419-19.536-.929-4.571-2.233-9.044-3.365-13.61-2-8.071-3.774-16.2-5.554-24.312-1.644-7.482-3.241-14.72-5.947-21.867-.734-1.938-1.482-3.873-2.227-5.806,3.178,3.609,6.7,6.954,9.926,10.146a194.2,194.2,0,0,0,20.089,17.261c8.84,6.649,20.788,14.314,32.676,15.463A11.6,11.6,0,0,0,356.5,284.1a60.35,60.35,0,0,0-3.909,13.241,111.342,111.342,0,0,0-1.411,20.6c0,.577,0,1.163-.007,1.757-.07.308-.14.621-.2.935a57.294,57.294,0,0,0-.821,11.411c-.01,13.931,1.4,27.566,11.8,37.769,4.838,4.753,11.074,8.565,16.8,12.1a49.164,49.164,0,0,0,21.043,7.155c15.688,1.6,29.578-3.1,42.713-11.672,11.378-7.438,21.326-18.3,25.1-31.832C471.319,332.235,468.655,315.5,464.56,302.66ZM7.966,62.375a79.114,79.114,0,0,1,12.108.592c5.946.82,11.406,4.138,16.844,6.371,1.272.524,2.611-1,1.546-2.023-.026-.025-.052-.046-.078-.07a.718.718,0,0,0-.1-.331,30.038,30.038,0,0,1-3.042-5.338A28.1,28.1,0,0,1,33.9,55.386c1.864,1.322,3.493,3.4,4.991,4.777,2.519,2.306,5.164,4.45,7.624,6.823,5.32,5.128,11.188,10.172,15.661,16.1-1.761.722-3.458,1.5-5.549,1.122a15.484,15.484,0,0,0-8.906.849c-2,.828-5.332,8.732-8.049,6.608-1.97-1.538-3.11-3.936-5.074-5.527a2.216,2.216,0,0,0-2.6-.228c-2.785,1.653-3.67,6.037-4.825,8.739-1.256,2.939-1.745,5.307-3.72.7A16.129,16.129,0,0,1,22.382,91c1.893-6.291,3.409-14.511.695-20.345C20.156,64.38,14.317,62.49,7.966,62.375Zm35.656,67.533c-7.482,1.011-16.411,1.894-22.343-2.8-8.161-6.447-4.033-20.5-.782-30.336.61,3.006,2.092,5.252,5.225,5.229,5.22-.036,4.986-7.959,7.274-11.388,3.159,3.385,7.95,9.516,12.366,4.224a33.764,33.764,0,0,0,2.989-4.265c2.227-3.685,6.414-2.183,9.83-1.85,2.927.288,4.463-.968,6.369-2.387a83.481,83.481,0,0,1,9.325,16.283c1.189,2.9,2.726,9.164.892,12.22-.774,1.289-.517,2.535-1.858,3.6a8.194,8.194,0,0,0-1.23,1.142,3.353,3.353,0,0,0-2.361.684,6.373,6.373,0,0,0-1.351,1.317c-4.008-.515-10.828,1.463-13.229,2.121C51.374,124.627,45.94,126.594,43.623,129.908Zm22.574-4.19c-2.059,1.3-5.533,1.689-7.79,2.288-3.6.955-7.252,1.676-10.872,2.533l-.018-.032a30.634,30.634,0,0,1,8.22-3.273C58.159,126.562,64.743,126.638,66.2,125.718Zm-15.92,45.163c-3.259-8.542-3.768-17.3-3.207-26.477a25.976,25.976,0,0,1,1.99-8.269c5.173-1.1,12.77-2.894,17.758-5.378a65.5,65.5,0,0,1,8.034,6.918c4.364,5.474,7.65,12.5,10.707,18.777a241.987,241.987,0,0,1,10.69,26.4c-4.648-.434-10.062,1.979-14.3,3.308-6.53,2.05-14.346,5.485-19.393,10.416A200.987,200.987,0,0,1,50.277,170.881ZM119.9,252.125c2.719,7.648,4.952,15.449,7.809,23.063.377,1.96.81,3.92,1.06,5.918a22.083,22.083,0,0,0,1.361,6.223c-.007.676-.011,1.355-.018,2.031-.008.822.679,3.648-.671,3.472a14.26,14.26,0,0,1-5.667-2.449c-3.641-2.268-6.023-7.183-8.41-10.608q-4.307-6.169-8.361-12.5c-4.613-7.154-9.992-13.687-15.016-20.549-5.623-7.672-9.778-16.1-14.484-24.311-4.314-7.522-8.833-15.007-13.131-22.6,4.382-3.116,9.163-5.127,14.052-7.4a61.675,61.675,0,0,1,10.207-3.481c2.919-.783,5.907-2.031,8.942-2.211.525,1.546,1.039,3.094,1.556,4.646a4.374,4.374,0,0,1,.8,2.845v.019c.053.043.126.1.191.15.036,2.293,1.3,4.316,2.128,6.4l-.005.014a27.54,27.54,0,0,1,1.7,5.243c.018.057.038.112.055.167l-.184.032c-2.934.454-2.939,4.195,0,4.5.361.037.717.061,1.073.074.07.332.15.661.212,1,.022.111.03.214.044.322.357-.063.645-.113.786-.15C110.437,225.406,115.152,238.769,119.9,252.125Zm-8.931-47.267-.279.174a2.283,2.283,0,0,0-1-.135q-.309-.889-.619-1.773a6.444,6.444,0,0,1,1.023.021,5.511,5.511,0,0,1,2,.732A5.2,5.2,0,0,1,110.969,204.857ZM345.7,153.58c7.554-.781,7.114,7.984,4.319,12.612-3.022,5-10.517,8.329-16.51,7.327.132-.359.271-.717.4-1.077a113.18,113.18,0,0,0,4.6-16.8A21.4,21.4,0,0,1,345.7,153.58ZM261.221,9.317a2.72,2.72,0,0,0,.711-2.985,7.258,7.258,0,0,1,3.259-1.82.863.863,0,0,0,.715-.544c8.847-.232,18.633,4.691,26,8.181a161.066,161.066,0,0,1,14.761,8.088,11.984,11.984,0,0,0-3.36,6.022c-.476,3.149,3.242,4.184,5.032,1.991a2.489,2.489,0,0,0,1.854-2.758,20.658,20.658,0,0,1,1.839-1.893c2.921,1.868,5.815,3.771,8.7,5.672,8.629,5.7,16.995,11.916,23.966,19.64,3.429,3.8,8.6,9,8.163,14.679a5.7,5.7,0,0,1-.3,1.374,2.222,2.222,0,0,0-1.842,2.807c-3.075,3.02-8.693,4.65-11.885,5.307-9,1.849-19.186.208-28.081-.889-10.785-1.323-20.255-5.81-28.592-12.476-7.983-6.371-14.8-13.788-19.393-23.014a52.165,52.165,0,0,1-4.729-14.925,41.178,41.178,0,0,1-.353-5.841C257.617,12.567,258.848,11.551,261.221,9.317ZM163.791,59c2.133-10.251,6.9-17.623,14.59-24.8a64.3,64.3,0,0,1,12.576-9.475,43.6,43.6,0,0,1,10.289-4.075c5.19-.768,10.356-2.49,15.6-3.141,5.264-.656,10.619-1.044,15.891-1.867,4.112.93,8.182.6,12.246,2.048a49.061,49.061,0,0,0,5.72,1.935,61.585,61.585,0,0,0,1.457,8.8c2.749,12.11,10.036,23,18.927,31.272,9.434,8.8,20.111,15.638,32.933,18.461,6.357,1.4,12.94,1.468,19.41,2.124a55.48,55.48,0,0,0,17.462-.865c6.239-1.37,12.535-4.745,15.718-9.827a42.478,42.478,0,0,1,16.834,4.468c3.189,1.7,9.194,5.823,3.917,9.511-2.1,1.466-4.98,2.445-7.309,3.436a2.617,2.617,0,0,0-1.5,2.051,1.908,1.908,0,0,0-.093,1.714c4.3,10.974,5.044,26.137-6.41,33.523-5.924,3.813-13.746,5.024-19.9,2.343.091-.233.2-.482.286-.71.025-.067.048-.137.073-.206a19.759,19.759,0,0,1-8.854-4.892,2.256,2.256,0,0,0-2.068,3.035,16.807,16.807,0,0,0,2.195,4.443c-2.247,4.307-5.307,8.094-9.444,9.431-9.229,2.982-14.493-7.682-17.44-14.165a48.058,48.058,0,0,1-3.7-9.6c-.591-2.664-1.8-4.958-4.21-6.251a3.465,3.465,0,0,0-3.534.124c-4.569,3.294-12.962,15.684-18.569,7.757-1.985-2.8-1.4-7.21-1.321-10.5a77.055,77.055,0,0,1,1.655-13.368c.719-3.611-4.5-6.168-6.215-2.4-5.158,11.317-15.079,20.643-27.111,24-7.432,2.069-13.009-4.208-13.489-11.077a27.557,27.557,0,0,1,1.677-10.86c2.261-2.182,4.426-4.45,6.5-6.772a1.15,1.15,0,0,0,.915-1.319c.7-2.044-1.44-4.564-3.528-2.959-6.726,5.168-13.252,10.639-20.137,15.579-6.114,4.38-12.516,8.635-20.126,8.76a10.8,10.8,0,0,1-9.078-4.356c-2.091-2.855-.569-7.679.357-10.774a25.226,25.226,0,0,1,3.562-7.152q.522-.284,1.039-.574c4.923-2.755,9.829-5.688,12.753-10.684a3.323,3.323,0,0,0-1.216-4.57c-6.766-3.791-13.276,4.951-17.508,11.062a30.594,30.594,0,0,1-4.272,1.867c.007-.163.014-.327.022-.491-.2.221-.388.453-.583.675a16.569,16.569,0,0,1-7.322.766C162.5,78.9,161.983,67.677,163.791,59Zm-11.232,48.469c-2.951-3.769-1.952-10.108-1.216-14.57.865-5.251,3.707-14.24,10.681-10.9.206.1.4.221.6.339a19.133,19.133,0,0,0,1.865,1.49c1.16,1.144,2.185,2.489,3.24,3.565,1.258,1.283,2.567,2.5,3.685,3.868a118.689,118.689,0,0,0-11.956,19.794C156.934,110.208,154.265,109.642,152.559,107.464Zm29.564,81.3c-10.014-10.424-20.094-23.534-22.433-38.254-3.05-19.193,5.08-37.623,16.139-54.175a1.807,1.807,0,0,0,1.429-2.1c.712-1.036,1.446-2.051,2.178-3.072a34.161,34.161,0,0,0-.46,3.415,15.193,15.193,0,0,0,3.844,12.109c5.643,6.507,17.262,5.859,24.587,2.331a90.482,90.482,0,0,0,17.847-11.538q-.161.653-.3,1.3c-1.813,8.129,1.875,15.512,8.5,19.826,6.894,4.494,16.614.3,23.009-3.517a52.408,52.408,0,0,0,11.841-9.595c-.33,6.557.7,12.944,5.271,16.9,3.513,3.041,8.042,3.085,12.375,1.767,4.647-1.414,7.28-5.122,10.571-8.259.2.869.291,1.8.41,2.345a27.948,27.948,0,0,0,2.393,5.678c2.011,4.328,3.589,9.107,6.553,12.872,5.2,6.608,13.3,10.086,21.7,7.421a16.766,16.766,0,0,0,7.08-4.8,98.815,98.815,0,0,1-2.118,16.632,10.143,10.143,0,0,0-1.1,4.28c0,.08.01.149.017.223a99.529,99.529,0,0,1-3.365,10.4c-2.139-1.273-4.559,1.136-3.5,3.527a10.584,10.584,0,0,0,1.164,1.981,81.224,81.224,0,0,1-19.557,26.922c-24.2,21.363-60.318,21.287-88.006,9.66A104.883,104.883,0,0,1,182.123,188.766Zm60.171,55.2c5.325.652,10.153-2.356,13.651-6.192,2.239-2.458,4.589-6.4,4.632-9.985a94.832,94.832,0,0,0,12.221-1.5c.241,5.069,1.685,9.949,2.155,15.012.364,3.939.918,7.932,1.285,11.92-.991,1.466-3.2,1.641-4.986,2.112a26.474,26.474,0,0,0-4.38,1.669c-8.523-.1-16.83,1.491-25.5,2.077a142.909,142.909,0,0,1-16.591.37,35.291,35.291,0,0,1-10.751-2.545c-.065-7.6-.131-29.277,1.343-36.995a110.457,110.457,0,0,0,12.826,4.363C225.957,232.9,234,242.954,242.295,243.967ZM233.168,225.5a102.087,102.087,0,0,0,21.125,2.442,23.308,23.308,0,0,1-1.483,3.865,11.989,11.989,0,0,1-9.734,6.365C236.1,238.487,233.948,231.292,233.168,225.5Zm64.575,37.361c1.729,8.13,3.424,16.278,5.411,24.354,1.864,7.57,10.781,37.5,11.386,42.64.647,5.5-5.433,8.991-9.51,11.474-4.369,2.661-9.393,1.638-14.124,2.386-11.237,1.776-22.366,4.244-33.685,5.423-11.233,1.171-22.618,1.221-33.891,1.364-.423.008-1.065.025-1.857.044a2.343,2.343,0,0,0-4.365.091c-8.009.1-20.219-.181-20.255-3.538-.025-2.29-.845-4.03-1.137-6.259a45.973,45.973,0,0,1-.063-7.623c.2-5.2.8-10.355,1.069-15.545.543-10.317.524-20.671,1.06-31,.482-9.272,2.287-18.925,1.164-28.147a170.515,170.515,0,0,1,3.831-25.038c1.326-5.745,3.755-11.17,5.642-16.723.97.474,1.938.959,2.923,1.405a46.15,46.15,0,0,0-.691,4.793,258.317,258.317,0,0,0-2.132,32.148c0,.113,0,.222,0,.332a2.676,2.676,0,0,0-.7,3.925c6.963,7.767,20.289,6.574,29.754,6.273,12.107-.386,24.058-2.489,35.945-4.767a1.446,1.446,0,0,0,1.017-.79c.245-.055.488-.106.734-.166a9.182,9.182,0,0,0,6.039-4.175c.054-.015.106-.033.157-.048-.005-.071-.016-.142-.023-.212a6.018,6.018,0,0,0,.553-2.057,2.48,2.48,0,0,0-.767-2.621,2.914,2.914,0,0,0-.345-.212q-.34-2.768-.713-5.546c-.848-6.389-2.966-12.837-3.263-19.234a1.97,1.97,0,0,0-.056-.376q4.15-.979,8.208-2.333a8.064,8.064,0,0,0,2.266,5.4c1.025,1.133,1.4,3.993,1.9,5.428.634,1.818,1.3,3.628,1.957,5.438A173.484,173.484,0,0,1,297.743,262.862Zm164.049,77.451c-2.041,13.406-12.171,23.838-22.783,30.991a75.357,75.357,0,0,1-17.3,8.725c-6.4,2.229-13.28,2.125-19.965,1.963-13.12-.324-26.887-9.475-36.06-18.467-7.7-7.532-8.73-18.923-8.666-29.52a58.092,58.092,0,0,0,.252-10.193c-.132-5.954-.114-11.9.283-17.851a82.7,82.7,0,0,1,3.007-16.743c.495-1.779,1.149-4.187,1.974-6.6a7.653,7.653,0,0,1,2.842-2.048,13.768,13.768,0,0,1,.209-2.408,26.017,26.017,0,0,1,2.629-1.9,37.994,37.994,0,0,1,6.021-2.985,43.879,43.879,0,0,1,9.7-.4c2.824,1.6,5.643,5.127,7.172,7.658A3.21,3.21,0,0,0,394.795,282c11.767-4.008,25.338-7.1,37.563-4.035,11.171,2.8,20.933,14.324,25.159,24.841A77.14,77.14,0,0,1,461.793,340.314Z"/><path d="M394.716,290.831a11.919,11.919,0,0,0-2.794-3.851,9.668,9.668,0,0,0-3.128-3.648,12.427,12.427,0,0,0-.826-6.056,1.392,1.392,0,0,0-2.407.038,16.057,16.057,0,0,0-1.216,4.079,17.1,17.1,0,0,0-2.166-.382c-1.369-2.5-3.593-4.481-6.667-3.78-2.117.481-1.64,3.956.51,3.81a1.513,1.513,0,0,1,.624.1c-.361.055-.723.113-1.076.176a16.329,16.329,0,0,0-3.854,1.248,9.058,9.058,0,0,0-1.612-2.818c-1.364-1.427-3.932.544-2.77,2.213a9.939,9.939,0,0,1,1.174,2.7,9.388,9.388,0,0,0-1.932,2.323c-1.7,2.977-.766,7.5.2,10.578-.008.055-.015.1-.025.157a17.683,17.683,0,0,0,1.928,2.587c.028.033.062.069.089.1.113.124.224.256.341.377.2.214.405.426.619.63,2.2,2.1,6.46,5.228,9.786,4.791a19.644,19.644,0,0,0,4.3.239C391.837,305.991,397.93,298.7,394.716,290.831Zm-5.316,7.007c-1.539,2.02-4.483,2.595-6.781,2.655a11.458,11.458,0,0,1-7-2.372,6.193,6.193,0,0,1-1.047.1c-2.082-1.561-3.318-3.158-3.494-5.795a1.694,1.694,0,0,0-.18-1.4c.007-.014.018-.027.025-.041.065.036.126.071.2.1a3.5,3.5,0,0,0,1.5,2.045,1.437,1.437,0,0,0,1.728-.253,2.719,2.719,0,0,0,.724-1.031c.939.052,1.875.052,2.743.041a2.71,2.71,0,0,0,1.02-.223,2.075,2.075,0,0,0,1.509,1.641,2.106,2.106,0,0,0,2.069-.585,7.038,7.038,0,0,0,.918-1.49,3.663,3.663,0,0,0,3.378-1.512c.07.063.143.113.213.173C389.054,291.813,391.954,294.479,389.4,297.838Z"/></g></g></svg>