<svg xmlns="http://www.w3.org/2000/svg" viewBox="0 0 25.311 24.794"><title>check</title><g id="Capa_2" data-name="Capa 2"><g id="Editar"><path d="M.736,13.053c3.034,2.761,5,5.246,8.241,11.006C16.032,6.249,25.693,1.676,24.468.888,21.99-.775,9.93,13.166,8.472,15.005,6.719,14.077.736,10.831.736,13.053Z" fill="#62b01e"/><path d="M8.977,24.794a.736.736,0,0,1-.641-.375C5.272,18.983,3.381,16.454.24,13.6A.736.736,0,0,1,0,13.052,1.4,1.4,0,0,1,.667,11.8c1.092-.658,3.243-.019,7.616,2.277,1.249-1.5,4.285-4.961,7.284-7.96C21.938-.259,23.85-.413,24.878.277a.928.928,0,0,1,.428.7c.062.651-.469,1.158-1.754,2.386-2.916,2.786-8.984,8.582-13.891,20.969a.736.736,0,0,1-.634.463ZM1.774,13.01a36.974,36.974,0,0,1,7.093,9.372C13.8,10.642,19.881,4.832,22.536,2.3c.194-.186.39-.373.57-.549-.994.485-2.927,1.829-6.548,5.455-3.549,3.555-6.882,7.469-7.509,8.259a.736.736,0,0,1-.921.193l-.17-.09C3.984,13.455,2.4,13.039,1.774,13.01Z" fill="#62b01e"/></g></g></svg>