<svg xmlns="http://www.w3.org/2000/svg" viewBox="0 0 70.211 68.862"><title>diamante</title><g id="Capa_2" data-name="Capa 2"><g id="Editar"><g id="Capa_2-2" data-name="Capa 2"><g id="Objects"><path d="M54.187,33.573a106.416,106.416,0,0,0,5.191-15.917c1.207-5.189-5.047-9.089-8.986-5.231a54.718,54.718,0,0,1-10.435,7.737c-.6-.846-1.187-1.705-1.778-2.541-1.011-1.434-3.838-4.489-4.031-6.156A7.074,7.074,0,0,0,33.11,8.449a3.686,3.686,0,0,0-3.121-2.211,5.558,5.558,0,0,0-1.2-.13c-2.666,0-5.695,2.451-5.359,5.359A16.021,16.021,0,0,0,24.7,16.082c-.141,2.707-.068,5.45-.085,8.013-.01,1.544.018,3.079.072,4.609-5.844,2.853-11.9,4.856-17.151,9.139-4,3.26-.326,8.783,3.79,9.148a138.712,138.712,0,0,0,15.131.187c.478,3.07,1.031,6.127,1.612,9.188.264,1.4.074,2.563.808,3.877-.989-1.771-.328-.826-.221.3a9.154,9.154,0,0,0,2.2,5.427c3.486,4.279,9.145.3,10.668-3.495,1.82-4.536,3.523-8.927,5.641-13.354.2-.423.4-.846.607-1.27,1.674.115,3.445.725,5.146.931,3.494.423,7.9-.341,8.989-4.3C63.206,39.76,58.327,36.106,54.187,33.573Z" fill="#e89f0f"/><path d="M66.308,41.2a44.134,44.134,0,0,0-5.024-3.829,30.242,30.242,0,0,1-3.64-2.818,2.147,2.147,0,0,0,.105-.225c1.6-4.5,3.695-8.753,5.593-13.131,1.345-3.1,4.092-8.272.144-10.578-2.709-1.581-6.44.189-9.072,1.1a47.572,47.572,0,0,0-11.847,5.529c-2.548-3.124-4.98-6.341-7.592-9.414a29.079,29.079,0,0,0-2.825-2.554A14.9,14.9,0,0,1,30.64,3.63a6.674,6.674,0,0,1-.454-.64,1.667,1.667,0,0,1-.177-.326C31,1.381,29.327-.79,27.909.293a3.032,3.032,0,0,0-1.283,3C25.42,4.236,25.3,5.485,24.812,7.02c-.362,1.137-.847,2.237-1.274,3.351-.458,1.2-.53,2.432-.9,3.64A67.068,67.068,0,0,0,20.641,21.5c-.295,1.579-.862,3.767-.35,5.409a12.336,12.336,0,0,1-1.835.118,7.2,7.2,0,0,0-2.85.838C13.329,29.063,11.2,30.5,8.982,31.8,5.919,33.605-.9,36.7.1,41.271.912,44.98,4.714,46,7.893,46.912c2.23.638,4.334,1.619,6.6,2.188,2.246.564,4.376.277,6.6.685a6.344,6.344,0,0,0,.694,3.182,59.091,59.091,0,0,1,2.957,6.07c1.3,3.369,2.129,8.9,6.326,9.72,3.116.61,6.741-1.546,8.625-3.906,2.526-3.168,5.417-6.428,5.65-10.6,2.165,1.115,5.16.933,7.466.861,2.141-.066,4.253-.381,6.4-.446,3.247-.1,7.477-.394,9.807-2.978C71.99,48.4,68.772,43.669,66.308,41.2Zm-.926,7.325c-1.358,1.535-5.078,1.373-6.936,1.431-1.893.059-3.742.361-5.634.483-2.537.164-5.448-.57-7.859.3a1.638,1.638,0,0,0-1.174,1.638,1.039,1.039,0,0,0-.556.353c-2.087,2.512-3.709,5.322-5.716,7.9-1.219,1.566-3.375,4.222-5.722,3.857-1.082-.17-1.828-3.388-2.211-4.317l-2.134-5.16a25.573,25.573,0,0,0-1.992-3.5,5.125,5.125,0,0,1-.663-3.026,1.727,1.727,0,0,0-1.4-1.718c-.754-1.656-2.522-2.132-4.223-2.141a18.2,18.2,0,0,1-5.792-.916c-1.78-.562-3.474-1.346-5.271-1.849-.784-.221-2.806-.587-3.156-1.48-.044-.112,2.962-2.339,3.363-2.676a31.628,31.628,0,0,1,3.056-1.84c1-.656,1.979-1.36,2.955-2.059,1.655-1.185,3.17-2.66,5.083-3.42a6.688,6.688,0,0,0,2.562-1.649,1.5,1.5,0,0,0,1.086-.155c1.9-1.07,1.481-3.307,1.742-5.2a57.094,57.094,0,0,1,1.552-6.859c.509-1.914.754-3.836,1.292-5.74.329-1.158.673-2.3.936-3.48.016-.072.025-.139.035-.205a18.643,18.643,0,0,0,1.387,1.495A16.169,16.169,0,0,1,31.769,10.3c.947,1.228,1.853,2.489,2.787,3.727,1.988,2.633,3.972,5.269,6.056,7.827a2.255,2.255,0,0,0,3.151,0,33.07,33.07,0,0,1,11.168-5.633c1.776-.546,4.155-1.908,6.1-1.705-.07.337-.152.671-.253,1-.218.786-.615,1.48-.884,2.242a52.054,52.054,0,0,1-2.633,5.817c-.746,1.5-1.238,3.1-1.958,4.622a18.9,18.9,0,0,0-1.745,4.918,1.734,1.734,0,0,0-.166,1.068c.581,3.411,4.305,5.224,6.553,7.435,1.314,1.295,2.931,2.016,4.108,3.552.459.6,1.941,2.649,1.324,3.348Z"/></g></g></g></g></svg>