<?xml version="1.0" encoding="utf-8"?>
<!-- Generator: Adobe Illustrator 21.1.0, SVG Export Plug-In . SVG Version: 6.00 Build 0)  -->
<svg version="1.1" id="Capa_1" xmlns="http://www.w3.org/2000/svg" xmlns:xlink="http://www.w3.org/1999/xlink" x="0px" y="0px"
	 viewBox="0 0 77.51148 80.23443" style="enable-background:new 0 0 77.51148 80.23443;" xml:space="preserve">
<style type="text/css">
	.st0{fill:#6CCAEF;}
	.st1{fill:#2C37FF;}
	.st2{fill:#FF0025;}
	.st3{fill:#FFFFFF;}
</style>
<path d="M25.523,31.36452c-0.3574-0.3036-0.6882-0.586-1.0206-0.8666c-0.9557-0.807-1.9314-1.5917-2.8624-2.4262
	c-0.78941-0.68482-1.3608-1.586-1.6435-2.5921c-0.17924-0.82606-0.23897-1.67357-0.17739-2.5166
	c0.12638-1.31145,0.57828-2.57059,1.31469-3.6631c0.89729-1.49894,1.87682-2.94708,2.9341-4.3378
	c0.75074-0.98195,1.56402-1.91445,2.4348-2.7917c1.01164-1.22634,2.71036-1.63947,4.1722-1.0147
	c0.8801,0.32994,1.74291,0.70428,2.5851,1.1216c0.8316,0.4353,1.6036,0.9843,2.4913,1.5395
	c0.0644-0.2009,0.21181-0.4199,0.1851-0.6149c-0.2715-1.9792,1.0845-2.9146,2.4125-3.9168c1.535-1.1584,3.2081-0.885,4.828-0.451
	c1.59645,0.47435,3.16602,1.03487,4.7018,1.6791c1.42645,0.55879,2.72087,1.40857,3.8008,2.4952
	c0.84528,0.79455,1.19645,1.98315,0.9187,3.1095c-0.17888,1.03731-0.54313,2.03392-1.0753,2.9421
	c-0.04495,0.08795-0.07829,0.18137-0.0992,0.2779c1.5005-0.141,2.9982-0.2438,4.4811-0.4523
	c0.3046-0.0428,0.6476-0.4312,0.8111-0.7447c0.65992-0.94288,0.86168-2.13223,0.5496-3.24
	c-0.39627-0.89572-0.87419-1.75304-1.4277-2.5611c-0.88527-1.16584-1.59316-2.45624-2.10069-3.8293
	c-0.29012-1.02529-0.20305-2.12062,0.24539-3.0872c0.96858-2.00247,2.45702-3.70818,4.3099-4.939
	c0.3791-0.2755,0.9084-0.788,1.502-0.2448c-0.48916,1.99287-0.4677,4.07693,0.0624,6.0593c1.4085-1.988,2.6757-4.0036,5.2504-4.5144
	c-0.3267,0.8689-0.6767,1.6332-0.902,2.4326c-0.60277,1.86064-0.44695,3.88399,0.4336,5.6304
	c0.96278,1.63537,1.71078,3.38801,2.2255,5.2146c0.30776,1.12716,0.26299,2.32154-0.1283,3.4225
	c-0.27136,0.71861-0.62103,1.40515-1.0427,2.0472c-0.41235,0.49177-0.87169,0.94213-1.3715,1.3447
	c0.7465,0.7363,1.489,1.4587,2.2202,2.1922c1.09661,1.02525,1.87238,2.3465,2.2333,3.8037
	c0.25179,1.0698,0.08553,2.19538-0.4648,3.1467c-0.5925,0.9953-1.2266,1.9658-1.85939,2.9744
	c2.00089,0.434,4.04039,0.8306,6.05389,1.3312c1.1229,0.2792,2.2029,0.7309,3.3016,1.1068c0.0704,0.0241,0.133,0.0706,0.203,0.0964
	c1.4652,0.5401,1.4684,0.5398,1.4744,2.0886c0.0047,1.2497,0.0676,2.5039-0.0142,3.7482c-0.1343,2.0415-0.365,4.0765-0.5551,6.1143
	c-0.0405,0.4342-0.08959,0.8678-0.1203,1.3028c-0.1179,1.6696-0.236,3.3393-0.3419,5.0098
	c-0.0543,0.8566-0.0766,1.7153-0.1243,2.5724c-0.1113,1.9972-0.2036,3.9959-0.3529,5.9903
	c-0.1104,1.4735-0.2913,2.942-0.46319,4.4101c-0.0355,0.17044-0.1438,0.31681-0.29641,0.4006
	c-2.0179,0.9057-4.0382,1.8066-6.07059,2.6793c-1.30631,0.5609-2.62251,1.1027-3.95361,1.6014
	c-1.6288,0.6103-3.2898,1.1354-4.9149,1.7548c-1.67349,0.6378-3.3151,1.359-4.981,2.0176c-1.613,0.6377-3.22,1.2995-4.8644,1.8466
	c-2.0578,0.6846-4.1562,1.2462-6.22709,1.893c-1.28885,0.33693-2.63844,0.36918-3.94191,0.0942
	c-1.80393-0.25389-3.59324-0.60261-5.3605-1.0447c-1.8911-0.5019-3.7387-1.1773-5.586-1.8315
	c-1.475-0.5224-2.9209-1.127-4.3802-1.694c-1.2205-0.4743-2.4575-0.9105-3.6576-1.4317c-0.99179-0.4307-1.941-0.9601-2.9081-1.4475
	c-1.2302-0.62-2.4534-1.2544-3.6913-1.8585c-0.75801-0.42572-1.19131-1.2605-1.1032-2.1254
	c-0.1041-1.9433-0.1774-3.8886-0.2366-5.8338c-0.0571-1.8766-0.0489-3.7555-0.1267-5.631
	c-0.1194-2.8772-0.28789-5.7524-0.4382-8.6794c-2.0389-0.0307-4.17269,0.6825-6.3984-0.3566
	c0.50327-0.61503,1.05392-1.18972,1.6469-1.7188c0.9956-0.7606,2.0811-1.4032,3.1244-2.1021
	c0.17799-0.13718,0.34856-0.28372,0.511-0.439c-2.1254-0.4038-4.1437-0.7931-6.1645-1.1695
	c-2.00069-0.32567-3.84931-1.26926-5.2867-2.6985c-0.25123-0.21589-0.27989-0.59457-0.064-0.8458
	c0.04997-0.05816,0.11064-0.10619,0.1787-0.1415c1.07907-0.67537,2.28675-1.11905,3.5464-1.3029
	c1.5192-0.1132,3.02251-0.4265,4.537-0.6197c0.7353-0.0938,1.4794-0.13,2.2208-0.1609c1.2611-0.0525,2.5308-0.0119,3.7814-0.1502
	c0.56346-0.14132,1.09596-0.38552,1.5707-0.7203c1.2194-0.666,2.4028-1.4015,3.6435-2.0238
	c1.1832-0.5936,2.4226-1.0747,3.6332-1.6144C23.98277,32.08542,24.70347,31.743,25.523,31.36452z M30.6332,76.43262
	c3.3152,0.8474,6.7121,1.7297,10.1184,2.5746c0.68941,0.1458,1.38895,0.2387,2.09251,0.2779
	c0.40249,0.0362,0.61129-0.1442,0.61069-0.6136c-0.00169-1.2843,0.0405-2.5691,0.0854-3.853
	c0.11291-3.2344,0.2204-6.4692,0.3628-9.7025c0.08411-1.9091,0.2369-3.8151,0.3473-5.7232
	c0.1249-2.1583,0.2314-4.3177,0.3579-6.4759c0.0413-0.7045,0.1522-1.4058,0.17391-2.1103
	c0.03059-0.9916,0.00779-1.9849,0.00779-2.9831c-4.0839-1.13734-8.2077-2.2858-12.3714-3.4454
	c-0.0516,0.4963-0.1155,1.0167-0.1582,1.5389c-0.1247,1.5225-0.23419,3.0462-0.3623,4.5684
	c-0.1423,1.6915-0.3072,3.3811-0.4457,5.0728c-0.1044,1.276-0.1774,2.5545-0.2741,3.8311
	c-0.1429,1.8855-0.3005,3.7699-0.4404,5.6556c-0.113,1.5233-0.2735,3.0469-0.2976,4.5722
	c-0.03493,2.21188-0.39244,4.43588,0.19296,6.8155H30.6332z M44.3504,78.84402c0.5245-0.1623,0.9885-0.273,1.42771-0.4467
	c3.824-1.51221,7.6459-3.02967,11.46569-4.5524c0.28202-0.07648,0.46623-0.34708,0.434-0.6375
	c0.0032-1.1494,0.0496-2.2986,0.0834-3.4478c0.06491-2.2024,0.1234-4.4051,0.2018-6.6071c0.0724-2.0286,0.1697-4.0563,0.2519-6.0846
	c0.0908-2.2382,0.1711-4.4769,0.2673-6.7149c0.051-1.1843,0.1396-2.367,0.1851-3.5514c0.0275-0.7189,0.005-1.4397,0.005-2.2831
	c-4.5789,1.0983-9.04337,2.16917-13.3934,3.2126c-0.1384,4.3478-0.2629,8.5639-0.4114,12.779
	c-0.0592,1.6815-0.1803,3.3607-0.2569,5.0416c-0.0959,2.1041-0.2089,4.2082-0.252,6.3135c-0.043,2.0949-0.0087,4.1913-0.0082,6.2871
	L44.3504,78.84402z M29.4147,75.72182c0.02388-0.07716,0.0419-0.15602,0.0539-0.2359c0.0876-3.3933,0.1636-6.7869,0.2649-10.1797
	c0.0348-1.1651,0.115-2.3297,0.2058-3.4921c0.1307-1.6728,0.2927-3.3432,0.4366-5.0151c0.1277-1.484,0.2419-2.9692,0.3746-4.4528
	c0.1937-2.1665,0.4439-4.3291,0.5811-6.499c-0.03978-1.10205,0.61552-2.1108,1.6386-2.5224
	c1.8877-0.8448,3.7175-1.8178,5.5925-2.6924c1.4546-0.6785,2.9347-1.3037,4.4153-1.9245c0.7776-0.3261,1.5805-0.5918,2.2602-0.8435
	c-0.84859-0.52865-1.66221-1.11146-2.4358-1.7448c-0.48964-0.55858-1.29988-0.70554-1.9545-0.3545
	c-0.0527,0.02279-0.1071,0.04145-0.1627,0.0558c-1.01144,0.42495-2.1347,0.50483-3.19609,0.2273
	c-0.16526-0.01873-0.33081,0.03258-0.45651,0.1415c-0.3303,0.2602-0.6409,0.547-0.9454,0.838
	c-1.78827,1.66856-3.70604,3.19267-5.7353,4.558c-2.19427,1.51171-4.52782,2.81054-6.9689,3.8788
	c-0.25809,0.07093-0.4304,0.31398-0.41189,0.581c-0.081,4.6407-0.20471,9.2807-0.26391,13.9217
	c-0.0289,2.2634,0.0406,4.5286,0.0907,6.7924c0.0445,2.0113,0.13821,4.0216,0.1745,6.033
	c-0.01836,0.28642,0.17372,0.54389,0.4535,0.6079c1.27721,0.5151,2.5491,1.044,3.8309,1.5473
	c0.70637,0.2774,1.42877,0.51401,2.15787,0.774H29.4147z M58.8546,73.12022c0.10061-0.0147,0.20006-0.03649,0.2976-0.0652
	c2.19891-0.7788,4.38991-1.5807,6.5991-2.3288c0.621-0.2103,0.8989-0.409,0.8841-1.1876c-0.0836-4.3907,0.0058-8.78,0.3223-13.1647
	c0.142-1.9679,0.12241-3.9474,0.1793-5.9216c0.0255-0.8811,0.0477-1.7625,0.0908-2.6429
	c0.1132-2.3125,0.23399-4.62463,0.3624-6.9364c0.05214-0.30825-0.13156-0.60759-0.43-0.7007
	c-1.9782-0.8714-3.9432-1.7731-5.928-2.6292c-0.29672-0.10308-0.61851-0.10932-0.919-0.0178
	c-1.727,0.4894-3.4336,1.0528-5.1676,1.5143c-0.9749,0.2595-1.9892,0.3711-3.1206,0.5734c0.3369,0.1589,0.5452,0.251,0.748,0.3538
	c2.1138,1.0722,4.2315,2.1368,6.3367,3.2258c0.46508,0.19641,0.68288,0.73265,0.48647,1.19774
	c-0.0162,0.03836-0.035,0.07557-0.05627,0.11136c-0.09229,0.22732-0.14302,0.46936-0.14979,0.7146
	c-0.03851,3.1872-0.04041,6.3751-0.101,9.5618c-0.05641,2.9688-0.16951,5.9365-0.26221,8.9045
	c-0.0527,1.6854-0.13379,3.3701-0.1664,5.0558c-0.02822,1.4545-0.00593,2.9101-0.00593,4.3818H58.8546z M22.25308,19.461
	c0.78672,0.18768,1.56061,0.4256,2.31689,0.7123c2.6243,1.1948,4.4768,3.3295,6.2617,5.4719
	c1.4637,1.7568,2.6951,3.7063,4.0451,5.559c0.4569,0.6271,0.9615,1.2194,1.4264,1.8051c0.6715-0.7609,1.2494-1.5299,1.9422-2.1756
	c1.10952-1.26149,2.68047-2.0228,4.3581-2.112c0.4774,0.0065,0.7048-0.2321,0.6458-0.7222
	c-0.032-0.2656-0.0499-0.5328-0.0726-0.7995c-0.13191-1.92911-0.6066-3.81927-1.4018-5.5818
	c-0.85446-1.6328-2.00504-3.0925-3.3931-4.3047c-2.04932-1.9834-4.41551-3.61061-7.0009-4.8145
	c-0.92161-0.38737-1.92546-0.53814-2.9202-0.4386c-0.16723,0.02009-0.32217,0.09802-0.438,0.2203
	c-1.176,1.2532-2.4045,2.4653-3.4869,3.7958C23.67687,17.13242,23.00077,18.33692,22.25308,19.461z M67.63337,70.139
	c0.7833-0.3156,1.4142-0.5836,2.055-0.8253c1.5554-0.5865,3.1184-1.153,4.6689-1.7521c0.17655-0.08465,0.3037-0.2466,0.344-0.4382
	c0.08581-1.4902,0.1251-2.9831,0.2019-4.474c0.0777-1.5073,0.1642-3.0147,0.28091-4.5194c0.12689-1.636,0.298-3.2685,0.44079-4.9033
	c0.13121-1.5023,0.2486-3.0058,0.3755-4.5084c0.143-1.6933,0.2928-3.3861,0.4341-5.0796c0.0858-1.0288,0.1679-2.058,0.2391-3.088
	c0.0533-0.7701,0.0867-1.5416,0.1254-2.2494c-2.8775,0.905-5.7078,1.7951-8.5942,2.7028c0.0359,0.6659,0.1138,1.429,0.111,2.1919
	c-0.0072,1.9581-0.04169,3.9163-0.0808,5.8741c-0.05889,2.9509-0.1318,5.9016-0.1972,8.8524
	c-0.031,1.3998-0.0543,2.7999-0.08869,4.1996c-0.02311,0.9396-0.05352,1.879-0.09121,2.8182
	C67.78887,66.63972,67.71157,68.33892,67.63337,70.139z M7.87267,47.87872c0.11,0.02393,0.22191,0.03806,0.33441,0.0422
	c1.21609-0.1057,2.44809-0.1271,3.64359-0.3465c1.76965-0.29853,3.51921-0.70594,5.2387-1.2199
	c2.34425-0.70406,4.64531-1.54462,6.8914-2.5174c4.41196-2.00845,8.52528-4.61682,12.22331-7.75112
	c0.22049-0.1847,0.32949-0.3462,0.14779-0.6254c-0.0901-0.1384-0.073-0.3507-0.1707-0.4792
	c-0.10974-0.17108-0.27362-0.30046-0.4655-0.3675c-1.1789-0.2083-2.3682-0.3584-3.5457-0.5734
	c-0.46362-0.09327-0.94508-0.03003-1.36889,0.1798c-1.35031,0.6272-2.70231,1.2678-4.10221,1.7667
	c-2.18441,0.81618-4.47051,1.32866-6.7943,1.5231c-1.5386,0.1071-3.0646,0.3956-4.6032,0.4999
	c-2.1371,0.1449-4.2856,0.1329-6.4204,0.3006c-1.99289,0.1565-3.977,0.4399-5.9591,0.7108
	c-0.69557,0.0348-1.33279,0.39944-1.7152,0.9815c0.99057,0.47236,2.00576,0.89127,3.0412,1.2549
	c1.9175,0.5687,3.8536,1.1053,5.8151,1.4837c1.20566,0.38334,2.47416,0.52949,3.7354,0.4304
	C11.96664,44.91348,9.98359,46.48862,7.87267,47.87872z M13.78627,48.57532c-0.06126,0.38007-0.09196,0.76443-0.0918,1.1494
	c0.0959,1.5054,0.2812,3.0064,0.3394,4.5127c0.105,2.7171,0.1061,5.4383,0.2196,8.1549c0.0972,2.3281,0.284,4.6527,0.45661,6.9769
	c0.04464,0.20344,0.17703,0.37669,0.36159,0.4732c1.0371,0.4878,2.0903,0.9415,3.1387,1.4053
	c1.2373,0.5474,2.4752,1.0937,3.7758,1.6683c0-0.2468-0.0019-0.4327,0.0002-0.6184c0.0599-5.2732,0.111-10.5465,0.1845-15.8194
	c0.0341-2.453,0.1113-4.9053,0.1718-7.3578c0.0033-0.1326,0.0476-0.2644,0.0483-0.3967c0.0046-0.8485,0.0023-1.6971,0.0023-2.4539
	C19.54508,47.03282,16.71257,47.79152,13.78627,48.57532z M50.21447,21.37582c1.61778,0.23108,3.01258,1.25644,3.7158,2.7316
	c1.12111,2.06994,1.46143,4.4737,0.959,6.7735c-0.37482,2.74846-1.87582,5.21723-4.1434,6.8149
	c-0.3394,0.2423-0.7055,0.447-1.0592,0.6691l0.0385,0.1617c1.23875-0.02193,2.4753-0.11337,3.7038-0.2739
	c2.66364-0.41988,5.26316-1.17633,7.7362-2.2512c2.13656-0.92922,3.96475-2.44697,5.2712-4.3761
	c0.57129-0.6997,0.94276-1.54085,1.0751-2.4344c0.04289-1.54125-0.5862-3.02505-1.7238-4.0658
	c-2.27188-2.46116-5.21869-4.19821-8.4722-4.9941c-1.45439-0.3339-2.9446-0.8163-4.4099,0.0211
	c-0.05285,0.02431-0.11199,0.03144-0.1691,0.0204C51.67247,20.00282,51.09137,20.81642,50.21447,21.37582z M41.22497,19.05022
	l0.1782-0.0832c0.2844-2.0257,0.5966-4.0408-0.6032-5.9495c-0.25601-0.52748-0.45149-1.08224-0.5827-1.6537
	c1.13988,1.01601,1.89832,2.39106,2.1496,3.8972c0.2272,1.26916,0.12255,2.57549-0.30379,3.7923
	c-0.23582,0.47057-0.18869,1.0335,0.12209,1.4583c1.12532,1.7182,1.83496,3.67489,2.0727,5.715
	c0.0535,0.6938,0.0954,1.3884,0.1541,2.2509c0.2505-0.6797,0.4336-1.2126,0.6419-1.7355
	c0.82568-2.52899,2.4409-4.72639,4.60821-6.2692c0.23533-0.15868,0.4254-0.37577,0.55159-0.63
	c0.765-1.49841,1.29355-3.10616,1.5669-4.7662c0.02044-0.2358-0.04591-0.47096-0.1866-0.6613
	c-0.23293-0.25355-0.4846-0.48922-0.75289-0.705c-0.8073-0.66677-1.71868-1.19636-2.69771-1.5676
	c-2.0226-0.9482-3.9726-2.1059-6.2611-2.2883c-0.79466-0.08489-1.59805-0.02921-2.3734,0.1645
	c-1.17432,0.4119-2.07733,1.36571-2.4244,2.5608c-0.57338,0.96819-0.32874,2.21253,0.5685,2.8916
	c1.28161,1.0856,2.38912,2.37668,3.57204,3.5789L41.22497,19.05022z M57.78527,19.07842c0.1955,0.0697,0.4981,0.1761,0.7996,0.2852
	c1.4291,0.36174,2.79045,0.9518,4.0315,1.7474c0.30367,0.32849,0.81614,0.34862,1.14463,0.04495
	c0.04238-0.03918,0.08046-0.08278,0.11357-0.13005c0.4277-0.4857,0.7792-1.0378,1.1757-1.5518
	c1.07258-1.45187,1.32413-3.35292,0.6661-5.0338c-0.60096-1.67195-1.32429-3.29735-2.1641-4.863
	c-0.79124-1.52675-0.95899-3.30101-0.4679-4.949c0.0715-0.2488,0.1504-0.4955,0.2258-0.7432l-0.1188-0.0767
	c-0.45219,0.48253-0.87827,0.98888-1.2764,1.5169c-0.5917,0.8675-1.1041,1.7887-1.6731,2.6724
	c-0.10445,0.14684-0.2684,0.24009-0.448,0.2548c-0.17188-0.03333-0.31857-0.14452-0.3971-0.301
	c-0.62112-1.34106-0.93306-2.80452-0.9128-4.2823c0.0263-0.7458,0.0927-1.4901,0.146-2.3128
	c-0.6406,0.5828-1.2407,1.1097-1.81889,1.6596c-0.79781,0.68911-1.43213,1.54725-1.85691,2.5121
	c-0.6195,1.68375-0.3744,3.56421,0.656,5.0329c0.59591,0.9794,1.2611,1.919,1.8162,2.9202
	c0.64343,0.98344,0.97691,2.13734,0.9573,3.3124C58.25137,17.57125,58.05114,18.33578,57.78527,19.07842z M33.59137,43.94772
	c0.9565,0.27,1.9211,0.5747,2.902,0.8125c2.4375,0.5911,4.8884,1.1276,7.3212,1.737c0.86419,0.24023,1.77755,0.24017,2.6417-0.0002
	c1.3933-0.3978,2.8072-0.7233,4.214-1.0729c2.4921-0.6192,4.9854-1.2334,7.5513-1.8678c-0.1864-0.1092-0.31-0.192-0.4422-0.2577
	c-3.3718-1.6736-6.6578-3.5393-10.2977-4.6131c-0.22644-0.09804-0.47451-0.13543-0.7198-0.1085
	c-1.12677,0.29428-2.23568,0.65318-3.3212,1.0749C40.15337,41.04362,36.89417,42.50132,33.59137,43.94772z M42.60308,34.43542
	c0.41842,0.06306,0.842,0.08496,1.26469,0.0654c2.13085-0.3597,4.07795-1.42801,5.5261-3.032
	c1.23921-1.3053,2.451-2.639,3.73821-3.8953c0.48779-0.34696,0.65609-0.99404,0.39919-1.5347
	c-0.3787-1.35191-1.15443-2.55905-2.2268-3.4652c-0.81558-0.71616-2.0573-0.63557-2.77346,0.18
	c-0.1015,0.11559-0.18908,0.24269-0.26093,0.3787c-0.84925,1.38239-1.56294,2.84362-2.13111,4.3633
	c-0.68861,2.15203-1.6794,4.19534-2.9427,6.0687C43.02767,33.78882,42.87917,34.02852,42.60308,34.43542z M35.63808,33.66632
	c-0.30911-0.3816-0.57011-0.7077-0.83541-1.0303c-0.83717-1.25382-1.86025-2.37296-3.0341-3.319
	c-1.68549-1.1183-3.35249-2.2735-4.9494-3.5134c-1.17227-0.81849-1.99939-2.0426-2.3214-3.4356
	c-0.09971-0.83091-0.74666-1.49038-1.5755-1.606c-0.311-0.0936-0.6433-0.1291-0.9404-0.2525
	c-0.327-0.1358-0.481-0.0602-0.6136,0.2599c-0.21219,0.5122-0.5024,0.9932-0.70019,1.5102
	c-0.41055,0.94799-0.30522,2.04042,0.27889,2.8925c0.33262,0.46683,0.70021,0.90773,1.0996,1.3189
	c2.34496,2.61766,5.28686,4.63093,8.576,5.8689C32.22155,33.03824,33.91137,33.47839,35.63808,33.66632z M75.833,37.42282
	c-0.21789-0.0767-0.3774-0.1409-0.5416-0.1892c-3.04029-0.8959-6.08172-1.7878-9.12429-2.6757
	c-0.17729-0.04906-0.36673-0.02699-0.528,0.0615c-1.14611,0.7819-2.27651,1.5871-3.42081,2.392
	c0.1907,0.0644,0.3897,0.1308,0.5881,0.1989c1.55029,0.36598,3.01162,1.03867,4.2978,1.9784
	c0.77589,0.80172,1.97383,1.02533,2.9867,0.5575C72.07979,39.17143,74.00403,38.39284,75.833,37.42282z M17.22467,36.232
	c2.20955,0.24668,4.44602,0.05889,6.5835-0.5528c2.0617-0.5416,4.07-1.2865,6.1017-1.9423l-0.0245-0.1805
	c-1.0742-0.4974-2.1581-0.9754-3.2169-1.5035c-0.2799-0.16204-0.6254-0.16067-0.904,0.0036
	c-1.4569,0.7287-2.9238,1.4376-4.3878,2.1522C20.04067,34.86092,18.70377,35.51132,17.22467,36.232z M43.44557,30.3524
	c-0.49656-0.50008-1.25013-0.64204-1.8946-0.3569c-1.75456,0.78611-3.23215,2.08171-4.2408,3.7185
	c-0.20878,0.409-0.38315,0.83467-0.5213,1.2726c1.56331,0.13087,3.13744,0.02304,4.6683-0.3198
	c0.13945-0.04557,0.2529-0.14838,0.31191-0.2827c0.557-1.31318,1.098-2.63327,1.67649-4.03167V30.3524z M52.35327,33.9309
	c-0.47573,0.17118-0.96498,0.30217-1.4626,0.3916c-0.8083,0.0744-1.6257,0.0438-2.4384,0.0785
	c-0.4855-0.02536-0.97203,0.02371-1.4427,0.1455c-0.98528,0.43128-2.05493,0.63552-3.1298,0.5976
	c-0.3139-0.025-0.6315-0.0038-1.0402-0.0038c0.06259,0.09478,0.13046,0.18596,0.2033,0.2731
	c0.88668,0.87823,2.00467,1.48642,3.2237,1.7537c0.82828,0.23992,1.70057,0.28655,2.5497,0.1363
	c1.65184-0.4915,2.96743-1.74591,3.53699-3.37248V33.9309z M53.86327,28.3543c-1.6881,1.7537-3.3378,3.4676-5.0369,5.2328
	c0.21548-0.01296,0.43159-0.01166,0.6469,0.0039c1.16941,0.04365,2.32601-0.25612,3.327-0.8623
	c0.17446-0.10811,0.31342-0.26498,0.3997-0.4512c0.63087-1.20452,0.86312-2.57821,0.6633-3.92318V28.3543z M25.15777,21.8604
	c1.263,2.40931,3.22846,4.37784,5.6358,5.6446c-1.3101-2.45428-3.4963-4.02858-5.6358-5.64458V21.8604z"/>
<path class="st0" d="M30.63317,76.43262c-0.5854-2.3796-0.2279-4.6036-0.193-6.8155c0.0241-1.5253,0.1846-3.0489,0.2976-4.5722
	c0.1399-1.8857,0.2975-3.7701,0.4404-5.6556c0.0967-1.2766,0.1697-2.5551,0.2741-3.8311c0.1385-1.6917,0.3034-3.3813,0.4457-5.0728
	c0.12811-1.5222,0.2376-3.0459,0.3623-4.5684c0.0427-0.5222,0.1066-1.0426,0.1582-1.5389
	c4.1723,1.162,8.2961,2.31047,12.3714,3.4454c0,0.9982,0.0228,1.9915-0.00779,2.9831c-0.02171,0.7045-0.13261,1.4058-0.17391,2.1103
	c-0.1265,2.1582-0.233,4.3176-0.3579,6.4759c-0.1104,1.9081-0.26319,3.8141-0.3473,5.7232
	c-0.1424,3.2333-0.24989,6.4681-0.3628,9.7025c-0.0449,1.2839-0.08709,2.5687-0.0854,3.853
	c0.0006,0.4694-0.2082,0.6498-0.61069,0.6136c-0.70356-0.0392-1.4031-0.1321-2.09251-0.2779
	C37.34527,78.16232,33.94837,77.28,30.63317,76.43262z"/>
<path class="st0" d="M44.35037,78.844v-0.6917c-0.0005-2.0958-0.0348-4.1922,0.0082-6.2871
	c0.0431-2.1053,0.1561-4.2094,0.252-6.3135c0.0766-1.6809,0.1977-3.3601,0.2569-5.0416c0.1485-4.2151,0.273-8.4312,0.4114-12.779
	c4.348-1.043,8.81247-2.11386,13.3934-3.2126c0,0.8434,0.0225,1.5642-0.005,2.2831c-0.0455,1.1844-0.1341,2.3671-0.1851,3.5514
	c-0.0962,2.238-0.1765,4.4767-0.2673,6.7149c-0.0822,2.0283-0.1795,4.056-0.2519,6.0846c-0.0784,2.202-0.13689,4.4047-0.2018,6.6071
	c-0.0338,1.1492-0.0802,2.2984-0.0834,3.4478c0.03223,0.29042-0.15198,0.56101-0.434,0.6375
	c-3.8228,1.5151-7.6447,3.03257-11.46569,4.5524C45.33887,78.571,44.87487,78.68172,44.35037,78.844z"/>
<path class="st1" d="M29.41467,75.72182c-0.7291-0.26-1.4515-0.4966-2.1579-0.774c-1.2818-0.5033-2.55369-1.0322-3.8309-1.5473
	c-0.27979-0.06401-0.47186-0.32148-0.4535-0.6079c-0.03629-2.0114-0.13-4.0217-0.1745-6.033
	c-0.0501-2.2638-0.1196-4.529-0.0907-6.7924c0.0592-4.641,0.18291-9.281,0.26391-13.9217
	c-0.01851-0.26702,0.1538-0.51007,0.41189-0.581c2.44108-1.06826,4.77463-2.36709,6.9689-3.8788
	c2.02925-1.36533,3.94704-2.88944,5.7353-4.558c0.3045-0.291,0.6151-0.5778,0.9454-0.838
	c0.12569-0.10892,0.29125-0.16023,0.45651-0.1415c1.06139,0.27753,2.18465,0.19765,3.19609-0.2273
	c0.0556-0.01435,0.11-0.03301,0.1627-0.0558c0.65462-0.35104,1.46486-0.20408,1.9545,0.3545
	c0.77359,0.63334,1.58721,1.21615,2.4358,1.7448c-0.6797,0.2517-1.4826,0.5174-2.2602,0.8435
	c-1.4806,0.6208-2.9607,1.246-4.4153,1.9245c-1.875,0.8746-3.7048,1.8476-5.5925,2.6924
	c-1.02308,0.4116-1.67838,1.42035-1.6386,2.5224c-0.1372,2.1699-0.3874,4.3325-0.5811,6.499
	c-0.1327,1.4836-0.2469,2.9688-0.3746,4.4528c-0.1439,1.6719-0.3059,3.3423-0.4366,5.0151c-0.0908,1.1624-0.171,2.327-0.2058,3.4921
	c-0.1013,3.3928-0.1773,6.7864-0.2649,10.1797C29.45657,75.5658,29.43855,75.64465,29.41467,75.72182z"/>
<path class="st1" d="M58.85457,73.12022c0-1.4717-0.0223-2.9273,0.0059-4.3818c0.03261-1.6857,0.1137-3.3704,0.1664-5.0558
	c0.0927-2.968,0.2058-5.9357,0.26221-8.9045c0.06059-3.1867,0.06249-6.3746,0.101-9.5618
	c0.00677-0.24524,0.0575-0.48728,0.14979-0.7146c0.25792-0.434,0.11517-0.99491-0.31884-1.25283
	c-0.03579-0.02127-0.073-0.04007-0.11136-0.05627c-2.1052-1.089-4.2229-2.1536-6.3367-3.2258
	c-0.2028-0.1028-0.4111-0.1949-0.748-0.3538c1.1314-0.2023,2.1457-0.3139,3.1206-0.5734c1.734-0.4615,3.4406-1.0249,5.1676-1.5143
	c0.30049-0.09152,0.62228-0.08529,0.919,0.0178c1.9848,0.8561,3.9498,1.7578,5.928,2.6292
	c0.29844,0.09311,0.48214,0.39245,0.43,0.7007c-0.13091,2.3116-0.2517,4.62373-0.3624,6.9364
	c-0.0431,0.8804-0.0653,1.7618-0.0908,2.6429c-0.05689,1.9742-0.0373,3.9537-0.1793,5.9216
	c-0.3165,4.3847-0.4059,8.774-0.3223,13.1647c0.0148,0.7786-0.2631,0.9773-0.8841,1.1876
	c-2.20919,0.7481-4.40019,1.55-6.5991,2.3288C59.05463,73.08372,58.95518,73.10551,58.85457,73.12022z"/>
<path class="st2" d="M22.25308,19.461c0.74769-1.1241,1.42379-2.3286,2.28269-3.3845c1.0824-1.3305,2.3109-2.5426,3.4869-3.7958
	c0.11583-0.12228,0.27077-0.20021,0.438-0.2203c0.99474-0.09954,1.99859,0.05123,2.9202,0.4386
	c2.58539,1.20389,4.95158,2.8311,7.0009,4.8145c1.38806,1.2122,2.53864,2.6719,3.3931,4.3047
	c0.7952,1.76254,1.26989,3.65269,1.4018,5.5818c0.0227,0.2667,0.0406,0.5339,0.0726,0.7995
	c0.059,0.4901-0.1684,0.7287-0.6458,0.7222c-1.67763,0.0892-3.24858,0.85051-4.3581,2.112
	c-0.6928,0.6457-1.2707,1.4147-1.9422,2.1756c-0.4649-0.5857-0.9695-1.178-1.4264-1.8051c-1.35-1.8527-2.5814-3.8022-4.0451-5.559
	c-1.7849-2.1424-3.6374-4.2771-6.2617-5.4719C23.81369,19.8866,23.0398,19.64868,22.25308,19.461z"/>
<path class="st0" d="M67.63337,70.139c0.0782-1.8001,0.1555-3.4993,0.2245-5.1987c0.0381-0.9391,0.0685-1.8785,0.09121-2.8182
	c0.03439-1.3997,0.05769-2.7998,0.08869-4.1996c0.0654-2.9508,0.13831-5.9015,0.1972-8.8524
	c0.03911-1.9578,0.0736-3.916,0.0808-5.8741c0.0028-0.7629-0.0751-1.526-0.111-2.1919c2.8864-0.9077,5.7167-1.7978,8.5942-2.7028
	c-0.0387,0.7078-0.0721,1.4793-0.1254,2.2494c-0.0712,1.03-0.1533,2.0592-0.2391,3.088c-0.1413,1.6935-0.2911,3.3863-0.4341,5.0796
	c-0.1269,1.5026-0.24429,3.0061-0.3755,4.5084c-0.14279,1.6348-0.3139,3.2673-0.44079,4.9033
	c-0.11671,1.5047-0.20321,3.0121-0.28091,4.5194c-0.0768,1.4909-0.11609,2.9838-0.2019,4.474
	c-0.04031,0.1916-0.16745,0.35355-0.344,0.4382c-1.5505,0.5991-3.1135,1.1656-4.6689,1.7521
	C69.04757,69.55542,68.41667,69.82342,67.63337,70.139z"/>
<path class="st2" d="M7.87267,47.87872c2.11092-1.39009,4.09397-2.96523,5.9257-4.7068
	c-1.26124,0.09909-2.52974-0.04707-3.7354-0.4304c-1.9615-0.3784-3.8976-0.915-5.8151-1.4837
	c-1.03544-0.36363-2.05063-0.78254-3.0412-1.2549c0.38241-0.58206,1.01962-0.9467,1.7152-0.9815
	c1.9821-0.2709,3.96621-0.5543,5.9591-0.7108c2.1348-0.1677,4.2833-0.1557,6.4204-0.3006c1.5386-0.1043,3.0646-0.3928,4.6032-0.4999
	c2.32379-0.19444,4.60989-0.70693,6.7943-1.5231c1.3999-0.4989,2.7519-1.1395,4.10221-1.7667
	c0.42381-0.20983,0.90527-0.27307,1.36889-0.1798c1.1775,0.215,2.3668,0.3651,3.5457,0.5734
	c0.19188,0.06704,0.35576,0.19642,0.4655,0.3675c0.0977,0.1285,0.0806,0.3408,0.1707,0.4792
	c0.1817,0.2792,0.0727,0.4407-0.14779,0.6254c-3.69803,3.1343-7.81135,5.74265-12.22331,7.7511
	c-2.24609,0.97277-4.54715,1.81334-6.8914,2.5174c-1.71949,0.51396-3.46905,0.92136-5.2387,1.2199
	c-1.1955,0.2194-2.4275,0.2408-3.64359,0.3465C8.09458,47.91677,7.98267,47.90265,7.87267,47.87872z"/>
<path class="st0" d="M13.78627,48.57532c2.9263-0.7838,5.75881-1.5425,8.607-2.3055c0,0.7568,0.0023,1.6054-0.0023,2.4539
	c-0.0007,0.1323-0.045,0.2641-0.0483,0.3967c-0.0605,2.4525-0.1377,4.9048-0.1718,7.3578
	c-0.0735,5.2729-0.1246,10.5462-0.1845,15.8194c-0.0021,0.1857-0.0002,0.3716-0.0002,0.6184
	c-1.3006-0.5746-2.5385-1.1209-3.7758-1.6683c-1.0484-0.4638-2.1016-0.9175-3.1387-1.4053
	c-0.18456-0.09651-0.31695-0.26976-0.36159-0.4732c-0.17261-2.3242-0.35941-4.6488-0.45661-6.9769
	c-0.1135-2.7166-0.1146-5.4378-0.2196-8.1549c-0.0582-1.5063-0.2435-3.0073-0.3394-4.5127
	C13.69431,49.33976,13.72501,48.95539,13.78627,48.57532z"/>
<path class="st2" d="M50.21447,21.37582c0.8769-0.5594,1.458-1.373,2.522-1.2032c0.05711,0.01104,0.11625,0.00391,0.1691-0.0204
	c1.4653-0.8374,2.95551-0.355,4.4099-0.0211c3.25351,0.79589,6.20032,2.53294,8.4722,4.9941
	c1.1376,1.04075,1.76669,2.52455,1.7238,4.0658c-0.13234,0.89355-0.50381,1.7347-1.0751,2.4344
	c-1.30645,1.92913-3.13464,3.44688-5.2712,4.3761c-2.47303,1.07487-5.07256,1.83133-7.7362,2.2512
	c-1.2285,0.16053-2.46505,0.25197-3.7038,0.2739l-0.0385-0.1617c0.3537-0.2221,0.7198-0.4268,1.0592-0.6691
	c2.26758-1.59768,3.76857-4.06644,4.1434-6.8149c0.50243-2.2998,0.16211-4.70356-0.959-6.7735
	C53.22705,22.63226,51.83225,21.6069,50.21447,21.37582z"/>
<path class="st2" d="M41.225,19.05022c-1.18289-1.2022-2.2904-2.4933-3.572-3.5789c-0.89724-0.67906-1.14188-1.92341-0.5685-2.8916
	c0.34707-1.19509,1.25008-2.1489,2.4244-2.5608c0.77535-0.19371,1.57874-0.24939,2.3734-0.1645
	c2.2885,0.1824,4.2385,1.3401,6.2611,2.2883c0.97903,0.37124,1.89041,0.90083,2.69771,1.5676
	c0.26829,0.21578,0.51997,0.45145,0.75289,0.705c0.14069,0.19034,0.20704,0.4255,0.1866,0.6613
	c-0.27335,1.66004-0.8019,3.26779-1.5669,4.7662c-0.12619,0.25423-0.31626,0.47132-0.55159,0.63
	c-2.16732,1.54281-3.78253,3.74021-4.60821,6.2692c-0.2083,0.5229-0.3914,1.0558-0.6419,1.7355
	c-0.0587-0.8625-0.1006-1.5571-0.1541-2.2509c-0.23774-2.04011-0.94738-3.9968-2.0727-5.715
	c-0.31078-0.4248-0.35791-0.98773-0.12209-1.4583c0.42634-1.21681,0.53099-2.52314,0.30379-3.7923
	c-0.25128-1.50614-1.00972-2.88119-2.1496-3.8972c0.13121,0.57146,0.32669,1.12622,0.5827,1.6537
	c1.1998,1.9087,0.8876,3.9238,0.6032,5.9495L41.225,19.05022z"/>
<path class="st2" d="M57.78527,19.07842c0.26587-0.74264,0.46611-1.50717,0.5984-2.2848
	c0.01961-1.17506-0.31387-2.32896-0.9573-3.3124c-0.5551-1.0012-1.22029-1.9408-1.8162-2.9202
	c-1.0304-1.46869-1.2755-3.34915-0.656-5.0329c0.42478-0.96486,1.0591-1.823,1.85691-2.51212
	c0.57819-0.5499,1.17829-1.0768,1.81889-1.6596c-0.0533,0.8227-0.1197,1.567-0.146,2.3128
	c-0.02026,1.47778,0.29168,2.94124,0.9128,4.2823c0.07853,0.15648,0.22522,0.26767,0.3971,0.301
	c0.1796-0.01471,0.34355-0.10796,0.448-0.2548c0.569-0.8837,1.0814-1.8049,1.6731-2.6724
	c0.39813-0.52802,0.82421-1.03437,1.2764-1.5169l0.1188,0.0767c-0.0754,0.2477-0.1543,0.4944-0.2258,0.7432
	c-0.49109,1.64799-0.32334,3.42225,0.4679,4.949c0.83981,1.56565,1.56314,3.19105,2.1641,4.863
	c0.65804,1.68088,0.40647,3.58193-0.6661,5.0338c-0.3965,0.514-0.748,1.0661-1.1757,1.5518
	c-0.25667,0.36639-0.76176,0.45534-1.12815,0.19867c-0.04727-0.03312-0.09087-0.07119-0.13005-0.11357
	c-1.24105-0.7956-2.60239-1.38566-4.0315-1.7474C58.28337,19.25452,57.98077,19.14812,57.78527,19.07842z"/>
<path class="st0" d="M33.59137,43.94772c3.3028-1.4464,6.562-2.9041,9.8493-4.2958c1.08553-0.42173,2.19443-0.78062,3.3212-1.0749
	c0.24529-0.02693,0.49335,0.01046,0.7198,0.1085c3.6399,1.0738,6.9259,2.9395,10.2977,4.6131
	c0.1322,0.0657,0.2558,0.1485,0.4422,0.2577c-2.5659,0.6344-5.0592,1.2486-7.5513,1.8678c-1.4068,0.3496-2.8207,0.6751-4.214,1.0729
	c-0.86415,0.24036-1.77751,0.24043-2.6417,0.0002c-2.4328-0.6094-4.8837-1.1459-7.3212-1.737
	C35.51247,44.52242,34.54787,44.21772,33.59137,43.94772z"/>
<path class="st2" d="M42.60308,34.43542c0.27609-0.4069,0.42459-0.6466,0.59319-0.8711
	c1.2633-1.87336,2.25409-3.91667,2.9427-6.0687c0.56817-1.51968,1.28186-2.98091,2.13111-4.3633
	c0.50702-0.95968,1.69601-1.32664,2.65569-0.81963c0.13601,0.07186,0.26311,0.15943,0.3787,0.26093
	c1.07237,0.90615,1.84809,2.11329,2.2268,3.4652c0.2569,0.54066,0.0886,1.18774-0.39919,1.5347
	c-1.28721,1.2563-2.499,2.59-3.73821,3.8953c-1.44815,1.60399-3.39525,2.6723-5.5261,3.032
	C43.44508,34.52038,43.0215,34.49848,42.60308,34.43542z"/>
<path class="st2" d="M35.63808,33.66632c-1.72671-0.18793-3.41653-0.62808-5.01551-1.3064
	c-3.28914-1.23797-6.23104-3.25123-8.576-5.8689c-0.39939-0.41117-0.76698-0.85207-1.0996-1.3189
	c-0.58411-0.85208-0.68944-1.94451-0.27889-2.8925c0.19779-0.517,0.488-0.998,0.70019-1.5102
	c0.1326-0.3201,0.2866-0.3957,0.6136-0.2599c0.2971,0.1234,0.6294,0.1589,0.9404,0.2525
	c0.82884,0.11562,1.47579,0.77509,1.5755,1.606c0.32201,1.393,1.14913,2.61712,2.3214,3.4356
	c1.59691,1.2399,3.26391,2.3951,4.9494,3.5134c1.17385,0.94604,2.19692,2.06518,3.0341,3.319
	C35.068,32.95862,35.329,33.28472,35.63808,33.66632z"/>
<path class="st0" d="M75.833,37.42282c-1.82897,0.97002-3.75321,1.74861-5.7421,2.3234
	c-1.01287,0.46783-2.21081,0.24422-2.9867-0.5575c-1.28618-0.93973-2.74751-1.61242-4.2978-1.9784
	c-0.1984-0.0681-0.3974-0.1345-0.5881-0.1989c1.1443-0.8049,2.2747-1.6101,3.42081-2.392
	c0.16127-0.08849,0.35071-0.11056,0.528-0.0615c3.04408,0.8828,6.08552,1.7747,9.12429,2.6757
	C75.45557,37.28192,75.61508,37.34612,75.833,37.42282z"/>
<path class="st0" d="M17.22467,36.232c1.4791-0.7207,2.816-1.3711,4.152-2.0233c1.464-0.7146,2.9309-1.4235,4.3878-2.1522
	c0.2786-0.16427,0.6241-0.16564,0.904-0.0036c1.0588,0.5281,2.1427,1.0061,3.2169,1.5035l0.0245,0.1805
	c-2.0317,0.6558-4.04,1.4007-6.1017,1.9423C21.67069,36.29089,19.43422,36.47868,17.22467,36.232z"/>
<path class="st2" d="M43.44557,30.35242c-0.57849,1.3984-1.11949,2.7185-1.67649,4.0317
	c-0.05901,0.13432-0.17245,0.23713-0.31191,0.2827c-1.53086,0.34284-3.10499,0.45068-4.6683,0.3198
	c0.13815-0.43793,0.31252-0.8636,0.5213-1.2726c1.00865-1.63678,2.48624-2.93239,4.2408-3.7185
	C42.19545,29.71038,42.94902,29.85234,43.44557,30.35242z"/>
<path class="st2" d="M52.35327,33.93092c-0.56956,1.62658-1.88515,2.881-3.537,3.3725
	c-0.84913,0.15025-1.72142,0.10362-2.5497-0.1363c-1.21904-0.26728-2.33702-0.87547-3.2237-1.7537
	c-0.07284-0.08715-0.14071-0.17833-0.2033-0.2731c0.4087,0,0.7263-0.0212,1.0402,0.0038
	c1.07487,0.03792,2.14452-0.16632,3.1298-0.5976c0.47066-0.12179,0.9572-0.17086,1.4427-0.1455
	c0.8127-0.0347,1.6301-0.0041,2.4384-0.0785C51.38829,34.23309,51.87754,34.1021,52.35327,33.93092z"/>
<path class="st2" d="M53.86327,28.35432c0.19983,1.34498-0.03242,2.71867-0.6633,3.9232
	c-0.08628,0.18622-0.22524,0.34309-0.3997,0.4512c-1.00099,0.60618-2.15759,0.90595-3.327,0.8623
	c-0.21531-0.01556-0.43142-0.01686-0.6469-0.0039C50.52547,31.82192,52.17517,30.108,53.86327,28.35432z"/>
<path class="st3" d="M25.15777,21.86042c2.1395,1.616,4.3257,3.1903,5.6358,5.6446
	C28.38623,26.23826,26.42077,24.26973,25.15777,21.86042z"/>
</svg>
