<svg xmlns="http://www.w3.org/2000/svg" viewBox="0 0 162.059 239.715"><title>niño</title><g id="Capa_2" data-name="Capa 2"><g id="Editar"><path d="M122.9,75.441c-.149.077-.277.149-.417.224-.506-.385-1-.78-1.516-1.156a19.233,19.233,0,0,0-3.975-2.2,33.4,33.4,0,0,0-4.934-5.394c-9.256-8.1-23.045-10.774-35.764-8.562a34.868,34.868,0,0,0-17.216-.464c-.688.149-1.378.331-2.068.529-2.053-3.116-6.4-4.663-9.245-1.066-.92,1.163-1.819,2.342-2.706,3.529-4.123,1.38-7.589,4.7-9.65,9.475-13.9-9.246-31.261,14.3-15.659,23.41a14.771,14.771,0,0,0,3.45,1.447c-.481,8.2,5.078,17.2,11.608,21.345,4.336,2.751,9.1,3.872,14.065,4.632,7.026,2.72,14.863,3.291,22.665,2.546,7.437,1.022,15.284.291,21.153-3.015a13.843,13.843,0,0,0,3.028-2.3c.511-.227,1.009-.477,1.5-.73a38.064,38.064,0,0,0,19.3-10.4c.031-.033.058-.067.09-.1,4.574-2.9,8.6-6.56,9.943-11.371a41.273,41.273,0,0,0,6.537-2.933C144.629,86.767,134.439,69.468,122.9,75.441Z" fill="#ffedc9"/><path d="M45.72,103.838c-.341.266-.671.544-1.021.8C45.564,103.963,45.893,103.705,45.72,103.838Z" fill="#f7bfa7"/><path d="M48.7,91.091a9.512,9.512,0,0,0-4.078-3.92A9.669,9.669,0,0,0,42.1,85.646a8.178,8.178,0,0,0-6.971.435A12.839,12.839,0,0,0,29.4,89.151,9.083,9.083,0,0,0,26.963,92.6a10.069,10.069,0,0,0-.984,8.343c1.381,4.023,5.39,8.08,10.077,7.619a12.55,12.55,0,0,0,7.728-3.271c.093-.055.186-.107.279-.172.962-.746,1.5-1.164,1.657-1.281.342-.268.693-.523,1.025-.8C50.162,100.2,50.751,94.837,48.7,91.091Z" fill="#f7bfa7"/><path d="M125.15,88.306a14.266,14.266,0,0,0-3.789-3.782c2.6,1.963-.531-.53-1.533-1.111a12.331,12.331,0,0,0-6.687-1.678c-4.732.325-8.153,2.766-10.866,6.495a12.958,12.958,0,0,0-1.845,10.511,10.648,10.648,0,0,0,12.95,7.316,13.2,13.2,0,0,0,5.506-2.992c.166-.052.333-.1.5-.161,2.477-.942,4.826-2.331,6.1-4.785A9.593,9.593,0,0,0,125.15,88.306Z" fill="#f7bfa7"/><path d="M141.714,56.575c1.673-4.884-.811-9.485-4.042-12.967-.124-.134-.262-.252-.39-.382-.8-6.924-3.872-13.34-10.411-16.01a10.531,10.531,0,0,0-11.393,1.64,16.393,16.393,0,0,0-4.371,1.924A18.2,18.2,0,0,0,103.174,20c-4.4-2.635-9.932-2.22-14.465-.117-3.836-7.12-13.16-11.5-21.31-10.993a30.707,30.707,0,0,0-3.977.517,14.974,14.974,0,0,0-6.74.52c-4,1.229-6.486,4.243-7.938,7.816a18.077,18.077,0,0,0-1.736,2.612,25.629,25.629,0,0,0-4.263,3.954c-.258.154-.513.311-.761.477a17.261,17.261,0,0,0-8.794-5.331C18.119,15.521,10.708,33.136,11.6,46.688a17.658,17.658,0,0,0-3.14,3.086c-7.134,4.6-12.021,12.26-5.179,20.013a11.194,11.194,0,0,0,6.123,3.46c4.253,3.912,10.307,4.333,16.057,2.862a25.722,25.722,0,0,0,10.808-6,8.861,8.861,0,0,0,7.837-2.759,12.881,12.881,0,0,0,10.56,2.132,10.194,10.194,0,0,0,5.837-4.115c1.365,2.958,4,4.329,7.308,4.752,2.466.316,4.365.83,6.936.38,2.106-.367,1.636-1.137,3.277-.1a7.616,7.616,0,0,0,8.818-.644,7.841,7.841,0,0,0,5.1-.7,15.559,15.559,0,0,0,1.5,3.6c1.764,3.043,5.869,5,9.327,3.8a16.87,16.87,0,0,0,8.178-5.871c.224-.288.438-.584.655-.878.9.3,1.808.583,2.746.823.654.168,1.3.315,1.952.448a8.372,8.372,0,0,0,4.728,5c2.744,3.029,7.653,3.76,11.657.412a19.264,19.264,0,0,0,1.777-1.724,7.466,7.466,0,0,0,5.262-5.44,23.574,23.574,0,0,0,.468-6.461c0-.031,0-.058,0-.089a13.514,13.514,0,0,0,.05-1.49A24.549,24.549,0,0,1,141.714,56.575Z" fill="#c78a22"/><path d="M89.428,84.509c-4.663-1.685-10.05.133-14.654,1.451a85.569,85.569,0,0,0-12.781,5.012c-3.488,1.644-2.568,7.391,1.069,8.178a30.62,30.62,0,0,0,12.068-.032c2.088-.366,4.156-.825,6.241-1.207,2.761-.505,5.43-.19,8.057-1.3C95.13,94.214,95.627,86.749,89.428,84.509Z" fill="#faddba"/><path d="M49.238,135.327a11.033,11.033,0,0,0,.522-2.736,2.594,2.594,0,0,0-2.6-2.6c-2.637.332-4,1.646-6.353,2.635-2.161.909-4.173,2.01-5.314,4.17a11.112,11.112,0,0,0-.564,8.113c.64,2.155,2.58,3.532,3.259,5.562,1.614,4.823,9.778,5.863,10.819,0,.492-2.777.712-5.54.942-8.347A18.811,18.811,0,0,0,49.238,135.327Z" fill="#139192"/><path d="M109.759,134.43a3.946,3.946,0,0,0-2.914,1.345,5.7,5.7,0,0,1-1.321-3.184c.039-3.1-4.937-3.911-5.51-.746a10.8,10.8,0,0,0,1.213,6.851c.486,1.04,1.093,2.03,1.654,3.031a8.317,8.317,0,0,1,.623,1.687c.145.476.157.69.175.715-1.093,2.652.325,6.421,3.37,6.953,5.238.916,10.049-1.135,10.338-7C117.589,140.021,114.177,134.43,109.759,134.43Z" fill="#139192"/><path d="M105.679,185.3a6.132,6.132,0,0,0-9.118-4.807,11.31,11.31,0,0,0-7.555.445c-1.86.722-3.485.552-5.521.61-2.818.08-5.737,1.25-8.407,2.058A44.238,44.238,0,0,1,62.3,185.04a6.98,6.98,0,0,0-5.456-.937c-.29.078-.549.178-.813.275a6.886,6.886,0,0,0-3.893-1.008,8.352,8.352,0,0,0-7.033,3.987c-.747,1.1-1.736,3.411-2.395,4.566-.489.6-.943,1.213-1.349,1.81-3.922,5.78,3.811,10.567,8.7,7.5A6.591,6.591,0,0,0,53.9,202.4a5.868,5.868,0,0,0,7.908,1.3c3.015-2.024,5.482-4.784,6.314-8.139a54.841,54.841,0,0,0,11.67-1.392c3.131-.757,6.443-.2,9.538-.646.2,6.366,4.75,10.667,11.353,9.756C109.567,202.053,106.265,190.711,105.679,185.3Z" fill="#2e76ae"/><path d="M71.453,130.517a4.24,4.24,0,0,0-4.5-.86,3.021,3.021,0,0,0-2.487-1.491l-.088-.006a3.021,3.021,0,0,0-2.6,1.493c-1.329,2.043-1.621,4.854-1.6,7.211a4.315,4.315,0,0,0,1.76,3.364,3.265,3.265,0,0,0,4.723,1.656,16.307,16.307,0,0,0,2.908-2.565l1.069-1.069a4.047,4.047,0,0,0,1.192-2.214A4.252,4.252,0,0,0,71.453,130.517Z" fill="#139192"/><path d="M88,133.1a4.963,4.963,0,0,0,.052-2.218,9.246,9.246,0,0,0-.592-1.277,2.247,2.247,0,0,0-2.584-1.051,5.63,5.63,0,0,0-1.938,1.221c-.1-.057-.187-.116-.292-.175l0,0c-.009-.01-.009-.013-.019-.024a2.561,2.561,0,0,0-4.342,1.8,5.283,5.283,0,0,0,2.112,3.889,19.056,19.056,0,0,0,3,2.072,3.05,3.05,0,0,0,4.539-2.605q.009-.458.024-.916C87.955,133.694,88.086,132.547,88,133.1Z" fill="#139192"/><path d="M35.261,228.954a12.088,12.088,0,0,0-.781-1.756c-.123-.237-.193-.358-.233-.417l-.074-.2a52.737,52.737,0,0,1-2.226-6.27,19.472,19.472,0,0,1-.426-2.422c-.067-.546-.115-.921-.152-1.19,0-.046,0-.11-.006-.18,1.413-2.152.375-5.683-2.729-5.481-9.585.621-7.96,20.582-1.645,24.275,2.823,1.651,7.625,1.194,8.407-2.7A7.471,7.471,0,0,0,35.261,228.954Z" fill="#9d722c"/><path d="M124.126,229.409c-3.149-1.8-6.859-.377-10.3-.253-.7.025-1.394.074-2.081.12a3.325,3.325,0,0,0-3.684-.821c-2.369.874-4.61,2.33-4.516,5.192.1,2.985,2.494,4.639,5.1,5.429a22.953,22.953,0,0,0,7.863.547c3.432-.194,7.513-.581,9.244-3.992A4.618,4.618,0,0,0,124.126,229.409Z" fill="#9d722c"/><path d="M106.164,157.8c-2.326-9.371-3.917-19.016-7.964-27.853-1.24-3.539-6.933-2.682-6.876,1.232.017,1.119.081,2.237.168,3.354a3.573,3.573,0,0,0-1.727,3.057c-.039,1.976-.991,3.845-1.639,5.758-.055-.083-.107-.165-.161-.248-2.08-3.132-2.969-7.326-7.155-8.477-3.936-1.083-7.49,1.4-9.293,4.739-.132.246-.245.5-.363.753a6.648,6.648,0,0,0-1.907,2.074,6.878,6.878,0,0,0-1.164.92,5.8,5.8,0,0,0-4,.722c-1.819,1.141-6.709-3.7-6.227-8.153a2.361,2.361,0,0,0-.743-3.063l-.036-.029a3.061,3.061,0,0,0-5.031,1.328c-1.746,4.94-3.635,10.881-3.834,16.09-.01.262,0,.522-.01.784a6.192,6.192,0,0,0-3.578,5.322c-.375,5.964.508,11.854.526,17.809.009,3.069,1.976,4.947,4.607,6.052,3.476,1.459,7.2.135,10.655-1.272,9.916,6.19,21.452-.908,31.982-2.188a17.962,17.962,0,0,0,2.983-.624,5.95,5.95,0,0,0,7.117-.207C108.311,171.731,107.656,163.811,106.164,157.8Z" fill="#b1cd32"/><path d="M160.106,131.7h-1.22a1.12,1.12,0,0,0-1.141.912c-1.153.353-2.365.522-3.55.81a15.286,15.286,0,0,0-2.543.909,28.877,28.877,0,0,1,5.047-7.26c1.094-1.131-.63-2.858-1.726-1.725a29.911,29.911,0,0,0-3.422,4.293c.978-2.663,2.091-5.278,3.134-7.924a1.109,1.109,0,0,0,.54-1v-.61a1.226,1.226,0,0,0-2.4-.325c-1.505,3.956-3.256,7.81-4.539,11.834a43.625,43.625,0,0,1-.386-7.849,1.222,1.222,0,0,0-2.442,0c0,2.294.029,4.579.259,6.864.206,2.046.958,3.946,1.186,5.979.459,4.077-3.112,7.575-5.911,10.019-3.163,2.76-7.75,3.29-11.758,2.709-3.512-.509-6.488-2.432-9.548-4.093.538-.579,1.077-1.149,1.62-1.7a1.223,1.223,0,0,0,0-1.725c-1.785-1.476-3.614-2.9-5.448-4.31-2.071-1.595-4.144-3.707-6.391-5.034-2.811-1.658-7.395-3.373-8.476-6.779.227-.076.456-.15.683-.23a62.274,62.274,0,0,0,16.991-9.054c4.638-3.527,9.348-8.368,10.391-14.334.069-.4.121-.788.159-1.179,2.694-.462,5.458-3.283,6.98-4.951a15.714,15.714,0,0,0,3.538-12.695,7.272,7.272,0,0,0-1.932-4.064,6.289,6.289,0,0,0,1.4-.854,8.458,8.458,0,0,0,2.61-4.284c.728-3.145-2.318-5.326-4.492-7.207,2.885-3.908,6.387-6.962,6.3-12.283-.033-1.981-.153-4.591-1.572-6.142a10.243,10.243,0,0,0-2.412-2.089,18.431,18.431,0,0,0-2.586-1.083c1.969-3.025,1.222-7.4.586-10.744-.907-4.747-5.031-8.9-9.586-10.358-4.4-1.408-9.527-2.053-13.848-.26a20.762,20.762,0,0,0-.642-3.362c-1.073-3.888-3.459-8.658-7.828-9.3a44.942,44.942,0,0,0-14.012.321A15.442,15.442,0,0,0,85.3,13.888,15.315,15.315,0,0,0,73.21,1.257C68.976.3,64.528.868,60.3,1.563A32.8,32.8,0,0,0,46.117,7.517a17.787,17.787,0,0,0-5.761,6.546,15.05,15.05,0,0,0-1.646-.228,32.532,32.532,0,0,0-15.547,2.389c-4.573,1.995-7.408,5.794-9.1,10.373a43.954,43.954,0,0,0-2.252,14.061c-.038,1.8-.109,3.727-.021,5.641a6.785,6.785,0,0,0-4.548-2.168C1.834,44,1.428,53.541,1.575,57.072,1.8,62.5,3.14,69.237,7.02,73.292a8.07,8.07,0,0,0,5.237,2.2c.138.014.288.033.443.053-2.249,1.68-3.512,4.533-4.072,7.357-.749,3.768.043,7.961,3.206,10.405a9.32,9.32,0,0,0,8.375,1.312,32.735,32.735,0,0,0-.415,4.789c-.123,10.519,6.383,19.244,15.213,24.355a47.475,47.475,0,0,0,10,4.249,20.511,20.511,0,0,0-1.781,1.8c-1.338,1.459-2.881,2.644-4.325,3.993a42.047,42.047,0,0,0-7.953,9.839,3.2,3.2,0,0,0,.308,3.56,44.465,44.465,0,0,0,4.127,4.515c.855.921,1.725,1.779,2.574,2.662a1.211,1.211,0,0,0-1.356.247c-1.86,1.976-2.526,4.931-3.737,7.321-1.641,3.237-3.434,6.378-5.243,9.522-1.888,3.277-3.854,6.5-6.01,9.61-1.147,1.653-2.036,3.357-3.158,4.919a1.129,1.129,0,0,0-.765.356,11.6,11.6,0,0,0-2.022,2.687c-.016.029-.028.057-.041.086a1.12,1.12,0,0,0-1.263.555c-2.244.273-4.207,1.893-6.283,3.055a1.291,1.291,0,0,0-.518.138,8.3,8.3,0,0,1-3.044,1.053c-1.551.122-1.583,2.519,0,2.441a12.256,12.256,0,0,0,5.174-1.742c1.134-.609,2.956-2.118,4.5-2.5-.686,3.533-4.106,6.912-5.847,9.731a1.225,1.225,0,0,0,1.916,1.479c1.089-1.164,1.963-2.5,3.051-3.661a1.152,1.152,0,0,0,.306-1.065,18.792,18.792,0,0,0,2.749-5.1c-.969,3.879-.867,8.1-.868,12.014a1.221,1.221,0,0,0,2.441,0,2.8,2.8,0,0,1,.444-1.825,1.029,1.029,0,0,0-.46-1.611,28.958,28.958,0,0,1,1.115-9.172c.872,2.814,2.692,5.356,3.825,8.05.6,1.429,2.964.8,2.354-.648-1.349-3.209-4.058-6.485-4.227-10.049a1.243,1.243,0,0,0-2.294-.6c-.041-.01-.08-.018-.12-.024a23.635,23.635,0,0,0,4.435-6.2c1.719-3.258,4.1-6.271,5.971-9.465,1.829-3.119,3.635-6.252,5.3-9.463.818-1.576,1.607-3.166,2.4-4.754.44-.879.591-1.714,1-2.5a1.272,1.272,0,0,0,1.568-1.476c.194.222.386.447.575.678a10.629,10.629,0,0,0,3.679,3.093c-.378,3.8-.548,7.592-.555,11.473,0,1.228-.019,2.452.074,3.677.079,1.017.53,1.985.539,2.99.014,1.562.056,3.326,1.152,4.553a5.215,5.215,0,0,0,1.143.947,1.013,1.013,0,0,0-.3.351l-4.119,8.237c-.905,1.81-2.613,4.261-2.089,6.429a3.749,3.749,0,0,0,2.577,2.584c2.282.867,4.667,1.606,7.016,2.266l.176.051a29.183,29.183,0,0,1-2.634,4.369c-1.109,1.629-1.507,3.747-2.53,5.471-.83,1.4-5.191-.431-6.476-.855a59.047,59.047,0,0,0-6.887-2.067c-.138-.028-.276-.052-.413-.077-.03-.164-.061-.327-.085-.492-.207-1.424-2.195-.983-2.353.286a4.613,4.613,0,0,0-4.556,2.936,53.545,53.545,0,0,0-1.3,5.295,26.112,26.112,0,0,0-.955,7.065c-.029,3.776.821,8.217,4.3,10.284,2.813,1.671,6.768.725,8.052-2.362,1.278-3.07.737-7.316.384-10.541-.379-3.458-1.9-6.616-2.877-9.919,3.1.666,6.084,2.093,9.129,2.852,1.191.3,3.74,1.024,4.868.364s1.8-2.421,2.313-3.525a30.536,30.536,0,0,1,2.177-4.492,23.451,23.451,0,0,0,2.165-3.829c3.292,1.135,7.211,2.466,10.084.807,1.8-1.038,2.971-3.557,4.062-5.217,1.537-2.343,3.354-4.9,6.135-5.814,1.872-.617,4.082-.316,6.028-.394,2.044-.083,5.06-.409,6.414,1.512,1.073,1.523,1.112,3.782,1.785,5.5a8.624,8.624,0,0,0,3.454,4.292,9.952,9.952,0,0,0,4.956.954c1.829.032,3.634.167,5.46.281.426.026.873.047,1.333.058.653,2.068,1.215,4.159,1.794,6.248.726,2.616,1.517,4.709.885,7.439-.915,3.955-3.239,7.4-2.916,11.6a1.3,1.3,0,0,0,.464.924,1.019,1.019,0,0,0-.3,1.523c2.42,3.4,6.8,4.571,10.757,4.9,3.83.319,9.017-.373,11.438-3.752,2.948-4.113,2.094-9.025-2.973-10.652-3.063-.983-6.376.348-9.213,1.443a81.015,81.015,0,0,0-7.677,3.6c.438-3.648,2.582-6.958,3.086-10.633.314-2.282-.376-4.2-1-6.36-.617-2.119-1.171-4.252-1.813-6.362,2.218-.226,4.38-.939,5.622-2.8,2.289-3.429.972-8.7.5-12.476-.3-2.407-.263-4.811-.476-7.221a32.058,32.058,0,0,0-1.651-7.087,28.142,28.142,0,0,1,.324-3.068,40.176,40.176,0,0,0,.208-7.091,60.351,60.351,0,0,0-1.059-10.867c4.427-1.358,7.706-4.694,10.829-8.08,3.678,1.927,7.075,4.084,11.288,4.7a17.524,17.524,0,0,0,12.254-2.521c3.32-2.213,6.63-5.989,7.552-9.925a8.929,8.929,0,0,0,.166-.961,1.137,1.137,0,0,0,.74-.331l.254-.253h.105a1.1,1.1,0,0,0,1.055-.659,22.471,22.471,0,0,1,3.981-1.5,18.348,18.348,0,0,0,5.342-1.67A1.229,1.229,0,0,0,160.106,131.7ZM16.565,192.785a7.787,7.787,0,0,0,.194-1.964,1.329,1.329,0,0,0,.557-.132A17.6,17.6,0,0,0,16.565,192.785Zm14.862,33.453a23.6,23.6,0,0,1,0,4.432c-.614,4.425-5.807,3.374-7.152-.071-1.532-3.922-.991-8.634.152-12.568.746-2.57.353-5.913,3.738-5.862.743,2.94,2.02,5.729,2.762,8.678A27.442,27.442,0,0,1,31.427,226.238Zm85.919-.018c1.974-.182,4.4.6,5.179,2.584.67,1.708-.612,4.026-1.846,5.208-2.185,2.094-6.018,2.22-8.834,2.048-2.966-.182-6.823-1.123-8.649-3.692a1.334,1.334,0,0,0-.247-.259C107.365,229.869,112.334,226.682,117.346,226.219ZM137.454,86.851a12.838,12.838,0,0,1-3.247,7.663c-.849.93-3.093,3.363-4.936,3.9-.233-4.53-2.146-8.826-3.53-13.169a1.219,1.219,0,0,0-.676-2.329l0,0c-.05-.2-.105-.413-.16-.632a6.151,6.151,0,0,1,2.665-2.5,10.662,10.662,0,0,1,4.89-.574,6.673,6.673,0,0,1,.8.116,1.332,1.332,0,0,0,1.837.956c.056-.026.116-.049.174-.074C137.13,81.6,137.636,84.22,137.454,86.851ZM41.913,17.026a10.109,10.109,0,0,1,3.214,1.908c.954.857,1.452,2.793-.34,2.935a3.089,3.089,0,0,1-2.275-.748C41.46,20.163,41.634,18.344,41.913,17.026ZM11.3,72.91a5.733,5.733,0,0,1-3.574-2.574C5.247,66.9,4.4,61.835,4.055,57.714a22.627,22.627,0,0,1,.354-6.471c.3-1.44,1.034-4.477,2.835-4.671,1.424-.154,2.775,1.494,3.589,2.434a15.433,15.433,0,0,1,1.861,2.729,11.928,11.928,0,0,0,1.143,2.479c.7,1.133,2.752.39,2.231-.941a27.612,27.612,0,0,0-1.151-2.549c-1.105-3.435-.708-7.508-.643-10.962a36.788,36.788,0,0,1,2.891-14.33c2.359-5.151,7.086-7.588,12.432-8.7a26.61,26.61,0,0,1,9.952-.364c-.608,2.58-.254,5.416,1.99,7.084,2.795,2.078,7.309.456,6.853-3.308-.33-2.722-2.934-4.484-5.669-5.444,1.494-2.956,4.5-5.17,7.224-6.828,4.7-2.864,10.007-3.91,15.4-4.524A19.214,19.214,0,0,1,77.263,5.415c4.325,2.533,5.908,7.423,5.964,12.184a1.221,1.221,0,0,0,2.441,0c.115-2.744,5.147-3.433,7.111-3.772a44.6,44.6,0,0,1,11.418-.345,5.148,5.148,0,0,1,3.526,1.262,13.644,13.644,0,0,1,3.062,5.133,17.432,17.432,0,0,1,1.127,5.225c-2.591,1.694-5.249,4.521-2.7,7.394a1.226,1.226,0,0,0,1.48.19,7.2,7.2,0,0,0,3.557-6.149c.543-.291,1.014-.518,1.3-.655,1.555-.749,3.44-.614,5.127-.568a18.916,18.916,0,0,1,7.61,1.537c3.407,1.745,6.242,4.428,7,8.3.578,2.942,1.488,7.381-1.056,9.651a1.23,1.23,0,0,0,.247,1.917c1.71,1.025,3.971,1.232,5.244,2.86,1.314,1.678,1.434,3.358,1.469,5.493.079,4.684-4.1,7.793-6.541,11.332a1.215,1.215,0,0,0,.191,1.479c1.513,1.457,4.511,3.069,4.618,5.4.06,1.267-1.469,3.024-2.5,3.612a10.061,10.061,0,0,1-1.5.658,11.027,11.027,0,0,0-6-.728,8.346,8.346,0,0,0-5.361,2.585,11.883,11.883,0,0,0-2.873-5.133,17.242,17.242,0,0,0,1.06-6.038,1.221,1.221,0,0,0-2.44,0,17.466,17.466,0,0,1-.721,4.425c-.028.1-.079.284-.149.5-.115-.019-.231-.034-.35-.044a1,1,0,0,0-1.12.763,5.844,5.844,0,0,1-.321-.965c-.318-1.084-.444-2.48-1.449-3.184-1.6-1.117-3.529.147-4.791,1.133-1.928,1.508-5.951,1.236-7.731-.348-1.139-1.013-2.435-2.483-4.1-2.514-.619-.012-1.679.047-2.1.592-.221.284-1.047,2.083-1.3,2.083-.926,0-2.056.245-2.765-.349a6.566,6.566,0,0,1-2.4-4.532,1.226,1.226,0,0,0-2.4-.324c-.849,2.913-2.1,7.1-5.441,7.932-4.41,1.1-6.128-5.777-6.2-8.827a1.221,1.221,0,0,0-2.441,0c-.064,3.522-1.718,8-6.109,7.259-3.227-.545-5.564-4.732-7.672-6.9a1.253,1.253,0,0,0-1.478-.191c-2.051.928-2.734,3.557-3.792,5.349a10.851,10.851,0,0,1-3.093,3.286c-1.105.748-3.4,1.239-4.464.191a9.154,9.154,0,0,1-1.808-4.686A8.482,8.482,0,0,0,48.4,61.205a1.218,1.218,0,0,0-1.5-.853c-2.988,1.035-3.926,4.294-3.737,7.589-2.579,1.945-6.29,2.881-8.86,2.153-3.166-.9-2.382-4.973-1.914-7.378a10.749,10.749,0,0,1,2.55-5.46,6.721,6.721,0,0,1,2.527-1.385,2.773,2.773,0,0,1,.966-.173.989.989,0,0,0,.139-.015,1.092,1.092,0,0,0-.333.348c-.874,1.315,1.24,2.536,2.106,1.232,1.325-1.994.528-3.882-1.912-4.006a7.828,7.828,0,0,0-6.021,3.2,16.221,16.221,0,0,0-2.727,7.865c-.287,2.292-.234,4.472,1.2,6.343a29.942,29.942,0,0,0-5.335,8.723,9.242,9.242,0,0,0-7.666-5.311c0-.008,0-.014.006-.022.249-1.465-1.865-2.128-2.3-.854a2.711,2.711,0,0,0-.3.011,14.43,14.43,0,0,0-1.559-.1A13.648,13.648,0,0,1,11.3,72.91ZM111.333,28.565a4.553,4.553,0,0,1-.673,1.043A2.657,2.657,0,0,1,111.333,28.565Zm-97.618,63.1c-2.444-1.419-3.02-4.406-2.874-7,.153-2.75,1.324-5.956,3.725-7.488,3.077-1.962,7.89.326,8.911,3.592a1.161,1.161,0,0,0,1.112.849c-.358.833-.722,1.669-1.1,2.5a43.4,43.4,0,0,0-2.718,7.728A7.835,7.835,0,0,1,13.715,91.661Zm21.97,29.673c-8.226-4.761-13.556-12.942-13.443-22.544a26.829,26.829,0,0,1,.591-5.2,14.4,14.4,0,0,0,1.825-1.11c1.168-.834.23-2.688-.928-2.265a49.639,49.639,0,0,1,2.146-5.48c2.017-4.424,3.473-8.957,6.916-12.53,2.845,1.346,6.872.273,9.434-.945a13.518,13.518,0,0,0,1.315-.72,12.547,12.547,0,0,0,1.629,4.042c1.864,2.8,5.947,2.294,8.414.623a14,14,0,0,0,3.548-3.878c.721-1.09,1.16-2.891,2.139-3.91,2.881,3.2,5.679,7.388,10.471,6.84a6.859,6.859,0,0,0,5.466-3.979c1.21,3.023,3.44,5.5,6.946,5.619,3.595.123,5.767-3.018,7.119-6.222a9.357,9.357,0,0,0,2.645,2.952,5.119,5.119,0,0,0,5.776-.506c.758-.786.584-2.135,1.945-1.422a25.647,25.647,0,0,1,2.746,2.3c2.153,1.558,5.581,1.381,8.057.852a7.7,7.7,0,0,0,2.765-1.66c1.385-.993,1.329.3,1.616,1.376.4,1.481,1.3,3.19,3.047,3.251a2.931,2.931,0,0,0,1.911-.582A11.249,11.249,0,0,1,121.45,79.5a29.975,29.975,0,0,1,.94,2.88,3.723,3.723,0,0,0,.848,3.19c1.228,4.288,3.12,8.225,3.493,12.64a1.257,1.257,0,0,0-.189,2.2c.076.048.153.088.231.129-.008.184-.011.366-.026.552-.418,5.156-4.841,9.526-8.582,12.627a57.18,57.18,0,0,1-13.544,7.991,75.17,75.17,0,0,1-17.3,4.928c-6.179,1.076-12.218,2.789-18.532,2.556C57.664,128.783,45.455,126.991,35.684,121.334Zm53.028,11.72a52.473,52.473,0,0,1-.364,6.006,59.17,59.17,0,0,1-6.768-4.447c-1.861-1.3-3.5-2.767-5.654-3.319,2.848-.464,5.645-1.188,8.479-1.735,1.653-.319,3.294-.627,4.927-.946a.254.254,0,0,0,0,.033,2.805,2.805,0,0,1-.444,1.825C88.446,131.07,88.717,132.366,88.712,133.054ZM61.727,131.11c1.636.16,3.265.295,4.868.406a51.212,51.212,0,0,0,6.063.143,10.748,10.748,0,0,0-3.712,3.7C67.112,138,64.6,140.635,61.3,140.87c.112-2.78.462-5.544.552-8.325a1.365,1.365,0,0,0,.024-.237v-.61A1.208,1.208,0,0,0,61.727,131.11ZM44.4,152.9c-.229,1.368-.421,2.729-.591,4.088A11.569,11.569,0,0,1,41.01,154a32.117,32.117,0,0,0-3.431-3.516c-1.072-1.079-2.055-2.247-3.1-3.355-.484-.515-1.66-1.3-1.471-2.133a7.767,7.767,0,0,1,1.485-2.28,52.149,52.149,0,0,1,6.605-7.626c1.146-1.07,2.388-1.978,3.462-3.125a10.536,10.536,0,0,1,3.282-2.877,1.152,1.152,0,0,0,.325-.207c.438.11.876.22,1.316.32-1.106,1.768-1.61,4.43-2.031,5.858a71.9,71.9,0,0,0-1.489,8.428Q45.181,148.2,44.4,152.9Zm1,19.675a99.6,99.6,0,0,1,.96-16.672L49.1,139.43a44.461,44.461,0,0,1,1.292-5.7c.281-.928.873-3.748,2.041-3.9l.017,0c2.42.454,4.859.806,7.286,1.081a1.145,1.145,0,0,0-.3.8c-.041,3.468-.572,6.9-.612,10.373a1.245,1.245,0,0,0,1.221,1.22c3.116.351,5.822-1.171,8.105-3.155,2.012-1.748,3.648-6.37,6.538-6.607,2.634.2,5.111,2.764,7.144,4.277a33.94,33.94,0,0,0,7.176,4.221,1.213,1.213,0,0,0,1.5-.852,55.177,55.177,0,0,0,.639-7.458,7.257,7.257,0,0,1,.227-2.655,6.31,6.31,0,0,0,.4-2.415,1.221,1.221,0,0,0-.1-.506c1.7-.355,3.4-.74,5.085-1.183.4,3.243,1.781,6.33,2.988,9.335a54.552,54.552,0,0,1,1.866,6.864c.646,2.542,1.268,5.091,1.94,7.627a63.487,63.487,0,0,1,2.223,15.256,39.089,39.089,0,0,1-.232,7.129c-.134.818-.221,1.624-.275,2.432-.077-.2-.155-.4-.241-.588-.66-1.427-2.763-.186-2.108,1.232.085.183.163.364.239.543a77.815,77.815,0,0,0-13.543,1.431c-5.236.9-10.5,1.5-15.728,2.361a100.5,100.5,0,0,1-15.421,1.154c-3.441.033-7.008.694-10.388-.217-1.762-.475-1.98-1.672-2.053-3.321C45.94,176.281,45.4,174.522,45.4,172.577Zm62.309,20.611c.294,2.365.893,5.576-.079,7.853-.817,1.917-3.206,2.257-5.029,2.361a40.309,40.309,0,0,1-5.368-.23c-1.906-.146-3.863.076-5.732-.377-4.419-1.07-3.158-7.112-5.641-9.823-2.773-3.027-7.443-2.11-11.109-2.086-4.749.031-7.823,2.4-10.5,6.212-1.2,1.709-2.56,5.177-4.694,5.81-2.234.661-5.2-.845-7.281-1.451l-.257-.077a1.308,1.308,0,0,0-1.777-.535c-1.845-.557-3.684-1.126-5.528-1.7a14.71,14.71,0,0,1-2.493-.885c-1.129-.588-.062-2.446.3-3.179l4.292-8.585a1.175,1.175,0,0,0,1.634-1.107,2.572,2.572,0,0,0-.34-1.292,24.606,24.606,0,0,0,6.344.262c4.928-.193,9.864-.222,14.774-.721,2.726-.277,5.437-.7,8.128-1.205,2.988-.563,6.086-.709,9.1-1.207,6.22-1.029,12.4-2.292,18.741-1.939a1.049,1.049,0,0,0,.794-.268,26.784,26.784,0,0,1,1,5.575C107.168,187.484,107.351,190.31,107.707,193.188Zm-1.1-40.4c-.1-.375-.187-.749-.292-1.123-1.351-4.805-2.424-9.685-3.775-14.491-.863-3.067-2.45-5.991-3.13-9.117,1.506,2.418,4.37,4,6.76,5.353a54.863,54.863,0,0,1,6.426,4.647c2.028,1.567,4.062,3.123,6.054,4.736C115.095,146.584,111.645,151.14,106.612,152.783Z" stroke="#000" stroke-miterlimit="10" stroke-width="1.5"/><path d="M66.627,91.548a.986.986,0,0,0-.977-.977,1.55,1.55,0,0,0-1.119.347,1.423,1.423,0,0,0-.347,1.118,1.335,1.335,0,0,0,2.443-.488Z" stroke="#000" stroke-miterlimit="10" stroke-width="1.5"/><path d="M73.95,86.664a.987.987,0,0,0-.977.977v.489a.977.977,0,0,0,1.955,0v-.489A.987.987,0,0,0,73.95,86.664Z" stroke="#000" stroke-miterlimit="10" stroke-width="1.5"/><path d="M74.44,95.455a.977.977,0,0,0,0,1.953A.977.977,0,0,0,74.44,95.455Z" stroke="#000" stroke-miterlimit="10" stroke-width="1.5"/><path d="M83.229,91.06a1.245,1.245,0,0,0-.488,2.442,1.544,1.544,0,0,0,1.117-.347,1.422,1.422,0,0,0,.348-1.118A.985.985,0,0,0,83.229,91.06Z" stroke="#000" stroke-miterlimit="10" stroke-width="1.5"/><path d="M91.53,86.664a.986.986,0,0,0-.976.977v.489a.977.977,0,0,0,1.955,0v-.489A.987.987,0,0,0,91.53,86.664Z" stroke="#000" stroke-miterlimit="10" stroke-width="1.5"/><path d="M108.077,91.421c-.9-1.276-3.015-.058-2.107,1.232,1.579,2.243.01,5.555-1.054,7.7a23.235,23.235,0,0,1-5.369,6.778,28.544,28.544,0,0,1-19.879,7.535c-11.137-.126-24.329-3.955-28.213-15.634-.494-1.486-2.851-.849-2.353.648,4.454,13.4,19.349,17.519,32.1,17.43,8.181-.057,15.75-3.921,21.49-9.611a23.136,23.136,0,0,0,5.1-7.6C108.882,97.3,109.853,93.945,108.077,91.421Z" stroke="#000" stroke-miterlimit="10" stroke-width="1.5"/><path d="M54.2,85.264a1.78,1.78,0,0,1-.261-.7,2.61,2.61,0,0,0-.968-1.931,1.235,1.235,0,0,0-2.043,1.183,1.107,1.107,0,0,0-.039.29,1.725,1.725,0,0,0,.647,1.5c.03.1.058.2.087.282a4.229,4.229,0,0,0,.842,1.517,1.228,1.228,0,0,0,2.084-.862A3.851,3.851,0,0,0,54.2,85.264Z" stroke="#000" stroke-miterlimit="10" stroke-width="1.5"/><path d="M106.36,81.312a1.074,1.074,0,0,0-.465-.628c-.141-.166-.288-.331-.45-.493a1.23,1.23,0,0,0-2.082.863v.61a1.108,1.108,0,0,0,.721,1.084,3.407,3.407,0,0,0,.856,1.609,1.229,1.229,0,0,0,2.083-.862A4.147,4.147,0,0,0,106.36,81.312Z" stroke="#000" stroke-miterlimit="10" stroke-width="1.5"/></g></g></svg>