<svg xmlns="http://www.w3.org/2000/svg" viewBox="0 0 389.362 240.923"><title>nueve1</title><g id="Capa_2" data-name="Capa 2"><g id="Objects"><path d="M364.19,87.5c-9.216-12.847-24.036-14.978-38.772-14.668a85.417,85.417,0,0,0-20.428,2.52c-2.619.708-5.365,1.773-8.162,2.773.8-10.52-1.355-21.072-5.38-31.468-4.932-12.744-12.508-30.935-27.783-33.458-15.573-2.574-33.725,6.726-45.936,15.463a187.308,187.308,0,0,0-20.42,16.685,41.593,41.593,0,0,0-5.5,6.178A28.094,28.094,0,0,0,187.77,45c-5.555-6.6-13.606-16.589-21.783-20.067-17.02-7.232-37.012-4.275-52.667,5.049-15.952,9.5-25.6,25.82-24.757,44.444.047,1.018.109,2.068.188,3.137-7.719-5.516-18.311-5.4-26.688-1.433-9.458,4.483-17,12.726-26.1,18.046-9.378,5.479-20.1,12.645-20.384,24.652-.518,21.852,18.632,33.494,37.184,38.892a67.282,67.282,0,0,0,19.062,2.5A39.632,39.632,0,0,0,69.3,175.51c.438,11.989,8.857,22.484,16.725,30.67,5.343,5.561,7.394,14.211,13.775,20.021,14.426,13.151,37.991-.608,51.868-8.267a70.1,70.1,0,0,0,14.688-10.682,58.25,58.25,0,0,0,11.053,11.977c13.726,11.227,31.372,6.711,46.391,1.37,13.858-4.928,28.046-10.077,37.468-22.017a42.125,42.125,0,0,0,5.836-10.366,91.452,91.452,0,0,0,14.324,11.1c16.32,9.878,37.149,8.915,53.6.127,16.893-9.029,24.515-25.007,17.924-43.535-2.455-6.9-7.8-11.944-13.9-15.6a48.827,48.827,0,0,0,16.6-12.9C364.272,116.867,373.58,100.6,364.19,87.5Z" fill="#fff"/><path d="M360.93,136.175c24.056-8.292,35.858-42.319,23.421-63.885-6.8-11.787-21.727-19.338-34.491-22.15-12.518-2.755-25.692-.268-38.435.268a6.076,6.076,0,0,0,.126-.744c.188-2.559,1.677-5.275,1.218-7.846a52.547,52.547,0,0,0-2.922-10.478,50.4,50.4,0,0,0-9.189-14.593C292.5,7.6,282.569,5.44,271.319,2.278c-11.9-3.345-24.455-3.483-35.409,2.83C227,10.254,220.683,17.061,214.558,24.558c-12.46-9.891-27.72-15.261-43.162-20C161.438,1.5,151.233.589,140.849.8c-8.922.187-20.921,1.638-28.524,6.75A86.307,86.307,0,0,0,90.01,29.89c-5.665,8.078-8.731,17.285-13.681,25.621a23.719,23.719,0,0,0-3.116,14.126C44.867,67.259,16.7,84.363,3.9,110.038c-7.786,15.611-3.747,36.246,10.613,46.468,8.7,6.193,19.079,6.3,29.34,6.383a105.665,105.665,0,0,0,17.637-1.412c-1.219,3.011-2.416,6.03-3.434,9.107a78.441,78.441,0,0,0-3.634,26.208c.238,16.176,10.431,31.447,24.616,38.989,24.707,13.142,54.017-1.189,74.46-17.369,9.261,19.994,37.818,23.435,58.806,20.723,21.455-2.77,48.224-17.6,59.4-38.462,18.4,19.542,46.725,26.741,72.569,14.144,15.254-7.43,27.714-19.458,27.655-37.553a46.577,46.577,0,0,0-6.744-23.61c-1.609-2.74-4.1-5.028-6.273-7.316-2.877-3.038-6.434-4.369-9.3-7.09-2.978-2.827-7.536.939-6.211,4.48,1.721,4.6,2.484,7.978,5.21,12.3,3.347,5.311,5.332,10.206,5.692,16.544.754,13.289-10.515,21.379-21.134,26.275-23.133,10.676-46.042-2.556-57.758-22.984-3.709-6.467-15.161-3.634-15.772,3.655-1.677,20.055-27.5,37.234-45.817,40.651-14.67,2.74-44.115,4.347-45.1-16.475-.477-10.035-13.652-10.2-17.3-2.827-18.45,6.338-38.029,22.755-58.357,18.441-12.387-2.631-18.293-15.791-18.653-27.033-.446-13.942,6.849-27.084,11.087-40,2.83-8.62-3.724-15.249-12.36-13.184-12.892,3.086-31.465,6.84-44.4,2.405-11.524-3.95-10.374-18.808-6.283-27.65C31.352,94.62,56.8,72.883,78.813,80.934a11.982,11.982,0,0,0,5.106,2.276,4.6,4.6,0,0,0,1.6.2,17.989,17.989,0,0,0,5.371-.445c10.625-2.412,8.68-15.749-.313-16.508a21.832,21.832,0,0,1,1.648-3.637c2.866-5.425,5.465-11.14,8.565-16.52,7.057-12.236,17.327-23.285,31.62-25.724,13.87-2.366,27.316.175,40.3,5.034,12.58,4.7,25.843,8.743,34.915,19.248,4.081,4.718,11.42,5.79,15.674.473,5.374-6.711,9.974-14.081,16.834-19.4,8.118-6.3,15.341-7.009,25.087-4.835,7.613,1.7,15.552,2.95,21,9.059,2.81,3.152,4.57,6.931,6.2,10.772,1.45,3.417,3.89,6.889,5.066,10.119a6.639,6.639,0,0,0,3.2,3.6c-1.683,4.619,1.359,11.474,7.981,11.627,9.373.226,18.7-.765,28.069-.762,11.907,0,21.646,4.883,30.318,12.768,16.768,15.246-7.646,36.43-13.377,50.15A5.783,5.783,0,0,0,360.93,136.175Z"/></g></g></svg>