<svg xmlns="http://www.w3.org/2000/svg" viewBox="0 0 116.159 28.143"><title>pay</title><g id="Capa_2" data-name="Capa 2"><g id="Editar"><path d="M10.135,6.623h7.938c4.262,0,5.866,2.157,5.619,5.332-.409,5.234-3.573,8.128-7.77,8.128H13.8c-.575,0-.962.38-1.119,1.414l-.909,6c-.059.39-.264.619-.572.646H6.226c-.468,0-.635-.358-.512-1.134L8.753,7.762A1.214,1.214,0,0,1,10.135,6.623Z" fill="#009de2" fill-rule="evenodd"/><path d="M44.6,6.268c2.679,0,5.15,1.452,4.811,5.074-.4,4.293-2.715,6.684-6.354,6.694H39.879c-.458,0-.678.372-.8,1.138l-.613,3.907c-.092.59-.395.881-.843.881H34.669c-.472,0-.636-.3-.531-.975L36.582,7.324c.12-.77.415-1.057.937-1.057ZM39.78,14.652h2.408c1.505-.057,2.507-1.1,2.607-2.981a1.818,1.818,0,0,0-1.972-1.987l-2.267.01-.777,4.957Zm17.664,8.11c.27-.245.546-.373.506-.07l-.1.726c-.05.378.1.58.454.58h2.626c.442,0,.658-.179.767-.863l1.619-10.159c.081-.51-.042-.761-.43-.761H60c-.261,0-.387.146-.455.544l-.107.625c-.056.326-.205.383-.344.055-.49-1.161-1.74-1.681-3.493-1.645-4.051.083-6.783,3.159-7.075,7.1a4.882,4.882,0,0,0,4.839,5.444,5.221,5.221,0,0,0,4.077-1.578Zm-2.2-1.561a2.638,2.638,0,0,1-2.706-3.1,3.772,3.772,0,0,1,3.627-3.1,2.638,2.638,0,0,1,2.706,3.1,3.772,3.772,0,0,1-3.627,3.1Zm13.216-9.019H65.809c-.55,0-.773.4-.6.914l3.307,9.684-3.258,4.606c-.272.384-.062.736.321.736h2.994a.916.916,0,0,0,.89-.437L79.634,13.1c.313-.449.166-.92-.348-.92l-2.831,0c-.486,0-.681.192-.96.6l-4.242,6.154-1.887-6.165A.815.815,0,0,0,68.462,12.183Z" fill="#113984" fill-rule="evenodd"/><path d="M90.219,6.268c2.679,0,5.15,1.452,4.811,5.074-.4,4.293-2.715,6.684-6.354,6.694H85.5c-.458,0-.678.372-.8,1.138l-.613,3.907c-.092.59-.395.881-.843.881H80.291c-.472,0-.636-.3-.531-.975L82.2,7.324c.12-.77.415-1.057.937-1.057ZM85.4,14.652h2.408c1.505-.057,2.507-1.1,2.607-2.981a1.818,1.818,0,0,0-1.972-1.987l-2.267.01L85.4,14.652Zm17.664,8.11c.27-.245.546-.373.506-.07l-.1.726c-.05.378.1.58.454.58h2.626c.442,0,.658-.179.767-.863l1.619-10.159c.081-.51-.042-.761-.43-.761h-2.888c-.261,0-.387.146-.455.544l-.107.625c-.056.326-.205.383-.344.055-.49-1.161-1.74-1.681-3.493-1.645-4.052.083-6.783,3.159-7.075,7.1A4.882,4.882,0,0,0,98.99,24.34a5.22,5.22,0,0,0,4.077-1.578Zm-2.2-1.561a2.638,2.638,0,0,1-2.706-3.1,3.772,3.772,0,0,1,3.627-3.1,2.638,2.638,0,0,1,2.706,3.1,3.772,3.772,0,0,1-3.627,3.1Zm12.115,2.815h-3.031a.358.358,0,0,1-.372-.419l2.666-16.874a.523.523,0,0,1,.5-.419h3.031a.358.358,0,0,1,.372.419L113.488,23.6A.523.523,0,0,1,112.984,24.016Z" fill="#009de2" fill-rule="evenodd"/><path d="M5.172,0h7.946c2.238,0,4.892.073,6.668,1.639a5.379,5.379,0,0,1,1.665,4.5c-.487,6.068-4.117,9.466-8.984,9.466H8.549c-.667,0-1.109.442-1.3,1.639L6.158,24.2c-.071.451-.267.717-.624.749H.639c-.543,0-.736-.415-.594-1.315L3.57,1.32A1.407,1.407,0,0,1,5.172,0Z" fill="#113984" fill-rule="evenodd"/><path d="M7.365,16.545,8.753,7.762a1.214,1.214,0,0,1,1.382-1.138h7.938a7.752,7.752,0,0,1,3.208.583c-.8,5.4-4.29,8.4-8.864,8.4H8.5C7.982,15.607,7.6,15.871,7.365,16.545Z" fill="#172c70" fill-rule="evenodd"/></g></g></svg>