<svg xmlns="http://www.w3.org/2000/svg" viewBox="0 0 376.512 355.6"><title>sol2</title><g id="Capa_2" data-name="Capa 2"><g id="Objects"><path d="M120.025,110.574a42.156,42.156,0,0,1,1.776,5.52c.61,2.145,2.865,3.679,3.136,5.754.52,4.029.765,7.055,3.229,10.459,2.994,4.133,6.805,5.76,11.868,4.829,7.283-1.338,16.192-1.8,22.6-5.822a12.611,12.611,0,0,0,1.856-1.443c6.919,5.614,19.49,3.121,18.507-8.022-.009-.12-.02-.257-.032-.382,1.242.028,2.472.053,3.662.124,7.684.455,14.769.585,22.4-.636,9.335-1.5,10.092-13.421,5.093-19.293a208.637,208.637,0,0,1-23.128-34.1c-2.832-5.092-4.945-10.592-7.574-15.8-2.921-5.788-7.016-11.874-8.844-18.049a8.035,8.035,0,0,0-4.656-5.382,30,30,0,0,0-4.968-12.7c-2.662-3.633-8.241-4.383-10.754,0-4.072,7.105-2.431,16.409-2.61,24.387-.215,9.566,1.173,19.1,2.306,28.577,1.1,9.2,1,18.486,2.39,27.735.564,3.76,1.211,7.533,1.837,11.308-5.486-3.215-11.625-5.59-16.289-10.009-2.947-2.793-5.76-5.732-8.566-8.675a34.541,34.541,0,0,0-7.406-9.583,10.144,10.144,0,0,0-4.645-2.33,16.536,16.536,0,0,1-3.891-6.623c-1.869-6.8-11.555-5.1-11.918,1.613-.334,6.234,1.8,11.842,5.152,16.854C112.155,96.29,117.1,103.588,120.025,110.574Z" fill="#ffa147"/><path d="M145.824,239.792c1.267-8.382-1.365-13.864-8.4-18.541-4.348-2.892-7.9-6.884-12.1-10.132a39.815,39.815,0,0,0,2.127-3.494,7.147,7.147,0,0,0,.1-6.58,11.935,11.935,0,0,0,1.461-1.813c4.585-7.092,2.515-15.565.028-23.088-3.022-9.146-2.412-15.554,3.1-23.478,2.923-4.2,1.071-11.476-3.589-13.685-5.99-2.842-11.855-1.476-18.063-.038-4.757,1.1-17.3-1.514-24.451-2.836a180.538,180.538,0,0,1-18.832-4.4c-11.991-6.034-24.822-10.776-34.119-20.8-6.137-6.259-14.325-2.49-17.046,3.651a4.008,4.008,0,0,0-3.615,6.7c7.438,9.118,15.325,16.275,24.281,23.822,9.193,7.745,16.431,17.962,26.273,24.822,10.338,7.2,21.445,13.187,31.774,20.429,4.606,3.23,9.831,7.875,15.325,10.9a71.235,71.235,0,0,1-19.237,13.123c-15.347,7.471-29.857,20.268-41.893,32.224-5.454,5.417-3.266,16.156,4.714,17.856,12.665,2.7,26.363-3.923,38.637-6.657,7.7-1.715,15.345-3.7,23-5.614,6.826-1.707,13.159-4.527,20.231-4.527C139.844,247.635,145.127,244.415,145.824,239.792Z" fill="#ffa147"/><path d="M192.345,253.684a134.572,134.572,0,0,0-13.151-5.232c-.483-.166-1.186-.363-1.994-.578a27.543,27.543,0,0,0-15.259-5.762c-3.291-4.315-10.657-6.372-12.844,1.49-3.354,12.073-2.334,24.934-5.529,37.119a87.005,87.005,0,0,0-2.8,19.8,108.159,108.159,0,0,1-1,10.95c-3.546,7.99-6.647,16.017-6.393,25.127.27,9.641,13.528,9.132,14.6,0a37.027,37.027,0,0,1,2.44-9.165,10.586,10.586,0,0,0,7.7-4.557c7.121-11.047,12.98-22.648,20.619-33.371,3.516-4.937,6.048-7.753,9.809-10.642,4.421-3.4,7.773-7.724,8.607-13.354C197.8,261.138,196.9,255.809,192.345,253.684Z" fill="#ffa147"/><path d="M323.39,223.186c-8.245-4.2-16.065-9.008-23.855-13.959-3.477-2.211-6.925-4.97-10.45-7.535-.047-.222-.071-.448-.123-.669-.828-3.57-4.2-4.771-7.117-3.991-.748-.4-1.5-.779-2.263-1.111-11.422-4.979-20.16,9.429-9.809,16.78,1.013.719,2.019,1.446,3.026,2.171a62.987,62.987,0,0,1-4.708,9.531c-4.7,7.553-13.159,11.579-16.867,19.9a12.033,12.033,0,0,0-1.037,4.115c-5.766-1.681-13.015,1.353-12.927,9.146.009.666.045,1.33.063,1.994a26.4,26.4,0,0,0-12.542-1.881c-2.125.128-4.238.312-6.365.383a6.78,6.78,0,0,0-1.914.037c-.215-.03-.4-.054-.563-.074a.1.1,0,0,0,.037-.155c-5.151-9.742-18.347-3.316-17.644,5.922a6.547,6.547,0,0,0,2.6,8.02c2.171,1.338,3.308,5.1,4.664,7.161a64.992,64.992,0,0,0,5.216,7.065c4.009,4.611,6.225,10.477,11.116,14.481,10.71,8.769,21.212,21.66,26.741,34.361,4.188,9.619,19.216,4.409,19.046-5.159-.429-24.258-9.948-47.394-10.577-71.715,4.8,1.457,9.641.806,14.51-.042,7.053-1.227,13.694-1.053,20.9-.889,14.655.334,29.31.4,43.969.5,7.27.052,10.993-6.589,9.952-13.066C344.77,233.876,332,227.576,323.39,223.186Z" fill="#ffa147"/><path d="M347.486,130.656a18.8,18.8,0,0,0-2.541.717c-8.2,2.434-15.972,6.387-24.2,8.815a106.537,106.537,0,0,0-15.573,5.495A70.556,70.556,0,0,0,293.4,148.7a8.133,8.133,0,0,0-14.146,2.012c-3.645,9.5-3.283,19.549-3.858,29.542-.4,6.978,8.566,12.355,14.435,8.285a91.269,91.269,0,0,0,11.719-10.182c4.857-4.759,10.765-7.615,16.789-10.6,6.322-3.138,12.161-7.066,18.565-10.119,2.654-1.267,5.652-1.448,8.236-2.886a62.41,62.41,0,0,1,5.649-3.242c.752-.233,1.5-.472,2.266-.676C366.206,147.321,360.591,128.053,347.486,130.656Z" fill="#ffa147"/><path d="M234.478,119.069c3.2,2.9,6.208,5.962,9.628,8.654,6.486,5.1,14.258,13.14,22.634,14.53,6.684,1.11,13.161-2.765,13.256-10.1a181.451,181.451,0,0,1,1.966-25.655c1.239-7.761,4.156-16.319,4.2-24.167.1-17.547,6.072-34.123,6.6-51.539.248-8.185-10.592-12.7-16.205-6.713a163.132,163.132,0,0,0-15.33,19.043c-4.554,6.692-11.786,12.631-14.95,19.982-5.4,12.546-15.62,22.177-22.255,33.876-.056.031-.116.052-.172.083a7.946,7.946,0,0,0-4,9.187c-.3.9-.582,1.8-.823,2.733C216.506,118.769,228.335,123.959,234.478,119.069Z" fill="#ffa147"/><path d="M260.83,132.422c-29.511-26.531-79.968-25.641-107.792,2.868a7.2,7.2,0,0,0-2.634.557c-5.3,2.174-10.148,4.215-14.524,7.986-4.889,4.212-6.708,12.252-8.98,18-6.378,16.14-6.9,32.826,1.464,48.245,7.622,14.047,19.806,29.821,35.279,35.567a57.167,57.167,0,0,0,17.6,3.564,74.818,74.818,0,0,0,12.911,5.55c19.77,6.279,45.672,1.791,61.689-11.441C288.793,216.094,293.3,161.612,260.83,132.422Z" fill="#ffc531"/><path d="M373.787,127.99c-6.908-10.407-49.183,2.792-54.882,4.042-11.987,2.628-23.766,9.171-36.332,8.876h-.032a6.615,6.615,0,0,0,.381-1.532c1.285-10.066,1.177-20.452,2.209-30.586,1.1-10.775,2.464-21.521,3.421-32.311a217.4,217.4,0,0,0,.03-31.966c-.47-8.19-.371-16.756-2.975-24.583,1.893-1.839,2.367-4.663.653-8-1.222-2.377-4.3-1.837-5.639,0,.455.131.177.381-.841.75.882-.883-.071-.491-1.345-.141-2.128.586-3.6,2.726-4.811,4.429-2.8,3.933-5.917,8.07-8.335,12.208-5.8,9.919-12.8,19.05-19.615,28.278-6.5,8.815-11.31,18.44-16.991,27.776-2.9,4.758-5.964,9.194-8.376,14.213a35.244,35.244,0,0,1-2.643,4.3c-1.52-2.8-2.339-5.707-3.8-8.635-2.74-5.506-5.634-10.938-8.768-16.232-3.061-5.173-6.923-9.795-9.928-14.981-2.944-5.083-6.979-9.568-10.682-14.1-4.235-5.188-6.906-11.549-9.971-17.476a143.567,143.567,0,0,0-8.732-15.106c-3.427-5.031-7.572-9.576-9.889-15.272-.7-1.714-3.373-2.127-3.9,0a9.516,9.516,0,0,0-.269,2.217A2.886,2.886,0,0,0,151.1,5.4c-4.311,17.919-2.574,38-.541,56.108,1.033,9.214,2.08,18.4,3,27.631.289,2.889.612,5.83,1.05,8.759-.438-.367-.882-.731-1.309-1.116-5.753-5.152-12.706-8.814-19.1-13.069-6.981-4.646-13.862-9.222-20.371-14.548-3.024-2.474-6.371-4.558-9.036-7.429a83.127,83.127,0,0,0-5.943-6.383,2.554,2.554,0,0,0-2.25-3.646q-.562-.027-1.121-.071a2.813,2.813,0,0,0-3.472,2.644c-.022.264-.03.525-.043.789a3.094,3.094,0,0,0-.011,2.249,24.115,24.115,0,0,0,1.962,8.238c1.832,4.309,3.123,8.806,4.69,13.22,2.975,8.375,7.466,15.967,10.907,24.11,3.625,8.577,7.952,16.794,10.773,25.7.556,1.764,1.084,3.568,1.64,5.373a43.372,43.372,0,0,0-6.072-2.463c-6.151-2.073-12.8-2.779-19.209-3.628A161.031,161.031,0,0,1,79.276,124.1q-4.642-1.14-9.318-2.142a58.17,58.17,0,0,1-11.368-4.076c-5.956-2.615-11.879-5.288-17.91-7.73-4.97-2.014-10.8-3.2-15.98-4.68-8.421-2.4-26.241-5.411-24.008,8.486.673,4.186,4.783,7.733,7.868,10.231,4.535,3.668,9.12,7.225,13.418,11.181,4.858,4.467,9.385,9.081,14.575,13.185,5.816,4.6,11.853,8.918,17.906,13.2,11.612,8.218,22.757,16.893,35.252,23.735,4.766,2.609,10.193,5.2,13.816,9.333,1.183,1.351,2.388,2.7,3.671,3.954-3.035,2.527-5.979,5.181-8.928,7.8q-12.337,10.961-25.023,21.538c-7.949,6.616-17.168,12.144-24.5,19.449A92.882,92.882,0,0,1,37.6,257.5c-1.806,1.295-3.69,1.693-5.344,3.347S30.2,264.806,30,267.018a5.488,5.488,0,0,0,4.076,5.35c9.915,2.058,20.266-1.111,29.926-3.207,5.607-1.216,11.8-.8,17.533-1.577,6.628-.9,13.172-2.04,19.817-2.745,10.657-1.13,20.664-6.809,31.336-7.092a32.866,32.866,0,0,0,9.221-1.4c-2.457,13.262-3.436,26.935-6.453,40.018-2.086,9.04-2.869,17.775-3.574,26.984-.655,8.527-2.847,15.842.806,24.061,1.177,2.651,5,3.271,7.3,1.915,7.2-4.257,10.411-12.273,15.237-18.7,5.794-7.722,11.922-15.08,18.337-22.291a160.607,160.607,0,0,0,16.522-21.7c2.227-3.554,6.2-8.111,8-12.729.791.977,1.582,1.948,2.339,2.917q5.017,6.405,9.908,12.917c6.523,8.661,12.144,18.113,18.934,26.545,6.766,8.4,14.288,16.156,21.055,24.558,2.72,3.379,3.324,10.985,8.143,13.565a4.941,4.941,0,0,0,4.94,0l.186-.117a4.966,4.966,0,0,0,1.744-1.941,10.922,10.922,0,0,0,1.2,1.879,2.959,2.959,0,0,0,4.21,0c3.233-4.168,2.343-9.316,1.936-14.316-.507-6.264-1.56-12.485-2.69-18.664-1.99-10.885-4.99-21.659-6.568-32.6-.776-5.409-1.989-10.8-3-16.171a88.55,88.55,0,0,1-1.364-9.575,28.92,28.92,0,0,1-.052-3.435c.019-.425.047-.688.062-.844a2.377,2.377,0,0,0,1.14-1.132c5.576,1.045,11.383.916,17.084.83,10.572-.16,21.193.6,31.772.743,10.2.139,20.391-.247,30.588-.147,9.059.087,17.175,3.647,26.1,4.152,1.237.559,2.494,1.068,3.78,1.508,2.571.881,5.233-2.431,3.621-4.715-.228-.321-.468-.636-.705-.952.526-2.979-1.164-6.444-5.076-6.477-.254,0-.5-.014-.744-.021-5.206-4.971-11.359-9.217-17.136-13.095-8.671-5.823-16.821-12.323-24.93-18.888-7.313-5.916-14.588-11.168-21.167-17.98a98.281,98.281,0,0,0-8.645-8.416c-.265-.216-.545-.413-.819-.623a24.21,24.21,0,0,0,5.581-3.488c4.554-3.584,9.228-6.9,13.967-10.239a155.791,155.791,0,0,0,14.935-11.6c5.07-4.595,12.211-7.694,18.05-11.23,5.4-3.267,11.1-6.657,15.7-11.014,3.543-3.358,11.973-5.679,13.325-10.595.063-.469.129-.938.19-1.408,0-.033,0-.05.006-.081a4.931,4.931,0,0,0,.229-.755A4.726,4.726,0,0,0,373.787,127.99ZM223.9,107.739a21.687,21.687,0,0,0,3.222-4.308c2.763-4.179,5.691-8.113,8.6-12.2,5.227-7.343,8.885-15.736,14.153-23.022,5.805-8.027,11.944-15.8,17.617-23.924,2.9-4.151,5.283-8.711,8.391-12.7a44.528,44.528,0,0,0,2.916-4.395c.494,5.122-.024,10.4.082,15.544.231,11.259.783,22.528-.558,33.741-1.218,10.186-2.332,20.393-3.505,30.586-1.166,10.123-3.083,21.3-2.041,31.518q-.526-.64-1.067-1.269c-12.25-14.054-31.426-22.221-49.418-26.746-.091-.135-.186-.27-.289-.4s-.272-.354-.455-.6C222.347,108.933,223.2,108.356,223.9,107.739ZM155.611,14.8c.032.055.065.111.1.168,3.255,5.534,6.481,11.007,9.176,16.837,2.979,6.44,6.177,12.786,9.264,19.175,1.358,2.81,4.188,5.443,6.137,7.863,2.162,2.689,4.244,5.408,6.136,8.3a339.571,339.571,0,0,1,19.268,32.754c1.127,2.224,2.145,5.272,3.611,8.117a123.814,123.814,0,0,0-25.971-.388,45.92,45.92,0,0,0-15.353,4.058,4.323,4.323,0,0,0-2.513-4.382,120.845,120.845,0,0,1-4.151-19.737c-1.022-8.7-2.145-17.368-3.311-26.052-1.233-9.206-2.185-18.443-2.552-27.725A144.247,144.247,0,0,1,155.611,14.8Zm-38.328,85.227c-3.752-7.792-8.131-15.224-11.452-23.242-.422-1.015-.8-2.069-1.177-3.133,7.464,6.994,16.271,12.736,24.613,18.5,3.49,2.411,7.15,4.573,10.706,6.883,3.386,2.2,6.223,5.614,9.641,7.591,3.636,2.106,6.378,7.2,10.31,9.075.05.073.1.152.146.224q-1.313.814-2.608,1.678a3.008,3.008,0,0,0-1.755.288c-8.893,4.539-16.215,12-22.591,19.723-2.108-4.424-3.292-9.24-4.947-13.964C125.3,115.462,121.038,107.821,117.283,100.026ZM95.164,176.167c-11.478-6.3-21.7-14.1-32.4-21.616-10.85-7.621-21.406-15.228-30.918-24.49-4.356-4.24-9.055-7.991-13.726-11.866-.94-.78-3.451-2.465-5.2-4.1,7.262-.011,15.1,3.742,21.63,5.608,11.146,3.187,21.2,10.226,32.563,12.579,10.889,2.253,21.479,5.093,32.575,6.148a80.122,80.122,0,0,1,16.446,2.974c3.841,1.2,7.072,3.175,10.678,4.466A72.09,72.09,0,0,0,115.8,169.922a55.9,55.9,0,0,0-.772,21.74c-1.7-1.75-3.891-4.574-4.928-5.732C106.3,181.7,100.08,178.864,95.164,176.167Zm44.29,69.275a6.209,6.209,0,0,1-.9.368,17.5,17.5,0,0,1-4.108.711,71.124,71.124,0,0,0-10.784,1.331c-4.813,1.132-9.512,2.747-14.269,4.092-5.333,1.508-10.6,1.725-16,2.636-4.966.84-9.928,1.747-14.927,2.384-5.3.673-10.848.245-16.056,1.319-3.429.706-7.126,1.757-10.876,2.585,2.261-2.077,4.408-4.282,6.57-6.45,6.455-6.465,14.594-11.617,21.593-17.5,7.419-6.232,14.666-12.906,21.635-19.636,3.505-3.385,6.751-6.988,9.991-10.625a23.753,23.753,0,0,0,2.365-3.367c.349.146.688.3,1.052.425q1.105.154,2.209.29a5.864,5.864,0,0,0,1.336.016,83.332,83.332,0,0,0,17.3,27.465,94.75,94.75,0,0,0,10.342,9.521,3,3,0,0,0-.256.384A6.119,6.119,0,0,0,139.454,245.442ZM190.9,266.679c1.181-1.637-1.228.8-1.6,1.278-.968,1.218-1.489,2.629-2.339,3.934-2.026,3.114-3.975,6.279-5.941,9.432a154.268,154.268,0,0,1-15.976,20.834c-5.68,6.4-10.909,13.017-16.183,19.736a112.85,112.85,0,0,0-7.118,9.908c-.263.42-.522.839-.785,1.261.411-4.211,1.522-8.54,1.615-12.4.215-8.935,1.867-17.491,3.645-26.221a243.979,243.979,0,0,0,3.3-24.823c.8-8.077,2-16.275,2.067-24.418a116.855,116.855,0,0,0,40,17.381,3.289,3.289,0,0,0,.228,2.4c.1.186.209.367.31.55A4.73,4.73,0,0,0,190.9,266.679Zm-9.133-17.924c-24.786-8.606-48.06-27.5-55.693-53.318C121.89,181.3,125.6,166.494,133,154.19c.666-1.112,1.382-2.184,2.114-3.238a4.247,4.247,0,0,0,3.128-4.163c6.885-8.541,15.336-15.7,21.578-24.784a2.674,2.674,0,0,0,.507-1.525c16.547-8.637,36.662-8.091,55.18-3.551a3.648,3.648,0,0,0,4.4,1.162,144.223,144.223,0,0,1,17.062,6.012c10.536,4.469,20.582,11.215,28.043,19.913a41.768,41.768,0,0,1,2.808,3.666,3.2,3.2,0,0,0,.61.943c5.652,8.746,8.312,19.535,8.579,29.753.313,12.065-2.731,25-6.917,36.263a65.9,65.9,0,0,1-21.815,28.9C229.6,257.944,202.8,256.057,181.766,248.755Zm77.42,64.448c1.392,7.122,2.694,14.265,3.589,21.47.381,3.045.323,6.669.662,10.156a21.714,21.714,0,0,1-1.365-2.392c-1.326-2.8-2.386-5.879-4.4-8.276-6.669-7.927-13.663-15.573-20.32-23.508-7.04-8.389-12.892-17.949-19.669-26.592-5.13-6.544-10.488-14.038-16.808-19.846a96,96,0,0,0,26.544-.748,61.23,61.23,0,0,0,23.7-9.351,3.112,3.112,0,0,0,1.117.85c.377.179.759.341,1.143.5-1.459,2.541-1.476,6.407-1.433,9.016.114,7.253,1.364,14.461,2.475,21.612C255.789,294.854,257.423,304.189,259.186,313.2Zm43.366-97.084c3.677,3.6,7.951,6.23,11.844,9.521,8.3,7.019,16.821,13.778,25.693,20.064,1.276.9,2.548,1.844,3.82,2.8-.877-.052-1.754-.1-2.621-.133-9.616-.393-19.337.542-28.959.673-10.253.14-20.5.428-30.75.718-7.792.22-17.024,2.759-24.68.256.783-.6,1.563-1.218,2.337-1.851,15.241-12.494,22.305-30.823,26.059-49.549,2.263,2.434,5.156,4.611,6.932,6.564C295.607,208.893,298.965,212.6,302.552,216.118Zm45.679-72.748c-7.551,5.218-15.651,9.591-23.29,14.678-3.474,2.313-6.318,5.5-9.538,8.162-3.483,2.885-7.182,5.5-10.777,8.25a64.308,64.308,0,0,0-8.645,7.384c-2.1,2.3-4.787,5.393-7.792,6.429a3.586,3.586,0,0,0-.778.372c-.263-.171-.343-.2-.062.049-.006,0-.007.006-.009.007-.138-.107-.276-.215-.422-.32a.447.447,0,0,0-.045-.023c1.315-13.875-1-27.868-7.546-39.995.289.047.578.1.867.136a49.428,49.428,0,0,0,10.254.343c10.81-.673,20.617-5.254,31.129-7.109,10-1.764,20.2-6.035,30.377-6.36,2.507-.08,5-.248,7.5-.305C355.737,137.855,352.084,140.708,348.232,143.37Z" stroke="#000" stroke-miterlimit="10"/><path d="M179.651,169.045a5.7,5.7,0,0,0-5.247-5.716,6.324,6.324,0,0,0-2.382-.171,5.89,5.89,0,0,0-1.1.178l-.006,0a5.262,5.262,0,0,0-2.675,1.591c-.159.167-.313.34-.455.522l0,.008a5.9,5.9,0,0,0-1,2.011,5.621,5.621,0,0,0-.192,1.329c0,.081-.021.163-.021.243a5.934,5.934,0,0,0,1.063,3.373,5.442,5.442,0,0,0,2.789,2.194,4.482,4.482,0,0,0,2.032.353,6.052,6.052,0,0,0,1.955-.2,5.7,5.7,0,0,0,5.247-5.718Z" stroke="#000" stroke-miterlimit="10"/><path d="M237.547,164.885c-.065-.479-.129-.958-.2-1.438a5.408,5.408,0,0,0-5.21-3.968,5.439,5.439,0,0,0-3.457,1.252,5.859,5.859,0,0,0-.921.425,5.925,5.925,0,1,0,5.979,10.231l.007,0c.379-.161.735-.34.8-.371a5.855,5.855,0,0,0,2.216-2.159A5.96,5.96,0,0,0,237.547,164.885Z" stroke="#000" stroke-miterlimit="10"/><path d="M235.127,196.937a2.349,2.349,0,0,0-3.27,0c-3.811,3.558-3.8,10.143-6.7,14.532-3.274,4.962-9.075,8.383-14.694,9.883-5.641,1.505-11.527-1.562-15.651-5.28-1.584-1.426-2.434-3.568-3.888-5.173-1.414-1.563-3.869-3.708-4.651-5.681a2.848,2.848,0,0,0-5.565.755c-.243,2.936,1.106,5.622,2.378,8.176a39.453,39.453,0,0,0,4.563,7.339c4.882,6.2,13.59,10.352,21.455,9.719,8.5-.685,16.45-5.621,22.035-11.864C235.879,214.048,241.526,202.989,235.127,196.937Z" stroke="#000" stroke-miterlimit="10"/></g></g></svg>